v -0.307827171065363 0 0.512753384006931
v -0.307827171065363 0 -1.74217724737533
v 1.98681949004726 0 -1.74217724737533
v 1.98757579633257 0 0.512753384006931
v -0.30782720235389 0 -3.99710988122334
v 1.98757604664079 0 -3.99708084546988
v 1.98681961520137 0 -1.74214921285474
v -0.30782720235389 0 -1.74217824860821
v -0.307827139776836 0 -3.99710687752471
v -0.307827139776836 0 -1.74217724737533
v -2.60247383217799 0 -1.74217724737533
v -2.60323001330919 0 -3.99710687752471
v -2.85118483495837 0 10.7309566708062
v 3.62703793943711 0 10.7430305380834
v 3.62809048550023 0 15.3184745568303
v -2.85118483495837 0 15.3189901917625
v 3.33603285741931 0 2.7048998229425
v 3.33603285741931 0 5.98712154448153
v 2.14264975010766 0 5.98712204509797
v 2.14264975010766 0 2.70489994809661
v 2.34155179321609 0 -4.33690274395695
v 5.11421994587255 0 -4.34214720177252
v 5.11421994587255 0 -3.27942961384345
v 2.34158383266819 0 -3.27942961384345
v 2.73569237215938 0 -4.44918513071452
v 2.73791260606661 0 1.85368497141444
v -3.16596669474925 0 1.85368497141444
v -3.16596669474925 0 -4.45593043661439
v -2.12842811123906 0 11.0177688398386
v -2.12842811123906 0 7.60128692066263
v 1.44539229826039 0 7.60128692066263
v 1.44539229826039 0 10.9952921629578
v -3.15326905938897 0 5.09589838543589
v 2.69194625494048 0 5.09589888605233
v 2.69283785281845 0 7.34120216269506
v -3.15326905938897 0 7.3412026633115
v -3.07447378403871 0 1.82956184927873
v 2.58213003163576 0 1.82956184927873
v 2.58688588780681 0 5.38788692844821
v -3.07447378403871 0 5.38788642783178
v -2.91473934343794 0 9.45085390672531
v 3.62857057666528 0 9.45085190425956
v 3.62857057666528 0 13.5669993635951
v -2.90172882280325 0 13.5669993635951
v -3.00000008009863 0 6.59462235418205
v 3.62857057666528 0 6.59462035171629
v 3.62857057666528 0 12.9701749546321
v -2.98698955946394 0 12.9701749546321
v -0.307827609104747 0 0.512753384006931
v -2.60323076423385 0 0.512753384006931
v -2.60247458310265 0 -1.74217724737533
v -0.30782770297033 0 -1.74217724737533
v -0.307827640393275 -1.66057821906258e-16 0.512753446583986
v -2.60323076423385 3.96135216543925e-16 0.512753446583986
v -2.60323076423385 3.96135216543925e-16 -1.742176871913
v -0.308584071832692 -1.65872561238841e-16 -1.74217862407054
v 4.71838202689263 0 -8.93603948157603
v 4.71364619537914 0 -10.9040608243367
v 6.81500172051858 0 -10.9040608243367
v 6.81500172051858 0 -8.93603948157603
v -6.81623223572578 0 -8.93603948157603
v -6.82096806723928 0 -10.9040608243367
v -4.71961304271628 0 -10.9040608243367
v -4.71961304271628 0 -8.93603948157603
v -2.59999953542794 0 3.458245344988
v -2.59999953542794 0 -1.5417554559983
v 2.59999953542794 0 -1.5417554559983
v 2.59999953542794 0 3.458245344988
vt 3.25628803921063e-08 0.989292323589325
vt 3.25628803921063e-08 -1.86680381375481e-07
vt 0.993958413600922 -1.86680381375481e-07
vt 0.99428790807724 0.989292323589325
vt 3.64875063496584e-08 0.0074840234592557
vt 0.992516577243805 0.0074840234592557
vt 0.992186963558197 1.00000059604645
vt 3.64875063496584e-08 1.00000059604645
vt 0.999951660633087 0.00759990466758609
vt 0.999951660633087 1.0001163482666
vt 0.011506624519825 1.0001163482666
vt 0.011177129112184 0.00759996427223086
vt 2.13453859032597e-08 -2.44705091745345e-08
vt 0.99223929643631 0.00262981955893338
vt 0.992401778697968 0.99988579750061
vt 0.00759834470227361 1
vt 0.992239236831665 0.00262981955893338
vt 0.992401719093323 0.99988579750061
vt 1 -6.06436287853285e-08
vt 1 0.999999761581421
vt 1.77367383003002e-08 0.999999940395355
vt 1.77367383003002e-08 -2.25127223529853e-08
vt -3.49224862361552e-08 0.00493486970663071
vt 1 -8.01966848484881e-08
vt 1 0.999999940395355
vt 8.31123179523274e-06 0.999999940395355
vt 0.996996700763702 -0.000965416431427002
vt 0.99741518497467 0.942363917827606
vt 0.0011129891499877 0.941931307315826
vt 0.00111299753189087 -0.00187000632286072
vt 0.00569872744381428 0.998100280761719
vt -1.50795145259508e-08 -8.0303919958169e-08
vt 1 -8.0303919958169e-08
vt 1 0.943988263607025
vt 0.00569872744381428 0.998100161552429
vt 1 0.943987965583801
vt 0.00111297110561281 0.195377483963966
vt 0.998311519622803 0.195445910096169
vt 0.998479604721069 0.972028434276581
vt 0.00111296772956848 0.972028315067291
vt 0.0011129891499877 0.137409463524818
vt 0.99741518497467 0.137842133641243
vt 0.998311519622803 0.884833753108978
vt 0.00111297110561281 0.884765326976776
vt 0 2.91065609114849e-12
vt 1 0
vt 0.999999701976776 0.992839455604553
vt 0.00196251343004405 0.992839157581329
vt 1.00000011920929 0.990798115730286
vt 0.00781318452209234 0.990798115730286
vt 0.00781318452209234 1.98459531475237e-07
vt 1.00000011920929 1.98459531475237e-07
vt 1.00023245811462 0.990798115730286
vt 0.00781345367431641 0.990798115730286
vt 0.0078132152557373 -0.000204563140869141
vt 1.00023245811462 -0.000204980373382568
vt 0.00225370330736041 0.997117102146149
vt 0 0.0122470464557409
vt 0.990754127502441 0.0122470464557409
vt 0.990754127502441 0.997117102146149
vt 0.00225370330736041 0.999641001224518
vt 0.990754127502441 0.999641001224518
vt 0.00225370330736041 1.00216448307037
vt 0.990754127502441 1.00216448307037
vt 0.00225371122360229 1.00721192359924
vt -5.96046447753906e-08 0.0197440162301064
vt 0.992651641368866 0.0123960264027119
vt 0.992651641368866 1.00721192359924
vt 0.00225370330736041 1.00721180438995
vt 0 0.0197438970208168
vt 0.992651760578156 0.0123956687748432
vt 0.992651760578156 1.00721180438995
vt 1 1.00948882102966
vt 1 0.00757116079330444
vt 1.19209289550781e-07 0.00757116079330444
vt 1.19209289550781e-07 1.00948870182037
vt 0.99999988079071 0.00757104158401489
vt 2.98023223876953e-08 0.00757104158401489
vt 5.96046447753906e-08 1.00948882102966
vn 0 -1 0
g bu_RzoomOut_down buRzoom FI
f 1/1/1 2/2/1 3/3/1 4/4/1
g bu_RzoomOut_up buRzoom FI
f 1/1/1 2/2/1 3/3/1 4/4/1
g bu_RzoomOut_rollover buRzoom FI
f 1/1/1 2/2/1 3/3/1 4/4/1
g bu_Rarrow_down1 bu_Rarrow FI
f 5/5/1 6/6/1 7/7/1 8/8/1
g bu_Rarrow_orllover bu_Rarrow FI
f 5/5/1 6/6/1 7/7/1 8/8/1
g bu_Rarrow_up1 bu_Rarrow FI
f 5/5/1 6/6/1 7/7/1 8/8/1
g bu_Larrow_down1 bu_Larrow FI
f 9/9/1 10/10/1 11/11/1 12/12/1
g bu_Larrow_rollover2 bu_Larrow FI
f 9/9/1 10/10/1 11/11/1 12/12/1
g bu_Larrow_up1 bu_Larrow FI
f 9/9/1 10/10/1 11/11/1 12/12/1
g bu_backinattic_down1 bu_backinattic FI
f 13/13/1 14/14/1 15/15/1 16/16/1
g bu_backinattic_rollover2 bu_backinattic FI
f 13/13/1 14/17/1 15/18/1 16/16/1
g bu_backinattic_up1 bu_backinattic FI
f 13/13/1 14/17/1 15/18/1 16/16/1
g tag_rollover tag FI
f 17/19/1 18/20/1 19/21/1 20/22/1
g tag_up tag FI
f 17/19/1 18/20/1 19/21/1 20/22/1
g tag_down tag FI
f 17/19/1 18/20/1 19/21/1 20/22/1
g trashcan_base FI
f 21/23/1 22/24/1 23/25/1 24/26/1
g low FI
f 25/27/1 26/28/1 27/29/1 28/30/1
g bu_attic_down bu_attic FI
f 29/31/1 30/32/1 31/33/1 32/34/1
g bu_attic_up bu_attic FI
f 29/35/1 30/32/1 31/33/1 32/36/1
g bu_attic_rollover bu_attic FI
f 29/35/1 30/32/1 31/33/1 32/36/1
g bu_attic_down bu_atticX FI
f 29/31/1 30/32/1 31/33/1 32/34/1
g bu_attic_up bu_atticX FI
f 29/35/1 30/32/1 31/33/1 32/36/1
g bu_attic_rollover bu_atticX FI
f 29/35/1 30/32/1 31/33/1 32/36/1
g scrollup FI
f 33/37/1 34/38/1 35/39/1 36/40/1
g item_backgroun FI
f 37/41/1 38/42/1 39/43/1 40/44/1
g rooftile FI
f 41/45/1 42/46/1 43/47/1 44/48/1
g attic FI
f 45/45/1 46/46/1 47/47/1 48/48/1
g bu_LzoomIn_up bu_LzoomIn FI
f 49/49/1 50/50/1 51/51/1 52/52/1
g bu_LzoomIn_down bu_LzoomIn FI
f 49/49/1 50/50/1 51/51/1 52/52/1
g buLzoomIn_rollover bu_LzoomIn FI
f 53/53/1 54/54/1 55/55/1 56/56/1
g RarrowUp Rarrow movingButtom
f 57/57/1 58/58/1 59/59/1 60/60/1
g RarrowDown Rarrow movingButtom
f 57/61/1 58/58/1 59/59/1 60/62/1
g RarrowRollover Rarrow movingButtom
f 57/63/1 58/58/1 59/59/1 60/64/1
g LarrowUp Larrow movingButtom
f 61/65/1 62/66/1 63/67/1 64/68/1
g LarrowDown Larrow movingButtom
f 61/69/1 62/70/1 63/71/1 64/72/1
g LarrowRollover Larrow movingButtom
f 61/69/1 62/70/1 63/71/1 64/72/1
g handdown buttom movingButtom
f 65/73/1 66/74/1 67/75/1 68/76/1
g handup buttom movingButtom
f 65/73/1 66/77/1 67/78/1 68/79/1
g handrollover buttom movingButtom
f 65/73/1 66/77/1 67/78/1 68/79/1
