v 8.98768918032215 -3.22977056665882 22.3152380915764
v 23.153506401015 -1.00568992271709 22.3152380915764
v 23.153506401015 -1.00568992271709 29.9476203017347
v 8.98768918032215 -3.22977056665882 29.9476203017347
v 21.033187525164 13.5238051162941 22.3152300817134
v 21.033187525164 13.5238051162941 29.9475962721457
v 21.5924321566335 11.4462709237909 29.9475962721457
v 21.5924321566335 11.4462709237909 22.3152300817134
v 7.07682221517594 10.2109177593183 29.9476203017347
v 7.07682221517594 10.2109177593183 22.3152380915764
v 7.43048770471314 9.22334169765897 22.3152380915764
v 7.43048770471314 9.22334169765897 29.9476203017347
v 7.43044164800075 9.22337373711107 29.9472918973507
v 7.43044164800075 9.22337373711107 22.3149176970554
v 6.42643535481157 7.30996764538597 23.351714367003
v 6.42643735727732 7.30996964785172 28.8862653917528
v 7.07683222750472 10.2109217642498 22.3152380915764
v 21.0331995399586 13.5238091212257 22.3152380915764
v 21.592444171428 11.4462749287224 22.3152541113025
v 7.43049571457616 9.223349707522 22.3152541113025
v 23.153506401015 -1.00568992271709 22.3152541113025
v 8.98768918032215 -3.22977457159033 22.3152541113025
v 7.43049971950768 9.22334169765897 22.3152300817134
v 8.98768918032215 -3.22977457159033 22.3152300817134
v 7.94648708571093 -1.50412567656695 23.351714367003
v 21.0331955350271 13.5237971064311 29.9476203017347
v 21.0331955350271 13.5237971064311 22.3152380915764
v 7.07682221517594 10.2109097494552 22.3152380915764
v 7.07683422997048 10.210911751921 29.9476203017347
v 8.98768317292488 -3.22976856419306 29.9476203017347
v 7.94648708571093 -1.50412567656695 28.8862653917528
v 8.9876911827879 -3.22977457159033 22.3152380915764
v 7.94649509557395 -1.5041236741012 28.8862573818898
v 7.94649509557395 -1.5041236741012 23.3517063571399
v 6.42643935974308 7.30996964785172 23.3517063571399
v 6.42643935974308 7.30996964785172 28.8862573818898
v -29.3381156827541 8.43092594860221 23.8974263348917
v -29.3381156827541 8.43092594860221 29.7447945502174
v -23.6075032358114 9.13772627425121 29.7447945502174
v -10.438411342818 10.7619723058447 29.7447945502174
v -10.438411342818 10.7619723058447 24.2102355156045
v -27.5163979924589 -3.00937518059624 29.7447945502174
v -27.5163979924589 -3.00937518059624 23.8974263348917
v -8.79664974325479 1.10928637449624 24.2102355156045
v -8.79664974325479 1.10928637449624 29.7447945502174
v -27.5164150134179 -3.00936917319897 23.8974263348917
v -29.3381226913842 8.43091793873919 23.8974263348917
v -10.4384173502153 10.7619642959816 24.2102435254675
v -8.79666576298084 1.10928236956473 24.2102435254675
v -24.4322943505985 -2.33081362704165 23.9489617935942
v 6.42643935974308 7.3099616379887 23.3517063571399
v -8.7966677654466 1.10929037942776 29.7447945502174
v -8.7966677654466 1.10929037942776 24.2102435254675
v 7.94649109064244 -1.5041236741012 23.3517063571399
v 7.94649109064244 -1.5041236741012 28.8862573818898
v -29.9349988801454 -3.81420310974922 21.1781201710328
v 23.8336389316289 -3.81420310974922 21.1781201710328
v 23.8336389316289 -3.81420310974922 30.3405931984691
v -29.9349988801454 -3.81420310974922 30.3405931984691
v 23.8336389316289 14.380089594225 30.3405931984691
v -29.9349988801454 14.380089594225 30.3405931984691
v 23.8336389316289 14.380089594225 21.1781201710328
v -29.9349988801454 14.380089594225 21.1781201710328
vt -0.00190838298294693 1.99790823459625
vt -0.00190879544243217 0.0346351861953735
vt 0.9999018907547 0.0346351861953735
vt 0.9999018907547 1.99790823459625
vt -7.82813262939453 3.0010552406311
vt -7.82813549041748 2.05366897583008
vt -7.38874101638794 2.05366659164429
vt -7.38873720169067 3.00105333328247
vt 0.473247826099396 0.0411103293299675
vt 0.473247885704041 0.993976414203644
vt 0.27323380112648 0.993975877761841
vt 0.27323380112648 0.0411093346774578
vt 1.83565258979797 0.377225339412689
vt 0.440066456794739 0.372517943382263
vt 0.584911823272705 0.811924457550049
vt 1.69027090072632 0.815654993057251
vt 5.29195261001587 2.31093525886536
vt 5.29697036743164 1.03575336933136
vt 5.00814437866211 0.997486591339111
vt 5.07150268554688 2.28169512748718
vt 3.72766852378845 1.03806030750275
vt 3.72842454910278 2.27773523330688
vt 6.9171462059021 2.63154864311218
vt 1.3907470703125 2.63154864311218
vt 1.94930720329285 2.00094223022461
vt 6.14397621154785 2.00094223022461
vt -0.248753875494003 -0.346883088350296
vt -0.991637587547302 -0.351949512958527
vt -0.986368834972382 0.995875060558319
vt -0.243484407663345 1.00094163417816
vt -11.6945695877075 0.64952552318573
vt -11.6945695877075 1.65312445163727
vt -13.2015581130981 1.65312445163727
vt -13.2015581130981 0.64952552318573
vt -2.97152590751648 -2.59547662734985
vt -2.06710696220398 -2.59547662734985
vt -2.06710696220398 -2.11738657951355
vt -2.06710696220398 -1.01872408390045
vt -2.97751951217651 -1.01872408390045
vt 8.97182941436768 -1.99057340621948
vt 10.0063018798828 -1.99057340621948
vt 9.93279075622559 1.00698113441467
vt 8.99105739593506 1.00698113441467
vt 0.0105267316102982 -1.65584540367126
vt -1.02132880687714 -1.65584540367126
vt -1.00850331783295 0.00271099945530295
vt 0.0105267316102982 0.00271099945530295
vt -1.88344168663025 -2.68103504180908
vt -3.620680809021 -2.67122530937195
vt -3.85352182388306 -1.36800682544708
vt -2.08648681640625 -1.36792957782745
vt -1.91689383983612 -2.46469807624817
vt 1.99984419345856 3.40337252616882
vt 0.413201212882996 3.37904214859009
vt 0.413279086351395 5.79846572875977
vt 1.97551369667053 5.72547435760498
vt 0.953472495079041 -0.938723921775818
vt 0.0581442937254906 -0.938723921775818
vt 0.0581442937254906 1.80563855171204
vt 0.953472495079041 1.80563855171204
vn 0.155103223763702 -0.987898269042975 0
vn 0.965626426773943 0.25993384526796 0
vn -0.94145183508893 -0.337147508084646 0
vn -0.885499103752988 0.464641084335699 0
vn -0.895122765832823 0.204396242059823 -0.39620374849264
vn 1.94394760900922e-06 -9.81584707866174e-06 -0.999999999949935
vn 9.71973804541079e-07 -4.91376840721589e-06 -0.999999999987455
vn 0 -1.16897815871653e-08 -1
vn -0.703525673431757 -0.1017961294488 -0.703341435471874
vn -0.857322582990661 -0.339913377338419 -0.386596539819759
vn -0.230956895776798 0.972963983040043 0
vn -0.856218042822338 -0.516614617626467 -3.79427662101344e-07
vn 0.985452927375425 0.169948603781276 0
vn -0.122410270473137 0.992479584516827 2.90986015577119e-08
vn 0.0395793962270859 0.999216428705163 1.47430679810097e-08
vn 0.200528673883108 0.979687833419749 0
vn 0.214877616764909 -0.976640983070766 0
vn 0.0161730595377048 0.0026555941394628 -0.999865680961676
vn -0.01824710871814 -0.00318097017215648 -0.999828447510968
vn -0.052645036744126 -0.00901365710384245 -0.998572608322412
vn -0.154221243082254 -0.988036339504861 0
vn 0 -1 0
vn 0 0 1
vn 0 1 0
vn 0 0 -1
vn 1 0 0
vn -1 0 0
g pipeduct geometry props
f 1/1/1 2/2/1 3/3/1 4/4/1
f 5/5/2 6/6/2 7/7/2 8/8/2
f 9/9/3 10/10/3 11/11/3 12/12/3
f 13/13/4 14/14/4 15/15/5 16/16/4
f 17/17/6 18/18/6 19/19/7 20/20/7
f 20/20/7 19/19/7 21/21/8 22/22/8
f 23/23/9 24/24/9 25/25/10 15/26/5
f 26/27/11 27/28/11 28/29/11 29/30/11
f 30/13/12 31/16/12 25/15/10 32/14/12
f 33/31/13 34/32/13 35/33/13 36/34/13
f 37/35/14 38/36/14 39/37/14 40/38/15 41/39/15
f 41/40/15 40/41/15 36/42/16 35/43/16
f 42/44/17 43/45/17 44/46/17 45/47/17
f 46/48/18 47/49/18 48/50/19 49/51/19 50/52/18
f 49/53/19 48/54/19 51/55/20 34/56/20
f 52/57/21 53/58/21 54/59/21 55/60/21
g pCube1 collision props
f 56//22 57//22 58//22 59//22
f 59//23 58//23 60//23 61//23
f 61//24 60//24 62//24 63//24
f 63//25 62//25 57//25 56//25
f 57//26 62//26 60//26 58//26
f 63//27 56//27 59//27 61//27
