v 1.70261671168861 -0.15 1.57999204689548
v 1.70261671168861 -0.15 5.09872419994707
v -1.84046551253168 -0.15 5.09872419994707
v -1.84046551253168 -0.15 1.57999204689548
v 2.71668620650497 -0.025 3.06982977584531
v 2.71668620650497 -0.025 2.34204991021647
v 3.72863388558553 -0.025 2.34204991021647
v 3.72863388558553 -0.025 3.06982977584531
v 1.12427102185512 3.72529028458413e-10 2.76888369514957
v 1.12427102185512 3.72529028458413e-10 2.54552645948317
v 2.90267350377369 3.72529028458413e-10 2.54552645948317
v 2.90267350377369 3.72529028458413e-10 2.76888369514957
v -1.84046551253168 0.15 1.57999204689548
v -1.84046551253168 0.15 5.09872419994707
v 1.70261671168861 0.15 5.09872419994707
v 1.70261671168861 0.15 1.57999204689548
v 3.72863388558553 0.025 3.06982977584531
v 3.72863388558553 0.025 2.34204991021647
v 2.71668620650497 0.025 2.34204991021647
v 2.71668620650497 0.025 3.06982977584531
v -0.739605293280615 -0.739605293280615 0.482111796857593
v 0.739605293280615 -0.739605293280615 0.482111796857593
v 0.739605293280615 0.739605293280615 0.482111796857593
v -0.739605293280615 0.739605293280615 0.482111796857593
v 0.831763803958893 -0.831763803958893 0
v -0.831763803958893 -0.831763803958893 0
v 0.831763803958893 0.831763803958893 0
v -0.831763803958893 0.831763803958893 0
v -0.1 -0.1 2
v 0.1 -0.1 2
v 0.1 0.1 2
v -0.1 0.1 2
v 0.1 -0.1 0.357394407049499
v -0.1 -0.1 0.357394407049499
v 0.1 0.1 0.357394407049499
v -0.1 0.1 0.357394407049499
v -1.60000002384186 -1.60000002384186 0.025
v 1.60000002384186 -1.60000002384186 0.025
v 1.60000002384186 1.60000002384186 0.025
v -1.60000002384186 1.60000002384186 0.025
v 0.873174602690047 1.32954657460831 3.25143130014751
v 0.110146066134225 1.58870029402554 3.25143130014751
v -0.680232890044199 1.43161973024818 3.25143130014751
v -1.28618086282266 0.900394493486993 3.25143130014751
v -1.5453345822399 0.13736595693117 3.25143130014751
v -1.38825401846253 -0.653012999247254 3.25143130014751
v -0.857028781701346 -1.25896097202572 3.25143130014751
v -0.0940002451455229 -1.51811469144295 3.25143130014751
v 0.6963787110329 -1.36103412766559 3.25143130014751
v 1.30232668381136 -0.829808890904401 3.25143130014751
v 1.5614804032286 -0.066780354348578 3.25143130014751
v 1.40439983945124 0.723598601829845 3.25143130014751
v 1.40439983945124 0.723598601829845 1.10585628204808e-14
v 1.5614804032286 -0.066780354348578 1.10585628204808e-14
v 1.30232668381136 -0.829808890904401 1.10585628204808e-14
v 0.6963787110329 -1.36103412766559 1.10585628204808e-14
v -0.0940002451455229 -1.51811469144295 1.10585628204808e-14
v -0.857028781701346 -1.25896097202572 1.10585628204808e-14
v -1.38825401846253 -0.653012999247254 1.10585628204808e-14
v -1.5453345822399 0.13736595693117 1.10585628204808e-14
v -1.28618086282266 0.900394493486993 1.10585628204808e-14
v -0.680232890044199 1.43161973024818 1.10585628204808e-14
v 0.110146066134225 1.58870029402554 1.10585628204808e-14
v 0.873174602690047 1.32954657460831 1.10585628204808e-14
vt 1 0
vt 1 1
vt 0 1
vt 0 0
vt 0.00749259442090988 1.01290452480316
vt 0.000393566297134385 -0.0129050351679325
vt 0.992507696151733 -0.0129050351679325
vt 0.999606728553772 1.01290452480316
vt 0.0553994476795197 0.0553994476795197
vt 0.944600582122803 0.0553994476795197
vt 0.944600582122803 0.944600582122803
vt 0.0553994476795197 0.944600582122803
vn 0 -1 0
vn 0 1 0
vn 0 0 1
vn 0 -0.982215642806548 0.187756307553488
vn 0.982215642806548 0 0.187756307553488
vn 0 0.982215642806548 0.187756307553488
vn -0.982215642806548 0 0.187756307553488
vn 1 0 0
vn -1 0 0
vn 0.896945716388361 0.44214068106494 0
vn 0.997848116740424 -0.0655677963453891 0
vn 0.831377920042972 -0.555707435675483 0
vn 0.44214068106494 -0.896945716388361 0
vn -0.0655677963453889 -0.997848116740424 0
vn -0.555707435675483 -0.831377920042972 0
vn -0.896945716388361 -0.44214068106494 0
vn -0.997848116740423 0.065567796345389 0
vn -0.831377920042972 0.555707435675483 0
vn -0.44214068106494 0.896945716388361 0
vn 0.0655677963453892 0.997848116740423 0
vn 0.555707435675483 0.831377920042972 0
g sign_the_burrrrgh prop_sign_BR neighborhood_sign
f 1/1/1 2/2/1 3/3/1 4/4/1
f 5/5/1 6/6/1 7/7/1 8/8/1
f 9/5/1 10/6/1 11/7/1 12/8/1
f 13/1/2 14/2/2 15/3/2 16/4/2
f 17/8/2 18/7/2 19/6/2 20/5/2
g base_BR prop_sign_BR neighborhood_sign
f 21/9/3 22/10/3 23/11/3 24/12/3
f 25/1/4 22/10/4 21/9/4 26/4/4
f 27/2/5 23/11/5 22/10/5 25/1/5
f 28/3/6 24/12/6 23/11/6 27/2/6
f 26/4/7 21/9/7 24/12/7 28/3/7
g post_BR prop_sign_BR neighborhood_sign
f 29/1/3 30/2/3 31/3/3 32/4/3
f 33/1/1 30/2/1 29/3/1 34/4/1
f 35/1/8 31/2/8 30/3/8 33/4/8
f 36/1/2 32/2/2 31/3/2 35/4/2
f 34/1/9 29/2/9 32/3/9 36/4/9
g o10 drop_shadow neighborhood_sign
f 37/4/3 38/1/3 39/2/3 40/3/3
g prop_post_sign_collisions neighborhood_sign
f 41//3 42//3 43//3 44//3 45//3 46//3 47//3 48//3 49//3 50//3 51//3 52//3
f 53//10 52//10 51//11 54//11
f 54//11 51//11 50//12 55//12
f 55//12 50//12 49//13 56//13
f 56//13 49//13 48//14 57//14
f 57//14 48//14 47//15 58//15
f 58//15 47//15 46//16 59//16
f 59//16 46//16 45//17 60//17
f 60//17 45//17 44//18 61//18
f 61//18 44//18 43//19 62//19
f 62//19 43//19 42//20 63//20
f 63//20 42//20 41//21 64//21
f 64//21 41//21 52//10 53//10
