v 0.0555136310459908 -0.374384281736879 0.519956692192573
v -0.0038715105240869 -0.389682475090072 0.61728821616508
v -0.00640064967705249 -0.468234069267334 0.620591993143044
v 0.0720332666065391 -0.448028637430325 0.492039742530537
v -0.0621495681619375 -0.370595855685273 0.51995670836496
v -0.0833723498376269 -0.44302501252239 0.492039757751608
v -0.00314608168506625 -0.367151528510846 0.469812130139334
v -0.00555254535591724 -0.441892990424225 0.421000190101812
v -0.0091111569547465 -0.552418708709683 0.584441253232948
v 0.080453300267563 -0.523616131800284 0.433278824469131
v -0.0966373124096155 -0.517914366840464 0.433278876978368
v -0.00694001553348858 -0.484985942047214 0.355412966124862
v -0.0111252688255603 -0.614974018629635 0.466507114230595
v 0.112743527806802 -0.598117824466771 0.336127012172648
v -0.133653186715571 -0.590184539948807 0.336127042614788
v -0.00797189151197389 -0.517034595047662 0.230779262238913
v -0.00132044194153055 -0.310449661363701 0.526756690618742
v 0.0665139663844921 -0.33891329517079 0.513431021408249
v -0.0102565479988096 -0.318554527463325 0.588723576673473
v -0.0120046004262124 -0.372846726037782 0.634567066480938
v 0.0965652896706359 -0.401638368118891 0.528087325972204
v -0.0881777029574938 -0.333932657828735 0.513431034572816
v -0.122201741842321 -0.394594684053689 0.528087344589707
v -0.0114071817621086 -0.354291424191801 0.438138485889876
v -0.013631842111731 -0.423386324233532 0.421607613389721
v -0.0100090914379148 -0.310868655760709 0.507360185865697
v 0.0199470877316849 0.0246207487821735 -0.0175763928671209
v -0.0293180658604745 0.00431735768490739 -0.0175763928671209
v -0.0266560029016407 -0.052488184699991 0.279461743011875
v 0.0134095943882138 -0.0389373180889445 0.289365688333987
v 0.0128977052081507 -0.0281957228757271 -0.0175763928671209
v 0.00789690947792685 -0.0747226021089417 0.265366762016076
v -0.00197384757759207 -0.330745823267464 0.528687004029281
v -0.0297159834272848 -0.333505148224839 0.516788727968071
v -0.00529818813665225 -0.339490047895181 0.499854876300481
v 0.00436910820134337 -0.180232966048924 0.491012738445612
v -0.0264243035188737 -0.184783320977097 0.478380621261797
v 0.000568613155481652 -0.193539552123789 0.460402202105585
v -0.0560026243029536 0.0259047891640139 0.0194734280392846
v 0.0463642393801244 -0.0907968383396895 -0.0325670253706284
v 0.193909651077927 -0.0458274735057026 0.152097499674902
v 0.0915428068486315 0.0708744348554421 0.204137959198401
v 0.340026443129891 0.0239029620188713 0.245602932422444
v 0.237659782379699 0.140604835972528 0.297643307899649
v 0.476895077955426 0.085695823500184 0.219836909039815
v 0.374528177852972 0.202397750849966 0.271877394606598
v 0.628550212184258 0.156761242912665 0.0604996437927633
v 0.526183370116494 0.273463182480192 0.11254010399555
v -0.03668889204222 -0.0590278637759428 -0.00091839154341822
v 0.0514800008538308 0.0749745023153706 -0.0337228522504461
v -0.0311191250635501 0.132718797478624 0.185042652681539
v -0.119287991963092 -0.00128354504111765 0.217847107133748
v -0.130754711864662 0.228489745997307 0.281442153313884
v -0.218923608948605 0.0944873952390165 0.314246607780055
v -0.238895230768086 0.299509074985769 0.28522387993194
v -0.327063924135944 0.165506809757605 0.318028398028605
v -0.422479067600821 0.401355550654359 0.178434866233162
v -0.5106479828498 0.267353147564931 0.211239287652183
v -0.0252499042220629 0.0191444487083615 -0.0175763928671209
v -0.00337165171705832 -0.0294418159745184 -0.0175763928671209
v 0.0158350768051748 -0.0249531012507561 0.249188090246806
v -0.00200061973311457 0.0146556714075444 0.249188090246806
v 0.0277660650218253 0.0137983774888547 -0.0175763928671209
v 0.0412193808968612 0.0102974298432117 0.249188090246806
v -0.0138212376692164 0.00867067672449147 0.668167191853361
v -0.00137560010895016 -0.0189681065677032 0.668167191853361
v 0.0163374297575062 0.00562952963385995 0.668167191853361
v -0.0250819474067588 0.0101668941067273 0.50605329002921
v -0.0112887755466571 -0.020464323949939 0.50605329002921
v 0.00834211589783195 0.00679650957503031 0.50605329002921
v -0.00976180154194669 0.0483579210096144 -0.00478696674499612
v 0.111095767634434 -0.062095555733508 -0.00478696674499612
v 0.148027243576651 -0.00634755049477725 0.210798787945525
v 0.0271696744002695 0.104105894959818 0.210798787945525
v 0.226014680436903 0.0636481159315335 0.400895021093173
v 0.105157142549049 0.174101553563997 0.400895021093173
v 0.305348149747673 0.126108503717137 0.568233262209755
v 0.184490580571292 0.236561949171732 0.568233262209755
v 0.409310289568163 0.193652549753665 0.734424778795618
v 0.288452689103254 0.304106026496787 0.734424778795618
v -0.0874446132990319 -0.0596009527291526 0.0137094682048312
v 0.0329115885136321 0.0451264418954924 -0.0230747414386179
v -0.00451962778887411 0.130893567728558 0.184167933276319
v -0.124875798313011 0.026166188748177 0.22095213411987
v -0.049750854962767 0.253119728383743 0.359317449134166
v -0.170107025486904 0.148392349403361 0.396101649977717
v -0.109385536724501 0.371201645358028 0.511307697596512
v -0.229741738537165 0.266474250733383 0.548091898440063
v -0.179908250573426 0.51359808038226 0.657446490810925
v -0.300264483674618 0.408870685757614 0.694230660365948
v -0.104842160943299 9.33321195190438e-09 0.80478942300391
v 0.0019174276941561 0.106759521904893 0.804789360426855
v -0.084323707840887 7.53944028818253e-09 0.72800355946298
v 0.00191740007225297 0.0862411313795355 0.72800355946298
v 0.00191740007225297 -0.106759521904893 0.804789360426855
v 0.00191740007225297 -0.0862411313795355 0.72800355946298
v 0.108676945443541 0 0.80478942300391
v 0.0881585549181841 0 0.72800355946298
v 0.00191740007225297 0.07867049670282 0.908976777644921
v -0.0767530731641714 6.87759490653311e-09 0.908976777644921
v 0.00191740007225297 -0.07867049670282 0.908976777644921
v 0.0805879202414685 0 0.908976777644921
v 0.00191740007225297 0.0362158760311097 0.98709215329388
v -0.0342984837809886 3.16609264323508e-09 0.98709215329388
v 0.00191740007225297 -0.0362158760311097 0.98709215329388
v 0.0381332682812308 0 0.98709215329388
v 0.00191740007225297 0 0.680715643514798
v 0.00191740007225297 0 1.00828431096916
v 1.01479377831776e-08 0.0773859149201961 0.684929081774133
v -0.0773859149201961 6.76529185545174e-09 0.684929081774133
v -0.109440197781941 9.56756796856201e-09 0.748370763823742
v 1.43513444930768e-08 0.109440197781941 0.748370763823742
v -3.38264592772587e-09 -0.0773859149201961 0.684929081774133
v -4.783783984281e-09 -0.109440197781941 0.748370763823742
v 0.0773859149201961 0 0.684929081774133
v 0.109440197781941 0 0.748370763823742
v 0 0 0.658650661078025
vn 0.798486505554526 0.282541670196352 0.531591483236872
vn 0.858198726692016 -0.127253455462723 0.497294182126635
vn -0.778657389205502 0.33332124359974 0.531591590227681
vn -0.864607107888062 -0.0717839652335186 0.497294290460682
vn -0.571437322375516 0.527539507916421 -0.62861868742792
vn -0.599197282314121 0.535124898806036 -0.595486321879185
vn 0.60418907777833 0.489687703453478 -0.628618732921498
vn 0.632379367107875 0.495471843501933 -0.595486346067683
vn 0.789375607446099 -0.402287234182826 0.463736058100548
vn -0.813618776757606 -0.350675439523083 0.463736155828667
vn -0.597542561375655 0.69924093580543 -0.392434709268393
vn 0.641285252812552 0.659354343647445 -0.392434802277255
vn 0.707664126389559 -0.54648586731744 0.447844483100561
vn -0.741352882549147 -0.499831518103421 0.44784412137093
vn -0.593923063851429 0.762456662365041 -0.256739619537953
vn 0.64174027720349 0.722671494119581 -0.2567398064223
vn 0.674069238713808 0.546333008255107 0.497142741585063
vn -0.637528545934874 0.588562808437488 0.497143011257668
vn -0.534783662420871 0.60728264344657 -0.58754933867401
vn 0.572741588045533 0.571623229010361 -0.58754911061021
vn 0.550034490779615 0.755162776382122 0.356638809048673
vn 0.681024915213844 0.459496507485858 0.570147370831678
vn -0.500317331794836 0.78898115543292 0.356638898435703
vn -0.650055396600377 0.502353884307872 0.570147837206737
vn -0.508130100740563 0.54632869217113 -0.665829378168287
vn -0.659957519042326 0.194846884523244 -0.725596833407564
vn 0.542221662473833 0.512510351386558 -0.66582941393854
vn 0.671123976637781 0.151990021917768 -0.725597437439884
vn 0.0313099812660721 0.972445043174445 -0.231020178942382
vn -0.365968534230761 0.913127819109334 0.179623545009053
vn -0.370780095793798 0.857803339413039 0.355943185712243
vn -0.591952161252423 -0.793062308784322 -0.143683030223703
vn -0.59221462756963 -0.74828163011895 -0.298925470509107
vn 0.990320470643001 -0.138647281386662 -0.00650359819731753
vn 0.99023336939234 -0.136771448742137 -0.0270452389686471
vn 2.60787575815117e-08 -8.39662231567941e-10 -1
vn -0.0307687246388843 -0.955514131244652 0.293336036953994
vn -0.403550709819379 0.53442872317484 0.742652519318412
vn -0.40052529445158 0.237879575997091 0.884868801477326
vn -0.610762131172139 -0.457806421864982 -0.646051777511098
vn -0.58821872689598 -0.189453633906092 -0.78619720803921
vn 0.992406231860283 -0.100286197391327 -0.071221833574136
vn 0.993340757014235 -0.0655584613748706 -0.0947429606701541
vn -0.487655659077471 -0.674778494347979 0.553954819218311
vn -0.369151350665951 -0.628925966413467 0.684236369299667
vn 0.0134485070345599 -0.397367794370784 0.917560882805844
vn 0.478381906123646 0.0282312899972558 0.877697981174959
vn 0.645835802341192 0.243888534030276 0.723473910644241
vn 0.803145856069942 -0.426638140473531 0.415856502860022
vn 0.715042604521732 -0.318074853563114 0.622529084661578
vn 0.375091718586716 -0.019918209246206 0.926773687362826
vn -0.0777893478589359 0.285057084667325 0.955348771831862
vn -0.284521059393824 0.400438022874831 0.871032236256221
vn -0.90942934656905 -0.40951319412792 0.0723685527984288
vn -0.911789315165919 -0.410576006092997 -0.00822119030233116
vn 0.810535295159148 -0.583675210479784 -0.0485364190340852
vn 0.81126685489609 -0.58420259816661 0.0235247623237372
vn 0.100326724706686 0.99492240305358 0.00799751284577986
vn 0.100314673323341 0.994807148565755 0.0171960308938689
vn 0 2.60922714545586e-08 -1
vn 0 0 1
vn -0.911721598832515 -0.410545594585738 -0.0146983328485063
vn -0.91020777673055 -0.409863994338137 0.0594416463804442
vn 0.811223076009084 -0.584171664949683 0.025701883593923
vn 0.810698478731135 -0.583794154625765 -0.0441855361833615
vn 0.100318700348016 0.994852520601572 0.0143045661655549
vn 0.100328609652583 0.994951892564828 0.00221394824860307
vn -0.645012583796017 -0.705769204402875 0.292999312049224
vn -0.621483706292053 -0.680024066138295 0.38900549133172
vn -0.585659107797886 -0.640825002671923 0.496333280572555
vn -0.56385934630707 -0.616971847017406 0.54900671905733
vn -0.546952891371896 -0.598472701404507 0.585382746836218
vn 0.670107154525958 -0.635257750865802 0.38393227451993
vn 0.657524931833688 -0.591922807580445 0.466141988972447
vn 0.627420173731933 -0.516320127020667 0.582887169208204
vn 0.598611456399073 -0.456827498630544 0.658006809054999
vn 0.581438525686267 -0.424405861342962 0.694124560655736
vn -0.705659241624216 0.705659527550865 0.0639504955964057
vn -0.705731910944135 0.705732203015932 -0.0623259777413714
vn -0.644688480576043 0.644688543485086 -0.410796111120385
vn -0.603203183982656 0.603203072583481 -0.521816032773078
vn -0.705659359210805 -0.705659400033123 0.0639506051815765
vn -0.705732036852769 -0.705732083807564 -0.062325901872931
vn -0.644688540089238 -0.644688426701422 -0.410796200998563
vn -0.603203117780794 -0.603202900914259 -0.521816307744547
vn 0.705659294944978 -0.705659468829034 0.0639505551944831
vn 0.705731978623186 -0.705732146368428 -0.0623258528286223
vn 0.644688463934655 -0.644688588018122 -0.410796067348235
vn 0.603202972814947 -0.603203136947761 -0.521816202473238
vn 0.705659358588108 0.705659410748958 0.063950493809295
vn 0.705732037698441 0.705732083720478 -0.0623258932832806
vn 0.644688477359154 0.64468853786648 -0.410796124986489
vn 0.603203009402844 0.603203173535668 -0.52181611788431
vn -0.685505203073831 0.685505309790525 0.245285724834735
vn -0.673946502480123 0.673946473918298 0.302642135347845
vn -0.685505304739012 -0.685505231481112 0.24528565956187
vn -0.673946595302044 -0.673946448903628 0.302641984349449
vn 0.685505159567703 -0.685505382527837 0.245285643141668
vn 0.673946432576226 -0.673946520056303 0.302642188271527
vn 0.685505170156084 0.685505332999083 0.245285751969196
vn 0.673946435977293 0.673946523457359 0.302642173124045
vn -0.607918366946938 0.607918434870301 0.510754770583117
vn -0.574184187805228 0.574184362017922 0.58363073675786
vn -0.607918411215683 -0.607918372847194 0.510754791714988
vn -0.574184187057729 -0.574184260876841 0.583630836997301
vn 0.607918345403247 -0.607918330625776 0.510754920300674
vn 0.574184249493589 -0.574184125477677 0.583630908779614
vn 0.607918366448202 0.607918351670721 0.510754870203803
vn 0.574184315338718 0.574184191322794 0.583630779220902
vn -0.17695819223099 0.176958089750621 -0.968179545680527
vn 0.433308581169649 -0.433309087809106 -0.790244840480965
vn -0.188031224155143 0.188031319658186 0.963996100391656
vn 0.45081440968192 -0.450816972681553 0.770409258229275
vn -0.5254479860801 0.525448100920413 -0.669185106800427
vn -0.665885249882358 0.665885369091644 -0.336442430764602
vn -0.525448077952366 -0.525448009048169 -0.669185106800412
vn -0.665885785768312 -0.665884712884739 -0.336442668902336
vn 0.525448032016236 -0.525448054984302 -0.669185106800412
vn 0.665884786953911 -0.665885979046796 -0.336442139768837
vn 0.525448063327727 0.525447994423541 -0.669185129767106
vn 0.665885329239219 0.665885269634575 -0.336442470546848
vn 1.3908540912517e-09 1.39085218225738e-09 -1
g desat_petals_wilt head_wilt wilt tulip
f 1//1 2//1 3//2 4//2
f 2//3 5//3 6//4 3//4
f 5//5 7//5 8//6 6//6
f 7//7 1//7 4//8 8//8
f 4//2 3//2 9//9 10//9
f 3//4 6//4 11//10 9//10
f 6//6 8//6 12//11 11//11
f 8//8 4//8 10//12 12//12
f 10//9 9//9 13//13 14//13
f 9//10 11//10 15//14 13//14
f 11//11 12//11 16//15 15//15
f 12//12 10//12 14//16 16//16
f 2//1 1//1 17//17
f 5//3 2//3 17//18
f 7//5 5//5 17//19
f 1//7 7//7 17//20
g blub_wilt head_wilt wilt tulip
f 18//21 19//21 20//22 21//22
f 19//23 22//23 23//24 20//24
f 22//25 24//25 25//26 23//26
f 24//27 18//27 21//28 25//28
f 19//21 18//21 26//29
f 22//23 19//23 26//29
f 24//25 22//25 26//29
f 18//27 24//27 26//29
g stem stem_wilt wilt tulip
f 27//30 28//30 29//31 30//31
f 28//32 31//32 32//33 29//33
f 31//34 27//34 30//35 32//35
f 27//36 31//36 28//36
f 33//37 34//37 35//37
f 36//38 37//38 34//39 33//39
f 37//40 38//40 35//41 34//41
f 38//42 36//42 33//43 35//43
f 30//31 29//31 37//38 36//38
f 29//33 32//33 38//40 37//40
f 32//35 30//35 36//42 38//42
g leaf1 stem_wilt wilt tulip
f 39//44 40//44 41//45 42//45
f 42//45 41//45 43//46 44//46
f 44//46 43//46 45//47 46//47
f 46//47 45//47 47//48 48//48
g leaf2 stem_wilt wilt tulip
f 49//49 50//49 51//50 52//50
f 52//50 51//50 53//51 54//51
f 54//51 53//51 55//52 56//52
f 56//52 55//52 57//53 58//53
g stem stem_bloom bloom tulip
f 59//54 60//54 61//55 62//55
f 60//56 63//56 64//57 61//57
f 63//58 59//58 62//59 64//59
f 59//60 63//60 60//60
f 65//61 66//61 67//61
f 68//62 69//62 66//63 65//63
f 69//64 70//64 67//65 66//65
f 70//66 68//66 65//67 67//67
f 62//55 61//55 69//62 68//62
f 61//57 64//57 70//64 69//64
f 64//59 62//59 68//66 70//66
g leaf1 stem_bloom bloom tulip
f 71//68 72//68 73//69 74//69
f 74//69 73//69 75//70 76//70
f 76//70 75//70 77//71 78//71
f 78//71 77//71 79//72 80//72
g leaf2 stem_bloom bloom tulip
f 81//73 82//73 83//74 84//74
f 84//74 83//74 85//75 86//75
f 86//75 85//75 87//76 88//76
f 88//76 87//76 89//77 90//77
g desat_petals_bloom head_bloom bloom tulip
f 91//78 92//79 93//80
f 94//81 93//80 92//79
f 95//82 91//83 96//84
f 93//85 96//84 91//83
f 97//86 95//87 98//88
f 96//89 98//88 95//87
f 92//90 97//91 94//92
f 98//93 94//92 97//91
f 92//79 91//78 99//94
f 91//78 100//95 99//94
f 91//83 95//82 100//96
f 95//82 101//97 100//96
f 95//87 97//86 101//98
f 97//86 102//99 101//98
f 97//91 92//90 102//100
f 92//90 99//101 102//100
f 99//94 100//95 103//102
f 100//95 104//103 103//102
f 100//96 101//97 104//104
f 101//97 105//105 104//104
f 101//98 102//99 105//106
f 102//99 106//107 105//106
f 102//100 99//101 106//108
f 99//101 103//109 106//108
f 93//80 94//81 107//110
f 96//84 93//85 107//110
f 98//88 96//89 107//111
f 94//92 98//93 107//110
f 103//102 104//103 108//112
f 104//104 105//105 108//112
f 105//106 106//107 108//113
f 106//108 103//109 108//112
g blub_bloom head_bloom bloom tulip
f 109//114 110//114 111//115 112//115
f 110//116 113//116 114//117 111//117
f 113//118 115//118 116//119 114//119
f 115//120 109//120 112//121 116//121
f 110//114 109//114 117//122
f 113//116 110//116 117//122
f 115//118 113//118 117//122
f 109//120 115//120 117//122
