v 21.2099988365173 11.7248336407227 30.3211007293279
v 21.2099988365173 5.11393672303127 30.3211007293279
v 21.3731793399783 5.11393672303127 20
v 21.3731793399783 11.7248336407227 20
v 22.6078730276861 13.618055721316 34.8019476953286
v 22.6116491105911 5.11393672303127 34.6131286864464
v 20.5295320226187 -1.49696019466011 0
v 20.5295320226187 0 0
v 20.5295320226187 0 14.679712859412
v 20.5295320226187 -1.49696019466011 14.5186972657949
v 20.7350215929787 0 15.2126790215066
v 21.4370179879481 0 17.5834693727179
v 21.4370179879481 -1.49696019466011 17.5834693727179
v 21.2099988365173 0 30.3211007293279
v 21.2099988365173 -1.49696019466011 30.3211007293279
v 21.3939488554655 5.11393672303127 20
v 21.3939488554655 0 20
v 22.6116491105911 -3.83428791022074 34.6131286864464
v 0.0426533966987274 -1.49696019682348 14.0008998586574
v -2.22044604925031e-16 0 14.3732174643617
v -0.0332476829139793 0 10.8305600300078
v -0.292542031002055 0 6.39050161964339e-12
v -0.292542031002055 -1.49696019466011 6.39050161964339e-12
v 0.440486670703827 -1.49696019466011 29.9057431850906
v 0.440486670703827 -0 29.9057431850906
v 0.460649947940736 0 27.6627036352038
v 0 -7.105427357601e-15 22.4147269975225
v 0.529532022618683 -1.49696019466011 23.1215699625483
v 0.440486670703827 5.11393672303127 29.9057431850906
v 0 5.11393672303127 20
v 0 -7.105427357601e-15 20
v 0.440486670703827 11.7248336407227 29.9057431850906
v -1.76194668425186 5.11393672303127 34.0593186274634
v -1.76592597401926 13.5941565340037 34.2582987793396
v 0 11.7248336407227 20
v -1.76194668425186 -3.83428791022074 34.0593186274634
v 0 -7.105427357601e-15 21.9929357369363
v -0.145713140671679 0 18.137279431701
v -0.145713140671679 -1.49696019466011 18.137279431701
v -0.145713140671679 0 17.5729623188949
v 11.3888993184088 1.60981936016856 45.4124248366157
v 11.5013136424754 1.60981936016856 41.702381098695
v 17.1386362563512 1.60981936016856 41.8731919720835
v 17.0313975016935 1.60981936016856 45.4124248366157
v 11.3666437942103 1.60981936016856 46.1469305935328
v 17.0074090235075 1.60981936016856 46.2041237950469
v 20.8497024266265 1.60981936016856 45.4124248366157
v 21.2901890976177 1.60981936016856 46.2431399250903
v 7.63510229689241 1.60981936016856 46.1046874103445
v 8.3692467485443 1.60981936016856 45.4124248366157
v 7.34144451623165 1.60981936016856 38.905156643565
v 7.48827340656203 1.60981936016856 34.0593186274634
v 21.7306757686088 1.60981936016856 34.0593186274634
v 11.3103015112779 1.16090163204224 47.9312883057671
v 16.9476926798808 1.13401816934541 48.0953378664516
v 13.9487445810987 0.128597891754162 52.0581455444122
v 20.8497024266265 10.658361923563 45.4124248366157
v 21.7306757686088 10.658361923563 34.0593186274634
v 21.2901890976177 10.658361923563 46.2431399250903
v 13.9487445810987 12.1395833919774 52.0581455444122
v 7.63510229689241 10.658361923563 46.1046874103445
v 8.3692467485443 10.658361923563 45.4124248366157
v 7.34144451623165 10.658361923563 38.905156643565
v 7.48827340656203 10.658361923563 34.0593186274634
v 19.4830573861012 -1.49696019466011 12.9862373266197
v 19.4830573863885 -3.99999999798114 12.9862373266134
v 20.5295320226187 -3.99999999783663 0
v 20.5295320226187 -1.49696019249675 0
v 21.1232575641038 -3.99999999781234 14.5186972657885
v 10.9091140044689 -1.49696019466011 20.2026347389404
v 10.9091140046039 -3.99999999890367 20.2026347389378
v 0.0426533969860317 -4.00000000000159 14.000899858651
v 1.73151705218677 -1.49696019466011 13.0753702420518
v 1.73151705247407 -3.999999999852 13.0753702420454
v -0.0981884880925202 -1.49696019466011 7.76923270331008
v -0.0981884878052161 -4 7.76923270330369
v -0.29254203071475 -4 0
v 9.39704898085696 -3.83428791022074 35.5822962896668
v 8.69142012062467 -1.49696019466012 28.9026927398222
v 2.33774690224449 -1.49696019466012 28.7756292785428
v 2.50430892874272 -1.49696019466012 20.4468723227253
v 8.8579821471229 -1.49696019466012 20.5739357840047
v 13.0836933434009 -1.49696019466012 20.4468723227253
v 19.4373665617811 -1.49696019466012 20.5739357840047
v 19.2708045352829 -1.49696019466012 28.9026927398222
v 12.9171313169027 -1.49696019466012 28.7756292785428
v 21.3939488554655 11.7248336407227 20
v 9.30850460807004 -3.99999999905666 14.2529039107503
v 12.2850918980882 -3.99999999874324 14.3479785081392
v 12.2379698356175 -3.9999999987546 16.7739094419125
v 9.26138254559933 -3.99999999906802 16.6788348445236
v 16.11188197011 -3.99999999841512 8.35587910142179
v 16.0250470472788 -3.99999999841365 4.32425440420443
v 18.920480987975 -3.99999999810831 4.24012883807915
v 19.0073159108062 -3.99999999810979 8.2717535352965
v 1.20012130624387 -3.9999999998459 8.35587910142179
v 1.11328638341275 -3.99999999984442 4.32425440420443
v 4.00872032410894 -3.99999999953908 4.24012883807915
v 4.09555524694006 -3.99999999954056 8.2717535352965
v 20.5295320226187 -4 0
v 20.5295320226187 -4 -2
v 20.5295320226187 -4 20
v 0 -4 20
v 0 -4 -2
v 20.5295320226187 0 -2
v 20.5295320226187 0 20
v 0 0 -2
vt 1 0.844659507274628
vt 0 0.844659507274628
vt 0 0.668486654758453
vt 1 0.668486654758453
vt 0.994364202022552 0.9839688539505
vt -0.00563584687188268 0.9839688539505
vt -0.00563584687188268 0.859131217002869
vt 0.994364202022552 0.859131217002869
vt 1 0
vt 0.773561716079712 0
vt 0.773561716079712 0.455823957920074
vt 1 0.46000000834465
vt 1 0.464129686355591
vt 0.773561716079712 0.471619218587875
vt 0.773561716079712 0.509864568710327
vt 1 0.513570249080658
vt 0.773561716079712 0.461339592933655
vt 0.773561716079712 0.513570249080658
vt 0.773561716079712 0.737800657749176
vt 1 0.741506397724152
vt 0 0.543552875518799
vt 0 0.741506397724152
vt 0.773561716079712 0.559918105602264
vt 1 0.394790023565292
vt 0.773561716079712 0.405355393886566
vt 0.773561716079712 0.305394440889359
vt 1 0.875370919704437
vt 0.773561716079712 0.875370919704437
vt 0.773561716079712 0.830284833908081
vt 0.773561716079712 0.676261126995087
vt 1 0.676261126995087
vt 0 0.875370919704437
vt 0 0.676261126995087
vt 0 1
vt 1 1
vt 1 0.651735365390778
vt 0.773561716079712 0.651735365390778
vt 0.773561716079712 0.620048344135284
vt 0.773561716079712 0.511798620223999
vt 1 0.511798620223999
vt 0.773561716079712 0.495868772268295
vt 0 0.585013210773468
vt 0 0
vt 1 0.558079123497009
vt 0 0.700832724571228
vt 1 0.68291711807251
vt 0.912580668926239 0.87088680267334
vt 0.929524183273315 0.886539876461029
vt 0.404274106025696 0.88393098115921
vt 0.432513356208801 0.87088680267334
vt 0.392978370189667 0.748271465301514
vt 0.398626238107681 0.656962275505066
vt 0.946467757225037 0.656962275505066
vt 0.647131681442261 0.996110916137695
vt 0.967394709587097 0.059097521007061
vt 0.0135443741455674 0.0420363247394562
vt 0.0170901846140623 -0.00752309896051884
vt 0.97094053030014 0.00953809637576343
vt 1 0.499575138092041
vt 0 0.499575138092041
vt 0.988581895828247 0.0131881209090352
vt 0.0114181153476238 0.986811876296997
vt 0.00874859094619751 0.00625568255782127
vt 0.964759111404419 -0.00102398323360831
vt 0.966382741928101 0.0522812269628048
vt 0.010372188873589 0.0595608912408352
vt 0 0.423668652772903
vt 1 0.423668652772903
vt 0.00592369865626097 1.09597611427307
vt 0.437459915876389 1.0947972536087
vt 0.431536197662354 -0.00117889523971826
vt 0.937268793582916 0.281189918518066
vt 0.870686888694763 0.25172021985054
vt 0.0311639569699764 0.7674919962883
vt 0.4373839199543 0.761487483978271
vt 0.406219959259033 -0.00600447086617351
vt 0.360150396823883 0.00857973471283914
vt 0.369303315877914 1.00637245178223
vt 0.00915293861180544 0.997792720794678
vt 0.150084957480431 0.253434270620346
vt 0.0934030041098595 0.271232515573502
vt -0.00705041689798236 0.671837389469147
vt 0.420130521059036 0.672578871250153
vt 0.415286988019943 1.134122133255
vt -0.0118939587846398 1.13338077068329
vt 0.42718094587326 0.000741441326681525
vt 0.0876856967806816 0.151395574212074
vt 0.920299887657166 0.577097296714783
vt 0.451235443353653 0.675755798816681
vt 0.0980025008320808 0.569374263286591
vt 0.0111343637108803 0.647240817546844
vt 0.972411513328552 0.657548606395721
vt 0.932124495506287 -0.000671731075271964
vt 0.510891258716583 0.387455135583878
vt 0.913737833499908 0.280877292156219
vt 0.926108121871948 0.33832636475563
vt 0.10959342867136 0.442202091217041
vt 0.0864369124174118 0.348771929740906
vt 0.0938716158270836 0.271233737468719
vt 0.0897451415657997 0.383688896894455
vt 0.924406230449677 0.383625060319901
vt 0.916754007339478 0.00692774588242173
vt 0.872506558895111 0.248115718364716
vt 0.939550518989563 0.276598691940308
vt 0.520437002182007 0.382046610116959
vt 0.0878352075815201 0.266731023788452
vt 0.145145654678345 0.249557480216026
vt 0.0827213823795319 0.150985136628151
vt 0.075577087700367 0.0066805356182158
vn 0.989218868197688 0.00204985266952506 -0.146430286845713
vn 0.989076755079719 0.00102526439044516 -0.14739783374902
vn 0.999875039401061 0 0.0158084022825112
vn 0.952408592804326 0.00404550898067438 -0.304797483929199
vn 0.951507531734344 0.00202276749998136 -0.307618798945151
vn 1 0 0
vn 0.982942712439334 0.0196684387141358 -0.182857257392077
vn 0.941238802872301 0.0329671101294632 -0.336128971701682
vn 0.946536672277109 0.0193520833128503 -0.322015255703869
vn 0.990897546121593 0 -0.134618175185243
vn 0.999841213273661 0 0.0178198832615026
vn 0.98893256229949 0 -0.148365721188437
vn 0.95059423122072 0 -0.310436156995102
vn -0.947078022826822 -0.00797184115547126 0.320904453735112
vn -0.999876495255784 -0.0105036309387647 -0.0116905077781641
vn -0.999747961288387 -0.00384800842000693 0.0221180182411136
vn -0.999720501048176 -0.00192400983807204 0.02356306368297
vn -0.971339319386171 -0.0605221824405458 -0.229862985378339
vn -0.99732806105467 -0.0644031715275224 0.0344814461722477
vn -0.973905547744898 -0.226620233693233 0.0122985264375434
vn -0.979452892918871 -0.197887609846007 0.0388911869488394
vn -0.976004334657681 -0.00151870887076074 -0.217745797325189
vn -0.998995643386065 -0.00585565466174758 0.0444231449150709
vn -0.999736030477995 -0.00585710036550265 0.0222162944572079
vn -0.976447492822677 0.00302660382141802 -0.215733941301818
vn -0.88539603661422 0.0029234331322712 -0.464828260636712
vn -0.887288048564628 0.00584679187632829 -0.461178635562326
vn -0.999012770953249 0 0.0444239065404134
vn -0.883481495320069 0 -0.468466057924174
vn -0.970147778621946 -0.238100939410689 0.0460568158544387
vn -0.996475855991625 -0.0701790779820082 0.0459430673698713
vn -0.998500617085734 -0.0525253644770226 0.0154144012521838
vn -0.99970441771566 -0.00857592598110699 -0.0227493009422191
vn 0 -1 0
vn 0.00124596748550255 -0.992420084113394 -0.122885410905399
vn 0.00247304631352998 -0.969795246703273 -0.243907899654091
vn 0.979049648593706 0 -0.203621672688692
vn 0.997002837849985 0 0.0773649876822649
vn 0.883481495320067 0 -0.468466057924177
vn 0.620901723034841 0 0.783888417016329
vn -0.686049190193566 0 0.727555158482676
vn -0.94634994324992 0 -0.323143597972903
vn -0.686049190193568 0 -0.727555158482675
vn -0.998004746124148 0 0.0631389476763376
vn -0.99954127085156 0 -0.0302861001855398
vn 0.948498590125222 0.048264018008637 -0.313083070599687
vn 0.996768888910733 5.71032515434384e-11 0.0803229861226788
vn 0.749011283249318 0.0888334115530607 -0.656574993856037
vn 0.000412096081542721 0.0339204439776187 0.99942445120038
vn 0.496391904162064 0.0588725260603709 0.86609993831984
vn -0.495676667731252 -4.33756146337563e-11 0.8685071335728
vn -0.480584519675417 -5.29237717679529e-11 -0.876948413219586
vn -0.984104867035784 -1.13411007585805e-10 0.177588317961747
vn -0.945372820158459 -1.09344127730445e-10 0.325991151575685
vn -0.999687251745517 -1.14810055384197e-10 0.0250079726786428
vn 1.07736695244336e-09 -1 -3.71506536440504e-10
vn 5.34576777481159e-10 -1 -1.63772149864546e-10
vn -0.00907020733942468 -0.95591275768648 -0.293510700028209
vn 0.0122517607346858 -0.896869867067923 -0.442124796753662
vn 0.0242522302844593 -0.956239514533343 -0.291578154482235
vn 0.0632897393402658 -0.88371330369754 -0.463729668839746
vn -0.0344173568204217 -0.882378100442348 -0.469280655268518
vn -4.10669874052223e-12 -1 2.19811183557059e-11
vn -8.21339748104445e-12 -1 4.39622367114118e-11
vn 0.00399269617981523 0.979859033809128 -0.199650525268175
vn 0.00782455884209437 0.920247452274715 -0.391258741577518
vn 0 1 0
vn 0.00124596748550262 0.992420084113394 -0.122885410905401
vn 0.00247304631353012 0.969795246703272 -0.243907899654093
vn 1.05378110976483e-10 -1 -2.63596472955915e-12
vn 6.33344666113422e-11 -1 5.90600836426348e-11
vn -1 0 0
g o4 TT_C1
f 1/1/1 2/2/2 3/3/3 4/4/3
f 5/5/4 6/6/5 2/7/2 1/8/1
f 7/9/6 8/10/6 9/11/7 10/12/8
f 10/13/8 11/14/9 12/15/10 13/16/10
f 10/13/8 9/17/7 11/14/9
f 13/16/10 12/18/10 14/19/11 15/20/12
f 16/21/11 2/22/2 14/19/11 17/23/11
f 15/8/12 2/7/2 6/6/5 18/5/13
g o153 TT_C1
f 19/24/14 20/25/15 21/26/16 22/10/16 23/9/17
f 24/27/18 25/28/19 26/29/19 27/30/20 28/31/21
f 26/29/19 25/28/19 29/32/22 30/33/23 31/30/24
f 32/27/25 29/32/22 33/34/26 34/35/27
f 35/31/28 30/33/23 29/32/22 32/27/25
f 36/35/29 33/34/26 29/32/22 24/27/18
f 28/36/21 27/37/20 37/38/30
f 28/36/21 37/38/30 38/39/31 39/40/32
f 39/40/32 40/41/33 20/25/15 19/24/14
f 39/40/32 38/39/31 40/41/33
g decals decal_base o5 TT_C1
f 41/42/34 42/43/34 43/9/34 44/44/34
f 45/45/35 41/42/34 44/44/34 46/46/35
g decal_base o5 TT_C1
f 47/47/34 48/48/35 49/49/35 50/50/34 51/51/34 52/52/34 53/53/34
g decals decal_base o5 TT_C1
f 54/34/36 45/45/35 46/46/35 55/35/36
g decal_base o5 TT_C1
f 48/48/35 56/54/36 49/49/35
g o5 TT_C1
f 57/35/37 47/34/37 53/43/38 58/9/38
f 59/55/39 48/56/39 47/57/37 57/58/37
f 60/59/40 56/60/40 48/43/40 59/9/40
f 61/43/41 49/61/41 56/35/41 60/62/41
f 62/63/42 50/64/42 49/65/43 61/66/43
f 63/67/44 51/68/44 50/35/42 62/34/42
f 64/43/45 52/9/45 51/68/44 63/67/44
g o6 TT_C1
f 65/69/46 66/70/46 67/71/47 68/43/47
f 10/72/8 69/72/48 66/73/46 65/73/46
f 70/74/49 71/75/49 69/76/50 10/43/50
f 19/43/14 72/77/51 71/78/49 70/79/49
f 73/80/52 74/80/52 72/81/52 19/81/52
f 75/82/53 76/83/53 74/84/54 73/85/54
f 23/43/17 77/86/55 76/83/53 75/82/53
g o32 TT_C1
f 75/87/56 73/80/56 19/81/57
f 15/88/58 78/89/59 24/90/60
f 78/89/59 36/91/61 24/90/60
f 15/88/58 18/92/62 78/89/59
f 10/72/63 65/73/34 7/93/34
g decals decal_base o32 TT_C1
f 79/35/34 80/34/34 81/43/34 82/9/34
f 83/43/34 84/9/34 85/35/34 86/34/34
g decal_base o32 TT_C1
f 70/94/64 10/95/63 13/96/64 15/88/58 24/90/60 28/97/64 39/98/64 19/99/57
g o297 TT_C1
f 1/88/65 32/90/65 34/91/66 5/92/66
f 62/50/67 61/49/68 59/48/68 57/47/67
f 61/49/68 60/54/69 59/48/68
f 64/52/67 63/51/67 62/50/67 57/47/67 58/53/67
f 35/100/67 32/90/65 1/88/65 87/101/67
g decals decal_base building3_landmark30c_front TT_C1
f 88/43/70 89/9/70 90/35/70 91/34/70
f 92/34/70 93/43/70 94/9/70 95/35/70
f 96/34/70 97/43/70 98/9/70 99/35/70
g decal_base building3_landmark30c_front TT_C1
f 100/102/71 66/103/71 69/104/71 71/105/71 72/106/71 74/107/71 76/108/71 77/109/71
g TT_C1_camera_collisions TT_C1
f 101//34 102//34 103//34 104//34
f 105//6 106//6 102//6 101//6
f 104//72 103//72 31//24 107//72
