v 12.3924916184793 2.65952483249774e-06 60.8221019033998
v 6.19804802842028 10.7290983825844 60.8183492825726
v -6.19085517142388 10.7290983825844 60.8183492825726
v -12.3852987614829 2.65952483249774e-06 60.8221019033998
v -6.19085517142388 -10.7290923751871 60.8258505192954
v 6.19804802842028 -10.7290923751871 60.8258505192954
v 10.4345607006644 0.00146270932487928 3.35590232388554
v 10.5474196706857 0.000238498679565124 -1.03839946265413e-11
v 5.30143998113517 9.08655281767757 -0.00553119761424428
v 5.18858101111385 9.08777632425463 3.35037101285038
v -5.19053541769193 9.08655281767757 -0.00553119761424428
v -5.30339438771325 9.08777632425463 3.35037101285038
v -10.4365311269685 0.000238498679565124 -1.03839946265413e-11
v -10.5493740772638 0.00146270932487928 3.35590232388554
v -5.19053541769193 -9.08607623082759 0.00553119761424428
v -5.30339438771325 -9.08485072178478 3.3614336349207
v 5.30143998113517 -9.08607623082759 0.00553119761424428
v 5.18858101111385 -9.08485072178478 3.3614336349207
v 5.64330093503937 0.000238801863562717 6.95199691091623
v 2.87496411581365 4.79513653932907 6.94907831707652
v -2.6617095226378 4.79513653932907 6.94907831707652
v -5.43004634186352 0.000238801863562717 6.95199691091623
v -2.6617095226378 -4.79465845062977 6.95491550475594
v 2.87496411581365 -4.79465845062977 6.95491550475594
v 6.87800530060696 0.000239560610353164 24.3292120185111
v 3.47139428606809 5.90035496108488 24.3292120185111
v 10.3399321788878 1.86166738274842e-06 42.5761185293123
v 5.14007328063484 9.00593755126312 42.5761225342438
v 7.04272012385171 2.44050514040969e-06 55.5641074193118
v 3.46453809362697 6.19757244280317 55.5619367464321
v -3.34145878869405 5.90035496108488 24.3292120185111
v -5.25908382545932 9.00593755126312 42.5761225342438
v -3.69179392737041 6.19757244280317 55.5619367464321
v -6.74805328289042 0.000239560610353164 24.3292120185111
v -10.4588946645341 1.86166738274842e-06 42.5761185293123
v -7.26995993786909 2.44050514040969e-06 55.5641074193118
v -3.34161873564633 -5.90015972067365 24.3292120185111
v -5.25930810162402 -9.00636808140071 42.5761225342438
v -3.69179392737041 -6.19756693602234 55.5662780921916
v 3.47158677308891 -5.90015972067365 24.3292120185111
v 5.14036163570374 -9.00636808140071 42.5761225342438
v 3.46453809362697 -6.19756693602234 55.5662780921916
v 12.3701120611877 2.53437072273314e-06 57.903904551909
v 6.17566847112861 10.7290983825844 57.9001519310819
v -6.2132187089895 10.7290983825844 57.9001519310819
v -12.4076622990486 2.53437072273314e-06 57.903904551909
v -6.2132187089895 -10.72909337642 57.9076611776677
v 6.17566847112861 -10.72909337642 57.9076611776677
v -33.5712703194206 2.6591428924655e-06 60.8340886634166
v 15.0525120612517 2.6591428924655e-06 60.8340886634166
v 15.0525120612517 4.42732663292272e-06 101.281401867003
v -33.5712703194206 4.42732663292272e-06 101.281401867003
v -23.6472972455809 -23.6472972455809 0.0249999999999947
v 23.6472972455809 -23.6472972455809 0.0249999999999947
v 23.6472972455809 23.6472972455809 0.0250000000000053
v -23.6472972455809 23.6472972455809 0.0250000000000053
v 6.66016556146577 11.5357386471405 -0.57032227203289
v -6.66016005468494 11.5357416508392 -0.57032227203289
v -6.66016005468494 11.5357416508392 100.903288273048
v 6.66016556146577 11.5357386471405 100.903288273048
v -13.3203251155343 1.98488302749314e-06 -0.57032227203289
v -13.3203251155343 1.98488302749314e-06 100.903288273048
v -6.66016405961645 -11.5357396483734 -0.57032227203289
v -6.66016405961645 -11.5357396483734 100.903288273048
v 6.66016205715069 -11.5357406496063 -0.57032227203289
v 6.66016205715069 -11.5357406496063 100.903288273048
v 13.3203251155343 0 -0.57032227203289
v 13.3203251155343 0 100.903288273048
v 0 0 -0.57032227203289
v 0 0 100.903288273048
vt 1.79848122596741 0.46587809920311
vt 1.65680241584778 0.749235153198242
vt 1.37344443798065 0.749235153198242
vt 1.23176670074463 0.46587809920311
vt 1.37344443798065 0.182520851492882
vt 1.65680241584778 0.182520851492882
vt 0.975628972053528 0.0552581548690796
vt 0.98076981306076 9.08970832824707e-05
vt 0.741821348667145 -2.98023223876953e-08
vt 0.736680567264557 0.0551672577857971
vt 0.263922572135925 -2.98023223876953e-08
vt 0.258782714605331 0.0551672577857971
vt 0.0249731242656708 9.08970832824707e-05
vt 0.0198333561420441 0.0552581548690796
vt 0.263922572135925 0.000181794166564941
vt 0.258782714605331 0.0553491115570068
vt 0.741821348667145 0.000181794166564941
vt 0.736680567264557 0.0553491115570068
vt 0.757392585277557 0.114373981952667
vt 0.631297886371613 0.114326000213623
vt 0.379108518362045 0.114326000213623
vt 0.2530138194561 0.114373981952667
vt 0.379108518362045 0.114421963691711
vt 0.631297886371613 0.114421963691711
vt 0.813632428646088 0.400035977363586
vt 0.658464968204498 0.400035977363586
vt 0.97131872177124 0.623220801353455
vt 0.734471082687378 0.623220801353455
vt 0.821134746074677 0.836728692054749
vt 0.658152520656586 0.836693167686462
vt 0.348146170377731 0.400035977363586
vt 0.260800540447235 0.623220801353455
vt 0.332189291715622 0.836693167686462
vt 0.192979723215103 0.400035977363586
vt 0.0239550173282623 0.623220801353455
vt 0.169207185506821 0.836728692054749
vt 0.34813866019249 0.400035977363586
vt 0.260790795087814 0.623220801353455
vt 0.332189291715622 0.836764454841614
vt 0.658473551273346 0.400035977363586
vt 0.734484016895294 0.623220801353455
vt 0.658152520656586 0.836764454841614
vt 0.981578350067139 0.889409780502319
vt 0.78164130449295 0.889348149299622
vt 0.217340528964996 0.889348149299622
vt 0.0175530929118395 0.889409780502319
vt 0.217340528964996 0.889471530914307
vt 0.78164130449295 0.889471530914307
vt 0.982448816299438 0.991407811641693
vt 0.78266042470932 0.991346180438995
vt 0.218359589576721 0.991346180438995
vt 0.0184226520359516 0.991407811641693
vt 0.218359589576721 0.99146956205368
vt 0.78266042470932 0.99146956205368
vt 0.997639238834381 0.00377917010337114
vt 0.00412442535161972 0.00377917010337114
vt 0.00412442535161972 0.995476305484772
vt 0.997639238834381 0.995476305484772
vt 0 0
vt 1 0
vt 1 1
vt 0 1
vn -2.32412894999635e-12 0.000349638430103457 0.999999938876482
vn 0.934238122161599 0.133275958590652 0.330812106733886
vn 0.999434988180396 1.84155231305116e-05 0.033611070523265
vn 0.865655255204283 0.49980405654762 0.0289289508235531
vn 0.782400275867683 0.4519793954828 0.428444202179438
vn 0 0.906291048568208 0.42265415564636
vn -1.34999495100923e-08 0.999999933539452 -0.00036458344880131
vn -0.787096206069101 0.454683938479563 0.41682379788148
vn -0.865661449433593 0.499772075968467 -0.0292938056028764
vn -0.999435074092211 -1.84087353109573e-05 -0.033608515816895
vn -0.945446141237011 0.130949751122064 0.298301452730482
vn -0.865655320181201 -0.499803940440121 -0.0289290124703779
vn -0.787208188505946 -0.454240965797097 0.417095208484716
vn 0 -0.906044839370812 0.423181697441559
vn -1.9712492831841e-08 -0.999999933321721 0.000365180164553563
vn 0.782521030577915 -0.451527348674365 0.428700233382695
vn 0.865661438193298 -0.499772099281433 0.0292937400299272
vn 0.793353822186773 0.198390163810933 0.575526763691064
vn 0.568444601071329 0.583497417927137 0.580001292054787
vn -0.217106514831954 0.778508867620418 0.588887683904067
vn -0.779854567441176 0.199312544439324 0.593381296697376
vn -0.545677776055338 -0.314574412982254 0.776710179807224
vn -0.562128057737328 -0.580380756061915 0.589211527974003
vn 0.225668489851965 -0.782505870335184 0.580308793297938
vn 0.567318130482913 -0.327081316341017 0.755756542364007
vn 0.991649186422833 1.06413361532516e-05 -0.128964688786097
vn 0.495809314469554 0.858467221010376 -0.131176042538084
vn 0.98134457374341 0.187597536669134 -0.0420712707205123
vn 0.65321488003634 0.755878693454945 -0.0442461442382846
vn 0.969254273971944 3.81385170292364e-05 0.246061274751987
vn 0.484666646824362 0.839927121348437 0.244173447121829
vn 2.71546798722496e-08 0.997984209774484 -0.0634627216623973
vn -0.495237732788034 0.858105878473465 -0.135624073645687
vn -0.327681324042172 0.943470194302398 -0.0498893008265649
vn -2.93522352873178e-08 0.97740450497339 0.211377467242184
vn -0.48550528283918 0.840540412734301 0.240367291651129
vn -0.864166000523525 0.498921143907228 -0.0655348434153736
vn -0.990451683021686 8.38987326582052e-06 -0.13786030439949
vn -0.980735356608872 0.187910323812952 -0.0533654429549635
vn -0.847066953449301 0.489097117564791 0.207994196947735
vn -0.97115540606877 3.5772468073622e-05 0.238447428134028
vn -0.864160315674301 -0.498928547137054 -0.0655534412933557
vn -0.495242872242512 -0.858098044527806 -0.135654868952583
vn -0.652987235714129 -0.755636144295427 -0.0512024162394866
vn -0.847107482619445 -0.489034808986249 0.207975643982488
vn -0.485539484834108 -0.840528068878217 0.240341369919713
vn 2.21218240084441e-08 -0.997981829916376 -0.0635001350924713
vn 0.495816492071862 -0.858458314043708 -0.131207199645401
vn 0.328216725495129 -0.943503188713261 -0.0455578093543042
vn -2.2445639324744e-08 -0.977412313041421 0.211341359688581
vn 0.484702745879064 -0.839913495817464 0.244148658978462
vn 0.86438872847304 -0.499057928132803 -0.0614272777888951
vn 0.845846004040579 -0.488304142055553 0.214717494163786
vn 0.402125291520501 -0.000304023349705674 -0.915584598761554
vn 0.201157252818544 0.351442206551122 -0.914343554192282
vn -0.207163279266403 0.355098087124247 -0.911585829334951
vn -0.414460332434926 -0.000301229452118735 -0.910067328332771
vn -0.207130746005805 -0.355646925501191 -0.911379239636623
vn 0.201126294045845 -0.351993977617669 -0.91413809326834
vn 0.999970595111973 -2.01819091849552e-06 -0.00766869658633295
vn 0.866007120601 0.499987585711042 -0.00663936768138085
vn -2.64056492227382e-08 1 0
vn -0.866005491023866 0.499990409849727 0.00663924504850444
vn -0.999970636433582 2.0041842379739e-06 0.00766330650571622
vn -0.866007319715914 -0.499987239803911 0.00663944513679419
vn -1.40788036784292e-09 -0.999999999999941 3.43100822419708e-07
vn 0.866005356984808 -0.499990639706302 -0.00663941862647112
vn 0 -0.999999999999999 4.37113918394516e-08
vn 0 0 1
vn 0.500000161244142 0.86602531069007 0
vn 2.98629942108151e-07 0.999999999999956 0
vn -0.866025333378226 0.500000121947118 0
vn -0.866025453514042 -0.49999991386579 0
vn -9.95433140360542e-08 -0.999999999999995 0
vn 0.866025388990126 -0.5000000256245 0
vn 0.999999999999997 -7.63342246012279e-08 0
vn 0 -3.42042305589985e-09 -1
vn 0 -5.13063502793898e-09 -1
vn 0 -5.70070657346378e-10 -1
vn 0 1.71021152794992e-09 -1
vn 0 3.42042305589985e-09 -1
vn 0 -1.71021186101683e-09 -1
vn 0 -1.31344268083808e-06 0.999999999999137
vn 0 -4.37814151155138e-07 0.999999999999904
vn 0 -2.91876176561333e-07 0.999999999999958
vn 0 4.37814151155138e-07 0.999999999999904
vn 0 -8.75628472840282e-07 0.999999999999617
g fountain_mickey_statue_base fountain_mickey_flute
f 1/1/1 2/2/1 3/3/1 4/4/1 5/5/1 6/6/1
f 7/7/2 8/8/3 9/9/4 10/10/5
f 10/10/6 9/9/7 11/11/7 12/12/6
f 12/12/8 11/11/9 13/13/10 14/14/11
f 14/14/11 13/13/10 15/15/12 16/16/13
f 16/16/14 15/15/15 17/17/15 18/18/14
f 18/18/16 17/17/17 8/8/3 7/7/2
f 19/19/18 7/7/2 10/10/5 20/20/19
f 20/20/19 10/10/6 12/12/6 21/21/20
f 21/21/20 12/12/8 14/14/11 22/22/21
f 22/22/21 14/14/22 16/16/13 23/23/23
f 23/23/23 16/16/14 18/18/14 24/24/24
f 24/24/24 18/18/16 7/7/25 19/19/18
f 25/25/26 19/19/18 20/20/19 26/26/27
f 27/27/28 25/25/26 26/26/27 28/28/29
f 29/29/30 27/27/28 28/28/29 30/30/31
f 26/26/27 20/20/32 21/21/20 31/31/33
f 28/28/29 26/26/27 31/31/33 32/32/34
f 30/30/31 28/28/35 32/32/34 33/33/36
f 31/31/33 21/21/37 22/22/21 34/34/38
f 32/32/34 31/31/33 34/34/38 35/35/39
f 33/33/36 32/32/40 35/35/39 36/36/41
f 34/34/38 22/22/42 23/23/23 37/37/43
f 35/35/39 34/34/38 37/37/43 38/38/44
f 36/36/41 35/35/45 38/38/44 39/39/46
f 37/37/43 23/23/47 24/24/24 40/40/48
f 38/38/44 37/37/43 40/40/48 41/41/49
f 39/39/46 38/38/50 41/41/49 42/42/51
f 40/40/48 24/24/52 19/19/52 25/25/26
f 41/41/49 40/40/48 25/25/26 27/27/28
f 42/42/51 41/41/53 27/27/53 29/29/30
f 43/43/54 29/29/54 30/30/55 44/44/55
f 44/44/55 30/30/55 33/33/56 45/45/56
f 45/45/56 33/33/56 36/36/57 46/46/57
f 46/46/57 36/36/57 39/39/58 47/47/58
f 47/47/58 39/39/58 42/42/59 48/48/59
f 48/48/59 42/42/59 29/29/54 43/43/54
f 1/49/60 43/43/60 44/44/61 2/50/61
f 2/50/62 44/44/62 45/45/62 3/51/62
f 3/51/63 45/45/63 46/46/64 4/52/64
f 4/52/64 46/46/64 47/47/65 5/53/65
f 5/53/66 47/47/66 48/48/66 6/54/66
f 6/54/67 48/48/67 43/43/60 1/49/60
g fountain_mickey_statue_mickey fountain_mickey_flute
f 49/55/68 50/56/68 51/57/68 52/58/68
g fountain_mickey_statue_pPlane1 fountain_mickey_flute
f 53/59/69 54/60/69 55/61/69 56/62/69
g fountain_mickey_statue_collision fountain_mickey_flute
f 57//70 58//71 59//71 60//70
f 58//72 61//72 62//72 59//72
f 61//73 63//73 64//73 62//73
f 63//74 65//74 66//74 64//74
f 65//75 67//76 68//76 66//75
f 67//76 57//70 60//70 68//76
f 58//77 57//78 69//79
f 61//80 58//77 69//79
f 63//81 61//80 69//79
f 65//80 63//81 69//79
f 67//82 65//80 69//79
f 57//78 67//82 69//79
f 60//83 59//84 70//85
f 59//84 62//69 70//85
f 62//69 64//86 70//85
f 64//86 66//86 70//85
f 66//86 68//87 70//85
f 68//87 60//83 70//85
