v 0.335480002906379 0.000882181008969705 0.210362000102446
v 0.287480992595042 0.0538271008514044 0.213680993227821
v 0.335480002906379 0.000882181008969705 0.227201000599098
v 0.246104996974074 0.000882181008969705 0.175388998246881
v 0.248912000280666 0.0806947001634933 0.222025002081563
v 0.269420003014912 0.000882181008969705 0.321757011213328
v 0.210789995869314 0.105191997968619 0.227153003998003
v 0.137301004464858 0.000882181008969705 0.372273997059019
v 0.20436500626912 0.0419737981373244 0.347015989108348
v 0.123153998470056 0.120768999177327 0.240580006221461
v 0.0803079974307163 0.000882181008969705 0.334709992246052
v 0.165796999543358 0.000882181008969705 0.146893003168381
v 0.059220100951007 0.1290469970603 0.24967800600948
v 0 0.000882181008969705 0.0727052998355054
v -0.0652256991293799 0.0974361977865064 0.267389002121653
v -0.082898601459393 0.000882181008969705 0.346074986645556
v -0.023315199638602 0.000882181008969705 0.080477096277272
v -0.100172997459652 0.0974361977865064 0.272362000673149
v -0.130823997687793 0.000882181008969705 0.0950813997448899
v -0.204908003018597 0.0761778961642208 0.28726801158875
v -0.187817004721934 0.000882181008969705 0.358697998867886
v -0.224085007439761 0.000882181008969705 0.183161005886208
v -0.239490007790994 0.06837980171514 0.292538000842718
v -0.255172005475662 0.000882181008969705 0.352221993323699
v -0.309453986761138 0.0390678996176232 0.304365001638417
v -0.31605098504094 0.000882181008969705 0.328580006526837
v -0.329003997362192 0.000882181008969705 0.284194007633239
v -0.347138014365369 0.000882181008969705 0.307508998029814
v -0.343252010545706 0.000882181008969705 0.323101009909562
v 0.228729992713828 0.0166865999460846 0.359968000196722
v 0.191702992897334 0.000882181008969705 0.398179990412995
v 0.209836994256247 0.000882181008969705 0.394293986593332
v 0.287480992595042 -0.0520627016783386 0.213680993227821
v 0.248912000280666 -0.0789303009904276 0.222025002081563
v 0.20436500626912 -0.0402093989642586 0.347015989108348
v 0.210789995869314 -0.1034269964914 0.227153003998003
v 0.123153998470056 -0.119003997700108 0.240580006221461
v 0.059220100951007 -0.127282996815959 0.24967800600948
v -0.0652256991293799 -0.0956719003011548 0.267389002121653
v -0.100172997459652 -0.0956719003011548 0.272362000673149
v -0.204908003018597 -0.0744135986788692 0.28726801158875
v -0.239490007790994 -0.0666154025420742 0.292538000842718
v -0.309453986761138 -0.0373035004445574 0.304365001638417
v 0.228729992713828 -0.0149222995274336 0.359968000196722
v -0.286526004160483 0.0202022004002348 0.312541006744064
v -0.479288989790468 0.117314002645297 0.373013000788651
v -0.479288989790468 -0.128183996896418 0.373013000788651
v -0.286526004160483 -0.0310726991788609 0.312541006744064
v -0.11403200038149 -0.0841272002442928 0.26128900645599
v -0.165552995962108 -0.382606000725053 0.267247014784125
v 0.0529317991940055 -0.344444009575631 0.241981998203308
v -0.00431299004263765 -0.0814013984885428 0.248601993550779
v 0.0500695990139418 -0.385332013678363 0.242312999535108
v -0.204670006834616 -0.623841986568581 0.271769990445435
v 0.00418979977685323 0.095701898176839 0.248601993550779
v 0.0614346012355774 0.358744994236103 0.241981998203308
v -0.157049994456174 0.396906015441174 0.267247014784125
v -0.105528998875555 0.098427699932589 0.26128900645599
v 0.0585724010555137 0.399631997105956 0.242312999535108
v -0.196167005328682 0.638142971229053 0.271769990445435
vt 0.994985997676849 0.525906026363373
vt 0.961669981479645 0.534202992916107
vt 0.994985997676849 0.568002998828888
vt 0.867307007312775 0.438473999500275
vt 0.877919971942902 0.555060982704163
vt 0.900614976882935 0.804392993450165
vt 0.826442003250122 0.567882001399994
vt 0.71187299489975 0.930683970451355
vt 0.806244015693665 0.86753898859024
vt 0.691662013530731 0.601449012756348
vt 0.630454003810883 0.8367760181427
vt 0.752582013607025 0.367233008146286
vt 0.600328981876373 0.624195992946625
vt 0.515729010105133 0.0272189006209373
vt 0.42254900932312 0.668471992015839
vt 0.397302001714706 0.930683970451355
vt 0.482421010732651 0.0466482006013393
vt 0.372624009847641 0.680905997753143
vt 0.328837007284164 0.237703993916512
vt 0.223003000020981 0.718168973922729
vt 0.247418001294136 0.950114011764526
vt 0.195607006549835 0.457902997732162
vt 0.17009599506855 0.731346011161804
vt 0.151197001338005 0.933921992778778
vt 0.0513733997941017 0.760914027690887
vt 0.0642272010445595 0.875634014606476
vt 0.0457230992615223 0.710484981536865
vt 0.0198173001408577 0.768773019313812
vt 0.0253685005009174 0.830299019813538
vt 0.84510201215744 0.899921000003815
vt 0.789590001106262 0.995449006557465
vt 0.815496027469635 0.985733985900879
vt 0.888889014720917 0
vt 1 1.01234996318817
vt 0 1.01234996318817
vt 0.111111000180244 0
vt 0.371551990509033 0.881438016891479
vt 0.160904005169868 0.415520012378693
vt 0.9913250207901 0.475089013576508
vt 0.787733972072601 0.88569301366806
vt 0.978377997875214 0.411264985799789
vt 0.000219284993363544 0.0389559008181095
vn 0.740863484466215 0.671655638988149 0
vn 0.339640805689891 0.362323918147746 -0.867966302023521
vn 0.576116247876054 0.691866915096386 0.435212868293468
vn 0.612531236588706 0.664588144502182 0.427934670703669
vn 0.159121624098153 0.493900451571694 -0.854834868662739
vn -0.352989259577905 0.83525168560514 0.421607879808258
vn 0.5634648123404 0.710808565005147 0.421020889231782
vn 0.53030667389799 0.737837699846005 0.417576771750067
vn 0.595585005108981 0.68247027227953 0.42368954334989
vn 0.200062095865602 0.489051811604836 -0.849001462521644
vn -0.0410914466291713 0.741706735660826 0.669464421227359
vn 0.221297208039911 0.552085825705245 0.803883565430404
vn -0.298431093547077 0.840192304127737 0.452786676580506
vn 0.140375369003345 0.56503382628196 -0.813038455999679
vn 0.289158555725079 0.502299552128861 -0.814912565605741
vn -0.0120681868665843 0.613034426148802 -0.789964018941472
vn 0.187475465212291 0.564278162864586 0.804016856078032
vn 0.309887025918558 0.65142256891475 -0.692545065592023
vn 0.0203394370771129 0.806502471268047 -0.590880758815109
vn 0.00271980936477961 0.599160097507735 0.800624618776828
vn -0.052198750697977 0.636594866389738 0.769429832091141
vn 0.0576237109638595 0.558495526202925 0.827503628479097
vn -0.22960825222066 0.826472161674632 -0.514027058129273
vn -0.179024995503877 0.824320500334276 -0.537071469837568
vn -0.279481019943455 0.82606642372337 -0.48939209544929
vn 0.11102935281211 0.615535851938405 0.780248740974688
vn -0.0651948282780962 0.880896302581597 -0.468797758595177
vn -0.063746646671423 0.88075191645777 -0.46926796896242
vn -0.0666428717098871 0.881038648858881 -0.468326410601811
vn 0.0296969746581787 0.651153041398871 0.758365219648918
vn -0.0350049300008738 0.683622849166337 0.728995510941826
vn 0.0942176379926813 0.61470904567128 0.783106522678099
vn -0.307684454249284 0.827975996212533 -0.468813423772383
vn -0.371758607612776 0.840745324435133 -0.393627790058417
vn -0.240557671755353 0.806991938674742 -0.539347770435389
vn -0.0536404236193688 0.672541883589831 0.738112538689986
vn -0.0369194929094565 0.666763478721564 0.744354360829859
vn -0.0703424776217712 0.678083624339006 0.731610917254047
vn -0.26259899437452 0.804170168754747 -0.533246760738828
vn -0.179017431147877 0.613678545983481 0.768993759106545
vn -0.086927156326269 0.544177147684455 0.834454852841686
vn -0.267957682094303 0.672381447408546 0.690001354917102
vn -0.430968127969457 0.64903895898586 -0.626909006469881
vn -0.488291188001778 0.710246003281058 -0.507072312932876
vn -0.364425382828712 0.573947059224759 -0.73333410772812
vn -0.474357392600616 0.688822323579162 0.548186893882141
vn -0.693886819299222 0.699008825259356 0.172938556176301
vn -0.165123103215809 0.548373871913697 0.819768538910077
vn -0.638023964969686 0.58878444929347 -0.49624418625768
vn 0.0986783344170777 0.882167388824286 0.460481578797254
vn 0.703388652886129 0.414030320889787 0.577774433819061
vn 0.0522476196811467 0.772257843222402 0.633157176235995
vn -0.26771065833195 0.782481796616345 0.562186126989569
vn 0.366588506713321 0.679004795050071 0.636054522069223
vn 0.592058027689067 0.737212912539661 0.325552474163108
vn 0.740863285161108 -0.671655858829721 0
vn 0.339640722162956 -0.362324103234402 -0.867966257445537
vn 0.576116144475347 -0.691866993685802 0.435212880235674
vn 0.612531118905286 -0.664588444180949 0.427934373746471
vn 0.159121843467442 -0.493900693564474 -0.854834688011696
vn -0.352990984038174 -0.835252689243356 0.421604447675191
vn 0.559420924916394 -0.706938720410299 0.432765380258558
vn 0.595407569709456 -0.69703384062663 0.399541801259855
vn 0.522037318489206 -0.715078461036511 0.464908413202271
vn 0.20005501814312 -0.489053249544334 -0.849002302014478
vn -0.100708836987676 -0.730311707430013 0.675649717045192
vn -0.418842913769145 -0.648642960383531 0.635478499660107
vn 0.228452127908085 -0.732016612625384 0.641842117732022
vn 0.0981468224667089 -0.551212153815481 -0.82857248489543
vn 0.254115479437007 -0.650037971515016 -0.716153585971015
vn -0.0624082956576245 -0.426627822487002 -0.902271525491695
vn 0.187483869940997 -0.564277151012666 0.804015606413816
vn 0.309886341811113 -0.651424538697491 -0.692543518879274
vn 0.0203513244882618 -0.806499551023296 -0.590884335374356
vn 0.0166496248763468 -0.588625688696265 0.808234241169183
vn 0.054238131268623 -0.624817631230762 0.778884556798803
vn -0.0209985563592843 -0.550323968207568 0.834687121409634
vn -0.220334024781091 -0.842461708481815 -0.491641319729807
vn -0.160389261703498 -0.861832690386156 -0.481164938988667
vn -0.279380162466668 -0.819654852544257 -0.500112634834145
vn 0.111029402629756 -0.615535504363593 0.780249008086224
vn -0.0652632166641284 -0.880640770849976 -0.469268095300981
vn -0.063685201388192 -0.880997363622423 -0.468815358552261
vn -0.0668410362085275 -0.880281709544995 -0.4697194776876
vn 0.0381569643058685 -0.652751810600837 0.756610282663598
vn 0.0857848913863731 -0.695879948596616 0.713016163597292
vn -0.00970100638682547 -0.605688290910585 0.795642875119797
vn -0.343358815543439 -0.821968509565089 -0.454392443898391
vn -0.44390008850748 -0.762915764384443 -0.470013029475516
vn -0.238065473447919 -0.869645388469965 -0.43248321200359
vn -0.0568882641652295 -0.676311514093457 0.73441572784417
vn -0.0710522868957515 -0.669955040809973 0.738993786049782
vn -0.0427093409580077 -0.682490790784367 0.729645278672768
vn -0.262601266522712 -0.804169654275733 -0.533246417674527
vn -0.233064581710662 -0.613900614315505 0.754192904033894
vn -0.303011708536203 -0.547146015694775 0.780266071285497
vn -0.160780107259467 -0.674498636744249 0.720556275484284
vn -0.484227008835907 -0.676934907921514 -0.554331430058878
vn -0.558745021962251 -0.5925625513606 -0.580235834085951
vn -0.403248143513754 -0.752275080532481 -0.521030841661567
vn -0.272544434943029 -0.874092253076958 0.402097331615657
vn 0 -1 0
vn -0.476457978769385 -0.528074497972959 0.702940338192082
vn -0.638023606743684 -0.588784687160069 -0.496244364606391
vn 0.0986787060121035 -0.882167022846658 0.460482200287525
vn 0.703388960467886 -0.414028955609387 0.577775037717023
vn -0.0511185288248903 -0.780683196400305 0.622832756740509
vn -0.128598943894597 -0.954218391624704 0.270054758733035
vn 0.0345699863952753 -0.481793682747836 0.875602514446429
vn 0.59205791417157 -0.737214528952233 0.325549020223601
vn 0.299328014118122 0 0.954150271164926
vn 0.299327932721775 0 0.954150296699901
vn 0.299328085405672 0 0.954150248801191
vn 0.114869150974338 -6.73124849644107e-07 0.993380631054372
vn 0.114871765627926 9.02888835731341e-07 0.993380328706336
vn 0.114866544222936 -2.24913858222996e-06 0.993380932479188
vn 0.114871809741569 0 0.993380323605565
vn 0.114871810292125 -1.56512835032867e-06 0.993380323540667
vn 0.114869467121975 -2.60248849114689e-07 0.993380594496916
vn 0.1148722356222 1.23074626477705e-06 0.993380274357028
vn 0.114866698069807 -1.75124378511514e-06 0.99338091469057
vn 0.114872184707055 -9.24511571567094e-07 0.99338028024507
vn 0.114871934179226 1.72163595564232e-06 0.993380309214432
g bird_bod bird bird
f 1/1/1 2/2/1 3/3/1
f 1/1/2 4/4/2 2/2/2
f 2/2/3 5/5/3 6/6/3
f 2/2/4 6/6/4 3/3/4
f 2/2/5 4/4/5 5/5/5
f 7/7/6 8/8/6 9/9/6
f 5/5/7 7/7/8 9/9/7
f 5/5/7 9/9/7 6/6/9
f 5/5/10 4/4/10 7/7/10
f 7/7/11 10/10/12 11/11/11
f 7/7/11 11/11/11 8/8/13
f 7/7/14 4/4/15 12/12/14
f 7/7/14 12/12/14 10/10/16
f 10/10/17 13/13/17 11/11/17
f 10/10/18 12/12/18 14/14/18
f 10/10/19 14/14/19 13/13/19
f 13/13/20 15/15/21 16/16/20
f 13/13/20 16/16/20 11/11/22
f 13/13/23 14/14/24 17/17/23
f 13/13/23 17/17/23 15/15/25
f 15/15/26 18/18/26 16/16/26
f 15/15/27 17/17/28 19/19/27
f 15/15/27 19/19/27 18/18/29
f 18/18/30 20/20/31 21/21/30
f 18/18/30 21/21/30 16/16/32
f 18/18/33 19/19/34 22/22/33
f 18/18/33 22/22/33 20/20/35
f 20/20/36 23/23/37 24/24/36
f 20/20/36 24/24/36 21/21/38
f 20/20/39 22/22/39 23/23/39
f 23/23/40 25/25/41 26/26/40
f 23/23/40 26/26/40 24/24/42
f 23/23/43 22/22/44 27/27/43
f 23/23/43 27/27/43 25/25/45
f 25/25/46 28/28/47 29/29/46
f 25/25/46 29/29/46 26/26/48
f 25/25/49 27/27/49 28/28/49
f 30/30/50 31/31/50 32/32/50
f 30/30/51 32/32/51 6/6/51
f 9/9/52 8/8/53 31/31/52
f 9/9/52 31/31/52 30/30/54
f 9/9/55 30/30/55 6/6/55
f 3/3/56 33/2/56 1/1/56
f 33/2/57 4/4/57 1/1/57
f 6/6/58 34/5/58 33/2/58
f 3/3/59 6/6/59 33/2/59
f 34/5/60 4/4/60 33/2/60
f 35/9/61 8/8/61 36/7/61
f 6/6/62 35/9/63 36/7/62
f 6/6/62 36/7/62 34/5/64
f 36/7/65 4/4/65 34/5/65
f 8/8/66 11/11/67 37/10/66
f 8/8/66 37/10/66 36/7/68
f 37/10/69 12/12/70 4/4/69
f 37/10/69 4/4/69 36/7/71
f 11/11/72 38/13/72 37/10/72
f 14/14/73 12/12/73 37/10/73
f 38/13/74 14/14/74 37/10/74
f 11/11/75 16/16/76 39/15/75
f 11/11/75 39/15/75 38/13/77
f 39/15/78 17/17/79 14/14/78
f 39/15/78 14/14/78 38/13/80
f 16/16/81 40/18/81 39/15/81
f 40/18/82 19/19/83 17/17/82
f 40/18/82 17/17/82 39/15/84
f 16/16/85 21/21/86 41/20/85
f 16/16/85 41/20/85 40/18/87
f 41/20/88 22/22/89 19/19/88
f 41/20/88 19/19/88 40/18/90
f 21/21/91 24/24/92 42/23/91
f 21/21/91 42/23/91 41/20/93
f 42/23/94 22/22/94 41/20/94
f 24/24/95 26/26/96 43/25/95
f 24/24/95 43/25/95 42/23/97
f 43/25/98 27/27/99 22/22/98
f 43/25/98 22/22/98 42/23/100
f 26/26/101 29/29/102 28/28/101
f 26/26/101 28/28/101 43/25/103
f 28/28/104 27/27/104 43/25/104
f 32/32/105 31/31/105 44/30/105
f 6/6/106 32/32/106 44/30/106
f 44/30/107 31/31/108 8/8/107
f 44/30/107 8/8/107 35/9/109
f 6/6/110 44/30/110 35/9/110
g bird_tail bird bird
f 45/33/111 46/34/112 47/35/111
f 45/33/111 47/35/111 48/36/113
g bird_left_wing bird bird
f 49/37/114 50/38/115 51/39/114
f 49/37/114 51/39/114 52/40/116
f 50/38/117 53/41/117 51/39/117
f 50/38/118 54/42/118 53/41/118
g bird_right_wing bird bird
f 55/40/119 56/39/120 57/38/119
f 55/40/119 57/38/119 58/37/121
f 56/39/122 59/41/122 57/38/122
f 59/41/123 60/42/123 57/38/123
