v 0.829383677598186 2.16321736953111 2.78551071376004
v 0.159099573429022 2.39087152706206 2.78551071376004
v -0.535210567299843 2.25288375867642 2.78551071376004
v -1.06750690308337 1.78622777547851 2.78551071376004
v -1.29516106061432 1.11594367130934 2.78551071376004
v -1.15717329222868 0.421633530580478 2.78551071376004
v -0.690517309030766 -0.11066280520305 2.78551071376004
v -0.0202332048616019 -0.338316962733998 2.78551071376004
v 0.674076935867262 -0.200329194348362 2.78551071376004
v 1.20637327165079 0.266326788849555 2.78551071376004
v 1.43402742918174 0.936610893018719 2.78551071376004
v 1.2960396607961 1.63092103374758 2.78551071376004
v 1.2960396607961 1.63092103374758 0
v 1.43402742918174 0.936610893018719 0
v 1.20637327165079 0.266326788849555 0
v 0.674076935867262 -0.200329194348362 0
v -0.0202332048616019 -0.338316962733998 0
v -0.690517309030766 -0.11066280520305 0
v -1.15717329222868 0.421633530580478 0
v -1.29516106061432 1.11594367130934 0
v -1.06750690308337 1.78622777547851 0
v -0.535210567299843 2.25288375867642 0
v 0.159099573429022 2.39087152706206 0
v 0.829383677598186 2.16321736953111 0
v -1.68000003814697 -1.25200001335144 0.025000000372529
v 1.68000003814697 -1.25200001335144 0.025000000372529
v 1.68000003814697 3.45200001335144 0.025000000372529
v -1.68000003814697 3.45200001335144 0.025000000372529
v 1.13371717824092 -0.223841917791713 2.28577775422527
v 1.13371717824092 2.19751974743174 2.35076315682527
v 0.697395718285193 2.22914929408285 3.20219152867568
v 0.689918547683876 -0.266960908159865 3.12090516899399
v 0.125541966346081 -0.206794329167674 3.48288384312587
v 0.133371330023657 2.17305430285579 3.54076644846871
v -0.761219912486551 1.88128764648044 0.355429576042508
v -0.880285711980768 2.19751974743174 2.24634101097013
v 0.889201104640961 1.88128764648044 0.389053738340465
v -1.14337758921881 2.23032556166911 2.91386505651715
v -0.906544365313615 2.17305430285579 3.43230994327463
v -0.374450583575754 2.12586521457422 3.73626162682722
v 0.889201104640961 0.110334782554689 0.389053738340465
v -0.364266043746625 -0.22043198507292 3.60316094952439
v -0.914389355285994 -0.23036806741416 3.38543517885611
v -1.14968784772158 -0.266960908159865 2.8428251538408
v -0.880285711980768 -0.223841917791713 2.18135560837014
v -0.761219912486551 0.110334782554689 0.355429576042508
v 0.638480459293366 1.88111626357966 0.387387490075357
v 0.621069416937044 1.88111626357966 0.00296402227753316
v 0.865635790447649 1.64452903439485 0.00296402320885573
v 0.88304683280397 1.64452903439485 0.387387491006679
v 0.865635790447649 1.88111626357966 0.00296402320885573
v 0.88304683280397 1.88111626357966 0.387387491006679
v 0.621069415937293 1.88111626357966 0.00296402227753316
v 0.638480458293614 1.88111626357966 0.387387490075357
v 0.499556652100038 1.53663156634028 0.141583565198865
v 0.953630337507676 1.53663156634028 0.141583565198865
v 0.953630337507676 1.99070525174791 0.141583565198865
v 0.499556652100038 1.99070525174791 0.141583565198865
v 0.499556652100038 1.99070525174791 0.00228157256059483
v 0.953630337507676 1.99070525174791 0.00228157256059483
v 0.953630337507676 1.53663156634028 0.00228157256059483
v 0.499556652100038 1.53663156634028 0.00228157256059483
v -0.53330970807639 0.109343521587282 0.355429574179863
v -0.534533701448039 0.109343521587282 0.00995658739885558
v -0.779100074958643 0.345930750772088 0.00995658833017815
v -0.777876081586994 0.345930750772088 0.355429575111186
v -0.779100074958643 0.109343521587282 0.00995658833017815
v -0.777876081586994 0.109343521587282 0.355429575111186
v -0.534533700448287 0.109343521587282 0.00995658739885558
v -0.533309707076638 0.109343521587282 0.355429574179863
v -0.413020936611032 0.453828218826662 0.148576130320187
v -0.867094622018671 0.453828218826662 0.148576130320187
v -0.867094622018671 -0.000245466580976364 0.148576130320187
v -0.413020936611032 -0.000245466580976364 0.148576130320187
v -0.413020936611032 -0.000245466580976364 0.00927413768191725
v -0.867094622018671 -0.000245466580976364 0.00927413768191725
v -0.867094622018671 0.453828218826662 0.00927413768191725
v -0.413020936611032 0.453828218826662 0.00927413768191725
v -0.867974513205685 1.5422782341122 0.0137734306045397
v -0.867974513205685 1.5422782341122 0.15307542324281
v -0.867974513205685 1.99635191951984 0.15307542324281
v -0.867974513205685 1.99635191951984 0.0137734306045397
v -0.413900827798046 1.5422782341122 0.0137734306045397
v -0.413900827798046 1.5422782341122 0.15307542324281
v -0.413900827798046 1.99635191951984 0.0137734306045397
v -0.413900827798046 1.99635191951984 0.15307542324281
v -0.753914783770681 1.8857716702567 0.359928868033808
v -0.755138775142827 1.8857716722562 0.0144558812528006
v -0.755138775142827 1.64120529774585 0.014455880321478
v -0.753914783770681 1.64120529574634 0.359928867102486
v -0.517327554585874 1.8857716702567 0.359928868033808
v -0.51855154595802 1.8857716722562 0.0144558812528006
v -0.753914783770681 1.64120529674609 0.359928867102486
v -0.755138775142827 1.6412052987456 0.014455880321478
v 0.984625798347994 0.453828218826662 0.00394781989438023
v 0.984625798347994 0.453828218826662 0.14324981253265
v 0.984625798347994 -0.000245466580976364 0.14324981253265
v 0.984625798347994 -0.000245466580976364 0.00394781989438023
v 0.530552112940356 0.453828218826662 0.00394781989438023
v 0.530552112940356 0.453828218826662 0.14324981253265
v 0.530552112940356 -0.000245466580976364 0.00394781989438023
v 0.530552112940356 -0.000245466580976364 0.14324981253265
v 0.889201104640961 0.110334782682164 0.389053738340465
v 0.871790060285136 0.110334780682661 0.00463027054264113
v 0.871790060285136 0.354901155193017 0.00463026961131856
v 0.889201104640961 0.35490115719252 0.389053737409142
v 0.652613875456154 0.110334782682164 0.389053738340465
v 0.635202831100329 0.110334780682661 0.00463027054264113
v 0.889201104640961 0.354901156192768 0.389053737409142
v 0.871790060285136 0.354901154193265 0.00463026961131856
vt 0 0
vt 1 0
vt 1 1
vt 0 1
vt 0.0611533895134926 0.424322754144669
vt 0.953705489635468 0.420049011707306
vt 1.00598096847534 0.682765901088715
vt 0.00456614745780826 0.684849798679352
vt -0.00124157045502216 0.869158327579498
vt 1.00717425346375 0.86130702495575
vt 0.827117800712585 -0.000610797433182597
vt 0.866906881332397 0.556988716125488
vt -0.000679909135214984 0.580430865287781
vt 0.116468779742718 0.00329296616837382
vt 0.976111114025116 0.754635035991669
vt 0.181978240609169 0.832895636558533
vt 0.871019899845123 0.906535863876343
vt 0.640130400657654 0.994161128997803
vt 0.422717124223709 0.934710204601288
vt 0.125019833445549 -0.000350658694515005
vt 0.881453335285187 0.00321341119706631
vt 0.964966475963593 0.436264723539352
vt 0.036248579621315 0.431888908147812
vt 1.00449573993683 1.00450646877289
vt -0.0275555513799191 0.985484838485718
vt -0.0226383153349161 0.987445712089539
vt -0.0141663001850247 0.743152737617493
vt 0.987657129764557 0.754638016223907
vt 1.00376391410828 0.985179781913757
vt -0.0172063168138266 0.59068763256073
vt 0.991379857063293 0.604803740978241
vt -0.0163199100643396 0.651360750198364
vt -0.0129057811573148 0.490893810987473
vt 0.994707226753235 0.496606886386871
vt 1.00217282772064 0.663007795810699
vt 0.0927827805280685 -0.00175569648854434
vt 0.874196708202362 0.000203729054192081
vt 0.137087658047676 -0.00203840527683496
vt 0.0127537390217185 0.477692872285843
vt 0.874554872512817 0.563566982746124
vt 0.835495173931122 0.00192082580178976
vt 0.204829826951027 0.836374044418335
vt 0.984630763530731 0.76780778169632
vt 0.441894918680191 0.949207365512848
vt 0.654535830020905 0.989943623542786
vt 0.882429122924805 0.92909175157547
vt 0.281001269817352 1.0473005771637
vt 0.269307166337967 0.035761646926403
vt 0.753573536872864 0.0392964407801628
vt 0.765267610549927 1.05083537101746
vt 0.261526614427567 0.986448764801025
vt 0.251150101423264 -0.0464212410151958
vt 0.726708471775055 -0.0444337502121925
vt 0.737084984779358 0.988436281681061
vt 0.17763464152813 1.01216125488281
vt 0.193346679210663 -0.0625631883740425
vt 0.72923219203949 -0.0734931156039238
vt 0.713520169258118 1.00123131275177
vt 0.998930990695953 0.949305593967438
vt 0.630942702293396 0.953299403190613
vt 0.615990340709686 0.317237019538879
vt 0.983978688716888 0.313243180513382
vt 0.995446979999542 -0.0808301717042923
vt 1.00357794761658 0.308331459760666
vt 0.00862711388617754 0.328624486923218
vt 0.000496180669870228 -0.060537151992321
vt 0.947079658508301 -0.0346569567918777
vt 0.950832068920135 0.33885383605957
vt 0.0381093248724937 0.33503931760788
vt 0.0343569219112396 -0.0384714752435684
vt 0.984291791915894 -0.042706985026598
vt 0.971474170684814 0.327047049999237
vt 0.0116243800148368 0.332615792751312
vt 0.0244420226663351 -0.0371382683515549
vt 1.00466108322144 0.340819150209427
vt 0.00466107716783881 0.340819150209427
vt 0.239644974470139 0.958860456943512
vt 0.239884823560715 -0.0530199743807316
vt 0.742673397064209 -0.0457916669547558
vt 0.742433547973633 0.966088771820068
vt 0.205908849835396 0.929383814334869
vt 0.219702392816544 -0.0217421539127827
vt 0.728242456912994 -0.0253147687762976
vt 0.714448869228363 0.925811171531677
vt 0.999113976955414 0.977355778217316
vt 0.653304398059845 0.981458783149719
vt 0.65254008769989 0.325565665960312
vt 0.998349726200104 0.321462631225586
vt 0.980942785739899 -0.0289687179028988
vt 0.974354684352875 0.354552537202835
vt 0.0301747731864452 0.361185610294342
vt 0.0367628671228886 -0.0223356317728758
vt 0.975569367408752 -0.0444423370063305
vt 0.975472629070282 0.363569170236588
vt 0.0104878870770335 0.349696129560471
vt 0.0105845984071493 -0.0583153776824474
vt 0.967760920524597 0.0390960350632668
vt 0.971923470497131 0.399156898260117
vt 0.0424877963960171 0.392372697591782
vt 0.0383252426981926 0.0323118343949318
vt 0.991524696350098 -0.035826314240694
vt 0.993722259998322 0.34666308760643
vt 0.00177707255352288 0.339517891407013
vt -0.000420483702328056 -0.0429715365171432
vt 0.987758994102478 0.0368863828480244
vt 0.990959286689758 0.392119586467743
vt 0.0416537374258041 0.397303402423859
vt 0.0384534373879433 0.0420702025294304
vt 0.9493088722229 -0.0200094748288393
vt 0.946298718452454 0.349555522203445
vt 0.0544485449790955 0.368490487337112
vt 0.0574587024748325 -0.00107451877556741
vt 0.994333505630493 0.865433871746063
vt 0.651375830173492 0.875187277793884
vt 0.651918590068817 0.343553066253662
vt 0.994876205921173 0.333799630403519
vt 0.256646752357483 0.959151864051819
vt 0.243552133440971 0.00166969746351242
vt 0.782157182693481 0.00166969525162131
vt 0.795251786708832 0.959151864051819
vt 0.25312003493309 0.912955045700073
vt 0.262989372014999 -0.00362794520333409
vt 0.727672457695007 -0.0134936757385731
vt 0.717803120613098 0.903089344501495
vt 0.974201679229736 -0.0159368757158518
vt 0.974201679229736 0.339585393667221
vt 0.0084741897881031 0.357144087553024
vt 0.0084741897881031 0.00162180489860475
vt 1.0008270740509 -0.0134520623832941
vt 0.987093865871429 0.337260693311691
vt -0.0187440384179354 0.309923440217972
vt -0.0050108190625906 -0.0407893322408199
vt 2.06352210044861 0.964726507663727
vt 1.71771240234375 0.968829572200775
vt 1.71694815158844 0.312936395406723
vt 2.06275773048401 0.308833360671997
vt 0.243657127022743 0.980201244354248
vt 0.243657127022743 -0.000912518880795687
vt 0.763802826404572 -0.0103697152808309
vt 0.763802826404572 0.970744073390961
vt 0.227407336235046 0.93611878156662
vt 0.226738154888153 -0.0327707231044769
vt 0.750812590122223 -0.0185271129012108
vt 0.751481771469116 0.950362384319305
vn 0 0 1
vn 0.896945716388361 0.44214068106494 0
vn 0.997848116740424 -0.065567796345389 0
vn 0.831377920042972 -0.555707435675483 0
vn 0.44214068106494 -0.896945716388362 0
vn -0.065567796345389 -0.997848116740424 0
vn -0.555707435675483 -0.831377920042973 0
vn -0.896945716388361 -0.44214068106494 0
vn -0.997848116740424 0.065567796345389 0
vn -0.831377920042973 0.555707435675483 0
vn -0.44214068106494 0.896945716388361 0
vn 0.0655677963453891 0.997848116740423 0
vn 0.555707435675483 0.831377920042972 0
vn 0.984284104649473 -0.00689341235774401 0.176457593207127
vn 0.732853214963282 -0.0212552786603563 0.680054687835509
vn 0.41862520827676 -0.0323542865345705 0.907582577586237
vn 0.00610991358795093 0.986741127857185 -0.162186977131576
vn 0.00527298057016557 0.994825629936068 -0.101460148325401
vn -0.00643630390650263 0.998845707269821 0.0476007044136298
vn -0.0172383131618575 0.990671086054143 0.135180027428755
vn 0.992062754856049 0.00194892977087189 -0.125728644708258
vn -0.0706514607489332 -0.039092267663067 0.996734751929018
vn -0.71812677842922 -0.0220716785185662 0.695562197873233
vn -0.999821051049419 0.00235277484602464 0.0187704642712871
vn -0.975332616538203 0.00631162086162388 -0.220650063582227
vn -0.997953736088473 0.000991022058585732 -0.0639324526538621
vn 0.00666513355514687 -0.984201726871895 -0.176925229453215
vn 0.0060704623972368 -0.993213132784554 -0.116149999356766
vn 0.00164839647392768 -0.99983457132809 0.0181138832456876
vn -0.00216490444459695 -0.995842406320586 0.0910670904463921
vn -0.694940494596582 -0.718378067681234 0.0314747652006179
vn 0.998975923879001 0 -0.0452449280041085
vn 0 1 0
vn 1 0 0
vn 0 -1 0
vn -1 0 0
vn 0.695282866133634 0.718731986179312 -0.00246335213499182
vn -0.999993723813241 0 0.0035429273386702
vn -0.999993723833747 -1.34915353424306e-11 0.00354292155105195
vn 0 1 5.78772871422449e-09
vn 0.718731836608749 -0.695282721442598 -0.00254643051925162
vn 0.99897592364415 -1.72295349711597e-10 -0.0452449331894503
vn 0 -1 5.20130435264448e-09
vn -0.718353662418569 0.694916885576254 0.0325351783586429
g prop_mailboxcollisions prop_mailbox
f 1//1 2//1 3//1 4//1 5//1 6//1 7//1 8//1 9//1 10//1 11//1 12//1
f 13//2 12//2 11//3 14//3
f 14//3 11//3 10//4 15//4
f 15//4 10//4 9//5 16//5
f 16//5 9//5 8//6 17//6
f 17//6 8//6 7//7 18//7
f 18//7 7//7 6//8 19//8
f 19//8 6//8 5//9 20//9
f 20//9 5//9 4//10 21//10
f 21//10 4//10 3//11 22//11
f 22//11 3//11 2//12 23//12
f 23//12 2//12 1//13 24//13
f 24//13 1//13 12//2 13//2
g o10 drop_shadow prop_mailbox
f 25/1/1 26/2/1 27/3/1 28/4/1
g mouth g6 prop_mailbox
f 29/5/14 30/6/14 31/7/15 32/8/15
f 33/9/16 32/8/15 31/7/15 34/10/16
f 35/11/17 36/12/18 30/13/18 37/14/17
f 36/12/18 38/15/19 31/16/19 30/13/18
f 38/15/19 39/17/20 40/18/20 34/19/20 31/16/19
f 41/20/21 37/21/21 30/22/14 29/23/14
f 34/10/16 40/24/22 42/25/22 33/9/16
f 40/26/22 39/27/23 43/28/23 42/29/22
f 39/27/23 38/30/24 44/31/24 43/28/23
f 38/32/24 36/33/25 45/34/25 44/35/24
f 45/34/25 36/33/25 35/36/26 46/37/26
f 41/38/27 29/39/28 45/40/28 46/41/27
f 29/39/28 32/42/29 44/43/29 45/40/28
f 44/43/29 32/42/29 33/44/30 42/45/30 43/46/30
f 47/47/31 48/48/31 49/49/31 50/50/31
f 50/51/32 49/52/32 51/53/32 52/54/32
f 52/55/33 51/56/33 53/57/33 54/58/33
f 55/59/1 56/60/1 57/61/1 58/62/1
f 59/63/33 58/64/33 57/65/33 60/66/33
f 60/67/34 57/68/34 56/69/34 61/70/34
f 61/71/35 56/72/35 55/73/35 62/74/35
f 62/2/36 55/75/36 58/76/36 59/1/36
f 63/47/37 64/48/37 65/49/37 66/50/37
f 66/77/38 65/78/38 67/79/38 68/80/38
f 68/81/35 67/82/35 69/83/35 70/84/35
f 71/85/1 72/86/1 73/87/1 74/88/1
f 75/89/35 74/90/35 73/91/35 76/92/35
f 76/93/36 73/94/36 72/95/36 77/96/36
f 77/97/33 72/98/33 71/99/33 78/100/33
f 78/2/34 71/75/34 74/76/34 75/1/34
f 79/2/36 80/75/36 81/76/36 82/1/36
f 83/101/35 84/102/35 80/103/35 79/104/35
f 85/105/34 86/106/34 84/107/34 83/108/34
f 82/109/33 81/110/33 86/111/33 85/112/33
f 80/113/1 84/114/1 86/115/1 81/116/1
f 87/117/39 88/118/39 89/119/39 90/120/39
f 91/121/40 92/122/40 88/123/40 87/124/40
f 93/47/41 94/48/41 92/49/41 91/50/41
f 95/125/34 96/126/34 97/127/34 98/128/34
f 99/97/33 100/98/33 96/99/33 95/100/33
f 101/105/36 102/106/36 100/107/36 99/108/36
f 98/129/35 97/130/35 102/131/35 101/132/35
f 96/133/1 100/134/1 102/135/1 97/136/1
f 103/137/42 104/138/42 105/139/42 106/140/42
f 107/141/43 108/142/43 104/143/43 103/144/43
f 109/47/44 110/48/44 108/49/44 107/50/44
