v -0.00120689469118287 0.00196058019565472 0.00583625684572956
v -0.0028874993989161 -0.00294035207724634 0.00663529152632385
v -5.14015506493451e-05 -0.00294035207724634 0.00813383599278809
v 0.00136962950014536 0.00135700005715288 -0.00116219866307076
v 0.000764908308158396 0.0054361020016858 -0.00343687558580884
v 0.00189378273397137 0.00577038960663352 -0.00262864696697926
v 0.00234047742927168 0.00244120033237878 -0.00080512812131346
v 0.00166494626639866 0.00373511391831195 0.000155658468486756
v 0.00140193881579428 0.00559136838581305 -0.000787997652539431
v 0.00027307221211317 0.00525708273639829 -0.00159622920466846
v 0.000694098459493144 0.00265091364308605 -0.000201412073270542
v 0.00185743328721661 0.00454091278743243 0.00334591299217204
v 0.00174170484634366 0.0036475021304108 0.00198502435771812
v 0.000909121042200587 0.00265147585881351 0.00247925989271149
v 0.000978233488252157 0.00419017719471548 0.0042276373841944
v 0.00164321247302485 0.00144406429582381 0.00283493613946469
v 0.00184148004928755 0.00375769739075909 0.0050918578006464
v 0.00184945862378505 0.0107724581334222 0.00513826846450645
v 0.000930244709289293 0.0107724581334222 0.00421905650554367
v 0.00184945862378505 0.0107724581334222 0.00330553319197627
v 0.0024757924883228 0.0024400905674211 0.00234070060447132
v 0.00272068388153875 0.00410843200570955 0.00421013340862404
v 0.00276867266050161 0.0107724581334222 0.00421905650554367
v 0.00273730566730024 -0.00294035207724634 0.00170362316404428
v -5.13702621219039e-05 -0.00294035207724634 0.000303934800030365
v 0.000961013064961734 0.00196058019565472 0.00260111892942994
v 0.00118114349977394 0.00735333683140322 0.000167507042722126
v 0.000785218473533633 0.00719525839087218 0.00226820508639018
v -0.000572355532544491 0.00743566183593329 0.00187173446645261
v 3.0445326070773e-05 0.00756787346416884 -0.000291298146010071
v -0.000505691413765191 0.00939058956355248 0.00255188447596833
v 0.000283800265959554 0.00923250916748848 -0.00117407070370171
v -0.000621138257891174 0.00650777415497096 0.00305137452803885
v -0.000777533962305762 0.00748160023858228 0.00500485222796443
v -0.00120913573196084 0.00196058019565472 0.002599939743052
v 0.000743448289399698 0.00628745598899411 0.00343291856485402
v -0.00279927357366392 -0.00294035207724634 0.00170376787348369
v 0.000851882592312933 0.00915018611849137 0.00294835509590589
v 0.00143450235072866 0.00901797253472286 -0.000715267470502478
v 0.00058704867391918 0.00726128207260542 0.00538639822031256
v 0.000964881109166646 0.00196058019565472 0.00583822411189242
v -0.00385217163271791 -0.00293993359319181 0.00416600876280016
v 0.00379241347860476 -0.00294035207724634 0.0041660459179265
v 0.00264906419778433 -0.00294035207724634 0.00663601311798797
v 0.00316269666425825 0.0154144837083466 0.00660849681363644
v 0.000449821103628226 0.0154144837083466 0.0066084987691694
v -0.000112034805764364 0.0131410172605139 0.0075816599715726
v 0.00372455257365084 0.0131410172605139 0.0075816599715726
v -0.000906614782264226 0.0154144837083466 0.00425908039873979
v -0.00203032660104941 0.0131410172605139 0.00425908039873979
v 0.000449821103628226 0.0154144837083466 0.00190966202831018
v -0.000112034805764364 0.0131410172605139 0.000936498870374024
v 0.00316269275319232 0.0154144837083466 0.00190966007277721
v 0.00372455257365084 0.0131410172605139 0.000936498870374024
v 0.0045191325501507 0.0154144837083466 0.00425908039873979
v 0.00564284045786995 0.0131410172605139 0.00425908039873979
v 0.000449821103628226 0.0108675517904477 0.0066084987691694
v 0.00316269666425825 0.0108675517904477 0.00660849681363644
v -0.000906614782264226 0.0108675517904477 0.00425908039873979
v 0.000449821103628226 0.0108675517904477 0.00190966202831018
v 0.00316269275319232 0.0108675517904477 0.00190966007277721
v 0.0045191325501507 0.0108675517904477 0.00425908039873979
v 0.00180625698952068 0.0163561852741742 0.00425908039873979
v 0.00180625698952068 0.00992585022462009 0.00425908039873979
vt 0.647178053855896 0.982384562492371
vt 0.681279301643372 0.713835299015045
vt 0.559696853160858 0.713653683662415
vt 0.99999988079071 0.260960876941681
vt 0.999999821186066 0.347947776317596
vt 0.74999988079071 0.347947776317596
vt 0.749999940395355 0.260960876941681
vt 0.499999940395355 0.260960876941681
vt 0.499999910593033 0.347947776317596
vt 0.249999955296516 0.347947776317596
vt 0.249999970197678 0.260960876941681
vt 0.499999970197678 0.0869868993759155
vt 0.499999940395355 0.173973917961121
vt 0.249999970197678 0.173973917961121
vt 0.249999985098839 0.0869868993759155
vt 0 0.173973917961121
vt 0 0.0869868993759155
vt 0 0
vt 0.25 0
vt 0.5 0
vt 0 0.347947776317596
vt 0 0.260960876941681
vt 0.999999940395355 0.0869868993759155
vt 0.99999988079071 0.173973917961121
vt 0.749999940395355 0.173973917961121
vt 0.75 0.0869868993759155
vt 0.750000059604645 0
vt 1 0
vt 0.234087750315666 0.714433014392853
vt 0.116302847862244 0.714602589607239
vt 0.194577783346176 0.982776641845703
vt 0.49999988079071 0.434934794902802
vt 0.49999988079071 0.521921694278717
vt 0.249999940395355 0.521921694278717
vt 0.249999940395355 0.434934794902802
vt 0 0.521921694278717
vt 0 0.434934794902802
vt 0.249999925494194 0.608908593654633
vt 0 0.608908593654633
vt 0.249999925494194 0.695895493030548
vt 0 0.695895493030548
vt 0.499999850988388 0.608908593654633
vt 0.43749988079071 0.695895493030548
vt 0 0.714432954788208
vt 0.028307419270277 0.982776761054993
vt 0.999999761581421 0.434934794902802
vt 0.999999761581421 0.521921694278717
vt 0.749999821186066 0.521921694278717
vt 0.749999821186066 0.434934794902802
vt 0.749999821186066 0.608908593654633
vt 0.749999821186066 0.695895493030548
vt 0.999999701976776 0.608908593654633
vt 0.937499701976776 0.695895493030548
vt 0.78199166059494 0.714157462120056
vt 0.912004590034485 0.982776761054993
vt 0.883697152137756 0.714432954788208
vt 0.33585461974144 0.714134573936462
vt 0.481655389070511 0.982384324073792
vt 0.441083699464798 0.713835179805756
vt 0 0.25
vt 0.16666667163372 0.25
vt 0.16666667163372 0.5
vt 0 0.5
vt 0.333333343267441 0.25
vt 0.333333343267441 0.5
vt 0.5 0.25
vt 0.5 0.5
vt 0.666666686534882 0.25
vt 0.666666686534882 0.5
vt 0.833333373069763 0.25
vt 0.833333373069763 0.5
vt 1 0.25
vt 1 0.5
vt 0.16666667163372 0.75
vt 0 0.75
vt 0.333333343267441 0.75
vt 0.5 0.75
vt 0.666666686534882 0.75
vt 0.833333373069763 0.75
vt 1 0.75
vt 0.5 1
vn -0.548938048688778 0.396929735273503 0.735604380055926
vn -0.698465714133843 0.342005018932155 0.6286320173239
vn 0.00563867956957411 0.363920187158078 0.931413067694211
vn 0.743113151877117 -0.5267390550265 -0.412709112350389
vn 0.559008284021587 0.106533188995036 -0.82228974092943
vn 0.559008309034494 0.106533186451124 -0.822289724254758
vn 0.743113163176416 -0.526739073149521 -0.412709068874825
vn -0.738625657121051 0.515769668491629 0.434066570593188
vn -0.553580291547378 -0.100714424113923 0.826683413155073
vn -0.55358033959824 -0.100714399513774 0.826683383975315
vn -0.738625614413027 0.515769720243612 0.434066581773815
vn -0.764368032191605 0.286833628253475 -0.577466865773683
vn -0.767448491411111 0.619122498922727 -0.166463642752668
vn -0.767448482327703 0.619122501866494 -0.166463673681313
vn -0.768810385130278 -0.21962833731829 0.600578042524564
vn -0.83953628287007 -0.47185495969257 0.269317149023654
vn -0.839536299971714 -0.471854953445541 0.269317106658137
vn -0.768810400720974 -0.21962835160187 0.60057801734321
vn -0.707784411436823 -0.00404813371828717 0.706416902077257
vn -0.705905923464361 -0.00578928327247754 -0.708281943449866
vn -0.705905960379364 -0.00578928486038867 -0.708281906645718
vn -0.909239902949836 -0.403729784579684 -0.10141528448422
vn -0.956507902652484 -0.131508912237697 -0.26038056410839
vn -0.956507908252423 -0.131508906638744 -0.260380546364847
vn -0.909239909022182 -0.403729772520781 -0.101415278048493
vn 0.760245891133547 -0.274027478131849 0.589011991595466
vn 0.771705020035051 -0.604369214221193 0.198013168638753
vn 0.771704999774529 -0.604369243464537 0.198013158343323
vn 0.760245864874005 -0.274027497064997 0.589012016680703
vn 0.772538347123941 0.225938877378765 -0.593410587967415
vn 0.845283754887222 0.478580335171579 -0.237605211455513
vn 0.84528375271689 0.47858035903989 -0.23760517110135
vn 0.705686368935719 -0.00391800513380191 -0.708513512880377
vn 0.705686476542222 -0.0039179983159555 -0.708513405740936
vn 0.708149768570104 -0.00575354584155985 0.706038810536897
vn 0.911450766502907 0.391665371192577 0.125919566588534
vn 0.954541865496952 0.130658960117871 0.267914283222294
vn 0.954541853360393 0.130658968099003 0.267914322570874
vn 0.911450748223776 0.391665396839914 0.12591961912487
vn 0.675635610268152 0.362443314178909 -0.641990160473344
vn 0.0911493869097037 0.356715816444719 -0.929755675198685
vn 0.494298203043978 0.415145942901214 -0.763755937823175
vn -0.144178436376237 -0.984404989321071 -0.100793826615944
vn -0.0531426667866467 -0.925898442083499 -0.374015951416717
vn -0.96998397385619 0.0508383037864863 -0.237795200393674
vn -0.987629162888723 0.0509374703700296 -0.148303778522404
vn -0.969983985847096 0.0508382793901937 -0.237795156697579
vn -0.407351450383329 -0.478191692184578 0.778072940922796
vn -0.996348914143166 0.0636305061829176 -0.0569209976075662
vn -0.996348913745102 0.0636305152411466 -0.0569209944493388
vn -0.938091012332188 0.315636358998516 -0.142684762535217
vn -0.993964982700631 0.0986240846189458 -0.0480302310842771
vn 0.0909243879286432 -0.37505862826183 -0.92253118161185
vn 0.0909244814646124 -0.37505857052125 -0.922531195867624
vn -0.0718173513466495 0.255045571817799 -0.964258276781529
vn -0.610344555361006 0.386323021550291 -0.691544681681111
vn 0.326096016208875 0.839877353573218 -0.43389793634857
vn 0.0743201155947003 0.943932110005593 0.321665497245786
vn 0.326095615639637 0.839877493897468 -0.43389796577665
vn 0.976411915403774 -0.0461606442200287 0.210924077294946
vn 0.991933708475971 -0.0523603976608974 0.115437891291813
vn 0.976411923391045 -0.0461606413354604 0.210924040951473
vn 0.999014696773199 0.0170477940512594 0.0409757043763587
vn 0.999014696901261 0.0170478030355611 0.040975697516247
vn 0.937837271270113 0.316878670412472 0.14159505942741
vn 0.997976867761226 0.061012096916549 0.0178800291761231
vn -0.0760610728202054 0.492979414421002 0.866709876578412
vn -0.0760608934116703 0.492979481564616 0.866709854132109
vn 0.126071120200919 0.290945859852373 0.948396846940166
vn -0.91185040482513 0.41040793601656 -0.00970387937240021
vn 0.901585542412624 0.432499897849179 0.00934601909822525
vn 0.686347353921649 0.340473437585964 0.642654765844888
vn 0.322966182141586 0.763394709938633 0.559393745076399
vn -0.322966023208886 0.763394746092833 0.559393787497231
vn -0.323125028543294 0.159711754175561 0.932782060026382
vn 0.323125578238255 0.159711573994601 0.932781900457101
vn -0.645932168224499 0.763394808767256 5.16390261427396e-08
vn -0.969375507055398 0.159711784388541 0.186556351402247
vn -0.322966219603804 0.763394728044312 -0.559393698739071
vn -0.646250583639146 0.159711701157624 -0.746225405396654
vn 0.322966199296495 0.763394669204902 -0.559393790760601
vn 0.323125107508253 0.159711765673976 -0.932782030703358
vn 0.645932389996689 0.763394621118832 -1.72130098590115e-08
vn 0.96937558906647 0.15971152358327 -0.186556148536425
vn -0.322966140752291 -0.763394742155173 0.55939372500718
vn 0.322966497309551 -0.7633946800199 0.559393603943516
vn -0.796152574848624 -0.393516212965237 0.459658642576645
vn -0.645932523595451 -0.763394508076664 -8.60650166251617e-09
vn -0.796152581535137 -0.393516380040954 -0.45965848796079
vn -0.322966592086296 -0.763394633107764 -0.559393613244223
vn -2.74489254217378e-07 -0.393516091086086 -0.919317728566273
vn 0.322966008513326 -0.763394770961586 -0.559393762043766
vn 0.796152712093024 -0.393516212965277 -0.459658404862121
vn 0.645932459468446 -0.763394562336568 -6.45487811127837e-08
vn 0.796152896557087 -0.393515801272965 0.459658437812531
vn 3.21072005912606e-08 1 5.35120024657318e-09
vn -2.62208844500591e-07 -0.999999999999965 -1.87292041936748e-08
g horn
f 1/1/1 2/2/2 3/3/3
f 4/4/4 5/5/5 6/6/6 7/7/7
f 8/8/8 9/9/9 10/10/10 11/11/11
f 12/12/12 13/13/13 14/14/14 15/15/12
f 15/15/15 14/14/16 16/16/17 17/17/18
f 18/18/19 19/19/19 15/15/15 17/17/18
f 19/19/20 20/20/21 12/12/12 15/15/12
f 11/11/22 10/10/23 5/21/24 4/22/25
f 14/14/16 11/11/22 4/22/25 16/16/17
f 13/13/13 8/8/8 11/11/11 14/14/14
f 17/23/26 16/24/27 21/25/28 22/26/29
f 22/26/30 21/25/31 13/13/32 12/12/30
f 20/20/33 23/27/34 22/26/30 12/12/30
f 23/27/35 18/28/35 17/23/26 22/26/29
f 7/7/36 6/6/37 9/9/38 8/8/39
f 21/25/31 7/7/36 8/8/39 13/13/32
f 16/24/27 4/4/4 7/7/7 21/25/28
f 24/29/40 25/30/41 26/31/42
f 27/32/43 28/33/44 29/34/44 30/35/43
f 30/35/45 29/34/46 31/36/46 32/37/47
f 10/10/23 30/35/45 32/37/47 5/21/24
f 9/9/9 27/32/48 30/35/48 10/10/10
f 29/34/46 33/38/49 34/39/50 31/36/46
f 33/38/49 35/40/51 1/41/52 34/39/50
f 28/33/44 36/42/53 33/38/54 29/34/44
f 36/42/53 26/43/42 35/40/55 33/38/54
f 25/30/41 37/44/56 35/45/55 26/31/42
f 32/46/57 31/47/58 38/48/58 39/49/59
f 39/49/60 38/48/61 28/33/61 27/32/62
f 6/6/37 39/49/60 27/32/62 9/9/38
f 5/5/5 32/46/57 39/49/59 6/6/6
f 38/48/61 40/50/63 36/42/64 28/33/61
f 40/50/63 41/51/65 26/43/66 36/42/64
f 31/47/58 34/52/67 40/50/68 38/48/58
f 34/52/67 1/53/1 41/51/69 40/50/68
f 42/54/70 35/55/51 37/56/56
f 43/57/71 26/31/42 41/58/65
f 41/58/69 1/1/1 3/3/3
f 1/1/1 35/55/51 42/54/70
f 41/58/65 44/59/72 43/57/71
f 26/31/42 43/57/71 24/29/40
f 44/59/72 41/58/69 3/3/3
f 2/2/2 1/1/1 42/54/70
g vertex
f 45/60/73 46/61/74 47/62/75 48/63/76
f 46/61/74 49/64/77 50/65/78 47/62/75
f 49/64/77 51/66/79 52/67/80 50/65/78
f 51/66/79 53/68/81 54/69/82 52/67/80
f 53/68/81 55/70/83 56/71/84 54/69/82
f 55/70/83 45/72/73 48/73/76 56/71/84
f 48/63/76 47/62/75 57/74/85 58/75/86
f 47/62/87 50/65/78 59/76/88 57/74/85
f 50/65/89 52/67/80 60/77/90 59/76/88
f 52/67/91 54/69/82 61/78/92 60/77/90
f 54/69/93 56/71/84 62/79/94 61/78/92
f 56/71/95 48/73/95 58/80/86 62/79/94
f 46/61/74 45/60/73 63/20/96
f 49/64/77 46/61/74 63/20/96
f 51/66/79 49/64/77 63/20/96
f 53/68/81 51/66/79 63/20/96
f 55/70/83 53/68/81 63/20/96
f 45/72/73 55/70/83 63/20/96
f 58/75/86 57/74/85 64/81/97
f 57/74/85 59/76/88 64/81/97
f 59/76/88 60/77/90 64/81/97
f 60/77/90 61/78/92 64/81/97
f 61/78/92 62/79/94 64/81/97
f 62/79/94 58/80/86 64/81/97
