v -2 0 0.6
v -2 0 0.7
v -2.1 0 0.6
v -1.6 0 1
v -1.6 0 1.1
v -1.7 0 1
v 1.6 0 1.1
v 1.6 0 1
v 1.7 0 1
v 2 0 0.7
v 2 0 0.6
v 2.1 0 0.6
v -2.1 0 -1.6
v -2 0 -1.7
v -2 0 -1.6
v -1.6 0 -2.1
v -1.6 0 -2
v -1.7 0 -2
v 1.7 0 -2
v 1.6 0 -2
v 1.6 0 -2.1
v 2.1 0 -1.6
v 2 0 -1.6
v 2 0 -1.7
v -2.1 0 0.8
v -2.1 0 -1.9
v -2 0 -1.9
v -2 0 0.8
v 1.8 0 -2.1
v 1.8 0 -2
v -1.8 0 -2
v -1.8 0 -2.1
v 2 0 0.8
v 2 0 -1.9
v 2.1 0 -1.9
v 2.1 0 0.8
v -1.8 0 1.1
v -1.8 0 1
v 1.8 0 1
v 1.8 0 1.1
v -2 0 1
v -2 0 -2
v 2 0 -2
v 2 0 1
v -2.1 0 1.1
v 2.1 0 1.1
v -2.1 0 -2.1
v 2.1 0 -2.1
v -1.8 0 0.8
v -1.8 0 -1.8
v 1.8 0 -1.8
v 1.8 0 0.8
vt 0.138888895511627 0
vt 0.888888895511627 0
vt 0.888888895511627 0.25
vt 0.138888895511627 0.25
vt 0.89130437374115 0
vt 0.89130437374115 0.25
vt 0.108695648610592 0.25
vt 0.108695648610592 0
vt 0 1
vt 0 0
vt 1 0
vt 1 1
vn 0 -1 0
g corner_backs photo_frame
f 1//1 2//1 3//1
f 4//1 5//1 6//1
f 7//1 8//1 9//1
f 10//1 11//1 12//1
f 13//1 14//1 15//1
f 16//1 17//1 18//1
f 19//1 20//1 21//1
f 22//1 23//1 24//1
g shadow photo_frame
f 25/1/1 26/2/1 27/3/1 28/4/1
f 29/5/1 30/6/1 31/7/1 32/8/1
f 33/4/1 34/3/1 35/2/1 36/1/1
f 37/8/1 38/7/1 39/6/1 40/5/1
g bg photo_frame
f 41//1 42//1 43//1 44//1
g corners photo_frame
f 45//1 3//1 5//1
f 7//1 12//1 46//1
f 13//1 47//1 16//1
f 48//1 22//1 21//1
g fg photo_frame
f 49/9/1 50/10/1 51/11/1 52/12/1
