v -2 0 1.5
v -2 0 -1.5
v 2 0 -1.5
v 2 0 1.5
v -0.935 0 0.455
v 0.935 0 0.455
v 0.935 0 1.5
v -0.935 0 1.5
v 1.43825003117323 0 -1.39825002163649
v 1.43825003117323 0 0.598250021636486
v -1.43825003117323 0 0.598250021636486
v -1.43825003117323 0 -1.39825002163649
v 1.185 0 -1.395
v 1.185 0 -0.605
v 0.615 0 -0.605
v 0.615 0 -1.395
vt 0 1
vt 0 0
vt 1 0
vt 1 1
vn 0 -1 0
g bg g1
f 1/1/1 2/2/1 3/3/1 4/4/1
g chars g1
f 5/2/1 6/3/1 7/4/1 8/1/1
g scroll g1
f 9/3/1 10/4/1 11/1/1 12/2/1
g ribbon g1
f 13/3/1 14/4/1 15/1/1 16/2/1
