v -0.597434508797148 -0.75 0.309941469085616
v 0.630575625296628 -0.75 0.309941469085616
v 0.630575625296628 1.19603008031845 0.309941469085616
v -0.597434508797148 1.19603008031845 0.309941469085616
v 0.630575625296628 -0.75 0
v -0.597434508797148 -0.75 0
v 0.630575625296628 1.19603008031845 0
v -0.597434508797148 1.19603008031845 0
v 1.496704090207 0.223015040159227 2.44709223027863
v 1.496704090207 0.223015040159227 4.66976670233932
v -1.71474223418584 0.223015040159227 4.66976670233932
v -1.71474223418584 0.223015040159227 2.44709223027863
v 0.158215824277551 0.223326212870287 0.309941469085616
v 0.210880089449483 0.223441908104085 3.40555264055731
v -0.147834436919603 0.222653867848333 3.40555264055731
v -0.125074707778071 0.222703867448168 0.309941469085616
v -2.52000005722046 -2.45234628257493 0.0375
v 2.52000005722046 -2.45234628257493 0.0375
v 2.52000005722046 2.45234628257493 0.0375
v -2.52000005722046 2.45234628257493 0.0375
v 10.020250082016 0 -1.5
v 10.020250082016 0 8.45415973663331
v -10.020250082016 0 8.45415973663331
v -10.020250082016 0 -1.5
v -0.475101223072442 -1.4622016534476 -0.768725012327376
v 0.475095302615892 -1.46220190545427 0.768725012327376
v -1.24382650838688 -0.903690353048157 0.768725012481723
v -3.27734593877399e-06 -5.26361973671934e-07 -1.7189227299678
v -1.53745410245299 1.05454301115127e-08 -0.768725012231983
v 1.2438218433604 -0.903689692615605 -0.768725012481723
v 1.53744895759457 8.26885115245835e-07 0.768725012231983
v 1.24382184319811 0.903692978184157 -0.768725012481723
v 0.475096854335878 1.46220468661506 0.768725012327376
v -0.475101223335033 1.46220493870746 -0.768725012327376
v -1.24382650854917 0.903693638169961 0.768725012481723
v -1.86766748956693e-06 -5.26361973671934e-07 1.7189227299678
v -1.93641849075307 -0.68714781610393 0
v -1.93641849075307 -0.68714781610393 1.99999999999999
v -9.43641849075307 -0.68714781610393 1.99999999999999
v -9.43641849075307 -0.68714781610393 0
v -10.18194564417 -1.48457723558485 0.0375
v -1.73477953097169 -1.48457723558485 0.0375
v -1.73477953097169 1.76378598735171 0.0375
v -10.18194564417 1.76378598735171 0.0375
v 1.73246183511987 -1.48457723558488 0.0375
v 10.0294576855879 -1.48457723558488 0.0375
v 10.0294576855879 1.76378598735168 0.0375
v 1.73246183511987 1.76378598735168 0.0375
v 9.22062319704357 -0.687147816103959 -0.00587134349138907
v 9.22062319704357 -0.687147816103959 1.9941286565086
v 1.72062319704357 -0.687147816103959 1.9941286565086
v 1.72062319704357 -0.687147816103959 -0.00587134349138907
vt 1 1
vt 0 1
vt 0 0
vt 1 0
vt -0.994088411331177 0.0386998392641544
vt -0.994088411331177 0.970613360404968
vt 0.00591158214956522 0.970613360404968
vt 0.00591158214956522 0.0386998392641544
vt 0.00883233919739723 0.00146103010047227
vt 0.0145904431119561 0.928515791893005
vt 0.990732729434967 0.928515791893005
vt 0.98497462272644 0.00146103010047227
vt 1.00322318077087 0.00611213874071836
vt 1.0086133480072 1.00105082988739
vt -0.00257197231985629 0.994941055774689
vt -0.00796219613403082 2.30988780458574e-06
vt 0.884868025779724 0.00818152725696564
vt 0.990189552307129 0.996314406394958
vt 0.0556950867176056 0.996314406394958
vt 0.146862179040909 0.00818152725696564
vt 0.999735534191132 0.00603261450305581
vt 1.00987529754639 1.00797057151794
vt 0.008046037517488 0.99540913105011
vt -0.00209375633858144 -0.00652886694297194
vt 6.90299057168886e-05 0.000934663170482963
vt 1.00043284893036 0.0104544004425406
vt 1.00017333030701 0.991908252239227
vt -0.000190517472219653 0.982388556003571
vn 0 0 1
vn 0 -1 0
vn 1 0 0
vn 0 1 0
vn -1 0 0
vn 0.00219683981617242 -0.9999975869445 0
vn -0.308197890656921 -0.948536062354353 -0.0727557462192784
vn -0.072755755431918 -0.948536120402907 0.308197709826879
vn -0.498674735101487 -0.810146674264206 0.308197785115513
vn -0.308198230512671 -0.223919614600802 -0.924593887555984
vn -0.162459897075939 -0.500000752612135 -0.850650356626842
vn -0.689151856363006 -0.223919460816623 -0.689151502892517
vn 0.806872809088147 -0.586227660264107 -0.0727557578166439
vn 0.879628546178326 -0.362308908565076 0.308197786368734
vn 0.688190853711757 -0.500000480469444 0.525730794606716
vn 0.425325534644531 -0.309017394748995 -0.850650597673268
vn 0.806873046650472 0.586227333287618 -0.0727557578166439
vn 0.616396300846598 0.724616823806139 0.308198083965058
vn 0.688191174012491 0.499999597348285 0.525731215225863
vn 0.425325259290418 0.309016700342146 -0.850650987608426
vn -0.308197982150284 0.948536022235252 -0.0727558816908846
vn -0.498674791243884 0.810146484655326 0.308198192691792
vn -0.262865057350859 0.80901692044517 0.52573147523935
vn -0.162460080851809 0.499999619500271 -0.850650987555536
vn -0.951056598323302 0.309016741918152 8.5398429403437e-11
vn -0.850650714348282 -7.63825992063087e-11 0.525731264220378
vn 0.308198233208998 -0.223919616476629 0.924593886202916
vn -0.425325204702746 0.309016775528237 0.850650987589328
g stand sign prop_construction_sign
f 1/1/1 2/2/1 3/3/1 4/4/1
f 5/5/2 2/6/2 1/7/2 6/8/2
f 7/9/3 3/10/3 2/11/3 5/12/3
f 8/8/4 4/7/4 3/6/4 7/5/4
f 6/12/5 1/11/5 4/10/5 8/9/5
g o13 sign_board sign prop_construction_sign
f 9/13/2 10/14/2 11/15/2 12/16/2
g p7_3 o2 post sign prop_construction_sign
f 13/17/6 14/18/6 15/19/6 16/20/6
g o10 drop_shadow prop_construction_sign
f 17/3/1 18/4/1 19/1/1 20/2/1
g collision_blocker prop_construction_sign
f 21//2 22//2 23//2 24//2
g collision_sphere prop_construction_sign
f 25//7 26//8 27//9
f 28//10 25//11 29//12
f 30//13 31//14 26//15
f 28//10 30//16 25//11
f 32//17 33//18 31//19
f 28//20 32//20 30//16
f 34//21 35//22 33//23
f 28//20 34//24 32//20
f 29//25 27//26 35//26
f 28//10 29//12 34//24
f 26//8 25//7 30//13
f 36//27 26//15 31//14
f 27//9 29//12 25//7
f 36//27 27//9 26//8
f 35//22 34//21 29//25
f 36//28 35//26 27//26
f 33//18 32//17 34//21
f 36//28 33//23 35//22
f 31//14 30//13 32//17
f 36//27 31//19 33//18
g o16 prop_construction_sign
f 37/21/2 38/22/2 39/23/2 40/24/2
g o10_1 prop_construction_sign
f 41/25/1 42/26/1 43/27/1 44/28/1
g o10_2 prop_construction_sign
f 45/25/1 46/26/1 47/27/1 48/28/1
g o16_1 prop_construction_sign
f 49/21/2 50/22/2 51/23/2 52/24/2
