v -0.059865188254459 0.0316003230505379 0.000176325785998403
v -0.0600610387919769 -0.0312921711722212 0.000176325785998403
v -0.106356025055012 -0.0484363020457556 0.031576479966116
v -0.106035826087311 0.0489532480392464 0.031576479966116
v -0.000195859673523449 -0.0628924835651043 0.00254860134299126
v -0.000320194445530886 -0.0973895571901052 0.031576479966116
v 0.0598651726101953 -0.0316003088403315 0.000176325785998403
v 0.106035833909443 -0.04895323382904 0.031576479966116
v 0.0600610270587791 0.0312921747247728 0.000176325785998403
v 0.106356009410748 0.0484363091508588 0.031576479966116
v 0.000195856373561571 0.0628924764600011 0.00254860134299126
v 0.000320180115140877 0.0973895358747956 0.031576479966116
v -0.128040218290694 -0.063188936891003 0.0712684754409189
v -0.127622657247729 0.0638112089343241 0.0712684754409189
v -0.000417546651465452 -0.127000138720224 0.0712684754409189
v 0.12762266506986 -0.0638111876190146 0.0712684754409189
v 0.128040194824299 0.0631889511012094 0.0712684754409189
v 0.000417527371132624 0.127000124510018 0.0712684754409189
v -0.143271590781024 -0.0718417802460461 0.11237751140767
v -0.142821818199058 0.0725769239587955 0.11237751140767
v -0.000449755409942681 -0.144418697099738 0.11237751140767
v 0.142821818199058 -0.0725768955383827 0.11237751140767
v 0.143271559492497 0.0718418086664589 0.11237751140767
v 0.000449734999067358 0.144418682889532 0.11237751140767
v -0.135978594852558 -0.0681848049445392 0.164676114713712
v -0.135551725472678 0.0688825189736333 0.164676114713712
v -0.000426860946643697 -0.137067316813069 0.164676114713712
v 0.135551725472678 -0.0688824905532205 0.164676114713712
v 0.13597856356403 0.0681848191547456 0.164676114713712
v 0.000426842460746136 0.137067302602863 0.164676114713712
v -0.11018587379005 -0.0521706838940701 0.208240563587078
v -0.109859166808641 0.0527361044541399 0.208240477390653
v -0.000326705086986067 -0.104906777690555 0.203435658813886
v 0.109859166808641 -0.0527360831388303 0.208240534854936
v 0.110185858145786 0.0521706945517249 0.208240534854936
v 0.000326692314911389 0.104906770585452 0.203435658813886
v -0.0540085860437608 -0.028249021722607 0.231343561475252
v -0.053831770664125 0.0285261260762175 0.231343561475252
v -0.000176809818588999 -0.0567751389174454 0.222111866912426
v 0.0538317784862568 -0.0285261136422869 0.231343561475252
v 0.0540085821326949 0.0282490288277102 0.231343561475252
v 0.000176806335295905 0.0567751389174454 0.222111866912426
v 2.60892619843702e-09 2.37825492710051e-10 0.0200661326318463
v 3.72448225658121e-09 1.43956973048456e-09 0.214852562040613
v 0.00210741305546875 0.00531625820955334 0.201929369322604
v -0.00398555489215693 0.00328562871455212 0.200538789941505
v -0.00649198388189587 0.0043390976818543 0.225719463044548
v 0.00116885902383621 0.00702430192810635 0.228778794440206
v -0.00398555489215693 -0.00328562795009553 0.200538789941505
v -0.00649198388189587 -0.00433909615294111 0.225719463044548
v 0.00210741249649918 -0.00531625820955334 0.201929369195032
v 0.00116885827854346 -0.00702430192810635 0.22877879427011
v 0.00587307322812974 0 0.202788794390542
v 0.00590732323020447 0 0.230671084892564
v -0.0299978703778483 0.0140568982102752 0.282646979059784
v -0.0412151403052405 0.00868764098940408 0.263560962977041
v -0.0412151403052405 -0.00868763946049089 0.263560962977041
v -0.0299978718684338 -0.0140568982102752 0.282646978719593
v -0.0221010736998925 0 0.286520472322645
v -0.0214502019589673 0.0113986257698868 0.27080821114393
v -0.0328854103620113 0.00704473967519027 0.260887577557681
v -0.0328854103620113 -0.00704473814627708 0.260887577557681
v -0.0214502034495528 -0.0113986257698868 0.270808210803739
v -0.0137472387293395 0 0.275678021689135
v -0.0184832351093553 0.00849585411869483 0.265311052515567
v -0.0267294057843914 0.00525072784349187 0.259676306822149
v -0.0267294057843914 -0.00525072669680697 0.259676306822149
v -0.0184832362272944 -0.00849585411869483 0.265311052260423
v -0.0133868296972784 0 0.268793526400542
v -0.00550741593893391 0.00756946421133732 0.249633187487054
v -0.0132082435389714 0.0046742167241877 0.245205578607937
v -0.0132082435389714 -0.00467421519527451 0.245205578607937
v -0.0055074166007233 -0.00756946421133732 0.24963318695108
v -0.000741520611848956 0 0.252373350186287
v 0.013011206627357 -0.0078758427913691 0.198071583570086
v 0.0309428181794669 -0.0304354740017152 0.228617397032328
v 0.00823058476447406 -0.000987468467645655 0.261640487725147
v -0.00970102678763583 0.0215721627427004 0.231094674262905
v 0.0346676941793285 -0.00159746659755291 0.280398158917493
v 0.0573799275943213 -0.0310454721316224 0.247375068224673
v 0.0898564345912799 -0.0098159170447262 0.252419115724175
v 0.0671442011762871 0.0196320884893433 0.285442206416994
v 0.0130112023635645 -0.00787583726306272 0.198071589769547
v -0.00970102323447542 0.0215721581357785 0.231094669096688
v 0.00823058569289077 -0.000987473061245096 0.261640480741834
v 0.0309428112909307 -0.0304354684600863 0.228617401414693
v 0.0346676990448608 -0.00159747121113617 0.280398154659823
v 0.0671441994799601 0.0196320839090664 0.285442197616585
v 0.089856425078 -0.00981591148977473 0.252419118289445
v 0.0573799246429007 -0.0310454666099773 0.247375075332682
vt 0 0.125
vt 0.16666667163372 0.125
vt 0.16666667163372 0.25
vt 0 0.25
vt 0.333333343267441 0.125
vt 0.333333343267441 0.25
vt 0.5 0.125
vt 0.5 0.25
vt 0.666666686534882 0.125
vt 0.666666686534882 0.25
vt 0.833333373069763 0.125
vt 0.833333373069763 0.25
vt 1 0.125
vt 1 0.25
vt 0.16666667163372 0.375
vt 0 0.375
vt 0.333333343267441 0.375
vt 0.5 0.375
vt 0.666666686534882 0.375
vt 0.833333373069763 0.375
vt 1 0.375
vt 0.16666667163372 0.5
vt 0 0.5
vt 0.333333343267441 0.5
vt 0.5 0.5
vt 0.666666686534882 0.5
vt 0.833333373069763 0.5
vt 1 0.5
vt 0.16666667163372 0.625
vt 0 0.625
vt 0.333333343267441 0.625
vt 0.5 0.625
vt 0.666666686534882 0.625
vt 0.833333373069763 0.625
vt 1 0.625
vt 0.16666667163372 0.75
vt 0 0.75
vt 0.333333343267441 0.75
vt 0.5 0.75
vt 0.666666686534882 0.75
vt 0.833333373069763 0.75
vt 1 0.75
vt 0.16666667163372 0.875
vt 0 0.875
vt 0.333333343267441 0.875
vt 0.5 0.875
vt 0.666666686534882 0.875
vt 0.833333373069763 0.875
vt 1 0.875
vt 0.5 0
vt 0.5 1
vt 0.403695285320282 0.997107744216919
vt 0.442217171192169 0.997107744216919
vt 0.442217171192169 0.97469437122345
vt 0.403695285320282 0.974486470222473
vt 0.480739057064056 0.997107744216919
vt 0.480739057064056 0.97469437122345
vt 0.519260942935944 0.997107744216919
vt 0.519260942935944 0.974486470222473
vt 0.557782828807831 0.997107744216919
vt 0.557782828807831 0.974356532096863
vt 0.596304714679718 0.997107744216919
vt 0.596304714679718 0.974486470222473
vt 0.403695285320282 0.91501259803772
vt 0.442217171192169 0.91501259803772
vt 0.480739057064056 0.91501259803772
vt 0.519260942935944 0.91501259803772
vt 0.557782828807831 0.91501259803772
vt 0.403695285320282 0.936608016490936
vt 0.442217171192169 0.936608016490936
vt 0.480739057064056 0.936608016490936
vt 0.519260942935944 0.936608016490936
vt 0.557782828807831 0.936608016490936
vt 0.596304714679718 0.936608016490936
vt 0.596304714679718 0.91501259803772
vt 0.403695285320282 0.943398416042328
vt 0.442217171192169 0.943398416042328
vt 0.480739057064056 0.943398416042328
vt 0.519260942935944 0.943398416042328
vt 0.557782828807831 0.943398416042328
vt 0.596304714679718 0.943398416042328
vt 0.403695285320282 0.959667563438416
vt 0.442217171192169 0.960042774677277
vt 0.480739057064056 0.960042774677277
vt 0.519260942935944 0.959667563438416
vt 0.557782828807831 0.959433078765869
vt 0.596304714679718 0.959667563438416
vt 0 0
vt 0 0.34255850315094
vt 1 0.34255850315094
vt 1 0
vt 1 0.60829097032547
vt 0 0.60829097032547
vt 0 1
vt 1 1
vt 1 0.342558473348618
vt 0 0.342558473348618
vn -0.101135100479914 0.0992484181635089 -0.989909815560468
vn -0.101596419855851 -0.0985468047379024 -0.989932671825929
vn -0.583356684761594 -0.38140723869435 -0.717093785090565
vn -0.581329578472168 0.385041920024658 -0.716797489544359
vn -0.0682061021733832 -0.365495430379895 -0.92831084125832
vn -0.00184864507468424 -0.735317354645472 -0.677720422053647
vn 0.200268611309618 -0.231568085534674 -0.95198146257473
vn 0.581329648172058 -0.385041796789081 -0.716797499215495
vn 0.10159635665358 0.0985468591237141 -0.989932672898298
vn 0.583356614787235 0.381407369491289 -0.717093772446612
vn 0.0682060744015247 0.365495562173305 -0.928310791408973
vn 0.00184865667729645 0.735317405454383 -0.677720366895022
vn -0.745487702358965 -0.45655814741632 -0.485595246742931
vn -0.742840833958355 0.460949344206263 -0.485503035500162
vn -0.00230429303555195 -0.878462085949921 -0.477806502448554
vn 0.742840976361708 -0.460949229178811 -0.485502926826857
vn 0.745487631029007 0.456558293204684 -0.485595219178263
vn 0.00230428741382601 0.878462052687379 -0.477806563629876
vn -0.920289894998838 -0.325761822009116 -0.216669666737939
vn -0.918296811752903 0.331250648922463 -0.216803996994751
vn -0.0026628293443929 -0.991959674034843 -0.126526338872865
vn 0.70316092793499 -0.675631111262442 -0.221556563703
vn 0.920289836878829 0.325762007694924 -0.216669634420956
vn 0.00266282722472204 0.991959672531914 -0.126526350700354
vn -0.944068004183931 0.00294021482069678 0.329737711845305
vn -0.449499828495565 -0.88455691959096 0.124534975754646
vn -0.00245858171389591 -0.924055465891208 0.382250508609914
vn -0.416413226282504 -0.839945537210697 0.347982067780554
vn 0.411930744480546 -0.842201208173169 0.347865184666931
vn 0.990441286818442 -0.00308435015702422 0.137900486400654
vn 0.94406805093537 -0.00293992534719485 0.329737580572863
vn 0.449499781879273 0.884556930205498 0.124535068618893
vn 0.00245860329224091 0.924055421307508 0.382250616248103
vn 0.41641311430203 0.839945561125773 0.347982144056838
vn -0.444755084200542 0.886959604406914 0.124481224399902
vn -0.411930611839371 0.842201206042536 0.347865346894656
vn -0.486740089405177 -0.327259415210859 0.809929231798487
vn -0.484976847079907 0.330188353559626 0.809798190273364
vn -0.00164367286036524 -0.627888098795261 0.778301891126317
vn 0.484976868738141 -0.330188128837335 0.809798268931125
vn 0.486740099084627 0.327259700877598 0.809929110555111
vn 0.00164364257273938 0.627888145240699 0.778301853720835
vn 0.00303868082910828 -0.0787405401127026 0.996890512424298
vn 0.00344332503053143 0.0787169284024066 0.996891061598821
vn -0.000402754080825446 -0.156711535305472 0.987644335017091
vn -0.00344347128470577 -0.0787167093694231 0.996891078388989
vn -0.00303867560839062 0.0787407107197103 0.996890498964606
vn 0.00040270455400062 0.156711665035315 0.98764431445278
vn -3.80305263184966e-08 -7.82028100550617e-09 -0.999999999999999
vn 0.176713798466506 0.263584324089843 -0.948311941043473
vn -0.175347619381961 0.264667319297336 -0.948263899172082
vn -0.17671382222344 -0.263584379004773 -0.948311921352806
vn -6.42105069784799e-09 -1.25314320425067e-08 1
vn -0.303044504638269 0.950364640962823 -0.0705058679554487
vn -0.295839760304407 0.950647428869105 -0.0935323591469331
vn -0.995082621533331 -0 -0.0990483534560438
vn -0.976855832978074 -0 -0.213898764785386
vn -0.303044672445487 -0.950364588145954 -0.0705058586259277
vn -0.295839932332573 -0.950647372772156 -0.0935323851874639
vn 0.823836409971433 -0.566812974023899 -0.00407701895540725
vn 0.807124119720192 -0.57868108226286 0.116956660336169
vn 0.823836434208287 0.566812938785037 -0.0040770205843587
vn 0.807124160457751 0.578681024188666 0.116956666545034
vn -0.800218348457252 0 0.599708758308854
vn 0.0252967402906918 0.912284929799353 -0.408774120745987
vn -0.019018407971221 0.952359986032469 -0.304382583539984
vn -0.249748285304054 -0 -0.968310794108836
vn -0.305591821746075 -0 -0.952162611365262
vn 0.0252966725127817 -0.912284908182161 -0.408774173184715
vn -0.0190184209157181 -0.952359963276313 -0.304382653931218
vn 0.767993513348634 -0.580076017796431 0.271473344974893
vn 0.687375074973465 -0.574063437216873 0.444934462989745
vn 0.767993557838804 0.580075949692731 0.271473364634861
vn 0.687375074973465 0.574063437216873 0.444934462989745
vn -0.0746519223350605 0.922088290248627 -0.379710778722496
vn -0.48537702428742 -0 -0.874304949256202
vn -0.0746520175605532 -0.922088251072815 -0.379710855135346
vn 0.749868525841293 -0.590082686370189 0.299164866250613
vn 0.749868573039122 0.590082617533628 0.299164883722895
vn -0.252602422883339 0.951242896218735 -0.176999910584326
vn -0.856831868353796 -0 -0.515595916753947
vn -0.252602564101788 -0.951242843517819 -0.176999992274963
vn 0.71767095689636 -0.59013009783552 0.369722686964302
vn 0.717670995903844 0.590130037871555 0.369722706957663
vn -0.787733975236117 -0.615969835228365 0.00750642041496813
vn -0.605763839860291 -0.753555750850779 0.255350544697744
vn -0.0380481815892843 -0.758667654680178 0.650365839831572
vn 0.284049583969373 -0.610243963639561 0.739539139389055
vn 0.787734037356703 0.615969757154428 -0.00750630806876105
vn 0.605763854840618 0.753555744284066 -0.25535052853895
vn 0.0380481207821016 0.758667636089822 -0.65036586507506
vn -0.284049711445458 0.610243884056771 -0.739539156095915
g apple apple
f 1/1/1 2/2/2 3/3/3 4/4/4
f 2/2/2 5/5/5 6/6/6 3/3/3
f 5/5/5 7/7/7 8/8/8 6/6/6
f 7/7/7 9/9/9 10/10/10 8/8/8
f 9/9/9 11/11/11 12/12/12 10/10/10
f 11/11/11 1/13/1 4/14/4 12/12/12
f 4/4/4 3/3/3 13/15/13 14/16/14
f 3/3/3 6/6/6 15/17/15 13/15/13
f 6/6/6 8/8/8 16/18/16 15/17/15
f 8/8/8 10/10/10 17/19/17 16/18/16
f 10/10/10 12/12/12 18/20/18 17/19/17
f 12/12/12 4/14/4 14/21/14 18/20/18
f 14/16/14 13/15/13 19/22/19 20/23/20
f 13/15/13 15/17/15 21/24/21 19/22/19
f 15/17/15 16/18/16 22/25/22 21/24/21
f 16/18/16 17/19/17 23/26/23 22/25/22
f 17/19/17 18/20/18 24/27/24 23/26/23
f 18/20/18 14/21/14 20/28/20 24/27/24
f 20/23/20 19/22/19 25/29/25 26/30/25
f 19/22/26 21/24/21 27/31/27 25/29/28
f 21/24/21 22/25/22 28/32/29 27/31/27
f 22/25/30 23/26/23 29/33/31 28/32/31
f 23/26/32 24/27/24 30/34/33 29/33/34
f 24/27/24 20/28/35 26/35/36 30/34/33
f 26/30/25 25/29/25 31/36/37 32/37/38
f 25/29/28 27/31/27 33/38/39 31/36/37
f 27/31/27 28/32/29 34/39/40 33/38/39
f 28/32/31 29/33/31 35/40/41 34/39/40
f 29/33/34 30/34/33 36/41/42 35/40/41
f 30/34/33 26/35/36 32/42/38 36/41/42
f 32/37/38 31/36/37 37/43/43 38/44/44
f 31/36/37 33/38/39 39/45/45 37/43/43
f 33/38/39 34/39/40 40/46/46 39/45/45
f 34/39/40 35/40/41 41/47/47 40/46/46
f 35/40/41 36/41/42 42/48/48 41/47/47
f 36/41/42 32/42/38 38/49/44 42/48/48
f 2/2/2 1/1/1 43/50/49
f 5/5/50 2/2/2 43/50/49
f 7/7/51 5/5/5 43/50/49
f 9/9/9 7/7/7 43/50/49
f 11/11/52 9/9/9 43/50/49
f 1/13/1 11/11/11 43/50/49
f 38/44/44 37/43/43 44/51/53
f 37/43/43 39/45/45 44/51/53
f 39/45/45 40/46/46 44/51/53
f 40/46/46 41/47/47 44/51/53
f 41/47/47 42/48/48 44/51/53
f 42/48/48 38/49/44 44/51/53
g stem apple
f 45/52/54 46/53/54 47/54/55 48/55/55
f 46/53/56 49/56/56 50/57/57 47/54/57
f 49/56/58 51/58/58 52/59/59 50/57/59
f 51/58/60 53/60/60 54/61/61 52/59/61
f 53/60/62 45/62/62 48/63/63 54/61/63
f 55/64/64 56/65/64 57/66/64 58/67/64 59/68/64
f 60/69/65 61/70/65 56/65/66 55/64/66
f 61/70/67 62/71/67 57/66/68 56/65/68
f 62/71/69 63/72/69 58/67/70 57/66/70
f 63/72/71 64/73/71 59/68/72 58/67/72
f 64/73/73 60/74/73 55/75/74 59/68/74
f 65/76/75 66/77/75 61/70/65 60/69/65
f 66/77/76 67/78/76 62/71/67 61/70/67
f 67/78/77 68/79/77 63/72/69 62/71/69
f 68/79/78 69/80/78 64/73/71 63/72/71
f 69/80/79 65/81/79 60/74/73 64/73/73
f 70/82/80 71/83/80 66/77/75 65/76/75
f 71/83/81 72/84/81 67/78/76 66/77/76
f 72/84/82 73/85/82 68/79/77 67/78/77
f 73/85/83 74/86/83 69/80/78 68/79/78
f 74/86/84 70/87/84 65/81/79 69/80/79
f 48/55/55 47/54/55 71/83/80 70/82/80
f 47/54/57 50/57/57 72/84/81 71/83/81
f 50/57/59 52/59/59 73/85/82 72/84/82
f 52/59/61 54/61/61 74/86/83 73/85/83
f 54/61/63 48/63/63 70/87/84 74/86/84
g pPlane1 leaf apple
f 75/88/85 76/89/86 77/90/86 78/91/85
f 79/92/87 80/93/87 81/94/88 82/95/88
f 77/90/86 76/89/86 80/93/87 79/92/87
g pPlane2 leaf apple
f 83/88/89 84/91/89 85/96/90 86/97/90
f 87/92/91 88/95/92 89/94/92 90/93/91
f 85/96/90 87/92/91 90/93/91 86/97/90
