v -7.69491449321992 0 12.3634940162301
v -7.69491449321992 0 -0.0115062519907951
v 7.70508584056609 0 -0.0115062519907951
v 7.70508584056609 0 12.3634940162301
v -7.69344395073006 0 12.0281769679859
v -7.69344395073006 0 0.0281769679859281
v 7.70655638305595 0 0.0281769679859281
v 7.70655638305595 0 12.0281769679859
v -7.7199047227089 0 14.8952151807025
v -7.7199047227089 0 0.0452148588374257
v 7.68009561107711 0 0.0452148588374257
v 7.68009561107711 0 14.8952151807025
vt 0.000210039594094269 0.998057961463928
vt 0.000210039594094269 -0.00122547370847315
vt 1.00081932544708 -0.00425762310624123
vt 1.00081932544708 0.995025813579559
vt 0 1
vt 0 0
vt 1 0
vt 1 1
vn 0 -1 0
g TB_sign1 g2 g1
f 1/1/1 2/2/1 3/3/1 4/4/1
g TB_sign2 g2 g1
f 5/5/1 6/6/1 7/7/1 8/8/1
g TB_sign3 g2 g1
f 9/5/1 10/6/1 11/7/1 12/8/1
