v -0.843517155672707 -0.920272692519075 2.31031010244774
v -0.942770055964322 -0.514827621114824 2.11247449195196
v -0.848136605338227 -0.442779491471253 2.81198765647331
v -0.793457440158824 -0.882160282484945 2.68034236674969
v -0.775420245055035 -1.05943388991058 2.36626104059597
v -0.740938561034961 -1.03318164163966 2.62114334433881
v -0.606530804019508 -1.16993957338409 2.39124626230771
v -0.602083221983065 -1.13508070350665 2.53934882047141
v -0.569541147857175 -1.18677843248653 2.38505815934941
v -0.523951745895738 -1.17118202024172 2.49010005704711
v -0.35642854672473 -1.12905377145363 2.30089918789571
v -0.336431815686394 -1.10784611403875 2.38632251690149
v -0.134766486794428 -0.956899367684136 1.97482222240458
v -0.17609942132026 -0.996585772297296 1.9570355032658
v -0.104583627031991 -0.945215833105893 1.54604003732521
v -0.0753938223338931 -0.916026358844051 1.54604003732522
v -0.0860140843966482 -0.939368032155226 1.20850974653903
v -0.0650175325859979 -0.918371718031058 1.20850974653903
v -0.99015656191146 -1.5732114553581 2.12818244654521
v -1.21997884286582 -1.74915042021898 1.76817831775881
v -1.09679215381141 -1.05594417729207 1.68011450732473
v -0.924992599609554 -1.20651546061704 2.08159797490006
v -0.876427084964309 -1.50918530926141 2.24080950301373
v -0.831541429212497 -1.25660106477888 2.2087216052896
v -0.687608334377999 -1.4355509277965 2.29926874886413
v -0.659274932834002 -1.2761108861453 2.27901374143042
v -0.516136719939643 -1.37520163362728 2.29995237059937
v -0.566304058115866 -1.27128612334095 2.30629640876887
v -0.330257627423039 -1.26902990402688 2.23609811322516
v -0.354378052483167 -1.18258411732369 2.25100853643807
v -0.174995346043446 -1.05381556025597 1.93905434775934
v -0.132101013287251 -1.09506429794568 1.93141187291374
v -0.0753943864238463 -1.015718787861 1.54604003732521
v -0.104583860685704 -0.986496217139254 1.54604003732521
v -0.0650179383421881 -0.990058024229844 1.20850974653903
v -0.0860142524663671 -0.969061472419199 1.20850974653903
v -1.24016903138332 -2.18837553431068 2.32507933745618
v -1.0008368772399 -1.80555513629052 2.42277496568925
v -0.883783803927046 -1.66922619858189 2.44372807846952
v -0.692252153632205 -1.53657435509474 2.42735807679808
v -0.448426479644004 -1.43765266676066 2.36974229636038
v -0.276763784499062 -1.31836875945393 2.29123499222655
v -0.0725433414313367 -1.09616903425856 1.93858493684349
v -0.0341140023904918 -1.01568625549104 1.54604003732521
v -0.0353244980782204 -0.990058192299552 1.20850974653903
v -0.804137755487358 -1.1145039634176 2.97493488589327
v -0.868326793855728 -0.882004605562946 3.36888867617068
v -0.748295279997754 -1.19322253096027 2.82406191979436
v -0.606727041237298 -1.23610413080494 2.66743814840528
v -0.456241505600118 -1.23363305337513 2.55988998280807
v -0.28293797276241 -1.15718496946582 2.44145939590282
v -0.0752088149385234 -0.958004103997051 1.98199528633434
v -0.0341134383005445 -0.916026592497767 1.54604003732533
v -0.0353240923220357 -0.91837188610078 1.20850974653904
v -1.14553558075723 -2.1163274046671 3.02459250197752
v -0.950777161725955 -1.76744272625593 2.79280722999095
v -0.849302119906943 -1.64297395031074 2.69861038221223
v -0.670486104258729 -1.52000301444617 2.58824873412376
v -0.402837077682604 -1.4220562545158 2.47478419405806
v -0.240746303289822 -1.3060469596322 2.37422236239895
v -0.0312104069055346 -1.05648262964539 1.95637165598227
v -0.00492419769241451 -0.986496781229193 1.54604003732521
v -0.0143279462675854 -0.969061878175378 1.20850974653903
v -0.869301717789208 -1.48119995815821 3.02151935753817
v -0.991513482910142 -1.57521084848986 3.45695248660476
v -0.793180935749532 -1.44580677544256 2.85614981751837
v -0.635060442781278 -1.39554417245606 2.68769315583894
v -0.406074167423927 -1.33754856366141 2.55354594463855
v -0.243303735805153 -1.23928244778443 2.43644734780106
v -0.0323144821823584 -0.999252841686746 1.97435281148871
v -0.00492396403871062 -0.945216397195854 1.54604003732522
v -0.0143277781978732 -0.939368437911421 1.20850974653903
vt 0.742689192295074 0.839879870414734
vt 0.994226217269897 0.998887121677399
vt -0.00249087787233293 0.998716294765472
vt 0.244330629706383 0.839794456958771
vt 0.679479002952576 0.778153538703918
vt 0.305710077285767 0.77808952331543
vt 0.615935921669006 0.693985164165497
vt 0.366756677627563 0.693942487239838
vt 0.573157846927643 0.609820365905762
vt 0.407038331031799 0.609791874885559
vt 0.551227867603302 0.531269609928131
vt 0.424689143896103 0.530916392803192
vt 0.44440746307373 0.32927331328392
vt 0.52746719121933 0.329287558794022
vt 0.525220394134521 0.177803695201874
vt 0.442160665988922 0.177789449691772
vt 0.501875817775726 0.00387421157211065
vt 0.460345923900604 0.00386709463782609
vt 0.727550148963928 0.836342394351959
vt 0.979087173938751 0.995349645614624
vt -0.0176299214363098 0.995178818702698
vt 0.229191571474075 0.836256980895996
vt 0.664339959621429 0.774616062641144
vt 0.290571063756943 0.774552047252655
vt 0.35161766409874 0.690405011177063
vt 0.60079687833786 0.690447688102722
vt 0.391899317502975 0.606254398822784
vt 0.558018803596497 0.606282889842987
vt 0.409550130367279 0.527378916740417
vt 0.536088824272156 0.527732133865356
vt 0.512328147888184 0.325750112533569
vt 0.429268449544907 0.325735867023468
vt 0.427021652460098 0.174251958727837
vt 0.510081350803375 0.174266204237938
vt 0.44520691037178 0.000329618575051427
vt 0.486736804246902 0.000336735742166638
vn 0.928890975674263 0.198564683352185 -0.31262377042727
vn 0.95805131377149 0.104270708235586 -0.266955613510508
vn 0.974817886322809 0.165945865852856 -0.148969990640656
vn 0.94864307249935 0.274842943507897 -0.156645068236788
vn 0.729961681986139 0.521769176306019 -0.441489376416812
vn 0.769585146296024 0.636900568662175 0.0457861140339
vn 0.378640009017626 0.778589078485983 -0.500430605012802
vn 0.535696874117655 0.832095888187461 0.143684696200024
vn -0.0735185799139565 0.87692652413535 -0.474968303863877
vn 0.144203407114881 0.96405493948336 0.223166868137265
vn -0.635433517271403 0.697989168302407 -0.330205036394977
vn -0.207421641539181 0.943019580668543 0.260173659498644
vn -0.332062415856879 0.935001236490238 0.12452806806909
vn -0.869966226645674 0.460739897738892 -0.175719979306405
vn -0.916944627748113 0.391644802144452 -0.0763341247222173
vn -0.378122270780355 0.92571274128419 0.00891453666880107
vn -0.922885111550248 0.382536555194675 -0.044145835802223
vn -0.382551663557152 0.923755240412129 -0.0181791232128005
vn 0.811267737083655 -0.213322708266586 -0.544369434212627
vn 0.867419632911979 -0.211369946862364 -0.450450803087585
vn 0.903864354053655 -0.0861010724514295 -0.419065430206172
vn 0.85904028039506 -0.0494027405733866 -0.509518562844001
vn 0.54671307656937 -0.390220203104924 -0.740832643042142
vn 0.633485401607684 0.0864707791491044 -0.768907699469382
vn 0.29841033653408 -0.44884978060881 -0.842309411972252
vn 0.287798916350521 0.264566159008321 -0.920421931102823
vn 0.0415840186735666 -0.396658110612459 -0.917024052397924
vn -0.117066115525857 0.344085521847317 -0.931611871033612
vn -0.278110011541262 -0.514411896463562 -0.81119370205721
vn -0.659382323993383 0.150360629203336 -0.736618376088095
vn -0.901839312045959 -0.198024741847908 -0.384020906806572
vn -0.553317116292992 -0.660227744636597 -0.507877439968818
vn -0.377594296356154 -0.911899106674731 -0.160818427442657
vn -0.917091339036914 -0.370533160881486 -0.147134810805105
vn -0.381354680404116 -0.920812232647763 -0.0816911252224955
vn -0.921754967223461 -0.381324370758992 -0.0704237507104991
vn -0.783295346151042 0.501601001198654 0.367212249652195
vn -0.838137505954454 0.442648513729044 0.31872843363264
vn -0.853422520069312 0.484505023468044 0.192158487901979
vn -0.807597334145931 0.550668686446536 0.211069997033287
vn -0.540579165248878 0.513913140958383 0.666083665652533
vn -0.651548783918076 0.713731787793418 0.257043026102806
vn 0.418902489618489 -0.85188620885384 -0.314341520254742
vn 0.530235403810391 -0.800179189814191 -0.280292134628027
vn 0.329535090649684 -0.855704999441773 -0.398968141536214
vn 0.340667659534024 -0.846741597071723 -0.408624783311093
vn 0.35452754648062 -0.899129159739065 -0.256665098705208
vn 0.383549578918582 -0.916901114419193 -0.110372400935291
vn 0.00386735667699904 -0.979625098585356 -0.200797683686752
vn 0.382163429475566 -0.921336309290654 -0.0713478686027185
vn -0.969038710283795 -0.0202448607639309 -0.246077474759819
vn -0.984241413124245 0.0249068886395109 -0.175067094536605
vn -0.990021572503529 -0.0909566259113048 -0.107629820126539
vn -0.971848919771787 -0.166580504874637 -0.166615162977811
vn -0.867760173104992 -0.170520559768288 -0.466813689461977
vn -0.785945423434644 -0.589594306540459 -0.186194374451039
vn 0.749775365462967 0.271827603076342 0.603279914758187
vn 0.646061278992851 0.367606500366759 0.668932197366987
vn 0.420287329397622 0.493221780008215 0.761636945318006
vn 0.400696265520875 0.627257600026392 0.667825131308155
vn 0.439738523235955 0.834869664980395 0.331093149548257
vn 0.382261919646505 0.922218926523864 0.058207184688322
vn 0.382676354241597 0.923849606209186 -0.00779185545883122
vn -0.886715788039909 0.459157562595554 -0.0539392616938106
vn -0.852745892686106 0.514421808539388 -0.0905242807540627
vn -0.73762003871086 0.648586736631381 -0.187754956147753
vn 0.559371029947589 -0.774527077451958 0.295316537208979
vn 0.647863829783556 -0.720718207683234 0.24665304208959
vn 0.563266948278354 -0.773010882759706 0.291863872571189
vn 0.763864349159169 -0.619314863598455 0.181549871411868
vn 0.892144605305972 -0.448007896700386 0.0580252334553419
vn 0.923772441910747 -0.38207311526891 -0.0257800340373184
vn 0.923016809239139 -0.382065668011008 -0.0454510196728484
vn -0.918465064408394 0.282354384372008 -0.276943906030064
vn -0.940902747757962 0.268785781908055 -0.206049078390542
vn -0.82344970069278 0.309773265882984 -0.475364191092642
vn 0.736702918930046 -0.318682032060671 0.596414764808545
vn 0.65076523965662 -0.301312175615532 0.696932977897084
vn 0.5956923654954 -0.219428276779912 0.772658939662186
vn 0.780682202965608 -0.0148110017701243 0.62475269683238
vn 0.920125148638191 0.259128880828015 0.293635716431716
vn 0.923166997676863 0.38188344236462 0.0439059318092064
vn 0.923684540637963 0.382677273273283 -0.0191042902657812
vn -0.535696874117655 -0.832095888187461 -0.143684696200024
vn -0.500484852473902 -0.712948628413635 0.491140678102815
vn -0.378640009017626 -0.778589078485983 0.500430605012802
vn -0.144203407114881 -0.96405493948336 -0.223166868137265
vn 0.073518579913954 -0.87692652413535 0.474968303863879
vn 0.20742164153918 -0.943019580668543 -0.260173659498644
vn 0.6354335172714 -0.69798916830241 0.330205036394975
vn 0.822512441201785 -0.515627651486516 0.24000293558784
vn 0.285040203020549 -0.933737192445987 -0.216533919063713
vn -0.287798916350521 -0.264566159008321 0.920421931102823
vn -0.408578850146848 -0.182892238317586 0.894211245945757
vn -0.29841033653408 0.44884978060881 0.842309411972252
vn 0.117066115525854 -0.344085521847316 0.931611871033612
vn -0.0415840186735666 0.396658110612459 0.917024052397924
vn 0.659382323993381 -0.150360629203337 0.736618376088096
vn 0.278110011541258 0.514411896463563 0.81119370205721
vn 0.455069704282507 0.622965172373031 0.636259348264897
vn 0.85315614824055 0.0348011670209601 0.520493482661721
vn -0.418902489618489 0.85188620885384 0.314341520254742
vn -0.329535090649684 0.855704999441773 0.398968141536214
vn -0.340667659534025 0.846741597071723 0.408624783311093
vn -0.319530988846896 0.875333270107942 0.362893391244124
vn -0.646061278992851 -0.367606500366759 -0.668932197366987
vn -0.420287329397622 -0.493221780008215 -0.761636945318006
vn -0.400696265520872 -0.627257600026394 -0.667825131308155
vn -0.47579795343929 -0.709388536172069 -0.519984819250171
vn -0.559371029947589 0.774527077451958 -0.295316537208979
vn -0.563266948278354 0.773010882759706 -0.291863872571189
vn -0.763864349159169 0.619314863598455 -0.18154987141187
vn -0.851707712217676 0.509744137559847 -0.121469696518516
vn -0.65076523965662 0.301312175615532 -0.696932977897084
vn -0.5956923654954 0.219428276779912 -0.772658939662186
vn -0.780682202965606 0.0148110017701206 -0.624752696832382
vn -0.876960011410414 -0.128323359969805 -0.463113650925026
g o30 flower_petals g2 g1
f 1/1/1 2/2/2 3/3/3 4/4/4
f 5/5/5 1/1/1 4/4/4 6/6/6
f 7/7/7 5/5/5 6/6/6 8/8/8
f 9/9/9 7/7/7 8/8/8 10/10/10
f 11/11/11 9/9/9 10/10/10 12/12/12
f 12/12/12 13/13/13 14/14/14 11/11/11
f 15/15/15 14/14/14 13/13/13 16/16/16
f 17/17/17 15/15/15 16/16/16 18/18/18
f 19/1/19 20/2/20 21/3/21 22/4/22
f 23/5/23 19/1/19 22/4/22 24/6/24
f 25/7/25 23/5/23 24/6/24 26/8/26
f 27/9/27 25/7/25 26/8/26 28/10/28
f 29/11/29 27/9/27 28/10/28 30/12/30
f 30/12/30 31/13/31 32/14/32 29/11/29
f 33/15/33 32/14/32 31/13/31 34/16/34
f 35/17/35 33/15/33 34/16/34 36/18/36
f 19/1/37 20/2/38 37/3/39 38/4/40
f 23/5/41 19/1/37 38/4/40 39/6/42
f 40/8/43 39/6/44 23/5/23 25/7/25
f 41/10/45 40/8/43 25/7/25 27/9/27
f 42/12/46 41/10/45 27/9/27 29/11/29
f 29/11/29 32/14/32 43/13/47 42/12/46
f 44/16/48 43/13/47 32/14/49 33/15/33
f 45/18/50 44/16/48 33/15/33 35/17/35
f 46/1/51 47/2/52 3/3/53 4/4/54
f 48/5/55 46/1/51 4/4/54 6/6/56
f 8/8/8 6/6/6 48/5/57 49/7/58
f 10/10/10 8/8/8 49/7/58 50/9/59
f 12/12/12 10/10/10 50/9/59 51/11/60
f 51/11/60 52/14/61 13/13/13 12/12/12
f 16/16/16 13/13/13 52/14/61 53/15/62
f 18/18/18 16/16/16 53/15/62 54/17/63
f 38/1/40 37/2/39 55/3/64 56/4/65
f 39/5/42 38/1/40 56/4/65 57/6/66
f 58/8/67 57/6/68 39/5/44 40/7/43
f 59/10/69 58/8/67 40/7/43 41/9/45
f 60/12/70 59/10/69 41/9/45 42/11/46
f 42/11/46 43/14/47 61/13/71 60/12/70
f 62/16/72 61/13/71 43/14/47 44/15/48
f 63/18/73 62/16/72 44/15/48 45/17/50
f 64/1/74 65/2/75 47/3/52 46/4/51
f 66/5/76 64/1/74 46/4/51 48/6/55
f 49/8/58 48/6/57 66/5/77 67/7/78
f 50/10/59 49/8/58 67/7/78 68/9/79
f 51/12/60 50/10/59 68/9/79 69/11/80
f 69/11/80 70/14/81 52/13/61 51/12/60
f 53/16/62 52/13/61 70/14/81 71/15/82
f 54/18/63 53/16/62 71/15/82 72/17/83
f 56/19/65 55/20/64 65/21/75 64/22/74
f 57/23/66 56/19/65 64/22/74 66/24/76
f 67/25/78 66/24/77 57/23/68 58/26/67
f 68/27/79 67/25/78 58/26/67 59/28/69
f 69/29/80 68/27/79 59/28/69 60/30/70
f 60/30/70 61/31/71 70/32/81 69/29/80
f 71/33/82 70/32/81 61/31/71 62/34/72
f 72/35/83 71/33/82 62/34/72 63/36/73
f 22/1/22 21/2/21 2/3/2 1/4/1
f 24/5/24 22/1/22 1/4/1 5/6/5
f 26/7/26 24/5/24 5/6/5 7/8/7
f 28/9/28 26/7/26 7/8/7 9/10/9
f 30/11/30 28/9/28 9/10/9 11/12/11
f 11/12/11 14/13/14 31/14/31 30/11/30
f 34/15/34 31/14/31 14/13/14 15/16/15
f 36/17/36 34/15/34 15/16/15 17/18/17
g inside flower_petals g2 g1
f 8/8/84 6/6/56 5/5/85 7/7/86
f 10/10/87 8/8/84 7/7/86 9/9/88
f 12/12/89 10/10/87 9/9/88 11/11/90
f 11/11/90 14/14/91 13/13/92 12/12/89
f 26/8/93 24/6/94 23/5/41 25/7/95
f 28/10/96 26/8/93 25/7/95 27/9/97
f 30/12/98 28/10/96 27/9/97 29/11/99
f 29/11/99 32/14/100 31/13/101 30/12/98
f 7/8/86 5/6/85 24/5/94 26/7/93
f 9/10/88 7/8/86 26/7/93 28/9/96
f 11/12/90 9/10/88 28/9/96 30/11/98
f 30/11/98 31/14/101 14/13/91 11/12/90
f 25/7/95 23/5/41 39/6/42 40/8/102
f 27/9/97 25/7/95 40/8/102 41/10/103
f 29/11/99 27/9/97 41/10/103 42/12/104
f 42/12/104 43/13/105 32/14/100 29/11/99
f 49/7/106 48/5/55 6/6/56 8/8/84
f 50/9/107 49/7/106 8/8/84 10/10/87
f 51/11/108 50/9/107 10/10/87 12/12/89
f 12/12/89 13/13/92 52/14/109 51/11/108
f 40/7/102 39/5/42 57/6/66 58/8/110
f 41/9/103 40/7/102 58/8/110 59/10/111
f 42/11/104 41/9/103 59/10/111 60/12/112
f 60/12/112 61/13/113 43/14/105 42/11/104
f 67/7/114 66/5/76 48/6/55 49/8/106
f 68/9/115 67/7/114 49/8/106 50/10/107
f 69/11/116 68/9/115 50/10/107 51/12/108
f 51/12/108 52/13/109 70/14/117 69/11/116
f 58/26/110 57/23/66 66/24/76 67/25/114
f 59/28/111 58/26/110 67/25/114 68/27/115
f 60/30/112 59/28/111 68/27/115 69/29/116
f 69/29/116 70/32/117 61/31/113 60/30/112
