v -1.520763913051 0 1.77579973146258
v -1.520763913051 0 -1.77579973146258
v 1.520763913051 0 -1.77579973146258
v 1.520763913051 0 1.77579973146258
v -2.1053851007898 0 1.97834700880948
v -2.1053851007898 0 -1.97834700880948
v 2.1053851007898 0 -1.97834700880948
v 2.1053851007898 0 1.97834700880948
v -2.33931684062607 0 2.19816340135309
v -2.33931684062607 0 -2.19816340135309
v 2.33931684062607 0 -2.19816340135309
v 2.33931684062607 0 2.19816340135309
vt 0 1
vt 0 0
vt 1 0
vt 1 1
vn 0 -1 0
g window_sm_pointed_DG_ur window_sm_pointed_DG DG_windows
f 1/1/1 2/2/1 3/3/1 4/4/1
g window_sm_pointed_DG_ul window_sm_pointed_DG DG_windows
f 1/1/1 2/2/1 3/3/1 4/4/1
g window_flower_porthole_ur window_flower_porthole_DG_1 DG_windows
f 5/1/1 6/2/1 7/3/1 8/4/1
g window_flower_porthole_ul window_flower_porthole_DG_1 DG_windows
f 5/1/1 6/2/1 7/3/1 8/4/1
g window_md_curved_DG_ur window_md_curved_DG DG_windows
f 9/1/1 10/2/1 11/3/1 12/4/1
g window_md_curved_DG_ul window_md_curved_DG DG_windows
f 9/1/1 10/2/1 11/3/1 12/4/1
