v -0.0905092932733651 -8.34019864685002e-25 0.0174830916908311
v 0.0905092932733651 -8.34019864685002e-25 0.0174830916908311
v 0.0905092932733651 -8.34019864685002e-25 0.205582451413462
v -0.0905092932733651 -8.34019864685002e-25 0.205582451413462
v -0.0647121683506202 -8.34019864685002e-25 -0.00345008912205384
v 0.0647121683506202 -8.34019864685002e-25 -0.00345008912205384
v 0.0647121683506202 -8.34019864685002e-25 0.0278846016080361
v -0.0647121683506202 -8.34019864685002e-25 0.0278846016080361
vt 0 0
vt 1 0
vt 1 1
vt 0 1
vn 0 -1 0
g fishingTrophyGreyBowl group1
f 1/1/1 2/2/1 3/3/1 4/4/1
g fishingTrophyBase group1
f 5/1/1 6/2/1 7/3/1 8/4/1
