v -313.684965769341 -246.922152434179 304.120621113733
v -313.684893612733 -246.922094418777 304.120583329656
v -313.684864166167 -246.92207074313 304.120675916712
v -313.684936322775 -246.922128758532 304.12071370079
v -313.684926826546 -246.921992809335 304.120675916712
v -313.684998983154 -246.922050824738 304.12071370079
v -313.684956273113 -246.922016484983 304.120583329656
v -313.685028429721 -246.922074500385 304.120621113733
vn 0.626998473062397 -0.779020144605368 -0.00072737641886589
vn 0.293865126271637 0.237128790011271 0.925966103326221
vn -0.626288616848064 0.779591282921082 0
vn -0.294727901307203 -0.237237767471971 -0.925663927068548
vn 0.722182964125943 0.579637283392122 -0.377455144392109
vn -0.721225506296362 -0.580906430978622 0.377334715491746
g pCube1 camera1 flyover hole2
f 1//1 2//1 3//1 4//1
f 4//2 3//2 5//2 6//2
f 6//3 5//3 7//3 8//3
f 8//4 7//4 2//4 1//4
f 2//5 7//5 5//5 3//5
f 8//6 1//6 4//6 6//6
