v 30 0 20
v 29.400021565338 8.88178419700125e-16 21.5289811796415
v 29.400021565338 -3.21497797966003 21.5289811796415
v 33.0564022381697 -3.21497797966003 11
v 33.0564022381697 0 11
v 32.8191948071418 -3.21497797966003 10
v 30 -3.21497797966005 0
v 30 0 0
v -2.8191948071418 -3.21497797966003 10
v -3.05640223816974 -3.21497797966003 11
v -3.05640223816973 0 11
v 0 0 0
v -7.99360577730113e-15 -3.21497797966005 0
v 0.599978434661979 -3.21497797966003 21.5289811796415
v 0.599978434661987 8.88178419700125e-16 21.5289811796415
v 0 0 20
v 23 -3.16277213295501 11
v 23 -3.09497800469398 0
v 7 -3.16275549938169 11
v 7 -3.09497800469398 0
v 15 -3.12147284579822 11
v 7 -2.59497800469397 11
v 15 -2.59497800469397 11
v -0.00787623147107597 9.99999999999998 20
v 0.599978434662017 9.99999999999998 21.5289811796415
v 7.44788652541807 9.99999999999998 35.9745967538644
v 2.15430867557487 9.99999999999998 42.1740587240852
v 0.64748245123267 9.99999999999998 42.8742851512151
v 0.812417466069589 10 46.8073516820474
v 5.5093536640581 9.99999999999998 46.3294927840814
v 10.2528268734656 9.99999999999996 45.8468992838015
v 14.7343827428202 10 45.6484479909746
v 15 10 45.6563301124072
v 15 9.99999999999998 20
v 15 -3.21497797966002 45.6707328170396
v 13.7320885002627 -3.21497797966002 45.6484479909746
v 10.2528268734655 -3.21497797966005 45.8468992838015
v 5.50935366405806 -3.21497797966003 46.3294927840814
v 0.81241746606955 -3.21497797966001 46.8073516820474
v 0.647482451232631 -3.21497797966003 42.8742851512151
v 2.15430867557483 -3.21497797966003 42.1740587240852
v 7.44788652541804 -3.21497797966003 35.9745967538644
v 15 -3.21497797966003 21.5289811796415
v 7 -3.15657661815758 9.99719377680723
v 7 -2.59497800469397 0
v 0.599978434662017 10 21.5289811796414
v -0.00332907338606283 10 20
v 30.0033290733861 10 20
v 29.400021565338 10 21.5289811796415
v 29.400021565338 10 21.5289811796414
v 22.5521134745819 10 35.9745967538644
v 22.552113474582 -3.21497797966003 35.9745967538644
v 27.8456913244251 10 42.1740587240852
v 27.8456913244252 -3.21497797966003 42.1740587240852
v 23 -2.59497800469397 11
v 23 -3.15658549253519 9.99618084392234
v 23 -2.59497800469397 0
v 29.3525175487674 10 42.8742851512151
v 29.3525175487674 -3.21497797966003 42.8742851512151
v 29.1875825339304 10 46.8073516820474
v 29.1875825339304 -3.21497797966001 46.8073516820474
v 24.4906463359419 -3.21497797966003 46.3294927840814
v 19.7471731265345 -3.21497797966005 45.8468992838015
v 16.2679114997373 -3.21497797966002 45.6484479909746
v 15.2656172571797 10 45.6484479909746
v 19.7471731265344 9.99999999999996 45.8468992838015
v 24.4906463359418 9.99999999999998 46.3294927840814
v 30.007876231471 9.99999999999998 20
v 32.0564022381697 0 20
v 32.0564022381697 -3.21497797966003 20
v 32.0564022381697 -3.21497797966003 -2
v 32.0564022381697 0 -2
v -2.05640223816974 0 -2
v -2.05640223816974 -3.21497797966003 -2
v -2.05640223816974 -3.21497797966003 20
v -2.05640223816974 0 20
v 7 -3.21497797966004 11
v -2.05640223816974 -3.21497797966003 11
v 7 -3.21497797966004 -2
v 32.0564022381697 -3.21497797966003 11
v 23 -3.21497797966004 11
v 23 -3.21497797966004 -2
vt 0.898278534412384 0.471632212400436
vt 0.898278534412384 0.50868022441864
vt 1 0.50868022441864
vt 1 0.250935673713684
vt 0.898278534412384 0.250935673713684
vt 1 0.228123337030411
vt 1 0
vt 0.898278534412384 7.72264530102262e-10
vt 0.0242729801684618 0.213136330246925
vt 0.0114253852516413 0.234323889017105
vt 0.527113676071167 0.234323889017105
vt 0.527113676071167 0.00126069295220077
vt 0.163162931799889 0.00126069295220077
vt 0.162736341357231 0.425011962652206
vt 0.195658877491951 0.45740732550621
vt 0.580357193946838 0.763474702835083
vt 0.293647170066833 0.894826233386993
vt 0.212034657597542 0.909662306308746
vt 0.220967844128609 0.992994427680969
vt 0.475362628698349 0.982869744300842
vt 0.732277989387512 0.972644746303558
vt 0.975007355213165 0.968440055847168
vt 0.989393711090088 0.968607068061829
vt 0.989393711090088 0.425011962652206
vt 0.989393711090088 0.968912243843079
vt 0.920721232891083 0.968440055847168
vt 0.989393711090088 0.45740732550621
vt 1 1
vt 0.518600046634674 1
vt 0.518600046634674 0.217274203896523
vt 1 0.217274218797684
vt 0.518600046634674 1.5653572882357e-09
vt 2 1
vt 1.03720021247864 1
vt 1.03720021247864 0.858996629714966
vt 2 0.858996629714966
vt 1.03720009326935 0.50868022441864
vt 2 0.50868022441864
vt 1.79999995231628 0.50868022441864
vt 1.03918790817261 0.50868022441864
vt 1.03918790817261 0.471632212400436
vt 1.79999995231628 0.471632212400436
vt 1.03720021247864 0.50868022441864
vt 0.518600106239319 0
vt 0.518600046634674 0.217274233698845
vt 0.989393711090088 0.234323889017105
vn 0.937786174719301 -0.00514776810465108 0.34717515894557
vn 0.925482891024309 -0.00507671856178614 0.378755389862549
vn 0.999498348375578 -0.00212026445422508 0.0315999378660122
vn 0.96348091097395 0.00609069721836823 -0.267707746612236
vn -0.96348091097395 0.00609069721836922 -0.267707746612236
vn -0.999498348375578 -0.00212026445422436 0.0315999378660121
vn -0.925482891024309 -0.00507671856178591 0.378755389862549
vn -0.937786174719301 -0.00514776810465205 0.34717515894557
vn -0.010071728756181 -0.999947876260442 -0.00167482598926865
vn -0.00647636322947104 -0.999973557576359 -0.00330769820280296
vn 0.0100727015132205 -0.99994786795139 -0.00167393658647007
vn 0.00647684962781445 -0.999973555896927 -0.00330725350612245
vn 0 0 -1
vn 0 1 0
vn 0 -1 0
vn 0.00144045424593219 -0.999995911421677 -0.00247026951862333
vn 0 -0.999996948873267 -0.00247027208141885
vn 1 0 0
vn -0.999121865985366 0 0.0418986504546403
vn -0.421422477224097 0 -0.906864430711838
vn -0.604815801000466 0 -0.796365397829517
vn -0.760482464817164 0 -0.649358468571568
vn -0.903610794417486 0 0.428354446938747
vn -0.917607433644726 -7.74912410648746e-05 0.397487851028239
vn -0.930550055148983 -0.000154893471148373 0.366164677256336
vn 0.930550055148983 -0.000154893471146049 0.366164677256335
vn 0.917607433644726 -7.74912410637455e-05 0.397487851028239
vn 0.903610794417486 0 0.428354446938747
vn 0.760482464817163 0 -0.649358468571568
vn 0.604815801000465 0 -0.796365397829518
vn -1 0 0
vn 0.421422477224095 0 -0.906864430711839
vn 0.999121865985366 0 0.041898650454645
vn -0.00144045424593219 -0.999995911421677 -0.00247026951862334
vn 0 -0.999987795461041 -0.0049405393396743
g suit_landmark_new_corp_building suit_landmark_new_corp
f 1/1/1 2/2/1 3/3/2 4/4/3 5/5/3
f 5/5/3 4/4/3 6/6/4 7/7/4 8/8/4
f 9/6/5 10/4/6 11/5/6 12/8/5 13/7/5
f 14/3/7 15/2/8 16/1/8 11/5/6 10/4/6
f 6/9/9 4/10/10 17/11/9 18/12/9 7/13/9
f 19/11/11 10/10/12 9/9/11 13/13/11 20/12/11
f 21//13 19//13 22//13 23//13
f 24/14/14 25/15/14 26/16/14 27/17/14 28/18/14 29/19/14 30/20/14 31/21/14 32/22/14 33/23/14 34/24/14
f 35/25/15 36/26/15 37/21/15 38/20/15 39/19/15 40/18/15 41/17/15 42/16/15 14/15/16 43/27/17
f 22//18 19//18 44//18
f 20//18 45//18 22//18 44//18
f 39/28/19 29/29/19 28/30/19 40/31/19
f 40/31/20 28/30/20 27/32/21 41/7/21
f 41/33/21 27/34/21 26/35/22 42/36/22
f 42/36/23 26/35/23 46/37/24 14/38/7
f 15/39/8 25/40/24 47/41/25 16/42/8
f 1/42/1 48/41/26 49/40/27 2/39/1
f 3/38/2 50/43/27 51/35/28 52/36/28
f 52/36/29 51/35/29 53/34/30 54/33/30
f 17//31 55//31 56//31
f 55//31 57//31 18//31 56//31
f 54/7/30 53/44/30 58/45/32 59/31/32
f 59/31/33 58/45/33 60/29/33 61/28/33
f 43/27/17 3/15/34 52/16/15 54/17/15 59/18/15 61/19/15 62/20/15 63/21/15 64/26/15 35/25/15
f 34/24/14 33/23/14 65/22/14 66/21/14 67/20/14 60/19/14 58/18/14 53/17/14 51/16/14 49/15/14 68/14/14
f 23//13 55//13 17//13 21//13
g suit_landmark_new_corp_camera_collisions suit_landmark_new_corp
f 69//18 70//18 71//18 72//18
f 73//31 74//31 75//31 76//31
f 77//15 78//15 74//15 79//15
f 71//15 80//15 81//15 82//15
f 80//15 70//15 75//15 78//15
g suit_landmark_corp_front suit_landmark_new_corp
f 21/46/35 4/10/10 3/15/34 43/27/17
f 43/27/17 14/15/16 10/10/12 21/46/35
