v -0.135929276281796 -3.12753065339893e-15 18.6516689190401
v -26.1962048572211 6.3827156191815e-17 18.6516689190401
v -26.1962048572211 6.3827156191815e-17 -12.5832324891578
v -0.514988034073791 -3.08111102470581e-15 -12.5832324891578
v 21.8759252408965 5.51708351802502e-16 18.6344056617557
v 4.80440605503177 2.64229749176062e-15 18.6344056617557
v 4.80440605503177 2.64229749176062e-15 1.68310776157329
v 21.9961472775035 5.36985929862526e-16 1.68310776157329
v -6.52387914222873 -0.175000000438039 4.69956485618131
v -20.0031329562051 -0.175000000438039 4.69956485618131
v -20.0031329562051 -0.175000000438039 -9.9600313842453
v -6.40964848316438 -0.175000000438039 -9.9600313842453
v -3.43393430775735 -0.100000000000003 -13.3035354414011
v -22.068339969513 -0.1 -13.3035354414011
v -22.068339969513 -0.1 -20.0443377957882
v -3.31371227115036 -0.100000000000003 -20.0443377957882
v 22.2935675088796 -0.0999999999999995 1.3224416517523
v 4.3804940667659 -0.0999999999999973 1.3224416517523
v 4.3804940667659 -0.0999999999999973 -20.0770701010396
v 22.4137895454866 -0.0999999999999995 -20.0770701010396
v 23.8192955123167 -0.500000000000003 18.4213233581864
v -23.4904284125647 -0.499999999999997 18.4213233581864
v -23.4904284125647 -0.499999999999997 -18.497760424781
v 23.8192955123167 -0.500000000000003 -18.497760424781
v 20.9687719961839 -0.250000000000003 11.8267181564044
v -20.6667542384111 -0.249999999999997 11.8267181564044
v -20.6667542384111 -0.249999999999997 -15.2212740230958
v 20.9687719961839 -0.250000000000003 -15.2212740230958
v -23.4904291960738 -0.0500000015957149 -5.43259011528978
v 23.8192955711412 -0.0500000015957149 -5.43259011528978
v 23.8192955711412 -0.0500000015957149 1.17355248024665
v -23.4904291960738 -0.0500000015957149 0.704610815778927
v -20.0621066491215 -0.664262415722969 -7.3104380922887
v -20.5975449841806 -0.664262415722969 -7.3104380922887
v -20.0621066491215 -0.664262415722969 -8.03958421981384
v -18.0859288491173 -0.664262415722969 -10.0313376915904
v -18.6213671841764 -0.664262415722969 -10.0313376915904
v -18.0859288491173 -0.664262415722969 -10.7604842753936
v -0.846923205934646 -0.664262415722969 -10.7763591038192
v -0.311484870875554 -0.664262415722969 -10.047212976294
v -0.846923205934646 -0.664262415722969 -10.047212976294
v 1.19585217205504 -0.664262415722969 -8.0082452132727
v 1.73129117723798 -0.664262415722969 -7.27909908574756
v 1.19585217205504 -0.664262415722969 -7.27909908574756
v -20.5433138716577 -0.664262415722969 9.15729683255754
v -20.0078755365986 -0.664262415722969 9.15729683255754
v -20.0078755365986 -0.664262415722969 9.88644296008268
v -18.189223079059 -0.664262415722969 12.4374081606866
v -18.7246614141181 -0.664262415722969 11.7082611206052
v -18.189223079059 -0.664262415722969 11.7082611206052
v -0.263924171120421 -0.664262415722969 11.6991100065875
v -0.799362506179511 -0.664262415722969 12.4282570466689
v -0.799362506179511 -0.664262415722969 11.6991100065875
v 1.72332273457967 -0.664262415722969 8.97137079823499
v 1.18788372939673 -0.664262415722969 9.70051692576013
v 1.18788372939673 -0.664262415722969 8.97137079823499
v -20.6878595853401 -1.32852483144594 -8.64830988162162
v -20.1524199100334 -1.32852483144594 -8.64830988162162
v -20.1524199100334 -1.32852483144594 11.0386346490009
v -20.6878595853401 -1.32852483144594 11.0386346490009
v 0.194259606422841 -1.32852483144594 12.4969278166074
v -19.0815418996675 -1.32852483144594 12.4969278166074
v -19.0815418996675 -1.32852483144594 11.767780776526
v 0.194259606422841 -1.32852483144594 11.767780776526
v 1.26513761678871 -1.32852483144594 -8.64830988162162
v 1.80057729209549 -1.32852483144594 -8.64830988162162
v 1.80057729209549 -1.32852483144594 11.0386346490009
v 1.26513761678871 -1.32852483144594 11.0386346490009
v -19.0815418996675 -1.32852483144594 -10.8357473516408
v 0.194259606422841 -1.32852483144594 -10.8357473516408
v 0.194259606422841 -1.32852483144594 -10.1066012241157
v -19.0815418996675 -1.32852483144594 -10.1066012241157
v -20.1524199100334 -1.99278740304736 -10.1066012241157
v 1.26513761678871 -1.99278740304736 -10.1066012241157
v 1.26513761678871 -1.99278740304736 11.767780776526
v -20.1524199100334 -1.99278740304736 11.767780776526
v -20.6878609255878 -2.65704966289188 -10.8357473516408
v -18.0106652295493 -2.65704966289188 -10.8357473516408
v -20.6878609255878 -2.65704966289188 -7.1900167140151
v -0.87661706369534 -2.65704966289188 -10.8357473516408
v 1.80057729209549 -2.65704966289188 -10.8357473516408
v 1.80057729209549 -2.65704966289188 -7.1900167140151
v -20.6878609255878 -2.65704966289188 8.85119717898172
v -18.0106652295493 -2.65704966289188 12.4969278166074
v -20.6878609255878 -2.65704966289188 12.4969278166074
v 1.80057729209549 -2.65704966289188 12.4969278166074
v -0.87661706369534 -2.65704966289188 12.4969278166074
v 1.80057729209549 -2.65704966289188 8.85119717898172
v -19.0815418996675 -3.32131233841227 -8.64830851278726
v 0.194259606422841 -3.32131233841227 -8.64830851278726
v 0.194259606422841 -3.32131233841227 10.3094885214757
v -19.0815418996675 -3.32131233841227 10.3094885214757
v 23.3394178300686 -3.15482598414112e-15 16.2130805622691
v -23.0150707421411 2.66107073740316e-15 16.2130805622691
v -23.0150707421411 2.66107073740316e-15 -16.2803547908652
v 23.3394178300686 -3.15482598414112e-15 -16.2803547908652
v 17.1832820560106 -2.91789834730894 -13.332997578507
v 19.9820863917175 -2.91789834730894 -13.332997578507
v 19.9820863917175 -2.91789834730894 -10.5341932428001
v 17.1832820560106 -2.91789834730894 -10.5341932428001
v 17.04447513472 -3.15034056736103 -13.3329985797398
v 14.2456718002461 -3.15034056736103 -13.3329985797398
v 14.2456718002461 -3.15033981643637 -10.534194244033
v 17.04447513472 -3.15033981643637 -10.534194244033
v 17.1832820560106 -2.91789834730894 -13.3329985797398
v 19.9820863917175 -2.91789834730894 -13.3329985797398
v 19.9820863917175 -2.91789834730894 -10.534194244033
v 17.1832820560106 -2.91789834730894 -10.534194244033
v 26.7384826980551 -0.1 17.3708477671065
v 26.7384826980551 -0.1 6.53832202821266
v 30.1138850334748 -0.1 6.53832202821266
v 30.1138850334748 -0.1 17.3602186788724
v 26.7384826980551 -0.1 5.20898613716987
v 26.7384826980551 -0.1 -5.62353960172398
v 30.1138850334748 -0.1 -5.62353960172398
v 30.1138850334748 -0.1 5.19835704893578
v 26.7384826980551 -0.1 -6.85786049509925
v 26.7384826980551 -0.1 -17.690387235226
v 30.1138850334748 -0.1 -17.690387235226
v 30.1138850334748 -0.1 -6.86848958333333
vt 0.998008012771606 0.998008072376251
vt 5.96046447753906e-08 0.998008072376251
vt 5.96046447753906e-08 0.00199203216470778
vt 0.998008012771606 0.00199203216470778
vt 0.0217804405838251 0.998008012771606
vt 0.998008072376251 0.998008012771606
vt 0.998008072376251 0.00199203193187714
vt 0.00199203216470778 0.00199203193187714
vt 0.0103619182482362 0.998007953166962
vt 0.998007953166962 0.998007953166962
vt 0.998007953166962 0.00199216604232788
vt 0.00199203193187714 0.00199216604232788
vt 0.00199203193187714 0.99520468711853
vt 0.998007953166962 0.99520468711853
vt 0.998007953166962 0.0104019641876221
vt 0.00199203193187714 0.0104019641876221
vt 0.00863212719559669 0.998007953166962
vt 0.998007953166962 0.00199204683303833
vt 0.00199203193187714 0.00199204683303833
vt 0.00199198722839355 0.998007953166962
vt 0.00199198722839355 0.00199204683303833
vt 0.00199203193187714 0.00199203193187714
vt 0.998007953166962 0.00199203193187714
vt 0.00199203193187714 0.998007953166962
vt 1.0428683757782 0.995487630367279
vt 0.0135374143719673 -0.0135373771190643
vt 0.013537235558033 0.988718926906586
vt 1.04286813735962 0.995487630367279
vt 0.0135373324155807 -0.0135373547673225
vt 0.0135373398661613 0.988718926906586
vt 0.0135372877120972 -0.0135373547673225
vt 0.0135373473167419 0.988718926906586
vt 1.04286825656891 0.995487630367279
vt 0.0135372281074524 -0.0135373771190643
vt 0.0135372877120972 0.988718926906586
vt 1.04286909103394 0.995487570762634
vt 0.013537235558033 -0.0135372281074524
vt 0.0135373324155807 -0.0135372877120972
vt 0.0135373398661613 0.988718867301941
vt 1.04286825656891 0.995487570762634
vt 0.0135373473167419 -0.0135375261306763
vt 0.0135373473167419 0.988718867301941
vt 0.0135372877120972 -0.0135372281074524
vt 0.00900911726057529 0.0970875918865204
vt 0.107938855886459 0.1608746945858
vt 0.107938855886459 0.86521178483963
vt 0.00900911726057529 0.93390554189682
vt 0.920849323272705 0.99589216709137
vt 0.0791507065296173 0.99589216709137
vt 0.147144988179207 0.891298294067383
vt 0.852855026721954 0.891298294067383
vt 0.892061293125153 0.1608746945858
vt 0.990990996360779 0.0970875918865204
vt 0.990990996360779 0.93390554189682
vt 0.892061293125153 0.86521178483963
vt 0.0791507065296173 0.00410781241953373
vt 0.920849323272705 0.00410781241953373
vt 0.852855026721954 0.108701564371586
vt 0.147144988179207 0.108701564371586
vt 0.0198463536798954 0.992644488811493
vt 0.0217589549720287 0.00678469985723495
vt 0.994274914264679 0.975651443004608
vt 0.994275271892548 0.975651323795319
vt 0.0217589847743511 0.00678469985723495
vt 0.0198462605476379 0.992644667625427
vt 0.994274914264679 0.975651502609253
vt 0.0217589549720287 0.00678484886884689
vt 0.0198463574051857 0.992644727230072
vt 0.0198462605476379 0.992644727230072
vt 0.0217590443789959 0.00678484886884689
vt 0.994275033473969 0.975651502609253
vt 0 0
vt 1 0
vt 1 1
vt 0 1
vt 1.00257503986359 0.998008489608765
vt 0.00199204683303833 0.998008489608765
vt 0.00199204683303833 0.0159281492233276
vt 1.00995326042175 0.0159281492233276
vt 0.00199216604232788 0.998008489608765
vt 0.00199216604232788 0.0159280300140381
vt 1.00995326042175 0.0159280300140381
vn 0 -1 0
vn 0 0.999999999999964 -2.68302045469672e-07
g bucket bucket
f 1/1/1 2/2/1 3/3/1 4/4/1
g bubble bucket
f 5/5/1 6/6/1 7/7/1 8/8/1
g fram3 bucket
f 9/9/1 10/10/1 11/11/1 12/12/1
g fram2 bucket
f 13/13/1 14/14/1 15/15/1 16/16/1
g fram1 bucket
f 17/17/1 18/10/1 19/18/1 20/19/1
g case1 trophyCase1
f 21/10/1 22/20/1 23/21/1 24/18/1
g glass1 trophyCase1
f 25/10/1 26/20/1 27/21/1 28/18/1
g shelf trophyCase1
f 29/22/1 30/23/1 31/10/1 32/24/1
g corner_backs photo_frame1
f 33/25/1 34/26/1 35/27/1
f 36/28/1 37/29/1 38/30/1
f 39/25/1 40/31/1 41/32/1
f 42/33/1 43/34/1 44/35/1
f 45/36/1 46/37/1 47/27/1
f 48/28/1 49/38/1 50/39/1
f 51/40/1 52/41/1 53/42/1
f 54/40/1 55/43/1 56/35/1
g shadow photo_frame1
f 57/44/1 58/45/1 59/46/1 60/47/1
f 61/48/1 62/49/1 63/50/1 64/51/1
f 65/52/1 66/53/1 67/54/1 68/55/1
f 69/56/1 70/57/1 71/58/1 72/59/1
g bg photo_frame1
f 73//1 74//1 75//1 76//1
g corners photo_frame1
f 77/60/1 78/61/1 79/62/1
f 80/63/1 81/64/1 82/65/1
f 83/66/1 84/67/1 85/68/1
f 86/69/1 87/70/1 88/71/1
g picture photo_frame1
f 89//1 90//1 91//1 92//1
g picture_frame photo_frame1
f 93/10/1 94/20/1 95/21/1 96/18/1
g arrow_up arrows photo_frame1
f 97/72/1 98/73/1 99/74/1 100/75/1
g arrowUp arrows photo_frame1
f 101/72/2 102/73/2 103/74/2 104/75/2
g arrow_Rollover arrows photo_frame1
f 105/72/1 106/73/1 107/74/1 108/75/1
g arrow_Down arrows photo_frame1
f 105/72/1 106/73/1 107/74/1 108/75/1
g arrowDown1 arrows photo_frame1
f 101/72/2 102/73/2 103/74/2 104/75/2
g arrowRollover arrows photo_frame1
f 101/72/2 102/73/2 103/74/2 104/75/2
g polySurface1 tabs
f 109/76/1 110/77/1 111/78/1 112/79/1
g polySurface2 tabs
f 113/76/1 114/80/1 115/81/1 116/82/1
g polySurface3 tabs
f 117/76/1 118/80/1 119/81/1 120/82/1
