v 2 -1.20000004768372 0
v 2 -1.20000004768372 1.25832923813591
v -2 -1.20000004768372 1.25832923813591
v -2 -1.20000004768372 0
v 2 1.20000004768372 0
v 2 1.20000004768372 1.25832923813591
v -2 1.20000004768372 0
v -2 1.20000004768372 1.25832923813591
v 2 2.01299157380064 1.47616966101228
v -2 2.01299157380064 1.47616966101228
v -2 1.39182584087168 3.79439173622391
v 2 1.39182584087168 3.79439173622391
v -2 0.578834314754758 3.57655131334754
v 2 0.578834314754758 3.57655131334754
v -0.00443268708360617 4.82971296995673e-08 2.33725298374276
v 1.0822150531018 4.82971296995673e-08 2.19352882368903
v 0.331359133544953 0.617015520652997 2.19352882368903
v 1.63944667134388 4.82971296995673e-08 1.80528778963997
v 1.4912094389001 0.648767484194911 1.80528778963997
v 0.566851721117576 1.04972821513736 1.80528778963997
v 2.00000033896671 -0.360193803558281 1.20093617918805
v 2.00000033896671 0.40247784332449 1.20093617918805
v -0.883553458844054 0.381337270442863 2.19352882368903
v 0.566849854926935 1.04972857715759 1.80528778963997
v -0.57571978062286 1.04972875819788 1.80528778963997
v -1.50007856769709 0.648768905944369 1.80528778963997
v 1.99999911272379 1.20000043255887 1.0154530622103
v -0.0949602696322656 1.20000004768372 1.20093617910586
v -0.883554814827478 -0.381336059571153 2.19352882368903
v -1.64831753027465 6.34156307542878e-07 1.80528778963997
v -1.50008087463112 -0.648766913630346 1.80528778963997
v -2.00000088727621 1.19999966280856 0.997653012419518
v -1.99999966097594 0.427144167021051 1.20093617910586
v 0.331356939517684 -0.617015849674851 2.19352882368903
v -0.575721647129578 -1.04972829952274 1.80528778963997
v 0.566847988419895 -1.04972884264362 1.80528778963997
v -1.99999966109064 -0.335528725554666 1.20093617910586
v -2.00000088787682 -1.19999966254803 1.04875300099851
v 1.4912082853355 -0.648768335540714 1.80528778963997
v 0.56684985461118 -1.04972848062458 1.80528778963997
v -0.0703330650036817 -1.20000004768372 1.20093617910586
v 1.99999911212318 -1.2000004328194 1.05479173394186
v -2 1.20000004768372 0.99765301247031
v -0.575720713793298 1.04972857715759 1.80528778966385
v 2 1.20000004768372 1.01545306215951
v 2 -1.20000004768372 1.05479173389107
v 0.566850788263214 -1.04972829952274 1.80528778961608
v -0.575720713477543 -1.04972848062458 1.80528778966385
v -2 -1.20000004768372 1.0487530010493
vt 0 0
vt 0 0.599204421043396
vt 1 0.599204421043396
vt 1 0
vt -0.00191536545753479 -0.0108973253518343
vt 0.00187423976603895 0.587860286235809
vt 0.999329388141632 0.60231614112854
vt 0.995539784431458 0.00355854700319469
vt 0.995539784431458 0.0035585486330092
vt 0.00187423848547041 0.587860286235809
vt -0.00191536673810333 -0.0108973234891891
vt 0.999308884143829 -0.00458299741148949
vt 0.000722944270819426 0.00615112343803048
vt 0 1
vt 1 1
vt 0.000722943979781121 0.00615112343803048
vt 0.00440902821719646 0.988357067108154
vt 0.00440902914851904 0.988357067108154
vt 1.66968274116516 2.20734024047852
vt 1.03488659858704 2.30378556251526
vt 1.44613873958588 1.5162490606308
vt 0.709363877773285 2.35324287414551
vt 0.767170190811157 1.58209407329559
vt 1.28936636447906 1.03158748149872
vt 0.514720737934113 2.80607867240906
vt 0.480875253677368 1.91500604152679
vt 2.16632342338562 1.68377578258514
vt 1.28936743736267 1.03158688545227
vt 1.95683193206787 0.930177807807922
vt 2.51461601257324 1.31660044193268
vt 2.82250618934631 -1.79359591007233
vt 2.09589242935181 -1.45385360717773
vt 3.15083932876587 -0.921212434768677
vt 2.20016956329346 2.57485032081604
vt 2.63000464439392 2.06143641471863
vt 2.57219886779785 2.83258509635925
vt 2.78219747543335 0.628195583820343
vt 2.81649422645569 1.5311666727066
vt 1.50090336799622 2.95803785324097
vt 2.05000185966492 3.38309264183044
vt 1.38253724575043 3.48450207710266
vt 2.85033988952637 2.42224073410034
vt 2.88870358467102 3.43225121498108
vt 0.824752271175385 3.09807872772217
vt 2.13280963897705 -1.25882411003113
vt 2.35018825531006 -0.318589806556702
vt 1.31068563461304 -0.8865807056427
vt 4.07968616485596 -0.0203314851969481
vt 3.3895788192749 -1.38981461524963
vt 0.445483356714249 0.983215510845184
vt 0.551989436149597 3.78727197647095
vt 1.38253557682037 3.48450183868408
vt 2.69988250732422 -0.855042815208435
vt 3.29544305801392 0.533770382404327
vn 0 -1 0
vn 1 0 0
vn 0 1 0
vn -1 0 0
vn 0 0 -1
vn 0 0.965925826289068 0.258819045102521
vn 0 0.258819045102521 -0.965925826289068
vn 0 -0.258819045102521 0.965925826289068
vn -7.9124864731315e-06 2.26353113487416e-08 0.999999999968696
vn 0.344563184532003 -2.49343884752045e-07 0.938763128731153
vn 0.0881945549299361 0.435898160290182 0.895664286625489
vn 0.733565878191526 -0.000274609443088712 0.679618295032402
vn 0.52552823423955 0.363203832252125 0.769352358321225
vn 0.272594859183109 0.628428527954548 0.728539379855215
vn 0.815764421224512 -0.0962159432962209 0.570325259233584
vn 0.813918614238988 0.107232601873853 0.57099707397731
vn -0.263060363048608 0.256292559465217 0.930114707633151
vn 0.00679815707274113 0.907874397238339 0.419187146629685
vn -0.164503988796476 0.622883735199096 0.764823044955153
vn -0.559169106769912 0.365199474230016 0.744284390576787
vn 0.0195686070486779 0.975072527505837 0.221021799199884
vn -0.00142139883668264 0.973519498857743 0.228599573422866
vn -0.263060692244844 -0.256291754479829 0.930114836340822
vn -0.673681414651076 -0.000499678812493673 0.739021719487871
vn -0.562212109448627 -0.351559841273706 0.748547407979569
vn -0.584133209426609 0.455006500411322 0.672129063668885
vn -0.817897484092611 0.11280591199399 0.564197245415273
vn 0.0881941374725204 -0.435898324300839 0.895664247911682
vn -0.162120786260554 -0.617096630864299 0.770005583640918
vn 0.124590577777589 -0.624197014577179 0.771268613987361
vn -0.823026534675224 -0.0967379251299545 0.55970447296948
vn -0.585769142050261 -0.420045773552358 0.693134951032267
vn 0.52582299939663 -0.354893578705828 0.773020517902922
vn 0.00795724651469952 -0.972351846583571 0.233385022384524
vn -0.000666470380339365 -0.972877902476465 0.231318271414572
vn 0.0159134617027964 -0.974127518296645 0.225438106436894
vn -0.0238319478953798 0.974449732975291 0.223337762512067
vn -0.0119173246352751 0.972560188242546 0.232345986879829
vn 0.5810068938981 0.442504107757314 0.683096701690753
vn 0.579859718967884 -0.417388611415459 0.699678106974316
vn 0.289432243119273 -0.667245829686214 0.686303125017876
vn -0.00895691027863293 -0.972139571561835 0.234231567389694
vn -0.0179126286929821 -0.973699632966485 0.22713027648079
g o1 g2 g1
f 1/1/1 2/2/1 3/3/1 4/4/1
f 5/5/2 6/6/2 2/7/2 1/8/2
f 7/4/3 8/3/3 6/2/3 5/1/3
f 4/9/4 3/7/4 8/10/4 7/11/4
f 7/12/5 5/13/5 1/14/5 4/15/5
g o3 g2 g1
f 9/16/6 10/12/6 11/15/6 12/14/6
f 8/3/7 10/15/7 9/14/7 6/2/7
f 13/7/4 11/15/4 10/17/4 8/10/4
f 14/2/8 12/14/8 11/15/8 13/3/8
f 6/6/2 9/18/2 12/15/2 14/7/2
g o5 g2 g1
f 15/19/9 16/20/10 17/21/11
f 16/20/10 18/22/12 19/23/13
f 16/20/10 19/23/13 17/21/11
f 17/21/11 19/23/13 20/24/14
f 18/22/12 21/25/15 22/26/16
f 15/19/9 17/21/11 23/27/17
f 17/21/11 24/28/18 25/29/19
f 17/21/11 25/29/19 23/27/17
f 23/27/17 25/29/19 26/30/20
f 24/31/18 27/32/21 28/33/22
f 15/19/9 23/27/17 29/34/23
f 23/27/17 26/30/20 30/35/24
f 23/27/17 30/35/24 29/34/23
f 29/34/23 30/35/24 31/36/25
f 26/30/20 32/37/26 33/38/27
f 15/19/9 29/34/23 34/39/28
f 29/34/23 31/36/25 35/40/29
f 29/34/23 35/40/29 34/39/28
f 34/39/28 35/40/29 36/41/30
f 31/36/25 37/42/31 38/43/32
f 15/19/9 34/39/28 16/20/10
f 34/39/28 36/41/30 39/44/33
f 34/39/28 39/44/33 16/20/10
f 16/20/10 39/44/33 18/22/12
f 40/45/34 41/46/35 42/47/36
f 37/42/31 31/36/25 30/35/24
f 37/42/31 30/35/24 33/38/27
f 33/38/27 30/35/24 26/30/20
f 32/37/26 26/30/20 25/29/19
f 43/48/37 44/49/38 28/33/22
f 28/33/22 44/49/38 24/31/18
f 45/50/39 20/24/14 19/23/13
f 45/50/39 19/23/13 22/26/16
f 22/26/16 19/23/13 18/22/12
f 21/25/15 18/22/12 39/44/33
f 21/25/15 39/44/33 46/51/40
f 46/51/40 39/44/33 47/52/41
f 41/46/35 40/45/34 48/53/42
f 41/46/35 48/53/42 49/54/43
f 38/43/32 35/40/29 31/36/25
