v 0.0100789366113417 -0.00688408541719694 -0.000909993701130444
v 0.00994511362394291 0.00395343916457207 -0.000909993701130444
v 0.00857199508632543 0.00234382824782362 0.0133459515133757
v 0.00866649817239549 -0.00530886841423818 0.0133459515133757
v -0.000895178036971676 0.00381959075524476 -0.000909994365974048
v 0.000917342891298559 0.00224930951748984 0.0133459515133757
v -0.000761345271908087 -0.00701794164865611 -0.000909994365974048
v 0.00101184206630269 -0.00540339105563789 0.0133459515133757
v 0.00414712908077502 -0.0031680565069978 0.0132600701454548
v 0.00414712908077503 -0.0031680565069978 0.038517518164183
v 0.00414712908077502 0.000486568682195112 0.038517518164183
v 0.00414712908077501 0.000486568682195112 0.0132600701454548
v 0.00207356454038751 -0.0161671920632071 0.0351348438498701
v 0.00207356454038752 -0.0161671920632071 0.0622267334941097
v 0.0020735645403875 0.0134857042384045 0.0622267334941097
v 0.0020735645403875 0.0134857042384045 0.0351348438498701
vt 0.508528590202332 0.287588894367218
vt 0.326584994792938 0.287588894367218
vt 0.330973416566849 0.64407342672348
vt 0.504140257835388 0.64407342672348
vt 0.123125791549683 0.287588864564896
vt 0.130097895860672 0.64407342672348
vt 0.711987972259521 0.287588864564896
vt 0.705016016960144 0.64407342672348
vt 0.956659317016602 0.64407342672348
vt 0.949687302112579 0.287588864564896
vt 0.434662520885468 0.855156183242798
vt 0.565337598323822 0.855156183242798
vt 0.565337598323822 0.985797882080078
vt 0.434662371873856 0.985797882080078
vt 0 0
vt 1 0
vt 1 1
vt 0 1
vt 1.00302362442017 0.00695433840155602
vt 1.00220608711243 0.919919788837433
vt 0.00221595168113708 0.92434173822403
vt 0.00367519981227815 0.00417636102065444
vn 0.99518484065531 0.0122890198581369 0.0972425468649959
vn -0.0122704683052135 0.993742436450123 0.111019843297242
vn 0.0122711304764171 -0.993742448387345 0.111019663258162
vn -0.992107707021872 -0.0122513259229342 0.124788632018039
vn 0 -4.07207893270448e-08 0.999999999999999
vn -1 0 0
g polySurface182 group1
f 1/1/1 2/2/1 3/3/1 4/4/1
f 2/2/2 5/5/2 6/6/2 3/3/2
f 7/7/3 1/1/3 4/4/3 8/8/3
f 8/8/4 6/9/4 5/10/4 7/7/4
f 3/11/5 6/12/5 8/13/5 4/14/5
g pPlane1 group1
f 9/15/6 10/16/6 11/17/6 12/18/6
g pPlane2 group1
f 13/19/6 14/20/6 15/21/6 16/22/6
