v 15.0000004004932 18.0000044855233 8.99999923906301
v 15.0000004004932 20.0000192236713 8.99999923906301
v 15.0000004004932 20.0000032039452 9.99999759704109
v 15.0000004004932 18.0000044855233 9.99999759704109
v 15.0000004004932 16.0000057671014 7.99999837800274
v 15.0000004004932 20.0000032039452 7.99999837800274
v 15.0000004004932 16.0000057671014 8.99999923906301
v 15.0000004004932 14.0000070486795 6.99999851817534
v 15.0000004004932 20.0000032039452 6.99999851817534
v 15.0000004004932 14.0000070486795 7.9999978773863
v 15.0000004004932 12.0000083302575 5.99999915896438
v 15.0000004004932 20.0000032039452 5.99999915896438
v 15.0000004004932 12.0000083302575 6.99999901879178
v 15.0000004004932 10.0000096118356 4.99999879852055
v 15.0000004004932 20.0000192236713 4.99999879852055
v 15.0000004004932 10.0000096118356 5.99999965958082
v 15.000001401726 8.00001089341371 3.99999843807671
v 15.0000004004932 20.0000192236713 3.99999868838493
v 15.0000024029589 8.00002691313976 4.99999829790411
v 15.0000004004932 6.0000121749918 2.99999907886575
v 15.0000004004932 20.0000192236713 2.99999882855753
v 15.000001401726 6.0000121749918 3.99999893869315
v 15.0000004004932 4.00001345656988 1.99999896873014
v 15.0000004004932 20.0000032039452 1.99999896873014
v 15.0000004004932 4.00001345656988 2.99999907886575
v 15.000001401726 1.99999871842192 0.999998983748629
v 15.0000004004932 20.0000192236713 0.999998983748629
v 15.0000004004932 1.99999871842192 1.99999909388425
v 15.000001401726 0 -1.09900833280779e-06
v 15.0000004004932 20.0000032039452 -1.0012328781168e-06
v 15.000001401726 0 0.999998921171574
v 15.0000004004932 18.0000044855233 9.99999859827397
v 15.0000004004932 20.0000032039452 9.99999859827397
v 0 20.0000032039452 9.99999859827397
v 0 18.0000044855233 9.99999859827397
v 0 18.0000044855233 8.99999923906301
v 2.0024657562336e-06 16.0000057671014 8.99999923906301
v 15.0000004004932 16.0000057671014 7.99999887861918
v 2.0024657562336e-06 16.0000057671014 7.99999887861918
v 15.000001401726 14.0000070486795 7.99999887861918
v 0 14.0000070486795 7.99999887861918
v 15.000001401726 14.0000070486795 6.99999901879178
v 0 14.0000070486795 6.99999901879178
v 0 12.0000083302575 6.99999901879178
v 0 12.0000083302575 5.99999915896438
v 15.0000004004932 10.0000096118356 5.99999915896438
v 0 10.0000096118356 5.99999915896438
v 0 10.0000096118356 4.99999879852055
v 15.000001401726 8.00001089341371 4.99999879852055
v 0 8.00001089341371 4.99999879852055
v 15.000001401726 8.00001089341371 3.99999893869315
v 0 8.00001089341371 3.99999893869315
v 0 6.0000121749918 3.99999893869315
v 15.000001401726 6.0000121749918 2.99999907886575
v 0 6.0000121749918 2.99999907886575
v 0 4.00001345656988 2.99999907886575
v 0 4.00001345656988 1.99999896873014
v 15.000001401726 1.99999871842192 1.99999896873014
v 2.0024657562336e-06 2.00001473814797 1.99999896873014
v 15.000001401726 1.99999871842192 0.999998921171574
v 2.0024657562336e-06 2.00001473814797 0.999998921171574
v 0 1.60197260498688e-05 0.999998921171574
v 15.000001401726 0 -1.09649266091419e-06
v 0 1.60197260498688e-05 -1.03936600964822e-06
v 0 18.0000004805918 9.00000024029589
v 0 18.0000004805918 9.99999859827397
v 0 19.9999991990137 9.99999859827397
v 0 20.0000152187397 9.00000024029589
v 0 16.0000017621699 7.99999937923562
v 0 16.0000017621699 9.00000024029589
v 0 19.9999991990137 7.99999937923562
v 0 14.0000030437479 6.99999951940822
v 0 14.0000030437479 7.99999887861918
v 0 19.9999991990137 6.99999951940822
v 0 12.000004325326 6.00000016019726
v 0 12.000004325326 7.00000002002466
v 0 19.9999991990137 6.00000016019726
v 0 10.0000056069041 4.99999979975342
v 0 10.0000056069041 6.0000006608137
v 0 20.0000152187397 4.99999979975342
v 1.0012328781168e-06 8.0000068884822 3.99999943930959
v 2.0024657562336e-06 8.00002290820825 4.99999929913699
v 0 20.0000152187397 3.99999968961781
v 0 6.00000817006029 3.00000008009863
v 1.0012328781168e-06 6.00000817006029 3.99999993992603
v 0 20.0000152187397 2.99999982979041
v 0 4.00000945163837 1.99999996996301
v 0 4.00000945163837 3.00000008009863
v 0 19.9999991990137 1.99999996996301
v 1.0012328781168e-06 1.9999947134904 0.999999984981507
v 0 1.9999947134904 2.00000009511712
v 0 20.0000152187397 0.999999984981507
v 1.0012328781168e-06 -4.00493151246719e-06 -9.77754248519278e-08
v 1.0012328781168e-06 -4.00493151246719e-06 0.999999922404452
v 0 19.9999991990137 2.23792987640976e-14
v 15.0000004004932 20.0000192236713 -1.33919573826391e-06
v 15.0000004004932 20.0000192236713 9.99999859827397
v 15.000001401726 1.60197260498688e-05 -1.44653974561262e-06
v 15.0000024029589 18.0000004805918 9.99999859827397
v 15.0000024029589 19.9999991990137 9.99999859827397
v 0 18.0000004805918 8.99999923906301
v 4.00493151246719e-06 16.0000017621699 8.99999923906301
v 15.0000024029589 16.0000017621699 8.99999923906301
v 15.0000024029589 18.0000004805918 8.99999923906301
v 4.00493151246719e-06 16.0000017621699 7.99999887861918
v 15.0000024029589 14.0000030437479 7.99999887861918
v 15.0000024029589 16.0000017621699 7.99999887861918
v 0 14.0000030437479 6.99999901879178
v 0 12.000004325326 6.99999901879178
v 15.0000024029589 12.000004325326 6.99999901879178
v 15.0000024029589 14.0000030437479 6.99999901879178
v 0 12.000004325326 5.99999915896438
v 0 10.0000056069041 5.99999915896438
v 15.0000024029589 10.0000056069041 5.99999915896438
v 15.0000024029589 12.000004325326 5.99999915896438
v 0 10.0000056069041 4.99999879852055
v 0 8.0000068884822 4.99999879852055
v 15.0000024029589 8.0000068884822 4.99999879852055
v 15.0000024029589 10.0000056069041 4.99999879852055
v 0 8.0000068884822 3.99999893869315
v 0 6.00000817006029 3.99999893869315
v 15.0000024029589 6.00000817006029 3.99999893869315
v 15.0000024029589 8.0000068884822 3.99999893869315
v 0 6.00000817006029 2.99999907886575
v 0 4.00000945163837 2.99999907886575
v 15.0000024029589 4.00000945163837 2.99999907886575
v 15.0000024029589 6.00000817006029 2.99999907886575
v 0 4.00000945163837 1.99999884357603
v 4.00493151246719e-06 2.00001073321645 1.99999884357603
v 15.0000024029589 1.9999947134904 1.99999884357603
v 15.0000024029589 4.00000945163837 1.99999884357603
v 4.00493151246719e-06 2.00001073321645 0.999998983748629
v 0 1.20147945374016e-05 0.999998983748629
v 15.0000024029589 -4.00493151246719e-06 0.999998983748629
v 15.0000024029589 1.9999947134904 0.999998983748629
v 0 20.0000152187397 -3.37962830308052e-07
v 1.0012328781168e-06 1.20147945374016e-05 -4.45306837656752e-07
v 0 20.0000152187397 9.99999959950685
vt 0.899999737739563 0.699999809265137
vt 1.00000035762787 0.699999809265137
vt 0.999999582767487 0.749999701976776
vt 0.899999737739563 0.749999701976776
vt 0.799999892711639 0.649999856948853
vt 0.999999582767487 0.649999856948853
vt 0.799999892711639 0.699999809265137
vt 0.700000107288361 0.599999904632568
vt 0.999999582767487 0.599999904632568
vt 0.700000107288361 0.649999856948853
vt 0.600000262260437 0.549999952316284
vt 0.999999582767487 0.549999952316284
vt 0.600000262260437 0.599999904632568
vt 0.500000417232513 0.499999970197678
vt 1.00000035762787 0.499999970197678
vt 0.500000417232513 0.549999952316284
vt 0.40000057220459 0.450000047683716
vt 1.00000035762787 0.450000047683716
vt 0.40000057220459 0.499999970197678
vt 0.300000727176666 0.400000095367432
vt 1.00000035762787 0.400000065565109
vt 0.300000727176666 0.450000047683716
vt 0.200000897049904 0.350000143051147
vt 0.999999582767487 0.350000143051147
vt 0.200000897049904 0.400000095367432
vt 0.100000262260437 0.300000190734863
vt 1.00000035762787 0.300000190734863
vt 0.100000262260437 0.350000143051147
vt 4.28649798323022e-07 0.250000238418579
vt 0.999999582767487 0.250000238418579
vt 4.28649798323022e-07 0.300000190734863
vt 1 0.5
vt 1 1
vt 0 1
vt 0 0.5
vt 1 0
vt 0 0
vn 1 0 0
vn 0.999999999999755 0 7.00776240591777e-07
vn 0.999999999999862 0 -5.25582208865599e-07
vn 0.999999999999205 0 1.26139502753985e-06
vn 0.999999999999825 1.25154173247189e-07 -5.7814281717573e-07
vn 0.999999999999898 3.57582763399441e-08 -4.50498475856829e-07
vn 0.999999999999966 0 -2.62790820215732e-07
vn 0.999999999999891 2.78120122487705e-08 4.67183355112814e-07
vn 0.999999999999861 5.00616224030567e-08 5.25581299370897e-07
vn 0 0 1
vn 0 -1 0
vn -1.06868253624209e-06 -0.999999999999429 0
vn -1.06798165688754e-06 -0.99999999999943 0
vn -1 0 0
vn -0.999999999999936 -1.25154159036348e-07 -3.33743969349577e-07
vn -0.999999999999836 -3.57582727872282e-08 5.72133217246934e-07
vn -0.999999999999874 -2.78120086960563e-08 -5.00616692988779e-07
vn -0.999999999999998 -5.00616152976362e-08 5.00619812271451e-08
vn 0.999999999999999 5.00616437193457e-08 0
vn 0 -2.80310359812563e-07 0.999999999999961
vn -0.999999999999999 -5.0061640166632e-08 0
g polySurface5 stairs10 ModA_geometry geometry stair
f 1/1/1 2/2/1 3/3/1 4/4/1
f 5/5/1 6/6/1 2/2/1 1/1/1 7/7/1
f 8/8/2 9/9/2 6/6/2 5/5/2 10/10/2
f 11/11/3 12/12/3 9/9/3 8/8/3 13/13/3
f 14/14/4 15/15/4 12/12/4 11/11/4 16/16/4
f 17/17/5 18/18/5 15/15/5 14/14/5 19/19/5
f 20/20/6 21/21/6 18/18/6 17/17/6 22/22/6
f 23/23/7 24/24/7 21/21/7 20/20/7 25/25/7
f 26/26/8 27/27/8 24/24/8 23/23/8 28/28/8
f 29/29/9 30/30/9 27/27/9 26/26/9 31/31/9
g polySurface7 stairs10 ModA_geometry geometry stair
f 32/32/10 33/33/10 34/34/10 35/35/10
f 1/36/11 32/32/11 35/35/11 36/37/11
f 7/32/10 1/33/10 36/34/10 37/35/10
f 38/36/11 7/32/11 37/35/11 39/37/11
f 40/32/10 38/33/10 39/34/10 41/35/10
f 42/36/11 40/32/11 41/35/11 43/37/11
f 13/32/10 42/33/10 43/34/10 44/35/10
f 11/36/11 13/32/11 44/35/11 45/37/11
f 46/32/10 11/33/10 45/34/10 47/35/10
f 14/36/11 46/32/11 47/35/11 48/37/11
f 49/32/10 14/33/10 48/34/10 50/35/10
f 51/36/11 49/32/11 50/35/11 52/37/11
f 22/32/10 51/33/10 52/34/10 53/35/10
f 54/36/11 22/32/11 53/35/11 55/37/11
f 25/32/10 54/33/10 55/34/10 56/35/10
f 23/36/11 25/32/11 56/35/11 57/37/11
f 58/32/10 23/33/10 57/34/10 59/35/10
f 60/36/12 58/32/12 59/35/12 61/37/12
f 31/32/10 60/33/10 61/34/10 62/35/10
f 63/36/13 31/32/13 62/35/13 64/37/13
g polySurface97 stairs10 ModA_geometry geometry stair
f 65/1/14 66/4/14 67/3/14 68/2/14
f 69/5/14 70/7/14 65/1/14 68/2/14 71/6/14
f 72/8/14 73/10/14 69/5/14 71/6/14 74/9/14
f 75/11/14 76/13/14 72/8/14 74/9/14 77/12/14
f 78/14/14 79/16/14 75/11/14 77/12/14 80/15/14
f 81/17/15 82/19/15 78/14/15 80/15/15 83/18/15
f 84/20/16 85/22/16 81/17/16 83/18/16 86/21/16
f 87/23/14 88/25/14 84/20/14 86/21/14 89/24/14
f 90/26/17 91/28/17 87/23/17 89/24/17 92/27/17
f 93/29/18 94/31/18 90/26/18 92/27/18 95/30/18
g stair_sideR stairs_10 ModA_collsion collsion stair
f 96//19 97//19 98//19
g stairs stairs_10 ModA_collsion collsion stair
f 67//10 66//10 99//10 100//10
f 101//20 102//20 103//20 104//20
f 105//10 73//10 106//10 107//10
f 108//10 109//10 110//10 111//10
f 112//10 113//10 114//10 115//10
f 116//10 117//10 118//10 119//10
f 120//10 121//10 122//10 123//10
f 124//10 125//10 126//10 127//10
f 128//10 129//10 130//10 131//10
f 132//10 133//10 134//10 135//10
g stair_sideR1 stairs_10 ModA_collsion collsion stair
f 136//21 137//21 138//21
