v -12.0000004768372 24.0000009536743 -2
v -18.0000007152557 18.0000007152557 -2
v -19.3760698388445 11.8368821079287 -2
v -24.0000009536743 8.95965370528993 -2
v -24.0000009536743 -8.95965370528993 -2
v -19.3760698388445 -11.8368821079287 -2
v -18.0000007152557 -18.0000007152557 -2
v -6.00000023841858 -24.0000009536743 -2
v 6.00000023841858 -24.0000009536743 -2
v 18.0000007152557 -18.0000007152557 -2
v 19.3760698388445 -11.8368821079287 -2
v 24.0000009536743 -8.95965370528993 -2
v 24.0000009536743 8.95965370528993 -2
v 19.3760698388445 11.8368821079287 -2
v 18.0000007152557 18.0000007152557 -2
v 12.0000004768372 24.0000009536743 -2
v -29.8891971901432 -11.1582019046465 0
v -29.8891971901432 -11.1582018487301 4
v -24.1306312154352 -14.7414536683257 4
v -24.1306312154352 -14.7414537242421 0
v -29.8891971901432 11.1582019046465 0
v -29.8891971901432 11.1582018487301 4
v -22.4168978926074 22.4168978926074 0
v -22.4168978926074 22.4168978926074 4
v -24.1306312154352 14.7414537242421 4
v -24.1306312154352 14.7414537242421 0
v -10 29.8891971901432 0
v -10 29.8891971901432 4
v -10 50 0
v -10 49.4162882845052 4
v -22.4168983694445 -22.4168978926074 4
v -22.4168978926074 -22.4168978926074 0
v -7.47229929753579 -29.8891971901432 4
v -7.47229929753579 -29.8891971901432 0
v 7.47229929753579 -29.8891971901432 4
v 7.47229929753579 -29.8891971901432 0
v 22.4168978926074 -22.4168978926074 4
v 22.4168978926074 -22.4168978926074 0
v 24.1306312154352 -14.7414537242421 4
v 24.1306312154352 -14.7414537242421 0
v 29.8891976669803 -11.1582019046465 4
v 29.8891971901432 -11.1582019046465 0
v 29.8891971901432 11.158201960563 4
v 29.8891971901432 11.1582019046465 0
v 24.1306312154352 14.7414536683257 4
v 24.1306312154352 14.7414537242421 0
v 22.4168983694445 22.4168978926074 4
v 22.4168978926074 22.4168978926074 0
v 10 29.8891971901432 4
v 10 29.8891971901432 0
v 10 49.4716896894336 4
v 10 50.0554014049284 0
v 54.6410161513776 14.6410161513775 0
v 54.6410161513776 14.6410161513775 25
v 40 40 25
v 40 40 0
v 54.6410161513775 -14.6410161513775 0
v 54.6410161513775 -14.6410161513775 25
v 40 -40 0
v 40 -40 25
v 14.6410161513775 -54.6410161513776 0
v 14.6410161513775 -54.6410161513776 25
v -14.6410161513775 -54.6410161513775 0
v -14.6410161513775 -54.6410161513775 25
v -40 -40 0
v -40 -40 25
v -54.6410161513775 -14.6410161513776 0
v -54.6410161513775 -14.6410161513776 25
v -54.6410161513775 14.6410161513776 0
v -54.6410161513775 14.6410161513776 25
v -40 40 0
v -40 40 25
v -14.6410161513775 54.6410161513775 0
v -14.6410161513775 54.6410161513775 25
v 14.6410161513776 54.6410161513775 25
v 14.6410161513776 54.6410161513775 0
v 10 50 0
v -10 20 0
v -15 15 0
v -16.1467242240906 9.86406803131104 0
v -20 7.46637779105441 0
v -20 -7.46637779105441 0
v -16.1467242240906 -9.86406803131104 0
v -15 -15 0
v -5 -20 0
v 5 -20 0
v 15 -15 0
v 16.1467242240906 -9.86406803131104 0
v 20 -7.46637779105441 0
v 20 7.46637779105441 0
v 16.1467242240906 9.86406803131104 0
v 15 15 0
v 10 20 0
v -10 55 0
v 10 55 0
v -8.51355688756716 17.0271137751343 -4
v 8.51355688756716 17.0271137751343 -4
v 12.7703353313507 12.7703353313507 -4
v 13.7466055229654 8.39783043273991 -4
v 17.0271137751343 6.35654320682097 -4
v 17.0271137751343 -6.35654320682097 -4
v 13.7466055229654 -8.39783043273991 -4
v 12.7703353313507 -12.7703353313507 -4
v 4.25677844378358 -17.0271137751343 -4
v -4.25677844378358 -17.0271137751343 -4
v -12.7703353313507 -12.7703353313507 -4
v -13.7466055229654 -8.39783043273991 -4
v -17.0271137751343 -6.35654320682097 -4
v -17.0271137751343 6.35654320682097 -4
v -13.7466055229654 8.39783043273991 -4
v -12.7703353313507 12.7703353313507 -4
v -29.8891971901432 -11.1582018487301 15
v -24.1306312154352 -14.7414536683257 15
v -29.8891971901432 11.1582018487301 15
v -22.4168978926074 22.4168978926074 15
v -24.1306312154352 14.7414537242421 15
v -10 29.8891971901432 15
v -10 49.4162882845052 15
v -22.4168983694445 -22.4168978926074 15
v -7.47229929753579 -29.8891971901432 15
v 7.47229929753579 -29.8891971901432 15
v 22.4168978926074 -22.4168978926074 15
v 24.1306312154352 -14.7414537242421 15
v 29.8891976669803 -11.1582019046465 15
v 29.8891971901432 11.158201960563 15
v 24.1306312154352 14.7414536683257 15
v 22.4168983694445 22.4168978926074 15
v 10 29.8891971901432 15
v 10 49.4716896894336 15
vt 0.387548863887787 0.0592499189078808
vt 0.311082303524017 0.136421546339989
vt 0.294081509113312 0.215691223740578
vt 0.2349563986063 0.252697974443436
vt 0.236964419484138 0.483175098896027
vt 0.296734392642975 0.520181894302368
vt 0.315116405487061 0.599451541900635
vt 0.470066547393799 0.676623225212097
vt 0.624344527721405 0.676623225212097
vt 0.777950048446655 0.599451541900635
vt 0.794950842857361 0.520181894302368
vt 0.854075968265533 0.483175098896027
vt 0.852067947387695 0.252697974443436
vt 0.792298018932343 0.215691223740578
vt 0.773915946483612 0.136421546339989
vt 0.696104645729065 0.0592499189078808
vt 10.9538497924805 0
vt 10.9538497924805 1
vt 11.327296257019 1
vt 11.327296257019 0
vt 9.61025714874268 0
vt 9.61025714874268 1
vt 8.65046501159668 0
vt 8.65046501159668 1
vt 9.29224491119385 1
vt 9.29224491119385 0
vt 7.41694211959839 0.128622740507126
vt 7.41694211959839 0.871557474136353
vt 5.641676902771 0.128616631031036
vt 5.69321298599243 0.871549487113953
vt 11.6713314056396 1
vt 11.6713314056396 0
vt 12.532413482666 1
vt 12.532413482666 0
vt 13.2919721603394 1
vt 13.2919721603394 0
vt 0.379779398441315 0
vt 0.379779398441315 1
vt 1.24086165428162 1
vt 1.24086165428162 0
vt 1.58489644527435 1
vt 1.58489644527435 0
vt 1.9583420753479 1
vt 1.9583420753479 0
vt 3.30193495750427 1
vt 3.30193495750427 0
vt 3.61994695663452 1
vt 3.61994695663452 0
vt 4.26172733306885 1
vt 4.26172733306885 0
vt 5.49525022506714 0.871557474136353
vt 5.49525022506714 0.128622740507126
vt 7.2187294960022 0.871549487113953
vt 7.27008152008057 0.128616616129875
vt 5.50118780136108 0.128622725605965
vt 5.50117778778076 0.871557474136353
vt 1.10379087924957 0
vt 1.10379087924957 1
vt 1.41915965080261 1
vt 1.41915965080261 0
vt 0.788421988487244 0
vt 0.788421988487244 1
vt 0.473053216934204 0
vt 0.473053216934204 1
vt 0.157684415578842 0
vt 0.157684415578842 1
vt 3.62674140930176 0
vt 3.62674140930176 1
vt 3.94211030006409 1
vt 3.94211030006409 0
vt 3.31137251853943 0
vt 3.31137251853943 1
vt 2.9960036277771 0
vt 2.9960036277771 1
vt 2.68063497543335 0
vt 2.68063497543335 1
vt 2.36526608467102 0
vt 2.36526608467102 1
vt 2.04989719390869 0
vt 2.04989719390869 1
vt 2.00339937210083 1
vt 2.00339937210083 0
vt 6.41421365737915 -2.82842707633972
vt 3.92758750915527 -2.82842707633972
vt 3.57795143127441 -1.4220484495163
vt 5 0
vt 5.65633869171143 0
vt 5.65633869171143 -5.65685415267944
vt 3.65984869003296 -4.15290832519531
vt 3.50603079795837 -3.49234223365784
vt 2.0818407535553 -5.73091650009155
vt 3.58578634262085 -7.72740650177002
vt 0.757359325885773 -5.99865531921387
vt 1.42127442359924 -5.57709884643555
vt 0.757359325885773 -8.48528099060059
vt -0.827754735946655 -5.47028398513794
vt -2.07106781005859 -7.72740650177002
vt -1.88449740409851 -4.41354131698608
vt -4.14162015914917 -5.65685415267944
vt -4.89949512481689 -2.82842707633972
vt -2.41286873817444 -2.82842707633972
vt -2.1451301574707 -1.50394570827484
vt -1.99131214618683 -2.16451191902161
vt -4.14162015914917 0
vt -0.567122042179108 0.0740623027086258
vt -2.07106781005859 2.07055234909058
vt 0.757359325885773 0.34180098772049
vt 0.0934442058205605 -0.0797556415200233
vt 0.757359325885773 2.82842707633972
vt 3.58578634262085 2.07055234909058
vt 3.58578634262085 1.41421353816986
vt 2.16373801231384 -0.00783494208008051
vt 0 3
vt 0 2.01108026504517
vt -1.24168980121613 2.75831031799316
vt -0.5 3.5
vt -1.4130631685257 3.52585458755493
vt -0.614672422409058 4.0135931968689
vt -1.98891973495483 3.88417983055115
vt -1 4.25336217880249
vt -1.98891973495483 6.11582040786743
vt -1 5.74663782119751
vt -1.4130631685257 6.47414541244507
vt -0.614672422409058 5.9864068031311
vt -1.24168980121613 7.24168968200684
vt -0.5 6.5
vt 0.252770066261292 7.98891973495483
vt 0.5 7
vt 1.74722993373871 7.98891973495483
vt 1.5 7
vt 3.24168968200684 7.24168968200684
vt 2.5 6.5
vt 3.41306304931641 6.47414541244507
vt 2.61467242240906 5.9864068031311
vt 3.98891973495483 6.11582040786743
vt 3 5.74663782119751
vt 3.98891973495483 3.88417983055115
vt 3 4.25336217880249
vt 3.41306304931641 3.52585458755493
vt 2.61467242240906 4.0135931968689
vt 3.24168968200684 2.75831031799316
vt 2.5 3.5
vt 2 2.01108026504517
vt 2 3
vt 0 0
vt 1.98347532749176 -0.00298083759844303
vt 1.98473358154297 1.98132836818695
vt 0.00125825766008347 1.98430919647217
vt 0.0805174708366394 0.225822761654854
vt 0.579028367996216 0.652750730514526
vt 0.540468454360962 0.154239818453789
vt 2.57307195663452 0.498510926961899
vt 3 0
vt 2.53451204299927 0
vt 0.225885227322578 0.0354090370237827
vt 0.264906615018845 0.109821937978268
vt 0.691104233264923 0.130612060427666
vt 0.726495742797852 0.0598290599882603
vt 0.800252377986908 0.239760234951973
vt 0.854700863361359 0.188034191727638
vt 0.827358365058899 0.347728937864304
vt 0.886539459228516 0.314853936433792
vt 0.91071742773056 0.401582717895508
vt 0.984452784061432 0.378110438585281
vt 0.918478786945343 0.712036609649658
vt 0.993569195270538 0.742768704891205
vt 0.837612152099609 0.757879376411438
vt 0.898583471775055 0.796615481376648
vt 0.815845012664795 0.863464057445526
vt 0.873015880584717 0.920634925365448
vt 0.605344951152802 0.957019627094269
vt 0.625763118267059 1.03052508831024
vt 0.392246156930923 0.946624517440796
vt 0.375457882881165 1.018315076828
vt 0.176548585295677 0.832278847694397
vt 0.122100122272968 0.884004890918732
vt 0.149442613124847 0.724310159683228
vt 0.0902615264058114 0.757185161113739
vt 0.0660835653543472 0.670456349849701
vt -0.00765178399160504 0.69392865896225
vt 0.0583222173154354 0.360002458095551
vt -0.0167682413011789 0.329270392656326
vt 0.139188855886459 0.314159691333771
vt 0.0782174840569496 0.275423586368561
vt 0.160955995321274 0.208575040102005
vt 0.10378510504961 0.151404157280922
vn 0 0 1
vn 0.874161656459548 0.485635046486453 -4.29954187002101e-09
vn 0.874161656459548 0.485635046486452 -6.7887503210858e-09
vn 0.815661082784406 0.578530032090789 2.42809647513191e-08
vn 0.815661082784406 0.578530032090789 1.53779443425021e-08
vn 0.874161657309392 -0.485635044956702 -2.14977073848591e-09
vn 0.874161657309392 -0.485635044956702 -3.39437485024091e-09
vn 0.811332345203467 -0.584585173970947 0
vn 0.815661075014091 -0.578530043046044 -3.21781303752755e-09
vn 0.815661075014091 -0.578530043046044 -2.03794825710078e-09
vn 0.870522746245693 -0.492128182762232 0
vn 1 0 0
vn 0.787896769896039 0.615807339991483 4.61190998168043e-08
vn 0.78789676989604 0.615807339991483 2.92087632173094e-08
vn 0.229752917442017 0.973248990200802 1.36943408848032e-08
vn 0.229752917442017 0.973248990200802 8.67308256037533e-09
vn -0.229752920547361 0.97324898946773 0
vn -0.787896762512264 0.615807349438681 0
vn -0.815661068629534 0.578530052047537 1.70747396275484e-08
vn -0.815661068629534 0.578530052047537 1.0814001764114e-08
vn -0.874161654544161 0.485635049934219 5.21040944117699e-08
vn -0.874161654544162 0.485635049934219 3.2999259794121e-08
vn -0.874161652165705 -0.485635054215532 3.40924606465043e-08
vn -0.874161652165706 -0.485635054215533 2.15918917427861e-08
vn -0.815661080759593 -0.578530034945543 3.0716590931211e-08
vn -0.815661080759594 -0.578530034945543 1.94538409231003e-08
vn -0.811332351598619 -0.58458516509526 4.7530709316483e-08
vn -0.81133235159862 -0.58458516509526 3.01027825671059e-08
vn -0.870522744158353 -0.492128186454515 1.76522260392829e-08
vn -0.870522744158354 -0.492128186454515 1.11797431582125e-08
vn -1 0 0
vn -0.965925826289068 -0.25881904510252 0
vn -0.707106781186548 -0.707106781186547 0
vn -0.965925826289068 0.258819045102521 0
vn -0.707106781186547 0.707106781186548 0
vn -0.25881904510252 0.965925826289068 0
vn 0.258819045102521 0.965925826289068 0
vn 0.707106781186547 0.707106781186547 0
vn 0.965925826289068 0.258819045102521 0
vn 0.965925826289068 -0.258819045102521 0
vn 0.707106781186547 -0.707106781186548 0
vn 0.5 -0.866025403784439 0
vn -0.5 -0.866025403784439 0
vn 0.157113943994816 -0.384194243244428 0.909785684686364
vn 0.387150196727958 -0.208524680080907 0.898127041665409
vn 0.364889985560759 -0.260767626092954 0.89378719146076
vn 0.362855242040523 -0.208703994576281 0.908173285211373
vn 0.362855242040523 0.208703994576281 0.908173285211373
vn 0.364889985560759 0.260767626092954 0.89378719146076
vn 0.336296479798319 0.257885108128752 0.905759321608495
vn 0.100711081852704 0.42711925275972 0.898569096905762
vn -0.100711081852704 0.42711925275972 0.898569096905762
vn -0.336296479798319 0.257885108128752 0.905759321608495
vn -0.364889985560759 0.260767626092954 0.89378719146076
vn -0.362855242040523 0.208703994576281 0.908173285211373
vn -0.362855242040523 -0.208703994576281 0.908173285211373
vn -0.364889985560759 -0.260767626092954 0.89378719146076
vn -0.387150196727958 -0.208524680080907 0.898127041665409
vn -0.157113943994816 -0.384194243244428 0.909785684686364
vn 0.208977146085695 -0.51101649194436 0.833780964867127
vn -0.208977146085695 -0.51101649194436 0.833780964867127
vn -0.512032297000616 -0.275787980544851 0.813488731707616
vn -0.417978945167545 -0.29870750527909 0.857943720582282
vn -0.486190575601599 -0.279642963631384 0.827900076753011
vn -0.486190575601599 0.279642963631384 0.827900076753011
vn -0.417978945167545 0.29870750527909 0.857943720582282
vn -0.448546396344582 0.34396267243551 0.824921699494753
vn -0.132963000153846 0.56390077661425 0.815068558296745
vn 0.132963000153846 0.56390077661425 0.815068558296745
vn 0.448546396344582 0.34396267243551 0.824921699494753
vn 0.417978945167545 0.29870750527909 0.857943720582282
vn 0.486190575601599 0.279642963631384 0.827900076753011
vn 0.486190575601599 -0.279642963631384 0.827900076753011
vn 0.417978945167545 -0.29870750527909 0.857943720582282
vn 0.512032297000616 -0.275787980544851 0.813488731707616
vn 0.874161656459548 0.485635046486453 -1.81033341895621e-09
vn 0.815661082784406 0.578530032090789 6.4749239336851e-09
vn 0.874161657309392 -0.485635044956702 -9.05166626730908e-10
vn 0.815661075014091 -0.578530043046044 -8.58083476674013e-10
vn 0.78789676989604 0.615807339991483 1.22984266178145e-08
vn 0.229752917442017 0.973248990200803 3.65182423594751e-09
vn -0.815661068629534 0.578530052047537 4.55326390067957e-09
vn -0.874161654544163 0.48563504993422 1.3894425176472e-08
vn -0.874161652165706 -0.485635054215532 9.09132283906783e-09
vn -0.815661080759594 -0.578530034945543 8.1910909149896e-09
vn -0.81133235159862 -0.58458516509526 1.26748558177288e-08
vn -0.870522744158354 -0.492128186454515 4.7072602771421e-09
g BRpd_water g1
f 1/1/1 2/2/1 3/3/1 4/4/1 5/5/1 6/6/1 7/7/1 8/8/1 9/9/1 10/10/1 11/11/1 12/12/1 13/13/1 14/14/1 15/15/1 16/16/1
g BRpd_fence g1
f 17/17/2 18/18/3 19/19/4 20/20/5
f 21/21/6 22/22/7 18/18/3 17/17/2
f 23/23/8 24/24/8 25/25/9 26/26/10
f 26/26/10 25/25/9 22/22/7 21/21/6
f 27/27/11 28/28/11 24/24/8 23/23/8
f 28/28/11 27/27/11 29/29/12 30/30/12
f 20/20/5 19/19/4 31/31/13 32/32/14
f 32/32/14 31/31/13 33/33/15 34/34/16
f 34/34/16 33/33/15 35/35/17 36/36/17
f 36/37/17 35/38/17 37/39/18 38/40/18
f 38/40/18 37/39/18 39/41/19 40/42/20
f 40/42/20 39/41/19 41/43/21 42/44/22
f 42/44/22 41/43/21 43/45/23 44/46/24
f 44/46/24 43/45/23 45/47/25 46/48/26
f 46/48/26 45/47/25 47/49/27 48/50/28
f 48/50/28 47/49/27 49/51/29 50/52/30
f 51/53/31 52/54/31 50/55/30 49/56/29
g outside_fence
f 53/57/32 54/58/32 55/59/33 56/60/33
f 57/61/34 58/62/34 54/58/32 53/57/32
f 59/63/35 60/64/35 58/62/34 57/61/34
f 61/65/36 62/66/36 60/64/35 59/63/35
f 63/67/37 64/68/37 62/69/36 61/70/36
f 65/71/38 66/72/38 64/68/37 63/67/37
f 67/73/39 68/74/39 66/72/38 65/71/38
f 69/75/40 70/76/40 68/74/39 67/73/39
f 71/77/41 72/78/41 70/76/40 69/75/40
f 73/79/42 74/80/42 72/78/41 71/77/41
f 56/60/33 55/59/33 75/81/43 76/82/43
g outside_ground
f 71/83/1 23/84/1 27/85/1 29/86/1 73/87/1
f 69/88/1 21/89/1 26/90/1 23/84/1 71/83/1
f 17/91/1 21/89/1 69/88/1 67/92/1
f 32/93/1 20/94/1 17/91/1 67/92/1 65/95/1
f 34/96/1 32/93/1 65/95/1 63/97/1
f 36/98/1 34/96/1 63/97/1 61/99/1
f 59/100/1 38/101/1 36/98/1 61/99/1
f 42/102/1 40/103/1 38/101/1 59/100/1 57/104/1
f 44/105/1 42/102/1 57/104/1 53/106/1
f 48/107/1 46/108/1 44/105/1 53/106/1 56/109/1
f 76/110/1 77/111/1 50/112/1 48/107/1 56/109/1
g BRpd_ground
f 78/113/44 27/114/1 23/115/1 79/116/45
f 79/116/45 23/115/1 26/117/1 80/118/46
f 80/118/46 26/117/1 21/119/1 81/120/47
f 81/120/47 21/119/1 17/121/1 82/122/48
f 82/122/48 17/121/1 20/123/1 83/124/49
f 83/124/49 20/123/1 32/125/1 84/126/50
f 84/126/50 32/125/1 34/127/1 85/128/51
f 85/128/51 34/127/1 36/129/1 86/130/52
f 86/130/52 36/129/1 38/131/1 87/132/53
f 87/132/53 38/131/1 40/133/1 88/134/54
f 88/134/54 40/133/1 42/135/1 89/136/55
f 89/136/55 42/135/1 44/137/1 90/138/56
f 90/138/56 44/137/1 46/139/1 91/140/57
f 91/140/57 46/139/1 48/141/1 92/142/58
f 92/142/58 48/141/1 50/143/1 93/144/59
f 27/145/1 50/146/1 77/147/1 29/148/1
f 93/144/59 50/143/1 27/114/1 78/113/44
f 73/149/1 29/150/1 94/151/1
f 77/152/1 76/153/1 95/154/1
g BRpd_pond
f 78/155/44 96/156/60 97/157/61 93/158/59
f 93/158/59 97/157/61 98/159/62 92/160/58
f 92/160/58 98/159/62 99/161/63 91/162/57
f 91/162/57 99/161/63 100/163/64 90/164/56
f 90/164/56 100/163/64 101/165/65 89/166/55
f 89/166/55 101/165/65 102/167/66 88/168/54
f 88/168/54 102/167/66 103/169/67 87/170/53
f 87/170/53 103/169/67 104/171/68 86/172/52
f 86/172/52 104/171/68 105/173/69 85/174/51
f 85/174/51 105/173/69 106/175/70 84/176/50
f 84/176/50 106/175/70 107/177/71 83/178/49
f 83/178/49 107/177/71 108/179/72 82/180/48
f 82/180/48 108/179/72 109/181/73 81/182/47
f 81/182/47 109/181/73 110/183/74 80/184/46
f 80/184/46 110/183/74 111/185/75 79/186/45
f 79/186/45 111/185/75 96/156/60 78/155/44
f 96/156/60 111/185/75 110/183/74 109/181/73 108/179/72 107/177/71 106/175/70 105/173/69 104/171/68 103/169/67 102/167/66 101/165/65 100/163/64 99/161/63 98/159/62 97/157/61
g collision_BRpd_pond collision
f 110//74 107//71 106//70 105//69 104//68 103//67 102//66 99//63 98//62 97//61 96//60 111//75
f 110//74 109//73 108//72 107//71
f 102//66 101//65 100//64 99//63
f 78//44 96//60 97//61 93//59
f 93//59 97//61 98//62 92//58
f 92//58 98//62 99//63 91//57
f 91//57 99//63 100//64 90//56
f 90//56 100//64 101//65 89//55
f 89//55 101//65 102//66 88//54
f 88//54 102//66 103//67 87//53
f 87//53 103//67 104//68 86//52
f 86//52 104//68 105//69 85//51
f 85//51 105//69 106//70 84//50
f 84//50 106//70 107//71 83//49
f 83//49 107//71 108//72 82//48
f 82//48 108//72 109//73 81//47
f 81//47 109//73 110//74 80//46
f 80//46 110//74 111//75 79//45
f 79//45 111//75 96//60 78//44
g collision_BRpd_floor collision
f 78//44 27//1 23//1 79//45
f 79//45 23//1 26//1 80//46
f 80//46 26//1 21//1 81//47
f 81//47 21//1 17//1 82//48
f 82//48 17//1 20//1 83//49
f 83//49 20//1 32//1 84//50
f 84//50 32//1 34//1 85//51
f 85//51 34//1 36//1 86//52
f 86//52 36//1 38//1 87//53
f 87//53 38//1 40//1 88//54
f 88//54 40//1 42//1 89//55
f 89//55 42//1 44//1 90//56
f 90//56 44//1 46//1 91//57
f 91//57 46//1 48//1 92//58
f 92//58 48//1 50//1 93//59
f 27//1 50//1 77//1 29//1
f 93//59 50//1 27//1 78//44
g collision_BRpd_fence collision
f 17//2 112//76 113//77 20//5
f 21//6 114//78 112//76 17//2
f 23//8 115//8 116//79 26//10
f 26//10 116//79 114//78 21//6
f 27//11 117//11 115//8 23//8
f 117//11 27//11 29//12 118//12
f 20//5 113//77 119//80 32//14
f 32//14 119//80 120//81 34//16
f 34//16 120//81 121//17 36//17
f 36//17 121//17 122//18 38//18
f 38//18 122//18 123//82 40//20
f 40//20 123//82 124//83 42//22
f 42//22 124//83 125//84 44//24
f 44//24 125//84 126//85 46//26
f 46//26 126//85 127//86 48//28
f 48//28 127//86 128//87 50//30
f 129//31 52//31 50//30 128//87
