v 0.14086041863509 0.14086041863509 0.0289968225093675
v 0.123870576147645 0.123870576147645 -0.00396177701674495
v 2.49582705042566e-09 0.175179412045817 -0.00396177310567902
v 9.74279508047254e-10 0.199206701413853 0.0289968225093675
v -0.123870560503381 0.123870576147645 -0.00396177310567902
v -0.140860402990827 0.14086041863509 0.0289968225093675
v -0.17517942769008 9.66060459725443e-17 -0.00396178874994274
v -0.199206701413853 0 0.0289968225093675
v -0.123870576147645 -0.123870576147645 -0.00396177701674495
v -0.14086041863509 -0.14086041863509 0.0289968225093675
v -2.94935496264718e-10 -0.175179458978608 -0.00396177310567902
v 1.23688635886452e-09 -0.199206701413853 0.0289968225093675
v 0.123870576147645 -0.123870576147645 -0.00396177310567902
v 0.14086041863509 -0.14086041863509 0.0289968225093675
v 0.17517942769008 -5.26305345178823e-09 -0.00396177310567902
v 0.199206701413853 -1.68911705852994e-10 0.027390629864242
v 0 0.199206701413853 0.0639675383468962
v 0.14086041863509 0.14086041863509 0.0639675383468962
v -0.14086041863509 0.14086041863509 0.0639675383468962
v -0.199206701413853 0 0.0639675383468962
v -0.14086041863509 -0.14086041863509 0.0639675383468962
v 0 -0.199206701413853 0.0639675383468962
v 0.14086041863509 -0.14086041863509 0.0639675383468962
v 0.199206717058117 0 0.0306030131989601
v 0.199206717058117 0 0.0639675383468962
v 0 0.17517942769008 0.0953199471834162
v 0.123870576147645 0.123870576147645 0.0953199471834162
v -0.123870576147645 0.123870576147645 0.0953199471834162
v -0.17517942769008 0 0.0953199471834162
v -0.123870576147645 -0.123870576147645 0.0953199471834162
v 0 -0.175179458978608 0.0953199471834162
v 0.123870576147645 -0.123870576147645 0.0953199471834162
v 0.175179458978608 0 0.0953199471834162
vt 0 0.112458527088165
vt 0 0.223569631576538
vt 0.125 0.223569631576538
vt 0.125 0.112458527088165
vt 0.25 0.223569631576538
vt 0.25 0.112458527088165
vt 0.375 0.223569631576538
vt 0.375 0.112458527088165
vt 0.5 0.223569631576538
vt 0.5 0.112458527088165
vt 0.625 0.223569631576538
vt 0.625 0.112458527088165
vt 0.75 0.223569631576538
vt 0.75 0.112458527088165
vt 0.875 0.223569631576538
vt 0.875 0.112458527088165
vt 1 0.223569631576538
vt 1 0.112458527088165
vt 0.338972121477127 0.249416947364807
vt 0.123844489455223 0.464544534683228
vt 0.123844482004642 0.768780946731567
vt 0.338972061872482 0.983908593654633
vt 0.643208503723145 0.983908593654633
vt 0.85833615064621 0.768781006336212
vt 0.858336210250854 0.464544594287872
vt 0.643208622932434 0.249416947364807
vt 0 0.00134736299514771
vt 0.125 0.00134736299514771
vt 0.25 0.00134736299514771
vt 0.375 0.00134736299514771
vt 0.5 0.00134736299514771
vt 0.625 0.00134736299514771
vt 0.75 0.00134736299514771
vt 0.875 0.00134736299514771
vt 1 0.00134736299514771
vn 0.669649972346073 0.671803600157979 -0.316620967959611
vn 0.411087259292413 0.414013877044575 -0.812157481564981
vn 8.54186797495987e-09 0.586352846947013 -0.810055762819531
vn -1.1057423186868e-08 0.949481966845412 -0.31382159682751
vn -0.414614108591344 0.414614108591344 -0.81005572765953
vn -0.671385110865896 0.671385170470546 -0.313821582718308
vn -0.586352886059004 3.19443707744507e-08 -0.810055734508605
vn -0.949481979282558 4.18551315854807e-08 -0.313821559198335
vn -0.414614217080489 -0.414614157475847 -0.810055647110325
vn -0.671385168720089 -0.671385168720089 -0.313821462690802
vn 8.54186890629014e-09 -0.58635308832774 -0.81005558809783
vn 0 -0.949482047313592 -0.313821353367152
vn 0.411087249560637 -0.414013927272504 -0.812157460886168
vn 0.669650002466501 -0.671803623420388 -0.316620854897228
vn 0.579288345344731 9.11537128366805e-09 -0.815122698093829
vn 0.80060649954119 1.57162942473202e-08 -0.599190481309911
vn 0 0.945500620107815 0.325620296320327
vn 0.668569922516713 0.668569922516713 0.325620204244135
vn -0.668569883757101 0.668569883757101 0.325620363408114
vn -0.945500577086546 1.67937064153584e-08 0.325620421240757
vn -0.66856992969525 -0.668569870090605 0.325620297147337
vn 0 -0.945500663129066 0.325620171399895
vn 0.668569941980597 -0.668569941980597 0.325620124316852
vn 1 0 0
vn 0.94550068147979 8.39685218792164e-09 0.32562011811504
vn 0 0.573218876050406 0.819402294443644
vn 0.405327074857762 0.405327015253114 0.819402204715884
vn -0.405326885617311 0.405326885617311 0.81940236245177
vn -0.573218780038413 0 0.819402361609529
vn -0.405326935427235 -0.405326995031884 0.819402283689513
vn 0 -0.573218996109672 0.819402210455293
vn 0.405327104657808 -0.405327104657808 0.819402145749837
vn 0.573219120117781 1.13281511439466e-08 0.819402123704471
g polySurface3
f 1/1/1 2/2/2 3/3/3 4/4/4
f 4/4/4 3/3/3 5/5/5 6/6/6
f 6/6/6 5/5/5 7/7/7 8/8/8
f 8/8/8 7/7/7 9/9/9 10/10/10
f 10/10/10 9/9/9 11/11/11 12/12/12
f 12/12/12 11/11/11 13/13/13 14/14/14
f 14/14/14 13/13/13 15/15/15 16/16/16
f 16/16/16 15/15/15 2/17/2 1/18/1
f 11/19/11 9/20/9 7/21/7 5/22/5 3/23/3 2/24/2 15/25/15 13/26/13
f 1/27/1 4/28/4 17/4/17 18/1/18
f 4/28/4 6/29/6 19/6/19 17/4/17
f 6/29/6 8/30/8 20/8/20 19/6/19
f 8/30/8 10/31/10 21/10/21 20/8/20
f 10/31/10 12/32/12 22/12/22 21/10/21
f 12/32/12 14/33/14 23/14/23 22/12/22
f 14/33/14 24/34/24 25/16/25 23/14/23
f 24/34/24 1/35/1 18/18/18 25/16/25
f 18/1/18 17/4/17 26/3/26 27/2/27
f 17/4/17 19/6/19 28/5/28 26/3/26
f 19/6/19 20/8/20 29/7/29 28/5/28
f 20/8/20 21/10/21 30/9/30 29/7/29
f 21/10/21 22/12/22 31/11/31 30/9/30
f 22/12/22 23/14/23 32/13/32 31/11/31
f 23/14/23 25/16/25 33/15/33 32/13/32
f 25/16/25 18/18/18 27/17/27 33/15/33
f 31/19/31 32/26/32 33/25/33 27/24/27 26/23/26 28/22/28 29/21/29 30/20/30
