v 0.07664386838127 0.0733463000750604 0
v 0.00659523927789973 0.102361270136095 0
v 0.00659523927789973 0.0745530281792788 0.029022043223769
v 0.0574116670866338 0.0535039568510581 0.0298125028923115
v -0.0634533917810035 0.0733463000750604 0
v -0.0442211904863673 0.0535039568510581 0.029022043223769
v -0.0924688781027406 0.00329716742195169 0
v -0.0652697651092149 0.00268752928676568 0.029022043223769
v -0.0634533917810035 -0.0667514607036521 0
v -0.0442211904863673 -0.0481284040165698 0.029022043223769
v 0.00659523927789973 -0.0957664620532139 0
v 0.00659523927789973 -0.0691774714337246 0.029022043223769
v 0.07664386838127 -0.0667514607036521 0
v 0.0574116670866338 -0.0481284040165698 0.029022043223769
v 0.105659362525139 0.00329716742195169 0
v 0.0784602456205473 0.00268752928676568 0.029022043223769
v 0.00659523927789973 0.167880127123335 0.108490395420805
v 0.123403633986245 0.119496424367109 0.108490395420805
v -0.110213149563847 0.119496424367109 0.108490395420805
v -0.158596867964337 0.00268752928676568 0.108490395420805
v -0.110213149563847 -0.114120867621554 0.108490395420805
v 0.00659523927789973 -0.16250457037778 0.108490395420805
v 0.123403633986245 -0.114120867621554 0.108490395420805
v 0.171787344564603 0.00268752928676568 0.108490395420805
v 2.7771947471381e-09 0.211831246774028 0.17705703657756
v 0.147887102262242 0.150574614682535 0.17705703657756
v -0.147887102262242 0.150574614682535 0.17705703657756
v -0.20914371870947 0.00268752928676568 0.17705703657756
v -0.147887102262242 -0.145199057936981 0.17705703657756
v 0 -0.206456175000649 0.17705703657756
v 0.147887102262242 -0.145199057936981 0.17705703657756
v 0.20914371870947 0.00268752928676568 0.17705703657756
v 0.132133813667798 0.134821326088092 0.25657337168696
v -1.62952334623781e-09 0.189552954801424 0.25657337168696
v 4.60260118148687e-09 0.0786670706090652 0.363512865201695
v 0.0537254991806711 0.0564135239506018 0.363512865201695
v -0.132133813667798 0.134821326088092 0.25657337168696
v -0.0537254991806711 0.0564135239506018 0.363512865201695
v -0.186865426736867 0.00268752928676568 0.25657337168696
v -0.0759795425445076 0.00268752928676568 0.363512865201695
v -0.126747008696629 -0.124058980015632 0.256677249598065
v -0.0537254991806711 -0.0510379672050476 0.363512865201695
v -1.62952334623781e-09 -0.184177413700134 0.25657337168696
v 0 -0.073291513863511 0.363512865201695
v 0.132133813667798 -0.129445769342538 0.25657337168696
v 0.0537254991806711 -0.0510379672050476 0.363512865201695
v 0.186865426736867 0.00268752928676568 0.25657337168696
v 0.0759795425445076 0.00268752928676568 0.363512865201695
v 0.0513714364194495 0.0535252330497181 0.409596454440139
v 0.000737036402359253 0.0764802059163572 0.409545016101026
v 0 0.133118729578854 0.46224409513899
v 0.0922284805242784 0.0949165013831431 0.46224409513899
v -0.0504553278913022 0.0540836980649493 0.409576179474358
v -0.0922284805242784 0.0949165013831431 0.46224409513899
v -0.069188422418329 0.00289083456038803 0.409640477398249
v -0.130430708719989 0.00268752928676568 0.46224409513899
v -0.0503791559712468 -0.0482253593409781 0.409578651268025
v -0.0922284805242784 -0.0895409446375889 0.46224409513899
v 0.000737036402359253 -0.0696879515810589 0.409571204598494
v 0 -0.1277431728333 0.46224409513899
v 0.0535276383552651 -0.0498997648869912 0.409517294465713
v 0.0922284805242784 -0.0895409446375889 0.46224409513899
v 0.0743264053750226 0.00289083456038803 0.409545016101026
v 0.130430708719989 0.00268752928676568 0.46224409513899
v 0 0.102952678059656 0.463910115359649
v 0.0708979493363949 0.0735859780173915 0.463910115359649
v -0.0708979493363949 0.0735859780173915 0.463910115359649
v -0.100265142172966 0.00268752928676568 0.463910115359649
v -0.0708979493363949 -0.0682104212718373 0.463910115359649
v 0 -0.0975771134919695 0.463910115359649
v 0.0708979493363949 -0.0682104212718373 0.463910115359649
v 0.100265142172966 0.00268752928676568 0.463910115359649
v 0 0.00268752928676568 0.302657430253317
v -0.347708529374731 -0.0249620810581317 0.559435992103236
v -0.125375006768334 -0.0249620810581317 0.559435992103236
v -0.125375006768334 -0.0249621123466592 0.781769514709633
v -0.347708529374731 -0.0249621123466592 0.781769514709633
v -0.350232011689914 -0.00100267215037909 0.769344152115149
v 0.0215663684634712 -0.00100267215037909 0.769344152115149
v 0.0215663684634712 -0.00100267215037909 1.14114253226853
v -0.350232011689914 -0.00100267215037909 1.14114253226853
v -0.0696567412749363 0 0.405067784266835
v 0.0492936669997969 0 0.405067784266835
v 0.0492936669997969 0 0.889072017719739
v -0.0696567412749363 0 0.889072017719739
v -0.00111202555378591 0.0176532374905163 0.799355231557931
v 0.169609882074391 0.0555215545213754 0.84329270941066
v 0.133731671831426 0.0475771158073205 0.989546926002803
v -0.0369902670852781 0.00970883006498882 0.945609448150074
v -0.011163089531926 0 0.342396769936629
v 0.0811158828535105 0 0.437893610926751
v -0.172946959968627 0 0.683395631044243
v -0.265225963642591 0 0.587898790054121
v 0.00266659603969944 0.0119506530561472 0.33111303184289
v 0.367193522415762 0.0119506530561472 0.665544650060298
v 0.242530579954933 -0.0119506530561472 0.801425906303987
v -0.121996346421129 -0.0119506530561472 0.466994288086578
v 0.111056062493112 -0.0147386172937909 0.911049642587897
v 0.17153096637075 -0.0147386172937909 0.608489144192593
v 0.474091433477527 -0.0147386172937909 0.668964110647287
v 0.413616498311361 -0.0147386172937909 0.971524609042591
v -0.0769703719872502 5.56935788452469e-05 0.496432724900133
v -0.128882075232158 5.56935788452469e-05 0.593185049342358
v -0.225634399674383 3.06627568923269e-06 0.541273314808923
v -0.173722665140948 3.06627568923269e-06 0.444521021655226
v -0.292437630164217 -0.292437630164217 0.0019180845602124
v 0.292437630164217 -0.292437630164217 0.0019180845602124
v 0.292437630164217 0.292437630164217 0.00191808456021253
v -0.292437630164217 0.292437630164217 0.00191808456021253
v 0.172198069064323 0.125109242016249 0.00286613006799866
v 0.0657737959088303 0.202430999810927 0.00286613006799866
v 0.0657737959088303 0.202430999810927 0.910281196353942
v 0.172198069064323 0.125109242016249 0.910281196353942
v -0.0657738350194896 0.2024309685224 0.00286613006799866
v -0.0657738350194896 0.2024309685224 0.910281196353942
v -0.17219810035285 0.12510920290559 0.00286613006799866
v -0.17219810035285 0.12510920290559 0.910281196353942
v -0.212848530666722 -1.26867591964122e-08 0.00286613006799866
v -0.212848530666722 -1.26867591964122e-08 0.910281196353942
v -0.172198069064323 -0.125109226371985 0.00286613006799866
v -0.172198069064323 -0.125109226371985 0.910281196353942
v -0.0657738037309622 -0.2024309685224 0.00286613006799866
v -0.0657738037309622 -0.2024309685224 0.910281196353942
v 0.065773811553094 -0.202430952878136 0.00286613006799866
v 0.065773811553094 -0.202430952878136 0.910281196353942
v 0.172198053420059 -0.12510920290559 0.00286613006799866
v 0.172198053420059 -0.12510920290559 0.910281196353942
v 0.212848499378194 0 0.00286613006799866
v 0.212848499378194 0 0.910281196353942
vt 0.190569996833801 0.922264993190765
vt 0.124935001134872 0.846127986907959
vt 0.155704006552696 0.831354022026062
vt 0.203317999839783 0.886587023735046
vt 0.124948002398014 0.738467991352081
vt 0.155713006854057 0.753252029418945
vt 0.190602004528046 0.662352025508881
vt 0.203341007232666 0.698035001754761
vt 0.283436000347137 0.662366986274719
vt 0.270687013864517 0.698046028614044
vt 0.349070996046066 0.738505005836487
vt 0.318300992250443 0.753278970718384
vt 0.349056988954544 0.846165001392365
vt 0.318291991949081 0.831380009651184
vt 0.283403992652893 0.92228102684021
vt 0.270664006471634 0.886597990989685
vt 0.207800999283791 0.184970006346703
vt 0.159721001982689 0.239656999707222
vt 0.054577998816967 0.18776099383831
vt 0.165096998214722 0.0620529986917973
vt 0.159068003296852 0.3177550137043
vt 0.0530770011246204 0.367278009653091
vt 0.206224992871284 0.373513013124466
vt 0.161475002765656 0.495447009801865
vt 0.273568004369736 0.374269992113113
vt 0.316271990537643 0.497186988592148
vt 0.321648001670837 0.319581985473633
vt 0.42679101228714 0.371479004621506
vt 0.322301000356674 0.241484999656677
vt 0.428292006254196 0.191962003707886
vt 0.275144010782242 0.185727000236511
vt 0.31989398598671 0.0637930035591125
vt 0.0075993575155735 0.171937003731728
vt 0.141824007034302 0.0127830002456903
vt 0.00569935748353601 0.399217993021011
vt 0.146171003580093 0.564077019691467
vt 0.3332200050354 0.563690006732941
vt 0.473087996244431 0.411298006772995
vt 0.475100994110107 0.170494005084038
vt 0.33780699968338 0.0149860000237823
vt 0.832723021507263 0.068451002240181
vt 0.949472010135651 0.217779994010925
vt 0.823248982429504 0.270186007022858
vt 0.775422990322113 0.209014996886253
vt 0.94097501039505 0.419110000133514
vt 0.819768011569977 0.352660000324249
vt 0.811679005622864 0.554313004016876
vt 0.767019987106323 0.408122986555099
vt 0.642656028270721 0.552837014198303
vt 0.69590300321579 0.404087007045746
vt 0.522316992282867 0.395673990249634
vt 0.648077011108398 0.342914998531342
vt 0.530350983142853 0.193991005420685
vt 0.651557981967926 0.26044100522995
vt 0.659116983413696 0.0585969984531403
vt 0.70430600643158 0.204978004097939
vt 0.755248010158539 0.918330013751984
vt 0.805158019065857 0.862022995948792
vt 0.876070976257324 0.893918991088867
vt 0.784982025623322 0.9941166639328
vt 0.80563497543335 0.779681026935577
vt 0.875912010669708 0.744343996047974
vt 0.754306018352509 0.720704019069672
vt 0.784597992897034 0.638707995414734
vt 0.684557974338531 0.721763014793396
vt 0.655619978904724 0.638891994953156
vt 0.632845997810364 0.779352009296417
vt 0.56453001499176 0.744789004325867
vt 0.632196009159088 0.86300402879715
vt 0.564688980579376 0.89436399936676
vt 0.684499979019165 0.917289972305298
vt 0.656002998352051 0.994300663471222
vt 0.84986400604248 0.846697986125946
vt 0.503166973590851 0.990305006504059
vt 0.503166973590851 0.876908004283905
vt 0.769680976867676 0.766514003276825
vt 0.156469002366066 0.846697986125946
vt 0.236652001738548 0.766514003276825
vt 0.0128619996830821 0.5
vt 0.126258999109268 0.5
vt 0.156469002366066 0.153301998972893
vt 0.236652001738548 0.233485996723175
vt 0.503166973590851 0.00969500001519918
vt 0.503166973590851 0.123092003166676
vt 0.849865019321442 0.153301998972893
vt 0.769680976867676 0.233485996723175
vt 0.993471026420593 0.5
vt 0.880074977874756 0.5
vt 0.503166973590851 0.5
vt 0.994300663471222 0.196802005171776
vt 0.992368459701538 0.449369013309479
vt 0.828041970729828 0.612689971923828
vt 0.615549027919769 0.611563980579376
vt 0.641026973724365 0.00569935748353601
vt 0.858815014362335 0.00824357103556395
vt 0.777783989906311 0.846843004226685
vt 0.777552008628845 0.793931007385254
vt 0.741680026054382 0.759445011615753
vt 0.699128985404968 0.7603719830513
vt 0.664493978023529 0.793366014957428
vt 0.664492011070251 0.848774015903473
vt 0.695837020874023 0.884461998939514
vt 0.74345201253891 0.884496986865997
vt 0 0
vt 1 0
vt 1 1
vt 0 1
vn 0.515490451998423 0.514308711845481 0.685387585836148
vn -0.00103581884741887 0.724742890927626 0.689018627563278
vn -0.512734526242807 0.511538270471203 0.689515702099593
vn -0.729665649394609 -0.00120334667599835 0.683803036005486
vn -0.51917906720991 -0.520388413706658 0.677974184649324
vn 4.21087594818374e-09 -0.737336181667701 0.675525984106974
vn 0.519179041687753 -0.520388431579799 0.677974190474905
vn 0.73235456779711 -0.00222280537142008 0.680919852965817
vn 0.457624353757323 0.457622578220115 -0.762339508848497
vn 0.00117315086624589 0.647004972414417 -0.762484878137307
vn 0.00341172474172687 0.751765729788498 -0.659421449188494
vn 0.54406337088428 0.541324267170824 -0.64106402662605
vn -0.458427222952537 0.458425450962838 -0.76137414400907
vn -0.519705648875869 0.522549231803528 -0.675905569490335
vn -0.648313220995398 -6.79164165104483e-07 -0.761373737058293
vn -0.730750356300217 -6.13968090427767e-07 -0.682644795458611
vn -0.458426856008794 -0.458426054001839 -0.761374001855984
vn -0.519705371866991 -0.522549180633524 -0.675905822043149
vn -3.93426645985764e-09 -0.648312252018246 -0.761374562146011
vn 0.00281109736689166 -0.752322378498532 -0.658789144219837
vn 0.458426851857539 -0.458426044871608 -0.761374009852819
vn 0.544445891938711 -0.541706015232674 -0.640416476842842
vn 0.647005946884144 0.00117247458361356 -0.762484052292179
vn 0.774093429073719 0.000604073592307363 -0.633071084602658
vn 0.145027727685316 0.945347155187628 -0.292037179792391
vn 0.578886890594559 0.773193584962058 -0.258962638369482
vn -0.558691515564213 0.763594306702716 -0.32370901317041
vn -0.930871031817364 0.142410755064661 -0.336449548915123
vn -0.75794907036917 -0.573453059383533 -0.31090962579209
vn -0.144798239976448 -0.94896565668296 -0.280174324548133
vn 0.578887558443969 -0.773193111852105 -0.258962558033471
vn 0.959521012462585 -0.139684268139156 -0.244556193700352
vn 0.605408706617885 0.605409091900619 0.51668184542843
vn 3.10078659055805e-09 0.856177710038139 0.51668145779953
vn 0.00171278108791962 0.903513008725075 0.428557241737328
vn 0.640551513077597 0.640505461166179 0.423611276184076
vn -0.605408705446013 0.605409094204725 0.516681844101762
vn -0.640016655037077 0.629673708589653 0.440329083738632
vn -0.85152141985385 -0.0122043804257723 0.524177760524526
vn -0.894346518130217 -0.00810387303347791 0.447301500947866
vn -0.602795060286503 -0.602795791288843 0.522757447865307
vn -0.640179963331058 -0.632792119540358 0.435595853971392
vn -0.012203647109367 -0.851520953610905 0.524178535003871
vn -0.0127982086909293 -0.904872508266389 0.425490246231329
vn 0.605408400338209 -0.605409068992 0.516682231146157
vn 0.641344433857011 -0.644266698251112 0.416650619446605
vn 0.856177406279678 -6.55092561665744e-07 0.516681961148029
vn 0.908753861236937 0.00638394554566174 0.417283674406545
vn 0.500759222000682 0.696703549082106 -0.513657829958494
vn 0.15234304269617 0.84167752171004 -0.51804492738576
vn 0.00190622891678609 0.674456792785389 -0.73831185887602
vn 0.480687566155957 0.480173871788263 -0.733738725020652
vn -0.496809978289806 0.692902307025757 -0.522557402004857
vn -0.474823997894653 0.468428985054029 -0.74506137799821
vn -0.846106143777788 0.138808152630303 -0.514622862128029
vn -0.661473598988848 3.21502058044864e-05 -0.749968450541158
vn -0.70728376211069 -0.486558121744163 -0.512845857952798
vn -0.471058100227142 -0.466304026619311 -0.748775547790533
vn -0.148119729697605 -0.846918014659232 -0.510676435837775
vn -0.00267221690616878 -0.675690735905109 -0.737180363729813
vn 0.489930781882552 -0.703787559884516 -0.514442318939403
vn 0.482238560037734 -0.483262465304535 -0.730686910270408
vn 0.843074083793778 -0.13768229488311 -0.519874672311512
vn 0.682708798965028 0.00459023630728848 -0.730676142724239
vn 0.0389931728249427 0.0389930614731722 0.998478379149991
vn 0 0.0551444312393124 0.998478388200412
vn -0.0389931728249424 0.0389930614731722 0.998478379149991
vn -0.0551448345953232 -5.9540615555674e-08 0.998478365923594
vn -0.038993145504959 -0.0389931178658366 0.998478378014632
vn 0 -0.0551444250435301 0.998478388542596
vn 0.0389931455049593 -0.0389931178658366 0.998478378014632
vn 0.0551448345953238 -5.95406155522036e-08 0.998478365923594
vn -0.600489274320987 -0.600491249420606 0.528036827119788
vn 0 -0.849221580686004 0.528036652986481
vn -0.311466896446494 -0.751948675481636 0.581000483527684
vn 0.600489274320988 -0.600491249420606 0.528036827119788
vn 0.849221596271612 1.09976032091136e-06 0.528036627919585
vn 0.60048896561296 0.600492734590815 0.528035489224656
vn 0 0.849222775621547 0.528034731211533
vn -0.60048896561296 0.600492734590815 0.528035489224656
vn -0.849221596271612 1.09976032073482e-06 0.528036627919584
vn -0.801105166206246 0.331828073055047 0.498117097287613
vn -0.370473776845093 0.894401429742567 0.250589830489158
vn -0.894401569789748 0.370473224345618 0.250590147453159
vn -0.875334322664923 -0.386746138428109 0.290202081273871
vn -0.38674698434956 -0.875333983118975 0.290201978100756
vn 0.370472898436129 -0.894401765573961 0.250589930489067
vn 0.894401569789748 -0.370473224345618 0.250590147453159
vn 0.894401236540387 0.370474093597584 0.25059005177396
vn -0.390818923446227 0.918373762937242 0.0620499848897847
vn -0.925835706163688 0.361749924565962 0.109385726988969
vn -0.925080786867816 -0.362390909791956 0.113570974584974
vn -0.383585906951009 -0.919939772900017 0.0810719817522493
vn 0.366777075816182 -0.929185170105454 0.0457110086503142
vn 0.926860719390904 -0.374630885977794 0.0241019941429833
vn 0.916395260374143 0.396956125745219 0.051435017227102
vn 0 -0.99999999999999 -1.40727891562163e-07
vn 0 -1 0
vn 0.21652828557705 -0.9762763410071 8.68035246004829e-05
vn 0.0868968421685569 -0.991704440680986 -0.0947166361034114
vn 6.73927136318753e-10 -1 0
vn 0.000422352373804251 -0.999999885133195 0.000226609948260352
vn 0 0 1
vn 0.809017046072992 0.587785181136213 0
vn 0.309016873477494 0.951056555577109 0
vn -0.309017139181753 0.951056469244558 0
vn -0.809017052240357 0.587785172647561 0
vn -0.999999999999993 -1.1534413596965e-07 0
vn -0.80901694202873 -0.587785324340854 0
vn -0.3090169008982 -0.951056546667585 0
vn 0.309017086738832 -0.951056486284303 0
vn 0.809017012780788 -0.587785226959006 0
vn 0.999999999999995 -1.02489254361488e-07 0
vn 0 4.81859274703567e-10 -1
vn 0 -1.54194964352426e-07 0.999999999999988
g vaseCshort VaseCshort VaseCshortAll
f 1/1/1 2/2/2 3/3/2 4/4/1
f 2/2/2 5/5/3 6/6/3 3/3/2
f 5/5/3 7/7/4 8/8/4 6/6/3
f 7/7/4 9/9/5 10/10/5 8/8/4
f 9/9/5 11/11/6 12/12/6 10/10/5
f 11/11/6 13/13/7 14/14/7 12/12/6
f 13/13/7 15/15/8 16/16/8 14/14/7
f 15/15/8 1/1/1 4/4/1 16/16/8
f 4/17/9 3/18/10 17/19/11 18/20/12
f 3/18/10 6/21/13 19/22/14 17/19/11
f 6/21/13 8/23/15 20/24/16 19/22/14
f 8/23/15 10/25/17 21/26/18 20/24/16
f 10/25/17 12/27/19 22/28/20 21/26/18
f 12/27/19 14/29/21 23/30/22 22/28/20
f 14/29/21 16/31/23 24/32/24 23/30/22
f 16/31/23 4/17/9 18/20/12 24/32/24
f 18/20/12 17/19/11 25/33/25 26/34/26
f 17/19/11 19/22/14 27/35/27 25/33/25
f 19/22/14 20/24/16 28/36/28 27/35/27
f 20/24/16 21/26/18 29/37/29 28/36/28
f 21/26/18 22/28/20 30/38/30 29/37/29
f 22/28/20 23/30/22 31/39/31 30/38/30
f 23/30/22 24/32/24 32/40/32 31/39/31
f 24/32/24 18/20/12 26/34/26 32/40/32
f 33/41/33 34/42/34 35/43/35 36/44/36
f 34/42/34 37/45/37 38/46/38 35/43/35
f 37/45/37 39/47/39 40/48/40 38/46/38
f 39/47/39 41/49/41 42/50/42 40/48/40
f 41/49/41 43/51/43 44/52/44 42/50/42
f 43/51/43 45/53/45 46/54/46 44/52/44
f 45/53/45 47/55/47 48/56/48 46/54/46
f 47/55/47 33/41/33 36/44/36 48/56/48
f 49/57/49 50/58/50 51/59/51 52/60/52
f 50/58/50 53/61/53 54/62/54 51/59/51
f 53/61/53 55/63/55 56/64/56 54/62/54
f 55/63/55 57/65/57 58/66/58 56/64/56
f 57/65/57 59/67/59 60/68/60 58/66/58
f 59/67/59 61/69/61 62/70/62 60/68/60
f 61/69/61 63/71/63 64/72/64 62/70/62
f 63/71/63 49/57/49 52/60/52 64/72/64
f 52/73/65 51/74/66 65/75/66 66/76/65
f 51/74/66 54/77/67 67/78/67 65/75/66
f 54/77/67 56/79/68 68/80/68 67/78/67
f 56/79/68 58/81/69 69/82/69 68/80/68
f 58/81/69 60/83/70 70/84/70 69/82/69
f 60/83/70 62/85/71 71/86/71 70/84/70
f 62/85/71 64/87/72 72/88/72 71/86/71
f 64/87/72 52/73/65 66/76/65 72/88/72
f 66/76/73 65/75/74 73/89/75
f 65/75/74 67/78/76 73/89/75
f 67/78/76 68/80/77 73/89/77
f 68/80/77 69/82/78 73/89/77
f 69/82/78 70/84/79 73/89/79
f 70/84/79 71/86/80 73/89/79
f 71/86/80 72/88/81 73/89/82
f 72/88/81 66/76/73 73/89/75
f 25/90/83 27/91/27 37/45/37 34/42/34
f 27/91/84 28/92/28 39/47/39 37/45/37
f 28/92/85 29/93/29 41/49/41 39/47/39
f 29/93/86 30/38/30 43/51/43 41/49/41
f 30/38/87 31/39/31 45/53/45 43/51/43
f 31/39/88 32/94/32 47/55/47 45/53/45
f 32/94/89 26/95/89 33/41/33 47/55/47
f 26/95/26 25/90/25 34/42/34 33/41/33
f 35/96/35 38/97/38 53/61/53 50/58/90
f 38/97/38 40/98/40 55/63/55 53/61/91
f 40/98/40 42/99/42 57/65/57 55/63/92
f 42/99/42 44/100/44 59/67/59 57/65/93
f 44/100/44 46/101/46 61/69/61 59/67/94
f 46/101/46 48/102/48 63/71/63 61/69/95
f 48/102/48 36/103/36 49/57/96 63/71/96
f 36/103/36 35/96/35 50/58/50 49/57/49
g pPlane6 flowers VaseCshort VaseCshortAll
f 74/104/97 75/105/97 76/106/97 77/107/97
g pPlane7 flowers VaseCshort VaseCshortAll
f 78/104/98 79/105/98 80/106/98 81/107/98
g pPlane9 flowers VaseCshort VaseCshortAll
f 82/104/98 83/105/98 84/106/98 85/107/98
g pPlane11 flowers VaseCshort VaseCshortAll
f 86/104/99 87/105/99 88/106/99 89/107/99
g pPlane13 flowers VaseCshort VaseCshortAll
f 90/104/98 91/105/98 92/106/98 93/107/98
g pPlane16 flowers VaseCshort VaseCshortAll
f 94/104/100 95/107/100 96/106/100 97/105/100
g pPlane17 flowers VaseCshort VaseCshortAll
f 98/104/101 99/105/101 100/106/101 101/107/101
g pPlane18 flowers VaseCshort VaseCshortAll
f 102/104/102 103/107/102 104/106/102 105/105/102
g shadow1 VaseCshort VaseCshortAll
f 106/104/103 107/105/103 108/106/103 109/107/103
g pCylinder1
f 110//104 111//105 112//105 113//104
f 111//105 114//106 115//106 112//105
f 114//106 116//107 117//107 115//106
f 116//107 118//108 119//108 117//107
f 118//108 120//109 121//109 119//108
f 120//109 122//110 123//110 121//109
f 122//110 124//111 125//111 123//110
f 124//111 126//112 127//112 125//111
f 126//112 128//113 129//113 127//112
f 128//113 110//104 113//104 129//113
f 110//114 128//114 126//114 124//114 122//114 120//114 118//114 116//114 114//114 111//114
f 113//115 112//115 115//115 117//115 119//115 121//115 123//115 125//115 127//115 129//115
