v 12.5 11.8723539371259 14.8499997854233
v 12.5 11.8723539371259 30
v 0 11.8723539371259 30
v 0 11.8723539371259 14.8499997854233
v 0 11.8723539371259 0
v 12.5 11.8723539371259 0
v -12.5 11.8723539371259 14.8499997854233
v -12.5 11.8723539371259 0
v -12.5 11.8723539371259 30
v -12.5 6 30
v -12.5 6 14.8499997854233
v -12.5 6 0
v -12.5 0 14.8499997854233
v -12.5 0 0
v -12.5 0 30
v 12.5 6 14.8499997854233
v 12.5 6 30
v 12.5 6 0
v 12.5 0 0
v 12.5 0 14.8499997854233
v 12.5 0 30
v -11.5 9.9022971707635 30
v -11.5 2.06174 30
v -12.5 2.06174 30
v -12.5 9.9022971707635 30
v 12.5 9.9022971707635 30
v 12.5 2.06174 30
v 10.9221292486786 2.06174 30
v 10.9221292486786 9.9022971707635 30
v -10 1.78077836515378 0
v 10 1.78077836515378 0
v 10 9.9022971707635 0
v -10 9.9022971707635 0
v 12.5 1.78077836515378 0
v 12.5 9.9022971707635 0
v -12.5 9.9022971707635 0
v -12.5 1.78077836515378 0
v -11.5 0.76814000946513 0
v -11.5 0.76814000946513 29.6999995708466
v -24.0691905021667 0.76814000946513 29.6999995708466
v -24.0691905021667 0.76814000946513 0
v -11.5 1.91652920033614 29.6999995708466
v -11.5 1.91652920033614 0
v -24.0691905021667 1.91652920033614 29.6999995708466
v -24.0691905021667 1.91652920033614 0
v 24.0691905021667 0.76814000946513 0
v 24.0691905021667 0.76814000946513 29.6999995708466
v 11.5 0.76814000946513 29.6999995708466
v 11.5 0.76814000946513 0
v 24.0691905021667 1.91652920033614 29.6999995708466
v 24.0691905021667 1.91652920033614 0
v 11.5 1.91652920033614 29.6999995708466
v 11.5 1.91652920033614 0
v 24.2667306482792 0 -6.59999990463257
v 24.2667306482792 0 32.9999995231628
v -24.2667306482792 0 32.9999995231628
v -24.2667306482792 0 -6.59999990463257
v -13.9035682678223 1.09168364667375 -6.59999990463257
v 13.9035682678223 1.09168364667375 -6.59999990463257
v 13.9035682678223 1.09168364667375 26.3999996185303
v -13.9035682678223 1.09168364667375 26.3999996185303
v -23.3071365356445 -1.5 5.6
v -19.5 -1.5 5.6
v -19.5 -1.5 26.775083573363
v -23.3071365356445 -1.5 26.775083573363
v -19.5 0 26.775083573363
v -19.5 0 5.6
v 23.3071365356445 -1.5 26.775083573363
v 19.5 -1.5 26.775083573363
v 19.5 -1.5 5.6
v 23.3071365356445 -1.5 5.6
v 19.5 0 5.6
v 19.5 0 26.775083573363
v -16.6 0 33.224916426637
v -16.6 0 28.9249164743207
v 16.6 0 28.9249164743207
v 16.6 0 33.224916426637
v 16.6 -1.5 28.9249164743207
v -16.6 -1.5 28.9249164743207
v 19.5 -0.459355676348406 5.6
v 19.5 -0.459355676348406 26.775083573363
v -19.5 -0.459355676348406 5.6
v -19.5 -0.459355676348406 26.775083573363
v 16.6 -1.5 0
v 16.6 0 0
v -16.6 0 0
v -16.6 -1.5 0
v 12.5 0.5 0
v 22.5 0.5 0
v 22.5 0.5 3
v 12.5 0.5 3
v 22.5 0.5 30
v 12.5 0.5 30
v -12.5 0.5 33.5242487911362
v -17 0.5 33.5242487911362
v -17 0.5 30
v -12.5 0.5 30
v 12.5 0.5 33.5242487911362
v 17 0.5 33.5242487911362
v 17 0.5 30
v -22.5 0.5 3
v -22.5 0.5 0
v -12.5 0.5 0
v -12.5 0.5 3
v -22.5 0.5 30
v -23.9999752382329 0.5 -6.59999990463257
v -11.5 0.5 -6.59999990463257
v -11.5 0.5 26.3999996185303
v -23.9999752382329 0.5 26.3999996185303
v 11.5 0.5 -6.59999990463257
v 24.0000238718466 0.5 -6.59999990463257
v 24.0000238718466 0.5 26.3999996185303
v 11.5 0.5 26.3999996185303
v 5.59384165527083 -0.5 44.4722566004385
v 0.608280676539253 -0.5 46.1341102467778
v -4.54026861824248 -0.5 45.080537236485
v -8.47225660334577 -0.5 41.5938416068353
v -10.1341102735133 -0.5 36.6082806360464
v -9.08053727988502 -0.5 31.4597313600575
v -5.59384165527083 -0.5 27.5277433995615
v -0.608280676539249 -0.5 25.8658897532222
v 4.54026861824248 -0.5 26.919462763515
v 8.47225660334577 -0.5 30.4061583931647
v 10.1341102735133 -0.5 35.3917193639536
v 9.08053727988502 -0.5 40.5402686399425
v 16.6 -1.5 33.224916426637
v 23.3071365356445 -1.5 33.224916426637
v 23.3071365356445 0 26.775083573363
v -16.6 0 3
v -16.6 -1.5 3
v -23.3071365356445 -1.5 0
v -23.3071365356445 0 5.6
v 16.6 -1.5 3
v 16.6 0 3
v 23.3071365356445 -1.5 0
v 23.3071365356445 0 5.6
v -16.6 -1.5 33.224916426637
v -23.3071365356445 -1.5 33.224916426637
v -23.3071365356445 0 26.775083573363
vt 0 0.00775047717615962
vt 0 1
vt 0.985197246074677 1
vt 0.985197246074677 0.00775047717615962
vt 1 0
vt 1 1.30445992946625
vt 0 1.30445992946625
vt 0 0
vt -0.0332455523312092 -1.96713304519653
vt -0.00430156989023089 2.00876951217651
vt 0.995976984500885 2.02525305747986
vt 0.9670330286026 -1.95064961910248
vt 0.0790764167904854 -2.61970353126526
vt -0.00536154350265861 2.0502028465271
vt 0.995841145515442 2.01035833358765
vt 1.08027911186218 -2.65954804420471
vt 1 1
vt 0.994708597660065 2.51602435112
vt -0.00529250828549266 2.51655006408691
vt -1.10573216716148e-06 0.000525767856743187
vt 1 7.99123608885566e-06
vt 0.994708597660065 2.51603245735168
vt -0.005292525049299 2.5165581703186
vt -1.12253837869503e-06 0.000533759070094675
vt 0.800000011920929 1
vt 0.800000011920929 0
vt 0.75 0
vt 0.75 1
vt -0.0141054559499025 0.0112202940508723
vt 1.0334883928299 0.011479027569294
vt 1.03400540351868 2.00981330871582
vt -0.0135884452611208 2.0095546245575
vt 0.475238740444183 0.853933453559875
vt 0.413952559232712 0.853933274745941
vt 0.413950145244598 0.144477620720863
vt 0.475236296653748 0.14447782933712
vt 1.03134417533875 2.00788044929504
vt -0.0162492878735065 2.00762248039246
vt -0.0167634971439838 0.0147777236998081
vt 1.03083002567291 0.0150357466191053
vt 0.46876135468483 0.145711570978165
vt 0.407475203275681 0.145711779594421
vt 0.407472789287567 0.855167388916016
vt 0.468758940696716 0.855167150497437
vt 1.04333698749542 -0.0978914797306061
vt -0.0469285324215889 -0.102920912206173
vt -0.0249949116259813 4.10126209259033
vt 1.06527066230774 4.10629177093506
vt 0.910821259021759 0.91799795627594
vt 0.910823941230774 0.924469530582428
vt -0.11866507679224 0.924047768115997
vt -0.118667803704739 0.917576134204865
vt -28.0640239715576 -27.5687408447266
vt 27.7399101257324 -18.6438312530518
vt 28.1202239990234 -17.3419094085693
vt -28.9480800628662 -26.4690361022949
vt 3.25001525878906 -17.0561676025391
vt 3.53437423706055 -17.0023746490479
vt -0.663729906082153 5.18945407867432
vt -0.948088884353638 5.13566112518311
vt -0.0672494769096375 -4.18409252166748
vt 0.249350562691689 -4.20052051544189
vt 1.53141069412231 20.5075416564941
vt 1.2148106098175 20.5239696502686
vt 26.7030792236328 3.30278158187866
vt 26.3895416259766 3.99475169181824
vt -1.73685395717621 4.20272397994995
vt -2.0605845451355 3.51546597480774
vt -0.00731947040185332 3.81719446182251
vt -0.0211954209953547 4.52412080764771
vt 0.911084353923798 4.52991437911987
vt 0.924960315227509 3.82298803329468
vt 0.947912693023682 0.891627848148346
vt 0.761964559555054 0.891353249549866
vt 0.760593891143799 0.00538271106779575
vt 0.946542084217072 0.00565734226256609
vt 0.238368779420853 1.00465953350067
vt 0.0524206236004829 1.00438487529755
vt 0.052244134247303 0.890305042266846
vt 0.238192290067673 0.890579640865326
vt 0.762141048908234 1.00543320178986
vt 0.948089182376862 1.0057076215744
vt 0.947912752628326 0.891627848148346
vt 0.0677203238010406 -0.0057937572710216
vt 0.0538319498300552 0.701765239238739
vt 0.986111640930176 0.707558989524841
vt 0.236821621656418 0.00460913917049766
vt 0.0508734807372093 0.00433450797572732
vt 0.79454904794693 0.932633221149445
vt 0.533108294010162 1.02355933189392
vt 0.263120502233505 0.975587725639343
vt 0.0569286718964577 0.801572322845459
vt -0.0302182342857122 0.548140406608582
vt 0.025030704215169 0.283198833465576
vt 0.207871586084366 0.077738530933857
vt 0.469312340021133 -0.0131876096129417
vt 0.739300131797791 0.0347840003669262
vt 0.945491909980774 0.208799406886101
vt 1.03263878822327 0.462231308221817
vt 0.977389931678772 0.727172911167145
vt 1 0.909090936183929
vt 0.938735842704773 0.909090936183929
vt 0.938735842704773 1
vt 0 1.002481341362
vt 1 1.002481341362
vt 1 0.395455688238144
vt 0.506791651248932 0
vt 0 0.84986686706543
vt 0.475743472576141 0.84986686706543
vt 0.537007629871368 0.84986686706543
vn 0 -1 0
vn 1 0 0
vn -1 0 0
vn 0 0 -1
vn 0 0 1
vn 0 1 0
vn 0.893176594092618 0 -0.449706094872096
vn 0.95529047141594 0 -0.295668928401195
vn 0.963183373793891 0 0.268845287195102
vn 0.913111443294855 0 0.407710058894782
vn -0.913111443294855 0 0.407710058894783
vn -0.963183373793891 0 0.268845287195102
vn -0.95529047141594 0 -0.295668928401195
vn -0.893176594092618 0 -0.449706094872096
vn -0.207798794668783 0 -0.978171590741727
vn 0.207798794668783 0 -0.978171590741727
g elevator suit_elevator_1
f 1/1/1 2/2/1 3/3/1 4/4/1
f 4/4/1 5/3/1 6/2/1 1/1/1
f 7/1/1 8/2/1 5/3/1 4/4/1
f 4/4/1 3/3/1 9/2/1 7/1/1
f 7/1/2 9/2/2 10/3/2 11/4/2
f 11/4/2 12/3/2 8/2/2 7/1/2
f 13/1/2 14/2/2 12/3/2 11/4/2
f 11/4/2 10/3/2 15/2/2 13/1/2
f 16/4/3 17/3/3 2/2/3 1/1/3
f 1/1/3 6/2/3 18/3/3 16/4/3
f 16/4/3 18/3/3 19/2/3 20/1/3
f 20/1/3 21/2/3 17/3/3 16/4/3
f 22/5/4 23/6/4 24/7/4 25/8/4
f 9/9/4 2/10/4 26/11/4 25/12/4
f 24/13/4 27/14/4 21/15/4 15/16/4
f 26/5/4 27/6/4 28/7/4 29/8/4
f 22/8/4 29/5/4 28/17/4 23/2/4
g ground suit_elevator_1
f 30/8/5 31/5/5 32/17/5 33/2/5
f 32/8/5 31/7/5 34/6/5 35/5/5
f 36/5/5 35/18/5 6/19/5 8/20/5
f 14/21/5 19/22/5 34/23/5 37/24/5
f 36/8/5 37/7/5 30/6/5 33/5/5
g left_door suit_elevator_1
f 38/8/1 39/2/1 40/17/1 41/5/1
f 42/17/2 39/25/2 38/26/2 43/5/2
f 44/17/5 40/17/5 39/2/5 42/2/5
f 45/5/3 41/5/3 40/17/3 44/17/3
f 43/8/4 38/8/4 41/5/4 45/5/4
f 44/17/6 42/2/6 43/8/6 45/5/6
g right_door suit_elevator_1
f 46/5/1 47/17/1 48/2/1 49/8/1
f 50/17/2 47/17/2 46/5/2 51/5/2
f 52/2/5 48/2/5 47/17/5 50/17/5
f 53/5/3 49/27/3 48/28/3 52/17/3
f 51/5/4 46/5/4 49/8/4 53/8/4
f 52/2/6 50/17/6 51/5/6 53/8/6
g collisions suit_elevator_1
f 54//1 55//1 56//1 57//1
g door_collisions suit_elevator_1
f 58//1 59//1 60//1 61//1
g frame big_frame
f 62/29/1 63/30/1 64/31/1 65/32/1
f 66/33/7 64/34/8 63/35/9 67/36/10
f 68/37/1 69/38/1 70/39/1 71/40/1
f 72/41/11 70/42/12 69/43/13 73/44/14
f 74/45/1 75/46/1 76/47/1 77/48/1
f 76/49/15 78/50/15 79/51/16 75/52/16
f 75/53/16 76/54/15 78/55/15 79/56/16
f 80/57/3 70/58/12 69/59/13 81/60/3
f 63/61/9 82/62/2 83/63/2 64/64/8
f 84/65/5 85/66/5 86/67/5 87/68/5
g decals decal_base flashing big_frame
f 88/69/1 89/70/1 90/71/1 91/72/1
g decal_base flashing big_frame
f 92/73/1 93/74/1 88/75/1 89/76/1
g flashing big_frame
f 94/77/1 95/78/1 96/79/1 97/80/1
f 98/81/1 94/77/1 97/80/1 93/74/1
f 99/82/1 98/81/1 93/74/1 100/83/1
g decals decal_base flashing big_frame
f 101/5/1 102/84/1 103/85/1 104/86/1
g decal_base flashing big_frame
f 103/87/1 97/80/1 105/79/1 102/88/1
g flashing_collisions big_frame
f 106//1 107//1 108//1 109//1
f 110//1 111//1 112//1 113//1
g big_frame
f 114/89/1 115/90/1 116/91/1 117/92/1 118/93/1 119/94/1 120/95/1 121/96/1 122/97/1 123/98/1 124/99/1 125/100/1
g corners big_frame
f 76/101/3 78/102/3 126/103/3 77/17/3
f 127/104/1 126/105/1 78/106/1 69/107/1 68/8/1
f 128/108/4 68/108/4 69/109/4 73/110/4
f 73/110/14 69/109/13 78/102/15 76/101/15
f 129/101/10 130/102/10 87/103/2 86/17/2
f 131/104/1 87/105/1 130/106/1 63/107/1 62/8/1
f 132/108/5 62/108/5 63/109/5 67/110/5
f 67/110/10 63/109/9 130/102/10 129/101/10
f 85/17/3 84/103/3 133/102/11 134/101/11
f 71/8/1 70/107/1 133/106/1 84/105/1 135/104/1
f 72/110/5 70/109/5 71/108/5 136/108/5
f 134/101/11 133/102/11 70/109/12 72/110/11
f 74/17/2 137/103/2 79/102/2 75/101/2
f 65/8/1 64/107/1 79/106/1 137/105/1 138/104/1
f 66/110/4 64/109/4 65/108/4 139/108/4
f 75/101/16 79/102/16 64/109/8 66/110/7
