v -3.35035133361816 -19 0
v -5.28645576894651 -30 0
v 5.28645576894651 -30 0
v 3.35035133361816 -19 0
v -7.34563410282135 -16 0
v -16.3053811750266 -25 0
v -9.40180134773254 -11 0
v -23.9754831186403 -17.6514870743214 0
v -14.6529446797418 -8.35754876966983 0
v -28.3088548230907 -12 0
v -18 -3.5 0
v -31.4801241802436 -3.11158912190434 0
v -20 3.5 0
v -32.3564787141514 6.82198887383278 0
v -20 8.5 0
v -31.534389114896 14.7113939578624 0
v -17.7911894081592 15 0
v -28.0491488123105 24.9676205671009 0
v -10 20 0
v -10 33 0
v 10 33 0
v 10 45 0
v -10 45 0
v 10 20 0
v 17.7911894081592 15 0
v 28.0956112547555 24.9676205671009 0
v 20 8.5 0
v 31.580851557341 14.7113939578624 0
v 20 3.5 0
v 32.4029411565964 6.82198887383278 0
v 18 -3.5 0
v 31.4801241802436 -2.88841087809566 0
v 14.59063017797 -8.35754876966983 0
v 28.7510554549598 -12 0
v 9.40180134773254 -11 0
v 24.4159583295511 -17.6514870743214 0
v 7.34563410282135 -16 0
v 16.3053811750266 -25 0
v -11.2475287914276 22.4326811432838 -2
v -19.718217355639 17.5266439456117 -2
v -22.4950575828552 9.49802303314209 -2
v -22.4950575828552 3.87425863742828 -2
v -20.2455518245697 -3.99901151657104 -2
v -16.4809417164592 -9.46255348083356 -2
v -10.5747031349905 -12.4346581101418 -1.99999999999999
v -8.26202310627757 -18.0584225058556 -1.99999999999999
v -3.76831730862682 -21.4326811432838 -1.99999999999999
v 3.76831730862682 -21.4326811432838 -1.99999999999999
v 8.26202310627757 -18.0584225058556 -1.99999999999999
v 10.5747031349905 -12.4346581101418 -1.99999999999999
v 16.410853301179 -9.46255348083356 -2.00000000000001
v 20.2455518245697 -3.99901151657104 -1.99999999999999
v 22.4950575828552 3.87425863742828 -1.99999999999999
v 22.4950575828552 9.49802303314209 -1.99999999999999
v 20.0106915102012 16.80891674757 -1.99999999999999
v 11.2475287914276 22.4326811432838 -1.99999999999999
v 1.23729151924046e-15 22.4326811432838 -1.99999999999999
v 31.4801241802436 -2.88841087809566 4.8
v 32.4029411565964 6.82198887383278 4.8
v 31.580851557341 14.7113939578624 4.8
v 28.0956112547555 24.9676205671009 4.8
v 10 33 4.8
v 10 45 4.8
v -10 45 4.8
v -10 33 4.8
v -28.0491488123105 24.9676205671009 4.8
v -31.534389114896 14.7113939578624 4.8
v -32.3564787141514 6.82198887383278 4.8
v -31.4801241802436 -3.11158912190434 4.8
v -28.3088548230907 -12 4.8
v -23.9754831186403 -17.6514870743214 4.8
v -16.3053811750266 -25 4.8
v -5.28645576894651 -30 4.8
v 5.28645576894651 -30 4.8
v 16.3053811750266 -25 4.8
v 24.4159583295511 -17.6514870743214 4.8
v 28.7510554549598 -12 4.8
v -13.9006319484378 -7.96096708943215 -1.5
v -12.6467773962643 -7.29999762236934 -4.00000000000001
v -15.5355799198151 -3.10750667094684 -3.99999999999999
v -17.0758424699306 -3.35281500160507 -1.5
v -8.91909326374792 -10.4677493640762 -1.5
v -8.11457979044022 -9.58066497086979 -3.99999999999999
v -6.9684939323071 -15.2110389390569 -1.5
v -6.33992698145001 -13.8961038374851 -3.99999999999999
v -3.17833731065477 -18.0570126840453 -1.5
v -2.89164727238244 -16.4853671574543 -3.99999999999999
v 3.17833731065477 -18.0570126840453 -1.5
v 2.89164727238244 -16.4853671574543 -3.99999999999999
v 6.9684939323071 -15.2110389390569 -1.5
v 6.33992698145 -13.8961038374851 -3.99999999999999
v 8.91909326374792 -10.4677493640762 -1.5
v 8.11457979044022 -9.58066497086979 -3.99999999999999
v 13.8415168031129 -7.96096708943215 -1.5
v 12.5929945116843 -7.29999762236934 -4.00000000000001
v 17.0758424699306 -3.35281500160507 -1.5
v 15.5355799198151 -3.10750667094684 -3.99999999999999
v 18.9731582999229 3.28779040336796 -1.5
v 17.2617554664612 2.93410774231457 -3.99999999999999
v 18.9731582999229 8.0310799783487 -1.5
v 17.2617554664612 7.24954660892986 -3.99999999999999
v 16.8777526492458 14.1973564258237 -1.5
v 15.3553580510569 12.8596171355297 -3.99999999999999
v 9.48657914996147 18.9406460008044 -1.5
v 8.63087773323059 17.175056002145 -3.99999999999999
v -9.48657914996147 18.9406460008044 -1.5
v -8.63087773323059 17.175056002145 -3.99999999999999
v -16.8777526492458 14.1973564258237 -1.5
v -15.3553580510569 12.8596171355297 -3.99999999999999
v -18.9731582999229 8.0310799783487 -1.5
v -17.2617554664612 7.24954660892986 -3.99999999999999
v -18.9731582999229 3.28779040336796 -1.5
v -17.2617554664612 2.93410774231457 -3.99999999999999
v -1.32836450172924e-15 17.175056002145 -3.99999999999999
v 54.6410149993777 14.6410173033774 0
v 54.6410149993776 14.6410173033774 20
v 40 40 20
v 40 40 0
v 54.6410141560552 -14.6410141560552 0
v 54.6410141560552 -14.6410141560552 20
v 39.9999976960002 -39.9999976960002 0
v 39.9999976960002 -39.9999976960002 20
v 14.6410141560552 -54.6410141560552 0
v 14.6410141560552 -54.6410141560552 20
v -14.6410173033774 -54.6410149993777 0
v -14.6410173033774 -54.6410149993777 20
v -40 -40 0
v -40 -40 20
v -54.6410149993776 -14.6410173033774 0
v -54.6410149993776 -14.6410173033774 20
v -54.6410141560552 14.6410141560552 0
v -54.6410141560552 14.6410141560552 20
v -39.9999976960002 39.9999976960002 0
v -39.9999976960002 39.9999976960002 20
v -14.6410141560552 54.6410141560552 0
v -14.6410141560552 54.6410141560552 20
v 14.6410173033774 54.6410149993776 20
v 14.6410173033775 54.6410149993776 0
v 31.4801241802436 -2.88841087809566 15
v 32.4029411565964 6.82198887383278 15
v 31.580851557341 14.7113939578624 15
v 28.0956112547555 24.9676205671009 15
v 10 33 15
v 10 45 15
v -10 45 15
v -10 33 15
v -28.0491488123105 24.9676205671009 15
v -31.534389114896 14.7113939578624 15
v -32.3564787141514 6.82198887383278 15
v -31.4801241802436 -3.11158912190434 15
v -28.3088548230907 -12 15
v -23.9754831186403 -17.6514870743214 15
v -16.3053811750266 -25 15
v -5.28645576894651 -30 15
v 5.28645576894651 -30 15
v 16.3053811750266 -25 15
v 24.4159583295511 -17.6514870743214 15
v 28.7510554549598 -12 15
vt 4.90000009536743 -0.335035145282745
vt 6 -0.528645575046539
vt 6 0.528645575046539
vt 4.90000009536743 0.335035145282745
vt 4.59999990463257 -0.734563410282135
vt 5.5 -1.63053810596466
vt 4.09999990463257 -0.940180122852325
vt 4.76514863967896 -2.39754819869995
vt 3.83575487136841 -1.46529448032379
vt 4.19999980926514 -2.83088541030884
vt 3.34999990463257 -1.79999995231628
vt 3.31115889549255 -3.14801239967346
vt 2.65000009536743 -2
vt 2.31780099868774 -3.23564791679382
vt 2.15000009536743 -2
vt 1.52886056900024 -3.15343880653381
vt 1.5 -1.7791188955307
vt 0.503237962722778 -2.80491495132446
vt 1 -1
vt -0.300000011920929 -1
vt -0.300000011920929 1
vt -1.5 1
vt -1.5 -1
vt 1 1
vt 1.5 1.7791188955307
vt 0.503237962722778 2.80956101417542
vt 2.15000009536743 2
vt 1.52886056900024 3.15808510780334
vt 2.65000009536743 2
vt 2.31780099868774 3.24029421806335
vt 3.34999990463257 1.79999995231628
vt 3.28884100914001 3.14801239967346
vt 3.83575487136841 1.4590630531311
vt 4.19999980926514 2.87510561943054
vt 4.09999990463257 0.940180122852325
vt 4.76514863967896 2.44159579277039
vt 4.59999990463257 0.734563410282135
vt 5.5 1.63053810596466
vt 0.275049418210983 0.0123330187052488
vt 0.105635650455952 0.118986003100872
vt 0.0500988475978374 0.293521225452423
vt 0.0500988475978374 0.415776997804642
vt 0.095088966190815 0.586935043334961
vt 0.170381158590317 0.705707669258118
vt 0.28850594162941 0.770318627357483
vt 0.334759533405304 0.892574429512024
vt 0.424633651971817 0.965927839279175
vt 0.575366318225861 0.965927839279175
vt 0.665240466594696 0.892574429512024
vt 0.711494088172913 0.770318627357483
vt 0.828217089176178 0.705707669258118
vt 0.904911041259766 0.586935043334961
vt 0.949901163578033 0.415776997804642
vt 0.949901163578033 0.293521225452423
vt 0.900213837623596 0.13458876311779
vt 0.724950551986694 0.0123330187052488
vt 0.5 0.0123330187052488
vt 3.98469829559326 0
vt 3.98469829559326 1
vt 4.93335771560669 1
vt 4.93335771560669 0
vt 5.71510744094849 1
vt 5.71510744094849 0
vt 6.77174043655396 1
vt 6.77174043655396 0
vt 8.81290531158447 1
vt 8.81290531158447 0
vt 10.2505540847778 1
vt 10.2505540847778 0
vt 9.38833236694336 0
vt 9.38833236694336 1
vt 11.1921215057373 1
vt 11.1921215057373 0
vt 13.2282600402832 1
vt 13.2282600402832 0
vt 14.2848930358887 0
vt 14.2848930358887 1
vt 15.0666427612305 1
vt 15.0666427612305 0
vt 16.0341987609863 0
vt 16.0341987609863 1
vt 16.918794631958 1
vt 16.918794631958 0
vt 17.5746421813965 0
vt 17.5746421813965 1
vt 18.5180110931396 1
vt 18.5180110931396 0
vt 19.5522747039795 0
vt 19.5522747039795 1
vt 20.4438571929932 1
vt 20.4438571929932 0
vt 1.47835421562195 0
vt 1.47835421562195 1
vt 2.45125532150269 1
vt 2.45125532150269 0
vt 0.443857043981552 0
vt 0.443857043981552 1
vt 3.10177493095398 0
vt 3.10177493095398 1
vt 0.837068140506744 0.875
vt 0.83795702457428 0.25
vt 0.786313712596893 0.25
vt 0.785369038581848 0.875
vt 11.922924041748 0.428571462631226
vt 11.9269428253174 0.214285731315613
vt 11.1833438873291 0.214285731315613
vt 11.1791639328003 0.428571462631226
vt 0.891376137733459 0.875
vt 0.89213103055954 0.25
vt 12.7098398208618 0.428571462631226
vt 12.7133417129517 0.214285731315613
vt 0.93357789516449 0.875
vt 0.933976888656616 0.25
vt 13.3408327102661 0.428571462631226
vt 13.342679977417 0.214285731315613
vt 0.973010540008545 0.875
vt 0.973162233829498 0.25
vt 13.924033164978 0.428571462631226
vt 13.9247360229492 0.214285716414452
vt 1.02698945999146 0.875
vt 1.02683782577515 0.25
vt 14.7197256088257 0.428571462631226
vt 14.7190237045288 0.214285731315613
vt 0.0664220973849297 0.875
vt 0.0660230591893196 0.25
vt 0.0268377792090178 0.25
vt 0.0269894599914551 0.875
vt 0.981046974658966 0.428571462631226
vt 0.979198932647705 0.214285731315613
vt 0.397144198417664 0.214285731315613
vt 0.397846102714539 0.428571462631226
vt 0.108623869717121 0.875
vt 0.107868999242783 0.25
vt 1.61203968524933 0.428571462631226
vt 1.60853826999664 0.214285716414452
vt 0.162630274891853 0.875
vt 0.161739617586136 0.25
vt 2.39476990699768 0.428571462631226
vt 2.3907425403595 0.214285731315613
vt 0.214630976319313 0.875
vt 0.213686302304268 0.25
vt 3.14271593093872 0.428571462631226
vt 3.13853573799133 0.214285731315613
vt 0.273171246051788 0.875
vt 0.272295713424683 0.25
vt 3.97536587715149 0.428571462631226
vt 3.97157454490662 0.214285731315613
vt 0.310095578432083 0.875
vt 0.309322446584702 0.25
vt 4.49649286270142 0.428571462631226
vt 4.49318265914917 0.214285731315613
vt 0.358470231294632 0.875
vt 0.357863336801529 0.25
vt 5.17714881896973 0.428571462631226
vt 5.17458009719849 0.214285731315613
vt 0.424359172582626 0.875
vt 0.423984110355377 0.25
vt 6.10410261154175 0.428571462631226
vt 6.10253810882568 0.214285731315613
vt 0.575640857219696 0.875
vt 0.576015949249268 0.25
vt 8.21777725219727 0.428571462631226
vt 8.21934223175049 0.214285731315613
vt 0.641529738903046 0.875
vt 0.642136693000793 0.25
vt 9.14473056793213 0.428571462631226
vt 9.14729976654053 0.214285731315613
vt 0.689904391765594 0.875
vt 0.690677523612976 0.25
vt 9.82538604736328 0.428571462631226
vt 9.82869720458984 0.214285731315613
vt 0.726828753948212 0.875
vt 0.727704286575317 0.25
vt 10.3465127944946 0.428571462631226
vt 10.3503046035767 0.214285731315613
vt 0.365931481122971 -0.00350112002342939
vt 0.205824807286263 0.0828076601028442
vt 0.160434395074844 0.19500906765461
vt 0.160434395074844 0.281317859888077
vt 0.201533809304237 0.402150124311447
vt 0.270314812660217 0.485999941825867
vt 0.378224283456802 0.531613290309906
vt 0.42047792673111 0.617922067642212
vt 0.502579808235168 0.669707357883453
vt 0.640277326107025 0.669707357883453
vt 0.722379207611084 0.617922067642212
vt 0.764632880687714 0.531613290309906
vt 0.871261775493622 0.485999941825867
vt 0.941323339939117 0.402150124311447
vt 0.982422769069672 0.281317859888077
vt 0.982422769069672 0.19500906765461
vt 0.937032341957092 0.0828076601028442
vt 0.776925683021545 -0.00350112002342939
vt 0.571428596973419 -0.00350112002342939
vt 1.16666662693024 0
vt 1.16666662693024 1
vt 1.5 1
vt 1.5 0
vt 0.833333313465118 0
vt 0.833333313465118 1
vt 0.5 0
vt 0.5 1
vt 0.166666656732559 0
vt 0.166666656732559 1
vt 3.83333325386047 0
vt 3.83333325386047 1
vt 4.16666650772095 1
vt 4.16666650772095 0
vt 3.5 0
vt 3.5 1
vt 3.16666674613953 0
vt 3.16666674613953 1
vt 2.83333349227905 0
vt 2.83333349227905 1
vt 2.5 0
vt 2.5 1
vt 2.16666674613953 0
vt 2.16666674613953 1
vt 1.83333325386047 1
vt 1.83333325386047 0
vt -2.46410131454468 -1.46410143375397
vt -0.999999761581421 -3.99999976158142
vt 1.53589856624603 -5.46410131454468
vt 4.46410179138184 -5.46410131454468
vt 7 -4
vt 8.46410179138184 -1.46410167217255
vt 8.46410179138184 1.46410143375397
vt 7 3.99999976158142
vt 4.46410131454468 5.46410131454468
vt 1.53589832782745 5.46410131454468
vt -2.46410155296326 1.46410167217255
vt -1 4
vn 0 0.317080012577782 0.948398790395514
vn 0 0 1
vn 0.306645407273879 0.0876129735068225 0.947782971503038
vn 0.46817907774225 0.0665677746732619 0.881122626278242
vn 0.4462525669374 -0.0726009409616031 0.891957257873532
vn 0.333795877819539 -0.259776567677226 0.906143723057509
vn 0.12021140742543 -0.417802211969337 0.900550125866587
vn -0.12021140742543 -0.417802211969337 0.900550125866587
vn -0.333795877819539 -0.259776567677226 0.906143723057509
vn -0.4462525669374 -0.0726009409616031 0.891957257873532
vn -0.46817907774225 0.0665677746732619 0.881122626278242
vn -0.306645407273879 0.0876129735068225 0.947782971503039
vn -0.981456036540749 0.191687371356918 0
vn -0.999989699447469 -0.00453883233440871 0
vn -0.976826651898492 -0.214031988592318 0
vn -0.738261748487561 -0.674514336927014 0
vn -0.405711813454607 -0.914001052747411 0
vn -1 0 0
vn 1 0 0
vn 0.406583740595953 -0.913613518881482 0
vn 0.738583464973946 -0.674162046741791 0
vn 0.976826651898492 -0.214031988592318 0
vn 0.999968663111768 -0.00791661508870669 0
vn 0.976901457852703 0.213690293755388 0
vn 0.878335618539175 0.478044497097712 0
vn 0.744856465421824 0.667224734193291 0
vn 0.560495928861797 0.828157179362319 0
vn 0.211383415728555 0.977403218510625 0
vn -0.211383415728555 0.977403218510625 0
vn -0.548911440578949 0.835880512035986 0
vn -0.735429591327284 0.677601148316754 0
vn -0.890353443037314 0.455269970975025 0
vn 0.577537911006137 0.669778417120494 0.466740648872832
vn 0.775214923896872 0.367648882127569 0.513688739644852
vn 0.717542793974871 0.494417151523474 0.490595575901525
vn 0.663225198649434 0.612119347017901 0.430630051067964
vn 0.706247813306426 0.537788215791688 0.460432254686273
vn 0.270878197071234 0.800651275438705 0.534399230435273
vn 0.521307438700502 0.694256875765853 0.496231745062082
vn -0.270878197071234 0.800651275438706 0.534399230435273
vn -0.173392892347425 0.512507990347647 0.840993736429238
vn -0.706247813306426 0.537788215791688 0.460432254686273
vn -0.521307438700502 0.694256875765854 0.496231745062082
vn -0.664739877189603 0.610528476100152 0.430552988080187
vn -0.576864223197313 0.67118935108205 0.465545403788951
vn -0.77383539555752 0.371233427364674 0.513190532832995
vn -0.713955643043143 0.501104350996516 0.489041684500629
vn -0.827123147807709 0.117604032191748 0.549578556689496
vn -0.533827215982155 0.0759019177006421 0.842180148404192
vn -0.798771195351745 -0.129952284181922 0.587432533413195
vn -0.509069963019196 -0.0828207187336285 0.856731288853208
vn -0.613472735596481 -0.477435020042311 0.629052465472451
vn -0.381787077213126 -0.297125707932096 0.87518851761144
vn -0.218729436929449 -0.760207741753793 0.611752909922074
vn -0.137368961296129 -0.477434355978697 0.867863010044575
vn 0.218729436929449 -0.760207741753793 0.611752909922074
vn 0.137368961296129 -0.477434355978697 0.867863010044575
vn 0.613472735596481 -0.477435020042311 0.62905246547245
vn 0.381787077213126 -0.297125707932096 0.87518851761144
vn 0.798771195351745 -0.129952284181922 0.587432533413195
vn 0.509069963019196 -0.0828207187336284 0.856731288853208
vn 0.827123147807709 0.117604032191748 0.549578556689496
vn 0.533827215982155 0.0759019177006421 0.842180148404192
vn -0.965925831879559 -0.258819024238524 0
vn -0.707106781186548 -0.707106781186547 0
vn -0.965925820698577 0.258819065966517 0
vn -0.707106781186547 0.707106781186548 0
vn -0.258819065966517 0.965925820698577 0
vn 0.258819024238524 0.965925831879559 0
vn 0.707106781186547 0.707106781186547 0
vn 0.965925831879559 0.258819024238524 0
vn 0.965925820698577 -0.258819065966517 0
vn 0.707106781186548 -0.707106781186548 0
vn 0.500000012470765 -0.866025396584439 0
vn -0.499999987529235 -0.866025410984438 0
g DDpd_ground g1
f 1/1/1 2/2/2 3/3/2 4/4/1
f 5/5/2 6/6/2 2/2/2 1/1/1
f 7/7/2 8/8/2 6/6/2 5/5/2
f 9/9/2 10/10/2 8/8/2 7/7/2
f 11/11/3 12/12/2 10/10/2 9/9/2
f 13/13/4 14/14/2 12/12/2 11/11/3
f 15/15/5 16/16/2 14/14/2 13/13/4
f 17/17/6 18/18/2 16/16/2 15/15/5
f 19/19/7 20/20/2 18/18/2 17/17/6
f 20/20/2 21/21/2 22/22/2 23/23/2
f 20/20/2 19/19/7 24/24/8 21/21/2
f 25/25/9 26/26/2 21/21/2 24/24/8
f 27/27/10 28/28/2 26/26/2 25/25/9
f 29/29/11 30/30/2 28/28/2 27/27/10
f 31/31/12 32/32/2 30/30/2 29/29/11
f 33/33/2 34/34/2 32/32/2 31/31/12
f 35/35/2 36/36/2 34/34/2 33/33/2
f 37/37/2 38/38/2 36/36/2 35/35/2
f 4/4/1 3/3/2 38/38/2 37/37/2
g DDpd_water g1
f 39/39/2 40/40/2 41/41/2 42/42/2 43/43/2 44/44/2 45/45/2 46/46/2 47/47/2 48/48/2 49/49/2 50/50/2 51/51/2 52/52/2 53/53/2 54/54/2 55/55/2 56/56/2 57/57/2
g DDpd_fence g1
f 32/58/13 58/59/13 59/60/14 30/61/14
f 30/61/14 59/60/14 60/62/15 28/63/15
f 28/63/15 60/62/15 61/64/16 26/65/16
f 26/65/16 61/64/16 62/66/17 21/67/17
f 21/67/18 62/66/18 63/68/18 22/69/18
f 23/70/19 64/71/19 65/72/19 20/73/19
f 20/73/20 65/72/20 66/74/21 18/75/21
f 16/76/22 67/77/22 68/78/23 14/79/23
f 18/75/21 66/74/21 67/77/22 16/76/22
f 12/80/24 69/81/24 70/82/25 10/83/25
f 14/79/23 68/78/23 69/81/24 12/80/24
f 8/84/26 71/85/26 72/86/27 6/87/27
f 10/83/25 70/82/25 71/85/26 8/84/26
f 2/88/28 73/89/28 74/90/29 3/91/29
f 6/87/27 72/86/27 73/89/28 2/88/28
f 38/92/30 75/93/30 76/94/31 36/95/31
f 3/96/29 74/97/29 75/93/30 38/92/30
f 34/98/32 77/99/32 58/59/13 32/58/13
f 36/95/31 76/94/31 77/99/32 34/98/32
g DDpd_pond g1
f 78/100/33 79/101/33 80/102/34 81/103/34
f 9/104/33 78/105/33 81/106/34 11/107/35
f 82/108/36 83/109/36 79/101/33 78/100/33
f 7/110/36 82/111/36 78/105/33 9/104/33
f 84/112/37 85/113/37 83/109/36 82/108/36
f 5/114/37 84/115/37 82/111/36 7/110/36
f 86/116/38 87/117/38 85/113/37 84/112/37
f 1/118/39 86/119/38 84/115/37 5/114/37
f 88/120/40 89/121/41 87/117/38 86/116/38
f 4/122/1 88/123/40 86/119/38 1/118/1
f 90/124/42 91/125/42 89/126/41 88/127/40
f 37/128/42 90/129/42 88/130/40 4/131/43
f 92/132/44 93/133/44 91/125/42 90/124/42
f 35/134/44 92/135/44 90/129/42 37/128/42
f 94/136/45 95/137/45 93/133/44 92/132/44
f 33/138/45 94/139/45 92/135/44 35/134/44
f 96/140/46 97/141/46 95/137/45 94/136/45
f 31/142/47 96/143/46 94/139/45 33/138/45
f 98/144/48 99/145/49 97/141/46 96/140/46
f 29/146/11 98/147/48 96/143/46 31/142/12
f 100/148/50 101/149/51 99/145/49 98/144/48
f 27/150/10 100/151/50 98/147/48 29/146/11
f 102/152/52 103/153/53 101/149/51 100/148/50
f 25/154/9 102/155/52 100/151/50 27/150/10
f 104/156/54 105/157/55 103/153/53 102/152/52
f 24/158/8 104/159/54 102/155/52 25/154/9
f 105/157/55 104/156/54 106/160/56 107/161/57
f 104/159/54 24/158/8 19/162/7 106/163/56
f 108/164/58 109/165/59 107/161/57 106/160/56
f 17/166/6 108/167/58 106/163/56 19/162/7
f 110/168/60 111/169/61 109/165/59 108/164/58
f 15/170/5 110/171/60 108/167/58 17/166/6
f 112/172/62 113/173/63 111/169/61 110/168/60
f 13/174/4 112/175/62 110/171/60 15/170/5
f 81/103/34 80/102/34 113/173/63 112/172/62
f 11/107/3 81/106/34 112/175/62 13/174/4
f 107/176/57 109/177/59 111/178/61 113/179/63 80/180/2 79/181/2 83/182/2 85/183/2 87/184/2 89/185/41 91/186/2 93/187/2 95/188/2 97/189/2 99/190/49 101/191/51 103/192/53 105/193/55 114/194/2
g DDpd_outsidebackground g1
f 115/195/64 116/196/64 117/197/65 118/198/65
f 119/199/66 120/200/66 116/196/64 115/195/64
f 121/201/67 122/202/67 120/200/66 119/199/66
f 123/203/68 124/204/68 122/202/67 121/201/67
f 125/205/69 126/206/69 124/207/68 123/208/68
f 127/209/70 128/210/70 126/206/69 125/205/69
f 129/211/71 130/212/71 128/210/70 127/209/70
f 131/213/72 132/214/72 130/212/71 129/211/71
f 133/215/73 134/216/73 132/214/72 131/213/72
f 135/217/74 136/218/74 134/216/73 133/215/73
f 118/198/65 117/197/65 137/219/75 138/220/75
g MMpd_outsideground g1
f 23/23/2 135/221/2 133/222/2 18/18/2 20/20/2
f 18/18/2 133/222/2 131/223/2 16/16/2
f 16/16/2 131/223/2 14/14/2
f 14/14/2 131/223/2 129/224/2
f 129/224/2 12/12/2 14/14/2
f 10/10/2 12/12/2 129/224/2
f 127/225/2 10/10/2 129/224/2
f 8/8/2 10/10/2 127/225/2
f 6/6/2 8/8/2 127/225/2
f 6/6/2 127/225/2 125/226/2
f 125/226/2 2/2/2 6/6/2
f 2/2/2 125/226/2 123/227/2
f 3/3/2 2/2/2 123/227/2
f 38/38/2 3/3/2 123/227/2
f 38/38/2 123/227/2 121/228/2
f 36/36/2 38/38/2 121/228/2
f 119/229/2 36/36/2 121/228/2
f 119/229/2 34/34/2 36/36/2
f 32/32/2 34/34/2 119/229/2
f 119/229/2 115/230/2 30/30/2
f 30/30/2 32/32/2 119/229/2
f 138/231/2 22/22/2 21/21/2 26/26/2
f 138/231/2 26/26/2 118/232/2
f 26/26/2 28/28/2 115/230/2 118/232/2
f 28/28/2 30/30/2 115/230/2
g collision_DDpd_floor collision
f 4//1 3//2 38//2 37//2
f 37//2 38//2 36//2 35//2
f 35//2 36//2 34//2 33//2
f 33//2 34//2 32//2 31//12
f 31//12 32//2 30//2 29//11
f 29//11 30//2 28//2 27//10
f 27//10 28//2 26//2 25//9
f 25//9 26//2 21//2 24//8
f 20//2 19//7 24//8 21//2
f 20//2 21//2 22//2 23//2
f 19//7 20//2 18//2 17//6
f 17//6 18//2 16//2 15//5
f 15//5 16//2 14//2 13//4
f 13//4 14//2 12//2 11//3
f 11//3 12//2 10//2 9//2
f 9//2 10//2 8//2 7//2
f 7//2 8//2 6//2 5//2
f 5//2 6//2 2//2 1//1
f 1//1 2//2 3//2 4//1
g collision_DDpd_pond collision
f 97//2 99//49 101//51 103//53 105//55 107//57 109//59 111//61 113//63 80//2 79//2 83//2 93//2 95//2
f 97//2 99//49 101//51 103//53 105//55 107//57 109//59 111//61 113//63 80//2 79//2 83//2 93//2 95//2
f 93//2 83//2 85//2 87//2 89//41 91//2
f 93//2 83//2 85//2 87//2 89//41 91//2
f 9//33 79//33 80//34 11//35
f 7//36 83//36 79//33 9//33
f 5//37 85//37 83//36 7//36
f 1//39 87//38 85//37 5//37
f 4//1 89//41 87//38 1//1
f 37//42 91//42 89//41 4//43
f 35//44 93//44 91//42 37//42
f 33//45 95//45 93//44 35//44
f 31//47 97//46 95//45 33//45
f 29//11 99//49 97//46 31//12
f 27//10 101//51 99//49 29//11
f 25//9 103//53 101//51 27//10
f 24//8 105//55 103//53 25//9
f 105//55 24//8 19//7 107//57
f 17//6 109//59 107//57 19//7
f 15//5 111//61 109//59 17//6
f 13//4 113//63 111//61 15//5
f 11//3 80//34 113//63 13//4
g collision_DDpd_fence collision
f 32//13 139//13 140//14 30//14
f 30//14 140//14 141//15 28//15
f 28//15 141//15 142//16 26//16
f 26//16 142//16 143//17 21//17
f 21//18 143//18 144//18 22//18
f 23//19 145//19 146//19 20//19
f 20//20 146//20 147//21 18//21
f 16//22 148//22 149//23 14//23
f 18//21 147//21 148//22 16//22
f 12//24 150//24 151//25 10//25
f 14//23 149//23 150//24 12//24
f 8//26 152//26 153//27 6//27
f 10//25 151//25 152//26 8//26
f 2//28 154//28 155//29 3//29
f 6//27 153//27 154//28 2//28
f 38//30 156//30 157//31 36//31
f 3//29 155//29 156//30 38//30
f 34//32 158//32 139//13 32//13
f 36//31 157//31 158//32 34//32
