v -5.66000012040138 -6.16000012040138 0.025000000372529
v 6.66000012040138 -6.16000012040138 0.025000000372529
v 6.66000012040138 6.16000012040138 0.025000000372529
v -5.66000012040138 6.16000012040138 0.025000000372529
v 6.96312897989481 0 0
v 6.96312897989481 0 23.1396235587866
v -6.96207818755591 0 23.1396235587866
v -6.96207818755591 0 0
v 2.5 -2 -5
v 2.5 -2 5
v -1.5 -2 5
v -1.5 -2 -5
v 2.5 2 -5
v 2.5 2 5
v -1.5 2 -5
v -1.5 2 5
v 8.3611966880724 -7.32441916829251 0.025000000372529
v 8.3611966880724 -7.32441916829251 26.0633134874174
v -7.36119668807239 -7.32441916829251 26.0633134874174
v -7.36119668807239 -7.32441916829251 0.025000000372529
v 8.3611966880724 7.32441916829251 0.025000000372529
v 8.3611966880724 7.32441916829251 26.0633134874174
v -7.36119668807239 7.32441916829251 0.025000000372529
v -7.36119668807239 7.32441916829251 26.0633134874174
vt 0 0
vt 1 0
vt 1 1
vt 0 1
vn 0 0 1
vn 0 -1 0
vn 1 0 0
vn 0 1 0
vn -1 0 0
g shadow_small prop_tree_small
f 1/1/1 2/2/1 3/3/1 4/4/1
g small_leaves prop_leaves_small prop_tree_small
f 5/2/2 6/3/2 7/4/2 8/1/2
g prop_tree_small_collide prop_tree_small
f 9//2 10//2 11//2 12//2
f 13//3 14//3 10//3 9//3
f 15//4 16//4 14//4 13//4
f 12//5 11//5 16//5 15//5
g prop_tree_small_camera_collision Default
f 17//2 18//2 19//2 20//2
f 21//3 22//3 18//3 17//3
f 23//4 24//4 22//4 21//4
f 20//5 19//5 24//5 23//5
