v -0.0896372334907633 -4.49945959969261 14.5605305091337
v 1.4320865110894 -3.06860544372392 14.7019143564553
v -0.0896372334907633 -4.8553266149451 18.3779299075351
v 1.47630695690984 -3.20509716755426 19.2084974818144
v -0.0896372334907633 -4.27451730016834 21.100058535223
v 1.4609849604225 -1.8404900505018 20.3085253366188
v -0.118420168944925 -2.42154581999571 22.7342971738323
v -0.104028702530437 -0.148659712881113 22.534429581454
v 1.41933633847454 1.10753453872542 18.8971267706212
v -0.0896372361159494 1.44263277093502 21.0293616832467
v -0.0608542980365998 -2.42154581999571 22.7342971738323
v -0.0752457670762756 -0.148659712881113 22.534429581454
v -1.64025942477883 -1.8404900505018 20.3085253366188
v -1.59861081070644 1.10753453872542 18.8971267706212
v -1.65558142389137 -3.20509716755426 19.2084974818144
v -1.61136097807092 -3.06860544372392 14.7019143564553
v -8.42893758453362 0.576896324039109 15.6268550666912
v -6.69294309305386 -0.425607948933807 15.1759134960314
v -7.81656641756789 -0.00153402803940095 18.4195598120178
v -5.34202896885361 -1.18639904385636 19.2397400933717
v -5.76199934689758 -0.408001150925967 21.5507408098359
v -2.8862694151375 -0.836940453676428 20.5382403086781
v -3.22523130560507 0.143291631650327 22.7456538809552
v -1.18400902481587 0.80978208215788 22.3148610125696
v -0.5375182854931 0.226537817823667 19.1648222894378
v -3.21057038284575 0.0904407019573887 22.7314925170248
v -1.17667856343621 0.783356617311402 22.3077803306044
v -3.67609685406614 2.01029604907603 21.3011550302511
v -1.30613151669606 2.99729955705626 19.9072456598842
v -6.13966084547143 1.68897155348034 20.0101933228683
v -7.46805077155475 2.36856552114085 15.9246100208503
v 5.46655484412806 7.3154031439772 17.7852248209834
v 3.71319738182423 7.21079063336303 17.6336713385545
v 5.01826803681889 6.1454676664517 20.4194362456276
v 2.48229561891534 6.03092640240566 21.3696123369314
v 3.87683856212883 4.97003850418098 22.7164407381781
v 1.16781216807548 4.71163530465452 22.0249767022658
v 2.22043785608389 3.11919199925609 23.5430439812107
v 0.718828976293498 1.84043859398898 22.5910245925886
v -0.530378783427565 3.42991942975509 20.0231658054035
v 2.18038347021959 3.15788156501859 23.5534108191123
v 0.698801783361342 1.85978337687021 22.5962080115394
v 3.32566086044055 2.627313523475 21.4664843642322
v 1.5695116155886 1.40158106096893 19.4796741775102
v 4.58831983516675 3.9625823335822 20.8056014280844
v 5.53824455520548 5.38475348220741 17.0855874429368
v 7.90806640186828 0.267876904715679 15.7800052050698
v 6.71192591912691 2.21312505899743 16.0711747547546
v 7.18489411040688 -0.218413294905716 18.3948299155344
v 5.67121617825959 1.74267501138034 20.2019918497609
v 5.80337997950981 -0.442218379228703 21.6870745311976
v 4.45218946278318 1.8433964978209 21.2877721632373
v 3.84844231067254 -0.263600480003342 23.1771573294616
v 1.28202150092496 0.610739935169787 22.6425056024152
v 1.46170181476216 3.08882474459978 19.5288988619786
v 3.86694186747701 -0.196911718861041 23.1950265291539
v 1.29127127932717 0.64408431574093 22.6514402022613
v 3.58622746571089 -1.22870145003871 20.4646059990391
v 0.622508490257427 0.113224763141509 18.7315892499488
v 4.79540632640166 -1.36492331319138 19.3693133882916
v 5.86453772185232 -0.792016490322055 15.2659495034732
v -3.88983237736932 8.15501063939121 17.6763257220722
v -4.71269535241464 6.3877963906946 17.0047234867044
v -3.57284573600456 7.06569524741241 19.7698574014364
v -4.17169152834324 4.92205991043684 20.2811826873317
v -2.88050058806046 5.67115056101861 22.2646083634038
v -3.28719682187473 3.07728951121888 21.5973992185675
v -1.68441743662684 3.30306253030683 23.770733365524
v -0.641964396153992 1.89342893504055 22.7309788000262
v -2.03041106663084 1.72844243200146 19.4342743118993
v -1.7334738402909 3.27873607387241 23.7642151111677
v -0.666492597986019 1.88126570682331 22.727719672848
v -0.276808459674836 4.66170820014065 22.0219429267369
v 0.908993173035372 3.27766098321687 19.8493861715968
v -1.13518900866936 6.51942828312394 20.7091962528082
v -1.75156026855448 7.94779099549497 17.4227227812576
v -0.18001452796734 0.971394762536939 0
v -0.163706665699722 2.21213122078924 7.13896775437698
v 0.613802684422439 1.12202955367128 7.13896775437698
v 0.597494822154821 -0.118706904581028 0
v -0.735315589338183 -0.246998919907764 0
v -0.719007727070565 0.993737538344541 7.13896775437698
v -0.136913051231548 1.93377556292728 12.9189276907456
v 0.359342806192764 1.23800343181361 12.9189276907456
v -0.491341463309063 1.15611931806417 12.9189276907456
v -0.133859299399543 1.90205050018315 17.6203538517621
v 0.330341220003684 1.25122133652231 17.6203538517621
v -0.465393628951989 1.1746264760996 17.6203538517621
v -0.19474601483139 2.53459530854476 19.4168356527721
v 0.908584450792721 0.987678374658478 19.4168356527721
v -0.19474601483139 2.53459530854476 20.8423304984093
v 0.908584450792721 0.987678374658478 20.8423304984093
v -0.982750144309179 0.805624629601826 19.4168356527721
v -0.982750144309179 0.805624629601826 20.8423304984093
v -1 1.25 0
v -1.36467742919922 2.52350807189941 15.0317866050321
v 1.36467742919922 2.52350807189941 15.0317866050321
v 1 1.25 0
v -1 -1.25 0
v -1.36467742919922 0.476491928100586 15.0317866050321
v 1 -1.25 0
v 1.36467742919922 0.476491928100586 15.0317866050321
vt 0.499703794717789 0.00681686028838158
vt 0.982705295085907 0.0709646791219711
vt 0.496582418680191 0.170688882470131
vt 0.991699695587158 0.337498277425766
vt 0.493461042642593 0.33456090092659
vt 0.981647253036499 0.609284281730652
vt 0.479101359844208 0.607600510120392
vt 0.480038464069366 0.798824727535248
vt 0.962484657764435 0.919544577598572
vt 0.480975538492203 0.990048944950104
vt 0.497417598962784 0.607685506343842
vt 0.489196568727493 0.798867225646973
vt -0.00510361837223172 0.604705393314362
vt 0.00223720632493496 0.915088653564453
vt -0.00480144983157516 0.332874149084091
vt 0.0143441548570991 0.066471129655838
vt 0.340459078550339 0.00141878693830222
vt 0.33523878455162 0.322335213422775
vt 0.241764292120934 0.3204165995121
vt 0.120242550969124 -0.000499816960655153
vt 0.560630202293396 -0.000918969919439405
vt 0.425944685935974 0.319997429847717
vt 0.780936002731323 -0.000499816960655153
vt 0.337285816669464 0.580293357372284
vt 0.219002857804298 0.578374743461609
vt 0.456461846828461 0.577955603599548
vt 0.33951336145401 0.790116846561432
vt 0.193932324647903 0.788198232650757
vt 0.486287623643875 0.787779092788696
vt 0.340533316135406 0.870887935161591
vt 0.162747278809547 0.86816531419754
vt 0.341250449419022 0.934507369995117
vt 0.156206429004669 0.931784808635712
vt 0.518083035945892 0.867570519447327
vt 0.524223148822784 0.931190013885498
vt 0.823440790176392 0.86816531419754
vt 0.81689989566803 0.931784808635712
vn 0.686779221756875 -0.723728137197581 -0.067467651445273
vn 0.709904319869025 -0.702683293985793 -0.0476659730265969
vn 0.702218286212294 -0.711693674656865 0.0195343789887973
vn 0.766245113951665 -0.611096440171694 0.198568794513846
vn 0.766801008216524 -0.561677801917003 0.310699630884569
vn 0.866644602120973 -0.0359801741313098 0.497626929219129
vn 0.841830385862812 -0.167815186223709 0.512990901196865
vn 0.834730927068893 0.239053484511143 0.496062204706009
vn 0.822789631502821 0.333905757813995 0.459917565646404
vn 0.753566013333603 0.341107104620257 0.561946800619137
vn -0.841830386142113 -0.167815186373266 0.5129909006896
vn -0.83473092754986 0.239053483076841 0.496062204587873
vn -0.866644602321964 -0.0359801750291633 0.497626928804175
vn -0.822789632003031 0.333905756228922 0.459917565902312
vn -0.694186881067045 0.454278628187113 0.558332787974021
vn -0.766801008433379 -0.561677801610821 0.310699630902884
vn -0.766245114105527 -0.611096439975836 0.198568794522874
vn -0.702218286212294 -0.711693674656864 0.0195343789887973
vn -0.709904319869025 -0.702683293985793 -0.0476659730265968
vn -0.686779221756876 -0.72372813719758 -0.067467651445273
vn -0.511674862085715 -0.856698395223181 -0.0652433531602275
vn -0.468497918406716 -0.882216167036033 -0.046950346844564
vn -0.47449893344238 -0.879509853092206 0.0362378321063689
vn -0.315378022613345 -0.930846484903625 0.184557645181829
vn -0.252200676688928 -0.923076743549968 0.290386198354594
vn 0.29802730459949 -0.884919016604928 0.357907892849724
vn 0.17780217112206 -0.898956479127559 0.400329410084825
vn 0.534077043263415 -0.782160018095878 0.32091652801198
vn 0.612659241402805 -0.745061494052666 0.26368925651939
vn 0.445801679187201 -0.863038470505759 0.237540441316741
vn -0.248496255321637 0.54284293078808 0.802228872320444
vn 0.126299659395257 0.687830249397225 0.714799233387105
vn -0.136507907148122 0.619556840034346 0.772990888208067
vn 0.204865296560035 0.724988473397889 0.657587958911633
vn -0.636841999438141 0.375170326045769 0.673557342923631
vn -0.706857578446635 0.417552048862407 0.570966417824521
vn -0.830931657228163 0.391660204957557 0.395164351717945
vn -0.837884610984045 0.44938010690929 0.309849799403374
vn -0.865320092869474 0.418151730872258 0.276351708597757
vn -0.0884983716599628 0.915831768900661 0.391688919023531
vn -0.00492041606267974 0.933249457146686 0.359195267565132
vn 0.0480068955200062 0.909980155070335 0.41186339405281
vn -0.00714757625960923 0.830628937844741 0.556780459219368
vn -0.0515261194439553 0.74809240602555 0.66159112075507
vn -0.602175796014961 0.37432575879232 0.705169863932303
vn -0.472710942284778 0.434446397809905 0.766681610888271
vn -0.798748913260127 0.171951440134262 0.576569922734025
vn -0.856291635769557 0.133205089639242 0.499020078358875
vn 0.593828685238135 -0.640584282840141 0.486846247974173
vn 0.315319614984835 -0.90415612175192 0.288227770876337
vn 0.5267730268073 -0.744829977697058 0.409558887770826
vn 0.257822137731844 -0.942946175805554 0.210666216629681
vn 0.839334394215873 -0.283321525008291 0.46394685919106
vn 0.89432384491769 -0.243930292490085 0.375077155819095
vn 0.963509702808471 -0.096749114165462 0.249576965087187
vn 0.980767870276006 -0.0895759545213834 0.173408572469326
vn 0.987103503574429 -0.0208633695137062 0.158717966984274
vn 0.828744737686715 0.462418262306251 0.315200746259025
vn 0.847978020665919 0.443015391532129 0.290982197622372
vn 0.856957671043237 0.401291650114544 0.3234015485252
vn 0.792399878482796 0.410093675093299 0.451581233255903
vn 0.742487542013283 0.397162381192167 0.539420330466734
vn 0.213887357353267 0.665482895142693 0.71511167983535
vn 0.338316897692012 0.581615033637897 0.739774039408278
vn -0.0705512151573521 0.743941626212222 0.664509881663572
vn -0.138557686139493 0.77876891415183 0.611817575722085
vn -0.10557396327561 -0.929140751058992 0.354332616336418
vn -0.512731576210985 -0.818059574784091 0.260547237291575
vn -0.24477121037598 -0.919375911950915 0.307952897527368
vn -0.583763281960968 -0.785367633916366 0.205956573652719
vn -0.480546842109999 -0.855812731354175 0.191466188634479
vn 0.319494084477929 -0.917905493810073 0.235314756054302
vn 0.358973951974191 -0.920849367341985 0.152230563520924
vn 0.457827605911758 -0.888531658265403 0.0300894587063532
vn 0.447496573501293 -0.893937318798121 -0.0249576995059236
vn 0.46708089966047 -0.883516349210032 -0.0351325184258637
vn -0.903831037332819 0.307946437939806 0.297083232973633
vn -0.902265506919715 0.314667674046946 0.294790111660472
vn -0.884265677979811 0.322452130540526 0.337785189516622
vn -0.872043965628214 0.21714962897769 0.438617556244924
vn -0.846403474784682 0.161277756026245 0.507533883877279
vn -0.666714733736151 -0.580009672614149 0.468060085344992
vn -0.725007941768764 -0.401688281784266 0.559472974011636
vn -0.432448146371843 -0.852473650534188 0.293729936922458
vn -0.38031693395732 -0.901780846790098 0.205305465362801
vn 0.559318005088578 0.36781591810946 0.742882776465459
vn 0.853982121479148 -0.0627907889722628 0.516499615696096
vn 0.694699483830096 0.248108447566987 0.675155408340996
vn 0.89473631858011 -0.126862224303214 0.428197263254393
vn 0.162627372486463 0.768076757468584 0.619362924588399
vn 0.127744065646934 0.827585494244124 0.546611108018032
vn 0.067773946612412 0.895601527882782 0.439664184821331
vn 0.0972915326536554 0.904423958953097 0.415393379997213
vn 0.138214958628967 0.886999595597179 0.440599980278749
vn 0.809867712372886 0.577633937939683 -0.102241489602817
vn 0.813511296045803 0.58023270506306 -0.0391072778531176
vn -0.907726844081658 0.413710024285379 -0.0698283061468902
vn -0.909710470968178 0.414614091773022 -0.0228476238171119
vn 0.0944150038389713 -0.980866188727713 0.170256649975432
vn 0.0953575674009848 -0.990658368901562 0.0974829752554951
vn 0.814056710970311 0.580621719424098 0.0137873223362486
vn -0.909861514495426 0.414682932109444 0.0137873223362486
vn 0.0958048035251139 -0.995304651533545 0.0137873223362486
vn 0.811136989481932 0.5785392432428 -0.085727057118721
vn -0.906598176475456 0.413195617219182 -0.0857270571187212
vn 0.0954611869935223 -0.991734860461984 -0.0857270571187214
vn 0.811017540151708 0.578454046628653 -0.0874154763483503
vn 0.814134094127606 0.580676912558974 0
vn -0.906464669378176 0.413134769371818 -0.0874154763483505
vn -0.909948004730989 0.414722351322053 0
vn 0.0954471292264657 -0.991588816000472 -0.0874154763483508
vn 0.0958139106033804 -0.995399263881026 0
vn 0 0.996430380289099 -0.0844185834808994
vn -0.999705845895473 0 -0.0242532818896288
vn 0 -0.993468592404812 0.114105897766947
vn 0.999705845895473 0 -0.0242532818896288
g o80 g64
f 1/1/1 2/2/2 3/3/3
f 2/2/2 4/4/4 3/3/3
f 4/4/4 5/5/5 3/3/3
f 4/4/4 6/6/6 7/7/7 5/5/5
f 6/6/6 8/8/8 7/7/7
f 6/6/6 9/9/9 8/8/8
f 9/9/9 10/10/10 8/8/8
f 11/11/11 12/12/12 13/13/13
f 12/12/12 14/14/14 13/13/13
f 12/12/12 10/10/15 14/14/14
f 5/5/16 11/11/11 13/13/13 15/15/17
f 5/5/16 15/15/17 3/3/18
f 15/15/17 16/16/19 3/3/18
f 16/16/19 1/1/20 3/3/18
g o158 g64
f 17/1/21 18/2/22 19/3/23
f 18/2/22 20/4/24 19/3/23
f 20/4/24 21/5/25 19/3/23
f 20/4/24 22/6/26 23/7/27 21/5/25
f 22/6/26 24/8/28 23/7/27
f 22/6/26 25/9/29 24/8/28
f 25/9/29 10/10/30 24/8/28
f 26/11/31 27/12/32 28/13/33
f 27/12/32 29/14/34 28/13/33
f 27/12/32 10/10/10 29/14/34
f 21/5/35 26/11/31 28/13/33 30/15/36
f 21/5/35 30/15/36 19/3/37
f 30/15/36 31/16/38 19/3/37
f 31/16/38 17/1/39 19/3/37
g o160 g64
f 32/1/40 33/2/41 34/3/42
f 33/2/41 35/4/43 34/3/42
f 35/4/43 36/5/44 34/3/42
f 35/4/43 37/6/45 38/7/46 36/5/44
f 37/6/45 39/8/47 38/7/46
f 37/6/45 40/9/48 39/8/47
f 40/9/48 10/10/15 39/8/47
f 41/11/49 42/12/50 43/13/51
f 42/12/50 44/14/52 43/13/51
f 42/12/50 10/10/30 44/14/52
f 36/5/53 41/11/49 43/13/51 45/15/54
f 36/5/53 45/15/54 34/3/55
f 45/15/54 46/16/56 34/3/55
f 46/16/56 32/1/57 34/3/55
g o161 g64
f 47/1/58 48/2/59 49/3/60
f 48/2/59 50/4/61 49/3/60
f 50/4/61 51/5/62 49/3/60
f 50/4/61 52/6/63 53/7/64 51/5/62
f 52/6/63 54/8/65 53/7/64
f 52/6/63 55/9/66 54/8/65
f 55/9/66 10/10/15 54/8/65
f 56/11/67 57/12/68 58/13/69
f 57/12/68 59/14/70 58/13/69
f 57/12/68 10/10/71 59/14/70
f 51/5/72 56/11/67 58/13/69 60/15/73
f 51/5/72 60/15/73 49/3/74
f 60/15/73 61/16/75 49/3/74
f 61/16/75 47/1/76 49/3/74
g o159 g64
f 62/1/77 63/2/78 64/3/79
f 63/2/78 65/4/80 64/3/79
f 65/4/80 66/5/81 64/3/79
f 65/4/80 67/6/82 68/7/83 66/5/81
f 67/6/82 69/8/84 68/7/83
f 67/6/82 70/9/85 69/8/84
f 70/9/85 10/10/71 69/8/84
f 71/11/86 72/12/87 73/13/88
f 72/12/87 74/14/89 73/13/88
f 72/12/87 10/10/10 74/14/89
f 66/5/90 71/11/86 73/13/88 75/15/91
f 66/5/90 75/15/91 64/3/92
f 75/15/91 76/16/93 64/3/92
f 76/16/93 62/1/94 64/3/92
g o162 g2
f 77/17/95 78/18/96 79/19/96 80/20/95
f 81/21/97 82/22/98 78/18/98 77/17/97
f 80/23/99 79/19/100 82/22/100 81/21/99
f 78/18/96 83/24/101 84/25/101 79/19/96
f 82/22/98 85/26/102 83/24/102 78/18/98
f 79/19/100 84/25/103 85/26/103 82/22/100
f 83/24/101 86/27/104 87/28/104 84/25/101
f 85/26/102 88/29/105 86/27/105 83/24/102
f 84/25/103 87/28/106 88/29/106 85/26/103
f 86/27/104 89/30/107 90/31/107 87/28/104
f 89/30/107 91/32/108 92/33/108 90/31/107
f 88/29/105 93/34/109 89/30/109 86/27/105
f 93/34/109 94/35/110 91/32/110 89/30/109
f 87/28/106 90/36/111 93/34/111 88/29/106
f 90/36/111 92/37/112 94/35/112 93/34/111
g o164 palm_tree_collisions
f 95//113 96//113 97//113 98//113
f 99//114 100//114 96//114 95//114
f 101//115 102//115 100//115 99//115
f 98//116 97//116 102//116 101//116
