v 6.15817993644654 0 -3.50363999214072
v -6.26708003166779 0 -3.50354988118169
v -6.26197023967433 0 3.53192006509135
v -5.70843013252799 0 5.00709003037981
v -2.19098989731996 0 5.00709003037981
v -1.61584994298579 0 3.53192006509135
v 6.15817993644654 0 3.53192006509135
v -6.26197023967433 -0.000999999975692726 3.53192006509135
v -6.26708003166779 -0.000999999975692726 -3.50354988118169
v 6.15817993644654 -0.000999999975692726 -3.5037498774491
v -2.19098989731996 -0.000999999975692726 5.00709003037981
v -5.70843013252799 -0.000999999975692726 5.00709003037981
v -1.61584994298579 -0.000999999975692726 3.53192006509135
v 6.15817993644654 -0.000999999975692726 3.53192006509135
vn 0 1 0
vn 1.17427977064377e-11 -1 0
vn 0 -1 0
g TheCardBack card
f 1//1 2//1 3//1
f 3//1 4//1 5//1
f 3//1 5//1 6//1
f 6//1 7//1 1//1
f 6//1 1//1 3//1
g TheCardFront card
f 8//2 9//2 10//2
f 11//3 12//3 8//3
f 13//3 11//3 8//3
f 10//3 14//3 13//3
f 10//3 13//3 8//3
