v -1.60000002384186 -1.60000002384186 0.025
v 1.60000002384186 -1.60000002384186 0.025
v 1.60000002384186 1.60000002384186 0.025
v -1.60000002384186 1.60000002384186 0.025
v 0.710462996550178 -0.318334071620308 0
v 0.528193124422158 0.571868636755268 0
v 0.440458870017224 0.475883522116317 0.201023411971727
v 0.592064352205526 -0.264554868896661 0.201023411971727
v -0.374764450252134 0.673607452470289 0
v -0.310588557107362 0.560506186485716 0.201023411971727
v -0.750553049671999 -0.153717209818242 0
v -0.623155912045213 -0.1276325217284 0.201023411971727
v -0.0798456020239015 -0.766770786558604 0
v -0.0652857340458719 -0.637548296748568 0.201023411971727
v -0.376911220516052 0.0298433475762766 1.00995778444558
v -0.471245458331481 -0.0526020028621011 0.91339754262219
v -0.591675665207339 0.228281923097963 0.964976475326503
v -0.466484519656218 0.310727273536341 1.12203696308551
v -0.528221638408223 -0.0955707266847121 0.601422740516826
v -0.720191703406426 0.145836572659586 0.597446829875063
v -0.72935452400295 0.232923214482948 1.30611503718063
v -0.467964617814926 0.315368564921325 1.50326605142464
v -0.94034144586898 0.0953554040390525 0.857107114594071
v -0.694014531395078 -0.0450922356495047 1.46537133057542
v -0.379306069643527 0.0373531147888729 1.62679940687843
v -0.884431404327171 -0.177250973304549 1.02156190672066
v -0.534494356005631 -0.221556524613946 1.22265857096161
v -0.323031975321675 -0.139111174175568 1.32191813095407
v -0.629727355879361 -0.295249811432342 0.863540273148676
v -0.742525635540312 -0.369742233268705 0.695284656931211
v -0.983633493593553 -0.258042214022279 0.844871040927855
v -1.03655903773768 1.23404047849621e-05 0.689194902610186
v -0.828160964838598 0.0477988067459949 0.443395373895892
v -0.646438328452855 -0.180722087279949 0.447159049049422
v -0.472549158138372 -0.103486586672484 0.552453165459737
v -0.714846006652696 0.201207938695441 0.547434931921697
v -0.992710103851476 0.137492650240495 0.875167636874089
v -0.922142711659302 -0.206580088995591 1.08273582129765
v -0.600665567588315 -0.355513447990826 0.883287309302122
v -9.30993823393955e-05 0.757348738220102 1.5256889789157
v -9.309938233798e-05 0.408547471167003 2.41364220249072
v 0.495417109510219 0.151427392587965 2.16757255272467
v 0.495417109510218 0.401454080569166 1.5256889789157
v -9.30993823407555e-05 0.757348738220102 0.845661825119707
v 0.495417109510217 0.401454080569166 0.845661825119706
v -9.30993823421433e-05 0.520779428638645 0.201023411971727
v 0.495417109510215 0.164884770987709 0.201023411971726
v 0.310062251670744 -0.26849285161529 1.76569951351352
v 0.310062251670743 -0.179781629910267 1.5256889789157
v 0.310062251670741 -0.179781629910267 0.845661825119706
v 0.31006225167074 -0.416350939491724 0.201023411971726
v -0.300003559346514 -0.27089775651802 1.76339796588485
v -0.300003559346515 -0.183110396810813 1.5256889789157
v -0.300003559346517 -0.183110396810813 0.845661825119707
v -0.300003559346518 -0.41967970639227 0.201023411971727
v -0.491690108089974 0.147536174715637 2.16384857043477
v -0.491690108089976 0.396068022583456 1.5256889789157
v -0.491690108089977 0.396068022583456 0.845661825119708
v -0.491690108089978 0.159498713001999 0.201023411971728
v -0.390024941655693 -0.577653304811827 1.87022647544749
v -0.638710134887161 -0.034796626940761 2.38975242353805
v -0.000935090660740212 0.303827262524089 2.71382303810664
v 0.641916757079124 -0.0297483422550117 2.39458374457454
v 0.401446004486611 -0.574533293291148 1.8732123960586
v 0.641916757079123 0.186456604767379 2.20109629003918
v 0.40144600448661 -0.358328346268757 1.67972494152324
v -0.000935090660740823 0.52003220954648 2.52033558357128
v -0.638710134887162 0.18140832008163 2.19626496900269
v -0.390024941655694 -0.361448357789436 1.67673902091213
v 0.00273851879305225 -0.515686866389089 2.46554338017972
v 0.466484519656218 0.310727273536341 1.12203696308551
v 0.591675665207339 0.228281923097963 0.964976475326503
v 0.471245458331481 -0.052602002862101 0.91339754262219
v 0.376911220516052 0.0298433475762767 1.00995778444558
v 0.720191703406426 0.145836572659586 0.597446829875063
v 0.528221638408223 -0.095570726684712 0.601422740516826
v 0.467964617814925 0.315368564921325 1.50326605142464
v 0.72935452400295 0.232923214482948 1.30611503718063
v 0.94034144586898 0.0953554040390527 0.857107114594071
v 0.379306069643527 0.0373531147888729 1.62679940687843
v 0.694014531395078 -0.0450922356495047 1.46537133057542
v 0.884431404327171 -0.177250973304549 1.02156190672066
v 0.323031975321675 -0.139111174175568 1.32191813095407
v 0.534494356005631 -0.221556524613946 1.22265857096161
v 0.629727355879361 -0.295249811432342 0.863540273148676
v 0.646438328452855 -0.180722087279949 0.447159049049422
v 0.828160964838598 0.047798806745995 0.443395373895892
v 1.03655903773768 1.23404047850731e-05 0.689194902610186
v 0.983633493593553 -0.258042214022279 0.844871040927855
v 0.742525635540312 -0.369742233268705 0.695284656931211
v 0.714846006652696 0.201207938695441 0.547434931921697
v 0.472549158138372 -0.103486586672484 0.552453165459737
v 0.992710103851476 0.137492650240495 0.875167636874089
v 0.922142711659302 -0.206580088995591 1.08273582129765
v 0.600665567588315 -0.355513447990826 0.883287309302122
v 1 0 1.76876629364711
v 0.866025403784439 0.5 1.76876629364711
v 0.5 0.866025403784439 1.76876629364711
v 6.12303176911189e-17 1 1.76876629364711
v -0.5 0.866025403784439 1.76876629364711
v -0.866025403784439 0.5 1.76876629364711
v -1 1.22460635382238e-16 1.76876629364711
v -0.866025403784439 -0.5 1.76876629364711
v -0.5 -0.866025403784438 1.76876629364711
v -1.83690953073357e-16 -1 1.76876629364711
v 0.5 -0.866025403784439 1.76876629364711
v 0.866025403784438 -0.5 1.76876629364711
v 0.866025403784439 0.5 0
v 1 0 0
v 0.5 0.866025403784439 0
v 6.12303176911189e-17 1 0
v -0.5 0.866025403784439 0
v -0.866025403784439 0.5 0
v -1 1.22460635382238e-16 0
v -0.866025403784439 -0.5 0
v -0.5 -0.866025403784438 0
v -1.83690953073357e-16 -1 0
v 0.5 -0.866025403784439 0
v 0.866025403784438 -0.5 0
v 1.06873752493843 0 -0.00356794710714503
v 1.06873752493843 0 2.75385563984004
v -1.03139327714513 0 2.75385563984004
v -1.03139327714513 0 -0.00356794710714503
vt 0 0
vt 1 0
vt 1 1
vt 0 1
vt 0.915881931781769 0.205260649323463
vt 0.0841180980205536 0.205260649323463
vt 0.915881872177124 0.205260649323463
vt 0.600965917110443 0.366089284420013
vt 0.73741340637207 0.648189604282379
vt 0.603947699069977 0.851219713687897
vt 0.385013848543167 0.694598853588104
vt 0.383171021938324 0.394771784543991
vt 1.05251395702362 0.99999988079071
vt 1.05251383781433 0.49999988079071
vt 0.85251384973526 0.500000238418579
vt 0.85251384973526 1.00000023841858
vt 1.05251383781433 -9.17034057579258e-08
vt 0.852513790130615 2.26324715413284e-07
vt 0.652513682842255 0.500000238418579
vt 0.652513682842255 1.00000023841858
vt 0.652513802051544 2.31579775800128e-07
vt 0.452513694763184 0.499999910593033
vt 0.452513575553894 0.99999988079071
vt 0.452513754367828 -8.32005397910507e-08
vt 0.252513766288757 0.499999701976776
vt 0.252513766288757 0.999999701976776
vt 0.252513766288757 -2.83000531453581e-07
vt 0.0525138564407825 0.49999988079071
vt 0.0525139346718788 0.99999988079071
vt 0.0525137819349766 -9.17034057579258e-08
vt 1.1826366186142 0.646125435829163
vt 1.12111735343933 0.436335444450378
vt 0.928622961044312 0.503410577774048
vt 0.871173977851868 0.754655241966248
vt 1.02816319465637 0.842857837677002
vt 0.975146174430847 0.228131026029587
vt 0.924138069152832 -0.00663452781736851
vt 0.0143487257882953 -0.00802874658256769
vt 0.0653568953275681 0.226736798882484
vt 0.985159933567047 0.226451829075813
vt 0.917032778263092 -0.00744956964626908
vt 0.00308141717687249 -0.00987333059310913
vt 0.071208544075489 0.224028065800667
vt 0.978167295455933 0.228330746293068
vt 0.966766357421875 -0.00846042670309544
vt 0.00777530949562788 -0.00762587739154696
vt 0.0191762391477823 0.229165285825729
vt 0.947033584117889 0.228734955191612
vt 0.964155614376068 -0.00591491349041462
vt 0.0519277974963188 -0.00645669875666499
vt 0.0348057299852371 0.228193163871765
vt 0.900548577308655 0.229832082986832
vt 0.8905109167099 -0.00676676817238331
vt 0.0150359198451042 -0.00916086323559284
vt 0.0250735599547625 0.227437987923622
vt -0.18793298304081 0.850581049919128
vt -0.0728403851389885 0.947542726993561
vt 0.109156996011734 0.883742272853851
vt 0.106544971466064 0.747349798679352
vt -0.0770667344331741 0.726855039596558
vt 0.575600743293762 0.666666686534882
vt 0.575600743293762 1
vt 0.387949049472809 1
vt 0.387949049472809 0.666666686534882
vt 0.575600743293762 0.333333343267441
vt 0.387949049472809 0.333333343267441
vt 0.575600743293762 6.67043243557375e-12
vt 0.387949049472809 -9.67271748808507e-12
vt 0.196279227733612 1
vt 0.196279227733612 0.666666686534882
vt 0.196279227733612 0.333333343267441
vt 0.196279227733612 -1.32213979348039e-11
vt 1.19627928733826 0.666666686534882
vt 1.19627928733826 1
vt 0.9886314868927 1
vt 0.9886314868927 0.666666686534882
vt 1.19627928733826 0.333333343267441
vt 0.9886314868927 0.333333343267441
vt 1.19627928733826 -1.32213979348039e-11
vt 0.9886314868927 0
vt 0.774903535842896 1
vt 0.774903535842896 0.666666686534882
vt 0.774903535842896 0.333333343267441
vt 0.774903535842896 1.32223910639939e-11
vt 0.984626173973083 -0.000296966289170086
vt 0.992837607860565 0.212981879711151
vt 0.022328021004796 0.211823269724846
vt 0.0141165368258953 -0.00145557138603181
vt 0.986996173858643 -0.00213760323822498
vt 0.992231905460358 0.211150094866753
vt 0.0336187556385994 0.207057297229767
vt 0.0283830258995295 -0.00623040646314621
vt 0.962962806224823 0.0013099736534059
vt 0.965423226356506 0.215925857424736
vt 0.0511211864650249 0.213259324431419
vt 0.0486607886850834 -0.00135655351914465
vt 0.984827816486359 -0.000161517004016787
vt 0.996319949626923 0.211830466985703
vt 0.0195626430213451 0.212077900767326
vt 0.00807047914713621 8.59150677570142e-05
vt 0.981493949890137 -0.000147712431498803
vt 0.98815780878067 0.211006879806519
vt 0.0189807750284672 0.211252897977829
vt 0.0123169291764498 9.83119389275089e-05
vt 0.818866550922394 0.954818665981293
vt 0.800545394420624 0.580447912216187
vt 1.07736110687256 0.416979163885117
vt 1.26676368713379 0.690320611000061
vt 1.10700523853302 1.02272367477417
vt 0.0287935566157103 0.212920263409615
vt 0.983876347541809 0.213764637708664
vt 0.53997391462326 1.003289103508
vt 0.0166869293898344 0.213434398174286
vt 0.987828552722931 0.212999626994133
vt 0.52952766418457 1.00316751003265
vt 0.0160496346652508 0.213343679904938
vt 0.985235750675201 0.214244797825813
vt 0.531557738780975 1.00459468364716
vt 0.0254624858498573 0.217463091015816
vt 0.980368793010712 0.217739015817642
vt 0.544978082180023 1.00356614589691
vt 0.0835665166378021 0.22441366314888
vt 0.948976933956146 0.225284650921822
vt 0.535970985889435 1.0060647726059
vn 0 0 1
vn 0.867992848801197 0.177722381734522 0.463684342479441
vn 0.0992005120353821 0.880429491186732 0.463684342479441
vn -0.806683560661938 0.366412968516654 0.463684342479441
vn -0.597758370690247 -0.653973822724694 0.463684342479441
vn 0.437248570515606 -0.770591018713213 0.463684342479441
vn 0.537072595345116 0.414758914066238 -0.734525745315885
vn 0.692283161267324 0.477152907313756 -0.541358594341819
vn 0.802289797801868 0.508390305202455 -0.312842417071585
vn -0.331519099563689 0.940386539085974 -0.0759489547682118
vn -0.326419575908901 0.940151974202905 -0.0977983939839209
vn -0.321155713656268 0.939444082140326 -0.119598595800513
vn -0.563380493499392 0.27126162823668 0.780397045477984
vn -0.771751031990276 0.181371768955578 0.60951179319835
vn -0.917841078862963 0.0768451648332233 0.389438794412456
vn -0.00417966425334148 -0.841288695671986 0.540569940841385
vn -0.158033852203501 -0.880709240437908 0.44651599676272
vn -0.306503631653685 -0.890122933797618 0.337248701273443
vn 0.61330225707902 -0.697690789001981 -0.370253837797223
vn 0.74226243442424 -0.625941760016961 -0.239255912172449
vn 0.842319575399084 -0.529819117850855 -0.098941574978617
vn -0.611952884445876 -0.496768194079378 -0.61541451767852
vn 0.393703442610167 0.298760166387656 -0.869333056001509
vn -0.604767777700645 0.701900451192108 -0.376286714715439
vn -0.965083471179706 -0.041951335307579 0.258561364325068
vn -0.26280127405063 -0.926755070820447 0.268440922860048
vn 0.551892086951815 -0.752450927177707 -0.359489536077727
vn 0.611952884445876 0.496768194079378 0.61541451767852
vn 0.575810356577443 0.803049882495041 0.153470907610723
vn 0.554615048795916 0.774859963979704 0.303305430004929
vn 0.577253819341157 0.803707373675466 -0.14433463047977
vn 0.55905647193982 0.778371305211718 -0.285646586545696
vn 0.945347254826366 -0.304854621517271 -0.115681578186912
vn 0.944555459549756 -0.307987423106931 -0.113836422302804
vn 0.94922600556818 -0.304966469046872 -0.0772362810482249
vn 0.951076399980198 -0.303296283649536 -0.058864639004123
vn 0.951260498234177 -0.303354992199406 0.0554906587360848
vn 0.94686114807697 -0.301952048594474 0.110810318165607
vn 0.00534241302256653 -0.98437059468077 -0.176028381094992
vn 0.00506165844248168 -0.938014361538852 -0.346559428036048
vn 0.0053721709733015 -0.984562133567337 0.174952979181169
vn 0.00512230468179904 -0.938768935567655 0.344509285227437
vn -0.947344796142115 -0.314482295191592 -0.0603218304884997
vn -0.941882297357553 -0.313617311329813 -0.120423917718688
vn -0.947792775869436 -0.313684212060947 0.0573678404109118
vn -0.943107467708183 -0.3121335490508 0.11454672369828
vn -0.584636592619096 0.796864416134707 0.152338953879252
vn -0.563434650108765 0.769329003122769 0.301121702988908
vn -0.58608200197173 0.797485574393223 -0.143264250947403
vn -0.567881751230718 0.772720375381026 -0.283572809151616
vn 0 0.691411473805814 -0.722461191960975
vn 0.952464420520902 -0.203162813520294 -0.227016296428914
vn 0.85693386297272 -0.499589988455128 0.126784060220738
vn 0.582209795434854 0.542193640289948 0.605852961145557
vn 0.501248581855112 0.150488910604189 0.852116744920204
vn -0.591039225143036 0.537928468636762 0.601087012812977
vn -0.508973372807161 0.146916396528309 0.848151919295381
vn -0.949074886899457 -0.210098775883455 -0.234766614809382
vn -0.854248086599902 -0.505896008118615 0.119705620210823
vn 0.00544001072054622 -0.666863322325997 -0.74516019460227
vn 0.00503881341144558 -0.932425067939011 -0.361328248325999
vn 0.340487596227982 -0.752515814454641 0.563727013554041
vn -0.469147825780658 -0.512428267753582 0.719247932198866
vn -0.537072595345115 0.414758914066238 -0.734525745315885
vn -0.692283161267324 0.477152907313756 -0.541358594341819
vn -0.802289797801869 0.508390305202455 -0.312842417071585
vn 0.331519099563689 0.940386539085975 -0.0759489547682121
vn 0.3264195759089 0.940151974202905 -0.0977983939839211
vn 0.321155713656267 0.939444082140326 -0.119598595800513
vn 0.563380493499392 0.27126162823668 0.780397045477984
vn 0.771751031990276 0.181371768955578 0.60951179319835
vn 0.917841078862963 0.0768451648332233 0.389438794412456
vn 0.00417966425334148 -0.841288695671986 0.540569940841384
vn 0.158033852203501 -0.880709240437908 0.44651599676272
vn 0.306503631653685 -0.890122933797618 0.337248701273443
vn -0.61330225707902 -0.697690789001981 -0.370253837797223
vn -0.742262434424239 -0.625941760016961 -0.239255912172449
vn -0.842319575399084 -0.529819117850855 -0.0989415749786171
vn 0.611952884445876 -0.496768194079378 -0.61541451767852
vn -0.393703442610167 0.298760166387656 -0.869333056001509
vn 0.604767777700645 0.701900451192108 -0.376286714715439
vn 0.965083471179706 -0.041951335307579 0.258561364325068
vn 0.26280127405063 -0.926755070820447 0.268440922860048
vn -0.551892086951815 -0.752450927177707 -0.359489536077727
vn -0.611952884445877 0.496768194079378 0.61541451767852
vn 0.866025403784439 0.5 0
vn 1 0 0
vn 0.5 0.866025403784438 0
vn 0 1 0
vn -0.5 0.866025403784439 0
vn -0.866025403784438 0.5 0
vn -1 0 0
vn -0.866025403784439 -0.5 0
vn -0.5 -0.866025403784438 0
vn 0 -1 0
vn 0.5 -0.866025403784439 0
vn 0.866025403784438 -0.5 0
g drop_shadow prop_hydrant_full l1 prop_hydrant
f 1/1/1 2/2/1 3/3/1 4/4/1
g base prop_hydrant_full l1 prop_hydrant
f 5/1/2 6/2/2 7/5/2 8/6/2
f 6/1/3 9/2/3 10/7/3 7/6/3
f 9/1/4 11/2/4 12/7/4 10/6/4
f 11/1/5 13/2/5 14/5/5 12/6/5
f 13/1/6 5/2/6 8/7/6 14/6/6
f 8/8/1 7/9/1 10/10/1 12/11/1 14/12/1
f 15/13/7 16/14/8 17/15/8 18/16/7
f 16/14/8 19/17/9 20/18/9 17/15/8
f 18/16/10 17/15/11 21/19/11 22/20/10
f 17/15/11 20/18/12 23/21/12 21/19/11
f 22/20/13 21/19/14 24/22/14 25/23/13
f 21/19/14 23/21/15 26/24/15 24/22/14
f 25/23/16 24/22/17 27/25/17 28/26/16
f 24/22/17 26/24/18 29/27/18 27/25/17
f 28/26/19 27/25/20 16/28/20 15/29/19
f 27/25/20 29/27/21 19/30/21 16/28/20
f 30/31/22 31/32/22 32/33/22 33/34/22 34/35/22
f 35/36/23 34/37/23 33/38/23 36/39/23
f 36/40/24 33/41/24 32/42/24 37/43/24
f 37/44/25 32/45/25 31/46/25 38/47/25
f 38/48/26 31/49/26 30/50/26 39/51/26
f 39/52/27 30/53/27 34/54/27 35/55/27
f 35/56/28 36/57/28 37/58/28 38/59/28 39/60/28
f 40/61/29 41/62/30 42/63/30 43/64/29
f 44/65/31 40/61/29 43/64/29 45/66/31
f 46/67/32 44/65/31 45/66/31 47/68/32
f 42/63/33 48/69/34 49/70/35
f 43/64/36 42/63/33 49/70/35
f 45/66/37 43/64/36 49/70/35 50/71/37
f 47/68/38 45/66/37 50/71/37 51/72/38
f 49/73/39 48/74/40 52/75/40 53/76/39
f 50/77/41 49/73/39 53/76/39 54/78/41
f 51/79/42 50/77/41 54/78/41 55/80/42
f 53/76/43 52/75/44 56/81/44 57/82/43
f 54/78/45 53/76/43 57/82/43 58/83/45
f 55/80/46 54/78/45 58/83/45 59/84/46
f 57/82/47 56/81/48 41/62/48 40/61/47
f 58/83/49 57/82/47 40/61/47 44/65/49
f 59/84/50 58/83/49 44/65/49 46/67/50
f 60//51 61//51 62//51 63//51 64//51
f 65/85/52 63/86/53 64/87/53 66/88/52
f 67/89/54 62/90/55 63/91/55 65/92/54
f 68/93/56 61/94/57 62/95/57 67/96/56
f 69/97/58 60/98/59 61/99/59 68/100/58
f 66/101/60 64/102/61 60/103/61 69/104/60
f 69/105/51 68/106/51 67/107/51 65/108/51 66/109/51
f 64/110/53 63/111/53 70/112/62
f 63/113/55 62/114/55 70/115/62
f 62/116/57 61/117/57 70/118/63
f 61/119/59 60/120/59 70/121/63
f 60/122/61 64/123/61 70/124/62
f 71/16/64 72/15/65 73/14/65 74/13/64
f 72/15/65 75/18/66 76/17/66 73/14/65
f 77/20/67 78/19/68 72/15/68 71/16/67
f 78/19/68 79/21/69 75/18/69 72/15/68
f 80/23/70 81/22/71 78/19/71 77/20/70
f 81/22/71 82/24/72 79/21/72 78/19/71
f 83/26/73 84/25/74 81/22/74 80/23/73
f 84/25/74 85/27/75 82/24/75 81/22/74
f 74/29/76 73/28/77 84/25/77 83/26/76
f 73/28/77 76/30/78 85/27/78 84/25/77
f 86/35/79 87/34/79 88/33/79 89/32/79 90/31/79
f 91/39/80 87/38/80 86/37/80 92/36/80
f 93/43/81 88/42/81 87/41/81 91/40/81
f 94/47/82 89/46/82 88/45/82 93/44/82
f 95/51/83 90/50/83 89/49/83 94/48/83
f 92/55/84 86/54/84 90/53/84 95/52/84
f 95/60/85 94/59/85 93/58/85 91/57/85 92/56/85
g collide prop_hydrant_full l1 prop_hydrant
f 96//1 97//1 98//1 99//1 100//1 101//1 102//1 103//1 104//1 105//1 106//1 107//1
f 108//86 97//86 96//87 109//87
f 110//88 98//88 97//86 108//86
f 111//89 99//89 98//88 110//88
f 112//90 100//90 99//89 111//89
f 113//91 101//91 100//90 112//90
f 114//92 102//92 101//91 113//91
f 115//93 103//93 102//92 114//92
f 116//94 104//94 103//93 115//93
f 117//95 105//95 104//94 116//94
f 118//96 106//96 105//95 117//95
f 119//97 107//97 106//96 118//96
f 109//87 96//87 107//97 119//97
g p1322 o33 prop_hydrant_lod l2 prop_hydrant
f 120/2/95 121/3/95 122/4/95 123/1/95
