v 6.5553655148804 13.6982214419548 4.71791995791938
v 9.83985440311782 10.2778206972938 4.71791995791938
v -9.78069455604854 10.2778206972938 4.71791995791938
v -6.5553655148804 13.6982214419548 4.71791995791938
v -9.78069455604854 10.2778206972938 -3.51028867906786
v 9.83985440311782 10.2778206972938 -3.51028867906786
v 6.5553655148804 13.6982214419548 -3.51028867906786
v -6.5553655148804 13.6982214419548 -3.51028867906786
v 9.56873255451833 0.0166192983235587 -3.51028842875964
v 9.56873255451833 0.0166192983235587 4.71791995791938
v -9.33209216500831 0.0166192983235587 4.71791995791938
v -9.33209216500831 0.0166192983235587 -3.51028842875964
v -4.54109171869874 6.0000006608137 -3.78431735702074
v 0.216468738445773 6.0000006608137 -3.78431735702074
v 0.216468738445773 6.0000006608137 2.14562203314674
v -4.54109171869874 6.0000006608137 2.14562203314674
v -5.12896303992885 -0.015652076763118 -3.30874458241469
v 4.94343162396448 -0.015652076763118 -3.54070307682637
v 3.96007740090838 -0.015652076763118 -2.48754958073742
v -3.95994750846402 -0.015652076763118 -2.48754958073742
v -3.9599480040743 -0.015652076763118 2.46244997321333
v -5.37340595715941 -0.015652076763118 3.43824366152938
v 5.31137368309842 -0.015652076763118 3.9301442932913
v 3.96007764871352 -0.015652076763118 2.46244972540819
v 3.96007740090838 1.83523658474912 -2.48755057195797
v -3.95994726065888 1.83523670865169 -2.48755057195797
v 3.96007789651866 1.83523646084655 2.46244972540819
v -3.9599480040743 1.83523658474912 2.46244972540819
v 4.67735951341043 1.07929878935726 2.50982448893093
v -4.67735951341043 1.07929878935726 2.50982448893093
v -4.67735951341043 0.401955110444797 2.509824445127
v 4.67735951341043 0.401955110444797 2.509824445127
v -4.67735951341043 0.401955110444797 2.12615620671745
v 4.67735951341043 0.401955110444797 2.12615620671745
v -4.67735951341043 1.07929891451137 2.12615644763911
v 4.67735951341043 1.07929891451137 2.12615644763911
v -3.64260553351061 0.999792138047106 -3.33517379960989
v -3.64260570872636 0.999792138047106 2.74539381813189
v -3.64260570872636 0.32244833398053 2.74539381813189
v -3.64260570872636 0.32244833398053 -3.33517379960989
v -4.02627389238099 0.32244833398053 2.74539381813189
v -4.02627389238099 0.32244833398053 -3.33517379960989
v -4.02627371716524 0.999792263201215 2.74539406844011
v -4.02627389238099 0.999792263201215 -3.33517379960989
v 4.67735951341043 1.07929878935726 -2.12944938883697
v -4.67735951341043 1.07929878935726 -2.12944938883697
v -4.67735951341043 0.401955110444797 -2.12944943264091
v 4.67735951341043 0.401955110444797 -2.12944943264091
v -4.67735951341043 0.401955110444797 -2.51311767105046
v 4.67735951341043 0.401955110444797 -2.51311767105046
v -4.67735951341043 1.07929891451137 -2.5131174301288
v 4.67735951341043 1.07929891451137 -2.5131174301288
v 4.02219104640159 0.999792138047106 -3.33517379960989
v 4.02219087118584 0.999792138047106 2.74539381813189
v 4.02219087118584 0.32244833398053 2.74539381813189
v 4.02219087118584 0.32244833398053 -3.33517379960989
v 3.63852268753121 0.32244833398053 2.74539381813189
v 3.63852268753121 0.32244833398053 -3.33517379960989
v 3.63852286274697 0.999792263201215 2.74539406844011
v 3.63852268753121 0.999792263201215 -3.33517379960989
v 0.406609117706547 0.999792138047106 -3.33517379960989
v 0.406608867398328 0.999792138047106 2.74539381813189
v 0.406608867398328 0.32244833398053 2.74539381813189
v 0.406608867398328 0.32244833398053 -3.33517379960989
v -0.141488537822565 0.32244833398053 2.74539381813189
v -0.141488537822565 0.32244833398053 -3.33517379960989
v -0.141488287514345 0.999792263201215 2.74539406844011
v -0.141488537822565 0.999792263201215 -3.33517379960989
vt 0 0.991001546382904
vt 0 1.24325108528137
vt 1 1.24325108528137
vt 1 0.991001546382904
vt 1 0.752770066261292
vt 0 0.752770066261292
vt 0 1.00052046775818
vt 1 1.00052046775818
vt 0 0.00559414504095912
vt 1 0.00559414504095912
vt -0.25 0.00899847410619259
vt -0.25 0.991001546382904
vt 0 0.00899847410619259
vt 1 0.00899847410619259
vt 1.25 0.991001546382904
vt 1.25 0.00899847410619259
vt -1 0.00899847410619259
vt -1 0.991001546382904
vt 0 2
vt 1 2
vt 2 0.991001546382904
vt 2 0.00899847410619259
vt 0 0.0095189418643713
vt 1 0.0095189418643713
vt 0 0
vt 1 0
vt 1 1
vt 0 1
vt 0.0570899024605751 0.0652456134557724
vt 0.936793923377991 0.0713623911142349
vt 0.878451108932495 0.125498473644257
vt 0.115558952093124 0.127730786800385
vt 0.115515053272247 0.880897223949432
vt 0.053311038762331 0.943209707736969
vt 0.936793744564056 0.946988701820374
vt 0.882229924201965 0.882722318172455
vt 0.628988683223724 0.140673384070396
vt 0.62903881072998 0.869046270847321
vt 0.528475046157837 0.86939412355423
vt 0.528424799442291 0.1410211622715
vt 0.530954778194427 0.142260819673538
vt 0.530699968338013 0.871543228626251
vt 0.630116522312164 0.870060384273529
vt 0.630021452903748 0.142781049013138
vt 0.630801022052765 0.141935378313065
vt 0.630653917789459 0.870463371276855
vt 0.529328227043152 0.871440768241882
vt 0.528979182243347 0.142323285341263
vt 0.629065990447998 0.141087979078293
vt 0.633800625801086 0.871533215045929
vt 0.529642283916473 0.871817409992218
vt 0.5262610912323 0.141368716955185
vt 0.327433049678802 0.140328571200371
vt 0.327432990074158 0.867467224597931
vt 0.428781777620316 0.867467224597931
vt 0.428781807422638 0.140328571200371
vt 0.529639363288879 0.867467224597931
vt 0.529639422893524 0.140328601002693
vt 0.630988001823425 0.867467224597931
vt 0.63098806142807 0.140328601002693
vn 0 0 -1
vn 0 -3.75569335631098e-08 0.999999999999999
vn -0.392026117087459 -0.91995408772467 0
vn 0.396197153400833 -0.918165462014923 0
vn -0.932559583265557 -0.361016098892516 0
vn 0.937235128556708 -0.34869802666389 0
vn -0.99965112065823 0.0264128182279758 0
vn 0 -3.98897626041616e-08 -0.999999999999999
vn 0.999045722491313 0.0436765883719167 0
vn 0 2.12745394634339e-08 1
vn 0 -1 0
vn 0 6.04284707605874e-07 0.999999999999817
vn -0.999999999999992 6.69422348664733e-08 1.12448866218528e-07
vn -1.56442130361256e-08 -4.16352463616931e-08 -0.999999999999999
vn 0.999999999999984 -6.69421638121992e-08 1.68673281564222e-07
vn 0 -5.8062848040663e-08 0.999999999999998
vn 0 3.48377028558368e-07 -0.999999999999939
vn 0.999999999999992 -1.29340344301453e-07 1.39574130031405e-08
vn -0.999999999999992 1.29340324406256e-07 1.39574105162409e-08
vn 0.999999999999983 -1.84771920430645e-07 1.99391614330576e-08
vn -0.999999999999983 1.84771892008936e-07 1.99391578803439e-08
g Garden outside
f 1/1/1 2/2/1 3/3/1 4/4/1
f 5/5/2 6/6/2 7/7/2 8/8/2
f 7/9/3 1/1/3 4/4/4 8/10/4
f 6/11/5 2/12/5 1/1/3 7/13/3
f 8/14/4 4/4/4 3/15/6 5/16/6
f 9/17/7 10/18/7 2/12/5 6/11/5
f 3/3/8 2/2/8 10/19/8 11/20/8
f 5/16/6 3/15/6 11/21/9 12/22/9
f 9/23/10 6/6/10 5/5/10 12/24/10
g flowers outside
f 13/25/11 14/26/11 15/27/11 16/28/11
g WindowFrame frame
f 17/29/11 18/30/11 19/31/11 20/32/11
f 17/29/11 20/32/11 21/33/11 22/34/11
f 19/31/11 18/30/11 23/35/11 24/36/11
f 21/33/11 24/36/11 23/35/11 22/34/11
f 20/37/12 19/38/12 25/39/12 26/40/12
f 19/41/13 24/42/13 27/43/13 25/44/13
f 24/45/14 21/46/14 28/47/14 27/48/14
f 21/49/15 20/50/15 26/51/15 28/52/15
g windowBar frame
f 29/53/16 30/54/16 31/55/16 32/56/16
f 32/56/11 31/55/11 33/57/11 34/58/11
f 34/58/17 33/57/17 35/59/17 36/60/17
g windowBar1 frame
f 37/53/18 38/54/18 39/55/18 40/56/18
f 40/56/11 39/55/11 41/57/11 42/58/11
f 42/58/19 41/57/19 43/59/19 44/60/19
g windowBar2 frame
f 45/53/16 46/54/16 47/55/16 48/56/16
f 48/56/11 47/55/11 49/57/11 50/58/11
f 50/58/17 49/57/17 51/59/17 52/60/17
g windowBar3 frame
f 53/53/18 54/54/18 55/55/18 56/56/18
f 56/56/11 55/55/11 57/57/11 58/58/11
f 58/58/19 57/57/19 59/59/19 60/60/19
g windowBar4 frame
f 61/53/20 62/54/20 63/55/20 64/56/20
f 64/56/11 63/55/11 65/57/11 66/58/11
f 66/58/21 65/57/21 67/59/21 68/60/21
