v 2.87673579739148 2.30171473946158 0.00611598019211937
v -2.85407839797613 2.30171473946158 0.00611598019211937
v -2.85407839797613 2.30171473946158 4.56941309250559
v 2.87673579739148 2.30171473946158 4.56941309250559
v 2.87673579739148 -1.40330985462259 4.56941309250559
v -2.85407839797613 -1.40330985462259 4.56941309250559
v -2.85407839797613 -1.40330985462259 0.00611598019211937
v 2.87673579739148 -1.40330985462259 0.00611598019211937
v 2.1733629421925 1.37122885135841 1.71362734216405
v 2.1733629421925 1.28743141654908 0.293960815339577
v -2.1733629421925 1.28743141654908 0.293960815339577
v -2.1733629421925 1.37122885135841 1.71362734216405
v 2.1733629421925 -1.28743104108675 0.293960596319884
v 2.1733629421925 -1.3712287262043 1.71362696670172
v -2.1733629421925 -1.3712287262043 1.71362696670172
v -2.1733629421925 -1.28743104108675 0.293960596319884
v 2.1733629421925 -0.685614425679204 2.43685089071279
v -2.1733629421925 -0.685614425679204 2.43685089071279
v 2.1733629421925 0.685614363102149 2.43685089071279
v -2.1733629421925 0.685614363102149 2.43685089071279
v 2.77214150416257 0.891298884794781 1.19918437767529
v 2.80932228709143 0.44564944239739 1.66780717103813
v 2.80932228709143 -0.445649317243281 1.66780717103813
v 2.77214150416257 -0.891298634486561 1.19918400221296
v 2.69915588258758 -0.83683006406769 0.279291815019342
v 2.69915588258758 0.83683031437591 0.279291940173452
v -2.78048477773591 0.891298884794781 1.21875172212055
v -2.67348377097623 0.836830376952965 0.302193014640508
v -2.67348377097623 -0.83683006406769 0.302192858197871
v -2.78048477773591 -0.891298634486561 1.21875147181233
v -2.83499389808635 -0.445649317243281 1.68567579875155
v -2.83499389808635 0.44564944239739 1.68567579875155
v -2.24102901348605 -1.32714694566301 0.1624203885947
v 2.23980100136104 -1.32714694566301 0.166173713413749
v -2.83982384549038 -0.862645602288834 0.166524974067067
v -2.83982384549038 0.862645977751164 0.166525130509704
v -2.24102901348605 1.32714757143356 0.162420591970128
v 2.23980100136104 1.32714757143356 0.166173979366232
v 2.83858381857084 0.862645852597054 0.144715180860104
v 2.83858381857084 -0.862645602288834 0.144715024417467
v -2.16679435389561 -1.28290872248452 0.013924613008349
v 2.16466698433783 -1.28290872248452 0.0138871371746063
v -2.74563035939935 -0.833890632068704 0.013812469059401
v -2.74563035939935 0.833891195262198 0.013812469059401
v -2.16679435389561 1.28290934825507 0.0139245445646952
v 2.16466698433783 1.28290934825507 0.0138871371746063
v 2.74349848429362 0.833891070108088 0.0144398783448487
v 2.74349848429362 -0.833890632068704 0.0144399467885025
v 1.78432427053376 2.25508181754685 3.92598029509617
v 0.947481002707494 2.2829826735449 3.91510740665626
v 0.768012574964308 1.22078047023983 4.41459045009663
v 1.87963275458869 1.18371870886935 4.4290337349799
v 0.532567407202533 2.12735604113481 3.20459450949521
v 0.216866196609858 1.0140539154293 3.47078278308778
v 0.954496266022129 1.94382842757258 2.50495400015763
v 0.777331174515051 0.770266037287675 2.54141815065399
v 1.79133890807785 1.91592782188275 2.51582788983042
v 1.88895147929354 0.733204463648358 2.55586143553726
v 2.20625244100576 2.0715552052175 3.22634078699147
v 2.44009788893652 0.939931018458889 3.49966960316255
v 1.52099902235617 0.663251576461191 3.93337139620243
v 1.10393258843209 0.677156573518368 3.92795222324962
v 0.897149589118056 0.599595755729775 3.57384794340359
v 1.10742876848837 0.508129596710205 3.22516183527749
v 1.52449495210422 0.494224568364501 3.23058075792207
v 1.7312784520347 0.571785761615423 3.58468578869276
v 0.682330945032475 1.21316909790039 4.56461268147146
v 1.96069494632911 1.17054861674471 4.58122313491941
v 0.048512916552426 0.975433672506978 3.47923343888731
v 0.693047328258124 0.695077265341451 2.41046414913468
v 1.97141051605305 0.652456659031665 2.42707435227442
v 2.60522947536679 0.890192647618572 3.51245334455035
v 0.698062628898721 1.04604130341938 4.56690650599522
v 1.93381409632565 1.00484119625542 4.5829622764287
v 0.0853719439093522 0.816230198216876 3.5177065631536
v 0.708421884872156 0.545218860696307 2.48456289136191
v 1.94417310199087 0.504018972552042 2.50061966302827
v 2.55686492118936 0.73383060965951 3.54982035679454
v 0.849914738512415 0.870996072223493 4.33440621443621
v 1.77672791668749 0.840096023139053 4.34644854287776
v 0.390395905402076 0.698637899764254 3.54750625730499
v 0.857684180492491 0.495379897240266 2.77264887892355
v 1.78449660774291 0.464479816867298 2.78469095705688
v 2.24401594146969 0.636837989326537 3.57159141480453
v -0.799851029563764 2.25508181754685 3.92598029509617
v -1.63669423481298 2.2829826735449 3.91510740665626
v -1.81616285028733 1.22078047023983 4.41459045009663
v -0.704542545508838 1.18371870886935 4.4290337349799
v -2.0516080180491 2.12735604113481 3.20459450949521
v -2.36730925993031 1.0140539154293 3.47078278308778
v -1.62967909665245 1.94382842757258 2.50495400015763
v -1.80684387527426 0.770266037287675 2.54141815065399
v -0.792836517173787 1.91592782188275 2.51582788983042
v -0.69522388338104 0.733204463648358 2.55586143553726
v -0.377922671360607 2.0715552052175 3.22634078699147
v -0.144077411161007 0.939931018458889 3.49966960316255
v -1.06317602743314 0.663251576461191 3.93337139620243
v -1.48024258651133 0.677156573518368 3.92795222324962
v -1.68702546067125 0.599595755729775 3.57384794340359
v -1.47674653160916 0.508129596710205 3.22516183527749
v -1.0596802228392 0.494224568364501 3.23058075792207
v -0.852896848062831 0.571785761615423 3.58468578869276
v -1.90184448021916 1.21316909790039 4.56461268147146
v -0.623480353768416 1.17054861674471 4.58122313491941
v -2.53566231314592 0.975433672506978 3.47923343888731
v -1.89112790926235 0.695077265341451 2.41046414913468
v -0.612764471159207 0.652456659031665 2.42707435227442
v 0.0210544021110835 0.890192647618572 3.51245334455035
v -1.88611273377586 1.04604130341938 4.56690650599522
v -0.650361328925986 1.00484119625542 4.5829622764287
v -2.49880342658736 0.816230198216876 3.5177065631536
v -1.87575347780243 0.545218860696307 2.48456289136191
v -0.640002135529606 0.504018972552042 2.50061966302827
v -0.0273104258409635 0.73383060965951 3.54982035679454
v -1.73426037385395 0.870996072223493 4.33440621443621
v -0.807447320832981 0.840096023139053 4.34644854287776
v -2.1937793321184 0.698637899764254 3.54750625730499
v -1.72649105702798 0.495379897240266 2.77264887892355
v -0.799678567200508 0.464479816867298 2.78469095705688
v -0.340159170896675 0.636837989326537 3.57159141480453
v 3.69063374877289 2.14140258749013 0.0293797825578004
v -3.69063374877289 2.14140258749013 0.0293797825578004
v -3.69063374877289 -1.87389418834776 0.0293797825578004
v 3.69063374877289 -1.87389418834776 0.0293797825578004
vt 0.879895210266113 0.320759177207947
vt 0.999999940395355 0.320759177207947
vt 0.999999940395355 0.727708458900452
vt 0.879895210266113 0.727708458900452
vt 0.326188266277313 0.320759207010269
vt 0.44490522146225 0.320759177207947
vt 0.44490522146225 0.727708458900452
vt 0.326188266277313 0.727708458900452
vt 0.596110999584198 0.320759177207947
vt 0.596110999584198 0.727708458900452
vt 0.753498733043671 0.320759177207947
vt 0.753498733043671 0.727708458900452
vt 0.804709792137146 0.111971847712994
vt 0.753498733043671 0.202286303043365
vt 0.596110999584198 0.202286258339882
vt 0.545177400112152 0.111971847712994
vt 0.597095847129822 0.00124898669309914
vt 0.753685295581818 -4.20454213667654e-08
vt 0.789290249347687 0.918215453624725
vt 0.733768224716187 1
vt 0.596110999584198 1
vt 0.551260471343994 0.918215453624725
vt 0.596110999584198 0.819838881492615
vt 0.753498733043671 0.819838464260101
vt 0.879895210266113 0.202286258339882
vt 0.44490522146225 0.202286258339882
vt 0.326188266277313 0.202286258339882
vt 0.999999940395355 0.202286258339882
vt 0.999999940395355 0.81983870267868
vt 0.879895210266113 0.81983870267868
vt 0.44490522146225 0.81983870267868
vt 0.326188266277313 0.81983870267868
vt 0.300595968961716 0.727966129779816
vt 0.30059602856636 0.320616513490677
vt 0.284401684999466 0.807683944702148
vt 0.267865866422653 0.78807806968689
vt 0.0447365082800388 0.807683944702148
vt 0.0583223477005959 0.78807806968689
vt 2.51448177834845e-08 0.737837374210358
vt 0.025856664404273 0.732017695903778
vt -5.43597167279586e-09 0.306578606367111
vt 0.0255922768265009 0.312513291835785
vt 0.0475963652133942 0.229928329586983
vt 0.0598492585122585 0.256454020738602
vt 0.280657589435577 0.229928329586983
vt 0.266339033842087 0.256454050540924
vt 0.287849128246307 0.725067675113678
vt 0.287846773862839 0.323599129915237
vt 0.255478709936142 0.773182034492493
vt 0.0707095339894295 0.773182034492493
vt 0.0383391007781029 0.725067675113678
vt 0.0383414700627327 0.319547533988953
vt 0.070672482252121 0.271433472633362
vt 0.255515784025192 0.271433502435684
vt 0.821570336818695 0.353359341621399
vt 1 0.353359371423721
vt 1 1
vt 0.821570336818695 1
vt 2.80685981124407e-08 0.353359073400497
vt 0.169509649276733 0.353359371423721
vt 0.169509544968605 1
vt 1.48610354244738e-07 1
vt 0.327910870313644 0.353359341621399
vt 0.327910900115967 0.999999761581421
vt 0.492583721876144 0.353359341621399
vt 0.492583721876144 0.999999761581421
vt 0.65702086687088 0.353359252214432
vt 0.65702086687088 1
vt 0.977946519851685 0.159309864044189
vt 0.895752727985382 0.333523035049438
vt 0.775991439819336 0.333523035049438
vt 0.685663461685181 0.159309864044189
vt 0.775991439819336 2.19853717453589e-08
vt 0.895752847194672 4.17224370607983e-08
vt 0.580725610256195 0.64412248134613
vt 0.435773849487305 0.64412248134613
vt 0.363298535346985 0.499171257019043
vt 0.435773849487305 0.354220151901245
vt 0.580725371837616 0.354220151901245
vt 0.653200805187225 0.499171257019043
vt 0.755495846271515 0.991915464401245
vt 0.261003732681274 0.991915702819824
vt 0.286101341247559 0.941917419433594
vt 0.730397999286652 0.941917181015015
vt 0.0168492794036865 0.499171257019043
vt 0.0639551877975464 0.499171257019043
vt 0.262548685073853 0.00602531433105469
vt 0.286101341247559 0.0533280372619629
vt 0.755495846271515 0.00602507591247559
vt 0.730397880077362 0.0533280372619629
vt 0.999650061130524 0.499171257019043
vt 0.952544331550598 0.499171376228333
vt 0.293506503105164 0.927811145782471
vt 0.722992897033691 0.927811145782471
vt 0.0787650346755981 0.499171257019043
vt 0.293506503105164 0.0688416957855225
vt 0.722992897033691 0.0688416957855225
vt 0.937734663486481 0.499171257019043
vt 0.347192525863647 0.820918798446655
vt 0.669307172298431 0.820918798446655
vt 0.18613612651825 0.499171257019043
vt 0.347192525863647 0.176692008972168
vt 0.669306993484497 0.176691770553589
vt 0.830363571643829 0.499171257019043
vt 0 0
vt 1 0
vt 0 1
vn 0 1 0
vn 0 -1 0
vn -1 0 0
vn 1 0 0
vn 0.233652060260376 0.948666557608454 0.213163029654317
vn 0.3156658355657 0.926731522527853 0.203773809430494
vn -0.312619856260563 0.926557604555039 0.20918850569009
vn -0.235809285902625 0.948806152839481 0.210144866737302
vn 0.315665797618716 -0.926731699025558 0.203773065528649
vn 0.233652037846369 -0.948666613544525 0.213162805283196
vn -0.235809275175012 -0.948806206327412 0.210144637276379
vn -0.312619853926749 -0.926557766767834 0.209187790688228
vn 0.291626504194032 -0.474523344097962 0.830530901265965
vn -0.284250044205583 -0.479555712088524 0.830197706195574
vn 0.301633231823776 0.284054603505907 0.910126571245256
vn -0.291936848981546 0.282330391641545 0.913817501562679
vn 0.874486644404953 0.472232688319599 0.110767309436538
vn 0.914035386209827 0.178870112941277 0.364067020550651
vn 0.914035408543042 -0.17887015035101 0.364066946100524
vn 0.874486625470736 -0.472232751435293 0.110767189838224
vn 0.921673667745042 -0.312837922121652 0.229456062608964
vn 0.921673674088566 0.312837876424842 0.229456099430977
vn -0.872419704583655 0.479070085556099 0.096828261264161
vn -0.917528079862886 0.318163265746122 0.238567304953734
vn -0.9175280770501 -0.318163308543889 0.238567258694801
vn -0.87241969054214 -0.479070134502688 0.0968281456082556
vn -0.911251983055421 -0.187664142873781 0.366608773567972
vn -0.911251969329774 0.187664081314075 0.366608839196701
vn 0.74861063350264 0.492385240696925 0.444003259166649
vn 0.770635686165087 0 0.637275952165831
vn 0.748610693930092 -0.492385390249717 0.444002991433774
vn -0.732416184661339 -0.509928266652651 0.451153738003743
vn -0.750417647869204 0 0.660963957993515
vn -0.732416219989509 0.509928070936783 0.451153901863843
vn -0.308980397710181 -0.950215893122761 0.0402600333801649
vn 0.310269060993191 -0.95030798971993 0.0254525924980058
vn -0.509056677128423 -0.619366633370314 0.59770082226687
vn -0.603945919071104 -0.327810784544295 0.726491167443771
vn -0.603945824765088 0.327810475672584 0.726491385212607
vn -0.509056219646532 0.619366239687258 0.597701619852956
vn -0.270831722003112 0.838012890393381 0.473692488742813
vn 0.310269231850464 0.950307904435237 0.0254536939329334
vn 0.528841686842237 0.627328351083814 0.571651651081601
vn 0.648617439690555 0.332616213199387 0.684588834006347
vn 0.648617518694997 -0.332616590669045 0.684588575754552
vn 0.52884208543984 -0.627329282652818 0.571650260031377
vn -0.285289199585024 -0.872288389984351 -0.397143597831622
vn 0.277535948417011 -0.868960470872654 -0.409733446763925
vn -0.75340521336814 -0.376543499291787 -0.539069177017944
vn -0.7534054388839 0.376543671342971 -0.53906874165705
vn -0.285289411522262 0.872288624201826 -0.397142931148682
vn 0.277536223167837 0.868960726174768 -0.409732719215286
vn 0.72000428723548 0.372509813894747 -0.585517091906487
vn 0.720003989928807 -0.372509624366849 -0.585517578079999
vn 0.490230059220305 0.405800138525774 0.771362908499831
vn -0.481971076404649 0.438213512325833 0.758731045314742
vn -0.963996039427242 0.257414010798133 -0.0667057944515365
vn -0.473821586337531 0.0442019626299258 -0.879510824731707
vn 0.498379685307455 0.0117888841209482 -0.866878717863131
vn 0.980404274275898 0.192587751729268 -0.0414417285524466
vn 0.0354311236471445 0.971704525555987 -0.233527194328872
vn 0.018810035668237 -0.945644855869987 0.324656725057084
vn -0.0901631071440139 -0.942011666520204 0.323240830109633
vn -0.144192932140079 -0.962277161341767 0.230718579834564
vn -0.0892495608346029 -0.986175917806561 0.139612230944206
vn 0.0197234837045828 -0.989809100219862 0.141028115326354
vn 0.0737532418393956 -0.969543532392948 0.233550418781863
vn 0.164453570195908 0.986382294571959 -0.00223432423246796
vn -0.0982881127938117 0.995141976071916 -0.0056475076903411
vn -0.228558188326243 0.946279940117868 -0.228725664234582
vn -0.0960856015573143 0.888658025259187 -0.448390980413089
vn 0.166656962058047 0.879898221893492 -0.444977051213042
vn 0.296925983152485 0.928760465134643 -0.221898532964533
vn 0.470245691065092 -0.0670420518352259 0.879985427902324
vn -0.496346132717076 -0.0348173327182744 0.867426233105264
vn -0.368433917326909 -0.355610108058404 0.858951628213043
vn 0.321517589122869 -0.378612131851534 0.86791663971804
vn -0.97558871332754 -0.214571249063626 0.0467529838961172
vn -0.845031002857864 -0.497643750992395 0.195635634042604
vn -0.488243425392966 -0.426552806886 -0.761361320595037
vn -0.496410427605852 -0.685402226221279 -0.532729270507159
vn 0.478348638075911 -0.458777934716828 -0.748802635590904
vn 0.328809443061032 -0.731124931589457 -0.597779796047178
vn 0.957591643598023 -0.279021181643325 0.0718708863560222
vn 0.805406462548112 -0.589088660085979 0.0655361018358721
vn -0.160389066814533 -0.885946639534191 0.435171114786399
vn 0.0896851679784377 -0.894284080213782 0.438420522467722
vn -0.363664591735995 -0.84272072470706 0.396950683166938
vn -0.284377688443389 -0.932452615748467 0.222848490458061
vn -0.361818938631861 -0.931878803060063 0.0262478961948998
vn -0.15829240778472 -0.987296174682333 0.013775960777678
vn -0.0309103130169898 -0.987459655984565 -0.15481595638705
vn 0.0917810814026119 -0.995633656049342 0.0170251589827485
vn 0.298154276264334 -0.953882278304704 0.0348227896860509
vn 0.215769981105261 -0.949127607781936 0.229347115525734
vn 0.296311610152503 -0.864724020347316 0.40552656919517
vn 0.490230030755082 0.405800104025427 0.771362944740557
vn -0.481971026164805 0.438213551014103 0.758731054883913
vn -0.96399603718799 0.257414002763759 -0.0667058578161675
vn -0.473821513830173 0.044201880368262 -0.879510867928073
vn 0.498379620857323 0.0117888414464105 -0.866878755496674
vn 0.980404283949378 0.192587696516811 -0.0414417562858661
vn 0.0354311269978756 0.971704515283641 -0.233527236563628
vn 0.0188100358502339 -0.945644865019597 0.324656698395985
vn -0.0901630710625261 -0.942011678758974 0.323240804506909
vn -0.144192879599967 -0.962277168648343 0.230718582196577
vn -0.0892495334147559 -0.986175921410434 0.139612223016216
vn 0.019723477612032 -0.989809100629841 0.141028113300975
vn 0.0737532277893122 -0.96954354358102 0.233550376773442
vn 0.164453469710475 0.986382311215093 -0.00223437287800282
vn -0.0982881910761859 0.995141968556677 -0.00564746953177031
vn -0.228558268893578 0.946279924138458 -0.228725649835967
vn -0.0960856035044016 0.888658019310614 -0.448390991785218
vn 0.166656717823644 0.879898335836742 -0.444976917374354
vn 0.296925636626636 0.928760593134717 -0.221898460909297
vn 0.470245503089375 -0.0670425865924215 0.87998548761171
vn -0.496346181097002 -0.0348172264567817 0.867426209687187
vn -0.368433962804963 -0.35561005563765 0.858951630408383
vn 0.321517418534381 -0.378612456444614 0.867916561314486
vn -0.975588823658318 -0.214570785706694 0.0467528081957886
vn -0.845031144189447 -0.4976435569442 0.195635517178755
vn -0.488243497841922 -0.426552454973352 -0.761361471294215
vn -0.496410486985755 -0.685402080835828 -0.532729402226386
vn 0.478348471648982 -0.45877860426882 -0.748802331684562
vn 0.328809269872308 -0.73112527455878 -0.597779471835047
vn 0.957591263020307 -0.279022386381775 0.0718712799732524
vn 0.80540598184199 -0.589089291879048 0.0655363304326799
vn -0.160389008797982 -0.885946665400128 0.435171083509916
vn 0.0896852103192223 -0.894284065866709 0.438420543071267
vn -0.3636643203376 -0.842720955762336 0.396950441280025
vn -0.284377593191484 -0.932452642333901 0.222848500769346
vn -0.361819093983653 -0.931878742632429 0.0262479000807913
vn -0.158292371586027 -0.987296179990326 0.0137759963045036
vn -0.0309103583976937 -0.987459618115091 -0.154816188868365
vn 0.0917811112639741 -0.995633653507316 0.0170251466608743
vn 0.298154483441942 -0.953882214097449 0.0348227746168659
vn 0.215770054481609 -0.949127587942952 0.22934712859462
vn 0.296311613733617 -0.864724030798053 0.405526544293894
vn 0 0 1
g collision collisions twinkieCouchAll
f 1//1 2//1 3//1 4//1
f 5//2 6//2 7//2 8//2
f 2//3 7//3 6//3 3//3
f 8//4 1//4 4//4 5//4
g twinkie twinkieCouch twinkieCouchAll
f 9/1/5 10/2/6 11/3/7 12/4/8
f 13/5/9 14/6/10 15/7/11 16/8/12
f 14/6/10 17/9/13 18/10/14 15/7/11
f 17/9/13 19/11/15 20/12/16 18/10/14
f 19/11/15 9/1/5 12/4/8 20/12/16
f 21/13/17 22/14/18 23/15/19 24/16/20 25/17/21 26/18/22
f 27/19/23 28/20/24 29/21/25 30/22/26 31/23/27 32/24/28
f 9/1/29 19/11/29 22/14/18 21/25/17
f 19/11/15 17/9/30 23/15/19 22/14/18
f 17/9/13 14/6/31 24/26/20 23/15/19
f 14/6/10 13/5/9 25/27/21 24/26/20
f 10/2/6 9/1/5 21/25/17 26/28/22
f 12/4/8 11/3/7 28/29/24 27/30/23
f 16/8/12 15/7/11 30/31/26 29/32/25
f 15/7/32 18/10/14 31/23/27 30/31/26
f 18/10/33 20/12/16 32/24/28 31/23/27
f 20/12/34 12/4/34 27/30/23 32/24/28
f 13/5/9 16/8/12 33/33/35 34/34/36
f 16/8/12 29/35/37 35/36/38 33/33/35
f 29/35/25 28/37/24 36/38/39 35/36/38
f 28/37/40 11/39/7 37/40/41 36/38/39
f 11/39/7 10/41/6 38/42/42 37/40/41
f 10/41/6 26/43/43 39/44/44 38/42/42
f 26/43/22 25/45/21 40/46/45 39/44/44
f 25/45/46 13/5/9 34/34/36 40/46/45
f 34/34/36 33/33/35 41/47/47 42/48/48
f 33/33/35 35/36/49 43/49/49 41/47/47
f 35/36/49 36/38/50 44/50/50 43/49/49
f 36/38/50 37/40/51 45/51/51 44/50/50
f 37/40/51 38/42/42 46/52/52 45/51/51
f 38/42/42 39/44/53 47/53/53 46/52/52
f 39/44/53 40/46/54 48/54/54 47/53/53
f 40/46/54 34/34/36 42/48/48 48/54/54
g cupcake2 twinkieCouch twinkieCouchAll
f 49/55/55 50/56/56 51/57/56 52/58/55
f 50/59/56 53/60/57 54/61/57 51/62/56
f 53/60/57 55/63/58 56/64/58 54/61/57
f 55/63/58 57/65/59 58/66/59 56/64/58
f 57/65/59 59/67/60 60/68/60 58/66/59
f 59/67/60 49/55/55 52/58/55 60/68/60
f 49/69/61 59/70/61 57/71/61 55/72/61 53/73/61 50/74/61
f 61/75/62 62/76/63 63/77/64 64/78/65 65/79/66 66/80/67
f 52/81/68 51/82/69 67/83/69 68/84/68
f 51/82/69 54/85/70 69/86/70 67/83/69
f 54/85/70 56/87/71 70/88/71 69/86/70
f 56/87/71 58/89/72 71/90/72 70/88/71
f 58/89/72 60/91/73 72/92/73 71/90/72
f 60/91/73 52/81/68 68/84/68 72/92/73
f 68/84/74 67/83/75 73/93/76 74/94/77
f 67/83/75 69/86/78 75/95/79 73/93/76
f 69/86/78 70/88/80 76/96/81 75/95/79
f 70/88/80 71/90/82 77/97/83 76/96/81
f 71/90/82 72/92/84 78/98/85 77/97/83
f 72/92/84 68/84/74 74/94/77 78/98/85
f 74/94/77 73/93/76 79/99/86 80/100/87
f 73/93/88 75/95/79 81/101/89 79/99/86
f 75/95/90 76/96/81 82/102/91 81/101/89
f 76/96/92 77/97/83 83/103/93 82/102/91
f 77/97/94 78/98/85 84/104/95 83/103/93
f 78/98/96 74/94/96 80/100/87 84/104/95
f 80/100/87 79/99/86 62/76/63 61/75/62
f 79/99/86 81/101/89 63/77/64 62/76/63
f 81/101/89 82/102/91 64/78/65 63/77/64
f 82/102/91 83/103/93 65/79/66 64/78/65
f 83/103/93 84/104/95 66/80/67 65/79/66
f 84/104/95 80/100/87 61/75/62 66/80/67
g cupcake1 twinkieCouch twinkieCouchAll
f 85/55/97 86/56/98 87/57/98 88/58/97
f 86/59/98 89/60/99 90/61/99 87/62/98
f 89/60/99 91/63/100 92/64/100 90/61/99
f 91/63/100 93/65/101 94/66/101 92/64/100
f 93/65/101 95/67/102 96/68/102 94/66/101
f 95/67/102 85/55/97 88/58/97 96/68/102
f 85/69/103 95/70/103 93/71/103 91/72/103 89/73/103 86/74/103
f 97/75/104 98/76/105 99/77/106 100/78/107 101/79/108 102/80/109
f 88/81/110 87/82/111 103/83/111 104/84/110
f 87/82/111 90/85/112 105/86/112 103/83/111
f 90/85/112 92/87/113 106/88/113 105/86/112
f 92/87/113 94/89/114 107/90/114 106/88/113
f 94/89/114 96/91/115 108/92/115 107/90/114
f 96/91/115 88/81/110 104/84/110 108/92/115
f 104/84/116 103/83/117 109/93/118 110/94/119
f 103/83/117 105/86/120 111/95/121 109/93/118
f 105/86/120 106/88/122 112/96/123 111/95/121
f 106/88/122 107/90/124 113/97/125 112/96/123
f 107/90/124 108/92/126 114/98/127 113/97/125
f 108/92/126 104/84/116 110/94/119 114/98/127
f 110/94/119 109/93/118 115/99/128 116/100/129
f 109/93/130 111/95/121 117/101/131 115/99/128
f 111/95/132 112/96/123 118/102/133 117/101/131
f 112/96/134 113/97/125 119/103/135 118/102/133
f 113/97/136 114/98/127 120/104/137 119/103/135
f 114/98/138 110/94/138 116/100/129 120/104/137
f 116/100/129 115/99/128 98/76/105 97/75/104
f 115/99/128 117/101/131 99/77/106 98/76/105
f 117/101/131 118/102/133 100/78/107 99/77/106
f 118/102/133 119/103/135 101/79/108 100/78/107
f 119/103/135 120/104/137 102/80/109 101/79/108
f 120/104/137 116/100/129 97/75/104 102/80/109
g shadow1 twinkieCouch twinkieCouchAll
f 121/105/139 122/106/139 123/57/139 124/107/139
