v -0.260659324841236 0.198387411322806 -0.00233271518560845
v -0.422400627236354 -0.0242305865750851 -0.00233271518560845
v -0.422400627236354 -0.0242305865750851 1.7018092898872
v -0.260659324841236 0.198387411322806 1.7018092898872
v -0.422400627236354 -0.299401420933681 -0.00233271518560845
v -0.422400627236354 -0.299401420933681 1.7018092898872
v -0.260659246619918 -0.522019293677463 -0.00233271518560845
v -0.260659246619918 -0.522019293677463 1.7018092898872
v 0.0010437110874049 -0.607051749241947 -0.00233271518560845
v 0.0010437110874049 -0.607051749241947 1.7018092898872
v 0.262746660728154 -0.522019293677463 -0.00233271518560845
v 0.262746660728154 -0.522019293677463 1.7018092898872
v 0.424488010056063 -0.299401295779571 -0.00233271518560845
v 0.424488010056063 -0.299401295779571 1.7018092898872
v 0.424488010056063 -0.0242304614209753 -0.00233271518560845
v 0.424488010056063 -0.0242304614209753 1.7018092898872
v 0.262746629439627 0.198387411322806 -0.00233271518560845
v 0.262746629439627 0.198387411322806 1.7018092898872
v 0.00104368456548906 0.28341986688729 -0.00233271518560845
v 0.00104368456548906 0.28341986688729 1.7018092898872
v 0.00104368456548906 -0.161816003754383 -0.00233271518560845
v -0.157659620124837 -0.110250132603282 2.03285292377622
v -0.0975083021979945 -0.0261709758928754 2.03285292377622
v -0.158285296808078 -0.212033089064551 2.03285292377622
v -0.0930813040946099 -0.291368028936111 2.03285292377622
v 0.0010436944653747 -0.323777686892532 2.03285430047143
v 0.100585833934974 -0.295639413548267 2.03285430047143
v 0.160289655520221 -0.213558217046142 2.03285292377622
v 0.160418517320488 -0.101236408463926 2.03285680355362
v 0.102162509765525 -0.021233646262662 2.03285555201253
v 0.00104368456548906 0.00772463680878086 2.03285680355362
v 0.165591668582025 -0.311128486172734 2.02707818799757
v 0.165591668582025 0.0145792022464782 2.02707818799757
v 0.165591668582025 0.0145792022464782 2.35278587641678
v 0.165591668582025 -0.311128486172734 2.35278587641678
v -0.160115910327341 0.0145792022464782 2.35278587641678
v -0.160115910327341 -0.311128486172734 2.35278587641678
v -0.160115910327341 0.0145792022464782 2.02707818799757
v -0.160115910327341 -0.311128486172734 2.02707818799757
v 0.00319778039230136 0.00819058555943446 2.11103118936534
v 0.00319778039230136 0.794615082227652 2.10052149815196
v 0.0808938203521288 0.794615082227652 2.2404555573551
v 0.0808938203521288 0.00819058555943446 2.2404555573551
v -0.0754180620974443 0.794615082227652 2.2404555573551
v -0.0754180620974443 0.00819058555943446 2.2404555573551
v 0.00227796490697723 0.794615082227652 2.10052149815196
v 0.00227796490697723 0.00819058555943446 2.11103118936534
vt 0 0.0605976283550262
vt 0.100000001490116 0.0605976283550262
vt 0.100000001490116 0.609386563301086
vt 0 0.609386563301086
vt 0.200000002980232 0.0605976283550262
vt 0.200000002980232 0.609386563301086
vt 0.300000011920929 0.0605976283550262
vt 0.300000011920929 0.609386563301086
vt 0.400000005960464 0.0605976283550262
vt 0.400000005960464 0.609386563301086
vt 0.5 0.0605976283550262
vt 0.5 0.609386563301086
vt 0.600000023841858 0.0605976283550262
vt 0.600000023841858 0.609386563301086
vt 0.700000047683716 0.0605976283550262
vt 0.700000047683716 0.609386563301086
vt 0.800000071525574 0.0605976283550262
vt 0.800000071525574 0.609386563301086
vt 0.900000095367432 0.0605976283550262
vt 0.900000095367432 0.609386563301086
vt 1.00000011920929 0.0605976283550262
vt 1.00000011920929 0.609386563301086
vt -0.421907931566238 0.131791457533836
vt -0.577585816383362 0.208441361784935
vt -0.375217735767365 0.389446198940277
vt -0.248396039009094 0.153556764125824
vt -0.123325288295746 0.265424013137817
vt -0.0944693088531494 0.424663424491882
vt -0.172849893569946 0.570451080799103
vt -0.328527688980103 0.647100925445557
vt -0.50203949213028 0.625335693359375
vt -0.627109885215759 0.513468384742737
vt -0.655965983867645 0.354229032993317
vt 0.0915434435009956 0.814905107021332
vt -0.000411927700042725 0.814905107021332
vt 0.200360596179962 0.814905107021332
vt 0.298759341239929 0.814905107021332
vt 0.396499872207642 0.814905107021332
vt 0.495810717344284 0.814905107021332
vt 0.600498497486115 0.814905107021332
vt 0.698778390884399 0.814905107021332
vt 0.802039980888367 0.814905107021332
vt 0.892861664295197 0.814904987812042
vt 0.998859524726868 0.814905107021332
vt 0.0719368904829025 0.815160989761353
vt 0.547968327999115 0.815160989761353
vt 0.547968327999115 1
vt 0.0719368904829025 1
vt 0.218073219060898 0.818981170654297
vt 0.389535844326019 0.818981170654297
vt 0.389535844326019 0.999556124210358
vt 0.218073219060898 0.999556124210358
vt 0.547969043254852 1
vt 0.071937084197998 1
vt 0.071937084197998 0.815160989761353
vt 0.547969043254852 0.815160989761353
vt 0.389538258314133 0.818981170654297
vt 0.389535844326019 0.999556303024292
vt 0.218070924282074 0.999556064605713
vt 0.218073219060898 0.818980932235718
vt 0.547967910766602 0.815161108970642
vt 0.547967910766602 1
vt 0.0719367265701294 0.815160989761353
vt 0.547968327999115 0.815161108970642
vt 0.0719367265701294 1
vt 0.642943263053894 0.82163941860199
vt 0.873697757720947 0.82163941860199
vt 0.873697757720947 0.961291909217834
vt 0.642943263053894 0.961291909217834
vt 0.873697757720947 0.961292326450348
vt 0.642943263053894 0.961292326450348
vn -0.587785410033216 0.809016879769566 0
vn -0.951056580154135 0.309016797837143 0
vn -0.892484261912409 0.289918559792139 0.345570645348695
vn -0.552715578820482 0.758609267628049 0.344989083882337
vn -0.951056503315038 -0.309017034323633 0
vn -0.890903530026335 -0.292217085372547 0.347706881155648
vn -0.587785232350951 -0.809017008863311 0
vn -0.548973006359494 -0.759275054938712 0.349471070671715
vn 4.52938472981067e-09 -1 0
vn -0.00283526789252869 -0.936935063685091 0.349491985163312
vn 0.58778538136664 -0.80901690059706 0
vn 0.549709076450796 -0.759805940708447 0.347152507886326
vn 0.951056558834304 -0.309016863452874 0
vn 0.892477983085362 -0.290078915135897 0.345452272682444
vn 0.951056503315038 0.309017034323633 0
vn 0.893180773030118 0.290738045232605 0.343073601059081
vn 0.587785238180598 0.809017004627825 0
vn 0.550872390271016 0.761502235851889 0.341546416215529
vn 3.62350718665369e-08 0.999999999999999 0
vn -0.00271530409103686 0.939288885710142 0.343116622018073
vn 0 0 -1
vn 0 -1.06193491500317e-10 -1
vn 0 5.50619438932642e-10 -1
vn 0 1.96518912254362e-11 -1
vn 0 -5.30967547707206e-10 -1
vn 0 -5.5061932791034e-10 -1
vn -0.728525910453862 0.236587933154497 0.642865575126756
vn -0.452563530999665 0.618921129176541 0.641967979160916
vn -0.723791944566441 -0.24028044529547 0.646831143799786
vn -0.44413540209915 -0.618127113780833 0.648585087564618
vn -0.00526505443453184 -0.760765453765218 0.649005549713716
vn 0.445969988798355 -0.619770948356246 0.645751299390713
vn 0.728512951437181 -0.236885531068132 0.642770662646372
vn 0.731258081984865 0.238580222876747 0.639015723424627
vn 0.45026670032338 0.625876185752434 0.636819361112616
vn -0.00505626639845397 0.769250302794229 0.638927543482902
vn 1 0 0
vn 0 0 1
vn -1 0 0
vn 0 1 0
vn 0 -1 0
vn 0.866190514812497 -0.00333896730693941 -0.49970275499159
vn -0.866190540611636 -0.00333896740638922 -0.499702710270398
vn 0 -0.0133626323186366 -0.999910716042946
g pCylinder1 Bottle
f 1/1/1 2/2/2 3/3/3 4/4/4
f 2/2/2 5/5/5 6/6/6 3/3/3
f 5/5/5 7/7/7 8/8/8 6/6/6
f 7/7/7 9/9/9 10/10/10 8/8/8
f 9/9/9 11/11/11 12/12/12 10/10/10
f 11/11/11 13/13/13 14/14/14 12/12/12
f 13/13/13 15/15/15 16/16/16 14/14/14
f 15/15/15 17/17/17 18/18/18 16/16/16
f 17/17/17 19/19/19 20/20/20 18/18/18
f 19/19/19 1/21/1 4/22/4 20/20/20
f 2/23/21 1/24/21 21/25/22
f 5/26/23 2/23/21 21/25/22
f 7/27/24 5/26/23 21/25/22
f 9/28/25 7/27/24 21/25/22
f 11/29/21 9/28/25 21/25/22
f 13/30/21 11/29/21 21/25/22
f 15/31/26 13/30/21 21/25/22
f 17/32/26 15/31/26 21/25/22
f 19/33/21 17/32/26 21/25/22
f 1/24/21 19/33/21 21/25/22
f 4/4/4 3/3/3 22/34/27 23/35/28
f 3/3/3 6/6/6 24/36/29 22/34/27
f 6/6/6 8/8/8 25/37/30 24/36/29
f 8/8/8 10/10/10 26/38/31 25/37/30
f 10/10/10 12/12/12 27/39/32 26/38/31
f 12/12/12 14/14/14 28/40/33 27/39/32
f 14/14/14 16/16/16 29/41/34 28/40/33
f 16/16/16 18/18/18 30/42/35 29/41/34
f 18/18/18 20/20/20 31/43/36 30/42/35
f 20/20/20 4/22/4 23/44/28 31/43/36
g pCube1 Bottle
f 32/45/37 33/46/37 34/47/37 35/48/37
f 35/49/38 34/50/38 36/51/38 37/52/38
f 37/53/39 36/54/39 38/55/39 39/56/39
f 39/57/21 38/58/21 33/59/21 32/60/21
f 33/45/40 38/61/40 36/62/40 34/48/40
f 39/63/41 32/64/41 35/47/41 37/65/41
g pCube2 Bottle
f 40/66/42 41/67/42 42/68/42 43/69/42
f 43/66/38 42/67/38 44/68/38 45/69/38
f 45/66/43 44/67/43 46/68/43 47/69/43
f 47/66/44 46/67/44 41/70/44 40/71/44
f 41/66/40 46/67/40 44/68/40 42/69/40
