v -5.06000012040138 -6.16000012040138 0.025000000372529
v 7.26000012040138 -6.16000012040138 0.025000000372529
v 7.26000012040138 6.16000012040138 0.025000000372529
v -5.06000012040138 6.16000012040138 0.025000000372529
v 6.9308236044741 1.15463194561016e-14 0
v 7.02065337332801 -1.15463194561016e-14 29.1700430522588
v -6.90455379412271 -1.15463194561016e-14 29.1700430522588
v -6.99438356297662 1.15463194561016e-14 0
v 3.32289719581604 -2.32289719581604 -5.8072429895401
v 3.32289719581604 -2.32289719581604 5.8072429895401
v -1.32289719581604 -2.32289719581604 5.8072429895401
v -1.32289719581604 -2.32289719581604 -5.8072429895401
v 3.32289719581604 2.32289719581604 -5.8072429895401
v 3.32289719581604 2.32289719581604 5.8072429895401
v -1.32289719581604 2.32289719581604 -5.8072429895401
v -1.32289719581604 2.32289719581604 5.8072429895401
v 7.75245508961761 -7.06640498654626 0.0231737095590488
v 7.75245508961761 -7.06640498654626 28.1135344135272
v -6.82139180009086 -7.06640498654626 28.1135344135272
v -6.82139180009086 -7.06640498654626 0.0231737095590488
v 7.75245508961761 6.51231181069435 0.0231737095590488
v 7.75245508961761 6.51231181069435 28.1135344135272
v -6.82139180009086 6.51231181069435 0.0231737095590488
v -6.82139180009086 6.51231181069435 28.1135344135272
vt 0 0
vt 1 0
vt 1 1
vt 0 1
vt 1.01797604560852 -0.000146344100357965
vt 1.0066202878952 0.997753918170929
vt -0.00823092553764582 0.998228669166565
vt 0.00312482286244631 0.000328418333083391
vn 0 0 1
vn 0 -1 0
vn 1 0 0
vn 0 1 0
vn -1 0 0
g shadow_large prop_tree_large
f 1/1/1 2/2/1 3/3/1 4/4/1
g large_leaves prop_leaves_large prop_tree_large
f 5/5/2 6/6/2 7/7/2 8/8/2
g prop_tree_large_collide prop_tree_large
f 9//2 10//2 11//2 12//2
f 13//3 14//3 10//3 9//3
f 15//4 16//4 14//4 13//4
f 12//5 11//5 16//5 15//5
g prop_tree_large_camera_collision prop_tree_large
f 17//2 18//2 19//2 20//2
f 21//3 22//3 18//3 17//3
f 23//4 24//4 22//4 21//4
f 20//5 19//5 24//5 23//5
