v 488.096853491407 -413.45501695972 132.456012002805
v 480.131067936379 -399.649293607035 275.162881632339
v 476.97840282805 370.935042806907 277.372143695182
v 487.134857242122 384.560883808079 132.456012002805
v -449.192177345278 -412.980484426955 132.45593256914
v -428.025354154972 -395.592549911564 267.554023479194
v 458.811721122838 332.675711611797 305.515438453832
v 461.258066169496 -359.115744591455 305.515438453832
v -398.157809332245 -352.705854846316 305.515385498055
v -396.380606876244 330.767037439844 305.515359020166
v -426.304242203042 366.37487185122 269.192461982247
v -450.72498916837 376.683065869635 132.45593256914
v 491.781571222967 -412.945212539905 88.0671584562942
v -459.619283701637 -413.64818174603 88.2079878679986
v -459.630041352488 -425.159409179229 308.937721632967
v 492.620464245935 -425.159409179229 308.937721632967
v 491.758833460942 386.924297532518 88.0008367904477
v 491.397922424636 387.15014015716 -17.944383916522
v 491.397922424636 -407.359539606991 -17.944383916522
v 491.758181482102 386.92466330247 87.998994521952
v -459.618509476765 386.917794955599 88.0312262107643
v -459.61345664076 387.15014015716 -17.944383916522
v -459.619283701637 -413.663584725108 88.2110716652632
v -459.61345664076 -407.359539606991 -17.944383916522
v 492.620464245935 386.38519326477 308.937721632967
v -459.630041352488 386.38519326477 308.937721632967
vt 0.941342413425446 0.0535457842051983
vt 0.880056500434875 0.110201984643936
vt 0.107243604958057 0.114816352725029
vt 0.045173641294241 0.0558632872998714
vt 0.996609568595886 0.904038846492767
vt 0.90112978219986 0.854374289512634
vt 0.154912501573563 0.160091504454613
vt 0.828284502029419 0.158062890172005
vt 0.821541309356689 0.812975764274597
vt 0.15618197619915 0.81150209903717
vt 0.11015222966671 0.865957677364349
vt 0.0508884899318218 0.936069786548615
vt 0.820681929588318 0.896440505981445
vt 0.819651007652283 0.996570467948914
vt 1 0.645836353302002
vt 0 0.645836353302002
vt 0 0
vt 1 0
vt 0 1
vt 1 1
vn -0.998017848008057 -0.00252937920903154 -0.0628806591742139
vn -0.951207862148303 -0.00255808814004424 -0.308540206735399
vn 0.00290066651078631 0.993735426526292 -0.111720580916862
vn 0.0053885462203737 0.878216874925107 -0.478232249191132
vn -0.332229418522334 -0.261121684168368 -0.906332764234741
vn -0.330377496461071 0.248652049670896 -0.910506929148031
vn 0.301863493662302 0.242609839530944 -0.921964693986033
vn 0.30286576925784 -0.253935606340575 -0.918579900522704
vn 0.00710871683895217 -0.996353267299459 -0.0850272479067527
vn 0.00702912794639318 -0.891750338827256 -0.452473120264383
vn 0.912314745802466 -0.000578774430322024 -0.409489278994629
vn 0.986227342850688 5.49612211207183e-05 -0.165395360252142
vn -0.000364787209167564 0.998499198353534 0.0547651149696723
vn -0.000364745121744746 0.998559771476697 0.0536493219845528
vn -0.999993226899185 -1.40334728872535e-05 0.00368048350313855
vn -0.999993832982553 -1.41150072741186e-05 0.00351195068709292
vn 3.60348015719256e-06 -0.999997666402771 -0.00216036479025542
vn 3.5703546390546e-06 -0.999997370245225 -0.00229335777556796
vn 0.999999998707594 -4.79598621367383e-07 5.08387890103823e-05
vn 3.54607908695709e-06 -0.999997056400218 -0.00242635082479074
vn 0.999999998715522 -4.74620804745438e-07 5.06826501869504e-05
vn -0.999992593392532 -1.3951865560642e-05 0.00384876154422546
vn -0.000364796860304681 0.998437378294547 0.0558808424020496
g LB_SkyTop SkyBox Geometry CogGolfHub
f 1/1/1 2/2/2 3/3/2 4/4/1
f 1/1/3 5/5/3 6/6/4 2/2/4
f 7/7/5 8/8/6 9/9/7 10/10/8
f 4/4/9 3/3/10 11/11/10 12/12/9
f 11/11/11 6/13/11 5/14/12 12/12/12
f 10/10/8 9/9/7 6/13/11 11/11/11
f 2/2/4 6/6/4 9/9/7 8/8/6
f 3/3/2 2/2/2 8/8/6 7/7/5
f 11/11/10 3/3/10 7/7/5 10/10/8
g LB_SkySides SkyBox Geometry CogGolfHub
f 13/15/13 14/16/13 15/17/14 16/18/14
f 17/16/15 18/19/16 19/20/16 13/15/15
f 18/20/17 20/15/18 21/16/18 22/19/17
f 21/15/19 23/16/19 24/19/19 22/20/19
f 20/15/18 25/18/20 26/17/20 21/16/18
f 26/18/21 15/17/21 23/16/21 21/15/21
f 25/17/22 17/16/15 13/15/15 16/18/22
f 19/20/23 24/19/23 14/16/13 13/15/13
