v -0.436338539824398 0.739486511610937 -0.00505547119876531
v -0.755760613388903 1.28082816056379 0.470074581036105
v 0.755760988851232 1.28082765994735 0.470074737478742
v 0.436339040440837 0.739486323879773 -0.00505540862171043
v -0.872677329957016 1.35639810844258e-07 -0.00505553377582019
v -1.51152197770246 2.3493504371432e-07 0.470074549747577
v -0.436338790132618 -0.739486323879773 -0.00505547119876531
v -0.755760863697122 -1.28082765994735 0.470074581036105
v 0.436338539824398 -0.739486386456828 -0.00505540862171043
v 0.755760488234793 -1.28082778510146 0.470074737478742
v 0.872677329957016 0 -0.00505540862171043
v 1.51152147708602 0 0.470074768767269
v -0.872677079648796 1.47897302322187 1.11911428256298
v 0.872677830573455 1.47897264775955 1.1191145328712
v -1.74535440960581 2.71279621688515e-07 1.11911428256298
v -0.872677580265235 -1.47897264775955 1.11911428256298
v 0.872677204802906 -1.47897264775955 1.1191145328712
v 1.74535453475992 0 1.11911465802531
v -0.755760613388903 1.28082816056379 1.76815410924396
v 0.755760988851232 1.28082765994735 1.8367608388265
v -1.51152197770246 2.3493504371432e-07 1.76815398408985
v -0.755760863697122 -1.28082765994735 1.76815410924396
v 0.755760488234793 -1.28082778510146 1.81143903356837
v 1.51152147708602 0 1.84767114834523
v -0.434336856281351 0.73750181773829 2.23617954204089
v 0.434451904196752 0.732837887260858 2.36128909694241
v -0.872677329957016 1.35639810844258e-07 2.243284290544
v -0.436338790132618 -0.739486323879773 2.243284290544
v 0.436338539824398 -0.739486386456828 2.33763446958046
v 0.872677329957016 0 2.33763446958046
v 0 0 -0.119442827119602
v 0 0 2.49527808562351
v 0.179739574121991 -1.00056712082991 1.6103963526528
v -0.282153620181747 -1.29366509244824 1.51939892706283
v 0.426870255958377 -2.20822612131674 1.57317301732662
v 0.657816383782334 -2.061677041642 1.61867216816099
v -0.328889168466483 -1.39779155961485 0.971343135583432
v 0.426948133103178 -2.28802363077799 1.30762578308426
v 0.179993699541868 -1.25879728262193 0.751066771079236
v 0.657943290049635 -2.19079190351832 1.18900722093157
v 0.465362153341138 -0.979016897246594 1.13554113493191
v 0.800628174008347 -2.05090189856181 1.38124468445465
v 1.06457011906181 -3.04921918653753 1.75832863554867
v 0.947676243118727 1.70426969453106 0.941020422407336
v -0.893524062289341 1.7042701951475 0.941020172099116
v -0.973669875638066 2.02991780959402 1.29568808347847
v 1.02833274781235 2.02991730897758 1.29568833378669
v -1.81412471560981 0.320853085655553 1.62325806505098
v -1.97716660386934 0.537949659692959 2.00710183992161
v -0.893524813213999 -1.06256327291173 2.30549614573401
v -0.998581863763764 -0.953039597338579 2.80140929334746
v 0.947675617348178 -1.06256314775762 2.30549664635045
v 1.00273723051617 -0.963525196385822 2.83688047113694
v 1.86827577005221 0.320852866635861 1.62325819020509
v 2.0254713343823 0.516978242578782 2.07804281880536
v 0.0270755389543969 0.320852866635861 1.62325819020509
v -1.6332556256472 3.13037611993905 3.49060068606079
v -1.78494716253806 2.76807724960207 3.07788848876953
v -2.3804236584761 2.63598935184829 3.47229389380908
v -1.96469599806418 2.25642472114463 3.19985216996801
v -1.99275592493573 2.10707181394882 3.73453005092351
v -1.8410661402024 2.46937018366936 4.14724249852298
v -1.66131392551532 2.9810227121268 4.0252775657834
v 0.947676243118727 2.11512923553547 1.77414586224894
v -0.893524062289341 2.11512973615191 1.77414561194072
v -0.678717558152407 1.79233200593883 1.93333450577703
v 0.732869175788299 1.79233150532239 1.93333463093114
v -1.81871361619844 0.754282668506692 2.40045282158639
v -1.38939371884964 0.749782377027777 2.41567631718994
v -0.939345422379301 -0.604764808194218 3.17923102791854
v -0.715211370172776 -0.292153965456905 3.01273976723979
v 0.900597584842071 -0.624051682279492 3.24447436595526
v 0.695411614545687 -0.306940673217373 3.06275910905653
v 1.86117202278197 0.71570885775909 2.53093874673518
v 1.43185137450851 0.720209211815061 2.51571550143985
v -0.682667108971303 1.99922676787289 2.54263665106666
v 0.569196323084393 2.11054609203589 2.57801521481491
v -0.992407010296198 1.15834859412486 3.0830931475782
v -0.559871903867546 0.326277827966244 3.78037975841933
v 0.679962466082235 0.341180553586464 3.6775193502271
v 1.25632411225887 1.33318588176737 3.20811359275357
v -1.00103475916104 2.15939299015235 3.22967864709889
v -0.45309432848232 2.37237224428672 3.31355067375764
v -1.23092721453489 1.66879150811143 3.36691788801058
v -1.07768126360075 1.36757134765465 3.84546365012021
v -0.226197937342126 1.56052932338765 3.96251378096933
v 0.0755745282010456 2.12690022986705 3.61551099561957
v -1.45071998355896 2.41846475075549 3.45926134605107
v -1.35400401638562 2.47052810949291 3.58661716691465
v -1.55971569652007 2.29764848243533 3.48038110207385
v -1.57199469138318 2.22889707470191 3.62885642865198
v -1.47527772297696 2.28096068374754 3.75621224951556
v -1.37447647535269 2.38902825383064 3.76493448973328
vt 0.724795162677765 0.112761944532394
vt 0.724795162677765 0.201721206307411
vt 0.609128296375275 0.201721206307411
vt 0.609128296375275 0.112761944532394
vt 0.146461173892021 0.112761944532394
vt 0.146461173892021 0.201721206307411
vt 0.0307945143431425 0.201721206307411
vt 0.0307945143431425 0.112761944532394
vt 0.262127935886383 0.112761959433556
vt 0.262127935886383 0.201721206307411
vt 0.377794682979584 0.112761944532394
vt 0.377794682979584 0.201721206307411
vt 0.493461340665817 0.112761944532394
vt 0.493461400270462 0.201721206307411
vt 0.724795162677765 0.273875713348389
vt 0.609128296375275 0.273875713348389
vt 0.146461173892021 0.273875713348389
vt 0.0307945143431425 0.273875713348389
vt 0.262127935886383 0.273875713348389
vt 0.377794682979584 0.273875713348389
vt 0.493461400270462 0.273875713348389
vt 0.724795162677765 0.346270531415939
vt 0.609128296375275 0.353146284818649
vt 0.0307945143431425 0.346270531415939
vt 0.146461173892021 0.346270501613617
vt 0.262127935886383 0.346270531415939
vt 0.377794682979584 0.35063448548317
vt 0.493461400270462 0.354218989610672
vt 0.724795162677765 0.437373757362366
vt 0.609128296375275 0.444627463817596
vt 0.0307945143431425 0.437373757362366
vt 0.146461173892021 0.437373757362366
vt 0.262127935886383 0.437373727560043
vt 0.377794682979584 0.444627463817596
vt 0.493461340665817 0.444627463817596
vt 0.319961339235306 0.031899131834507
vt 0.345764607191086 0.527572751045227
vt 0.942821264266968 0.122733123600483
vt 0.944850564002991 0.111481495201588
vt 0.847647070884705 0.119146712124348
vt 0.846632421016693 0.124772496521473
vt 0.938620090484619 0.0783324912190437
vt 0.844531714916229 0.10257226973772
vt 0.932740151882172 0.0690968111157417
vt 0.841591894626617 0.0979546383023262
vt 0.935336709022522 0.0965380147099495
vt 0.84289014339447 0.111674971878529
vt 0.774519443511963 0.123527474701405
vt 0.555368602275848 0.552599906921387
vt 0.659111797809601 0.552599906921387
vt 0.659111797809601 0.598699986934662
vt 0.555368602275848 0.598699986934662
vt 0.0534074977040291 0.552599906921387
vt 0.152961701154709 0.552599906921387
vt 0.152961701154709 0.598699986934662
vt 0.0534074977040291 0.598699986934662
vt 0.25251629948616 0.552599906921387
vt 0.25251629948616 0.598699986934662
vt 0.356259226799011 0.552599906921387
vt 0.356259226799011 0.598699986934662
vt 0.455814182758331 0.552599906921387
vt 0.455814182758331 0.598699986934662
vt 0.770952165126801 0.950490176677704
vt 0.9000164270401 0.950490057468414
vt 0.835484266281128 0.842364490032196
vt 0.706420004367828 0.842364490032196
vt 0.770952045917511 0.734238743782043
vt 0.9000164270401 0.734238743782043
vt 0.964548528194427 0.842364490032196
vt 0.782245457172394 0.503666520118713
vt 0.908112764358521 0.503666460514069
vt 0.84517914056778 0.609113574028015
vt 0.971046566963196 0.609113574028015
vt 0.9081130027771 0.714561223983765
vt 0.782245695590973 0.714561223983765
vt 0.719311952590942 0.609113574028015
vt 0.555368602275848 0.644800066947937
vt 0.659111797809601 0.644800066947937
vt 0.659111797809601 0.694165349006653
vt 0.555368602275848 0.694165349006653
vt 0.0534074977040291 0.644800066947937
vt 0.152961701154709 0.644800066947937
vt 0.152961701154709 0.694165349006653
vt 0.0534074977040291 0.694165349006653
vt 0.25251629948616 0.644800066947937
vt 0.25251629948616 0.694165349006653
vt 0.356259226799011 0.644800066947937
vt 0.356259226799011 0.694165349006653
vt 0.455814182758331 0.644800066947937
vt 0.455814182758331 0.694165349006653
vt 0.659111797809601 0.770984649658203
vt 0.555368602275848 0.770984649658203
vt 0.152961701154709 0.770984649658203
vt 0.0534074977040291 0.770984649658203
vt 0.25251629948616 0.770984649658203
vt 0.356259226799011 0.770984649658203
vt 0.455814182758331 0.770984649658203
vt 0.659111797809601 0.864225745201111
vt 0.555368602275848 0.864225745201111
vt 0.152961701154709 0.864225625991821
vt 0.0534074977040291 0.864225745201111
vt 0.25251629948616 0.864225745201111
vt 0.356259226799011 0.864225745201111
vt 0.455813825130463 0.864225625991821
vt 0.659111797809601 0.926595866680145
vt 0.555368602275848 0.926595866680145
vt 0.152961701154709 0.926595866680145
vt 0.0534074977040291 0.926595866680145
vt 0.25251629948616 0.926595866680145
vt 0.356259226799011 0.926595866680145
vt 0.455813825130463 0.926595866680145
vt 0.659111797809601 0.967495560646057
vt 0.555368602275848 0.967495560646057
vt 0.152961701154709 0.967495560646057
vt 0.0534074977040291 0.967495560646057
vt 0.25251629948616 0.967495560646057
vt 0.356259226799011 0.967495560646057
vt 0.455814182758331 0.967495560646057
vn -0.184298946406769 0.324992163818328 -0.927585032118369
vn -0.396036377880817 0.695641910957171 -0.599364262460566
vn 0.396036779109825 0.695641679394193 -0.599364266103629
vn 0.184299303229733 0.324992120717393 -0.927584976323273
vn -0.368769621661756 2.77304787493626e-08 -0.929520826092372
vn -0.79609194174562 7.90869131039702e-08 -0.605175693735036
vn -0.184299069095373 -0.324992167635932 -0.927585006404199
vn -0.39603657047723 -0.695641823164517 -0.599364237095426
vn 0.184299197375064 -0.324992218782721 -0.927584962996701
vn 0.396036568122472 -0.695641837400809 -0.599364222128249
vn 0.368769878834177 -6.93576658412731e-08 -0.929520724064085
vn 0.796091946672805 -1.23758739295143e-07 -0.605175687253452
vn -0.323622160076539 0.938412457198007 -0.121040314288233
vn 0.319510113762811 0.939797422296489 -0.121219190923507
vn -0.974459281145355 0.191662128383972 -0.117024518512169
vn -0.644995048565594 -0.755563563943592 -0.114477457024185
vn 0.320486221866165 -0.939700161610608 -0.119382527460883
vn 0.972988426194027 -0.193474340277501 -0.125941264669909
vn -0.410583509611918 0.696069998916305 0.588988742034528
vn 0.389563554823836 0.711934780373875 0.584285123246363
vn -0.822560714755173 0.48535730677124 0.29634803070921
vn -0.795149397138307 0.000215019293299245 0.606413547010033
vn -0.822560776360899 -0.48535712913806 0.296348150639438
vn -0.40718074199952 -0.698244351728604 0.58877726571584
vn -0.00376558880655856 -0.959015236825784 0.283329482893902
vn 0.390622184008789 -0.713583997004907 0.581560133243936
vn 0.827032788500518 -0.491576447854855 0.272707467186838
vn 0.813848507709203 -0.00416271459908899 0.581062198311566
vn 0.829208344096013 0.490340150103327 0.268290997385666
vn -0.267972728048589 0.373761304477723 0.887971342047314
vn 0.152397643875743 0.361890101770178 0.919679570492839
vn -0.439267493220321 0.00283469641026629 0.898351843041576
vn -0.257421078701035 -0.376588276123421 0.889896431348495
vn 0.163252116847211 -0.375778642331808 0.91221661808595
vn 0.404161473613876 -0.0115064164399632 0.914615277385508
vn 7.46522033862711e-08 -9.2610364388222e-09 -0.999999999999997
vn -0.0748454040698907 -0.00511368270022435 0.997182037412857
vn -0.154855966147342 -0.062079856611783 0.985984645494865
vn -0.188532730085291 -0.00778398716452665 0.982036058009282
vn -0.782443536232539 -0.596242500139031 0.179657990737614
vn -0.792751532019532 -0.583722884764835 0.175535188160392
vn -0.221247463247351 -0.504418143474392 -0.834632791436126
vn -0.187986128389055 -0.551117427640147 -0.812976504263562
vn 0.765654175881569 0.093601883614895 -0.636405822049782
vn 0.787475197967958 0.041825858853206 -0.614925532171593
vn 0.79193870997697 0.360646384518204 0.492714181827517
vn 0.786533093187543 0.375664258657441 0.49014493579776
vn -0.22143690104164 0.0465438548335338 0.97406332875964
vn -0.802837494364202 -0.57103981545244 0.171363609938202
vn -0.154018576653548 -0.59574650070366 -0.788266696584956
vn 0.806446961176968 -0.0101011256559844 -0.591220150256159
vn 0.780921706091663 0.390583936638628 0.487447922751507
vn 0.473484402396834 0.602681347285371 -0.642329910810017
vn -0.46123563959213 0.590467081145393 -0.662276612038866
vn -0.317472581115348 0.790205091582703 -0.524201367297654
vn 0.324596135292142 0.797363415581377 -0.508771984729708
vn -0.940135917226768 -0.148879033366919 -0.306560745308195
vn -0.972143872847274 0.122289975870916 -0.199953625340964
vn -0.470486920413701 -0.877852876079242 0.0895342709750541
vn -0.651764267317781 -0.719745072649416 0.239103262722622
vn 0.466578219941286 -0.877859802225376 0.108013574671175
vn 0.30977723126644 -0.89198745538848 0.329236156001255
vn 0.954029919760333 -0.13950460864626 -0.265264728843747
vn 0.973913806099049 -0.226915738812442 0.0010704059359032
vn -1.41392486014518e-08 -0.442294976254113 -0.896869641575839
vn -2.31326440891575e-08 -0.442294952281866 -0.896869653397851
vn 3.96245050899168e-08 -0.442295239292367 -0.896869511857386
vn 8.99339555158657e-09 -0.4422951434034 -0.896869559145457
vn 1.3301276117934e-07 -0.442295383125787 -0.896869440925264
vn 1.33012764880629e-07 -0.442295574247268 -0.896869346672782
vn 0 -0.442295287236846 -0.89686948821335
vn -0.543412191913633 0.82666797020864 -0.146024849634394
vn -0.565750766936624 0.403783105067131 -0.718947337273718
vn -0.636718925626313 0.627083753708091 -0.448725947082007
vn -0.719937582069572 -0.364676932248356 -0.590508774710204
vn -0.833961235068958 -0.520786835901779 0.182454733985371
vn -0.833960952980637 -0.52078731368737 0.182454659589502
vn -0.774720342530037 0.0465840194607789 0.630585696000964
vn -0.639609075859309 0.632190562131787 0.437304611489402
vn -0.671563335136678 0.38660590299995 0.632090628522283
vn -0.0148384151106536 0.451800345159528 0.891995666778004
vn -0.012184402390916 0.437371596755514 0.899198324447899
vn -0.0251603856928412 0.458549681418181 0.888312526458494
vn -0.0259322867335907 0.484336083115629 0.874497612973859
vn -0.0259321237106701 0.484336462349421 0.874497407771288
vn -0.0278045096373829 0.472787513576948 0.88073768867328
vn 0.461237668037967 0.830488555182002 -0.312327669755033
vn -0.0332854953147416 0.920288113787388 -0.389822861596525
vn -0.0852823874151195 0.914905077267059 -0.394557491359288
vn 0.341170152511777 0.917400210134186 -0.204889681245401
vn -0.871355607452759 0.489592228677253 0.0322312733145038
vn -0.947885147298578 0.164844009824039 0.272653993104604
vn -0.999794802870928 -0.019936347277886 -0.00359085080428169
vn -0.915956074623678 0.299300292931169 -0.26728973794611
vn -0.86410718511496 -0.187782617918499 0.466965160413896
vn -0.911123813198184 -0.325768875791664 0.252444125676625
vn 0.0134841775691911 -0.737938434039074 0.674733313630831
vn 0.484619719937112 -0.604765862948752 0.631982577338907
vn 0.33435289694368 -0.470925140568423 0.8163563267875
vn 0.0114025418043635 -0.470039450243232 0.882571751902042
vn 0.838704431498549 -0.325523518435525 0.436588267742106
vn 0.707054923225768 -0.0741634862104508 0.703258923054173
vn 0.836474333280877 0.525905868831537 -0.154057479178581
vn 0.706921048194547 0.706107138900934 0.0409309175643525
vn -0.104220156125702 0.82564316286325 -0.554483116672008
vn 0.151605673358549 0.978912162788453 -0.136918579273722
vn -0.865906858785527 -0.248184292054837 -0.434292377420351
vn -0.655435739964622 0.0326453547220068 -0.754545075918002
vn -0.884616339953399 -0.464974647187401 -0.0353907976796891
vn 0.0929854473899387 0.109655677538227 0.989610700708781
vn -0.120520466656734 -0.0812119296534353 0.989383363312123
vn 0.468196872075419 0.188442025794011 0.863296757722073
vn 0.367532867831844 0.642794268070407 0.672112431070227
vn -0.263460767156156 0.390140136180739 -0.882257954518045
vn -0.0680479565523168 0.717765698601412 -0.692951569390156
vn -0.411091695705093 -0.00824210753899618 -0.911556737337631
vn -0.868970760543677 -0.486314387488708 -0.0915867558199658
vn 0.179904283992536 0.0875610542363337 0.979779317184311
vn -0.246520574575273 -0.0126190799711351 0.969055398381207
vn 0.36857485248431 0.448477845468555 0.814260523567275
vn 0.620533479260004 0.715055951670771 0.321921088308426
vn 0.804809610932915 0.230433262734775 -0.546975320810195
vn 0.706590101213555 -0.0936168117650602 -0.701403109076345
vn 0.922900078196713 0.332057356763004 -0.194918848457679
vn 0.407010184711951 -0.719964697059654 -0.562133030988702
vn 0.27132646000017 -0.95423368068861 0.12577771958198
vn 0.254160316641829 -0.820254808653325 0.512430075547505
vn 0.475526044820282 -0.523762875844888 0.706786693836458
vn 0.83628242231794 0.137002061423109 0.530906908306774
vn 0.904201578582887 0.38446483947014 0.186027665951638
vn -0.839928554058684 -0.296762431911244 0.454369984795445
vn -0.491474701594932 -0.597689407322397 0.633419284571266
vn -0.94867674997591 0.155345075426231 0.275463848074413
vn -0.821930334074946 0.568890620956466 0.0281777805232175
vn -0.466053321461636 0.880812979395058 -0.0834433753139146
vn 0.468492882037485 0.880342858808609 -0.0742352370838592
vn 0.824285942470492 0.564404399542254 0.0447253711318322
vn 0.947044443849337 0.132140271942778 0.292652985470829
vn 0.820360931106013 -0.334928208802357 0.463498692191595
vn 0.454569151438992 -0.62014688135577 0.639362754705611
vn -0.0230837182641067 -0.752758911573457 0.657891452291218
g snomanHead_short
f 1/1/1 2/2/2 3/3/3 4/4/4
f 5/5/5 6/6/6 2/7/2 1/8/1
f 7/9/7 8/10/8 6/6/6 5/5/5
f 9/11/9 10/12/10 8/10/8 7/9/7
f 11/13/11 12/14/12 10/12/10 9/11/9
f 4/4/4 3/3/3 12/14/12 11/13/11
f 2/2/2 13/15/13 14/16/14 3/3/3
f 6/6/6 15/17/15 13/18/13 2/7/2
f 8/10/8 16/19/16 15/17/15 6/6/6
f 10/12/10 17/20/17 16/19/16 8/10/8
f 12/14/12 18/21/18 17/20/17 10/12/10
f 3/3/3 14/16/14 18/21/18 12/14/12
f 14/16/14 13/15/13 19/22/19 20/23/20
f 19/24/19 13/18/21 15/17/15 21/25/22
f 21/25/22 15/17/23 16/19/16 22/26/24
f 22/26/24 16/19/25 17/20/17 23/27/26
f 23/27/26 17/20/27 18/21/18 24/28/28
f 24/28/28 18/21/29 14/16/29 20/23/20
f 20/23/20 19/22/19 25/29/30 26/30/31
f 25/31/30 19/24/19 21/25/22 27/32/32
f 27/32/32 21/25/22 22/26/24 28/33/33
f 29/34/34 28/33/33 22/26/24 23/27/26
f 30/35/35 29/34/34 23/27/26 24/28/28
f 24/28/28 20/23/20 26/30/31 30/35/35
f 1/1/1 4/4/4 31/36/36
f 5/5/5 1/8/1 31/36/36
f 7/9/7 5/5/5 31/36/36
f 9/11/9 7/9/7 31/36/36
f 11/13/11 9/11/9 31/36/36
f 4/4/4 11/13/11 31/36/36
f 26/30/31 25/29/30 32/37/37
f 25/31/30 27/32/32 32/37/37
f 27/32/32 28/33/33 32/37/37
f 28/33/33 29/34/34 32/37/37
f 29/34/34 30/35/35 32/37/37
f 30/35/35 26/30/31 32/37/37
f 33/38/38 34/39/38 35/40/39 36/41/39
f 34/39/40 37/42/40 38/43/41 35/40/41
f 37/42/42 39/44/42 40/45/43 38/43/43
f 39/44/44 41/46/44 42/47/45 40/45/45
f 41/46/46 33/38/46 36/41/47 42/47/47
f 36/41/39 35/40/39 43/48/48
f 35/40/41 38/43/41 43/48/49
f 38/43/43 40/45/43 43/48/50
f 40/45/45 42/47/45 43/48/51
f 42/47/47 36/41/47 43/48/52
f 44/49/53 45/50/54 46/51/55 47/52/56
f 45/53/54 48/54/57 49/55/58 46/56/55
f 48/54/57 50/57/59 51/58/60 49/55/58
f 50/57/59 52/59/61 53/60/62 51/58/60
f 52/59/61 54/61/63 55/62/64 53/60/62
f 54/61/63 44/49/53 47/52/56 55/62/64
f 45/63/65 44/64/66 56/65/67
f 48/66/68 45/63/65 56/65/67
f 50/67/69 48/66/68 56/65/67
f 52/68/70 50/67/69 56/65/67
f 54/69/71 52/68/70 56/65/67
f 44/64/66 54/69/71 56/65/67
f 57/70/72 58/71/73 59/72/74
f 58/71/73 60/73/75 59/72/74
f 60/73/75 61/74/76 59/72/77
f 61/74/76 62/75/78 59/72/77
f 62/75/78 63/76/79 59/72/80
f 63/76/79 57/70/72 59/72/74
f 64/77/81 65/78/82 66/79/82 67/80/81
f 65/81/82 68/82/83 69/83/83 66/84/82
f 68/82/83 70/85/84 71/86/84 69/83/83
f 70/85/84 72/87/85 73/88/85 71/86/84
f 72/87/85 74/89/86 75/90/86 73/88/85
f 74/89/86 64/77/81 67/80/81 75/90/86
f 67/80/87 66/79/88 76/91/89 77/92/90
f 66/84/91 69/83/92 78/93/93 76/94/94
f 69/83/92 71/86/95 79/95/96 78/93/93
f 71/86/97 73/88/98 80/96/99 79/95/100
f 73/88/98 75/90/101 81/97/102 80/96/99
f 75/90/103 67/80/87 77/92/90 81/97/104
f 77/92/90 76/91/89 82/98/105 83/99/106
f 76/94/94 78/93/93 84/100/107 82/101/108
f 78/93/93 79/95/96 85/102/109 84/100/107
f 79/95/100 80/96/99 86/103/110 85/102/111
f 80/96/112 81/97/102 87/104/113 86/103/110
f 81/97/104 77/92/90 83/99/106 87/104/113
f 83/99/106 82/98/105 88/105/114 89/106/115
f 82/101/108 84/100/107 90/107/116 88/108/114
f 84/100/107 85/102/109 91/109/117 90/107/117
f 85/102/111 86/103/110 92/110/118 91/109/119
f 86/103/110 87/104/113 93/111/120 92/110/118
f 87/104/113 83/99/106 89/106/121 93/111/120
f 89/106/122 88/105/123 58/112/123 57/113/124
f 88/108/123 90/107/125 60/114/125 58/115/123
f 90/107/125 91/109/126 61/116/126 60/114/125
f 91/109/126 92/110/127 62/117/128 61/116/126
f 92/110/118 93/111/120 63/118/129 62/117/128
f 93/111/130 89/106/121 57/113/124 63/118/129
f 49/55/131 51/58/60 70/85/132 68/82/133
f 46/56/134 49/55/58 68/82/133 65/81/135
f 47/52/56 46/51/55 65/78/135 64/77/136
f 55/62/137 47/52/137 64/77/136 74/89/138
f 53/60/139 55/62/64 74/89/138 72/87/140
f 51/58/141 53/60/62 72/87/140 70/85/132
