v 48.3103924483655 -0.10265556862761 44.4161580107004
v 48.2006095137628 -0.102347165187697 39.8807223268587
v 50.9415482529532 -0.112453772955394 39.8335888047038
v 51.0518560149992 -0.11260795172639 44.3690179019717
v 47.8604038317986 -0.101510874442952 25.8333288939885
v 47.7430030660221 -0.108878982670647 20.8195021214086
v 50.4778044574236 -0.101974076275814 20.7717181750904
v 50.5998855873403 -0.11203566583129 25.7862217181289
v 47.5247296823116 -0.114684771517764 11.475162795879
v 47.4007019909073 -0.116463101820464 6.50357901440315
v 50.1296166983734 -0.102230370274496 6.45941603703474
v 50.2502565111323 -0.103912039552621 11.4282960299633
v 50.3687656811361 -0.102914754195404 16.294464990963
v 47.6384566559847 -0.111697336945971 16.3414140890513
v 48.1297734754031 -0.107059451332939 -6.11668369334403
v 49.2245948551873 -0.107059451332939 -6.13550938199262
v 49.8234778007536 -0.104291906057712 -2.20449316487007
v 47.515874198361 -0.108145564469308 -2.16481317429829
v 50.0265311886074 -0.101156879066787 2.21998180335091
v 47.2935666932576 -0.109377587100987 2.26693748801301
v 50.8275588655584 -0.112294453617089 35.1470307714601
v 48.0871762867931 -0.102028480613165 35.1941511204673
v 47.9594160539447 -0.101736860513542 29.9203078203963
v 50.6992894717575 -0.112148651216932 29.8731973512498
v 49.3362969349186 2.26741587111697 29.8966323808511
v 49.4580334020367 2.25783850464281 35.170548133234
v 49.0254972562721 2.32078107950542 16.3175657519436
v 49.1319275618338 2.3123069766913 20.7621775229326
v 48.4655063742308 2.29362713424676 -6.04680709204073
v 48.5690148792497 2.30465977084715 -2.18292995721222
v 49.2420473259896 2.27482979312087 25.8138392220969
v 48.6790406444604 2.30599436003608 2.24355432768042
v 48.7880480877662 2.3317608416992 6.48003283636886
v 48.908946397624 2.32983337374732 11.4516684871134
v 49.5719992896952 2.25818488096386 39.8571390993468
v 49.6823070517412 2.25851999699461 44.3925978361968
v 46.4723449096062 0.769501801590659 -1.87821652821349
v 49.5269346287769 -0.038410976801663 -0.0327281184923856
v 47.2820753222221 -0.0384109615023555 2.59429349945203
v 44.2274934362968 0.769501801590659 0.748805089730933
v 49.7106868999085 0.16738498020787 8.09278754228531
v 49.4928600111871 0.16738498020787 4.41507278920125
v 53.8666779250188 0.16738498020787 4.23191169816395
v 54.0844969804948 0.16738498020787 7.90962645124802
v 46.4050964976502 0.0567483136499502 36.522827721458
v 49.7657859482136 -0.0888533748930627 36.9713766909252
v 49.2557790052161 0.364616400196851 39.7771188141792
v 45.8950895546527 0.510218104039171 39.3285731379989
v -49.9999959950685 15.5334172286387 -7.99999987985205
v 639.847786970965 15.5334172286387 -7.99999987985205
v 639.847786970965 15.5334172286387 43.9516082523376
v -49.9999959950685 15.5334172286387 43.9516082523376
v -7.88086292937672 -3.12885274411499e-07 -8.02036320553164
v 7.88086292937672 -3.12885274411499e-07 -8.02036320553164
v 7.88086292937672 3.12885274411499e-07 8.02036320553164
v -7.88086292937672 3.12885274411499e-07 8.02036320553164
v -20.4272737938533 -0.387512855329539 -40.0444402293393
v 38.9882280785322 -0.387512855329539 -40.0444402293393
v 38.9882280785322 -0.387512855329539 19.3710656479778
v -20.4272737938533 -0.387512855329539 19.3710656479778
v -20.4272757963191 -0.387512855329539 -40.0444402293393
v 38.9882340859295 -0.387512855329539 -40.0444402293393
v 38.9882340859295 -0.387512855329539 19.3710656479778
v -20.4272757963191 -0.387512855329539 19.3710656479778
v -1.22690902188796 -3.12885274411499e-07 -16.8079894079055
v 17.1279594915463 -3.12885274411499e-07 -3.92360640510733
v 4.24357820142664 3.12885274411499e-07 14.4312583454049
v -14.1112898489852 3.12885274411499e-07 1.54687489461751
vt 0.00660658348351717 0.996491968631744
vt 0.00601325649768114 0.729198455810547
vt 0.995002269744873 0.729198455810547
vt 0.995595633983612 0.996491968631744
vt 0.00440438883379102 0.593873679637909
vt 0.993393421173096 0.604208409786224
vt 0.00440438883379102 0.582026720046997
vt 0.993393421173096 0.582026720046997
vt 0.993393421173096 0.00440438883379102
vt 0.993393421173096 0.313066631555557
vt 0.00440438883379102 0.307722210884094
vt 0.00440438883379102 0.00440438883379102
vt 0.994426012039185 0.469572126865387
vt 0.00543616153299809 0.469217360019684
vt 0.994389176368713 0.452998131513596
vt 0.0054001584649086 0.452998131513596
vt 0.00483914650976658 0.20026259124279
vt 0.993828177452087 0.20026259124279
vt 0.793725430965424 0.186396524310112
vt 0.816318869590759 0.186396524310112
vt 0.816329121589661 0.281133413314819
vt 0.793725430965424 0.281133413314819
vt 0.813190877437592 0.186396524310112
vt 0.813114821910858 0.281133413314819
vt 0.83382773399353 0.186396524310112
vt 0.83382773399353 0.281133413314819
vt 0.813447952270508 0.186396524310112
vt 0.813447952270508 0.281133413314819
vt 0.811234295368195 0.186396524310112
vt 0.811224043369293 0.281133413314819
vt 0.814360499382019 0.186396524310112
vt 0.814438343048096 0.281133413314819
vt 0.814105153083801 0.186396524310112
vt 0.814105153083801 0.281133413314819
vt 0.991992473602295 0.00533833866938949
vt 0.00266915559768677 0.00533833866938949
vt 0.00660658348351717 0.998482406139374
vt 0.995595693588257 0.998482406139374
vt 0.00266915559768677 0.994661688804626
vt 0.00266915559768677 0.00533831119537354
vt 0.99199253320694 0.00533831119537354
vt 0.99199253320694 0.994661688804626
vt 0.991992473602295 0.994661688804626
vt -4.34904813766479 0
vt 5.34904813766479 0
vt 5.34904813766479 1
vt -4.34904813766479 1
vt 0.00332722067832947 0.00332722067832947
vt 0.996672749519348 0.00332722067832947
vt 0.996672749519348 0.996672749519348
vt 0.00332722067832947 0.996672749519348
vt 0 0
vt 1 0
vt 1 1
vt 0 1
vn -0.0036581220919021 -0.999993308335829 3.77667106268358e-05
vn -0.00224286144425078 -0.999997479711255 -0.000100715843023518
vn 0.00110546268459847 -0.999999387764288 4.92270437605524e-05
vn 0.00408624613913436 -0.999991645173146 0.000110346706159901
vn 0.00433790157917785 -0.999990420973012 -0.000583585561359174
vn 0.00323319603166425 -0.999994716269961 0.000337454562998601
vn 0.00113632528476329 -0.999999331169114 0.000215467334879903
vn 0.0017677698147305 -0.999998413779709 0.000217779584828194
vn 0.00324618255780357 -0.999994642091337 -0.000422004051263103
vn -0.00374413949502629 -0.999992989689202 4.46306420763011e-05
vn -0.00377225006404381 -0.999992883784738 5.00932902845352e-05
vn 0.866059202402708 0.499518097931845 -0.0205700698136296
vn 0.867366009661628 0.497264677205284 -0.0201008976811947
vn 0.87250960095685 0.488218154085689 -0.019236170598131
vn 0.874397336709262 0.484768259947322 -0.0207130804902487
vn 0.900258896261045 0.431543177918842 -0.0574839568449527
vn 0.918525905258931 0.386453322699018 -0.0834505287170247
vn 0.869688735179412 0.49323663219609 -0.0189506876364216
vn 0.874690957724494 0.484172837093578 -0.0221899142802224
vn 0.876581864365217 0.480477143139966 -0.0273120849818637
vn 0.875233514253916 0.483248220555591 -0.020915373690067
vn 0.865628959878955 0.500242823939877 -0.0210623103085916
vn 0.86560716948981 0.500280536882421 -0.0210621115863456
vn -0.86495329911529 0.501413251430885 0.020989083807615
vn -0.864317634093781 0.502511268675852 0.0209153591486049
vn -0.869485965578132 0.493504502288409 0.0211532948670641
vn -0.868440077433254 0.495355421159482 0.0208527848412511
vn -0.958717444485606 0.277303132231356 -0.0629589905705862
vn -0.929977567974494 0.365717732573355 -0.0373130425675754
vn -0.866675729775324 0.498431920554369 0.0209475533390525
vn -0.880919345071589 0.473241331143447 0.00487339473277257
vn -0.869132238041388 0.494123169984061 0.0212472511650609
vn -0.864380176715565 0.502402547174112 0.0209425570103709
vn -0.864398726506894 0.502369469497474 0.0209704012857793
vn -0.00382008859225767 -0.999992702121103 5.12609224148237e-05
vn -0.864361717164438 0.502435443603203 0.020915231574067
vn -0.00371603369495216 -0.999993094756044 3.91638666864414e-05
vn 0.865585180515109 0.500318592236103 -0.0210618502394919
vn -0.864375058764196 0.502410148265956 0.0209714259356032
vn -0.170016903090833 -0.974672641256357 -0.145284187197915
vn -1.63816216147694e-09 -1 0
vn -0.0625346977789955 -0.986985602133637 0.148151384585474
vn 0 -1 0
vn 0 -0.999999999999999 3.90113575513109e-08
vn -1.60320792051881e-08 -1 2.28390214734319e-08
g vine1 vine_1
f 1/1/1 2/2/1 3/3/1 4/4/1
f 5/1/2 6/5/3 7/6/3 8/4/2
f 9/1/4 10/7/5 11/8/5 12/4/4
f 12/9/4 13/10/6 14/11/6 9/12/4
f 15/12/7 16/9/7 17/13/8 18/14/8
f 19/4/9 11/8/5 10/7/5 20/1/9
f 21/15/10 22/16/10 23/17/11 24/18/11
f 18/14/8 17/13/8 19/4/9 20/1/9
f 21/19/12 24/20/13 25/21/13 26/22/12
f 7/19/14 13/23/15 27/24/15 28/22/14
f 17/19/16 16/25/17 29/26/17 30/22/16
f 8/19/18 7/25/14 28/26/14 31/22/18
f 11/19/19 19/25/20 32/26/20 33/22/19
f 12/19/21 11/25/19 33/26/19 34/22/21
f 4/19/22 3/27/23 35/28/23 36/22/22
f 19/19/20 17/25/16 30/26/16 32/22/20
f 5/19/24 23/29/25 25/30/25 31/22/24
f 9/19/26 14/31/27 27/32/27 34/22/26
f 15/19/28 18/25/29 30/26/29 29/22/28
f 6/19/30 5/25/24 31/26/24 28/22/30
f 20/19/31 10/25/32 33/26/32 32/22/31
f 10/19/32 9/25/26 34/26/26 33/22/32
f 22/19/33 2/33/34 35/34/34 26/22/33
f 18/19/29 20/25/31 32/26/31 30/22/29
f 14/11/6 13/10/6 7/6/3 6/5/3
f 27/24/15 13/23/15 12/25/21 34/26/21
f 27/32/27 14/31/27 6/25/30 28/26/30
f 24/18/35 23/17/35 5/12/2 8/9/2
f 25/21/13 24/20/13 8/25/18 31/26/18
f 25/30/25 23/29/25 22/25/36 26/26/36
f 3/3/37 2/2/37 22/16/37 21/15/37
f 35/28/38 3/27/38 21/25/12 26/26/12
f 35/34/39 2/33/39 1/25/39 36/26/39
g leaves1 vine_1
f 37/35/40 38/36/40 39/37/40 40/38/40
g leaves2 vine_1
f 41/39/41 42/40/41 43/41/41 44/42/41
g leaves3 vine_1
f 45/35/42 46/36/42 47/39/42 48/43/42
g background
f 49/44/43 50/45/43 51/46/43 52/47/43
g bananas
f 53/48/44 54/49/44 55/50/44 56/51/44
g bat__1
f 57/52/43 58/53/43 59/54/43 60/55/43
g bat2
f 61/52/43 62/53/43 63/54/43 64/55/43
g bat3
f 61/52/43 62/53/43 63/54/43 64/55/43
g spider_2
f 65/52/45 66/53/45 67/54/45 68/55/45
g spider_3
f 65/52/45 66/53/45 67/54/45 68/55/45
