v -0.0128126538114574 -0.015522753522845 0.0928235707999769
v 0.01281265038488 -0.015522753522845 0.0928235707999769
v -5.9066844886858e-10 -0.0115985712742825 0.0971422029134623
v -0.0356414314169041 -0.02154318562286 0.064380349460633
v -0.0402753907332295 -0.0242069614364166 0.0429272917821811
v 0.0402753907332295 -0.0242069614364166 0.0429272917821811
v 0.0356414314169041 -0.02154318562286 0.064380349460633
v -0.0417836672933319 -0.0242069614364166 0.0265641291540844
v 0.0417836672933319 -0.0252660188851549 0.0265641291540844
v -0.0398591506740208 -0.0252660188851549 0.0101848234229894
v 0.0398591506740208 -0.0252660188851549 0.0101848234229894
v 0.0417836672933319 0.0406697582577981 0.0265641291540844
v 0.0398591506740208 0.0406697582577981 0.0101848234229894
v -0.0398591506740208 0.0406697582577981 0.0101848234229894
v -0.0417836672933319 0.0417288157065364 0.0265641291540844
v 0.0402753907332295 0.0417288157065364 0.0429272917821811
v -0.0402753907332295 0.0417288157065364 0.0429272917821811
v 0.0356414314169041 0.0416053898904582 0.064380349460633
v -0.0356414314169041 0.0416053898904582 0.064380349460633
v -0.0128126538114574 0.0381253006906089 0.0928235707999769
v -5.9066844886858e-10 0.036741470213853 0.0971422029134623
v 0.01281265038488 0.0381253006906089 0.0928235707999769
v 0.0276617208394688 -0.0190218457773821 0.0796549015013187
v 0.0276617208394688 0.040354218833571 0.0796549015013187
v -0.0276617208394688 0.040354218833571 0.0796549015013187
v -0.0276617208394688 -0.0190218457773821 0.0796549015013187
v 0.04509005060706 -0.0285248032298222 0.00672122584013907
v 0.04509005060706 0.0439285355051527 0.00672122584013907
v -0.0450900540336374 0.0439285355051527 0.00672122584013908
v -0.0450900540336374 -0.0285248032298222 0.00672122584013908
v 0.0454746256648103 -0.0315710620950866 -6.70106972801211e-05
v 0.0454746256648103 0.0469747943704171 -6.70106972801211e-05
v -0.0454746325179651 0.0469747943704171 -6.70263119249709e-05
v -0.0454746325179651 -0.0315710620950866 -6.70263119249709e-05
v 0.002079930518325 -0.0241966654145868 0.033796967476758
v -0.00667766794591984 -0.0241966654145868 0.0315812978894532
v -0.00667766794591984 -0.0322792518601409 0.0315812978894532
v 0.002079930518325 -0.0322792518601409 0.033796967476758
v -0.0104056597127946 -0.0241966654145868 0.0233528839534471
v -0.0104056597127946 -0.0322792518601409 0.0233528839534471
v -0.00629679195724459 -0.0241966654145868 0.0153078912615307
v -0.00629679195724459 -0.0322792518601409 0.0153078912615307
v 0.00255487387771121 -0.0241966654145868 0.0135043621729543
v 0.00255487387771121 -0.0322792518601409 0.0135043621729543
v 0.00948385355358663 -0.0241966654145868 0.0193003918490598
v 0.00948385355358663 -0.0322792518601409 0.0193003918490598
v 0.00927248219745085 -0.0241966654145868 0.0283314510638411
v 0.00927248219745085 -0.0322792518601409 0.0283314510638411
v 1.57461045626191e-06 -0.0322792518601409 0.023596463254214
v -0.0295130704778572 -0.0238392647276367 0.0251244288902643
v -0.0341456003524785 -0.0238392647276367 0.0239524003258827
v -0.0341456003524785 -0.0294285306003442 0.0239524003258827
v -0.0295130704778572 -0.0294285306003442 0.0251244288902643
v -0.0361176059545736 -0.0238392647276367 0.019599794581862
v -0.0361176059545736 -0.0294285306003442 0.019599794581862
v -0.033944127379806 -0.0238392647276367 0.0153442136553589
v -0.033944127379806 -0.0294285306003442 0.0153442136553589
v -0.0292618384408904 -0.0238392647276367 0.0143901961336959
v -0.0292618384408904 -0.0294285306003442 0.0143901961336959
v -0.0255965978523674 -0.0238392647276367 0.0174561371834453
v -0.0255965978523674 -0.0294285306003442 0.0174561371834453
v -0.025708407514107 -0.0238392647276367 0.0222333203099334
v -0.025708407514107 -0.0294285306003442 0.0222333203099334
v -0.0306124638643668 -0.0294285306003442 0.0197286413647156
v 0.0326398589616654 -0.0238392647276367 0.0251244288902643
v 0.0280073290870441 -0.0238392647276367 0.0239524003258827
v 0.0280073290870441 -0.0294285306003442 0.0239524003258827
v 0.0326398589616654 -0.0294285306003442 0.0251244288902643
v 0.0260353234849491 -0.0238392647276367 0.019599794581862
v 0.0260353234849491 -0.0294285306003442 0.019599794581862
v 0.0282088020597167 -0.0238392647276367 0.0153442136553589
v 0.0282088020597167 -0.0294285306003442 0.0153442136553589
v 0.0328910909986323 -0.0238392647276367 0.0143901961336959
v 0.0328910909986323 -0.0294285306003442 0.0143901961336959
v 0.0365563315871553 -0.0238392647276367 0.0174561371834453
v 0.0365563315871553 -0.0294285306003442 0.0174561371834453
v 0.0364445219254157 -0.0238392647276367 0.0222333203099334
v 0.0364445219254157 -0.0294285306003442 0.0222333203099334
v 0.0315404655751558 -0.0294285306003442 0.0197286413647156
v -0.0103247032997605 -0.0256698488300841 0.00939673633041239
v 0.0154220558094155 -0.0256698488300841 0.00939673633041239
v 0.0154220558094155 -0.0256698488300841 0.0350663549584293
v -0.0103247032997605 -0.0256698488300841 0.0350663549584293
v -0.0350912546360368 -0.0254823866307613 0.0114640258741258
v -0.0214719238075114 -0.0254823866307613 0.0114640258741258
v -0.0214719238075114 -0.0254823866307613 0.0250425514996071
v -0.0350912546360368 -0.0254823866307613 0.0250425514996071
v 0.0270616748034858 -0.0254823866307613 0.0114640258741258
v 0.0406810056320113 -0.0254823866307613 0.0114640258741258
v 0.0406810056320113 -0.0254823866307613 0.0250425514996071
v 0.0270616748034858 -0.0254823866307613 0.0250425514996071
v -0.0637580872833572 -0.0481709642360217 -1.13551967610031e-17
v 0.0637580872833572 -0.0481709642360217 -1.13551967610031e-17
v 0.0637580872833572 0.0576086009894143 1.13551967610031e-17
v -0.0637580872833572 0.0576086009894143 1.13551967610031e-17
v -0.0459992539888471 -0.0437340724679007 -8.67328645273192e-05
v 0.0459992539888471 -0.0437340724679007 -8.67328645273192e-05
v 0.0459992539888471 -0.0437340724679007 0.0977244473895469
v -0.0459992539888471 -0.0437340724679007 0.0977244473895469
v 0.0459992539888471 0.0482644355097935 0.0977244473895469
v -0.0459992539888471 0.0482644355097935 0.0977244473895469
v 0.0459992539888471 0.0482644355097935 -8.67328645273192e-05
v -0.0459992539888471 0.0482644355097935 -8.67328645273192e-05
vt 0.267057359218597 0.954597949981689
vt 0.372523248195648 0.960693061351776
vt 0.318432658910751 1
vt 0.175190716981888 0.696283340454102
vt 0.379300773143768 0.635226190090179
vt 1.50751161575317 1.00623512268066
vt 0.316979646682739 0.854779839515686
vt -0.358744621276855 0.753698885440826
vt 0.256853878498077 0
vt 0.155023753643036 0.200931400060654
vt 0.490945130586624 0.196872502565384
vt 0.146524637937546 0.351203143596649
vt 0.158659905195236 0.204146862030029
vt 0.468046367168427 0.202701598405838
vt 0.495184332132339 0.351203143596649
vt 0.154585480690002 0.501414239406586
vt 0.487313568592072 0.501414239406586
vt 0.174105018377304 0.698418021202087
vt 0.467483878135681 0.698418021202087
vt 0.376711964607239 0.954598069190979
vt 0.320854604244232 0.993366241455078
vt 0.264997124671936 0.954598069190979
vt 6.13927841186523e-06 0.694243252277374
vt 0.583429992198944 0.69420713186264
vt 0.583431780338287 0.851617038249969
vt 3.06963920593262e-06 0.851618945598602
vt 0.583433568477631 0.999980032444
vt 0 0.999967098236084
vt 0.00140565633773804 1
vt 0.584785938262939 0.999987006187439
vt 0.584786951541901 0.851615905761719
vt 0.00139641761779785 0.851613998413086
vt 0.584787964820862 0.694187998771667
vt 0.00138780474662781 0.694151759147644
vt 0.584789037704468 0.539868712425232
vt 0.00137776136398315 0.539909422397614
vt 0.584790289402008 0.387081861495972
vt 0.00136363506317139 0.387074857950211
vt 0.584791600704193 0.233278185129166
vt 0.00135281682014465 0.233278185129166
vt 0.566082656383514 0.0844094753265381
vt 1 2.98023223876953e-08
vt 9.23871994018555e-06 0.539806365966797
vt 0.583427906036377 0.539847135543823
vt 1.41263008117676e-05 0.387092500925064
vt 0.583424866199493 0.387085497379303
vt 1.7702579498291e-05 0.233278185129166
vt 0.583422780036926 0.233278185129166
vt -0.0160158164799213 0.0844687819480896
vt 0.278385579586029 0.000485539436340332
vt 0.0859710052609444 0.865883111953735
vt 0.527066469192505 0.973436117172241
vt 0.981787800788879 1.07020509243011
vt 0.942824363708496 1
vt 0.167717337608337 0.434227883815765
vt 0.167735248804092 0.584394693374634
vt 0.248946473002434 0.538818120956421
vt -0.0160371251404285 -5.96046447753906e-08
vt 0.25804939866066 0.397651463747025
vt 0.269165396690369 0.809071063995361
vt 0 0.883643507957458
vt 0.497148811817169 0.885056912899017
vt 0.206407934427261 0.83638334274292
vt 0.43410250544548 0.83638334274292
vt 0.551391005516052 0.681996941566467
vt 1 0.767194271087646
vt 0.0705556571483612 0.248319238424301
vt 0.312823802232742 0.209067344665527
vt 0.291467159986496 0.873949646949768
vt 0.707340478897095 1
vt 0.548998773097992 1
vt 0.548998773097992 0.622846305370331
vt 0.707340478897095 0.622846305370331
vt 0.411380738019943 1
vt 0.411380738019943 0.622846305370331
vt 0.277334839105606 1
vt 0.277334839105606 0.622846305370331
vt 0.137065976858139 0.999999940395355
vt 0.137065976858139 0.622846305370331
vt 1.30106826645715e-07 1
vt 6.70334543428908e-09 0.622846305370331
vt 1 1
vt 0.853670239448547 1
vt 0.853670239448547 0.622846305370331
vt 0.999999940395355 0.622846305370331
vt 0.736121296882629 0.579653203487396
vt 0.513048648834229 0.581606268882751
vt 0.622878313064575 0.305438786745071
vt 0.372679740190506 0.375599682331085
vt 0.420715302228928 0.116760514676571
vt 0.620983719825745 -4.87459388409661e-08
vt 0.822678208351135 0.113240927457809
vt 0.873919546604156 0.371210902929306
vt 0 0
vt 1 0
vt 0 1
vn -0.299511941940692 -0.520023188776347 0.799917795632648
vn 0.299511927796829 -0.520023182971657 0.799917804702117
vn 1.88083919782199e-08 -0.276954868588101 0.96088292771042
vn 0 -0.989714064561166 0.143059674296486
vn -0.00322812599719613 -0.996958785167515 0.0778637263419873
vn -0.00646596938149045 -0.999456414315042 0.032327497961918
vn -0.00346492887588152 -0.923516183242696 0.383543809175338
vn 0.0064659481597753 0.999456414452191 -0.0323274979663541
vn 0.00350961546452655 0.935427015034988 0.353502449980227
vn 0.00322508142255472 0.999906402741404 -0.0132960372503335
vn 0 0.99904407388952 0.0437142817192668
vn 0 0.97160295848883 0.236617182503202
vn 0 0.952304593811936 0.305149079311544
vn 0.78792648011604 0 0.615769325260644
vn 0.501470152367738 0 0.865174945478819
vn 0 0 1
vn -0.501470178977822 0 0.86517493005516
vn -0.787926515385183 0 0.61576928013093
vn -0.940370406245918 0 0.34015217044271
vn -0.988420842004843 0 0.151737401751962
vn -0.999921593449326 -0 -0.0125222583330996
vn -0.99316789507355 -0 -0.116694182353591
vn 0.940370406245919 0 0.340152170442709
vn 0.988420842004843 0 0.151737401751962
vn 0.999921593449326 0 -0.0125222583331001
vn 0.99316789507355 0 -0.116694182353591
vn 0.552085455485835 0 0.833787532792976
vn 0.666178158248533 -0.31292531361907 0.676967066827478
vn 0.666178244928261 0.312925674350953 0.67696681478216
vn -0.21304307712341 0.633110659361446 0.744166339129031
vn -0.21304306745936 -0.633110343227332 0.744166610851412
vn -0.552085028869884 0 0.83378781527301
vn 0 -0.977685094402628 0.210075834362082
vn 0 0.99223504252227 0.124376928691896
vn 0.998399041205381 0 0.056562836917679
vn -4.3113106131902e-08 0.912346050523814 0.409419936121333
vn -4.3113106131902e-08 -0.912346050523814 0.409419936121333
vn -0.998399048583974 0 0.0565627066768966
vn 0.199648336033573 0 0.979867614486276
vn -0.641612673592144 0 0.767028798081233
vn -0.99972621932858 -0 -0.0233984270194195
vn -0.605025491688205 -0 -0.796206100458572
vn 0.245271764759665 0 -0.969454362727653
vn 0.910874414219658 0 -0.412683657926983
vn 0.890569994744077 0 0.454846220674125
vn 0 -1 0
vn -2.47511531713972e-08 -0.999999999999999 -3.37226952431612e-08
vn -8.66290293634137e-08 -0.999999999999989 -1.18029424172819e-07
vn -3.23568807693583e-08 -0.999999999999999 -4.40852683367228e-08
vn -1.13249073886239e-07 -0.999999999999982 -1.54298427179921e-07
vn 0 1 0
vn 0 0 -1
vn 1 0 0
vn -1 0 0
g Radio_Main Radio_B
f 1/1/1 2/2/2 3/3/3
f 4/4/4 5/5/5 6/6/5 7/7/4
f 5/5/5 8/8/6 9/9/6 6/6/5
f 8/8/6 10/10/7 11/11/7 9/9/6
f 12/12/8 13/13/9 14/14/9 15/15/8
f 16/16/10 12/12/8 15/15/8 17/17/10
f 18/18/11 16/16/10 17/17/10 19/19/11
f 20/20/12 21/21/13 22/22/12
f 23/23/14 24/24/14 22/25/15 2/26/2
f 2/26/2 22/25/15 21/27/16 3/28/3
f 3/29/3 21/30/16 20/31/17 1/32/1
f 1/32/1 20/31/17 25/33/18 26/34/18
f 26/34/18 25/33/18 19/35/19 4/36/19
f 4/36/19 19/35/19 17/37/20 5/38/20
f 5/38/20 17/37/20 15/39/21 8/40/21
f 15/39/21 14/41/22 10/42/22 8/40/21
f 23/23/14 7/43/23 18/44/23 24/24/14
f 7/43/23 6/45/24 16/46/24 18/44/23
f 6/45/24 9/47/25 12/48/25 16/46/24
f 12/48/25 9/47/25 11/49/26 13/50/26
f 11/51/27 27/52/28 28/53/29 13/54/27
f 13/55/9 28/56/29 29/57/30 14/58/9
f 10/59/7 30/60/31 27/52/28 11/51/7
f 14/58/32 29/57/30 30/60/31 10/59/32
f 26/61/33 4/4/4 7/7/4 23/62/33
f 24/63/34 18/18/11 19/19/11 25/64/34
f 27/52/28 31/65/35 32/66/35 28/53/29
f 28/56/36 32/67/36 33/68/36 29/57/30
f 30/60/31 34/69/37 31/65/37 27/52/37
f 29/57/38 33/68/38 34/69/38 30/60/38
f 22/22/12 24/63/34 25/64/34 20/20/12
f 1/1/1 26/61/33 23/62/33 2/2/2
g Radio_Knob_a Radio_C
f 35/70/39 36/71/40 37/72/40 38/73/39
f 36/71/40 39/74/41 40/75/41 37/72/40
f 39/74/41 41/76/42 42/77/42 40/75/41
f 41/76/42 43/78/43 44/79/43 42/77/42
f 43/78/43 45/80/44 46/81/44 44/79/43
f 45/82/44 47/83/45 48/84/45 46/85/44
f 47/83/45 35/70/39 38/73/39 48/84/45
f 38/86/46 37/87/46 49/88/47
f 37/87/46 40/89/46 49/88/47
f 40/89/46 42/90/48 49/88/47
f 42/90/48 44/91/48 49/88/47
f 44/91/48 46/92/46 49/88/47
f 46/92/46 48/93/46 49/88/47
f 48/93/46 38/86/46 49/88/47
g Radio_Knob_a1 Radio_C
f 50/70/39 51/71/40 52/72/40 53/73/39
f 51/71/40 54/74/41 55/75/41 52/72/40
f 54/74/41 56/76/42 57/77/42 55/75/41
f 56/76/42 58/78/43 59/79/43 57/77/42
f 58/78/43 60/80/44 61/81/44 59/79/43
f 60/82/44 62/83/45 63/84/45 61/85/44
f 62/83/45 50/70/39 53/73/39 63/84/45
f 53/86/46 52/87/46 64/88/49
f 52/87/46 55/89/46 64/88/49
f 55/89/46 57/90/50 64/88/49
f 57/90/50 59/91/50 64/88/49
f 59/91/50 61/92/46 64/88/49
f 61/92/46 63/93/46 64/88/49
f 63/93/46 53/86/46 64/88/49
g Radio_Knob_a2 Radio_C
f 65/70/39 66/71/40 67/72/40 68/73/39
f 66/71/40 69/74/41 70/75/41 67/72/40
f 69/74/41 71/76/42 72/77/42 70/75/41
f 71/76/42 73/78/43 74/79/43 72/77/42
f 73/78/43 75/80/44 76/81/44 74/79/43
f 75/82/44 77/83/45 78/84/45 76/85/44
f 77/83/45 65/70/39 68/73/39 78/84/45
f 68/86/46 67/87/46 79/88/49
f 67/87/46 70/89/46 79/88/49
f 70/89/46 72/90/50 79/88/49
f 72/90/50 74/91/50 79/88/49
f 74/91/50 76/92/46 79/88/49
f 76/92/46 78/93/46 79/88/49
f 78/93/46 68/86/46 79/88/49
g knob2_shadow
f 80/94/46 81/95/46 82/82/46 83/96/46
g knob2_shadow1
f 84/94/46 85/95/46 86/82/46 87/96/46
g knob2_shadow2
f 88/94/46 89/95/46 90/82/46 91/96/46
g pPlane1
f 92/94/16 93/95/16 94/82/16 95/96/16
g pCube1
f 96//46 97//46 98//46 99//46
f 99//16 98//16 100//16 101//16
f 101//51 100//51 102//51 103//51
f 103//52 102//52 97//52 96//52
f 97//53 102//53 100//53 98//53
f 103//54 96//54 99//54 101//54
