v -11.0388937245969 -6.66828662256308 0.00999999999999979
v -11.0388937245969 -6.66828662256308 2.07641225725489
v -11.6765889908254 -11.0729457176713 2.07641225725489
v -11.6765889908254 -11.0729457176713 0.00999999999999979
v -6.14632865610504 1.39472346345128 0.00999999999999979
v -6.14632865610504 1.39472346345128 2.07641225725489
v 3.7979119413398 7.13832152604049 0.00999999999999979
v 3.7979119413398 7.13832152604049 2.07641225725489
v 14.9696814290918 6.18877035763834 0.00999999999999979
v 14.9696814290918 6.18877035763834 2.07641225725489
v 16.0399641876484 8.66076803162013 0.00999999999999979
v 16.0399641876484 8.66076803162013 2.07641225725489
v 12.5286061138072 10.4455047861236 0.00999999999999979
v 12.5286061138072 10.4455047861236 2.07641225725489
v 1.42893454144331 11.0729457176713 0.00999999999999979
v 1.42893454144331 11.0729457176713 2.07641225725489
v -11.1624213095417 3.85739916956579 0.00999999999999979
v -11.1624213095417 3.85739916956579 2.07641225725489
v -15.731011840965 -5.35078818117685 0.00999999999999979
v -15.731011840965 -5.35078818117685 2.07641225725489
v -16.0091496946087 -10.757360858324 0.00999999999999979
v -16.0091496946087 -10.757360858324 2.07641225725489
v -14.8653945949451 -5.59384458857843 3.37254019705986
v -15.4978986574092 -5.42234891479662 1
v -15.6738308140907 -10.4951287382432 1
v -14.7963902623222 -9.86668808586759 3.37254019705986
v -10.2370361847934 3.40307672718509 3.37254019705986
v -10.9117112508637 3.72363743242725 1
v 1.82893991653749 10.408578541481 3.37254019705986
v 1.52496215123568 10.8773425528368 1
v 13.0153006787517 9.59680933712048 3.37254019705986
v 12.6501567784695 10.1956316410389 1
v 14.940500743257 8.49584496467386 3.37254019705986
v 14.4829868641473 7.03746580664144 3.37254019705986
v 15.6945177794978 8.61221133736274 1
v 14.8046466012051 6.43864350272304 1
v -12.0019436043979 -10.7625899667953 1
v -12.7078105494595 -10.018820780591 3.37254019705986
v -11.3154910713771 -6.59672588894331 1
v -6.44052287800744 1.52848520058981 1
v -7.07171378085326 1.84904590583197 3.37254019705986
v -11.9045109706168 -6.4252302151615 3.37254019705986
v 3.65840016832301 7.33392469087507 1
v 3.39790656624562 7.8026887022308 3.37254019705986
v -14.8221621353927 -5.66532157294054 4.23352103602215
v 1.82893991653749 10.408578541481 4.22440072521567
v 1.39812004840357 11.0729457176713 0.01
v 12.4977916207675 10.4455047861236 0.01
v 16.0091496946087 8.66076803162013 0.01
v -11.1932358025814 3.85739916956579 0.01
v -15.7618263340048 -5.35078818117685 0.01
v -16.0399641876484 -10.757360858324 0.01
v -11.0697082176366 -6.66828662256308 0.01
v -11.7074034838651 -11.0729457176713 0.01
v -6.17714314914478 1.39472346345128 0.01
v 3.76709744830006 7.13832152604049 0.01
v 14.938866936052 6.18877035763834 0.01
vt 0.256918460130692 0.93961888551712
vt 0.166097432374954 -0.0199022013694048
vt 1.96294832229614 0.02671929448843
vt 1.76889514923096 1.00762283802032
vt 0.00714345881715417 1.00438714027405
vt 0 0
vt 2.18267345428467 -0.026354668661952
vt 2.16529560089111 0.96564906835556
vt 0.0609840266406536 1.02161240577698
vt -0.0450519770383835 -0.00807090476155281
vt 3.02280354499817 -0.0583402588963509
vt 3.04506826400757 0.978218972682953
vt -0.0167427100241184 1.0090845823288
vt 3.35833883285522 0
vt 3.36111831665039 0.996779680252075
vt 0.89997810125351 1.01259696483612
vt 0.332538038492203 1.00152122974396
vt 0.805452167987823 0.291487842798233
vt 0.0979059413075447 0.294868141412735
vt 0.963082373142242 0.297536462545395
vt 0.787865161895752 0.991803586483002
vt 0.23549297451973 0.985836148262024
vt -0.00803139340132475 0.287045329809189
vt 2.50211501121521 0
vt 2.42962121963501 0.994052648544312
vt 0 1
vt -0.0211928002536297 1.04632985591888
vt -0.00623959023505449 0.308060735464096
vt 2.75529098510742 0.257512837648392
vt 2.83319091796875 0.987909197807312
vt 1 0
vt 1 1
vt 2.5100781917572 0
vt 2.27806973457336 1.02850437164307
vt -0.0112114734947681 0.980821549892426
vt 0.833146035671234 0.984813988208771
vt 0.187410518527031 0.990296185016632
vt 1.65826570987701 0.0131741799414158
vt 1.49104475975037 0.99519020318985
vt 0.226779729127884 1.0328483581543
vt 1.87526702880859 0
vt 1.86055564880371 1.0843540430069
vt 0.0955691486597061 0.973290741443634
vt 1.95503413677216 0
vt 2.07679724693298 0.984852433204651
vt 0.120328210294247 0.979378759860992
vt 2.10895323753357 1.00135433673859
vt 2.26148986816406 0
vt 0.00200373283587396 0.951981425285339
vt -0.117616631090641 0.683825314044952
vt 0.79319179058075 0.0633759573101997
vt 2.50063800811768 -0.459867507219315
vt 4.02066993713379 -2.04393935203552
vt 4.36244869232178 -4.12351655960083
vt 4.80041837692261 -4.18771457672119
vt 4.95199108123779 -3.55899524688721
vt 4.57209873199463 -1.49295580387115
vt 2.69939827919006 0.45760589838028
vt 0.818320989608765 0.88172447681427
vt 2.00391268730164 -0.0372280888259411
vt 1.99902153015137 0.969007074832916
vt 0.00587409548461437 1.00650668144226
vt 0.0156774967908859 -0.00962819345295429
vt 0.00999513640999794 1.01455879211426
vt 2.23558068275452 0
vt 2.21537709236145 1.00299274921417
vt 0.00516839884221554 0.997550308704376
vt 0.0179150402545929 0.994714915752411
vt 2.20165395736694 1.00646674633026
vt 2.19388461112976 0
vt 0.0168489683419466 0.978994250297546
vt 0.018460089340806 1.01144969463348
vt 2.0355212688446 0.00591811770573258
vt 2.02594971656799 1.03379821777344
vt -0.0189761761575937 1.01640951633453
vt 1.99809622764587 0.0316015370190144
vt 2.0143735408783 1.02088224887848
vt 0.00807381514459848 1.00516355037689
vt 0.0201140716671944 0.0105600273236632
vt 0.00305787730030715 1.00244975090027
vt 2.02936363220215 0.0530041866004467
vt 2.00742411613464 1.04193258285522
vt -0.00951424520462751 0.985905587673187
vt 0.00710766902193427 0.0061945291236043
vt 1.00492072105408 1.00464463233948
vn 0.941214600702912 -0.337809229334632 0
vn 0.989681674095061 -0.143283578823248 0
vn 0.699419332012108 -0.714711548813741 0
vn 0.217731656498644 -0.976008670944247 0
vn -0.0846902314102306 -0.996407328708336 0
vn 0.917679670435372 -0.397321057168667 0
vn 0.260323142678666 0.965521548897746 0
vn 0.453105554333504 0.891456873119574 0
vn -0.22987767013732 0.97321953164342 0
vn -0.727934656956598 0.685646508925321 0
vn -0.96741595309433 0.253192365008483 0
vn -0.998679357933295 0.0513764541199778 0
vn -0.0726477937076752 -0.997357658049211 0
vn 0 0 -1
vn 0 0 1
vn -0.926657804918424 0.228229412313757 0.298691559871862
vn -0.95074477840431 0.216519694346422 0.221818818626987
vn -0.953316208548195 0.0261079192342986 0.300843120367658
vn -0.953163602817431 0.0109056085959513 0.302258521741319
vn -0.697693958876613 0.663212819872288 0.270872470554183
vn -0.698378792096007 0.662418713818041 0.271050752321727
vn -0.219237476437111 0.946997956629928 0.234797357447283
vn -0.336201764429728 0.922957118190534 0.187399390542664
vn 0.272925972051688 0.942273606807594 0.193989339123182
vn 0.266155990423008 0.944174603530887 0.194152792432247
vn 0.916746164204984 -0.287596055822839 0.277245340971847
vn 0.911406137838081 -0.329213476853895 0.246895400056062
vn 0.905922234555526 -0.345353935733013 0.245021558258943
vn 0.898984117899029 -0.373654085484597 0.228495470777814
vn -0.373354954746651 -0.900460405294398 0.223107902735818
vn -0.529333871450452 -0.828790154036498 0.181418116811507
vn -0.0697534614753998 -0.95762232309307 0.279452931503737
vn 0.899620336319537 -0.334294952745079 0.2809450747913
vn 0.676779719533609 -0.690390248532308 0.255598348898244
vn 0.677592730311397 -0.689516811573403 0.255801990584113
vn 0.897064955591892 -0.340514546434932 0.281645715598746
vn 0.212830843835065 -0.949535135376504 0.230404120184467
vn 0.213933094353501 -0.949284356978352 0.230416667662156
vn 0.93951058137021 -0.180378381865563 0.291176075337537
vn 0.943310333819521 -0.163356277435204 0.288929646682055
vn -0.14833656159523 -0.97774349157814 0.148370917536736
vn -0.182112023770624 -0.976282097618058 0.117083204041621
vn 0.468418012580979 0.867175237000421 0.169090726602468
vn 0.459438307443023 0.871968642227586 0.169077285954296
vn -0.86323840133677 -0.503184383978344 0.0403105219250829
vn -0.652457600774594 0.757806670886743 -0.00530365449587383
vn -0.690777387016319 0.722915063587719 -0.0148462933041186
vn -0.727178958897344 0.686015999063538 -0.024347705555799
vn -0.287645055475031 -0.957499285476756 0.021341048996434
vn -0.221754754218634 0.946384616163566 0.234906337229062
vn 0.259381636598971 0.946026517138558 0.194306447309215
vn 0.450410998974571 0.876671701023498 0.169046326867211
vn -0.699063794459306 0.66162274246224 0.271228976941814
vn -0.924596253644014 0.239644614327006 0.296128733106928
vn -0.953246561094998 0.0413041431533345 0.299357581362039
vn 0.90214416202896 -0.328036144318841 0.280228833165849
vn 0.946818380188816 -0.146283657265086 0.286593870405104
vn 0.675966893302896 -0.691261414636178 0.255394627573921
vn 0.211726477800139 -0.949785116492998 0.230391256532727
vn -0.0805543124381412 -0.974512627710061 0.209370822182201
vn 0.894171510048813 -0.377287501895725 0.241063169170053
g bed_flowers_collisions_1 collide g2 g1
f 1//1 2//1 3//2 4//2
f 5//3 6//3 2//1 1//1
f 7//4 8//4 6//3 5//3
f 9//5 10//5 8//4 7//4
f 11//6 12//6 10//6 9//6
f 13//7 14//7 12//8 11//8
f 15//9 16//9 14//7 13//7
f 17//10 18//10 16//9 15//9
f 19//11 20//11 18//10 17//10
f 21//12 22//12 20//11 19//11
f 4//13 3//13 22//13 21//13
f 21//14 19//14 17//14 15//14 13//14 11//14 9//14 7//14 5//14 1//14 4//14
g floor collide g2 g1
f 3//15 2//15 6//15 8//15 10//15 12//15 14//15 16//15 18//15 20//15 22//15
g o242 side_bed_flower2_1 g2 g1
f 23/1/16 24/2/17 25/3/18 26/4/19
g o243 side_bed_flower2_1 g2 g1
f 27/5/20 28/6/21 24/7/17 23/8/16
g o244 side_bed_flower2_1 g2 g1
f 29/9/22 30/10/23 28/11/21 27/12/20
g o245 side_bed_flower2_1 g2 g1
f 31/13/24 32/6/25 30/14/23 29/15/22
g o246 side_bed_flower2_1 g2 g1
f 33/16/26 34/17/27 35/18/28
f 35/18/28 34/17/27 36/19/29
g o247 side_bed_flower2_1 g2 g1
f 37/20/30 38/21/31 26/22/32 25/23/32
g o248 side_bed_flower2_1 g2 g1
f 39/6/33 40/24/34 41/25/35 42/26/36
g o241 side_bed_flower2_1 g2 g1
f 41/27/35 40/28/34 43/29/37 44/30/38
g o249 side_bed_flower2_1 g2 g1
f 38/26/39 37/6/40 39/31/33 42/32/36
g o250 side_bed_flower2_1 g2 g1
f 43/6/37 36/33/41 34/34/42 44/35/38
g o251 side_bed_flower2_1 g2 g1
f 32/31/25 31/36/24 33/37/43 35/6/44
g o252 side_bed_flower2_1 g2 g1
f 37/38/30 38/39/31 45/40/45 24/6/17
g o253 side_bed_flower2_1 g2 g1
f 24/41/17 45/42/46 41/43/47 40/6/47
g o254 side_bed_flower2_1 g2 g1
f 40/44/47 41/45/47 46/46/48 30/6/23
g o255 side_bed_flower2_1 g2 g1
f 46/47/49 30/48/49 36/6/41 34/49/42
g o106_2 side_bed_flower2_1 g2 g1
f 25/50/15 37/6/15 39/51/15 40/52/15 43/53/15 36/54/15 35/55/15 32/56/15 30/57/15 28/58/15 24/59/15
g base_1 side_bed_flower2_1 g2 g1
f 47/60/50 30/61/23 32/62/25 48/63/51
f 48/31/51 32/32/25 35/64/44 49/6/52
f 50/65/53 28/66/21 30/67/23 47/6/50
f 51/6/54 24/68/17 28/69/21 50/70/53
f 52/31/55 25/32/18 24/71/17 51/6/54
f 53/31/56 39/32/33 37/72/40 54/6/57
f 55/73/58 40/74/34 39/75/33 53/6/56
f 56/76/59 43/77/37 40/78/34 55/79/58
f 52/6/32 54/31/32 37/32/30 25/80/32
f 57/81/60 36/82/41 43/83/37 56/84/59
f 49/31/61 35/85/28 36/26/29 57/6/61
