v 5.78979263831342 -3.15815291732541 32.6481253507486
v 8.8781656717964 -3.15815291969619 32.7216580354428
v 8.81022687252199 -3.80362355344006 35.5750878394642
v 5.72185383903901 -3.80362355106928 35.50155515477
v 16.4144280297632 -3 32.2015504311584
v 7.10943379633057 -4.72830250120023 39.6246351084709
v -1.15005546705348 -3 31.783348477507
v -1.15005546705348 6.19511031534057 31.783348477507
v 7.10943379633057 6.19511031534057 39.6246351084709
v 16.4144280297632 6.19511031534057 32.2015504311584
v -0.209100994009728 0 12.2324071443037
v -0.209100994009728 -3 12.2324071443037
v -1.25460596405834 -3 17.8781335185977
v -1.25460596405834 0 17.8781335185977
v 0 0 10.3504983528723
v 0 -3 10.3504983528723
v -0.41820198801945 0 6.79578174683537
v -0.41820198801945 -3 6.79578174683537
v -0.104550497004861 0 3.24106514079841
v -0.104550497004861 -3 3.24106514079841
v 0 0 0
v 0 -3 0
v -1.3591564610632 -3 22.582905497176
v -1.3591564610632 0 22.582905497176
v -0.41820198801945 6.19511031534057 31.1560455470299
v -0.41820198801945 -3 31.1560455470299
v -1.3591564610632 6.19511031534057 22.582905497176
v -1.30107289793832 0 19.9691453713566
v -1.30107289793832 6.19511031534057 19.9691453713566
v 16.1007765387486 0 3.13651465238556
v 16.1007765387486 -3 3.13651465238556
v 16.3098775327584 -3 0
v 16.3098775327584 0 0
v 16.3098775327584 0 6.79578174683537
v 16.3098775327584 -3 6.79578174683537
v 15.7871250477341 0 10.559599329698
v 15.7871250477341 -3 10.559599329698
v 15.9962260417438 0 12.7551595863679
v 15.9962260417438 -3 12.7551595863679
v 17.0417310117924 0 18.2963354722491
v 17.0417310117924 -3 18.2963354722491
v 15.7871250477341 6.19511031534057 31.2605960354427
v 15.7871250477341 -3 31.2605960354427
v 16.4144280297632 -3 22.6874559855889
v 16.4144280297632 6.19511031534057 22.6874559855889
v 16.4144280297632 0 22.6874559855889
v 16.8027581494238 0 19.9691453713566
v 16.8027581494238 6.19511031534057 19.9691453713566
v -1 -3 -5
v -1 -3 5
v -1 0 5
v -1 0 -5
v 17 -3 -5
v 17 -3 5
v 17 0 -5
v 17 0 5
v 5.59734179535012 -2.99999999813735 7.63472612710029
v 1.96812396495789 -3 7.66515601441411
v 1.94178504450247 -3 3.58262300831848
v 5.5710028748947 -2.99999999813736 3.55219312100467
v 6.32149970237087 -3 19.1714195684093
v 2.46158056746062 -3 19.142303732968
v 2.48679768143184 -3 13.6450681972201
v 6.34671681634209 -3 13.6741840326614
v 13.5418508628166 -3 19.1714195684093
v 9.68193172790634 -3 19.142303732968
v 9.70714884187756 -3 13.6450681972201
v 13.5670679767878 -3 13.6741840326614
v 6.99360985187676 -3 26.9940442935433
v 3.13369071696652 -3 26.9649284581019
v 3.15890783093774 -3 21.467692922354
v 7.01882696584798 -3 21.4968087577954
v 12.7701055099272 -3 26.9940442935433
v 8.91018637501693 -3 26.9649284581019
v 8.93540348898815 -3 21.467692922354
v 12.7953226238984 -3 21.4968087577954
v 7.56836310099092 -3 27.9241848683912
v 7.56836310099092 -5.50952766277901 25.7086284700259
v 7.56836310099092 -3 25.7086284700259
v 7.56836310099092 -3.00209357968811 25
v 7.56836310099092 -5.51162124246712 25
v 2.75996981226949 -3 27.9241848683912
v 2.75996981226949 -5.50952766277901 25.7086284700259
v 2.75996981226949 -5.50952766277901 25.015202670935
v 7.56836310099092 -5.50952766277901 25.015202670935
v 2.75996981226949 -3 25.7086284700259
v 2.75996981226949 -3 25.015202670935
v 13.2767572134622 -2.84976925502135 27.9241848683912
v 13.2767572134622 -5.35929691780035 25.7086284700259
v 13.2767572134622 -2.84976925502135 25.7086284700259
v 13.2767572134622 -2.85186283470946 25
v 13.2767572134622 -5.36139049748847 25
v 8.46836392474077 -2.84976925502135 27.9241848683912
v 8.46836392474077 -5.35929691780035 25.7086284700259
v 8.46836392474077 -5.35929691780035 25.015202670935
v 13.2767572134622 -5.35929691780035 25.015202670935
v 8.46836392474077 -2.84976925502135 25.7086284700259
v 8.46836392474077 -2.84976925502135 25.015202670935
v 13.851715409163 -3 19.9241848683912
v 13.851715409163 -5.50952766277901 17.7086284700259
v 13.851715409163 -3 17.7086284700259
v 13.851715409163 -3.00209357968811 17
v 13.851715409163 -5.51162124246712 17
v 9.0433221204416 -3 19.9241848683912
v 9.0433221204416 -5.50952766277901 17.7086284700259
v 9.0433221204416 -5.50952766277901 17.015202670935
v 13.851715409163 -5.50952766277901 17.015202670935
v 9.0433221204416 -3 17.7086284700259
v 9.0433221204416 -3 17.015202670935
v 6.92887109791983 -3 19.9241848683912
v 6.92887109791983 -5.50952766277901 17.7086284700259
v 6.92887109791983 -3 17.7086284700259
v 6.92887109791983 -3.00209357968811 17
v 6.92887109791983 -5.51162124246712 17
v 2.1204778091984 -3 19.9241848683912
v 2.1204778091984 -5.50952766277901 17.7086284700259
v 2.1204778091984 -5.50952766277901 17.015202670935
v 6.92887109791983 -5.50952766277901 17.015202670935
v 2.1204778091984 -3 17.7086284700259
v 2.1204778091984 -3 17.015202670935
v 1.50309243904292 -3 10.3324142470407
v 1.50309243904292 -5.64189080373998 8
v 14.4969075609571 -5.64189080373998 8
v 14.4969075609571 -3 10.3324142470407
v 14.4969075609571 -3 8
v 1.50309243904292 -3 8
v 1.50309243904292 -5.64189080373998 7.26999998092651
v 14.4969075609571 -5.64189080373998 7.26999998092651
v 14.4969075609571 -3 7.26999998092651
v 1.50309243904292 -3 7.26999998092651
v 1.92213975483615 -3.1 28.1637873912897
v 1.92213975483615 -3.1 23.1303380157424
v 8.25478112835085 -3.1 23.1303380157424
v 8.25478112835085 -3.1 28.1637873912897
v 7.69237918381564 -3.1 28.1637873912897
v 7.69237918381564 -3.1 23.1303380157424
v 14.0250205573303 -3.1 23.1303380157424
v 14.0250205573303 -3.1 28.1637873912897
v 8.26758107976796 -3.1 20.468299603798
v 8.26758107976796 -3.1 15.185475827453
v 14.6002224532827 -3.1 15.185475827453
v 14.6002224532827 -3.1 20.468299603798
v 1.31031015945872 -3.1 20.468299603798
v 1.31031015945872 -3.1 15.185475827453
v 7.64295153297341 -3.1 15.185475827453
v 7.64295153297341 -3.1 20.468299603798
v -0.382990826702551 -3.1 10.7754090342751
v -0.382990826702551 -3.1 4.84720361004898
v 16.3958265198978 -3.1 4.84720361004898
v 16.3958265198978 -3.1 10.7754090342751
v 17.0417310117924 -3 0
v 17.0417310117924 -3 39.2884219586167
v -1.3591564610632 -3 39.2884219586167
v -1.3591564610632 -3 0
v 17.0417310117924 6.72857712451976 0
v 17.0417310117924 6.72857712451976 39.2884219586167
v -1.3591564610632 6.72857712451976 39.2884219586167
v -1.3591564610632 6.72857712451976 0
vt 0 0
vt 1 0
vt 1 1
vt 0 1
vt 0.939503252506256 0.807640075683594
vt 0.492158710956573 0.991387248039246
vt 0.095085509121418 0.797290623188019
vt 1 0.984839975833893
vt 0 0.984839975833893
vt 0.68531209230423 0.416156351566315
vt 0.980649352073669 0.414361923933029
vt 0.979295432567596 0.633428156375885
vt 0.683958053588867 0.635222613811493
vt 0.685728549957275 0.348770767450333
vt 0.98106586933136 0.346978843212128
vt 0.68232399225235 0.224923819303513
vt 0.977563917636871 0.225024223327637
vt 0.977426588535309 0.339686781167984
vt 0.682186722755432 0.33958637714386
vt 0.682424008846283 0.116288334131241
vt 0.977663159370422 0.116510108113289
vt 0.977575778961182 0.223101407289505
vt 0.682336628437042 0.222879633307457
vt 0.682503700256348 0.0191021449863911
vt 0.977742850780487 0.019323917105794
vt 0.672381401062012 0.569529950618744
vt 1.00073933601379 0.56977367401123
vt 1.00060868263245 0.727480530738831
vt 0.672250866889954 0.727236807346344
vt 0.00132039573509246 -0.00294820289127529
vt 0.998726904392242 0.00382137321867049
vt 0.995683431625366 0.0641239807009697
vt -0.00172306736931205 0.0573544055223465
vt -0.00755902286618948 0.747048020362854
vt 0.998869895935059 0.747803270816803
vt 0.998655080795288 1.00737774372101
vt -0.00777383800595999 1.00662267208099
vt 0.672323405742645 0.63962197303772
vt -0.0058201146312058 0.72673362493515
vt -0.00574760371819139 0.639118790626526
vt 0.682426571846008 0.113153293728828
vt 0.977665662765503 0.113375067710876
vt 0.682244062423706 0.335741013288498
vt 0.977483212947845 0.335962802171707
vt 0.685300350189209 0.418050080537796
vt 0.980636119842529 0.416512787342072
vt 0.981087744235992 0.343433052301407
vt 0.685752034187317 0.344970345497131
vt 0.684055984020233 0.619382798671722
vt 0.979391694068909 0.617843210697174
vt 0.980627179145813 0.417968899011612
vt 0.685291290283203 0.41950848698616
vt -0.00852779392153025 0.998463332653046
vt 0.997887074947357 0.997322857379913
vt 0.998535096645355 0.801242411136627
vt -0.00787976942956448 0.802382707595825
vt -0.45396026968956 0.812460899353027
vt -1.42739450931549 0.797553658485413
vt -1.4236136674881 0.633412837982178
vt -0.45017945766449 0.648320078849792
vt 0.67224794626236 0.730741441249847
vt 1.0006058216095 0.730985164642334
vt 1.00072765350342 0.583792090415955
vt 0.672369778156281 0.583548367023468
vt -0.00582301476970315 0.730238199234009
vt 0.924440264701843 0.0881843268871307
vt 0.934490859508514 0.178763255476952
vt 0.909357309341431 0.271930277347565
vt 0.919408738613129 0.326277613639832
vt 0.969668626785278 0.463439881801605
vt 0.939508438110352 0.572134733200073
vt 0.909345984458923 0.784348428249359
vt 0.130269929766655 0.781762659549713
vt 0.0850379467010498 0.569549202919006
vt 0.0900668203830719 0.45309054851532
vt 0.140332877635956 0.313340038061142
vt 0.15038651227951 0.266756534576416
vt 0.130283266305923 0.178765580058098
vt 0.145364105701447 0.0907745510339737
vt 0.150392174720764 0.0105474544689059
vt 0.934494614601135 0.0105451866984367
vt 1 -0.739859223365784
vt 0 -0.176363229751587
vt 1 -0.176363229751587
vt 0.0114324185997248 -0.802833616733551
vt 0.00231699598953128 -0.245190426707268
vt 1.74763119220734 -0.21666094660759
vt 1.75674664974213 -0.774304091930389
vt -0.000535952509380877 -0.0706590339541435
vt 1.74477827548981 -0.0421295389533043
vt 0.000465832825284451 0.983884572982788
vt 0.000111042449134402 0.23453252017498
vt 2.76188373565674 0.23453252017498
vt 2.76223850250244 0.983884572982788
vt 1.74952876567841 0.950446367263794
vt 0.757953763008118 0.227647572755814
vt 1.74969184398651 0.227250903844833
vt 2.76177263259888 0
vt 0.758004784584045 0.00130153924692422
vt 1.74974286556244 0.000904880987945944
vn 0.0052502889830594 -0.975370088327322 -0.22051218846573
vn 0.00264146000204997 -0.993823447179458 -0.110941329203306
vn 0.00525028976964791 -0.975370088327323 -0.220512188447002
vn -0.688508129661209 0 0.725228622842772
vn 0.623623278877464 0 0.781725019455129
vn -0.989231921643039 0 -0.146356432050047
vn -0.99473460695799 0 -0.102484446235189
vn -0.999994797234417 0 0.00322575636043343
vn -0.999894140626177 0 0.0145501732442944
vn -0.998192908470147 0 -0.0600909101271404
vn -0.999480114254317 0 -0.0322412966578087
vn -0.999051849149826 0 0.0435362229679353
vn -0.999753177791057 0 -0.0222167391100276
vn -0.929984453635655 0 -0.367598852005814
vn -0.65079134262497 0 -0.759256628791866
vn 0.999988748718607 0 0.00474367328075509
vn 0.997785157493784 0 0.0665190159661487
vn 0.999181499715698 0 0.0404515837253347
vn 0.999768299631089 0 0.0215254977354914
vn 0.990115364538122 0 -0.140255356067219
vn 0.999751478448218 0 -0.022293078311512
vn 0.967034488377724 0 -0.254645436417056
vn 0.994230782366133 0 0.107262068764437
vn 0.83205027329837 0 -0.554700227784438
vn 0.989949492034076 0 0.141421367626942
vn -1 0 0
vn 0 -1 0
vn 1 0 0
vn 5.13208077031356e-10 -1 -3.31109719682189e-12
vn 0 -0.661834461234077 0.749650015622623
vn 0 -0.911546614615533 0.411196752641557
vn 0 0.661834461234077 -0.749650015622623
vn 0 0.911546614615533 -0.411196752641557
vn 0 1 0
g decals decal_base building2_landmark21c_attic TT_B1
f 1/1/1 2/2/1 3/3/1 4/4/1
g decal_base building2_landmark21c_attic TT_B1
f 5/5/2 6/6/3 7/7/2
g building2_landmark21c_roof TT_B1
f 8/1/4 7/2/4 6/3/4 9/4/4
f 9/8/5 6/9/5 5/1/5 10/2/5
g building2_landmark21c_sidel TT_B1
f 11/10/6 12/11/6 13/12/7 14/13/7
f 15/14/8 16/15/8 12/11/6 11/10/6
f 17/16/9 18/17/9 16/18/8 15/19/8
f 19/20/10 20/21/10 18/22/9 17/23/9
f 21/24/11 22/25/11 20/21/10 19/20/10
f 14/26/7 13/27/7 23/28/12 24/29/13
f 25/30/14 26/31/14 7/32/15 8/33/15
f 27/34/12 23/35/12 26/36/14 25/37/14
f 28/38/13 24/29/13 27/39/12 29/40/13
g building2_landmark21c_sider TT_B1
f 30/41/16 31/42/16 32/25/17 33/24/17
f 34/23/18 35/22/18 31/42/16 30/41/16
f 36/43/19 37/44/19 35/22/18 34/23/18
f 38/45/20 39/46/20 37/47/19 36/48/19
f 40/49/21 41/50/21 39/51/20 38/52/20
f 42/53/22 43/54/22 44/55/23 45/56/23
f 10/57/24 5/58/24 43/59/22 42/60/22
f 46/61/25 44/62/23 41/63/21 40/64/21
f 45/65/23 46/61/25 47/38/25 48/40/25
g building2_landmark21c_collide TT_B1
f 49//26 50//26 51//26 52//26
f 53//27 54//27 50//27 49//27
f 55//28 56//28 54//28 53//28
g decals decal_base building2_landmark21c_front TT_B1
f 57/3/29 58/4/29 59/1/29 60/2/29
f 61/3/27 62/4/27 63/1/27 64/2/27
f 65/3/27 66/4/27 67/1/27 68/2/27
f 69/3/27 70/4/27 71/1/27 72/2/27
f 73/3/27 74/4/27 75/1/27 76/2/27
g decal_base building2_landmark21c_front TT_B1
f 31/66/27 35/67/27 37/68/27 39/69/27 41/70/27 44/71/27 43/72/27 5/5/2 7/7/2 26/73/27 23/74/27 13/75/27 12/76/27 16/77/27 18/78/27 20/79/27 22/80/27 32/81/27
g o285 g63 TT_B1
f 77/82/28 77/82/28 78/83/28 79/84/28
f 79/84/26 80/2/26 81/1/26 78/83/26
f 82/85/30 83/86/31 78/87/31 77/88/30
f 83/86/31 84/89/27 85/90/27 78/87/31
f 79/84/26 78/83/26 77/82/26 77/82/26
f 77/88/32 78/87/33 83/86/33 82/85/32
f 78/87/33 85/90/34 84/89/34 83/86/33
f 82/82/28 82/82/28 83/83/28 86/84/28
f 86/84/26 83/83/26 82/82/26 82/82/26
f 83/83/28 84/1/28 87/2/28 86/84/28
f 86/84/26 87/2/26 84/1/26 83/83/26
f 78/83/28 81/1/28 80/2/28 79/84/28
g o286 g63 TT_B1
f 88/82/28 88/82/28 89/83/28 90/84/28
f 90/84/26 91/2/26 92/1/26 89/83/26
f 93/85/30 94/86/31 89/87/31 88/88/30
f 94/86/31 95/89/27 96/90/27 89/87/31
f 90/84/26 89/83/26 88/82/26 88/82/26
f 88/88/32 89/87/33 94/86/33 93/85/32
f 89/87/33 96/90/34 95/89/34 94/86/33
f 93/82/28 93/82/28 94/83/28 97/84/28
f 97/84/26 94/83/26 93/82/26 93/82/26
f 94/83/28 95/1/28 98/2/28 97/84/28
f 97/84/26 98/2/26 95/1/26 94/83/26
f 89/83/28 92/1/28 91/2/28 90/84/28
g o287 g63 TT_B1
f 99/82/28 99/82/28 100/83/28 101/84/28
f 101/84/26 102/2/26 103/1/26 100/83/26
f 104/85/30 105/86/31 100/87/31 99/88/30
f 105/86/31 106/89/27 107/90/27 100/87/31
f 101/84/26 100/83/26 99/82/26 99/82/26
f 99/88/32 100/87/33 105/86/33 104/85/32
f 100/87/33 107/90/34 106/89/34 105/86/33
f 104/82/28 104/82/28 105/83/28 108/84/28
f 108/84/26 105/83/26 104/82/26 104/82/26
f 105/83/28 106/1/28 109/2/28 108/84/28
f 108/84/26 109/2/26 106/1/26 105/83/26
f 100/83/28 103/1/28 102/2/28 101/84/28
g o288 g63 TT_B1
f 110/82/28 110/82/28 111/83/28 112/84/28
f 112/84/26 113/2/26 114/1/26 111/83/26
f 115/85/30 116/86/31 111/87/31 110/88/30
f 116/86/31 117/89/27 118/90/27 111/87/31
f 112/84/26 111/83/26 110/82/26 110/82/26
f 110/88/32 111/87/33 116/86/33 115/85/32
f 111/87/33 118/90/34 117/89/34 116/86/33
f 115/82/28 115/82/28 116/83/28 119/84/28
f 119/84/26 116/83/26 115/82/26 115/82/26
f 116/83/28 117/1/28 120/2/28 119/84/28
f 119/84/26 120/2/26 117/1/26 116/83/26
f 111/83/28 114/1/28 113/2/28 112/84/28
g o289 g63 TT_B1
f 121/91/30 122/92/31 123/93/31 124/94/30
f 124/95/28 124/95/28 123/96/28 125/97/28
f 126/97/26 122/96/26 121/95/26 121/95/26
f 122/92/31 127/1/27 128/98/27 123/93/31
f 123/96/28 128/99/28 129/100/28 125/97/28
f 126/97/26 130/100/26 127/99/26 122/96/26
f 121/95/28 121/95/28 122/96/28 126/97/28
f 125/97/26 123/96/26 124/95/26 124/95/26
f 124/94/32 123/93/33 122/92/33 121/91/32
f 125/97/26 129/100/26 128/99/26 123/96/26
f 122/96/28 127/99/28 130/100/28 126/97/28
f 123/93/33 128/98/34 127/1/34 122/92/33
g o296 g67 g63 TT_B1
f 131/4/27 132/1/27 133/2/27 134/3/27
g o296_1 g67 g63 TT_B1
f 135/4/27 136/1/27 137/2/27 138/3/27
g o296_2 g67 g63 TT_B1
f 139/4/27 140/1/27 141/2/27 142/3/27
g o296_3 g67 g63 TT_B1
f 143/4/27 144/1/27 145/2/27 146/3/27
g o296_4 g67 g63 TT_B1
f 147/4/27 148/1/27 149/2/27 150/3/27
g TT_B1_camera_collisions TT_B1
f 151//27 152//27 153//27 154//27
f 155//28 156//28 152//28 151//28
f 154//26 153//26 157//26 158//26
