v 0.26904188199713 -0.0608663779633887 -5.23390738940738
v 0.141025908947556 0.237065010910391 -5.23390703004431
v 0.26904188199713 -0.0608663667332928 -0.0675586362755755
v 0.141025886487364 0.237065235512308 -0.0675585969702399
v -0.181882976268566 0.207380543414738 -5.23390738940738
v -0.181882998728758 0.207380745556464 -0.0675585408197606
v -0.253435835323765 -0.10889704880018 -5.23390774877045
v -0.253435880244149 -0.108896891578838 -0.0675585520498564
v 0.0252510422062895 -0.274682731628944 -5.23390703004431
v 0.0252510520326234 -0.274682709168752 -0.0675586306605275
vt 0.797182440757751 0.344883471727371
vt 0.984696626663208 0.344883471727371
vt 0.797182440757751 0.985524237155914
vt 0.984696626663208 0.985524237155914
vt 0.0153033584356308 0.344883471727371
vt 0.193119168281555 0.344883471727371
vt 0.0153033584356308 0.985524237155914
vt 0.193119168281555 0.985524237155914
vt 0.382180631160736 0.344883471727371
vt 0.385626226663589 0.985524237155914
vt 0.583915174007416 0.344883471727371
vt 0.583915174007416 0.985524237155914
vt -0.176364779472351 0.685183346271515
vt -0.211485326290131 0.875150203704834
vt -0.319191783666611 0.555077016353607
vt -0.41321986913681 0.875150203704834
vt -0.450342297554016 0.695429563522339
vt -0.560538172721863 0.77079313993454
vt -0.703365206718445 0.904849112033844
vt -0.595658659934998 0.59052973985672
vt -0.834515690803528 0.7633176445961
vt -0.793947696685791 0.59052973985672
vn 0.918774939759582 0.394781724589394 -3.55109111959797e-09
vn 0.918774970668651 0.394781652654755 -6.82745688337992e-09
vn 0.918775021677005 0.394781533943039 -1.01038220080614e-08
vn -0.0915423478326111 0.995801184249794 -4.36426892565408e-08
vn -0.0915423330563229 0.995801185608153 -4.15159036377946e-08
vn -0.0915423256681787 0.995801186287333 -3.9389117986381e-08
vn -0.975351243497534 0.22065799738014 -2.07768729049011e-08
vn -0.975351246399681 0.220657984552086 -1.79663006171324e-08
vn -0.975351246704548 0.220657983204516 -1.51557304681551e-08
vn -0.511257473932445 -0.85942759750209 2.05651828849158e-08
vn -0.511257666740753 -0.859427482803989 1.40715248930737e-08
vn -0.511257913054936 -0.859427336276146 7.57786672701485e-09
vn 0.659376355620803 -0.751813023063733 -5.65309498090822e-10
vn 0.659376355620803 -0.751813023063733 -2.82654749045411e-10
vn 0.659376355620803 -0.751813023063733 0
vn -1.83894314886377e-06 1.35408436107911e-06 -0.999999999997392
vn 2.1705824337913e-07 2.58606917213896e-07 -0.999999999999943
vn 4.87992224407142e-07 1.72404611475917e-07 -0.999999999999866
vn 1.65145979735586e-06 -4.18435263326803e-07 -0.999999999998549
vn 1.02986007277595e-06 0 -0.99999999999947
vn 1.00765284116732e-07 -6.34726688986116e-08 0.999999999999993
vn 1.42264298119697e-07 -8.73097434350699e-08 0.999999999999986
vn 1.71509142887768e-07 -8.64165770053643e-08 0.999999999999982
vn 2.06881054509717e-07 -9.7888523953313e-08 0.999999999999974
vn 2.29998789791346e-07 -8.46302370405258e-08 0.99999999999997
g post2 post1
f 1/1/1 2/2/2 3/3/2
f 2/2/2 4/4/3 3/3/2
f 2/5/4 5/6/5 4/7/5
f 5/6/5 6/8/6 4/7/5
f 5/6/7 7/9/8 6/8/8
f 7/9/8 8/10/9 6/8/8
f 7/9/10 9/11/11 8/10/11
f 9/11/11 10/12/12 8/10/11
f 9/11/13 1/1/14 10/12/14
f 1/1/14 3/3/15 10/12/14
f 1/13/16 9/14/17 2/15/18
f 9/14/17 7/16/19 2/15/18
f 7/16/19 5/17/20 2/15/18
f 3/18/21 4/19/22 10/20/23
f 4/19/22 6/21/24 10/20/23
f 6/21/24 8/22/25 10/20/23
g collVerticallWall collVertical post_collsion post1
f 1//1 2//2 3//2
f 2//2 4//3 3//2
f 2//4 5//5 4//5
f 5//5 6//6 4//5
f 5//7 7//8 6//8
f 7//8 8//9 6//8
f 7//10 9//11 8//11
f 9//11 10//12 8//11
f 9//13 1//14 10//14
f 1//14 3//15 10//14
f 1//16 9//17 2//18
f 9//17 7//19 2//18
f 7//19 5//20 2//18
f 3//21 4//22 10//23
f 4//22 6//24 10//23
f 6//24 8//25 10//23
g collHorizontalFloor collHorizontal post_collsion post1
f 1//1 2//2 3//2
f 2//2 4//3 3//2
f 2//4 5//5 4//5
f 5//5 6//6 4//5
f 5//7 7//8 6//8
f 7//8 8//9 6//8
f 7//10 9//11 8//11
f 9//11 10//12 8//11
f 9//13 1//14 10//14
f 1//14 3//15 10//14
f 1//16 9//17 2//18
f 9//17 7//19 2//18
f 7//19 5//20 2//18
f 3//21 4//22 10//23
f 4//22 6//24 10//23
f 6//24 8//25 10//23
