v -21.019077972919 23.1777727257702 29.9999967960548
v -6.0191036044807 23.1777727257702 29.9999967960548
v -6.0191036044807 8.17779835733184 29.9999967960548
v -21.019077972919 8.17779835733184 29.9999967960548
v -6.0191036044807 -6.82224009001068 29.9999967960548
v -21.019077972919 -6.82220805055858 29.9999967960548
v -6.0191036044807 -21.822214458449 29.9999967960548
v -21.019077972919 -21.822214458449 29.9999967960548
v 8.98093484286182 23.1777727257702 29.9999967960548
v 8.98093484286182 8.17779835733184 29.9999967960548
v 8.98093484286182 -6.82224009001068 29.9999967960548
v 8.98093484286182 -21.822214458449 29.9999967960548
v 23.9809092113001 23.1777727257702 29.9999967960548
v 23.9809092113001 8.17779835733184 30.0000048059178
v 23.9809092113001 -6.82207989275018 29.9999967960548
v 23.9809092113001 -21.8220542611885 29.9999967960548
v 8.98093484286182 -21.822214458449 -3.00369863435039e-06
v 8.98093484286182 -21.822214458449 15.0000004004932
v 23.9809092113001 -21.8220542611885 15.0000004004932
v 23.9809092113001 -21.8220542611885 -3.00369863435039e-06
v -21.019077972919 -21.822214458449 -3.00369863435039e-06
v -21.019077972919 -21.822214458449 15.0000004004932
v -6.0191036044807 -21.822214458449 15.0000004004932
v -6.0191036044807 -21.822214458449 -3.00369863435039e-06
v 23.9809092113001 23.1777727257702 -3.00369863435039e-06
v 23.9809092113001 23.1777727257702 15.0000004004932
v 8.98093484286182 23.1777727257702 15.0000004004932
v 8.98093484286182 23.1777727257702 -3.00369863435039e-06
v -6.0191036044807 23.1777727257702 -3.00369863435039e-06
v -6.0191036044807 23.1777727257702 15.0000004004932
v -21.019077972919 23.1777727257702 15.0000004004932
v -21.019077972919 23.1777727257702 -2.50308219529199e-06
v 23.9809092113001 8.17779835733184 15.0000004004932
v 23.9809092113001 8.17779835733184 -3.00369863435039e-06
v 23.9809092113001 -6.82207989275018 15.0000004004932
v 23.9809092113001 -6.82207989275018 -3.00369863435039e-06
v -21.019077972919 8.17779835733184 15.0000004004932
v -21.019077972919 8.17779835733184 -3.00369863435039e-06
v -21.019077972919 -6.82217601110648 15.0000004004932
v -21.019077972919 -6.82217601110648 -3.00369863435039e-06
v -21.019077972919 23.178029041387 3.00369863435039e-06
v -21.019077972919 8.17805467294864 3.00369863435039e-06
v -6.0191036044807 8.17805467294864 3.00369863435039e-06
v -6.0191036044807 23.178029041387 3.00369863435039e-06
v -21.019077972919 -6.82198377439388 3.00369863435039e-06
v -6.0191036044807 -6.82198377439388 3.00369863435039e-06
v -21.019077972919 -21.8219581428322 3.00369863435039e-06
v -6.0191036044807 -21.8219581428322 3.00369863435039e-06
v 8.98093484286182 8.17805467294864 3.00369863435039e-06
v 8.98093484286182 23.178029041387 3.00369863435039e-06
v 8.98093484286182 -6.82198377439388 3.00369863435039e-06
v 8.98093484286182 -21.8219581428322 3.00369863435039e-06
v 23.9809092113001 8.17805467294864 3.00369863435039e-06
v 23.9809092113001 23.178029041387 3.00369863435039e-06
v 23.9809092113001 -6.82195173494178 3.00369863435039e-06
v 23.9809092113001 -21.8219261033801 3.00369863435039e-06
v -11.2780649118599 -3.57584515930721 26.6693714348408
v -3.10028760384762 -3.57584515930721 26.6693714348408
v -3.10028760384762 -3.57584515930721 27.8462085153682
v -11.2780649118599 -3.57584515930721 27.8462085153682
v -11.2780649118599 4.56190546699526 27.8462085153682
v -3.10028760384762 4.56190546699526 27.8462085153682
v -3.10028760384762 4.56190546699526 26.6693714348408
v -11.2780649118599 4.56190546699526 26.6693714348408
v 6.04008828704791 -3.57584515930721 26.6693714348408
v 14.2178655950602 -3.57584515930721 26.6693714348408
v 14.2178655950602 -3.57584515930721 27.8462085153682
v 6.04008828704791 -3.57584515930721 27.8462085153682
v 6.04008828704791 4.56190546699526 27.8462085153682
v 14.2178655950602 4.56190546699526 27.8462085153682
v 14.2178655950602 4.56190546699526 26.6693714348408
v 6.04008828704791 4.56190546699526 26.6693714348408
v -11.2780649118599 10.8649208230508 26.6693714348408
v -3.10028760384762 10.8649208230508 26.6693714348408
v -3.10028760384762 10.8649208230508 27.8462085153682
v -11.2780649118599 10.8649208230508 27.8462085153682
v -11.2780649118599 19.0026714493533 27.8462085153682
v -3.10028760384762 19.0026714493533 27.8462085153682
v -3.10028760384762 19.0026714493533 26.6693714348408
v -11.2780649118599 19.0026714493533 26.6693714348408
v 6.04008828704791 10.8649208230508 26.6693714348408
v 14.2178655950602 10.8649208230508 26.6693714348408
v 14.2178655950602 10.8649208230508 27.8462085153682
v 6.04008828704791 10.8649208230508 27.8462085153682
v 6.04008828704791 19.0026714493533 27.8462085153682
v 14.2178655950602 19.0026714493533 27.8462085153682
v 14.2178655950602 19.0026714493533 26.6693714348408
v 6.04008828704791 19.0026714493533 26.6693714348408
v -11.2780649118599 -17.8667371636757 26.6693714348408
v -3.10028760384762 -17.8667371636757 26.6693714348408
v -3.10028760384762 -17.8667371636757 27.8462085153682
v -11.2780649118599 -17.8667371636757 27.8462085153682
v -11.2780649118599 -9.72898653737323 27.8462085153682
v -3.10028760384762 -9.72898653737323 27.8462085153682
v -3.10028760384762 -9.72898653737323 26.6693714348408
v -11.2780649118599 -9.72898653737323 26.6693714348408
v 6.04008828704791 -17.8667371636757 26.6693714348408
v 14.2178655950602 -17.8667371636757 26.6693714348408
v 14.2178655950602 -17.8667371636757 27.8462085153682
v 6.04008828704791 -17.8667371636757 27.8462085153682
v 6.04008828704791 -9.72898653737323 27.8462085153682
v 14.2178655950602 -9.72898653737323 27.8462085153682
v 14.2178655950602 -9.72898653737323 26.6693714348408
v 6.04008828704791 -9.72898653737323 26.6693714348408
v 23.9809092113001 -6.82185561658524 30.0000008009863
v 23.9809092113001 -21.8218299850236 30.0000008009863
v 8.98093484286182 -21.8218299850236 30.0000008009863
v -6.0191036044807 -21.8218299850236 30.0000008009863
v -21.019077972919 -21.8218299850236 30.0000008009863
v -21.019077972919 -6.82182357713314 30.0000008009863
v -21.019077972919 8.17818283075728 30.0000008009863
v -21.019077972919 23.1781571991956 30.0000008009863
v -6.0191036044807 23.1781571991956 30.0000008009863
v 8.98093484286182 23.1781571991956 30.0000008009863
v 23.9809092113001 23.1781571991956 30.0000008009863
v 23.9809092113001 8.17818283075728 30.0000088108493
v 8.98093484286182 -21.8218299850236 15.0000004004932
v 23.9809092113001 -21.8218299850236 0
v 8.98093484286182 -21.8218299850236 0
v -6.0191036044807 -21.8218299850236 15.0000004004932
v -21.019077972919 -21.8218299850236 0
v -6.0191036044807 -21.8218299850236 0
v 8.98093484286182 23.1781571991956 0
v 23.9809092113001 23.1781571991956 0
v -21.019077972919 23.1781571991956 5.00616439058399e-07
v -6.0191036044807 23.1781571991956 0
v 23.9809092113001 8.17818283075728 15.0000004004932
v 23.9809092113001 8.17818283075728 0
v 23.9809092113001 -6.82185561658524 15.0000004004932
v 23.9809092113001 -6.82185561658524 0
v -21.019077972919 8.17818283075728 15.0000004004932
v -21.019077972919 8.17818283075728 -0.0110876528922654
v -21.019077972919 -6.82179153768104 0
v -21.019077972919 -6.82179153768104 15.0000004004932
v 23.9809092113001 -21.8218299850236 4.00493151246719e-06
v 23.9809092113001 23.1781571991956 4.00493151246719e-06
v -21.019077972919 23.1781571991956 4.00493151246719e-06
v -21.019077972919 -21.8218299850236 4.00493151246719e-06
vt -3.24884676933289 1.99329590797424
vt -0.749619424343109 1.99329590797424
vt -0.749619424343109 0.997767508029938
vt -3.24884676933289 0.997767508029938
vt -0.749619424343109 0.00223473343066871
vt -3.24884676933289 0.00223473343066871
vt -0.749619424343109 -0.993293762207031
vt -3.24884676933289 -0.993293762207031
vt 1.74961864948273 1.99329590797424
vt 1.74961864948273 0.997767508029938
vt 1.74961864948273 0.00223473343066871
vt 1.74961864948273 -0.993293762207031
vt 4.24884653091431 1.99329590797424
vt 4.24884653091431 0.997767508029938
vt 4.24884653091431 0.00223473343066871
vt 4.24884653091431 -0.993293762207031
vt 0.998154580593109 0
vt 0.998154580593109 0.50000011920929
vt 1.99446177482605 0.50000011920929
vt 1.99446177482605 0
vt -0.994463860988617 0
vt -0.994463860988617 0.50000011920929
vt 0.00184327363967896 0.50000011920929
vt 0.00184327363967896 0
vt 0.998154580593109 1.00000011920929
vt 1.99446177482605 1.00000011920929
vt 0.00184327363967896 1.00000011920929
vt -0.994463860988617 1.00000011920929
vt 1.99446177482605 2.93533020112591e-08
vt 0.998154580593109 2.93533020112591e-08
vt 0.00184325047302991 2.93533020112591e-08
vt 0.00184325047302991 0.50000011920929
vt -0.994463860988617 2.93533020112591e-08
vt 0.00184325047302991 1.00000011920929
vt 1.99446403980255 0.999999761581421
vt 1.99446403980255 0.499999940395355
vt 0.99815708398819 0.499999940395355
vt 0.99815708398819 1
vt 1.99446403980255 2.94438109449402e-08
vt 0.99815708398819 2.94438109449402e-08
vt 0.00184993294533342 0.999999761581421
vt 0.00184993294533342 0.499999940395355
vt -0.994457125663757 0.499999940395355
vt -0.994457125663757 0.999999761581421
vt 0.00184993294533342 2.94438109449402e-08
vt -0.994457125663757 2.94438109449402e-08
vt 1.99446451663971 0.999999761581421
vt 0.998157203197479 0.999999761581421
vt 0.998157203197479 0.499999940395355
vt 1.99446451663971 0.499999940395355
vt 0.998157203197479 2.94438109449402e-08
vt 1.99446451663971 6.28182306172675e-08
vt 0.0018501098966226 0.999999761581421
vt -0.994461238384247 0.999999761581421
vt -0.994461238384247 0.499999940395355
vt 0.0018501098966226 0.499999940395355
vt -0.994461238384247 2.94438109449402e-08
vt 0.0018501098966226 2.94438109449402e-08
vt 0.00184583326335996 0.999999761581421
vt 1 5.96046447753906e-07
vt 1 0.497855544090271
vt 0 0.497855544090271
vt 0 0
vt 2.00035095214844 2.00035166740417
vt 1.00011837482452 2.00035166740417
vt 1.00011837482452 1.00011909008026
vt 2.00035095214844 1.00011909008026
vt -0.000118404626846313 2.00035166740417
vt -0.000118404626846313 1.00011909008026
vt -1.00035095214844 2.00035166740417
vt -1.00035095214844 1.00011909008026
vt 1.00011837482452 -0.000117719173431396
vt 2.00035095214844 -0.000117719173431396
vt -0.000118404626846313 -0.000117719173431396
vt -1.00035095214844 -0.000117719173431396
vt 1.00011837482452 -1.0003502368927
vt 2.00035095214844 -1.0003502368927
vt -0.000116318464279175 -1.0003502368927
vt -1.00034880638123 -1.0003502368927
vt 1 0
vt 1 1
vt 0 1
vt 0 2
vt 1 2
vt 1 3
vt 0 3
vt -1.00285053253174 -1.02058362960815
vt 0.998007893562317 -1.02058362960815
vt 0.998007893562317 0.998007893562317
vt -1.00285053253174 0.998007893562317
vt 2 0
vt 2 1
vt -1 0
vt -1 1
vn 1.32640252559212e-07 4.83473469592134e-11 -0.999999999999991
vn 1.04983108428768e-07 4.83471006284861e-11 -0.999999999999995
vn 0 0 -1
vn 1.32640295191775e-07 -1.33449418626694e-07 -0.999999999999982
vn 1.32640124661518e-07 1.33546066649612e-07 -0.999999999999982
vn -1.06798370316812e-05 0.999999999942971 0
vn -7.11988968719874e-06 0.999999999974654 0
vn -1.55659699862628e-06 0.999999999997056 -1.86144563940068e-06
vn 0 1 0
vn -5.33991578747387e-06 0.999999999985743 0
vn 0 -1 0
vn 4.88614375404476e-07 -0.999999999999757 -4.97460064252543e-07
vn 4.8861437540445e-07 -0.999999999999704 -5.94626271776912e-07
vn 4.88614375404476e-07 -0.999999999999757 -4.97460575843313e-07
vn -0.999999999999959 -2.86366315327401e-07 0
vn -0.999999999999835 -5.75317016915282e-07 0
vn -1 0 0
vn -0.999999999999959 -2.86366969026718e-07 0
vn -0.999999999999835 -5.75318210627079e-07 0
vn 0.999999999999851 -5.46580906979262e-07 0
vn 0.999999999999671 8.11233462405258e-07 0
vn 0.999999999998146 -1.92546826860072e-06 0
vn 1 0 0
vn 0.999999999999236 -1.23602478674284e-06 0
vn 0.999999999998146 -1.92547258870056e-06 0
vn -0.999999999999952 -3.09434653678039e-07 0
vn 0 0 1
vn 4.67320959707251e-10 0 1
vn 9.34641919414503e-10 0 1
vn 1.86928383882901e-09 0 1
vn 7.0083238592643e-09 -1 0
vn 7.0083238592643e-09 1 0
vn 0 1.01848940188625e-09 -1
vn 0.999999999999999 0 -4.89400490104927e-08
vn -0.999999999999999 -0 -4.89400490104927e-08
vn 1.01211270475687e-07 0 -0.999999999999995
vn 6.64439099296031e-08 0 -0.999999999999998
vn 1.2886803801848e-07 0 -0.999999999999992
vn 1.28868080651043e-07 -1.33497721321871e-07 -0.999999999999983
vn 1.28868038018479e-07 1.33497678689307e-07 -0.999999999999983
vn -1.0679830209057e-06 0.999999999997697 -1.8614463215229e-06
vn 0 -0.999999999999876 -4.97460234782859e-07
vn 0 -0.999999999999823 -5.94626499150658e-07
vn 0 -0.999999999999876 -4.97460746373629e-07
vn -0.99999999999984 -5.66366906928815e-07 0
vn -0.999999999999961 -2.77416290606059e-07 0
vn -0.999999999999285 1.19599178582866e-06 0
vn -0.999999999999961 -2.77416944305376e-07 0
vn -0.99999999999984 -5.66368100640611e-07 0
vn 0.999999999999678 8.02283181888539e-07 0
vn 0.999999999999846 -5.55530675905217e-07 0
vn 0.999999999999225 -1.24497421460826e-06 0
vn 0.999999999998129 -1.93441769646612e-06 0
vn 0.999999999998129 -1.93442201656595e-06 0
vn -0.999999999999955 -3.00484628956696e-07 0
vn 0.999999999988565 -4.78220090388642e-06 0
g wall geometry_connector room connector Z18 Z18a_ALL
f 1/1/1 2/2/1 3/3/1 4/4/1
f 4/4/1 3/3/1 5/5/2 6/6/2
f 6/6/2 5/5/2 7/7/3 8/8/3
f 2/2/1 9/9/4 10/10/5 3/3/1
f 3/3/1 10/10/5 11/11/2 5/5/2
f 5/5/2 11/11/2 12/12/3 7/7/3
f 9/9/4 13/13/4 14/14/5 10/10/5
f 10/10/5 14/14/5 15/15/2 11/11/2
f 11/11/2 15/15/2 16/16/2 12/12/3
f 17/17/6 18/18/7 19/19/8 20/20/6
f 21/21/9 22/22/9 23/23/9 24/24/9
f 18/18/7 12/25/10 16/26/8 19/19/8
f 23/23/9 7/27/9 12/25/10 18/18/7
f 22/22/9 8/28/9 7/27/9 23/23/9
f 25/29/11 26/19/12 27/18/13 28/30/11
f 29/31/11 30/32/12 31/22/12 32/33/14
f 26/19/12 13/26/12 9/25/13 27/18/13
f 27/18/13 9/25/13 2/34/12 30/32/12
f 30/32/12 2/34/12 1/28/12 31/22/12
f 13/35/15 26/36/16 33/37/16 14/38/15
f 26/36/16 25/39/17 34/40/17 33/37/16
f 15/41/18 35/42/19 19/43/19 16/44/18
f 35/42/19 36/45/17 20/46/17 19/43/19
f 1/47/20 4/48/20 37/49/21 31/50/21
f 31/50/21 37/49/21 38/51/21 32/52/21
f 6/53/22 8/54/23 22/55/23 39/56/24
f 39/56/24 22/55/23 21/57/23 40/58/24
f 4/48/20 6/59/20 39/56/25 37/49/25
f 35/42/26 15/41/26 14/38/26 33/37/26
f 28/25/11 27/18/11 30/32/11 29/34/11
f 38/60/21 37/61/21 39/62/23 40/63/23
g floor geometry_connector room connector Z18 Z18a_ALL
f 41/64/27 42/65/27 43/66/27 44/67/27
f 42/65/27 45/68/27 46/69/27 43/66/27
f 45/68/27 47/70/27 48/71/27 46/69/27
f 44/67/27 43/66/27 49/72/27 50/73/27
f 43/66/27 46/69/27 51/74/28 49/72/27
f 46/69/27 48/71/27 52/75/29 51/74/28
f 50/73/27 49/72/27 53/76/27 54/77/27
f 49/72/27 51/74/28 55/78/29 53/76/27
f 51/74/28 52/75/29 56/79/30 55/78/29
g Lights10 Lights geometry_connector room connector Z18 Z18a_ALL
f 57/63/31 58/80/31 59/81/31 60/82/31
f 61/83/32 62/84/32 63/85/32 64/86/32
f 64/87/33 63/88/33 58/89/33 57/90/33
f 58/80/34 63/91/34 62/92/34 59/81/34
f 64/93/35 57/63/35 60/82/35 61/94/35
g Lights11 Lights geometry_connector room connector Z18 Z18a_ALL
f 65/63/31 66/80/31 67/81/31 68/82/31
f 69/83/32 70/84/32 71/85/32 72/86/32
f 72/87/33 71/88/33 66/89/33 65/90/33
f 66/80/34 71/91/34 70/92/34 67/81/34
f 72/93/35 65/63/35 68/82/35 69/94/35
g Lights6 Lights geometry_connector room connector Z18 Z18a_ALL
f 73/63/31 74/80/31 75/81/31 76/82/31
f 77/83/32 78/84/32 79/85/32 80/86/32
f 80/87/33 79/88/33 74/89/33 73/90/33
f 74/80/34 79/91/34 78/92/34 75/81/34
f 80/93/35 73/63/35 76/82/35 77/94/35
g Lights9 Lights geometry_connector room connector Z18 Z18a_ALL
f 81/63/31 82/80/31 83/81/31 84/82/31
f 85/83/32 86/84/32 87/85/32 88/86/32
f 88/87/33 87/88/33 82/89/33 81/90/33
f 82/80/34 87/91/34 86/92/34 83/81/34
f 88/93/35 81/63/35 84/82/35 85/94/35
g Lights7 Lights geometry_connector room connector Z18 Z18a_ALL
f 89/63/31 90/80/31 91/81/31 92/82/31
f 93/83/32 94/84/32 95/85/32 96/86/32
f 96/87/33 95/88/33 90/89/33 89/90/33
f 90/80/34 95/91/34 94/92/34 91/81/34
f 96/93/35 89/63/35 92/82/35 93/94/35
g Lights8 Lights geometry_connector room connector Z18 Z18a_ALL
f 97/63/31 98/80/31 99/81/31 100/82/31
f 101/83/32 102/84/32 103/85/32 104/86/32
f 104/87/33 103/88/33 98/89/33 97/90/33
f 98/80/34 103/91/34 102/92/34 99/81/34
f 104/93/35 97/63/35 100/82/35 101/94/35
g wall collision_connector room connector Z18 Z18a_ALL
f 105//36 106//36 107//37 108//37 109//37 110//36 111//38 112//38 113//38 114//39 115//39 116//40
f 117//9 107//9 106//41 118//9 119//9
f 120//9 108//9 107//9 117//9
f 121//9 109//9 108//9 120//9 122//9
f 123//11 124//11 115//42 114//43
f 125//44 126//11 113//42 112//42
f 127//45 116//46 115//46 124//47 128//47
f 106//48 105//48 129//49 130//17 118//17
f 131//50 132//50 125//50 112//51 111//51
f 121//23 133//52 134//52 110//53 109//23
f 111//51 110//51 134//54 131//54
f 129//55 105//55 116//55 127//55
f 126//11 123//11 114//43 113//42
f 131//54 134//54 133//56 132//56
g floor collision_connector room connector Z18 Z18a_ALL
f 135//27 136//27 137//27 138//27
