v 0 0 0
v 0.145434003489537 0 0
v 0.145434003489537 0.214467993558548 0
v 0 0.214467993558548 0
v 0.145434003489537 0.428936988349975 0
v 0 0.428936988349975 0
v 0.290869008211952 0 0
v 0.290869008211952 0.214467993558548 0
v 0.290869008211952 0.428936988349975 0
v 0.436302996057225 0 0
v 0.436302996057225 0.214467993558548 0
v 0.436302996057225 0.428936988349975 0
v 0.581738016423904 0 0
v 0.581738016423904 0.214467993558548 0
v 0.581738016423904 0.428936988349975 0
v 0.727171972980649 0 0
v 0.727171972980649 0.214467993558548 0
v 0.727171972980649 0.428936988349975 0
vt 0 0
vt 0.200000002980232 0
vt 0.200000002980232 0.5
vt 0 0.5
vt 0.200000002980232 1
vt 0 1
vt 0.400000005960464 0
vt 0.400000005960464 0.5
vt 0.400000005960464 1
vt 0.600000023841858 0
vt 0.600000023841858 0.5
vt 0.600000023841858 1
vt 0.800000011920929 0
vt 0.800000011920929 0.5
vt 0.800000011920929 1
vt 1 0
vt 1 0.5
vt 1 1
vn 0 0 1
g dollar pink_slip pink_slip
f 1/1/1 2/2/1 3/3/1
f 1/1/1 3/3/1 4/4/1
f 3/3/1 5/5/1 6/6/1
f 3/3/1 6/6/1 4/4/1
f 2/2/1 7/7/1 8/8/1
f 2/2/1 8/8/1 3/3/1
f 8/8/1 9/9/1 5/5/1
f 8/8/1 5/5/1 3/3/1
f 7/7/1 10/10/1 11/11/1
f 7/7/1 11/11/1 8/8/1
f 11/11/1 12/12/1 9/9/1
f 11/11/1 9/9/1 8/8/1
f 10/10/1 13/13/1 14/14/1
f 10/10/1 14/14/1 11/11/1
f 14/14/1 15/15/1 12/12/1
f 14/14/1 12/12/1 11/11/1
f 13/13/1 16/16/1 17/17/1
f 13/13/1 17/17/1 14/14/1
f 17/17/1 18/18/1 15/15/1
f 17/17/1 15/15/1 14/14/1
