v -5.66000012040138 -6.16000012040138 0.025000000372529
v 6.66000012040138 -6.16000012040138 0.025000000372529
v 6.66000012040138 6.16000012040138 0.025000000372529
v -5.66000012040138 6.16000012040138 0.025000000372529
v -1.73205080756888 -1 6.63274491425586
v -1 -1.73205080756888 6.63274491425586
v 3.67381906146713e-16 -2 6.63274491425586
v 1 -1.73205080756888 6.63274491425586
v 1.73205080756888 -1 6.63274491425586
v 2 2.44921270764475e-16 6.63274491425586
v 1.73205080756888 1 6.63274491425586
v 1 1.73205080756888 6.63274491425586
v -1.22460635382238e-16 2 6.63274491425586
v -1 1.73205080756888 6.63274491425586
v -1.73205080756888 1 6.63274491425586
v -2 0 6.63274491425586
v -2 0 0
v -1.73205080756888 1 0
v -1 1.73205080756888 0
v -1.22460635382238e-16 2 0
v 1 1.73205080756888 0
v 1.73205080756888 1 0
v 2 2.44921270764475e-16 0
v 1.73205080756888 -1 0
v 1 -1.73205080756888 0
v 3.67381906146713e-16 -2 0
v -1 -1.73205080756888 0
v -1.73205080756888 -1 0
v -0.327514499881541 -1 0.00750604395820886
v -0.327514499881541 -1 6.50086487132781
v -0.327514499881541 1 6.50086487132781
v -0.327514499881541 1 0.00750604395820886
v 1.67248550011846 1 6.50086487132781
v 1.67248550011846 1 0.00750604395820886
v 1.67248550011846 -1 6.50086487132781
v 1.67248550011846 -1 0.00750604395820886
v -1.93856776824213 2.47290948686299e-16 0.00597654370566511
v 1.86143218407416 -2.18074829150125e-16 0.00597654370566511
v 1.86143218407416 -2.18074829150125e-16 4.98779871021558
v -1.93856776824213 2.47290948686299e-16 4.98779871021558
v -5.83299619494207 0 19.5
v -5.83299619494207 0 4.98779871021558
v 5.66268260023966 0 4.98779871021558
v 5.66268260023966 0 19.5
v 1.93856776824213 2.47290948686299e-16 4.98779871021558
v -1.86143218407416 -2.18074829150125e-16 4.98779871021558
v -1.86143218407416 -2.18074829150125e-16 0.00597654370566511
v 1.93856776824213 2.47290948686299e-16 0.00597654370566511
v -5.66268260023966 0 19.5
v -5.66268260023966 0 4.98779871021558
v 5.83299619494207 0 4.98779871021558
v 5.83299619494207 0 19.5
vt 0 0
vt 1 0
vt 1 1
vt 0 1
vn 0 0 1
vn -1 0 0
vn -0.866025403784439 0.5 0
vn -0.5 0.866025403784439 0
vn 0 1 0
vn 0.5 0.866025403784439 0
vn 0.866025403784439 0.5 0
vn 1 0 0
vn 0.866025403784439 -0.5 0
vn 0.5 -0.866025403784439 0
vn 0 -1 0
vn -0.5 -0.866025403784439 0
vn -0.866025403784438 -0.5 0
vn 0 0 -1
g shadow_small_ur prop_tree_small_ur prop_tree_small trees
f 1/1/1 2/2/1 3/3/1 4/4/1
g prop_tree_small_ur_collide prop_tree_small_ur prop_tree_small trees
f 5//1 6//1 7//1 8//1 9//1 10//1 11//1 12//1 13//1 14//1 15//1 16//1
f 17//2 16//2 15//3 18//3
f 18//3 15//3 14//4 19//4
f 19//4 14//4 13//5 20//5
f 20//5 13//5 12//6 21//6
f 21//6 12//6 11//7 22//7
f 22//7 11//7 10//8 23//8
f 23//8 10//8 9//9 24//9
f 24//9 9//9 8//10 25//10
f 25//10 8//10 7//11 26//11
f 26//11 7//11 6//12 27//12
f 27//12 6//12 5//13 28//13
f 28//13 5//13 16//2 17//2
f 17//14 18//14 19//14 20//14 21//14 22//14 23//14 24//14 25//14 26//14 27//14 28//14
g prop_tree_small_ur_camera_collide prop_tree_small_ur prop_tree_small trees
f 29//2 30//2 31//2 32//2
f 32//5 31//5 33//5 34//5
f 34//8 33//8 35//8 36//8
f 36//11 35//11 30//11 29//11
g p264_8 prop_leaves_MM_ur_1 prop_tree_MM_ur_tflip prop_tree_small_ur prop_tree_small trees
f 37/2/11 38/1/11 39/4/11 40/3/11
f 41/3/11 42/2/11 43/1/11 44/4/11
g p264_10 prop_leaves_MM_ur_2 prop_tree_MM_ur_tflip prop_tree_small_ur prop_tree_small trees
f 37/2/11 38/1/11 39/4/11 40/3/11
f 41/3/11 42/2/11 43/1/11 44/4/11
g prop_tree_small_ur_camera_collide_1 prop_tree_small_ul prop_tree_small trees
f 29//2 30//2 31//2 32//2
f 32//5 31//5 33//5 34//5
f 34//8 33//8 35//8 36//8
f 36//11 35//11 30//11 29//11
g prop_tree_small_ur_collide_1 prop_tree_small_ul prop_tree_small trees
f 5//1 6//1 7//1 8//1 9//1 10//1 11//1 12//1 13//1 14//1 15//1 16//1
f 17//2 16//2 15//3 18//3
f 18//3 15//3 14//4 19//4
f 19//4 14//4 13//5 20//5
f 20//5 13//5 12//6 21//6
f 21//6 12//6 11//7 22//7
f 22//7 11//7 10//8 23//8
f 23//8 10//8 9//9 24//9
f 24//9 9//9 8//10 25//10
f 25//10 8//10 7//11 26//11
f 26//11 7//11 6//12 27//12
f 27//12 6//12 5//13 28//13
f 28//13 5//13 16//2 17//2
f 17//14 18//14 19//14 20//14 21//14 22//14 23//14 24//14 25//14 26//14 27//14 28//14
g shadow_small_ur_1 prop_tree_small_ul prop_tree_small trees
f 1/1/1 2/2/1 3/3/1 4/4/1
g p264_6 prop_leaves_small_ul_1 prop_tree_MM_ul_tflip prop_tree_small_ul prop_tree_small trees
f 45/3/11 46/4/11 47/1/11 48/2/11
f 49/4/11 50/1/11 51/2/11 52/3/11
g p264_9 prop_leaves_small_ul_3 prop_tree_MM_ul_tflip prop_tree_small_ul prop_tree_small trees
f 45/3/11 46/4/11 47/1/11 48/2/11
f 49/4/11 50/1/11 51/2/11 52/3/11
