v -10.0608736561537 6.72299843134843 15.6260913438371
v -6.66580510454196 6.71569343626969 15.6215297268444
v -6.67335039551145 6.7866928621227 9.90474630841433
v -10.0684169446574 6.79399785720144 9.90931193033854
v -4.97465068463547 3.7720367351542 15.5827459700777
v -4.98218996820769 3.84303616100722 9.86596655657911
v -6.67858283853249 0.835685029117454 15.5485278352352
v -6.68612011963895 0.906684454970472 9.83174842173659
v -10.0736513901442 0.843022063648294 15.5530934571594
v -10.0811946786479 0.914021489501312 9.8363140436608
v -11.7647998026534 3.78667876476378 15.5918692040631
v -11.7723430911572 3.8576461511647 9.87509379549602
v -8.36919258775329 3.77427949680118 15.9965475087404
v -1.26348089860775 8.28729264066601 0.71215491908116
v -3.9129393357489 10.9531032131726 0.748749980776329
v -3.90058812696445 10.8367359231463 10.117796650083
v -1.25115171694661 8.17095739009186 10.0811995859221
v -15.4300810834113 -0.753503834481627 9.98905412168328
v -12.780640668462 -3.41928236753609 9.95246506738538
v -15.4424342946615 -0.63716858390748 0.620007452376558
v -12.7929858698491 -3.30294711696194 0.583420400544414
v -10.2895952948307 -4.33903891896325 0.567246484631316
v -6.49364511361554 -4.34720897924869 0.562148206815945
v -6.48129190236533 -4.46357626927493 9.93120288598569
v -10.2772420835805 -4.4553741695374 9.93629715886954
v -6.44579218943882 11.8838172572178 10.1341567953115
v -10.241742370654 11.8919873175033 10.1392510681953
v -6.45814540068903 12.000152507792 0.765100113675976
v -10.2540955819042 12.0083546075295 0.770198391491347
v -0.201117747117526 1.92601962352362 0.631755918968381
v -0.197950847524043 5.72166943487533 0.678887955472851
v -0.185597636273838 5.60533418430118 10.0479426346426
v -0.188798577785177 1.80968437294948 10.0008126006039
v -16.5342687359191 5.61879075418307 10.0696453585087
v -16.537456661403 1.82310890337927 10.0225153244699
v -16.5466219471693 5.73512600475722 0.700590679338911
v -16.5497858430642 1.93944415395341 0.653466652697466
v -3.94300035168148 -3.2954819246227 0.57184815093914
v -1.25614786900842 -0.614196296751969 0.601608797008284
v -1.24379465775821 -0.730531547326115 9.970655466315
v -3.93064714043128 -3.41184921464895 9.94090283010888
v -12.7924131646429 10.8402602628773 10.1295551290037
v -15.4792696522474 8.15897463500656 10.0998024927975
v -12.804742346304 10.9566275529035 0.760498447368151
v -15.4915968314428 8.27530988558071 0.730745811162033
v -8.37968751078171 11.4004700828412 0.0880824612194472
v -13.6352550063731 9.23239239870407 0.068081833246186
v -13.6219466189572 9.1069259042815 10.1716069098846
v -8.36637712090003 11.2750035884186 10.1916075378578
v -15.8183652009423 3.98340100065617 0.00577511124097769
v -15.8050528085948 3.8579345062336 10.1093061952766
v -13.6501974058461 -1.27170993274278 -0.0623387614573081
v -13.6368870159644 -1.39717642716535 10.0411903201126
v -8.40084155903056 -3.4545578042979 -0.0963586521899606
v -8.38752516175161 -3.57999225926837 10.0071684269142
v -3.14518995987743 -1.28737722481955 -0.00536861069246227
v -3.13197969328356 -1.41194661458333 10.0271690548874
v -0.962187898459082 3.96251127788714 -0.0140533046772474
v -0.948877508577397 3.83704478346457 10.0894737744269
v -3.13033566889769 9.21762221128609 0.0540605680210384
v -3.11704330120781 9.09215571686352 10.1575896495909
v -8.37641147680451 3.84233129306102 10.5164355180395
v 0.138240639291696 6.6506545638931 -0.690449421361343
v -1.16097183005348 9.20050368734187 -0.690449421361343
v -1.16097183005348 9.20050368734187 21.0478607368659
v 0.138240639291696 6.6506545638931 21.0478607368659
v -3.18454487247741 11.2240677794833 -0.690449421361343
v -3.18454487247741 11.2240677794833 21.0478607368659
v -5.73439254808636 12.523252871494 -0.690449421361343
v -5.73439254808636 12.523252871494 21.0478607368659
v -8.56092214748929 12.9709270456375 -0.690449421361343
v -8.56092214748929 12.9709270456375 21.0478607368659
v -11.3874513520268 12.523252871494 -0.690449421361343
v -11.3874513520268 12.523252871494 21.0478607368659
v -13.9372994225012 11.2240677794833 -0.690449421361343
v -13.9372994225012 11.2240677794833 21.0478607368659
v -15.9608714119507 9.20050368734187 -0.690449421361343
v -15.9608714119507 9.20050368734187 21.0478607368659
v -17.2600833548087 6.6506545638931 -0.690449421361343
v -17.2600833548087 6.6506545638931 21.0478607368659
v -17.7077617408499 3.82413430963802 -0.690449421361343
v -17.7077617408499 3.82413430963802 21.0478607368659
v -17.2600833548087 0.997580360201942 -0.690449421361343
v -17.2600833548087 0.997580360201942 21.0478607368659
v -15.9608708854635 -1.55226876324683 -0.690449421361343
v -15.9608708854635 -1.55226876324683 21.0478607368659
v -13.937298896014 -3.57583285538828 -0.690449421361343
v -13.937298896014 -3.57583285538828 21.0478607368659
v -11.3874510887832 -4.87501794739894 -0.690449421361343
v -11.3874510887832 -4.87501794739894 21.0478607368659
v -8.56092214748929 -5.32269212154249 -0.690449421361343
v -8.56092214748929 -5.32269212154249 21.0478607368659
v -5.73439531214418 -4.87501794739894 -0.690449421361343
v -5.73439531214418 -4.87501794739894 21.0478607368659
v -3.18454592545182 -3.57583285538828 -0.690449421361343
v -3.18454592545182 -3.57583285538828 21.0478607368659
v -1.1609760419511 -1.55226876324683 -0.690449421361343
v -1.1609760419511 -1.55226876324683 21.0478607368659
v 0.138235374419672 0.997580360201942 -0.690449421361343
v 0.138235374419672 0.997580360201942 21.0478607368659
v 0.585913760460857 3.82413430963802 -0.690449421361343
v 0.585913760460857 3.82413430963802 21.0478607368659
v 2.72374544862427 14.3318686814868 -3.1721270462153e-05
v -19.2803006539824 14.3318686814868 3.1721270462153e-05
v -19.2803006539824 -6.76293478510267 3.1721270462153e-05
v 2.72374544862427 -6.76293478510267 -3.1721270462153e-05
vt 0 1
vt 1 1
vt 1 0
vt 0 0
vt 0.999999940395355 0
vt 0.693824887275696 -0.0305999517440796
vt 1.05291891098022 0.380711823701859
vt 0.499893367290497 0.501118421554565
vt 0.140800684690475 0.0898066759109497
vt -0.0531305968761444 0.621524810791016
vt 0.305961966514587 1.03283619880676
vt 0.858986139297485 0.912429809570312
vt -0.594015777111053 0.00485056638717651
vt -1.00167787075043 0.00485056638717651
vt -1.00167787075043 0.521375954151154
vt -0.594015777111053 0.521375954151154
vt -0.00328116863965988 1.00026142597198
vt -0.00328116863965988 0.528312981128693
vt -1.00328087806702 0.528312981128693
vt -1.00328087806702 1.00026142597198
vt -1.00167763233185 0.00485056638717651
vt 0.397320866584778 -0.00270627485588193
vt 0.996748685836792 -0.00270627485588193
vt 0.996748685836792 0.526799082756042
vt 0.397320866584778 0.526799082756042
vt 0.929307699203491 0.91580206155777
vt 0.836306631565094 0.91580206155777
vt 0.836306631565094 0.643909454345703
vt 0.929307699203491 0.643909454345703
vt 0.743305504322052 0.91580206155777
vt 0.743305504322052 0.643909454345703
vt 0.553032696247101 0.643909454345703
vt 0.646033704280853 0.643909454345703
vt 0.646033704280853 0.91580206155777
vt 0.553032696247101 0.91580206155777
vt 0.739034831523895 0.643909454345703
vt 0.739034831523895 0.91580206155777
vt 0.362760096788406 0.643909454345703
vt 0.455761164426804 0.643909454345703
vt 0.455761164426804 0.91580206155777
vt 0.362760096788406 0.91580206155777
vt 0.548762142658234 0.643909454345703
vt 0.548762142658234 0.91580206155777
vt 0.173184767365456 0.642417907714844
vt 0.266185820102692 0.642417907714844
vt 0.266185820102692 0.91431051492691
vt 0.173184767365456 0.91431051492691
vt 0.359186917543411 0.642417907714844
vt 0.359186917543411 0.91431051492691
vt 0.861615180969238 0.14261668920517
vt 1.01094436645508 0.501951456069946
vt 0.501102387905121 0.501951456069946
vt 0.861615180969238 0.861286282539368
vt 0.501102387905121 1.01012766361237
vt 0.140589535236359 0.861286282539368
vt -0.00873991847038269 0.501951456069946
vt 0.140589535236359 0.14261668920517
vt 0.501102387905121 -0.0062247603200376
vn -0.498118610408688 0.867033637971105 0.0114245608715715
vn 0.00216271630302463 0.99992058422418 0.0124156313962347
vn 0.867107832333473 0.498094955348547 0.00504207916194284
vn 0.864937968358222 -0.501824621596092 -0.00737292698251006
vn -0.0021765768786333 -0.999920554304184 -0.0124156189175367
vn -0.501881151752374 -0.864877874294923 -0.0100782970191413
vn -0.867109129958639 -0.498092712318013 -0.00504050375036886
vn -0.864938618665858 0.501823511030627 0.00737222607434875
vn 0.0613723260461385 0.0911815650819468 0.993941326127902
vn -0.0583084169311123 0.0914406730405018 0.994101972550547
vn 0.00131717208828712 -0.0124165109357944 0.999922044618415
vn 0.120989503510248 -0.0125861460296204 0.992573991684481
vn 0.0609236092555358 -0.116093552407801 0.991368045139955
vn -0.0587579925812972 -0.115836318765568 0.991528842526862
vn -0.11837281584983 -0.012069807863643 0.992895863726865
vn 0.709312172065785 0.704851122211337 0.00781908413664873
vn 0.00131700979771969 -0.012416993289166 0.999922038842454
vn -0.70930487390009 -0.704858486579516 -0.00781727308027076
vn -0.708983250447635 0.705158718372812 0.00969187739909091
vn 0.708982315232226 -0.705159690727904 -0.00968954387368354
vn -0.00217896932632224 -0.999920558896324 -0.0124148294043322
vn 0.00131521238768665 -0.0124169069100239 0.999922042280879
vn 0.00217896862793448 0.999920558944091 0.0124148256796354
vn 0.999996773358919 -0.00215488052330854 -0.00134527383126357
vn -0.999996773354255 0.00215487912631472 0.00134527953560768
vn 0.999998781589755 -0.000822356472966999 -0.00132685675053446
vn 0.00131717734559485 -0.0124176890682005 0.999922029981361
vn -0.999998782516118 0.000820228110661539 0.00132747584842937
vn 0.000837945277494949 0.999922581126131 0.012414894351891
vn -0.000834432613843678 -0.999922583938355 -0.0124149044400757
vn 0.706395796548471 -0.707750299366417 -0.00972071835816518
vn 0.00131805180496279 -0.0124160019488531 0.999922049779404
vn -0.706395396144413 0.707750724942304 0.00971882964255711
vn 0.707817391919965 0.706351952213257 0.00783959821288003
vn -0.707817153346731 -0.706352190354108 -0.00783968175904349
vn 0.00142369943139212 0.99992191229465 0.0124154094954231
vn -0.70609858957909 0.708046784676299 0.00972278272792293
vn -0.999998120684306 0.00140593455529755 0.00133490669425676
vn -0.708109786799794 -0.70605889003555 -0.00783413301632326
vn -0.00142323606755167 -0.999921940370642 -0.0124132012191427
vn 0.706098336958371 -0.708047057063679 -0.00972129251114966
vn 0.999998122058503 -0.00140573791260767 -0.00133408410102571
vn 0.708111663406163 0.706056991216329 0.00783564309437652
vn 0.00139455830389269 0.0436584375866975 0.999045542522775
vn -0.0382689019669874 0.0272964373494795 0.998894586856024
vn 0.0013170735967695 -0.0124167753922398 0.999922041464233
vn -0.0547447531171518 -0.0123182607720953 0.998424394963231
vn -0.0383816132506555 -0.0519795298709297 0.997910306710315
vn 0.00123481294374528 -0.068453791468683 0.997653523860141
vn 0.0408990437185674 -0.052090150491204 0.997804532182887
vn 0.0573753853943495 -0.0124753748766891 0.998274726802465
vn 0.0410114836945222 0.0271842580907107 0.998788803660329
vn 0.951057913989992 0.30901269267945 0
vn 0.809017099032765 0.587785108243318 0
vn 0.587775057280865 0.809024401386309 0
vn 0.309013884121219 0.951057526872228 0
vn -1.50869325921121e-08 1 0
vn -0.309013822130295 0.951057547014074 0
vn -0.587775135305779 0.809024344699388 0
vn -0.809017225249589 0.587784934520659 0
vn -0.951057672259059 0.309013436661225 0
vn -1 0 0
vn -0.951056306381351 -0.309017640422454 0
vn -0.809018585288693 -0.587783062581325 0
vn -0.587780651793438 -0.809020336813162 0
vn -0.309013849086805 -0.951057538255471 0
vn 5.28042640723924e-08 -0.999999999999999 0
vn 0.309013812690988 -0.951057550081055 0
vn 0.587780758161156 -0.809020259533404 0
vn 0.809018837721471 -0.587782715135279 0
vn 0.951056347107897 -0.309017515079295 0
vn 0.999999999999577 -9.20301202142974e-07 0
vn 2.91243941295968e-06 0 0.999999999995759
g gearB2 geometry props
f 1/1/1 2/2/2 3/3/2 4/4/1
f 2/1/3 5/2/3 6/3/3 3/4/3
f 5/1/4 7/2/4 8/5/4 6/4/4
f 7/1/5 9/2/6 10/3/6 8/4/5
f 9/1/6 11/2/7 12/3/7 10/4/6
f 11/1/8 1/2/1 4/3/1 12/4/8
f 2/6/9 1/7/10 13/8/11
f 5/9/12 2/6/9 13/8/11
f 7/10/13 5/9/12 13/8/11
f 9/11/14 7/10/13 13/8/11
f 11/12/15 9/11/14 13/8/11
f 1/7/10 11/12/15 13/8/11
f 14/13/16 15/14/16 16/15/16 17/16/16
f 17/17/17 16/18/17 18/19/17 19/20/17
f 19/15/18 18/16/18 20/13/18 21/21/18
f 15/22/19 20/23/19 18/24/19 16/25/19
f 21/22/20 14/23/20 17/24/20 19/25/20
f 22/13/21 23/14/21 24/15/21 25/16/21
f 25/17/22 24/18/22 26/19/22 27/20/22
f 27/15/23 26/16/23 28/13/23 29/21/23
f 23/22/24 28/23/24 26/24/24 24/25/24
f 29/22/25 22/23/25 25/24/25 27/25/25
f 30/13/26 31/14/26 32/15/26 33/16/26
f 33/17/27 32/18/27 34/19/27 35/20/27
f 35/15/28 34/16/28 36/13/28 37/21/28
f 31/22/29 36/23/29 34/24/29 32/25/29
f 37/22/30 30/23/30 33/24/30 35/25/30
f 38/13/31 39/14/31 40/15/31 41/16/31
f 41/17/32 40/18/32 42/19/32 43/20/32
f 43/15/33 42/16/33 44/13/33 45/21/33
f 39/22/34 44/23/34 42/24/34 40/25/34
f 45/22/35 38/23/35 41/24/35 43/25/35
f 46/26/36 47/27/37 48/28/37 49/29/36
f 47/27/37 50/30/38 51/31/38 48/28/37
f 50/32/38 52/33/39 53/34/39 51/35/38
f 52/33/39 54/36/40 55/37/40 53/34/39
f 54/38/40 56/39/41 57/40/41 55/41/40
f 56/39/41 58/42/42 59/43/42 57/40/41
f 58/44/42 60/45/43 61/46/43 59/47/42
f 60/45/43 46/48/36 49/49/36 61/46/43
f 49/50/44 48/51/45 62/52/46
f 48/51/45 51/53/47 62/52/46
f 51/53/47 53/54/48 62/52/46
f 53/54/48 55/55/49 62/52/46
f 55/55/49 57/56/50 62/52/46
f 57/56/50 59/57/51 62/52/46
f 59/57/51 61/58/52 62/52/46
f 61/58/52 49/50/44 62/52/46
g gearB2 collision props
f 63//53 64//54 65//54 66//53
f 64//54 67//55 68//55 65//54
f 67//55 69//56 70//56 68//55
f 69//56 71//57 72//57 70//56
f 71//57 73//58 74//58 72//57
f 73//58 75//59 76//59 74//58
f 75//59 77//60 78//60 76//59
f 77//60 79//61 80//61 78//60
f 79//61 81//62 82//62 80//61
f 81//62 83//63 84//63 82//62
f 83//63 85//64 86//64 84//63
f 85//64 87//65 88//65 86//64
f 87//65 89//66 90//66 88//65
f 89//66 91//67 92//67 90//66
f 91//67 93//68 94//68 92//67
f 93//68 95//69 96//69 94//68
f 95//69 97//70 98//70 96//69
f 97//70 99//71 100//71 98//70
f 99//71 101//72 102//72 100//71
f 101//72 63//53 66//53 102//72
g circleshadow shadow props
f 103/4/73 104/3/73 105/2/73 106/1/73
