v 20 -2.44921270764475e-15 -15
v 20 -2.44921270764475e-15 15
v -20 2.44921270764475e-15 15
v -20 2.44921270764475e-15 -15
v -15.9382727266924 1.95181100500614e-15 6.31180412890327
v -15.9382727266924 1.95181100500614e-15 11.7215235960664
v -19.7422288725666 2.41764589159606e-15 11.7215235960664
v -19.7422288725666 2.41764589159606e-15 6.31180412890327
v -15.9382727266924 1.95181100500614e-15 -0.188195871096727
v -15.9382727266924 1.95181100500614e-15 5.22152359606636
v -19.7422288725666 2.41764589159606e-15 5.22152359606636
v -19.7422288725666 2.41764589159606e-15 -0.188195871096727
v -15.9382727266924 1.95181100500614e-15 -6.68819587109673
v -15.9382727266924 1.95181100500614e-15 -1.27847640393364
v -19.7422288725666 2.41764589159606e-15 -1.27847640393364
v -19.7422288725666 2.41764589159606e-15 -6.68819587109673
v -15.9382727266924 1.95181100500614e-15 -13.1881958710967
v -15.9382727266924 1.95181100500614e-15 -7.77847640393364
v -19.7422288725666 2.41764589159606e-15 -7.77847640393364
v -19.7422288725666 2.41764589159606e-15 -13.1881958710967
v -17.5466970678907 2.14877967179354e-15 12.5124017889054
v -17.5466970678907 2.14877967179354e-15 11.0760547754643
v -16.1103500544496 1.97288370389817e-15 11.0760547754643
v -16.1103500544496 1.97288370389817e-15 12.5124017889054
v -17.5466970678907 2.14877967179354e-15 0.0124017889054002
v -17.5466970678907 2.14877967179354e-15 -1.42394522453567
v -16.1103500544496 1.97288370389817e-15 -1.42394522453567
v -16.1103500544496 1.97288370389817e-15 0.0124017889054002
v -17.5466970678907 2.14877967179354e-15 -12.4875982110946
v -17.5466970678907 2.14877967179354e-15 -13.9239452245357
v -16.1103500544496 1.97288370389817e-15 -13.9239452245357
v -16.1103500544496 1.97288370389817e-15 -12.4875982110946
v -9.04669706789072 1.10786427104452e-15 12.5124017889054
v -9.04669706789072 1.10786427104452e-15 11.0760547754643
v -7.61035005444965 9.31968303149151e-16 11.0760547754643
v -7.61035005444965 9.31968303149151e-16 12.5124017889054
v -9.04669706789072 1.10786427104452e-15 -12.9875982110946
v -9.04669706789072 1.10786427104452e-15 -14.4239452245357
v -7.61035005444965 9.31968303149151e-16 -14.4239452245357
v -7.61035005444965 9.31968303149151e-16 -12.9875982110946
v 0.174659978330028 -2.13889719221431e-17 -12.9875982110946
v 0.174659978330028 -2.13889719221431e-17 -14.4239452245357
v 1.6110069917711 -1.97284939817516e-16 -14.4239452245357
v 1.6110069917711 -1.97284939817516e-16 -12.9875982110946
v 9.27611323135533 -1.13595872018936e-15 -12.9875982110946
v 9.27611323135533 -1.13595872018936e-15 -14.4239452245357
v 10.7124602447964 -1.31185468808473e-15 -14.4239452245357
v 10.7124602447964 -1.31185468808473e-15 -12.9875982110946
v 9.15136362661246 -1.12068180432886e-15 12.5124017889054
v 9.15136362661246 -1.12068180432886e-15 11.0760547754643
v 10.5877106400535 -1.29657777222423e-15 11.0760547754643
v 10.5877106400535 -1.29657777222423e-15 12.5124017889054
v 17.9533029321093 -2.19857288427589e-15 -12.4875982110946
v 17.9533029321093 -2.19857288427589e-15 -13.9239452245357
v 19.3896499455504 -2.37446885217127e-15 -13.9239452245357
v 19.3896499455504 -2.37446885217127e-15 -12.4875982110946
v 17.9533029321093 -2.19857288427589e-15 0.0124017889054002
v 17.9533029321093 -2.19857288427589e-15 -1.42394522453567
v 19.3896499455504 -2.37446885217127e-15 -1.42394522453567
v 19.3896499455504 -2.37446885217127e-15 0.0124017889054002
v 17.9533029321093 -2.19857288427589e-15 12.5124017889054
v 17.9533029321093 -2.19857288427589e-15 11.0760547754643
v 19.3896499455504 -2.37446885217127e-15 11.0760547754643
v 19.3896499455504 -2.37446885217127e-15 12.5124017889054
v -8.9012098055816 1.09004780846213e-15 14.2433584116469
v -8.9012098055816 1.09004780846213e-15 12.3969933275763
v -7.05484472151105 8.63940767119269e-16 12.3969933275763
v -7.05484472151105 8.63940767119269e-16 14.2433584116469
v 8.63138082768205 -1.05700438038401e-15 14.2433584116469
v 8.63138082768205 -1.05700438038401e-15 12.3969933275763
v 10.4777459117526 -1.28311142172687e-15 12.3969933275763
v 10.4777459117526 -1.28311142172687e-15 14.2433584116469
vt 1 0
vt 1 1
vt 0 1
vt 0 0
vn 0 -1 0
g o1 frame g1
f 1/1/1 2/2/1 3/3/1 4/4/1
g corp_icon icons g1
f 5/1/1 6/2/1 7/3/1 8/4/1
g legal_icon icons g1
f 9/1/1 10/2/1 11/3/1 12/4/1
g money_icon icons g1
f 13/1/1 14/2/1 15/3/1 16/4/1
g sales_icon icons g1
f 17/1/1 18/2/1 19/3/1 20/4/1
g o7 screws g1
f 21/3/1 22/4/1 23/1/1 24/2/1
g o7_1 screws g1
f 25/3/1 26/4/1 27/1/1 28/2/1
g o7_2 screws g1
f 29/3/1 30/4/1 31/1/1 32/2/1
g o7_3 screws g1
f 33/3/1 34/4/1 35/1/1 36/2/1
g o7_4 screws g1
f 37/3/1 38/4/1 39/1/1 40/2/1
g o7_6 screws g1
f 41/3/1 42/4/1 43/1/1 44/2/1
g o7_7 screws g1
f 45/3/1 46/4/1 47/1/1 48/2/1
g o7_8 screws g1
f 49/3/1 50/4/1 51/1/1 52/2/1
g o7_9 screws g1
f 53/3/1 54/4/1 55/1/1 56/2/1
g o7_10 screws g1
f 57/3/1 58/4/1 59/1/1 60/2/1
g o7_11 screws g1
f 61/3/1 62/4/1 63/1/1 64/2/1
g o7_5 screws g1
f 65/3/1 66/4/1 67/1/1 68/2/1
g o7_12 screws g1
f 69/3/1 70/4/1 71/1/1 72/2/1
