v -10 0 12
v -9.64999973773956 0 11
v -9 0 11
v -6.42857142857143 0 11
v 6.42857142857143 0 11
v 9 0 11
v 9.64999973773956 0 11
v 10 0 12
v 0.802568865631482 0 17
v 0.802568865631482 6 17
v 10.2065115405458 6 12
v 9.85651127828541 6 11
v 9.20651154054584 6 11
v 9.00479047584615 0 10.9999885256048
v 9 0 10
v 9.20651154054584 6 10
v 9.21130201639199 6 10.9999885256048
v -10.2698987660811 6 12
v -9.9198985038207 6 11
v -9.26989876608114 6 11
v -6.42857142857143 1.12526139639238 10
v -9.26989876608114 6 10
v 6.42857142857143 1.12526139639238 10
v 6.42857142857143 0 10
v -6.42857142857143 0 10
v -9 0 10
v -6.42857142857143 1.12526139639238 11
v 6.42857142857143 1.12526139639238 11
v -9.27468924192728 6 10.9999885256048
v -9.00479047584615 0 10.9999885256048
v -6.43336190441758 1.12526145136032 10.9999885256048
v -6.43336190441758 0 10.9999885256048
v -6.42857142857143 1.13005188271387 10
v -6.4285920751075 1.13005182774593 10.0000114743952
v 6.42855078203536 1.13005182774593 10.0000114743952
v 6.43336190441758 1.13005182774593 10.0000114743952
v 6.43336190441758 0.00479043135354873 10.0000114743952
v -7.24468134718616 0.68427436849985 7.78231092090619
v -7.59847928683033 0.68427436849985 10.0000002448084
v -8.68031417878672 1.55043244796545 10.0000002448084
v -8.32651623914254 1.55043244796545 7.78231092090619
v -7.73376510906279 2.7326760070257 10.0000002448084
v -7.37996716941862 2.7326760070257 7.78231092090619
v -6.65193021710641 1.86651792756009 10.0000002448084
v -6.29813227746223 1.86651792756009 7.78231092090619
v -6.29813227746223 1.86651792756009 3.95262039954781
v -7.24468134718616 0.68427436849985 3.95262039954781
v -6.65193021710641 1.86651792756009 1.98853135747933
v -7.59847928683033 0.68427436849985 1.98853135747933
v -7.37996716941862 2.7326760070257 3.95262039954781
v -7.73376510906279 2.7326760070257 1.98853135747933
v -8.32651623914254 1.55043244796545 3.95262039954781
v -8.68031417878672 1.55043244796545 1.98853135747933
v -8.49878061469978 0.76916150985736 1.98853135747933
v -7.22482237790354 0.574626050824 1.98853135747933
v -6.41937061004567 1.58063851773329 1.98853135747933
v -6.88787707898403 2.78118644367594 1.98853135747933
v -8.16183531578026 2.9757219027093 1.98853135747933
v -8.96728708363814 1.96970943580001 1.98853135747933
v -6.41937061004567 1.58063851773329 1
v -6.88787707898403 2.78118644367594 1
v -8.16183531578026 2.9757219027093 1
v -8.96728708363814 1.96970943580001 1
v -8.49878061469978 0.76916150985736 1
v -7.22482237790354 0.574626050824 1
v -9.24523353657466 0.0223663904109563 0
v -9.24523353657466 0.0223663904109563 1
v -9.24523353657466 3.32448802112561 1
v -9.24523353657466 3.32448802112561 0
v -6.11922532090715 3.32448802112561 1
v -6.11922532090715 3.32448802112561 0
v -6.11922532090715 0.0223663904109563 1
v -6.11922532090715 0.0223663904109563 0
v 9.25720788835739 3.32448802112561 1
v 6.13119967268989 3.32448802112561 1
v 6.13119967268989 0.0223663904109563 1
v 9.25720788835739 0.0223663904109563 1
v 9.25720788835739 0.0223663904109563 0
v 6.13119967268989 0.0223663904109563 0
v 6.13119967268989 3.32448802112561 0
v 9.25720788835739 3.32448802112561 0
v 8.69228853056945 1.55043244796545 1.98853135747933
v 8.33849059092528 1.55043244796545 3.95262039954781
v 7.25665569896889 0.68427436849985 3.95262039954781
v 7.61045363861307 0.68427436849985 1.98853135747933
v 8.33849059092528 1.55043244796545 7.78231092090619
v 7.25665569896889 0.68427436849985 7.78231092090619
v 7.74573946084553 2.7326760070257 1.98853135747933
v 7.39194152120135 2.7326760070257 3.95262039954781
v 7.39194152120135 2.7326760070257 7.78231092090619
v 6.66390456888914 1.86651792756009 1.98853135747933
v 6.31010662924496 1.86651792756009 3.95262039954781
v 6.31010662924496 1.86651792756009 7.78231092090619
v 7.61045363861307 0.68427436849985 10.0000002448084
v 6.66390456888914 1.86651792756009 10.0000002448084
v 7.74573946084553 2.7326760070257 10.0000002448084
v 8.69228853056945 1.55043244796545 10.0000002448084
v 8.97926143542087 1.96970943580001 1.98853135747933
v 8.173809667563 2.9757219027093 1.98853135747933
v 6.89985143076676 2.78118644367594 1.98853135747933
v 6.4313449618284 1.58063851773329 1.98853135747933
v 7.23679672968628 0.574626050824 1.98853135747933
v 8.51075496648251 0.76916150985736 1.98853135747933
v 6.89985143076676 2.78118644367594 1
v 6.4313449618284 1.58063851773329 1
v 8.173809667563 2.9757219027093 1
v 8.97926143542087 1.96970943580001 1
v 8.51075496648251 0.76916150985736 1
v 7.23679672968628 0.574626050824 1
v -5.60739388416852 1.61318853023732 10.2401876406178
v -5.87534307659965 2.61318853023732 10.2401876406178
v -6.60739388416852 3.3452393378062 10.2401876406178
v -7.60739388416852 3.61318853023732 10.2401876406178
v -8.60739388416852 3.3452393378062 10.2401876406178
v -9.3394446917374 2.61318853023732 10.2401876406178
v -9.60739388416852 1.61318853023732 10.2401876406178
v -9.3394446917374 0.613188530237324 10.2401876406178
v -8.60739388416852 -0.118862277331552 10.2401876406178
v -7.60739388416852 -0.386811469762676 10.2401876406178
v -6.60739388416852 -0.118862277331553 10.2401876406178
v -5.87534307659965 0.613188530237323 10.2401876406178
v -5.87534307659965 0.613188530237323 0
v -6.60739388416852 -0.118862277331553 0
v -7.60739388416852 -0.386811469762676 0
v -8.60739388416852 -0.118862277331552 0
v -9.3394446917374 0.613188530237324 0
v -9.60739388416852 1.61318853023732 0
v -9.3394446917374 2.61318853023732 0
v -8.60739388416852 3.3452393378062 0
v -7.60739388416852 3.61318853023732 0
v -6.60739388416852 3.3452393378062 0
v -5.87534307659965 2.61318853023732 0
v -5.60739388416852 1.61318853023732 0
v 10.3341129812254 0 10.2670037746429
v 10.3341129812254 0 17
v -10.3489114591464 0 17
v -10.3489114591464 0 10.2670037746429
v 10.5554229996923 6 10.2670037746429
v 10.5554229996923 6 17
v -10.1276014406796 6 17
v -10.1276014406796 6 10.2670037746429
v 6.99930027078083 -0.340358558928972 10.3495058724948
v 8.03700370242808 -0.462119727841611 10.3495058724948
v 8.9965618202852 -0.0487162774908219 10.3495058724948
v 9.62086180158165 0.789080671453662 10.3495058724948
v 9.74262297049429 1.8267841031009 10.3495058724948
v 9.3292195201435 2.78634222095803 10.3495058724948
v 8.49142257119902 3.41064220225448 10.3495058724948
v 7.45371913955178 3.53240337116712 10.3495058724948
v 6.49416102169466 3.11899992081633 10.3495058724948
v 5.8698610403982 2.28120297187185 10.3495058724948
v 5.74809987148556 1.2434995402246 10.3495058724948
v 6.16150332183635 0.283941422367484 10.3495058724948
v 6.16150332183635 0.283941422367484 0
v 5.74809987148556 1.2434995402246 0
v 5.8698610403982 2.28120297187185 0
v 6.49416102169466 3.11899992081633 0
v 7.45371913955178 3.53240337116712 0
v 8.49142257119902 3.41064220225448 0
v 9.3292195201435 2.78634222095803 0
v 9.74262297049429 1.8267841031009 0
v 9.62086180158165 0.789080671453662 0
v 8.9965618202852 -0.0487162774908219 0
v 8.03700370242808 -0.462119727841611 0
v 6.99930027078083 -0.340358558928972 0
v -10.258406610274 -1.22552884559349 0.025
v -4.86082609840505 -1.22552884559349 0.025
v -4.86082609840505 4.17205166627542 0.025
v -10.258406610274 4.17205166627542 0.025
v -10.3108000492256 -0.737139185835232 0.025
v 10.3108000492256 -0.737139185835232 0.025
v 10.3108000492256 5.94999999925494 0.025
v -10.3108000492256 5.94999999925494 0.025
v 10.3108000492256 5.94999999925494 12
v -10.3108000492256 5.94999999925494 12
v 4.84388583254252 -1.22552884559349 0.025
v 10.2414663444114 -1.22552884559349 0.025
v 10.2414663444114 4.17205166627542 0.025
v 4.84388583254252 4.17205166627542 0.025
vt 0.00251309527084231 0.207131654024124
vt 0.0184843130409718 0.0507017150521278
vt 0.0504276640713215 0.0511845126748085
vt 0.176797032356262 0.0530944764614105
vt 0.808643817901611 0.0626443028450012
vt 0.935013175010681 0.0645542740821838
vt 0.966956555843353 0.0650370717048645
vt 0.985385894775391 0.221986949443817
vt 0.539535999298096 0.998605012893677
vt 0.995784521102905 0.987099409103394
vt 0.0275261532515287 0.982486188411713
vt 0.0137688685208559 0.0299559365957975
vt 0.981788754463196 0.0180606544017792
vt 0.00397127633914351 0.944406628608704
vt 0.0023959728423506 0.726815164089203
vt 0.998424708843231 0.782408475875854
vt 1 1
vt 0.124140337109566 0.710606634616852
vt 0.951920807361603 0.70672869682312
vt 0.827780485153198 -0.00387792382389307
vt 0 0
vt -0.00231690751388669 1.00764882564545
vt 1 0
vt 0.997683107852936 1.00764882564545
vt 0.000222900998778641 0.00936396326869726
vt 0.98991060256958 0.000578924547880888
vt 0.998636960983276 0.961694359779358
vt 0.00925041548907757 0.990337729454041
vt 0.000982629600912333 0.995653212070465
vt 0.00154397590085864 0.820513129234314
vt 1.01631689071655 0.820513129234314
vt 1.01575553417206 0.995653212070465
vt 0.019583024084568 0.814053177833557
vt 1.01958298683167 0.814053177833557
vt 0.152617156505585 0.0869383662939072
vt 0.00302689662203193 0.784650146961212
vt 0.919496059417725 0.784650146961212
vt 0.79035872220993 0.0869383662939072
vt 0.918985426425934 0
vt 0.791437089443207 0
vt 0.153695538640022 -3.43798189916811e-09
vt 0.0261472258716822 -5.84881920673297e-10
vt 0.00537528330460191 1.0489616394043
vt 1.00537526607513 1.0489616394043
vt 0.000797599495854229 1.01000273227692
vt 1.00079762935638 1.01000273227692
vt 0.227609127759933 0.985684931278229
vt 0.012936282902956 0.981180131435394
vt 0.0156020643189549 0.910458564758301
vt 0.231188803911209 0.914982616901398
vt 0.0818889662623405 0.992082536220551
vt 0.0815762355923653 0.901880025863647
vt 0.904168009757996 0.901880025863647
vt 0.904480695724487 0.992082536220551
vt 0.0300817470997572 1.21315288543701
vt 0.0226492173969746 0.535738289356232
vt 0.988202095031738 0.535738289356232
vt 0.995634615421295 1.21315288543701
vt 0.604072868824005 0.90478128194809
vt 0.906787097454071 0.900841772556305
vt 0.914679706096649 0.992003321647644
vt 0.611965477466583 0.995942771434784
vt 0.891878068447113 0.901495575904846
vt 0.110684551298618 0.901495575904846
vt 0.113939091563225 0.991645097732544
vt 0.895132601261139 0.991645097732544
vt 0.642418801784515 0.706260859966278
vt 0.529933571815491 0.906301856040955
vt 0.183877438306808 0.911899030208588
vt 0.296362727880478 0.711858034133911
vt 0.486701935529709 0.919538736343384
vt 0.599187195301056 0.719497740268707
vt 0.832758069038391 0.913941621780396
vt 0.945243299007416 0.713900566101074
vt 0.944045662879944 0.368453055620193
vt 0.641221165657043 0.360813349485397
vt 0.830252587795258 0.191287413239479
vt 0.527428090572357 0.183647692203522
vt 0.597989559173584 0.374050229787827
vt 0.484196484088898 0.19688455760479
vt 0.295165061950684 0.366410493850708
vt 0.181372001767159 0.189244851469994
vt 0.239426508545876 0.18419623374939
vt 0.646957278251648 0.182939141988754
vt 0.904641270637512 0.189440041780472
vt 0.754794478416443 0.197198033332825
vt 0.347263664007187 0.19845512509346
vt 0.0895796865224838 0.191954240202904
vt 0.904332101345062 0.100272081792355
vt 0.754485309123993 0.108030073344707
vt 0.346954524517059 0.109287172555923
vt 0.0892705395817757 0.102786272764206
vt 0.239117354154587 0.095028281211853
vt 0.646648168563843 0.0937711820006371
vt -0.00498013291507959 0.00493604224175215
vt 0.0020065859425813 0.0918011963367462
vt 1.00493538379669 0.0869155377149582
vt 0.99794864654541 5.03820810990874e-05
vt 0.00964981596916915 0.00599706871435046
vt 0.0340027250349522 0.0944261848926544
vt 0.995642006397247 0.0861397683620453
vt 0.971289098262787 -0.00228935130871832
vt 0.977924227714539 0.00694319419562817
vt 0.979614317417145 0.0938131138682365
vt 0.343121021986008 0.0864844173192978
vt 0.341430962085724 -0.000385503226425499
vt 0.96896880865097 -0.0021516471169889
vt 0.995940983295441 0.0862516835331917
vt 0.0349849388003349 0.0968922153115273
vt 0.00801281165331602 0.00848887860774994
vt 1 0.767556548118591
vt 0 0.767556548118591
vt 1.00299978256226 0.991957247257233
vt 0.00299981096759439 0.991957247257233
vt 0.0319148004055023 0.0085490345954895
vt 0.0439578592777252 0.0986585393548012
vt 0.951990783214569 0.0902001261711121
vt 0.939947724342346 9.06229979591444e-05
vt 0.94574111700058 0.00684037804603577
vt 0.947066605091095 0.0942187756299973
vt 0.424568086862564 0.0886534228920937
vt 0.423242598772049 0.00127502728719264
vt 0.949673354625702 -2.08981512650475e-11
vt 0.952927947044373 0.0901495590806007
vt 0.00325454445555806 0.0901495590806007
vt 0 -2.08981512650475e-11
vt 0.00300236535258591 0.00272032711654902
vt 0.00282600708305836 0.0945828855037689
vt 0.528251349925995 0.0914092510938644
vt 0.528427720069885 -0.000453305197879672
vt 0.178092837333679 0.179265215992928
vt 0.291967958211899 0.356326967477798
vt 0.62062668800354 0.356326967477798
vt 0.506751537322998 0.179265215992928
vt 0.304431855678558 0.701571881771088
vt 0.633090555667877 0.701571881771088
vt 0.465652048587799 0.179265215992928
vt 0.579527199268341 0.356326967477798
vt 0.591991066932678 0.701571881771088
vt 0.794310748577118 0.179265215992928
vt 0.90818589925766 0.356326967477798
vt 0.920649766921997 0.701571881771088
vt 0.532825231552124 0.901495575904846
vt 0.820384442806244 0.901495575904846
vt 0.491725713014603 0.901495575904846
vt 0.204166516661644 0.901495575904846
vt 0.0909111946821213 0.179265215992928
vt 0.335605412721634 0.179265215992928
vt 0.722630679607391 0.179265215992928
vt 0.864961743354797 0.179265215992928
vt 0.620267570018768 0.179265215992928
vt 0.233242273330688 0.179265215992928
vt 0.719413459300995 0.0901495590806007
vt 0.861744523048401 0.0901495590806007
vt 0.332388192415237 0.0901495590806007
vt 0.0876939743757248 0.0901495590806007
vt 0.230025053024292 0.0901495590806007
vt 0.617050349712372 0.0901495590806007
vt 0 1
vt 1 0.825952649116516
vt 0 0.825952649116516
vt 1 0.180761590600014
vt 1 0.865431070327759
vt -4.22287005363842e-09 0.865431070327759
vt -9.80507897097027e-10 0.180761590600014
vn 0 -1 0
vn 0.0322413505634115 -0.00976943537666155 0.999432365618739
vn 0.473492107384583 -0.00814846537769082 0.880760368520573
vn 0.943360618948893 -0.0324691424515699 -0.330176464038281
vn 0 0 -1
vn 0.999396752036875 -0.0343978271466076 -0.00478764093663415
vn -0.415741010161956 -0.00935066547100316 0.909434977073549
vn -0.943008701701898 -0.0424194808321868 -0.330053292909538
vn -0.998978352300788 -0.044937170771291 -0.00478563657980561
vn 0.999988525604753 0 0.00479047584614614
vn 0 -0.99998852581789 -0.00479043135456928
vn -0.999988525604753 0 -0.00479047584614663
vn -0.624227225215681 -0.779662291165246 -0.049669739625753
vn -0.621914815912335 -0.776774082732915 -0.099216864207473
vn -0.779128383360828 0.623799758361059 -0.0619098030220268
vn -0.77464181786265 0.620207643719359 -0.123582088874278
vn 0.624227225215682 0.779662291165245 0.0496697396257531
vn 0.621914815912337 0.776774082732914 0.0992168642074731
vn 0.779128383360829 -0.623799758361058 0.0619098030220272
vn 0.774641817862651 -0.620207643719358 0.123582088874279
vn 0.77872222763506 -0.623474574669895 -0.0697936023377773
vn 0.773020734036821 -0.618909742474286 -0.139246814755622
vn 0.624016978383675 0.779399692034464 -0.0560261612596422
vn 0.621075008069958 0.775725159392059 -0.111876322057287
vn -0.778722227635059 0.623474574669896 0.0697936023377771
vn -0.773020734036821 0.618909742474287 0.139246814755621
vn -0.624016978383675 -0.779399692034464 0.0560261612596421
vn -0.621075008069958 -0.775725159392059 0.111876322057287
vn 0 0 1
vn 0.988541122669495 -0.150951809500034 0
vn 0.931577629667389 0.363542459560488 0
vn 0.150951809500032 0.988541122669495 0
vn -0.363542459560489 0.931577629667388 0
vn -0.780625820167354 0.624998663109007 0
vn -0.931577629667388 -0.36354245956049 0
vn -0.624998663109005 -0.780625820167355 0
vn -0.150951809500033 -0.988541122669495 0
vn 0.780625820167355 -0.624998663109005 0
vn -1 0 0
vn 0 1 0
vn 1 0 0
vn 0.621075008069958 -0.775725159392059 0.111876322057287
vn 0.624016978383675 -0.779399692034464 0.0560261612596421
vn 0.624227225215681 -0.779662291165246 -0.049669739625753
vn 0.773020734036821 0.618909742474287 0.139246814755621
vn 0.778722227635059 0.623474574669896 0.0697936023377772
vn 0.779128383360828 0.623799758361059 -0.0619098030220268
vn -0.621075008069958 0.775725159392059 -0.111876322057287
vn -0.624016978383675 0.779399692034464 -0.0560261612596423
vn -0.624227225215682 0.779662291165245 0.0496697396257532
vn -0.773020734036822 -0.618909742474286 -0.139246814755621
vn -0.778722227635059 -0.623474574669895 -0.069793602337777
vn -0.779128383360829 -0.623799758361058 0.0619098030220268
vn -0.774641817862651 -0.620207643719358 0.123582088874278
vn -0.621914815912337 0.776774082732914 0.0992168642074734
vn 0.77464181786265 0.620207643719359 -0.123582088874278
vn 0.621914815912335 -0.776774082732915 -0.099216864207473
vn -0.931577629667389 0.363542459560488 0
vn -0.988541122669495 -0.150951809500034 0
vn 0.36354245956049 0.931577629667388 0
vn -0.150951809500032 0.988541122669495 0
vn 0.780625820167354 0.624998663109007 0
vn 0.624998663109005 -0.780625820167355 0
vn 0.931577629667388 -0.36354245956049 0
vn -0.36354245956049 -0.931577629667388 0
vn 0.866025403784439 -0.5 0
vn 0.5 -0.866025403784439 0
vn -0.5 -0.866025403784438 0
vn -0.866025403784438 -0.5 0
vn -0.866025403784439 0.5 0
vn -0.5 0.866025403784438 0
vn 0.5 0.866025403784438 0
vn 0.866025403784439 0.5 0
vn 0.999320441601574 -0.0368599375641908 0
vn -0.999320441601574 0.0368599375641908 0
vn -0.784693313797526 -0.619884185377767 0
vn -0.989506436617335 -0.144488795042606 0
vn -0.929182108840132 0.369622251239567 0
vn -0.619884185377767 0.784693313797525 0
vn -0.144488795042606 0.989506436617335 0
vn 0.369622251239568 0.929182108840131 0
vn 0.784693313797526 0.619884185377767 0
vn 0.989506436617335 0.144488795042606 0
vn 0.929182108840132 -0.369622251239568 0
vn 0.619884185377767 -0.784693313797526 0
vn 0.144488795042606 -0.989506436617335 0
vn -0.369622251239568 -0.929182108840132 0
g romangate_front roman_gate_top
f 1/1/1 2/2/1 3/3/1 4/4/1 5/5/1 6/6/1 7/7/1 8/8/1 9/9/1
f 10/10/2 9/11/2 8/12/3 11/13/3
f 8/14/4 7/15/4 12/16/4 11/17/4
f 13/18/5 12/19/5 7/20/5 6/21/5
f 14/22/6 15/21/6 16/23/6 17/24/6
f 18/25/7 1/26/7 9/27/2 10/28/2
f 18/29/8 19/30/8 2/31/8 1/32/8
f 3/23/5 2/21/5 19/33/5 20/34/5
f 21/35/5 22/36/5 16/37/5 23/38/5
f 16/37/5 15/39/5 24/40/5 23/38/5
f 21/35/5 25/41/5 26/42/5 22/36/5
f 4/21/5 27/43/5 28/44/5 5/23/5
f 29/45/9 22/21/9 26/23/9 30/46/9
f 31/47/10 32/48/10 25/49/10 33/50/10
f 3/51/1 26/52/1 25/53/1 4/54/1
f 27/55/11 34/56/11 35/57/11 28/58/11
f 36/59/12 37/60/12 5/61/12 28/62/12
f 24/63/1 15/64/1 6/65/1 5/66/1
g o17 romangate_left_column
f 38/67/13 39/68/14 40/69/14 41/70/13
f 41/70/15 40/69/16 42/71/16 43/72/15
f 43/72/17 42/71/18 44/73/18 45/74/17
f 45/74/19 44/73/20 39/68/20 38/67/19
f 46/75/21 45/74/19 38/67/19 47/76/21
f 48/77/22 46/75/21 47/76/21 49/78/22
f 50/79/23 43/72/17 45/74/17 46/75/23
f 51/80/24 50/79/23 46/75/23 48/77/24
f 52/81/25 41/70/15 43/72/15 50/79/25
f 53/82/26 52/81/25 50/79/25 51/80/26
f 47/76/27 38/67/13 41/70/13 52/81/27
f 49/78/28 47/76/27 52/81/27 53/82/28
f 54/83/29 55/84/29 56/85/29 57/86/29 58/87/29 59/88/29
f 56/85/30 60/89/30 61/90/31 57/86/31
f 57/86/32 61/90/32 62/91/33 58/87/33
f 58/87/33 62/91/33 63/92/34 59/88/34
f 59/88/35 63/92/35 64/93/36 54/83/36
f 54/83/36 64/93/36 65/94/37 55/84/37
f 55/84/38 65/94/38 60/89/30 56/85/30
f 66/95/39 67/96/39 68/97/39 69/98/39
f 69/99/40 68/100/40 70/101/40 71/102/40
f 71/103/41 70/104/41 72/105/41 73/106/41
f 73/107/1 72/108/1 67/109/1 66/110/1
f 67/21/29 72/23/29 70/111/29 68/112/29
g o18 romangate_right_column
f 74/113/29 75/114/29 76/21/29 77/23/29
f 78/115/1 77/116/1 76/117/1 79/118/1
f 79/119/39 76/120/39 75/121/39 80/122/39
f 80/123/40 75/124/40 74/125/40 81/126/40
f 81/127/41 74/128/41 77/129/41 78/130/41
f 82/131/42 83/132/43 84/133/43 85/134/42
f 83/132/43 86/135/44 87/136/44 84/133/43
f 88/137/45 89/138/46 83/132/46 82/131/45
f 89/138/46 90/139/47 86/135/47 83/132/46
f 91/140/48 92/141/49 89/138/49 88/137/48
f 92/141/49 93/142/50 90/139/50 89/138/49
f 85/134/51 84/133/52 92/141/52 91/140/51
f 84/133/52 87/136/53 93/142/53 92/141/52
f 87/136/53 94/143/54 95/144/54 93/142/53
f 93/142/50 95/144/55 96/145/55 90/139/50
f 90/139/47 96/145/56 97/146/56 86/135/47
f 86/135/44 97/146/57 94/143/57 87/136/44
f 98/147/29 99/148/29 100/149/29 101/150/29 102/151/29 103/152/29
f 100/149/58 104/153/58 105/154/59 101/150/59
f 99/148/60 106/155/60 104/153/61 100/149/61
f 98/147/62 107/156/62 106/155/60 99/148/60
f 103/152/63 108/157/63 107/156/64 98/147/64
f 102/151/65 109/158/65 108/157/63 103/152/63
f 101/150/59 105/154/59 109/158/65 102/151/65
g left_collide collision
f 110//29 111//29 112//29 113//29 114//29 115//29 116//29 117//29 118//29 119//29 120//29 121//29
f 122//66 121//66 120//67 123//67
f 123//67 120//67 119//1 124//1
f 124//1 119//1 118//68 125//68
f 125//68 118//68 117//69 126//69
f 126//69 117//69 116//39 127//39
f 127//39 116//39 115//70 128//70
f 128//70 115//70 114//71 129//71
f 129//71 114//71 113//40 130//40
f 130//40 113//40 112//72 131//72
f 131//72 112//72 111//73 132//73
f 132//73 111//73 110//41 133//41
f 133//41 110//41 121//66 122//66
f 122//5 123//5 124//5 125//5 126//5 127//5 128//5 129//5 130//5 131//5 132//5 133//5
g camera_collisions collision
f 134//1 135//1 136//1 137//1
f 138//74 139//74 135//74 134//74
f 137//75 136//75 140//75 141//75
f 138//40 141//40 140//40 139//40
g right_collide collision
f 142//29 143//29 144//29 145//29 146//29 147//29 148//29 149//29 150//29 151//29 152//29 153//29
f 154//76 153//76 152//77 155//77
f 155//77 152//77 151//78 156//78
f 156//78 151//78 150//79 157//79
f 157//79 150//79 149//80 158//80
f 158//80 149//80 148//81 159//81
f 159//81 148//81 147//82 160//82
f 160//82 147//82 146//83 161//83
f 161//83 146//83 145//84 162//84
f 162//84 145//84 144//85 163//85
f 163//85 144//85 143//86 164//86
f 164//86 143//86 142//87 165//87
f 165//87 142//87 153//76 154//76
f 154//5 155//5 156//5 157//5 158//5 159//5 160//5 161//5 162//5 163//5 164//5 165//5
g o1_2 square_drop_shadow
f 166/21/29 167/23/29 168/17/29 169/159/29
g o1 square_drop_shadow
f 170/21/29 171/23/29 172/160/29 173/161/29
f 172/162/1 174/163/1 175/164/1 173/165/1
g o1_3 square_drop_shadow
f 176/21/29 177/23/29 178/17/29 179/159/29
