v -5.18083647480161 -0.025 -3.34164877263267
v 4.99329954933307 -0.025 -3.57595028213942
v 4.000012455337 -0.025 -2.51215887194856
v -4.00001270564522 -0.025 -2.51215887194856
v -4.00001320626166 -0.025 2.48784067749664
v -5.42774851240824 -0.025 3.47349086771487
v 5.3649581949229 -0.025 3.97036019272692
v 4.00001270564522 -0.025 2.48784042718842
v 4.000012455337 1.84458450657802 -2.51215987318144
v -4.000012455337 1.84458463173213 -2.51215987318144
v 4.00001295595344 1.84458438142391 2.48784042718842
v -4.00001320626166 1.84458450657802 2.48784042718842
v 4.67735951341043 1.07929878935726 2.50982448893093
v -4.67735951341043 1.07929878935726 2.50982448893093
v -4.67735951341043 0.401955110444797 2.509824445127
v 4.67735951341043 0.401955110444797 2.509824445127
v -4.67735951341043 0.401955110444797 2.12615620671745
v 4.67735951341043 0.401955110444797 2.12615620671745
v -4.67735951341043 1.07929891451137 2.12615644763911
v 4.67735951341043 1.07929891451137 2.12615644763911
v -3.64260553351061 0.999792138047106 -3.33517379960989
v -3.64260570872636 0.999792138047106 2.74539381813189
v -3.64260570872636 0.32244833398053 2.74539381813189
v -3.64260570872636 0.32244833398053 -3.33517379960989
v -4.02627389238099 0.32244833398053 2.74539381813189
v -4.02627389238099 0.32244833398053 -3.33517379960989
v -4.02627371716524 0.999792263201215 2.74539406844011
v -4.02627389238099 0.999792263201215 -3.33517379960989
v 4.67735951341043 1.07929878935726 -2.12944938883697
v -4.67735951341043 1.07929878935726 -2.12944938883697
v -4.67735951341043 0.401955110444797 -2.12944943264091
v 4.67735951341043 0.401955110444797 -2.12944943264091
v -4.67735951341043 0.401955110444797 -2.51311767105046
v 4.67735951341043 0.401955110444797 -2.51311767105046
v -4.67735951341043 1.07929891451137 -2.5131174301288
v 4.67735951341043 1.07929891451137 -2.5131174301288
v 4.02219104640159 0.999792138047106 -3.33517379960989
v 4.02219087118584 0.999792138047106 2.74539381813189
v 4.02219087118584 0.32244833398053 2.74539381813189
v 4.02219087118584 0.32244833398053 -3.33517379960989
v 3.63852268753121 0.32244833398053 2.74539381813189
v 3.63852268753121 0.32244833398053 -3.33517379960989
v 3.63852286274697 0.999792263201215 2.74539406844011
v 3.63852268753121 0.999792263201215 -3.33517379960989
v -1.96525994248278 11.4150720631357 -2.42073880092991
v -1.96525994248278 11.4150760680672 2.76150941222984
v -4.23693719498442 5.6623103424633 2.76152443072302
v -4.23693719498442 5.66229432273725 -2.42073880092991
v 2.36772552249938 11.4150720631357 -2.42073880092991
v 2.36772552249938 11.4150680582042 2.76149739743531
v 4.6999313074147 5.662296325203 -2.42073880092991
v 4.6999313074147 5.66228130670983 2.76148137770926
v 6.54500726013985 0.57188019039124 -2.42073880092991
v 6.54500726013985 0.57188019039124 2.76150340483257
v -6.17746268044619 0.487610423971662 2.76150340483257
v -6.17746668537771 0.487610423971662 -2.42073880092991
v -0.440099921439263 5.70947992520069 -2.44060125876599
v -0.517222887574844 5.51716211273914 -2.43689068971969
v -0.45596120238617 5.41117910950828 -2.43729518780245
v -0.378534612380301 5.53207097091074 -2.33596941930415
v -0.172413302844591 5.7324752407124 -2.25373816302442
v -0.156558780219611 5.54586345442324 -2.25876234960681
v -0.086670973169522 5.69568343675668 -2.29294944623011
v -0.333547967625415 5.30831744977495 -2.43846963396848
v -0.193181626127148 5.45510519833702 -2.30552493117926
v -0.265223836022725 5.47624973487353 -2.27573324689089
v -0.014197607365806 5.78321972544112 -2.44027685931348
v 0.0380779501647148 5.58264925098169 -2.43076214327274
v -0.0118094166432779 5.6416388884617 -2.45637167782921
v -0.0578108109201346 5.46703188438115 -2.44222325602854
v -0.196035390138 5.2742334801381 -2.43643412752727
v -0.345551998909377 5.61964280336235 -2.30071600966566
v -0.281735668032188 5.78908044209318 -2.2798733448419
v 0.537278583356402 4.6171173335999 -2.46325014770187
v 0.324691499624978 4.33180451080242 -2.44775506768014
v 0.444840008192488 4.02479797523478 -2.26669011153574
v 0.509207893231409 4.17634157996791 -2.20568399103921
v 0.633749123320492 4.46955362955729 -2.16961457660505
v 0.174181151577807 3.99899770581503 -2.4413331599999
v 0.293737196233955 3.81559336905091 -2.44203402301458
v 0.847098583311547 4.37159801092673 -2.12438788626763
v 0.87803968294399 4.04866536458333 -2.13308159134832
v 1.01443062929969 4.30793011282373 -2.19224344088337
v 0.532634489805367 3.63759118428068 -2.44406652575716
v 0.806568426097159 3.89160797039042 -2.21400523748923
v 0.665973302886242 3.92819852653764 -2.16244975412924
v 1.0707529823924 3.91224738493992 -2.45056252467038
v 1.25788591039462 4.11232325035756 -2.43072810135488
v 0.800999068212634 3.57860855543082 -2.44054418849194
v 2.87913825568252 5.23189935158557 -2.44143628698634
v 2.85374698989348 5.24699594092181 -2.45847326564038
v 2.75020749550166 5.22023198485687 -2.25533713193077
v 2.81306689805559 5.05631063866803 -2.43842457848897
v 2.66800927990691 5.11803614498749 -2.2240496057225
v 2.61199931147217 5.03540439555651 -2.27099140798013
v 2.69660348967304 4.92690229040431 -2.44736458685767
v 2.45766727317349 5.16134997991126 -2.23006401162135
v 2.48139448991911 5.41080414779543 -2.3224928247647
v 2.36056370372222 5.53564186797054 -2.44379519164719
v 2.22461430106576 5.43407229926642 -2.44520192384094
v 2.36316991290395 5.23133916179026 -2.28604594553549
v 2.39936648391363 5.30395107319349 -2.25038002795122
v 2.46432447058009 4.93457273548356 -2.43597456163622
v 2.53871407095842 4.97040235464341 -2.46663331359703
v 2.35260990973846 5.07806542664375 -2.44969545699793
v 2.16250382070466 5.29342811564448 -2.4427649230156
v 2.57298827484211 5.3458696901016 -2.2802898577192
v -3.2830185777559 4.04620883971688 -2.42634370258161
v -1.96923583824178 4.04620883971688 -2.42634370258161
v -1.96923583824178 4.04620883971688 -1.52959047652918
v -3.2830185777559 4.04620883971688 -1.52959047652918
v 0.114165031378037 7.90851122438125 -2.42416201614019
v 0.896104176839192 7.90851122438125 -2.42416201614019
v 0.896104176839192 7.90851122438125 -1.72428922077489
v 0.114165031378037 7.90851122438125 -1.72428821954201
v -0.132088148061998 8.15769806308696 -2.42587212189601
v 0.667256883435988 8.15769806308696 -2.42587212189601
v 0.667256883435988 8.15769806308696 -1.38281173906301
v -0.132088148061998 8.15769806308696 -1.38281173906301
v 1.72832318804082 5.68663028907276 -2.42519528847041
v 2.79191685473825 5.68663028907276 -2.42519528847041
v 2.79191685473825 5.68663028907276 -0.790310656930517
v 1.72832318804082 5.68663028907276 -0.790310656930517
v 1.10696156819662 9.70800404786438 -2.47694000484437
v 2.67104902292487 9.70800404786438 -2.47694000484437
v 2.67104902292487 9.70800404786438 -0.25080282857099
v 1.10696156819662 9.70800404786438 -0.25080282857099
v 2.26683428907019 5.65610670355048 -2.37072321373647
v 2.96913907909644 5.48053651344119 -2.37072321373647
v 2.96913907909644 5.48053651344119 -1.4993692633361
v 2.26683428907019 5.65610670355048 -1.4993692633361
v -0.0817013537789898 7.94720587142183 -2.43004025436762
v 0.29152772558017 7.94720587142183 -2.43004025436762
v 0.187584656117156 7.94720587142183 -1.93210812065545
v -0.175116631615506 7.94720587142183 -1.67268768070251
v -2.94022247234354 5.1546957862033 -2.45607531289729
v -2.40737134077417 5.64472318634273 -2.45607531289729
v -2.40737134077417 5.64472318634273 -1.37250905274719
v -2.94022247234354 5.1546957862033 -1.37250905274719
vt 0.0570899024605751 0.0652456134557724
vt 0.936793923377991 0.0713623911142349
vt 0.878451108932495 0.125498473644257
vt 0.115558952093124 0.127730786800385
vt 0.115515053272247 0.880897223949432
vt 0.053311038762331 0.943209707736969
vt 0.936793744564056 0.946988701820374
vt 0.882229924201965 0.882722318172455
vt 0.628988683223724 0.140673384070396
vt 0.62903881072998 0.869046270847321
vt 0.528475046157837 0.86939412355423
vt 0.528424799442291 0.1410211622715
vt 0.530954778194427 0.142260819673538
vt 0.530699968338013 0.871543228626251
vt 0.630116522312164 0.870060384273529
vt 0.630021452903748 0.142781049013138
vt 0.630801022052765 0.141935378313065
vt 0.630653917789459 0.870463371276855
vt 0.529328227043152 0.871440768241882
vt 0.528979182243347 0.142323285341263
vt 0.629065990447998 0.141087979078293
vt 0.633800625801086 0.871533215045929
vt 0.529642283916473 0.871817409992218
vt 0.5262610912323 0.141368716955185
vt 0.327433049678802 0.140328571200371
vt 0.327432990074158 0.867467224597931
vt 0.428781777620316 0.867467224597931
vt 0.428781807422638 0.140328571200371
vt 0.529639363288879 0.867467224597931
vt 0.529639422893524 0.140328601002693
vt 0.630988001823425 0.867467224597931
vt 0.63098806142807 0.140328601002693
vt 0.333996295928955 0
vt 0.333996295928955 0.988321721553802
vt 0.00769601715728641 0.988321721553802
vt 0.00769601715728641 0
vt 0.666003465652466 0
vt 0.666003465652466 0.988321721553802
vt 0.998010635375977 0
vt 0.998010635375977 0.988321721553802
vt 1 0
vt 1 0.988321721553802
vt 0 0.988321721553802
vt 0 0
vt 0 1
vt 0 2
vt 1 2
vt 1 1
vt 1 0.5
vt 0 0.5
vt 0.666666686534882 0
vt 1 0.333333343267441
vt 0.666666686534882 0.333333343267441
vt 0.333333343267441 0.5
vt 0.55063670873642 0.666666686534882
vt 0.333333343267441 0.666666686534882
vt 1 0.666666686534882
vt 0.666666686534882 0.666666686534882
vt 0.666666686534882 0.5
vt 0 0.666666686534882
vt 0.333333343267441 1
vt 0.666666686534882 1
vt 0.553088366985321 0.333333343267441
vt 0.333333343267441 0.333333343267441
vt 0.333333343267441 0
vt 0 0.333333343267441
vt 0 0.995403945446014
vt 1 0.995403945446014
vn 0 -1 0
vn 0 6.04284707605874e-07 0.999999999999817
vn -0.999999999999991 6.69422348664733e-08 1.12448866218528e-07
vn -1.56442130361256e-08 -4.16352463616931e-08 -0.999999999999999
vn 0.999999999999984 -6.69421638121992e-08 1.68673281564222e-07
vn 0 -5.8062848040663e-08 0.999999999999998
vn 0 3.48377028558368e-07 -0.999999999999939
vn 0.999999999999992 -1.29340344301453e-07 1.39574130031405e-08
vn -0.999999999999992 1.29340324406256e-07 1.39574105162409e-08
vn 0.930108481112937 -0.36728492122786 6.55900175811889e-07
vn 0.933253266810226 -0.359219069632785 4.45275153847908e-07
vn -9.36257151806375e-07 -0.999999999999562 0
vn -0.933607023760741 -0.358298653617706 -5.91789066287703e-07
vn -0.926739436772601 -0.37570469298358 -7.18879424233622e-07
vn -0.940147739440113 -0.340767116995527 -4.49550063105337e-07
vn 0.936328102231544 -0.351126309141673 1.46809823040649e-07
vn -4.14984287996113e-06 2.75395297675134e-08 -0.999999999991389
vn -1.98742691281556e-06 -1.13471983808952e-07 -0.999999999998019
vn 0 0 1
vn -0.590740338770015 0.0403424549395968 0.805852553808285
vn -0.500811004926974 -0.255720955533699 0.826919059065013
vn -0.507767703773891 -0.217509181013488 0.83358365817657
vn 0.102355731740593 0.000127204152917081 0.994747851467371
vn 0.286021141007064 -0.24992408947946 0.925056677395975
vn 0.722917661868844 -0.0493152135357865 0.689172013268098
vn -0.0170032077308499 -0.577880538649806 0.815944222344072
vn 0.0575143787658802 -0.55766952508605 0.828068111344395
vn -0.243901852855668 -0.3191253098723 0.9157897808845
vn 0.908583173031378 0.252590479917554 0.332678023228545
vn 0.84421335240845 -0.0791821261655205 0.530126406162901
vn 0.650507521816486 -0.398823822678091 0.646358663997482
vn 0.499514841500472 -0.486390464352631 0.716874632908426
vn 0.330819127180473 -0.556719715713265 0.761985474420406
vn -0.378278861686524 -0.0786052548595446 0.922348262160023
vn -0.226243601236364 -0.0109962309259111 0.974008683639435
vn -0.726016018844282 0.326084543377069 0.60544992439678
vn -0.649013152849012 0.187991571854674 0.737184574133639
vn -0.554621521231529 -0.0843409395924753 0.827817355517196
vn -0.495277480680067 0.0589673538529586 0.866731254952067
vn -0.497920484505109 0.169076542637288 0.850581162406045
vn -0.544522839560002 0.0419365321576078 0.837696964580931
vn -0.457893962236076 -0.259150353002414 0.850396503924182
vn 0.0929444829852048 0.000209444811345168 0.995671270658888
vn 0.260594551039829 -0.253254486673476 0.931639761360637
vn 0.511488984601038 -0.211347629000893 0.83289326948145
vn -0.0154743742184128 -0.577879635450253 0.815975288029258
vn 0.199813509245138 -0.540383840641933 0.817349292711639
vn -0.219759402800732 -0.320620241605194 0.921362287894231
vn 0.458022056793868 -0.49859326945469 0.735948739481764
vn 0.604819450750827 -0.418181550508566 0.677729756472091
vn 0.296840450458688 -0.563346727168261 0.771055258694403
vn 0.819844196065568 -0.115948341208845 0.560724064356543
vn 0.565850705249453 -0.157757274043385 0.809274750535995
vn 0.733518017903195 -0.333766585764311 0.592073630251004
vn 0.267634764417687 -0.524490525298329 0.808258202400305
vn 0.178247816607721 -0.715170499242823 0.675839383942185
vn 0.321791078799576 -0.806348150507658 0.496239016783127
vn -0.330864614824202 -0.243970459533351 0.911595865245295
vn -0.433958190523736 0.464490488049481 0.771964296706085
vn -0.578921720703661 0.120610889734483 0.806413451385187
vn -0.579059904409786 0.0379409467968989 0.814401689377597
vn -0.339185527032826 0.20928705789882 0.91714344878406
vn -0.311332334849768 -0.811665526579825 0.49423805017308
vn -0.015555469150499 -0.947117914417153 0.320508476595566
vn -0.564763087263831 -0.565816439787484 0.600744880735944
vn -0.613578535698495 -0.409628376398533 0.67507479124849
vn -0.64257313758731 -0.240208983284621 0.727598383176165
vn 0.0571713368168594 0.23536598480826 0.970223835741944
vn 0.0571714542235544 0.235366387229009 0.970223731200556
vn -0.242527630993484 -0.97014449862105 0
vn 0.676910141286266 -0.736065663255533 0
g WindowFrame window
f 1/1/1 2/2/1 3/3/1 4/4/1
f 1/1/1 4/4/1 5/5/1 6/6/1
f 3/3/1 2/2/1 7/7/1 8/8/1
f 5/5/1 8/8/1 7/7/1 6/6/1
f 4/9/2 3/10/2 9/11/2 10/12/2
f 3/13/3 8/14/3 11/15/3 9/16/3
f 8/17/4 5/18/4 12/19/4 11/20/4
f 5/21/5 4/22/5 10/23/5 12/24/5
g windowBar window
f 13/25/6 14/26/6 15/27/6 16/28/6
f 16/28/1 15/27/1 17/29/1 18/30/1
f 18/30/7 17/29/7 19/31/7 20/32/7
g windowBar1 window
f 21/25/8 22/26/8 23/27/8 24/28/8
f 24/28/1 23/27/1 25/29/1 26/30/1
f 26/30/9 25/29/9 27/31/9 28/32/9
g windowBar2 window
f 29/25/6 30/26/6 31/27/6 32/28/6
f 32/28/1 31/27/1 33/29/1 34/30/1
f 34/30/7 33/29/7 35/31/7 36/32/7
g windowBar3 window
f 37/25/8 38/26/8 39/27/8 40/28/8
f 40/28/1 39/27/1 41/29/1 42/30/1
f 42/30/9 41/29/9 43/31/9 44/32/9
g WesternBgBox outside
f 45/33/10 46/34/10 47/35/11 48/36/11
f 49/37/12 50/38/12 46/34/12 45/33/12
f 51/39/13 52/40/13 50/38/14 49/37/14
f 53/41/15 54/42/15 52/43/13 51/44/13
f 48/41/11 47/42/11 55/43/16 56/44/16
f 50/45/17 52/46/17 47/47/17 46/48/17
f 52/45/18 54/46/18 55/47/18 47/48/18
f 51/49/19 49/48/19 45/45/19 48/50/19
f 53/41/19 51/49/19 48/50/19 56/44/19
g WesternRocks outside
f 57/51/20 58/41/20 59/52/21 60/53/22
f 61/54/23 62/55/24 63/56/25
f 60/53/22 59/52/21 64/57/26 65/58/27 66/59/28
f 67/60/29 63/56/25 68/61/30 69/45/29
f 63/56/25 62/55/24 65/58/31 70/62/32 68/61/30
f 65/58/27 64/57/26 71/48/33 70/62/32
f 62/55/24 66/59/28 65/58/27
f 72/63/34 60/53/22 66/59/28
f 73/64/35 72/63/34 66/59/28 62/55/24 61/54/23
f 74/65/36 75/51/37 76/53/38 77/63/39 78/64/40
f 75/51/37 79/41/41 80/52/42 76/53/38
f 81/54/43 82/55/44 83/56/45
f 76/53/38 80/52/42 84/57/46 85/58/47 86/59/48
f 83/56/45 82/55/44 85/58/47 87/62/49 88/61/50
f 85/58/47 84/57/46 89/48/51 87/62/49
f 82/55/44 86/59/48 85/58/47
f 77/63/39 76/53/38 86/59/48
f 78/64/40 77/63/39 86/59/48 82/55/44 81/54/43
f 90/44/52 91/65/52 92/64/53 93/66/54
f 93/66/54 92/64/53 94/54/55 95/56/56 96/60/57
f 94/54/55 97/55/58 95/56/56
f 98/53/59 99/52/59 100/57/60 101/58/61 102/59/62
f 96/60/57 95/56/56 103/61/63 104/45/64
f 95/56/65 97/55/58 101/58/65 105/62/66 103/61/63
f 101/58/61 100/57/60 106/48/67 105/62/66
f 97/55/58 102/59/62 101/58/61
f 92/64/53 107/63/68 102/59/62 97/55/58 94/54/69
g WesternCactus2 outside
f 108/41/1 109/44/1 110/67/1 111/68/1
g WesternCactus3 outside
f 112/41/1 113/44/1 114/67/1 115/68/1
g WesternCactus4 outside
f 116/41/1 117/44/1 118/67/1 119/68/1
g WesternCactus1 outside
f 120/41/1 121/44/1 122/67/1 123/68/1
g WesternCactus5 outside
f 124/44/1 125/41/1 126/68/1 127/67/1
g WesternCBrush1 outside
f 128/44/70 129/41/70 130/68/70 131/67/70
g WesternCBrush2 outside
f 132/44/1 133/41/1 134/68/1 135/67/1
g WesternCBrush3 outside
f 136/44/71 137/41/71 138/68/71 139/67/71
