v 26.7711915115998 -1.06050989606886 -18.5825882408694
v 26.7712365982675 -1.06052404649437 -18.5826763712125
v 26.7713206845474 -1.06055043692642 -18.5826291161371
v 26.7712755978797 -1.06053628650091 -18.5825409857941
v 26.7713506293206 -1.06045502565838 -18.5826291161371
v 26.7713055426529 -1.06044087523287 -18.5825409857941
v 26.7712665430407 -1.06042863522633 -18.5826763712125
v 26.7712214563731 -1.06041448480083 -18.5825882408694
vn -0.299447739913246 -0.954112703542327 0
vn 0.840862819291107 -0.263904326898664 0.47255076486868
vn 0.299447739913246 0.954112703542327 0
vn -0.840862819291107 0.263904326898664 -0.47255076486868
vn 0.450866687829851 -0.141504258534202 -0.881303452065193
vn -0.450866687829851 0.141504258534202 0.881303452065193
g pCube1 camera1 flyover windmillTest
f 1//1 2//1 3//1 4//1
f 4//2 3//2 5//2 6//2
f 6//3 5//3 7//3 8//3
f 8//4 7//4 2//4 1//4
f 2//5 7//5 5//5 3//5
f 8//6 1//6 4//6 6//6
