v -4.10625102326 0 1.09793845749903
v 3.39341851982858 0 1.09793845749903
v 3.39341851982858 0 9.62719454227157
v -4.10625102326 0 9.62719454227157
v 0.485405834328158 0.204486202380163 0.00125016440243859
v 0.0281855268428332 0.51549213139091 0.00125016440243859
v 0.00893308675977502 0.746763034129706 0.83900486703307
v 0.675269374697227 0.293514547072683 0.83900486703307
v -0.408887456408323 0.176755681125511 0.00125016440243859
v -0.628041094682348 0.253100970911542 0.83900486703307
v -0.221792731698104 -0.343600627318455 0.00125016440243859
v -0.355376283640624 -0.505247328850854 0.83900486703307
v 0.33091090795562 -0.326462305124038 0.00125016440243859
v 0.450113845935331 -0.48027035445366 0.83900486703307
v 0.797836486435938 0.33758362447183 1.12836717620609
v 0.00489628983764198 0.876949152608556 1.12836717620609
v -0.753102840713942 0.28949159336841 1.12836717620609
v -0.428631956495951 -0.612943003496786 1.12836717620609
v 0.529901249202218 -0.583220341699956 1.12836717620609
v 0.00610033886169824 0.838121842211626 0.879144042808553
v 0.761281474055893 0.324440284038153 0.879144042808553
v -0.715803787151347 0.278638260258151 0.879144042808553
v -0.406783772265817 -0.580823327612689 0.879144042808553
v 0.506105072542125 -0.552516033643187 0.879144042808553
v -3.09224366515953 -3.09224366515953 0.0192979600016526
v 3.09224366515953 -3.09224366515953 0.0192979600016526
v 3.09224366515953 3.09224366515953 0.0192979600016526
v -3.09224366515953 3.09224366515953 0.0192979600016526
v 1.74878350705925 3.02898001483106 6.47073850902519e-08
v -1.74878188005583 3.02898076575572 6.47073850902519e-08
v -1.74878188005583 3.02898076575572 9.78369424975137
v 1.74878350705925 3.02898001483106 9.78369424975137
v -3.49756526196097 5.55588769508138e-07 6.47073850902519e-08
v -3.49756526196097 5.55588769508138e-07 9.78369424975137
v -1.74878275613459 -3.02898001483106 6.47073850902519e-08
v -1.74878275613459 -3.02898001483106 9.78369424975137
v 1.74878225551815 -3.02898001483106 6.47073850902519e-08
v 1.74878225551815 -3.02898001483106 9.78369424975137
v 3.49756476134453 0 6.47073850902519e-08
v 3.49756476134453 0 9.78369424975137
v 0 0 6.47073850902519e-08
v 0 0 9.78369424975137
v -0.0013604251731412 3.4763135935065 -0.108668145545199
v 0.00136017486492167 3.4763135935065 -0.108668145545199
v 0.00136017486492167 3.47903444385278 -0.108668145545199
v -0.0013604251731412 3.47903444385278 -0.108668145545199
v -3.47903494446922 -0.00136067548136073 -0.108668145545199
v -3.47631409412294 -0.00136067548136073 -0.108668145545199
v -3.47631409412294 0.00136017486492167 -0.108668145545199
v -3.47903494446922 0.00136017486492167 -0.108668145545199
v -0.0013604251731412 -3.47903494446922 -0.108668145545199
v 0.00136017486492167 -3.47903494446922 -0.108668145545199
v 0.00136017486492167 -3.47631409412294 -0.108668145545199
v -0.0013604251731412 -3.47631409412294 -0.108668145545199
v 3.47631409412294 -0.00136067548136073 -0.108668145545199
v 3.47903544508566 -0.00136067548136073 -0.108668145545199
v 3.47903544508566 0.00136017486492167 -0.108668145545199
v 3.47631409412294 0.00136017486492167 -0.108668145545199
vt 0.012507826089859 0.0124820126220584
vt 0.987492203712463 0.0124820126220584
vt 0.987492203712463 0.985454201698303
vt 0.012507826089859 0.985454201698303
vt 0.797355473041534 0.0128352651372552
vt 0.987457931041718 0.0128352651372552
vt 0.987457990646362 0.722480952739716
vt 0.797355532646179 0.722480952739716
vt 0.0151536585763097 0.0128352651372552
vt 0.191478252410889 0.0128352651372552
vt 0.191478282213211 0.722480952739716
vt 0.0151536297053099 0.722480952739716
vt 0.37955567240715 0.0128352651372552
vt 0.379555642604828 0.722480952739716
vt 0.588455557823181 0.0128352651372552
vt 0.588455557823181 0.722480952739716
vt 0.995248258113861 0.702131748199463
vt 0.483983844518661 1.06414830684662
vt -0.0047517167404294 0.66985297203064
vt 0.204457610845566 0.0641482472419739
vt 0.822491586208344 0.0840977430343628
vt 0.987457931041718 0.771725296974182
vt 0.797355532646179 0.771725296974182
vt 0.191478252410889 0.771725296974182
vt 0.0151537070050836 0.771725296974182
vt 0.379555612802505 0.771725296974182
vt 0.588455557823181 0.771725296974182
vt 0.987457931041718 0.987164735794067
vt 0.797355473041534 0.987164735794067
vt 0.191478252410889 0.987164735794067
vt 0.0151536967605352 0.987164735794067
vt 0.379555642604828 0.987164735794067
vt 0.588455557823181 0.987164735794067
vt 0 0
vt 1 0
vt 1 1
vt 0 1
vn 0 -1 0
vn 0.549825717837279 0.808317765642911 -0.210509072846688
vn 0.450182383107796 0.661828609344443 -0.599431992633514
vn -0.596691850840029 0.769913857366345 -0.226255358779358
vn -0.487344164025655 0.628822178156367 -0.605869898615881
vn -0.919935456590272 -0.330763732824908 -0.210509165491153
vn -0.753218449455899 -0.270820401270785 -0.599431628840839
vn 0.0304602617067214 -0.982325642002268 -0.184684881681177
vn 0.0250505275198386 -0.807863740985495 -0.588836689644845
vn 0.943660036480195 -0.274585532273694 -0.184684923629864
vn 0.776065103344896 -0.225818959327368 -0.588836779573576
vn 0 -2.07605790336629e-08 1
vn 0.21170445334797 0.631001688446546 -0.746336447997983
vn 0.509114843705129 0.428700181803452 -0.746336539398138
vn -0.534698095300283 0.396333308447017 -0.746336288477045
vn -0.542166211557883 -0.386054304300535 -0.746336300320441
vn 0.199620845011693 -0.634927905626661 -0.74633643411893
vn 0.558009487396847 0.820349368996355 -0.125109251306171
vn -0.607763951309023 0.784200598204344 -0.125109557049781
vn -0.933628425851107 -0.335686700033213 -0.125109559441295
vn 0.0307500451298655 -0.991666303345153 -0.125109462209179
vn 0.952632987790689 -0.277196796885455 -0.125109257728709
vn 0 0 1
vn 2.45748822180751e-07 0.99999999999997 0
vn -0.866025307568653 0.500000166650592 0
vn -0.866025440609259 -0.499999936217534 0
vn 0.499999991541222 -0.866025408668117 0
vn 0.999999999999988 -1.54945883588886e-07 0
vn 0.86602553493547 0.499999772839681 0
vn 0 0 -1
vn 0 1.98443927956756e-07 0.99999999999998
vn 0 3.30739595710838e-08 1
vn 0 9.92219497675246e-08 0.999999999999995
vn 0 -9.92219781892341e-08 0.999999999999995
vn 0 -1.98443999011029e-07 0.99999999999998
g winterTree1 seqNode_winterTree winterTree
f 1/1/1 2/2/1 3/3/1 4/4/1
g winterTree2 seqNode_winterTree winterTree
f 1/1/1 2/2/1 3/3/1 4/4/1
g pot winterTree
f 5/5/2 6/6/2 7/7/3 8/8/3
f 6/9/4 9/10/4 10/11/5 7/12/5
f 9/10/6 11/13/6 12/14/7 10/11/7
f 11/13/8 13/15/8 14/16/9 12/14/9
f 13/15/10 5/5/10 8/8/11 14/16/11
f 15/17/12 16/18/12 17/19/12 18/20/12 19/21/12
f 8/8/3 7/7/3 20/22/13 21/23/14
f 7/12/5 10/11/5 22/24/15 20/25/13
f 10/11/7 12/14/7 23/26/16 22/24/15
f 12/14/9 14/16/9 24/27/17 23/26/16
f 14/16/11 8/8/11 21/23/14 24/27/17
f 21/23/14 20/22/13 16/28/18 15/29/18
f 20/25/19 22/24/15 17/30/19 16/31/19
f 22/24/20 23/26/16 18/32/20 17/30/20
f 23/26/21 24/27/17 19/33/21 18/32/21
f 24/27/22 21/23/22 15/29/22 19/33/22
g shadow1 winterTree
f 25/34/23 26/35/23 27/36/23 28/37/23
g collision winterTree
f 29//24 30//24 31//24 32//24
f 30//25 33//25 34//25 31//25
f 33//26 35//26 36//26 34//26
f 35//1 37//27 38//27 36//1
f 37//27 39//28 40//28 38//27
f 39//28 29//29 32//29 40//28
f 30//30 29//30 41//30
f 33//30 30//30 41//30
f 35//30 33//30 41//30
f 37//30 35//30 41//30
f 39//30 37//30 41//30
f 29//30 39//30 41//30
f 32//23 31//31 42//32
f 31//31 34//31 42//32
f 34//31 36//33 42//32
f 36//33 38//34 42//32
f 38//34 40//35 42//32
f 40//35 32//23 42//32
g position1 winterTree
f 43//23 44//23 45//23 46//23
g position2 winterTree
f 47//23 48//23 49//23 50//23
g position3 winterTree
f 51//23 52//23 53//23 54//23
g position4 winterTree
f 55//23 56//23 57//23 58//23
