v 3.89314586409121 4.1580326076347 0.0613222597937968
v -0.0317991562089895 4.17896705215003 0.0426857329883561
v -0.0495329929461942 4.18058519568018 2.11681652347104
v 3.875412027354 4.15943547369774 2.14093359297298
v -3.95674417650919 4.19987734292739 0.0241064258562842
v -3.97449403297244 4.20167818160344 2.0926893448803
v -0.0672828494094488 4.18103538892427 4.32864139642887
v 3.85766217089075 4.15989070387434 4.35357220632891
v -3.99222786970965 4.20219720492916 4.30378936805079
v -4.19832164534121 4.20553181546659 30.065977835862
v -0.273376625041011 4.18442783971023 30.0896697780245
v -0.255642788303806 4.18387677162174 27.8800353750063
v -4.180587808604 4.20495340009603 27.8574645677871
v 3.65155237553314 4.16332071460205 30.1133656116218
v 3.66930223199639 4.16281144461005 27.9025985839764
v -4.02362653276739 4.20021342452668 8.29564582265678
v -0.0986654927411417 4.17942141432079 8.31055848031744
v 3.82627952755906 4.15863899986683 8.32545546146648
v -0.130064155798885 4.18219600390173 12.173447774373
v 3.79488086450131 4.1610220623847 12.1985197764486
v -4.05500917609908 4.2033570120937 12.1483732911803
v -4.08640783915682 4.20227625232885 16.1155157842366
v -0.161462818856627 4.18135118922222 16.1341967414861
v 3.76349822116962 4.16042127105308 16.1528735119079
v -0.19284546218832 4.18280992228824 20.0325252845787
v 3.73209955811188 4.16173240311765 20.0553645719949
v -4.11780650221457 4.20389588896253 20.009674285934
v -4.14918914554626 4.20324648205946 23.9657254741681
v -0.224244125246063 4.18234405703514 23.9838201449923
v 3.70070089505413 4.16140968820174 24.0019116331413
v -3.9853393875082 0.331605018141754 -0.00413051493642398
v -4.00307322424541 0.324396161563292 2.09680035739025
v -4.01393459850722 -3.64340325065514 -0.0359377078516692
v -4.03166843524442 -3.64443324323775 2.09753693572441
v -4.02079104125656 0.316528130825346 4.31216360426553
v -4.04940227198163 -3.64428178026233 4.31755846741786
v -4.25549604761319 -3.64084009611774 30.0658703641466
v -4.22690083661417 0.225038249339053 30.0637992151144
v -4.20916699987697 0.232889294984784 27.8488962220628
v -4.23777823060203 -3.64091070926239 27.8439702208173
v -4.08080093503937 -3.64198773133836 8.19158233723086
v -4.05220572404035 0.302252450032219 8.24446551330649
v -4.08358836737205 0.28866255098071 12.156718372765
v -4.11219959809711 -3.64332991284333 12.1644240912613
v -4.14359826115486 -3.64168620247112 16.0559754981111
v -4.11498703042979 0.274492574956096 16.0855315090086
v -4.14638569348753 0.260736383116692 20.0037837067273
v -4.17498090448655 -3.64194387277717 19.9993889674845
v -4.20637956754429 -3.64058820741446 23.8987456788543
v -4.17778435654528 0.24659450189157 23.9309667630839
v -0.088989578207021 -3.66432593868693 -0.0173007471878947
v -0.106723414944226 -3.66554594480393 2.12165537141855
v 3.83595544209318 -3.68524423387861 0.00127826455126904
v 3.81822160535597 -3.6866603401492 2.14578576757904
v -0.12445725168143 -3.66541170717335 4.34248982194857
v 3.80048776861877 -3.68657677497156 4.36734173032329
v 3.59437797326115 -3.68304622281659 30.1132523119851
v -0.330567047039042 -3.66193661299062 30.0895705968852
v -0.312833210301837 -3.66196781031507 27.8665277218696
v 3.61212782972441 -3.6830346834094 27.8890988890989
v 3.76908910556102 -3.68354773850716 8.22140853873092
v -0.155855914739173 -3.66276298230175 8.20649561337042
v -0.187254577796916 -3.66447937776559 12.1894979985295
v 3.73770646222933 -3.68564031210934 12.2145704806186
v 3.70630779917159 -3.68351224159318 16.0933362976852
v -0.218637221128609 -3.66260118621161 16.0746548234981
v -0.250035884186352 -3.66301020958835 20.0222306714005
v 3.67490913611385 -3.68409002525543 20.0450778893828
v 3.6435104730561 -3.68237990259338 23.934931498309
v -0.281434547244095 -3.66148923405259 23.9168363936265
v 3.86455065309219 0.293770914077868 0.033602030844645
v 3.84681681635499 0.286159367635028 2.14520045404775
v 3.82905094016568 0.278246451577955 4.36188857919051
v 3.62297318426017 0.186803381815978 30.1113597785719
v 3.64070702099738 0.194735391240462 27.8941814199758
v 3.79766829683399 0.264740007174202 8.27443206787959
v 3.7662856535023 0.250398920356685 12.2070131011475
v 3.73488699044455 0.236700834502751 16.1230391855048
v 3.70348832738681 0.222637138646021 20.0496239785373
v 3.67210568405512 0.208847775533321 23.9672818187696
v -4.61986071168594 4.27929995950113 -0.223392576683225
v -4.61986071168594 -3.73344611550579 -0.223392576683225
v -4.61986071168594 -3.73344611550579 30.2999821860646
v -4.61986071168594 4.27929995950113 30.2999821860646
v 4.60053691713829 -3.73344611550579 -0.223392576683225
v 4.60053691713829 -3.73344611550579 30.2999821860646
v 4.60053691713829 4.27929995950113 -0.223392576683225
v 4.60053691713829 4.27929995950113 30.2999821860646
v -6.11907328207662 -5.60159013731992 0.214445233964688
v 6.3708783447586 -5.60158863547151 0.21444523231304
v 6.3708783447586 6.20441667672365 0.201461657684715
v -6.11907328207662 6.20441467425911 0.201461659886912
vt 0.998006999492645 -1.09497785568237
vt -0.00375539064407349 -1.09497809410095
vt -0.00375539064407349 -0.539864659309387
vt 0.998006999492645 -0.539864540100098
vt -1.00186812877655 -1.09497809410095
vt -1.00186812877655 -0.539864659309387
vt -0.00375539064407349 0.00656276848167181
vt 0.998006999492645 0.00656276848167181
vt -1.00186812877655 0.00656276848167181
vt 0.00470730662345886 0.00656276848167181
vt 0.00470730662345886 -0.60105037689209
vt 0.998006999492645 -0.60105037689209
vt -1.00186812877655 -0.60105037689209
vt 0 0.00656276848167181
vt 0 0.990654170513153
vt 0.998006999492645 0.990654170513153
vt 0 0
vt 1 0
vt 1 1
vt 0 1
vn 0.00536477099151624 0.999985377302753 -0.000681478450486296
vn 0.00535988251267717 0.999985368943375 -0.000730450979643633
vn 0.00537315427085722 0.999985463449004 -0.000449559632104814
vn 0.00537685776169616 0.999985455789628 -0.000421437800577951
vn 0.00535499384695136 0.999985358163347 -0.00077942274954438
vn 0.00536945001925412 0.999985470307551 -0.000477682192832364
vn 0.00536340095326892 0.99998560711991 0.000139582377299469
vn 0.00536390846368329 0.999985606878295 0.000120508265515321
vn 0.00536289344089365 0.999985606997451 0.000158656489340848
vn 0.00537460228501417 0.999985534140217 -0.000212510196020903
vn 0.00537396306745782 0.99998553922208 -0.000204615920118237
vn 0.00536240334431444 0.999985583337909 -0.000278830980005751
vn 0.0053620774392931 0.999985581131645 -0.00029266762858698
vn 0.00537332402409561 0.999985544239409 -0.000196726064885776
vn 0.00536272924830826 0.999985585352616 -0.000264994331383626
vn 0.00534496604188812 0.99998570893944 -0.000115129909212743
vn 0.00534421287568487 0.999985713232277 -0.00011278330325276
vn 0.00534345970948949 0.99998571751904 -0.000110436697417752
vn 0.00535447716447997 0.999985642828154 -0.000209073810093753
vn 0.00535510585137273 0.999985641505049 -0.000199060433985737
vn 0.00535384847702481 0.999985644050598 -0.000219087186553499
vn 0.00535663165940937 0.999985652591784 -3.328437432871e-05
vn 0.00535711194468862 0.999985649837598 -3.8346954891278e-05
vn 0.00535759222982228 0.999985647057552 -4.34095353785038e-05
vn 0.00535135869370718 0.999985677807386 -8.44999092027365e-05
vn 0.00535199599995319 0.999985674371513 -8.47972138068211e-05
vn 0.00535072138745213 0.999985681242764 -8.42026045956287e-05
vn 0.00534872499425996 0.999985690987002 -9.46688141157259e-05
vn 0.00535013566127726 0.999985683404554 -9.50491129522182e-05
vn 0.00535154632826845 0.999985675819971 -9.54294117845491e-05
vn 0.00535201018498366 0.999985622352184 -0.000333280504829822
vn -0.999936436081391 0.00740758206357672 -0.0085000896947232
vn -0.999937670635057 0.00731959614743579 -0.00843079813393887
vn -0.99993966587365 0.00729861691562155 -0.00820943381800583
vn -0.99993876733077 0.00737759671607125 -0.00824819105711071
vn -0.999938892655251 0.00723160905193718 -0.00836150619871967
vn -0.999940556677012 0.00721963754950842 -0.00817067598930678
vn -0.999941611669662 0.00727763781715334 -0.00798806855768261
vn -0.999941237859806 0.00736602081489272 -0.00795377676030132
vn -0.999942184141833 0.00720766531834738 -0.00797984550720478
vn -0.999940848990669 0.00739381691257609 -0.00797684093376243
vn -0.999941452608793 0.00729582550626872 -0.0079913881646755
vn -0.999942046416405 0.00719783356251423 -0.00800593533443487
vn -0.99994118637051 0.00728454087398496 -0.00803487798244053
vn -0.999941686362874 0.0072461028510414 -0.00800736331406804
vn -0.999941464267719 0.00730606184872381 -0.00798057005439428
vn -0.9999411692101 0.00733431410246432 -0.00799161782017005
vn -0.999940887869177 0.00737219058620147 -0.0079919693044017
vn -0.999941233114476 0.00732278819566766 -0.00799419104989481
vn -0.999941053065617 0.00733486908361409 -0.00800562861685482
vn -0.999941449116277 0.00729643760829147 -0.0079912663244726
vn -0.999941412886553 0.00731070730571784 -0.00798275348074433
vn -0.99994111525658 0.00731307834049232 -0.00801778676518942
vn -0.999941312693583 0.00731790576950206 -0.0079887060142506
vn -0.999941464895138 0.00730394510187027 -0.00798242878548188
vn -0.999941156379568 0.00729810631958905 -0.00802629568604674
vn -0.999941160257716 0.00733186643541148 -0.00799498324114392
vn -0.99994120454785 0.00735065036856579 -0.00797216322924639
vn -0.999941241423042 0.00732638790465128 -0.00798985241519914
vn -0.99994068571447 0.00737886323821318 -0.00801108171145011
vn -0.999941216212837 0.00733000859419332 -0.00798968665229596
vn -0.999941690964575 0.00726621144012484 -0.00798854443643612
vn -0.99994153614969 0.00728801449234281 -0.00798806155189818
vn -0.999941465823289 0.00725449497060327 -0.00802728035478046
vn -0.999941756788616 0.00722616090587563 -0.00801658462556103
vn -0.999940788725865 0.00740874009868584 -0.00797054655878195
vn -0.99994129171209 0.00731372294448979 -0.00799516015151834
vn -0.00535169982894995 -0.999985516502101 -0.000571047253772209
vn -0.00535130961333968 -0.999985492288085 -0.000615385065945082
vn -0.00536746598979387 -0.999985549795917 -0.000300845818817582
vn -0.00536652772222504 -0.999985562315127 -0.00027484815033272
vn -0.00535091985213426 -0.99998546610807 -0.000659719154115727
vn -0.00536840425371563 -0.999985536599957 -0.000326843486694862
vn -0.0053640003202473 -0.999985559614749 0.000328728675444779
vn -0.00536130848929784 -0.999985580532163 0.000308381316175737
vn -0.00536669214898458 -0.999985538276079 0.00034907603493414
vn -0.00537254014125201 -0.99998556706185 -3.84762347295707e-05
vn -0.00537117276529594 -0.999985574721001 -2.92067482911391e-05
vn -0.00535762789553435 -0.999985643099652 -9.70459070432152e-05
vn -0.00535824759861328 -0.999985638200224 -0.000112142597281148
vn -0.00536980538896742 -0.99998558229236 -1.99372625219506e-05
vn -0.00535700819123281 -0.999985647770789 -8.19492167953979e-05
vn -0.00534408616515444 -0.999985716547798 8.62754110688092e-05
vn -0.00534199654803581 -0.999985727792666 8.53454932602397e-05
vn -0.00533990693099993 -0.999985739032302 8.44155755004863e-05
vn -0.00535055108190941 -0.99998568557145 -1.59786583243252e-05
vn -0.00534967622614438 -0.999985690343702 -8.49148650708447e-06
vn -0.00535142593740161 -0.999985680742375 -2.34658304076467e-05
vn -0.00535518934443254 -0.999985649226845 0.000152602262983713
vn -0.00535460793057707 -0.999985653188041 0.000146942155747838
vn -0.0053540265165571 -0.999985657116862 0.000141282048593344
vn -0.00534796963987921 -0.999985694421634 0.000100860362779339
vn -0.00534755686962473 -0.99998569676724 9.94809744137572e-05
vn -0.00534838241012703 -0.999985692073956 0.000102239751159485
vn -0.00534621566962641 -0.999985704558623 9.3039824597064e-05
vn -0.00534613199036626 -0.999985705099978 9.20241314119855e-05
vn -0.00534604831110151 -0.999985705640295 9.10084382382672e-05
vn 0.999939308064254 -0.00722486549794438 0.00831754209599268
vn 0.999938054281389 -0.00732065565517972 0.00838424717722957
vn 0.999939818232877 -0.00729977694505256 0.00818982105745007
vn 0.999940785466121 -0.00720964984614219 0.00815147290327295
vn 0.99993678688315 -0.00741644471131371 0.00845095175974216
vn 0.999938841405761 -0.00738990388658053 0.00822816921623321
vn 0.999941543942975 -0.00727889832563717 0.00799539468096932
vn 0.999942235053365 -0.00719443385258028 0.00798540406126613
vn 0.999940845591474 -0.00736336317829774 0.00800538571917859
vn 0.999942022013386 -0.00720671877251425 0.00800098845859921
vn 0.999941485863298 -0.00729458318029617 0.00798836064069111
vn 0.999940941833586 -0.00738244694391812 0.00797573332569027
vn 0.99994122082769 -0.00729979339644452 0.00801672663863598
vn 0.999940936986706 -0.00738293294073473 0.007975891131501
vn 0.999940797354283 -0.00738786941455097 0.00798881543128917
vn 0.999941149406675 -0.0073218366388381 0.00800552506040312
vn 0.999941381530831 -0.00727781476939066 0.00801666479253595
vn 0.999941405288736 -0.00724436699874232 0.00804395027187029
vn 0.999941245473152 -0.0073173688054616 0.00799760685250855
vn 0.999941393852503 -0.00729677714566736 0.00799786869104844
vn 0.999940565422977 -0.00737323852251889 0.0080312499193298
vn 0.99994102210897 -0.0073482562892931 0.00799721408833955
vn 0.99994147727912 -0.0073232742279488 0.00796314456941236
vn 0.999941008759692 -0.00729777690538164 0.00804496444297877
vn 0.999941425449212 -0.00733716720069125 0.00795686169718068
vn 0.999940881853227 -0.00735874105169626 0.00800510641557206
vn 0.999941186011944 -0.00731340612474264 0.00800865830717154
vn 0.99994167387056 -0.00728931999995969 0.00796960920501732
vn 0.999941101584262 -0.00733579154607993 0.00799872020042129
vn 0.99994109210599 -0.00733782148878418 0.00799804311555279
vn 0.99994060845334 -0.00736953071042521 0.00802929530358052
vn 0.999941384313945 -0.00731247620375323 0.00798471214764763
vn 0.999941023853368 -0.00739718978987604 0.00795175441587684
vn 0.999941536115976 -0.00726354035008138 0.00801032656049986
vn 0.999941779369814 -0.00723513310019171 0.00800566797664544
vn -1 0 0
vn 0 -1 0
vn 0 1 0
vn 1 0 0
vn 0 0.00109974258299916 0.999999395282943
g Post1 geometry props
f 1/1/1 2/2/2 3/3/3 4/4/4
f 2/2/2 5/5/5 6/6/6 3/3/3
f 4/4/4 3/3/3 7/7/7 8/8/8
f 3/3/3 6/6/6 9/9/9 7/7/7
f 10/8/10 11/10/11 12/11/12 13/12/13
f 11/10/11 14/9/14 15/13/15 12/11/12
f 7/8/7 9/14/9 16/15/16 17/16/17
f 7/8/7 17/16/17 18/15/18 8/14/8
f 17/8/17 19/16/19 20/15/20 18/14/18
f 17/8/17 16/14/16 21/15/21 19/16/19
f 19/8/19 21/14/21 22/15/22 23/16/23
f 19/8/19 23/16/23 24/15/24 20/14/20
f 23/8/23 25/16/25 26/15/26 24/14/24
f 23/8/23 22/14/22 27/15/27 25/16/25
f 25/8/25 27/14/27 28/15/28 29/16/29
f 25/8/25 29/16/29 30/15/30 26/14/26
f 29/8/29 12/16/31 15/15/31 30/14/30
f 29/8/29 28/14/28 13/15/13 12/16/12
f 5/1/32 31/2/33 32/3/34 6/4/35
f 31/2/33 33/5/36 34/6/37 32/3/34
f 6/4/35 32/3/34 35/7/38 9/8/39
f 32/3/34 34/6/37 36/9/40 35/7/38
f 37/8/41 38/10/42 39/11/42 40/12/41
f 38/10/42 10/9/43 13/13/43 39/11/42
f 35/8/44 36/14/45 41/15/44 42/16/44
f 35/8/46 42/16/47 16/15/48 9/14/39
f 42/8/47 43/16/49 21/15/50 16/14/48
f 42/8/47 41/14/51 44/15/52 43/16/49
f 43/8/53 44/14/53 45/15/53 46/16/53
f 43/8/49 46/16/54 22/15/55 21/14/50
f 46/8/56 47/16/56 27/15/56 22/14/56
f 46/8/54 45/14/57 48/15/58 47/16/59
f 47/8/59 48/14/60 49/15/60 50/16/61
f 47/8/59 50/16/61 28/15/62 27/14/63
f 50/8/64 39/16/64 13/15/65 28/14/64
f 50/8/61 49/14/66 40/15/66 39/16/67
f 33/1/68 51/2/69 52/3/70 34/4/71
f 51/2/69 53/5/72 54/6/73 52/3/70
f 34/4/71 52/3/70 55/7/74 36/8/75
f 52/3/70 54/6/73 56/9/76 55/7/74
f 57/8/77 58/10/78 59/11/79 60/12/80
f 58/10/78 37/9/81 40/13/82 59/11/79
f 55/8/74 56/14/76 61/15/83 62/16/84
f 55/8/74 62/16/84 41/15/85 36/14/75
f 62/8/84 63/16/86 44/15/87 41/14/85
f 62/8/84 61/14/83 64/15/88 63/16/86
f 63/8/86 64/14/88 65/15/89 66/16/90
f 63/8/86 66/16/90 45/15/91 44/14/87
f 66/8/90 67/16/92 48/15/93 45/14/91
f 66/8/90 65/14/89 68/15/94 67/16/92
f 67/8/92 68/14/94 69/15/95 70/16/96
f 67/8/92 70/16/96 49/15/97 48/14/93
f 70/8/96 59/16/79 40/15/82 49/14/97
f 70/8/96 69/14/95 60/15/80 59/16/79
f 53/1/98 71/2/99 72/3/100 54/4/101
f 71/2/99 1/5/102 4/6/103 72/3/100
f 54/4/101 72/3/100 73/7/104 56/8/105
f 72/3/100 4/6/103 8/9/106 73/7/104
f 14/8/107 74/10/108 75/11/108 15/12/107
f 74/10/108 57/9/109 60/13/109 75/11/108
f 73/8/110 8/14/111 18/15/112 76/16/113
f 73/8/110 76/16/113 61/15/114 56/14/115
f 73/8/110 76/16/113 61/15/114 56/14/115
f 76/8/113 77/16/116 64/15/117 61/14/114
f 76/8/113 18/14/118 20/15/119 77/16/116
f 77/8/120 20/14/120 24/15/120 78/16/120
f 77/8/121 78/16/121 65/15/121 64/14/121
f 77/8/121 78/16/121 65/15/121 64/14/121
f 78/8/122 79/16/122 68/15/123 65/14/122
f 78/8/124 24/14/124 26/15/124 79/16/124
f 79/8/125 26/14/125 30/15/125 80/16/125
f 79/8/126 80/16/127 69/15/128 68/14/128
f 79/8/126 80/16/127 69/15/128 68/14/128
f 80/8/127 75/16/129 60/15/130 69/14/130
f 80/8/131 30/14/131 15/15/132 75/16/131
g collsion_post collsion props
f 81//133 82//133 83//133 84//133
f 82//134 85//134 86//134 83//134
f 87//135 81//135 84//135 88//135
f 86//136 85//136 87//136 88//136
g shadow_column shadow props
f 89/17/137 90/18/137 91/19/137 92/20/137
