v 7 -3 10
v 1.83697019872103e-16 -3 10
v 1.83697019872103e-16 -3 0
v 7 -3 0
v 30 -3 0
v 30 -3 10
v 23 -3 10
v 23 -3 0
v 30 -3 20
v 1.83697019872103e-16 -3 20
v 30 -3 37
v 23 -3 37
v 23 -3 40
v 18 -3 40
v 18 -3 37
v 12 -3 37
v 12 -3 40
v 7.21925595971564 -3 40
v 7.21925595971564 -3 36
v 1.83697019872103e-16 -3 28
v 30 1.77635683940025e-15 0
v 30 1.77635683940025e-15 10
v 30 1.77635683940025e-15 20
v 30 27 37
v 30 27 20
v 23 27 40
v 23 27 37
v 18 27 37
v 18 27 40
v 12 27 40
v 12 27 37
v 7.21925595971564 27 36
v 7.21925595971564 27 40
v -1.65327317884893e-15 27 28
v 0 0 0
v 0 0 10
v 0 0 20
v -1.65327317884893e-15 27 20
v 7 -2.5 0
v 7 -2.5 10
v 23 -2.5 10
v 23 -2.5 0
v 1.83697019872103e-16 -3 -9.07715886820331
v 1.83697019872103e-16 -3 3.68437330530104
v 1.83697019872103e-16 -0.239999949932098 3.68437330530104
v 1.83697019872103e-16 -0.239999949932098 -9.07715886820331
v 7 -3 3.68437330530104
v 7 -3 -9.07715886820331
v 30 -3 -9.07715886820331
v 30 -3 3.68437330530104
v 23 -3 3.68437330530104
v 23 -3 -9.07715886820331
v 30 -0.239999949932097 -9.07715886820331
v 30 -0.239999949932097 3.68437330530104
v 30 -3 35.9500135055258
v 1.83697019872103e-16 -3 35.9500135055258
v 30 15.896924908373 0
v 30 15.896924908373 10
v 30 15.896924908373 35.9500135055258
v 1.83697019872103e-16 15.896924908373 10
v 1.83697019872103e-16 15.896924908373 0
v 1.83697019872103e-16 15.896924908373 35.9500135055258
vt 0.232717022299767 0.249700874090195
vt 0.00355389714241028 0.249134972691536
vt 0.00192907615564764 0.00341007229872048
vt 0.231092214584351 0.00397596461698413
vt 0.984056830406189 0.0058353254571557
vt 0.985681593418121 0.251560270786285
vt 0.756518423557281 0.250994384288788
vt 0.754893660545349 0.00526942126452923
vt 0.987306356430054 0.497285217046738
vt 0.00517865549772978 0.494859933853149
vt 0.99006849527359 0.915017604827881
vt 0.760905385017395 0.914451658725739
vt 0.761392772197723 0.988169133663177
vt 0.597704827785492 0.987764954566956
vt 0.597217381000519 0.914047479629517
vt 0.400791853666306 0.913562476634979
vt 0.401279300451279 0.987279891967773
vt 0.244769245386124 0.98689341545105
vt 0.244119331240654 0.888603448867798
vt 0.00647845724597573 0.691439867019653
vt -3.72529029846191e-09 0.250000029802322
vt 0 0
vt 0.100000001490116 7.45058070794613e-10
vt 0.0999999940395355 0.250000029802322
vt -1.28874910743093e-08 0.500000059604645
vt 0.0999999865889549 0.500000059604645
vt 1 0.925000011920929
vt 0 0.925000011920929
vt 1 0.500000059604645
vt 1 1
vt 0 1
vt 1.00489318370819 0.914857387542725
vt 0.00520003493875265 0.923351049423218
vt 0.00435066781938076 0.999836027622223
vt 1.00404381752014 0.99134224653244
vt -0.00677241757512093 -0.592439651489258
vt -1.00677192211151 -0.592439651489258
vt -1.00677192211151 -0.790889382362366
vt -0.00677241757512093 -0.790889382362366
vt -0.906645536422729 -0.0808624625205994
vt -1.00663530826569 -0.0807263404130936
vt -1.00629901885986 -0.324909150600433
vt -0.906309306621552 -0.3250452876091
vt -1.00596284866333 -0.569091975688934
vt -0.905973136425018 -0.569228112697601
vt -1.0056939125061 -0.764438271522522
vt -0.00579640408977866 -0.765799462795258
vt -0.0060653886757791 -0.57045316696167
vn 0 -1 0
vn 1 0 0
vn -1 0 0
vn -0.933382275507837 0 0.358883724579162
vn 0 1 0
vn 0 0 -1
g suit_landmark_money2_bldg suit_landmark_money2
f 1/1/1 2/2/1 3/3/1 4/4/1
f 5/5/1 6/6/1 7/7/1 8/8/1
f 6/6/1 9/9/1 10/10/1 2/2/1
f 9/9/1 11/11/1 12/12/1 13/13/1 14/14/1 15/15/1 16/16/1 17/17/1 18/18/1 19/19/1 20/20/1 10/10/1
f 6/21/2 5/22/2 21/23/2 22/24/2
f 9/25/2 6/21/2 22/24/2 23/26/2
f 24/27/2 11/28/2 9/25/2 25/29/2
f 26/30/2 13/31/2 12/28/2 27/27/2
f 28/27/3 15/28/3 14/31/3 29/30/3
f 30/30/2 17/31/2 16/28/2 31/27/2
f 32/32/4 19/33/4 18/34/3 33/35/3
f 34/36/4 20/37/4 19/38/4 32/39/4
f 35/40/3 3/41/3 2/42/3 36/43/3
f 2/42/3 10/44/3 37/45/3 36/43/3
f 10/44/3 20/46/4 34/47/4 38/48/3
f 38/10/5 34/20/5 32/19/5 33/18/5 30/17/5 31/16/5 28/15/5 29/14/5 26/13/5 27/12/5 24/11/5 25/9/5
f 4/22/2 39/22/2 40/22/2 1/22/2
f 41/22/6 7/22/6 1/22/6 40/22/6
f 42/22/3 8/22/3 7/22/3 41/22/3
g suit_landmark_money2_collide suit_landmark_money2
f 43/22/3 44/22/3 45/22/3 46/22/3
f 47/22/1 44/22/1 43/22/1 48/22/1
f 49/22/1 50/22/1 51/22/1 52/22/1
f 53/22/2 54/22/2 50/22/2 49/22/2
g suit_landmark_money2_camera_collisions suit_landmark_money2
f 1/22/1 2/22/1 3/22/1 4/22/1
f 5/22/1 6/22/1 7/22/1 8/22/1
f 6/22/1 55/22/1 56/22/1 2/22/1
f 57/22/2 58/22/2 6/22/2 5/22/2
f 58/22/2 59/22/2 55/22/2 6/22/2
f 3/22/3 2/22/3 60/22/3 61/22/3
f 2/22/3 56/22/3 62/22/3 60/22/3
