v 7.12344373872626 1.01273774946674 17.7998384546189
v 7.23962798088512 1.24682380121733 19.2209169263617
v 14.045811398641 0.655303110204729 19.2215812408878
v 14.0606598261445 1.03473992398455 17.8504293261947
v 6.87153021604715 -0.371347524147702 19.901876502758
v 6.84341849579216 -1.69347831960158 18.6245471740834
v 13.7698574005197 -1.93357336763232 18.7269275816748
v 13.7252411756277 -0.429717964608662 19.8827276749981
v 6.74774857194477 -0.474521221479361 16.8370173064219
v 13.6096178831256 -0.539829573414617 16.8335190314832
v 15.061440832624 0.824414283109712 19.8507456406994
v 16.3769163425045 1.15519751125946 18.5486632785476
v 14.5633739232367 -0.488748517955561 20.4030804723258
v 15.8222860899711 -1.89455970080622 19.1574516611874
v 16.5826223736489 -0.444487505049648 18.0579372300376
v 15.6576294281467 0.773523429841092 21.0479838513291
v 17.2883505535104 1.35973243542931 20.9909297693905
v 14.8028730773218 -0.503960898213861 21.2207401797854
v 16.5334558393234 -1.73195641168527 21.1369513802512
v 17.9445905410565 -0.428636119997492 21.122162910441
v 15.7077426279526 1.04552862624978 27.4173026729539
v 17.5079921584712 1.64465618219814 27.3691497979895
v 14.9374007992226 -0.313474984406816 27.5963345021588
v 16.5790967725235 -1.48992831983507 27.5474537376372
v 18.0851966082407 -0.186420058442642 27.5352540465257
v 6.17303314797552 1.16025806032166 16.7630272628698
v 4.87656035103128 1.26838606732559 18.2768682469405
v 5.92249300499284 -0.470844489643218 16.3558064814346
v 4.83011559617593 -1.85234946805951 17.6142683378975
v 3.99095271137034 -0.2721075484524 18.8052458669202
v 5.43509622143553 1.23564252211524 15.6005727398377
v 3.49203033962593 1.1021506355069 15.741060357034
v 5.5312821638234 -0.447489361010061 15.5600588998501
v 4.00650324814521 -1.85284138245028 15.6718117280519
v 2.56553683529207 -0.399110931776218 15.7850875261292
v 5.26131511739533 1.26888028751986 9.26090267008517
v 3.47498091602784 1.10234252485875 9.38944383457869
v 5.6778497617224 -0.564922318863972 9.20222104301132
v 4.1675946728405 -1.86483751044451 9.29449045661042
v 2.46679930932328 -0.568323318594732 9.41020173761136
v 5.1399922691695 1.371055336035 0.123971151441334
v 3.40068152503641 1.20895206250156 0.0903440184976057
v 5.67775333748116 -0.466930874516052 0.149376277191848
v 4.15969447428433 -1.76505918904073 0.131452454246687
v 2.45022651101606 -0.498767779128035 0.0949667870044961
v -3.03415898869165 0.604064632928494 6.95704240452261
v -3.10871629176326 0.395521484610155 7.90262675927367
v -22.0507036735229 0.202430181502498 8.07668809143565
v -22.0371889756447 -0.0980237481669156 6.9917972001878
v -3.15751310108358 1.46554449027251 8.46481201170611
v -22.0496971009756 1.43908931141019 8.48767516447791
v -3.03699303352908 2.30743332014912 6.00706964606676
v -22.0279148945796 1.18758613798665 6.02706126294411
v -22.7918563821868 0.14921450388698 8.621499950967
v -23.8951407153841 -0.0451475246698732 7.46890469126801
v -22.6559364510551 1.45518342013066 8.91871793330172
v -22.0357586467375 2.50240285881057 5.57397735354143
v -24.4410316799466 0.81812789570602 7.05378152520625
v -23.6753131999232 2.39429831052231 6.57222655768144
v -23.3063689335277 0.0657334888086967 9.59444199287973
v -24.8784138733833 -0.157412487239855 9.57509817367451
v -22.9032904973484 1.37996065038737 9.5809093292991
v -25.4470178042395 1.33641659223445 9.54961078952917
v -24.22629539201 2.28656850422474 7.82174816861228
v -23.3684348661023 -0.44971183630715 14.7180610123956
v -24.9754848754607 -0.45278130120247 14.7100511493707
v -22.8770225933448 1.07449637350201 14.7118613784143
v -25.4772470355422 1.0695348920976 14.6989054249715
v -24.1803329274935 2.01343794634198 12.9685687576127
v -23.3668479037087 -0.453075502678421 24.5366752612371
v -24.9740412372545 -0.458988512087526 24.5299389664331
v -22.8770225933448 1.07449637350201 24.3698137947016
v -25.4774699607745 1.06503328197456 24.3589003563301
v -24.1814220596873 2.01274076137659 22.5284884603379
v -1.91775537012632 0.427662032352812 6.21273389279361
v -1.23301411416235 0.233948732049816 7.0993406248592
v -2.41382725713669 1.88570077964593 5.60078536385301
v -3.11326071368457 2.78040087484546 7.54135890849294
v -1.43480981020006 2.78023175289841 6.60993599156995
v -0.704956992299046 1.57224299014666 7.53609642848555
v -1.58101696738156 0.148274925127336 4.95181424677829
v -0.165682326680476 0.122283140525822 5.03444399374351
v -2.13986712775239 1.54281666520008 4.94909289581557
v -0.819620014292176 2.56588019170422 5.0300385690798
v 0.400535065008169 1.61645278221918 5.08278952449626
v -1.68378386688298 -0.170836833260837 -0.118883107115403
v -0.0783983561192214 -0.172942239632088 -0.120562174652005
v -2.1759827244873 1.353060173093 -0.11859224896431
v -0.658155334964802 2.29280031600107 -0.114459159643444
v 0.421600967765812 1.34967458435508 -0.121272549379029
v -26.0000001543582 -2.92717805882899 -2.51610679797737e-08
v 19.0000003065943 -2.92717805882899 -2.51610679797737e-08
v 19.0000003065943 -2.92717805882899 28.0000002056688
v -26.0000001543582 -2.92717805882899 28.0000002056688
v 19.0000003065943 2.92717805882887 28.0000002056688
v -26.0000001543582 2.92717805882887 28.0000002056688
v 19.0000003065943 2.92717805882887 -2.51610679797737e-08
v -26.0000001543582 2.92717805882887 -2.51610679797737e-08
v 8.7126555644672 -0.175083080282572 -9.94704666025157e-06
v 3.74702812965015 4.61573048654946 9.94704664533204e-06
v -0.845821302046888 -0.144709222462146 9.94704664533204e-06
v 4.11980613277017 -4.93552278929418 -9.94704666025157e-06
v 3.43356784988277 1.1763326084158 -9.25324871727043e-06
v -1.18571133377689 5.63299104132476 9.25324865665983e-06
v -5.45821346004703 1.20458791572572 9.25324865665983e-06
v -0.838934276387372 -3.25207051718324 -9.25324871727043e-06
vt 0.942048728466034 0.0958756431937218
vt 0.74457710981369 0.0958756431937218
vt 0.74457710981369 -1.11075842380524
vt 0.942048728466034 -1.11075878143311
vt 0.563627541065216 0.0958756431937218
vt 0.371549606323242 0.0958756431937218
vt 0.371549606323242 -1.11075878143311
vt 0.563627481460571 -1.11075842380524
vt 0.174263477325439 0.0958756431937218
vt 0.174263477325439 -1.11075878143311
vt 1.15971088409424 0.0958756431937218
vt 1.15971088409424 -1.11075878143311
vt 0.744577050209045 -1.30876624584198
vt 0.942048728466034 -1.30876648426056
vt 0.563627600669861 -1.30876624584198
vt 0.371549606323242 -1.30876648426056
vt 0.174263477325439 -1.30876648426056
vt 1.15971088409424 -1.30876648426056
vt 0.74457710981369 -1.96288919448853
vt 0.942048728466034 -1.96288919448853
vt 0.563627600669861 -1.96288919448853
vt 0.371549606323242 -1.96288919448853
vt 0.174263477325439 -1.96288919448853
vt 1.15971088409424 -1.96288919448853
vt 0.744577050209045 -2.50550484657288
vt 0.942048728466034 -2.5055046081543
vt 0.563627660274506 -2.5055046081543
vt 0.371549606323242 -2.5055046081543
vt 0.174263477325439 -2.5055046081543
vt 1.15971088409424 -2.5055046081543
vt 0.942048728466034 0.754645645618439
vt 0.74457710981369 0.754645645618439
vt 1.15971088409424 0.754645645618439
vt 0.371549606323242 0.754645645618439
vt 0.174263477325439 0.754645645618439
vt 0.563627541065216 0.754645645618439
vt 0.942048728466034 0.977544903755188
vt 0.74457710981369 0.977544903755188
vt 1.15971088409424 0.977544903755188
vt 0.371549606323242 0.977544903755188
vt 0.174263477325439 0.977544903755188
vt 0.563627541065216 0.977544903755188
vt 0.942048788070679 1.33662211894989
vt 0.744577169418335 1.33662211894989
vt 1.15971088409424 1.33662211894989
vt 0.371549606323242 1.33662211894989
vt 0.174263477325439 1.33662211894989
vt 0.563627600669861 1.33662211894989
vt 0.942048788070679 2.02113175392151
vt 0.744577169418335 2.02113175392151
vt 1.15971100330353 2.02113175392151
vt 0.371549606323242 2.02113175392151
vt 0.174263477325439 2.02113175392151
vt 0.563627600669861 2.02113175392151
vt 0.267036288976669 -1.03225648403168
vt 0.464507848024368 -1.03225648403168
vt 0.464507848024368 0.0917874574661255
vt 0.267036288976669 0.0917874574661255
vt 0.669995963573456 -1.03225648403168
vt 0.669995963573456 0.0917874574661255
vt 0.0830859541893005 -1.03225648403168
vt 0.0830859541893005 0.0917874574661255
vt 0.464507848024368 0.633546054363251
vt 0.267036288976669 0.633546054363251
vt 0.669995963573456 0.633546054363251
vt -0.117040008306503 0.0917874574661255
vt 0.0830859541893005 0.633546054363251
vt -0.117040008306503 0.633546054363251
vt 0.464507848024368 0.812985956668854
vt 0.267036288976669 0.812985956668854
vt 0.669995963573456 0.812985956668854
vt 0.0830859541893005 0.812985956668854
vt -0.117039993405342 0.812985956668854
vt 0.464507848024368 1.51265144348145
vt 0.267036318778992 1.51265215873718
vt 0.669995903968811 1.5126519203186
vt 0.0830859243869781 1.51265203952789
vt -0.117040038108826 1.51265168190002
vt 0.464507877826691 2.01170015335083
vt 0.267036318778992 2.01169967651367
vt 0.669995903968811 2.01170039176941
vt 0.0830859243869781 2.01169943809509
vt -0.117040038108826 2.01169896125793
vt 0.267036288976669 -1.34514093399048
vt 0.464507848024368 -1.34514141082764
vt 0.0830859541893005 -1.34514045715332
vt 1.0695675611496 -1.03225648403168
vt 0.875177025794983 -1.03225648403168
vt 0.875176787376404 -1.34514260292053
vt 1.06956732273102 -1.34514307975769
vt 0.669995963573456 -1.34514188766479
vt 0.267036288976669 -2.03130197525024
vt 0.464507848024368 -2.03130197525024
vt 0.0830859541893005 -2.03130197525024
vt 0.875176548957825 -2.03130197525024
vt 1.06956708431244 -2.03130197525024
vt 0.669995963573456 -2.03130197525024
vt 0.267036288976669 -1.7203334569931
vt 0.464507848024368 -1.72033369541168
vt 0.0830859541893005 -1.7203334569931
vt 0.875176191329956 -1.7203334569931
vt 1.0695663690567 -1.7203334569931
vt 0.669995963573456 -1.72033369541168
vt 0 0
vt 1 0
vt 1 1
vt 0 1
vn 0.0690434636464476 0.997525803530133 -0.0132390112646043
vn -0.215329483187834 0.913373857199631 0.345516151075935
vn -0.0579377042476389 0.991536498651675 0.116183450921763
vn -0.154952522111594 -0.665606356058927 0.730039652803334
vn -0.126978445686197 -0.669988433811095 0.7314314546767
vn 0.160506110042663 -0.804491543691476 -0.571866369677286
vn 0.110008130897411 -0.779011185275689 -0.617284200633569
vn 0.350480162413418 0.396010711648964 -0.848727972918264
vn 0.15468342158346 0.472763394832599 -0.867506663717109
vn -0.461631263211385 0.811715594064367 0.357790960168914
vn -0.212201480668314 0.969132822385021 0.125507386946819
vn -0.233387879858361 0.498641525119966 0.834797416719322
vn -0.650094196543914 0.530605465815972 0.543907506168226
vn -0.425385788498647 -0.761997149242552 0.488269674964162
vn 0.490187095760473 -0.728983663239682 -0.477806896015081
vn 0.644457614636053 0.355877411355027 -0.67677592379225
vn -0.602401111332294 0.791836897977989 0.100534710753116
vn -0.297638833543106 0.954511536158872 0.0178564304027845
vn -0.833857934923277 0.524680304455335 0.171439559268405
vn -0.582823168165793 -0.800846207618091 0.137704416751639
vn 0.866397993363303 -0.438143821924404 -0.239550638499499
vn 0.691887098967978 -0.711148551114601 -0.124739650990688
vn 0.931123388674024 0.297047333431539 -0.211594226682615
vn -0.625921671466344 0.779581989092815 -0.0217711614496755
vn -0.327290729843027 0.944299871425517 -0.0343297390693779
vn -0.851655865730222 0.524058850345375 -0.00667890275339832
vn -0.579245018442767 -0.814370935509238 0.035709774670911
vn 0.666303507668476 -0.745451811272012 0.0184724860255016
vn 0.946790117930291 0.319377998701282 -0.0398267063050553
vn 0.0405018775108445 0.998106746718791 -0.0462873640697707
vn 0.769696372210671 0.112401776171343 -0.628437216688556
vn 0.487560295654283 -0.763013202959161 -0.424376967107677
vn -0.503980313112138 -0.684693992467636 0.526495945543857
vn -0.148970589988037 0.449675380035758 0.880681449735552
vn -0.575102095190623 0.51532436310223 0.635372631532581
vn -0.0478612174250217 0.998836868535315 -0.00584926671989054
vn -0.48928987613783 0.86639331983157 0.099789941678804
vn 0.901912014381516 -0.372786563560374 -0.218139625797614
vn 0.961585693044463 0.0887494071523599 -0.259762386927564
vn 0.653725617891412 -0.745209315864616 -0.131551860728318
vn -0.680245048864441 -0.713170401325995 0.169276850655765
vn -0.825916000660454 0.532811904385656 0.184321009106319
vn -0.0861994073160252 0.996245444159379 0.00804221176340557
vn -0.531385500479097 0.847098848413589 0.00727948466250487
vn 0.947183105385691 -0.320684111901641 0.00242182694979215
vn 0.980144462192545 0.19825574621527 -0.00339003332030008
vn 0.658656136432568 -0.752405979259065 0.0075720746780195
vn -0.630042817652297 -0.776560250901595 0.000473966671627492
vn -0.859449573277436 0.511196940744518 0.00491108609968747
vn -0.0924780004080261 0.995639288480271 0.0122566991899441
vn -0.53873638341813 0.842389739517027 0.0119430288448736
vn 0.967831471544328 0.251572279201552 -0.00369202189549023
vn 0.650985967541452 -0.759041873408085 -0.00852669204699637
vn -0.600850207777244 -0.799334971259791 -0.006529282897216
vn -0.865059045697695 0.501589857135258 0.00897009897520181
vn 0.0221511120829301 0.440054102569973 0.897698008823026
vn -0.0518098347261629 -0.934401489204855 -0.352433820734329
vn -0.0827455996593442 -0.995173132645 -0.0527598502514253
vn 0.0478703616660745 -0.992280275122856 0.114404038722714
vn -0.0342048380418511 -0.909699902252847 -0.41385518831554
vn 0.172529494370855 -0.408621518786487 0.896248864968186
vn 0.30381931754403 -0.333850667894867 0.892321440868273
vn 0.30381814009198 -0.333852766256062 0.892321056691046
vn -0.302304028001375 -0.512198408248247 -0.803906129620932
vn -0.219039273758739 -0.442310047701887 -0.869703178247153
vn 0.111276576321581 -0.989098582609862 0.0964443748557149
vn 0.756191345778396 -0.245036295676277 0.606738710130733
vn 0.756190130570517 -0.245036508054432 0.606740138896574
vn -0.423260002975682 -0.176347066720798 -0.888680303562533
vn -0.678649645427716 -0.249774402453547 -0.690686185354687
vn -0.70443639949457 0.0850028442365676 -0.704658694361192
vn -0.578386791074536 -0.551900978099239 -0.600727917017017
vn 0.110847054634449 -0.99326340437248 -0.0337748429050205
vn 0.943956190265508 -0.269441729452273 0.19065116125845
vn 0.943957468119014 -0.269436109846159 0.190652776253872
vn -0.970717003900296 0.112390640760102 -0.212313075924133
vn -0.761222343883403 0.620924144408339 -0.187066164934844
vn -0.899453544092882 -0.399442528836362 -0.177282227466731
vn 0.0371618366253465 -0.998546351416674 -0.0390407731875237
vn 0.952810830305397 -0.303385311699433 -0.0104342847276811
vn 0.952811240605169 -0.303384009868294 -0.0104346697443324
vn -0.575373994787411 0.81758903410842 0.0222021942167388
vn -0.575371000632365 0.817591142722739 0.022202138920289
vn -0.945922984660597 -0.324042662273306 -0.0150352957275798
vn 0.0027968109632962 -0.999995969950286 -0.000487782350713447
vn 0.951999153099317 -0.306100629561054 -0.000130692420250337
vn 0.951998378183495 -0.306103039715167 -0.0001304343917188
vn -0.589197207032811 0.807989244620699 0.000178331174240676
vn -0.58919248867419 0.807992685308906 0.000178261657619061
vn -0.949635973448388 -0.313355238059454 -0.00011275387185047
vn -0.530754679274589 -0.802561958993952 -0.272385338085437
vn -0.160532240455255 -0.985995279819803 -0.0451963267034596
vn -0.596284906641072 -0.429254773145858 -0.678369110325306
vn -0.790670161344625 -0.420988522599703 -0.444532743224371
vn -0.0953611715945418 0.890476624797714 -0.444924294280484
vn -0.291275325876204 0.857389368242257 -0.424313746844072
vn 0.310349125931803 0.615484478873197 0.724473792693397
vn 0.507508054005002 0.693819930607469 0.510930013810016
vn 0.615407584349422 -0.427269964899817 0.662354800858059
vn -0.0713619345448573 -0.995614058517006 0.0604989320675207
vn -0.931042830909452 -0.358092155343147 -0.070208655405252
vn -0.529930714963796 0.819275323413602 -0.219000871650089
vn 0.653895101368252 0.748220450763374 0.112193375321614
vn 0.90309835614635 -0.368597676906385 0.220338629624894
vn -0.0108916257317668 -0.998140007192635 0.0599824851969721
vn -0.940432982373459 -0.338663450897972 0.029880975386337
vn -0.567360777206382 0.822280565648534 -0.0442314350264402
vn 0.635486599847686 0.771565524761507 -0.0290417357182164
vn 0.942339142503482 -0.333490324729788 0.0279489502025026
vn 0 -1 0
vn 0 0 1
vn 0 1 0
vn 0 0 -1
vn 1 0 0
vn -1 0 0
vn 2.09596923273538e-06 -2.02218107734881e-06 0.999999999995759
g Pipeline14 geometry props
f 1/1/1 2/2/1 3/3/2 4/4/3
f 5/5/4 6/6/4 7/7/5 8/8/5
f 6/6/6 9/9/6 10/10/7 7/7/7
f 9/11/8 1/1/8 4/4/9 10/12/9
f 4/4/3 3/3/2 11/13/10 12/14/11
f 3/3/2 8/8/12 13/15/13 11/13/10
f 8/8/5 7/7/5 14/16/14 13/15/14
f 7/7/7 10/10/7 15/17/15 14/16/15
f 10/12/9 4/4/9 12/14/16 15/18/16
f 12/14/11 11/13/10 16/19/17 17/20/18
f 11/13/10 13/15/13 18/21/19 16/19/17
f 13/15/14 14/16/14 19/22/20 18/21/20
f 14/16/15 15/17/15 20/23/21 19/22/22
f 15/18/16 12/14/16 17/20/23 20/24/21
f 17/20/18 16/19/17 21/25/24 22/26/25
f 16/19/17 18/21/19 23/27/26 21/25/24
f 18/21/20 19/22/20 24/28/27 23/27/27
f 19/22/22 20/23/21 25/29/28 24/28/28
f 20/24/29 17/20/23 22/26/29 25/30/29
f 2/2/1 1/1/1 26/31/30 27/32/30
f 1/1/8 9/11/8 28/33/31 26/31/31
f 9/9/6 6/6/6 29/34/32 28/35/32
f 6/6/4 5/5/4 30/36/33 29/34/33
f 5/5/34 2/2/34 27/32/35 30/36/35
f 27/32/30 26/31/30 31/37/36 32/38/37
f 26/31/31 28/33/31 33/39/38 31/37/39
f 28/35/32 29/34/32 34/40/40 33/41/38
f 29/34/33 30/36/33 35/42/41 34/40/41
f 30/36/35 27/32/35 32/38/37 35/42/42
f 32/38/37 31/37/36 36/43/43 37/44/44
f 31/37/39 33/39/38 38/45/45 36/43/46
f 33/41/38 34/40/40 39/46/47 38/47/45
f 34/40/41 35/42/41 40/48/48 39/46/48
f 35/42/42 32/38/37 37/44/44 40/48/49
f 37/44/44 36/43/43 41/49/50 42/50/51
f 36/43/46 38/45/45 43/51/52 41/49/52
f 38/47/45 39/46/47 44/52/53 43/53/53
f 39/46/48 40/48/48 45/54/54 44/52/54
f 40/48/49 37/44/44 42/50/51 45/54/55
f 5/5/34 8/8/12 3/3/56 2/2/34
g Pipeline13 geometry props
f 46/55/57 47/56/58 48/57/59 49/58/60
f 47/56/61 50/59/61 51/60/62 48/57/63
f 52/61/64 46/55/57 49/58/60 53/62/65
f 49/58/60 48/57/59 54/63/66 55/64/66
f 48/57/63 51/60/62 56/65/67 54/63/68
f 57/66/69 53/62/65 58/67/70 59/68/71
f 53/62/65 49/58/60 55/64/72 58/67/70
f 55/64/66 54/63/66 60/69/73 61/70/73
f 54/63/68 56/65/67 62/71/74 60/69/75
f 59/68/71 58/67/70 63/72/76 64/73/77
f 58/67/70 55/64/72 61/70/78 63/72/76
f 61/70/73 60/69/73 65/74/79 66/75/79
f 60/69/75 62/71/74 67/76/80 65/74/81
f 64/73/77 63/72/76 68/77/82 69/78/83
f 63/72/76 61/70/78 66/75/84 68/77/84
f 66/75/79 65/74/79 70/79/85 71/80/85
f 65/74/81 67/76/80 72/81/86 70/79/87
f 69/78/83 68/77/82 73/82/88 74/83/89
f 68/77/84 66/75/84 71/80/90 73/82/90
f 47/56/58 46/55/57 75/84/91 76/85/92
f 46/55/93 52/61/64 77/86/94 75/84/91
f 52/87/95 78/88/95 79/89/96 77/90/96
f 78/88/97 50/59/97 80/91/98 79/89/98
f 50/59/61 47/56/61 76/85/99 80/91/99
f 76/85/92 75/84/91 81/92/100 82/93/100
f 75/84/91 77/86/94 83/94/101 81/92/101
f 77/90/96 79/89/96 84/95/102 83/96/102
f 79/89/98 80/91/98 85/97/103 84/95/103
f 80/91/99 76/85/99 82/93/104 85/97/104
f 82/93/100 81/92/100 86/98/105 87/99/105
f 81/92/101 83/94/101 88/100/106 86/98/106
f 83/96/102 84/95/102 89/101/107 88/102/107
f 84/95/103 85/97/103 90/103/108 89/101/108
f 85/97/104 82/93/104 87/99/109 90/103/109
g collision_pipe collision props
f 91//110 92//110 93//110 94//110
f 94//111 93//111 95//111 96//111
f 96//112 95//112 97//112 98//112
f 98//113 97//113 92//113 91//113
f 92//114 97//114 95//114 93//114
f 98//115 91//115 94//115 96//115
g circleshadow2 shadow props
f 99/104/116 100/105/116 101/106/116 102/107/116
g circleshadow1 shadow props
f 103/104/116 104/105/116 105/106/116 106/107/116
