v 50.8526356026667 -46.2669723678995 15.6860220541357
v 50.8525745762753 -46.2668986086529 15.6859931516686
v 50.8525559911319 -46.2668764730496 15.6860888836226
v 50.8526170175233 -46.2669502322962 15.6861177860898
v 50.8524789822265 -46.266940266373 15.6860886839207
v 50.8525400086179 -46.2670140256197 15.6861175863879
v 50.8524975673699 -46.2669624019763 15.6859929519667
v 50.8525585937613 -46.267036161223 15.6860218544338
vn 0.770089073029655 0.637933250046652 0.00199701908897176
vn -0.185841396413766 0.221356691109833 0.957321362281176
vn -0.770089073029655 -0.637933250046652 -0.00199701908897176
vn 0.185851438750319 -0.221356038010351 -0.957319563756427
vn -0.610263928407015 0.737592484317238 -0.289024678468746
vn 0.610263928407015 -0.737592484317238 0.289024678468746
g pCube1 camera1 flyover hole4
f 1//1 2//1 3//1 4//1
f 4//2 3//2 5//2 6//2
f 6//3 5//3 7//3 8//3
f 8//4 7//4 2//4 1//4
f 2//5 7//5 5//5 3//5
f 8//6 1//6 4//6 6//6
