v 9.99067033604151 -3 32.0486038319723
v 9.97163470072482 -3.79313610503073 35.2846621017511
v 5.02194226892913 -3.79313610503073 35.2555462663098
v 5.04149979566583 -3 31.9307664478378
v 16.4144280297632 -3 32.2015504311584
v 7.10943379633057 -4.72830250120023 39.6246351084709
v -1.15005546705348 -3 31.783348477507
v 5.05427894589373 -3 29.7583107305619
v 10.0039713776894 -3 29.7874265660033
v 11.3782683315757 -3 25.430572308155
v 3.43691517337931 -3 25.430572308155
v 3.43691517337931 -3 20.7967927819439
v 11.3782683315757 -3 20.7967927819439
v 16.1007765387486 -3 3.13651465238556
v 16.3098775327584 -3 6.79578174683537
v 15.7871250477341 -3 10.559599329698
v 15.9962260417438 -3 12.7551595863679
v 17.0417310117924 -3 18.2963354722491
v 16.4144280297632 -3 22.6874559855889
v 15.7871250477341 -3 31.2605960354427
v -0.41820198801945 -3 31.1560455470299
v -1.3591564610632 -3 22.582905497176
v -1.25460596405834 -3 17.8781335185977
v -0.209100994009728 -3 12.2324071443037
v 0 -3 10.3504983528723
v -0.41820198801945 -3 6.79578174683537
v -0.104550497004861 -3 3.24106514079841
v 0 -3 0
v 16.3098775327584 -3 0
v -1.15005546705348 6.19511031534057 31.783348477507
v 7.10943379633057 6.19511031534057 39.6246351084709
v 16.4144280297632 6.19511031534057 32.2015504311584
v -0.209100994009728 0 12.2324071443037
v -1.25460596405834 0 17.8781335185977
v 0 0 10.3504983528723
v -0.41820198801945 0 6.79578174683537
v -0.104550497004861 0 3.24106514079841
v 0 0 0
v -1.3591564610632 0 22.582905497176
v -0.41820198801945 6.19511031534057 31.1560455470299
v -1.3591564610632 6.19511031534057 22.582905497176
v -1.30107289793832 0 19.9691453713566
v -1.30107289793832 6.19511031534057 19.9691453713566
v 16.1007765387486 0 3.13651465238556
v 16.3098775327584 0 0
v 16.3098775327584 0 6.79578174683537
v 15.7871250477341 0 10.559599329698
v 15.9962260417438 0 12.7551595863679
v 17.0417310117924 0 18.2963354722491
v 15.7871250477341 6.19511031534057 31.2605960354427
v 16.4144280297632 6.19511031534057 22.6874559855889
v 16.4144280297632 0 22.6874559855889
v 16.8027581494238 0 19.9691453713566
v 16.8027581494238 6.19511031534057 19.9691453713566
v 16.3098775327584 -3 -2
v 16.3098775327584 -3 20
v -0.41820198801945 -3 20
v -0.41820198801945 -3 -2
v 16.3098775327584 0 -2
v 16.3098775327584 0 20
v -0.41820198801945 0 20
v -0.41820198801945 0 -2
v -1.30175855640897 6.19511031534057 20
v 16.7983503449697 6.19511031534057 20
vt 0 0.41132989525795
vt 0 1
vt 1 1
vt 1 0.395190596580505
vt 0.957408428192139 0.805810153484344
vt 0.492158710956573 0.991387248039246
vt 0.0791842490434647 0.795355081558228
vt 1 0
vt 0 0
vt 0.941725850105286 0.0791842341423035
vt 0.952180922031403 0.17066590487957
vt 0.926043272018433 0.264761358499527
vt 0.93649834394455 0.31965035200119
vt 0.988773584365845 0.458179742097855
vt 0.957408428192139 0.567957758903503
vt 0.926043272018433 0.782286286354065
vt 0.115776926279068 0.779672503471375
vt 0.0687291994690895 0.565343976020813
vt 0.0739567279815674 0.44772469997406
vt 0.126231968402863 0.306581556797028
vt 0.136687025427818 0.259533822536469
vt 0.115776926279068 0.17066590487957
vt 0.131459504365921 0.0817979946732521
vt 0.136687025427818 0.000771365710534155
vt 0.952180922031403 0.000771365710534155
vt 1 0.984839975833893
vt 0 0.984839975833893
vt 0.314925253391266 0.377074122428894
vt 0.00347920996136963 0.377800107002258
vt 0.00508499890565872 0.552169382572174
vt 0.316531032323837 0.55144339799881
vt 0.31438997387886 0.318951010704041
vt 0.00294394674710929 0.319677025079727
vt 0.313378930091858 0.209162950515747
vt 0.00193289434537292 0.209888949990273
vt 0.312367886304855 0.099374882876873
vt 0.000921841943636537 0.100100882351398
vt 0.311446040868759 -0.000726002093870193
vt 0.00642315670847893 0.697477161884308
vt 0.317869186401367 0.696751117706299
vt 0.014125632122159 -0.00858085975050926
vt 0.999235868453979 -0.000427608174504712
vt 0.997526466846466 0.0512061156332493
vt 0.0124162491410971 0.043052863329649
vt 0.961016714572906 0.695251941680908
vt 0.00886157713830471 0.962260127067566
vt 0.963455140590668 0.960034906864166
vt 0.317125767469406 0.616024672985077
vt 0.960273325443268 0.614525437355042
vt 0.312338143587112 0.096145823597908
vt 0.000892105104867369 0.0968718230724335
vt 0.314449459314346 0.325409144163132
vt 0.00300342054106295 0.326135128736496
vt 0.315073937177658 0.393219411373138
vt 0.00362789398059249 0.393945425748825
vt 0.316649973392487 0.564359664916992
vt 0.00520394649356604 0.565085649490356
vt 0.963484883308411 0.963263988494873
vt 0.00889131426811218 0.965489208698273
vt 0.00645289337262511 0.70070618391037
vt 0.961046457290649 0.69848096370697
vt 1.04932057857513 0.0757781788706779
vt 0.0504438765347004 0.075469933450222
vt 0.018844136968255 -0.00531509984284639
vt 1.01772081851959 -0.00500685535371304
vt 0.31789892911911 0.699980199337006
vt 0.0715990960597992 0.500771343708038
vt 0.976604521274567 0.500771343708038
vn 0.00175658630254197 -0.992973394042163 -0.118324778169867
vn 0.00348848692552679 -0.971992322551227 -0.234986713157237
vn 0.00264146000204997 -0.993823447179458 -0.110941329203306
vn 0.00525028976964791 -0.975370088327323 -0.220512188447002
vn 0 -1 0
vn -0.688508129661209 0 0.725228622842772
vn 0.623623278877464 0 0.781725019455129
vn -0.989231921643039 0 -0.146356432050047
vn -0.99473460695799 0 -0.102484446235189
vn -0.999994797234417 0 0.00322575636043343
vn -0.999894140626177 0 0.0145501732442944
vn -0.998192908470147 0 -0.0600909101271404
vn -0.999480114254317 0 -0.0322412966578087
vn -0.999051849149826 0 0.0435362229679353
vn -0.999753177791057 0 -0.0222167391100276
vn -0.929984453635655 0 -0.367598852005814
vn -0.65079134262497 0 -0.759256628791866
vn 0.999988748718607 0 0.00474367328075509
vn 0.997785157493784 0 0.0665190159661487
vn 0.999181499715698 0 0.0404515837253347
vn 0.999768299631089 0 0.0215254977354914
vn 0.990115364538122 0 -0.140255356067219
vn 0.999751478448218 0 -0.022293078311512
vn 0.967034488377724 0 -0.254645436417056
vn 0.994230782366133 0 0.107262068764437
vn 0.83205027329837 0 -0.554700227784438
vn 0.989949492034076 0 0.141421367626942
vn 1 0 0
vn -1 0 0
vn 0 1 0
g decals decal_base o200 DD_B2
f 1/1/1 2/2/2 3/3/2 4/4/1
g decal_base o200 DD_B2
f 5/5/3 6/6/4 7/7/3
g decals decal_base DD_B2_front DD_B2
f 8/8/5 9/9/5 1/1/1 4/4/1
f 10/3/5 11/2/5 12/9/5 13/8/5
g decal_base DD_B2_front DD_B2
f 14/10/5 15/11/5 16/12/5 17/13/5 18/14/5 19/15/5 20/16/5 5/5/3 7/7/3 21/17/5 22/18/5 23/19/5 24/20/5 25/21/5 26/22/5 27/23/5 28/24/5 29/25/5
g o202 DD_B2
f 30/9/6 7/8/6 6/3/6 31/2/6
f 31/26/7 6/27/7 5/9/7 32/8/7
g o203 DD_B2
f 33/28/8 24/29/8 23/30/9 34/31/9
f 35/32/10 25/33/10 24/29/8 33/28/8
f 36/34/11 26/35/11 25/33/10 35/32/10
f 37/36/12 27/37/12 26/35/11 36/34/11
f 38/38/13 28/9/13 27/37/12 37/36/12
f 34/31/9 23/30/9 22/39/14 39/40/15
f 40/41/16 21/42/16 7/43/17 30/44/17
f 41/45/14 22/39/14 21/46/16 40/47/16
f 42/48/15 39/40/15 41/45/14 43/49/15
g o204 DD_B2
f 44/50/18 14/51/18 29/9/19 45/38/19
f 46/34/20 15/35/20 14/51/18 44/50/18
f 47/52/21 16/53/21 15/35/20 46/34/20
f 48/54/22 17/55/22 16/53/21 47/52/21
f 49/56/23 18/57/23 17/55/22 48/54/22
f 50/58/24 20/59/24 19/60/25 51/61/25
f 32/62/26 5/63/26 20/64/24 50/65/24
f 52/66/27 19/60/25 18/57/23 49/56/23
f 51/61/25 52/66/27 53/48/27 54/49/27
g DD_B2_camera_collisions DD_B2
f 55//5 56//5 57//5 58//5
f 59//28 60//28 56//28 55//28
f 58//29 57//29 61//29 62//29
g bldg_back DD_B2
f 63/67/30 41/18/30 40/17/30 30/7/30 32/5/30 50/16/30 51/15/30 64/68/30
f 30/7/30 31/6/30 32/5/30
