v 0.997802779430479 0.0317157825403821 1.63139483434322
v 0.997802779430479 0.0317156573862723 3.11317794279164
v -1.14316151836726 0.0317156573862723 3.11317794279164
v -1.14316151836726 0.0317157825403821 1.63139483434322
v -0.398289656701676 -0.499999992490753 0.206627620486763
v 0.42038373746897 -0.499999992490753 0.206627620486763
v 0.42038373746897 0.797353328995192 0.20662765177529
v -0.398289656701676 0.797353328995192 0.20662765177529
v 0.42038373746897 -0.499999992490753 0
v -0.398289656701676 -0.499999992490753 0
v 0.42038373746897 0.797353391572246 0
v -0.398289656701676 0.797353391572246 0
v -0.747814787525154 -0.948131923779503 -2.15140379901801e-16
v 0.748805161362342 -0.947478900094083 -2.15140379901801e-16
v 0.747814787562766 1.32229051010512 2.15140379901801e-16
v -0.748805161324731 1.3216374864197 2.15140379901801e-16
v 0.999760919900024 -0.499999992490753 0.0140820986899601
v 0.999760919900024 -0.499999992490753 3.12289391520835
v -1.12673022855326 -0.499999992490753 3.12289391520835
v -1.12673022855326 -0.499999992490753 0.0140820986899601
v -1.12673022855326 0.797353391572246 3.12289391520835
v -1.12673022855326 0.797353391572246 0.0140820986899601
v 0.999760919900024 0.797353391572246 3.12289391520835
v 0.999760919900024 0.797353391572246 0.0140820986899601
v -0.0947897796413358 0.0110517830024419 0.114577351980232
v 0.101036569721984 0.0110517830024419 0.114577351980232
v 0.101036569721984 0.0110517830024419 1.85982489539271
v -0.0947897796413358 0.0110517830024419 1.77279095352786
v -0.0947897796413358 0.10533093869467 1.98993458600915
v 0.101036569721984 0.10533093869467 2.10237706745472
v 0.101036569721984 0.10533093869467 1.85982489539271
v -0.0947897796413358 0.10533093869467 1.77279095352786
v 0.101036569721984 0.10533093869467 0.114577351980232
v -0.0947897796413358 0.10533093869467 0.114577351980232
v 0.101036569721984 0.0110517830024419 2.10237706745472
v -0.0947897796413358 0.0110517830024419 1.98993458600915
vt 1 -4.69124872282123e-09
vt 1 1
vt 0.00191794300917536 1
vt 0.00191794312559068 -4.69124872282123e-09
vt 0.771007001399994 1.71032869815826
vt 0.204103693366051 1.71032869815826
vt 0.204103693366051 0.0239057019352913
vt 0.771007001399994 0.0239057019352913
vt -0.994088411331177 -0.00280351378023624
vt -0.994088411331177 0.354478567838669
vt 0.00591158214956522 0.354478567838669
vt 0.00591158214956522 -0.00280351378023624
vt 0.00883233919739723 0.219367668032646
vt 0.0145904431119561 0.574787020683289
vt 0.990732729434967 0.574787020683289
vt 0.98497462272644 0.219367668032646
vt 0 0
vt 1 0
vt 0 1
vt 0.0186502560973167 0.653973698616028
vt 0.0186502635478973 0.39818674325943
vt 0.886075258255005 0.398187130689621
vt 0.847737014293671 0.653974652290344
vt 0.943388402462006 0.652490139007568
vt 0.992918968200684 0.396703213453293
vt 0.886075139045715 0.396703451871872
vt 0.84773725271225 0.652490258216858
vt 0.0186504721641541 0.297218978404999
vt 0.018650233745575 0.0460771769285202
vt 0.895214796066284 0.0460772514343262
vt 0.895215034484863 0.297219038009644
vt 0.0186504721641541 0.297219097614288
vt 0.0186502933502197 0.0460772514343262
vt 0.893062770366669 0.0460764169692993
vt 0.893062949180603 0.297218441963196
vt 0.992918729782104 0.398187100887299
vt 0.943388044834137 0.653974652290344
vt 0.0186504721641541 0.396703600883484
vt 0.0186502635478973 0.65249115228653
vt 1.00205838680267 0.0460772216320038
vt 1.00205850601196 0.297219097614288
vt 1.00205826759338 0.0460764169692993
vt 1.00205862522125 0.297218322753906
vn 0 -0.999999999999997 -8.44618242012981e-08
vn 0 -3.09279570842591e-08 1
vn 0 -1 0
vn 0.999999999999993 0 1.22538750702005e-07
vn 0 0.999999999999954 3.02849372246769e-07
vn -1 0 0
vn 0 0 1
vn 0 1 0
vn 1 0 0
vn 0 0.999999999999997 8.44618242012981e-08
vn -8.5653130250245e-09 -1 0
vn 1.7130626050049e-08 1 0
vn 8.5653130250245e-09 1 0
vn -1.7130626050049e-08 -1 0
g sign sign
f 1/1/1 2/2/1 3/3/1 4/4/1
g stand sign
f 5/5/2 6/6/2 7/7/2 8/8/2
f 9/9/3 6/10/3 5/11/3 10/12/3
f 11/13/4 7/14/4 6/15/4 9/16/4
f 12/12/5 8/11/5 7/10/5 11/9/5
f 10/16/6 5/15/6 8/14/6 12/13/6
g drop_shadow sign
f 13/17/7 14/18/7 15/2/7 16/19/7
g collision sign
f 17//3 18//3 19//3 20//3
f 20//6 19//6 21//6 22//6
f 22//8 21//8 23//8 24//8
f 24//9 23//9 18//9 17//9
g sign1 sign
f 1/1/10 4/4/10 3/3/10 2/2/10
g poll sign
f 25/20/3 26/21/3 27/22/11 28/23/11
f 29/24/12 30/25/12 31/26/13 32/27/13
f 26/28/9 33/29/9 31/30/9 27/31/9
f 34/32/6 25/33/6 28/34/6 32/35/6
f 28/23/11 27/22/11 35/36/14 36/37/14
f 32/27/13 31/26/13 33/38/8 34/39/8
f 27/31/9 31/30/9 30/40/9 35/41/9
f 32/35/6 28/34/6 36/42/6 29/43/6
