v -0.376336354874854 -0.376336354874854 -8.35634572371134e-17
v 0.376336354874854 -0.376336354874854 -8.35634572371134e-17
v 0.376336354874854 0.376336354874854 8.35634572371134e-17
v -0.376336354874854 0.376336354874854 8.35634572371134e-17
v -0.578117495759578 -0.0185062879026718 0.881074357220507
v -0.14521906695028 -0.0185062879026718 0.881074357220507
v -0.14521906695028 -0.0185062879026718 1.31397272345275
v -0.578117495759578 -0.0185062879026718 1.31397272345275
v -0.0769190900907742 -0.0632067990741079 0.934862527321643
v 0.32091732100239 -0.0632067990741079 0.934862527321643
v 0.32091732100239 -0.0632068303626353 1.33269890712628
v -0.0769190900907742 -0.0632068303626353 1.33269890712628
v 0.0149781935484078 0 0.542891369717015
v 0.210189694181828 0 0.542891369717015
v 0.210189694181828 0 1.06223837284278
v 0.0149781935484078 0 1.06223837284278
v -0.127247030653666 -0.00172743960002589 0.710487052837382
v -0.194797365684209 0.00031510675985982 0.910019937149809
v -0.422955748290215 0.00172743960002589 0.832764182503768
v -0.355405381971144 -0.000315106759859819 0.633231298191341
v -0.0524400726078064 0 0.56264544409404
v 0.0832099301295643 0 0.703025615121436
v -0.290262229799286 0 1.06391331029376
v -0.425912138671074 0 0.923533076689313
v -0.127263269399408 0 0.543163517328698
v 0.0195189723818321 0 0.543163517328698
v 0.0195189723818321 0 1.43255048536566
v -0.127263269399408 0 1.43255048536566
v -0.283319806176534 -0.0420412366471578 1.17098265119738
v 0.106780547795333 -0.0420412366471578 1.24700601332457
v 0.030757091802562 -0.0420412053586304 1.63710649245055
v -0.359343230880777 -0.0420412053586304 1.56108300516925
v 0.104344978420127 0.106922785441081 0.00409651572114526
v 0.00137358236559263 0.149574789788154 0.00409651572114526
v 0.00137358236559263 0.109592854507326 0.0417108767301705
v 0.0760736662571824 0.0786507536420046 0.0428728505069502
v -0.101597806600135 0.106922785441081 0.00409651572114526
v -0.073326502259322 0.0786507536420046 0.0417108767301705
v -0.144250546227603 0.00395066449491996 0.00409651572114526
v -0.104267875666381 0.00395066449491996 0.0417108767301705
v -0.101597806600135 -0.0990207270374448 0.00409651572114526
v -0.073326502259322 -0.0707486952383687 0.0417108767301705
v 0.00137358236559263 -0.141672731384518 0.00409651572114526
v 0.00137358236559263 -0.10169079610369 0.0417108767301705
v 0.104344978420127 -0.0990207270374448 0.00409651572114526
v 0.0760736662571824 -0.0707486952383687 0.0417108767301705
v 0.146997710225463 0.00395066449491996 0.00409651572114526
v 0.107015047486373 0.00395066449491996 0.0417108767301705
v 0.00137358236559263 0.246783566912954 0.158529237812273
v 0.173081766589107 0.175659597076456 0.158529237812273
v -0.170334602591247 0.175659597076456 0.158529237812273
v -0.241458603716272 0.00395066449491996 0.158529237812273
v -0.170334602591247 -0.167757523028556 0.158529237812273
v 0.00137358236559263 -0.238881508509318 0.158529237812273
v 0.173081766589107 -0.167757523028556 0.158529237812273
v 0.244205783358396 0.00395066449491996 0.158529237812273
v -0.00832140582596536 0.311391653977041 0.25932213139972
v 0.209072443443959 0.221344492253982 0.25932213139972
v -0.225715264873555 0.221344492253982 0.25932213139972
v -0.315762379663823 0.00395066449491996 0.25932213139972
v -0.225715264873555 -0.213442433850346 0.25932213139972
v -0.00832141071479777 -0.303490299565273 0.25932213139972
v 0.209072443443959 -0.213442433850346 0.25932213139972
v 0.299119573878491 0.00395066449491996 0.25932213139972
v 0.18591511593716 0.198187180391447 0.376211032466938
v -0.00832141267033074 0.278642609363466 0.376211032466938
v -0.00832140289266591 0.115640496644448 0.533412009712279
v 0.0706550095650781 0.0829278092997593 0.533412009712279
v -0.20255795301102 0.198187180391447 0.376211032466938
v -0.0872978309946736 0.0829278092997593 0.533412009712279
v -0.283013366338775 0.00395066449491996 0.376211032466938
v -0.120011245797625 0.00395066449491996 0.533412009712279
v -0.194639358620631 -0.182366543241686 0.376363751769379
v -0.0872978309946736 -0.0750257430739916 0.533412009712279
v -0.00832141267033074 -0.270740566604094 0.376211032466938
v -0.00832141071479777 -0.10773843041868 0.533412009712279
v 0.18591511593716 -0.190285121987811 0.376211032466938
v 0.0706550095650781 -0.0750257430739916 0.533412009712279
v 0.266370529264916 0.00395066449491996 0.376211032466938
v 0.10336842436803 0.00395066449491996 0.533412009712279
v 0.0671945375407462 0.0786820265251821 0.601154800475113
v -0.0072379677197126 0.112425803825298 0.60107914481576
v -0.00832141071479777 0.195684348504374 0.678546722792578
v 0.127254336524823 0.139527136259504 0.678546722792578
v -0.082490677282879 0.0795029592639192 0.601124951219934
v -0.143897142310155 0.139527136259504 0.678546722792578
v -0.110028304765856 0.004249522731373 0.601219505149861
v -0.200054385843552 0.00395066449491996 0.678546722792578
v -0.082378703465299 -0.0708912144808631 0.601128643266172
v -0.143897142310155 -0.131625077855869 0.678546722792578
v -0.0072379677197126 -0.102441196679443 0.601117692281568
v -0.00832141071479777 -0.187782305745002 0.678546722792578
v 0.0703641435918533 -0.0733525890690761 0.601038407153032
v 0.127254336524823 -0.131625077855869 0.678546722792578
v 0.100938314840862 0.004249522731373 0.60107914481576
v 0.183411564413957 0.00395066449491996 0.678546722792578
v -0.00832141071479777 0.151340307526075 0.680995738412452
v 0.0958984839947518 0.108171291551565 0.680995738412452
v -0.112541305424347 0.108171291551565 0.680995738412452
v -0.155711017568593 0.00395066449491996 0.680995738412452
v -0.112541305424347 -0.100269233147929 0.680995738412452
v -0.00832141071479777 -0.143438233478176 0.680995738412452
v 0.0958984839947518 -0.100269233147929 0.680995738412452
v 0.139068211783261 0.00395066449491996 0.680995738412452
v -0.00832141071479777 0.00395066449491996 0.443954511577376
v 0.258703244326934 0.187958945126671 -0.0135707104299951
v 0.0988158262933646 0.304123954823011 -0.0135707104299951
v 0.0988158262933646 0.304123954823011 1.25914646258817
v 0.258703244326934 0.187958945126671 1.25914646258817
v -0.0988158888704195 0.304123923534483 -0.0135707104299951
v -0.0988158888704195 0.304123923534483 1.25914646258817
v -0.258703291259726 0.187958882549616 -0.0135707104299951
v -0.258703291259726 0.187958882549616 1.25914646258817
v -0.319774820422876 -1.90600608495367e-08 -0.0135707104299951
v -0.319774820422876 -1.90600608495367e-08 1.25914646258817
v -0.258703244326934 -0.187958929482407 -0.0135707104299951
v -0.258703244326934 -0.187958929482407 1.25914646258817
v -0.0988158341154965 -0.304123923534483 -0.0135707104299951
v -0.0988158341154965 -0.304123923534483 1.25914646258817
v 0.098815857581892 -0.304123892245956 -0.0135707104299951
v 0.098815857581892 -0.304123892245956 1.25914646258817
v 0.258703228682671 -0.187958882549616 -0.0135707104299951
v 0.258703228682671 -0.187958882549616 1.25914646258817
v 0.319774757845821 0 -0.0135707104299951
v 0.319774757845821 0 1.25914646258817
vt 0 0
vt 1 0
vt 1 1
vt 0 1
vt 0.190569996833801 0.922264993190765
vt 0.124935001134872 0.846127986907959
vt 0.155704006552696 0.831354022026062
vt 0.203317999839783 0.886587023735046
vt 0.124948002398014 0.738467991352081
vt 0.155713006854057 0.753252029418945
vt 0.190602004528046 0.662352025508881
vt 0.203341007232666 0.698035001754761
vt 0.283436000347137 0.662366986274719
vt 0.270687013864517 0.698046028614044
vt 0.349070996046066 0.738505005836487
vt 0.318300992250443 0.753278970718384
vt 0.349056988954544 0.846165001392365
vt 0.318291991949081 0.831380009651184
vt 0.283403992652893 0.92228102684021
vt 0.270664006471634 0.886597990989685
vt 0.207800999283791 0.184970006346703
vt 0.159721001982689 0.239656999707222
vt 0.054577998816967 0.18776099383831
vt 0.165096998214722 0.0620529986917973
vt 0.159068003296852 0.3177550137043
vt 0.0530770011246204 0.367278009653091
vt 0.206224992871284 0.373513013124466
vt 0.161475002765656 0.495447009801865
vt 0.273568004369736 0.374269992113113
vt 0.316271990537643 0.497186988592148
vt 0.321648001670837 0.319581985473633
vt 0.42679101228714 0.371479004621506
vt 0.322301000356674 0.241484999656677
vt 0.428292006254196 0.191962003707886
vt 0.275144010782242 0.185727000236511
vt 0.31989398598671 0.0637930035591125
vt 0.0075993575155735 0.171937003731728
vt 0.141824007034302 0.0127830002456903
vt 0.00569935748353601 0.399217993021011
vt 0.146171003580093 0.564077019691467
vt 0.3332200050354 0.563690006732941
vt 0.473087996244431 0.411298006772995
vt 0.475100994110107 0.170494005084038
vt 0.33780699968338 0.0149860000237823
vt 0.832723021507263 0.068451002240181
vt 0.949472010135651 0.217779994010925
vt 0.823248982429504 0.270186007022858
vt 0.775422990322113 0.209014996886253
vt 0.94097501039505 0.419110000133514
vt 0.819768011569977 0.352660000324249
vt 0.811679005622864 0.554313004016876
vt 0.767019987106323 0.408122986555099
vt 0.642656028270721 0.552837014198303
vt 0.69590300321579 0.404087007045746
vt 0.522316992282867 0.395673990249634
vt 0.648077011108398 0.342914998531342
vt 0.530350983142853 0.193991005420685
vt 0.651557981967926 0.26044100522995
vt 0.659116983413696 0.0585969984531403
vt 0.70430600643158 0.204978004097939
vt 0.755248010158539 0.918330013751984
vt 0.805158019065857 0.862022995948792
vt 0.876070976257324 0.893918991088867
vt 0.784982025623322 0.9941166639328
vt 0.80563497543335 0.779681026935577
vt 0.875912010669708 0.744343996047974
vt 0.754306018352509 0.720704019069672
vt 0.784597992897034 0.638707995414734
vt 0.684557974338531 0.721763014793396
vt 0.655619978904724 0.638891994953156
vt 0.632845997810364 0.779352009296417
vt 0.56453001499176 0.744789004325867
vt 0.632196009159088 0.86300402879715
vt 0.564688980579376 0.89436399936676
vt 0.684499979019165 0.917289972305298
vt 0.656002998352051 0.994300663471222
vt 0.84986400604248 0.846697986125946
vt 0.503166973590851 0.990305006504059
vt 0.503166973590851 0.876908004283905
vt 0.769680976867676 0.766514003276825
vt 0.156469002366066 0.846697986125946
vt 0.236652001738548 0.766514003276825
vt 0.0128619996830821 0.5
vt 0.126258999109268 0.5
vt 0.156469002366066 0.153301998972893
vt 0.236652001738548 0.233485996723175
vt 0.503166973590851 0.00969500001519918
vt 0.503166973590851 0.123092003166676
vt 0.849865019321442 0.153301998972893
vt 0.769680976867676 0.233485996723175
vt 0.993471026420593 0.5
vt 0.880074977874756 0.5
vt 0.503166973590851 0.5
vt 0.994300663471222 0.196802005171776
vt 0.992368459701538 0.449369013309479
vt 0.828041970729828 0.612689971923828
vt 0.615549027919769 0.611563980579376
vt 0.641026973724365 0.00569935748353601
vt 0.858815014362335 0.00824357103556395
vt 0.777783989906311 0.846843004226685
vt 0.777552008628845 0.793931007385254
vt 0.741680026054382 0.759445011615753
vt 0.699128985404968 0.7603719830513
vt 0.664493978023529 0.793366014957428
vt 0.664492011070251 0.848774015903473
vt 0.695837020874023 0.884461998939514
vt 0.74345201253891 0.884496986865997
vn 0 0 1
vn 0 -1 0
vn 0 -0.999999999999997 -7.86467211355555e-08
vn -0.00866268390678545 -0.99993580781941 0.00730329706878955
vn -1.94962055388714e-08 -0.999999999999997 7.72716433061757e-08
vn 0.487824977418156 0.487824660020475 0.723915666692526
vn -0.000954461420440936 0.688431421183086 0.725300811616279
vn -0.484517014913354 0.484516703933739 0.728345265563413
vn -0.685209467445015 -9.94569370841152e-07 0.72834606178844
vn -0.484516466176173 -0.484517561732305 0.728345059966178
vn -7.15585659525537e-09 -0.685210869854451 0.728344742435412
vn 0.484516459227965 -0.484517556919558 0.728345067789916
vn 0.688430033736849 -0.000955443684734205 0.72530212723833
vn 0.457624287405607 0.457622570462907 -0.762339553335279
vn 0.00117315469139918 0.647004938957825 -0.762484906520943
vn 0.00341172666100552 0.751765751263118 -0.659421424696674
vn 0.54406336243965 0.541324299219198 -0.641064006730769
vn -0.458427170562483 0.45842541329549 -0.761374198232995
vn -0.519705665218244 0.522549239798889 -0.675905550743345
vn -0.648313164865107 -6.87502641497687e-07 -0.761373784853482
vn -0.730750396902386 -6.18862673982994e-07 -0.682644751995225
vn -0.458426826478047 -0.45842601764902 -0.761374041524747
vn -0.5197053953365 -0.522549182576339 -0.675905802495387
vn 6.82153311373978e-10 -0.64831221972222 -0.761374589646153
vn 0.00281109974092975 -0.752322392417275 -0.658789128314816
vn 0.45842680766647 -0.458426038064012 -0.761374040559344
vn 0.544445889613423 -0.541706041075251 -0.640416456960334
vn 0.647005872989629 0.00117246519411623 -0.762484115009812
vn 0.774093445768118 0.000604067898350197 -0.633071064194862
vn 0.14502772355542 0.94534717579576 -0.292037115133184
vn 0.57888689812842 0.773193605679883 -0.258962559670308
vn -0.558691544175201 0.763594320071672 -0.323708932254597
vn -0.930871063497534 0.142410731678567 -0.336449471162825
vn -0.757949103218683 -0.573453031805991 -0.310909596575132
vn -0.144798218933862 -0.948965671692337 -0.280174284585671
vn 0.578887553750034 -0.773193135580149 -0.258962497680724
vn 0.959521041214663 -0.139684259788177 -0.244556085660854
vn 0.605408750125409 0.605409128909076 0.516681751085854
vn 1.14480820892408e-08 0.856177768667246 0.516681360646942
vn 0.00171276821771583 0.903513021371008 0.428557215127764
vn 0.640551531970534 0.640505485310261 0.423611211109513
vn -0.605408761674414 0.605409142617548 0.516681721491034
vn -0.640016649695999 0.629673716840998 0.440329079702387
vn -0.851521510715313 -0.0122043654934795 0.524177613268644
vn -0.894346518670738 -0.00810385221912591 0.447301500244234
vn -0.602795104239364 -0.602795836881269 0.522757344609968
vn -0.640179962600889 -0.632792138011667 0.435595828211138
vn -0.0122036291344869 -0.851521012433709 0.524178439865491
vn -0.0127981880382931 -0.904872533336143 0.42549019353772
vn 0.605408433413594 -0.605409112151302 0.516682141820163
vn 0.641344443420226 -0.644266728969117 0.416650557226839
vn 0.856177460701193 -6.53990810678762e-07 0.516681870967842
vn 0.908753890372863 0.00638392474358407 0.417283611273022
vn 0.500759180980412 0.696703557250864 -0.513657858868935
vn 0.152343050625666 0.841677521809647 -0.518044924892077
vn 0.00190625304401248 0.674456766731936 -0.738311882613869
vn 0.480687507717779 0.480173856434443 -0.733738773352578
vn -0.496810004261192 0.692902316133394 -0.522557365236558
vn -0.474823991418104 0.468428971205053 -0.745061390832699
vn -0.846106111619511 0.138808133629757 -0.514622920125343
vn -0.661473477243561 3.20892471866494e-05 -0.749968557923326
vn -0.707283685311034 -0.486558073342222 -0.512846009790801
vn -0.471057931495078 -0.466303898370127 -0.748775733808462
vn -0.148119771990929 -0.846917903206929 -0.510676608405882
vn -0.00267226802616656 -0.675690513944824 -0.737180566990595
vn 0.489930715063423 -0.703787548599182 -0.514442398013808
vn 0.482238437802848 -0.483262422167843 -0.730687019472728
vn 0.843074055159814 -0.137682310333846 -0.519874714654907
vn 0.682708716294059 0.00459025728484473 -0.73067621983624
vn 0.0389926638140254 0.038992556944565 0.998478418731027
vn -1.46744855868428e-09 0.0551437246426892 0.99847842722441
vn -0.038992665281648 0.0389925586886992 0.998478418605601
vn -0.0551441122128421 -5.93041769330887e-08 0.998478405819702
vn -0.038992636645728 -0.0389926082439371 0.998478417788662
vn -1.46744778452668e-09 -0.055143705247488 0.998478428295563
vn 0.0389926351781062 -0.0389926064998042 0.998478417914087
vn 0.0551441122128423 -5.93041769417646e-08 0.998478405819702
vn -0.600489296243494 -0.600491210948637 0.528036845940161
vn 0 -0.849221562536923 0.528036682174967
vn -0.311466906570561 -0.751948647796713 0.581000513930978
vn 0.60048933634997 -0.60049117084233 0.528036845940111
vn 0.849221620655542 1.0954071094994e-06 0.528036588703827
vn 0.600489018119095 0.600492660879079 0.528035513340464
vn 0 0.849222759476344 0.528034757177389
vn -0.600488978012435 0.600492700985562 0.528035513340387
vn -0.849221595522946 1.09540739361298e-06 0.528036629123645
vn -0.801105166206246 0.331828073055047 0.498117097287613
vn -0.370473776845093 0.894401429742567 0.250589830489158
vn -0.894401569789748 0.370473224345618 0.250590147453159
vn -0.875334322664923 -0.386746138428109 0.290202081273871
vn -0.38674698434956 -0.875333983118975 0.290201978100756
vn 0.370472898436129 -0.894401765573961 0.250589930489067
vn 0.894401569789748 -0.370473224345618 0.250590147453159
vn 0.894401236540387 0.370474093597584 0.25059005177396
vn -0.390818923446227 0.918373762937242 0.0620499848897847
vn -0.925835671074608 0.361749962624042 0.109385898119158
vn -0.925080786867816 -0.362390909791956 0.113570974584974
vn -0.383585906951009 -0.919939772900017 0.0810719817522493
vn 0.366777075816182 -0.929185170105454 0.0457110086503142
vn 0.926860719390904 -0.374630885977794 0.0241019941429833
vn 0.916395260374143 0.396956125745219 0.051435017227102
vn 0.809017065822217 0.58778515395373 0
vn 0.309016920651714 0.951056540249281 0
vn -0.309017154252299 0.951056464347838 0
vn -0.809017075015817 0.587785141299823 0
vn -0.999999999999994 -1.060368203335e-07 0
vn -0.809016949388506 -0.587785314210993 0
vn -0.309016901261297 -0.951056546549608 0
vn 0.309017137597033 -0.951056469759465 0
vn 0.809017055963612 -0.587785167522939 0
vn 0.999999999999996 -8.65649238694464e-08 0
vn 0 -8.53951021007049e-10 -1
vn 0 -1.91285053574571e-07 0.999999999999982
g pPlane16 vaseA
f 1/1/1 2/2/1 3/3/1 4/4/1
g pPlane4 group1 vaseA
f 5/1/2 6/2/2 7/3/2 8/4/2
g pPlane5 group1 vaseA
f 9/1/3 10/2/3 11/3/3 12/4/3
g pPlane8 group1 vaseA
f 13/1/2 14/2/2 15/3/2 16/4/2
g pPlane10 group1 vaseA
f 17/1/4 18/4/4 19/3/4 20/2/4
g pPlane12 group1 vaseA
f 21/1/2 22/2/2 23/3/2 24/4/2
g pPlane14 group1 vaseA
f 25/1/2 26/2/2 27/3/2 28/4/2
g pPlane15 group1 vaseA
f 29/1/5 30/2/5 31/3/5 32/4/5
g vaseA_v7s1_pSphere1 vaseA
f 33/5/6 34/6/7 35/7/7 36/8/6
f 34/6/7 37/9/8 38/10/8 35/7/7
f 37/9/8 39/11/9 40/12/9 38/10/8
f 39/11/9 41/13/10 42/14/10 40/12/9
f 41/13/10 43/15/11 44/16/11 42/14/10
f 43/15/11 45/17/12 46/18/12 44/16/11
f 45/17/12 47/19/13 48/20/13 46/18/12
f 47/19/13 33/5/6 36/8/6 48/20/13
f 36/21/14 35/22/15 49/23/16 50/24/17
f 35/22/15 38/25/18 51/26/19 49/23/16
f 38/25/18 40/27/20 52/28/21 51/26/19
f 40/27/20 42/29/22 53/30/23 52/28/21
f 42/29/22 44/31/24 54/32/25 53/30/23
f 44/31/24 46/33/26 55/34/27 54/32/25
f 46/33/26 48/35/28 56/36/29 55/34/27
f 48/35/28 36/21/14 50/24/17 56/36/29
f 50/24/17 49/23/16 57/37/30 58/38/31
f 49/23/16 51/26/19 59/39/32 57/37/30
f 51/26/19 52/28/21 60/40/33 59/39/32
f 52/28/21 53/30/23 61/41/34 60/40/33
f 53/30/23 54/32/25 62/42/35 61/41/34
f 54/32/25 55/34/27 63/43/36 62/42/35
f 55/34/27 56/36/29 64/44/37 63/43/36
f 56/36/29 50/24/17 58/38/31 64/44/37
f 65/45/38 66/46/39 67/47/40 68/48/41
f 66/46/39 69/49/42 70/50/43 67/47/40
f 69/49/42 71/51/44 72/52/45 70/50/43
f 71/51/44 73/53/46 74/54/47 72/52/45
f 73/53/46 75/55/48 76/56/49 74/54/47
f 75/55/48 77/57/50 78/58/51 76/56/49
f 77/57/50 79/59/52 80/60/53 78/58/51
f 79/59/52 65/45/38 68/48/41 80/60/53
f 81/61/54 82/62/55 83/63/56 84/64/57
f 82/62/55 85/65/58 86/66/59 83/63/56
f 85/65/58 87/67/60 88/68/61 86/66/59
f 87/67/60 89/69/62 90/70/63 88/68/61
f 89/69/62 91/71/64 92/72/65 90/70/63
f 91/71/64 93/73/66 94/74/67 92/72/65
f 93/73/66 95/75/68 96/76/69 94/74/67
f 95/75/68 81/61/54 84/64/57 96/76/69
f 84/77/70 83/78/71 97/79/71 98/80/70
f 83/78/71 86/81/72 99/82/72 97/79/71
f 86/81/72 88/83/73 100/84/73 99/82/72
f 88/83/73 90/85/74 101/86/74 100/84/73
f 90/85/74 92/87/75 102/88/75 101/86/74
f 92/87/75 94/89/76 103/90/76 102/88/75
f 94/89/76 96/91/77 104/92/77 103/90/76
f 96/91/77 84/77/70 98/80/70 104/92/77
f 98/80/78 97/79/79 105/93/80
f 97/79/79 99/82/81 105/93/80
f 99/82/81 100/84/82 105/93/82
f 100/84/82 101/86/83 105/93/82
f 101/86/83 102/88/84 105/93/84
f 102/88/84 103/90/85 105/93/84
f 103/90/85 104/92/86 105/93/87
f 104/92/86 98/80/78 105/93/80
f 57/94/88 59/95/32 69/49/42 66/46/39
f 59/95/89 60/96/33 71/51/44 69/49/42
f 60/96/90 61/97/34 73/53/46 71/51/44
f 61/97/91 62/42/35 75/55/48 73/53/46
f 62/42/92 63/43/36 77/57/50 75/55/48
f 63/43/93 64/98/37 79/59/52 77/57/50
f 64/98/94 58/99/94 65/45/38 79/59/52
f 58/99/31 57/94/30 66/46/39 65/45/38
f 67/100/40 70/101/43 85/65/58 82/62/95
f 70/101/43 72/102/45 87/67/60 85/65/96
f 72/102/45 74/103/47 89/69/62 87/67/97
f 74/103/47 76/104/49 91/71/64 89/69/98
f 76/104/49 78/105/51 93/73/66 91/71/99
f 78/105/51 80/106/53 95/75/68 93/73/100
f 80/106/53 68/107/41 81/61/101 95/75/101
f 68/107/41 67/100/40 82/62/55 81/61/54
g pCylinder1
f 106//102 107//103 108//103 109//102
f 107//103 110//104 111//104 108//103
f 110//104 112//105 113//105 111//104
f 112//105 114//106 115//106 113//105
f 114//106 116//107 117//107 115//106
f 116//107 118//108 119//108 117//107
f 118//108 120//109 121//109 119//108
f 120//109 122//110 123//110 121//109
f 122//110 124//111 125//111 123//110
f 124//111 106//102 109//102 125//111
f 106//112 124//112 122//112 120//112 118//112 116//112 114//112 112//112 110//112 107//112
f 109//113 108//113 111//113 113//113 115//113 117//113 119//113 121//113 123//113 125//113
