v -0.718768124818176 -1.28681466856344e-32 -0.718768124818176
v 0.718768124818176 -1.28681466856344e-32 -0.718768124818176
v 0.718768124818176 -1.28681466856344e-32 0.718768124818176
v -0.718768124818176 -1.28681466856344e-32 0.718768124818176
v -0.0887349678149686 -0.0323626156554135 -0.571197599876584
v 0.0929839341972131 -0.0323626156554135 -0.571197599876584
v 0.0929839341972131 -0.0323626156554135 -0.386236846603434
v -0.0887349678149686 -0.0323626156554135 -0.386236846603434
v -0.033177314155058 -0.0651710146055447 -0.513932460875023
v 0.0341454828818013 -0.0651710146055447 -0.513932460875023
v 0.0341454828818013 -0.0651710146055447 -0.446782806726891
v -0.033177314155058 -0.0651710146055447 -0.446782806726891
v -0.374169080589074 -0.0328083989501312 -0.0317499471774564
v 0.374169080589074 -0.0328083989501312 -0.0317499471774564
v 0.374169080589074 -0.0328083989501312 0.484170938727111
v -0.374169080589074 -0.0328083989501312 0.484170938727111
v -0.466031540097214 -0.0323626156554135 -0.571197599876584
v -0.284312653729296 -0.0323626156554135 -0.571197599876584
v -0.284312653729296 -0.0323626156554135 -0.386236846603434
v -0.466031540097214 -0.0323626156554135 -0.386236846603434
v -0.410473909903699 -0.0651710146055447 -0.513932460875023
v -0.343151105044708 -0.0651710146055447 -0.513932460875023
v -0.343151105044708 -0.0651710146055447 -0.446782806726891
v -0.410473909903699 -0.0651710146055447 -0.446782806726891
vt 0 0
vt 1 0
vt 1 1
vt 0 1
vn 0 -1 0
g ConfirmBuyAccessoryPanel
f 1/1/1 2/2/1 3/3/1 4/4/1
g CheckButtonDown ConfirmBuyAccessoryPanel
f 5/1/1 6/2/1 7/3/1 8/4/1
g CheckButtonUp ConfirmBuyAccessoryPanel
f 5/1/1 6/2/1 7/3/1 8/4/1
g CheckIcon ConfirmBuyAccessoryPanel
f 9/1/1 10/2/1 11/3/1 12/4/1
g CheckButtonRollover ConfirmBuyAccessoryPanel
f 5/1/1 6/2/1 7/3/1 8/4/1
g KartViewerFrame ConfirmBuyAccessoryPanel
f 13//1 14//1 15//1 16//1
g CancelButtonDown ConfirmBuyAccessoryPanel
f 17/1/1 18/2/1 19/3/1 20/4/1
g CancelButtonUp ConfirmBuyAccessoryPanel
f 17/1/1 18/2/1 19/3/1 20/4/1
g CancelIcon ConfirmBuyAccessoryPanel
f 21/1/1 22/2/1 23/3/1 24/4/1
g CancelButtonRollover ConfirmBuyAccessoryPanel
f 17/1/1 18/2/1 19/3/1 20/4/1
