v -0.468508968028688 -0.5 0
v -0.468508968028688 -2.5 0
v -0.468508968028688 -2.4527186660464 0.333333333333333
v -0.468508968028688 -2.298946530474 0.666666666666667
v -0.468508968028688 -2 1
v -0.468508968028688 -1 1
v -0.468508968028688 -0.714424959575773 0.666666666666667
v -0.468508968028688 -0.580710059078032 0.333333333333333
v 0 -2.2 2.5
v -0.468508968028688 -2.2 2.5
v -0.468508968028688 -2.5 2.5
v 0 -2.5 2.5
v 0 -2 1
v 0 -1 1
v 0 -0.5 0
v 0 -0.580710059078032 0.333333333333333
v 0 -0.714424959575773 0.666666666666667
v 0 -2.298946530474 0.666666666666667
v 0 -2.4527186660464 0.333333333333333
v 0 -2.5 0
v 2.71936008285883 -0.5 0
v 2.71936008285883 -2.5 0
v 2.71936008285883 -2.4527186660464 0.333333333333333
v 2.71936008285883 -2.298946530474 0.666666666666667
v 2.71936008285883 -2 1
v 2.71936008285883 -1 1
v 2.71936008285883 -0.714424959575773 0.666666666666667
v 2.71936008285883 -0.580710059078032 0.333333333333333
v 3.18786905088752 -2.2 2.5
v 2.71936008285883 -2.2 2.5
v 2.71936008285883 -2.5 2.5
v 3.18786905088752 -2.5 2.5
v 3.18786905088752 -2 1
v 3.18786905088752 -1 1
v 3.18786905088752 -0.5 0
v 3.18786905088752 -0.580710059078032 0.333333333333333
v 3.18786905088752 -0.714424959575773 0.666666666666667
v 3.18786905088752 -2.298946530474 0.666666666666667
v 3.18786905088752 -2.4527186660464 0.333333333333333
v 3.18786905088752 -2.5 0
v 3.83574556007418 -1.83677764903255 1.3055674586959
v -0.86822617705229 -1.83677764903255 1.3055674586959
v -0.888441276233046 -1.89720373449891 1.62453553261747
v 3.76664971703723 -1.89241466234499 1.72101181609576
v 3.78324851723448 -2.00910777379212 1.71844538231749
v -0.905696293892852 -2.02743760325955 1.62093068002435
v -0.86822617705229 -1.97799875046624 1.26225040282884
v 3.83574556007418 -1.97799875046624 1.26225040282884
v -0.956644097614064 -1.99242443200324 2.31402371374503
v 3.747102494297 -1.94692636593419 2.32207287545463
v 3.76731759345918 -1.88650027671275 1.86208414760885
v -0.88777339981635 -1.89128934780633 1.72295422666374
v -0.903238023942038 -2.00379416865289 1.68610741587417
v 3.78583803624332 -2.01198756910524 1.82204257440649
v 3.74854766243284 -2.0977494689752 2.33287488830463
v -0.955198929478222 -2.14324753504425 2.32482572659503
v -0.851985868563238 -1.79110914860534 1.16392312808648
v 3.85198586856324 -1.79110914860534 1.16392312808648
v 3.96850896802869 -0.758347749710083 1.16392312808648
v -0.968508968028688 -0.758347749710083 1.16392312808648
v 3.85198586856324 -1.79110914860534 1
v -0.851985868563238 -1.79110914860534 1
v 3.96850896802869 -0.758347749710083 1
v -0.968508968028688 -0.758347749710083 1
v -2 -3 0
v 5 -3 0
v 5 0 0
v -2 0 0
v 3.99914209578184 -0.5 0
v 3.99914209578184 -0.5 2.5
v 3.99914209578184 -2.5 2.5
v 3.99914209578184 -2.5 0
v -1.03415566124429 -0.5 0
v -1.03415566124429 -0.5 2.5
v -1.03415566124429 -2.5 0
v -1.03415566124429 -2.5 2.5
vt 0.986990571022034 0.017366174608469
vt 0.0226176641881466 0.017366174608469
vt 0.0470903404057026 0.139587044715881
vt 0.12291144579649 0.261807918548584
vt 0.26873368024826 0.384028792381287
vt 0.750920116901398 0.384028792381287
vt 0.886946320533752 0.261807918548584
vt 0.949747562408447 0.139587044715881
vt 0.675040125846863 0.654507696628571
vt 0.823576927185059 0.65523225069046
vt 0.679266750812531 0.268191069364548
vt 0.18414394557476 0.265775859355927
vt 0.00541668292135 0.00734587758779526
vt 0.0224333629012108 0.0932816043496132
vt 0.0656939372420311 0.179345324635506
vt 0.850226759910583 0.183172315359116
vt 0.949307560920715 0.0978029444813728
vt 0.995662331581116 0.0121763441711664
vt 0.0330649949610233 0.0044662463478744
vt 0.964892685413361 0.018902288749814
vt 0.986713409423828 0.995205044746399
vt 0.0087206345051527 0.980053842067719
vt 0.964892685413361 0.0189022868871689
vt 0.0330649949610233 0.00446624588221312
vt 0.987906515598297 0.966595709323883
vt 0.0588434599339962 0.980279207229614
vt 0.016823785379529 0.0458272024989128
vt 0.991914927959442 0.031465757638216
vt 0.0168200209736824 0.0467053689062595
vt 0.0586500205099583 1.02540743350983
vt 0 0
vt 1 0
vt 1 1
vt 0 1
vn -1 0 0
vn 0 0 1
vn 0 0.991227900682635 0.132163720091018
vn 0 0.417966219688355 0.908462568958912
vn 0 0.971915508720225 0.235330074382995
vn 0 0.952478218261217 0.304606703369999
vn 0 0.855158858515444 0.518366016153222
vn 1 0 0
vn 0 -0.994040436980623 -0.109011970202234
vn 0 -0.986987544620453 0.160796724979365
vn 0 -0.959220644827019 0.282658370719209
vn 0 -0.990089439601654 0.140438248313207
vn -0.0021119738076503 0.987778930343131 0.155847118474533
vn -0.0206883804026977 -0.024924258570675 0.99947524844341
vn -0.994498195250722 0.0757263375357788 -0.0723799795970784
vn 0 0.293247203126421 -0.956036650897094
vn 0.989147617857214 0.0384311197074031 0.14180986963337
vn 0.00295990209196619 -0.995177736034551 -0.0980434224247132
vn -0.0076903920325871 0.98845993567701 0.151287188591056
vn 0.0281094140512118 0.307630819647511 -0.951090500238909
vn 0.995538951773323 0.0646648919767041 0.0687069665151543
vn -0.00239762117517401 0.0714143664546254 0.997443852894279
vn -0.994426902890249 0.0614182023944122 -0.0856909518137524
vn 0.00683712203110049 -0.98142093505266 -0.191745148576682
vn 0 -1 0
vn 0.993695194703695 -0.112115387091981 0
vn 0 1 0
vn -0.993695194703695 -0.112115387091981 0
vn 0 0 -1
g bench_base_left bench
f 1/1/1 2/2/1 3/3/1 4/4/1 5/5/1 6/6/1 7/7/1 8/8/1
f 9/9/2 10/9/2 11/10/2 12/10/2
f 13/11/3 5/11/3 10/9/3 9/9/3
f 14/12/4 6/12/4 5/11/2 13/11/2
f 15/13/5 1/13/5 8/14/6 16/14/6
f 8/14/6 7/15/7 17/15/7 16/14/6
f 7/15/7 6/12/4 14/12/4 17/15/7
f 14/12/8 13/11/8 18/16/8 19/17/8 20/18/8 15/13/8 16/14/8 17/15/8
f 9/9/8 12/10/8 18/16/8 13/11/8
f 12/10/9 11/10/9 4/16/10 18/16/10
f 5/11/1 4/16/1 11/10/1 10/9/1
f 4/16/10 3/17/11 19/17/11 18/16/10
f 3/17/11 2/18/12 20/18/12 19/17/11
g bench_base_right bench
f 21/1/1 22/2/1 23/3/1 24/4/1 25/5/1 26/6/1 27/7/1 28/8/1
f 29/9/2 30/9/2 31/10/2 32/10/2
f 33/11/3 25/11/3 30/9/3 29/9/3
f 34/12/4 26/12/4 25/11/2 33/11/2
f 35/13/5 21/13/5 28/14/6 36/14/6
f 28/14/6 27/15/7 37/15/7 36/14/6
f 27/15/7 26/12/4 34/12/4 37/15/7
f 34/12/8 33/11/8 38/16/8 39/17/8 40/18/8 35/13/8 36/14/8 37/15/8
f 29/9/8 32/10/8 38/16/8 33/11/8
f 32/10/9 31/10/9 24/16/10 38/16/10
f 25/11/1 24/16/1 31/10/1 30/9/1
f 24/16/10 23/17/11 39/17/11 38/16/10
f 23/17/11 22/18/12 40/18/12 39/17/11
g backrest bench
f 41/19/13 42/20/13 43/21/13 44/22/13
f 45/22/14 44/22/14 43/21/14 46/21/14
f 46/21/15 43/21/15 42/20/15 47/23/15
f 47/23/16 42/20/16 41/19/16 48/24/16
f 48/24/17 41/19/17 44/22/17 45/22/17
f 45/22/18 46/21/18 47/23/18 48/24/18
g backrest2 bench
f 49/19/19 50/20/19 51/21/19 52/22/19
f 53/22/20 52/22/20 51/21/20 54/21/20
f 54/21/21 51/21/21 50/20/21 55/23/21
f 55/23/22 50/20/22 49/19/22 56/24/22
f 56/24/23 49/19/23 52/22/23 53/22/23
f 53/22/24 54/21/24 55/23/24 56/24/24
g seat bench
f 57/25/2 58/26/2 59/27/2 60/28/2
f 61/26/25 58/26/25 57/25/25 62/25/25
f 63/29/26 59/29/26 58/30/26 61/30/26
f 64/28/27 60/28/27 59/29/27 63/29/27
f 62/25/28 57/25/28 60/28/28 64/28/28
f 64/28/29 63/27/29 61/26/29 62/25/29
g bench_shadow bench
f 65/31/2 66/32/2 67/33/2 68/34/2
g bench_wall_collisions bench
f 69//8 70//8 71//8 72//8
f 73//27 74//27 70//27 69//27
f 75//1 76//1 74//1 73//1
f 72//25 71//25 76//25 75//25
