v -2.25211641607009 -1.0688752952836 -0.00881266406201941
v 2.26065993621906 -1.0688752952836 -0.00881266406201941
v 2.26065993621906 -1.0688752952836 1.11622247170276
v -2.25211641607009 -1.0688752952836 1.11622247170276
v 2.26065993621906 1.10912373059691 1.11622247170276
v -2.25211641607009 1.10912373059691 1.11622247170276
v 2.26065993621906 1.10912373059691 -0.00881266406201941
v -2.25211641607009 1.10912373059691 -0.00881266406201941
vt 0 0
vt 1 0
vt 1 1
vt 0 1
vt 1 2
vt 0 2
vt 1 3
vt 0 3
vt 2 0
vt 2 1
vt -1 0
vt -1 1
vn 0 -1 0
vn 0 0 1
vn 0 1 0
vn 1 0 0
vn -1 0 0
g MoneyStack
f 1/1/1 2/2/1 3/3/1 4/4/1
f 4/4/2 3/3/2 5/5/2 6/6/2
f 6/6/3 5/5/3 7/7/3 8/8/3
f 2/2/4 7/9/4 5/10/4 3/3/4
f 8/11/5 1/1/5 4/4/5 6/12/5
