v -75 75 35
v 75 75 35
v 75 -75 35
v -75 -75 35
v -75 -75 0
v 75 -75 0
v 75 75 0
v -75 75 0
v -26.9912876372588 -52.8457640303486 0
v -26.9912876372588 -52.8457640303486 8.1867346736145
v -21.533065009619 -52.8457640303486 8.1867346736145
v -21.533065009619 -52.8457640303486 0
v 55.4618611416783 -10.6354677092462 0
v 55.4618611416783 -10.6354677092462 4.37628520013007
v 60.9200837693181 -10.6354677092462 4.37628520013007
v 60.9200837693181 -10.6354677092462 0
v -0.40499900398132 -21.8328905105591 0
v -0.40499900398132 -21.8328905105591 11.6995666534569
v 8.18733394145966 -21.8328905105591 11.6995666534569
v 8.18733394145966 -21.8328905105591 0
v -52.9990130522657 -6.88315395639408 0
v -52.9990130522657 -6.88315395639408 5.45822262763977
v -47.5407904246259 -6.88315395639408 5.45822262763977
v -47.5407904246259 -6.88315395639408 0
v 49.6080467663301 17.5601462767625 0
v 49.6080467663301 17.5601462767625 7.43207231670922
v 57.0401190830393 17.5601462767625 7.43207231670922
v 57.0401190830393 17.5601462767625 0
v -59.6566557667177 20.3500685563597 0
v -59.6566557667177 20.3500685563597 8.34001905981978
v -53.2281690467791 20.3500685563597 8.34001905981978
v -53.2281690467791 20.3500685563597 0
v -26.185022809047 5.45822262763977 0
v -26.185022809047 5.45822262763977 7.08124361230787
v -19.1037791967392 5.45822262763977 7.08124361230787
v -19.1037791967392 5.45822262763977 0
v 2.72911131381988 10.9164452552795 0
v 2.72911131381988 10.9164452552795 5.45822262763977
v 8.18733394145966 10.9164452552795 5.45822262763977
v 8.18733394145966 10.9164452552795 0
v 42.8827128107613 42.3828449847717 0
v 42.8827128107613 42.3828449847717 7.43207231670922
v 50.3147851274705 42.3828449847717 7.43207231670922
v 50.3147851274705 42.3828449847717 0
v 9.30373055732791 56.9602159627554 0
v 9.30373055732791 56.9602159627554 8.59233294544097
v 17.8960635027689 56.9602159627554 8.59233294544097
v 17.8960635027689 56.9602159627554 0
v -38.985639941886 58.1085916859279 0
v -38.985639941886 58.1085916859279 7.8002823913036
v -33.5274173142462 58.1085916859279 7.8002823913036
v -33.5274173142462 58.1085916859279 0
v -4.29585188627243 -12.8875556588173 0
v 0.618465777333697 -13.8514997654155 0
v 0.38537570569226 -10.5872573907994 2.19487328524811
v -2.5085723789897 -10.0196090636086 2.19487328524811
v 0.218438286506208 -8.24943069020077 3.29230992787217
v -1.22853575583477 -7.96560652660535 3.29230992787217
v 2.85622568617283 -10.9763773596359 0
v 1.70314990049493 -8.89415255936968 2.19487328524811
v 0.877325383907542 -7.4028782744859 3.02399374441122
v 5.45412609068012 -8.35480902075614 0
v 3.23300397474326 -7.35036088929744 2.19487328524811
v 1.64225242103171 -6.63098243944978 3.02399374441122
v 9.70142627719212 -7.08818256505525 0
v 5.73415816972996 -6.60446869095035 2.19487328524811
v 2.89282951852506 -6.25803634027624 3.02399374441122
v 10.7545729204619 -3.58331098430389 0
v 6.354336172009 -4.54051656321411 2.19487328524811
v 3.20291851966458 -5.22606027640812 3.02399374441122
v 7.80324424093974 -1.15647480730549 0
v 4.61635491723135 -3.11139895482821 2.19487328524811
v 2.33392789227575 -4.51150147221517 3.02399374441122
v 2.78824854537755 2.4301531188848 0
v 1.6631194568255 -0.999302072216691 2.19487328524811
v 0.857310162072827 -3.45545303090941 3.02399374441122
v -2.85487028649921 -1.06890464582736 0
v -1.66000575668763 -3.05983055440475 2.19487328524811
v -0.804252444683737 -4.48571727200344 3.29230992787217
v -8.83690333930239 1.02449427152315 0
v -5.18271110068051 -1.82706779830397 2.19487328524811
v -2.56560511668018 -3.86933589395305 3.12071360803539
v -11.9820509501461 -4.54067683820439 0
v -7.03482863305919 -5.10429108266637 2.19487328524811
v -3.49166388286952 -5.50794753613425 3.12071360803539
v -11.3886226744178 -10.8861056694189 0
v -6.68537002262826 -8.8409932801193 2.19487328524811
v -3.31693457765405 -7.37629863486071 3.29230992787217
v 55.2197091656082 64.189434840322 2.11709103749102
v 53.3996696769531 63.4974636667563 2.11709103749102
v 55.331375100351 63.1204862613781 2.11709103749102
v 52.4527393247809 62.3301597100576 1.89275587608098
v 54.9429443178221 62.0788825025906 1.89275587608098
v 52.8709137126292 61.4416477024209 1.89275587608098
v 52.5468656889327 59.998014058943 2.11709103749102
v 55.4913610947997 60.8109567013759 2.11709103749102
v 54.4884816523603 59.3825952883165 2.11709103749102
v 52.8904121572544 64.7092972841602 0
v 53.0304940837331 64.3759571151274 1.05854551874551
v 55.8342972472692 65.4419510002123 1.05854551874551
v 56.0674997775854 65.9172123117545 0
v 51.2374366487807 62.6716343800816 0
v 51.5717310548987 62.5777046337934 1.05854551874551
v 51.9674079922894 61.1206347904717 0
v 52.2159361278476 61.2089361024621 1.05854551874551
v 51.4017450103067 58.6006067330716 0
v 51.7167343909396 58.9849928299118 1.05854551874551
v 54.7910583077897 57.5263227026071 0
v 54.7078282735526 58.036929281435 1.05854551874551
v 56.5416993686675 60.0196913306378 -3.12340572740063e-16
v 56.2527818698258 60.2373454117291 1.05854551874551
v 55.5843750008292 62.2330012020154 3.12340572740063e-16
v 55.4079360827916 62.1906076319909 1.05854551874551
v 56.2624254707341 64.0512399973612 0
v 56.0063206033791 63.7952167254989 1.05854551874551
v -49.6671379523965 -49.1620779617764 2.37258860336315
v -48.83404731312 -49.4266484200688 2.74661522782008
v -48.5603239015415 -48.9642032013609 2.74661522782008
v -49.1196911292393 -48.2371875243606 2.37258860336315
v -47.7932708984928 -49.6912188783612 2.37258860336315
v -46.4410224420529 -49.3182931259899 1.64594609846966
v -47.3659220044223 -48.4753067173694 1.64594609846966
v -48.2908215667917 -47.6323203087489 1.64594609846966
v -46.2472365359636 -48.3556039606992 1.64594609846966
v -47.2690290513776 -47.9939621347241 1.64594609846966
v -45.1266050212789 -47.3895448390413 1.93698807992101
v -46.5510423107187 -46.8384453541771 1.93698807992101
v -47.8716367124832 -46.2873458693128 1.56296145546408
v -44.9433165304553 -46.0046634003817 1.93698807992101
v -46.2150251636083 -45.73814492383 1.56296145546408
v -48.2104676452435 -50.9678132918859 9.28755271639742e-17
v -48.1242731158534 -50.6166593120993 1.37330761391004
v -49.5676358578518 -50.2090838212584 1.37330761391004
v -49.8459925490198 -50.5059752202476 9.28755271639742e-17
v -51.0109985998502 -49.8015083304174 1.37330761391004
v -51.4815174527962 -50.0441371486092 9.28755271639742e-17
v -45.6686932429319 -50.3168286299887 9.28755271639742e-17
v -45.881138534172 -50.0421605659015 1.37330761391004
v -45.3304177235991 -48.6363443062493 9.28755271639742e-17
v -45.5826079034199 -48.5591208055179 0.903552340311042
v -43.3742269187016 -46.9499773372584 9.28755271639742e-17
v -43.8562551480998 -47.0708895674864 0.903552340311042
v -45.4554587471417 -44.06726942925 9.28755271639742e-17
v -45.6929575252361 -44.5268786625614 0.903552340311042
v -43.995186330842 -45.23970263397 0.903552340311042
v -43.6354228270957 -44.9494419022002 9.28755271639742e-17
v -48.3472641592961 -45.02596265313 -3.12340572740063e-16
v -48.2449970443995 -45.3729324751079 0.903552340311041
v -48.8977297204038 -47.3737697572228 4.98091627068012e-16
v -48.7307869457465 -47.4448894912453 1.37330761391004
v -50.5258862505702 -48.429634838526 9.28755271639742e-17
v -50.1676470439067 -48.3766981817833 1.37330761391004
vt 1 1
vt 0 1
vt 0 0
vt 1 0
vt 0.566666662693024 0.699999988079071
vt 0.49040213227272 0.714959323406219
vt 0.494019418954849 0.664302051067352
vt 0.538930177688599 0.655492782592773
vt 0.496610075235367 0.628021657466888
vt 0.51906543970108 0.623617053031921
vt 0.455674678087234 0.670340716838837
vt 0.473569065332413 0.638027012348175
vt 0.486384928226471 0.6148841381073
vt 0.415358245372772 0.629656970500946
vt 0.449827492237091 0.614069104194641
vt 0.474514126777649 0.602905213832855
vt 0.349445044994354 0.610000431537628
vt 0.411012470722198 0.602493762969971
vt 0.455106616020203 0.597117483615875
vt 0.33310142159462 0.555608868598938
vt 0.401388019323349 0.570463597774506
vt 0.450294405221939 0.581102430820465
vt 0.378902643918991 0.517947137355804
vt 0.428359508514404 0.548285305500031
vt 0.463780134916306 0.570013284683228
vt 0.456729590892792 0.462286829948425
vt 0.474190294742584 0.515507996082306
vt 0.486695528030396 0.553624629974365
vt 0.544304311275482 0.516588151454926
vt 0.525761365890503 0.547485053539276
vt 0.512481093406677 0.56961315870285
vt 0.637138545513153 0.48410102725029
vt 0.580429673194885 0.528353989124298
vt 0.539815247058868 0.560047626495361
vt 0.685947597026825 0.570466041564941
vt 0.609172403812408 0.579212725162506
vt 0.554186582565308 0.585476994514465
vt 0.676738262176514 0.668939828872681
vt 0.603749215602875 0.637202024459839
vt 0.551474988460541 0.614471673965454
vt 0.0797668546438217 0.109858840703964
vt 0.108011774718761 0.120597437024117
vt 0.0780339315533638 0.126447692513466
vt 0.122707039117813 0.138712644577026
vt 0.0840619280934334 0.142612174153328
vt 0.116217456758022 0.152501329779625
vt 0.121246308088303 0.174904853105545
vt 0.0755511298775673 0.162288919091225
vt 0.0911146625876427 0.184455439448357
vt 0.115914858877659 0.101791173219681
vt 0.11374095082283 0.106964230537415
vt 0.0702291578054428 0.090421237051487
vt 0.0666101276874542 0.0830457285046577
vt 0.141567140817642 0.13341335952282
vt 0.136379271745682 0.134871035814285
vt 0.130238816142082 0.157483071088791
vt 0.126381948590279 0.156112745404243
vt 0.139017254114151 0.196591004729271
vt 0.134128987789154 0.19062577188015
vt 0.0864190235733986 0.213262662291527
vt 0.0877106562256813 0.205338627099991
vt 0.0592510923743248 0.174568444490433
vt 0.0637347623705864 0.171190708875656
vt 0.0741076618432999 0.140220433473587
vt 0.076845794916153 0.140878334641457
vt 0.063585102558136 0.112003467977047
vt 0.0675595551729202 0.11597665399313
vt 0.0938893109560013 0.11522813886404
vt 0.0930228531360626 0.123522564768791
vt 0.103384479880333 0.140662401914597
vt 0.100139692425728 0.147556751966476
vt 0.0983987152576447 0.168596893548965
vt 0.106180489063263 0.17968013882637
vt 0.0919850543141365 0.0986927300691605
vt 0.0912624895572662 0.092418447136879
vt 0.110919818282127 0.19798219203949
vt 0.112718135118484 0.204926833510399
vn 0 0 -1
vn 0 0 1
vn 0 1 0
vn -0.131027690014627 -0.549729066448204 0.82500284723837
vn 0.239142759095574 -0.529981356309746 0.813591115202371
vn 0.225096497191217 -0.454035123636508 0.862081013279277
vn -0.115858380256895 -0.48615490430861 0.866158325446875
vn 0.181268904254068 -0.168475907411227 0.968894964881381
vn -0.0936424221248596 -0.125079492414736 0.987717680997896
vn 0.5259235346195 -0.461707187526848 0.714304492999575
vn 0.46881118188208 -0.386529347681288 0.794236198572821
vn 0.296152398388515 -0.151060936391514 0.943119478340496
vn 0.369432440568346 -0.644948025371723 0.669000535444353
vn 0.311580006164531 -0.550956326534803 0.774186686794462
vn 0.142186280127864 -0.187461958523644 0.971926476565939
vn 0.374822139734889 -0.491823551492438 0.785886733417688
vn 0.301668103695367 -0.414196083275222 0.858742079912419
vn 0.113749120898751 -0.167207138548881 0.979337995950865
vn 0.417562464271797 0.139361484188192 0.897897524863572
vn 0.327786846007103 0.110218323152757 0.938300434203305
vn 0.158496796596571 0.0539732680141835 0.985883183652351
vn 0.323922375770891 0.422404117817277 0.846551271764416
vn 0.259613883265895 0.338564882378404 0.904419400519305
vn 0.0970107205690433 0.126525785117412 0.987208258573183
vn -0.0263583516366419 0.544990680684598 0.838027681682376
vn -0.0222030937290881 0.450286904124971 0.892607823516244
vn 0.0266802752025153 0.186690024008407 0.98205651459112
vn -0.0470662897899937 0.726976045496707 0.68504787689575
vn -0.0293122467224774 0.640925270396501 0.767043408132325
vn 0.0554105776332832 0.169711625608137 0.983934770205723
vn -0.0577858552071659 0.561375664022531 0.825541130884003
vn -0.0388368102584496 0.485167344480232 0.87355844110108
vn -0.0470690790820981 0.212231646729238 0.976085155056135
vn -0.395594347412099 0.087820939270727 0.914216929902965
vn -0.328204270734178 0.0783230394613169 0.941354055688606
vn -0.194039662468261 0.0586393585229925 0.9792395187191
vn -0.292599286178011 -0.301135764971136 0.907580800140333
vn -0.242196974604441 -0.190088671429958 0.951423629350485
vn -0.206926635202019 -0.115511093481308 0.971513538210726
vn 0.225850371701399 0.320026930036656 0.920094763409538
vn -0.251471079340831 0.267290202210354 0.930224835218618
vn 0.294562365343192 -0.0368700534647958 0.954920736019973
vn -0.374922817816339 -0.0199010207767139 0.92684239763441
vn -0.0243058949744808 -0.00822954443105165 0.99967069481302
vn -0.448966971877072 0.0141278991107447 0.893436657312789
vn -0.31366065360582 -0.0723566385345687 0.946774266253338
vn 0.206158438824168 -0.0981737705891532 0.973581331409909
vn 0.153323959123859 -0.39376293131752 0.906334660861439
vn -0.557397955115234 0.767927593735679 0.315586327987582
vn -0.512722421946316 0.690013516815351 0.510878718137304
vn -0.306477918015853 0.806105708587992 0.506226107930556
vn -0.3363204643909 0.884598303250173 0.323070251058194
vn -0.743613926904526 0.60322814262987 0.288364588070288
vn -0.761144312607646 0.266606385417551 0.591253220405286
vn -0.966173632802455 -0.10490493680064 0.235591734812919
vn -0.900390514007443 -0.0827115061398888 0.427148368880748
vn -0.878204872174773 -0.413323378491987 0.240665716878122
vn -0.95473647593084 0.214306773449099 0.206278618332093
vn -0.905733283455504 0.21910514433496 0.362822484097759
vn -0.276960668208766 -0.873797291051479 0.399713750597163
vn -0.243615764362733 -0.768595758864702 0.591533531432626
vn 0.956400743588169 -0.086751787635907 0.278875859489437
vn 0.888150418404101 -0.0562718936011722 0.456094626452843
vn 0.705728501753208 -0.495505269101228 0.506381091773865
vn 0.77449263190313 -0.543785859625492 0.323199786508483
vn 0.985936499903549 0.0244848467282867 0.165316999847662
vn 0.952921588814355 0.0207733217147035 0.302504404391842
vn 0.900912226424448 0.0166473216164949 0.43368194216723
vn 0.81512775502523 0.382844444801139 0.434737707212562
vn 0.970733469553132 -0.126178557257457 0.204341632512233
vn 0.927405667165789 -0.133360357371623 0.349476384882427
vn 0.859253273006003 -0.351904738729195 0.37127734604795
vn 0.961222252545183 0.100412483294656 0.256844533542308
vn 0.901806016874936 0.0942056650943144 0.421747792634769
vn -0.508559141360645 -0.029101822744281 0.86053511471147
vn -0.137215987870871 -0.243329309202768 0.960188845985791
vn 0.223114458447406 0.246032403159098 0.94323273640575
vn -0.285248150558287 0.546061423975171 0.787686748555088
vn 0.273439503942319 -0.339846246046558 0.899852969507709
vn 0.390547731724251 -0.0596846933381245 0.918645854846239
vn 0.228675344978598 0.228602186456325 0.946281473424428
vn -0.160767268657698 0.364904514151205 0.917059747715718
vn 0.30805025647962 -0.240978164773635 0.920344806898573
vn -0.0595015502686694 -0.0531453903264155 0.9968124863798
vn 0.320066614384448 -0.249244829323352 0.914020993966796
vn -0.0995524707846489 0.0379300697162135 0.994309114597666
vn -0.267227477446772 0.298372052477749 0.916277028849709
vn 0.174084484978486 0.262999160392489 0.948960501666229
vn -0.0770691988977703 0.504308543051695 0.860077456969041
vn -0.0109175142257051 -0.968606924555364 0.248357471372476
vn 0.0439076023956973 -0.863239609328584 0.502881198035972
vn -0.245159336633169 -0.852235047772151 0.462160494861239
vn -0.262806429743329 -0.930686504888963 0.254470843326168
vn -0.295046893920144 -0.826931930319348 0.478676208941276
vn -0.11849006235521 -0.779909372786569 0.614574222826436
vn 0.241680202968878 -0.943642130770795 0.22611989856551
vn 0.28923197166582 -0.796148961340785 0.531499480641601
vn 0.845530225075492 -0.474802563422873 0.244215405433106
vn 0.763564171138041 -0.427810775168578 0.483681400514778
vn 0.850249715551793 -0.0762126509568107 0.520833037583283
vn 0.961895527191129 -0.160788425217913 0.221142662292113
vn 0.85339965857554 -0.358502769010917 0.378397657702391
vn 0.759651851155972 -0.366832053391544 0.536994701686943
vn 0.0398153462070777 0.897226542836415 0.439771837475099
vn -0.000137124655511777 0.755060583108751 0.655655013732299
vn 0.584051789801398 0.427682090135999 0.68990690430426
vn 0.70422169967436 0.504270805570541 0.499782705139938
vn -0.709604469127938 0.637369975126192 0.300368127805357
vn -0.562920445893786 0.550224850168697 0.61674401971286
vn -0.804111852601318 0.577024574278484 0.142992199734148
vn -0.677044327495389 0.597272256797975 0.429973057139363
vn -0.711052187390715 0.684906810940021 0.15908314535126
vn -0.643121200623365 0.666077423747611 0.377804164723614
vn -0.843044691787808 0.4990019570191 0.200680578381437
vn -0.775698159959027 0.459139240951527 0.43299367438178
g water g2
f 1/1/1 2/2/1 3/3/1 4/4/1
g seafloor g2
f 5/1/2 6/2/2 7/3/2 8/4/2
g p7 o3 seaweed g2
f 9/4/3 10/1/3 11/2/3 12/3/3
g p7_1 o3_1 seaweed g2
f 13/4/3 14/1/3 15/2/3 16/3/3
g p7_2 o3_2 seaweed g2
f 17/4/3 18/1/3 19/2/3 20/3/3
g p7_3 o3_3 seaweed g2
f 21/4/3 22/1/3 23/2/3 24/3/3
g p7_4 o3_4 seaweed g2
f 25/4/3 26/1/3 27/2/3 28/3/3
g p7_6 o3_6 seaweed g2
f 29/4/3 30/1/3 31/2/3 32/3/3
g p7_7 o3_7 seaweed g2
f 33/4/3 34/1/3 35/2/3 36/3/3
g p7_8 o3_8 seaweed g2
f 37/4/3 38/1/3 39/2/3 40/3/3
g p7_9 o3_9 seaweed g2
f 41/4/3 42/1/3 43/2/3 44/3/3
g p7_10 o3_10 seaweed g2
f 45/4/3 46/1/3 47/2/3 48/3/3
g p7_11 o3_11 seaweed g2
f 49/4/3 50/1/3 51/2/3 52/3/3
g o20 g3 g2
f 53/5/4 54/6/5 55/7/6 56/8/7
f 55/7/6 57/9/8 58/10/9 56/8/7
f 54/6/5 59/11/10 60/12/11 55/7/6
f 60/12/11 61/13/12 57/9/8 55/7/6
f 59/11/10 62/14/13 63/15/14 60/12/11
f 63/15/14 64/16/15 61/13/12 60/12/11
f 62/14/13 65/17/16 66/18/17 63/15/14
f 66/18/17 67/19/18 64/16/15 63/15/14
f 65/17/16 68/20/19 69/21/20 66/18/17
f 69/21/20 70/22/21 67/19/18 66/18/17
f 68/20/19 71/23/22 72/24/23 69/21/20
f 72/24/23 73/25/24 70/22/21 69/21/20
f 71/23/22 74/26/25 75/27/26 72/24/23
f 75/27/26 76/28/27 73/25/24 72/24/23
f 74/26/25 77/29/28 78/30/29 75/27/26
f 78/30/29 79/31/30 76/28/27 75/27/26
f 77/29/28 80/32/31 81/33/32 78/30/29
f 81/33/32 82/34/33 79/31/30 78/30/29
f 80/32/31 83/35/34 84/36/35 81/33/32
f 84/36/35 85/37/36 82/34/33 81/33/32
f 83/35/34 86/38/37 87/39/38 84/36/35
f 87/39/38 88/40/39 85/37/36 84/36/35
f 86/38/37 53/5/4 56/8/7 87/39/38
f 56/8/7 58/10/9 88/40/39 87/39/38
f 88/40/39 58/10/9 85/37/36 87/39/38
f 58/10/9 82/34/33 85/37/36
f 58/10/9 79/31/30 82/34/33
f 58/10/9 57/9/8 79/31/30
f 57/9/8 61/13/12 79/31/30
f 61/13/12 64/16/15 79/31/30
f 64/16/15 76/28/27 79/31/30
f 64/16/15 67/19/18 73/25/24 76/28/27
f 67/19/18 70/22/21 73/25/24
g o21 g3 g2
f 89/41/40 90/42/41 91/43/42
f 90/42/41 92/44/43 93/45/44 91/43/42
f 92/44/43 94/46/45 93/45/44
f 94/46/45 95/47/46 96/48/47 93/45/44
f 95/47/46 97/49/48 96/48/47
f 98/50/49 99/51/50 100/52/51 101/53/52
f 99/51/50 90/42/41 89/41/40 100/52/51
f 102/54/53 103/55/54 99/51/50 98/50/49
f 103/55/54 92/44/43 90/42/41 99/51/50
f 104/56/55 105/57/56 103/55/57 102/54/57
f 105/57/56 94/46/45 92/44/43 103/55/54
f 106/58/58 107/59/59 105/57/56 104/56/55
f 107/59/59 95/47/46 94/46/45 105/57/56
f 108/60/60 109/61/61 107/59/61 106/58/60
f 109/61/61 97/49/48 95/47/46 107/59/61
f 110/62/62 111/63/63 109/61/64 108/60/65
f 111/63/63 96/48/47 97/49/48 109/61/64
f 112/64/66 113/65/67 111/63/63 110/62/62
f 113/65/67 93/45/68 96/48/69 111/63/63
f 114/66/70 115/67/71 113/65/67 112/64/66
f 115/67/71 91/43/72 93/45/68 113/65/67
f 101/53/73 100/52/74 115/67/71 114/66/70
f 100/52/74 89/41/40 91/43/42 115/67/71
g o21_1 g3 g2
f 116/41/75 117/68/76 118/69/77 119/43/78
f 117/68/76 120/42/79 118/69/77
f 120/42/79 121/44/80 122/70/81 118/69/77
f 122/70/81 123/45/82 119/43/78 118/69/77
f 121/44/80 124/46/83 125/71/84 122/70/81
f 125/71/84 123/45/82 122/70/81
f 124/46/83 126/47/85 127/72/86 125/71/84
f 127/72/86 128/48/87 123/45/82 125/71/84
f 126/47/85 129/73/88 127/72/86
f 129/73/88 130/49/89 128/48/87 127/72/86
f 131/50/90 132/51/91 133/74/92 134/75/93
f 133/74/92 135/52/94 136/53/93 134/75/93
f 132/51/91 120/42/79 117/68/95 133/74/92
f 117/68/76 116/41/75 135/52/94 133/74/92
f 137/54/96 138/55/97 132/51/91 131/50/90
f 138/55/97 121/44/80 120/42/79 132/51/91
f 139/56/98 140/57/99 138/55/100 137/54/101
f 140/57/99 124/46/83 121/44/80 138/55/100
f 141/58/102 142/59/103 140/57/99 139/56/98
f 142/59/103 126/47/85 124/46/83 140/57/99
f 143/60/104 144/61/105 145/76/106 146/77/107
f 145/76/106 142/59/103 141/58/102 146/77/107
f 144/61/105 130/49/89 129/73/88 145/76/106
f 129/73/88 126/47/85 142/59/103 145/76/106
f 147/62/108 148/63/109 144/61/105 143/60/104
f 148/63/109 128/48/87 130/49/89 144/61/105
f 149/64/110 150/65/111 148/63/109 147/62/108
f 150/65/111 123/45/82 128/48/87 148/63/109
f 151/66/112 152/67/113 150/65/111 149/64/110
f 152/67/113 119/43/78 123/45/82 150/65/111
f 136/53/114 135/52/115 152/67/113 151/66/112
f 135/52/115 116/41/75 119/43/78 152/67/113
