v 0.58591340783387 0.425691085224702 -2.22894713634581
v 0.223798967721894 0.688782576813785 -2.22894713634581
v 0.425690928782065 1.3101422567693 -1.89605560202611
v 1.11447356817291 0.809712547642665 -1.89605560202611
v -0.22379907723174 0.688782576813785 -2.22894713634581
v -0.42569111651323 1.3101422567693 -1.89605560202611
v -0.585913470410925 0.42569099135912 -2.22894713634581
v -1.11447356817291 0.809712422488555 -1.89605560202611
v -0.724228848935425 -3.49231642729595e-08 -2.22894713634581
v -1.37756515362757 -6.64278011425081e-08 -1.89605560202611
v -0.585913470410925 -0.425691085224702 -2.22894713634581
v -1.11447356817291 -0.809712547642665 -1.89605560202611
v -0.223799045943213 -0.688782576813785 -2.22894713634581
v -0.425691053936175 -1.3101422567693 -1.89605560202611
v 0.223799045943213 -0.688782576813785 -2.22894713634581
v 0.425691053936175 -1.3101422567693 -1.89605560202611
v 0.585913470410925 -0.425691053936175 -2.22894713634581
v 1.11447356817291 -0.80971248506561 -1.89605560202611
v 0.724228848935425 0 -2.22894713634581
v 1.37756515362757 0 -1.89605560202611
v 0.585913282679761 1.80325620756375 -1.37756502847346
v 1.53394108369282 1.11447356817291 -1.37756502847346
v -0.585913595565035 1.80325608240964 -1.37756502847346
v -1.53394133400104 1.1144734430188 -1.37756502847346
v -1.89605572718022 -9.14300283194205e-08 -1.37756502847346
v -1.53394133400104 -1.11447356817291 -1.37756502847346
v -0.585913470410925 -1.80325620756375 -1.37756502847346
v 0.585913470410925 -1.80325620756375 -1.37756502847346
v 1.53394133400104 -1.11447356817291 -1.37756502847346
v 1.89605572718022 0 -1.37756502847346
v 0.688782389082621 2.11985480441196 -0.724228723781315
v 1.80325608240964 1.3101422567693 -0.724228723781315
v -0.688782701967895 2.11985455410374 -0.724228723781315
v -1.80325620756375 1.31014200646108 -0.724228723781315
v -2.22894713634581 -1.07482445690855e-07 -0.724228723781315
v -1.80325620756375 -1.3101422567693 -0.724228723781315
v -0.688782576813785 -2.11985480441196 -0.724228723781315
v 0.688782576813785 -2.11985480441196 -0.724228723781315
v 1.80325620756375 -1.3101422567693 -0.724228723781315
v 2.22894713634581 0 -0.724228723781315
v 0.72422866120426 2.22894713634581 0
v 1.89605560202611 1.37756515362757 0
v -0.72422891151248 2.22894713634581 0
v -1.89605572718022 1.37756477816524 0
v -2.34365363133548 -1.13013728092922e-07 0
v -1.89605572718022 -1.37756515362757 0
v -0.724228848935425 -2.22894713634581 0
v 0.724228848935425 -2.22894713634581 0
v 1.89605572718022 -1.37756502847346 0
v 2.34365363133548 0 0
v 0.688782389082621 2.11985480441196 0.724228723781315
v 1.80325608240964 1.3101422567693 0.724228723781315
v -0.688782701967895 2.11985455410374 0.724228723781315
v -1.80325620756375 1.31014200646108 0.724228723781315
v -2.22894713634581 -1.07482445690855e-07 0.724228723781315
v -1.80325620756375 -1.3101422567693 0.724228723781315
v -0.688782576813785 -2.11985480441196 0.724228723781315
v 0.688782576813785 -2.11985480441196 0.724228723781315
v 1.80325620756375 -1.3101422567693 0.724228723781315
v 2.22894713634581 0 0.724228723781315
v 0.585913282679761 1.80325620756375 1.37756502847346
v 1.53394108369282 1.11447356817291 1.37756502847346
v -0.585913595565035 1.80325608240964 1.37756502847346
v -1.53394133400104 1.1144734430188 1.37756502847346
v -1.89605572718022 -9.14300283194205e-08 1.37756502847346
v -1.53394133400104 -1.11447356817291 1.37756502847346
v -0.585913470410925 -1.80325620756375 1.37756502847346
v 0.585913470410925 -1.80325620756375 1.37756502847346
v 1.53394133400104 -1.11447356817291 1.37756502847346
v 1.89605572718022 0 1.37756502847346
v 0.425690928782065 1.3101422567693 1.89605560202611
v 1.11447356817291 0.809712547642665 1.89605560202611
v -0.42569111651323 1.3101422567693 1.89605560202611
v -1.11447356817291 0.809712422488555 1.89605560202611
v -1.37756515362757 -6.64278011425081e-08 1.89605560202611
v -1.11447356817291 -0.809712547642665 1.89605560202611
v -0.425691053936175 -1.3101422567693 1.89605560202611
v 0.425691053936175 -1.3101422567693 1.89605560202611
v 1.11447356817291 -0.80971248506561 1.89605560202611
v 1.37756515362757 0 1.89605560202611
v 0.223798967721894 0.688782576813785 2.22894713634581
v 0.58591340783387 0.425691085224702 2.22894713634581
v -0.22379907723174 0.688782576813785 2.22894713634581
v -0.585913470410925 0.42569099135912 2.22894713634581
v -0.724228848935425 -3.49231642729595e-08 2.22894713634581
v -0.585913470410925 -0.425691085224702 2.22894713634581
v -0.223799045943213 -0.688782576813785 2.22894713634581
v 0.223799045943213 -0.688782576813785 2.22894713634581
v 0.585913470410925 -0.425691053936175 2.22894713634581
v 0.724228848935425 0 2.22894713634581
v 0 0 -2.34365363133548
v 0 0 2.34365363133548
v 0.000552127621774598 -2.04063600755426 0
v 1.17910477745877 -1.65541491170568 0
v 1.22132701823718 -1.7138959228836 0.604234655385255
v 0.000581439105388061 -2.11276507440202 0.604234655385255
v 1.92167802745589 -0.639731865229569 0
v 1.9902114167301 -0.662226564302219 0.604234655385255
v 1.92543215013239 0.618445904549025 0
v 1.99409657575953 0.640531975453294 0.604234655385255
v 1.18892774807187 1.63853938185324 0
v 1.23150042035761 1.696767081113 0.604234655385255
v -0.00112998907960306 2.03090852952692 0
v -0.00115960758189204 2.10303709575823 0.604234655385255
v 1.12986677274929 -1.58722081522303 1.25417459042366
v 0.000516863984698699 -1.9565240604671 1.25417434011544
v 1.84176287313146 -0.613503443600312 1.25417459042366
v 1.84536055317075 0.592694257500916 1.25417459042366
v 1.13928624651251 1.57063827114155 1.25417459042366
v -0.00109522752561594 1.94679733336441 1.25417434011544
v 0.60437044759435 -0.859380581873295 1.72996445903628
v 0.000146076845841145 -1.05881528278661 1.72996420872806
v 0.988814962191845 -0.333546622218735 1.72996445903628
v 0.990755914703129 0.317830113288299 1.72996445903628
v 0.609458087310391 0.845948917659249 1.72996445903628
v -0.000724677984013645 1.04908824279865 1.72996445903628
v -0.000289321102182383 -0.00486354590479157 1.90411414999974
v -1.22049336671203 -1.7149046650083 0.604234655385255
v -1.17831880964945 -1.65638735913855 9.77766482535935e-10
v -1.99024746111372 -0.663869962917538 0.604234655385255
v -1.92173372103473 -0.641320070882482 -9.77766482535935e-10
v -1.9952074436378 0.638883758404749 0.604234655385255
v -1.92652487066474 0.616854570043369 -9.77766482535935e-10
v -1.23348198537751 1.69574932789239 0.604234780539365
v -1.19086238030061 1.63755592085871 9.77766482535935e-10
v -1.12913787521402 -1.58815446488188 1.25417434011544
v -1.84183696436444 -0.615024128611006 1.25417434011544
v -1.84643299873733 0.591169692712819 1.25417459042366
v -1.14116418392952 1.5696968619279 1.25417459042366
v -0.604242414940061 -0.859880134502421 1.72996445903628
v -0.989121026567274 -0.334363284073477 1.72996395841984
v -0.991601393291644 0.317011918295713 1.7299647093445
v -0.610739352509106 0.845445798137995 1.7299647093445
v 1.10306802384184 1.91422960576736 0.964502649983083
v 0.959184601550966 2.02552289787553 0.964502649983083
v 0.967323373308958 1.78719330334601 1.1639449852971
v 1.12067195061311 1.70151442680459 1.1639449852971
v 0.704117960191461 1.95052880314704 1.1639449852971
v 0.749987754921901 2.11150201912627 0.964502649983083
v 0.521401595568719 2.03157535062374 1.1639449852971
v 0.747172413222746 1.39316473733096 1.1639449852971
v 0.804377728559839 0.92009434236942 1.1639449852971
v 0.502142818581088 1.53006731368738 1.1639449852971
v 0.348793052312896 1.61574543930414 1.1639449852971
v -1.09463213622726 1.91332148754691 0.964501148133766
v -1.1120599711661 1.70059103978275 1.16394448468066
v -0.958782105933963 1.78639694774558 1.1639449852971
v -0.950839700974192 2.02473267482647 0.964502211943699
v -0.695711671523848 1.94995109177637 1.1639449852971
v -0.513062233061302 2.03114782418479 1.1639449852971
v -0.741714943112351 2.11088626090623 0.964502775137193
v -0.795120454522881 0.919434029286302 1.1639449852971
v -0.738306058047637 1.3925487288027 1.16394523560532
v -0.493389289835932 1.52965630759092 1.1639449852971
v -0.340110736256196 1.61546058855032 1.1639449852971
v -3.26295585374908 -3.33590232827196 0.025000003088296
v 3.22594157967059 -3.37171180754346 0.025000003088296
v 3.26295614179719 3.33590263617364 0.025000003088296
v -3.22594156801763 3.37171183904999 0.025000003088296
vt 0.0299748033285141 0.0153229236602783
vt 0.129974812269211 0.0153229236602783
vt 0.129974812269211 0.181989908218384
vt 0.0299748033285141 0.181989908218384
vt 0.229974806308746 0.0153229236602783
vt 0.229974806308746 0.181989908218384
vt 0.329974800348282 0.0153229236602783
vt 0.329974800348282 0.181989908218384
vt 0.42997482419014 0.0153229236602783
vt 0.42997482419014 0.181989908218384
vt 0.529974818229675 0.0153229236602783
vt 0.529974818229675 0.181989908218384
vt 0.962755441665649 0.210821330547333
vt 0.802727103233337 0.203960835933685
vt 0.808988630771637 0.52731055021286
vt 0.967587828636169 0.533662617206573
vt 0.599212527275085 0.202361524105072
vt 0.602953195571899 0.525829792022705
vt 0.369636505842209 0.206634283065796
vt 0.366343766450882 0.529785871505737
vt 0.173116371035576 0.215147018432617
vt 0.16721123456955 0.537667691707611
vt 0.0180659145116806 0.224648237228394
vt 0.0131960101425648 0.546464681625366
vt 0.0454115234315395 0.981546461582184
vt 0.132764011621475 0.715894103050232
vt 0.30076676607132 0.838070929050446
vt 0.253594040870667 0.981530427932739
vt 0.360232949256897 0.552923381328583
vt 0.423606425523758 0.750062167644501
vt 0.640933334827423 0.554884314537048
vt 0.575192213058472 0.751121282577515
vt 0.867646276950836 0.721027612686157
vt 0.697623491287231 0.840843081474304
vt 0.953775525093079 0.987891376018524
vt 0.744136095046997 0.984956681728363
vt 0.498598426580429 0.982703506946564
vt 0.626574337482452 0.0119647979736328
vt 0.770702183246613 0.0119647979736328
vt 0.722659409046173 0.0954030752182007
vt 0.626574397087097 0.0954030752182007
vt 0.818744719028473 0.0954030752182007
vt 0.914829671382904 0.0119647979736328
vt 0.914829909801483 0.0954030752182007
vt 0.722659528255463 0.178841352462769
vt 0.626574397087097 0.178841352462769
vt 0.818744957447052 0.178841352462769
vt 0.914830029010773 0.178841352462769
vt 0 0
vt 1 0
vt 1 1
vt 0 1
vn 0.249422701318433 0.181216233718176 -0.951288070304687
vn 0.0952709869272535 0.293214013474619 -0.951288064338039
vn 0.181339377341882 0.558105299287031 -0.809712606504921
vn 0.474752707002674 0.344928087671012 -0.809712591929539
vn -0.0952710190173478 0.293213992209768 -0.951288067678664
vn -0.181339437664868 0.558105261879133 -0.809712618779165
vn -0.249422739615467 0.181216206951646 -0.951288065362313
vn -0.474752729034436 0.344928018704261 -0.809712608390847
vn -0.308303439317668 2.24260632850638e-09 -0.9512880685181
vn -0.586826610205494 -2.10407729449964e-10 -0.809712621585417
vn -0.249422711337773 -0.18121622125342 -0.951288070052151
vn -0.474752690631617 -0.344928039965582 -0.809712621850211
vn -0.0952709929128681 -0.293214007425827 -0.951288065602993
vn -0.181339387098268 -0.558105264018828 -0.809712628629009
vn 0.0952710021873757 -0.293214004401619 -0.951288065606302
vn 0.181339395194611 -0.55810525527758 -0.809712632840812
vn 0.249422722478783 -0.181216218151809 -0.95128806772188
vn 0.474752698201431 -0.344928026986272 -0.809712622940892
vn 0.308303434253574 5.96420756411376e-09 -0.951288070159325
vn 0.586826624561089 2.74503550819343e-08 -0.809712611181423
vn 0.249790908309671 0.768777483354304 -0.588715281960008
vn 0.653961168496191 0.475130644335238 -0.588715263019975
vn -0.249791035076869 0.768777465868172 -0.588715251007257
vn -0.653961222942419 0.475130591580282 -0.5887152451162
vn -0.808340473691723 -9.10292067098919e-10 -0.588715278035011
vn -0.653961179225962 -0.475130596205886 -0.588715289944493
vn -0.249790948652454 -0.76877744543111 -0.588715314364867
vn 0.24979095024229 -0.768777440347333 -0.588715320328983
vn 0.653961183540604 -0.475130582355005 -0.588715296330209
vn 0.808340471447502 5.55090128926789e-08 -0.588715281116456
vn 0.293826188289707 0.904304207046192 -0.309677367906826
vn 0.769247077563784 0.558890741976531 -0.30967736790489
vn -0.293826355967544 0.904304165178948 -0.309677331070327
vn -0.769247148334015 0.558890680669228 -0.30967730275413
vn -0.95084171205389 5.83542713888806e-09 -0.309677313696738
vn -0.769247112762524 -0.558890707486409 -0.309677342716354
vn -0.293826253252037 -0.904304199160673 -0.309677329296549
vn 0.293826264143106 -0.904304201126652 -0.309677313221995
vn 0.769247128971447 -0.558890698764833 -0.309677318193217
vn 0.950841703274265 4.63392255177225e-08 -0.309677340653935
vn 0.309016938705232 0.951056534383339 0
vn 0.809016984513508 0.58778526586558 0
vn -0.309017103988073 0.951056480679683 0
vn -0.809017047979225 0.587785178512507 0
vn -1 1.0797855172286e-08 0
vn -0.809017009818057 -0.587785231036855 0
vn -0.309016989269662 -0.951056517953961 0
vn 0.309017007897896 -0.951056511901281 0
vn 0.809017022820642 -0.587785213140331 0
vn 0.999999999999999 3.46372573721126e-08 0
vn 0.293826188289707 0.904304207046192 0.309677367906826
vn 0.769247077563784 0.558890741976531 0.30967736790489
vn -0.293826355967544 0.904304165178948 0.309677331070327
vn -0.769247148334015 0.558890680669228 0.30967730275413
vn -0.950841712053889 5.83542713888806e-09 0.309677313696739
vn -0.769247112762524 -0.558890707486409 0.309677342716354
vn -0.293826253252037 -0.904304199160673 0.309677329296549
vn 0.293826264143106 -0.904304201126652 0.309677313221995
vn 0.769247128971447 -0.558890698764833 0.309677318193217
vn 0.950841703274265 4.63392255177225e-08 0.309677340653935
vn 0.249790908309671 0.768777483354304 0.588715281960008
vn 0.653961168496191 0.475130644335238 0.588715263019975
vn -0.249791035076869 0.768777465868172 0.588715251007257
vn -0.653961222942418 0.475130591580282 0.588715245116201
vn -0.808340473691724 -9.10292103402736e-10 0.588715278035011
vn -0.653961179225962 -0.475130596205886 0.588715289944493
vn -0.249790948652454 -0.76877744543111 0.588715314364867
vn 0.24979095024229 -0.768777440347333 0.588715320328983
vn 0.653961183540604 -0.475130582355006 0.588715296330209
vn 0.808340471447502 5.55090129362434e-08 0.588715281116456
vn 0.181339377341882 0.558105299287031 0.809712606504921
vn 0.474752707002674 0.344928087671012 0.809712591929539
vn -0.181339437664868 0.558105261879133 0.809712618779165
vn -0.474752729034436 0.344928018704261 0.809712608390847
vn -0.586826610205494 -2.10407779531556e-10 0.809712621585417
vn -0.474752690631617 -0.344928039965582 0.809712621850211
vn -0.181339387098268 -0.558105264018828 0.809712628629009
vn 0.181339395194611 -0.55810525527758 0.809712632840812
vn 0.474752698201431 -0.344928026986272 0.809712622940892
vn 0.586826624561089 2.74503551248614e-08 0.809712611181423
vn 0.0952709869272536 0.293214013474619 0.951288064338039
vn 0.249422701318433 0.181216233718176 0.951288070304687
vn -0.0952710190173479 0.293213992209768 0.951288067678664
vn -0.249422739615467 0.181216206951646 0.951288065362313
vn -0.308303439317668 2.24260632143861e-09 0.9512880685181
vn -0.249422711337773 -0.181216221253419 0.951288070052151
vn -0.0952709929128682 -0.293214007425827 0.951288065602993
vn 0.0952710021873757 -0.293214004401619 0.951288065606302
vn 0.249422722478783 -0.181216218151809 0.95128806772188
vn 0.308303434253574 5.96420756411376e-09 0.951288070159325
vn -2.01737716673247e-09 2.17759426896112e-09 -1
vn -2.01737716673247e-09 2.17759430272652e-09 1
vn 0.000409983952710391 -0.992936592633811 -0.118645501060584
vn 0.583131298670803 -0.803692317976337 -0.118475932308322
vn 0.586269552675915 -0.807989243979969 0.0586633890758149
vn 0.00041232670414491 -0.998272752966327 0.0587481120694128
vn 0.943432467868342 -0.309653417631971 -0.118532440794453
vn 0.948492741956254 -0.311314498047416 0.0586924335991696
vn 0.945262712436177 0.304020413647118 -0.118532664542887
vn 0.950332807815567 0.305651337436196 0.0586925405213021
vn 0.586553214378665 0.801198359711846 -0.11847579962635
vn 0.589707383103458 0.805483457503379 0.0586651685557419
vn -0.000410291856964432 0.992936505388604 -0.118646230143477
vn -0.000412424031780107 0.998272475164723 0.0587528317182744
vn 0.461368905984304 -0.635560987408197 0.619032280156345
vn 0.000324292057128734 -0.784894404202733 0.619629461118415
vn 0.746015463783466 -0.244857632086276 0.619278344369511
vn 0.74746267313666 0.240403443413339 0.619278399964352
vn 0.464012762008927 0.633566495679144 0.61910068021744
vn -0.000324095350634045 0.784780735999005 0.61977341937765
vn 0.188082280955151 -0.258566589329032 0.947506398117427
vn 0.000131709118256582 -0.318790498205947 0.947825195332089
vn 0.303975269271139 -0.0997377007428237 0.947444682671275
vn 0.304566648558087 0.0979240836255303 0.947443945799537
vn 0.189144618556786 0.257784375558236 0.947508062756755
vn -0.000131447649801506 0.318769920331223 0.947832116259805
vn 1.39382466102316e-07 -0.000312545852239566 0.999999951157534
vn -0.585601677198249 -0.808473433682576 0.0586632993625739
vn -0.582466682494592 -0.80417402924624 -0.118476556624554
vn -0.948235213136989 -0.312097861371604 0.0586933172884299
vn -0.943176397772337 -0.310432721463893 -0.118531886552602
vn -0.950584698636144 0.304866994863179 0.0586928118420383
vn -0.945513275700345 0.303240543180547 -0.118531930069374
vn -0.590372264930139 0.804996292389398 0.058664793876582
vn -0.587214692077745 0.800713692156312 -0.118475687807443
vn -0.460843783129358 -0.635941605569258 0.619032536993829
vn -0.745812698212462 -0.245473801231868 0.619278638493066
vn -0.747661012716817 0.239786064343835 0.619278332746882
vn -0.464535815234004 0.633183652457141 0.619100103881362
vn -0.187868918528521 -0.258721591047783 0.947506415691539
vn -0.303893105804206 -0.0999891776114336 0.947444533788265
vn -0.304647459118701 0.0976719245574094 0.947443993492898
vn -0.189357240673652 0.257628341610344 0.94750803321321
vn 0.409184326096013 0.617461248188883 0.671795946893384
vn 0.362368392206307 0.64392280288662 0.673834232027771
vn 0.213120757111523 0.332025412766986 0.918879028036403
vn 0.223775391505808 0.337678198567012 0.91427458040184
vn 0.184757558930735 0.358312187447035 0.915137705891784
vn 0.301287388971731 0.7069482734074 0.639882839254885
vn 0.166364073343746 0.390360827277833 0.905506167636335
vn 0 0 1
vn -0.409694692997395 0.61712382953254 0.671794937129525
vn -0.224056338897794 0.337493431216439 0.914273996614511
vn -0.213396981444163 0.331849899545681 0.918878323001496
vn -0.362902703289579 0.643623296083063 0.673832828440623
vn -0.185055203353874 0.358159588782792 0.915137301542559
vn -0.166687976188648 0.390222435819852 0.905506250214185
vn -0.301874008548748 0.706697709217359 0.639883138353909
vn 0 -2.92053143821636e-12 1
g SphereColl BeetleColl BeetleBeanBodyAll
f 1//1 2//2 3//3 4//4
f 2//2 5//5 6//6 3//3
f 5//5 7//7 8//8 6//6
f 7//7 9//9 10//10 8//8
f 9//9 11//11 12//12 10//10
f 11//11 13//13 14//14 12//12
f 13//13 15//15 16//16 14//14
f 15//15 17//17 18//18 16//16
f 17//17 19//19 20//20 18//18
f 19//19 1//1 4//4 20//20
f 4//4 3//3 21//21 22//22
f 3//3 6//6 23//23 21//21
f 6//6 8//8 24//24 23//23
f 8//8 10//10 25//25 24//24
f 10//10 12//12 26//26 25//25
f 12//12 14//14 27//27 26//26
f 14//14 16//16 28//28 27//27
f 16//16 18//18 29//29 28//28
f 18//18 20//20 30//30 29//29
f 20//20 4//4 22//22 30//30
f 22//22 21//21 31//31 32//32
f 21//21 23//23 33//33 31//31
f 23//23 24//24 34//34 33//33
f 24//24 25//25 35//35 34//34
f 25//25 26//26 36//36 35//35
f 26//26 27//27 37//37 36//36
f 27//27 28//28 38//38 37//37
f 28//28 29//29 39//39 38//38
f 29//29 30//30 40//40 39//39
f 30//30 22//22 32//32 40//40
f 32//32 31//31 41//41 42//42
f 31//31 33//33 43//43 41//41
f 33//33 34//34 44//44 43//43
f 34//34 35//35 45//45 44//44
f 35//35 36//36 46//46 45//45
f 36//36 37//37 47//47 46//46
f 37//37 38//38 48//48 47//47
f 38//38 39//39 49//49 48//48
f 39//39 40//40 50//50 49//49
f 40//40 32//32 42//42 50//50
f 42//42 41//41 51//51 52//52
f 41//41 43//43 53//53 51//51
f 43//43 44//44 54//54 53//53
f 44//44 45//45 55//55 54//54
f 45//45 46//46 56//56 55//55
f 46//46 47//47 57//57 56//56
f 47//47 48//48 58//58 57//57
f 48//48 49//49 59//59 58//58
f 49//49 50//50 60//60 59//59
f 50//50 42//42 52//52 60//60
f 52//52 51//51 61//61 62//62
f 51//51 53//53 63//63 61//61
f 53//53 54//54 64//64 63//63
f 54//54 55//55 65//65 64//64
f 55//55 56//56 66//66 65//65
f 56//56 57//57 67//67 66//66
f 57//57 58//58 68//68 67//67
f 58//58 59//59 69//69 68//68
f 59//59 60//60 70//70 69//69
f 60//60 52//52 62//62 70//70
f 62//62 61//61 71//71 72//72
f 61//61 63//63 73//73 71//71
f 63//63 64//64 74//74 73//73
f 64//64 65//65 75//75 74//74
f 65//65 66//66 76//76 75//75
f 66//66 67//67 77//77 76//76
f 67//67 68//68 78//78 77//77
f 68//68 69//69 79//79 78//78
f 69//69 70//70 80//80 79//79
f 70//70 62//62 72//72 80//80
f 72//72 71//71 81//81 82//82
f 71//71 73//73 83//83 81//81
f 73//73 74//74 84//84 83//83
f 74//74 75//75 85//85 84//84
f 75//75 76//76 86//86 85//85
f 76//76 77//77 87//87 86//86
f 77//77 78//78 88//88 87//87
f 78//78 79//79 89//89 88//88
f 79//79 80//80 90//90 89//89
f 80//80 72//72 82//82 90//90
f 2//2 1//1 91//91
f 5//5 2//2 91//91
f 7//7 5//5 91//91
f 9//9 7//7 91//91
f 11//11 9//9 91//91
f 13//13 11//11 91//91
f 15//15 13//13 91//91
f 17//17 15//15 91//91
f 19//19 17//17 91//91
f 1//1 19//19 91//91
f 82//82 81//81 92//92
f 81//81 83//83 92//92
f 83//83 84//84 92//92
f 84//84 85//85 92//92
f 85//85 86//86 92//92
f 86//86 87//87 92//92
f 87//87 88//88 92//92
f 88//88 89//89 92//92
f 89//89 90//90 92//92
f 90//90 82//82 92//92
g Beetle_bean_body BeetleBeanBody BeetleBeanBodyAll
f 93/1/93 94/2/94 95/3/95 96/4/96
f 94/2/94 97/5/97 98/6/98 95/3/95
f 97/5/97 99/7/99 100/8/100 98/6/98
f 99/7/99 101/9/101 102/10/102 100/8/100
f 101/9/101 103/11/103 104/12/104 102/10/102
f 96/13/96 95/14/95 105/15/105 106/16/106
f 95/14/95 98/17/98 107/18/107 105/15/105
f 98/17/98 100/19/100 108/20/108 107/18/107
f 100/19/100 102/21/102 109/22/109 108/20/108
f 102/21/102 104/23/104 110/24/110 109/22/109
f 106/25/106 105/26/105 111/27/111 112/28/112
f 105/26/105 107/29/107 113/30/113 111/27/111
f 107/29/107 108/31/108 114/32/114 113/30/113
f 108/31/108 109/33/109 115/34/115 114/32/114
f 109/33/109 110/35/110 116/36/116 115/34/115
f 112/28/112 111/27/111 117/37/117
f 111/27/111 113/30/113 117/37/117
f 113/30/113 114/32/114 117/37/117
f 114/32/114 115/34/115 117/37/117
f 115/34/115 116/36/116 117/37/117
f 93/1/93 96/4/96 118/3/118 119/2/119
f 119/2/119 118/3/118 120/6/120 121/5/121
f 121/5/121 120/6/120 122/8/122 123/7/123
f 123/7/123 122/8/122 124/10/124 125/9/125
f 125/9/125 124/10/124 104/12/104 103/11/103
f 96/13/96 106/16/106 126/15/126 118/14/118
f 118/14/118 126/15/126 127/18/127 120/17/120
f 120/17/120 127/18/127 128/20/128 122/19/122
f 122/19/122 128/20/128 129/22/129 124/21/124
f 124/21/124 129/22/129 110/24/110 104/23/104
f 106/25/106 112/28/112 130/27/130 126/26/126
f 126/26/126 130/27/130 131/30/131 127/29/127
f 127/29/127 131/30/131 132/32/132 128/31/128
f 128/31/128 132/32/132 133/34/133 129/33/129
f 129/33/129 133/34/133 116/36/116 110/35/110
f 112/28/112 117/37/117 130/27/130
f 130/27/130 117/37/117 131/30/131
f 131/30/131 117/37/117 132/32/132
f 132/32/132 117/37/117 133/34/133
f 133/34/133 117/37/117 116/36/116
g Beetle_bean_rtEye Beetle_bean_Eyes Beetle_bean_body BeetleBeanBody BeetleBeanBodyAll
f 134/38/134 135/39/135 136/40/136 137/41/137
f 135/39/135 138/42/138 136/40/136
f 135/39/135 139/43/139 140/44/140 138/42/138
f 137/41/137 136/40/136 141/45/141 142/46/141
f 136/40/136 138/42/138 143/47/141 141/45/141
f 138/42/138 140/44/140 144/48/141 143/47/141
g Beetle_bean_lftEye Beetle_bean_Eyes Beetle_bean_body BeetleBeanBody BeetleBeanBodyAll
f 145/38/142 146/41/143 147/40/144 148/39/145
f 148/39/145 147/40/144 149/42/146
f 148/39/145 149/42/146 150/44/147 151/43/148
f 146/41/143 152/46/141 153/45/141 147/40/144
f 147/40/144 153/45/141 154/47/141 149/42/146
f 149/42/146 154/47/141 155/48/141 150/44/147
g Shadow BeetleBeanBody BeetleBeanBodyAll
f 156/49/149 157/50/149 158/51/149 159/52/149
