v -9.98019321071194 -6.76238442969134 -1.99999734172671
v 10.0198099932333 -6.76238442969134 -1.99999734172671
v 10.0198099932333 -6.76238442969134 1.3766952074106e-06
v -9.98019321071194 -6.76238442969134 1.3766952074106e-06
v 10.0198099932333 8.23758993874698 1.3766952074106e-06
v -9.98019321071194 8.23758993874698 1.3766952074106e-06
v 10.0198099932333 8.23758993874698 -1.99999734172671
v -9.98019321071194 8.23758993874698 -1.99999734172671
v -9.98017719098589 -6.7624389968832 15.0000024029589
v -9.98019321071194 8.23753537155512 15.0000064078904
v 10.0198180030963 8.23753537155512 14.9999983980274
v 10.0198180030963 -6.7624389968832 14.9999983980274
v 10.0198180030963 -6.7624389968832 0
v 10.0198180030963 8.23753537155512 0
v -9.98017719098589 -6.7624389968832 4.00493151246719e-06
v -9.98019321071194 8.23753537155512 4.00493151246719e-06
v -9.98019321071194 8.23759945045932 0
v 10.0198099932333 8.23759945045932 0
v 10.0198099932333 8.23759945045932 14.9999983980274
v -9.98019321071194 8.23759945045932 14.9999983980274
v -9.98018520084892 -6.7624389968832 4.00493151246719e-06
v -9.98018520084892 -6.7624389968832 15.0000024029589
v 10.0198180030963 -6.7624389968832 15.0000024029589
v 10.0198180030963 -6.7624389968832 4.00493151246719e-06
vt 0 0
vt 1 0
vt 1 1
vt 0 1
vt 1 2
vt 0 2
vt 1 3
vt 0 3
vt 1 4
vt 0 4
vt 2 0
vt 2 1
vt -1 0
vt -1 1
vn 0 -1 0
vn 0 0 1
vn 0 1 0
vn 0 0 -1
vn 1 0 0
vn -1 0 0
vn -3.0036980547264e-07 1.12124240558836e-07 -0.999999999999949
vn 0.99999999999943 1.06798347587695e-06 0
g elevator_floor geometry RedSilo_Elevator
f 1/1/1 2/2/1 3/3/1 4/4/1
f 4/4/2 3/3/2 5/5/2 6/6/2
f 6/6/3 5/5/3 7/7/3 8/8/3
f 8/8/4 7/7/4 2/9/4 1/10/4
f 2/2/5 7/11/5 5/12/5 3/3/5
f 8/13/6 1/1/6 4/4/6 6/14/6
g elevator_floor collsion RedSilo_Elevator
f 4/4/2 3/3/2 5/5/2 6/6/2
g ceiling collsion RedSilo_Elevator
f 9//7 9//7 10//7 11//7 12//7
g wall_right collsion RedSilo_Elevator
f 13/1/6 12/4/6 11/3/6 14/2/6
g wall_left collsion RedSilo_Elevator
f 15/1/8 16/2/8 10/3/8 9/4/8
g wall_back collsion RedSilo_Elevator
f 17/1/1 18/2/1 19/3/1 20/4/1
g wall_front collsion RedSilo_Elevator
f 21/1/3 22/4/3 23/3/3 24/2/3
