v -35.4843500092274 -5.76354499876969 -14.0000010412822
v 35.4843580190904 -5.76354499876969 -14.0000010412822
v 35.4843580190904 -5.76354499876969 51.845840894644
v -35.4843500092274 -5.76354499876969 51.845840894644
v 35.4843580190904 18.4227550436506 -14.0000010412822
v 35.4843580190904 18.4227550436506 51.845840894644
v -35.4843500092274 18.4227550436506 -14.0000010412822
v -35.4843500092274 18.4227550436506 51.845840894644
v -35.6617684752297 -5.79236248346764 -14.0700012367229
v 35.6617764850927 -5.79236248346764 -14.0700012367229
v 35.6617764850927 -5.79236248346764 52.105072101583
v -35.6617684752297 -5.79236248346764 52.105072101583
v 35.6617764850927 18.5148684684373 -14.0700012367229
v 35.6617764850927 18.5148684684373 52.105072101583
v -35.6617684752297 18.5148684684373 -14.0700012367229
v -35.6617684752297 18.5148684684373 52.105072101583
vt 0.82714182138443 0.196044281125069
vt 1.64872419834137 0.196044281125069
vt 1.64872419834137 1.63084280490875
vt 0.82714182138443 1.63084280490875
vt 1.86239755153656 0.196044281125069
vt 1.86239755153656 1.63084280490875
vt 0.600581049919128 0.196044281125069
vt 0.600581049919128 1.63084280490875
vn 0 -1 0
vn 1 0 0
vn -1 0 0
g wallmesh wall
f 1/1/1 2/2/1 3/3/1 4/4/1
f 2/2/2 5/5/2 6/6/2 3/3/2
f 7/7/3 1/1/3 4/4/3 8/8/3
g collision wall
f 9//1 10//1 11//1 12//1
f 10//2 13//2 14//2 11//2
f 15//3 9//3 12//3 16//3
