v 5.22968061070424 -3.03845626488328 32.1053468072787
v 9.46347496288773 -3.03845626813335 32.2061514256923
v 9.37033890013117 -3.92332020588219 36.1178663829342
v 5.13654454794768 -3.92332020263212 36.0170617645206
v 16.4144280297632 -3 32.2015504311584
v 7.10943379633057 -4.72830250120023 39.6246351084709
v -1.15005546705348 -3 31.783348477507
v 5.95220265018095 -3 20.3153220850447
v 0.801167579809606 -3 20.3153220850447
v 0.801167579809606 -3 13.9629581139053
v 5.95220265018095 -3 13.9629581139053
v 9.64462483414752 -3 13.9629581139053
v 14.7956599045189 -3 13.9629581139053
v 14.7956599045189 -3 20.3153220850447
v 9.64462483414752 -3 20.3153220850447
v 1.95247505229235 -3 24.1963167459515
v 6.90216748408804 -3 24.2254325813928
v 6.86983080712344 -3 29.7226681171407
v 1.92013837532775 -3 29.6935522816994
v 8.56263257169666 -3 24.1963167459515
v 13.5123250034924 -3 24.2254325813928
v 13.4799883265278 -3 29.7226681171407
v 8.53029589473206 -3 29.6935522816994
v 16.1007765387486 -3 3.13651465238556
v 16.3098775327584 -3 6.79578174683537
v 15.7871250477341 -3 10.559599329698
v 15.9962260417438 -3 12.7551595863679
v 17.0417310117924 -3 18.2963354722491
v 16.4144280297632 -3 22.6874559855889
v 15.7871250477341 -3 31.2605960354427
v -0.41820198801945 -3 31.1560455470299
v -1.3591564610632 -3 22.582905497176
v -1.25460596405834 -3 17.8781335185977
v -0.209100994009728 -3 12.2324071443037
v 0 -3 10.3504983528723
v -0.41820198801945 -3 6.79578174683537
v -0.104550497004861 -3 3.24106514079841
v 0 -3 0
v 16.3098775327584 -3 0
v -1.15005546705348 6.19511031534057 31.783348477507
v 7.10943379633057 6.19511031534057 39.6246351084709
v 16.4144280297632 6.19511031534057 32.2015504311584
v -0.209100994009728 0 12.2324071443037
v -1.25460596405834 0 17.8781335185977
v 0 0 10.3504983528723
v -0.41820198801945 0 6.79578174683537
v -0.104550497004861 0 3.24106514079841
v 0 0 0
v -1.3591564610632 0 22.582905497176
v -0.41820198801945 6.19511031534057 31.1560455470299
v -1.3591564610632 6.19511031534057 22.582905497176
v -1.30107289793832 0 19.9691453713566
v -1.30107289793832 6.19511031534057 19.9691453713566
v 16.1007765387486 0 3.13651465238556
v 16.3098775327584 0 0
v 16.3098775327584 0 6.79578174683537
v 15.7871250477341 0 10.559599329698
v 15.9962260417438 0 12.7551595863679
v 17.0417310117924 0 18.2963354722491
v 15.7871250477341 6.19511031534057 31.2605960354427
v 16.4144280297632 6.19511031534057 22.6874559855889
v 16.4144280297632 0 22.6874559855889
v 16.8027581494238 0 19.9691453713566
v 16.8027581494238 6.19511031534057 19.9691453713566
v -1 -3 -5
v -1 -3 5
v -1 0 5
v -1 0 -5
v 17 -3 -5
v 17 -3 5
v 17 0 -5
v 17 0 5
v 17.0417310117924 -3 0
v 17.0417310117924 -3 39.2884219586167
v -1.3591564610632 -3 39.2884219586167
v -1.3591564610632 -3 0
v 17.0417310117924 6.72857712451976 0
v 17.0417310117924 6.72857712451976 39.2884219586167
v -1.3591564610632 6.72857712451976 0
v -1.3591564610632 6.72857712451976 39.2884219586167
v -1.30175855640897 6.19511031534057 20
v 16.7983503449697 6.19511031534057 20
vt 0 0
vt 1 0
vt 1 1
vt 0 1
vt 0.943862617015839 0.805783808231354
vt 0.494236290454865 0.99139130115509
vt 0.0951533690094948 0.7953861951828
vt 0.92875462770462 0.0791589841246605
vt 0.938852310180664 0.170639961957932
vt 0.913586914539337 0.264737099409103
vt 0.923687040805817 0.319625407457352
vt 0.974196434020996 0.458151370286942
vt 0.943878173828125 0.567931413650513
vt 0.913553059101105 0.782261967658997
vt 0.130517303943634 0.779701173305511
vt 0.0850647240877151 0.565375804901123
vt 0.0901242643594742 0.447756171226501
vt 0.140651941299438 0.306609630584717
vt 0.15075871348381 0.259561210870743
vt 0.130557149648666 0.170694679021835
vt 0.14571850001812 0.0818257555365562
vt 0.150775641202927 0.00079879246186465
vt 0.938863456249237 0.00074544019298628
vt 1 0.984839975833893
vt 0 0.984839975833893
vt 0.684902906417847 0.392737656831741
vt 1 0.39060851931572
vt 1 0.568913698196411
vt 0.690728306770325 0.571042835712433
vt 0.682961165904999 0.333302587270737
vt 1 0.331173449754715
vt 0.6792933344841 0.221036374568939
vt 1 0.218907222151756
vt 0.675625503063202 0.108770146965981
vt 1 0.106641001999378
vt 0.672281324863434 0
vt 1 0.7175013422966
vt 0.695582747459412 0.719630479812622
vt 0.00253275455906987 0.00138461298774928
vt 0.993195056915283 0.0162412859499454
vt 0.999484479427338 0.0805548951029778
vt 0.00882213935256004 0.0656982213258743
vt 0 0.73766964673996
vt 1 0.731985628604889
vt 1 0.967818140983582
vt 0 0.973502278327942
vt 0.69288581609726 0.637081861495972
vt 0 0.724027216434479
vt 0 0.641478598117828
vt 0.728221356868744 0.110374197363853
vt 1 0.111119784414768
vt 0.725136518478394 0
vt 0.73175722360611 0.220870897173882
vt 1 0.221616476774216
vt 0.735496819019318 0.337733656167984
vt 1 0.338479250669479
vt 0.737606704235077 0.403667896986008
vt 1 0.404413491487503
vt 0.742859661579132 0.567821443080902
vt 1 0.568567037582397
vt 0 0.948807060718536
vt 1 0.950797557830811
vt 1 0.721081852912903
vt 0 0.719091355800629
vt 0.973203301429749 0.0812864303588867
vt -0.00169833726249635 0.0664706900715828
vt 0.00179180828854442 -0.0215553175657988
vt 0.976693391799927 -0.00673957914113998
vt 0.747224926948547 0.704237103462219
vt 1 0.704982697963715
vt 0 0.702697455883026
vt 0.744522631168365 0.619789361953735
vt 0 0.618249714374542
vt 0.0878423973917961 0.500802993774414
vt 0.962433576583862 0.500743746757507
vn 0.00525028898306048 -0.975370088327322 -0.220512188465731
vn 0.00264146000204997 -0.993823447179458 -0.110941329203306
vn 0.00525028976964791 -0.975370088327323 -0.220512188447002
vn 0 -1 0
vn -0.688508129661209 0 0.725228622842772
vn 0.623623278877464 0 0.781725019455129
vn -0.989231921643039 0 -0.146356432050047
vn -0.99473460695799 0 -0.102484446235189
vn -0.999994797234417 0 0.00322575636043343
vn -0.999894140626177 0 0.0145501732442944
vn -0.998192908470147 0 -0.0600909101271404
vn -0.999480114254317 0 -0.0322412966578087
vn -0.999051849149826 0 0.0435362229679353
vn -0.999753177791057 0 -0.0222167391100276
vn -0.929984453635655 0 -0.367598852005814
vn -0.65079134262497 0 -0.759256628791866
vn 0.999988748718607 0 0.00474367328075509
vn 0.997785157493784 0 0.0665190159661487
vn 0.999181499715698 0 0.0404515837253347
vn 0.999768299631089 0 0.0215254977354914
vn 0.990115364538122 0 -0.140255356067219
vn 0.999751478448218 0 -0.022293078311512
vn 0.967034488377724 0 -0.254645436417056
vn 0.994230782366133 0 0.107262068764437
vn 0.83205027329837 0 -0.554700227784438
vn 0.989949492034076 0 0.141421367626942
vn -1 0 0
vn 1 0 0
vn 0 1 0
g decals decal_base building2_landmark20c_attic TT_B2
f 1/1/1 2/2/1 3/3/1 4/4/1
g decal_base building2_landmark20c_attic TT_B2
f 5/5/2 6/6/3 7/7/2
g decals decal_base buildin2_landmark20c_front TT_B2
f 8/3/4 9/4/4 10/1/4 11/2/4
f 12/1/4 13/2/4 14/3/4 15/4/4
f 16/1/4 17/2/4 18/3/4 19/4/4
f 20/2/4 21/1/4 22/4/4 23/3/4
g decal_base buildin2_landmark20c_front TT_B2
f 24/8/4 25/9/4 26/10/4 27/11/4 28/12/4 29/13/4 30/14/4 5/5/2 7/7/2 31/15/4 32/16/4 33/17/4 34/18/4 35/19/4 36/20/4 37/21/4 38/22/4 39/23/4
g building2_landmark20c_roof TT_B2
f 40/1/5 7/2/5 6/3/5 41/4/5
f 41/24/6 6/25/6 5/1/6 42/2/6
g building2_landmark20c_sidel TT_B2
f 43/26/7 34/27/7 33/28/8 44/29/8
f 45/30/9 35/31/9 34/27/7 43/26/7
f 46/32/10 36/33/10 35/31/9 45/30/9
f 47/34/11 37/35/11 36/33/10 46/32/10
f 48/36/12 38/2/12 37/35/11 47/34/11
f 44/29/8 33/28/8 32/37/13 49/38/14
f 50/39/15 31/40/15 7/41/16 40/42/16
f 51/43/13 32/44/13 31/45/15 50/46/15
f 52/47/14 49/38/14 51/48/13 53/49/14
g building2_landmark20c_sider TT_B2
f 54/50/17 24/51/17 39/2/18 55/52/18
f 56/53/19 25/54/19 24/51/17 54/50/17
f 57/55/20 26/56/20 25/54/19 56/53/19
f 58/57/21 27/58/21 26/56/20 57/55/20
f 59/59/22 28/60/22 27/58/21 58/57/21
f 60/61/23 30/62/23 29/63/24 61/64/24
f 42/65/25 5/66/25 30/67/23 60/68/23
f 62/69/26 29/70/24 28/60/22 59/59/22
f 61/71/24 62/69/26 63/72/26 64/73/26
g building2_landmark20c_collide TT_B2
f 65//27 66//27 67//27 68//27
f 69//4 70//4 66//4 65//4
f 71//28 72//28 70//28 69//28
g TT_B2_camera_collisions TT_B2
f 73//4 74//4 75//4 76//4
f 77//28 78//28 74//28 73//28
f 79//29 80//29 78//29 77//29
f 76//27 75//27 80//27 79//27
g buildin2_landmark20c_back TT_B2
f 40/7/29 41/6/29 42/5/29
f 81/74/29 51/16/29 50/15/29 40/7/29 42/5/29 60/14/29 61/13/29 82/75/29
