v 5.22968061070424 -3.03845626488328 32.1053468072787
v 9.46347496288773 -3.03845626813335 32.2061514256923
v 9.37033890013117 -3.92332020588219 36.1178663829342
v 5.13654454794768 -3.92332020263212 36.0170617645206
v 16.4144280297632 -3 32.2015504311584
v 7.10943379633057 -4.72830250120023 39.6246351084709
v -1.15005546705348 -3 31.783348477507
v 2.12230895019521 -3 21.2391718440169
v 6.83835689820598 -3 21.2682876794582
v 6.80754663652896 -3 26.7655232152061
v 2.09149868851819 -3 26.7364073797648
v 8.42044165944421 -3 21.2391718440169
v 13.136489607455 -3 21.2682876794582
v 13.105679345778 -3 26.7655232152061
v 8.38963139776719 -3 26.7364073797648
v 16.1007765387486 -3 3.13651465238556
v 16.3098775327584 -3 6.79578174683537
v 15.7871250477341 -3 10.559599329698
v 15.9962260417438 -3 12.7551595863679
v 17.0417310117924 -3 18.2963354722491
v 16.4144280297632 -3 22.6874559855889
v 15.7871250477341 -3 31.2605960354427
v -0.41820198801945 -3 31.1560455470299
v -1.3591564610632 -3 22.582905497176
v -1.25460596405834 -3 17.8781335185977
v -0.209100994009728 -3 12.2324071443037
v 0 -3 10.3504983528723
v -0.41820198801945 -3 6.79578174683537
v -0.104550497004861 -3 3.24106514079841
v 0 -3 0
v 16.3098775327584 -3 0
v -1.15005546705348 6.19511031534057 31.783348477507
v 7.10943379633057 6.19511031534057 39.6246351084709
v 16.4144280297632 6.19511031534057 32.2015504311584
v -0.209100994009728 0 12.2324071443037
v -1.25460596405834 0 17.8781335185977
v 0 0 10.3504983528723
v -0.41820198801945 0 6.79578174683537
v -0.104550497004861 0 3.24106514079841
v 0 0 0
v -1.3591564610632 0 22.582905497176
v -0.41820198801945 6.19511031534057 31.1560455470299
v -1.3591564610632 6.19511031534057 22.582905497176
v -1.30107289793832 0 19.9691453713566
v -1.30107289793832 6.19511031534057 19.9691453713566
v 16.1007765387486 0 3.13651465238556
v 16.3098775327584 0 0
v 16.3098775327584 0 6.79578174683537
v 15.7871250477341 0 10.559599329698
v 15.9962260417438 0 12.7551595863679
v 17.0417310117924 0 18.2963354722491
v 15.7871250477341 6.19511031534057 31.2605960354427
v 16.4144280297632 6.19511031534057 22.6874559855889
v 16.4144280297632 0 22.6874559855889
v 16.8027581494238 0 19.9691453713566
v 16.8027581494238 6.19511031534057 19.9691453713566
v 16.3098775327584 -3 -2
v 16.3098775327584 -3 20
v 0 -3 20
v 0 -3 -2
v 16.3098775327584 0 -2
v 16.3098775327584 0 20
v 0 0 20
v 0 0 -2
v -1.30175855640897 6.19511031534057 20
v 16.7983503449697 6.19511031534057 20
vt 0 0
vt 1 0
vt 1 1
vt 0 1
vt 0.941530287265778 0.800419390201569
vt 0.494433581829071 0.981575191020966
vt 0.0971797928214073 0.789196670055389
vt 0.925661861896515 0.0890393778681755
vt 0.935813128948212 0.178611129522324
vt 0.910786330699921 0.270700603723526
vt 0.920897781848907 0.324448347091675
vt 0.97130686044693 0.460126578807831
vt 0.941271364688873 0.56756329536438
vt 0.911349654197693 0.777354419231415
vt 0.132343515753746 0.773884654045105
vt 0.0868777707219124 0.564005434513092
vt 0.0917755663394928 0.448862761259079
vt 0.141880199313164 0.310743242502213
vt 0.151880651712418 0.264695554971695
vt 0.131680607795715 0.177670910954475
vt 0.146661356091499 0.0906873941421509
vt 0.151598989963531 0.011368690058589
vt 0.935628175735474 0.0122854160144925
vt 1 0.984839975833893
vt 0 0.984839975833893
vt 0.674525618553162 0.402879506349564
vt 0.988112568855286 0.402843475341797
vt 0.988100230693817 0.582596719264984
vt 0.674513280391693 0.582632720470428
vt 0.674529790878296 0.342961728572845
vt 0.988116681575775 0.342925697565079
vt 0.674537539482117 0.229783788323402
vt 0.988124489784241 0.229747742414474
vt 0.674545288085938 0.116605818271637
vt 0.988132238388062 0.11656978726387
vt 0.674552440643311 0.0134141463786364
vt 0.988139271736145 0.0133781116455793
vt 0.675219416618347 0.555577993392944
vt 0.988795638084412 0.555951714515686
vt 0.988967776298523 0.698758184909821
vt 0.675391554832458 0.698384463787079
vt 0.0281397718936205 0.958016455173492
vt 0.989384055137634 0.958016455173492
vt 0.989384055137634 0.977273344993591
vt 0.0281397718936205 0.977273344993591
vt 0.027845149859786 0.697612762451172
vt 0.989281356334686 0.958983242511749
vt 0.0281587466597557 0.957837820053101
vt 0.675295948982239 0.61904764175415
vt 0.0277495421469212 0.618275940418243
vt 0.674545526504517 0.113277062773705
vt 0.988132476806641 0.113241024315357
vt 0.674529314041138 0.349619299173355
vt 0.988116204738617 0.349583268165588
vt 0.674524486064911 0.419523328542709
vt 0.98811137676239 0.419487297534943
vt 0.674512386322021 0.595947861671448
vt 0.988099277019501 0.595911800861359
vt 0.0281625706702471 0.961011290550232
vt 0.989285171031952 0.962156713008881
vt 0.988971590995789 0.701931655406952
vt 0.0278489757329226 0.700786232948303
vt 0.0281397718936205 0.990111231803894
vt 0.989384055137634 0.990111231803894
vt 0.989384055137634 0.961225926876068
vt 0.0281397718936205 0.961225926876068
vt 0.675395369529724 0.70155793428421
vt 0.988810956478119 0.568645656108856
vt 0.675234735012054 0.568271934986115
vt 0.0895666405558586 0.500792503356934
vt 0.959653735160828 0.50180983543396
vn 0.00525028898306048 -0.975370088327322 -0.220512188465731
vn 0.00264146000204997 -0.993823447179458 -0.110941329203306
vn 0.00525028976964791 -0.975370088327323 -0.220512188447002
vn 0 -1 0
vn -0.688508129661209 0 0.725228622842772
vn 0.623623278877464 0 0.781725019455129
vn -0.989231921643039 0 -0.146356432050047
vn -0.99473460695799 0 -0.102484446235189
vn -0.999994797234417 0 0.00322575636043343
vn -0.999894140626177 0 0.0145501732442944
vn -0.998192908470147 0 -0.0600909101271404
vn -0.999480114254317 0 -0.0322412966578087
vn -0.999051849149826 0 0.0435362229679353
vn -0.999753177791057 0 -0.0222167391100276
vn -0.929984453635655 0 -0.367598852005814
vn -0.65079134262497 0 -0.759256628791866
vn 0.999988748718607 0 0.00474367328075509
vn 0.997785157493784 0 0.0665190159661487
vn 0.999181499715698 0 0.0404515837253347
vn 0.999768299631089 0 0.0215254977354914
vn 0.990115364538122 0 -0.140255356067219
vn 0.999751478448218 0 -0.022293078311512
vn 0.967034488377724 0 -0.254645436417056
vn 0.994230782366133 0 0.107262068764437
vn 0.83205027329837 0 -0.554700227784438
vn 0.989949492034076 0 0.141421367626942
vn 1 0 0
vn -1 0 0
vn 0 1 0
g decals decal_base o228 BR_B1
f 1/1/1 2/2/1 3/3/1 4/4/1
g decal_base o228 BR_B1
f 5/5/2 6/6/3 7/7/2
g decals decal_base BR_B1_front BR_B1
f 8/1/4 9/2/4 10/3/4 11/4/4
f 12/2/4 13/1/4 14/4/4 15/3/4
g decal_base BR_B1_front BR_B1
f 16/8/4 17/9/4 18/10/4 19/11/4 20/12/4 21/13/4 22/14/4 5/5/2 7/7/2 23/15/4 24/16/4 25/17/4 26/18/4 27/19/4 28/20/4 29/21/4 30/22/4 31/23/4
g o230 BR_B1
f 32/1/5 7/2/5 6/3/5 33/4/5
f 33/24/6 6/25/6 5/1/6 34/2/6
g o231 BR_B1
f 35/26/7 26/27/7 25/28/8 36/29/8
f 37/30/9 27/31/9 26/27/7 35/26/7
f 38/32/10 28/33/10 27/31/9 37/30/9
f 39/34/11 29/35/11 28/33/10 38/32/10
f 40/36/12 30/37/12 29/35/11 39/34/11
f 36/38/8 25/39/8 24/40/13 41/41/14
f 42/42/15 23/43/15 7/44/16 32/45/16
f 43/46/13 24/40/13 23/47/15 42/48/15
f 44/49/14 41/41/14 43/46/13 45/50/14
g o232 BR_B1
f 46/51/17 16/52/17 31/37/18 47/36/18
f 48/32/19 17/33/19 16/52/17 46/51/17
f 49/53/20 18/54/20 17/33/19 48/32/19
f 50/55/21 19/56/21 18/54/20 49/53/20
f 51/57/22 20/58/22 19/56/21 50/55/21
f 52/59/23 22/60/23 21/61/24 53/62/24
f 34/63/25 5/64/25 22/65/23 52/66/23
f 54/67/26 21/61/24 20/68/22 51/69/22
f 53/62/24 54/67/26 55/49/26 56/50/26
g BR_B1_camera_collision BR_B1
f 57//4 58//4 59//4 60//4
f 61//27 62//27 58//27 57//27
f 60//28 59//28 63//28 64//28
g building_back BR_B1
f 32/7/29 33/6/29 34/5/29
f 65/70/29 43/16/29 42/15/29 32/7/29 34/5/29 52/14/29 53/13/29 66/71/29
