v 0.0649106275691135 -0.105116045068255 4.08495179624382
v -0.326562084238047 0.836613234572523 5.09815166002809
v 1.69897004375308 1.04311000643753 5.68882999770597
v 2.09044909539811 0.101383957337207 4.67562788114773
v -1.96062999134614 -0.311616993951672 3.49426995425087
v -2.35210003189527 0.630112019736623 4.50746981803514
v -0.718037037085986 1.77835028941237 6.11136078521648
v 1.30750000320395 1.9848499398219 6.70204012412725
v -2.74358008477319 1.57185001323229 5.52067994445641
v -1.10951020648786 2.72008064850735 7.12456190054185
v 0.916026020300357 2.92657992345455 7.71524023821973
v -3.1350498750141 2.51357010969027 6.53388005854889
v -1.50099000905755 3.66181000636944 8.13776001216858
v 0.524551004875363 3.8683100322413 8.72843985169578
v -3.52652992789201 3.45530998049759 7.54709018497016
v -1.89246017476079 4.60354061577264 9.15097113982273
v 0.133077053260303 4.81004139256915 9.74165348243213
v -3.9179994678247 4.39703933835968 8.56028879721334
vt 0.5 0
vt 0.5 0.200000002980232
vt 1 0.200000002980232
vt 1 0
vt 0 0
vt 0 0.200000002980232
vt 0.5 0.400000005960464
vt 1 0.400000005960464
vt 0 0.400000005960464
vt 0.5 0.600000023841858
vt 1 0.600000023841858
vt 0 0.600000023841858
vt 0.5 0.800000011920929
vt 1 0.800000011920929
vt 0 0.800000011920929
vt 0.5 1
vt 1 1
vt 0 1
vn 0.113867822160916 0.74926182581788 -0.652411553736126
vn 0.113869267548064 0.749260931580916 -0.652412328450777
vn 0.11386638120126 0.749262749188594 -0.652410744784664
vn 0.113868527535181 0.749260796543751 -0.652412612691994
vn 0.113868533935116 0.749260659841725 -0.652412768569876
vn 0.113868505660608 0.749260967918043 -0.652412419695654
vn 0.113868902291211 0.749260572779061 -0.652412804265664
vn 0.113868142202418 0.749260859370198 -0.652412607792954
vn 0.113869642477312 0.749260291723347 -0.652412997853916
vn 0.113868279956021 0.749261013130983 -0.652412407164204
vn 0.113868346141808 0.749261007410026 -0.652412402182731
vn 0.113868209342261 0.749260989715565 -0.652412446380078
vn 0.113868363948993 0.749260560274069 -0.652412912586322
vn 0.113868242217951 0.749260294682821 -0.652413238849432
vn 0.113868458423406 0.749260832036748 -0.652412583992582
vn 0.113866135876892 0.749262405723872 -0.652411182054186
vn 0.113867118050696 0.749263768058152 -0.652409446055258
vn 0.113865168410365 0.749261042113901 -0.652412916942384
vn 0.113868230262797 0.749260682274928 -0.652412795807783
vn 0.113867905373202 0.749260820802911 -0.652412693420099
vn 0.113868537518421 0.749260574790212 -0.6524128656215
vn 0.113865458191134 0.749259964019739 -0.652414104498104
vn 0.113865287735002 0.749260089198684 -0.652413990486872
vn 0.11386562279506 0.749259898384853 -0.65241415114773
vn 0.113867310929502 0.749263394348755 -0.652409841580173
vn 0.113867330709019 0.749262781376722 -0.652410542098165
vn 0.113867298503864 0.749264006684507 -0.652409140508095
vn 0.113866416345964 0.749262079665164 -0.652411507565863
vn 0.113865427474665 0.74926066268202 -0.652413307484842
vn 0.113867412570495 0.749263496007933 -0.652409707089396
g ThePaperToShred shredder_paper shredder_paper
f 1/1/1 2/2/2 3/3/1
f 1/1/1 3/3/1 4/4/3
f 1/1/4 5/5/5 6/6/4
f 1/1/4 6/6/4 2/2/6
f 2/2/7 7/7/8 8/8/7
f 2/2/7 8/8/7 3/3/9
f 2/2/10 6/6/11 9/9/10
f 2/2/10 9/9/10 7/7/12
f 7/7/13 10/10/14 11/11/13
f 7/7/13 11/11/13 8/8/15
f 7/7/16 9/9/17 12/12/16
f 7/7/16 12/12/16 10/10/18
f 10/10/19 13/13/20 14/14/19
f 10/10/19 14/14/19 11/11/21
f 10/10/22 12/12/23 15/15/22
f 10/10/22 15/15/22 13/13/24
f 13/13/25 16/16/26 17/17/25
f 13/13/25 17/17/25 14/14/27
f 13/13/28 15/15/29 18/18/28
f 13/13/28 18/18/28 16/16/30
