v 20 -2 54.5
v 20 28 54.5
v 26 28 63.5
v 26 -2 63.5
v 26 28 68.5
v 26 -2 68.5
v 4 -2 68.5
v 4 28 68.5
v 4 28 63.5
v 4 -2 63.5
v 9 28 54.5
v 9 -2 54.5
v 30 -2 0.5
v 30 -2 23.0708703813835
v 0 -2 23.0708703813835
v 0 -2 0.5
v 0 8.88178419700125e-16 23.0708703813835
v 0 0 0.5
v 9 8.88178419700125e-16 54.5
v 0 28 23.0708703813835
v 30 8.88178419700125e-16 23.0708703813835
v 30 28 23.0708703813835
v 20 0 54.5
v 30 8.88178419700125e-16 0.5
v 0 -2 -10
v 30 -2 -10
v 30 -2 10
v 0 -2 10
v 0 8.88178419700125e-16 -10
v 0 0 10
v 30 0 -10
v 30 8.88178419700125e-16 10
vt -0.00156194902956486 1.98377680778503
vt 0.989535570144653 1.98740530014038
vt 0.98872184753418 2.31848382949829
vt -0.00237567210569978 2.31485557556152
vt 0.988269746303558 2.50241661071777
vt -0.00282774050720036 2.49878811836243
vt 1 0
vt 1 0.291120827198029
vt 0.666666686534882 0.786026179790497
vt 0.866666674613953 0.917030572891235
vt 0.866666674613953 0.989810764789581
vt 0.133333340287209 0.989810764789581
vt 0.133333340287209 0.917030572891235
vt 0.300000011920929 0.786026179790497
vt 0 0.291120827198029
vt 0 0
vt 0.0015121161704883 0.733035147190094
vt 0.0675852820277214 0.733277022838593
vt 0.0693935602903366 -0.00245331996120512
vt 0.00332038989290595 -0.00269521377049387
vt 0.0645112171769142 1.98401868343353
vt 0.992609620094299 0.736663579940796
vt 0.0645112246274948 1.98401868343353
vn 0.9902191388897 0 -0.13952081198352
vn 0.957092026489053 0 -0.28978414868843
vn 1 0 0
vn -1 0 0
vn -0.968028221727429 0 -0.250841308279221
vn -0.99349746580602 0 -0.113854228893866
vn 0 -1 0
vn -0.990292928843768 0 0.138996097362596
vn -0.982714863430436 0 0.185125625435538
vn -0.961360169835936 0 0.275293704710118
vn 0.978912352605669 0 0.204280703729045
vn 0.952927335888923 0 0.303198767338588
vn 0.988161762033151 0 0.153415553499436
g suit_landmarkbldg3 suit_landmark3
f 1/1/1 2/2/1 3/3/2 4/4/2
f 4/4/2 3/3/2 5/5/3 6/6/3
f 7/6/4 8/5/4 9/3/5 10/4/5
f 10/4/5 9/3/5 11/2/6 12/1/6
f 13/7/7 14/8/7 1/9/7 4/10/7 6/11/7 7/12/7 10/13/7 12/14/7 15/15/7 16/16/7
f 15/17/8 17/18/9 18/19/4 16/20/4
f 19/21/10 11/2/6 20/22/10 17/18/9
f 12/1/6 19/21/10 17/18/9 15/17/8
f 21/18/11 22/22/12 2/2/1 23/23/12
f 14/17/13 21/18/11 23/23/12 1/1/1
f 13/20/3 24/19/3 21/18/11 14/17/13
g suit_landmarkbldg3collisions suit_landmark3
f 25//7 26//7 27//7 28//7
f 29//4 25//4 28//4 30//4
f 26//3 31//3 32//3 27//3
