v 0.779022569731465 0 -0.0135978894049101
v 0.882041986220152 0 7.64464080490152
v -0.676003153242777 0 7.67183679295337
v -0.779022569731465 0 0.0135978894049101
v -0.731705555452762 0 1.79744004577477
v -0.401278242977272 -0.74136976807762 1.77982435451718
v 0.361585836085122 -0.74136976807762 1.77982435451718
v 0.811090369237064 0 1.77647009922138
v 0.361585836085122 0.74136964292351 1.77982422936307
v -0.401278242977272 0.74136964292351 1.77982422936307
v -0.478906237234281 -0.930825368625911 0
v -0.957812474468562 1.17298195221857e-16 0
v 0.478906237234281 -0.930825368625911 0
v 0.957812474468562 -2.42198288826962e-16 0
v -0.478906237234281 0.930825368625911 0
v 0.478906237234281 0.930825368625911 0
v -0.999999984981507 0 6.33288406011626
v -0.866025389023027 -0.500000180221918 6.33288406011626
v -0.499999992490753 -0.866025389023027 6.33288406011626
v -1.83694990374753e-16 -0.999999859827397 6.33288406011626
v 0.499999992490753 -0.866025389023027 6.33288406011626
v 0.866025389023027 -0.500000180221918 6.33288406011626
v 0.999999984981507 0 6.33288406011626
v 0.866025389023027 0.500000180221918 6.33288406011626
v 0.499999992490753 0.866025389023027 6.33288406011626
v 3.0615561241789e-16 0.999999859827397 6.33288406011626
v -0.499999992490753 0.866025389023027 6.33288406011626
v -0.866025389023027 0.500000180221918 6.33288406011626
v -0.866025389023027 0.499999992490753 0
v -0.499999992490753 0.866025389023027 0
v 3.0615561241789e-16 0.999999984981507 0
v 0.499999992490753 0.866025389023027 0
v 0.866025389023027 0.499999992490753 0
v 0.999999984981507 -2.44925301396322e-16 0
v 0.866025389023027 -0.499999992490753 0
v 0.499999992490753 -0.866025389023027 0
v -1.83694990374753e-16 -0.999999984981507 0
v -0.499999992490753 -0.866025389023027 0
v -0.866025389023027 -0.499999992490753 0
v -0.999999984981507 1.22464679353185e-16 0
v 1.60000005106288 1.60000005106288 0.0250000340419179
v -1.60000005106288 1.60000005106288 0.0250000340419179
v -1.60000005106288 -1.60000005106288 0.0250000340419179
v 1.60000005106288 -1.60000005106288 0.0250000340419179
v -0.654305247809943 -0.0143663776828235 0.679529370285395
v -0.389985149613828 -0.542850569477231 0.668413244833158
v 0.220255917451513 -0.542850569477231 0.668413244833158
v 0.476167865312631 -0.0143663776828235 0.655930436502291
v 0.220255917451513 0.514117876688639 0.668413307410213
v -0.389985149613828 0.514117876688639 0.668413307410213
v -0.549353389289435 -0.717548185133246 -0.00958242441412658
v -0.897701894204448 -0.00646220339251941 -0.00958245570265403
v 0.27173801357039 -0.717548185133246 -0.00958242441412658
v 0.682283761933094 -0.00646220437028589 -0.00958245570265403
v 0.27173801357039 0.704623770526075 -0.00958242441412658
v -0.549353389289435 0.704623770526075 -0.00958242441412658
v -1.38336604661516 -0.138099049645772 7.75133818779092
v -1.18028785925838 0.000165644397572895 0.00359527473374615
v 0.857577361459807 -0.000151823423900629 0.00359527473374615
v 1.15764985873005 -0.138099049645772 7.73170150796885
v 1.05364278858415 -0.0932573333499939 5.9245026956393
v 1.14706682720835 -0.120356201812664 7.37243712417723
v 0.732614236866708 -0.119360976331816 7.28597315590526
v 1.3484629433299 -0.079739688262539 4.11826306440699
v 3.38537661735154 -0.0839418626519952 4.46775491469175
v 2.70674647934481 -0.126692504081826 7.56959940191955
v 1.14706595112958 -0.123636741337814 7.37237855205386
v 1.05364203765949 -0.0965373722587045 5.92444412351593
v -3.47383529182494 -0.0858562199149545 4.21889748160295
v -1.31545417265003 -0.086564091559783 4.24586869287366
v -1.3520837768795 -0.130336491141732 7.32398446150652
v -3.46694280469199 -0.129653650318857 7.29384434817657
vt 1 0
vt 1 1
vt 0 1
vt 0 0
vt 0.397865295410156 0.493006229400635
vt 0.433214724063873 0.493860185146332
vt 0.519128322601318 0.519121110439301
vt 0.56969279050827 0.543527960777283
vt 0.534343421459198 0.54267406463623
vt 0.448429703712463 0.517413258552551
vt 0.962750732898712 0.904893636703491
vt 0.219543561339378 0.904893636703491
vt 0.995389223098755 0.913646578788757
vt 0.25218203663826 0.913646578788757
vt 1.01230680942535 0.911409556865692
vt 0.269099563360214 0.911409556865692
vt 0.937138676643372 0.905815720558167
vt 0.193931490182877 0.905815720558167
vt 0.90108323097229 0.902387082576752
vt 0.157876044511795 0.902387082576752
vt 0.927240252494812 0.916654109954834
vt 0.184033036231995 0.916654109954834
vt 0.159255430102348 1.29562842845917
vt 0.180375695228577 1.27793061733246
vt 0.0742028877139091 1.29274380207062
vt 0.0955532491207123 1.2968807220459
vt 0.116903610527515 1.29274380207062
vt 0.138135135173798 1.27793061733246
vt 0.0524298846721649 -0.0565958730876446
vt 0.0529713556170464 1.27793061733246
vt 0.0318510830402374 1.29562842845917
vt 0.0316619463264942 -0.0665616244077682
vt 0.0738404989242554 -0.0366643778979778
vt 0.095754936337471 -0.0266986303031445
vt 0.117576591670513 -0.0366643778979778
vt 0.138475552201271 -0.0565958730876446
vt 0.0107308113947511 1.27793061733246
vt 0.0110712135210633 -0.0565958730876446
vt 0.43965470790863 0.998323976993561
vt 0.490573406219482 0.0526087656617165
vt 1.01493012905121 0.0556865930557251
vt 0.996226608753204 0.998323976993561
vt 0.44720533490181 0.782473266124725
vt 0.327397584915161 0.951278507709503
vt 0.437094658613205 0.951717376708984
vt 0.463955074548721 0.53328812122345
vt 0.00579425599426031 0.505185544490814
vt 0.00580287910997868 0.948170840740204
vt 0.324630290269852 0.949528336524963
vt 0.446504235267639 0.783239185810089
vt 0.0171753447502851 0.573289930820465
vt 0.459887623786926 0.567874252796173
vt 0.440863281488419 0.946851193904877
vt 0.00572334136813879 0.941574215888977
vn 0 -1 0
vn 0.00909460995902158 7.68656043365114e-08 0.99995864317965
vn -0.895282496134313 -0.434355103801676 0.0990196743932727
vn -0.993939190842677 1.75811617637663e-08 0.109931273562189
vn 0 -0.994382294691778 0.105848249884038
vn 0.994654593329599 1.82142932028613e-08 0.103258123013789
vn 0.870784724221009 -0.483282546478914 0.0903988071392407
vn 0 0.994382286065568 0.105848330922194
vn 0.87078474754525 0.483282499819143 0.0903988319123425
vn -0.895282505562452 0.434355080342596 0.0990196920536235
vn 0 -1.09496141931231e-07 0.999999999999994
vn -0.866025382643211 0.500000036617678 -7.41096697551481e-09
vn -0.499999895332917 0.866025464213999 -4.84560217750536e-10
vn 0 1 9.88128856826118e-09
vn 0.499999895332917 0.866025464213999 -4.84560217750532e-10
vn 0.866025382643211 0.500000036617678 -7.41096696674927e-09
vn 1 0 -3.97152423955059e-09
vn 0.866025382643211 -0.500000036617678 -7.41096696674927e-09
vn 0.499999895332917 -0.866025464213999 -4.84560217750535e-10
vn 0 -1 9.88128856826118e-09
vn -0.499999895332917 -0.866025464213999 -4.84560217750533e-10
vn -0.866025382643211 -0.500000036617678 -7.41096696674926e-09
vn -1 -0 -3.97152424831612e-09
vn 0 0 1
vn 0.0135557954347333 -3.57043165370069e-08 0.999908115983729
vn -0.853209117850206 -0.424424757664568 0.303146542613711
vn -0.940571329845829 -0.000666378561206551 0.339595537973722
vn 0.496228419919871 -0.824442126525581 0.272125954796314
vn 0 -0.968370226204236 0.249517744862279
vn 0.966768666158676 -0.000682291178170607 0.255651873868591
vn 0.494434820130316 0.819480076155061 0.289804439972194
vn 0 0.962717678219008 0.270508173711262
vn -0.850605907015239 0.42321762554683 0.312019923045446
vn -0.000145848065337751 -0.999840769355088 -0.0178441773071139
vn 0.00152342525332524 -0.999821906058221 -0.0188105114657452
vn -0.00195677354801265 -0.999903666446166 -0.0137415015481182
vn -0.000135213281060517 -0.99989872334031 -0.0142311201171168
g lamp1 MM_flute_lamp
f 1/1/1 2/2/1 3/3/1 4/4/1
g lamp1_base2 MM_flute_lamp
f 5/5/2 6/6/2 7/7/2 8/8/2 9/9/2 10/10/2
f 11/1/3 6/11/3 5/12/4 12/4/4
f 13/1/5 7/13/5 6/14/5 11/4/5
f 14/1/6 8/15/6 7/16/7 13/4/7
f 15/1/8 10/17/8 9/18/8 16/4/8
f 16/1/9 9/19/9 8/20/6 14/4/6
f 12/1/4 5/21/4 10/22/10 15/4/10
g prop_post_sign_collisions MM_flute_lamp
f 17//11 18//11 19//11 20//11 21//11 22//11 23//11 24//11 25//11 26//11 27//11 28//11
f 29//12 28//12 27//13 30//13
f 30//13 27//13 26//14 31//14
f 31//14 26//14 25//15 32//15
f 32//15 25//15 24//16 33//16
f 33//16 24//16 23//17 34//17
f 34//17 23//17 22//18 35//18
f 35//18 22//18 21//19 36//19
f 36//19 21//19 20//20 37//20
f 37//20 20//20 19//21 38//21
f 38//21 19//21 18//22 39//22
f 39//22 18//22 17//23 40//23
f 40//23 17//23 28//12 29//12
g o10_1 drop_shadow_1 MM_flute_lamp
f 41/4/24 42/1/24 43/2/24 44/3/24
g base MM_trumpets_lamp
f 45/23/25 46/24/25 47/25/25 48/26/25 49/27/25 50/28/25
f 51/29/26 46/30/26 45/31/27 52/32/27
f 53/33/28 47/25/28 46/30/29 51/29/29
f 54/34/30 48/26/30 47/25/28 53/33/28
f 55/35/31 49/27/31 48/26/30 54/34/30
f 56/36/32 50/28/32 49/27/31 55/35/31
f 52/32/27 45/31/27 50/37/33 56/38/33
g lamp MM_trumpets_lamp
f 57/39/34 58/40/34 59/41/34 60/42/34
f 61/43/35 62/44/35 63/45/35
f 64/46/36 65/47/36 66/48/36 67/49/36 68/50/36
f 69/51/37 70/52/37 71/53/37 72/54/37
g prop_post_sign_collisions__1 MM_trumpets_lamp
f 17//11 18//11 19//11 20//11 21//11 22//11 23//11 24//11 25//11 26//11 27//11 28//11
f 29//12 28//12 27//13 30//13
f 30//13 27//13 26//14 31//14
f 31//14 26//14 25//15 32//15
f 32//15 25//15 24//16 33//16
f 33//16 24//16 23//17 34//17
f 34//17 23//17 22//18 35//18
f 35//18 22//18 21//19 36//19
f 36//19 21//19 20//20 37//20
f 37//20 20//20 19//21 38//21
f 38//21 19//21 18//22 39//22
f 39//22 18//22 17//23 40//23
f 40//23 17//23 28//12 29//12
g o10 drop_shadow MM_trumpets_lamp
f 41/4/24 42/1/24 43/2/24 44/3/24
