v -3.63773674490094 -13.7931078117296 14.4371607248555
v 12.0608808663209 -13.7931078117296 14.4371607248555
v 12.0608808663209 -13.7931078117296 24.9392968981134
v -3.63773674490094 -13.7931078117296 24.9392968981134
v -3.63773674490094 8.31623209810564 24.9392968981134
v 12.0608808663209 8.31623209810564 24.9392968981134
v 12.0608808663209 8.31623209810564 14.4371607248555
v -3.63773674490094 8.31623209810564 14.4371607248555
v -3.63773674490094 -4.94937248323611 14.4371607248555
v 12.0608808663209 -4.94937248323611 14.4371607248555
v 12.0608808663209 -4.94937219439949 24.9392968981134
v -3.63773674490094 -4.94937219439949 24.9392968981134
v -3.63773674490094 -4.94937190556286 31.9407210136187
v 12.0608808663209 -4.94937190556286 31.9407210136187
v 12.0608808663209 8.31623209810564 31.9407210136187
v -3.63773674490094 8.31623209810564 31.9407210136187
v -1.83246649137144 1.16868974585844 30.0862089542579
v 0.0609569945722097 5.26153851612018 30.4140206084164
v 1.23321046060014 5.17015398886871 25.8215416134812
v -0.419937159253045 1.59388931960556 25.5363684626702
v 4.48014260296296 6.10375759100023 30.3538465124416
v 5.08689373203325 5.90550547127008 25.9059635672982
v 7.40667421693113 2.67775394715334 30.506011882792
v 7.65150369015128 2.92124477201544 25.5842093720524
v 5.91164930305318 -1.62828233368143 30.7206381650109
v 6.35928049820164 -0.796213757719731 25.1991051701423
v 1.48988051383689 -2.44931231716189 30.2428318133817
v 2.50078930648781 -1.52954074724155 25.1553853352865
v -0.419935156787288 1.59390333686586 25.5363504404784
v 1.23320445320287 5.17015599133446 25.8215336036181
v 2.04792767078407 3.13193120285893 19.5174229739532
v 0.32560887631331 0.50125088834685 21.2670894432568
v 5.08688572217022 5.90551147866735 25.905965569764
v 5.72341752196722 3.77256405252469 19.4700446341607
v 7.65149968521977 2.92125077941271 25.5842013621893
v 7.99572755364783 1.61163316867155 21.4305807599245
v 6.35927248833861 -0.79620875155534 25.1990951578135
v 6.59818267278333 -1.22680997667991 23.3688534714106
v 2.50077929415903 -1.52953574107716 25.1553673130947
v 2.91994744104838 -1.86751591634578 23.3948134374744
v 0.994152093689459 -3.42738968250648 19.8489712292128
v 3.40811455050028 -4.31561240443735 23.0139164161181
v 7.11712167351127 -3.90176881399382 22.8342792180579
v 8.7676180287032 -3.03874311867363 19.5861916529538
v 6.62709026844032 -1.9885008924059 16.6839789843622
v 2.92232436790103 -2.41478880629154 16.8687414935255
v 7.35600782836691 -9.44914763437809 16.8532343987092
v 3.98174890089398 -9.64914590424768 16.9999050030245
v 2.11384884347928 -9.41613698638658 19.8098190187469
v 4.21053862340669 -9.09182764483577 22.8343913561403
v 7.55146851083287 -8.657909335186 22.6986642271828
v 9.13665244291949 -8.92185234404939 19.7059471150396
v 3.54890791782106 -3.5203321281163 26.3022735675802
v 7.88856359623724 0.304424524235137 26.824080099271
v 7.86360085812003 -0.289078291391913 31.8824287474625
v 3.54863958740973 -4.15230030845484 31.4465680460292
v 7.88860765048387 0.304455562454359 26.8240861066683
v 6.71548311185198 5.93827582337084 27.6094691959892
v 6.69392857045188 5.39841706288753 31.7485819338501
v 7.86354478907885 -0.288999193994542 31.8824347548597
v 6.71546308719442 5.93825980364479 27.6094732009207
v 1.20263881589972 7.74741752810038 27.8730137141671
v 1.20927698988163 7.22268138900814 31.1788844311331
v 6.69392857045188 5.39841706288753 31.7485859387816
v 1.20267886521484 7.74744756508672 27.8730157166328
v -3.13700284525616 3.92265386711879 27.3514154389149
v -3.10562420685598 3.35939629427389 30.7428635324393
v 1.20927698988163 7.22268138900814 31.1788784237359
v -3.13700484772192 3.92265386711879 27.3514154389149
v -1.96383224991188 -1.71123748133204 26.5658140808266
v -1.93598996603721 -2.32812709452614 30.8766983312572
v -3.10567426849989 3.35935824742452 30.7428555225763
v -1.96389632881608 -1.71115938516754 26.5658240931553
v 3.54890791782106 -3.5203321281163 26.3022775725117
v 3.54863958740973 -4.15230030845484 31.4465720509607
v -1.9359399043933 -2.32809105014253 30.876708343586
v -2.03756103659064 -1.72530680573534 26.6181445184342
v 2.34660344818934 2.08810587810704 27.138226927109
v 5.75989043325126 -1.590358635957 26.6194401137785
v 1.32875410922731 -5.4587109702874 26.0919345645454
v 6.75827980999421 5.98129679767776 27.6470214363158
v 10.1381776810367 2.23192497118549 27.1408721843729
v 5.75989043325126 -1.59035963718987 26.61944411871
v -1.03833663162735 5.79121473823305 27.6602497251015
v 3.43225627765743 9.73122030348588 28.1976554650334
v -5.32422410202289 2.01384243307136 27.1450513304062
v -1.03833663162735 5.79121473823305 27.6602557324988
v 7.87796654745525 -8.52514385308196 15.5581987436049
v 10.0864740152107 -8.25016525543596 19.9362466967325
v 10.557165606008 -12.5304177871935 20.010289870535
v 8.38529124679703 -12.877927696996 15.6191137519096
v 10.0864980447998 -8.25016525543596 19.9362847435819
v 7.42837293586568 -8.58124092877708 24.052673500041
v 7.82984729533295 -12.0879789857509 24.0706316129429
v 10.5570935172408 -12.530421792125 20.0103279173844
v 2.56168228766912 -9.18726316031211 23.7910893958385
v 0.353178824845135 -9.46241397001314 19.4130264242177
v 0.75883633527718 -12.3404358510366 19.3485710564561
v 2.93065062051545 -11.9930581039739 23.7397942330268
v 0.353180827310891 -9.46241397001314 19.4130284266835
v 3.01135399542318 -9.13116007721971 15.2965755913201
v 3.48613061636314 -12.7828706475476 15.288189264733
v 0.758814308153862 -12.3404358510366 19.3485330096067
v 3.01127589925868 -9.13116207968547 15.2966126369366
v 7.87796654745525 -8.5251418506162 15.558197742372
v 8.38529124679703 -12.8779256945302 15.6191127506767
v 3.48616265581524 -12.7828666426161 15.2882343202125
v 2.96132238850368 -9.1830679945528 15.2684840004588
v 5.20811099412109 -8.90327546922881 19.6512397505793
v 9.01215113699142 -8.42942799239975 17.779705217817
v 6.74565626586691 -8.71175163443961 13.3388118793958
v 7.45040406411576 -8.60522646360525 24.1034760562767
v 11.2516167253383 -8.15064270735115 22.1677004195887
v 1.41858872798346 -9.37522060358946 21.5510831417374
v 3.69377029555851 -9.09184166209606 26.0610925869679
v -0.762547035350075 -9.64691115246372 17.2272950019736
v 1.41858872798346 -9.37522460852097 21.5510831417374
vt -2.89721488952637 0.350095003843307
vt -3.19358110427856 0.358877509832382
vt -3.19358086585999 0.987601161003113
vt -2.89721488952637 0.987608313560486
vt 0.964645147323608 0.358877509832382
vt 0.497584611177444 0.364403128623962
vt 0.497584611177444 0.98735499382019
vt 0.964645206928253 0.987601161003113
vt -0.454171776771545 0.364403128623962
vt -0.878539502620697 0.348275542259216
vt -0.878539502620697 0.987475037574768
vt -0.454171776771545 0.98735499382019
vt -1.30290853977203 0.324639290571213
vt -1.30290853977203 0.987590312957764
vt -1.7272777557373 0.340368181467056
vt -1.7272777557373 0.987598896026611
vt -2.15165185928345 0.350095003843307
vt -2.15165185928345 0.987608313560486
vt -2.89721488952637 0.0080998670309782
vt -3.19358086585999 0.0160722266882658
vt -3.19358086585999 0.373288631439209
vt -2.89721488952637 0.344808965921402
vt 0.832835257053375 0.0160722266882658
vt 0.487662315368652 0.0103992950171232
vt 0.487662315368652 0.368613302707672
vt 0.83283519744873 0.373288631439209
vt -0.454171776771545 0.0103992950171232
vt -0.878539502620697 0.0120404493063688
vt -0.878539502620697 0.337972432374954
vt -0.454171776771545 0.368613302707672
vt -1.30290853977203 0.0169392358511686
vt -1.30290853977203 0.312565058469772
vt -1.7272777557373 0.0179552566260099
vt -1.7272777557373 0.31374129652977
vt -2.15165185928345 0.0080998670309782
vt -2.15165185928345 0.344808965921402
vt -2.15165185928345 0.67014080286026
vt -1.7272777557373 0.654602229595184
vt -1.30290853977203 0.654009819030762
vt -0.878539502620697 0.683890283107758
vt -0.454171776771545 0.681916296482086
vt 0.487662315368652 0.681916296482086
vt 0.83283519744873 0.684377074241638
vt -3.19358086585999 0.684377074241638
vt -2.89721488952637 0.67014080286026
vt 0.487662315368652 0.9952192902565
vt 0.832835257053375 0.995465457439423
vt -3.19358086585999 0.995465457439423
vt -2.89721488952637 0.995472609996796
vt -2.15165185928345 0.995472609996796
vt -1.7272777557373 0.995463192462921
vt -1.30290853977203 0.995454549789429
vt -0.878539502620697 0.995339334011078
vt -0.454171776771545 0.9952192902565
vt 1 1
vt 0 1
vt 0 0
vt 1 0
vn 0 -1 0
vn 0 1 0
vn 0 0 -1
vn 0.999999999999999 0 -3.80246656374744e-08
vn -0.999999999999999 -0 -4.53382987556912e-08
vn -1 0 0
vn 1 0 0
vn 0 0 1
vn 0 -0.999999999999999 4.12539833405389e-08
vn -0.875656810943772 0.423498405338807 -0.232108272414558
vn -0.594922054305094 0.786000476966802 -0.168139821307645
vn -0.186688638563817 0.980053441863259 -0.0681366518341466
vn 0.758420704055368 0.64776974767851 0.0720582379237733
vn 0.981211777936218 0.183976228241623 0.0581050280202365
vn 0.944045587449555 -0.328558856701442 0.028757720703597
vn 0.190988910489869 -0.97236053766923 -0.134306443827163
vn -0.297097212895866 -0.926568192150445 -0.230661291474241
vn -0.711025224654349 -0.649495708638677 -0.269441003496451
vn -0.873853616371565 0.415748313004693 -0.252057924668299
vn -0.579827020534579 0.749084902682581 -0.320425396669834
vn -0.7121563396231 0.553498145683979 -0.431825370559703
vn -0.870342189826722 0.26652602337318 -0.414087371785842
vn 0.328736785717984 0.905802855995616 -0.267307522875793
vn 0.196188309952626 0.809395430634581 -0.553524330003474
vn 0.743456281797366 0.653208645299927 -0.143496420727036
vn 0.923402946190436 0.380268335326991 -0.0521822969450527
vn 0.923576120647815 -0.334553964139561 0.187298677111285
vn 0.628404016315403 -0.739064031980837 0.242678282734361
vn 0.775815460554493 -0.514220677003765 0.365632966930514
vn -0.303993728996135 -0.940646520716223 0.150903730223904
vn -0.303993623470042 -0.940646581707089 0.150903562623032
vn -0.710042772663215 -0.703529047811153 0.0297681016302248
vn -0.789135866128077 -0.530702009276477 0.309224776077533
vn -0.778093122667483 -0.297257690730361 0.553361507298093
vn -0.793672562899354 -0.226917572035752 0.564439791653786
vn -0.793672058384913 -0.226917395541774 0.564440572017634
vn 0.875077493039279 0.0278824048484894 0.48317900686594
vn 0.875077410913053 0.0278825221972254 0.483179148831599
vn 0.797079431573314 0.347823763407058 -0.493642592745109
vn 0.821603225677091 0.204223234186603 -0.532222707309039
vn 0.586219920979623 0.314544514776004 -0.746597584024335
vn -0.0891298644875916 0.420041251170827 -0.903117497655355
vn -0.505392169788736 0.102250109226534 -0.856810171437872
vn -0.828200662574397 -0.0174052360309494 -0.560161334144046
vn -0.0444719981255995 -0.0258286779138674 -0.998676684808421
vn 0.449118612197331 0.017296884131913 -0.893304701642878
vn -0.48369190196133 -0.0922338574242413 -0.870364900212363
vn -0.819504787420521 -0.138920230298736 -0.55597938181968
vn -0.805035078229062 -0.155371799517405 0.57251910600036
vn -0.805034439530437 -0.155371516652843 0.572520080855607
vn 0.88323279745506 0.0660017405001424 0.46426672910156
vn 0.883232694749936 0.0660017905296201 0.464266917377979
vn 0.827467626955018 0.0559846005481515 -0.558715536604178
vn 0.666968067107732 -0.739962533313686 -0.0872298501120326
vn 0.979158720768391 0.200910384225797 0.0297189679068772
vn 0.307426428365968 0.941903814817656 0.135300387191208
vn -0.666653258997193 0.735115033083212 0.123204384676395
vn -0.979251036493704 -0.201304571770006 -0.0233211687207464
vn -0.308191144718312 -0.943249446563445 -0.123687913212936
vn -0.00221720338886032 0.137619794496692 -0.990482648092242
vn -0.00290664791967107 0.136999499708123 -0.990566852099138
vn -0.00359795823023817 0.136380225792534 -0.990650033417125
vn -0.00215099720677298 0.13475876546082 -0.990876101408492
vn -0.00504490270646427 0.13800075736684 -0.990419274813885
vn -0.00221350418561068 0.13761821514784 -0.99048287580288
vn 0.888004281360347 0.0935617588034888 -0.450216163165309
vn 0.831608151429986 0.0995873186241624 0.546360914089259
vn -0.88335560418479 -0.12956266525428 0.450440220592624
vn -0.831094004146808 -0.105963547649658 -0.545943662698565
vn 0.0605101686191196 0.00087345419034311 -0.998167198705439
vn -0.123597734367483 0.992332404011634 2.77786957562525e-06
vn -0.124008033425308 0.992280866058702 -0.000830963164497877
vn -0.123043879005802 0.992400341690128 -0.00132877858273938
vn -0.124420043556625 0.992228241471225 -0.0016642080063484
vn -0.1224897653226 0.992466210848658 -0.00266039751198925
vn -0.126349662923104 0.991985542503858 -0.000667939027440647
vn -0.123594080843236 0.992332859063797 1.6689354960937e-06
g collision_pipe collision props
f 1//1 2//1 3//1 4//1
f 5//2 6//2 7//2 8//2
f 9//3 10//3 2//3 1//3
f 2//4 10//4 11//4 3//4
f 9//5 1//5 4//5 12//5
f 8//6 9//6 12//6 5//6
f 8//3 7//3 10//3 9//3
f 11//7 10//7 7//7 6//7
f 13//8 14//8 15//8 16//8
f 5//6 12//6 13//6 16//6
f 16//2 15//2 6//2 5//2
f 14//7 11//7 6//7 15//7
f 13//9 12//9 11//9 14//9
f 12//8 4//8 3//8 11//8
g polySurface1 geometry props
f 17/1/10 18/2/11 19/3/11 20/4/10
f 18/5/11 21/6/12 22/7/12 19/8/11
f 21/9/13 23/10/14 24/11/14 22/12/13
f 23/10/14 25/13/15 26/14/15 24/11/14
f 25/13/16 27/15/17 28/16/17 26/14/16
f 27/15/17 17/17/18 20/18/18 28/16/17
g polySurface2 geometry props
f 29/19/19 30/20/20 31/21/21 32/22/22
f 30/23/20 33/24/23 34/25/24 31/26/21
f 33/27/23 35/28/25 36/29/26 34/30/24
f 35/28/27 37/31/28 38/32/29 36/29/27
f 37/31/28 39/33/30 40/34/31 38/32/29
f 39/33/30 29/35/32 32/36/33 40/34/31
f 40/34/34 32/36/33 41/37/35 42/38/36
f 36/29/26 38/32/29 43/39/37 44/40/38
f 34/30/39 36/29/26 44/40/40 45/41/41
f 31/26/42 34/25/24 45/42/41 46/43/43
f 32/22/22 31/21/21 46/44/43 41/45/44
f 46/43/43 45/42/45 47/46/46 48/47/47
f 41/45/44 46/44/43 48/48/47 49/49/48
f 42/38/36 41/37/35 49/50/49 50/51/50
f 44/40/38 43/39/37 51/52/51 52/53/52
f 45/41/41 44/40/40 52/53/53 47/54/46
g polySurface3 geometry props
f 53/55/54 54/56/54 55/57/54 56/58/54
g polySurface4 geometry props
f 57/55/55 58/56/55 59/57/55 60/58/55
g polySurface5 geometry props
f 61/55/56 62/56/56 63/57/56 64/58/56
g polySurface6 geometry props
f 65/55/57 66/56/57 67/57/57 68/58/57
g polySurface7 geometry props
f 69/55/58 70/56/58 71/57/58 72/58/58
g polySurface8 geometry props
f 73/55/59 74/56/59 75/57/59 76/58/59
g polySurface9 geometry props
f 77/57/60 78/58/61 79/55/60 80/56/60
f 81/57/62 82/56/63 83/55/63 78/58/61
f 81/57/62 78/58/61 84/55/64 85/56/64
f 77/57/65 86/56/65 87/55/65 78/58/61
g polySurface10 geometry props
f 88/55/66 89/56/66 90/57/66 91/58/66
g polySurface11 geometry props
f 92/55/67 93/56/67 94/57/67 95/58/67
g polySurface12 geometry props
f 96/55/68 97/56/68 98/57/68 99/58/68
g polySurface13 geometry props
f 100/55/69 101/56/69 102/57/69 103/58/69
g polySurface14 geometry props
f 104/55/70 105/56/70 106/57/70 107/58/70
g polySurface15 geometry props
f 108/57/71 109/58/72 110/55/73 111/56/71
f 112/57/74 113/56/75 110/55/73 109/58/72
f 112/57/74 109/58/72 114/55/76 115/56/76
f 108/57/77 116/56/77 117/55/77 109/58/72
