v -1.98207830392891 0 0.810457967171473
v -1.98207830392891 0 -1.76235159777528
v 1.98207830392891 0 -1.76235159777528
v 1.98207830392891 0 0.810457967171473
v -1.48603535371029 0 1.23326179085809
v -1.48603535371029 0 -1.23326179085809
v 1.48603535371029 0 -1.23326179085809
v 1.48603535371029 0 1.23326179085809
vt 0 1
vt 0 0
vt 1 0
vt 1 1
vn 0 -1 0
g window_sm_curved_ur window_sm_curvedBR newwindows
f 1/1/1 2/2/1 3/3/1 4/4/1
g window_sm_curved_ul window_sm_curvedBR newwindows
f 1/4/1 2/3/1 3/2/1 4/1/1
g window_sm_round_ur window_sm_roundBR newwindows
f 5/1/1 6/2/1 7/3/1 8/4/1
g window_sm_round_ul window_sm_roundBR newwindows
f 5/4/1 6/3/1 7/2/1 8/1/1
