v 1.00001212493015 -1.00001212493015 -0.000428094826834252
v 1.00001212493015 1.00001212493015 -0.000428094826834252
v 1.00001212493015 1.00001212493015 1.99959622280491
v 1.00001212493015 -1.00001212493015 1.99959622280491
v -1.00001212493015 1.00001212493015 -0.000428094826834252
v -1.00001212493015 -1.00001212493015 -0.000428094826834252
v -1.00001212493015 -1.00001212493015 1.99959622280491
v -1.00001212493015 1.00001212493015 1.99959622280491
v -0.997251649141423 0.997251586563607 0.998813716578885
v -0.997251586563607 0.997251586563607 0.00205461742545411
v -0.997251586563607 -0.997251586563607 0.00205461742545411
v -0.997251586563607 -0.997251586563607 0.998813716578885
v 0.674086604542338 0.674086729697969 1.27395516863764
v -0.674086667120153 0.674086854853601 1.27395491832637
v -0.674086729697969 -0.674086729697969 1.27395491832637
v 0.674086604542338 -0.674086729697969 1.27395516863764
v 0.997251461407976 0.997251586563607 0.00205461742545411
v 0.997251461407976 0.997251523985792 0.998813841734517
v 0.997251523985792 -0.997251523985792 0.998813841734517
v 0.997251523985792 -0.997251523985792 0.00205461742545411
v -0.80355710165281 -0.80355710165281 1.11799923677709
v -0.80355710165281 0.80355710165281 1.11799923677709
v 0.803556976497178 -0.80355710165281 1.11799936193272
v 0.803556976497178 0.80355710165281 1.11799936193272
v 0.500006134742245 -0.350004231741756 2.00002428865772
v 0.350004231741756 -0.500006009586613 2.00002403834645
v 0.350004231741756 -0.500006072164429 1.27438307574193
v 0.500006072164429 -0.350004231741756 1.2743829505863
v 0.350004231741756 0.500006009586613 2.00002403834645
v 0.500006134742245 0.350004231741756 2.00002428865772
v 0.500006072164429 0.350004231741756 1.2743829505863
v 0.350004231741756 0.500006009586613 1.27438307574193
v -0.350004231741756 -0.500006009586613 2.00002441381335
v -0.500006009586613 -0.350004231741756 2.00002453896898
v -0.500006072164429 -0.350004231741756 1.2743829505863
v -0.35000416916394 -0.500006072164429 1.2743829505863
v -0.500006009586613 0.350004231741756 2.00002453896898
v -0.350004231741756 0.500006009586613 2.00002441381335
v -0.35000416916394 0.500006072164429 1.2743829505863
v -0.500006072164429 0.350004294319571 1.2743829505863
v -6.00000002539558 1.67918419764825 3.55259967271104
v -6.00000002539558 1.67918419764825 2.00296744848941
v -6.00000002539558 -1.69507383147508 2.00296744848941
v -6.00000002539558 -1.69507383147508 3.55259967271104
v 6.00000002539558 1.67918419764825 3.55259967271104
v 6.00000002539558 -1.69507383147508 3.55259967271104
v 6.00000002539558 1.67918419764825 2.00296744848941
v 6.00000002539558 -1.69507383147508 2.00296744848941
v 6.04060351600781 -1.71057110239699 1.99155688440473
v 6.04060351600781 1.71057110239699 1.99155688440473
v 6.04060351600781 1.71057110239699 3.5595801029055
v 6.04060351600781 -1.71057110239699 3.5595801029055
v -6.04060351600781 1.71057110239699 1.99155688440473
v -6.04060351600781 -1.71057110239699 1.99155688440473
v -6.04060351600781 -1.71057110239699 3.5595801029055
v -6.04060351600781 1.71057110239699 3.5595801029055
vn 1 0 0
vn -1 0 0
vn -0.872943879844156 -1.42008589917044e-08 0.487820645978245
vn -1 -1.56875703538617e-08 0
vn 0.425000831076427 0 0.905192959309973
vn -0.425000766880184 8.99933352151033e-09 0.905192989451009
vn -0.304829742426673 -0.304829710223022 0.902306863487936
vn 0.304829710876943 -0.304829766682333 0.902306855072637
vn 0.999999999999997 3.1375144260437e-08 6.60945644881393e-08
vn 0.872943872187653 2.31863000641107e-08 0.48782065967938
vn 0 0 -1
vn -1.07170779373636e-08 -0.872943907359288 0.487820596740542
vn 2.97340019272951e-08 -1 0
vn -0.369841636636299 -0.369841689879932 0.852311145202818
vn -0.655443228047857 3.6417281260755e-09 0.7552444470542
vn 0.369841688418988 -0.369841722439386 0.852311108604399
vn 0.65544342183369 4.61404463178261e-09 0.755244278876009
vn 0.923879492599281 -0.382683528721178 -4.66716332656413e-08
vn 0.382683336009005 -0.923879572423277 4.66716508126674e-08
vn 0.707106393756259 0.707107168616622 -5.33503468037424e-08
vn 0.92387947264327 0.382683576899231 -6.31725571562224e-08
vn -0.382683384187028 -0.92387955246729 6.3172557957549e-08
vn -0.92387951255528 -0.382683480543143 6.31725365644036e-08
vn -0.923879492599268 0.382683528721205 7.96734554076743e-08
vn -0.707106572570263 0.707106989802767 6.98889106855871e-08
vn -1.85666976904028e-07 0 0.999999999999983
vn 0.999999999999975 0 2.22958802498235e-07
vn -0.999999999999975 0 2.22958802498235e-07
vn 0 7.20566761813757e-09 1
g collisionmesh stomper_collision square_stomper
f 1//1 2//1 3//1 4//1
f 5//2 6//2 7//2 8//2
g head square_stomper
f 9//3 10//4 11//4 12//3
f 13//5 14//6 15//7 16//8
f 17//9 18//10 19//10 20//9
f 10//11 17//11 20//11 11//11
f 12//12 11//13 20//13 19//12
f 21//14 22//15 9//3 12//3
f 19//12 23//16 21//14 12//12
f 19//10 18//10 24//17 23//16
f 22//15 21//14 15//7 14//6
f 21//14 23//16 16//8 15//7
f 23//16 24//17 13//5 16//8
g shaft shaft_group square_stomper
f 25//18 26//19 27//19 28//18
f 29//20 30//21 31//21 32//20
f 33//22 34//23 35//23 36//22
f 37//24 38//25 39//25 40//24
f 25//18 28//18 31//21 30//21
f 35//23 34//23 37//24 40//24
f 33//22 36//22 27//19 26//19
g block_geom block block_group square_stomper
f 41//4 42//4 43//4 44//4
f 45//26 41//26 44//26 46//26
f 47//9 45//9 46//9 48//9
f 42//11 47//11 48//11 43//11
f 44//13 43//13 48//13 46//13
g side_collision block_collision block block_group square_stomper
f 49//27 50//27 51//27 52//27
f 53//28 54//28 55//28 56//28
g top_collision block_collision block block_group square_stomper
f 55//29 52//29 51//29 56//29
g floor1 block_collision block block_group square_stomper
f 54//29 49//29 50//29 53//29
