v 2.99999482362602 0.00573846944204466 -0.00478523952050472
v 1.49502766726837 2.60094119494981 -0.00478523952050472
v 1.49502766726837 2.60094119494981 8.27272770598804
v 2.99999482362602 0.00573846944204466 8.27272770598804
v -1.50496740666587 2.59520237840067 -0.00478523952050472
v -1.50496740666587 2.59520237840067 8.27272770598804
v -2.9999945733178 -0.00573904583538611 -0.00478523952050472
v -2.9999945733178 -0.00573904583538611 8.27272770598804
v -1.49502729180604 -2.60094144525803 -0.00478523952050472
v -1.49502729180604 -2.60094144525803 8.27272770598804
v 1.50496765697409 -2.59520187778423 -0.00478523952050472
v 1.50496765697409 -2.59520187778423 8.27272770598804
v 2.99999482362602 0.00573846944204466 -0.00332805145196808
v 1.49502766726837 2.60094119494981 -0.00332805145196808
v 1.49502766726837 2.60094119494981 8.2880274035317
v 2.99999482362602 0.00573846944204466 8.2880274035317
v -1.50496740666587 2.59520237840067 -0.00332805145196808
v -1.50496740666587 2.59520237840067 8.2880274035317
v -2.9999945733178 -0.00573904583538611 -0.00332805145196808
v -2.9999945733178 -0.00573904583538611 8.2880274035317
v -1.49502729180604 -2.60094144525803 -0.00332805145196808
v -1.49502729180604 -2.60094144525803 8.2880274035317
v 1.50496765697409 -2.59520187778423 -0.00332805145196808
v 1.50496765697409 -2.59520187778423 8.2880274035317
v -1.21635001475417 -2.62854067985154 3.12304584373014
v 1.15957472893823 -2.62854067985154 3.12304584373014
v 1.15957472893823 -2.62854067985154 5.04458119550089
v -1.21635001475417 -2.62854067985154 5.04458119550089
v -1.47060223085785 -2.65354040030525 2.91741868828364
v 1.41382693217626 -2.65354040030525 2.91741868828364
v 1.12455826719224 -2.65354040030525 3.1763962776862
v -1.1813334899038 -2.65354040030525 3.1763962776862
v 1.41382693217626 -2.65354040030525 5.25020831942111
v 1.12455826719224 -2.65354040030525 4.99123073001855
v -1.47060223085785 -2.65354040030525 5.25020831942111
v -1.1813334899038 -2.65354040030525 4.99123073001855
vt -0.247975409030914 -1.0020147562027
vt -0.0315033197402954 -1.0020147562027
vt -0.0315033197402954 -0.00201475620269775
vt -0.247975409030914 -0.00201475620269775
vt -1.03184914588928 -1.0020147562027
vt -0.872791171073914 -1.0020147562027
vt -0.872791171073914 -0.00201475620269775
vt -1.03184914588928 -0.00201475620269775
vt -0.74797534942627 -1.0020147562027
vt -0.74797534942627 -0.00201475620269775
vt -0.587809562683105 -1.0020147562027
vt -0.587809562683105 -0.00201475620269775
vt -0.414641916751862 -1.0020147562027
vt -0.414641916751862 -0.00201475620269775
vt 0.75000011920929 0.99999988079071
vt 1 0.5
vt 0.75 -1.21677701248046e-09
vt 0.249999955296516 9.51268859239462e-08
vt -3.90118053417154e-08 0.50000011920929
vt 0.250000089406967 1
vt 0.75000011920929 0.999999821186066
vt -3.90118053417154e-08 0.5
vt 0.249999955296516 2.5494310662566e-08
vt 0.75 -7.08493530510168e-08
vt 1 0.499999940395355
vt 0.390315383672714 0.236614942550659
vt 0.647257387638092 0.236614942550659
vt 0.59070485830307 0.294109761714935
vt 0.448100745677948 0.294109761714935
vt 0.647257745265961 0.29410982131958
vt 0.390315353870392 0.294110000133514
vt 0.448100805282593 0.236614942550659
vt 0.590705156326294 0.236614853143692
vt 0.647257328033447 0.294109106063843
vt 0.390315383672714 0.294109106063843
vt 0.448100745677948 0.236614227294922
vt 0.590704798698425 0.236614227294922
vt 0.390315651893616 0.236615359783173
vt 0.647257804870605 0.236614882946014
vt 0.590705692768097 0.294109523296356
vt 0.448101103305817 0.294109702110291
vn 0.999998170502557 0.00191284906317422 0
vn 0.86506741173396 0.50165563203846 0
vn -0.00191289562959561 0.999998170413482 0
vn -0.866980349506864 0.49834232568482 0
vn -0.99999817024477 -0.00191298382439283 0
vn -0.865067385867574 -0.501655676643095 0
vn 0.00191314964687249 -0.99999816992754 0
vn 0.501655825667029 -0.865067299448044 0
vn 0 0 -1
vn 0 2.24773785362225e-07 0.999999999999975
vn 0.865067400867583 0.50165565077671 0
vn -0.00191292159011476 0.999998170363821 0
vn -0.866980364309383 0.498342299932455 0
vn -0.865067345001175 -0.501655747114113 0
vn 0.00191321553769677 -0.999998169801478 0
vn 0 0 1
vn 0 -1 0
vn 2.4211678351093e-07 -0.999999999999971 0
vn -2.42116840354349e-07 -0.999999999999971 0
g gagTank1 gagTankAll
f 1/1/1 2/2/2 3/3/2 4/4/1
f 2/5/3 5/6/3 6/7/3 3/8/3
f 5/6/4 7/9/5 8/10/5 6/7/4
f 7/9/5 9/11/6 10/12/6 8/10/5
f 9/11/7 11/13/8 12/14/8 10/12/7
f 11/13/8 1/1/1 4/4/1 12/14/8
f 1/15/9 11/16/9 9/17/9 7/18/9 5/19/9 2/20/9
f 4/21/10 3/20/10 6/22/10 8/23/10 10/24/10 12/25/10
g tubeColl gagTankColl gagTankAll
f 13//1 14//11 15//11 16//1
f 14//12 17//12 18//12 15//12
f 17//13 19//5 20//5 18//13
f 19//5 21//14 22//14 20//5
f 21//15 23//8 24//8 22//15
f 23//8 13//1 16//1 24//8
f 13//9 23//9 21//9 19//9 17//9 14//9
f 16//16 15//16 18//16 20//16 22//16 24//16
g gagLable gagLabelDCS gagTankAll
f 25//17 26//17 27//17 28//17
g gagLableFrame gagLabelDCS gagTankAll
f 29/26/18 30/27/19 31/28/19 32/29/18
f 30/30/19 33/31/19 34/32/19 31/33/19
f 33/34/19 35/35/18 36/36/18 34/37/19
f 35/38/18 29/39/18 32/40/18 36/41/18
