v -0.0463711855695399 -0.00527056601205709 0.692196523285315
v 0.114772254947797 -0.00527056601205709 0.692196523285315
v 0.114772254947797 -0.00527056601205712 1.12670265247656
v -0.0463711855695399 -0.00527056601205712 1.12670265247656
v 0.00353635762879659 0.120506976947496 0.749656183493544
v -0.115664028679331 0.0409880778597329 0.749656183493544
v -0.206727100971615 0.0717998486984555 0.871318820897655
v 0.00283928200302576 0.21160209493307 0.871318820897655
v -0.0768719992876251 -0.0969508988181052 0.749656183493544
v -0.1385267724196 -0.170710885518731 0.871318820897655
v 0.0663031559922208 -0.102682976624645 0.749656183493544
v 0.113189673306426 -0.180788421765617 0.871318820897655
v 0.11599824663316 0.0317133811487669 0.749656183493544
v 0.200558684304977 0.0554939764710148 0.871318820897655
v -0.395505114510369 0.130633921707449 1.16409989519516
v -0.00667829818879533 0.390021271298243 1.16409989519516
v -0.268967085605694 -0.319317434064452 1.16409989519516
v 0.198064451170067 -0.33801519336336 1.16409989519516
v 0.360167829751885 0.100380221174875 1.16409989519516
v 0.003229943163312 0 0.677989073963302
v 1.01479377831776e-08 0.0773859149201961 0.684929081774133
v -0.0773859149201961 6.76529185545174e-09 0.684929081774133
v -0.109440197781941 9.56756796856201e-09 0.748370763823742
v 1.43513444930768e-08 0.109440197781941 0.748370763823742
v -3.38264592772587e-09 -0.0773859149201961 0.684929081774133
v -4.783783984281e-09 -0.109440197781941 0.748370763823742
v 0.0773859149201961 0 0.684929081774133
v 0.109440197781941 0 0.748370763823742
v 0 0 0.658650661078025
v -0.0252499042220629 0.0191444487083615 -0.0175763928671209
v -0.00337165171705832 -0.0294418159745184 -0.0175763928671209
v 0.0158350768051748 -0.0249531012507561 0.249188090246806
v -0.00200061973311457 0.0146556714075444 0.249188090246806
v 0.0277660650218253 0.0137983774888547 -0.0175763928671209
v 0.0412193808968612 0.0102974298432117 0.249188090246806
v -0.0138212376692164 0.00867067672449147 0.668167191853361
v -0.00137560010895016 -0.0189681065677032 0.668167191853361
v 0.0163374297575062 0.00562952963385995 0.668167191853361
v -0.0250819474067588 0.0101668941067273 0.50605329002921
v -0.0112887755466571 -0.020464323949939 0.50605329002921
v 0.00834211589783195 0.00679650957503031 0.50605329002921
v -0.00976180154194669 0.0483579210096144 -0.00478696674499612
v 0.111095767634434 -0.062095555733508 -0.00478696674499612
v 0.148027243576651 -0.00634755049477725 0.210798787945525
v 0.0271696744002695 0.104105894959818 0.210798787945525
v 0.226014680436903 0.0636481159315335 0.400895021093173
v 0.105157142549049 0.174101553563997 0.400895021093173
v 0.305348149747673 0.126108503717137 0.568233262209755
v 0.184490580571292 0.236561949171732 0.568233262209755
v 0.409310289568163 0.193652549753665 0.734424778795618
v 0.288452689103254 0.304106026496787 0.734424778795618
v -0.0874446132990319 -0.0596009527291526 0.0137094682048312
v 0.0329115885136321 0.0451264418954924 -0.0230747414386179
v -0.00451962778887411 0.130893567728558 0.184167933276319
v -0.124875798313011 0.026166188748177 0.22095213411987
v -0.049750854962767 0.253119728383743 0.359317449134166
v -0.170107025486904 0.148392349403361 0.396101649977717
v -0.109385536724501 0.371201645358028 0.511307697596512
v -0.229741738537165 0.266474250733383 0.548091898440063
v -0.179908250573426 0.51359808038226 0.657446490810925
v -0.300264483674618 0.408870685757614 0.694230660365948
v 0.0163073188882551 0.027168712340617 -0.0175763928671209
v -0.029633734340402 0.000174218888260852 -0.0175763928671209
v -0.023098206684892 -0.0184358283621399 0.249188090246806
v 0.0143541234617545 0.00357075949444235 0.249188090246806
v 0.0167146379710706 -0.0261145642432954 -0.0175763928671209
v 0.0146861956153353 -0.0398671554195242 0.249188090246806
v 0.0389137348064317 -0.278096596082193 0.438433244159528
v 0.011581331489636 -0.282414566980327 0.426060133405871
v 0.0362414559791965 -0.281658806562233 0.408450574699662
v 0.0206894753241193 -0.0963722032214682 0.409645201965893
v -0.00913958558825988 -0.105418693762349 0.397118746139246
v 0.0188489254921369 -0.110645783404249 0.379290699645916
v -0.01220493526129 0.064503048759117 -0.00478696674499612
v 0.0528806154406892 -0.0857314134713822 -0.00478696674499612
v 0.109388900685863 -0.049974068743087 0.210798787945525
v 0.0443033371819983 0.100260364937742 0.210798787945525
v 0.192058002300468 0.0331354099874632 0.278301095086446
v 0.126971721599799 0.183370079539362 0.278301095086446
v 0.287847724441073 0.110183915992047 0.271677407692737
v 0.222761165153785 0.260418881914921 0.271677407692737
v 0.334955919592829 0.155809299430951 0.177175964270364
v 0.26986944249951 0.306044142772108 0.177175964270364
v -0.0281204762577225 -0.0266442329366597 0.016208693949561
v 0.049871131231308 0.11208282421006 -0.0222449581143307
v -0.105746988230377 0.191869526640852 0.130389217434693
v -0.183738666125099 0.0531427151289119 0.168842791501203
v -0.205846974658939 0.258308119691528 0.166831554417853
v -0.283838690267895 0.119581253166022 0.205285105963495
v -0.302498227555814 0.305256393719533 0.142437212769661
v -0.380490030793203 0.166529375487363 0.180890776313729
v -0.366267447787817 0.325172322864919 0.0807589482532307
v -0.444258973247077 0.18644566162481 0.119212475936199
v 0.108575727383815 -0.26218569974495 0.43847890287166
v 0.0308229001249009 -0.262994514493008 0.515491927416037
v 0.0372981106447146 -0.322637028267521 0.553612442358199
v 0.147257193003146 -0.321493120051897 0.444699591685572
v -0.045291959191165 -0.27889061938582 0.438478909888983
v -0.0703445456284679 -0.345117491084798 0.444699622177032
v 0.0324608747935197 -0.278081803907565 0.361465885344605
v 0.0396145469990385 -0.343973588812849 0.335786801995866
v 0.0288192508350977 -0.244539156763466 0.435902279409183
v -0.00256998264663968 -0.597840300126846 0.372546634292889
v 0.149380897267516 -0.57242801757582 0.324891604889367
v 0.172605326620405 -0.635240519747987 0.302213461635953
v 0.0413333429668978 -0.658647577547697 0.343047752680139
v -0.0311890431021535 -0.519623173637321 0.40068049089688
v 0.120557704339723 -0.489905800100061 0.354091028595606
v -0.00406435628250858 -0.294306660961868 0.44313265609733
v 0.148172397250378 -0.274922744121707 0.393985503602849
v 0.160027851013205 -0.313847596677803 0.437046786931556
v 0.0850924824515319 -0.348756596657433 0.55408540360258
v 0.102832150953538 -0.473324329875758 0.565972853833296
v 0.271047445683586 -0.415616138134089 0.41659172438574
v -0.0517303217867988 -0.366503725197936 0.515400143120233
v -0.0702053869041827 -0.49576884286945 0.517048172437613
v -0.0599499801775165 -0.35053619581563 0.383508612164675
v -0.0804613783616943 -0.476833075155442 0.374011793161627
v 0.0707861793557544 -0.317482960427616 0.347390387627709
v 0.0850524237186163 -0.435676085460939 0.312769444282912
v 0.192667807304772 -0.583886916426334 0.506734190963385
v 0.380773178716166 -0.519911638094069 0.26279159105356
v -0.140080714769438 -0.649427767089371 0.455514245771673
v -0.180561063864867 -0.498987473615517 0.182671715894083
v 0.137997400602939 -0.401456329095152 0.114832900640533
v 0.0288681635451678 -0.265901870854704 0.449558443284723
vt 0 0
vt 1 0
vt 1 1
vt 0 1
vt 0.341553926467896 0.234853148460388
vt 0.643057584762573 0.23485279083252
vt 0.755016982555389 0.547767281532288
vt 0.239087134599686 0.547767698764801
vt 0.643057405948639 0.23485279083252
vt 0.341554254293442 0.234853804111481
vt 0.239088103175163 0.54776805639267
vt 0.643056929111481 0.234853804111481
vt 0.341554343700409 0.234853684902191
vt 0.239087998867035 0.547767519950867
vt 0.755016624927521 0.547767519950867
vt 0.643056809902191 0.234853684902191
vt 0.341554075479507 0.234853684902191
vt 0.239087596535683 0.547766923904419
vt 0.755016148090363 0.547767519950867
vt 0.643056809902191 0.234853148460388
vt 0.239087998867035 0.547767698764801
vt 0.755016148090363 0.547766923904419
vt 1 0.997001945972443
vt 1.02086517017597e-08 0.996969878673553
vt 4.06487288273638e-07 0.996968865394592
vt 3.86869544399815e-07 0.99696934223175
vt 1 0.997001051902771
vt 6.37976768302906e-07 0.996971607208252
vt 0.99999988079071 0.997001826763153
vt 0.999999225139618 0.997001588344574
vt 0.490662008523941 -1.79698815827578e-08
vt 0.49066236615181 4.89681042381562e-07
vt 0.490662634372711 7.43506575417996e-07
vt 0.500000059604645 0.29289373755455
vt 0.146446615457535 0.29289373755455
vt -1.45581928734373e-08 0.986561477184296
vt 0.500000059604645 0.986561477184296
vt 0.499999970197678 0.29289373755455
vt 0.499999970197678 0.986561477184296
vt 0.853553414344788 0.29289373755455
vt 1 0.986561477184296
vt 0.5 -1.12856657352722e-08
vt -1.32457103063643e-08 2.20861693378538e-08
vt 0.329147785902023 2.20861693378538e-08
vt 0.618104577064514 0.38901498913765
vt 0.349774718284607 0.38901498913765
vt 0.797601819038391 2.20861693378538e-08
vt 1 0.38901498913765
vt 0.171938970685005 1
vt 0.35917803645134 1
vt 0.625662803649902 1
vt 0.00252723437733948 0.763594031333923
vt 0.210038900375366 0.763594031333923
vt 0.50537645816803 0.763594031333923
vt 0.0132720554247499 0
vt 0.986727952957153 0
vt 0.986727952957153 0.274220913648605
vt 0.0132720554247499 0.274220913648605
vt 0.986727952957153 0.527358114719391
vt 0.0132720554247499 0.527358114719391
vt 0.986727952957153 0.75771301984787
vt 0.0132720554247499 0.75771301984787
vt 0.986727952957153 0.994441866874695
vt 0.0132720554247499 0.994441866874695
vt 0 0.749649167060852
vt 1 0.735341250896454
vt 0 0.515652716159821
vt 1 0.491127043962479
vn 0 -1 0
vn -0.152988145342578 0.606122701613388 -0.780518992705191
vn -0.604721170286667 0.227542257174829 -0.763241002178806
vn -0.669307038398424 0.459875268208986 -0.583560473335921
vn -0.481211904577663 0.721346261197284 -0.498091030183677
vn -0.397477632486679 -0.509386622632743 -0.76324098445746
vn -0.634518545707884 -0.495095063875397 -0.593520928762388
vn 0.185366040758037 -0.597017217654384 -0.780518976552081
vn -0.0346878255498291 -0.866430667896434 -0.498091008237616
vn 0.809892591648926 -0.299470029678931 -0.504372571930995
vn 0.64007283441101 -0.0129000507887965 -0.76820593289736
vn 0.832318762253698 -0.307762518976167 -0.461007277506459
vn 0.535083565427454 0.677712291490855 -0.504372509135518
vn 0.549900142985386 0.696478362639733 -0.461007291828805
vn -0.491355645526821 0.736551966457686 -0.464823439938474
vn -0.837666191010254 -0.235573528851102 -0.492768165512964
vn -0.0354190175389828 -0.88469470263769 -0.464823381857434
vn 0.852703871353788 -0.315300246225886 -0.416511539465786
vn 0.563368252729786 0.713536511349002 -0.416511535000032
vn -0.190781382627643 0.307891799809938 -0.932097153548106
vn 0.289368861444565 -0.421934349800826 -0.859207231396728
vn -0.5254479860801 0.525448100920413 -0.669185106800427
vn -0.665885249882358 0.665885369091644 -0.336442430764602
vn -0.525448077952366 -0.525448009048169 -0.669185106800412
vn -0.665885785768312 -0.665884712884739 -0.336442668902336
vn 0.525448032016236 -0.525448054984302 -0.669185106800412
vn 0.665884786953911 -0.665885979046796 -0.336442139768837
vn 0.525448063327727 0.525447994423541 -0.669185129767106
vn 0.665885329239219 0.665885269634575 -0.336442470546848
vn 1.3908540912517e-09 1.39085218225738e-09 -1
vn -0.90942934656905 -0.40951319412792 0.0723685527984288
vn -0.911789315165919 -0.410576006092997 -0.00822119030233116
vn 0.810535295159148 -0.583675210479784 -0.0485364190340852
vn 0.81126685489609 -0.58420259816661 0.0235247623237372
vn 0.100326724706686 0.99492240305358 0.00799751284577986
vn 0.100314673323341 0.994807148565755 0.0171960308938689
vn 0 2.60922714545586e-08 -1
vn 0 0 1
vn -0.911721598832515 -0.410545594585738 -0.0146983328485063
vn -0.91020777673055 -0.409863994338137 0.0594416463804442
vn 0.811223076009084 -0.584171664949683 0.025701883593923
vn 0.810698478731135 -0.583794154625765 -0.0441855361833615
vn 0.100318700348016 0.994852520601572 0.0143045661655549
vn 0.100328609652583 0.994951892564828 0.00221394824860307
vn -0.645012583796017 -0.705769204402875 0.292999312049224
vn -0.621483706292053 -0.680024066138295 0.38900549133172
vn -0.585659107797886 -0.640825002671923 0.496333280572555
vn -0.56385934630707 -0.616971847017406 0.54900671905733
vn -0.546952891371896 -0.598472701404507 0.585382746836218
vn 0.670107154525958 -0.635257750865802 0.38393227451993
vn 0.657524931833688 -0.591922807580445 0.466141988972447
vn 0.627420173731933 -0.516320127020667 0.582887169208204
vn 0.598611456399073 -0.456827498630544 0.658006809054999
vn 0.581438525686267 -0.424405861342962 0.694124560655736
vn -0.505278113314562 0.859916752233109 0.0723685527984288
vn -0.483655800938667 0.827115931052396 0.286280112508196
vn -0.492782187583488 -0.868797980906827 -0.0485364190340852
vn -0.473493056317244 -0.847489887436601 -0.239927523039882
vn 0.999938802042013 0.00764408000126695 0.00799751284577986
vn 0.999876818185703 0.00109936698656329 -0.01565694245579
vn 2.59398455421064e-08 2.8162107360843e-09 -1
vn 0.107312703839768 -0.988357321863266 0.107860038540091
vn -0.464504446803299 0.464083417487384 0.754229540997428
vn -0.416933409350444 0.100121370199631 0.903405912863517
vn -0.533647173872142 -0.530826143488213 -0.658364867841311
vn -0.558972415548055 -0.195740814947533 -0.805751433147995
vn 0.996827857417146 0.0392657492940949 -0.0692273328210373
vn 0.991552018408165 0.0838636301494655 -0.098951939490074
vn -0.877320708933304 -0.380078645566212 0.292999312049224
vn -0.726786199801782 -0.314863654796441 0.610444672895023
vn -0.22661035202406 -0.0981740437949458 0.969025079902724
vn 0.460190825554568 0.199369226969276 0.865145256828632
vn 0.769579755486882 0.333406382729781 0.544598185729437
vn 0.64878871155598 -0.158436228580821 0.74429239498373
vn 0.519627812551134 -0.0558099150017114 0.852567997177249
vn 0.146557196853275 0.186865222153218 0.971391978966338
vn -0.316820927728712 0.414580110798934 0.853081374479048
vn -0.523349796290956 0.487877224227602 0.698627801337869
vn 0.444938789753525 0.77000409283454 0.457299869222293
vn 0.618810024485209 0.46964707786932 0.6296870459565
vn -0.599818265575747 0.656578055630368 0.457300016560624
vn -0.705180504217831 0.325905473587287 0.629687286481895
vn -0.588696430692721 0.5541359894667 -0.588531917288613
vn -0.691086700867988 0.196082881977086 -0.695665634683043
vn 0.456060411574096 0.667562092237346 -0.588531863200764
vn 0.632904682792892 0.339824810775003 -0.695665695920506
vn -0.107412469527822 0.989367521615497 -0.0980533964855116
vn -0.324613663821479 0.212721332477088 -0.921615757227256
vn -0.324614081835738 0.212721435012181 -0.921615586326696
vn -0.324613855183664 0.212721341320309 -0.921615687784061
vn 0.513461947076241 0.604876136167107 0.608672070001759
vn 0.123340796009795 0.552158324996188 0.824565480830403
vn 0.420411428803947 0.155103897544557 0.8939781940839
vn 0.696533437723605 0.178621633716771 0.694935595649905
vn -0.297003688551322 0.385300593727486 0.873688881387509
vn -0.501958976570993 0.0245202194826945 0.864543778345736
vn -0.897469079088701 0.426987729239081 0.110592636097223
vn -0.937948267767263 0.293119020045896 0.185295135067612
vn -0.985373691649928 0.147710954885879 0.0849715341211118
vn -0.369098517994196 0.508442807673996 -0.777979559718038
vn -0.0787092040061465 0.538752763448971 -0.838779065714456
vn 0.0763500030973635 0.356032606365573 -0.931349268658955
vn -0.346708652133842 0.175135065101586 -0.921477519805773
vn 0.410366451945145 0.714943932166769 -0.566087050704987
vn 0.413728152052796 0.790272267717863 -0.451994202479461
vn 0.362688141316785 -0.230772025913453 0.902885144525026
vn 0.738334075878162 0.0172636253466582 0.674214179350324
vn -0.105414920612114 -0.41997874830079 0.901390894944055
vn -0.615284910372237 0.765710408241242 0.187382095674213
vn -0.859141469168753 0.428719891133583 0.279419381756108
vn -0.259754582697361 0.963724834870029 0.0613351401926715
vn 0.00128892735938204 0.999987940405932 -0.00473895652707268
vn 0.26223727538188 0.96242742322303 -0.0704632274918415
vn 0.140583538902423 0.936712582462643 0.32063344561327
vn -0.582518090340687 0.78261797350919 -0.219503489644717
vn 0.295977784727157 0.896033192377156 -0.330940582441029
g pistol_bloom lily_bloom lily
f 1/1/1 2/2/1 3/3/1 4/4/1
g desat_petals_bloom lily_bloom lily
f 5/5/2 6/6/3 7/7/4 8/8/5
f 6/9/3 9/10/6 10/11/7 7/7/4
f 9/12/6 11/13/8 12/14/9 10/15/7
f 11/16/10 13/17/11 14/18/12 12/19/12
f 13/20/13 5/5/13 8/21/14 14/22/14
f 8/8/5 7/7/4 15/23/15 16/24/15
f 7/7/16 10/11/7 17/25/16 15/23/16
f 10/15/17 12/14/9 18/26/17 17/27/17
f 12/19/12 14/18/12 19/28/18 18/29/18
f 14/22/14 8/21/14 16/24/19 19/30/19
f 6/6/3 5/5/2 20/31/20
f 9/10/6 6/9/3 20/31/20
f 11/13/8 9/12/6 20/32/21
f 13/17/11 11/16/8 20/33/21
f 5/5/2 13/20/11 20/31/20
g bulb_bloom lily_bloom lily
f 21/34/22 22/35/22 23/36/23 24/37/23
f 22/35/24 25/38/24 26/39/25 23/36/25
f 25/38/26 27/40/26 28/41/27 26/39/27
f 27/40/28 21/34/28 24/37/29 28/41/29
f 22/35/22 21/34/22 29/42/30
f 25/38/24 22/35/24 29/42/30
f 27/40/26 25/38/26 29/42/30
f 21/34/28 27/40/28 29/42/30
g stem_bloom stem_bloom lily_bloom lily
f 30/43/31 31/44/31 32/45/32 33/46/32
f 31/44/33 34/47/33 35/48/34 32/45/34
f 34/47/35 30/43/35 33/46/36 35/48/36
f 30/43/37 34/47/37 31/44/37
f 36/49/38 37/50/38 38/51/38
f 39/52/39 40/53/39 37/50/40 36/49/40
f 40/53/41 41/54/41 38/51/42 37/50/42
f 41/54/43 39/52/43 36/49/44 38/51/44
f 33/46/32 32/45/32 40/53/39 39/52/39
f 32/45/34 35/48/34 41/54/41 40/53/41
f 35/48/36 33/46/36 39/52/43 41/54/43
g leaf1_bloom stem_bloom lily_bloom lily
f 42/55/45 43/56/45 44/57/46 45/58/46
f 45/58/46 44/57/46 46/59/47 47/60/47
f 47/60/47 46/59/47 48/61/48 49/62/48
f 49/62/48 48/61/48 50/63/49 51/64/49
g leaf2_bloom stem_bloom lily_bloom lily
f 52/55/50 53/56/50 54/57/51 55/58/51
f 55/58/51 54/57/51 56/59/52 57/60/52
f 57/60/52 56/59/52 58/61/53 59/62/53
f 59/62/53 58/61/53 60/63/54 61/64/54
g stem_wilt stem_wilt lily_wilt lily
f 62/43/55 63/44/55 64/45/56 65/46/56
f 63/44/57 66/47/57 67/48/58 64/45/58
f 66/47/59 62/43/59 65/46/60 67/48/60
f 62/43/61 66/47/61 63/44/61
f 68/49/62 69/50/62 70/51/62
f 71/52/63 72/53/63 69/50/64 68/49/64
f 72/53/65 73/54/65 70/51/66 69/50/66
f 73/54/67 71/52/67 68/49/68 70/51/68
f 65/46/56 64/45/56 72/53/63 71/52/63
f 64/45/58 67/48/58 73/54/65 72/53/65
f 67/48/60 65/46/60 71/52/67 73/54/67
g leaf1_wilt stem_wilt lily_wilt lily
f 74/55/69 75/56/69 76/57/70 77/58/70
f 77/58/70 76/57/70 78/59/71 79/60/71
f 79/60/71 78/59/71 80/61/72 81/62/72
f 81/62/72 80/61/72 82/63/73 83/64/73
g leaf2_wilt stem_wilt lily_wilt lily
f 84/55/74 85/56/74 86/57/75 87/58/75
f 87/58/75 86/57/75 88/59/76 89/60/76
f 89/60/76 88/59/76 90/61/77 91/62/77
f 91/62/77 90/61/77 92/63/78 93/64/78
g bulb_wilt head_wilt lily_wilt lily
f 94/34/79 95/35/79 96/36/80 97/37/80
f 95/35/81 98/38/81 99/39/82 96/36/82
f 98/38/83 100/40/83 101/41/84 99/39/84
f 100/40/85 94/34/85 97/37/86 101/41/86
f 95/35/79 94/34/79 102/42/87
f 98/38/81 95/35/81 102/42/87
f 100/40/83 98/38/83 102/42/87
f 94/34/85 100/40/85 102/42/87
g pistol_wilt head_wilt lily_wilt lily
f 103/65/88 104/66/88 105/3/88 106/4/88
f 107/67/89 108/68/89 104/66/89 103/65/89
f 109/1/90 110/2/90 108/68/90 107/67/90
g desat_petals_wilt head_wilt lily_wilt lily
f 111/5/91 112/6/92 113/7/93 114/8/94
f 112/9/92 115/10/95 116/11/96 113/7/93
f 115/12/97 117/13/97 118/14/98 116/15/99
f 117/16/100 119/17/101 120/18/102 118/19/103
f 119/20/101 111/5/104 114/21/105 120/22/102
f 114/8/94 113/7/93 121/23/106 122/24/107
f 113/7/108 116/11/96 123/25/108 121/23/106
f 116/15/96 118/14/98 124/26/109 123/27/110
f 118/19/111 120/18/112 125/28/112 124/29/109
f 120/22/112 114/21/105 122/24/113 125/30/112
f 112/6/92 111/5/91 126/31/114
f 115/10/95 112/9/92 126/31/114
f 117/13/97 115/12/97 126/32/115
f 119/17/101 117/16/100 126/33/115
f 111/5/104 119/20/116 126/31/114
