v -0.779022547939113 0 -0.0135978891548227
v -0.882041963470122 3.51385587293862e-14 7.64464090857201
v 0.676003132408104 3.51385587293862e-14 7.67183668688166
v 0.779022547939113 0 0.0135978891548227
v 0.731705531100248 -3.84324340949313e-14 1.79743999615867
v 0.401278238047964 0.741369757902706 1.77982429200437
v -0.361585827172 0.741369757902706 1.77982429200437
v -0.811090352852176 3.85463874754984e-14 1.77647007748961
v -0.361585827172 -0.741369757902706 1.77982429200437
v 0.401278238047964 -0.741369757902706 1.77982429200437
v 0.478906248904531 0.930825361936719 0
v 0.957812497809061 0 0
v -0.47890624890453 0.930825361936719 0
v -0.957812497809061 1.2490009027033e-16 0
v 0.478906248904531 -0.930825361936719 0
v -0.478906248904531 -0.930825361936719 0
v 1 0 6.33288400176885
v 0.866025403784439 0.5 6.33288400176885
v 0.5 0.866025403784439 6.33288400176885
v 6.12303176911189e-17 1 6.33288400176885
v -0.5 0.866025403784439 6.33288400176885
v -0.866025403784439 0.5 6.33288400176885
v -1 1.22460635382238e-16 6.33288400176885
v -0.866025403784439 -0.5 6.33288400176885
v -0.5 -0.866025403784438 6.33288400176885
v -1.83690953073357e-16 -1 6.33288400176885
v 0.5 -0.866025403784439 6.33288400176885
v 0.866025403784438 -0.5 6.33288400176885
v 0.866025403784438 -0.5 0
v 0.5 -0.866025403784439 0
v -1.83690953073357e-16 -1 0
v -0.5 -0.866025403784438 0
v -0.866025403784439 -0.5 0
v -1 1.22460635382238e-16 0
v -0.866025403784439 0.5 0
v -0.5 0.866025403784439 0
v 6.12303176911189e-17 1 0
v 0.5 0.866025403784439 0
v 0.866025403784439 0.5 0
v 1 0 0
v -1.60000002384186 -1.60000002384186 0.025
v 1.60000002384186 -1.60000002384186 0.025
v 1.60000002384186 1.60000002384186 0.025
v -1.60000002384186 1.60000002384186 0.025
v 0.654305246883359 0.0143663542769908 0.679529368654076
v 0.389985149346451 0.54285056787302 0.668413269990346
v -0.220255918404682 0.54285056787302 0.668413269990346
v -0.476167879157301 0.0143663542770525 0.655930438297397
v -0.220255918404683 -0.514117859318977 0.668413269990346
v 0.389985149346451 -0.514117859318977 0.668413269990346
v 0.549353405064561 0.717548171553552 -0.00958245440727465
v 0.897701867853213 0.00646220378098394 -0.00958245440727465
v -0.271738027891849 0.717548171553552 -0.00958245440727465
v -0.682283744370055 0.00646220378098405 -0.00958245440727465
v -0.27173802789185 -0.704623763991584 -0.00958245440727465
v 0.549353405064561 -0.704623763991584 -0.00958245440727465
v -0.927919021721802 0.0965374839148939 5.8608547018337
v -0.686811276439941 0.122641062451761 7.3126484454576
v -0.998084809374187 0.123636668551216 7.37237846975531
v 0.902389746578765 0.138099161424013 7.75133793917359
v -1.00603376130231 0.138099161424013 7.73170140610882
v -0.69653018525441 0.000151823448079291 0.00359527471371046
v 0.759937128087185 -0.000165644328920966 0.00359527471371046
v -1.1493434926958 0.0797397516429192 4.90300102209864
v -1.9534893768673 0.126692523014254 7.55571027279221
v -2.46317335823488 0.0839420267783779 5.15511076317411
v 2.19717049052644 0.0858560052205791 4.83975814773819
v 2.19199397696714 0.12965377786024 7.29384419557534
v 0.894684521061478 0.130336455732882 7.32398444915093
v 0.849994508823662 0.0865640956006981 4.86672933305136
vt 1 0
vt 1 1
vt 0 1
vt 0 0
vt 0.397865295410156 0.493006229400635
vt 0.433214724063873 0.493860185146332
vt 0.519128322601318 0.519121110439301
vt 0.56969279050827 0.543527960777283
vt 0.534343421459198 0.54267406463623
vt 0.448429703712463 0.517413258552551
vt 0.962750732898712 0.904893636703491
vt 0.219543561339378 0.904893636703491
vt 0.995389223098755 0.913646578788757
vt 0.25218203663826 0.913646578788757
vt 1.01230680942535 0.911409556865692
vt 0.269099563360214 0.911409556865692
vt 0.937138676643372 0.905815720558167
vt 0.193931490182877 0.905815720558167
vt 0.90108323097229 0.902387082576752
vt 0.157876044511795 0.902387082576752
vt 0.927240252494812 0.916654109954834
vt 0.184033036231995 0.916654109954834
vt 0.159255430102348 1.29562842845917
vt 0.180375695228577 1.27793061733246
vt 0.0742028877139091 1.29274380207062
vt 0.0955532491207123 1.2968807220459
vt 0.116903610527515 1.29274380207062
vt 0.138135135173798 1.27793061733246
vt 0.0524298846721649 -0.0565958730876446
vt 0.0529713556170464 1.27793061733246
vt 0.0318510830402374 1.29562842845917
vt 0.0316619463264942 -0.0665616244077682
vt 0.0738404989242554 -0.0366643778979778
vt 0.095754936337471 -0.0266986303031445
vt 0.117454521358013 -0.0366643778979778
vt 0.138475552201271 -0.0565958730876446
vt 0.0107308113947511 1.27793061733246
vt 0.0110712135210633 -0.0565958730876446
vt 0.44720533490181 0.782473266124725
vt 0.437094658613205 0.951717376708984
vt 0.327397584915161 0.951278507709503
vt 0.43965470790863 1.004514336586
vt 0.996226608753204 1.00549912452698
vt 0.994675993919373 0.0556865930557251
vt 0.490573406219482 0.0526087656617165
vt 0.440872997045517 0.67181783914566
vt 0.446504235267639 0.783239185810089
vt 0.324630290269852 0.949528336524963
vt 0.0147552164271474 0.948170840740204
vt 0.014746593311429 0.66995108127594
vt 0.0171753447502851 0.663798093795776
vt 0.00572334136813879 0.941574215888977
vt 0.433867543935776 0.946249425411224
vt 0.461799949407578 0.668163299560547
vn 0 1 0
vn -0.00909459845959324 0 0.99995864328424
vn 0.895282501301193 0.434355088621143 0.09901969426734
vn 0.993939189716006 0 0.10993128374894
vn 0 0.994382293989714 0.105848256479514
vn -0.994654592550998 0 0.103258130513817
vn -0.870784726245469 0.483282540155182 0.0903988214456248
vn 0 -0.994382293989715 0.105848256479514
vn -0.870784726245478 -0.483282540155164 0.090398821445635
vn 0.895282501301186 -0.43435508862116 0.0990196942673309
vn 0 0 1
vn 0.866025403784438 -0.5 0
vn 0.5 -0.866025403784439 0
vn 0 -1 0
vn -0.5 -0.866025403784438 0
vn -0.866025403784439 -0.5 0
vn -1 0 0
vn -0.866025403784438 0.5 0
vn -0.5 0.866025403784439 0
vn 0.5 0.866025403784438 0
vn 0.866025403784439 0.5 0
vn 1 0 0
vn -0.0135557934076616 0 0.999908116011211
vn 0.853209136678924 0.424424714544275 0.30314654999128
vn 0.940571334199978 0.000666363603119949 0.339595525943471
vn -0.496228428224732 0.824442130823326 0.272125926631597
vn 0 0.968370228408283 0.249517736308442
vn -0.966768670442231 0.000682277013885544 0.255651857707776
vn -0.49443481527325 -0.819480078721337 0.289804441002169
vn 0 -0.962717671672831 0.270508197008598
vn 0.850605904931408 -0.423217618081843 0.312019938851594
vn 0.000243904834117417 -0.99983909245647 0.0179368254229758
vn -0.000198458499438449 -0.999840781949588 0.0178429640099246
vn 0.000102859861024324 -0.999842141911793 0.0177674049058012
vn -0.000140797411661621 -0.999841050000001 0.0178284859419935
g p1 lamp1 MM_flute_lamp
f 1/1/1 2/2/1 3/3/1 4/4/1
g lamp1_base2 MM_flute_lamp
f 5/5/2 6/6/2 7/7/2 8/8/2 9/9/2 10/10/2
f 11/1/3 6/11/3 5/12/4 12/4/4
f 13/1/5 7/13/5 6/14/5 11/4/5
f 14/1/6 8/15/6 7/16/7 13/4/7
f 15/1/8 10/17/8 9/18/8 16/4/8
f 16/1/9 9/19/9 8/20/6 14/4/6
f 12/1/4 5/21/4 10/22/10 15/4/10
g prop_post_sign_collisions MM_flute_lamp
f 17//11 18//11 19//11 20//11 21//11 22//11 23//11 24//11 25//11 26//11 27//11 28//11
f 29//12 28//12 27//13 30//13
f 30//13 27//13 26//14 31//14
f 31//14 26//14 25//15 32//15
f 32//15 25//15 24//16 33//16
f 33//16 24//16 23//17 34//17
f 34//17 23//17 22//18 35//18
f 35//18 22//18 21//19 36//19
f 36//19 21//19 20//1 37//1
f 37//1 20//1 19//20 38//20
f 38//20 19//20 18//21 39//21
f 39//21 18//21 17//22 40//22
f 40//22 17//22 28//12 29//12
g o10_1 drop_shadow_1 MM_flute_lamp
f 41/4/11 42/1/11 43/2/11 44/3/11
g base MM_trumpets_lamp
f 45/23/23 46/24/23 47/25/23 48/26/23 49/27/23 50/28/23
f 51/29/24 46/30/24 45/31/25 52/32/25
f 53/33/26 47/25/26 46/30/27 51/29/27
f 54/34/28 48/26/28 47/25/26 53/33/26
f 55/35/29 49/27/29 48/26/28 54/34/28
f 56/36/30 50/28/30 49/27/29 55/35/29
f 52/32/25 45/31/25 50/37/31 56/38/31
g p1_12 decals decal_base p1_5 lamp MM_trumpets_lamp
f 57/39/32 58/40/32 59/41/32
g decal_base p1_5 lamp MM_trumpets_lamp
f 60/42/33 61/43/33 62/44/33 63/45/33
g p1_5 lamp MM_trumpets_lamp
f 64/46/34 57/47/34 59/48/34 65/49/34 66/50/34
f 67/51/35 68/52/35 69/53/35 70/54/35
g prop_post_sign_collisions__1 MM_trumpets_lamp
f 17//11 18//11 19//11 20//11 21//11 22//11 23//11 24//11 25//11 26//11 27//11 28//11
f 29//12 28//12 27//13 30//13
f 30//13 27//13 26//14 31//14
f 31//14 26//14 25//15 32//15
f 32//15 25//15 24//16 33//16
f 33//16 24//16 23//17 34//17
f 34//17 23//17 22//18 35//18
f 35//18 22//18 21//19 36//19
f 36//19 21//19 20//1 37//1
f 37//1 20//1 19//20 38//20
f 38//20 19//20 18//21 39//21
f 39//21 18//21 17//22 40//22
f 40//22 17//22 28//12 29//12
g o10 drop_shadow MM_trumpets_lamp
f 41/4/11 42/1/11 43/2/11 44/3/11
