v -13.218495976946 -13.218495976946 0.025
v 13.218495976946 -13.218495976946 0.025
v 13.218495976946 13.218495976946 0.025
v -13.218495976946 13.218495976946 0.025
v -1.85101817777638 0 0
v 2.14898182222362 0 0
v 2.14898182222362 2.66453525910038e-15 1.90577711531624
v -1.85101817777638 2.66453525910038e-15 1.90577711531624
v 7.22085335393441 5.32907051820075e-15 4.0773412188564
v 7.06139627272563 2.8421709430404e-14 22
v -7.93860372727437 2.8421709430404e-14 22
v -7.73667831985423 4.44089209850063e-15 3.60842952084566
v -3.89354809655619 2.66453525910038e-15 1.90577711531624
v 3.32213078746538 2.66453525910038e-15 1.90577711531624
v -7.69655219434957 -5.83400866978038 1.26525756505256
v -5.31338535958795 -7.26595976936119 1.26525756505256
v -3.88143426000714 -4.88279293459958 1.26525756505256
v -6.26460109476875 -3.45084183501876 1.26525756505256
v -5.31338535958795 -7.26595976936119 0
v -7.69655219434957 -5.83400866978038 0
v -3.88143426000714 -4.88279293459958 0
v -6.26460109476875 -3.45084183501876 0
v 1.65737196305693 6.3750564282299 0.830209863679358
v 1.76877223283644 4.43600347283992 0.830209863679358
v 3.99183638434705 4.55250932822433 0.830209863679358
v 3.88043611456754 6.49156228361431 0.830209863679358
v 1.76877223283644 4.43600347283992 0
v 1.65737196305693 6.3750564282299 0
v 3.99183638434705 4.55250932822433 0
v 3.88043611456754 6.49156228361431 0
v -6.13885149044379 -2.02079845225835 2.91064840738279
v -6.96944800553517 -1.32562447825847 2.90577711531624
v -7.60792365893042 -1.89131296570125 2.90577711531624
v -6.94757529571226 -2.7373265512211 2.91064840738279
v -6.96944800553517 -1.32562447825847 1.63728711531624
v -6.13885149044379 -2.02079845225835 1.64215840738279
v -7.60792365893042 -1.89131296570125 1.63728711531624
v -6.94757529571226 -2.7373265512211 1.64215840738279
v -4.00472168738152 -3.06151004604076 1.76376374307031
v -4.00227629637891 -3.06052410490693 0
v -3.55053827181248 -5.38451477335664 0
v -3.5529836628151 -5.38550071449046 1.76376374307031
v -1.68073101893182 -2.60977202147433 1.76376374307031
v -1.6782856279292 -2.60878608034051 0
v -1.22899299436539 -4.93376268992404 1.76376374307031
v -1.22654760336277 -4.93277674879021 0
v -2.47893614988178 0.818460926530562 1.69369491484506
v -2.47884736840204 0.817191292219035 0
v -2.68811678963442 3.80988344299851 0
v -2.68820557111415 3.81115307731003 1.69369491484506
v -6.29461663556603 0.462183920066283 1.69369491484506
v -6.2945278540863 0.460914285754757 0
v -6.50388605679841 3.45487607084576 1.69369491484506
v -6.50379727531867 3.45360643653423 0
v -1.67320922318032 7.56953937148612 2.92995653636809
v -4.31741455598058 6.71038497797523 2.92995653636809
v -3.47173126006906 4.10763942048424 2.92995653636809
v -0.827525927268804 4.96679381399514 2.92995653636809
v -4.31741455598058 6.71038497797523 0
v -1.67320922318032 7.56953937148612 0
v -3.47173126006906 4.10763942048424 0
v -0.827525927268804 4.96679381399514 0
v 1.74808551130006 2.62248746786446 1.73795970601727
v 2.11411069842659 3.98851265499099 1.7370933776152
v 1.11411069842659 4.98851265499099 1.7370933776152
v -0.251914488699942 4.62248746786446 1.73795970601727
v -0.617939675826479 3.25646228073792 1.73882603441933
v 0.382060324173522 2.25646228073792 1.73882603441933
v 2.11274429199968 3.98717039260953 0
v 1.74671910487314 2.621145205483 0
v 1.11274429199968 4.98717039260953 0
v -0.253280895126857 4.621145205483 0
v -0.619306082253392 3.25512001835646 0
v 0.380693917746609 2.25512001835646 0
v 4.74548050544439 -0.369486422481759 1.82347518896887
v 6.7074744998209 1.59250755652039 1.82347518896887
v 3.8790473750747 4.42093468126659 1.82347518896887
v 1.9170533806982 2.45894070226443 1.82347518896887
v 6.7074744998209 1.59250755652039 0
v 4.74548050544439 -0.369486422481759 0
v 3.8790473750747 4.42093468126659 0
v 1.9170533806982 2.45894070226443 0
v -1.74245880985411 -9.13030426625793 1.81436201928007
v 3.25754119014589 -9.13030426625793 1.81436201928007
v 3.25754119014589 -5.13030426625793 1.81436201928007
v -1.74245880985411 -5.13030426625793 1.81436201928007
v 3.25754119014589 -9.13030426625793 0
v -1.74245880985411 -9.13030426625793 0
v 3.25754119014589 -5.13030426625793 0
v -1.74245880985411 -5.13030426625793 0
v -5.96136238018002 -3.25227711994991 1.743668667992
v -5.70128910706012 -1.6102378355799 1.74303470531362
v -7.18259426907659 -0.855475020096588 1.74327685750916
v -8.35816448003335 -2.03104523105334 1.74406047847484
v -7.60340166455003 -3.51235039306982 1.74430263067038
v -5.70263029615527 -1.61157902467506 0
v -5.96270356927517 -3.25361830904507 0
v -8.3595056691285 -2.0323864201485 0
v -7.18393545817175 -0.856816209191742 0
v -7.60474285364518 -3.51369158216497 0
v 8.55447835127666 -4.12896257418186 2.28401331092311
v 8.67579858436746 -2.42185601393298 2.28312949387099
v 7.55447819505013 -1.12896288663491 2.28276340486135
v 5.84737145962127 -1.00764245155989 2.28312949387099
v 4.55447835127666 -2.12896257418185 2.28401331092311
v 4.43315811818585 -3.83606913443073 2.28489712797523
v 5.55447850750319 -5.1289622617288 2.28526321698487
v 7.26158524293204 -5.25028269680382 2.28489712797523
v 8.67520175644588 -2.42319770600906 0
v 8.55388152335507 -4.13030426625793 0
v 7.55388136712854 -1.13030457871099 0
v 5.84677463169969 -1.00898414363596 0
v 4.55388152335507 -2.13030426625793 0
v 4.43256129026427 -3.8374108265068 0
v 5.5538816795816 -5.13030395380487 0
v 7.26098841501046 -5.2516243888799 0
v 2.90299741948785 5.29609245046903 2.52183852578471
v 3.06615855467859 5.90501836067872 2.52103865683979
v 2.62039377965963 6.35078313569767 2.52103865683979
v 2.01146786944994 6.18762200050694 2.52183852578471
v 1.84830673425921 5.57869609029725 2.52263839472963
v 2.29407150927816 5.13293131527829 2.52263839472963
v 3.06554945882511 5.90442002739023 0.830209863679358
v 2.90238832363438 5.29549411718054 0.830209863679358
v 2.61978468380615 6.35018480240918 0.830209863679358
v 2.01085877359646 6.18702366721845 0.830209863679358
v 1.84769763840573 5.57809775700876 0.830209863679358
v 2.29346241342469 5.13233298198981 0.830209863679358
v 1.23775958048187 -4.30372721380029 1.47238886488211
v 3.53237634121767 -5.0492933946695 1.47238886488211
v 4.33442477356448 -2.58084213841849 1.47238886488211
v 2.03980801282869 -1.83527595754928 1.47238886488211
v 3.53237634121767 -5.0492933946695 0
v 1.23775958048187 -4.30372721380029 0
v 4.33442477356448 -2.58084213841849 0
v 2.03980801282869 -1.83527595754928 0
v -2.33176233846885 1.2551744423315 1.20577711531624
v -0.577069361728726 1.2551744423315 1.20577711531624
v -0.577069361728726 3.15609175096128 1.20577711531624
v -2.33176233846885 3.15609175096128 1.20577711531624
v -0.577069361728726 1.2551744423315 0
v -2.33176233846885 1.2551744423315 0
v -0.577069361728726 3.15609175096128 0
v -2.33176233846885 3.15609175096128 0
v -5.36591894408198 -2.47354797074999 1.47238886488211
v -3.39188934524934 -2.47354797074999 1.47238886488211
v -3.39188934524934 -0.060845232873732 1.47238886488211
v -5.36591894408198 -0.060845232873732 1.47238886488211
v -3.39188934524934 -2.47354797074999 0
v -5.36591894408198 -2.47354797074999 0
v -3.39188934524934 -0.060845232873732 0
v -5.36591894408198 -0.060845232873732 0
v 0.536434417790344 -9.13030426625793 3.75576243689707
v 2.44742264321157 -9.13030426625793 3.75576243689707
v 2.44742264321157 -7.06006711226895 3.75576243689707
v 0.536434417790344 -7.06006711226895 3.75576243689707
v 2.44742264321157 -9.13030426625793 1.81436201928007
v 0.536434417790344 -9.13030426625793 1.81436201928007
v 2.44742264321157 -7.06006711226895 1.81436201928007
v 0.536434417790344 -7.06006711226895 1.81436201928007
v 9 0 10.5503371445098
v 7.29422863405995 4.36602540378444 10.5503371445098
v 3.63397459621556 7.29422863405995 10.5503371445098
v -0.999999999999999 8 10.5503371445098
v -5.36602540378444 6.29422863405995 10.5503371445098
v -8.29422863405995 2.63397459621556 10.5503371445098
v -9 -2 10.5503371445098
v -7.29422863405995 -6.36602540378444 10.5503371445098
v -3.63397459621557 -9.29422863405995 10.5503371445098
v 0.999999999999998 -10 10.5503371445098
v 5.36602540378444 -8.29422863405995 10.5503371445098
v 8.29422863405995 -4.63397459621557 10.5503371445098
v 8.29422863405995 -4.63397459621557 0
v 5.36602540378444 -8.29422863405995 0
v 0.999999999999998 -10 0
v -3.63397459621557 -9.29422863405995 0
v -7.29422863405995 -6.36602540378444 0
v -9 -2 0
v -8.29422863405995 2.63397459621556 0
v -5.36602540378444 6.29422863405995 0
v -0.999999999999999 8 0
v 3.63397459621556 7.29422863405995 0
v 7.29422863405995 4.36602540378444 0
v 9 0 0
vt 0 0
vt 1 0
vt 1 1
vt 0 1
vt 0.391724795103073 0.00328081264160573
vt 0.65918755531311 0.00139963964466006
vt 0.659686923027039 0.0418923944234848
vt 0.392224162817001 0.0437735691666603
vt 1.00013256072998 0.145856335759163
vt 1.00000047683716 0.999837040901184
vt -0.00306983618065715 1
vt -0.000373375398339704 0.123676121234894
vt 0.255621492862701 0.0425063744187355
vt 0.738143682479858 0.0424279868602753
vt -0.375097960233688 0.703408777713776
vt -0.375098019838333 1.05706477165222
vt -0.728753864765167 1.05706477165222
vt -0.728753864765167 0.70340883731842
vt 1.61447069046972e-08 -0.353654652833939
vt 0.341356009244919 -0.353654682636261
vt 0.341356039047241 1.22880544495274e-06
vt 5.41133715614706e-08 1.26545353396068e-06
vt -0.353656321763992 -0.728753924369812
vt -0.353656321763992 -1.07010996341705
vt -4.48912516048949e-07 -1.07010996341705
vt -4.48912516048949e-07 -0.728753924369812
vt -0.728753864765167 -1.08240962028503
vt -0.387397885322571 -1.08240962028503
vt -0.387397885322571 -0.728753805160522
vt -0.728753864765167 -0.728753805160522
vt 8.6393771425719e-07 0.362052321434021
vt 8.6393771425719e-07 0.703408300876617
vt -0.35365504026413 0.703408300876617
vt -0.35365504026413 0.362052321434021
vt -0.293729335069656 -0.0331577397882938
vt -0.293729335069656 -0.789344012737274
vt 1.39843285083771 -0.789344012737274
vt 1.39843285083771 -0.0331577397882938
vt 1.14758360385895 5.59258282045727e-12
vt 1.14758360385895 1
vt 0.852416396141052 1
vt 0.852416396141052 -5.59258021837206e-12
vt 2.37734937667847 0.00471053877845407
vt 2.37780022621155 1.00470328330994
vt 0.715756058692932 1.00395333766937
vt 0.715305209159851 0.00396055774763227
vt 2.14758348464966 -5.59258021837206e-12
vt 2.14758348464966 1
vt 1.85241639614105 1
vt 1.85241639614105 5.59258282045727e-12
vt 1.37841689586639 0.0364749878644943
vt 1.37841689586639 1.03647518157959
vt -0.305209040641785 1.03647518157959
vt -0.305209040641785 0.0364749878644943
vt 1.45805144309998 0
vt 1.78702235221863 1.41811752319336
vt 0.328970909118652 1.41811752319336
vt 4.57044649124146 -1.39814696278884e-11
vt 4.57044649124146 1
vt 3.42955327033997 1
vt 3.42955327033997 1.39814722299736e-11
vt 1.42955338954926 -1.39814696278884e-11
vt 1.42955338954926 1
vt 0.570446610450745 1
vt 0.570446610450745 -1.39814696278884e-11
vt 2.57044672966003 1.39814722299736e-11
vt 2.57044672966003 1
vt 2 0
vt 2.06966710090637 0
vt 3.10450077056885 1.62756741046906
vt 2.06966710090637 3.25513482093811
vt 0 3.25513482093811
vt -1.03483355045319 1.62756741046906
vt 3.49526762962341 -1.59481585025787
vt 3.5019519329071 1.01095080375671
vt 1.50129163265228 1.00354278087616
vt 1.49460756778717 -1.60222387313843
vt 5.50270700454712 -1.61053764820099
vt 5.49936485290527 0.995228826999664
vt 3.49807691574097 0.999354779720306
vt 3.50141906738281 -1.60641169548035
vt 7.50540256500244 -1.60608911514282
vt 7.49871826171875 0.999677419662476
vt 5.49805784225464 1.00708544254303
vt 5.50474214553833 -1.59868109226227
vt 9.50269603729248 -1.60396635532379
vt 9.49935722351074 1.00180017948151
vt 7.49999380111694 1.00507783889771
vt 7.503333568573 -1.6006885766983
vt 11.5014181137085 -1.6057665348053
vt 11.4980783462524 1
vt 9.49935340881348 1.00411760807037
vt 9.50269317626953 -1.60164892673492
vt 13.4966611862183 -1.60248267650604
vt 13.5000057220459 1.00328385829926
vt 11.5006418228149 1
vt 11.4972972869873 -1.6057665348053
vt 1.66666662693024 0
vt 1.66666662693024 1
vt 5.62210083007812 -1.39814722299736e-11
vt 5.62210083007812 1
vt 4.21868944168091 1
vt 4.21868944168091 1.39814696278884e-11
vt 1.75849199295044 -1.39814722299736e-11
vt 1.75849199295044 1
vt 0.701705694198608 1
vt 0.701705694198608 -1.39814722299736e-11
vt 3.16190338134766 1.39814696278884e-11
vt 3.16190338134766 1
vt 0.182431146502495 0.676219642162323
vt -0.290132343769073 0.644443213939667
vt -0.402880996465683 0.226516529917717
vt 0.361742794513702 0.277931779623032
vt 0.944523692131042 -3.60143794127243e-12
vt 0.944754540920258 0.999292016029358
vt 0.375299692153931 0.999646008014679
vt 0.374700307846069 0.000353987445123494
vt 2.1955623626709 0.000572763732634485
vt 2.1950318813324 0.999864757061005
vt 1.5544376373291 0.999427199363708
vt 1.5549681186676 0.000135211172164418
vt 2.8052453994751 0.000707974890246987
vt 2.80547618865967 1
vt 3.37470030784607 0.000353987445123494
vt 3.37529993057251 0.999646008014679
vt 2.70215535163879 2.40437579154968
vt 1.66112303733826 2.51802730560303
vt 0.842579245567322 1.98772656917572
vt 0.72601592540741 1.12411689758301
vt 1.37971425056458 0.433088898658752
vt 2.42074656486511 0.319437503814697
vt 3.23929023742676 0.849738121032715
vt 3.35585355758667 1.71334779262543
vt 2.40936326980591 0.000136290924274363
vt 2.40996718406677 0.999205589294434
vt 1.41009259223938 0.999534666538239
vt 1.40923845767975 0.000465326302219182
vt 3.40966558456421 6.84171035797432e-12
vt 3.40966558456421 0.999069333076477
vt 4.40996789932251 0.000136290909722447
vt 4.40936374664307 0.999205589294434
vt 5.41009283065796 0.000465326273115352
vt 5.40923833847046 0.999534666538239
vt 6.40996742248535 0.000794361636508256
vt 6.40936326980591 0.999863684177399
vt 7.40966558456421 0.000930652546230704
vt 7.40966558456421 0.999999940395355
vt 8.40936374664307 0.000794361636508256
vt 8.40996742248535 0.999863684177399
vt 0.409967690706253 0.999863684177399
vt 0.409363716840744 0.000794361636508256
vt 11.4993591308594 0.00064523343462497
vt 9.50063991546631 0.00064523343462497
vt 7.50128173828125 0.000322616717312485
vt 5.50064134597778 1.71047388492634e-12
vt 15.4993581771851 6.39216631015405e-12
vt 13.4987182617188 0.000322616717312485
vt 0 -0.554148972034454
vt 1 -0.554148972034454
vt 1 0.554148972034454
vt 0 0.554148972034454
vt -0.00229327147826552 3.98335480690002
vt -0.00229327147826552 0
vt 4.75 0
vt 4.75 3.98335480690002
vt 6.25 -1.12194275856018
vt 6.25 -3.85919547080994
vt 1.8632675409317 -3.85919547080994
vt 1.8632675409317 -1.12194275856018
vt 4.80000019073486 -0.897554218769073
vt 4.80000019073486 -3.08735632896423
vt 0.998165369033813 -3.08735632896423
vt 0.998165369033813 -0.897554218769073
vn 0 0 1
vn 0 -1 0
vn -0.515038074910054 -0.857167300702112 0
vn 0.857167300702113 -0.515038074910054 0
vn 0.515038074910054 0.857167300702112 0
vn -0.857167300702113 0.515038074910054 0
vn -0.998353773084847 -0.0573562879486575 0
vn 0.0523359562429437 -0.998629534754574 0
vn 0.998353773084847 0.0573562879486574 0
vn -0.0523359562429432 0.998629534754574 0
vn -0.00301584059042848 0.00340388894992926 0.999989659069307
vn 0.641823120586369 0.766852711986321 0
vn -0.663154457792343 0.748482575021051 0
vn -0.788295411092027 -0.615296956640656 0
vn 0.663154457792344 -0.74848257502105 0
vn -0.981626126237898 -0.190808789875784 -0.00146764890810474
vn -0.190808987671916 0.981627143810782 0.00028417864890385
vn 0.981626126237898 0.190808789875783 0.00146764890810452
vn 0.190808987671916 -0.981627143810782 -0.000284178648902999
vn 0.997564050259824 0.0697564737441253 0
vn 0.0929674078863538 -0.995668868998919 0.000751250494931266
vn -0.997564050259824 -0.0697564737441246 0
vn -0.0929674078863542 0.995668868998919 -0.000751250494929932
vn -0.309016994374947 0.951056516295154 0
vn -0.951056516295153 -0.309016994374948 0
vn 0.309016994374948 -0.951056516295154 0
vn 0.951056516295154 0.309016994374948 0
vn 0.000500174936139904 0.000500174936139819 0.999999749825002
vn 0.965925423337044 0.258818769612915 -0.000959712044912935
vn 0.965925658679461 -0.258819065512107 -0.000559671411800387
vn 0.258818771943066 0.965925432425194 -0.000949886353394598
vn -0.258819062904763 0.965925669088998 -0.000542652808605738
vn -0.965925423984182 -0.258818770145756 0.000958916688658714
vn -0.965925658852314 0.258819065469981 0.000559392499619504
vn -0.258818772474034 -0.965925433059933 0.000949095893761518
vn 0.258819062862728 -0.965925669252151 0.000542382377638834
vn 0.707106778416073 -0.707106783957022 0
vn 0.707106781186547 0.707106781186548 0
vn -0.707106778416073 0.707106783957022 0
vn -0.707106781186548 -0.707106781186547 0
vn 1 0 0
vn 0 1 0
vn -1 0 0
vn 0.000333293950170023 0.000333293950170163 0.999999888915137
vn 0.987688138140841 -0.156434436168317 -0.000639497130112892
vn -0.707106781186548 0.707106781186547 0
vn -0.891006048527603 -0.453990255230533 0.00103423543890494
vn 0.156434436147791 -0.987688138294579 0.000639264664278484
vn 0.453990254905198 0.891006047986725 -0.00103484404187913
vn 0.000249981212352451 0.000499962424704902 0.999999843773472
vn 0.948683219646457 0.316227703647621 -0.000433828288582083
vn 0.894427194929469 -0.447213586704843 2.89342622585322e-05
vn 0.447213504552439 0.894427005656953 -0.000642570977935606
vn -0.316227770667409 0.948683177669841 -0.000474831520359073
vn -0.894427194942165 0.44721358667278 -2.90372074972452e-05
vn -0.948683219754254 -0.316227703790848 0.000433488027841424
vn -0.447213504721217 -0.89442700600342 0.0006419709692357
vn 0.316227770618863 -0.948683177867488 0.000474468827119171
vn 0.00103598174742556 0.0010359817474247 0.999998926741243
vn 0.965925747088905 0.258818967501549 -0.000439513563628481
vn 0.96592578051265 -0.258819089028345 -0.000256311463929304
vn 0.25881896985028 0.965925748496597 -0.000435013710785868
vn -0.25881908476145 0.965925783692672 -0.000248517490507553
vn -0.965925747209908 -0.258818967636475 0.000439168043263194
vn -0.965925780562535 0.258819088962133 0.00025619029841623
vn -0.258818969983955 -0.965925748615368 0.000434670317624996
vn 0.258819084697014 -0.965925783740156 0.000248400009420953
vn 0 0 -1
vn -0.309016994374947 -0.951056516295154 0
vn 0.951056516295154 -0.309016994374948 0
vn 0.309016994374947 0.951056516295154 0
vn -0.951056516295154 0.309016994374947 0
vn 0.91594432567293 -0.401305360377309 0
vn 0.59257837429631 -0.805512799598084 0
vn 0.110431526074846 -0.993883734673619 0
vn -0.401305360377309 -0.91594432567293 0
vn -0.805512799598084 -0.59257837429631 0
vn -0.993883734673619 -0.110431526074846 0
vn -0.91594432567293 0.401305360377309 0
vn -0.59257837429631 0.805512799598084 0
vn -0.110431526074846 0.993883734673619 0
vn 0.401305360377309 0.91594432567293 0
vn 0.805512799598083 0.59257837429631 0
vn 0.993883734673619 0.110431526074847 0
g shadow g2
f 1/1/1 2/2/1 3/3/1 4/4/1
g p75_7 tree_1 tree_tflip g2
f 5/5/2 6/6/2 7/7/2 8/8/2
f 9/9/2 10/10/2 11/11/2 12/12/2 13/13/2 14/14/2
g p75_5 tree_2 tree_tflip g2
f 5/5/2 6/6/2 7/7/2 8/8/2
f 9/9/2 10/10/2 11/11/2 12/12/2 13/13/2 14/14/2
g o9 gifts g2
f 15/15/1 16/16/1 17/17/1 18/18/1
f 19/19/3 16/20/3 15/21/3 20/22/3
f 21/23/4 17/24/4 16/25/4 19/26/4
f 22/27/5 18/28/5 17/29/5 21/30/5
f 20/31/6 15/32/6 18/33/6 22/34/6
g o3_1 gifts g2
f 23/35/1 24/36/1 25/37/1 26/38/1
f 27/39/7 24/40/7 23/41/7 28/42/7
f 29/43/8 25/44/8 24/45/8 27/46/8
f 30/47/9 26/48/9 25/49/9 29/50/9
f 28/51/10 23/52/10 26/53/10 30/54/10
g o6_1 gifts g2
f 31/55/11 32/56/11 33/57/11 34/1/11
f 35/58/12 32/59/12 31/60/12 36/61/12
f 37/62/13 33/63/13 32/64/13 35/65/13
f 38/66/14 34/67/14 33/63/14 37/62/14
f 36/61/15 31/60/15 34/67/15 38/66/15
g o2_1 gifts g2
f 39/3/16 40/4/16 41/3/16 42/4/16
f 43/3/17 44/4/17 40/4/17 39/3/17
f 45/1/18 46/1/18 44/2/18 43/2/18
f 42/4/19 41/3/19 46/4/19 45/4/19
f 45/1/1 43/2/1 39/2/1 42/1/1
g o2 gifts g2
f 47/1/20 48/1/20 49/68/20 50/68/20
f 51/1/21 52/1/21 48/1/21 47/1/21
f 53/68/22 54/68/22 52/1/22 51/1/22
f 50/1/23 49/1/23 54/1/23 53/1/23
f 53/68/1 51/1/1 47/1/1 50/68/1
g o3 gifts g2
f 55/35/1 56/36/1 57/37/1 58/38/1
f 59/39/24 56/40/24 55/41/24 60/42/24
f 61/43/25 57/44/25 56/45/25 59/46/25
f 62/47/26 58/48/26 57/49/26 61/50/26
f 60/51/27 55/52/27 58/53/27 62/54/27
g o4 gifts g2
f 63/69/28 64/70/28 65/71/28 66/72/28 67/73/28 68/1/28
f 69/74/29 64/75/29 63/76/30 70/77/30
f 71/78/31 65/79/31 64/80/29 69/81/29
f 72/82/32 66/83/32 65/84/31 71/85/31
f 73/86/33 67/87/33 66/88/34 72/89/34
f 74/90/35 68/91/35 67/92/33 73/93/33
f 70/94/36 63/95/36 68/96/35 74/97/35
g o5 gifts g2
f 75/1/1 76/98/1 77/99/1 78/4/1
f 79/100/37 76/101/37 75/102/37 80/103/37
f 81/104/38 77/105/38 76/106/38 79/107/38
f 82/108/39 78/109/39 77/105/39 81/104/39
f 80/103/40 75/102/40 78/109/40 82/108/40
g o6 gifts g2
f 83/55/1 84/56/1 85/57/1 86/1/1
f 87/58/2 84/59/2 83/60/2 88/61/2
f 89/62/41 85/63/41 84/64/41 87/65/41
f 90/66/42 86/67/42 85/63/42 89/62/42
f 88/61/43 83/60/43 86/67/43 90/66/43
g o7 gifts g2
f 91/110/44 92/111/44 93/112/44 94/1/44 95/113/44
f 96/114/45 92/115/45 91/116/45 97/117/45
f 98/118/46 94/119/46 93/120/46 99/121/46
f 100/122/47 95/123/47 94/119/47 98/118/47
f 97/124/48 91/125/48 95/123/48 100/122/48
f 92/115/49 96/114/49 99/121/49 93/120/49
g o8 gifts g2
f 101/126/50 102/127/50 103/128/50 104/129/50 105/130/50 106/131/50 107/132/50 108/133/50
f 109/134/51 102/135/51 101/136/52 110/137/52
f 111/138/53 103/139/53 102/135/51 109/134/51
f 112/140/54 104/141/54 103/139/53 111/138/53
f 113/142/55 105/143/55 104/141/54 112/140/54
f 114/144/56 106/145/56 105/143/55 113/142/55
f 115/146/57 107/147/57 106/145/56 114/144/56
f 116/148/58 108/149/58 107/147/57 115/146/57
f 110/137/52 101/136/52 108/150/58 116/151/58
g o4_1 gifts g2
f 117/69/59 118/70/59 119/71/59 120/72/59 121/73/59 122/1/59
f 123/74/60 118/75/60 117/76/61 124/77/61
f 125/78/62 119/79/62 118/80/60 123/81/60
f 126/82/63 120/83/63 119/84/62 125/85/62
f 127/86/64 121/87/64 120/88/65 126/89/65
f 128/90/66 122/91/66 121/92/64 127/93/64
f 124/94/67 117/95/67 122/96/66 128/97/66
f 128/152/68 127/153/68 126/154/68 125/155/68 123/156/68 124/157/68
g o16 gifts g2
f 129/3/1 130/4/1 131/1/1 132/2/1
f 133/1/69 130/158/69 129/159/69 134/2/69
f 135//70 131//70 130//70 133//70
f 136/2/71 132/160/71 131/161/71 135/1/71
f 134//72 129//72 132//72 136//72
g o17 gifts g2
f 137/162/1 138/163/1 139/164/1 140/165/1
f 141/166/2 138/167/2 137/168/2 142/169/2
f 143/170/41 139/171/41 138/172/41 141/173/41
f 144/169/42 140/168/42 139/167/42 143/166/42
f 142/173/43 137/172/43 140/171/43 144/170/43
g o18 gifts g2
f 145/3/1 146/4/1 147/1/1 148/2/1
f 149/1/2 146/4/2 145/3/2 150/2/2
f 151/1/41 147/4/41 146/3/41 149/2/41
f 152/2/42 148/3/42 147/4/42 151/1/42
f 150/2/43 145/3/43 148/4/43 152/1/43
g o17_1 gifts g2
f 153/3/1 154/4/1 155/1/1 156/2/1
f 157/1/2 154/4/2 153/3/2 158/2/2
f 159/1/41 155/4/41 154/3/41 157/2/41
f 160/2/42 156/3/42 155/4/42 159/1/42
f 158/2/43 153/3/43 156/4/43 160/1/43
g collision g2
f 161//1 162//1 163//1 164//1 165//1 166//1 167//1 168//1 169//1 170//1 171//1 172//1
f 173//73 172//73 171//74 174//74
f 174//74 171//74 170//75 175//75
f 175//75 170//75 169//76 176//76
f 176//76 169//76 168//77 177//77
f 177//77 168//77 167//78 178//78
f 178//78 167//78 166//79 179//79
f 179//79 166//79 165//80 180//80
f 180//80 165//80 164//81 181//81
f 181//81 164//81 163//82 182//82
f 182//82 163//82 162//83 183//83
f 183//83 162//83 161//84 184//84
f 184//84 161//84 172//73 173//73
f 173//68 174//68 175//68 176//68 177//68 178//68 179//68 180//68 181//68 182//68 183//68 184//68
