v 0.496191496476762 -1.69047629068412 -1.08846901418048
v 0.489756520035659 -1.55533705076171 34.6473121128131
v -0.548325115038722 -1.70029070552257 34.7533863287016
v -0.531432819405795 -1.83753717640881 -1.14309023884754
v -1.34791222051351 0.619385595750204 -1.10445539210809
v -1.36925011452167 0.74579879135872 33.9746961523114
v -0.473683096217904 1.22688755668011 33.7433447055946
v -0.452348842824887 1.10047509732237 -0.87309954506709
v -1.39838274407947 -1.29559187442523 -1.18355562046666
v -1.41536282176164 -1.1700599709812 34.6473121128131
v -1.74930121876137 -0.203943239135196 34.3333665802992
v -1.72796696536834 -0.330355698492951 -1.0899827257156
v -0.548325115038722 -1.70029070552257 34.7533775280532
v 0.534628954978472 1.02297407259048 33.7433447055946
v 0.555963208371496 0.896561613232729 -0.87309954506709
v 1.17287494005186 0.231698442905498 33.9746961523114
v 1.19420919344488 0.105285983547757 -1.10445539210809
v 1.15402529909726 -0.791082689654272 34.3333665802992
v 1.17535955249028 -0.917495149012027 -0.869610087952691
v 2.51391628651544 4.53392534188685 44.2738522934175
v -2.76964226646595 4.53392600314576 44.2738514228808
v -0.127864878142363 -0.0417689423154522 47.751711847741
v -5.41142154295664 -0.0417680419746939 44.2738508787954
v -2.76964408492795 -4.61746387679904 44.2738514228808
v 2.51391628651544 -4.6174642074285 44.2738522934175
v 5.15569390985885 -0.0417688520644096 44.2738527286858
v 3.92286494743161 -0.0417688633916286 44.2738525110517
v 1.89750197061654 3.46626298533845 44.2738521846004
v 1.89750197061654 -3.54980185088011 44.2738521846004
v -2.15322976902906 -3.54980152025065 44.2738514228808
v -4.17859092738212 -0.0417680306473961 44.2738510964295
v -2.15322795056705 3.46626397722682 44.2738514228808
v 3.92286527806106 -0.0417678515801419 35.5486125309528
v 1.89750213593127 3.46626496911519 35.5486116604161
v 1.89750213593127 -3.54980052836229 35.5486116604161
v -2.1532294383996 -3.54980019773283 35.5486116604161
v -4.17859059675266 -0.041767018836146 35.5486107898795
v -2.1532276199376 3.46626596100356 35.5486116604161
v -7.7607847849604 -7.7607847849604 -0.400794910564785
v 7.76078478496041 -7.7607847849604 -0.400794910564785
v 3.05580795594355 -3.05580905010938 33.0708622613625
v -3.05580932365083 -3.05580905010938 33.0708622613625
v -6.14387465614048 -6.14387410905757 36.2302310988725
v 6.14387137364298 -6.14387465614049 36.2302310988725
v 6.14387137364298 6.14387246780881 36.2302310988725
v -6.14387465614048 6.14387246780881 36.2302310988725
v -3.05580932365083 3.05580905010938 33.0708622613625
v 3.05580795594355 3.05580905010938 33.0708622613625
v 7.76078478496041 7.7607847849604 -0.400794910564785
v -7.7607847849604 7.7607847849604 -0.400794910564785
v 2.88906856137867 4.86418894880485 36.0841625044558
v -2.94519186203618 4.86418858371413 36.0841625044558
v -2.94519186203618 4.86418894880485 40.4008737658185
v 2.88906856137867 4.86418931389556 40.4008737658185
v -5.86232015701735 -0.18842504554532 36.0841625044558
v -5.86231979192663 -0.188424668779513 40.4008737658185
v -2.94519186203618 -5.24104230052196 36.0841625044558
v -2.94519186203618 -5.24104193543125 40.4008737658185
v 2.88906454538081 -5.24104193543125 36.0841625044558
v 2.88906454538081 -5.24104157034053 40.4008737658185
v 5.80619667381449 -0.188424388231725 36.0841626685186
v 5.80619667381449 -0.188424011465918 40.4008739298813
v -11.3335758794837 -11.3335722527454 0.0249999999999975
v 11.3335755440933 -11.3335722527454 0.0249999999999975
v 11.3335755440933 11.3335831757631 0.0250000000000025
v -11.3335758794837 11.3335831757631 0.0250000000000025
v -7.94139976941042 -8.03638682716454 -1.00557137212218
v 7.94139976941042 -8.03638682716454 -1.00557137212218
v 7.94139976941042 -8.03638682716454 25.9868526183637
v -7.94139976941042 -8.03638682716454 25.9868526183637
v -7.94139976941042 7.84641271165631 25.9868526183637
v 7.94139976941042 7.84641271165631 25.9868526183637
v 7.94139976941042 7.84641271165631 -1.00557137212218
v -7.94139976941042 7.84641271165631 -1.00557137212218
vt 1.37085151672363 1.00103855133057
vt 1.37085151672363 0.253109246492386
vt 1.57702529430389 0.253109127283096
vt 1.57702529430389 1.00103843212128
vt 0.261324137449265 1.00103855133057
vt 0.261324137449265 0.253109246492386
vt 0.481961578130722 0.253109246492386
vt 0.481961578130722 1.00103855133057
vt -0.18470524251461 1.00103855133057
vt -0.18470524251461 0.253109246492386
vt 0.0375169143080711 0.253109246492386
vt 0.0375169143080711 1.00103855133057
vt -0.394405245780945 1.00103843212128
vt -0.394405245780945 0.253109127283096
vt 0.704183638095856 0.253109246492386
vt 0.704183638095856 1.00103855133057
vt 0.924820780754089 0.253109246492386
vt 0.924820780754089 1.00103855133057
vt 1.1486279964447 0.253109246492386
vt 1.1486279964447 1.00103855133057
vt 0.84217894077301 0.470090627670288
vt 0.966260015964508 0.697090148925781
vt 0.698036134243011 0.69709038734436
vt 0.838241159915924 0.917170166969299
vt 0.550792455673218 0.916821718215942
vt 0.432957947254181 0.69709050655365
vt 0.55352520942688 0.470090985298157
vt 0.530328273773193 0.43366551399231
vt 0.863119125366211 0.433664917945862
vt 0.390602052211761 0.697090268135071
vt 0.524288177490234 0.955022573471069
vt 0.862346231937408 0.955022573471069
vt 1.00476503372192 0.697090148925781
vt 0.821514070034027 0.358561396598816
vt 0.657821893692017 0.358561396598816
vt 0.657821893692017 0.00744044780731201
vt 0.821514070034027 0.00744044780731201
vt 0.494129717350006 0.358561396598816
vt 0.494129717350006 0.00744044780731201
vt 0.330437272787094 0.358561396598816
vt 0.330437272787094 0.00744044780731201
vt 0.166745036840439 0.358561396598816
vt 0.166744992136955 0.00744044780731201
vt 0.00305277109146118 0.358561396598816
vt 0.00305274128913879 0.00744044780731201
vt 0.985206425189972 0.358561396598816
vt 0.985206305980682 0.00744044780731201
vt 0.013845426030457 0.00640286505222321
vt 0.436856389045715 0.00640286505222321
vt 0.311295986175537 0.899650871753693
vt 0.139405786991119 0.899650871753693
vt 0.374393612146378 0.667241930961609
vt 0.642595589160919 0.667241930961609
vt 0.642595589160919 0.935443878173828
vt 0.374393612146378 0.935443878173828
vt 0.311295926570892 0.899650812149048
vt 0.13940554857254 0.899650812149048
vt 0.0138453841209412 0.00640285015106201
vt 0.436856389045715 0.00640285015106201
vt 0.578555405139923 0.00640286505222321
vt 0.993264436721802 0.00640286505222321
vt 0.867703974246979 0.899650871753693
vt 0.704115688800812 0.899650871753693
vt 0.578555464744568 0.00640282034873962
vt 0.99326491355896 0.00640282034873962
vt 0.867704033851624 0.899650990962982
vt 0.704115867614746 0.899650990962982
vt 0.393706262111664 0.988904237747192
vt 0.0569956749677658 0.988904237747192
vt 0.950114250183105 0.988904237747192
vt 0.62170547246933 0.988904237747192
vt 0.393706440925598 0.988904297351837
vt 0.0569954514503479 0.988904297351837
vt 0.950114727020264 0.988904595375061
vt 0.621705591678619 0.988904595375061
vt 2.54017210006714 -0.139295697212219
vt 3.56025910377502 -0.139295697212219
vt 3.56025910377502 1.13929569721222
vt 2.54017210006714 1.13929569721222
vt -2.56025910377502 -0.139295697212219
vt -1.5401725769043 -0.139295697212219
vt -1.5401725769043 1.13929569721222
vt -2.56025910377502 1.13929569721222
vt -0.52008593082428 -0.139295697212219
vt -0.52008593082428 1.13929569721222
vt 0.499999850988388 -0.139295697212219
vt 0.499999850988388 1.13929569721222
vt 1.52008640766144 -0.139295697212219
vt 1.52008640766144 1.13929569721222
vt 0 0
vt 1 0
vt 1 1
vt 0 1
vn 0.476447980755463 -0.87919575852527 0.0034842251961529
vn 0.140063307673027 -0.990135217397831 0.00381065771756133
vn -0.205263728913167 -0.978700256953207 0.00355086361174525
vn -0.745793299266903 0.66617127351716 -0.00286166194948991
vn -0.146181106859448 0.989250961723377 -0.0036903559070591
vn -0.781439875971723 -0.623977765922442 0.00186222333144446
vn -0.999694138267508 0.0247221223420293 -0.000668266780412064
vn -0.52608333522332 -0.85042818820514 0.00286724718680979
vn 0.519097096896463 0.854710706736736 -0.00279495675345333
vn 0.945958165137705 0.324288127187552 -0.000600311998935762
vn 0.932989134797107 -0.359900003024642 0.0018061487782336
vn 0.27490937436926 0.476157174063395 0.835283892740584
vn -0.274909579666017 0.476157276696214 0.835283766666813
vn -1.23856347432374e-07 0.45199911101484 0.892018387502062
vn -0.549819154347121 1.35854956265365e-07 0.835283722763109
vn -0.27490970584857 -0.476157128415323 0.835283809665629
vn 0.27490933042685 -0.476157128215379 0.835283933338804
vn 0.549818796151922 3.46142354287913e-08 0.835283958542273
vn 0.524048974441631 -0.302559712719035 0.796134594541683
vn 1.74034115041824e-07 7.57100188916384e-08 -0.999999999999982
vn 1.73201518151423e-07 -1.51420280991968e-08 -0.999999999999985
vn 1.74034040208381e-07 -4.54259954328764e-08 -0.999999999999984
vn 1.54881935767339e-07 -1.51419602813888e-08 -0.999999999999988
vn 1.34897290560978e-07 3.02840351514878e-08 -0.99999999999999
vn 1.54881991892421e-07 9.08520469908353e-08 -0.999999999999984
vn 0.500000138737395 0.866025323684329 1.95031410010591e-07
vn 0.999999999999999 3.06995934928175e-08 3.93589863665026e-08
vn 0.866025468415195 -0.499999888056225 -6.40727339508513e-08
vn -6.83136747170456e-08 -0.999999999999986 -1.51573798704219e-07
vn -0.866025682877102 -0.499999516597005 -1.05831775697183e-07
vn -0.999999999999969 2.46255912756882e-07 -2.695452537389e-08
vn -0.866025481319978 0.499999865704481 3.81271020217124e-08
vn 2.0494113073254e-07 0.999999999999953 2.27360725042704e-07
vn 0 -0.990264638959488 0.139197502946118
vn -1.18465083116881e-08 -0.950122707578978 -0.31187632251069
vn 0 0 1
vn 0 0.950122755912008 -0.311876175265394
vn 0 0.990264638959488 0.139197502946118
vn 0.990264630743442 0 0.139197561395861
vn 0.95012276091075 0 -0.311876160036856
vn -0.990264638959488 0 0.139197502946118
vn -0.950122706329293 -0 -0.311876326317822
vn -3.08871935411558e-08 -0.715130574349468 -0.698990888088392
vn 0.715130839138293 0 -0.698990617185496
vn 0 0.715130780221627 -0.698990677462587
vn -0.715130485638218 -0 -0.698990978847973
vn 0.499999944264928 0.866025435963092 -7.36354554467861e-08
vn -0.500000009302478 0.866025398413649 -5.24914219006068e-08
vn -0.999999999999987 1.55863520508476e-07 4.22880494565767e-08
vn -0.866025536931834 -0.499999769381867 8.72807049943224e-08
vn 0 -0.999999999999996 8.45761244903368e-08
vn 0.49999989699822 -0.866025463252533 7.36354579919553e-08
vn 0.866025251956728 -0.500000262973215 4.65057665341487e-08
vn 0.866025399898529 0.500000006730585 -8.72808179888272e-08
vn 0 -1 0
vn 0 1 0
vn 1 0 0
vn -1 0 0
g HFPipe14 waterTower
f 1/1/1 2/2/1 3/3/2 4/4/3
f 5/5/4 6/6/4 7/7/5 8/8/5
f 9/9/6 10/10/6 11/11/7 12/12/7
f 4/13/3 13/14/8 10/10/6 9/9/6
f 12/12/7 11/11/7 6/6/4 5/5/4
f 8/8/5 7/7/5 14/15/9 15/16/9
f 15/16/9 14/15/9 16/17/10 17/18/10
f 17/18/10 16/17/10 18/19/11 19/20/11
f 19/20/11 18/19/11 2/2/1 1/1/1
g pCone2 waterTower
f 20/21/12 21/22/13 22/23/14
f 21/22/13 23/24/15 22/23/14
f 23/24/15 24/25/16 22/23/16
f 24/25/16 25/26/17 22/23/16
f 25/26/17 26/27/18 22/23/19
f 26/27/18 20/21/12 22/23/14
f 20/21/20 26/27/21 27/28/21 28/29/20
f 26/27/21 25/26/22 29/30/22 27/28/21
f 25/26/22 24/25/23 30/31/23 29/30/22
f 24/25/23 23/24/24 31/32/24 30/31/23
f 23/24/24 21/22/25 32/33/25 31/32/24
f 21/22/25 20/21/20 28/29/20 32/33/25
f 28/34/26 27/35/27 33/36/27 34/37/26
f 27/35/27 29/38/28 35/39/28 33/36/27
f 29/38/29 30/40/29 36/41/29 35/39/29
f 30/40/30 31/42/31 37/43/31 36/41/30
f 31/42/31 32/44/32 38/45/32 37/43/31
f 32/46/33 28/34/26 34/37/26 38/47/33
g pCube1 waterTower
f 39/48/34 40/49/34 41/50/35 42/51/35
f 43/52/36 44/53/36 45/54/36 46/55/36
f 47/56/37 48/57/37 49/58/38 50/59/38
f 40/60/39 49/61/39 48/62/40 41/63/40
f 50/64/41 39/65/41 42/66/42 47/67/42
f 42/51/35 41/50/35 44/68/43 43/69/43
f 41/63/40 48/62/40 45/70/44 44/71/44
f 48/57/37 47/56/37 46/72/45 45/73/45
f 47/67/42 42/66/42 43/74/46 46/75/46
g pCylinder1 waterTower
f 51/76/47 52/77/48 53/78/48 54/79/47
f 52/80/48 55/81/49 56/82/49 53/83/48
f 55/81/49 57/84/50 58/85/50 56/82/49
f 57/84/51 59/86/52 60/87/52 58/85/51
f 59/86/52 61/88/53 62/89/53 60/87/52
f 61/88/54 51/76/47 54/79/47 62/89/54
g pPlane1 waterTower
f 63/90/36 64/91/36 65/92/36 66/93/36
g pCube2
f 67//55 68//55 69//55 70//55
f 71//56 72//56 73//56 74//56
f 68//57 73//57 72//57 69//57
f 74//58 67//58 70//58 71//58
