v -2 2 1
v -2 -2 1
v -1.5 -1.5 1
v -1.5 1.5 1
v 2 -2 1
v 1.5 -1.5 1
v 2 2 1
v 1.5 1.5 1
v 2 -2 0
v -2 -2 0
v 2 2 0
v -2 2 0
v -1.5 1.5 0.455132113226927
v 1.5 1.5 0.455132113226927
v -1.5 -1.5 0.455132113226927
v 1.5 -1.5 0.455132113226927
v 0 0 0.455132113226927
v 2.5 -2.5 0
v 2.5 -2.5 4
v -2.5 -2.5 4
v -2.5 -2.5 0
v 2.5 2.5 0
v 2.5 2.5 4
v -2.5 2.5 0
v -2.5 2.5 4
vt 0.734965026378632 0.517258405685425
vt 0.228211745619774 0.491138458251953
vt 0.311221837997437 0.789295673370361
vt 0.691286861896515 0.808885633945465
vt 0.211948677897453 0.533334076404572
vt 0.734182000160217 0.532928168773651
vt 0.7144775390625 0.810281157493591
vt 0.322802752256393 0.810585618019104
vt 0.225301429629326 -0.00649489788338542
vt 0.702354729175568 -0.0337550863623619
vt 0.665723860263824 0.382814675569534
vt 0.307933896780014 0.403259813785553
vt 0.70553982257843 0.377816319465637
vt 0.296490073204041 0.38636839389801
vt 0.198317602276802 0.150091648101807
vt 0.74371725320816 0.138688862323761
vt 1 0
vt 1 1
vt 0 1
vt 0 0
vt 0 1.15341150760651
vt 1 1.15341150760651
vt 0.5 0.5
vt 0.034588597714901 1.02941942214966
vt 0.0233477000147104 0.299009263515472
vt 0.831614434719086 0.306447982788086
vt 0.842855334281921 1.03685820102692
vt 0.0198569279164076 0.990591168403625
vt 0.0172261577099562 0.404250055551529
vt 0.836706042289734 0.408465176820755
vt 0.839336812496185 0.994806289672852
vt 0.0828079804778099 1.01702868938446
vt 0.0707086697220802 0.288836628198624
vt 0.769548416137695 0.297804147005081
vt 0.781647741794586 1.02599620819092
vt 0.0321328081190586 1.00162947177887
vt 0.0260580517351627 0.409677088260651
vt 0.868972957134247 0.39765539765358
vt 0.875047743320465 0.989607810974121
vt -0.00579875754192472 0.806860864162445
vt 0.993962645530701 0.806064784526825
vt 0.86954528093338 1.03565049171448
vt 0.119724243879318 1.03624737262726
vt 0.978156208992004 0.820603728294373
vt -0.0161096695810556 0.818305194377899
vt 0.106275103986263 1.04364705085754
vt 0.851974546909332 1.04537105560303
vt 0.947979390621185 0.812125742435455
vt -0.00441315630450845 0.810268580913544
vt 0.11131240427494 1.04003524780273
vt 0.825606822967529 1.04142820835114
vt 0.881809175014496 1.03844225406647
vt 0.177959516644478 1.02717280387878
vt 0.0649872869253159 0.819212019443512
vt 1.00345385074615 0.83423787355423
vn 0 0 1
vn 0 -1 0
vn 1 0 0
vn 0 1 0
vn -1 0 0
g box3_top tree_planter_box3 g6
f 1/1/1 2/2/1 3/3/1 4/4/1
f 2/5/1 5/6/1 6/7/1 3/8/1
f 5/9/1 7/10/1 8/11/1 6/12/1
f 4/13/1 8/14/1 7/15/1 1/16/1
g box3_outer_wall tree_planter_box3 g6
f 9/17/2 5/18/2 2/19/2 10/20/2
f 11/17/3 7/18/3 5/19/3 9/20/3
f 12/17/4 1/18/4 7/19/4 11/20/4
f 10/17/5 2/18/5 1/19/5 12/20/5
g box3_inner_wall tree_planter_box3 g6
f 4/19/2 13/20/2 14/17/2 8/18/2
f 3/19/3 15/20/3 13/17/3 4/18/3
f 6/19/4 16/20/4 15/17/4 3/18/4
f 8/21/5 14/20/5 16/17/5 6/22/5
g box3_dirt tree_planter_box3 g6
f 15/17/1 17/23/1 13/20/1
f 15/17/1 16/18/1 17/23/1
f 16/18/1 14/19/1 17/23/1
f 14/19/1 13/20/1 17/23/1
g box_drit tree_box_planter_bricks g6
f 15/17/1 17/23/1 13/20/1
f 15/17/1 16/18/1 17/23/1
f 16/18/1 14/19/1 17/23/1
f 14/19/1 13/20/1 17/23/1
g inner_wall tree_box_planter_bricks g6
f 4/24/2 13/25/2 14/26/2 8/27/2
f 6/28/4 16/29/4 15/30/4 3/31/4
f 3/32/3 15/33/3 13/34/3 4/35/3
f 8/36/5 14/37/5 16/38/5 6/39/5
g outer_wall tree_box_planter_bricks g6
f 9/17/2 5/18/2 2/19/2 10/20/2
f 11/17/3 7/18/3 5/19/3 9/20/3
f 12/17/4 1/18/4 7/19/4 11/20/4
f 10/17/5 2/18/5 1/19/5 12/20/5
g box_top tree_box_planter_bricks g6
f 1/40/1 2/41/1 3/42/1 4/43/1
f 2/44/1 5/45/1 6/46/1 3/47/1
f 5/48/1 7/49/1 8/50/1 6/51/1
f 4/52/1 8/53/1 7/54/1 1/55/1
g collide tree_planter_box_collisions g6
f 18//2 19//2 20//2 21//2
f 22//3 23//3 19//3 18//3
f 24//4 25//4 23//4 22//4
f 21//5 20//5 25//5 24//5
