v 8 9 8.44956087341579
v 8 9 -0.000607767791893643
v 8 -15 -0.000607767791893643
v 8 -15 8.44956087341579
v -8 9 8.44956087341579
v -8 -15 8.44956087341579
v -8 -15 -0.000607767791893643
v -8 9 -0.000607767791893643
v -5.40192378864668 8.5 0
v -5.40192378864668 8.5 3
v -8 7 3
v -8 7 0
v -8.43301270189222 6.75 1
v -8.43301270189222 6.75 -1
v -4.96891108675446 8.75 -1
v -4.96891108675446 8.75 1
v 8 7 0
v 8 7 3
v 5.40192378864668 8.5 3
v 5.40192378864668 8.5 0
v 4.96891108675446 8.75 1
v 4.96891108675446 8.75 -1
v 8.43301270189222 6.75 -1
v 8.43301270189222 6.75 1
vt 1 1
vt 1 0
vt 0 0
vt 0 1
vt -0.00425907829776406 -0.885919690132141
vt 0.995579719543457 -0.88160240650177
vt 0.999897062778473 0.00275748665444553
vt 5.82346110604703e-05 -0.00155982619617134
vt 1.00034582614899 -0.00496959872543812
vt 0.993263602256775 0.997633039951324
vt -0.0102738831192255 1.00269079208374
vt -0.00319165573455393 8.81259547895752e-05
vn -1 0 0
vn 1 0 0
vn 0 0 -1
vn 0 -1 0
vn 0.5 -0.866025403784439 0
vn -0.5 -0.866025403784439 0
vn 0 0 1
g walls g1
f 1/1/1 2/2/1 3/3/1 4/4/1
f 5/1/2 6/4/2 7/3/2 8/2/2
f 5/5/3 1/6/3 4/7/3 6/8/3
f 2/2/4 1/1/4 5/4/4 8/3/4
g prop_trumpet trumpet g1
f 9/2/5 10/1/5 11/4/5 12/3/5
g prop_trumpet_collisions trumpet g1
f 13//5 14//5 15//5 16//5
g prop_drums drums g1
f 17/9/6 18/10/6 19/11/6 20/12/6
g prop_drums_collisions drums g1
f 21//6 22//6 23//6 24//6
g prop_cello cello g1
f 9/3/5 10/4/5 11/1/5 12/2/5
g prop_cello_collisions cello g1
f 13//5 14//5 15//5 16//5
g floor g1
f 7/4/7 3/1/7 2/2/7 8/3/7
