v -2.56479094306356 0 -4.21790843400641
v 2.56479094306356 0 -4.21790843400641
v 2.56479094306356 0 4.21790843400641
v -2.56479094306356 0 4.21790843400641
v -1.51224342549189 -0.025 -0.104851195310588
v 1.51224342549189 -0.025 -0.104851195310588
v 1.51224342549189 -0.025 0.612272041335167
v -1.51224342549189 -0.025 0.612272041335167
v -0.833004865157861 0 0.457593097699686
v 0.489893770858451 0 0.457593097699686
v 0.489893770858451 0 2.57637307907509
v -0.833004865157861 0 2.57637307907509
v -1.54973824730617 -0.025 2.49471301331403
v 1.26901098833392 -0.025 2.49471301331403
v 1.26901098833392 -0.025 3.78321260047334
v -1.54973824730617 -0.025 3.78321260047334
v -2.05877252697187 0 3.71863464995605
v 1.52850992669096 0 3.71863464995605
v 1.52850992669096 0 7.92430080196753
v -2.05877252697187 0 7.92430080196753
vt 0 0
vt 1 0
vt 1 1
vt 0 1
vn 0 -1 0
g pPlane1
f 1/1/1 2/2/1 3/3/1 4/4/1
g trophyBase trophy
f 5/1/1 6/2/1 7/3/1 8/4/1
g trophyColumn trophy
f 9/1/1 10/2/1 11/3/1 12/4/1
g trophyTopBase trophyTop trophy
f 13/1/1 14/2/1 15/3/1 16/4/1
g trophyStatue trophyTop trophy
f 17/1/1 18/2/1 19/3/1 20/4/1
