v -0.00534716648907643 0.00800059037649725 0.0209628746617497
v -0.00449535353207017 0.00800059037649725 0.020962875150633
v -0.00449535353207017 0.00829389098826356 0.0209343634800022
v -0.00534716648907643 0.00829389098826356 0.020934362991119
v -0.00406944691606863 0.00783119585335724 0.0188115566695143
v -0.00406944691606863 0.00812449646512355 0.0187830449988836
v -0.00449535334873896 0.00766180133021723 0.016660237943954
v -0.00449535334873896 0.00795510194198353 0.0166317265177649
v -0.0053471662140796 0.00766180133021723 0.016660237943954
v -0.0053471662140796 0.00795510194198353 0.0166317262733233
v -0.00577307264674993 0.00783119585335724 0.0188115561806311
v -0.00577307264674993 0.00812449646512355 0.0187830445100003
v -0.00492125984251969 0.00858662136661725 0.0187381215178435
v -0.00530770878378409 0.00762205218940269 0.0153997871936776
v -0.00453481123736251 0.00762205218940269 0.0153997876825608
v -0.00453481123736251 0.00787169298553091 0.0153997876825608
v -0.00530770878378409 0.00787169298553091 0.0153997871936776
v -0.0041483623266533 0.00762205218940269 0.0140609947984104
v -0.0041483623266533 0.00787169298553091 0.0140609947984104
v -0.00453481105403129 0.00762205218940269 0.0127222018531497
v -0.00453481105403129 0.00787169298553091 0.0127222018531497
v -0.00530770850878727 0.00762205218940269 0.0127222017614841
v -0.00530770850878727 0.00787169298553091 0.0127222017614841
v -0.00569415723616526 0.00762205218940269 0.0140609945539688
v -0.00569415723616526 0.00787169298553091 0.0140609945539688
v -0.00492125984251969 0.00815680793185873 0.0140609945539688
v -0.00490492558121447 0.00265416615884604 0.0209110144163993
v -0.00487225583639592 0.00821440766646167 0.0226583026760206
v -0.00633511139847475 0.00815036904624128 0.0218416085549853
v -0.00350740205330329 0.00764670158465078 0.015504600827306
v -0.00350740205330329 0.00764666462507774 0.0108214393942531
v -0.0063351297315963 0.00764666462507774 0.0108214393942531
v -0.0063351297315963 0.00764670158465078 0.015504600827306
v -0.00350740205330329 0.00818884572175544 0.00440368697712115
v -0.0063351297315963 0.00818884572175544 0.00440368697712115
v -0.00761544747458981 0.00283308965190658 0.015832684503922
v -0.00490492558121447 -0.00257261266095901 0.0167209433093472
v -0.00487225571417511 -0.00807330657647351 0.00440368697712115
v -0.00490492558121447 -0.00605452805757523 0.0104120370792592
v -0.00682496629518474 -0.00539471035984557 0.00440368697712115
v -0.00803421557027837 0.000909393044613947 0.0104933522954544
v -0.00350739875334141 0.00815036728626161 0.0218416065994523
v -0.00222707245489118 0.00283715520494097 0.015832684503922
v -0.00180830509252749 0.00090894622977559 0.010493352539896
v -0.0017065374459338 0.00174901059528035 0.00440368697712115
v -0.00813598297243043 0.00174919803311506 0.00440368697712115
v -0.0030175553453876 -0.00539471035984557 0.00440368697712115
vt 0.75000011920929 0.999999821186066
vt 0.250000089406967 0.99999988079071
vt 0.250000089406967 0.996540009975433
vt 0.75000011920929 0.996539950370789
vt -1.13076197294504e-08 0.738938868045807
vt -1.13076197294504e-08 0.73547899723053
vt 0.249999970197678 0.477877885103226
vt 0.249999970197678 0.474418044090271
vt 0.749999940395355 0.477877885103226
vt 0.749999940395355 0.474418014287949
vt 0.999999940395355 0.738938808441162
vt 0.999999940395355 0.735478937625885
vt 0.5 0.730027556419373
vt 0.726839125156403 0.324923068284988
vt 0.273161113262177 0.324923127889633
vt 0.0463220216333866 0.162461563944817
vt 0.273160994052887 -2.04926067226552e-08
vt 0.726838946342468 -3.16161639091206e-08
vt 0.953677892684937 0.162461534142494
vt 0.5 0.162461534142494
vt 0.464904934167862 0.902186989784241
vt 0.189832106232643 0.995446860790253
vt 0.192886486649513 0.951787650585175
vt 0.0137132871896029 0.605426371097565
vt 0.0137132871896029 0.355073213577271
vt 0.164910227060318 0.355073213577271
vt 0.164910227060318 0.605426371097565
vt 0.0137132937088609 0.0126520404592156
vt 0.164910227060318 0.0126520404592156
vt 0.455842524766922 0.631012320518494
vt 0.723483264446259 0.67855030298233
vt 0.995615243911743 0.0211438536643982
vt 0.895740032196045 0.341825485229492
vt 0.862948358058929 0.0210508108139038
vt 0.550978779792786 0.346016645431519
vt 0.193106397986412 0.951922655105591
vt 0.456060290336609 0.631269812583923
vt 0.218023672699928 0.613698303699493
vt 0.551484882831573 0.346314132213593
vt 0.218025490641594 0.363744497299194
vt 0.509933292865753 0.0212960839271545
vt 0.19120280444622 0.0212106108665466
vt 0.217803835868835 0.613563239574432
vt 0.217805668711662 0.363609373569489
vt 0.190982967615128 0.0210754871368408
vt 0.509424209594727 0.0209888815879822
vt 0.863244414329529 0.0212327241897583
vt 0.0866912230849266 0.988541543483734
vt 0.0137131167575717 0.944804549217224
vt 0.164909243583679 0.944804549217224
vn -6.1776859382972e-07 0.0967542916057399 0.995308297491531
vn 0.9810686280075 0.0187374685100934 0.192751794838118
vn 0.999999999999964 2.08837715515774e-07 1.67070169254651e-07
vn 0.981068726186515 -0.0187372216280672 -0.192751319125006
vn 1.42809999669156e-07 -0.0967532370918912 -0.995308400000834
vn -0.981068719684692 -0.0187373043841033 -0.192751344173412
vn -0.999999999999935 -5.80104695144516e-08 3.56922583932805e-07
vn -0.981068693281819 0.018737072198594 0.192751501129638
vn -0.245659431258794 0.965956845724219 0.0811099009500255
vn 0.245659319407945 0.965956870431208 0.0811099454738585
vn -7.71945159423496e-09 0.996883296583745 -0.0788903859308964
vn 0.478535464030864 0.875347641542927 -0.0690674750515781
vn 0.246458905670945 0.940910479179492 -0.232261658449471
vn -0.246458814766175 0.940910500033534 -0.232261670429489
vn -0.47853548679805 0.875347625141044 -0.069067525182879
vn -6.32533020843704e-07 0 0.9999999999998
vn 0.960774144245991 0 0.277332009959873
vn 0.999999999999997 0 7.75476962644459e-08
vn 0.960774182675291 0 -0.277331876827434
vn 1.18599999374003e-07 0 -0.999999999999993
vn -0.960774174242664 -0 -0.277331906040988
vn -0.999999999999996 -0 -9.30572296952943e-08
vn -0.960774218394421 0 0.2773317530839
vn -0.175113027563204 0.972036589063946 0.156461807156182
vn 0.17511285623808 0.972036613258886 0.156461848590435
vn -4.76800067870107e-08 0.999999999999999 -1.90720027148043e-08
vn 0.346094221947006 0.938199759931165 -1.70992326001041e-08
vn 0.175112963302375 0.97203659537167 -0.156461839889839
vn -0.175112949194442 0.972036596374498 -0.156461849449336
vn -0.346093473167921 0.938200036149309 -2.7358768626572e-08
vn -0.336687853049854 -0.350431073597799 0.873979034225521
vn 0.0139547832781089 -0.299838265240451 0.953887980174432
vn -0.678051516456438 -0.304389631227597 0.669023985692779
vn 1.41524581028934e-07 0.999213618223988 -0.0396502856951352
vn 0 0.999113117045875 0.042106761296442
vn 0 0.9964504300338 0.0841815923195541
vn -0.983844301579392 -0.0591227934657959 0.168981908920924
vn -0.870103996767287 -0.365369739973814 0.330792968367014
vn -0.79334819868223 -0.578354985008069 0.190010912749709
vn -0.859193378492136 -0.463276073255086 0.217168179770005
vn -0.907360829955189 -0.39517702316055 0.143287977963951
vn -0.989714098062551 -0.101309788256911 0.101006588396855
vn 0.97440813455009 -0.0328541101161789 0.22237219873691
vn 0.984250599316446 -0.0569361997992683 0.167358976148981
vn 0.967399195114982 0.252870547372068 -0.0139743895263899
vn 0.989990347726303 -0.0997856549377038 0.0998094909184881
vn 0.967407414725934 0.252823253303379 0.0142582089471089
vn 0.999156711796666 0.0385356524019577 0.0141728178436292
vn 0.966083185144811 0.25569268912218 0.0361182517561989
vn -0.96654391902473 0.255695039164246 -0.0203199297023971
vn -0.967436537815494 0.252731700655939 -0.0139008195127837
vn -0.967415064479268 0.252790488406584 0.0143199856751085
vn -0.966080671113523 0.255702784538702 0.0361140260840346
vn -0.999156388144683 0.0385432697112142 0.0141749211511401
vn 0.843620159378208 -0.316929308077717 0.433429164191873
vn 0.872741515171351 -0.361474932257076 0.328112969945043
vn 0.864445932209896 -0.453991861188367 0.215927349496277
vn 0.911129584343142 -0.386710217536053 0.142471359184618
vn 0.806839121323502 -0.558667531997911 0.192096905215265
vn 0.485995931698967 -0.264604868916589 0.832941905367768
vn 5.65823714427812e-07 0.996939804015768 -0.0781730590976355
vn 4.2463237186672e-07 0.996898209661871 -0.078701712641943
g lights
f 1/1/1 2/2/1 3/3/1 4/4/1
f 2/2/2 5/5/3 6/6/3 3/3/2
f 5/5/3 7/7/4 8/8/4 6/6/3
f 7/7/5 9/9/5 10/10/5 8/8/5
f 9/9/6 11/11/7 12/12/7 10/10/6
f 11/11/7 1/1/8 4/4/8 12/12/7
f 4/4/9 3/3/10 13/13/11
f 3/3/10 6/6/12 13/13/11
f 6/6/12 8/8/13 13/13/11
f 8/8/13 10/10/14 13/13/11
f 10/10/14 12/12/15 13/13/11
f 12/12/15 4/4/9 13/13/11
f 14/14/16 15/15/16 16/15/16 17/14/16
f 15/15/17 18/16/18 19/16/18 16/15/17
f 18/16/18 20/17/19 21/17/19 19/16/18
f 20/17/20 22/18/20 23/18/20 21/17/20
f 22/18/21 24/19/22 25/19/22 23/18/21
f 24/19/22 14/14/23 17/14/23 25/19/22
f 17/14/24 16/15/25 26/20/26
f 16/15/25 19/16/27 26/20/26
f 19/16/27 21/17/28 26/20/26
f 21/17/28 23/18/29 26/20/26
f 23/18/29 25/19/30 26/20/26
f 25/19/30 17/14/24 26/20/26
g vertex
f 27/21/31 28/22/32 29/23/33
f 30/24/34 31/25/35 32/26/35 33/27/34
f 31/25/35 34/28/36 35/29/36 32/26/35
f 29/23/33 36/30/37 37/31/38 27/21/31
f 38/32/39 39/33/40 40/34/41
f 36/30/37 41/35/42 39/33/40 37/31/38
f 42/36/43 43/37/44 30/38/45
f 43/37/44 44/39/46 31/40/47 30/38/45
f 44/39/46 45/41/48 34/42/49 31/40/47
f 29/23/50 33/43/51 36/30/37
f 33/43/51 32/44/52 41/35/42 36/30/37
f 32/44/52 35/45/53 46/46/54 41/35/42
f 27/21/55 37/31/56 43/37/44 42/36/43
f 37/31/56 39/33/57 44/39/46 43/37/44
f 47/47/58 39/33/57 38/32/59
f 27/21/31 42/36/60 28/22/32
f 28/48/61 42/49/62 29/50/62
f 42/49/62 30/24/34 33/27/34 29/50/62
f 39/33/40 41/35/42 40/34/41
f 41/35/42 46/46/54 40/34/41
f 44/39/46 39/33/57 47/47/58
f 44/39/46 47/47/58 45/41/48
