v 0 0 0.200657685959133
v 2 0 0.200657685959133
v 2 0.0833333333333333 0.244941452540255
v 0 0.0833333333333333 0.244941452540255
v 2 0.166666666666667 0.259039091092558
v 0 0.166666666666667 0.259039091092558
v 2 0.333333333333333 0.282939630995123
v 0 0.333333333333333 0.282939630995123
v 2 0.666666666666667 0.32664723745957
v 0 0.666666666666667 0.32664723745957
v 2 1.33333333333333 0.366755730831882
v 0 1.33333333333333 0.366755730831882
v 2 2 0.401315371918265
v 0 2 0.401315371918265
v 2 2 0
v 2 1.33333333333333 0.0345596410863829
v 2 0.666666666666667 0.0746681344586951
v 2 0.333333333333333 0.118375740923142
v 2 0.166666666666667 0.142276280825707
v 2 0.0833333333333333 0.15637391937801
v 0 2 0
v 0 0.0833333333333333 0.15637391937801
v 0 0.166666666666667 0.142276280825707
v 0 0.333333333333333 0.118375740923142
v 0 0.666666666666667 0.0746681344586951
v 0 1.33333333333333 0.0345596410863829
vt 0 0
vt 1 0
vt 1 0.0416666679084301
vt 0 0.0416666679084301
vt 1 0.0833333358168602
vt 0 0.0833333358168602
vt 1 0.16666667163372
vt 0 0.16666667163372
vt 1 0.333333343267441
vt 0 0.333333343267441
vt 1 0.666666686534882
vt 0 0.666666686534882
vt 1 1
vt 0 1
vt 0.666666686534882 1
vt 0.666666686534882 0
vt 0.333333343267441 1
vt 0.333333343267441 0
vt 0.16666667163372 1
vt 0.16666667163372 0
vt 0.0833333358168602 1
vt 0.0833333358168602 0
vt 0.0416666679084301 1
vt 0.0416666679084301 0
vt 0.958333373069763 1
vt 0.958333373069763 0
vt 0.916666686534882 1
vt 0.916666686534882 0
vt 0.833333373069763 1
vt 0.833333373069763 0
vt 1 0.833333373069763
vt 0 0.833333373069763
vt 1 0.916666686534882
vt 0 0.916666686534882
vt 1 0.958333373069763
vt 0 0.958333373069763
vn 0 -0.469262106787322 0.883058930725195
vn 0 -0.322169210814276 0.946682100603633
vn 0 -0.15438857867934 0.988010205804258
vn 0 -0.135982984790096 0.990711172768116
vn 0 -0.0950907649635729 0.995468606445549
vn 0 -0.055912531354626 0.998435670855923
vn 0 -0.0517699468405514 0.998659037211463
vn 1 0 0
vn 0 1 0
vn -1 0 0
vn 0 -0.0517699468405514 -0.998659037211463
vn 0 -0.055912531354626 -0.998435670855923
vn 0 -0.0950907649635729 -0.995468606445549
vn 0 -0.135982984790096 -0.990711172768116
vn 0 -0.154388578679341 -0.988010205804258
vn 0 -0.322169210814277 -0.946682100603633
vn 0 -0.469262106787322 -0.883058930725195
g o1 g2 g1
f 1/1/1 2/2/1 3/3/2 4/4/2
f 3/3/2 5/5/3 6/6/3 4/4/2
f 5/5/3 7/7/4 8/8/4 6/6/3
f 7/7/4 9/9/5 10/10/5 8/8/4
f 9/9/5 11/11/6 12/12/6 10/10/5
f 11/11/6 13/13/7 14/14/7 12/12/6
f 15/2/8 13/13/8 11/15/8 16/16/8
f 11/15/8 9/17/8 17/18/8 16/16/8
f 9/17/8 7/19/8 18/20/8 17/18/8
f 7/19/8 5/21/8 19/22/8 18/20/8
f 5/21/8 3/23/8 20/24/8 19/22/8
f 3/23/8 2/14/8 2/1/8 20/24/8
f 21/2/9 14/13/9 13/14/9 15/1/9
f 1/2/10 1/13/10 4/25/10 22/26/10
f 4/25/10 6/27/10 23/28/10 22/26/10
f 6/27/10 8/29/10 24/30/10 23/28/10
f 8/29/10 10/15/10 25/16/10 24/30/10
f 10/15/10 12/17/10 26/18/10 25/16/10
f 12/17/10 14/14/10 21/1/10 26/18/10
f 21/1/11 15/2/11 16/9/12 26/10/12
f 16/9/12 17/11/13 25/12/13 26/10/12
f 17/11/13 18/31/14 24/32/14 25/12/13
f 18/31/14 19/33/15 23/34/15 24/32/14
f 19/33/15 20/35/16 22/36/16 23/34/15
f 20/35/16 2/13/17 1/14/17 22/36/16
