v -1.45881844878753 0 1.29718300212563
v -1.45881844878753 0 -1.29718300212563
v 1.45881844878753 0 -1.29718300212563
v 1.45881844878753 0 1.29718300212563
v -1.63682136741365 0 1.38357049085525
v -1.63682136741365 0 -1.38357049085525
v 1.63682136741365 0 -1.38357049085525
v 1.63682136741365 0 1.38357049085525
v -1.97242846085923 0 1.17195236905692
v -1.97242846085923 0 -1.17195236905692
v 1.97242846085923 0 -1.17195236905692
v 1.97242846085923 0 1.17195236905692
v -1.18825594643154 0 1.21803354622569
v -1.18825594643154 0 -1.24488154649735
v 1.18825594643154 0 -1.24488154649735
v 1.18825594643154 0 1.21803354622569
v -1.04713169784171 0 1.05169318741097
v -1.04713169784171 0 -1.04257020827245
v 1.04713169784171 0 -1.04257020827245
v 1.04713169784171 0 1.05169318741097
v -1.39637240128589 0 1.40829906321923
v -1.39637240128589 0 -1.42919424176216
v 1.39637240128589 0 -1.42919424176216
v 1.39637240128589 0 1.40829906321923
v -1.52778597101996 0 1.76235159777528
v -1.52778597101996 0 -1.76235159777528
v 1.52778597101996 0 -1.76235159777528
v 1.52778597101996 0 1.76235159777528
v -1.20218492509754 0 1.61436335724833
v -1.20218492509754 0 -1.61436335724833
v 1.20218492509754 0 -1.61436335724833
v 1.20218492509754 0 1.61436335724833
vt 0 1
vt 0 0
vt 1 0
vt 1 1
vn 0 -1 0
g window_md_curtains_ur window_md_curtains newwindows
f 1/1/1 2/2/1 3/3/1 4/4/1
g window_md_curtains_ul window_md_curtains newwindows
f 1/4/1 2/3/1 3/2/1 4/1/1
g window_md_curved_ur window_md_curved newwindows
f 5/1/1 6/2/1 7/3/1 8/4/1
g window_md_curved_ul window_md_curved newwindows
f 5/4/1 6/3/1 7/2/1 8/1/1
g window_sm_shuttered_ur window_sm_shuttered newwindows
f 9/1/1 10/2/1 11/3/1 12/4/1
g window_sm_shuttered_ul window_sm_shuttered newwindows
f 9/4/1 10/3/1 11/2/1 12/1/1
g window_sm_square_ur window_sm_square newwindows
f 13/1/1 14/2/1 15/3/1 16/4/1
g window_sm_square_ul window_sm_square newwindows
f 13/4/1 14/3/1 15/2/1 16/1/1
g window_porthole_ur window_porthole newwindows
f 17/1/1 18/2/1 19/3/1 20/4/1
g window_porthole_ul window_porthole newwindows
f 17/4/1 18/3/1 19/2/1 20/1/1
g window_sm_pointed_ur window_sm_pointed newwindows
f 21/1/1 22/2/1 23/3/1 24/4/1
g window_sm_pointed_ul window_sm_pointed newwindows
f 21/4/1 22/3/1 23/2/1 24/1/1
g window_sm_curved_ur window_sm_curved newwindows
f 25/1/1 26/2/1 27/3/1 28/4/1
g window_sm_curved_ul window_sm_curved newwindows
f 25/4/1 26/3/1 27/2/1 28/1/1
g window_sm_round_ur window_sm_round newwindows
f 29/1/1 30/2/1 31/3/1 32/4/1
g window_sm_round_ul window_sm_round newwindows
f 29/4/1 30/3/1 31/2/1 32/1/1
