v -6.12183468235446 -0.0786775053329668 -18.3406919944943
v -5.30392253805646 -3.10125225798039 -18.2712484845339
v -4.88897809206344 -2.80922341534472 -14.0168417782921
v -5.66555684007059 0.0606053105489475 -14.0827709608504
v -3.0849131386424 -5.31161601149191 -18.2776904168717
v -2.78210652469024 -4.90788687558312 -14.0229553062459
v -0.0593885935823436 -6.1175068532388 -18.3582876610944
v 0.0905229663598569 -5.67305156877973 -14.0994835400519
v 2.96196624675761 -5.30298488346611 -18.4914456264866
v 2.95919308199344 -4.89969028262641 -14.2259072131059
v 5.16957911293651 -3.08629959587037 -18.6414823757382
v 5.0552438250364 -2.79502593313302 -14.3683626270044
v 5.97192258659623 -0.061413016062709 -18.7681944038611
v 5.8170413720639 0.0769974052749594 -14.4886727721047
v 0.0413091555042217 0.0370761462709722 -15.2610918981197
v -3.24155652304021 -1.87151363202593 -13.6393669709133
v -3.74302726405186 2.45859752038067e-07 -13.6393669709133
v -1.87151388233415 -3.24155677334843 -13.6393669709133
v -1.22929890938566e-07 -3.7430277646683 -13.6393669709133
v 1.87151400748826 -3.24155677334843 -13.6393669709133
v 3.24155652304021 -1.87151363202593 -13.6393669709133
v 3.74302726405186 -3.68789657896166e-07 -13.6393669709133
v -3.25469745425727 -1.80863032503704 -9.87904065550156
v -3.73739532911246 2.29337876656692e-07 -9.83590754311229
v -1.93594284257864 -3.13263965716825 -9.99687775539288
v -0.134489839784117 -3.61726115069051 -10.1578479676735
v 1.6669633820301 -3.13263965716825 -10.3188181799541
v 2.98571799370873 -1.80863032503704 -10.4366552798454
v 3.46841586856391 -3.64659185320939e-07 -10.4797883922347
v -3.11187709097474 5.16289338039288 -18.6174367669373
v -5.31948970684542 2.94620934433824 -18.4674020201515
v 5.15401044229823 2.96116150583182 -18.8376359113558
v 2.9350015435006 5.171526010268 -18.831193979018
v -0.0905226534745825 5.97741535016558 -18.7505967347954
v -2.81485835398276 -1.6251590308242 0
v -3.25031806164839 1.81132852199293e-07 0
v -1.62515915597831 -2.81485810367454 0
v -1.45356708413706e-07 -3.25031856226483 0
v 1.62515915597831 -2.81485835398276 0
v 2.81485835398276 -1.62515928113242 0
v 3.25031806164839 -3.52607932936472e-07 0
v 5.85248401471636 -0.0601847575405451 -18.7162884889938
v 5.05093001318103 2.90193833078299 -18.7843422877194
v 4.93965349172357 2.88788928134548 -14.5869688099138
v 5.70070061470893 0.0754574543534927 -14.522358251056
v 2.87630151263059 5.0680956502599 -18.77802851319
v 2.87491956095057 4.94458005810034 -14.5809754299054
v -0.0887121975891233 5.85786714328556 -18.6990432539011
v 0.059743022199065 5.69444090675494 -14.5059830873344
v -3.04963945403812 5.05963573305626 -18.5685465654989
v -2.75155390341451 4.93654766733565 -14.382084523599
v -5.21309970244961 2.88728503730353 -18.4215135148817
v -4.80568352646715 2.87397664988761 -14.2424796197045
v -5.99939791862107 -0.0771039583551602 -18.2973366084061
v -5.55224581340479 0.0593932047290752 -14.1245744359775
v -5.19784391708574 -3.03922713272215 -18.2292828096805
v -4.79119869041944 -2.75303898208098 -14.0599638771197
v -3.02321491591887 -5.2053837012744 -18.2355945817442
v -2.72646450933822 -4.80972900791118 -14.0659552546624
v -0.0582008224146885 -5.99515669614937 -18.3145798410331
v 0.0887125104743978 -5.55959035718222 -14.1409526033977
v 2.90272680167451 -5.19692528592007 -18.4450745269695
v 2.90000920533508 -4.80169661714649 -14.2648481634345
v 5.06618730039421 -3.02457358893447 -18.5921115825182
v 4.95413882838772 -2.73912534939023 -14.4044540685619
v 3.17672519233283 1.83408316664808 -13.6900383656419
v 3.66816683391261 -3.61413858770429e-07 -13.6900383656419
v 1.83408366726452 3.17672519233283 -13.6900383656419
v 3.61413828931364e-07 3.66816658360439 -13.6900383656419
v -1.83408316664808 3.17672519233283 -13.6900383656419
v -3.17672544264105 1.83408354211041 -13.6900383656419
v -3.66816683391261 2.40942557594087e-07 -13.6900383656419
v -3.17672544264105 -1.8340834169563 -13.6900383656419
v -1.83408366726452 -3.17672569294927 -13.6900383656419
v -1.20471293716576e-07 -3.66816733452905 -13.6900383656419
v 1.83408366726452 -3.17672569294927 -13.6900383656419
v 3.17672544264105 -1.8340834169563 -13.6900383656419
v 2.92600346362497 1.77245753330821 -10.2279222543471
v 3.39904745106935 -3.5736601056624e-07 -10.2701923039954
v 1.63362407934634 3.06998650858721 -10.1124420566509
v -0.131799589617672 3.54491531692465 -9.95469080807343
v -1.89722366533254 3.06998650858721 -9.79694056072886
v -3.18960355022761 1.77245778361643 -9.68145936179975
v -3.66264753767199 2.2475112001873e-07 -9.63918931215141
v -3.18960355022761 -1.77245765846232 -9.68145936179975
v -1.89722404079487 -3.06998675889543 -9.79694056072886
v -0.13180004330132 -3.54491581754109 -9.95469080807343
v 1.63362407934634 -3.06998675889543 -10.1124420566509
v 2.92600371393319 -1.77245765846232 -10.2279222543471
v 2.75856103171201 1.59265575759367 0
v 3.18531176549556 -3.4555576830993e-07 0
v 1.59265600790189 2.75856078140379 0
v 2.76003175520056e-07 3.18531176549556 0
v -1.59265575759367 2.75856078140379 0
v -2.75856078140379 1.59265600790189 0
v -3.18531176549556 1.77510195752088e-07 0
v -2.75856128202023 -1.59265588274778 0
v -1.59265600790189 -2.75856103171201 0
v -1.4244957782612e-07 -3.185312266112 0
v 1.59265600790189 -2.75856128202023 0
v 2.75856128202023 -1.592656133056 0
vt 0.499698847532272 -0.809156894683838
vt 0.580792903900146 -0.809156894683838
vt 0.580792903900146 -0.00379090500064194
vt 0.499698847532272 -0.00379090500064194
vt 0.661887407302856 -0.809156894683838
vt 0.661887407302856 -0.00379090500064194
vt 0.742981553077698 -0.809156894683838
vt 0.742981493473053 -0.00379090500064194
vt 0.824075758457184 -0.809156894683838
vt 0.824075758457184 -0.00379090500064194
vt 0.90516996383667 -0.809156894683838
vt 0.90516996383667 -0.00379090500064194
vt 0.986264169216156 -0.809156894683838
vt 0.986264169216156 -0.00379090500064194
vt -0.258208096027374 -0.351431846618652
vt -0.252809315919876 -0.351431876420975
vt -0.253532618284225 -0.354131191968918
vt 0.000517443404532969 0.129865869879723
vt 0.165244147181511 0.129865869879723
vt 0.165244147181511 0.0725209340453148
vt 0.000517443404532969 0.0725209340453148
vt 0.329971641302109 0.129865869879723
vt 0.329971641302109 0.0725209340453148
vt 0.494698643684387 0.129865869879723
vt 0.494698643684387 0.0725209340453148
vt 0.659425854682922 0.129865869879723
vt 0.659425854682922 0.0725209340453148
vt 0.824153065681458 0.129865869879723
vt 0.824153065681458 0.0725209340453148
vt 0.988879919052124 0.129865869879723
vt 0.988879919052124 0.0725209340453148
vt 0.000517443404532969 0.18006244301796
vt 0.165244147181511 0.18006244301796
vt 0.165244147181511 0.448168277740479
vt 0.000517443404532969 0.448168277740479
vt 0.329971641302109 0.18006244301796
vt 0.329971641302109 0.448168277740479
vt 0.494698643684387 0.18006244301796
vt 0.494698643684387 0.448168277740479
vt 0.659425854682922 0.18006244301796
vt 0.659425854682922 0.448168277740479
vt 0.824153065681458 0.18006244301796
vt 0.824153065681458 0.448168277740479
vt 0.988879919052124 0.18006244301796
vt 0.988879919052124 0.448168277740479
vt -0.258208096027374 -0.356830596923828
vt -0.260907500982285 -0.356107264757156
vt -0.262883573770523 -0.348732501268387
vt -0.263606816530228 -0.351431876420975
vt -0.253532648086548 -0.348732471466064
vt -0.255508720874786 -0.346756428480148
vt -0.262883573770523 -0.35413122177124
vt -0.258208096027374 -0.346033096313477
vt -0.260907500982285 -0.346756428480148
vt -0.255508720874786 -0.356107264757156
vt 0.165244147181511 1.23040664196014
vt 0.000517443404532969 1.23040664196014
vt 0.329971641302109 1.23040664196014
vt 0.494698703289032 1.23040664196014
vt 0.659425854682922 1.23040664196014
vt 0.824153065681458 1.23040664196014
vt 0.988879919052124 1.23040664196014
vn -0.959929356362698 -0.257201330302827 0.111279407275344
vn -0.859477501967052 -0.497375120224167 0.11796784898637
vn -0.493674461376464 -0.861753188397626 0.116905810254169
vn 0.00508251586893745 -0.994604025528969 0.103619498329282
vn 0.503152345861713 -0.860330122384579 0.0816688274165252
vn 0.867076903035076 -0.49491010786034 0.0569353085595162
vn 0.966120369293176 -0.254451678252602 0.0431946231752553
vn -0.035262386989177 -0.0324892153643761 -0.998849846047359
vn -0.445706375898041 0.209999992660774 -0.870198729926854
vn -0.271126460427464 0.385297205201278 -0.882063776673863
vn -0.213595055692038 -0.0440045438697326 0.975930710810318
vn -0.178782590716801 -0.0948599273150845 0.979305049229486
vn -0.0931914110565704 -0.182503971982988 0.978778657877111
vn 0.0252346536483613 -0.235310780075617 0.971592532410296
vn 0.169985040739674 -0.229179075741699 0.958426855407815
vn 0.304873024138049 -0.140089973359564 0.94203356549384
vn 0.361529704871071 -0.0727047928690792 0.929521535839649
vn -0.966047756387162 -0.258360830940572 0.00118887132515415
vn -0.866308943377915 -0.499480818312073 0.00526562073676372
vn -0.865802640636877 -0.499682588577192 0.0265159977939436
vn -0.96569015210985 -0.258540164812782 0.0244849606214467
vn -0.500017659616588 -0.865840583054526 0.0173903653598133
vn -0.499446367776468 -0.865819109534148 0.0301760713213197
vn 0.00139688671732907 -0.999325379523039 0.0366992445239991
vn 0.00150486165858692 -0.999337670028912 0.0363587218226101
vn 0.501366507077451 -0.863194067328277 0.0593938356247669
vn 0.501469985001688 -0.864053647599456 0.0440357606097757
vn 0.864422130289191 -0.496635280981404 0.0782801274323138
vn 0.865770040478331 -0.497868818382037 0.0506840871775795
vn 0.962974680743529 -0.256554382595849 0.0828227807898392
vn 0.964924751151421 -0.257415768692339 0.0515494582309091
vn 0.207066719851597 0.385979947082311 -0.898967660141474
vn 0.382548309407576 0.211181722615652 -0.899477109771278
vn 0.209198619334418 -0.442354189132243 -0.872100171440029
vn 0.383779533021842 -0.267056001536568 -0.883965136233798
vn -0.509156422542648 -0.0292112212479616 -0.860178145465679
vn -0.444475244668965 -0.268239547465312 -0.854686668933164
vn 0.44722974465746 -0.0278458114498025 -0.893985551493046
vn -0.268993969136153 -0.44303707193375 -0.855196116373752
vn -0.0297330518905379 -0.506767644442304 -0.861569788335033
vn -0.0321947729383301 0.449710441507616 -0.892593981267225
vn -0.864905073704592 -0.499658618065416 0.0477543597278065
vn -0.964808303961068 -0.258579153787155 0.0477677488948958
vn -0.498793317939552 -0.865655871576113 0.0429550693708375
vn 0.00161281411973016 -0.999349830460059 0.0360182618967979
vn 0.50145473693847 -0.864708782861354 0.0286682340649898
vn 0.866455797461181 -0.498721755444534 0.023042606020849
vn 0.965926733702921 -0.258024177162862 0.0202254571625698
vn 0.999343113232861 0.00374183042420451 0.0360463692919193
vn 0.864510461255756 0.502012482322219 0.0245993896681043
vn 0.498707339862339 0.866390493784399 0.025661283043841
vn -4.97275738910216e-05 0.999241250703384 0.038947662573053
vn -0.498119303344099 0.864967361299872 0.0608984689620881
vn -0.862043820770973 0.49954742566913 0.0856318899588681
vn -0.994310080319292 0.00089555908864062 0.10652071230217
vn -0.859477469035054 -0.497375190573554 0.117967792312218
vn -0.49367436993021 -0.861753236860492 0.116905839180403
vn 0.00508250018158726 -0.994604022408866 0.103619529047414
vn 0.867076935030317 -0.494910062299123 0.0569352173396187
vn 0.373974489775657 0.0217406560091148 0.927184137522494
vn 0.338324789921723 0.203694192094411 0.91871922404586
vn 0.204195222355467 0.335981639529621 0.919467590003144
vn 0.022800283985278 0.368917291544931 0.929182532686309
vn -0.136355218210331 0.298481975523057 0.944624668720157
vn -0.222873861428982 0.164878756075042 0.960802913029973
vn -0.229031672150991 0.0227081930918483 0.973154063403233
vn -0.178782670508636 -0.0948600026857226 0.979305027361887
vn -0.0931914948426159 -0.182504077615736 0.97877863020329
vn 0.0252346495888438 -0.235310866450903 0.971592511596427
vn 0.169985086799728 -0.229179169389319 0.958426824845648
vn 0.304873058930571 -0.14009002325752 0.942033546813501
vn 0.996977733369317 7.70910390358191e-08 0.0776878315167353
vn 0.864835479797262 0.497004884380081 0.0710333568556552
vn 0.865895503614557 0.498006937985192 0.0470538684775879
vn 0.998782249817612 3.20183041428185e-08 0.0493357623764757
vn 0.501386823343158 0.863534632915543 0.0540295394508907
vn 0.501461222694625 0.864191340659524 0.0413517697650975
vn 0.00128382119383751 0.999437935711683 0.0334987233116737
vn 0.00144838308898264 0.999394686515174 0.0347586356415966
vn -0.500072879936798 0.865836830105167 0.0159279121404553
vn -0.49947868102726 0.86582563937879 0.0294450232395575
vn -0.866316356316166 0.49947231207339 0.00483531293139094
vn -0.865810234874429 0.499680800513145 0.0263008514164304
vn -0.999999359383572 3.08497090292988e-08 0.00113191538795169
vn -0.999679970551994 5.67452561043151e-08 0.025297361071102
vn -0.86631638224175 -0.499472267416065 0.00483528094546245
vn -0.865810330064157 -0.499680635784089 0.0263008474503118
vn -0.500073065323223 -0.865836722275636 0.0159279533279895
vn -0.499478858727266 -0.865825536127401 0.0294450449856371
vn 0.00128379045687861 -0.999437933131945 0.0334988014563039
vn 0.00144832859916062 -0.999394685456862 0.0347586683411212
vn 0.501386866551025 -0.863534604675504 0.0540295898380338
vn 0.501461221421262 -0.864191340492496 0.0413517886974633
vn 0.86483550953632 -0.497004841865919 0.07103329224305
vn 0.865895510039955 -0.498006926205825 0.0470538749060169
vn 0.866455798204949 0.498721755872638 0.0230425687877231
vn 0.99978085369214 3.08468438554169e-08 0.0209342922167091
vn 0.501454833379617 0.864708727172945 0.0286682268577117
vn 0.00161295279122948 0.999349830850235 0.0360182448614469
vn -0.498793203450784 0.865655939373217 0.0429550325244569
vn -0.864904965642665 0.499658807950711 0.0477543301066528
vn -0.998776623815048 1.23406331359059e-07 0.0494495270007548
vn -0.864905086891613 -0.499658595881281 0.0477543530053266
vn -0.498793318737722 -0.865655872961335 0.0429550321866723
vn 0.00161290667054125 -0.999349830847251 0.0360182470095909
vn 0.501454807828854 -0.864708742717851 0.0286682049078761
vn 0.866455827583685 -0.498721704167231 0.0230425831625708
g startmesh start
f 1/1/1 2/2/2 3/3/2 4/4/1
f 2/2/2 5/5/3 6/6/3 3/3/2
f 5/5/3 7/7/4 8/8/4 6/6/3
f 7/7/4 9/9/5 10/10/5 8/8/4
f 9/9/5 11/11/6 12/12/6 10/10/5
f 11/11/6 13/13/7 14/14/7 12/12/6
f 15/15/8 11/16/9 9/17/10
f 4/18/11 3/19/12 16/20/12 17/21/11
f 3/19/12 6/22/13 18/23/13 16/20/12
f 6/22/13 8/24/14 19/25/14 18/23/13
f 8/24/14 10/26/15 20/27/15 19/25/14
f 10/26/15 12/28/16 21/29/16 20/27/15
f 12/28/16 14/30/17 22/31/17 21/29/16
f 17/32/18 16/33/19 23/34/20 24/35/21
f 16/33/19 18/36/22 25/37/23 23/34/20
f 18/36/22 19/38/24 26/39/25 25/37/23
f 19/38/24 20/40/26 27/41/27 26/39/25
f 20/40/26 21/42/28 28/43/29 27/41/27
f 21/42/28 22/44/30 29/45/31 28/43/29
f 15/15/8 5/46/32 2/47/33
f 30/48/34 15/15/8 31/49/35
f 13/50/36 15/15/8 32/51/37
f 15/15/8 1/52/38 31/49/35
f 32/51/37 15/15/8 33/53/39
f 13/50/36 11/16/9 15/15/8
f 33/53/39 15/15/8 34/54/40
f 34/54/40 15/15/8 30/48/34
f 15/15/8 2/47/33 1/52/38
f 15/15/8 7/55/41 5/46/32
f 15/15/8 9/17/10 7/55/41
f 24/35/21 23/34/20 35/56/42 36/57/43
f 23/34/20 25/37/23 37/58/44 35/56/42
f 25/37/23 26/39/25 38/59/45 37/58/44
f 26/39/25 27/41/27 39/60/46 38/59/45
f 27/41/27 28/43/29 40/61/47 39/60/46
f 28/43/29 29/45/31 41/62/48 40/61/47
g collision start
f 42//49 43//50 44//50 45//49
f 43//50 46//51 47//51 44//50
f 46//51 48//52 49//52 47//51
f 48//52 50//53 51//53 49//52
f 50//53 52//54 53//54 51//53
f 52//54 54//55 55//55 53//54
f 54//55 56//56 57//56 55//55
f 56//56 58//57 59//57 57//56
f 58//57 60//58 61//58 59//57
f 60//58 62//5 63//5 61//58
f 62//5 64//59 65//59 63//5
f 64//59 42//49 45//49 65//59
f 45//60 44//61 66//61 67//60
f 44//61 47//62 68//62 66//61
f 47//62 49//63 69//63 68//62
f 49//63 51//64 70//64 69//63
f 51//64 53//65 71//65 70//64
f 53//65 55//66 72//66 71//65
f 55//66 57//67 73//67 72//66
f 57//67 59//68 74//68 73//67
f 59//68 61//69 75//69 74//68
f 61//69 63//70 76//70 75//69
f 63//70 65//71 77//71 76//70
f 65//71 45//60 67//60 77//71
f 67//72 66//73 78//74 79//75
f 66//73 68//76 80//77 78//74
f 68//76 69//78 81//79 80//77
f 69//78 70//80 82//81 81//79
f 70//80 71//82 83//83 82//81
f 71//82 72//84 84//85 83//83
f 72//84 73//86 85//87 84//85
f 73//86 74//88 86//89 85//87
f 74//88 75//90 87//91 86//89
f 75//90 76//92 88//93 87//91
f 76//92 77//94 89//95 88//93
f 77//94 67//72 79//75 89//95
f 79//75 78//74 90//96 91//97
f 78//74 80//77 92//98 90//96
f 80//77 81//79 93//99 92//98
f 81//79 82//81 94//100 93//99
f 82//81 83//83 95//101 94//100
f 83//83 84//85 96//102 95//101
f 84//85 85//87 97//103 96//102
f 85//87 86//89 98//104 97//103
f 86//89 87//91 99//105 98//104
f 87//91 88//93 100//106 99//105
f 88//93 89//95 101//107 100//106
f 89//95 79//75 91//97 101//107
