v 10.6319387440919 1.04032791959931 11.5982065676391
v 10.676831022648 1.04032791959931 13.2850236467176
v 5.86468103363758 1.04032791959931 13.2850236467176
v 5.86468103363758 1.0403277944452 11.5946031305108
v 5.86468103363758 1.61292455469189 13.2850226454847
v 12.1905409444974 1.04032791959931 13.2850236467176
v 12.1905409444974 1.61292455469189 13.2850226454847
v 5.86468103363758 1.61292455469189 -0.0648810129778905
v 5.86468103363758 1.04032766929109 -0.0648825422046691
v 10.607622802414 1.04032766929109 -0.0648825422046691
v 12.1905409444974 1.04032766929109 -0.0648825422046691
v 12.1905409444974 1.04032791959931 11.5993850187367
v -10.648458085348 1.04032791959931 11.631698808645
v -10.6491549434311 1.04032791959931 13.2850226454847
v -12.2229228182415 1.04032791959931 13.2850236467176
v -12.2229218170086 1.04032791959931 11.612837583687
v -5.87409612700695 1.61292455469189 13.2850226454847
v -5.87409612700695 1.04032791959931 13.2850236467176
v -5.87409612700695 1.04032791959931 11.6681096434906
v -5.87409612700695 1.04032766929109 -0.0648825422046691
v -5.87409612700695 1.61292455469189 -0.0648810129778905
v -12.2229228182415 1.61292455469189 13.2850226454847
v -12.2229228182415 1.61292455469189 -0.0648810129778905
v -12.2229228182415 1.04032766929109 -0.0648825422046691
v -10.6435380269849 1.04032766929109 -0.0648825422046691
v 6.35241510986969 5.9215196113008 5.26088254032485
v 6.35241510986969 5.92152061253368 12.8148056390717
v -0.069193577203225 5.92152061253368 12.8148056390717
v -0.069193577203225 5.9215196113008 5.26088254032485
v -0.069193577203225 5.9215196113008 8.33057043120617e-05
v 6.35241510986969 5.9215196113008 8.33057043120617e-05
v -6.30180178664801 5.9215196113008 5.26088254032485
v -6.30180178664801 5.9215196113008 8.33057043120617e-05
v -6.30180178664801 5.92152061253368 12.8148056390717
v -6.30180178664801 2.9935136819196 12.8148056390717
v -6.30180178664801 2.9935136819196 5.26088254032485
v -6.30180178664801 2.99351443284426 8.14127484018721e-05
v -6.30180178664801 0.00186225702103378 5.26088254032485
v -6.30180178664801 0.00186163125048495 8.23670484888272e-05
v -6.30180178664801 0.00186138094226542 12.8148046378388
v 6.35241510986969 2.9935136819196 5.26088254032485
v 6.35241510986969 2.9935136819196 12.8148056390717
v 6.35241510986969 2.99351443284426 8.14127484018721e-05
v 6.35241510986969 0.00186163125048495 8.23670484888272e-05
v 6.35241510986969 0.00186225702103378 5.26088254032485
v 6.35241510986969 0.00186138094226542 12.8148046378388
v -5.17787482794814 4.93923306293661 12.8148056390717
v -5.17787482794814 1.02986384705894 12.814803636606
v -6.30180178664801 1.02986384705894 12.814803636606
v -6.30180178664801 4.93923306293661 12.8148056390717
v 6.35241510986969 4.93923306293661 12.8148056390717
v 6.35241510986969 1.02986384705894 12.814803636606
v 5.41837196650468 1.02986384705894 12.814803636606
v 5.41837196650468 4.93923306293661 12.8148056390717
v -7.55196919278523 0.00186225702103378 5.26088254032485
v -7.55196919278523 0.00186163125048495 8.23670484888272e-05
v -7.55196919278523 0.00186138094226542 12.8148046378388
v 7.44381501605817 0.00186163125048495 8.23670484888272e-05
v 7.44381501605817 0.00186225702103378 5.26088254032485
v 7.44381501605817 0.00186138094226542 12.8148046378388
v 6.35241510986969 0.00186138094226542 14.1870403540103
v -6.30180178664801 0.00186138094226542 14.1870403540103
v -7.55196919278523 0.00186138094226542 14.1870403540103
v 7.44381501605817 0.00186138094226542 14.1870403540103
v -5.05527836757069 0.889773720680926 8.2852020664165e-05
v 5.11667296642394 0.889773720680926 8.2852020664165e-05
v 5.11667296642394 4.93923331324483 8.4103561761811e-05
v -5.05527836757069 4.93923331324483 8.4103561761811e-05
v 6.36319388241906 0.889773720680926 8.2852020664165e-05
v 6.36319388241906 4.93923331324483 8.4103561761811e-05
v -6.30180178664801 4.93923331324483 8.4103561761811e-05
v 6.36319388241906 5.92152061253368 8.4103561761811e-05
v -6.30180178664801 5.92152061253368 8.4103561761811e-05
v -6.30180178664801 0.00186213186692401 8.28132766672945e-05
v 6.36319388241906 0.00186213186692401 8.28132766672945e-05
v -6.30180178664801 0.889773720680926 8.2852020664165e-05
v -6.31027371864619 0.000829829111882128 0.00220747451678198
v 6.35032003007223 0.000829829111882128 0.00220747451678198
v 6.35032003007223 0.000829829111882128 12.7803462760114
v -6.31027371864619 0.000829829111882128 12.7803462760114
vt 0.201015308499336 0.834550619125366
vt 0.196440070867538 0.95525050163269
vt 0.686892151832581 0.95525050163269
vt 0.686892151832581 0.834292769432068
vt 0.0421633012592793 0.95525050163269
vt 0.708698511123657 4.55300952495463e-09
vt 0.823751509189606 4.55300952495463e-09
vt 0.823751509189606 0.732239603996277
vt 0.823751509189606 0.853197336196899
vt 0.708698511123657 0.853197336196899
vt 0.232041776180267 0.79767507314682
vt 0.230227500200272 0.0811367928981781
vt 0.585935473442078 0.0813581869006157
vt 0.585935473442078 0.79767507314682
vt 0.0421633012592793 4.55300952495463e-09
vt 0.0421633012592793 0.834634840488434
vt 0.203493654727936 4.55300952495463e-09
vt 0.202051386237144 0.83694714307785
vt 0.201980754733086 0.95525050163269
vt 0.042163297533989 0.835597515106201
vt 0.477616190910339 0.792603254318237
vt 0.372012764215469 0.792603254318237
vt 0.372012764215469 0.67690521478653
vt 0.372012764215469 4.55300952495463e-09
vt 0.477616190910339 4.55300952495463e-09
vt 1 0.95525050163269
vt 0.752116799354553 0.95525050163269
vt 0 0.95525050163269
vt 1 4.55300952495463e-09
vt 1 0.835597515106201
vt 0.686892151832581 0.839552462100983
vt 0.202551111578941 4.55300952495463e-09
vt 0.848202705383301 0.098936140537262
vt 0.848202705383301 0.848715543746948
vt 0.501886785030365 0.848715543746948
vt 0.50215756893158 0.098936140537262
vt 0.99468731880188 0.00775047717615962
vt 0.99468731880188 1
vt 0 1
vt 0 0.00775047717615962
vt 0.00421088049188256 0.00775047717615962
vt 0.00421088049188256 1
vt 0.505120396614075 1
vt 0.505120396614075 0.00775047717615962
vt -2.85925507545471 0.523309469223022
vt -2.85925507545471 1.48550164699554
vt -3.85925555229187 1.48550164699554
vt -3.85925555229187 0.523309469223022
vt -2.36739468574524 0.701297044754028
vt -0.274816989898682 0.701296925544739
vt -0.274816960096359 0.778613090515137
vt -2.36739611625671 0.778613090515137
vt -2.36739492416382 0.612775087356567
vt -0.274816930294037 0.612775087356567
vt -0.274816989898682 0.693689346313477
vt -2.36739468574524 0.693689346313477
vt 0 0
vt 1 0
vt 1 1
vt 1.33921527862549 -0.00347468256950378
vt 1.33921527862549 0.366013526916504
vt 1.23898386955261 0.366013526916504
vt 1.23898386955261 -0.00347468256950378
vt 1.33921527862549 0.366013765335083
vt 1.33921527862549 0.898333549499512
vt 1.23898386955261 0.898333549499512
vt 1.23898386955261 0.366013765335083
vt 0.569647073745728 0.00199204473756254
vt 0.569647073745728 0.998007893562317
vt 0.461638152599335 0.998007893562317
vt 0.461638152599335 0.00199204473756254
vt 1.33921527862549 0.995034098625183
vt 1.23898386955261 0.995034098625183
vt -2.0876522064209 -1.00942826271057
vt 1 -1.00942826271057
vt 1 0.99621593952179
vt -2.0876522064209 0.99621593952179
vt -2.84458184242249 0.205435708165169
vt -2.84987330436707 2.72145962715149
vt -3.84987425804138 2.72198534011841
vt -3.8445827960968 0.205961480736732
vt -2.84458184242249 0.20544371008873
vt -2.84987330436707 2.72146773338318
vt -3.84987425804138 2.7219934463501
vt -3.8445827960968 0.205969467759132
vn 6.54921982256703e-09 -1 1.86075236542567e-08
vn 6.52551817460175e-09 -1 1.84423238724214e-08
vn 1.25492798375148e-08 -0.999999999999999 3.68846642118114e-08
vn 1.31024647960116e-08 -1 2.64847995320101e-08
vn 0 2.32162324209014e-06 0.999999999997305
vn 0 1.74858323535767e-06 0.999999999998471
vn -0.999999999999999 0 3.43781927369946e-08
vn -1 0 0
vn 6.57292147053232e-09 -1 1.87727234360921e-08
vn 9.47838074694118e-09 -1 1.60849520369766e-08
vn 0 -1 2.14604956028097e-08
vn -4.02515087752172e-12 -1 1.07302477765034e-08
vn 6.16737416692104e-09 -1 0
vn -5.2400317700206e-11 -1 1.06960507179382e-08
vn 0 -1 0
vn -3.9219725245232e-09 -1 0
vn -6.40420130136882e-11 -1 1.07086795411985e-08
vn 1 0 0
vn 0 0 1
vn 0 8.74291619637318e-07 0.999999999999618
vn -0.999999999999618 -8.74291686158933e-07 0
vn -4.07586223867238e-11 -1 1.06834218946779e-08
vn -6.04827254946372e-09 -1 0
vn -1.04800635400412e-10 -1 2.13921014358765e-08
vn 0 -1 2.14173674351059e-08
vn 0 -1 2.13668442938797e-08
vn 0 -0.999999999999998 6.62723768721813e-08
vn 0 -0.999999999999991 1.32544753744362e-07
vn 0 5.12222215369055e-07 -0.999999999999869
vn 0 -2.30868695074231e-07 -0.999999999999973
vn 0 2.56111108329721e-07 -0.999999999999967
vn 0 0 -1
vn 0 -9.7395960680776e-07 -0.999999999999526
vn 0 -0.999999999999993 1.18949735394835e-07
vn 0 -0.999999999999993 -1.15976625636448e-07
vn 0 -3.09064859038684e-07 0.999999999999952
vn 0 -3.09063665326888e-07 0.999999999999952
vn 0 -4.3633828994416e-08 0.999999999999999
vn 0 -3.09063011627571e-07 0.999999999999952
g right_door Elevators1
f 1/1/1 2/2/2 3/3/3 4/4/4
f 5/3/5 3/3/5 2/2/6 6/5/5 7/5/5
f 8/6/7 9/7/7 4/8/8 3/9/7 5/10/7
f 10/11/9 1/12/1 4/13/4 9/14/10
f 11/15/11 12/16/12 1/1/1 10/17/9
f 12/16/12 6/5/13 2/2/2 1/1/1
g left_door Elevators1
f 13/18/14 14/19/15 15/5/16 16/20/17
f 17/21/18 18/22/18 19/23/18 20/24/18 21/25/18
f 22/26/19 15/26/19 14/27/20 18/28/19 17/28/19
f 23/29/21 24/29/21 16/30/21 15/26/21 22/26/21
f 19/31/22 18/3/23 14/19/15 13/18/14
f 25/32/24 13/18/14 16/20/17 24/15/25
f 20/33/26 19/34/22 13/35/14 25/36/24
g elevator group2 Elevators1
f 26/37/27 27/38/28 28/39/28 29/40/27
f 29/40/27 30/39/15 31/38/15 26/37/27
f 32/40/27 33/39/15 30/38/15 29/37/27
f 29/37/27 28/38/28 34/39/28 32/40/27
f 32/41/18 34/42/18 35/43/18 36/44/18
f 36/44/18 37/43/18 33/42/18 32/41/18
f 38/41/18 39/42/18 37/43/18 36/44/18
f 36/44/18 35/43/18 40/42/18 38/41/18
f 41/44/8 42/43/8 27/42/8 26/41/8
f 26/41/8 31/42/8 43/43/8 41/44/8
f 41/44/8 43/43/8 44/42/8 45/41/8
f 45/41/8 46/42/8 42/43/8 41/44/8
f 47/45/29 48/46/29 49/47/30 50/48/31
f 34/49/32 27/50/32 51/51/31 50/52/31
f 49/53/30 52/54/30 46/55/33 40/56/33
f 51/45/31 52/46/30 53/47/29 54/48/29
f 47/57/29 54/58/29 53/59/29 48/39/29
f 39/60/34 38/61/34 55/62/34 56/63/34
f 38/64/35 40/65/35 57/66/35 55/67/35
f 45/62/34 44/63/34 58/60/34 59/61/34
f 46/66/35 45/62/35 59/61/35 60/65/35
f 40/68/15 46/69/15 61/70/15 62/71/15
f 57/66/15 40/65/15 62/72/15 63/73/15
f 46/66/15 60/65/15 64/72/15 61/73/15
g ground group2 Elevators1
f 65/74/36 66/75/36 67/76/36 68/77/36
f 67/48/37 66/47/37 69/46/37 70/45/37
f 71/78/19 70/79/19 72/80/19 73/81/19
f 74/82/38 75/83/38 69/84/38 76/85/38
f 71/48/39 76/47/39 65/46/39 68/45/39
g wall collisions
f 77//15 78//15 79//15 80//15
