v 0.10287829124677 2.02333945712863 -0.0133534055489017
v 0.128579313813407 2.02185889031002 -0.0132391779817654
v 0.0535209709906947 0.639137404304696 -0.0277670547752483
v 0.0188254375712812 0.641837017589986 -0.0279181306461602
v 0.141324788146241 2.02101640661882 0.00911237072786332
v 0.0707268692682575 0.637649550661521 0.0024401186310141
v 0.12836928980348 2.02165453986182 0.0313495776225604
v 0.0532370759599734 0.638861230718577 0.0324962261107751
v 0.102668267531631 2.0231351069672 0.0312352874797207
v 0.0185415425405599 0.641560844003867 0.0323451502398632
v 0.0899227435832801 2.02397754081083 0.00888379453151334
v 0.001335605000737 0.643048578847085 0.00213797057708534
v -0.0250840346231532 0.00836995838977649 -0.0440027207652861
v 0.0246083266943307 0.00550725264902665 -0.0437817435709379
v -0.000440783023247006 0.00674108119108965 -0.000786455634822075
v 0.0492515783314843 0.00387837548657423 -0.000565486347121923
v 0.0242021916539014 0.0051121637660723 0.0424298042566515
v -0.0254901696635824 0.00797486950682214 0.0422088270623032
v -0.0501332631667941 0.00960382622272464 -0.00100743320888785
v 0.0568750093544093 0.62209445507506 -0.0352435853534724
v 0.0136151537453531 0.62498315184548 -0.0354341404663371
v 0.0783279944116357 0.620477934589206 0.00239723277281767
v 0.0565212617946399 0.6217503288256 0.0398475090660585
v 0.0132614061855837 0.62463902559602 0.0396569539531938
v -0.0081915788492945 0.626255546103614 0.00201613108298465
v -0.0475827693618598 2.12415818784152 0.0683250876660973
v -0.114504256299581 2.14626791716965 0.0711159778579064
v -0.152125958823201 2.10950014676141 0.0711725005712999
v -0.173479618093562 2.03752104745756 0.0707070593774701
v -0.157092483467904 1.98367348766612 0.0077490034456192
v -0.0999071941083491 1.96546995074493 0.00793497545449734
v -0.0857043619032927 2.00885539881777 0.0676938135621581
v -0.189297480650558 2.04531437209074 0.00787976828481645
v -0.131393485015324 2.15222693809405 0.00864249974728925
v -0.170044178736717 2.11580623254646 0.00829351443387411
v 0.195309342319923 2.04390006171512 0.059933788930047
v 0.200031723653594 2.01533464781839 0.059357415529715
v 0.20050073858712 2.01579090637215 -0.0402018427181379
v 0.195782763754198 2.04436060692057 -0.0405608509326865
v 0.000426919620099554 2.00844231010068 0.0651526124185318
v 0.0301889388771164 2.09846025106817 0.0656507204918414
v -0.00992131060495831 1.97660999982614 0.00840994349548589
v 0.189647966849991 1.98100443159982 0.0591359640513797
v 0.162692981574895 1.9551254331262 0.00912444567163636
v -0.17288808332876 2.03809653224034 -0.0548661703954803
v -0.0851438445726469 2.00940067106467 -0.0512889430305524
v -0.0999071861087524 1.96546995852695 0.00793327735523277
v -0.157092495087122 1.98367343606014 0.00774729960393796
v -0.189297502385113 2.0453143896686 0.00787807595709469
v -0.13139347713894 2.15222694575621 0.00864082780271322
v -0.113916152057443 2.14684002601266 -0.0537227382132463
v -0.15153407484054 2.11007601156672 -0.0544706884732687
v -0.170044200533454 2.11580625006383 0.00829183530571479
v 0.0307211966614765 2.09897803615704 -0.0473329033787761
v 0.000959690263804526 2.00896059032164 -0.0479402686644771
v -0.00992130261687678 1.97661000759696 0.00840824784058473
v -0.0470229647361222 2.12470278691922 -0.0505042956950962
v 0.190116838516234 1.98146055078291 -0.040392882404606
v 0.162692987592729 1.95512543898036 0.00912316824731555
vt 0.973905682563782 0.104814752936363
vt 0.972489953041077 0.043381430208683
vt 0.0200139582157135 0.0660387501120567
vt 0.0229521095752716 0.149003103375435
vt 0.971782088279724 0.0126660354435444
vt 0.0185464322566986 0.0245555080473423
vt 0.974613189697266 0.135531321167946
vt 0.0244189500808716 0.190485566854477
vt 0.0358259081840515 0.350337207317352
vt 0.0330887734889984 0.257428705692291
vt 0.0344578623771667 0.303883969783783
vt 0.0317199528217316 0.210974842309952
vt 0.0371944904327393 0.396791398525238
vt 0.963694989681244 0.29179060459137
vt 0.960758447647095 0.226893067359924
vt 0.935878336429596 0.220060437917709
vt 0.938841342926025 0.300956606864929
vt 0.959289848804474 0.194445937871933
vt 0.934396505355835 0.179611027240753
vt 0.965162038803101 0.324236154556274
vt 0.940321505069733 0.341404110193253
vt 0.701895475387573 0.430962860584259
vt 0.883928060531616 0.430962860584259
vt 0.946378290653229 0.586317718029022
vt 0.940381050109863 0.835869371891022
vt 0.857017874717712 0.989990592002869
vt 0.702007651329041 0.987763822078705
vt 0.701889932155609 0.8348029255867
vt 0.985986590385437 0.828994572162628
vt 0.930670857429504 0.430990785360336
vt 0.995929360389709 0.586331844329834
vt 0.04118437692523 0.430962860584259
vt 0.0219663921743631 0.516230881214142
vt 0.490338057279587 0.746244728565216
vt 0.490342020988464 0.430962860584259
vt 0.490347653627396 0.858647882938385
vt 0.0195945221930742 0.635461807250977
vt 0.0495832338929176 0.746274352073669
vt 0.940381109714508 0.835869371891022
vt 0.857017874717712 0.989990770816803
vt 0.985986709594727 0.828994572162628
vt 0.946378409862518 0.586317479610443
vt 0.995929479598999 0.586331844329834
vt 0.701895475387573 0.430962800979614
vn 0.00510041778505298 0.0102304365919266 -0.999934659818109
vn 0.503653886561229 -0.0182647019100212 -0.863712430856421
vn 0.347945935144635 0.142652647978475 -0.92659799710611
vn 0.0193881626639774 0.210818972279651 -0.977332829733795
vn 0.998689288676829 -0.0509873964566498 0.00447102725805727
vn 0.979892816571723 0.10469564554378 -0.16984960946469
vn 0.495495414619029 -0.0262017678572308 0.868215273680827
vn 0.643427111729016 0.119694383243602 0.756091797675382
vn -0.00432003198032972 0.00106517529797941 0.999990101313645
vn 0.0101708665298144 0.201851837595042 0.979363256985649
vn -0.866582468292247 0.0531670736350423 0.496193599242878
vn -0.83623223670809 0.250293428121373 0.487922992007383
vn -0.861871622181741 0.0577499532978556 -0.503827599255846
vn -0.83160911645674 0.254790906668569 -0.49346516726619
vn -0.0574913135363803 -0.998334254559215 -0.0048440728274755
vn -0.0574908713746164 -0.998334270744182 -0.00484598455111016
vn -0.0574913169174716 -0.998334241980462 -0.00484662443267965
vn -0.0574912667673829 -0.998334238675125 -0.00484790000310366
vn -0.0574910060539671 -0.998334253694458 -0.00484789884724892
vn -0.0574913529840877 -0.998334233708265 -0.00484790038995591
vn -0.0574920979362067 -0.998334200083181 -0.0048459900091482
vn 0.325166856127634 0.295228956103106 -0.898390994586623
vn -0.277441739362403 0.326069917663478 -0.90371704092293
vn 0.817439739927378 0.360475487197815 -0.449276857535482
vn 0.948546187904414 0.25754682024816 -0.184200338740368
vn 0.813157225805439 0.356305988271823 0.460240555407758
vn 0.645558602606871 0.268675031100136 0.714890074251703
vn 0.0242452380916045 0.394373107671295 0.91863051352302
vn -0.285957792433535 0.317785487032265 0.904013564709184
vn -0.915539917445585 0.355856202153056 0.187491394343674
vn 0.503842277501108 -0.014407748229535 -0.86367550399062
vn -0.494439242684765 0.043096228210505 -0.868143162391632
vn 0.867430789956485 -0.0385228088409088 -0.496064328322925
vn 0.998878831070272 -0.0471266842819143 0.00448959555857324
vn 0.862720419947134 -0.043105034130388 0.503840682199104
vn 0.495683544836103 -0.0223446341355647 0.86821572244694
vn -0.00415490520965137 0.00440231906368289 0.999981678006932
vn -0.502598284128128 0.0351590844858624 0.863804841135761
vn -0.866377376175943 0.0564955142812635 0.496183936576532
vn -0.99768377457387 0.0678809509223667 -0.00438890121903638
vn -0.861666852902381 0.0610781908187182 -0.503785360263296
vn 0.0300837560988044 -0.0203666131441983 0.999339866455863
vn 0.0315165619237717 -0.0307127679295235 0.999031246863987
vn 0.0304351598291222 -0.0229441091535588 0.999273370455415
vn -0.448277826438846 -0.513004710340589 0.732033576751526
vn -0.61020294975657 -0.671491152579958 0.420418829401373
vn -0.0898805765561607 -0.813938731521341 0.573955767709814
vn -0.0335948278505564 -0.46317240615428 0.885631249289989
vn -0.965892611567445 -0.104908722637414 0.2367395675294
vn -0.670114176099293 0.69733461978306 0.254305758965033
vn -0.823942540593214 0.495598842314248 0.274773501811178
vn 0.986611914302197 0.162996400205686 0.005394819454072
vn 0.997878197260809 -0.0649593339466755 0.00440322208412792
vn -0.924396334294824 0.261758597487579 0.277441622298508
vn 0.00227033503800331 -0.495991424182273 0.868324451294823
vn 0.0294937845509081 -0.0152713577468238 0.999448298965701
vn -0.0255897997643817 -0.85423692818331 0.519253726684712
vn 0.0295504970540167 -0.0153013534578248 0.999446164986499
vn 0.0295463420089117 -0.015322476386365 0.999445964217817
vn -0.0455054749754157 -0.502343836037795 0.863469699608559
vn 0.33233300893993 -0.898882720800546 0.285595212521393
vn -0.441338957003309 -0.506254430377377 -0.740895658479997
vn -0.0252293193334093 -0.455034582537329 -0.890116290234625
vn -0.084433743843152 -0.808640131922841 -0.582213088090983
vn -0.606185861420066 -0.667583232612372 -0.432286165576958
vn -0.963614785649918 -0.102692677949482 -0.246780790930793
vn -0.667718274209704 0.699665457723374 -0.254205730767731
vn -0.821338417126793 0.498132312200295 -0.277970149644961
vn 0.0389701687406785 -0.00612075304019203 -0.999221628233969
vn 0.0389094599869071 -0.00611201092767354 -0.999224047571888
vn -0.921752655726076 0.264330385589702 -0.283727843039637
vn 0.0104725894127595 -0.488012410332032 -0.872773860878585
vn -0.0206596695298166 -0.849440861337893 -0.527279243991698
vn 0.0394982506456918 -0.0112079241255782 -0.999156779806215
vn 0.0398488418169628 -0.0137857263666825 -0.99911061627549
vn 0.275959871901667 -0.695071256561788 -0.663869036332945
vn 0.335047785642115 -0.896241773687239 -0.29067793936635
vn 0.313868010871186 0.94944872676439 0.00582983681114714
vn 0.85266894956192 -0.522449068996369 0.00162257751726017
vn 0.313919314889785 0.949431763891877 0.00583004736583348
vn 0.313919450958402 0.94943171971542 0.00582991493899745
vn 0.95716341508611 -0.289530775683218 0.00318225595585455
vn 0.0295546202482695 -0.0152802128797567 0.999446366503141
vn 0.0409280127401707 -0.0215558227150056 -0.99892954920766
vn 0.038966045888092 -0.00614189098419319 -0.999221659314381
g shaft putter
f 1/1/1 2/2/2 3/3/3 4/4/4
f 2/2/2 5/5/5 6/6/6 3/3/3
f 5/5/5 7/2/7 8/3/8 6/6/6
f 7/2/7 9/1/9 10/4/10 8/3/8
f 9/1/11 11/7/11 12/8/12 10/4/12
f 11/7/13 1/1/13 4/4/14 12/8/14
f 13/9/15 14/10/16 15/11/17
f 14/10/16 16/12/18 15/11/17
f 16/12/18 17/10/19 15/11/17
f 17/10/19 18/9/20 15/11/17
f 18/9/20 19/13/21 15/11/17
f 19/13/21 13/9/15 15/11/17
f 4/14/4 3/15/3 20/16/22 21/17/23
f 3/15/24 6/18/6 22/19/25 20/16/22
f 6/18/26 8/15/8 23/16/27 22/19/25
f 8/15/28 10/14/10 24/17/29 23/16/27
f 10/14/12 12/20/12 25/21/30 24/17/29
f 12/20/14 4/14/14 21/17/23 25/21/30
f 21/17/23 20/16/22 14/10/31 13/9/32
f 20/16/33 22/19/25 16/12/34 14/10/31
f 22/19/35 23/16/27 17/10/36 16/12/34
f 23/16/37 24/17/29 18/9/38 17/10/36
f 24/17/39 25/21/30 19/13/40 18/9/38
f 25/21/41 21/17/41 13/9/32 19/13/40
f 26/22/42 27/23/43 28/24/44
f 29/25/45 30/26/46 31/27/47 32/28/48
f 33/29/49 30/26/46 29/25/45
f 34/30/50 35/31/51 28/24/51 27/23/50
f 36/32/52 37/33/53 38/33/53 39/32/52
f 28/24/51 35/31/51 33/29/49 29/25/54
f 40/34/55 41/35/56 26/22/42 32/28/48
f 32/28/48 31/27/47 42/36/57 40/34/55
f 37/33/58 41/35/59 40/34/55 43/37/60
f 40/34/55 42/36/57 44/38/61 43/37/60
f 45/39/62 46/28/63 47/27/64 48/40/65
f 49/41/66 45/39/62 48/40/65
f 50/30/67 51/23/67 52/42/68 53/43/68
f 38/33/69 54/35/70 39/32/69
f 52/42/68 45/39/71 49/41/66 53/43/68
f 46/28/63 55/34/72 56/36/73 47/27/64
f 57/44/74 46/28/63 45/39/62 52/42/75
f 55/34/72 46/28/63 57/44/74 54/35/70
f 55/34/72 58/37/76 59/38/77 56/36/73
f 26/22/78 57/44/78 51/23/78 50/30/78 34/30/78 27/23/78
f 44/38/61 59/38/77 58/37/76 43/37/79
f 41/35/80 54/35/80 57/44/80 26/22/80
f 36/32/81 39/32/81 54/35/81 41/35/81
f 43/37/79 58/37/82 38/33/53 37/33/53
f 26/22/42 28/24/44 29/25/45 32/28/48
f 37/33/83 36/32/83 41/35/56
f 57/44/74 52/42/75 51/23/84
f 38/33/85 58/37/76 55/34/72 54/35/70
