v 1.86783948983131 0 1.80777020199841
v 1.86783948983131 0 4.56666124883513
v -1.92109721778603 0 4.56666124883513
v -1.92109721778603 0 1.80777020199841
v 2.89462779541273 0 3.51581303305725
v 2.89462779541273 0 2.7880331674284
v 3.90657547449328 0 2.7880331674284
v 3.90657547449328 0 3.51581303305725
v 0.969693640711268 0.025000000372529 3.23538622501366
v 0.969693640711268 0.025000000372529 3.01202898934727
v 3.10780361069796 0.025000000372529 3.01202898934727
v 3.10780361069796 0.025000000372529 3.23538622501366
v -0.739605293280615 -0.739605293280615 0.466818161631518
v 0.739605293280615 -0.739605293280615 0.466818161631518
v 0.739605293280615 0.739605293280615 0.466818161631518
v -0.739605293280615 0.739605293280615 0.466818161631518
v 0.831763803958893 -0.831763803958893 0
v -0.831763803958893 -0.831763803958893 0
v 0.831763803958893 0.831763803958893 0
v -0.831763803958893 0.831763803958893 0
v -0.1 -0.1 2.08344172289018
v 0.1 -0.1 2.08344172289018
v 0.1 0.1 2.08344172289018
v -0.1 0.1 2.08344172289018
v 0.1 -0.1 0.357394407049499
v -0.1 -0.1 0.357394407049499
v 0.1 0.1 0.357394407049499
v -0.1 0.1 0.357394407049499
v 2.51668620650497 0 2.89242501711743
v 2.51668620650497 0 2.16464515148859
v 3.52863388558553 0 2.16464515148859
v 3.52863388558553 0 2.89242501711743
v 0.59175205180351 0.025000000372529 2.61199820907384
v 0.59175205180351 0.025000000372529 2.38864097340745
v 2.72986202179021 0.025000000372529 2.38864097340745
v 2.72986202179021 0.025000000372529 2.61199820907384
v 1.27065722206959 0 1.60802878180743
v 1.27065722206959 0 4.04716618539627
v -1.36518484251792 0 4.04716618539627
v -1.36518484251792 0 1.60802878180743
v -0.676235617641597 -0.676235617641597 0.494590544459266
v 0.676235617641597 -0.676235617641597 0.494590544459266
v 0.676235617641597 0.676235617641597 0.494590544459266
v -0.676235617641597 0.676235617641597 0.494590544459266
v 0.760497950477294 -0.760497950477294 0
v -0.760497950477294 -0.760497950477294 0
v 0.760497950477294 0.760497950477294 0
v -0.760497950477294 0.760497950477294 0
v -0.1 -0.1 2
v 0.1 -0.1 2
v 0.1 0.1 2
v -0.1 0.1 2
v 2.51668620650497 0 3.22777986562884
v 2.51668620650497 0 2.5
v 3.52863388558553 0 2.5
v 3.52863388558553 0 3.22777986562884
v 0.59175205180351 0.025000000372529 2.9284280442977
v 0.59175205180351 0.025000000372529 2.70507080863131
v 2.72986202179021 0.025000000372529 2.70507080863131
v 2.72986202179021 0.025000000372529 2.9284280442977
v -0.790678604494705 -0.790678604494705 0.450970080036304
v 0.790678604494705 -0.790678604494705 0.450970080036304
v 0.790678604494705 0.790678604494705 0.450970080036304
v -0.790678604494705 0.790678604494705 0.450970080036304
v 0.889201104640961 -0.889201104640961 0
v -0.889201104640961 -0.889201104640961 0
v 0.889201104640961 0.889201104640961 0
v -0.889201104640961 0.889201104640961 0
v 1.67193329762994 0 1.81642001371458
v 1.67193329762994 0 4.63247526524496
v -1.79336267495114 0 4.63247526524496
v -1.79336267495114 0 1.81642001371458
v 1.15399284150152 0.025000000372529 2.95430003090193
v 1.15399284150152 0.025000000372529 2.73094279523553
v 2.62928874882942 0.025000000372529 2.73094279523553
v 2.62928874882942 0.025000000372529 2.95430003090193
v 1.70261671168861 0 1.57999204689548
v 1.70261671168861 0 5.09872419994707
v -1.84046551253168 0 5.09872419994707
v -1.84046551253168 0 1.57999204689548
v 2.71668620650497 0 3.06982977584531
v 2.71668620650497 0 2.34204991021647
v 3.72863388558553 0 2.34204991021647
v 3.72863388558553 0 3.06982977584531
v 1.12427102185512 0.025000000372529 2.76888369514957
v 1.12427102185512 0.025000000372529 2.54552645948317
v 2.90267350377369 0.025000000372529 2.54552645948317
v 2.90267350377369 0.025000000372529 2.76888369514957
v -0.739605293280615 -0.739605293280615 0.482111796857593
v 0.739605293280615 -0.739605293280615 0.482111796857593
v 0.739605293280615 0.739605293280615 0.482111796857593
v -0.739605293280615 0.739605293280615 0.482111796857593
v 1.38455931315869 0 1.70262684803646
v 1.38455931315869 0 4.35256811916724
v -1.47908693360702 0 4.35256811916724
v -1.47908693360702 0 1.70262684803646
vt 1.00160753726959 -0.00235129636712372
vt 0.998958945274353 0.998852014541626
vt -0.00350452214479446 0.996764123439789
vt -0.000855949358083308 -0.00443917652592063
vt 0.00749259442090988 1.01290452480316
vt 0.000393566297134385 -0.0129050351679325
vt 0.992507696151733 -0.0129050351679325
vt 0.999606728553772 1.01290452480316
vt 0.0553994476795197 0.0553994476795197
vt 0.944600582122803 0.0553994476795197
vt 0.944600582122803 0.944600582122803
vt 0.0553994476795197 0.944600582122803
vt 1 0
vt 0 0
vt 1 1
vt 0 1
vn 0 -1 0
vn 0 0 1
vn 0 -0.981452323030628 0.191706383873318
vn 0 -0.981064706066782 0.19368025844184
vn 0.981452323030628 0 0.191706383873318
vn 0.981064706066782 0 0.19368025844184
vn 0 0.981452323030628 0.191706383873318
vn 0 0.981064706066782 0.19368025844184
vn -0.981452323030628 0 0.191706383873318
vn -0.981064706066782 0 0.19368025844184
vn 1 0 0
vn 0 1 0
vn -1 0 0
vn 0 -0.985795867257414 0.167947932699996
vn 0.985795867257414 0 0.167947932699996
vn 0 0.985795867257414 0.167947932699996
vn -0.985795867257414 0 0.167947932699996
vn 0 -0.976957510087567 0.213433885509078
vn 0.976957510087567 0 0.213433885509078
vn 0 0.976957510087567 0.213433885509078
vn -0.976957510087567 0 0.213433885509078
vn 0 -0.982215642806548 0.187756307553488
vn 0.982215642806548 0 0.187756307553488
vn 0 0.982215642806548 0.187756307553488
vn -0.982215642806548 0 0.187756307553488
g prop_sign_DL_1 neighborhood_sign
f 1/1/1 2/2/1 3/3/1 4/4/1
g hand_DL_1 prop_sign_DL_1 neighborhood_sign
f 5/5/1 6/6/1 7/7/1 8/8/1
f 9/5/1 10/6/1 11/7/1 12/8/1
g base_DL_1 prop_sign_DL_1 neighborhood_sign
f 13/9/2 14/10/2 15/11/2 16/12/2
f 17/13/3 14/10/4 13/9/4 18/14/3
f 19/15/5 15/11/6 14/10/6 17/13/5
f 20/16/7 16/12/8 15/11/8 19/15/7
f 18/14/9 13/9/10 16/12/10 20/16/9
g post_DL_1 prop_sign_DL_1 neighborhood_sign
f 21/13/2 22/15/2 23/16/2 24/14/2
f 25/13/1 22/15/1 21/16/1 26/14/1
f 27/13/11 23/15/11 22/16/11 25/14/11
f 28/13/12 24/15/12 23/16/12 27/14/12
f 26/13/13 21/15/13 24/16/13 28/14/13
g prop_sign_TT neighborhood_sign
f 1/13/1 2/15/1 3/16/1 4/14/1
g hand_TT prop_sign_TT neighborhood_sign
f 29/5/1 30/6/1 31/7/1 32/8/1
f 33/5/1 34/6/1 35/7/1 36/8/1
g base_TT prop_sign_TT neighborhood_sign
f 13/9/2 14/10/2 15/11/2 16/12/2
f 17/13/3 14/10/4 13/9/4 18/14/3
f 19/15/5 15/11/6 14/10/6 17/13/5
f 20/16/7 16/12/8 15/11/8 19/15/7
f 18/14/9 13/9/10 16/12/10 20/16/9
g post_TT prop_sign_TT neighborhood_sign
f 21/13/2 22/15/2 23/16/2 24/14/2
f 25/13/1 22/15/1 21/16/1 26/14/1
f 27/13/11 23/15/11 22/16/11 25/14/11
f 28/13/12 24/15/12 23/16/12 27/14/12
f 26/13/13 21/15/13 24/16/13 28/14/13
g prop_sign_DD neighborhood_sign
f 37/13/1 38/15/1 39/16/1 40/14/1
g base_DD prop_sign_DD neighborhood_sign
f 41/9/2 42/10/2 43/11/2 44/12/2
f 45/13/14 42/10/14 41/9/14 46/14/14
f 47/15/15 43/11/15 42/10/15 45/13/15
f 48/16/16 44/12/16 43/11/16 47/15/16
f 46/14/17 41/9/17 44/12/17 48/16/17
g post_DD prop_sign_DD neighborhood_sign
f 49/13/2 50/15/2 51/16/2 52/14/2
f 25/13/1 50/15/1 49/16/1 26/14/1
f 27/13/11 51/15/11 50/16/11 25/14/11
f 28/13/12 52/15/12 51/16/12 27/14/12
f 26/13/13 49/15/13 52/16/13 28/14/13
g hand_DD prop_sign_DD neighborhood_sign
f 53/5/1 54/6/1 55/7/1 56/8/1
f 57/5/1 58/6/1 59/7/1 60/8/1
g post_MM prop_sign_MM neighborhood_sign
f 49/13/2 50/15/2 51/16/2 52/14/2
f 25/13/1 50/15/1 49/16/1 26/14/1
f 27/13/11 51/15/11 50/16/11 25/14/11
f 28/13/12 52/15/12 51/16/12 27/14/12
f 26/13/13 49/15/13 52/16/13 28/14/13
g base_MM prop_sign_MM neighborhood_sign
f 61/9/2 62/10/2 63/11/2 64/12/2
f 65/13/18 62/10/18 61/9/18 66/14/18
f 67/15/19 63/11/19 62/10/19 65/13/19
f 68/16/20 64/12/20 63/11/20 67/15/20
f 66/14/21 61/9/21 64/12/21 68/16/21
g prop_sign_MM neighborhood_sign
f 69/13/1 70/15/1 71/16/1 72/14/1
g hand_MM prop_sign_MM neighborhood_sign
f 53/5/1 54/6/1 55/7/1 56/8/1
f 73/5/1 74/6/1 75/7/1 76/8/1
g prop_sign_BR neighborhood_sign
f 77/13/1 78/15/1 79/16/1 80/14/1
g hand_BR prop_sign_BR neighborhood_sign
f 81/5/1 82/6/1 83/7/1 84/8/1
f 85/5/1 86/6/1 87/7/1 88/8/1
g base_BR prop_sign_BR neighborhood_sign
f 89/9/2 90/10/2 91/11/2 92/12/2
f 17/13/3 90/10/22 89/9/22 18/14/3
f 19/15/5 91/11/23 90/10/23 17/13/5
f 20/16/7 92/12/24 91/11/24 19/15/7
f 18/14/9 89/9/25 92/12/25 20/16/9
g post_BR prop_sign_BR neighborhood_sign
f 49/13/2 50/15/2 51/16/2 52/14/2
f 25/13/1 50/15/1 49/16/1 26/14/1
f 27/13/11 51/15/11 50/16/11 25/14/11
f 28/13/12 52/15/12 51/16/12 27/14/12
f 26/13/13 49/15/13 52/16/13 28/14/13
g prop_sign_DG neighborhood_sign
f 93/13/1 94/15/1 95/16/1 96/14/1
g o15 prop_sign_DG neighborhood_sign
f 41/9/2 42/10/2 43/11/2 44/12/2
f 45/13/14 42/10/14 41/9/14 46/14/14
f 47/15/15 43/11/15 42/10/15 45/13/15
f 48/16/16 44/12/16 43/11/16 47/15/16
f 46/14/17 41/9/17 44/12/17 48/16/17
g o16 prop_sign_DG neighborhood_sign
f 49/13/2 50/15/2 51/16/2 52/14/2
f 25/13/1 50/15/1 49/16/1 26/14/1
f 27/13/11 51/15/11 50/16/11 25/14/11
f 28/13/12 52/15/12 51/16/12 27/14/12
f 26/13/13 49/15/13 52/16/13 28/14/13
g p94 prop_sign_DG neighborhood_sign
f 53/5/1 54/6/1 55/7/1 56/8/1
f 57/5/1 58/6/1 59/7/1 60/8/1
