v 61.06567035403 45.1225461668967 -0.58249318212893
v 61.0656481333815 45.1224486784758 -0.582491682100345
v 61.0656527109714 45.1224491721423 -0.582391788149186
v 61.0656749316198 45.1225466605632 -0.582393288177771
v 61.0657501034145 45.1224269063929 -0.582396141073473
v 61.0657723240629 45.1225243948138 -0.582397641102058
v 61.0657455258246 45.1224264127264 -0.582496035024632
v 61.065767746473 45.1225239011473 -0.582497535053217
vn -0.973922964463073 0.222657077452645 0.0435647237074525
vn 0.045775899787188 0.00493666506836989 0.998939535876259
vn 0.973924454392253 -0.222657499446916 -0.0435292439263386
vn -0.045775899787188 -0.00493666506836989 -0.998939535876259
vn -0.222206729443501 -0.974885127329372 0.0149384705380963
vn 0.222206489858927 0.97488423275692 -0.0150002862147774
g pCube1 camera1 flyover hole8
f 1//1 2//1 3//1 4//1
f 4//2 3//2 5//2 6//2
f 6//3 5//3 7//3 8//3
f 8//4 7//4 2//4 1//4
f 2//5 7//5 5//5 3//5
f 8//6 1//6 4//6 6//6
