v 0.0185185817564086 -0.4698938721546 0.819966231018993
v -0.595780030446853 -0.439916734599859 0.627683293789133
v 0.0217383788380868 -0.446082838347343 0.566086666533164
v -0.461030960977174 -0.391986278664694 0.437235614058239
v -0.861621931625347 -0.291778164976798 -0.368528091409971
v -0.59212306978791 -0.284955904715134 -0.368528091409971
v -0.43081056821873 -0.297770718967881 -1.11471389865372
v -0.296061534893955 -0.278962447101453 -0.881321988634921
v 0.43081056821873 -0.297770718967881 -1.11471389865372
v 0.296061534893955 -0.278962447101453 -0.881321988634921
v 0.86162113643746 -0.291778164976798 -0.368528091409971
v 0.59212306978791 -0.284955904715134 -0.368528091409971
v 0.603173362118756 -0.439916734599859 0.627682570891054
v 0.468423569750997 -0.391986278664694 0.437235614058239
v -0.765229617376881 -0.471464079072769 0.814392397667925
v 0.0321929557113567 -0.60034415590558 1.04431295110965
v -1.26211961227638 -0.304409706493975 -0.368528091409971
v -0.631059516978958 -0.400914720553013 -1.46155562600147
v 0.631059516978958 -0.400914720553013 -1.46155562600147
v 1.26211961227638 -0.304409706493975 -0.368528091409971
v 0.81541125022097 -0.472210109890665 0.814392397667925
v 0.0505419975366478 -0.217719551948164 1.17929226361761
v -0.780108811674845 -0.229905155712638 0.893707762877569
v -1.35370501574617 -0.21771960616552 -0.368528091409971
v -0.676852074134236 -0.199740932134961 -1.54087055747226
v 0.676852074134236 -0.199740932134961 -1.54087113579073
v 1.35370501574617 -0.21771960616552 -0.368528091409971
v 0.861204530274327 -0.217719624237972 0.893707184559106
v 0.0318665446379624 -0.138892215231893 0.911573899749625
v -0.624902521747274 -0.132183937924892 0.669398055168571
v -0.35863794206178 -0.0109538938719637 0.342249734168064
v -1.04346520853199 -0.102992563473734 -0.378166166197891
v -0.548858161912005 -0.0811582492833468 -1.32881664693125
v 0.548858161912005 -0.0811582492833468 -1.32881664693125
v 1.09771632382401 -0.102992563473734 -0.378166166197891
v 0.590124762627146 -0.12751929348823 0.680713217355693
v 0.71727588412356 -0.0109538995196049 -0.368233546587537
v 0.0376028967725517 -0.0109538938719637 0.342249734168064
v -0.71727588412356 -0.0109539006491332 -0.370431301328396
v -0.35863794206178 -0.243291131737884 -1.27415369660342
v 0.35863794206178 -0.0109538938719637 -0.989412384183144
v 0.45517476363631 -0.0109538938719637 0.342249734168064
v -0.230561673675858 -0.410879147678858 0.224145862859312
v 0.230561673675858 -0.410879147678858 0.224145862859312
v -0.461123347351715 -0.410879147678858 -0.368528091409971
v -0.230561673675858 -0.410879147678858 -0.791844194515496
v 0.230561673675858 -0.410879147678858 -0.791844194515496
v 0.461123347351715 -0.410879147678858 -0.368528091409971
v -0.194365968045524 -0.875496297593006 -0.0318766968378644
v 0.194365968045524 -0.875496297593006 -0.0318766968378644
v -0.388731213192969 -0.875496297593006 -0.368528019120163
v -0.194365968045524 -0.875496297593006 -0.705179485982078
v 0.194365968045524 -0.875496297593006 -0.705179485982078
v 0.388731213192969 -0.875496297593006 -0.368528019120163
v 0.129288514247647 -1.16212408484117 -0.144593784673583
v -0.129288514247647 -1.16212401255136 -0.144593061775503
v -0.258577769465825 -1.16212401255136 -0.368528091409971
v -0.129288514247647 -1.16212408484117 -0.59246239814636
v 0.129288514247647 -1.16212408484117 -0.59246239814636
v 0.294617021879334 -1.17200617387578 -0.365091289361096
v -0.0362549064649198 -1.41191927517864 -0.305732971428237
v 0.0362549064649198 -1.41191927517864 -0.305732971428237
v -0.0725098129298397 -1.41191927517864 -0.368528091409971
v -0.0362549064649198 -1.41191941975825 -0.431323211391705
v 0.0362549064649198 -1.41191941975825 -0.431323211391705
v 0.0725098129298397 -1.41191927517864 -0.368528091409971
v -0.286910350034934 0.568622267691409 0.494753325046346
v 0.0300823147071736 0.568622303836313 0.494753397336154
v -0.00807582765532085 -0.212696856092797 0.724113271027534
v -0.573820663924963 -0.00152258572480982 0.494753325046346
v -0.286910331962482 -0.724500382949029 0.680623144255005
v 0.286910331962482 -0.49670735469975 0.494753288901442
v 0.573820663924963 0.000235690594179917 0.494753252756538
v 0.364139810909048 0.568622303836313 0.494753325046346
v -1.09834502828363 -1.13707747363668 -1.2443726090078
v 1.09834502828363 -1.13707747363668 -1.2443726090078
v 1.09834502828363 -1.13707747363668 0.948365725208647
v -1.09834502828363 -1.13707747363668 0.948365725208647
v 1.09834502828363 0.00262316218810763 0.948365725208647
v -1.09834502828363 0.00262316218810763 0.948365725208647
v -1.09834502828363 0.00262316218810763 -1.2443726090078
v 1.09834502828363 0.00262316218810763 -1.2443726090078
vt 0.0742150396108627 0.195673584938049
vt 0.0673911422491074 0.135459780693054
vt 0.109237752854824 0.182350635528564
vt 0.105759896337986 0.154454410076141
vt 0.13250470161438 0.0881004333496094
vt 0.14356529712677 0.133098721504211
vt 0.202154844999313 0.104787707328796
vt 0.176180765032768 0.141018748283386
vt 0.844592332839966 0.136827290058136
vt 0.810963988304138 0.122136346995831
vt 0.865464329719543 0.0869905948638916
vt 0.870134055614471 0.12035608291626
vt 0.918487906455994 0.110783986747265
vt 0.894899129867554 0.131502687931061
vt 0.934632301330566 0.176460385322571
vt 0.907592415809631 0.16536021232605
vt 0.825956225395203 0.240303039550781
vt 0.764899611473083 0.305684089660645
vt 0.526704668998718 0.153697848320007
vt 0.523570775985718 0.222325921058655
vt 0.0107781002297997 0.119400918483734
vt 0.117598623037338 0.0287378430366516
vt 0.2600237429142 0.0513792634010315
vt 0.758030593395233 0.0847168564796448
vt 0.856744468212128 0.0210589170455933
vt 0.961682915687561 0.0759518146514893
vt 0.982558012008667 0.191820383071899
vt 0.528291344642639 0.0108504295349121
vt 0.867838025093079 0.172175526618958
vt 0.0429931879043579 0.572800576686859
vt 0.294317662715912 0.571453511714935
vt 0.08271723985672 0.501105666160583
vt 0.260172486305237 0.49755722284317
vt 0.682240903377533 0.38884025812149
vt 0.610401451587677 0.428191959857941
vt 0.44281741976738 0.260068833827972
vt 0.43860200047493 0.338999271392822
vt 0.685449421405792 0.644809186458588
vt 0.612678110599518 0.609839737415314
vt 0.449233859777451 0.772007465362549
vt 0.443155467510223 0.702295303344727
vt 0.0350964665412903 0.570263147354126
vt 0.0830405354499817 0.501733005046844
vt 0.307650744915009 0.570108413696289
vt 0.275282919406891 0.503723680973053
vt 0.384503543376923 0.365392982959747
vt 0.327821344137192 0.542822778224945
vt 0.412690401077271 0.5173619389534
vt 0.46268031001091 0.393766731023788
vt 0.0264887399971485 0.353732347488403
vt 0.0813173055648804 0.316804945468903
vt 0.0496551096439362 0.278582513332367
vt 0.137610495090485 0.270481556653976
vt 0.153847843408585 0.21713387966156
vt 0.0305576398968697 0.264185667037964
vt 0.269482165575027 0.285508751869202
vt 0.247210025787354 0.299038529396057
vt 0.247210025787354 0.407726943492889
vt 0.269482254981995 0.419543385505676
vt 0.153847843408585 0.485203325748444
vt 0.153523147106171 0.460904777050018
vt 0.0291314907371998 0.43515282869339
vt 0.0488066449761391 0.405480444431305
vt 0.151517316699028 0.424058675765991
vt 0.0813173055648804 0.356037974357605
vt 0.144869655370712 0.298247247934341
vt 0.212893486022949 0.318162083625793
vt 0.144869640469551 0.298247247934341
vt 0.212893486022949 0.389181852340698
vt 0.0813173055648804 0.397383153438568
vt 0.0486446358263493 0.641121327877045
vt 0.102871127426624 0.715692281723022
vt 0.0158549845218658 0.785801529884338
vt 0.102871127426624 0.864894092082977
vt 0.253693163394928 0.598704934120178
vt 0.253693163394928 0.641091465950012
vt 0.384187549352646 0.69449907541275
vt 0.361417472362518 0.715692281723022
vt 0.384187549352646 0.886087238788605
vt 0.361417472362518 0.864894092082977
vt 0.253693163394928 0.981881380081177
vt 0.253693163394928 0.939494907855988
vt 0.0486446358263493 0.941856920719147
vt 0.542144536972046 0.775904297828674
vt 0.747248589992523 0.773929476737976
vt 0.777313888072968 0.930991113185883
vt 0.523399114608765 0.930438578128815
vt 0.407333582639694 0.971584558486938
vt 0.440023988485336 0.799049913883209
vt 0.339363247156143 0.727403819561005
vt 0.253693163394928 0.664514660835266
vt 0.339363247156143 0.85318249464035
vt 0.253693163394928 0.916071593761444
vt 0.892002582550049 0.965934336185455
vt 0.850231409072876 0.795100271701813
vt 0.787399768829346 0.399048745632172
vt 0.98522675037384 0.399122178554535
vt 0.985253393650055 0.327405750751495
vt 0.78742641210556 0.327332556247711
vt 0.985093653202057 0.757703721523285
vt 0.985120296478271 0.685987293720245
vt 0.787293314933777 0.685913860797882
vt 0.787266671657562 0.757630407810211
vt 0.985146880149841 0.614271104335785
vt 0.787319898605347 0.614197611808777
vt 0.985173523426056 0.54255473613739
vt 0.787346541881561 0.542481303215027
vt 0.985200166702271 0.470838487148285
vt 0.787373185157776 0.470764994621277
vt 0.723883330821991 0.421767234802246
vt 0.723869681358337 0.458432376384735
vt 0.723815262317657 0.605092585086823
vt 0.723801672458649 0.641757547855377
vt 0.723828852176666 0.568427503108978
vt 0.72384250164032 0.531762361526489
vt 0.723856091499329 0.495097398757935
vt 0.906100034713745 0.209534466266632
vt 0.889361083507538 0.183625638484955
vt 0.233486235141754 0.217509269714355
vt 0.308735311031342 0.293501257896423
vt 0.212527394294739 0.126454830169678
vt 0.459466248750687 0.649580061435699
vt 0.51123172044754 0.582001268863678
vt 0.116498723626137 0.377558290958405
vt 0.116498723626137 0.342057645320892
vt 0.151999339461327 0.324307262897491
vt 0.187499985098839 0.342057645320892
vt 0.187499985098839 0.377558290958405
vt 0.151999339461327 0.395308554172516
vt 0.197700068354607 0.924192368984222
vt 0.255991727113724 0.784382283687592
vt 0.105215221643448 0.787412285804749
vt 0.112642511725426 0.975159287452698
vt 0.0378148555755615 0.93763929605484
vt 0.0300474166870117 0.703110456466675
vt 0.102518737316132 0.639524281024933
vt 0.182360529899597 0.695242166519165
vn -0.000228410912890034 -0.952538832040869 -0.304417018713923
vn 0.0176013119096025 -0.970128160547772 -0.241953602848267
vn 0.00130361458062429 -0.991837118258904 -0.127504632986012
vn -0.0376667674168821 -0.989166197994649 -0.141885331790051
vn 0.0743289569898091 -0.996960787642547 -0.0233322535551047
vn -0.313377002533617 -0.946504801052017 -0.0769643805180458
vn 0.0764849032786364 -0.987147095603341 0.140323452110989
vn -0.241047675865449 -0.92900922677825 -0.280780830044971
vn -0.0764849724580053 -0.987147096032816 0.140323411382694
vn 0.278917042039119 -0.949964856476659 -0.14061313992451
vn -0.0743706892765631 -0.996962059538836 -0.023144165930358
vn 0.312662653244101 -0.946705515570564 -0.0773998194741591
vn -0.0182393791516495 -0.969877517847788 -0.242909294638093
vn 0.0384027402544926 -0.988767665414122 -0.144442837733313
vn -0.264984936607733 -0.961252353376519 -0.0760058977915466
vn -0.00180104788661258 -0.924871505804832 -0.380275497470994
vn -0.350856470255212 -0.935121270130791 -0.049476736240686
vn -0.104875241929631 -0.992606411967622 0.0611039651001967
vn -0.0914027968384657 -0.979275858040775 0.180732738010055
vn 0.3485981782454 -0.934304225046816 -0.0745313704667815
vn 0.264250001829801 -0.960042937269845 -0.0921384563102696
vn 0.00377383523743876 -0.335864330978697 0.941902813109629
vn -0.652419209016132 -0.268952158251992 0.708529401138979
vn -0.838194496436697 -0.542632743058031 -0.0545865579107997
vn -0.452898520501167 -0.414336072802627 -0.789435588824288
vn 0.545123321735635 -0.523770943229986 -0.654602599389796
vn 0.467241408880054 -0.414296730409323 -0.781052933545433
vn 0.798987951950074 -0.599599801218488 0.0458075432366319
vn 0.821014100064045 -0.361197608764413 -0.442122307646761
vn 0.66023991999127 -0.327798984512521 0.675744828912868
vn -0.228807483049005 0.944048135466432 0.237529479482299
vn -0.00796582673757682 0.95565560138603 0.294378866673361
vn -0.00761216873699188 0.965135498940584 0.261640064920933
vn -0.205862580205391 0.952846540176134 0.222944093766915
vn -0.122068416575292 0.969460021525079 0.212712407582147
vn -0.142118498002384 0.989512249844493 0.0258425991966154
vn -0.376999734054807 0.922973823756872 -0.0773984572341272
vn -0.219636791586032 0.901951996877133 -0.371809460760679
vn -0.244410019985531 0.954279674847353 -0.172087315929742
vn 0.184286982675197 0.968116623483601 -0.169671775352246
vn 0.219636508063283 0.90195212921896 -0.371809307203508
vn 0.417046612380363 0.903533583813683 -0.098484445588454
vn 0.296872256223328 0.954427231235106 -0.03058633292438
vn 0.24399612467924 0.950904693107774 0.190384231928808
vn 0.162394121473339 0.961015413438963 0.22378008053364
vn 0.291305508681529 0.955314751260568 0.0501480471778813
vn 0.0236780536389758 0.966587792086753 0.25523986750648
vn -0.267021205607857 0.958322963670697 -0.101571516957944
vn 0.563301463986813 0.76562482674208 0.310660723855581
vn 0.218579078199963 0.932130129727758 0.288715444385933
vn -0.248786706651138 0.90966270840119 -0.332594244595262
vn 0.0921889921240717 0.995741524159203 8.24394001316664e-05
vn 0.20754713059026 0.947424822111004 0.243537255941843
vn -0.250489937032111 -0.968084436178084 0.00820462524501611
vn 0.25104038939278 -0.967963569308322 0.0050250756626316
vn -0.869561316088902 -0.448428023294938 -0.206822207428341
vn -0.590915380778946 -0.498827375838911 -0.634027019828445
vn 0 -0.561341999236216 -0.827583929214124
vn 0.262093474067849 -0.506185930358109 -0.821634234169038
vn 0.869561316088902 -0.448428023294938 -0.206822207428341
vn -0.458865903066565 -0.434545016420849 0.774992072028295
vn 0.453888203340106 -0.418201942881828 0.786824398349819
vn 0.462172252658714 -0.455328945049695 0.760968041820615
vn -0.462172252658715 -0.455328945049695 0.760968041820615
vn -0.95058501688186 -0.301046259254136 0.075889890425579
vn -0.922290685566653 -0.143702325922438 0.358788980936533
vn -0.848939701795208 -0.219775458901888 -0.480624729264245
vn 0 -0.275916462887216 -0.961181619418416
vn 0 -0.18336661424246 -0.983044599589081
vn 0.472068975522914 -0.286087024309113 -0.833849564892076
vn 0.867478569819671 -0.155711253985864 -0.472477445266722
vn 0.963878247467123 -0.26155052509306 -0.0502995714022701
vn 0.922290685566652 -0.143702325922438 0.358788980936533
vn 0.400674191702938 -0.499657004700213 0.767986373418961
vn -0.430243513429642 -0.509470016458848 0.745205221050644
vn -0.860488507652782 -0.509469850135829 -2.51316093719331e-07
vn -0.43024396502581 -0.509469709845578 -0.7452051699423
vn 0.403695556791908 -0.500717968487254 -0.765709744916746
vn 0.736352328215679 -0.454279396792496 -0.501413480454201
vn 0.732333882930965 -0.453820316641503 0.507675293977028
vn 0.795015895792042 -0.314262442737259 0.518834118503004
vn -0.286277422942172 -0.81986507419878 0.495849268651893
vn 0.252133319979512 -0.821138145928767 0.512016537093067
vn -0.572556504047601 -0.819865263121172 1.99791325806856e-07
vn -0.286278234161158 -0.819864881619548 -0.495849118717109
vn 0.255579234323684 -0.821035594636275 -0.510470182599119
vn 0.519046425689582 -0.854742573180716 0.00243753385173453
vn 0.161795481472512 -0.224359599030706 -0.960981265425013
vn 2.16475101497908e-08 -0.281669095902061 -0.959511605148012
vn -0.0765972956407135 -0.0630036315201525 -0.995069543658031
vn 0.329314504897808 -0.133053240873649 -0.934798797579955
vn -0.0318058489411474 0.101817513715196 -0.994294514655486
vn -0.415207087565359 0.270253861723925 -0.868657541646187
vn -0.386759507757818 0.0661602743675275 -0.91980427334001
vn -0.16561055021592 -0.204323634054685 -0.964792722932686
vn -2.01444119201381e-07 -0.281669084033137 -0.959511608632169
vn 0 -1 0
vn 0 0 1
vn 0 0 -1
vn 1 0 0
vn -1 0 0
g polySurface1 Sombrero West_Sombrero
f 1/1/1 2/2/2 3/3/3
f 3/3/3 2/2/2 4/4/4
f 2/2/2 5/5/5 4/4/4
f 6/6/6 4/4/4 5/5/5
f 7/7/7 8/8/8 5/5/5
f 8/8/8 6/6/6 5/5/5
f 8/9/8 7/10/7 9/11/9 10/12/10
f 9/11/9 11/13/11 10/12/10
f 12/14/12 10/12/10 11/13/11
f 13/15/13 14/16/14 11/13/11
f 14/16/14 12/14/12 11/13/11
f 15/17/15 2/18/2 16/19/16
f 2/18/2 1/20/1 16/19/16
f 2/2/2 15/21/15 17/22/17 5/5/5
f 17/22/17 18/23/18 5/5/5
f 7/7/7 5/5/5 18/23/18
f 7/10/7 18/24/18 19/25/19 9/11/9
f 20/26/20 11/13/11 19/25/19
f 11/13/11 9/11/9 19/25/19
f 11/13/11 20/26/20 21/27/21 13/15/13
f 16/19/22 22/28/22 23/29/23 15/17/23
f 23/30/23 24/31/24 15/32/23
f 17/33/17 15/32/15 24/31/24
f 25/34/25 18/35/25 24/36/24
f 18/35/18 17/37/17 24/36/24
f 18/35/25 25/34/25 26/38/26 19/39/27
f 27/40/28 20/41/20 26/38/26
f 20/41/29 19/39/27 26/38/26
f 28/42/30 21/43/30 27/44/28
f 21/43/21 20/45/20 27/44/28
f 23/46/31 22/47/32 29/48/33 30/49/34
f 29/50/33 31/51/35 30/52/34
f 32/53/36 24/54/37 23/55/31 30/52/34
f 25/56/38 24/54/37 33/57/39
f 33/57/39 24/54/37 32/53/36
f 34/58/40 26/59/41 25/56/38 33/57/39
f 26/59/41 34/58/40 27/60/42
f 27/60/42 34/58/40 35/61/43
f 27/60/42 35/61/43 28/62/44
f 36/63/45 28/62/44 35/61/43 37/64/46
f 29/50/33 38/65/47 31/51/35
f 32/53/36 30/52/34 31/51/35 39/66/48
f 33/57/49 32/53/36 40/67/50
f 32/53/36 39/68/48 40/67/51
f 41/69/52 34/58/40 33/57/39 40/67/50
f 34/58/40 41/69/52 35/61/43
f 35/61/43 41/69/52 37/64/46
f 36/63/45 37/64/46 42/70/53
f 4/71/4 43/72/54 3/73/3
f 3/73/3 43/72/54 44/74/55
f 4/71/4 6/75/6 43/72/54
f 6/75/6 45/76/56 43/72/54
f 6/75/6 8/77/8 45/76/56
f 8/77/8 46/78/57 45/76/56
f 46/78/57 8/77/8 10/79/58 47/80/59
f 12/81/12 48/82/60 10/79/10
f 10/79/10 48/82/60 47/80/59
f 14/83/14 44/74/55 12/81/12
f 12/81/12 44/74/55 48/82/60
f 49/84/61 50/85/62 44/86/63 43/87/64
f 45/88/56 51/89/65 43/87/66
f 43/87/64 51/89/65 49/84/61
f 46/78/57 52/90/67 45/76/56
f 45/76/56 52/90/67 51/91/65
f 52/90/68 46/78/69 47/80/59 53/92/70
f 47/80/71 48/82/60 53/92/71
f 48/82/60 54/93/72 53/92/70
f 48/94/60 44/86/73 54/95/72
f 44/86/63 50/85/62 54/95/72
f 55/96/74 50/97/62 49/98/61 56/99/75
f 49/100/61 51/101/65 57/102/76 56/103/75
f 51/101/65 52/104/67 58/105/77 57/102/76
f 58/105/77 52/104/68 53/106/70 59/107/78
f 59/107/78 53/106/70 54/108/72 60/109/79
f 60/109/80 54/108/81 50/97/62 55/96/74
f 61/110/82 62/111/83 55/96/74 56/99/75
f 57/102/76 63/112/84 61/113/82 56/103/75
f 58/105/77 64/114/85 63/112/84 57/102/76
f 65/115/86 64/114/85 58/105/77 59/107/78
f 60/109/79 66/116/87 65/115/86 59/107/78
f 55/96/74 62/111/83 66/116/87 60/109/80
f 14/83/14 3/73/3 44/74/55
f 1/117/1 3/118/3 13/15/13
f 3/118/3 14/16/14 13/15/13
f 21/119/21 16/19/16 13/120/13
f 16/19/16 1/20/1 13/120/13
f 22/28/22 16/19/22 21/119/30 28/121/30
f 29/48/33 22/47/32 28/122/44 36/123/45
f 29/50/33 36/63/45 38/65/47
f 38/65/47 36/63/45 42/70/53
f 62/124/83 61/125/82 63/126/84 64/127/85 65/128/86 66/129/87
g polySurface2 Sombrero West_Sombrero
f 67/130/88 68/131/89 69/132/90
f 70/133/91 67/130/88 69/132/90
f 71/134/92 70/133/91 69/132/90
f 72/135/93 71/134/92 69/132/90
f 73/136/94 72/135/93 69/132/90
f 74/137/95 73/136/94 69/132/90
f 68/131/96 74/137/95 69/132/90
g collision collisions West_Sombrero
f 75//97 76//97 77//97 78//97
f 78//98 77//98 79//98 80//98
f 81//99 82//99 76//99 75//99
f 76//100 82//100 79//100 77//100
f 81//101 75//101 78//101 80//101
