v 3.11583997070633 -2.16992996496166 1.07693997580861
v 4.97211996964582 -3.09457002975184 1.07693997580861
v 3.15988996210374 -2.07080002531918 1.07693997580861
v 5.02717976807922 -2.99543996495525 1.07693997580861
v 1.06573004735111 -1.62471999020714 0
v 2.00186001034234 -0.00550760997561958 1.07693997580861
v 1.06573004735111 -1.62471999020714 1.07693997580861
v 2.00186001034234 -0.00550760997561958 0
v 3.15988996210374 -2.07080002531918 0
v 5.02717976807922 -2.99543996495525 0
v 4.97211996964582 -3.09457002975184 0
v 3.11583997070633 -2.16992996496166 0
v 1.01066999860949 -1.7238599421784 0
v 1.01066999860949 -1.7238599421784 1.07693997580861
v -0.99373502055491 -1.7238599421784 0
v -0.99373502055491 -1.7238599421784 1.07693997580861
v -1.97390996877916 -0.00550760997561958 0
v -1.97390996877916 -0.00550760997561958 1.07693997580861
v 0.999654997677941 1.71283999765952 1.07693997580861
v 0.999654997677941 1.71283999765952 0
v -0.982721020856242 1.71283999765952 0
v -0.982721020856242 1.71283999765952 1.07693997580861
vt 0.870406985282898 0.745869994163513
vt 0.971571028232574 0.747632026672363
vt 0.881407022476196 0.724398970603943
vt 0.985319018363953 0.726161003112793
vt 0.202720001339912 0.818978011608124
vt 0.298734992742538 0.999779999256134
vt 0.202720001339912 0.999779999256134
vt 0.298734992742538 0.818978011608124
vt 0.104746997356415 0.818539977073669
vt 0.204428002238274 1
vt 0.104746997356415 1
vt 0.204428002238274 0.818539977073669
vt 0.00383847998455167 0.818539977073669
vt 0.00383847998455167 1
vt 0.975072026252747 0.819078981876373
vt 1 0.999722003936768
vt 0.975072026252747 0.999722003936768
vt 1 0.819078981876373
vt 0.882026970386505 0.818978011608124
vt 0.975172996520996 0.818978011608124
vt 0.882026970386505 0.999831020832062
vt 0.975172996520996 0.999831020832062
vt 0.788541972637177 0.818978011608124
vt 0.788541972637177 0.999831020832062
vt 0.688482999801636 0.818978011608124
vt 0.688482999801636 0.999831020832062
vt 0.593492984771729 0.818978011608124
vt 0.593492984771729 0.999230027198792
vt 0.298447012901306 0.818978011608124
vt 0.399500012397766 0.999230027198792
vt 0.298447012901306 0.999230027198792
vt 0.399500012397766 0.818978011608124
vt 0.498589009046555 0.818978011608124
vt 0.498589009046555 0.999230027198792
vt 0.745239019393921 0.744373977184296
vt 0.758987009525299 0.722899973392487
vt 0.244745999574661 0.744373977184296
vt 0.992735028266907 0.372186005115509
vt 0 0.372186005115509
vt 0.742488026618958 0
vt 0.247495993971825 0
vn 0 9.64944320002821e-07 0.999999999999534
vn 0 2.55783561442505e-07 0.999999999999967
vn 0 9.41474127102575e-07 0.999999999999557
vn 0 0 1
vn 0.865729564000635 -0.500512059810021 0
vn 0.865729553105159 -0.500512078655792 0
vn 0.288809904193509 0.957386462845457 0
vn 0.208337410816619 0.978057014316767 0
vn 0.367829129681137 0.929893397846236 0
vn 0.20833729678155 0.978057038607543 0
vn 0.443752875125411 0.896149198413931 0
vn 0.874204013921236 -0.485558793601763 0
vn -0.28887068884124 -0.957368124144724 0
vn -0.445862921640486 -0.895101254108277 0
vn -0.368965047963986 -0.929443270663107 0
vn -0.445863017151701 -0.895101206532748 0
vn -0.069432704405004 -0.997586637620516 0
vn -0.138865404585483 -0.990311263901058 0
vn 0 -1 0
vn -0.981750809580264 0.190171890374197 0
vn -0.868621921097694 -0.495475486970397 0
vn -0.982656758612861 -0.185433801537003 0
vn -0.868621910077695 -0.495475506289641 0
vn 0.863814886620763 0.50380933065234 0
vn 0.652273138411629 0.75798400570635 0
vn 0.86381486068094 0.503809375127903 0
vn 0.326136551415209 0.945322669690617 0
vn -0.866221699833928 0.499659851035502 0
vn -0.866221686935 0.499659873397377 0
vn 0 1 0
vn 0 0 -1
vn 0 3.520516855815e-08 0.999999999999999
vn 0 5.95816402437671e-07 0.999999999999823
g poly1 redtape redtape
f 1/1/1 2/2/2 3/3/3
f 2/2/2 4/4/4 3/3/3
f 5/5/5 6/6/5 7/7/6
f 5/5/5 8/8/5 6/6/5
f 9/9/7 7/10/8 3/11/9
f 9/9/7 5/12/10 7/10/8
f 10/13/11 3/11/9 4/14/11
f 10/13/11 9/9/7 3/11/9
f 11/15/12 4/16/12 2/17/12
f 11/15/12 10/18/12 4/16/12
f 12/19/13 11/20/14 1/21/15
f 11/20/14 2/22/16 1/21/15
f 13/23/17 12/19/13 14/24/18
f 12/19/13 1/21/15 14/24/18
f 15/25/19 13/23/17 16/26/19
f 13/23/17 14/24/18 16/26/19
f 17/27/20 15/25/21 18/28/22
f 15/25/21 16/26/23 18/28/22
f 8/29/24 19/30/25 6/31/26
f 8/29/24 20/32/27 19/30/25
f 21/33/28 17/27/20 22/34/29
f 17/27/20 18/28/22 22/34/29
f 20/32/27 22/34/30 19/30/25
f 20/32/27 21/33/30 22/34/30
f 11/2/31 12/1/31 10/4/31
f 12/1/31 9/3/31 10/4/31
f 13/35/31 9/3/31 12/1/31
f 13/35/31 5/36/31 9/3/31
f 13/35/31 15/37/31 5/36/31
f 15/37/31 8/38/31 5/36/31
f 15/37/31 17/39/31 8/38/31
f 17/39/31 20/40/31 8/38/31
f 17/39/31 21/41/31 20/40/31
f 19/40/4 22/41/4 18/39/4
f 14/35/32 1/1/1 7/36/33
f 1/1/1 3/3/3 7/36/33
f 16/37/4 14/35/32 7/36/33
f 16/37/4 7/36/33 6/38/4
f 18/39/4 16/37/4 6/38/4
f 18/39/4 6/38/4 19/40/4
