v -0.975000023841858 -0.200000002980232 -1.29999995231628
v 0.975000023841858 -0.200000002980232 -1.29999995231628
v 0.540000021457672 -0.0299999993294477 -0.810000002384186
v -0.540000021457672 -0.0299999993294477 -0.810000002384186
v 0.975000023841858 -0.200000002980232 1.29999995231628
v 0.540000021457672 -0.0299999993294477 0.810000002384186
v -0.975000023841858 -0.200000002980232 1.29999995231628
v -0.540000021457672 -0.0299999993294477 0.810000002384186
v -0.600000023841858 -0.025000000372529 -0.899999976158142
v 0.600000023841858 -0.025000000372529 -0.899999976158142
v 0.600000023841858 -0.025000000372529 0.899999976158142
v -0.600000023841858 -0.025000000372529 0.899999976158142
vt 0 0
vt 1 0
vt 0.776923000812531 0.188462004065514
vt 0.223076999187469 0.188462004065514
vt 1 1
vt 0.776923000812531 0.811537981033325
vt 0 1
vt 0.223076999187469 0.811537981033325
vn 0.187719079329726 -0.967567884179845 0.169038270102774
vn -0.187719079329726 -0.967567884179845 0.169038270102774
vn -0.187719079329726 -0.967567884179845 -0.169038270102774
vn 0.187719079329726 -0.967567884179845 -0.169038270102774
vn 0 -1 0
g frame trophy_frame
f 1/1/1 2/2/2 3/3/2 4/4/1
f 2/2/2 5/5/3 6/6/3 3/3/2
f 5/5/3 7/7/4 8/8/4 6/6/3
f 7/7/4 1/1/1 4/4/1 8/8/4
g canvas trophy_frame
f 9//5 10//5 11//5 12//5
