v 0.354854954196399 0 0.0398538556937471
v 0.507300231713323 0 10.0398536742203
v -0.492699784556712 0 10.0398536742203
v -0.340254507039788 0 0.0398538556937471
v 0.540957989029371 -0.540957989029371 0
v 0.341362590239117 -0.540957989029371 1.30108998516413
v -0.411697291326648 -0.540957989029371 1.28639000920173
v -0.540957989029371 -0.540957989029371 0
v 0.341362590239117 0.540957989029371 1.30108998516413
v 0.540957989029371 0.540957989029371 0
v -0.411697291326648 0.540957989029371 1.28639000920173
v -0.540957989029371 0.540957989029371 0
v -1.20000000700863 -1.20000000700863 0.0250000340419179
v 1.20000000700863 -1.20000000700863 0.0250000340419179
v 1.20000000700863 1.20000000700863 0.0250000340419179
v -1.20000000700863 1.20000000700863 0.0250000340419179
v 0.540436221545763 -0.393912548155297 7.04370333453802
v 0.636442940379065 -0.0881905943702838 7.04370333453802
v 0.566726093842914 0.224576033945159 7.04370333453802
v 0.349966246937829 0.46058164181046 7.04370333453802
v 0.044243995911806 0.556588360643762 7.04370333453802
v -0.268522616759373 0.486871514107612 7.04370333453802
v -0.504528005604982 0.270111604625472 7.04370333453802
v -0.600534724438284 -0.0356108497759801 7.04370333453802
v -0.530817877902134 -0.348377478091423 7.04370333453802
v -0.314058062285576 -0.584382585340285 7.04370333453802
v -0.00833579952635477 -0.680389304173587 7.04370333453802
v 0.304430801411626 -0.610672457637436 7.04370333453802
v 0.636442940379065 -0.0881905396153608 0
v 0.540436221545763 -0.393912798463516 0
v 0.566726093842914 0.224576065233686 0
v 0.349966246937829 0.460581454079295 0
v 0.044243995911806 0.556588235489653 0
v -0.268522616759373 0.486871357664974 0
v -0.504528005604982 0.270111510759889 0
v -0.600534724438284 -0.035610748088266 0
v -0.530817877902134 -0.348377352937313 0
v -0.314058062285576 -0.584382773071449 0
v -0.00833579952635477 -0.680389491904752 0
v 0.304430801411626 -0.610672645368601 0
v -1.02497185934873 0.0479017968565773 7.79200876791646
v -1.02497185934873 0.0479017968565773 6.79200840747263
v 3.38760836543686 0.0479017968565773 6.79200840747263
v 3.38760836543686 0.0479017968565773 7.79200876791646
v 1.6590899369848 0.0469017764088988 7.22925731829146
v 1.6590899369848 0.0469018155195581 5.55431436053099
v 3.09011454344421 0.0469018155195581 5.55431436053099
v 3.09011454344421 0.0469017764088988 7.22925731829146
v 0.340254507039788 -4.16691577908115e-17 0.039853859604813
v 0.492699784556712 -6.03383211336832e-17 10.0398536742203
v -0.507300231713323 6.21263582195022e-17 10.0398536742203
v -0.354854954196399 4.34571983503549e-17 0.039853859604813
v 0.411697291326648 -0.540957989029371 1.28639000920173
v -0.341362590239117 -0.540957989029371 1.30108998516413
v -0.341362590239117 0.540957989029371 1.30108998516413
v 0.411697291326648 0.540957989029371 1.28639000920173
v 0.957650587627581 0.0479017968565773 6.79200840747263
v 0.957650587627581 0.0479017968565773 7.79200876791646
v -3.45492926169568 0.0479017968565773 7.79200876791646
v -3.45492926169568 0.0479017968565773 6.79200840747263
v -3.11155844861128 0.0469017764088967 7.22925681767501
v -3.11155844861128 0.046901815519556 5.55431385991454
v -1.68053409246009 0.046901815519556 5.55431385991454
v -1.68053409246009 0.0469017764088967 7.22925681767501
vt -0.0248027257621288 0.00532823987305164
vt 0 1
vt 1 1
vt 0.97519725561142 0.00532823987305164
vt -0.0300748646259308 -0.00519007816910744
vt -0.0144434683024883 0.970710217952728
vt 1.06931638717651 0.9647136926651
vt 1.05368494987488 -0.0111866006627679
vt 1.02912640571594 1.01604115962982
vt -0.0129727413877845 1.00429797172546
vt -0.00227093929424882 -0.0106478305533528
vt 1.03982818126678 0.00109536526724696
vt 0.95180881023407 0.0657891184091568
vt 0.995467722415924 0.930154025554657
vt 0.145731985569 0.884538948535919
vt 0.102073073387146 0.0201740190386772
vt 0.00181430752854794 -0.0146742863580585
vt 1.03317034244537 0.00138484279159456
vt 1.03292715549469 1.01350796222687
vt 0.00157106434926391 0.997448861598969
vt 0.0121519509702921 -0.0105856899172068
vt 0.0238575842231512 1.01388621330261
vt 1.02965676784515 1.01500499248505
vt 1.017951130867 -0.0094668110832572
vt 0 0
vt 1 0
vt 1 1.05089676380157
vt 0 1.05089676380157
vn 0 -1 0
vn -5.53360557375981e-08 -0.999999999999998 0
vn 0.988436951502323 0 0.151632426956752
vn 0.992049435744633 0 0.125848786401601
vn -0.0195166108793512 0 0.999809532811017
vn -0.992049435744633 0 0.125848786401601
vn -0.994989465625662 0 0.0999798144325176
vn -5.53360486321707e-08 0.999999999999998 0
vn 0 0 1
vn 0 3.42872311875888e-07 0.999999999999941
vn 0.999097812773405 -0.0424683471705601 2.84070234006095e-09
vn 0.844009914618355 -0.536327571569761 1.40072578844996e-08
vn 0.886478301096911 0.462770160754055 -3.20061089090696e-09
vn 0.536327653814502 0.844009862355785 -1.48572250453562e-08
vn 0.0424683009868898 0.999097814736518 -2.1068095048827e-08
vn -0.462770317390261 0.88647821932776 -1.6873294097879e-08
vn -0.844009995089301 0.536327444933931 -6.68783841326471e-09
vn -0.999097817742889 0.0424682302597616 -1.72733780491911e-09
vn -0.886478203116456 -0.462770348444474 -2.58061982258968e-10
vn -0.536327431173813 -0.844010003833188 1.4717892970248e-08
vn -0.0424682687952488 -0.999097816104877 2.66282930580905e-08
vn 0.462770270524932 -0.886478243792977 2.5320206191728e-08
vn 0 -1 -2.33504504620896e-08
vn 5.53360486321707e-08 -0.999999999999998 0
vn -0.988436951502323 0 0.151632426956752
vn 0.0195166108793512 0 0.999809532811017
vn 0.994989465625662 0 0.0999798144325176
vn 5.53360557375981e-08 0.999999999999998 0
g pole_left streetlight_DD_left streetlights
f 1/1/1 2/2/1 3/3/1 4/4/1
g base_left streetlight_DD_left streetlights
f 5/5/2 6/6/2 7/7/2 8/8/2
f 9/9/3 6/10/3 5/11/4 10/12/4
f 11/13/5 7/14/5 6/15/5 9/16/5
f 12/17/6 8/18/6 7/19/7 11/20/7
f 12/21/8 11/22/8 9/23/8 10/24/8
g dropshadow_left streetlight_DD_left streetlights
f 13/25/9 14/26/9 15/3/9 16/2/9
g collision_left streetlight_DD_left streetlights
f 17//10 18//10 19//10 20//10 21//10 22//10 23//10 24//10 25//10 26//10 27//10 28//10
f 29//11 18//11 17//12 30//12
f 31//13 19//13 18//11 29//11
f 32//14 20//14 19//13 31//13
f 33//15 21//15 20//14 32//14
f 34//16 22//16 21//15 33//15
f 35//17 23//17 22//16 34//16
f 36//18 24//18 23//17 35//17
f 37//19 25//19 24//18 36//18
f 38//20 26//20 25//19 37//19
f 39//21 27//21 26//20 38//20
f 40//22 28//22 27//21 39//21
f 30//12 17//12 28//22 40//22
g stick_left streetlight_DD_left streetlights
f 41/2/1 42/25/1 43/26/1 44/3/1
g lantern_left1 streetlight_DD_left streetlights
f 45/27/23 46/26/23 47/25/23 48/28/23
g pole_right streetlight_DD_right streetlights
f 49/4/1 50/3/1 51/2/1 52/1/1
g base_right streetlight_DD_right streetlights
f 5/8/24 53/7/24 54/6/24 8/5/24
f 12/12/6 8/11/6 54/10/25 55/9/25
f 55/16/26 54/15/26 53/14/26 56/13/26
f 56/20/27 53/19/27 5/18/4 10/17/4
f 12/24/28 55/23/28 56/22/28 10/21/28
g dropshadow_right streetlight_DD_right streetlights
f 15/2/9 16/3/9 13/26/9 14/25/9
g collision_right streetlight_DD_right streetlights
f 17//10 18//10 19//10 20//10 21//10 22//10 23//10 24//10 25//10 26//10 27//10 28//10
f 29//11 18//11 17//12 30//12
f 31//13 19//13 18//11 29//11
f 32//14 20//14 19//13 31//13
f 33//15 21//15 20//14 32//14
f 34//16 22//16 21//15 33//15
f 35//17 23//17 22//16 34//16
f 36//18 24//18 23//17 35//17
f 37//19 25//19 24//18 36//18
f 38//20 26//20 25//19 37//19
f 39//21 27//21 26//20 38//20
f 40//22 28//22 27//21 39//21
f 30//12 17//12 28//22 40//22
g stick_right streetlight_DD_right streetlights
f 57/25/1 58/2/1 59/3/1 60/26/1
g lantern_right seq_node streetlight_DD_right streetlights
f 61/28/23 62/25/23 63/26/23 64/27/23
g lantern_right1 seq_node streetlight_DD_right streetlights
f 61/28/23 62/25/23 63/26/23 64/27/23
