v 9.05026007837059 0.00382484820640716 8.7147213613756
v 9.05026007837059 0.00382484820640716 12.7147213613756
v 9.0931006515877 -5 12.0486443639168
v 9.0931006515877 -5 8.04864436391679
v -8.86805115993563 -5 8.04864436391679
v -8.86805115993563 -5 12.0486443639168
v -8.94643307540846 0.00382484820640716 12.7147213613756
v -8.94593274768132 0.00382484820640716 8.7147213613756
v 9.0931006515877 -5 13.5486443639168
v -8.86805115993563 -5 13.5486443639168
v 9.0931006515877 -5 15.3625904823918
v -8.86805115993563 -5 15.3625904823918
v 9.01521906384201 0.00382484820640716 8.7147213613756
v 9.01521906384201 0.00382484820640716 16.0286674798506
v -8.94593274768132 0.00382484820640716 16.0286674798506
v -7.91463045557772 -0.025 0.106048005695698
v 7.94369750623436 -0.025 0.0686212479830105
v 10.4725285064647 -0.025 9.95744736487103
v -10.2863272032893 -0.025 9.99487412258372
vt 0 0
vt 0 0.991858065128326
vt 1 0.991858065128326
vt 1 0
vt 0.992310106754303 0.000184603151865304
vt 0.992310106754303 0.919915080070496
vt -0.00768987974151969 0.919915080070496
vt -0.00768987974151969 0.000184603151865304
vt 1.05785357952118 0.0244597885757685
vt 0.950495421886444 1.52306652069092
vt 0.00985087361186743 1.50131678581238
vt 1 -0.00161568447947502
vt 1 1.0031623840332
vt 0 1.0031623840332
vt 0 -0.00161568447947502
vt 1 1
vt 0 1
vn 0.999963351814489 0.00856125154004707 0
vn 0.999927251879849 0.0120619628590439 0
vn -0.999878571685804 -0.0155833534886565 -3.12666756428069e-05
vn -0.999878245406412 -0.015604180612106 -6.25333512414815e-05
vn 0 0.131949681900627 -0.991256415588986
vn 0 -1 0
vn 0.999878896553886 0.0155625263432111 0
vn -0.999878896553886 -0.0155625263432114 0
g marquee_body marquee
f 1/1/1 2/2/1 3/3/1 4/4/2
f 5/5/3 6/6/4 7/7/4 8/8/3
f 8/1/5 1/9/5 4/10/5 5/11/5
g marquee_front marquee
f 4/12/6 9/13/6 10/14/6 5/15/6
g camera_collisions marquee
f 4//6 11//6 12//6 5//6
f 13//7 14//7 11//7 4//2
f 5//3 12//8 15//8 8//3
g o1 square_drop_shadow marquee
f 16/1/6 17/4/6 18/16/6 19/17/6
