v 0.494968159835401 11.2625210873223 6.96511706655107
v 0.703504943689568 11.187901203382 8.76443968044491
v 0.890903699020933 -7.75414327250382 7.4366466892673
v 1.19136167094925 -7.74073476180008 5.91590410768204
v -0.366532657811416 11.1394094926291 9.12037296245104
v -0.345731043535662 -7.75278159578958 7.41178207197214
v -1.68136769308045 11.1840724888561 8.19691885800499
v -1.40905637982175 -7.73852403960519 5.87567356940642
v -1.20838528145807 11.260182207319 6.66262959557881
v -0.094229354415747 -7.731074866992 4.95116817043835
v 0.943896952793899 -8.49531191792704 7.54560485599548
v 1.13794389443596 -9.59867054961176 6.3930095962965
v -0.362039124654428 -8.35900006896871 7.84282283833021
v -1.30144387008176 -9.37811096135716 6.87392377477931
v 0.274496680074082 -10.1442863991442 5.97788643023473
v 1.02723156770532 -9.00984949892278 8.51854890037396
v 1.24991376966152 -10.5819773542787 8.49920508116875
v -0.286874570028444 -8.60637667863078 8.50501423432758
v -1.19387140965689 -9.92912545856845 8.47730811812433
v 1.54265824349682 -9.07208613462652 13.6421679198898
v 1.54523741939085 -10.6791209730452 13.6341600593307
v 0.0185975761534787 -8.58021646599135 13.6359702883743
v -0.920743090369651 -9.88322894343557 13.6241317108234
v 1.54991517939741 -9.06868995270395 34.7092771154689
v 1.55854981173829 -10.6760131461915 34.7092771154689
v 0.0185975761534787 -8.58021646599135 34.7092771154689
v -0.919173157216764 -9.88563190234305 34.7092771154689
v 0.671593649398229 12.0074864078193 6.55881275967976
v 0.86564059104029 13.0635387884788 7.75490157560414
v -0.786473756482676 11.8832534323026 6.25634731583082
v -1.68070287444938 12.862523266005 7.26549594108201
v -0.472495135768273 13.5919975114119 8.19165637799761
v 0.951161898557514 12.5607917258558 5.6073761987561
v 0.977610466265847 14.1308530365513 5.69000594572132
v -0.443515451344061 12.1570946293991 5.6046538465605
v -1.46617471305256 13.4776487068679 5.68559951982473
v -0.516389185144914 14.6975188061133 5.73835047524119
v 1.27035494010115 12.8292823344516 0
v 1.27293411599518 14.4346831608131 0
v -0.253705727242191 12.3375568433508 0
v -1.19304639376532 13.6390314270943 0.541101791101491
v -0.2495325886062 14.935139402611 0
v 1.75278098022992 1.12728896789973 2.6356459289711
v 2.27307765274058 1.05266908395944 4.15461432589634
v 2.02508428362559 -9.98618772275808 4.53571259506105
v 2.54538095613625 -9.97277921205434 3.01497001347579
v 0.987486627375592 1.00417737320649 5.11817781943975
v 0.417937307124607 -9.98482604604384 4.5108479777659
v -0.327348407893437 1.04884036943352 3.69380790730474
v -0.0550370946347431 -9.97056848985946 2.97473947520018
v 0.145634003728938 1.12495008789645 2.15951864487856
v 1.25978993077126 -9.96311931724627 2.05023407623211
v 2.29791623798091 -10.7273563681813 4.64467076178924
v 2.49196317962297 -11.830714999866 3.49207550209025
v 0.724186410019949 -10.591044519223 4.94188874412396
v -0.0543802858666985 -11.6101554116114 3.97298968057307
v 1.03816503073435 -12.3763308493985 3.07695233602849
v 2.57748448714019 -11.241893949177 5.61761480616772
v 2.60393305484852 -12.814021804533 5.59827098696251
v 1.06714471515856 -10.838421128885 5.60408014012134
v 0.160147875530119 -12.1611699088227 5.57637402391809
v 1.10993340343776 -13.3821613888916 5.57278360281716
v 2.89667752868383 -11.3041305848808 10.7412338256836
v 2.89925670457786 -12.9111654232994 10.7332259651244
v 1.37261686134049 -10.8122609162456 10.7350361941681
v 0.433276194817357 -12.1152733936898 10.7231976166172
v 2.90393446458442 -10.9382881010799 31.8083410187969
v 2.9125690969253 -12.5456112945675 31.8083410187969
v 1.37261686134049 -10.4498146143673 31.8083410187969
v 0.434846127970244 -11.755230050719 31.8083410187969
v 2.02561293458524 1.87225428839678 2.55661761666846
v 2.2196598762273 2.92830666905622 3.75270643259284
v 0.451883106624279 1.74802131288004 1.75323636513057
v -0.326683589262368 2.72729114658247 2.76238499038176
v 0.765861727338682 3.4567653919893 4.18946123498631
v 2.30518118374452 2.96670595239776 0
v 2.33162975145286 4.5367672630933 0
v 0.794841411762895 2.56300885594107 0
v -0.11215542786555 3.34241658744533 -0.346848595486538
v 0.837630100042094 5.10343303265531 0
v -3.87552010734038 -13.8637275990547 -0.589463097118953
v 3.87552010734038 -13.8637275990547 -0.589463097118953
v 3.87552010734038 -13.8637275990547 35.1813688044733
v -3.87552010734038 -13.8637275990547 35.1813688044733
v 3.87552010734038 15.5476603359279 35.1813688044733
v -3.87552010734038 15.5476603359279 35.1813688044733
v 3.87552010734038 15.5476603359279 -0.589463097118953
v -3.87552010734038 15.5476603359279 -0.589463097118953
v 3.52427907632315 5.92446753729091 -6.47955364300811e-06
v -0.970383181158834 5.92446753729091 6.47955364487305e-06
v -0.970383181158834 1.61553196570764 6.47955364487305e-06
v 3.52427907632315 1.61553196570764 -6.47955364300811e-06
v 2.49824578342787 15.5563154628049 -6.11754388225725e-06
v -1.74530170576263 15.5563154628049 6.11754388318973e-06
v -1.74530170576263 11.4881181927124 6.11754388318973e-06
v 2.49824578342787 11.4881181927124 -6.11754388225725e-06
vt 0.583467900753021 4.43639737568446e-06
vt 0.780939638614655 2.52316203841474e-06
vt 0.780939221382141 0.644326567649841
vt 0.583467900753021 0.644326448440552
vt 0.998601675033569 2.76039759228297e-06
vt 0.99860155582428 0.644326746463776
vt 0.0160494595766068 2.42403484662645e-06
vt 0.210440412163734 3.81200266019732e-06
vt 0.210440084338188 0.644326388835907
vt 0.0160494595766068 0.644326388835907
vt 0.413656234741211 4.25432199335773e-06
vt 0.413656234741211 0.644326448440552
vt 0.780939757823944 0.727845966815948
vt 0.583467900753021 0.727845728397369
vt 0.99860155582428 0.727846145629883
vt 0.210440084338188 0.727845788002014
vt 0.0160494595766068 0.727845788002014
vt 0.413655936717987 0.727845728397369
vt 0.780939400196075 0.809660017490387
vt 0.583467900753021 0.809659600257874
vt 0.99860155582428 0.809660136699677
vt 0.210440084338188 0.809659540653229
vt 0.0160494595766068 0.809659779071808
vt 0.780939221382141 0.999999940395355
vt 0.583467900753021 0.999999642372131
vt 0.998601913452148 1.00000035762787
vt 0.210440084338188 1
vt 0.0160498023033142 1
vt 0.413655936717987 0.809659600257874
vt 0.41365659236908 1
vt 0 0
vt 1 0
vt 1 1
vt 0 1
vn 0.996961320973556 -0.0739615098683926 -0.0244503484770614
vn 0.994762454886062 0.0295703214723118 0.0978430091374989
vn 0.9716653597354 -0.067539859490751 -0.226505620394387
vn 0.258817557970539 0.155150245369135 0.953384430881931
vn -0.244777965140833 0.155946962133281 0.956955742332379
vn -0.172104048086031 0.081012202666297 0.981741931289255
vn 0.134523518589615 0.150859938459617 0.979359332377157
vn -0.680540395053692 0.118053878815077 0.723137644156961
vn -0.776509746102601 0.112118447429242 0.620050052781007
vn -0.854329586773935 -0.0312873154398147 -0.518789033283517
vn -0.808893471646304 0.032859778259505 -0.587036273581732
vn 0.301553492096391 -0.25211392900986 -0.919512946186014
vn 0.3890953586886 0.0851887519315988 -0.917250063173248
vn 0.486838548159527 -0.077017129150807 -0.870089989508724
vn 0.991594909600642 0.0939777250979709 0.0889253756781762
vn 0.185947391799827 0.681016618842292 0.708265439184671
vn -0.800270526233765 0.29846061780759 0.520084939658365
vn -0.817682419530994 0.421218233076133 0.39239095416964
vn -0.817681326756026 0.421221073696506 0.392390182023541
vn 0.566038762519756 -0.236289539343654 -0.789789448474634
vn 0.566035142574982 -0.236291911460211 -0.789791333168831
vn 0.993296295712872 0.110552273003007 -0.0337737154745552
vn 0.993296370198097 0.110552183473983 -0.0337718178429917
vn 0.269718697750698 0.943876786905923 0.190652655957945
vn -0.818126515934655 0.555668167157601 0.147992877978417
vn -0.818126308190203 0.55566928940131 0.14798981270112
vn 0.998539043762335 0.0373587442309978 -0.0390397529664891
vn 0.998539002076292 0.0373588976041071 -0.0390406724108075
vn 0.303233748828217 0.952859094500287 -0.0104326218986132
vn -0.814825048522834 0.579325115569395 0.0210368906986622
vn -0.814825545898413 0.579324401252296 0.0210372969989403
vn 0.999993791049074 0.00348985749800414 -0.000488628637577903
vn 0.999993791126541 0.00348984565512491 -0.000488554675589775
vn 0.30551712678199 0.952186572322422 -0.000129351286577107
vn -0.811675655199014 0.584108403224497 6.35592649980746e-05
vn -0.811675617075006 0.584108456205899 6.35190557682252e-05
vn 0.989781638808168 -0.142497504829304 -0.0051738376124403
vn 0.200106113980464 -0.758213659102411 -0.620539757226055
vn -0.857478921971205 -0.291020383853864 -0.42430771211074
vn -0.391858670886572 0.545499918180583 0.74086207982052
vn -0.693666098627089 0.507714776233936 0.510933508011755
vn 0.393446773308068 0.636065035459453 0.66379281951482
vn 0.996183876178682 -0.0631566159544266 0.0602405735597031
vn 0.254868227106237 -0.94434782748835 -0.207964822818084
vn -0.810612085167236 -0.541204422382044 -0.223619812572463
vn -0.762903263223825 0.63566841339206 0.117916407586306
vn 0.389288108429452 0.827808779466809 0.403964594083555
vn 0.367709813723571 0.899377213069464 0.236453212079645
vn 0.998497340976792 -0.0105269458857466 0.053779582302156
vn 0.293222545778499 -0.955718407549376 -0.024957245810804
vn -0.805559739093381 -0.590097931721537 -0.0534596832180006
vn -0.800563449581079 0.598984719048967 -0.017761462233515
vn 0.333758919740467 0.940683648104031 0.0609857170439711
vn 0.993154434528406 -0.0481335761747249 -0.106430390496293
vn 0.991537828262305 0.0770841306674914 0.104454640510167
vn 0.399005341888229 0.134692397569165 0.907002037032844
vn 0.208201046485524 0.197822252832976 0.957871954139184
vn -0.820858642875554 0.104738761071866 0.561445349384635
vn -0.962602884169216 0.0352507535591895 0.268613238249005
vn -0.885744283213581 0.0559789944047033 0.460785651838139
vn -0.808005092499665 -0.0286239615429677 -0.588479769677934
vn -0.862919234534161 -0.0721459054597948 -0.500165335660483
vn 0.409991339601671 -0.21324580014937 -0.886810763449724
vn 0.468041219767333 -0.148287005671681 -0.871176434798161
vn 0.990180886655399 0.121862930097545 0.0684926125240486
vn 0.155763722286871 0.71410389483234 0.682490505578371
vn -0.876673656076208 0.289497261977164 0.384232528619975
vn -0.876675047517531 0.289495654967308 0.38423056465511
vn 0.453810278431554 -0.620487096714352 -0.639571727018064
vn 0.453814575596856 -0.620485397184032 -0.639570326748529
vn 0.995968513608069 0.0613142739778734 -0.0654773220886366
vn 0.242314945393845 0.954680231687726 0.172826856892809
vn -0.832850879555698 0.514961321865868 0.202914389350431
vn 0.376087160547195 -0.844971792466112 -0.380238237961616
vn 0.376093714964233 -0.844969211964001 -0.380237489468539
vn 0.999525069808716 0.00656144540558618 -0.0301095044474442
vn 0.999525060040991 0.006561414272022 -0.0301098354828645
vn 0.294302090388509 0.955591746271852 -0.0151886158048058
vn -0.814890223395478 0.579393995355046 0.0160163029749546
vn -0.814890733191575 0.579393279236651 0.0160162709110793
vn 0.999993759392037 0.00349000694402138 -0.000548660652114791
vn 0.999993759493684 0.00348998521829247 -0.000548613584116903
vn 0.305505624911393 0.952047191673066 -0.0165063010674219
vn -0.811613604736687 0.584109372147053 -0.0099798785712473
vn -0.811613584776281 0.584109398820417 -0.00997994069348007
vn 0.886411670925858 -0.250701855294455 -0.389130992595484
vn 0.989585636578383 -0.107526541130326 -0.0956990638946093
vn 0.316760548269276 -0.709535053874951 -0.62946228034952
vn -0.975752291509131 -0.0646270774521512 -0.209119120299109
vn -0.857614553964907 -0.378092516540561 -0.348630643752954
vn -0.825365610955998 0.412759904662659 0.385228334048918
vn -0.770335610973789 0.227089084914527 0.595830172094635
vn 0.45645859364392 0.615697856063222 0.642309662334117
vn 0.995384870688859 -0.0934712235765617 0.0217276222082319
vn 0.248150941812832 -0.898457318121552 -0.36220927319884
vn -0.74403476033118 -0.613074134749308 -0.265616981234843
vn -0.812835235897506 0.564644225929865 0.143093596668439
vn 0.371307515845824 0.856103869223618 0.359467514216171
vn 0 -1 0
vn 0 0 1
vn 0 1 0
vn 1 0 0
vn -1 0 0
vn 2.91243941295968e-06 0 0.999999999995759
g boilerpipe1 geometry props
f 1/1/1 2/2/1 3/3/2 4/4/3
f 2/2/4 5/5/5 6/6/6 3/3/7
f 5/7/5 7/8/8 8/9/9 6/10/6
f 7/8/10 9/11/10 10/12/11 8/9/11
f 9/11/12 1/1/12 4/4/13 10/12/14
f 4/4/3 3/3/2 11/13/15 12/14/15
f 3/3/7 6/6/6 13/15/16 11/13/16
f 6/10/17 8/9/9 14/16/18 13/17/19
f 10/12/14 4/4/3 12/14/20 15/18/21
f 12/14/15 11/13/15 16/19/22 17/20/23
f 11/13/16 13/15/16 18/21/24 16/19/24
f 13/17/19 14/16/18 19/22/25 18/23/26
f 17/20/23 16/19/22 20/24/27 21/25/28
f 16/19/24 18/21/24 22/26/29 20/24/29
f 18/23/26 19/22/25 23/27/30 22/28/31
f 21/1/28 20/2/27 24/3/32 25/4/33
f 20/2/29 22/5/29 26/6/34 24/3/34
f 22/7/31 23/8/30 27/9/35 26/10/36
f 2/4/1 1/3/1 28/13/37 29/14/37
f 1/3/12 9/6/12 30/15/38 28/13/38
f 9/10/10 7/9/10 31/16/39 30/17/39
f 7/9/8 5/12/5 32/18/40 31/16/41
f 5/12/5 2/4/4 29/14/42 32/18/40
f 29/14/37 28/13/37 33/19/43 34/20/43
f 28/13/38 30/15/38 35/21/44 33/19/44
f 30/17/39 31/16/39 36/22/45 35/23/45
f 31/16/41 32/18/40 37/29/46 36/22/46
f 32/18/47 29/14/42 34/20/48 37/29/48
f 34/20/43 33/19/43 38/24/49 39/25/49
f 33/19/44 35/21/44 40/26/50 38/24/50
f 35/23/45 36/22/45 41/27/51 40/28/51
f 36/22/46 37/29/46 42/30/52 41/27/52
f 37/29/48 34/20/48 39/25/53 42/30/53
g boilerpipe2 geometry props
f 43/1/54 44/2/54 45/3/55 46/4/55
f 44/2/56 47/5/56 48/6/57 45/3/57
f 47/7/58 49/8/59 50/9/60 48/10/60
f 49/8/61 51/11/62 52/12/61 50/9/61
f 51/11/63 43/1/63 46/4/64 52/12/64
f 46/4/55 45/3/55 53/13/65 54/14/65
f 45/3/57 48/6/57 55/15/66 53/13/66
f 48/10/60 50/9/60 56/16/67 55/17/68
f 52/12/64 46/4/64 54/14/69 57/18/70
f 54/14/65 53/13/65 58/19/71 59/20/71
f 53/13/66 55/15/66 60/21/72 58/19/72
f 55/17/68 56/16/67 61/22/73 60/23/73
f 57/18/70 54/14/69 59/20/74 62/29/75
f 59/20/71 58/19/71 63/24/76 64/25/77
f 58/19/72 60/21/72 65/26/78 63/24/78
f 60/23/73 61/22/73 66/27/79 65/28/80
f 64/1/77 63/2/76 67/3/81 68/4/82
f 63/2/78 65/5/78 69/6/83 67/3/83
f 65/7/80 66/8/79 70/9/84 69/10/85
f 44/4/54 43/3/54 71/13/86 72/14/87
f 43/3/63 51/6/63 73/15/88 71/13/86
f 51/10/62 49/9/59 74/16/89 73/17/90
f 49/9/59 47/12/58 75/18/91 74/16/92
f 47/12/56 44/4/56 72/14/93 75/18/93
f 72/14/87 71/13/86 76/19/94 77/20/94
f 71/13/95 73/15/88 78/21/95 76/19/95
f 73/17/90 74/16/89 79/22/96 78/23/96
f 74/16/89 75/18/91 80/29/97 79/22/97
f 75/18/93 72/14/93 77/20/98 80/29/98
g boilerpipeCollision collision props
f 81//99 82//99 83//99 84//99
f 84//100 83//100 85//100 86//100
f 86//101 85//101 87//101 88//101
f 82//102 87//102 85//102 83//102
f 88//103 81//103 84//103 86//103
g circleshadows1 shadows props
f 89/31/104 90/32/104 91/33/104 92/34/104
g circleshadows2 shadows props
f 93/31/104 94/32/104 95/33/104 96/34/104
