v -5 -4 -0.025
v 5 -4 -0.025
v 5 0 -0.025
v 10 0 -0.025
v 10 20 -0.025
v 7 20 -0.025
v 7 21 -0.025
v -7 21 -0.025
v -7 20 -0.025
v -10 20 -0.025
v -10 0 -0.025
v -5 0 -0.025
v 11 21 -0.025
v 11 28 -0.025
v -11 28 -0.025
v -11 21 -0.025
v -5 0 12
v -10 0 12
v -10 20 12
v -7 20 12
v -7 21 12
v 7 21 12
v 7 20 12
v 10 20 12
v 10 0 12
v 5 0 12
v 5 -4 12
v -5 -4 12
v -11 21 12
v -11 28 12
v 11 28 12
v 11 21 12
v 9.97499999962747 8 3
v 9.97499999962747 8 6
v 9.97499999962747 12 6
v 9.97499999962747 12 3
v -10.9749999996275 25.5892633199692 3
v -10.9749999996275 25.5892633199692 6
v -10.9749999996275 23 6
v -10.9749999996275 23 3
v 10.9749999996275 23 3
v 10.9749999996275 23 6
v 10.9749999996275 25.5892633199692 6
v 10.9749999996275 25.5892633199692 3
v 4 27.929999999702 -0.025
v 10 27.929999999702 -0.025
v 10 27.929999999702 8
v 4 27.929999999702 8
v -11 5 3
v -11 15 3
v -11 15 3.5
v -11 5 3.5
v 11 28 2.5
v 11 28 3.5
v -11 28 3.5
v -11 28 2.5
v 11 21 3.5
v 11 21 2.5
v 7 21 2.5
v 7 21 3.5
v 10 0 2.5
v 10 0 3.5
v 10 20 3.5
v 10 20 2.5
v 7 20 2.5
v 7 20 3.5
v -11 21 3.5
v -11 21 2.5
v -7 20 3.5
v -7 20 2.5
v -7 21 2.5
v -7 21 3.5
v -10 20 3.5
v -10 20 2.5
v -10 5 3
v -10 0 2.5
v -10 15 3
v -10 15 3.5
v -10 5 3.5
v -10 0 3.5
v -5 0 3.5
v -5 0 2.5
v -5 -4 3.5
v -5 -4 2.5
v 5 -4 2.5
v 5 -4 3.5
v 5 0 3.5
v 5 0 2.5
v -11 5 7
v -10 5 7
v -11 15 7
v -10 15 7
v -10 -4 0
v 11 -4 0
v 11 28 0
v -10 28 0
v 5 -4 0
v 4 0 12
v 4 0 0
v 4 3 12
v 4 3 0
v 7 8 12
v 7 8 0
v 7 14 12
v 7 14 0
v 5.5 16.5 12
v 5.5 16.5 0
v 5.5 18.5 12
v 5.5 18.5 0
v -6.5 18.5 12
v -6.5 18.5 0
v -6.5 7 12
v -6.5 7 0
v -5 0 0
v -5 -4 0
v -10 28 12
v 11 -4 12
v -10 -4 12
vt -2 0
vt 0 0
vt 0 0.5
vt 1 0.5
vt 1 3
vt 0.400000005960464 3
vt 0.400000005960464 3.125
vt -2.40000009536743 3.125
vt -2.40000009536743 3
vt -3 3
vt -3 0.5
vt -2 0.5
vt 1.20000004768372 3.125
vt 1.20000004768372 4
vt -3.20000004768372 4
vt -3.20000004768372 3.125
vt 1 0
vt 1 1
vt 0 1
vt 6.66666650772095 0
vt 6.66666650772095 0.5
vt 14.6666669845581 0
vt 14.6666669845581 1
vt -0.666666686534882 1
vt -0.666666686534882 0
vt 2 0
vt 2 1
vt 13 0
vt 13 1
vt -0.333333343267441 1
vt -0.333333343267441 0
vt 0.666666686534882 0
vt 0.666666686534882 1
vt 1.66666662693024 0
vt 1.66666662693024 1
vt 4.33333349227905 0
vt 4.33333349227905 1
vt 5 0
vt 5 1
vt 0.333333343267441 1
vt 0.333333343267441 0
vt 4 0.5
vt 14 0
vt 10.6666669845581 0.5
vt 10.6666669845581 1
vt 14 1
vt 4 1
vt 3.66666674613953 0
vt 3.66666674613953 1
vt 2.33333325386047 0
vt 2.33333325386047 1
vt 3 0
vt 3 1
vt 3.33333325386047 0
vt 3.33333325386047 1
vt -0.666666686534882 0.5
vt 1.66666662693024 0.5
vt 6.66666650772095 1.5
vt 0 1.5
vt 6.66666650772095 1
vt 6.66666650772095 9.5
vt 0 9.5
vt 3.33333325386047 9.5
vt 0.666666686534882 9.5
vt 1.66666662693024 4
vt 1 4
vt 0 4
vt -0.666666686534882 4
vt 3 9.5
vt 0.333333343267441 9.5
vt 2.33333325386047 9.5
vt -0.333333343267441 9.5
vt 3.66666674613953 9.5
vt 4 4.5
vt 10.6666669845581 4.5
vt 14 9.5
vt 2 9.5
vt 5 9.5
vt 4.33333349227905 9.5
vt 1.66666662693024 9.5
vt 13 9.5
vt -0.666666686534882 9.5
vt 14.6666669845581 9.5
vt 6.66666650772095 4
vt 1.60000002384186 0
vt 1.60000002384186 1
vt 1.20000004768372 0
vt 1.20000004768372 1
vt 4 0
vt 0.800000011920929 0
vt 0.800000011920929 1
vt 0.25 0
vt 0.25 1
vt 0.5 3.72529029846191e-09
vt 0.5 1
vt 1.25 0
vt 1.25 1
vt 0.200000002980232 1
vt 0.200000002980232 0
vn 0 0 1
vn 0 0 -1
vn -1 0 0
vn 1 0 0
vn 0 -1 0
vn 0 1 0
vn -0.992507556682903 -0.122183263695704 0
vn 0.997533631944873 0.0701901213766611 0
vn -0.970142500145332 -0.242535625036333 0
vn -0.963714928210761 0.266933581895812 0
vn -0.963714928210761 -0.266933581895812 0
vn 0.994435119572265 0.105350809020602 0
g random_tc1_TI_floor g1
f 1/1/1 2/2/1 3/3/1 4/4/1 5/5/1 6/6/1 7/7/1 8/8/1 9/9/1 10/10/1 11/11/1 12/12/1
f 13/13/1 14/14/1 15/15/1 16/16/1
g ceiling g1
f 17//2 18//2 19//2 20//2 21//2 22//2 23//2 24//2 25//2 26//2 27//2 28//2
f 29//2 30//2 31//2 32//2
g doors_and_windows g1
f 33/17/3 34/18/3 35/19/3 36/2/3
f 37/17/4 38/18/4 39/19/4 40/2/4
f 41/2/3 42/19/3 43/18/3 44/17/3
f 45/17/5 46/2/5 47/19/5 48/18/5
g random_tc1_TI_wallpaper_border g1
f 49/2/4 50/20/4 51/21/4 52/3/4
f 53/22/5 54/23/5 55/19/5 56/2/5
f 57/24/6 58/25/6 59/26/6 60/27/6
f 61/28/3 62/29/3 63/30/3 64/31/3
f 60/19/3 59/2/3 65/32/3 66/33/3
f 64/34/5 63/35/5 66/30/5 65/31/5
f 54/30/3 53/31/3 58/36/3 57/37/3
f 56/38/4 55/39/4 67/40/4 68/41/4
f 69/19/4 70/2/4 71/32/4 72/33/4
f 70/26/5 69/27/5 73/19/5 74/2/5
f 75/42/4 76/32/4 74/43/4 77/44/4
f 78/45/4 77/44/4 74/43/4 73/46/4
f 76/32/4 75/42/4 79/47/4 80/33/4
f 76/48/6 80/49/6 81/40/6 82/41/6
f 82/50/4 81/51/4 83/30/4 84/31/4
f 85/52/3 86/53/3 87/40/3 88/41/3
f 88/54/6 87/55/6 62/19/6 61/2/6
f 51/56/5 50/25/5 77/2/5 78/3/5
f 75/17/6 49/34/6 52/57/6 79/4/6
f 77/21/1 50/58/1 49/59/1 75/3/1
f 72/33/6 71/32/6 68/54/6 67/55/6
f 84/20/6 83/60/6 86/19/6 85/2/6
g random_tc1_TI_wallpaper g1
f 83/60/6 28/61/6 27/62/6 86/19/6
f 29/63/6 21/64/6 72/33/6 67/55/6
f 52/57/6 89/65/6 90/66/6 79/4/6
f 90/2/2 89/19/2 91/60/2 92/20/2
f 92/67/5 91/68/5 51/56/5 78/3/5
f 87/55/6 26/63/6 25/62/6 62/19/6
f 86/53/3 27/69/7 26/70/3 87/40/3
f 81/51/4 17/71/8 28/72/4 83/30/4
f 80/49/6 18/73/6 17/70/6 81/40/6
f 79/47/4 90/74/4 18/64/4 80/33/4
f 18/64/4 90/74/4 92/75/4 19/76/4
f 19/76/4 92/75/4 78/45/4 73/46/4
f 69/27/5 20/77/5 19/62/5 73/19/5
f 21/64/4 20/62/4 69/19/4 72/33/4
f 55/39/4 30/78/4 29/70/4 67/40/4
f 32/79/3 31/72/3 54/30/3 57/37/3
f 63/35/5 24/80/5 23/72/5 66/30/5
f 23/64/3 22/62/3 60/19/3 66/33/3
f 62/29/3 25/81/3 24/72/3 63/30/3
f 22/77/6 32/82/6 57/24/6 60/27/6
f 54/23/5 31/83/5 30/62/5 55/19/5
f 51/21/4 91/84/4 89/67/4 52/3/4
g random_tc1_TI_wainscotting g1
f 2/2/6 1/17/6 84/18/6 85/19/6
f 15/2/5 14/85/5 53/86/5 56/19/5
f 5/87/5 64/88/5 65/19/5 6/2/5
f 4/89/3 61/47/3 64/19/3 5/2/3
f 3/17/6 88/18/6 61/19/6 4/2/6
f 2/90/3 85/91/3 88/19/3 3/2/3
f 7/2/3 6/17/3 65/18/3 59/19/3
f 13/2/6 7/17/6 59/18/6 58/19/6
f 53/19/3 14/2/3 13/17/3 58/18/3
f 9/2/4 8/92/4 71/93/4 70/19/4
f 8/92/6 16/94/6 68/95/6 71/93/6
f 16/94/4 15/96/4 56/97/4 68/95/4
f 9/87/5 70/88/5 74/19/5 10/2/5
f 10/89/4 74/47/4 76/19/4 11/2/4
f 11/17/6 76/18/6 82/19/6 12/2/6
f 12/17/4 82/18/4 84/98/4 1/99/4
g floors collisions g1
f 93//1 94//1 95//1 96//1
g walls collisions g1
f 97//9 27//7 98//7 99//7
f 99//7 98//7 100//10 101//10
f 101//10 100//10 102//10 103//10
f 103//10 102//10 104//11 105//11
f 105//11 104//11 106//11 107//11
f 107//11 106//11 108//3 109//3
f 109//5 108//5 110//5 111//5
f 111//4 110//4 112//12 113//12
f 113//12 112//12 17//8 114//12
f 114//12 17//8 28//4 115//4
f 115//6 28//6 27//6 97//6
g collision_ceiling collisions g1
f 116//2 31//2 117//2 118//2
