v 3.80888235537712 6.59702080754157 -3.57528721566588
v -3.80886583503463 6.59702080754157 -3.57531650172757
v -3.80886608534285 6.59717950295276 -2.0024657562336e-06
v 3.8088821050689 6.59717950295276 2.0024657562336e-06
v 3.8088821050689 -6.59724107877476 -3.53665164136511
v 7.61780425945292 -0.000101994885635266 -3.55595466033054
v 7.61779624958989 0 6.00739726870079e-06
v 3.8088821050689 -6.59719552267881 -2.0024657562336e-06
v 0 0 0
v -7.61778823972687 0 -3.00369863435039e-06
v -3.80886608534285 -6.59719552267881 -2.0024657562336e-06
v -3.80886608534285 -6.59724107877476 -3.53668117773502
v -7.61778823972687 -0.0001021587608255 -3.55601348276213
v 1.61546463662578e-05 -0.000102072427100612 -3.55598419670045
v 3.85437812705052 6.67596451566601 -0.0130520717991306
v -3.85434608759843 6.67596451566601 -0.0130540742648868
v 0.045528061433727 -0.0788170521653543 0.0321335679902805
v -7.70878829355315 0 -0.0130540742648868
v -3.85434608759843 -6.67599655511811 -0.0130540742648868
v 3.85441016650262 -6.67599655511811 -0.0130520717991306
v 7.70875625410105 0 -0.0130520717991306
v 3.85437812705052 6.67606063402231 -3.57551774953607
v -3.85434608759843 6.67606063402231 -3.57554778652241
v -3.85434608759843 6.67596451566601 -1.51330742623237
v 3.85437812705052 6.67596451566601 -1.51330742623237
v -7.70878829355315 0.000160197260498688 -3.55601373307035
v -7.70878829355315 0 -1.51330742623237
v -3.85434608759843 -6.67599655511811 -3.60581705889364
v -3.85434608759843 -6.67599655511811 -1.51330742623237
v 3.85437812705052 -6.67599655511811 -3.6058190613594
v 3.85437812705052 -6.67599655511811 -1.51330742623237
v 7.70875625410105 0.000160197260498688 -3.55595566156342
v 7.70875625410105 0 -1.51330542376661
v -0.669736686966864 0.633195691847113 -13.1563912539344
v -5.72184565186188 0.633195691847113 -13.1563912539344
v -5.72184565186188 0.633163652395013 -3.5578600064976
v -0.669736686966864 0.633163652395013 -3.55784198430579
v -0.669736686966864 -0.746070681594488 -3.54658211935849
v -5.72184565186188 -0.746359036663386 -3.54658211935849
v -5.72184565186188 -0.746359036663386 -13.1563912539344
v -0.669736686966864 -0.746070681594488 -13.1563912539344
v 0.708824818528543 0.633163652395013 -13.1563912539344
v 0.708824818528543 0.633163652395013 -3.55783597690853
v 5.76192700643865 0.633163652395013 -3.55781595225096
v 5.76192700643865 0.633195691847113 -13.1563902527016
v 0.708840838254593 -0.746070681594488 -3.54658211935849
v 0.708840838254593 -0.746070681594488 -13.1563912539344
v 5.76192700643865 -0.746359036663386 -13.1563922551673
v 5.76192700643865 -0.746359036663386 -3.54658211935849
v 0.708824818528543 5.68629787975722 -13.1563912539344
v 0.708824818528543 5.68623380085302 -3.57263219638134
v -0.670729909981955 5.68623380085302 -3.5726382037786
v -0.670729909981955 5.68629787975722 -13.1563912539344
v 0.708824818528543 -5.7988845144357 -3.54658211935849
v 0.708824818528543 -5.7988845144357 -13.1563902527016
v -0.670729909981955 -5.7988845144357 -13.1563922551673
v -0.670729909981955 -5.7988845144357 -3.54658211935849
v 3.38924538119259 5.87036453207021 -13.2152337101814
v -3.38921334174049 5.87036453207021 -13.2152317077156
v -3.38921334174049 5.87046065042651 -3.57318788062869
v 3.38924538119259 5.87046065042651 -3.57316184857386
v -6.77857086101542 0 -13.2152317077156
v -6.77857086101542 0.000160197260498688 -3.55601072937172
v -3.38921334174049 -5.87039657152231 -13.2152317077156
v -3.38921334174049 -5.87039657152231 -3.6098129793102
v 3.38924538119259 -5.87039657152231 -13.2152337101814
v 3.38924538119259 -5.87039657152231 -3.60980897437869
v 6.77853882156332 0 -13.2152317077156
v 6.77853882156332 0.000160197260498688 -3.55595866526206
vt 2.23612713813782 0.642750799655914
vt 3.04455018043518 0.642750799655914
vt 3.04455018043518 0.997682690620422
vt 2.23612713813782 0.997682690620422
vt 0.619275629520416 0.642750799655914
vt 1.42770195007324 0.642750799655914
vt 1.42770195007324 0.997682690620422
vt 0.619275629520416 0.997682690620422
vt 1.00455558300018 0.226935192942619
vt 1.00455605983734 0.777211666107178
vt 0.502995312213898 0.502073526382446
vt 0.502995312213898 1.05235016345978
vt 0.00143459439277649 0.777212023735046
vt 0.00143459439277649 0.226935520768166
vt 0.502995312213898 -0.0482029914855957
vt -0.189149767160416 0.642750799655914
vt -0.189149767160416 0.997682690620422
vt -0.0441515818238258 1.00107741355896
vt 0.227346181869507 1.00107741355896
vt 0.227346181869507 0.00107741355895996
vt -0.0441515818238258 0.00107741355895996
vt -0.0450478903949261 -0.999137163162231
vt 0.229678869247437 -0.999137163162231
vt 0.229678869247437 0.000862836837768555
vt -0.0450478903949261 0.000862836837768555
vt 0.892820417881012 1.00366687774658
vt 0.892820119857788 -0.00152051448822021
vt 0.607147336006165 -0.00152051448822021
vt 0.607147693634033 1.00366687774658
vn 0.499997509436944 0.866026840978155 -3.55281636098297e-05
vn -0.499997290661231 0.866026967259526 -3.62035449690331e-05
vn 0.499997497348285 0.866026847954536 -3.56003186089084e-05
vn 0.49999794696936 -0.866026588985712 1.40070400893416e-05
vn 0.866023033148533 -0.500004105909855 1.13798473352565e-05
vn 0.866022513905951 0.500005005084537 -1.72750865402378e-05
vn -6.57168669232206e-07 7.5882765929481e-08 0.999999999999781
vn -4.60018773275319e-07 3.79428590615071e-08 0.999999999999893
vn -4.81923223105634e-07 -1.51766244016452e-07 0.999999999999873
vn -3.94300627704039e-07 0 0.999999999999922
vn -1.97150328062882e-07 -1.89708899256395e-07 0.999999999999963
vn -3.94300206507966e-07 -5.31181582352646e-07 0.999999999999781
vn -7.88600413016042e-07 -3.0353269563297e-07 0.999999999999643
vn -0.499997746999554 -0.866026704446517 1.34489855040074e-05
vn -0.866022838272759 -0.50000444345912 1.05418215540949e-05
vn -0.866022250396102 0.500005461454908 -1.82794111503869e-05
vn 3.84441502119622e-06 -0.00292824396234168 -0.999995712677068
vn 3.86086414311011e-06 -0.00292818482386483 -0.999995712850176
vn 3.8608532290315e-06 -0.00292819739661184 -0.99999571281336
vn 3.87729370987843e-06 -0.00292821509158892 -0.999995712761482
vn 3.87729871205173e-06 -0.00292821928250459 -0.99999571274921
vn 3.8608505012844e-06 -0.0029281322045903 -0.999995713004254
vn 3.84439592244169e-06 -0.0029281876178088 -0.999995712842058
vn 0.00293062775220745 0.00503681015389093 0.99998302083808
vn -0.00289679099605304 0.00501715189132583 0.999983218253599
vn 2.29166507536167e-05 -3.99431337004291e-05 0.999999998939687
vn -0.00582751973604972 -1.97357684176453e-05 0.999983019667947
vn -0.0029309887275136 -0.00511678861971476 0.999982613738509
vn 0.00296564054129505 -0.0051369030271636 0.999982408447003
vn 0.00589652859588388 -2.01922391990369e-05 0.999982615120279
vn 0.49999870957521 0.866026147642716 4.49693353561307e-05
vn -0.49999561070057 0.866027936763823 4.49973332915427e-05
vn -0.866020283510106 0.5000088674957 3.12208882765879e-05
vn -0.866025010661632 -0.500000680532864 -1.93699048466688e-05
vn -0.499999657591622 -0.866025601401165 -1.12255135172928e-05
vn 0 -1 0
vn 0.866028610052542 -0.499994446164423 -1.93699165841757e-05
vn 0.99999999996576 4.73174969549457e-06 6.7889577118563e-06
vn 1.08383266805241e-08 0.999999999994429 3.33795060212611e-06
vn 5.70726514504706e-05 -0.999999998371356 0
vn -1 0 0
vn -3.17723220175822e-06 0.99999999999356 1.66897109464861e-06
vn -5.70724295337645e-05 -0.999999998371369 0
vn 1 0 0
vn 1 0 -5.42226841204752e-09
vn -0.999999980682534 -0.000196557706499477 -1.863911877696e-09
vn 0 0.999999999977647 6.68619895790077e-06
vn 0.999999999994974 -3.17045623886086e-06 0
vn -0.999999980680449 0.000196568314845064 0
vn 0.499996955997478 0.866027161179913 -9.58731519903682e-06
vn -0.499993437497721 0.866029192560569 -9.59695705528904e-06
vn -0.866017775847518 0.500013211697478 -6.64004126446283e-06
vn -0.866023080965537 -0.500004023201486 4.15783923160999e-06
vn -0.499997992969793 -0.866026562537473 2.38925776649617e-06
vn 0.866027174253712 -0.49999693342744 4.15776774258022e-06
vn 0.866021869275564 0.500006121854893 -6.63991955812691e-06
g PaintMixerTop PaintMixerTop PaintMixer
f 1/1/1 2/2/2 3/3/2 4/4/3
f 5/5/4 6/6/5 7/7/5 8/8/4
f 6/6/6 1/1/1 4/4/3 7/7/6
f 4/9/7 3/10/8 9/11/9
f 3/10/8 10/12/10 9/11/9
f 10/12/10 11/13/11 9/11/9
f 11/13/11 8/14/12 9/11/9
f 8/14/12 7/15/13 9/11/9
f 7/15/13 4/9/7 9/11/9
f 8/16/4 11/5/14 12/8/14 5/17/4
f 11/5/14 10/6/15 13/7/15 12/8/14
f 10/6/16 3/1/2 2/4/2 13/7/16
f 2/9/17 1/10/18 14/11/19
f 1/10/18 6/12/20 14/11/19
f 6/12/20 5/13/21 14/11/19
f 5/13/21 12/14/22 14/11/19
f 12/14/22 13/15/23 14/11/19
f 13/15/23 2/9/17 14/11/19
g PaintMixerFloorCollision PaintMixerTop PaintMixer
f 15//24 16//25 17//26
f 16//25 18//27 17//26
f 18//27 19//28 17//26
f 19//28 20//29 17//26
f 20//29 21//30 17//26
f 21//30 15//24 17//26
g PaintMixerSideCollision PaintMixerTop PaintMixer
f 22//31 23//32 24//32 25//31
f 23//32 26//33 27//33 24//32
f 26//34 28//35 29//35 27//34
f 28//35 30//36 31//36 29//35
f 30//37 32//38 33//38 31//37
f 32//38 22//31 25//31 33//38
g PaintMixerBase PaintMixerBase1 PaintMixer
f 34/18/39 35/19/39 36/20/39 37/21/39
f 38/22/40 39/23/40 40/24/40 41/25/40
f 40/26/41 39/27/41 36/28/41 35/29/41
f 42/18/42 43/21/42 44/20/42 45/19/42
f 46/22/43 47/25/43 48/24/43 49/23/43
f 48/26/44 45/29/44 44/28/44 49/27/44
f 42/18/45 50/19/45 51/20/45 43/21/45
f 37/22/46 52/23/46 53/24/46 34/25/46
f 53/26/47 52/27/47 51/28/47 50/29/47
f 47/18/48 46/21/48 54/20/48 55/19/48
f 38/22/49 41/25/49 56/24/49 57/23/49
f 56/26/36 55/29/36 54/28/36 57/27/36
g PaintMixerBaseSideCollision PaintMixerBase1 PaintMixer
f 58//50 59//51 60//51 61//50
f 59//51 62//52 63//52 60//51
f 62//53 64//54 65//54 63//53
f 64//54 66//36 67//36 65//54
f 66//55 68//55 69//55 67//55
f 68//56 58//50 61//50 69//56
