v 0.07664386838127 0.0723565109758552 0
v 0.00659523927789973 0.101371520147549 0
v 0.00659523927789973 0.0745530281792788 0.0282670999449382
v 0.0574116670866338 0.0535039568510581 0.0290575596134807
v -0.0634533917810035 0.0723565109758552 0
v -0.0442211904863673 0.0535039568510581 0.0282670999449382
v -0.0924688781027406 0.00230739030038591 0
v -0.0652697651092149 0.00268752928676568 0.0282670999449382
v -0.0634533917810035 -0.0677412185143298 0
v -0.0442211904863673 -0.0481284040165698 0.0282670999449382
v 0.00659523927789973 -0.0967562120417597 0
v 0.00659523927789973 -0.0691774714337246 0.0282670999449382
v 0.07664386838127 -0.0677412185143298 0
v 0.0574116670866338 -0.0481284040165698 0.0282670999449382
v 0.105659362525139 0.00230739030038591 0
v 0.0784602456205473 0.00268752928676568 0.0282670999449382
v 0.00659523927789973 0.167880127123335 0.107735450186442
v 0.123403633986245 0.119496424367109 0.107735450186442
v -0.110213149563847 0.119496424367109 0.107735450186442
v -0.158596867964337 0.00268752928676568 0.107735450186442
v -0.110213149563847 -0.114120867621554 0.107735450186442
v 0.00659523927789973 -0.16250457037778 0.107735450186442
v 0.123403633986245 -0.114120867621554 0.107735450186442
v 0.171787344564603 0.00268752928676568 0.107735450186442
v 2.7771947471381e-09 0.211831246774028 0.176302091343196
v 0.147887102262242 0.150574614682535 0.176302091343196
v -0.147887102262242 0.150574614682535 0.176302091343196
v -0.20914371870947 0.00268752928676568 0.176302091343196
v -0.147887102262242 -0.145199057936981 0.176302091343196
v 0 -0.206456175000649 0.176302091343196
v 0.147887102262242 -0.145199057936981 0.176302091343196
v 0.20914371870947 0.00268752928676568 0.176302091343196
v 0.132133813667798 0.134821326088092 0.25581844209686
v -1.62952334623781e-09 0.189552954801424 0.25581844209686
v 4.60260118148687e-09 0.0786670706090652 0.362757935611595
v 0.0537254991806711 0.0564135239506018 0.362757935611595
v -0.132133813667798 0.134821326088092 0.25581844209686
v -0.0537254991806711 0.0564135239506018 0.362757935611595
v -0.186865426736867 0.00268752928676568 0.25581844209686
v -0.0759795425445076 0.00268752928676568 0.362757935611595
v -0.126747008696629 -0.124058980015632 0.255922304363701
v -0.0537254991806711 -0.0510379672050476 0.362757935611595
v -1.62952334623781e-09 -0.184177413700134 0.25581844209686
v 0 -0.073291513863511 0.362757935611595
v 0.132133813667798 -0.129445769342538 0.25581844209686
v 0.0537254991806711 -0.0510379672050476 0.362757935611595
v 0.186865426736867 0.00268752928676568 0.25581844209686
v 0.0759795425445076 0.00268752928676568 0.362757935611595
v 0.0513714364194495 0.0535252330497181 0.408841524850039
v 0.000737036402359253 0.0764802059163572 0.408790086510926
v 0 0.133118729578854 0.46148916554889
v 0.0922284805242784 0.0949165013831431 0.46148916554889
v -0.0504553278913022 0.0540836980649493 0.408821249884257
v -0.0922284805242784 0.0949165013831431 0.46148916554889
v -0.069188422418329 0.00289083456038803 0.408885547808149
v -0.130430708719989 0.00268752928676568 0.46148916554889
v -0.0503791559712468 -0.0482253593409781 0.408823721677925
v -0.0922284805242784 -0.0895409446375889 0.46148916554889
v 0.000737036402359253 -0.0696879515810589 0.408816275008394
v 0 -0.1277431728333 0.46148916554889
v 0.0535276383552651 -0.0498997648869912 0.408762364875613
v 0.0922284805242784 -0.0895409446375889 0.46148916554889
v 0.0743264053750226 0.00289083456038803 0.408790086510926
v 0.130430708719989 0.00268752928676568 0.46148916554889
v 0 0.102952678059656 0.463155185769549
v 0.0708979493363949 0.0735859780173915 0.463155185769549
v -0.0708979493363949 0.0735859780173915 0.463155185769549
v -0.100265142172966 0.00268752928676568 0.463155185769549
v -0.0708979493363949 -0.0682104212718373 0.463155185769549
v 0 -0.0975771134919695 0.463155185769549
v 0.0708979493363949 -0.0682104212718373 0.463155185769549
v 0.100265142172966 0.00268752928676568 0.463155185769549
v 0 0.00268752928676568 0.301902469374689
v -0.37581288595525 -0.012589314478276 0.599370853794529
v -0.0813239515609941 -0.012589314478276 0.599370853794529
v -0.0813239515609941 -0.012589314478276 0.893859788188785
v -0.37581288595525 -0.012589314478276 0.893859788188785
v -0.0348613018126 -0.0429978520851436 0.635961472518801
v 0.235775950073883 -0.0429978520851436 0.635961472518801
v 0.235775950073883 -0.042997883373671 0.906598724405284
v -0.0348613018126 -0.042997883373671 0.906598724405284
v 0.0276539269394762 0 0.369314164940141
v 0.160450979167708 0 0.369314164940141
v 0.160450979167708 0 0.722611732683157
v 0.0276539269394762 0 0.722611732683157
v -0.0690980220404197 -0.00117513451363471 0.48332492823363
v -0.115050668791523 0.000214357701499295 0.619061725346123
v -0.270260538016092 0.0011751345136347 0.566506761265552
v -0.224307953842043 -0.000214357701499305 0.43076996415306
v -0.0182088591608163 0 0.382752337167896
v 0.0740701132246203 0 0.47824914686949
v -0.179992760886045 0 0.723751198275509
v -0.272271764560009 0 0.628254357285387
v -0.0691090668906064 0 0.369499299157011
v 0.0307428868111037 0 0.369499299157011
v 0.0307428868111037 0 0.974524991093033
v -0.0691090668906064 0 0.974524991093033
v -0.175270070554077 -0.0285994975272752 0.796587510997542
v 0.0901045448823864 -0.0285994975272752 0.848304192850909
v 0.0383878943175469 -0.0285994662387478 1.1136788395759
v -0.226986752407444 -0.0285994662387478 1.06196215772253
v -0.30584573119957 -0.30584573119957 0.00230763947711811
v 0.30584573119957 -0.30584573119957 0.00230763947711811
v 0.30584573119957 0.30584573119957 0.00230763947711824
v -0.30584573119957 0.30584573119957 0.00230763947711824
v 0.174742928237335 0.126958195032727 0.00617558508743147
v 0.066745844736849 0.20542265883726 0.00617558508743147
v 0.066745844736849 0.20542265883726 0.935311425582
v 0.174742928237335 0.126958195032727 0.935311425582
v -0.0667458863295807 0.205422642200167 0.00617558508743147
v -0.0667458863295807 0.205422642200167 0.935311425582
v -0.174742961511521 0.126958153439995 0.00617558508743147
v -0.174742961511521 0.126958153439995 0.935311425582
v -0.21599415036388 -1.28742526227054e-08 0.00617558508743147
v -0.21599415036388 -1.28742526227054e-08 0.935311425582
v -0.174742928237335 -0.126958178395634 0.00617558508743147
v -0.174742928237335 -0.126958178395634 0.935311425582
v -0.0667458530553953 -0.205422642200167 0.00617558508743147
v -0.0667458530553953 -0.205422642200167 0.935311425582
v 0.0667458655332148 -0.205422625563075 0.00617558508743147
v 0.0667458655332148 -0.205422625563075 0.935311425582
v 0.174742928237335 -0.126958153439995 0.00617558508743147
v 0.174742928237335 -0.126958153439995 0.935311425582
v 0.215994117089694 0 0.00617558508743147
v 0.215994117089694 0 0.935311425582
vt 0.190569996833801 0.922264993190765
vt 0.124935001134872 0.846127986907959
vt 0.155704006552696 0.831354022026062
vt 0.203317999839783 0.886587023735046
vt 0.124948002398014 0.738467991352081
vt 0.155713006854057 0.753252029418945
vt 0.190602004528046 0.662352025508881
vt 0.203341007232666 0.698035001754761
vt 0.283436000347137 0.662366986274719
vt 0.270687013864517 0.698046028614044
vt 0.349070996046066 0.738505005836487
vt 0.318300992250443 0.753278970718384
vt 0.349056988954544 0.846165001392365
vt 0.318291991949081 0.831380009651184
vt 0.283403992652893 0.92228102684021
vt 0.270664006471634 0.886597990989685
vt 0.207800999283791 0.184970006346703
vt 0.159721001982689 0.239656999707222
vt 0.054577998816967 0.18776099383831
vt 0.165096998214722 0.0620529986917973
vt 0.159068003296852 0.3177550137043
vt 0.0530770011246204 0.367278009653091
vt 0.206224992871284 0.373513013124466
vt 0.161475002765656 0.495447009801865
vt 0.273568004369736 0.374269992113113
vt 0.316271990537643 0.497186988592148
vt 0.321648001670837 0.319581985473633
vt 0.42679101228714 0.371479004621506
vt 0.322301000356674 0.241484999656677
vt 0.428292006254196 0.191962003707886
vt 0.275144010782242 0.185727000236511
vt 0.31989398598671 0.0637930035591125
vt 0.0075993575155735 0.171937003731728
vt 0.141824007034302 0.0127830002456903
vt 0.00569935748353601 0.399217993021011
vt 0.146171003580093 0.564077019691467
vt 0.3332200050354 0.563690006732941
vt 0.473087996244431 0.411298006772995
vt 0.475100994110107 0.170494005084038
vt 0.33780699968338 0.0149860000237823
vt 0.832723021507263 0.068451002240181
vt 0.949472010135651 0.217779994010925
vt 0.823248982429504 0.270186007022858
vt 0.775422990322113 0.209014996886253
vt 0.94097501039505 0.419110000133514
vt 0.819768011569977 0.352660000324249
vt 0.811679005622864 0.554313004016876
vt 0.767019987106323 0.408122986555099
vt 0.642656028270721 0.552837014198303
vt 0.69590300321579 0.404087007045746
vt 0.522316992282867 0.395673990249634
vt 0.648077011108398 0.342914998531342
vt 0.530350983142853 0.193991005420685
vt 0.651557981967926 0.26044100522995
vt 0.659116983413696 0.0585969984531403
vt 0.70430600643158 0.204978004097939
vt 0.755248010158539 0.918330013751984
vt 0.805158019065857 0.862022995948792
vt 0.876070976257324 0.893918991088867
vt 0.784982025623322 0.9941166639328
vt 0.80563497543335 0.779681026935577
vt 0.875912010669708 0.744343996047974
vt 0.754306018352509 0.720704019069672
vt 0.784597992897034 0.638707995414734
vt 0.684557974338531 0.721763014793396
vt 0.655619978904724 0.638891994953156
vt 0.632845997810364 0.779352009296417
vt 0.56453001499176 0.744789004325867
vt 0.632196009159088 0.86300402879715
vt 0.564688980579376 0.89436399936676
vt 0.684499979019165 0.917289972305298
vt 0.656002998352051 0.994300663471222
vt 0.84986400604248 0.846697986125946
vt 0.503166973590851 0.990305006504059
vt 0.503166973590851 0.876908004283905
vt 0.769680976867676 0.766514003276825
vt 0.156469002366066 0.846697986125946
vt 0.236652001738548 0.766514003276825
vt 0.0128619996830821 0.5
vt 0.126258999109268 0.5
vt 0.156469002366066 0.153301998972893
vt 0.236652001738548 0.233485996723175
vt 0.503166973590851 0.00969500001519918
vt 0.503166973590851 0.123092003166676
vt 0.849865019321442 0.153301998972893
vt 0.769680976867676 0.233485996723175
vt 0.993471026420593 0.5
vt 0.880074977874756 0.5
vt 0.503166973590851 0.5
vt 0.994300663471222 0.196802005171776
vt 0.992368459701538 0.449369013309479
vt 0.828041970729828 0.612689971923828
vt 0.615549027919769 0.611563980579376
vt 0.641026973724365 0.00569935748353601
vt 0.858815014362335 0.00824357103556395
vt 0.777783989906311 0.846843004226685
vt 0.777552008628845 0.793931007385254
vt 0.741680026054382 0.759445011615753
vt 0.699128985404968 0.7603719830513
vt 0.664493978023529 0.793366014957428
vt 0.664492011070251 0.848774015903473
vt 0.695837020874023 0.884461998939514
vt 0.74345201253891 0.884496986865997
vt 0 0
vt 1 0
vt 1 1
vt 0 1
vn 0.51442304731458 0.515178667771245 0.685536190631119
vn -0.00100278608039938 0.728204826149756 0.685358829805439
vn -0.511580844329534 0.512345831723809 0.689772997753841
vn -0.720596166489171 0.000761684472580458 0.693354587983577
vn -0.507501350070365 -0.506742550082403 0.696889064064533
vn 4.09875406340403e-09 -0.715766159051624 0.698340035768024
vn 0.507501324407491 -0.506742567530119 0.696889070066123
vn 0.723359306834283 -0.000251453505812343 0.690471759007825
vn 0.457624347193024 0.457622571655837 -0.762339516729427
vn 0.00117315087017986 0.647004963125799 -0.762484886019139
vn 0.00341172474576888 0.751765725677852 -0.659421453874767
vn 0.54406336804834 0.541324264333305 -0.641064031428923
vn -0.458427216413143 0.458425444423466 -0.761374151883845
vn -0.519705645915511 0.522549228843963 -0.675905574054631
vn -0.648313211747317 -6.79164155428806e-07 -0.761373744933076
vn -0.730750352078892 -6.1396808597888e-07 -0.68264479997741
vn -0.458426849469408 -0.458426047462461 -0.761374009730762
vn -0.519705368906636 -0.522549177673955 -0.675905826607443
vn -3.9342664560827e-09 -0.648312242770159 -0.761374570020779
vn 0.00281109736807099 -0.752322374403459 -0.658789148896314
vn 0.458426845318153 -0.45842603833223 -0.761374017727597
vn 0.544445889114323 -0.54170601240672 -0.640416481634353
vn 0.647005937595533 0.00117247458755718 -0.762484060174025
vn 0.774093425107071 0.000604073595312397 -0.633071089452911
vn 0.145027728069215 0.9453471505414 -0.292037194641945
vn 0.578886887254492 0.773193582368337 -0.258962653580054
vn -0.558691511762162 0.763594303343331 -0.32370902765682
vn -0.930871026588319 0.142410755374263 -0.336449563251524
vn -0.757949065327949 -0.573453061824274 -0.310909633580006
vn -0.144798245928919 -0.948965653166016 -0.280174333383885
vn 0.578887555103866 -0.773193109258372 -0.258962573244166
vn 0.959521008473705 -0.139684268677664 -0.244556209043219
vn 0.605408715686057 0.605409100968793 0.516681824177624
vn 3.10078684333175e-09 0.85617772286246 0.516681436548724
vn 0.00171278108791949 0.903513008725075 0.428557241737328
vn 0.640551513077597 0.640505461166179 0.423611276184075
vn -0.605408714514184 0.605409103272899 0.516681822850957
vn -0.640016655037077 0.629673708589653 0.440329083738632
vn -0.851521432948216 -0.0122044002945623 0.524177738790258
vn -0.894346521246662 -0.00810388976365962 0.447301494413659
vn -0.602795075308201 -0.602795806310592 0.522757413221987
vn -0.640179970896248 -0.632792127215685 0.435595831703113
vn -0.0122036669780922 -0.851520966705369 0.524178513269518
vn -0.0127982256385795 -0.904872511220211 0.425490239439794
vn 0.605408409406409 -0.605409078060237 0.516682209895266
vn 0.641344433857011 -0.644266698251112 0.416650619446605
vn 0.856177419104014 -6.55092570677525e-07 0.516681939897226
vn 0.908753861236937 0.00638394554566171 0.417283674406545
vn 0.500759222000682 0.696703549082106 -0.513657829958494
vn 0.15234304269617 0.841677521710041 -0.51804492738576
vn 0.00190622891678652 0.674456792785389 -0.73831185887602
vn 0.480687566155958 0.480173871788263 -0.733738725020651
vn -0.496809978289806 0.692902307025757 -0.522557402004857
vn -0.474823997894654 0.468428985054028 -0.745061377998209
vn -0.846106143777788 0.138808152630303 -0.514622862128028
vn -0.661473598988848 3.21502058043716e-05 -0.749968450541158
vn -0.70728376211069 -0.486558121744163 -0.512845857952798
vn -0.471058100227142 -0.466304026619311 -0.748775547790533
vn -0.148119729697606 -0.846918014659232 -0.510676435837775
vn -0.00267221690616852 -0.675690735905109 -0.737180363729813
vn 0.489930781882552 -0.703787559884516 -0.514442318939403
vn 0.482238560037734 -0.483262465304536 -0.730686910270408
vn 0.843074083793778 -0.13768229488311 -0.519874672311512
vn 0.682708798965028 0.00459023630728848 -0.730676142724239
vn 0.0389931728249406 0.0389930614731701 0.998478379149991
vn 0 0.0551444312393096 0.998478388200412
vn -0.0389931728249403 0.0389930614731701 0.998478379149991
vn -0.0551448345953211 -5.95406155522036e-08 0.998478365923594
vn -0.0389931455049583 -0.0389931178658345 0.998478378014632
vn 0 -0.0551444250435273 0.998478388542596
vn 0.0389931455049586 -0.0389931178658345 0.998478378014632
vn 0.0551448345953217 -5.95406155487333e-08 0.998478365923594
vn -0.600489306808135 -0.600491281907887 0.528036753230027
vn 0 -0.849221626629838 0.528036579096725
vn -0.311466916847072 -0.751948724733125 0.581000408848398
vn 0.600489306808135 -0.600491281907887 0.528036753230027
vn 0.849221642215443 1.09976036706574e-06 0.528036554029829
vn 0.600488998099962 0.600492767077976 0.528035415334937
vn 0 0.849222821565111 0.528034657321838
vn -0.600488998099962 0.600492767077976 0.528035415334937
vn -0.849221642215443 1.09976036730112e-06 0.528036554029829
vn -0.801105166206246 0.331828073055047 0.498117097287613
vn -0.370473776845093 0.894401429742567 0.250589830489158
vn -0.894401569789748 0.370473224345618 0.250590147453159
vn -0.875334322664923 -0.386746138428109 0.290202081273871
vn -0.38674698434956 -0.875333983118975 0.290201978100756
vn 0.370472898436129 -0.894401765573961 0.250589930489067
vn 0.894401569789748 -0.370473224345618 0.250590147453159
vn 0.894401236540387 0.370474093597584 0.25059005177396
vn -0.390818923446227 0.918373762937242 0.0620499848897847
vn -0.925835706163688 0.361749924565962 0.109385726988969
vn -0.925080786867816 -0.362390909791956 0.113570974584974
vn -0.383585906951009 -0.919939772900017 0.0810719817522493
vn 0.366777075816182 -0.929185170105454 0.0457110086503142
vn 0.926860719390904 -0.374630885977794 0.0241019941429833
vn 0.916395260374143 0.396956125745219 0.051435017227102
vn 0 -1 0
vn 0 -0.999999999999993 -1.15610575335267e-07
vn -0.00866272157101545 -0.999935807401087 0.00730330966891115
vn -1.40430946871105e-08 -0.999999999999993 1.13589244676859e-07
vn 0 0 1
vn 0.809017037476413 0.58778519296839 0
vn 0.309016905543999 0.951056545158074 0
vn -0.309017113411662 0.951056477617772 0
vn -0.809017073152032 0.587785143865103 0
vn -0.999999999999993 -1.19448013251959e-07 0
vn -0.809016958493395 -0.58778530167919 0
vn -0.309016922961585 -0.951056539498759 0
vn 0.309017091591547 -0.95105648470756 0
vn 0.809017050907779 -0.587785174481698 0
vn 0.999999999999999 -4.81410189621537e-08 0
vn 0 0 -1
g vaseDshort vaseDShort vaseDShortAll
f 1/1/1 2/2/2 3/3/2 4/4/1
f 2/2/2 5/5/3 6/6/3 3/3/2
f 5/5/3 7/7/4 8/8/4 6/6/3
f 7/7/4 9/9/5 10/10/5 8/8/4
f 9/9/5 11/11/6 12/12/6 10/10/5
f 11/11/6 13/13/7 14/14/7 12/12/6
f 13/13/7 15/15/8 16/16/8 14/14/7
f 15/15/8 1/1/1 4/4/1 16/16/8
f 4/17/9 3/18/10 17/19/11 18/20/12
f 3/18/10 6/21/13 19/22/14 17/19/11
f 6/21/13 8/23/15 20/24/16 19/22/14
f 8/23/15 10/25/17 21/26/18 20/24/16
f 10/25/17 12/27/19 22/28/20 21/26/18
f 12/27/19 14/29/21 23/30/22 22/28/20
f 14/29/21 16/31/23 24/32/24 23/30/22
f 16/31/23 4/17/9 18/20/12 24/32/24
f 18/20/12 17/19/11 25/33/25 26/34/26
f 17/19/11 19/22/14 27/35/27 25/33/25
f 19/22/14 20/24/16 28/36/28 27/35/27
f 20/24/16 21/26/18 29/37/29 28/36/28
f 21/26/18 22/28/20 30/38/30 29/37/29
f 22/28/20 23/30/22 31/39/31 30/38/30
f 23/30/22 24/32/24 32/40/32 31/39/31
f 24/32/24 18/20/12 26/34/26 32/40/32
f 33/41/33 34/42/34 35/43/35 36/44/36
f 34/42/34 37/45/37 38/46/38 35/43/35
f 37/45/37 39/47/39 40/48/40 38/46/38
f 39/47/39 41/49/41 42/50/42 40/48/40
f 41/49/41 43/51/43 44/52/44 42/50/42
f 43/51/43 45/53/45 46/54/46 44/52/44
f 45/53/45 47/55/47 48/56/48 46/54/46
f 47/55/47 33/41/33 36/44/36 48/56/48
f 49/57/49 50/58/50 51/59/51 52/60/52
f 50/58/50 53/61/53 54/62/54 51/59/51
f 53/61/53 55/63/55 56/64/56 54/62/54
f 55/63/55 57/65/57 58/66/58 56/64/56
f 57/65/57 59/67/59 60/68/60 58/66/58
f 59/67/59 61/69/61 62/70/62 60/68/60
f 61/69/61 63/71/63 64/72/64 62/70/62
f 63/71/63 49/57/49 52/60/52 64/72/64
f 52/73/65 51/74/66 65/75/66 66/76/65
f 51/74/66 54/77/67 67/78/67 65/75/66
f 54/77/67 56/79/68 68/80/68 67/78/67
f 56/79/68 58/81/69 69/82/69 68/80/68
f 58/81/69 60/83/70 70/84/70 69/82/69
f 60/83/70 62/85/71 71/86/71 70/84/70
f 62/85/71 64/87/72 72/88/72 71/86/71
f 64/87/72 52/73/65 66/76/65 72/88/72
f 66/76/73 65/75/74 73/89/75
f 65/75/74 67/78/76 73/89/75
f 67/78/76 68/80/77 73/89/77
f 68/80/77 69/82/78 73/89/77
f 69/82/78 70/84/79 73/89/79
f 70/84/79 71/86/80 73/89/79
f 71/86/80 72/88/81 73/89/82
f 72/88/81 66/76/73 73/89/75
f 25/90/83 27/91/27 37/45/37 34/42/34
f 27/91/84 28/92/28 39/47/39 37/45/37
f 28/92/85 29/93/29 41/49/41 39/47/39
f 29/93/86 30/38/30 43/51/43 41/49/41
f 30/38/87 31/39/31 45/53/45 43/51/43
f 31/39/88 32/94/32 47/55/47 45/53/45
f 32/94/89 26/95/89 33/41/33 47/55/47
f 26/95/26 25/90/25 34/42/34 33/41/33
f 35/96/35 38/97/38 53/61/53 50/58/90
f 38/97/38 40/98/40 55/63/55 53/61/91
f 40/98/40 42/99/42 57/65/57 55/63/92
f 42/99/42 44/100/44 59/67/59 57/65/93
f 44/100/44 46/101/46 61/69/61 59/67/94
f 46/101/46 48/102/48 63/71/63 61/69/95
f 48/102/48 36/103/36 49/57/96 63/71/96
f 36/103/36 35/96/35 50/58/50 49/57/49
g pPlane4 flowers vaseDShort vaseDShortAll
f 74/104/97 75/105/97 76/106/97 77/107/97
g pPlane5 flowers vaseDShort vaseDShortAll
f 78/104/98 79/105/98 80/106/98 81/107/98
g pPlane8 flowers vaseDShort vaseDShortAll
f 82/104/97 83/105/97 84/106/97 85/107/97
g pPlane10 flowers vaseDShort vaseDShortAll
f 86/104/99 87/107/99 88/106/99 89/105/99
g pPlane12 flowers vaseDShort vaseDShortAll
f 90/104/97 91/105/97 92/106/97 93/107/97
g pPlane14 flowers vaseDShort vaseDShortAll
f 94/104/97 95/105/97 96/106/97 97/107/97
g pPlane15 flowers vaseDShort vaseDShortAll
f 98/104/100 99/105/100 100/106/100 101/107/100
g shadow1 vaseDShort vaseDShortAll
f 102/104/101 103/105/101 104/106/101 105/107/101
g pCylinder1
f 106//102 107//103 108//103 109//102
f 107//103 110//104 111//104 108//103
f 110//104 112//105 113//105 111//104
f 112//105 114//106 115//106 113//105
f 114//106 116//107 117//107 115//106
f 116//107 118//108 119//108 117//107
f 118//108 120//109 121//109 119//108
f 120//109 122//110 123//110 121//109
f 122//110 124//111 125//111 123//110
f 124//111 106//102 109//102 125//111
f 106//112 124//112 122//112 120//112 118//112 116//112 114//112 112//112 110//112 107//112
f 109//101 108//101 111//101 113//101 115//101 117//101 119//101 121//101 123//101 125//101
