v 4.40651350446886 1.5782612828132 4.85888303421301
v 4.40651350446886 1.01513136716027 4.85888303421301
v 4.40651350446886 1.01513136716027 9.30318456935132
v 4.40651350446886 1.5782612828132 9.30318456935132
v 4.8941980196735 1.29669632498674 4.85888303421301
v 4.8941980196735 1.29669632498674 9.30318456935132
v 4.56907467579278 1.29669632498674 4.85888303421301
v 4.56907467579278 1.29669632498674 9.30318456935132
v 4.32905812901775 1.05371988351577 9.14134829063115
v 4.32905812901775 1.52017876232077 9.14134829063115
v 5.85984457821984 1.52017876232077 9.14134829063115
v 5.85984457821984 1.05371988351577 9.14134829063115
v 4.32905812901775 1.75340820172327 9.54531471873206
v 5.85984457821984 1.75340820172327 9.54531471873206
v 4.32905812901775 1.52017876232077 9.94928014560009
v 5.85984457821984 1.52017876232077 9.94928014560009
v 4.32905812901775 1.05372000866988 9.94928014560009
v 5.85984457821984 1.05372000866988 9.94928014560009
v 4.32905812901775 0.820490569267373 9.54531471873206
v 5.85984457821984 0.820490569267373 9.54531471873206
v 5.86393060959543 1.78428922738303 10.0482750439581
v 5.86393060959543 0.768152997875464 10.0482750439581
v 5.86393060959543 0.768152997875464 9.03213881445056
v 5.86393060959543 1.78428922738303 9.03213881445056
v 4.32646243278123 1.78428922738303 10.0482750439581
v 4.32646243278123 1.78428922738303 9.03213881445056
v 4.32646243278123 0.768152997875464 9.03213881445056
v 4.32646243278123 0.768152997875464 10.0482750439581
v 5.03416787295204 2.00817678857037 5.40324784326428
v 5.03416787295204 0.544265186379901 5.40324784326428
v 5.03416787295204 0.544265186379901 3.93933674169025
v 5.03416787295204 2.00817678857037 3.93933674169025
v 2.79170158966946 0.946141728578903 4.08250253031573
v 2.79170259090233 1.6277571049888 4.08250453278149
v 5.02857248301268 1.6277571049888 4.08250453278149
v 5.0285714817798 0.946141853733013 4.08250328124039
v 2.79170334182699 1.96856438644289 4.67280240196568
v 5.02857198239624 1.96856426128878 4.67280190134925
v 2.79170259090233 1.62775723014291 5.26309826868413
v 5.02857198239624 1.62775748045113 5.26309776806769
v 2.79170133936124 0.946141916310067 5.26309576560193
v 5.02857098116336 0.946142166618287 5.26309676683481
v 2.79170133936124 0.605334384547757 4.67279789641773
v 5.02857098116336 0.605334447124812 4.67279889765061
v 6.96166431497088 -6.42958112901903 -9.70726563861677e-05
v 6.96166431497088 7.18623283966946 -9.70726563861677e-05
v -6.78916790979741 7.18623283966946 -9.70726563861677e-05
v -6.78916790979741 -6.42958112901903 -9.70726563861677e-05
v 5.06373528107571 -5.08261853315699 2.16170533748436
v 5.06373528107571 5.18806837988025 2.16170533748436
v -5.30879303539206 5.18806837988025 2.16170533748436
v -5.30879303539206 -5.08261853315699 2.16170533748436
v 3.43997584866101 -1.45813348725086 4.39888210747186
v 3.43997584866101 -1.0934764631777 5.27923914391225
v -3.40513895189981 -1.0934764631777 5.27923914391225
v -3.40513895189981 -1.45813348725086 4.39888210747186
v 3.43997584866101 -0.513394173048926 6.03521852668502
v -3.40513895189981 -0.513394173048926 6.03521852668502
v 3.43997634927745 0.242584709107406 6.61530181804667
v -3.40513895189981 0.242584709107406 6.61530181804667
v 3.43997559835279 1.12294274678068 6.97995784088695
v -3.40513895189981 1.12294274678068 6.97995784088695
v 3.43997634927745 2.06768105974973 7.10433699640389
v -3.40513845128337 2.06768206098261 7.10433699640389
v 3.43997584866101 -1.58251064030204 3.65867764931025
v -3.40513895189981 -1.58251064030204 3.65867764931025
v -3.40513970282447 2.06768206098261 3.65867764931025
v 3.43997584866101 -3.47756413337127 3.65867764931025
v -3.40513895189981 -3.47756313213839 3.65867764931025
v -3.40513895189981 -3.47756313213839 2.03680303778861
v 3.43997584866101 -3.47756413337127 2.03680303778861
v -3.40513895189981 2.06768206098261 2.036808043953
v -3.40513895189981 -1.58251064030204 2.03680303778861
v -3.40513845128337 2.06768206098261 9.28430231850291
v -3.40513845128337 4.09753554136421 9.28430231850291
v -3.40513845128337 4.09753554136421 7.10433699640389
v 3.43997584866101 4.09753554136421 9.28430231850291
v 3.43997584866101 4.09753554136421 7.10433699640389
v -3.40513845128337 4.09753554136421 2.03681305011739
v 3.43997584866101 4.09753554136421 2.03746735580324
v 3.43997634927745 2.06768105974973 9.28430231850291
v 3.44041088434655 2.06768105974973 3.65867764931025
v 3.44041138496299 -1.58251064030204 2.03680053470642
v 3.43997509773635 2.06768206098261 2.03746184902241
v -4.39730566630526 4.6788638658098 -0.0210607380378903
v -4.39730566630526 -4.15014907756815 -0.0210607380378903
v -4.39730566630526 -4.15014907756815 2.12182623194897
v -4.39730566630526 4.6788638658098 2.12182623194897
v 4.43170702676448 -4.15014907756815 2.12182623194897
v 4.43170702676448 4.6788638658098 2.12182623194897
v 4.43170702676448 -4.15014907756815 -0.0210607380378903
v 4.43170702676448 4.6788638658098 -0.0210607380378903
vt 0.31534144282341 0.439865529537201
vt 0.315341711044312 0.415907591581345
vt 0.641448259353638 0.415907621383667
vt 0.641448438167572 0.439865529537201
vt 0.315341711044312 0.412365436553955
vt 0.315341651439667 0.456412464380264
vt 0.641448020935059 0.45641228556633
vt 0.641448259353638 0.412365287542343
vt 0.315341532230377 0.456411898136139
vt 0.315341472625732 0.412365198135376
vt 0.641448497772217 0.412365436553955
vt 0.641448497772217 0.456412136554718
vt 2.1659848690033 0.159154936671257
vt 1.83265149593353 0.159154936671257
vt 2.33265161514282 0
vt 2.49931812286377 0.159154936671257
vt 2.83265137672424 0.159154936671257
vt 1.83265149593353 0.47746479511261
vt 2.1659848690033 0.47746479511261
vt 2.33265161514282 0.636619746685028
vt 2.49931812286377 0.47746479511261
vt 2.83265137672424 0.47746479511261
vt 0.378967463970184 0.512227177619934
vt 0.378967463970184 0.635749995708466
vt 0.229236111044884 0.635747134685516
vt 0.22923618555069 0.512226104736328
vt 0.378967016935349 0.765927970409393
vt 0.229235917329788 0.765926361083984
vt 0.378968477249146 0.886978387832642
vt 0.229237139225006 0.886977672576904
vt 0.378967761993408 0.139079570770264
vt 0.37896728515625 0.261003136634827
vt 0.229236483573914 0.26100355386734
vt 0.229236483573914 0.139080464839935
vt 0.37896740436554 0.385042071342468
vt 0.229236125946045 0.385041296482086
vt 1 1
vt 0 1
vt 0 0
vt 1 0
vt 1 -1.3596086034795e-08
vt 0 -1.3596086034795e-08
vt 0.229236364364624 0.139080464839935
vt 2.00939011573792 0.128694772720337
vt 2.00939035415649 0.300474941730499
vt 1.00696015357971 0.300474941730499
vt 1.00695991516113 0.128694772720337
vt 2.00939035415649 0.474923014640808
vt 1.00695967674255 0.474923014640808
vt 2.00939035415649 0.663586139678955
vt 1.0069591999054 0.663586139678955
vt 2.00939035415649 0.834071755409241
vt 1.00695896148682 0.834071755409241
vt 2.00939035415649 0.996447026729584
vt 1.03198385238647 0.996447086334229
vt 2.00939011573792 -0.00200045108795166
vt 1.00696015357971 -0.00200045108795166
vt 0.765659987926483 0.325916469097137
vt 0.715404629707336 0.447386860847473
vt 0.279746234416962 0.223784148693085
vt 0.635459780693054 0.551695883274078
vt 0.531273722648621 0.63173496723175
vt 0.409946441650391 0.682049632072449
vt 0.279746264219284 0.699211120605469
vt 0.782801270484924 0.223784148693085
vt 0.998710632324219 -0.608516693115234
vt -0.000789403915405273 -0.608517408370972
vt -0.000789403915405273 -0.994442045688629
vt 0.998710632324219 -0.99444317817688
vt 0.279746234416962 7.2655552685319e-07
vt 0.782801270484924 -2.98486639849216e-08
vt 2.00910472869873 0.418923616409302
vt 1.00601470470428 0.418924808502197
vt 1.00601470470428 0.00592303927987814
vt 2.00910472869873 0.00592375453561544
vt 0.99999988079071 -2.98486639849216e-08
vt 0.99999988079071 0.223784148693085
vt 0.279746264219284 0.999999940395355
vt -5.73709684204005e-08 0.999999940395355
vt -5.73709684204005e-08 0.699211120605469
vt 0.000312305055558681 -0.00435912609100342
vt -1.00237965583801 -0.00435912609100342
vt -1.00237965583801 -0.297782838344574
vt 0.000312305055558681 -0.297782838344574
vt -5.73709684204005e-08 1.48295964663703e-06
vt -1.00237965583801 -1.004359126091
vt 0.000312305055558681 -1.004359126091
vt 0.998710751533508 -0.583845734596252
vt 0.0142258331179619 -0.583844542503357
vt 0.0242359712719917 -0.992683887481689
vt 0.998710751533508 -0.992683172225952
vt 1.00065875053406 0.995298206806183
vt 0.00401842594146729 0.99529755115509
vt 0.00401842594146729 0.408458024263382
vt 1.00065875053406 0.408456891775131
vt -2.40769529342651 0.00384029746055603
vt -1.41167855262756 0.00384063902311027
vt -1.41167867183685 0.402246683835983
vt -2.40769481658936 0.402246981859207
vt 0.20445591211319 0.19134533405304
vt 0.801290512084961 0.19134533405304
vt 0.801290512084961 0.798326015472412
vt 0.20445591211319 0.798326015472412
vt -1.39684820175171 -0.097357451915741
vt -2.3928644657135 -0.0973577201366425
vt -2.3928644657135 -0.495763778686523
vt -1.39684772491455 -0.495764136314392
vt -1.99907600879669 0.00384038686752319
vt -1.00305879116058 0.00384066300466657
vt -1.00305891036987 0.402246713638306
vt -1.99907529354095 0.402247071266174
vt -0.60927027463913 0.503445029258728
vt -1.6052873134613 0.503445088863373
vt -1.60528647899628 0.90185135602951
vt -0.609270215034485 0.901851058006287
vn -1 0 0
vn 0.500000121947118 -0.866025333378226 0
vn 0.50000025605753 0.866025255949505 0
vn 0 0 -1
vn 0 7.1766697828916e-07 -0.999999999999743
vn 0 4.78444690088454e-07 -0.999999999999886
vn 0 0 1
vn 0 1.43533395657721e-06 0.99999999999897
vn 0 9.56889380176579e-07 0.999999999999542
vn 0 0.866025775206876 -0.499999356676916
vn 0 0.999999999999856 5.36612313626101e-07
vn 0 0.866025775206876 0.499999356676916
vn 0 -0.866025775206876 0.499999356676916
vn 0 -0.999999999999787 6.5279243025014e-07
vn 0 -0.86602593405681 -0.499999081540186
vn 1 0 0
vn 1.67851624155085e-07 2.06828963200233e-06 -0.999999999997847
vn 7.85938153081733e-08 0.500001732454922 -0.866024403548809
vn 3.23030867133923e-08 0.999999999999883 4.83633110639243e-07
vn 8.61987027452738e-08 0.866025549836613 0.49999974703012
vn -1.11900902765898e-07 -2.06829008674969e-06 0.999999999997855
vn -1.58848791974464e-07 -0.500001667689715 0.866024440941177
vn 3.97993432969088e-08 -0.999999999999745 -7.13150735055819e-07
vn 2.27283865900934e-07 -0.86602539989851 -0.500000006730574
vn 0 -0.96116922856989 0.275959623949523
vn 0 -0.866025281759079 0.500000211354063
vn 0 -0.707107198418945 0.707106363953904
vn 0 -0.500000192460167 0.866025292667481
vn -5.07957668635872e-09 -0.258819814784462 0.965925620053085
vn -1.0072241640696e-08 -0.13052786800316 0.991444640751338
vn 0 -0.986174901577118 0.165707765356247
vn -0.999999999999904 -2.00830925223253e-07 3.8904749999343e-07
vn -0.999999999999983 -1.83212250703943e-07 0
vn -0.999999999999983 -5.84220174459905e-08 1.75211383179882e-07
vn -0.999999999999976 -1.51365100009567e-07 1.59564322643742e-07
vn -0.999999999999982 -1.08013111344005e-07 1.59564322643743e-07
vn -0.999999999999951 1.99149411628231e-07 2.42184938770139e-07
vn -0.999999999999767 4.82079315133775e-07 4.8436987754019e-07
vn -0.999999999999966 -1.54291313947391e-07 2.11490544188557e-07
vn -1.42024532578942e-07 -0.99999999999999 0
vn -0.999999999999932 -1.02860802542175e-07 -3.55113911609781e-07
vn 0 1 0
vn -0.999999999999991 1.23313384392531e-07 5.1095121023081e-08
vn 0 -3.18988959691069e-08 1
vn -1.40886626809332e-07 -0.99999999999999 0
vn 0.99999999267233 -0.00011634812022985 3.34433168341565e-05
vn 0.999999995304524 -6.76381966066421e-05 6.93976031850242e-05
vn 0.999999992479375 -0.000106141014041276 6.14437590156018e-05
vn 0.999999992293199 -8.7871462942896e-05 8.77052364165233e-05
vn 0.99999999217006 -6.23886585007214e-05 0.000108478269854548
vn 0.999999992057939 -3.25998077781385e-05 0.000121743068063454
vn 0.999999999101717 -5.73765184248418e-06 4.19957861620788e-05
vn 0.999999995638681 -7.797468442197e-05 5.14061018531663e-05
vn 0.99999999610333 -5.73712271249533e-05 6.70960626363531e-05
vn 0.999999999999985 1.71435871720857e-07 0
vn 0.999999984387674 -0.000114913897075344 0.000134236540994338
vn 0.99999999999997 2.46626740363346e-07 0
vn 0.999999999999993 -6.16565714040003e-08 -1.02203401297628e-07
vn 0 -1 0
g Stem RegisterHandle Register
f 1/1/1 2/2/1 3/3/1 4/4/1
f 2/5/2 5/6/2 6/7/2 3/8/2
f 5/9/3 1/10/3 4/11/3 6/12/3
f 2/13/4 1/14/5 7/15/6
f 5/16/5 2/13/4 7/15/6
f 1/17/5 5/16/5 7/15/6
f 4/18/7 3/19/8 8/20/9
f 3/19/8 6/21/8 8/20/9
f 6/21/8 4/22/7 8/20/9
g Round1 RegisterHandle Register
f 9/23/4 10/24/4 11/25/4 12/26/4
f 10/24/10 13/27/11 14/28/11 11/25/10
f 13/27/11 15/29/12 16/30/12 14/28/11
f 15/31/7 17/32/7 18/33/7 16/34/7
f 17/32/13 19/35/14 20/36/14 18/33/13
f 19/35/14 9/23/15 12/26/15 20/36/14
g End1a RegisterHandle Register
f 21/37/16 22/38/16 23/39/16 24/40/16
g End1b RegisterHandle Register
f 25/37/1 26/41/1 27/42/1 28/38/1
g End2a RegisterHandle Register
f 29/37/16 30/38/16 31/42/16 32/41/16
g Round2 RegisterHandle Register
f 33/23/17 34/24/18 35/25/18 36/26/17
f 34/24/18 37/27/19 38/28/19 35/25/18
f 37/27/19 39/29/20 40/30/20 38/28/19
f 39/31/21 41/32/22 42/33/22 40/43/21
f 41/32/22 43/35/23 44/36/23 42/33/22
f 43/35/23 33/23/24 36/26/24 44/36/23
g RegisterShadow1 ShadowsAll Register
f 45/39/7 46/40/7 47/37/7 48/38/7
g RegisterShadow2 ShadowsAll Register
f 49/39/7 50/40/7 51/37/7 52/38/7
g RegisterMain Register
f 53/44/25 54/45/26 55/46/26 56/47/25
f 54/45/26 57/48/27 58/49/27 55/46/26
f 57/48/27 59/50/28 60/51/28 58/49/27
f 59/50/28 61/52/29 62/53/29 60/51/28
f 61/52/29 63/54/30 64/55/30 62/53/29
f 65/56/31 53/44/25 56/47/25 66/57/31
f 56/58/32 55/59/33 67/60/34
f 55/59/33 58/61/35 67/60/34
f 58/61/35 60/62/36 67/60/34
f 60/62/36 62/63/37 67/60/34
f 62/63/37 64/64/38 67/60/34
f 66/65/39 56/58/32 67/60/34
f 68/66/40 69/67/40 70/68/40 71/69/40
f 66/65/39 67/60/34 72/70/41 73/71/41
f 65/72/7 66/73/7 69/74/7 68/75/7
f 66/65/1 73/71/1 70/76/1 69/77/1
f 64/64/1 74/78/1 75/79/1 76/80/1
f 75/81/42 77/82/42 78/83/42 76/84/42
f 64/64/43 76/80/43 79/85/43 72/70/43
f 76/84/42 78/83/42 80/86/42 79/87/42
f 77/88/44 75/89/44 74/90/44 81/91/44
f 81/92/45 74/93/45 64/94/45 63/95/45
f 53/58/46 82/60/47 54/59/48
f 54/59/48 82/60/47 57/61/49
f 57/61/49 82/60/47 59/62/50
f 59/62/50 82/60/47 61/63/51
f 61/63/51 82/60/47 63/64/52
f 65/65/53 82/60/47 53/58/46
f 65/65/53 83/71/54 84/70/55 82/60/47
f 65/65/56 68/77/56 71/76/56 83/71/56
f 63/64/57 78/80/57 77/79/57 81/78/57
f 63/64/58 84/70/58 80/85/58 78/80/58
g RegisterBase Register
f 85/96/1 86/97/1 87/98/1 88/99/1
f 88/100/7 87/101/7 89/102/7 90/103/7
f 90/104/16 89/105/16 91/106/16 92/107/16
f 86/108/59 91/109/59 89/110/59 87/111/59
f 92/112/42 85/113/42 88/114/42 90/115/42
