v 0.00380047565213651 0.00911819457694927 0.000140148189329491
v 0.00482660539819812 0.00716915935903709 0.00327468930384306
v 0.00443630546253184 0.00481368519189789 0.00172967734084198
v 0.003290382944771 0.00671437523496433 -0.00105137922104419
v 0.000880454334471952 0.00546495393505247 0.00686244183559743
v -0.000106844775442259 0.00716915935903709 0.00327468930384306
v -0.0001066829627282 0.00481368519189789 0.00172967734084198
v 0.00111108469798809 0.00291299465994822 0.00516689893376483
v 0.000591200087072812 0.00911819457694927 0.000140148265717497
v 0.00047124564779673 0.0106024480085048 0.00226752529424319
v 0.00299823218638816 0.0106024480085048 0.00226752529424319
v 0.000711154556904096 0.00671437523496433 -0.00105137922104419
v 0.00351122128251656 0.00546495393505247 0.00686244183559743
v 0.00281965389378427 0.00828031030070438 0.00696596579523537
v 0.000649823848735003 0.00828031030070438 0.00696596579523537
v 0.00321853739695912 0.00291299465994822 0.00516689893376483
v 0.00357648499525125 0.00935517583932151 0.00479126353980362
v -0.000107006603433919 0.00935517583932151 0.00479126353980362
v -0.00401448917983398 0.00911819457694927 0.0001401482962727
v -0.00350439671691008 0.00671437523496433 -0.00105137922104419
v -0.00465031899022931 0.00481368519189789 0.00172967734084198
v -0.00504061892589559 0.00716915935903709 0.00327468905940143
v -0.00109446780105901 0.00546495393505247 0.00686244134671419
v -0.00132509822568556 0.00291299465994822 0.00516689844488159
v -0.000107330557330465 0.00481368568078114 0.00172967721862117
v -0.000107168752255207 0.00716915935903709 0.00327468930384306
v -0.000805213675880682 0.00911819457694927 0.000140148510159118
v -0.00321224571408562 0.0106024470307383 0.00226752529424319
v -0.000685259206049398 0.0106024480085048 0.00226752553868481
v -0.000925168145711966 0.00671437523496433 -0.00105137922104419
v -0.00372523481021403 0.00546495393505247 0.00686244183559743
v -0.000863837376432469 0.00828031030070438 0.00696596530635213
v -0.00303366742148174 0.00828031030070438 0.00696596530635213
v -0.00343255092465659 0.0029129944155066 0.00516689893376483
v -0.00379049852294872 0.00935517583932151 0.00479126305092038
v -0.000107006931902347 0.00935517583932151 0.00479126353980362
v 0.000491272505278094 0.00192012364079007 0.00112280836255532
v 0.000491272505278094 -0.00201170711614328 0.00112280836255532
v 0.00135489211478178 -0.00201170711614328 0.00112280836255532
v 0.00135489211478178 0.00192012364079007 0.00112280836255532
v 0.0019275168997714 -0.00201170711614328 0
v 0.00135489211478178 -0.00201170711614328 -0.00112280836255532
v 0.00135489211478178 0.00316188682916909 -0.00112280836255532
v 0.00192751726643383 0.00254100511275877 0
v -8.13522491563233e-05 0.00316342412252126 -0.001126751939221
v 0.000736696384009393 0.00671437523496433 -0.00105137922104419
v 0.00331592501631792 0.00671437523496433 -0.00105137922104419
v 0.00324407922406442 0.00291299465994822 0.00516689893376483
v 0.00113662652509339 0.00291299465994822 0.00516689893376483
v -8.13522644339245e-05 -0.00201170711614328 0
v 0.00446184728963714 0.00481368519189789 0.00172967734084198
v -8.11411356229026e-05 0.00481368519189789 0.00172967734084198
v 0.0011467933409788 0.00641369444178784 0.00532266446768142
v 0.00278721392403357 0.00641369444178784 0.00532266446768142
v 0.00335938820311636 0.00722630589887539 0.00335047745055414
v 0.00292222147552593 0.00816926047245036 0.0017705813460932
v 0.00101178578948644 0.00816926047245036 0.0017705813460932
v 0.000574619428558435 0.00722630589887539 0.00335047745055414
v 0.000675365675840301 0.00828031030070438 0.00696596579523537
v 0.00284519596533119 0.00828031030070438 0.00696596579523537
v 0.00360202682235655 0.00935517583932151 0.00479126353980362
v 0.00302377425793507 0.0106024480085048 0.00226752529424319
v 0.000496787474902028 0.0106024480085048 0.00226752529424319
v -8.1464776328622e-05 0.00935517583932151 0.00479126353980362
v -0.000654202164878547 0.00192012364079007 0.00112280836255532
v -0.00151782186604784 0.00192012364079007 0.00112280824033451
v -0.00151782174382703 -0.00201170711614328 0.00112280824033451
v -0.000654202164878547 -0.00201170711614328 0.00112280848477613
v -0.00209044652881665 -0.00201170711614328 -3.11724581697204e-11
v -0.00209044701769989 0.00254100511275877 1.15867626444158e-11
v -0.00151782174382703 0.00316188682916909 -0.00112280836255532
v -0.00151782174382703 -0.00201170711614328 -0.00112280824033451
v -8.15773416949239e-05 0.00316342412252126 -0.001126751939221
v -0.00347885488980479 0.00671437523496433 -0.00105137922104419
v -0.000899626013054643 0.00671437523496433 -0.00105137922104419
v -0.00129955615413864 0.00291299490438984 0.00516689893376483
v -0.00340700909755129 0.00291299465994822 0.00516689893376483
v -8.15773569725252e-05 -0.00201170711614328 -1.63798746365876e-11
v -0.00462477667424077 0.00481368519189789 0.00172967734084198
v -8.17884781447465e-05 0.00481368519189789 0.00172967734084198
v -0.00130972297002405 0.00641369444178784 0.00532266446768142
v -0.00073754899649328 0.00722630540999215 0.00335047745055414
v -0.00117471541853169 0.00816925998356711 0.00177058110165158
v -0.00308515086012956 0.00816926047245036 0.00177058122387239
v -0.00352231758771999 0.00722630540999215 0.00335047720611252
v -0.0029501433086372 0.0064136939529046 0.00532266446768142
v -0.000838295243775146 0.00828031030070438 0.00696596579523537
v -0.00300812534993482 0.00828031030070438 0.00696596579523537
v -0.00376495620696018 0.00935517486155502 0.00479126353980362
v -0.0031867036425387 0.0106024480085048 0.00226752529424319
v -0.000659717134502481 0.0106024470307383 0.00226752529424319
v -8.14648450778278e-05 0.00935517486155502 0.00479126402868686
vt 0.661259889602661 0.0127562656998634
vt 0.636326611042023 0.483840197324753
vt 0.277370035648346 0.456103384494781
vt 0.318685710430145 0.0275730360299349
vt 0.670803129673004 0.99016261100769
vt 0.640384674072266 0.483436614274979
vt 0.281428635120392 0.455699741840363
vt 0.28056925535202 0.957688450813293
vt 0.0131508111953735 0.654861450195312
vt 0.029617065563798 0.418594032526016
vt 0.229050010442734 0.408737152814865
vt 0.265443295240402 0.646343052387238
vt 0.210701182484627 0.916317403316498
vt 0.00633049011230469 0.92641818523407
vt 0.264694154262543 0.648771107196808
vt 0.212480425834656 0.918103754520416
vt 0.00739219784736633 0.928240060806274
vt 0.016039103269577 0.661060750484467
vt 0.0259163081645966 0.418776869773865
vt 0.225108742713928 0.408931940793991
vt 0.974558591842651 0.518841445446014
vt 0.988309621810913 0.828572988510132
vt 0.666745007038116 0.990566492080688
vt 0.276510924100876 0.958091616630554
vt 0.958588838577271 0.159405127167702
vt 0.978616833686829 0.518437743186951
vt 0.962646961212158 0.159001648426056
vt 0.665318489074707 0.0123526453971863
vt 0.322744160890579 0.0271694958209991
vt 0.992367506027222 0.828169584274292
vt 0.453513652086258 0.170247107744217
vt 0.029644912108779 0.170247107744217
vt 0.0296449083834887 0.170247107744217
vt 0.0296449046581984 0.0772373229265213
vt 0.0296449083834887 0.0172064676880836
vt 0.58738124370575 0.0172064676880836
vt 0.520447432994843 0.0772373229265213
vt 0.587546944618225 0.0168798007071018
vt 0.970355272293091 0.023123424500227
vt 0.970355153083801 0.023123424500227
vt 0.654076099395752 0.369337677955627
vt 0.0296449139714241 0.0772373229265213
vt 0.76545238494873 0.220518112182617
vt 0.226227924227715 0.379294574260712
vt 0.443973481655121 0.379294574260712
vt 0.519922494888306 0.626085638999939
vt 0.461894035339355 0.840827941894531
vt 0.208307325839996 0.840827941894531
vt 0.150278896093369 0.626085638999939
vt 0.157132029533386 0.247424423694611
vt 0.513078451156616 0.247424423694611
vt 0.637231588363647 0.596636295318604
vt 0.542373061180115 0.991410255432129
vt 0.127837419509888 0.991410255432129
vt 0.032978929579258 0.596636295318604
vn 0.952383219742975 0.255689538843226 -0.16609955592398
vn 0.989699852944071 0.117026166996477 0.0824565177569204
vn 0.988876877845283 -0.131487957476193 -0.069522927885006
vn 0.94174184319857 0.0150318946462716 -0.336000510285777
vn -0.963410369830946 -0.151505302241228 0.221103149446121
vn -0.999398749485522 -0.0246647275153081 0.0243678218840056
vn -0.998756966974042 -0.0493145417402279 0.00725237159576324
vn -0.960954354545385 -0.182523496252724 0.207970915745316
vn -1.00354398195558e-08 0.652518913505747 -0.757772437818425
vn -7.6196904853026e-09 0.82012028293053 -0.572191158203224
vn -1.18236667757849e-08 0.444115125086745 -0.895969729214768
vn 0 -0.306578218125893 0.951845468640132
vn 0 -0.0367463399748887 0.999324625183654
vn 0 -0.553397258284809 0.832917447603816
vn 0.908885622770392 0.351266281184439 0.22480863956737
vn 0.884255770994233 0.207823884786522 0.418211626303757
vn 0.946238827575302 -0.0299067446928617 0.322083324328959
vn 0.942365173907002 -0.265555912534504 0.203538537690516
vn 0.880266613646057 0.47412886799798 0.0182347314501285
vn -0.999142557305435 -7.80651220640167e-05 0.0414022232131653
vn -0.980836981307485 0.120162350111152 -0.153361747888397
vn -0.979343335914733 0.103530332255252 -0.17368966780589
vn -0.977171907249379 0.0868266631971264 -0.193897380695729
vn -0.964767503898863 -0.120314298868094 0.233983189371877
vn -0.95238320377988 0.255689605244632 -0.166099545236634
vn -0.941741853070857 0.0150319150063699 -0.336000481704878
vn -0.988876881426186 -0.131487936075462 -0.0695229174261008
vn -0.989699851021808 0.11702615186802 0.0824565623002491
vn 0.963410365823236 -0.151505313829751 0.221103158968134
vn 0.960954351452329 -0.182523523555206 0.207970906075408
vn 0.998756964495667 -0.0493145863213377 0.00725240976199079
vn 0.999398749030803 -0.0246647312293761 0.0243678367740794
vn -3.14678878823344e-08 0.652518997265691 -0.757772365692611
vn -9.40743331581167e-08 0.82012037496662 -0.572191026288076
vn 3.31062650449724e-08 0.44411517904235 -0.89596970247
vn 1.56990775663489e-07 -0.306578173314999 0.951845483073179
vn 1.01769229274252e-07 -0.0367462699715408 0.999324627757751
vn 2.00428041000958e-07 -0.5533972382072 0.832917460943522
vn -0.946238828052372 -0.0299067043513572 0.322083326673261
vn -0.884255756550131 0.207823939396879 0.418211629706203
vn -0.908885620106366 0.351266250352525 0.224808698513078
vn -0.942365180909709 -0.265555889005257 0.203538535967123
vn -0.88026655844393 0.474128970699768 0.01823472589481
vn 0.979343330220408 0.10353035631567 -0.173689685571569
vn 0.980836976670416 0.120162363313043 -0.153361767201161
vn 0.999142557616326 -7.80306849819385e-05 0.0414022157754676
vn 0.977171900913984 0.0868266981429994 -0.193897396975141
vn 0.964767497560607 -0.120314294506058 0.233983217748953
vn 0 0 1
vn 0.999999999999998 -3.69419361582246e-08 5.01814015830753e-08
vn 0.89083776726744 -3.06652488858091e-08 -0.45432155177799
vn 0.828573622692512 -0.197235951677591 -0.523988292945599
vn 0.926452870584568 -0.318408249243999 -0.200751750674769
vn 0.000989654899166453 0.0202748653977198 -0.999793953980662
vn 0.411857135250685 -0.206429983167325 -0.887558652818301
vn 0.00098965760174026 0.0202748311428941 -0.999793954672641
vn 0.377790697161485 -0.923770825219578 0.0626230916785356
vn 0.377790683700443 -0.923770830832648 0.0626230900859402
vn 0 -0.971159468565285 0.238430884358536
vn 0.890837803787819 -3.84978607977138e-08 0.454321480168497
vn -0.991163850923256 0.0138952856450675 0.131913386962139
vn -0.941324112345166 0.0414414479248049 0.334950028976684
vn -0.941324095705601 0.0414414447310304 0.334950076134694
vn -0.961372315619622 -0.0936680993210276 0.258823410706514
vn 0.73684239069146 -0.571887252244022 -0.360566584698133
vn -0.999709850948113 -0.000664705647658362 0.0240784568381035
vn -0.965593551360872 0.225208371898989 -0.13003954320477
vn -0.957913262324694 -0.226487290753265 0.176368049798448
vn 0 0.895518190099245 0.445024910764973
vn 0 0.660781837265756 -0.750578019622006
vn -0.952655614852487 0.227438196881301 -0.201789856259951
vn -0.994349075285934 0.105275111801853 0.013677255320994
vn -0.973310810133836 -0.0235294136505757 0.228281478814809
vn 0 -0.20010502199912 0.97977445372429
vn 0.947667488844591 0.117115327463201 0.297002240160197
vn 0.965213890226312 0.247064616398752 0.0855641364002844
vn 0.923012752177269 0.361720582204113 -0.131170422458958
vn -2.12282360115864e-07 1.55424777945701e-08 0.999999999999977
vn -0.999999999999993 -6.48583124984721e-08 1.00362797184061e-07
vn -0.926452887559409 -0.318408245760921 -0.200751677861696
vn -0.828573662384216 -0.197235976739782 -0.523988220748055
vn -0.890837755205642 -5.11087545564376e-08 -0.45432157542887
vn -0.000989654829503681 0.0202748653856035 -0.999793953980976
vn -0.000989658823742564 0.0202748094539702 -0.999793955111261
vn -0.41185715575287 -0.206429997424754 -0.887558639988577
vn -0.377790697311604 -0.923770824520382 0.0626231010869372
vn 7.00927222956449e-08 -0.971159457517353 0.238430929358162
vn -0.377790760522993 -0.92377080006134 0.0626230805493509
vn -0.890837788504301 -6.64527266611548e-08 0.454321510136558
vn 0.991163849503888 0.0138952842680543 0.131913397771962
vn 0.961372311014456 -0.0936681065359267 0.258823425200847
vn 0.941324090190905 0.041441447343049 0.334950091309704
vn 0.941324103093919 0.0414414437922319 0.334950055487148
vn -0.736842486130293 -0.571887174190362 -0.360566513461653
vn 0.965593549332524 0.225208381774298 -0.130039541163528
vn 0.999709850794488 -0.000664666939461469 0.024078464284984
vn 0.957913256054123 -0.226487307356813 0.176368062534144
vn 0 0.895518178149663 0.44502493481097
vn -2.11586280069484e-07 0.660781807703727 -0.75057804564732
vn 0.95265563636067 0.227438142411545 -0.201789816112292
vn 0.994349074733131 0.105275119299348 0.0136772378013436
vn 0.973310799348075 -0.023529450642736 0.228281520988586
vn -9.09682937778672e-08 -0.200105222261943 0.979774412823427
vn -0.947667520792193 0.117115242088889 0.297002171887747
vn -0.965213883053359 0.247064664821073 0.085564077496973
vn -0.923012764861177 0.361720527570186 -0.131170483866122
g vertex
f 1/1/1 2/2/2 3/3/3 4/4/4
f 5/5/5 6/6/6 7/7/7 8/8/8
f 9/9/9 10/10/10 11/11/10 1/12/9
f 9/9/9 1/12/9 4/13/11 12/14/11
f 13/15/12 14/16/13 15/17/13 5/18/12
f 13/15/12 5/18/12 8/19/14 16/20/14
f 2/2/2 17/21/15 14/22/16 13/23/17
f 2/2/2 13/23/17 16/24/18 3/3/3
f 1/1/1 11/25/19 17/21/15 2/2/2
f 6/6/6 18/26/20 10/27/21 9/28/22
f 6/6/6 9/28/22 12/29/23 7/7/7
f 5/5/5 15/30/24 18/26/20 6/6/6
f 19/1/25 20/4/26 21/3/27 22/2/28
f 23/5/29 24/8/30 25/7/31 26/6/32
f 27/9/33 19/12/33 28/11/34 29/10/34
f 27/9/33 30/14/35 20/13/35 19/12/33
f 31/15/36 23/18/36 32/17/37 33/16/37
f 31/15/36 34/20/38 24/19/38 23/18/36
f 22/2/28 31/23/39 33/22/40 35/21/41
f 22/2/28 21/3/27 34/24/42 31/23/39
f 19/1/25 22/2/28 35/21/41 28/25/43
f 26/6/32 27/28/44 29/27/45 36/26/46
f 26/6/32 25/7/31 30/29/47 27/28/44
f 23/5/29 26/6/32 36/26/46 32/30/48
g noshade
f 37/31/49 38/32/49 39/33/49 40/31/49
f 41/34/50 42/35/51 43/36/52 44/37/53
f 45/38/54 46/39/54 47/40/55 43/36/56
f 40/31/57 48/41/58 49/41/59 37/31/59
f 41/34/50 44/37/53 40/31/60 39/33/60
f 45/38/61 50/42/62 38/32/63 37/31/64
f 44/37/53 51/43/65 48/41/58 40/31/57
f 44/37/53 43/36/52 47/40/55 51/43/65
f 45/38/61 52/43/66 46/39/67
f 45/38/61 37/31/64 49/41/68 52/43/66
f 53/44/69 54/45/69 55/46/69 56/47/69 57/48/69 58/49/69
f 59/50/70 60/51/70 54/45/70 53/44/70
f 60/51/71 61/52/72 55/46/72 54/45/71
f 61/52/72 62/53/73 56/47/73 55/46/72
f 62/53/74 63/54/74 57/48/74 56/47/74
f 63/54/75 64/55/76 58/49/76 57/48/75
f 64/55/76 59/50/77 53/44/77 58/49/76
f 65/31/78 66/31/78 67/33/78 68/32/78
f 69/34/79 70/37/80 71/36/81 72/35/82
f 73/38/83 71/36/84 74/40/85 75/39/83
f 66/31/86 65/31/87 76/41/87 77/41/88
f 69/34/79 67/33/89 66/31/89 70/37/80
f 73/38/90 65/31/91 68/32/92 78/42/93
f 70/37/80 66/31/86 77/41/88 79/43/94
f 70/37/80 79/43/94 74/40/85 71/36/81
f 73/38/90 75/39/95 80/43/96
f 73/38/90 80/43/96 76/41/97 65/31/91
f 81/44/98 82/49/98 83/48/98 84/47/98 85/46/98 86/45/98
f 87/50/99 81/44/99 86/45/99 88/51/99
f 88/51/100 86/45/100 85/46/101 89/52/101
f 89/52/101 85/46/101 84/47/102 90/53/102
f 90/53/103 84/47/103 83/48/103 91/54/103
f 91/54/104 83/48/104 82/49/105 92/55/105
f 92/55/105 82/49/105 81/44/106 87/50/106
