v -0.0250819474067588 0.0101668941067273 -0.00843426895580485
v -0.0112887755466571 -0.020464323949939 -0.00843426895580485
v -0.00137560010895016 -0.0189681065677032 0.153679632868345
v -0.0138212376692164 0.00867067672449147 0.153679632868345
v 0.00834211589783195 0.00679650957503031 -0.00843426895580485
v 0.0163374297575062 0.00562952963385995 0.153679632868345
v 0.201654408725383 0.0545214682578678 0.208965373004711
v 0.222599411402633 -0.164026955958551 0.145992367323933
v 0.337398741850564 -0.154933769018256 0.155996084213698
v 0.314672002908803 0.0636807504961552 0.218084178750572
v 0.0840725749826603 0.0555974653547358 0.162137068000628
v 0.105908448292687 -0.162984006603439 0.099606519133702
v -0.00500056800489768 0.0755393258956098 0.0593166742458229
v 0.0177261709368634 -0.143075193618802 -0.0027714202910513
v -0.168846940976604 0.245901953990581 0.131040176354656
v 0.0754029502065194 0.29929153115107 0.108833306651751
v 0.0455030310401339 0.419425183850361 0.0803654577333127
v -0.198297957815033 0.363924240498867 0.102218138213853
v -0.138982259318103 0.110480843408066 0.120288155930501
v 0.105043180071044 0.164926106627188 0.0982583813358533
v -0.117757552298586 -0.014889320106378 0.0386708099371136
v 0.126043436556581 0.0406116232451159 0.0168181294565731
v -0.0655650013467961 -0.275670365226606 0.0421324857963925
v -0.247793304539858 -0.127127545966361 0.085418026463573
v -0.323727830549709 -0.207582710001116 0.0364528975736
v -0.140188370436728 -0.354508085807372 -0.00676309602008279
v 0.0188591173966003 -0.174777572200666 0.0576694568888762
v -0.164024766096523 -0.0270434769373643 0.100920223921704
v 0.0950545843207435 -0.064312327016855 0.00571478425175214
v -0.088484875792238 0.0826130487894014 0.0489307778454349
v 0 -4.88708100671862e-11 0.147611874040923
v 0.0414742550250552 0.116945322153495 0.287801901343713
v -0.108580956149067 0.0681894465176036 0.287801901343713
v -0.108580967347309 -0.0895879353146271 0.287801901343713
v 0.0414742354281313 -0.138343827747882 0.287801901343713
v 0.134213441441871 -0.0106992517379783 0.287801901343713
v 0.0691237593082788 0.202041705453954 0.300238842728678
v -0.180968263981192 0.120781907128347 0.300238842728678
v -0.180968286377677 -0.14218039032625 0.300238842728678
v 0.0691237201144311 -0.223440211048341 0.300238842728678
v 0.22368907653528 -0.0106992516756855 0.300238842728678
v 0.0878072985706296 0.266231284075952 0.258727272360978
v -0.237744079934568 0.16045322555867 0.258727272360978
v -0.237744079934568 -0.181851708756572 0.258727272360978
v 0.0878072593767818 -0.287629767273854 0.258727272360978
v 0.289009050520177 -0.010699251883604 0.258727272360978
v 5.00560336710128e-09 0.0381709126305659 0.165812564195668
v -0.0381709126305659 3.337062372334e-09 0.165812564195668
v -0.0845595630548086 7.6621385124785e-09 0.226069692789988
v 0.00308460348566798 0.0876442591060423 0.226069692789988
v -1.668531186167e-09 -0.0381709126305659 0.165812564195668
v 0.00308458784380156 -0.0876442591060423 0.226069692789988
v 0.0381709126305659 0 0.165812564195668
v 0.090728955157276 0 0.226069692789988
v 0 0 0.134066838139177
v -0.0081167574056773 0.00954380850176624 0.084288499902857
v 0.0220848510739424 0.018428218945822 0.0872396963881611
v 0.021032764867548 -0.0152781230548449 0.137890816150992
v -0.00776759908580155 -0.022616625872937 0.131934168873801
v -0.00115651130950469 0.039160046817444 0.0927606196322069
v -0.00139665785712852 0.00326493529021168 0.146368505238227
v 0.0188695024866573 -0.0137901009415046 -0.00843426895580485
v -0.00568504716605857 0.00913584581612611 -0.00843426895580485
v -0.0132621811147852 -0.0235920404707065 -0.00843426895580485
v -0.150967378124847 0.176369757035564 0.0151248250634825
v 0.0649110982698697 0.248858075914692 0.0327212271012444
v 0.032254751686525 0.349132871391238 0.0170125275882827
v -0.182982684807497 0.274763349150679 -0.000473592102967312
v -0.120301506559315 0.0857629164171834 0.0736865497513061
v 0.0952564489854076 0.159191839617142 0.0912278104610399
v -0.0742446014713586 -0.0350290706838565 0.0185391827775821
v 0.140992835022663 0.0393404515567026 0.0360253024688322
v -0.0374105372745385 -0.25226504873677 0.0487663973390249
v -0.223241389045313 -0.0839438373157614 0.0604482495148433
v -0.281336956275267 -0.164898327398856 0.0512454405040959
v -0.0940886991974618 -0.331599311232422 0.039175444980594
v 0.00156263600828195 -0.175601024246438 0.105511761586853
v -0.18497692333459 -0.008089926285086 0.117387686170068
v 0.0821216413014974 -0.0790471924938127 0.0217432621687517
v -0.105126621635031 0.0876537965555817 0.033813258069906
v 0.279230950538665 0.0587068783236748 -0.000560790958870917
v 0.218666308592413 -0.170184438126323 0.0324005662486837
v 0.324084704810027 -0.208616023886297 0.0540260712697989
v 0.382646216775234 0.0208141373641074 0.0212576107990029
v 0.15331783324006 0.0946020501991621 0.0138017460918368
v 0.0937547590955592 -0.134558689407263 0.0466666546602973
v 0.0211822776660334 0.120094534618292 0.010815797220288
v -0.0373792342991739 -0.109335626632113 0.043584257691084
v -0.0242080839633603 0.005088952935918 0.140996460539138
v -0.101433070931198 -0.0766237819992036 0.281565674369373
v -0.0672747060398746 -0.171593478485291 0.160290513405453
v 0.0850423157452116 -0.151765270373478 0.12423404026359
v 0.145021031269023 -0.0445410704149386 0.223225078010987
v 0.029772899398664 0.0018989084238013 0.320461360244815
v -0.149662902517883 -0.0528894754408027 0.291068411636983
v -0.103261705174722 -0.181897638726055 0.126326538845763
v 0.103647853908042 -0.154962722622997 0.0773469276947247
v 0.185123775519734 -0.00930787499937443 0.211817733596799
v 0.0285691121836745 0.0537768413331804 0.343904854659353
v -0.163025581177656 -0.0123476246392981 0.261565146965356
v -0.116339888277117 -0.142146571544152 0.0958134263210206
v 0.0994781606011958 -0.13764439742921 0.0663817375854744
v 0.173813377773275 0.0315011398579722 0.18182865748982
v 0.0103389251261859 0.112601113618683 0.299241938782546
v -0.0391404393020279 -0.00516479707153784 0.143528770238273
v -0.00493550801301733 -0.038648953547956 0.118571382352982
v -0.0143722792473636 -0.112546394744042 0.133833884374497
v -0.0929102558033821 -0.0356634778122469 0.191138492062553
v 0.0365864240098015 -0.0148351878161104 0.143528765874507
v 0.0809662478177022 -0.0578676689818325 0.191138481835392
v 0.00238148909076766 0.0186489665784003 0.168486151577912
v 0.0024282829043849 0.0190153996095683 0.248443220795366
v 0.001352249267001 0.0105891945857451 0.119508703352065
vt 0.00252723437733948 0.763594031333923
vt 0.210038900375366 0.763594031333923
vt 0.35917803645134 1
vt 0.171938970685005 1
vt 0.50537645816803 0.763594031333923
vt 0.625662803649902 1
vt 0.0219345986843109 0.700957655906677
vt 0.978065371513367 0.695425570011139
vt 0.978065371513367 0.992543935775757
vt 0.0219345986843109 0.992543935775757
vt 0.0219345986843109 0.350478827953339
vt 0.978065371513367 0.347712785005569
vt 0.0219345986843109 0
vt 0.978065371513367 0
vt 0.0126223862171173 0.980597972869873
vt 0.0844366550445557 0.524857580661774
vt 0.473812282085419 0.892577230930328
vt 0.0844367444515229 0.524857699871063
vt 0.473811984062195 0.892576456069946
vt 0.0844365358352661 0.524857640266418
vt 0.473811894655228 0.892576575279236
vt 0.0844364762306213 0.524857580661774
vt 0.473811984062195 0.892576515674591
vt 0.130898207426071 0.230008602142334
vt 0.770172595977783 0.835510909557343
vt 0.1308983117342 0.230008542537689
vt 0.770172595977783 0.835510730743408
vt 0.130898296833038 0.230009242892265
vt 0.770171761512756 0.835509777069092
vt 0.130898296833038 0.230008751153946
vt 0.77017217874527 0.835509955883026
vt 0.164787292480469 0.0149472951889038
vt 0.993679702281952 0.792471528053284
vt 0.164787381887436 0.0149476528167725
vt 0.993680119514465 0.792471170425415
vt 0.16478756070137 0.0149475550279021
vt 0.993679583072662 0.792471647262573
vt 0.164787352085114 0.014947384595871
vt 0.993680477142334 0.792471408843994
vt 0.500000059604645 0.29289373755455
vt 0.146446615457535 0.29289373755455
vt -1.45581928734373e-08 0.986561477184296
vt 0.500000059604645 0.986561477184296
vt 0.499999970197678 0.29289373755455
vt 0.499999970197678 0.986561477184296
vt 0.853553414344788 0.29289373755455
vt 1 0.986561477184296
vt 0.5 -1.12856657352722e-08
vt 0.105176836252213 0.906836628913879
vt 0.298922955989838 0.904487431049347
vt 0.576377153396606 0.903135895729065
vn -0.91020777673055 -0.409863994338137 0.0594416463804442
vn 0.810698478731135 -0.583794154625765 -0.0441855361833615
vn 0.100328609652583 0.994951892564828 0.00221394824860307
vn -0.209517963396338 -0.288317543151328 0.934331427987646
vn -0.0580072831681257 -0.279930195522044 0.958266268181471
vn -0.57381565352413 -0.278247494806116 0.770268737133214
vn -0.756265768485364 -0.24948586560352 0.604829637403214
vn 0.0687932355062252 0.0939717055055816 0.993195252361265
vn 0.0336291118208058 0.241666508877647 0.969776459461166
vn 0.151342612840298 -0.293937098788671 0.943767129907781
vn 0.191045941112426 -0.51386067840029 0.83633046792429
vn -0.0338657394463845 -0.31905327548978 0.947131521538056
vn -0.13189051106608 -0.42539318472224 0.895346598520706
vn 0.220315896080351 -0.0119280979504614 0.975355640991324
vn 0.362127384589098 0.182061340982855 0.914175817581161
vn 0.176574889860308 -0.567436108775557 0.804262128120225
vn -0.138054776812821 -0.430662205987685 0.891891777590187
vn 0.358475559816582 -0.266188804455648 0.894784216108365
vn 0.349170056189548 0.248082738970294 0.903623387526897
vn -0.218553188487363 0.661472088257534 0.717418413659856
vn -0.132295961116361 0.401611927850626 0.906203971565123
vn -0.437295713078491 -0.00567827298332983 0.899299847959011
vn 0.0632710360422246 0.185700102945585 0.980567309145141
vn -0.152075616831541 0.112543150274352 0.981940449361178
vn -0.152075633019243 -0.112543172277128 0.981940444332342
vn 0.0632710203415085 -0.18570014954799 0.980567301332651
vn 0.200567721865615 -1.73473492895198e-08 0.979679840022054
vn 0.168256231777228 0.500300587686618 0.849346314778932
vn -0.414082890376415 0.304843187540978 0.857674758231446
vn -0.41408293109696 -0.304843211076289 0.857674730206532
vn 0.168256193954223 -0.500300683437983 0.849346265870126
vn 0.536363246925903 -4.72441396564145e-08 0.843987243592639
vn -0.582975293534239 0.582975162750921 -0.565932652127622
vn -0.621050974468324 0.621050123565031 -0.478113408232612
vn -0.582975396556468 -0.582975061121283 -0.565932650693053
vn -0.621050913818732 -0.621050317152816 -0.478113235551271
vn 0.571928892825713 -0.571929168193254 -0.588042828475041
vn 0.601843567022399 -0.601844421264481 -0.524945343275447
vn 0.571928925828906 0.571929100434132 -0.588042862278591
vn 0.601843415242807 0.601844696605996 -0.524945201612616
vn -0.538713355707388 0.538713664420725 -0.647746484474351
vn -0.538712739913515 -0.538715394847919 -0.647745557459659
vn 0.538713399531585 -0.538713646502247 -0.647746462929266
vn 0.538713070705595 0.538714552529509 -0.647745982885174
vn 0.308056686037268 -0.943326994373677 -0.123431194896836
vn 0.298283792400801 -0.793906533806953 -0.529848275235114
vn 0.690882485294114 0.717514578146705 0.0886240467411876
vn 0.662039109501415 0.619517606600746 0.421784485966776
vn -0.97703497380102 0.207384457032046 0.0489320646525713
vn -0.97524165658721 0.183049392640525 0.124083162076769
vn 0.635831287170228 0.728382864212319 -0.25529782094117
vn -0.972728530201603 0.230424980768092 -0.0265242298635357
vn 0.260038837630706 -0.915782263695859 0.306141549652705
vn -0.178310911487532 0.301325969100491 0.936700528018499
vn -0.1198670055727 0.116350705417961 0.985948484619647
vn -0.094641977816577 0.043758439925308 0.994549191830283
vn 0.0615695441294403 -0.396535233162705 0.915952509738519
vn -0.191667840131815 -0.278975182044517 0.940976241391053
vn -0.0252030332381203 -0.0985942512896052 0.994808514603811
vn -0.346029651264137 -0.441740030526319 0.82772533238788
vn 0.400374090764058 0.388315302521387 0.830007116398756
vn 0.00179593345751866 0.14148328651904 0.989939015424075
vn -0.138511493077316 0.175778433862199 0.974636603290911
vn 0.0733513789572223 0.122713385829662 0.989727740413137
vn 0.00426374521290633 0.140598424762879 0.990057525314038
vn 0.739851130737153 -0.418944644593235 0.526408291266014
vn 0.817137848029135 -0.563527604642017 0.121335799023806
vn 0.634464113877905 -0.0705965839687305 0.76972164483862
vn -0.150482371214771 -0.208094660354425 0.966463485231365
vn -0.449746101046941 -0.762237434663557 0.465534679471459
vn 0.128049688828283 -0.990178874060274 -0.0561166156829452
vn -0.0660003248775252 -0.933265903585047 0.353070404199568
vn -0.160509440218798 -0.630289878472798 0.759586327348902
vn -0.513055231252912 -0.624984848947394 0.588360661729031
vn -0.438977843788745 -0.857406259093692 0.268613029336899
vn 0.439262565146298 -0.867492175114705 0.233464611827687
vn 0.626769158293198 -0.527804108360591 0.573221811701297
vn 0.854920357364457 -0.446648973003794 0.263848209162929
vn 0.259944929306072 -0.392630194915807 0.882196216138132
vn 0.46201983475932 -0.0738147645238721 0.88379242632377
vn -0.946527513752284 -0.32231044198234 -0.0142001654592165
vn -0.101539733488776 -0.604783879095825 -0.789889955695624
vn 0.888583806468241 -0.0814188124573708 -0.451430831756587
vn 0.649351636814119 0.569855281036819 0.50359449008232
vn -0.477084323440124 0.423218846283757 0.770244348553058
vn -0.587282542088925 0.00334245616759089 -0.809375094591091
vn -0.635973564709826 -0.0773685373479571 -0.767822723302009
vn 0.569275516517989 -0.14435108336294 -0.809375160864925
vn 0.596120374098512 -0.234708182996222 -0.767823266396156
vn 0.6708417965471 0.738194838916274 -0.0709905895371738
vn 0.698157362931373 0.715934833042979 -0.00368936585773757
vn -0.463802269620428 0.883089910668437 -0.0709905935357058
vn -0.495835625360201 0.868408556649393 -0.0036893579085093
vn -0.532359276614492 0.0840179434115505 -0.842338759518632
vn 0.536390679965378 -0.0524624876658073 -0.842337655476825
vn 0.639655092059283 0.756194351015488 -0.137882075321253
vn -0.42909410024472 0.892673975936832 -0.137881927098163
g stem_bloom stem_bloom bloom petunia
f 1/1/1 2/2/1 3/3/1 4/4/1
f 2/2/2 5/5/2 6/6/2 3/3/2
f 5/5/3 1/1/3 4/4/3 6/6/3
g leaf1_bloom stem_bloom bloom petunia
f 7/7/4 8/8/4 9/9/5 10/10/5
f 11/11/6 12/12/6 8/8/4 7/7/4
f 13/13/7 14/14/7 12/12/6 11/11/6
g leaf2_bloom stem_bloom bloom petunia
f 15/7/8 16/8/8 17/9/9 18/10/9
f 19/11/10 20/12/10 16/8/8 15/7/8
f 21/13/11 22/14/11 20/12/10 19/11/10
g leaf3_bloom stem_bloom bloom petunia
f 23/7/12 24/8/12 25/9/13 26/10/13
f 27/11/14 28/12/14 24/8/12 23/7/12
f 29/13/15 30/14/15 28/12/14 27/11/14
g desat_petals_bloom head_bloom bloom petunia
f 31/15/16 32/16/17 33/17/18
f 31/15/16 33/18/18 34/19/19
f 31/15/20 34/19/19 35/20/21
f 31/15/20 35/20/21 36/21/22
f 31/15/16 36/22/22 32/23/17
f 33/17/18 32/16/17 37/24/23 38/25/24
f 34/19/19 33/18/18 38/26/24 39/27/25
f 35/20/21 34/19/19 39/27/25 40/28/26
f 36/21/22 35/20/21 40/28/26 41/29/27
f 32/23/17 36/22/22 41/30/27 37/31/23
f 38/25/24 37/24/23 42/32/28 43/33/29
f 39/27/25 38/26/24 43/34/29 44/35/30
f 40/28/26 39/27/25 44/35/30 45/36/31
f 41/29/27 40/28/26 45/36/31 46/37/32
f 37/31/23 41/30/27 46/38/32 42/39/28
g bulb_bloom head_bloom bloom petunia
f 47/40/33 48/41/33 49/42/34 50/43/34
f 48/41/35 51/44/35 52/45/36 49/42/36
f 51/44/37 53/46/37 54/47/38 52/45/38
f 53/46/39 47/40/39 50/43/40 54/47/40
f 48/41/33 47/40/33 55/48/41
f 51/44/35 48/41/35 55/48/42
f 53/46/37 51/44/37 55/48/43
f 47/40/39 53/46/39 55/48/44
g stem_wilt stem_wilt wilt petunia
f 56/49/45 57/50/45 58/3/46 59/4/46
f 57/50/47 60/51/47 61/6/48 58/3/48
f 60/51/49 56/49/49 59/4/50 61/6/50
f 62/2/51 63/5/51 60/51/47 57/50/47
f 63/5/52 64/1/52 56/49/49 60/51/49
f 64/1/53 62/2/53 57/50/45 56/49/45
g leaf1_wilt stem_wilt wilt petunia
f 65/7/54 66/8/54 67/9/55 68/10/55
f 69/11/56 70/12/56 66/8/54 65/7/54
f 71/13/57 72/14/57 70/12/56 69/11/56
g leaf2_wilt stem_wilt wilt petunia
f 73/7/58 74/8/58 75/9/59 76/10/59
f 77/11/60 78/12/60 74/8/58 73/7/58
f 79/13/61 80/14/61 78/12/61 77/11/61
g leaf3_wilt stem_wilt wilt petunia
f 81/7/62 82/8/62 83/9/63 84/10/63
f 85/11/64 86/12/64 82/8/62 81/7/62
f 87/13/65 88/14/65 86/12/64 85/11/64
g desat_petals_wilt head_wilt wilt petunia
f 89/15/66 90/16/67 91/17/68
f 89/15/66 91/18/68 92/19/69
f 89/15/70 92/19/69 93/20/70
f 89/15/70 93/20/70 94/21/71
f 89/15/66 94/22/71 90/23/67
f 91/17/72 90/16/73 95/24/74 96/25/75
f 92/19/76 91/18/72 96/26/75 97/27/76
f 93/20/77 92/19/76 97/27/76 98/28/78
f 94/21/79 93/20/77 98/28/78 99/29/80
f 90/23/73 94/22/79 99/30/80 95/31/74
f 96/25/75 95/24/74 100/32/81 101/33/81
f 97/27/82 96/26/82 101/34/82 102/35/82
f 98/28/78 97/27/83 102/35/83 103/36/83
f 99/29/80 98/28/84 103/36/84 104/37/84
f 95/31/85 99/30/85 104/38/85 100/39/85
g bulb_wilt head_wilt wilt petunia
f 105/40/86 106/41/86 107/42/87 108/43/87
f 106/41/88 109/44/88 110/45/89 107/42/89
f 109/44/90 111/46/90 112/47/91 110/45/91
f 111/46/92 105/40/92 108/43/93 112/47/93
f 106/41/86 105/40/86 113/48/94
f 109/44/88 106/41/88 113/48/95
f 111/46/90 109/44/90 113/48/96
f 105/40/92 111/46/92 113/48/97
