v -2.95244968714715 0 5.90489937429431
v -2.95244968714715 0 0
v 2.95244968714715 0 0
v 2.95244968714715 0 5.90489937429431
v 2.65358979335506e-06 1 1.99999999999824
v 1.05146368600306 1 1.70130071328289
v 0.324921209380278 2.00000104533845 1.70130071328289
v 1.78885473226913 1 0.894426490460985
v 1.44721443690356 2.05146166205885 0.894426490460985
v 0.552788318561891 2.70130136308156 0.894426490460985
v 1.90211319659111 0.3819665159929 0
v 1.90211319659111 1.6180334840071 0
v 1.44721443690356 -0.0514616620588491 -0.894426490460985
v 1.78885473226913 1 -0.894426490460985
v 1.44721443690356 2.05146166205885 -0.894426490460985
v -0.850651334917532 1.61803575089646 1.70130071328289
v -0.552785609766525 2.70130224322332 0.894426490460985
v -1.4472127627752 2.05146396629757 0.894426490460985
v 1.17557007528317 2.6180343006558 0
v 5.30789793340425e-07 2.99999999999993 0
v 0.552786512800313 2.70130194981012 -0.894426490460985
v -0.552785609766525 2.70130224322332 -0.894426490460985
v -0.850652646992898 0.381966055020351 1.70130071328289
v -1.78885473226887 1.00000094950583 0.894426490460985
v -1.44721499500847 -0.0514608938920493 0.894426490460985
v -1.17557093382852 2.6180336768861 0
v -1.90211286854498 1.61803449362928 0
v -1.44721387879824 2.05146243022535 -0.894426490460985
v -1.78885473226887 1.00000094950583 -0.894426490460985
v 0.324919086397739 -1.73513728984886e-06 1.70130071328289
v -0.552787415833946 -0.701301656396441 0.894426490460985
v 0.552784706732581 -0.701302536636039 0.894426490460985
v -1.90211286865597 0.381965506712311 0
v -1.1755709341191 -0.618033676674978 0
v -1.44721387898707 -0.0514624299654522 -0.894426490460985
v -0.552787415833946 -0.701301656396441 -0.894426490460985
v 1.44721332069251 -0.0514631983915601 0.894426490460985
v 5.30430620093725e-07 -0.99999999999993 0
v 1.1755700749926 -0.61803430086692 0
v 0.552786512494782 -0.701301949909393 -0.894426490460985
v -2.65341020698639e-06 1 -1.99999999999824
v -1.05146368585029 1 -1.7013007133773
v -0.324921209227512 2.00000104533845 -1.70130071331207
v 0.850651335070298 1.61803575089646 -1.70130071320651
v 0.850652647145663 0.381966055020351 -1.70130071320651
v -0.324919086244974 -1.73513728984886e-06 -1.70130071331206
v -2.91599988895655 0 7.28999961376191
v -2.91599988895655 0 0
v 2.91599988895655 0 0
v 2.91599988895655 0 7.28999961376191
v -2.94274033392851 0 5.88548066785702
v -2.94274033392851 0 0
v 2.94274033392851 0 0
v 2.94274033392851 0 5.88548066785702
v -2.62439983053804 0 6.56099947857858
v -2.62439983053804 0 0
v 2.62439983053804 0 0
v 2.62439983053804 0 6.56099947857858
vt 0 1
vt 0 0
vt 1 0
vt 1 1
vn 0 -1 0
vn 4.87567728206248e-07 3.19686581712513e-08 0.999999999999881
vn 0.540178054416232 -2.18166965692331e-07 0.841550752793345
vn 0.166924681995261 0.51373960904485 0.841550809303411
vn 0.898197664280834 -1.80036957348888e-07 0.439591805975068
vn 0.700033744885287 0.508603834365402 0.501273274462835
vn 0.27755886553917 0.854236571617954 0.439591805964366
vn 0.95105651475691 -0.309016999109169 4.9361479774955e-08
vn 0.951056542199679 0.309016914649006 0
vn 0.726657315334431 -0.527947201390081 -0.439591740840678
vn 0.865288964447207 1.0513652885304e-07 -0.501273386492709
vn 0.726657290730836 0.527947235253711 -0.439591740841071
vn -0.437012606714555 0.317508947373775 0.841550978794598
vn -0.267388451909985 0.822938905444802 0.501273352264503
vn -0.72665685148489 0.527947785599158 0.439591805964366
vn 0.587785399929921 0.809016887110041 -4.93531247285661e-08
vn 1.72625655851243e-07 0.999999999999984 4.93533234709135e-08
vn 0.267389043332775 0.82293868222983 -0.501273403239604
vn -0.277558206391355 0.854236819291466 -0.43959174085919
vn -0.43701319722427 -0.317508134606698 0.841550978794746
vn -0.865288984275874 5.77574775889039e-07 0.501273352264503
vn -0.726657497964461 -0.527946895796364 0.439591805964366
vn -0.587785104625947 0.809017101660937 -4.93531249029225e-08
vn -0.951056462939778 0.309017158585857 4.93533232947218e-08
vn -0.700033435445175 0.508604193518508 -0.501273342193872
vn -0.898197696144148 1.74523555326165e-07 -0.439591740870224
vn 0.166923837704848 -0.513739785695593 0.841550868931482
vn -0.267389550522494 -0.822938548483959 0.501273352264503
vn 0.277557819513251 -0.854236911492378 0.439591805964366
vn -0.951056572709826 -0.309016820748382 -4.93531248839574e-08
vn -0.587785392007669 -0.809016892865896 4.93533232947218e-08
vn -0.700033503400484 -0.508603979597105 -0.501273464343399
vn -0.277558498498723 -0.854236724380029 -0.43959174085919
vn 0.700033241719175 -0.508604373548914 0.501273430070914
vn -1.82597686128757e-07 -0.999999999999982 -4.93531249029225e-08
vn 0.587785184394314 -0.809017043705843 -8.15645846846043e-12
vn 0.267389088991375 -0.822938657200796 -0.501273419974483
vn -4.87477934875485e-07 3.19686582896547e-08 -0.999999999999881
vn -0.540178054366023 -9.09686327439055e-08 -0.841550752825597
vn -0.166924454294221 0.513739683012916 -0.841550809313594
vn 0.437012747460871 0.317508753723271 -0.841550978768248
vn 0.437013122509726 -0.317508237511634 -0.841550978768699
vn -0.166924065343545 -0.513739711714781 -0.841550868941621
g door_garage_ur_door door_garage_ur door_garage
f 1/1/1 2/2/1 3/3/1 4/4/1
g door_garage_ur_trigger door_garage_ur door_garage
f 5//2 6//3 7//4
f 6//3 8//5 9//6
f 6//3 9//6 7//4
f 7//4 9//6 10//7
f 8//5 11//8 12//9
f 11//8 13//10 14//11
f 11//8 14//11 12//9
f 12//9 14//11 15//12
f 5//2 7//4 16//13
f 7//4 10//7 17//14
f 7//4 17//14 16//13
f 16//13 17//14 18//15
f 10//7 19//16 20//17
f 19//16 15//12 21//18
f 19//16 21//18 20//17
f 20//17 21//18 22//19
f 5//2 16//13 23//20
f 16//13 18//15 24//21
f 16//13 24//21 23//20
f 23//20 24//21 25//22
f 18//15 26//23 27//24
f 26//23 22//19 28//25
f 26//23 28//25 27//24
f 27//24 28//25 29//26
f 5//2 23//20 30//27
f 23//20 25//22 31//28
f 23//20 31//28 30//27
f 30//27 31//28 32//29
f 25//22 33//30 34//31
f 33//30 29//26 35//32
f 33//30 35//32 34//31
f 34//31 35//32 36//33
f 5//2 30//27 6//3
f 30//27 32//29 37//34
f 30//27 37//34 6//3
f 6//3 37//34 8//5
f 32//29 38//35 39//36
f 38//35 36//33 40//37
f 38//35 40//37 39//36
f 39//36 40//37 13//10
f 41//38 42//39 43//40
f 42//39 29//26 28//25
f 42//39 28//25 43//40
f 43//40 28//25 22//19
f 29//26 33//30 27//24
f 33//30 25//22 24//21
f 33//30 24//21 27//24
f 27//24 24//21 18//15
f 41//38 43//40 44//41
f 43//40 22//19 21//18
f 43//40 21//18 44//41
f 44//41 21//18 15//12
f 22//19 26//23 20//17
f 26//23 18//15 17//14
f 26//23 17//14 20//17
f 20//17 17//14 10//7
f 41//38 44//41 45//42
f 44//41 15//12 14//11
f 44//41 14//11 45//42
f 45//42 14//11 13//10
f 15//12 19//16 12//9
f 19//16 10//7 9//6
f 19//16 9//6 12//9
f 12//9 9//6 8//5
f 41//38 45//42 46//43
f 45//42 13//10 40//37
f 45//42 40//37 46//43
f 46//43 40//37 36//33
f 13//10 11//8 39//36
f 11//8 8//5 37//34
f 11//8 37//34 39//36
f 39//36 37//34 32//29
f 41//38 46//43 42//39
f 46//43 36//33 35//32
f 46//43 35//32 42//39
f 42//39 35//32 29//26
f 36//33 38//35 34//31
f 38//35 32//29 31//28
f 38//35 31//28 34//31
f 34//31 31//28 25//22
g door_garage_ul_door door_garage_ul door_garage
f 1/4/1 2/3/1 3/2/1 4/1/1
g door_garage_ul_trigger door_garage_ul door_garage
f 5//2 6//3 7//4
f 6//3 8//5 9//6
f 6//3 9//6 7//4
f 7//4 9//6 10//7
f 8//5 11//8 12//9
f 11//8 13//10 14//11
f 11//8 14//11 12//9
f 12//9 14//11 15//12
f 5//2 7//4 16//13
f 7//4 10//7 17//14
f 7//4 17//14 16//13
f 16//13 17//14 18//15
f 10//7 19//16 20//17
f 19//16 15//12 21//18
f 19//16 21//18 20//17
f 20//17 21//18 22//19
f 5//2 16//13 23//20
f 16//13 18//15 24//21
f 16//13 24//21 23//20
f 23//20 24//21 25//22
f 18//15 26//23 27//24
f 26//23 22//19 28//25
f 26//23 28//25 27//24
f 27//24 28//25 29//26
f 5//2 23//20 30//27
f 23//20 25//22 31//28
f 23//20 31//28 30//27
f 30//27 31//28 32//29
f 25//22 33//30 34//31
f 33//30 29//26 35//32
f 33//30 35//32 34//31
f 34//31 35//32 36//33
f 5//2 30//27 6//3
f 30//27 32//29 37//34
f 30//27 37//34 6//3
f 6//3 37//34 8//5
f 32//29 38//35 39//36
f 38//35 36//33 40//37
f 38//35 40//37 39//36
f 39//36 40//37 13//10
f 41//38 42//39 43//40
f 42//39 29//26 28//25
f 42//39 28//25 43//40
f 43//40 28//25 22//19
f 29//26 33//30 27//24
f 33//30 25//22 24//21
f 33//30 24//21 27//24
f 27//24 24//21 18//15
f 41//38 43//40 44//41
f 43//40 22//19 21//18
f 43//40 21//18 44//41
f 44//41 21//18 15//12
f 22//19 26//23 20//17
f 26//23 18//15 17//14
f 26//23 17//14 20//17
f 20//17 17//14 10//7
f 41//38 44//41 45//42
f 44//41 15//12 14//11
f 44//41 14//11 45//42
f 45//42 14//11 13//10
f 15//12 19//16 12//9
f 19//16 10//7 9//6
f 19//16 9//6 12//9
f 12//9 9//6 8//5
f 41//38 45//42 46//43
f 45//42 13//10 40//37
f 45//42 40//37 46//43
f 46//43 40//37 36//33
f 13//10 11//8 39//36
f 11//8 8//5 37//34
f 11//8 37//34 39//36
f 39//36 37//34 32//29
f 41//38 46//43 42//39
f 46//43 36//33 35//32
f 46//43 35//32 42//39
f 42//39 35//32 29//26
f 36//33 38//35 34//31
f 38//35 32//29 31//28
f 38//35 31//28 34//31
f 34//31 31//28 25//22
g door_single_round_ur_door door_single_round_ur door_single_round
f 47/1/1 48/2/1 49/3/1 50/4/1
g door_single_round_ur_trigger door_single_round_ur door_single_round
f 5//2 6//3 7//4
f 6//3 8//5 9//6
f 6//3 9//6 7//4
f 7//4 9//6 10//7
f 8//5 11//8 12//9
f 11//8 13//10 14//11
f 11//8 14//11 12//9
f 12//9 14//11 15//12
f 5//2 7//4 16//13
f 7//4 10//7 17//14
f 7//4 17//14 16//13
f 16//13 17//14 18//15
f 10//7 19//16 20//17
f 19//16 15//12 21//18
f 19//16 21//18 20//17
f 20//17 21//18 22//19
f 5//2 16//13 23//20
f 16//13 18//15 24//21
f 16//13 24//21 23//20
f 23//20 24//21 25//22
f 18//15 26//23 27//24
f 26//23 22//19 28//25
f 26//23 28//25 27//24
f 27//24 28//25 29//26
f 5//2 23//20 30//27
f 23//20 25//22 31//28
f 23//20 31//28 30//27
f 30//27 31//28 32//29
f 25//22 33//30 34//31
f 33//30 29//26 35//32
f 33//30 35//32 34//31
f 34//31 35//32 36//33
f 5//2 30//27 6//3
f 30//27 32//29 37//34
f 30//27 37//34 6//3
f 6//3 37//34 8//5
f 32//29 38//35 39//36
f 38//35 36//33 40//37
f 38//35 40//37 39//36
f 39//36 40//37 13//10
f 41//38 42//39 43//40
f 42//39 29//26 28//25
f 42//39 28//25 43//40
f 43//40 28//25 22//19
f 29//26 33//30 27//24
f 33//30 25//22 24//21
f 33//30 24//21 27//24
f 27//24 24//21 18//15
f 41//38 43//40 44//41
f 43//40 22//19 21//18
f 43//40 21//18 44//41
f 44//41 21//18 15//12
f 22//19 26//23 20//17
f 26//23 18//15 17//14
f 26//23 17//14 20//17
f 20//17 17//14 10//7
f 41//38 44//41 45//42
f 44//41 15//12 14//11
f 44//41 14//11 45//42
f 45//42 14//11 13//10
f 15//12 19//16 12//9
f 19//16 10//7 9//6
f 19//16 9//6 12//9
f 12//9 9//6 8//5
f 41//38 45//42 46//43
f 45//42 13//10 40//37
f 45//42 40//37 46//43
f 46//43 40//37 36//33
f 13//10 11//8 39//36
f 11//8 8//5 37//34
f 11//8 37//34 39//36
f 39//36 37//34 32//29
f 41//38 46//43 42//39
f 46//43 36//33 35//32
f 46//43 35//32 42//39
f 42//39 35//32 29//26
f 36//33 38//35 34//31
f 38//35 32//29 31//28
f 38//35 31//28 34//31
f 34//31 31//28 25//22
g door_single_round_ul_door door_single_round_ul door_single_round
f 47/4/1 48/3/1 49/2/1 50/1/1
g door_single_round_ul_trigger door_single_round_ul door_single_round
f 5//2 6//3 7//4
f 6//3 8//5 9//6
f 6//3 9//6 7//4
f 7//4 9//6 10//7
f 8//5 11//8 12//9
f 11//8 13//10 14//11
f 11//8 14//11 12//9
f 12//9 14//11 15//12
f 5//2 7//4 16//13
f 7//4 10//7 17//14
f 7//4 17//14 16//13
f 16//13 17//14 18//15
f 10//7 19//16 20//17
f 19//16 15//12 21//18
f 19//16 21//18 20//17
f 20//17 21//18 22//19
f 5//2 16//13 23//20
f 16//13 18//15 24//21
f 16//13 24//21 23//20
f 23//20 24//21 25//22
f 18//15 26//23 27//24
f 26//23 22//19 28//25
f 26//23 28//25 27//24
f 27//24 28//25 29//26
f 5//2 23//20 30//27
f 23//20 25//22 31//28
f 23//20 31//28 30//27
f 30//27 31//28 32//29
f 25//22 33//30 34//31
f 33//30 29//26 35//32
f 33//30 35//32 34//31
f 34//31 35//32 36//33
f 5//2 30//27 6//3
f 30//27 32//29 37//34
f 30//27 37//34 6//3
f 6//3 37//34 8//5
f 32//29 38//35 39//36
f 38//35 36//33 40//37
f 38//35 40//37 39//36
f 39//36 40//37 13//10
f 41//38 42//39 43//40
f 42//39 29//26 28//25
f 42//39 28//25 43//40
f 43//40 28//25 22//19
f 29//26 33//30 27//24
f 33//30 25//22 24//21
f 33//30 24//21 27//24
f 27//24 24//21 18//15
f 41//38 43//40 44//41
f 43//40 22//19 21//18
f 43//40 21//18 44//41
f 44//41 21//18 15//12
f 22//19 26//23 20//17
f 26//23 18//15 17//14
f 26//23 17//14 20//17
f 20//17 17//14 10//7
f 41//38 44//41 45//42
f 44//41 15//12 14//11
f 44//41 14//11 45//42
f 45//42 14//11 13//10
f 15//12 19//16 12//9
f 19//16 10//7 9//6
f 19//16 9//6 12//9
f 12//9 9//6 8//5
f 41//38 45//42 46//43
f 45//42 13//10 40//37
f 45//42 40//37 46//43
f 46//43 40//37 36//33
f 13//10 11//8 39//36
f 11//8 8//5 37//34
f 11//8 37//34 39//36
f 39//36 37//34 32//29
f 41//38 46//43 42//39
f 46//43 36//33 35//32
f 46//43 35//32 42//39
f 42//39 35//32 29//26
f 36//33 38//35 34//31
f 38//35 32//29 31//28
f 38//35 31//28 34//31
f 34//31 31//28 25//22
g door_single_shuttered_ur_door door_single_shuttered_ur door_single_shuttered
f 51/1/1 52/2/1 53/3/1 54/4/1
g door_single_shuttered_ur_trigger door_single_shuttered_ur door_single_shuttered
f 5//2 6//3 7//4
f 6//3 8//5 9//6
f 6//3 9//6 7//4
f 7//4 9//6 10//7
f 8//5 11//8 12//9
f 11//8 13//10 14//11
f 11//8 14//11 12//9
f 12//9 14//11 15//12
f 5//2 7//4 16//13
f 7//4 10//7 17//14
f 7//4 17//14 16//13
f 16//13 17//14 18//15
f 10//7 19//16 20//17
f 19//16 15//12 21//18
f 19//16 21//18 20//17
f 20//17 21//18 22//19
f 5//2 16//13 23//20
f 16//13 18//15 24//21
f 16//13 24//21 23//20
f 23//20 24//21 25//22
f 18//15 26//23 27//24
f 26//23 22//19 28//25
f 26//23 28//25 27//24
f 27//24 28//25 29//26
f 5//2 23//20 30//27
f 23//20 25//22 31//28
f 23//20 31//28 30//27
f 30//27 31//28 32//29
f 25//22 33//30 34//31
f 33//30 29//26 35//32
f 33//30 35//32 34//31
f 34//31 35//32 36//33
f 5//2 30//27 6//3
f 30//27 32//29 37//34
f 30//27 37//34 6//3
f 6//3 37//34 8//5
f 32//29 38//35 39//36
f 38//35 36//33 40//37
f 38//35 40//37 39//36
f 39//36 40//37 13//10
f 41//38 42//39 43//40
f 42//39 29//26 28//25
f 42//39 28//25 43//40
f 43//40 28//25 22//19
f 29//26 33//30 27//24
f 33//30 25//22 24//21
f 33//30 24//21 27//24
f 27//24 24//21 18//15
f 41//38 43//40 44//41
f 43//40 22//19 21//18
f 43//40 21//18 44//41
f 44//41 21//18 15//12
f 22//19 26//23 20//17
f 26//23 18//15 17//14
f 26//23 17//14 20//17
f 20//17 17//14 10//7
f 41//38 44//41 45//42
f 44//41 15//12 14//11
f 44//41 14//11 45//42
f 45//42 14//11 13//10
f 15//12 19//16 12//9
f 19//16 10//7 9//6
f 19//16 9//6 12//9
f 12//9 9//6 8//5
f 41//38 45//42 46//43
f 45//42 13//10 40//37
f 45//42 40//37 46//43
f 46//43 40//37 36//33
f 13//10 11//8 39//36
f 11//8 8//5 37//34
f 11//8 37//34 39//36
f 39//36 37//34 32//29
f 41//38 46//43 42//39
f 46//43 36//33 35//32
f 46//43 35//32 42//39
f 42//39 35//32 29//26
f 36//33 38//35 34//31
f 38//35 32//29 31//28
f 38//35 31//28 34//31
f 34//31 31//28 25//22
g door_single_shuttered_ul_door door_single_shuttered_ul door_single_shuttered
f 51/4/1 52/3/1 53/2/1 54/1/1
g door_single_shuttered_ul_trigger door_single_shuttered_ul door_single_shuttered
f 5//2 6//3 7//4
f 6//3 8//5 9//6
f 6//3 9//6 7//4
f 7//4 9//6 10//7
f 8//5 11//8 12//9
f 11//8 13//10 14//11
f 11//8 14//11 12//9
f 12//9 14//11 15//12
f 5//2 7//4 16//13
f 7//4 10//7 17//14
f 7//4 17//14 16//13
f 16//13 17//14 18//15
f 10//7 19//16 20//17
f 19//16 15//12 21//18
f 19//16 21//18 20//17
f 20//17 21//18 22//19
f 5//2 16//13 23//20
f 16//13 18//15 24//21
f 16//13 24//21 23//20
f 23//20 24//21 25//22
f 18//15 26//23 27//24
f 26//23 22//19 28//25
f 26//23 28//25 27//24
f 27//24 28//25 29//26
f 5//2 23//20 30//27
f 23//20 25//22 31//28
f 23//20 31//28 30//27
f 30//27 31//28 32//29
f 25//22 33//30 34//31
f 33//30 29//26 35//32
f 33//30 35//32 34//31
f 34//31 35//32 36//33
f 5//2 30//27 6//3
f 30//27 32//29 37//34
f 30//27 37//34 6//3
f 6//3 37//34 8//5
f 32//29 38//35 39//36
f 38//35 36//33 40//37
f 38//35 40//37 39//36
f 39//36 40//37 13//10
f 41//38 42//39 43//40
f 42//39 29//26 28//25
f 42//39 28//25 43//40
f 43//40 28//25 22//19
f 29//26 33//30 27//24
f 33//30 25//22 24//21
f 33//30 24//21 27//24
f 27//24 24//21 18//15
f 41//38 43//40 44//41
f 43//40 22//19 21//18
f 43//40 21//18 44//41
f 44//41 21//18 15//12
f 22//19 26//23 20//17
f 26//23 18//15 17//14
f 26//23 17//14 20//17
f 20//17 17//14 10//7
f 41//38 44//41 45//42
f 44//41 15//12 14//11
f 44//41 14//11 45//42
f 45//42 14//11 13//10
f 15//12 19//16 12//9
f 19//16 10//7 9//6
f 19//16 9//6 12//9
f 12//9 9//6 8//5
f 41//38 45//42 46//43
f 45//42 13//10 40//37
f 45//42 40//37 46//43
f 46//43 40//37 36//33
f 13//10 11//8 39//36
f 11//8 8//5 37//34
f 11//8 37//34 39//36
f 39//36 37//34 32//29
f 41//38 46//43 42//39
f 46//43 36//33 35//32
f 46//43 35//32 42//39
f 42//39 35//32 29//26
f 36//33 38//35 34//31
f 38//35 32//29 31//28
f 38//35 31//28 34//31
f 34//31 31//28 25//22
g door_single_square_ur_door door_single_square_ur door_single_square
f 55/1/1 56/2/1 57/3/1 58/4/1
g door_single_square_ur_trigger door_single_square_ur door_single_square
f 5//2 6//3 7//4
f 6//3 8//5 9//6
f 6//3 9//6 7//4
f 7//4 9//6 10//7
f 8//5 11//8 12//9
f 11//8 13//10 14//11
f 11//8 14//11 12//9
f 12//9 14//11 15//12
f 5//2 7//4 16//13
f 7//4 10//7 17//14
f 7//4 17//14 16//13
f 16//13 17//14 18//15
f 10//7 19//16 20//17
f 19//16 15//12 21//18
f 19//16 21//18 20//17
f 20//17 21//18 22//19
f 5//2 16//13 23//20
f 16//13 18//15 24//21
f 16//13 24//21 23//20
f 23//20 24//21 25//22
f 18//15 26//23 27//24
f 26//23 22//19 28//25
f 26//23 28//25 27//24
f 27//24 28//25 29//26
f 5//2 23//20 30//27
f 23//20 25//22 31//28
f 23//20 31//28 30//27
f 30//27 31//28 32//29
f 25//22 33//30 34//31
f 33//30 29//26 35//32
f 33//30 35//32 34//31
f 34//31 35//32 36//33
f 5//2 30//27 6//3
f 30//27 32//29 37//34
f 30//27 37//34 6//3
f 6//3 37//34 8//5
f 32//29 38//35 39//36
f 38//35 36//33 40//37
f 38//35 40//37 39//36
f 39//36 40//37 13//10
f 41//38 42//39 43//40
f 42//39 29//26 28//25
f 42//39 28//25 43//40
f 43//40 28//25 22//19
f 29//26 33//30 27//24
f 33//30 25//22 24//21
f 33//30 24//21 27//24
f 27//24 24//21 18//15
f 41//38 43//40 44//41
f 43//40 22//19 21//18
f 43//40 21//18 44//41
f 44//41 21//18 15//12
f 22//19 26//23 20//17
f 26//23 18//15 17//14
f 26//23 17//14 20//17
f 20//17 17//14 10//7
f 41//38 44//41 45//42
f 44//41 15//12 14//11
f 44//41 14//11 45//42
f 45//42 14//11 13//10
f 15//12 19//16 12//9
f 19//16 10//7 9//6
f 19//16 9//6 12//9
f 12//9 9//6 8//5
f 41//38 45//42 46//43
f 45//42 13//10 40//37
f 45//42 40//37 46//43
f 46//43 40//37 36//33
f 13//10 11//8 39//36
f 11//8 8//5 37//34
f 11//8 37//34 39//36
f 39//36 37//34 32//29
f 41//38 46//43 42//39
f 46//43 36//33 35//32
f 46//43 35//32 42//39
f 42//39 35//32 29//26
f 36//33 38//35 34//31
f 38//35 32//29 31//28
f 38//35 31//28 34//31
f 34//31 31//28 25//22
g door_single_square_ul_door door_single_square_ul door_single_square
f 55/4/1 56/3/1 57/2/1 58/1/1
g door_single_square_ul_trigger door_single_square_ul door_single_square
f 5//2 6//3 7//4
f 6//3 8//5 9//6
f 6//3 9//6 7//4
f 7//4 9//6 10//7
f 8//5 11//8 12//9
f 11//8 13//10 14//11
f 11//8 14//11 12//9
f 12//9 14//11 15//12
f 5//2 7//4 16//13
f 7//4 10//7 17//14
f 7//4 17//14 16//13
f 16//13 17//14 18//15
f 10//7 19//16 20//17
f 19//16 15//12 21//18
f 19//16 21//18 20//17
f 20//17 21//18 22//19
f 5//2 16//13 23//20
f 16//13 18//15 24//21
f 16//13 24//21 23//20
f 23//20 24//21 25//22
f 18//15 26//23 27//24
f 26//23 22//19 28//25
f 26//23 28//25 27//24
f 27//24 28//25 29//26
f 5//2 23//20 30//27
f 23//20 25//22 31//28
f 23//20 31//28 30//27
f 30//27 31//28 32//29
f 25//22 33//30 34//31
f 33//30 29//26 35//32
f 33//30 35//32 34//31
f 34//31 35//32 36//33
f 5//2 30//27 6//3
f 30//27 32//29 37//34
f 30//27 37//34 6//3
f 6//3 37//34 8//5
f 32//29 38//35 39//36
f 38//35 36//33 40//37
f 38//35 40//37 39//36
f 39//36 40//37 13//10
f 41//38 42//39 43//40
f 42//39 29//26 28//25
f 42//39 28//25 43//40
f 43//40 28//25 22//19
f 29//26 33//30 27//24
f 33//30 25//22 24//21
f 33//30 24//21 27//24
f 27//24 24//21 18//15
f 41//38 43//40 44//41
f 43//40 22//19 21//18
f 43//40 21//18 44//41
f 44//41 21//18 15//12
f 22//19 26//23 20//17
f 26//23 18//15 17//14
f 26//23 17//14 20//17
f 20//17 17//14 10//7
f 41//38 44//41 45//42
f 44//41 15//12 14//11
f 44//41 14//11 45//42
f 45//42 14//11 13//10
f 15//12 19//16 12//9
f 19//16 10//7 9//6
f 19//16 9//6 12//9
f 12//9 9//6 8//5
f 41//38 45//42 46//43
f 45//42 13//10 40//37
f 45//42 40//37 46//43
f 46//43 40//37 36//33
f 13//10 11//8 39//36
f 11//8 8//5 37//34
f 11//8 37//34 39//36
f 39//36 37//34 32//29
f 41//38 46//43 42//39
f 46//43 36//33 35//32
f 46//43 35//32 42//39
f 42//39 35//32 29//26
f 36//33 38//35 34//31
f 38//35 32//29 31//28
f 38//35 31//28 34//31
f 34//31 31//28 25//22
