v -1.94538321707818 -0.200127710507611 -3.12885274411499e-08
v 1.95521770186937 -0.367960404223344 0
v 1.12271709392077 0.0190451389222633 0.349673605340672
v -1.2014594290826 0.0615194322556023 0.349673574052145
v -0.103685189419844 1.51181634016863 0.34967351147509
v 2.88534396725116e-08 2.13458619405591 -9.38655823234498e-08
v -0.450744935533819 -2.27686245617117e-06 -1.877311646469e-07
v 0.44090735317841 -2.28067374026789e-06 -1.877311646469e-07
v 0.244135978653675 -2.28195849105134e-06 0.349673010858651
v -0.253973216835282 -3.29155442359909e-06 0.349673073435706
v -0.269105146563272 7.52147364178355 0.34967351147509
v 0.259267141812743 7.52147364178355 0.34967351147509
v 0.550012450831456 15.0429482848 0.34967376178331
v -0.55984862520313 15.0429482848 0.34967376178331
v 0.988447321994411 15.0429492860328 3.12885274411499e-08
v -0.998284747907183 15.0429492860328 3.12885274411499e-08
v 0.467993831384213 7.52147364178355 3.12885274411499e-07
v -0.477832008221644 7.52147364178355 3.12885274411499e-07
vt 0.00941982492804527 0.248056769371033
vt 0.428345918655396 0.152561590075493
vt 0.332670509815216 0.278167366981506
vt 0.0877365469932556 0.336918652057648
vt 0.203304946422577 0.750633001327515
vt 0.214220434427261 0.933460235595703
vt 0.331988096237183 0.624994516372681
vt 0.40242737531662 0.624865233898163
vt 0.386882662773132 0.652723670005798
vt 0.347532749176025 0.652795910835266
vt 0.713786005973816 0.352020710706711
vt 0.713785946369171 0.653877735137939
vt 0.949395418167114 0.653877735137939
vt 0.94939512014389 0.352020263671875
vt 0.949395418167114 0.955735266208649
vt 0.949395477771759 0.0501630306243896
vt 0.713785946369171 0.955734968185425
vt 0.713785946369171 0.0501632690429688
vt 0.47817662358284 0.955734312534332
vt 0.478176534175873 0.653876960277557
vt 0.47817650437355 0.0501625947654247
vt 0.478176534175873 0.352019786834717
vn -0.0248161155874116 -0.734520175287183 0.678132931292411
vn -0.0135458349235569 -0.400936446145073 0.916005718600481
vn -0.0204974173996936 0.312258234112072 0.949776105779227
vn 6.63048727034265e-09 -3.2327687193856e-08 -1
vn 0.486966511482986 0.387789546294313 0.782612857343235
vn -0.540972854222493 0.434943469646105 0.719842030730755
vn 7.23710229521159e-07 -0.999999999998683 -1.4527519169841e-06
vn -0.449057510336567 -0.0117922650618357 0.893425035968343
vn 0.449057901776406 -0.0117922924963881 0.893424838858788
vn 0.40025457047303 -0.0215839501256131 0.916149775916812
vn -0.400254070522431 -0.0215838544836936 0.91614999659218
vn 0 0.999999999995901 2.86333442999157e-06
vn 0 -3.74390296542515e-08 -0.999999999999999
vn 0.804290589260045 -0.0211206808447903 0.593860728511645
vn 0.733386309306769 -0.0395482241666563 0.678660783666376
vn -0.733385568178625 -0.03954805885871 0.678661594189493
vn -0.804290112642838 -0.021120635991545 0.593861375609059
vn 0.865094566446316 -0.002427899411446 0.50160292703443
vn 0.49919596848095 -0.00140103528516646 0.866487981539557
vn 0 6.65582717829237e-08 -0.999999999999998
vn -0.865094366110289 -0.00242797432250623 0.501603272183233
vn -0.499195694369684 -0.00140107858166101 0.866488139388865
g arrow_head arrow
f 1/1/1 2/2/1 3/3/2 4/4/2
f 4/4/2 3/3/2 5/5/3
f 6/6/4 2/2/4 1/1/4
f 2/2/5 6/6/5 5/5/3 3/3/5
f 6/6/6 1/1/6 4/4/6 5/5/3
g arrow_shaft arrow
f 7/7/7 8/8/7 9/9/7 10/10/7
f 11/11/8 12/12/9 13/13/10 14/14/11
f 14/14/12 13/13/12 15/15/12 16/16/12
f 16/16/13 15/15/13 17/17/13 18/18/13
f 17/17/14 15/15/15 13/13/10 12/12/9
f 16/16/16 18/18/17 11/11/8 14/14/11
f 8/19/18 17/17/14 12/12/9 9/20/19
f 18/18/20 17/17/20 8/19/20 7/21/20
f 11/11/8 18/18/17 7/21/21 10/22/22
f 10/22/22 9/20/19 12/12/9 11/11/8
