v -2.07057900636335 0 1.95127728481735
v -2.07057900636335 0 -1.59110603149665
v 2.07057900636335 0 -1.59110603149665
v 2.07057900636335 0 1.95127728481735
v -2.07057900636335 0 1.59110603149665
v 2.07057900636335 0 1.59110603149665
v -1.97242846085923 0 1.17195236905692
v -1.97242846085923 0 -1.17195236905692
v 1.97242846085923 0 -1.17195236905692
v 1.97242846085923 0 1.17195236905692
v -1.18825594643154 0 1.21803354622569
v -1.18825594643154 0 -1.24488154649735
v 1.18825594643154 0 -1.24488154649735
v 1.18825594643154 0 1.21803354622569
v -1.52778597101996 0 1.76235159777528
v -1.52778597101996 0 -1.76235159777528
v 1.52778597101996 0 -1.76235159777528
v 1.52778597101996 0 1.76235159777528
v -1.20218492509754 0 1.61436335724833
v -1.20218492509754 0 -1.61436335724833
v 1.20218492509754 0 -1.61436335724833
v 1.20218492509754 0 1.61436335724833
v -1.1901630701141 0 1.77579973146258
v -1.1901630701141 0 -1.77579973146258
v 1.1901630701141 0 -1.77579973146258
v 1.1901630701141 0 1.77579973146258
vt 0 1
vt 0 0
vt 1 0
vt 1 1
vn 0 -1 0
g window_md_curvedDL_ur window_md_curvedDL newwindows
f 1/1/1 2/2/1 3/3/1 4/4/1
g window_md_curvedDL_ul window_md_curvedDL newwindows
f 1/4/1 2/3/1 3/2/1 4/1/1
g window_md_curved2DL_ur window_md_curved2DL newwindows
f 5/1/1 2/2/1 3/3/1 6/4/1
g window_md_curved2DL_ul window_md_curved2DL newwindows
f 5/4/1 2/3/1 3/2/1 6/1/1
g window_sm_shutteredDL_ur window_sm_shutteredDL newwindows
f 7/1/1 8/2/1 9/3/1 10/4/1
g window_sm_shutteredDL_ul window_sm_shutteredDL newwindows
f 7/4/1 8/3/1 9/2/1 10/1/1
g window_sm_squareDL_ur window_sm_squareDL newwindows
f 11/1/1 12/2/1 13/3/1 14/4/1
g window_sm_squareDL_ul window_sm_squareDL newwindows
f 11/4/1 12/3/1 13/2/1 14/1/1
g window_sm_curved2DL_ur window_sm_curved2DL newwindows
f 15/1/1 16/2/1 17/3/1 18/4/1
g window_sm_curved2DL_ul window_sm_curved2DL newwindows
f 15/4/1 16/3/1 17/2/1 18/1/1
g window_sm_curvedDL_ur window_sm_curvedDL newwindows
f 15/1/1 16/2/1 17/3/1 18/4/1
g window_sm_curvedDL_ul window_sm_curvedDL newwindows
f 15/4/1 16/3/1 17/2/1 18/1/1
g window_sm_round2DL_ur window_sm_round2_DL newwindows
f 19/1/1 20/2/1 21/3/1 22/4/1
g window_sm_round2DL_ul window_sm_round2_DL newwindows
f 19/4/1 20/3/1 21/2/1 22/1/1
g window_sm_roundDL_ur window_sm_roundDL newwindows
f 23/1/1 24/2/1 25/3/1 26/4/1
g window_sm_roundDL_ul window_sm_roundDL newwindows
f 23/4/1 24/3/1 25/2/1 26/1/1
