v -2.68323938660438 0.0238742139190435 19.2563982559125
v -2.68323938660438 0.0238742139190435 -0.0445888032843058
v 0.351996542295449 0.0238742139190435 -0.0445888032843058
v 0.35199654229545 0.0238742139190435 19.2563982559125
v 7.66591638452907 0.0238742139190435 19.2563982559125
v 7.66591638452907 0.023874214359002 30.3410077095032
v -7.585214355814 0.023874214359002 30.3410077095032
v -7.585214355814 0.0238742139190435 19.2563982559125
vt 0 0.987434983253479
vt 0 0.0112207168713212
vt 0.941243290901184 0.0112207168713212
vt 0.941243290901184 0.987434983253479
vt 1 0.00674191582947969
vt 1 1
vt 0.00181993015576154 1
vt 0.00181993015576154 0.00674191582947969
vn 0 -1 0
vn 0 -1 3.96909356929142e-11
g p3 o2 g2 g1
f 1/1/1 2/2/1 3/3/1 4/4/1
f 5/5/2 6/6/2 7/7/2 8/8/2
