v 0 0 -7.50924659286951e-09
v 0.999999984981507 0 -7.50924659286951e-09
v 0.999999984981507 0 0.99999997747226
v 0 0 0.99999997747226
v 0.999999984981507 0.999999984981507 0.99999997747226
v 0 0.999999984981507 0.99999997747226
v 0.999999984981507 0.999999984981507 -7.50924659286951e-09
v 0 0.999999984981507 -7.50924659286951e-09
v 0.999999984981507 0 0.899999966458699
v 0 0 0.899999966458699
v 0 0.999999984981507 0.899999966458699
v 0.999999984981507 0.999999984981507 0.899999966458699
vt 0 0
vt 1 0
vt 1 1
vt 0 1
vn 0 -1 0
vn 0 0 1
vn 0 1 0
vn 0 0 -1
vn 1 0 0
vn -1 0 0
g cube_onefoot cube_geometry cube_onefoot
f 1/1/1 2/2/1 3/3/1 4/4/1
f 4/1/2 3/2/2 5/3/2 6/4/2
f 6/1/3 5/2/3 7/3/3 8/4/3
f 8/1/4 7/2/4 2/3/4 1/4/4
f 2/1/5 7/2/5 5/3/5 3/4/5
f 8/1/6 1/2/6 4/3/6 6/4/6
g cube_onefoot_wall cube_collision cube_onefoot
f 1//1 2//1 9//1 10//1
f 11//3 12//3 7//3 8//3
f 8//4 7//4 2//4 1//4
f 2//5 7//5 12//5 9//5
f 8//6 1//6 10//6 11//6
g cube_onefoot_top cube_collision cube_onefoot
f 4//2 3//2 5//2 6//2
