v 0.00981424893606993 -0.000764296739667732 2.17611708353198e-05
v 0.00693972107619438 -0.000764295028576388 -0.00691796381642499
v 0.00693972107619438 0.00394583491515613 -0.00691796381642499
v 0.00981424893606993 0.00394583442627289 2.17611708353198e-05
v 0.00128306331127647 -0.000764296984109353 -0.00932302687737573
v 0.00128306380015971 0.00394583491515613 -0.00932301905524387
v -0.00128306282239323 0.00394583491515613 -0.00932301905524387
v -0.00128306282239323 -0.000764296984109353 -0.00932302687737573
v -0.00693972107619438 -0.000764295028576388 -0.00691796381642499
v -0.00693972107619438 0.00394583491515613 -0.00691796381642499
v -0.00981424502500399 -0.000764296739667732 2.17611708353198e-05
v -0.00981424502500399 0.00394583418183126 2.17611708353198e-05
v 0.00314338724287789 0.00510014691377875 -0.00312162900534202
v 0.00444541922391556 0.00510014666933713 2.17611708353198e-05
v -0.0044454172683826 0.00510014642489551 2.17611708353198e-05
v -0.00314338822064437 0.00510014691377875 -0.00312162900534202
v 0.00249875068977436 0.000259151726257144 -0.00247698365234015
v 0.00353376539986278 0.000259151604036334 2.17611708353198e-05
v 4.83013862211116e-10 0.00510014691377875 -0.00442365805308024
v 1.11638642337541e-09 0.000259151726257144 -0.00351199640689559
v -0.00249874971200788 0.000259151726257144 -0.00247698365234015
v -0.00353376148879684 0.000259151604036334 2.17611708353198e-05
v 3.12418087900383e-09 0.00255720117899377 -0.0105664926016425
v 3.12418087900383e-09 -0.000764298939642318 -0.010566491623876
v 0.00693972107619438 0.00394583491515613 0.0069614881136286
v 0.00693972107619438 -0.000764295028576388 0.00696149006916156
v 0.00128306331127647 0.00394583687068909 0.00936654530798043
v 0.00128306331127647 -0.000764296984109353 0.00936654921904636
v -0.00128306331127647 0.00394583687068909 0.00936654530798043
v -0.00693972107619438 0.00394583491515613 0.0069614881136286
v -0.00693972107619438 -0.000764295028576388 0.00696149006916156
v -0.00128306331127647 -0.000764296984109353 0.00936654921904636
v 0.00314338724287789 0.00510014691377875 0.00316515525807859
v -0.00314338822064437 0.00510014691377875 0.00316515330254562
v 0.00249875068977436 0.000259151726257144 0.00252050599401079
v 1.13034982365688e-09 0.000259151726257144 0.00355552265963216
v 4.90041486537857e-10 0.00510014495824578 0.00446718821688274
v -0.00249874971200788 0.000259151726257144 0.00252050599401079
v 2.56292438423895e-09 -0.000764298939642318 0.0106100178766125
v 2.7500101933175e-09 0.00255720117899377 0.0106100159210796
vt 0.972255706787109 0.0232246518135071
vt 0.449056923389435 0.0232246518135071
vt 0.44905686378479 0.351297557353973
vt 0.972255051136017 0.351297438144684
vt 0.0209187343716621 0.023224413394928
vt 0.0209188386797905 0.351297557353973
vt 0.0222268104553223 0.349455595016479
vt 0.0222269296646118 0.0213984847068787
vt 0.450340867042542 0.0213987231254578
vt 0.450340628623962 0.349455893039703
vt 0.973511397838593 0.0213988423347473
vt 0.97351062297821 0.349456071853638
vt 0.995960354804993 0.682151436805725
vt 0.458313077688217 0.468129098415375
vt 0.464043945074081 0.881699562072754
vt 0.707574486732483 0.978642642498016
vt 0.459388345479965 0.469174861907959
vt 0.99703574180603 0.683197319507599
vt 0.708649754524231 0.979688465595245
vt 0.465119391679764 0.882745563983917
vt 0.986494719982147 0.569962620735168
vt 0.846272945404053 0.569962620735168
vt 0.846273183822632 0.456576466560364
vt 0.986494600772858 0.456576466560364
vt 0.747121155261993 0.569962680339813
vt 0.747121393680573 0.456576526165009
vt 0.986494839191437 0.569875359535217
vt 0.846272885799408 0.569875359535217
vt 0.846272706985474 0.456489384174347
vt 0.986494779586792 0.456489384174347
vt 0.747121334075928 0.569875359535217
vt 0.747121155261993 0.456489324569702
vt 0.0327654331922531 0.408873796463013
vt 0.278303146362305 0.37718540430069
vt 0.210911080241203 0.465567946434021
vt 0.0476027876138687 0.504490733146667
vt 0.310919582843781 0.514053463935852
vt 0.0774882659316063 0.596519827842712
vt 0.0227232575416565 0.652373552322388
vt 0.224368169903755 0.986398816108704
vt 0.0216480232775211 0.651327610015869
vt 0.22329293191433 0.985352993011475
vt 0.550271272659302 0.384700775146484
vn 0.999999999999997 4.60029916382608e-08 -6.45155964207331e-08
vn 0.710393633645982 4.48877251914126e-07 -0.703804578896058
vn 0.710393609987968 4.0179486073883e-07 -0.703804602775587
vn 0.999999999999996 4.2992856065195e-08 -7.47203666638246e-08
vn 0.552927112606221 7.77894934491448e-07 -0.833229625100033
vn 0.402193314787573 0.246779033625045 -0.881669238492119
vn -0.402192617164259 0.24677899132628 -0.88166956856781
vn -0.552926244731809 7.77893948163157e-07 -0.833230201016607
vn -0.71039372277265 4.48877185303114e-07 -0.703804488934969
vn -0.710393762840997 4.12763408134371e-07 -0.703804448491511
vn -0.999999999999996 4.60029951909744e-08 -8.06444830914185e-08
vn -0.999999999999996 4.29927986164349e-08 -7.47202955060434e-08
vn 0.210199209551635 0.977658576551072 -1.8504270990216e-08
vn 0.148977201117866 0.977746425161723 -0.147708231424515
vn -0.148977253200483 0.977746425976369 -0.147708173501927
vn -0.210199318240936 0.977658553182575 -1.44130230517236e-08
vn -0.982725928940376 0.185066875988817 1.25735942712701e-07
vn -0.694891824422684 0.185067505090667 0.694892344834816
vn -0.694891787353297 0.185067499474976 0.694892383399776
vn -0.982725931443934 0.185066862694626 1.44795574703141e-07
vn -1.02869207834982e-07 0.185068046027427 0.98272570859807
vn -1.28707139800339e-07 0.185068057319802 0.982725706471474
vn 0.694892014773876 0.185067804466669 0.69489207475218
vn 0.694892016352293 0.185067794016428 0.694892075956934
vn 0.982725874791295 0.185067163526324 6.28678723020606e-08
vn 0.982725871822257 0.185067179292227 6.43535722207685e-08
vn -0.397197947743723 0.380736632562806 -0.835028985684275
vn -0.695939105074141 6.11948388305097e-07 -0.718100802135905
vn 0.695940659454978 5.69585387124494e-07 -0.718099295722427
vn -0.0437681918628038 0.974814917617537 -0.218678352315395
vn 6.74236425611502e-09 0.976527176496145 -0.215394228252445
vn 0.0437682019846417 0.974814919496578 -0.218678341913212
vn 0.710393605586168 3.52483008682409e-07 0.703804607218623
vn 0.710393633922422 3.45166354512443e-07 0.703804578617088
vn 0.40219319801805 0.246778372302153 0.881669476863021
vn 0.5529271126063 5.65965511393899e-07 0.833229625100152
vn -0.402192543150465 0.246778321837263 0.881669789720247
vn -0.710393774866148 3.524829945488e-07 0.703804436353807
vn -0.710393782098315 3.45166368047728e-07 0.703804429053933
vn -0.552926244731909 4.94911378011821e-07 0.833230201016757
vn 0.148977223306036 0.977746446355238 0.147708068756339
vn -0.148977277693215 0.977746451514013 0.147707979753546
vn -0.694892266305517 0.185067931198853 -0.694891789468374
vn -0.694892296665352 0.185067948935447 -0.694891754384796
vn 3.21767997179814e-08 0.185068859653753 -0.982725555374672
vn 4.75958349752523e-08 0.185068855718651 -0.982725556115738
vn 0.694892602728498 0.185068090437323 -0.694891410635573
vn 0.694892563731356 0.185068097659193 -0.694891447709403
vn -0.695939260119172 5.40737895347098e-07 0.718100651875827
vn -0.397197940825497 0.380735704449078 0.835029412153638
vn 0.69594075519777 5.08314916140545e-07 0.718099202934038
vn -0.0437682119240911 0.974815019676111 0.218677893347344
vn -2.16598292673534e-09 0.976527265092408 0.215393826585492
vn 0.0437682086625464 0.97481501446038 0.218677917250646
g trunkAccessory_1
f 1/1/1 2/2/2 3/3/3 4/4/4
f 2/2/2 5/5/5 6/6/6 3/3/3
f 7/7/7 8/8/8 9/9/9 10/10/10
f 9/9/9 11/11/11 12/12/12 10/10/10
f 4/13/13 3/14/14 13/15/14 14/16/13
f 10/17/15 12/18/16 15/19/16 16/20/15
f 14/21/17 13/22/18 17/23/19 18/24/20
f 13/22/18 19/25/21 20/26/22 17/23/19
f 19/27/21 16/28/23 21/29/24 20/30/22
f 16/28/23 15/31/25 22/32/26 21/29/24
f 8/33/8 7/34/7 23/35/27 24/36/28
f 7/34/7 6/37/6 23/35/27
f 6/37/6 5/38/5 24/36/29 23/35/29
f 7/39/30 10/17/15 16/20/15 19/40/31
f 3/14/14 6/41/32 19/42/31 13/15/14
f 7/34/30 19/43/31 6/37/32
f 1/1/1 4/4/4 25/3/33 26/2/34
f 26/2/34 25/3/33 27/6/35 28/5/36
f 29/7/37 30/10/38 31/9/39 32/8/40
f 31/9/39 30/10/38 12/12/12 11/11/11
f 4/13/13 14/16/13 33/15/41 25/14/41
f 30/17/42 34/20/42 15/19/16 12/18/16
f 14/21/17 18/24/20 35/23/43 33/22/44
f 33/22/44 35/23/43 36/26/45 37/25/46
f 37/27/46 36/30/45 38/29/47 34/28/48
f 34/28/48 38/29/47 22/32/26 15/31/25
f 32/33/40 39/36/49 40/35/50 29/34/37
f 29/34/37 40/35/50 27/37/35
f 27/37/35 40/35/51 39/36/51 28/38/36
f 29/39/52 37/40/53 34/20/42 30/17/42
f 25/14/41 33/15/41 37/42/53 27/41/54
f 29/34/52 27/37/54 37/43/53
