v 2.99999482362602 0.00573846944204466 -0.00478523952050472
v 2.48382898766225 1.60924468453475 -0.00478523952050472
v 2.48382898766225 1.60924468453475 8.27272770598804
v 2.99999482362602 0.00573846944204466 8.27272770598804
v 1.49502766726837 2.60094119494981 -0.00478523952050472
v 0.0137058553576782 3.00897237822765 -0.00478523903162148
v 0.0137058553576782 3.00897237822765 8.27272770598804
v 1.49502766726837 2.60094119494981 8.27272770598804
v -1.50496740666587 2.59520237840067 -0.00478523952050472
v -2.57591988470924 1.43654690639866 -0.00478523952050472
v -2.57591988470924 1.43654690639866 8.27272770598804
v -1.50496740666587 2.59520237840067 8.27272770598804
v -2.9999945733178 -0.00573904583538611 -0.00478523952050472
v -2.48018049505439 -1.59766905576851 -0.00478523952050472
v -2.48018049505439 -1.59766905576851 8.27272770598804
v -2.9999945733178 -0.00573904583538611 8.27272770598804
v -1.49502729180604 -2.60094144525803 -0.00478523952050472
v 0.0137058553576782 -3.00025439324967 -0.00478523952050472
v 0.0137058553576782 -3.00025439324967 8.27272770598804
v -1.49502729180604 -2.60094144525803 8.27272770598804
v 1.50496765697409 -2.59520187778423 -0.00478523952050472
v 2.53476821218576 -1.51066730028688 -0.00478523903162148
v 2.53476821218576 -1.51066730028688 8.27272770598804
v 1.50496765697409 -2.59520187778423 8.27272770598804
v 0 0 8.27272770598804
v 0 0 8.27272720537161
v 2.99999482362602 0.00573846944204466 -0.0033280513985107
v 2.48382898766225 1.60924468453475 -0.0033280513985107
v 2.48382898766225 1.60924468453475 8.28802754559855
v 2.99999482362602 0.00573846944204466 8.28802754559855
v 1.49502766726837 2.60094119494981 -0.0033280513985107
v 0.0137058553576782 3.00897237822765 -0.00332805115406907
v 0.0137058553576782 3.00897237822765 8.28802754559855
v 1.49502766726837 2.60094119494981 8.28802754559855
v -1.50496740666587 2.59520237840067 -0.0033280513985107
v -2.57591988470924 1.43654690639866 -0.0033280513985107
v -2.57591988470924 1.43654690639866 8.28802754559855
v -1.50496740666587 2.59520237840067 8.28802754559855
v -2.9999945733178 -0.00573904583538611 -0.0033280513985107
v -2.48018049505439 -1.59766905576851 -0.0033280513985107
v -2.48018049505439 -1.59766905576851 8.28802754559855
v -2.9999945733178 -0.00573904583538611 8.28802754559855
v -1.49502729180604 -2.60094144525803 -0.0033280513985107
v 0.0137058553576782 -3.00025439324967 -0.0033280513985107
v 0.0137058553576782 -3.00025439324967 8.28802754559855
v -1.49502729180604 -2.60094144525803 8.28802754559855
v 1.50496765697409 -2.59520187778423 -0.0033280513985107
v 2.53476821218576 -1.51066730028688 -0.0033280513985107
v 2.53476821218576 -1.51066730028688 8.28802754559855
v 1.50496765697409 -2.59520187778423 8.28802754559855
v 0 0 -0.00332805115406907
v 0 0 8.28802754559855
v -1.21635001475417 -2.74624561700295 3.12304584373014
v 0.013705925756865 -3.03550154518268 3.12304584373014
v 0.013705925756865 -3.03550154518268 5.04458119550089
v -1.21635001475417 -2.74624561700295 5.04458119550089
v 1.15957472893823 -2.74624561700295 3.12304584373014
v 1.15957472893823 -2.74624561700295 5.04458119550089
v -1.47060221574438 -2.65354021327702 2.917418892928
v 0.0137058553576782 -3.06441264515474 2.917418892928
v 0.0137059981115847 -3.06441264515474 3.17639653764059
v -1.18133364699957 -2.77124515042843 3.17639653764059
v 1.41382692992844 -2.65354021327702 2.917418892928
v 1.41382692992844 -2.65354021327702 5.25020839661125
v 1.12455836118363 -2.77124515042843 4.99123100220688
v 1.12455836118363 -2.77124515042843 3.17639653764059
v 0.0137058553576782 -3.06441264515474 5.25020839661125
v 0.0137059981115847 -3.06441264515474 4.99123100220688
v -1.47060221574438 -2.65354021327702 5.25020839661125
v -1.18133364699957 -2.77124515042843 4.99123100220688
v -2.1499999239063 -2.1499999239063 8.30391861322358
v 2.1499999239063 -2.1499999239063 8.30391861322358
v 2.1499999239063 2.1499999239063 8.30391861322358
v -2.1499999239063 2.1499999239063 8.30391861322358
v -1.24245040372914 -2.75852164356489 3.12304584373014
v 0.013705925756865 -3.07301765136906 3.12304584373014
v 0.013705925756865 -3.07301765136906 5.04458119550089
v -1.24245040372914 -2.75852164356489 5.04458119550089
v 1.20114178795201 -2.75852164356489 3.12304584373014
v 1.20114178795201 -2.75852164356489 5.04458119550089
vt -0.247975409030914 -1.0020147562027
vt -0.132697761058807 -1.0020147562027
vt -0.132697761058807 -0.00201475620269775
vt -0.247975409030914 -0.00201475620269775
vt -1.03184914588928 -1.0020147562027
vt -0.953103303909302 -1.00201463699341
vt -0.953103303909302 -0.00201475620269775
vt -1.03184914588928 -0.00201475620269775
vt -0.872791171073914 -1.0020147562027
vt -0.807681322097778 -1.0020147562027
vt -0.807681322097778 -0.00201475620269775
vt -0.872791171073914 -0.00201475620269775
vt -0.74797534942627 -1.0020147562027
vt -0.662837266921997 -1.0020147562027
vt -0.662837266921997 -0.00201475620269775
vt -0.74797534942627 -0.00201475620269775
vt -0.587809562683105 -1.0020147562027
vt -0.500946879386902 -1.0020147562027
vt -0.500946879386902 -0.00201475620269775
vt -0.587809562683105 -0.00201475620269775
vt -0.414641916751862 -1.0020147562027
vt -0.332288354635239 -1.0020147562027
vt -0.332288354635239 -0.00201475620269775
vt -0.414641916751862 -0.00201475620269775
vt 0.959740340709686 0.500139772891998
vt 0.880605816841125 0.745598912239075
vt 0.499804526567459 0.499261289834976
vt 0.888415455818176 0.268013656139374
vt 0.501905739307404 0.0399928390979767
vt 0.11956262588501 0.25469571352005
vt 0.270598620176315 0.101118206977844
vt -0.0315033197402954 -1.0020147562027
vt -0.0315033197402954 -0.00201475620269775
vt 0.729010462760925 0.897404313087463
vt 0.501905798912048 0.959864497184753
vt 0.104884535074234 0.719163060188293
vt 0.0398687124252319 0.498382776975632
vt 0.730534374713898 0.101996839046478
vt 0.269074618816376 0.896525919437408
vt 0.390315383672714 0.236614942550659
vt 0.522188186645508 0.236614942550659
vt 0.521764516830444 0.294109761714935
vt 0.448100745677948 0.294109761714935
vt 0.647257745265961 0.29410982131958
vt 0.390315353870392 0.294110000133514
vt 0.448100805282593 0.236614942550659
vt 0.590705156326294 0.236614853143692
vt 0.647257328033447 0.294109106063843
vt 0.522188127040863 0.294109106063843
vt 0.5217644572258 0.236614227294922
vt 0.590704798698425 0.236614227294922
vt 0.390315651893616 0.236615359783173
vt 0.647257804870605 0.236614882946014
vt 0.590705692768097 0.294109523296356
vt 0.448101103305817 0.294109702110291
vt 0.647257387638092 0.236614942550659
vt 0.59070485830307 0.294109761714935
vt 0.390315383672714 0.294109106063843
vt 0.448100745677948 0.236614227294922
vt 0.495792627334595 -0.165712758898735
vt 1.09310853481293 0.485083758831024
vt 0.462407827377319 1.02785408496857
vt -0.074620895087719 0.368445158004761
vt 0.481328904628754 0.0724397227168083
vt 0.682975828647614 0.343378216028214
vt 0.328718662261963 0.597517013549805
vt 0.127071738243103 0.326578557491302
vt 0.88350248336792 0.574731588363647
vt 0.52924519777298 0.828870356082916
vn 0.999976386705529 0.006872119858884 0
vn 0.853734806289992 0.520708056908081 0
vn 0.503653476920907 0.863905767538035 0
vn 0.00139337717504418 0.999999029249553 0
vn -0.518722499785727 0.854942669549278 0
vn -0.869786641149252 0.493428007796783 0
vn -0.999890145661213 -0.0148221661574543 0
vn -0.854633952359997 -0.519230976997261 0
vn -0.50261653067511 -0.86450946963704 0
vn 0.00324168352031099 -0.999994745730174 0
vn 0.5126334113659 -0.858607585309704 0
vn 0.863514868789811 -0.504323379766311 0
vn 0 5.61518049835285e-08 0.999999999999998
vn 0 -1.01124584261924e-07 0.999999999999995
vn -2.63803556777017e-08 -1.44534411106177e-07 0.999999999999989
vn -3.10608641029829e-08 1.00360793453546e-07 0.999999999999995
vn 0 2.80759024917643e-08 1
vn -4.65912961544742e-08 1.22465280583127e-07 0.999999999999991
vn -1.82042714236275e-09 -1.47198404576443e-08 1
vn 3.6839892914031e-08 9.35972650495382e-08 0.999999999999995
vn -9.31825923089459e-08 2.44930561166248e-07 0.999999999999966
vn 0 -2.58400973507369e-07 0.999999999999967
vn -3.95705335165518e-08 -2.44877526256452e-07 0.999999999999969
vn 4.38606555519522e-08 -1.44545040825504e-07 0.999999999999989
vn 1.66862378137009e-07 -5.77360346198921e-08 0.999999999999984
vn 0 0 1
vn -7.91410670331037e-08 -2.31354050583825e-07 0.99999999999997
vn 0.00139336169183671 0.999999029271127 0
vn -0.869786642870792 0.49342800476215 0
vn -0.854633941979753 -0.519230994082738 0
vn 0.00324168355992081 -0.999994745730045 0
vn 0.863514883949779 -0.504323353809041 0
vn -8.14781367375339e-11 -0 -1
vn -6.14641670892979e-11 6.80145870179949e-11 -1
vn -2.76615778893596e-11 8.52080628277463e-11 -1
vn -2.80620700288114e-11 -0 -1
vn -9.81476844241769e-11 -0 -1
vn 0 -1.12303609967056e-07 0.999999999999994
vn 0 1.24150361102692e-07 0.999999999999992
vn 0 1.59884933736974e-07 0.999999999999987
vn 0 2.45274622834302e-09 1
vn 0 3.67911923149222e-09 1
vn -1.35403493972674e-12 -0 -1
vn 7.7842843282383e-11 3.98650001898204e-11 -1
vn 9.67924629335926e-11 0 -1
vn 1.12109155292472e-10 0 -1
vn 0 5.98309242150207e-08 0.999999999999998
vn 0 1.93819822413843e-08 1
vn 0 -8.6604053706196e-08 0.999999999999996
vn -1.14817225171926e-10 -0 -1
vn 0 3.60604332172419e-07 0.999999999999935
vn 0 2.95979191378124e-07 0.999999999999956
vn 6.07096872773383e-11 5.97975002847306e-11 -1
vn 0 1.27812094241619e-10 -1
vn 3.99436109188578e-11 1.19595000569461e-10 -1
vn 0 2.90729715857196e-08 1
vn 0 -1.7320810741239e-07 0.999999999999985
vn -4.14502009105089e-11 1.3602917403599e-10 -1
vn 0 1.19661862640895e-07 0.999999999999993
vn 8.14757705747127e-11 0 -1
vn 0 2.31354050583826e-07 0.999999999999973
vn -0.228912666102591 -0.973446963782724 0
vn 0.00815361473585196 -0.999966758730879 0
vn 0.244755928448083 -0.969584723213767 0
vn -0.316033730084916 -0.947949258010833 -0.0389215324123559
vn 0.0082775852149712 -0.997121205414132 -0.0753709711790817
vn 0.323827505853679 -0.945504548331897 -0.034013167101593
vn 0.323827567183922 -0.945504525958748 0.0340132051307497
vn 0.00827750921202883 -0.997121196860451 0.075371092686959
vn -0.3160338900771 -0.947949201554649 0.0389216083254341
vn -0.242867727911534 -0.97005941402529 0
vn 0.00679366755353537 -0.999976922774307 0
vn 0.256025532522616 -0.966670019549852 0
g gagTank1 gagTankAll
f 1/1/1 2/2/2 3/3/2 4/4/1
f 5/5/3 6/6/4 7/7/4 8/8/3
f 9/9/5 10/10/6 11/11/6 12/12/5
f 13/13/7 14/14/8 15/15/8 16/16/7
f 17/17/9 18/18/10 19/19/10 20/20/9
f 21/21/11 22/22/12 23/23/12 24/24/11
f 4/25/13 3/26/14 25/27/15 25/27/16 23/28/17
f 7/7/4 6/6/4 9/9/5 12/12/5
f 19/19/10 18/18/10 21/21/11 24/24/11
f 19/29/18 25/27/16 26/27/19 15/30/20 20/31/21
f 3/3/2 2/2/2 5/32/3 8/33/3
f 15/15/8 14/14/8 17/17/9 20/20/9
f 25/27/15 3/26/14 8/34/22 7/35/23
f 15/30/20 26/27/19 11/36/24 16/37/25
f 11/11/6 10/10/6 13/13/7 16/16/7
f 23/23/12 22/22/12 1/1/1 4/4/1
f 23/28/17 25/27/16 19/29/18 24/38/26
f 11/36/24 26/27/19 25/27/15 7/35/23 12/39/27
g tubeColl gagTankColl gagTankAll
f 27//1 28//2 29//2 30//1
f 31//3 32//28 33//28 34//3
f 35//5 36//29 37//29 38//5
f 39//7 40//30 41//30 42//7
f 43//9 44//31 45//31 46//9
f 47//11 48//32 49//32 50//11
f 27//33 48//34 51//35 51//36 28//37
f 30//38 29//39 52//40 52//41 49//42
f 33//28 32//28 35//5 38//5
f 45//31 44//31 47//11 50//11
f 32//43 51//36 51//44 36//45 35//46
f 45//47 52//41 52//48 41//49 46//26
f 29//2 28//2 31//3 34//3
f 41//30 40//30 43//9 46//9
f 28//37 51//36 32//43 31//50
f 52//40 29//39 34//51 33//52
f 40//53 51//44 51//35 44//54 43//55
f 41//49 52//48 37//56 42//57
f 37//29 36//29 39//7 42//7
f 49//32 48//32 27//1 30//1
f 51//35 48//34 47//58 44//54
f 49//42 52//41 45//47 50//59
f 36//45 51//44 40//53 39//60
f 37//56 52//48 52//40 33//52 38//61
g gagLable gagLabelDCS gagTankAll
f 53//62 54//63 55//63 56//62
f 55//63 54//63 57//64 58//64
g gagLableFrame gagLabelDCS gagTankAll
f 59/40/65 60/41/66 61/42/66 62/43/65
f 63/44/67 64/45/68 65/46/68 66/47/67
f 64/48/68 67/49/69 68/50/69 65/51/68
f 69/52/70 59/53/65 62/54/65 70/55/70
f 61/42/66 60/41/66 63/56/67 66/57/67
f 68/50/69 67/49/69 69/58/70 70/59/70
g gagMoneyFive gagTankAll
f 71/60/26 72/61/26 73/62/26 74/63/26
g gagMoneyFiveFront gagMoneyFive gagTankAll
f 75/64/71 76/65/72 77/66/72 78/67/71
f 77/66/72 76/65/72 79/68/73 80/69/73
g gagMoneyTen gagTankAll
f 71/60/26 72/61/26 73/62/26 74/63/26
g gagMoneyTenFront gagMoneyTen gagTankAll
f 75/64/71 76/65/72 77/66/72 78/67/71
f 77/66/72 76/65/72 79/68/73 80/69/73
