v 12.4198663265999 0.483524017133738 -0.0363445031674202
v 11.4738724676017 0.476445363262507 -0.0363445031674202
v 11.6115680203976 0.475046140315339 2.55888590975383
v 12.4186508298859 0.481085358016447 2.55888590975383
v 11.5772277351439 0.505437782117388 4.80361898427247
v 12.3843105446322 0.511476999818496 4.80361898427247
v 11.5788297077489 0.373907821384941 6.22682045763872
v 12.2478264836189 0.378913766755832 6.22682045763872
v 11.5843024466607 -0.357585566563243 6.22682045763872
v 12.2533002237635 -0.352579621192351 6.22682045763872
v 11.5832171102208 -0.294933794677414 4.80361898427247
v 12.3902999197091 -0.288894576976306 4.80361898427247
v 11.6175573954745 -0.325325405190936 2.55888590975383
v 12.4246392037299 -0.319286187489827 2.55888590975383
v 11.4808921113102 -0.46168224705173 -0.0363445031674202
v 12.4268859703084 -0.454603593180499 -0.0363445031674202
v -0.828555249792384 -0.356279865024597 4.62465311285705
v -0.844351700910433 -0.356022235289646 5.40609334710389
v 4.28801208656291 -0.254880677996658 5.58868017722303
v 4.30148868110236 -0.255100495546196 4.75945710510094
v 9.85771039026616 -0.325912190234567 5.79622724237717
v 9.87118798603849 -0.326132023428369 5.12953380274335
v 13.0052681670101 -0.313189868226139 5.89915698594621
v 13.0164389222313 -0.313372092609956 5.34652950256828
v 13.0085111603023 -0.537252613878626 5.89940128676847
v 13.0196839179893 -0.537434838262443 5.34677430400698
v 9.86150906780573 -0.588273438881701 5.79651309436388
v 9.87498666357806 -0.588493272075503 5.12982065596293
v 4.29181026348605 -0.517241848422473 5.58896602920973
v 4.30528635740906 -0.517461681616275 4.75974395832052
v -0.839444658574783 -0.694980270906383 5.40646430388523
v -0.823648207456734 -0.695237963218389 4.62502206717263
v -0.540911056238209 -0.353084930910526 1.61504169774494
v -0.699624489611528 -0.352828584005201 2.43041371423116
v 4.15501782274622 -0.204809365935839 3.20641575210051
v 4.26961242996176 -0.205028072742652 2.49491413747232
v 9.76303581177719 -0.300096652013423 4.72782966033054
v 9.91150863527313 -0.300315358820237 3.83461779496801
v 12.8523849126861 -0.308855875270573 5.33378330741342
v 12.9646251207887 -0.309037160998567 4.7571597762621
v 12.8555538147453 -0.532918401903368 5.33460181529128
v 12.967794022848 -0.533099687631362 4.7579787847564
v 9.76674037342622 -0.562457650352338 4.72882038026344
v 9.91521319692216 -0.562676357159151 3.83560951613379
v 4.15873540042266 -0.467170317341962 3.20733538449906
v 4.27332950702177 -0.467389024148776 2.49583427048731
v -0.694829585358227 -0.691786275448136 2.43165223930139
v -0.536118154450664 -0.692042653641989 1.61627922158229
v -0.740209464325992 -0.411084755824933 0.57646333389082
v -0.756001910512529 -0.380665548830208 1.35731158919848
v 3.97294863002507 -0.326285994271907 1.65752150568124
v 3.98642172024945 -0.36763863300714 0.590041052950962
v 10.2443564908085 -0.400254169474124 1.80305921499498
v 10.2578300816493 -0.430391153951329 1.02783463445548
v 12.7322329623806 -0.419574209398485 1.7669985613485
v 12.7434007139031 -0.434551307848432 1.38507978184017
v 12.7327115516963 -0.643488616142373 1.77576060057312
v 12.7438813056846 -0.658465745880848 1.39384257198944
v 10.2449181824531 -0.662436572898404 1.81345376442737
v 10.258391773294 -0.692573494798555 1.03823093604541
v 3.97350932043681 -0.588466927135397 1.66795184918902
v 3.98698191004475 -0.629819534582103 0.600472898308061
v -0.755277017908772 -0.719394771445767 1.37068180274463
v -0.739485572955114 -0.749814103594602 0.589831795279435
v -0.108047514137008 0.476915035347926 -0.0363445970330026
v -0.106958954978803 0.474493647497783 2.55888590975383
v 0.593021410343841 0.479731409568486 2.55888590975383
v 0.71241023346508 0.483054345048319 -0.0363445970330026
v -0.0776041211105707 0.505361876149816 4.80361898427247
v 0.622376244212073 0.510599638220519 4.80361898427247
v 0.0426056973264599 0.374719477075291 6.22682095825516
v 0.622825297157908 0.379061073143025 6.22682095825516
v 0.0480792810284872 -0.35677394216142 6.22682095825516
v 0.628298912148463 -0.352432346093686 6.22682095825516
v -0.0716151214960053 -0.295009700644986 4.80361898427247
v 0.628365243826638 -0.289771938574283 4.80361898427247
v -0.100969986652765 -0.325877898008492 2.55888590975383
v 0.599010347381352 -0.320640135937788 2.55888590975383
v -0.101027745274421 -0.461212574966311 -0.0363445970330026
v 0.719430002327666 -0.455073265265918 -0.0363445970330026
v -0.869991982032144 0.57973427619869 -2.03977107764409
v -0.869991982032144 0.57973427619869 6.32347260598273
v 13.0105866541234 0.57973427619869 6.32347260598273
v 13.0105866541234 0.57973427619869 -2.03977107764409
v -0.869991982032144 -0.753654559058297 -2.03977107764409
v 13.0105866541234 -0.753654559058297 -2.03977107764409
v 13.0105866541234 -0.753654559058296 6.32347260598273
v -0.869991982032144 -0.753654559058296 6.32347260598273
vt 0.00418955087661743 0.102693580091
vt 0.145708978176117 0.0497547574341297
vt 0.233673393726349 0.443022400140762
vt 0.000943005084991455 0.398853957653046
vt 0.17984277009964 0.733087658882141
vt 0.00525364279747009 0.746482074260712
vt 0.242282509803772 0.880590677261353
vt 0.0883779525756836 0.858336329460144
vt 0.530082583427429 0.858336329460144
vt 0.789931833744049 0.880590677261353
vt 1.1223441362381 1.20930469036102
vt 0.673263490200043 0.627143681049347
vt 0.643289566040039 1.07682251930237
vt 0.88306725025177 1.05746304988861
vt 0.0257149934768677 0.605343401432037
vt 0.579103231430054 0.611806750297546
vt -0.0709660351276398 0.405657649040222
vt 0.578484535217285 0.251919269561768
vt -0.198630258440971 0.0052063912153244
vt 0.148836553096771 0.0089234160259366
vt 0.693358302116394 0.0497547574341297
vt 0.668137907981873 -0.128646448254585
vt 0.672544121742249 0.135630741715431
vt 0.781322717666626 0.443022400140762
vt 0.837476253509521 0.478924810886383
vt 0.727492094039917 0.733087658882141
vt 1.52277135848999 0.976904809474945
vt 0.126941546797752 0.00243605114519596
vt 0.460494220256805 0.0994491428136826
vt 0.460492134094238 0.398853957653046
vt 0.0468616187572479 0.25191855430603
vt 0.448580533266068 0.746482074260712
vt 0.583970129489899 0.618295609951019
vt 0.196852654218674 1.08022522926331
vt 0.741352319717407 0.112979836761951
vt 0.455875664949417 0.102659732103348
vt 0.455676168203354 0.449249237775803
vt 0.754350185394287 0.438360452651978
vt 0.440812319517136 0.70524537563324
vt 0.744445264339447 0.692696750164032
vt 0.440501064062119 0.896249890327454
vt 0.74251925945282 0.899348139762878
vt 0.441036701202393 0.999065518379211
vt 0.743999361991882 0.999368071556091
vt -0.014929972589016 0.896147847175598
vt 0.197504788637161 0.895939588546753
vt 0.194320544600487 0.702585697174072
vt -0.0161354001611471 0.703809082508087
vt 0.193231850862503 0.458943516016006
vt -0.0146519644185901 0.456272333860397
vt 0.198708564043045 0.107954390347004
vt 0.00725959381088614 0.111716508865356
vt 0.994605302810669 0.0982229933142662
vt 0.997396767139435 0.446589469909668
vt 0.984690606594086 0.702585637569427
vt 0.986808300018311 0.899999976158142
vt 0.19548873603344 0.00743567617610097
vt 0.00424347119405866 0.00773088028654456
vt 0.448894321918488 0.109849587082863
vt 0.739177584648132 0.171172827482224
vt 0.743316531181335 0.419110417366028
vt 0.443694621324539 0.422200828790665
vt 0.743316471576691 0.761529386043549
vt 0.443694621324539 0.762696385383606
vt 0.754373788833618 0.892180860042572
vt 0.4662706553936 0.897210001945496
vt 0.650765299797058 0.932858228683472
vt 0.531764030456543 0.885961353778839
vt 0.216409876942635 0.894414901733398
vt 0.0487489625811577 0.884375631809235
vt 0.017028633505106 0.766309559345245
vt 0.302162438631058 0.832574546337128
vt 0.00180459953844547 0.493328064680099
vt 0.248326793313026 0.428037405014038
vt -0.0139409769326448 0.119043096899986
vt 0.238332405686378 0.107391089200974
vt 0.923448920249939 0.0608639977872372
vt 0.8775674700737 0.389167666435242
vt 0.921167135238647 0.756001949310303
vt 0.983779609203339 0.886421859264374
vt 0.00482823699712753 0.00527938827872276
vt 0.258053749799728 0.0900507122278214
vt 0.739808976650238 0.0925334393978119
vt 0.461398154497147 0.100000016391277
vt 0.453277915716171 0.398984909057617
vt 0.73980849981308 0.400000005960464
vt 0.442111849784851 0.797969818115234
vt 0.73980849981308 0.800000011920929
vt 0.440531760454178 0.897854506969452
vt 0.73980849981308 0.899999976158142
vt 0.444424569606781 0.999812543392181
vt 0.73980849981308 1
vt 0.00505929253995419 0.895266592502594
vt 0.200094401836395 0.896901905536652
vt 0.199741527438164 0.742396712303162
vt 0.0049564721994102 0.735968589782715
vt 0.183878690004349 0.467946410179138
vt 0.0045447857119143 0.468154847621918
vt 0.195696175098419 0.107219599187374
vt 0.00809834059327841 0.107427701354027
vt 0.985720217227936 0.100000008940697
vt 0.986808300018311 0.400000005960464
vt 0.986808300018311 0.800000011920929
vt 0.194933414459229 0.00576977990567684
vt 0.00864990800619125 0.00673139607533813
vt 0.0014980137348175 0.101072564721107
vt 0.0014980137348175 0.393987894058228
vt 0.210962653160095 0.398854553699493
vt 0.206096053123474 0.101072572171688
vt 0.00149795413017273 0.741615414619446
vt 0.200323700904846 0.752544581890106
vt 0.00149798393249512 0.894661128520966
vt 0.198842942714691 0.896059632301331
vt 0.444363653659821 0.899527788162231
vt 0.443596243858337 0.996902048587799
vt 0.735905170440674 0.996877133846283
vt 0.741143643856049 0.897021293640137
vt 0.742384910583496 0.744780480861664
vt 0.448579967021942 0.746482074260712
vt 0.74258553981781 0.398855268955231
vt 0.460489630699158 0.398854553699493
vt 0.736716985702515 0.099451869726181
vt 0.460489630699158 0.0994503498077393
vt 0.986637532711029 0.399453073740005
vt 0.987606823444366 0.10005047917366
vt 0.985475838184357 0.750481426715851
vt 0.988740980625153 0.899121642112732
vt 0.206096008419991 0.101072572171688
vt 0.210962638258934 0.398854553699493
vt 0.200323671102524 0.752544581890106
vt 0.44857993721962 0.746482074260712
vt 0.198842957615852 0.896059632301331
vn -0.00748254078341775 0.999971567208056 0.000936140421420759
vn -0.00748241152165944 0.999951793175625 -0.00635805337136278
vn -0.00747679743803431 0.999201647306657 0.0392449426007331
vn -0.00745080677972336 0.995728177529305 0.0920319615812862
vn 0 1.90534251487403e-07 0.999999999999982
vn 0.0074753061541509 -0.999004287596187 -0.0439835555899785
vn 0.00748170036147399 -0.9998569047526 -0.0151721514048288
vn 0.00747852401845092 -0.999431670565298 0.0328695535345878
vn 0.00747240348049599 -0.998615217809554 0.0520750414824771
vn -0.998567797206856 -0.00747218059386617 0.0529766070886003
vn -0.999793343959296 -0.00748152630226575 0.0189022786689054
vn -0.999944767407789 -0.00748243688655883 -0.00738073655005214
vn -0.999971913635286 -0.0074822487299827 0.000433468021588471
vn 0.999971891040328 0.00748269189009233 0.000475869003284285
vn 0.999941312878917 0.00748203278226311 0.00783517603074373
vn 0.998418698057936 0.00747103104334365 0.0557161292934657
vn 0.995339448102762 0.00744761057094098 0.0961452866617675
vn -0.0196907031668843 0.999805905252179 -0.000654241288569883
vn -0.0034680623489057 0.999993921745119 -0.000359188476426006
vn 0.00436365507913821 0.999990450981159 -0.000237614915296064
vn -0.00402848502335249 0.99999180108867 -0.000411173751715061
vn 0.999690778564482 0.0144956215435379 0.0202045591193485
vn 0.0161889192922499 -0.999868735009891 0.000656994573325143
vn 0.00171688212536665 -0.999998461156617 0.000360555358555926
vn 0.010925588828828 -0.999940191584216 0.000494735551446078
vn 0.0346005446926057 -0.999400793689164 0.000925138068094877
vn -0.0355642917465734 0.00057732016240122 0.99936722372409
vn -0.0363975388809614 0.00056324415342399 0.99933723132856
vn -0.0349587234821799 0.000582947420309588 0.999388586999472
vn -0.0326865091048619 0.000616951843941776 0.999465462881515
vn 0.0262824138684832 -0.000709063822155054 -0.999654306222777
vn 0.0462988878206206 -0.000420558021016056 -0.998927542976729
vn 0.0675625796765184 -0.00011244998237084 -0.997715032051966
vn 0.0688282770533498 -9.3677063429401e-05 -0.997628517787295
vn -0.9996908179223 -0.0144944161185606 -0.0202034765133259
vn -0.0296566179589421 0.999544349444091 -0.00561947556500003
vn -0.00666691342600281 0.999976482673637 -0.001608217967596
vn 0.00955866580066876 0.999953452358248 0.0013134020455829
vn 0.00279048026390033 0.99999608177555 0.000222830528617784
vn 0.9814739415003 0.0145789155718491 0.191040198326463
vn 0.00915367898922309 -0.999956307170411 0.00189576134519325
vn -0.0035866759838646 -0.999993535574313 -0.000254096383970893
vn 0.0143495564083377 -0.999892589102358 0.00298336874479893
vn 0.0450116090072024 -0.998951417656203 0.00836780838966672
vn -0.157877891722638 0.00130923277472117 0.987457774902176
vn -0.210154950118929 0.000560325021981276 0.977667930831517
vn -0.227296939611259 0.000370349868413835 0.973825427930659
vn -0.192468148036511 0.000930156251216353 0.981302780389796
vn 0.179945779129972 -0.00098295616617519 -0.983676039339417
vn 0.205559830434085 -0.000630345115205206 -0.978644347440349
vn 0.260257476640821 0.000123322446667127 -0.965539243451102
vn 0.28924459664312 0.0005241978877838 -0.957255080179433
vn -0.981473906794584 -0.0145781075077697 -0.191040438292179
vn -0.00904520526324238 0.999200499974143 -0.0389428441843741
vn 0.00182025717724973 0.999246775885789 -0.0387629661618559
vn 0.00995446013285667 0.99920163776361 -0.0386910301488869
vn 0.00722334238417251 0.99922076137421 -0.0388032648567737
vn 0.999571096878577 0.00327980622829762 0.0291009476832603
vn 0.00815821624130382 -0.999200819499758 0.0391301139631867
vn -0.00226377249588767 -0.999242239502792 0.0388564296807128
vn 0.0062748101711798 -0.999223785634941 0.0388902684317538
vn 0.0252328752489335 -0.998913209876544 0.0391880229255329
vn -0.0637672388917084 0.039359774095057 0.9971883209441
vn -0.0432488053377545 0.0395004858699235 0.998283152443683
vn -0.00395040581293392 0.0395221222411987 0.999210886723851
vn 0.0148126957996134 0.0394055470978692 0.99911350050986
vn 0.00324411098598598 -0.0395688551924906 -0.999211579918221
vn 0.0362360644731029 -0.0395293024536384 -0.998561155803204
vn 0.105700966072136 -0.0390895354569912 -0.993629364496226
vn 0.142071385932074 -0.0386800850033043 -0.989100385362111
vn -0.999793560853839 -0.00293167020289143 -0.0201057450750454
vn -0.00748253100511574 0.999971567286238 0.000936135066389153
vn -0.00748238228221458 0.999951793421525 -0.00635804910798107
vn -0.00747674204118737 0.999201648678884 0.0392449182168699
vn -0.00745073465221205 0.995728184209645 0.092031895143504
vn 0 1.13437337745381e-07 0.999999999999994
vn 0.00747526936161648 -0.999004286888778 -0.0439835779105745
vn 0.00748164511350491 -0.99985690522752 -0.0151721473510736
vn 0.00747849048926869 -0.999431670960202 0.0328695491557395
vn 0.00747238391076963 -0.998615216211961 0.0520750749267761
vn 0.998915185737144 0.00747460631825096 0.0459628324204898
vn 0.999837531890359 0.00748151282436164 0.0163992923400345
vn 0.999951516591228 0.00748239664109727 -0.0064014222956737
vn 0.999971934442182 0.0074825744222171 0.000376042518940099
vn -0.99997192042088 -0.00748253005982674 0.000412448398803992
vn -0.999948915288092 -0.00748236504349691 0.00679566240509213
vn -0.99880198010186 -0.00747379448862596 0.0483605928473396
vn -0.996481331785136 -0.00745645471038304 0.0834826729739362
vn 0 1 0
vn 0 -1 0
g pCube2 fence
f 1/1/1 2/2/1 3/3/2 4/4/2
f 4/4/2 3/3/2 5/5/3 6/6/3
f 6/6/3 5/5/3 7/7/4 8/8/4
f 8/9/5 7/10/5 9/11/5 10/12/5
f 10/13/6 9/14/6 11/15/7 12/16/7
f 12/16/7 11/15/7 13/17/8 14/18/8
f 14/18/8 13/17/8 15/19/9 16/20/9
f 2/21/10 15/22/10 13/23/11 3/24/11
f 3/24/11 13/23/11 11/25/12 5/26/12
f 5/26/12 11/25/12 9/27/13 7/10/13
f 16/28/14 1/29/14 4/30/15 14/31/15
f 14/31/15 4/30/15 6/32/16 12/33/16
f 12/33/16 6/32/16 8/9/17 10/34/17
g pCube5 fence
f 17/35/18 18/36/18 19/37/19 20/38/19
f 20/38/19 19/37/19 21/39/20 22/40/20
f 22/40/20 21/39/20 23/41/21 24/42/21
f 24/42/22 23/41/22 25/43/22 26/44/22
f 26/45/23 25/46/23 27/47/24 28/48/24
f 28/48/24 27/47/24 29/49/25 30/50/25
f 30/50/25 29/49/25 31/51/26 32/52/26
f 18/36/27 31/51/27 29/49/28 19/37/28
f 19/37/28 29/49/28 27/47/29 21/39/29
f 21/39/29 27/47/29 25/46/30 23/41/30
f 32/53/31 17/35/31 20/38/32 30/54/32
f 30/54/32 20/38/32 22/40/33 28/55/33
f 28/55/33 22/40/33 24/42/34 26/56/34
f 32/52/35 31/51/35 18/57/35 17/58/35
g pCube6 fence
f 33/59/36 34/60/36 35/61/37 36/62/37
f 36/62/37 35/61/37 37/63/38 38/64/38
f 38/64/38 37/63/38 39/65/39 40/66/39
f 40/66/40 39/65/40 41/67/40 42/68/40
f 42/69/41 41/70/41 43/71/42 44/72/42
f 44/72/42 43/71/42 45/73/43 46/74/43
f 46/74/43 45/73/43 47/75/44 48/76/44
f 34/60/45 47/77/45 45/78/46 35/61/46
f 35/61/46 45/78/46 43/79/47 37/63/47
f 37/63/47 43/79/47 41/80/48 39/65/48
f 48/76/49 33/59/49 36/62/50 46/74/50
f 46/74/50 36/62/50 38/64/51 44/72/51
f 44/72/51 38/64/51 40/66/52 42/69/52
f 48/76/53 47/75/53 34/81/53 33/82/53
g pCube7 fence
f 49/83/54 50/84/54 51/85/55 52/86/55
f 52/86/55 51/85/55 53/87/56 54/88/56
f 54/88/56 53/87/56 55/89/57 56/90/57
f 56/90/58 55/89/58 57/91/58 58/92/58
f 58/93/59 57/94/59 59/95/60 60/96/60
f 60/96/60 59/95/60 61/97/61 62/98/61
f 62/98/61 61/97/61 63/99/62 64/100/62
f 50/84/63 63/99/63 61/97/64 51/85/64
f 51/85/64 61/97/64 59/95/65 53/87/65
f 53/87/65 59/95/65 57/94/66 55/89/66
f 64/101/67 49/83/67 52/86/68 62/102/68
f 62/102/68 52/86/68 54/88/69 60/103/69
f 60/103/69 54/88/69 56/90/70 58/56/70
f 64/100/71 63/99/71 50/104/71 49/105/71
g pCube8 fence
f 65/106/72 66/107/73 67/108/73 68/109/72
f 66/107/73 69/110/74 70/111/74 67/108/73
f 69/110/74 71/112/75 72/113/75 70/111/74
f 71/114/76 73/115/76 74/116/76 72/117/76
f 73/117/77 75/118/78 76/119/78 74/114/77
f 75/118/78 77/120/79 78/121/79 76/119/78
f 77/120/79 79/122/80 80/123/80 78/121/79
f 68/122/81 67/120/82 78/124/82 80/125/81
f 67/120/82 70/118/83 76/126/83 78/124/82
f 70/118/83 72/117/84 74/127/84 76/126/83
f 79/128/85 77/129/86 66/121/86 65/123/85
f 77/129/86 75/130/87 69/131/87 66/121/86
f 75/130/87 73/132/88 71/114/88 69/131/87
g pPlane1 collision
f 81//89 82//89 83//89 84//89
g pPlane2 collision
f 85//90 86//90 87//90 88//90
