v 0.966161567491913 -4.00000000216337 4.36656089260044
v 5.46196614017998 -4.00000000216337 4.45646990595494
v 5.37065308344297 -4.00000000216337 9.02248217444404
v 0.874848510754902 -4.00000000216337 8.93257316108954
v -0.5 -4.00000000216337 0
v 20.5295320226187 -4.00000000216337 0
v 19.4830573863885 -4.00000000216337 12.9862373266134
v 21.1232575641038 -4.00000000216337 14.5186972657885
v 10.9091140047562 -4.00000000216337 20.202634738934
v -0.164804572299218 -4.00000000216337 14.000899858651
v 1.73151705247407 -4.00000000216337 13.0753702420454
v -0.305646457090466 -4.00000000216337 7.76923270330369
v 0.440486670703827 11.7248336385593 29.9057431850906
v 0.289852052956464 11.7248336385593 20
v 0.289852052956464 5.1139367208679 20
v 0.529532022618683 -1.49696019682348 23.1215699625483
v 0.440486670703827 -1.49696019682348 29.9057431850906
v 20.5295320226187 -1.49696019682348 0
v 20.5295320226187 0 0
v 20.5295320226187 0 14.6797128596447
v 20.5295320226187 -1.49696019682348 14.5186972657949
v 20.7350215932757 0 15.2126790225095
v 21.4370179879481 0 17.5834693727179
v 21.4370179879481 -1.49696019682348 17.5834693727179
v 21.2099988365173 0 30.3211007293279
v 21.2099988365173 -1.49696019682348 30.3211007293279
v 21.3939488554655 5.1139367208679 20
v 21.3310512033312 5.1139367208679 23.5290727722061
v 21.3310512033312 0 23.5290727722061
v 21.3939488554655 0 20
v 21.2099988365173 5.1139367208679 30.3211007293279
v 22.6116491105911 5.1139367208679 34.6131286864464
v 22.6116491105911 -3.83428791238411 34.6131286864464
v -1.76194668425186 -3.83428791238411 34.0593186274634
v -1.76194668425186 5.1139367208679 34.0593186274634
v 0.440486670703827 5.1139367208679 29.9057431850906
v 0.442873379502915 0 21.9929357353052
v -0.353171109956929 0 18.137279431701
v -0.353171109956929 -1.49696019682348 18.137279431701
v 0.478370856870014 -0.000108070048620235 22.4147780256157
v 0.289852052956464 2.64332358399787 20
v 0.0263156816215732 0 19.9753307711142
v -0.353171109956929 0 17.5729623180794
v -0.207457969346891 0 14.3732174648998
v -0.164804572586522 -1.49696019898685 14.0008998586574
v -0.30564645737777 0 7.76923270331008
v -0.500000000287304 0 6.39050161964339e-12
v -0.500000000287304 -1.49696019682348 6.39050161964339e-12
v -0.30564645737777 -1.49696019682348 7.76923270331008
v -0.240705652308919 0 10.8305600254262
v 7.63510229689241 10.6583619213997 46.1046874103445
v 13.9487445810987 12.139583389814 52.0581455444122
v 21.2901890976177 10.6583619213997 46.2431399250903
v 8.3692467485443 10.6583619213997 45.4124248366157
v 20.8497024266265 10.6583619213997 45.4124248366157
v 7.48827340656203 10.6583619213997 34.0593186274634
v 7.34144451623165 10.6583619213997 38.905156643565
v 21.7306757686088 10.6583619213997 34.0593186274634
v 21.2099988365173 11.7248336385593 30.3211007293279
v 21.3731793399783 11.7248336385593 20
v -1.76194668425186 11.7248336385593 34.0593186274634
v 9.39704898085696 11.7248336385593 35.5822962896668
v 22.6116491105911 11.7248336385593 34.6131286864464
v 10.0484187380959 1.60981935800519 37.5010129308475
v 18.9385920126251 1.60981935800519 37.5010129308475
v 18.9385920126251 1.60981935800519 43.4135327617247
v 10.0484187380959 1.60981935800519 43.4135327617247
v 21.7306757686088 1.60981935800519 34.0593186274634
v 20.8497024266265 1.60981935800519 45.4124248366157
v 8.3692467485443 1.60981935800519 45.4124248366157
v 7.34144451623165 1.60981935800519 38.905156643565
v 7.48827340656203 1.60981935800519 34.0593186274634
v 21.2901890976177 1.60981935800519 46.2431399250903
v 7.63510229689241 1.60981935800519 46.1046874103445
v 13.9487445810987 0.128597889590796 52.0581455444122
v 19.4830573861012 -1.49696019682348 12.9862373266197
v 20.5295320226187 -1.49696019466011 0
v 10.9091140044689 -1.49696019682348 20.2026347389404
v 1.73151705218677 -1.49696019682348 13.0753702420518
v 9.39704898085696 -3.83428791238411 35.5822962896668
v 6.33784654240719 -1.49696019682349 24.4549435318487
v 1.84204196971912 -1.49696019682349 24.3650345184942
v 1.93335502645613 -1.49696019682349 19.7990222500051
v 6.4291595991442 -1.49696019682349 19.8889312633596
v 8.73515613541774 -1.49696019682349 24.710208692352
v 13.2309607081058 -1.49696019682349 24.8001177057065
v 13.1396476513688 -1.49696019682349 29.3661299741956
v 8.64384307868073 -1.49696019682349 29.2762209608411
v 15.5345954825443 -1.49696019682349 19.7990222500051
v 20.0304000552324 -1.49696019682349 19.8889312633596
v 19.9390869984954 -1.49696019682349 24.4549435318487
v 15.4432824258073 -1.49696019682349 24.3650345184942
v 21.3731793399783 5.1139367208679 20
v 21.4370179879481 -4 -2
v 21.4370179879481 -4 20
v -0.5 -4 20
v -0.5 -4 -2
v 21.4370179879481 0 -2
v 21.4370179879481 0 20
v -0.5 0 20
v -0.5 0 -2
vt 0 0
vt 1 0
vt 1 1.01561629772186
vt 0 1.01561629772186
vt 0.0850204899907112 0.00545856915414333
vt 0.896141707897186 0.00537925492972136
vt 0.856056094169617 0.247600585222244
vt 0.921009123325348 0.27617746591568
vt 0.518000364303589 0.382232874631882
vt 0.0996231660246849 0.266599923372269
vt 0.154701948165894 0.249331653118134
vt 0.0934535786509514 0.150368332862854
vt 0.017197897657752 0.854449808597565
vt 0.017197897657752 0.571428596973419
vt 0.430378943681717 0.571428596973419
vt 0.843560039997101 0.660616278648376
vt 0.843560039997101 0.854449808597565
vt 0.793938815593719 0
vt 0.70588231086731 0
vt 0.70588231086731 0.41942036151886
vt 0.793938815593719 0.414819926023483
vt 0.70588231086731 0.434647977352142
vt 0.70588231086731 0.502384841442108
vt 0.793938815593719 0.502384841442108
vt 0.70588231086731 0.866317212581635
vt 0.793938815593719 0.86631715297699
vt 0.405062556266785 0.571428596973419
vt 0.405062556266785 0.672259271144867
vt 0.70588231086731 0.672259151935577
vt 0.70588231086731 0.571428537368774
vt 0.405062556266785 0.86631715297699
vt 0.405062556266785 0.988946557044983
vt 0.931428670883179 0.988946557044983
vt 0.989642977714539 0.973123371601105
vt 0.430378943681717 0.973123371601105
vt 0.430378943681717 0.854449808597565
vt 0.75 0.628369569778442
vt 0.75 0.518207967281342
vt 0.843560039997101 0.518207967281342
vt 0.75 0.640420794487
vt 0.584792256355286 0.571428537368774
vt 0.75 0.571428537368774
vt 0.75 0.502084612846375
vt 0.75 0.410663336515427
vt 0.843560039997101 0.400025695562363
vt 0.750000059604645 0.221978053450584
vt 0.75 0
vt 0.843560039997101 0
vt 0.801917374134064 0.221978068351746
vt 0.75 0.309444546699524
vt 0.406460821628571 0.882897257804871
vt 0.647209227085114 0.994566142559052
vt 0.92714911699295 0.88549417257309
vt 0.434454798698425 0.869912445545197
vt 0.910352766513824 0.869912445545197
vt 0.400862008333206 0.656962275505066
vt 0.395263195037842 0.747855603694916
vt 0.943945586681366 0.656962275505066
vt 0.879813671112061 0.580989360809326
vt 0.882533252239227 0.388852655887604
vt 0.116964146494865 0.383704960346222
vt 0.125440433621407 0.568183898925781
vt 0.0461737923324108 0.644980907440186
vt 0.450053215026855 0.676050901412964
vt 0.928053557872772 0.661221325397491
vt 1 1
vt 0 1
vt 0.952304601669312 0.0488127358257771
vt 0.0138905709609389 0.0458776652812958
vt 0.0145005630329251 -0.00287972879596055
vt 0.952914595603943 5.53396203031298e-05
vt 1 0.499575138092041
vt 0 0.499575138092041
vt 0.988581895828247 0.0131881209090352
vt 0.0114181153476238 0.986811876296997
vt 0.00455064419656992 0.0149590913206339
vt 0.988469302654266 0.0137519352138042
vt 0.988738536834717 0.0686132460832597
vt 0.00481987837702036 0.0698203966021538
vt 0 0.423668652772903
vt 1 0.423668652772903
vt 0.00592369865626097 1.09597611427307
vt 0.437459915876389 1.0947972536087
vt 0.431536197662354 -0.00117889523971826
vt 0.423698604106903 0.139552071690559
vt 0.0290675107389688 0.17742945253849
vt 0.406971037387848 -0.0078505277633667
vt 0.0093217920511961 0.00343099515885115
vt 0.0311639569699764 0.7674919962883
vt 0.4373839199543 0.761487483978271
vt 0.406219959259033 -0.00600447086617351
vt 0.360150396823883 0.00857973471283914
vt 0.369303315877914 1.00637245178223
vt 0.00915293861180544 0.997792720794678
vt 0.00187378819100559 0.015611675567925
vt 0.434528559446335 0.0192053746432066
vt -0.00293651456013322 0.160392910242081
vt 0.429718255996704 0.16398660838604
vt -0.00705041689798236 0.671837389469147
vt 0.420130521059036 0.672578871250153
vt 0.415286988019943 1.134122133255
vt -0.0118939587846398 1.13338077068329
vt 0.42718094587326 0.000741441326681525
vt 0.0876856967806816 0.151395574212074
vt 0.150084957480431 0.253434270620346
vt 0.0934030041098595 0.271232515573502
vt 0.937268793582916 0.281189918518066
vt 0.870686888694763 0.25172021985054
vt 0.932124495506287 -0.000671731075271964
vt 0.503217577934265 0.390074700117111
vt 0.872190415859222 0.28673392534256
vt 0.883849263191223 0.343871295452118
vt 0.135384902358055 0.441945195198059
vt 0.113636583089828 0.3490030169487
vt 0.120037041604519 0.272036254405975
vt 0.0161862559616566 0.988946557044983
vt 0.0161862559616566 0.86631715297699
vt 0.017197897657752 0.973123371601105
vt 0.0161862559616566 0.571428596973419
vn 0 -1 0
vn -0.971611984883616 -0.00407014813800624 -0.236545100825729
vn -0.999919469871023 -0.00788969367489832 0.00994014620462342
vn -0.999008234412619 -0.00351099419109954 0.0443871658880238
vn -0.995515798558707 0.0132062909694586 0.0936690381014442
vn 1 0 0
vn 0.982942712439334 0.0196684387141562 -0.182857257392077
vn 0.949831414917312 0.0592483755322967 -0.30709919119555
vn 0.946536672277109 0.0193520833128705 -0.322015255703869
vn 0.990897546121593 0 -0.134618175185243
vn 0.999841213273661 0 0.0178198832615025
vn 0.98893256229949 0 -0.148365721188437
vn 0.988857811641671 0 -0.148863119526786
vn 0.95059423122072 0 -0.310436156995102
vn -0.883481495320069 0 -0.468466057924174
vn -0.989791749002763 0.0359807392593767 0.137904604739654
vn -0.995384480775029 0.021026567858581 0.0936355641640184
vn -0.998849780039913 0.0082820579157244 0.0472284282069423
vn -0.99668313741488 0.00320381323502256 0.0813170288044603
vn -0.988910698120444 0.0482416793328374 0.140457721461242
vn -0.974885924462537 0.095316580716029 0.201276386407918
vn -0.99970441771566 -0.00857592598110701 -0.0227493009422191
vn -0.999549091006319 -0.0239887473941774 -0.0180597526810152
vn -0.99985088552188 -0.0166286131126503 -0.00465789083837277
vn -0.999721660595351 -0.000951285638208196 0.0235732134446841
vn -0.999687251745517 0 0.0250079726786428
vn -0.999687251745517 -5.74050333993694e-11 0.0250079726786428
vn -0.99405969309894 -0.000480909365710631 0.10883517483894
vn -0.999741948980935 -0.0163590931364064 0.0157612029856951
vn 0.00124596748550262 0.992420084113394 -0.122885410905401
vn 0.00247304631353012 0.969795246703272 -0.243907899654093
vn 0 1 0
vn 0.00124596748550253 -0.992420084113394 -0.122885410905401
vn 0.00247304631352995 -0.969795246703272 -0.243907899654094
vn 0.979049648593706 0 -0.203621672688693
vn 0.997002837849985 0 0.0773649876822649
vn 0.883481495320066 0 -0.468466057924178
vn 0.620901723034841 0 0.783888417016328
vn -0.686049190193566 0 0.727555158482676
vn -0.94634994324992 0 -0.323143597972903
vn -0.686049190193567 0 -0.727555158482675
vn -0.998004746124148 0 0.0631389476763379
vn -0.99954127085156 0 -0.0302861001855392
vn 0.898133496785549 0.0693408010389671 -0.434221228480409
vn 0.932519869377049 7.6249997480732e-11 -0.361118669161552
vn 0.996768888910733 5.71032514957327e-11 0.0803229861226783
vn 0.754591766301404 0.0971505427584207 -0.648963048464142
vn 0.00446543840209682 0.03384240247728 0.9994172060028
vn 0.496391904167934 0.058872526036887 0.866099938318072
vn -0.488623790231293 -5.83124835303496e-11 0.872494579708095
vn -0.438612991395944 -4.80501415600111e-11 -0.898676050520265
vn -0.980893935562857 -1.13085690739189e-10 0.194543278413855
vn -0.933561109508315 -1.08071040298069e-10 0.358418267968589
vn -0.999687251745517 -1.14810066798739e-10 0.0250079726786428
vn 9.60788737637515e-10 -1 -3.68871743174153e-10
vn 4.76298689786341e-10 -1 -1.62102336528749e-10
vn -0.00907020733941787 -0.955912757686547 -0.293510700027989
vn 0.0122517607346858 -0.896869867067923 -0.442124796753662
vn 0.0242522302844685 -0.95623951453341 -0.291578154482015
vn 0.0632897393402658 -0.88371330369754 -0.463729668839746
vn -0.0344173568204219 -0.882378100442348 -0.469280655268518
vn -4.09567903241707e-12 -1 2.23335350583269e-11
vn -8.19135806483413e-12 -1 4.46670701166539e-11
vn 0.988782823487811 0 -0.149360396275159
vn 0.999875039401061 0 0.0158084022825114
vn -1 0 0
g decals decal_base building3_landmark31c_front DD_C1
f 1/1/1 2/2/1 3/3/1 4/4/1
g decal_base building3_landmark31c_front DD_C1
f 5/5/1 6/6/1 7/7/1 8/8/1 9/9/1 10/10/1 11/11/1 12/12/1
g o126 DD_C1
f 13/13/2 14/14/3 15/15/4 16/16/5 17/17/2
f 18/18/6 19/19/6 20/20/7 21/21/8
f 21/21/8 22/22/9 23/23/10 24/24/10
f 21/21/8 20/20/7 22/22/9
f 24/24/10 23/23/10 25/25/11 26/26/12
f 27/27/11 28/28/11 29/29/11 30/30/11
f 28/28/11 31/31/13 25/25/11 29/29/11
f 26/26/12 31/31/13 32/32/14 33/33/14
f 34/34/15 35/35/15 36/36/15 17/17/2
f 16/16/5 37/37/16 38/38/17 39/39/18
f 16/16/5 40/40/19 37/37/16
f 37/37/16 41/41/20 42/42/21
f 40/40/19 15/15/4 41/41/20 37/37/16
f 39/39/18 43/43/22 44/44/23 45/45/24
f 39/39/18 38/38/17 43/43/22
f 46/46/25 47/47/26 48/48/27 49/49/28
f 45/45/24 50/50/29 46/46/25 49/49/28
f 45/45/24 44/44/23 50/50/29
g o297 DD_C1
f 51/51/30 52/52/31 53/53/30
f 54/54/32 51/51/30 53/53/30 55/55/32
f 56/56/32 57/57/32 54/54/32 55/55/32 58/58/32
g o298 DD_C1
f 59/59/32 60/60/32 14/61/32 13/62/32 61/63/32 62/64/32 63/65/32
g decals decal_base o127 DD_C1
f 64/1/1 65/2/1 66/66/1 67/67/1
g decal_base o127 DD_C1
f 68/58/1 69/55/1 70/54/1 71/57/1 72/56/1
g o127 DD_C1
f 69/55/1 73/53/33 74/51/33 70/54/1
f 73/53/33 75/52/34 74/51/33
f 55/66/35 69/67/35 68/1/36 58/2/36
f 53/68/37 73/69/37 69/70/35 55/71/35
f 52/72/38 75/73/38 73/1/38 53/2/38
f 51/1/39 74/74/39 75/66/39 52/75/39
f 54/76/40 70/77/40 74/78/41 51/79/41
f 57/80/42 71/81/42 70/66/40 54/67/40
f 56/1/43 72/2/43 71/81/42 57/80/42
g o128 DD_C1
f 76/82/44 7/83/45 6/84/46 77/1/46
f 21/85/8 8/86/47 76/87/44
f 8/86/47 7/88/45 76/87/44
f 78/89/48 9/90/48 8/91/49 21/1/49
f 45/1/50 10/92/50 9/93/48 78/94/48
f 79/95/51 11/96/51 45/97/51
f 11/96/51 10/98/51 45/97/51
f 49/99/28 12/100/52 11/101/53 79/102/53
f 48/1/27 5/103/54 12/100/52 49/99/28
g o129 DD_C1
f 49/104/55 79/105/55 45/106/56
f 26/59/57 80/64/58 17/62/59
f 80/64/58 34/63/60 17/62/59
f 26/59/57 33/65/61 80/64/58
f 21/107/62 76/108/1 18/109/1
g decals decal_base o129 DD_C1
f 81/3/1 82/4/1 83/1/1 84/2/1
f 85/1/1 86/2/1 87/3/1 88/4/1
f 89/1/1 90/2/1 91/3/1 92/4/1
g decal_base o129 DD_C1
f 78/110/63 21/111/62 24/112/63 26/59/57 17/62/59 16/113/63 39/114/63 45/115/56
g o130 DD_C1
f 63/116/14 32/32/14 31/31/13 59/117/64
f 13/13/2 36/36/15 35/35/15 61/118/15
f 59/117/64 31/31/13 93/27/65 60/119/65
g DD_C1_camera_collisions DD_C1
f 94//1 95//1 96//1 97//1
f 98//6 99//6 95//6 94//6
f 97//66 96//66 100//66 101//66
