v 1.49768424598395 0 1.17131666095472
v 1.49768424598395 0 5.25556861352783
v -0.974721308597787 0 5.25556861352783
v -0.974721308597787 0 1.17131666095472
v -1.78953066869269 -1.78953066869269 0.025
v 1.78953066869269 -1.78953066869269 0.025
v 1.78953066869269 1.78953066869269 0.025
v -1.78953066869269 1.78953066869269 0.025
v 0.825552943259931 0.000828556652054224 1.11022302462516e-16
v 0.825552943259931 0.000828556652054224 0.111208387590533
v 1.13112523844884 0.1221928417959 1.11022302462516e-16
v 1.28391138604329 0.1221928417959 0.111208387590533
v 1.28391138604329 0.1221928417959 0.222416775181067
v 0.749159869462705 0.000828556652054224 0.222416775181067
v 0.978339090854383 0.1221928417959 0.389229356566867
v 0.519980648071027 0.000828556652054224 0.500437744157401
v 0.825552943259931 0.1221928417959 0.556041937952667
v 0.519980648071027 0.000828556652054224 0.945271294519534
v 0.825552943259931 0.1221928417959 1.0008754883148
v 0.672766795665479 0.1221928417959 1.11208387590533
v 0.290801426679349 0.000828556652054224 0.945271294519534
v 0.290801426679349 0.1221928417959 1.11208387590533
v 0.672766795665479 -0.120535728491792 1.11208387590533
v 0.290801426679349 -0.120535728491792 1.11208387590533
v 0.825552943259931 -0.120535728491792 1.0008754883148
v 0.825552943259931 -0.120535728491792 0.556041937952667
v 0.978339090854383 -0.120535728491792 0.389229356566867
v 1.28391138604329 -0.120535728491792 0.222416775181067
v 1.28391138604329 -0.120535728491792 0.111208387590533
v 1.13112523844884 -0.120535728491792 1.11022302462516e-16
v -1.13112523844883 0.1221928417959 1.11022302462516e-16
v -0.825552943259932 0.000828556652054224 0.111208387590533
v -0.825552943259932 0.000828556652054224 1.11022302462516e-16
v -1.28391138604329 0.1221928417959 0.111208387590533
v -1.28391138604329 0.1221928417959 0.222416775181067
v -0.978339090854383 0.1221928417959 0.389229356566867
v -0.749159869462705 0.000828556652054224 0.222416775181067
v -0.825552943259932 0.1221928417959 0.556041937952667
v -0.519980648071027 0.000828556652054224 0.500437744157401
v -0.825552943259932 0.1221928417959 1.0008754883148
v -0.519980648071027 0.000828556652054224 0.945271294519534
v -0.672766795665479 0.1221928417959 1.11208387590533
v -0.290801426679349 0.1221928417959 1.11208387590533
v -0.290801426679349 0.000828556652054224 0.945271294519534
v -0.290801426679349 -0.120535728491792 1.11208387590533
v -0.672766795665479 -0.120535728491792 1.11208387590533
v -0.825552943259932 -0.120535728491792 1.0008754883148
v -0.825552943259932 -0.120535728491792 0.556041937952667
v -0.978339090854383 -0.120535728491792 0.389229356566867
v -1.28391138604329 -0.120535728491792 0.222416775181067
v -1.28391138604329 -0.120535728491792 0.111208387590533
v -1.13112523844883 -0.120535728491792 1.11022302462516e-16
v -0.121364285143846 -1.13029668179678 1.11022302462516e-16
v -2.77555756156289e-17 -0.824724386607877 0.111208387590533
v -2.77555756156289e-17 -0.824724386607877 1.11022302462516e-16
v -0.121364285143846 -1.28308282939123 0.111208387590533
v -0.121364285143846 -1.28308282939123 0.222416775181067
v -0.121364285143846 -0.977510534202329 0.389229356566867
v -2.77555756156289e-17 -0.748331312810651 0.222416775181067
v -0.121364285143846 -0.824724386607877 0.556041937952667
v -2.77555756156289e-17 -0.519152091418974 0.500437744157401
v -0.121364285143846 -0.824724386607877 1.0008754883148
v -2.77555756156289e-17 -0.519152091418974 0.945271294519534
v -0.121364285143846 -0.671938239013425 1.11208387590533
v -0.121364285143846 -0.289972870027295 1.11208387590533
v -2.77555756156289e-17 -0.289972870027295 0.945271294519534
v 0.121364285143846 -0.289972870027295 1.11208387590533
v 0.121364285143846 -0.671938239013425 1.11208387590533
v 0.121364285143846 -0.824724386607877 1.0008754883148
v 0.121364285143846 -0.824724386607877 0.556041937952667
v 0.121364285143846 -0.977510534202329 0.389229356566867
v 0.121364285143846 -1.28308282939123 0.222416775181067
v 0.121364285143846 -1.28308282939123 0.111208387590533
v 0.121364285143846 -1.13029668179678 1.11022302462516e-16
v 1.94289029309402e-16 0.826381499911985 1.11022302462516e-16
v 1.94289029309402e-16 0.826381499911985 0.111208387590533
v -0.121364285143846 1.13195379510089 1.11022302462516e-16
v -0.121364285143846 1.28473994269534 0.111208387590533
v -0.121364285143846 1.28473994269534 0.222416775181067
v 1.94289029309402e-16 0.749988426114759 0.222416775181067
v -0.121364285143846 0.979167647506437 0.389229356566867
v 1.94289029309402e-16 0.520809204723082 0.500437744157401
v -0.121364285143846 0.826381499911985 0.556041937952667
v 1.94289029309402e-16 0.520809204723082 0.945271294519534
v -0.121364285143846 0.826381499911985 1.0008754883148
v -0.121364285143846 0.673595352317533 1.11208387590533
v 1.94289029309402e-16 0.291629983331404 0.945271294519534
v -0.121364285143846 0.291629983331404 1.11208387590533
v 0.121364285143846 0.673595352317533 1.11208387590533
v 0.121364285143846 0.291629983331404 1.11208387590533
v 0.121364285143846 0.826381499911985 1.0008754883148
v 0.121364285143846 0.826381499911985 0.556041937952667
v 0.121364285143846 0.979167647506437 0.389229356566867
v 0.121364285143846 1.28473994269534 0.222416775181067
v 0.121364285143846 1.28473994269534 0.111208387590533
v 0.121364285143846 1.13195379510089 1.11022302462516e-16
v 0.212560513285241 -0.0867797208892061 0.513253052752919
v 0.0889404512462532 -0.21166550946672 0.513253052752919
v -0.0867797208892061 -0.212560513285241 0.513253052752919
v -0.21166550946672 -0.0889404512462532 0.513253052752919
v -0.212560513285241 0.0867797208892062 0.513253052752919
v -0.0889404512462533 0.21166550946672 0.513253052752919
v 0.086779720889206 0.212560513285241 0.513253052752919
v 0.21166550946672 0.0889404512462534 0.513253052752919
v 0.290801426679349 0.1221928417959 0.945271294519534
v 0.119224273737355 0.292031047830027 0.945271294519534
v 0.119224273737355 0.292031047830027 1.11208387590533
v -0.1221928417959 0.29080142667935 0.945271294519534
v -0.1221928417959 0.29080142667935 1.11208387590533
v -0.292031047830027 0.119224273737355 0.945271294519534
v -0.292031047830027 0.119224273737355 1.11208387590533
v -0.290801426679349 -0.1221928417959 0.945271294519534
v -0.290801426679349 -0.1221928417959 1.11208387590533
v -0.119224273737355 -0.292031047830027 0.945271294519534
v -0.119224273737355 -0.292031047830027 1.11208387590533
v 0.1221928417959 -0.29080142667935 0.945271294519534
v 0.1221928417959 -0.29080142667935 1.11208387590533
v 0.292031047830027 -0.119224273737355 0.945271294519534
v 0.292031047830027 -0.119224273737355 1.11208387590533
v 0.244709759970161 0.102825427396949 1.18430123609847
v 0.100327373706645 0.24574448768822 1.18430123609847
v -0.102825427396949 0.244709759970161 1.18430123609847
v -0.24574448768822 0.100327373706646 1.18430123609847
v -0.24470975997016 -0.102825427396949 1.18430123609847
v -0.100327373706645 -0.24574448768822 1.18430123609847
v 0.102825427396949 -0.244709759970161 1.18430123609847
v 0.24574448768822 -0.100327373706645 1.18430123609847
vt 0 0
vt 0 1
vt 1 1
vt 1 0
vt 0.461538463830948 0
vt 0.461538463830948 0.0998566672205925
vt 0.15384615957737 0
vt 0 0.0998566672205925
vt 0 0.199713334441185
vt 0.538461565971375 0.199713334441185
vt 0.307692319154739 0.349498331546783
vt 0.769230782985687 0.449355006217957
vt 0.461538463830948 0.499283313751221
vt 0.769230782985687 0.848781645298004
vt 0.461538463830948 0.898710012435913
vt 0.615384638309479 0.998566627502441
vt 1 0.848781645298004
vt 1 0.998566627502441
vt 0 0.834793984889984
vt 1 0.834793984889984
vt 0 0.70505690574646
vt 1 0.70505690574646
vt 0 0.45043820142746
vt 1 0.45043820142746
vt 0 0.288873761892319
vt 1 0.288873761892319
vt 0 0.0612269416451454
vt 1 0.0612269416451454
vt 0 -0.002427734201774
vt 1 -0.002427734201774
vt 1.06874942779541 0.942245841026306
vt 0.0687494575977325 0.942245841026306
vt 0.0574603639543056 0.787523150444031
vt 1.05746030807495 0.787523150444031
vt 0.0485533811151981 0.665448486804962
vt 1.04855334758759 0.665448486804962
vt 0.0309880003333092 0.424706131219864
vt 1.03098797798157 0.424706131219864
vt 0.0198853462934494 0.272538632154465
vt 1.01988530158997 0.272538632154465
vt 0.00426705181598663 0.0584820844233036
vt 1.00426709651947 0.0584820844233036
vt -0.00012429324851837 -0.0017035014461726
vt 0.999875724315643 -0.0017035014461726
vt 0.996585249900818 1.0003582239151
vt -0.00341473403386772 1.0003582239151
vt -0.00285095348954201 0.835196793079376
vt 0.997149050235748 0.835196793079376
vt -0.00240799970924854 0.705431938171387
vt 0.997591972351074 0.705431938171387
vt -0.00153823290020227 0.450630694627762
vt 0.998461782932281 0.450630694627762
vt -0.000986558152362704 0.289015650749207
vt 0.999013423919678 0.289015650749207
vt -0.000209371239179745 0.0613360367715359
vt 0.999790608882904 0.0613360367715359
vt 8.0704649008112e-06 -0.00236427085474133
vt 1.00000810623169 -0.00236427085474133
vt 2.07636499404907 6.07673633634676e-11
vt 1.85794937610626 2.542674924777e-11
vt 1.63953375816345 -2.48089743193347e-11
vt 1.42111814022064 -6.05115818563817e-11
vt 1.20270252227783 -6.07673633634676e-11
vt 0.984286844730377 -2.54264179155861e-11
vt 0.765871167182922 2.48089743193347e-11
vt 2.29478073120117 6.05115818563817e-11
vt 0.547455549240112 0.64379620552063
vt 0.547455549240112 6.05115818563817e-11
vt 0.765871167182922 0.64379620552063
vt 0.547455549240112 0.892381310462952
vt 0.765871167182922 0.892381310462952
vt 0.984286844730377 0.64379620552063
vt 0.984286844730377 0.892381310462952
vt 1.20270252227783 0.64379620552063
vt 1.20270252227783 0.892381310462952
vt 1.42111814022064 0.64379620552063
vt 1.42111814022064 0.892381310462952
vt 1.63953375816345 0.64379620552063
vt 1.63953375816345 0.892381310462952
vt 1.85794937610626 0.64379620552063
vt 1.85794937610626 0.892381310462952
vt 0.110624276101589 0.64379620552063
vt 0.110624276101589 2.542674924777e-11
vt 0.329039871692657 6.07673633634676e-11
vt 0.329039871692657 0.64379620552063
vt 0.110624276101589 0.892381310462952
vt 0.329039871692657 0.892381310462952
vt 2.29478073120117 1
vt 0.765871167182922 1
vt 0.984286844730377 1
vt 1.20270252227783 1
vt 1.42111814022064 1
vt 1.63953375816345 1
vt 1.85794937610626 1
vt 2.07636499404907 1
vt 0.547455549240112 1
vt 0.329039871692657 1
vt 0.110624276101589 1
vn 0 -1 0
vn 0 0 1
vn -0.369122559130274 0.929380727334669 0
vn -0.276945394175496 0.960828461640931 0.0104840805843997
vn -0.310244892752707 0.935593550321665 0.168561013040868
vn -0.252310026296434 0.952903324192858 0.168270334202123
vn -0.236463684615428 0.960443461483095 -0.147082572565434
vn -0.259221211814812 0.925182993881247 -0.277201715684072
vn -0.340715371895335 0.930766690633271 -0.132613735946971
vn -0.226262262792054 0.913108192125444 -0.339173728212583
vn -0.3309574738246 0.923072929159236 -0.195968155507541
vn -0.142029558242151 0.857786240096631 -0.493994302483769
vn 0 0.808629900040082 -0.58831767333743
vn 0.396413850849446 0.85612848054387 -0.33151181525906
vn 0.309429729709184 0 0.950922311428279
vn 0.552784316049277 0.232276324258698 0.80029820012218
vn 0.891203474970607 0 0.453603754614438
vn 0.932048866476324 0 0.362332596518998
vn 0.616645642791339 0 0.787240847026154
vn 0.479154910784524 0 0.877730352369721
vn 0.891203474970607 0 -0.453603754614438
vn 1 0 0
vn 0.588487267599369 0 -0.808506484744203
vn -0.310244892752707 -0.935593550321665 0.168561013040868
vn -0.276945394175496 -0.960828461640931 0.0104840805843996
vn -0.369122559130274 -0.929380727334669 0
vn -0.252310026296434 -0.952903324192858 0.168270334202122
vn -0.236463684615428 -0.960443461483095 -0.147082572565434
vn -0.259221211814812 -0.925182993881247 -0.277201715684072
vn -0.340715371895335 -0.93076669063327 -0.132613735946971
vn -0.3309574738246 -0.923072929159236 -0.195968155507541
vn -0.226262262792054 -0.913108192125444 -0.339173728212583
vn -0.142029558242151 -0.857786240096631 -0.493994302483768
vn 0 -0.808629900040082 -0.58831767333743
vn 0.310244892752708 0.935593550321664 0.168561013040869
vn 0.276945394175497 0.960828461640931 0.0104840805843997
vn 0.369122559130275 0.929380727334668 0
vn 0.252310026296434 0.952903324192858 0.168270334202123
vn 0.236463684615428 0.960443461483095 -0.147082572565434
vn 0.259221211814812 0.925182993881247 -0.277201715684072
vn 0.340715371895335 0.930766690633271 -0.132613735946971
vn 0.3309574738246 0.923072929159236 -0.195968155507541
vn 0.226262262792054 0.913108192125443 -0.339173728212583
vn 0.142029558242151 0.857786240096631 -0.493994302483769
vn -0.309429729709184 0 0.950922311428279
vn -0.891203474970607 0 0.453603754614438
vn -0.932048866476325 0 0.362332596518997
vn -0.616645642791339 0 0.787240847026154
vn -0.479154910784523 0 0.877730352369722
vn -1 0 0
vn -0.891203474970606 0 -0.453603754614438
vn -0.588487267599369 0 -0.808506484744203
vn 0.369122559130275 -0.929380727334668 0
vn 0.276945394175497 -0.960828461640931 0.0104840805843997
vn 0.310244892752708 -0.935593550321664 0.168561013040869
vn 0.252310026296434 -0.952903324192858 0.168270334202123
vn 0.236463684615428 -0.960443461483095 -0.147082572565434
vn 0.259221211814812 -0.925182993881247 -0.277201715684072
vn 0.340715371895335 -0.930766690633271 -0.132613735946971
vn 0.226262262792054 -0.913108192125444 -0.339173728212583
vn 0.3309574738246 -0.923072929159236 -0.195968155507541
vn 0.142029558242151 -0.857786240096631 -0.493994302483769
vn -0.935593550321665 0.310244892752707 0.168561013040868
vn -0.960828461640931 0.276945394175496 0.0104840805843996
vn -0.929380727334669 0.369122559130274 0
vn -0.952903324192858 0.252310026296433 0.168270334202123
vn -0.960443461483095 0.236463684615428 -0.147082572565434
vn -0.925182993881247 0.259221211814812 -0.277201715684072
vn -0.93076669063327 0.340715371895336 -0.132613735946971
vn -0.923072929159236 0.3309574738246 -0.19596815550754
vn -0.913108192125444 0.226262262792054 -0.339173728212583
vn -0.857786240096631 0.142029558242151 -0.493994302483768
vn -0.808629900040083 0 -0.588317673337429
vn 0 -0.309429729709184 0.950922311428279
vn 0 -0.891203474970607 0.453603754614438
vn 0 -0.932048866476324 0.362332596518997
vn 0 -0.616645642791339 0.787240847026154
vn 0 -0.479154910784523 0.877730352369722
vn 0 -0.891203474970607 -0.453603754614439
vn 0 -0.588487267599369 -0.808506484744204
vn 0.929380727334669 0.369122559130274 0
vn 0.960828461640931 0.276945394175496 0.0104840805843997
vn 0.935593550321665 0.310244892752707 0.168561013040869
vn 0.952903324192858 0.252310026296433 0.168270334202123
vn 0.960443461483095 0.236463684615428 -0.147082572565434
vn 0.925182993881247 0.259221211814812 -0.277201715684072
vn 0.93076669063327 0.340715371895336 -0.132613735946971
vn 0.913108192125444 0.226262262792054 -0.339173728212583
vn 0.923072929159236 0.3309574738246 -0.195968155507541
vn 0.857786240096631 0.142029558242151 -0.493994302483768
vn 0.808629900040083 0 -0.588317673337429
vn -0.929380727334668 -0.369122559130275 0
vn -0.960828461640931 -0.276945394175496 0.0104840805843997
vn -0.935593550321664 -0.310244892752707 0.168561013040868
vn -0.952903324192858 -0.252310026296434 0.168270334202123
vn -0.960443461483095 -0.236463684615428 -0.147082572565434
vn -0.925182993881247 -0.259221211814812 -0.277201715684072
vn -0.93076669063327 -0.340715371895336 -0.132613735946971
vn -0.913108192125443 -0.226262262792055 -0.339173728212583
vn -0.923072929159235 -0.3309574738246 -0.195968155507541
vn -0.857786240096631 -0.142029558242151 -0.493994302483769
vn 0 0.309429729709184 0.950922311428279
vn 0 0.891203474970607 0.453603754614438
vn 0 0.932048866476324 0.362332596518998
vn 0 0.616645642791339 0.787240847026154
vn 0 0.479154910784524 0.877730352369721
vn 0 0.891203474970607 -0.453603754614438
vn 0 1 0
vn 0 0.588487267599369 -0.808506484744203
vn 0.935593550321664 -0.310244892752707 0.168561013040868
vn 0.960828461640931 -0.276945394175497 0.0104840805843997
vn 0.929380727334668 -0.369122559130275 0
vn 0.952903324192858 -0.252310026296434 0.168270334202123
vn 0.960443461483095 -0.236463684615428 -0.147082572565434
vn 0.925182993881247 -0.259221211814812 -0.277201715684072
vn 0.93076669063327 -0.340715371895336 -0.132613735946971
vn 0.923072929159236 -0.3309574738246 -0.195968155507541
vn 0.913108192125444 -0.226262262792054 -0.339173728212583
vn 0.857786240096631 -0.142029558242151 -0.493994302483769
vn 0 0 -1
vn 0.917476353222014 0.38551751331108 -0.098047887324901
vn 0.904242242837963 0.379956627400259 -0.194881829737897
vn 0.370725913954563 0.90806572953755 -0.194881829737897
vn 0.376151703013151 0.921355798870029 -0.0980478873249011
vn 0.360350521538801 0.882651972558015 0.301783029619227
vn -0.379956627400258 0.904242242837963 -0.194881829737897
vn -0.385517513311079 0.917476353222014 -0.0980478873249012
vn -0.369322897839259 0.87893549260765 0.301783029619228
vn -0.90806572953755 0.370725913954563 -0.194881829737897
vn -0.921355798870029 0.37615170301315 -0.0980478873249012
vn -0.882651972558015 0.3603505215388 0.301783029619228
vn -0.904242242837963 -0.379956627400259 -0.194881829737897
vn -0.917476353222013 -0.38551751331108 -0.0980478873249011
vn -0.87893549260765 -0.36932289783926 0.301783029619227
vn -0.370725913954563 -0.90806572953755 -0.194881829737897
vn -0.376151703013151 -0.921355798870029 -0.0980478873249011
vn -0.360350521538802 -0.882651972558014 0.301783029619228
vn 0.379956627400258 -0.904242242837963 -0.194881829737897
vn 0.385517513311079 -0.917476353222014 -0.0980478873249011
vn 0.369322897839259 -0.87893549260765 0.301783029619227
vn 0.90806572953755 -0.370725913954563 -0.194881829737897
vn 0.921355798870029 -0.376151703013151 -0.098047887324901
vn 0.882651972558015 -0.360350521538801 0.301783029619227
vn 0.999987029160336 0.00509328097447555 0
vn 0.226633374419602 0.555121702404421 0.80029820012218
vn -0.232276324258696 0.552784316049277 0.800298200122181
vn -0.555121702404421 0.2266333744196 0.800298200122181
vn -0.552784316049277 -0.232276324258697 0.80029820012218
vn -0.226633374419602 -0.555121702404421 0.800298200122181
vn 0.232276324258697 -0.552784316049277 0.80029820012218
vn 0.555121702404422 -0.226633374419601 0.80029820012218
g p487 o7 g2
f 1/1/1 2/2/1 3/3/1 4/4/1
g shadow_small_brickbox_ur g2
f 5/1/2 6/4/2 7/3/2 8/2/2
g o2 base g2
f 9/5/3 10/6/4 11/7/5
f 10/6/4 12/8/6 11/7/5
f 10/6/4 13/9/7 12/8/6
f 10/6/4 14/10/8 15/11/8 13/9/7
f 14/10/8 16/12/9 17/13/9 15/11/8
f 16/12/9 18/14/10 19/15/11 17/13/9
f 18/14/10 20/16/12 19/15/11
f 18/14/10 21/17/13 22/18/14 20/16/12
f 23/19/15 20/20/15 22/3/16 24/2/2
f 25/21/17 19/22/17 20/20/15 23/19/15
f 26/23/18 17/24/18 19/22/17 25/21/17
f 27/25/19 15/26/19 17/24/18 26/23/18
f 28/27/20 13/28/20 15/26/19 27/25/19
f 29/29/21 12/30/21 13/28/22 28/27/22
f 30/1/23 11/4/23 12/30/21 29/29/21
f 30/7/24 10/6/25 9/5/26
f 30/7/24 29/8/27 10/6/25
f 29/8/27 28/9/28 10/6/25
f 28/9/28 27/11/29 14/10/29 10/6/25
f 27/11/29 26/13/30 16/12/30 14/10/29
f 26/13/30 25/15/31 18/14/32 16/12/30
f 25/15/31 23/16/33 18/14/32
f 23/16/33 24/18/34 21/17/34 18/14/32
g o2_1 base g2
f 31/7/35 32/6/36 33/5/37
f 31/7/35 34/8/38 32/6/36
f 34/8/38 35/9/39 32/6/36
f 35/9/39 36/11/40 37/10/40 32/6/36
f 36/11/40 38/13/41 39/12/41 37/10/40
f 38/13/41 40/15/42 41/14/43 39/12/41
f 40/15/42 42/16/44 41/14/43
f 42/16/44 43/18/13 44/17/13 41/14/43
f 45/31/2 43/32/2 42/33/45 46/34/45
f 46/34/45 42/33/45 40/35/46 47/36/46
f 47/36/46 40/35/46 38/37/47 48/38/47
f 48/38/47 38/37/47 36/39/48 49/40/48
f 49/40/48 36/39/48 35/41/49 50/42/49
f 50/42/50 35/41/50 34/43/51 51/44/51
f 51/44/51 34/43/51 31/1/52 52/4/52
f 33/5/53 32/6/54 52/7/55
f 32/6/54 51/8/56 52/7/55
f 32/6/54 50/9/57 51/8/56
f 32/6/54 37/10/58 49/11/58 50/9/57
f 37/10/58 39/12/59 48/13/59 49/11/58
f 39/12/59 41/14/60 47/15/61 48/13/59
f 41/14/60 46/16/62 47/15/61
f 41/14/60 44/17/34 45/18/34 46/16/62
g o2_2 base g2
f 53/7/63 54/6/64 55/5/65
f 53/7/63 56/8/66 54/6/64
f 56/8/66 57/9/67 54/6/64
f 57/9/67 58/11/68 59/10/68 54/6/64
f 58/11/68 60/13/69 61/12/69 59/10/68
f 60/13/69 62/15/70 63/14/71 61/12/69
f 62/15/70 64/16/72 63/14/71
f 64/16/72 65/18/73 66/17/73 63/14/71
f 67/45/2 65/46/2 64/47/74 68/48/74
f 68/48/74 64/47/74 62/49/75 69/50/75
f 69/50/75 62/49/75 60/51/76 70/52/76
f 70/52/76 60/51/76 58/53/77 71/54/77
f 71/54/77 58/53/77 57/55/78 72/56/78
f 72/56/1 57/55/1 56/57/79 73/58/79
f 73/58/79 56/57/79 53/1/80 74/4/80
f 55/5/81 54/6/82 74/7/83
f 54/6/82 73/8/84 74/7/83
f 54/6/82 72/9/85 73/8/84
f 54/6/82 59/10/86 71/11/86 72/9/85
f 59/10/86 61/12/87 70/13/87 71/11/86
f 61/12/87 63/14/88 69/15/89 70/13/87
f 63/14/88 68/16/90 69/15/89
f 63/14/88 66/17/91 67/18/91 68/16/90
g o2_3 base g2
f 75/5/92 76/6/93 77/7/94
f 76/6/93 78/8/95 77/7/94
f 76/6/93 79/9/96 78/8/95
f 76/6/93 80/10/97 81/11/97 79/9/96
f 80/10/97 82/12/98 83/13/98 81/11/97
f 82/12/98 84/14/99 85/15/100 83/13/98
f 84/14/99 86/16/101 85/15/100
f 84/14/99 87/17/73 88/18/73 86/16/101
f 89/19/102 86/20/102 88/3/2 90/2/2
f 91/21/103 85/22/103 86/20/102 89/19/102
f 92/23/104 83/24/104 85/22/103 91/21/103
f 93/25/105 81/26/105 83/24/104 92/23/104
f 94/27/106 79/28/106 81/26/105 93/25/105
f 95/29/107 78/30/107 79/28/108 94/27/108
f 96/1/109 77/4/109 78/30/107 95/29/107
f 96/7/110 76/6/111 75/5/112
f 96/7/110 95/8/113 76/6/111
f 95/8/113 94/9/114 76/6/111
f 94/9/114 93/11/115 80/10/115 76/6/111
f 93/11/115 92/13/116 82/12/116 80/10/115
f 92/13/116 91/15/117 84/14/118 82/12/116
f 91/15/117 89/16/119 84/14/118
f 89/16/119 90/18/91 87/17/91 84/14/118
g o3 base g2
f 97/59/120 98/60/120 99/61/120 100/62/120 101/63/120 102/64/120 103/65/120 104/66/120
f 105/67/121 104/68/122 103/65/123 106/69/124
f 22/70/14 105/67/121 106/69/124 107/71/125
f 106/69/124 103/65/123 102/64/126 108/72/127
f 107/71/125 106/69/124 108/72/127 109/73/128
f 108/72/127 102/64/126 101/63/129 110/74/130
f 109/73/128 108/72/127 110/74/130 111/75/131
f 110/74/130 101/63/129 100/62/132 112/76/133
f 111/75/131 110/74/130 112/76/133 113/77/134
f 112/76/133 100/62/132 99/61/135 114/78/136
f 113/77/134 112/76/133 114/78/136 115/79/137
f 114/78/136 99/61/135 98/60/138 116/80/139
f 115/79/137 114/78/136 116/80/139 117/81/140
f 116/82/139 98/83/138 97/84/141 118/85/142
f 117/86/140 116/82/139 118/85/142 119/87/143
f 118/85/142 97/84/141 104/68/122 105/67/121
f 119/87/143 118/85/142 105/67/121 22/70/144
f 120/88/16 121/89/145 122/90/146 123/91/147 124/92/148 125/93/149 126/94/150 127/95/151
f 107/71/125 121/89/145 120/96/16 22/70/16
f 109/73/128 122/90/146 121/89/145 107/71/125
f 111/75/131 123/91/147 122/90/146 109/73/128
f 113/77/134 124/92/148 123/91/147 111/75/131
f 115/79/137 125/93/149 124/92/148 113/77/134
f 117/81/140 126/94/150 125/93/149 115/79/137
f 119/87/143 127/97/151 126/98/150 117/86/140
f 22/70/16 120/96/16 127/97/151 119/87/143
