v -5.00000014901161 -5.00000014901161 0
v 5.00000014901161 -5.00000014901161 0
v 5.00000014901161 5.00000014901161 0
v -5.00000014901161 5.00000014901161 0
vt 0 0
vt 1 0
vt 1 1
vt 0 1
vn 0 0 1
g ripples
f 1/1/1 2/2/1 3/3/1 4/4/1
f 1/1/1 2/2/1 3/3/1 4/4/1
f 1/1/1 2/2/1 3/3/1 4/4/1
f 1/1/1 2/2/1 3/3/1 4/4/1
f 1/1/1 2/2/1 3/3/1 4/4/1
f 1/1/1 2/2/1 3/3/1 4/4/1
f 1/1/1 2/2/1 3/3/1 4/4/1
f 1/1/1 2/2/1 3/3/1 4/4/1
f 1/1/1 2/2/1 3/3/1 4/4/1
f 1/1/1 2/2/1 3/3/1 4/4/1
f 1/1/1 2/2/1 3/3/1 4/4/1
f 1/1/1 2/2/1 3/3/1 4/4/1
f 1/1/1 2/2/1 3/3/1 4/4/1
f 1/1/1 2/2/1 3/3/1 4/4/1
f 1/1/1 2/2/1 3/3/1 4/4/1
f 1/1/1 2/2/1 3/3/1 4/4/1
f 1/1/1 2/2/1 3/3/1 4/4/1
f 1/1/1 2/2/1 3/3/1 4/4/1
f 1/1/1 2/2/1 3/3/1 4/4/1
f 1/1/1 2/2/1 3/3/1 4/4/1
f 1/1/1 2/2/1 3/3/1 4/4/1
f 1/1/1 2/2/1 3/3/1 4/4/1
f 1/1/1 2/2/1 3/3/1 4/4/1
f 1/1/1 2/2/1 3/3/1 4/4/1
