v 19.6641172309049 -7.20812264084816 0.701353773474693
v 19.6641172309049 -7.20812264084816 14.7412709287289
v 5.63704176141107 -7.20812264084816 14.7412709287289
v 5.63704176141107 -7.20812264084816 0.701353773474693
v 20.5209333452331 -3 0.734598166884887
v 19.6641172309049 -3 0.734598166884887
v 19.6641172309049 -7.20812264084816 0.734598166884887
v 20.5209333452331 -10.0135377347469 0.734598166884887
v 5.63704176141107 -7.20812264084816 0.734598166884887
v 4.78022564708294 -10.0135377347469 0.734598166884887
v 5.63704176141107 -3 0.734598166884887
v 4.78022564708294 -3 0.734598166884887
v 4.78022564708294 -10.0135377347469 0
v 4.78022564708294 -3 0
v 20.5209333452331 -3 0
v 20.5209333452331 -10.0135377347469 0
v 26.4004511112737 -3 9.35138364632924
v 28.7616926591642 -3 14.0270754694939
v 19.6641172309049 -3 14.7412709287289
v 19.6641172309049 -3 9.35138364632924
v 25.2381528201416 -3 4.67569182316462
v 19.6641172309049 -3 4.67569182316462
v 25 -3 0
v 19.6641172309049 -3 0
v 5.63704176141107 -3 14.7412709287289
v -3.7616926591642 -3 14.0270754694939
v -1.40045111127368 -3 9.35138364632924
v 5.63704176141107 -3 9.35138364632924
v -0.23815282014158 -3 4.67569182316462
v 5.63704176141107 -3 4.67569182316462
v 0 -3 0
v 5.63704176141107 -3 0
v 19.6641172309049 -3 0.701353773474693
v 5.63704176141107 -3 0.701353773474693
v -3.7616926591642 10.9341150819874 14.0270754694939
v -1.40045111127368 10.9341150819874 9.35138364632924
v -0.23815282014158 10.9341150819874 4.67569182316462
v 0 10.9341150819874 0
v 26.4004511112737 10.9341150819874 9.35138364632924
v 28.7616926591642 10.9341150819874 14.0270754694939
v 25.2381528201416 10.9341150819874 4.67569182316462
v 25 10.9341150819874 0
v 21.1858956789 -8.98236555595265 14.7412709287289
v 21.1858956789 -4.82648092025596 14.7412709287289
v 29.9377850290248 -4.82648092025596 14.0270754694939
v 29.9377850290248 12.7605960022434 14.0270754694939
v 4.11526331341595 -8.98236555595265 14.7412709287289
v -4.9377850290248 -4.82648092025596 14.0270754694939
v 4.11526331341595 -4.82648092025596 14.7412709287289
v -4.9377850290248 12.7605960022434 14.0270754694939
v 15.8093914174763 -3.20608239832389 25.5106695351719
v 14.853864353433 -6.29476583215769 25.5106695351719
v 9.54139013842887 -3.20608239832389 25.5106695351719
v 10.4969172024722 -6.29476583215769 25.5106695351719
v 0 -3 26.6430416913487
v 0 10.9341150819874 26.6430416913487
v 25 10.9341150819874 26.6430416913487
v 25 -3 26.6430416913487
v 14.853864353433 -0.11739896449009 25.5106695351719
v 14.853864353433 -0.11739896449009 30.8773401606985
v 15.8093914174763 -3.20608239832389 30.8773401606985
v 9.54139013842887 -3.20608239832389 30.8773401606985
v 10.4969172024722 -0.11739896449009 30.8773401606985
v 10.4969172024722 -0.11739896449009 25.5106695351719
v 10.4969172024722 -6.29476583215769 30.8773401606985
v 14.853864353433 -6.29476583215769 30.8773401606985
v 16.3664973644513 -3.20608239832389 31.5610815199499
v 15.2411139822054 0.431651309339264 31.5610815199499
v 15.2411139822054 -6.84381610598704 31.5610815199499
v 8.98428419145391 -3.20608239832389 31.5610815199499
v 10.1096675736998 0.431651309339264 31.5610815199499
v 10.1096675736998 -6.84381610598704 31.5610815199499
v 9.74226413569439 -3.20608239832389 34.2511739014899
v 10.0379320596793 -3.20608239832389 36.94126628303
v 10.842068202418 -0.606760959835181 36.94126628303
v 10.6365466235787 -0.315368352185001 34.2511739014899
v 12.6753907779526 -3.20608239832389 39.133607296466
v 10.6365466235787 -6.09679644446277 34.2511739014899
v 10.842068202418 -5.80540383681259 36.94126628303
v 14.7142349323265 -6.09679644446277 34.2511739014899
v 14.5087133534872 -5.80540383681259 36.94126628303
v 15.6085174202108 -3.20608239832389 34.2511739014899
v 15.3128494962259 -3.20608239832389 36.94126628303
v 14.7142349323265 -0.315368352185001 34.2511739014899
v 14.5087133534872 -0.606760959835182 36.94126628303
v 12.650579496158 -10.1401448117144 13.6142146214843
v 12.650579496158 -10.1401448117144 12.3642146214843
v 17.2859999377855 -10.1401448117144 9.86421462148428
v 18.8311400849947 -10.1401448117144 9.86421462148428
v 6.47001890732133 -10.1401448117144 9.86421462148428
v 8.0151590545305 -10.1401448117144 9.86421462148428
v 6.47001890732133 -7.20812264084816 9.86421462148428
v 12.650579496158 -7.20812264084816 13.6142146214843
v 8.0151590545305 -7.20812264084816 9.86421462148428
v 12.650579496158 -7.20812264084816 12.3642146214843
v 17.2859999377855 -7.20812264084816 9.86421462148428
v 18.8311400849947 -7.20812264084816 9.86421462148428
v 12.8380795036086 -3.20608239832389 41.9797318824901
v 12.4296979285112 -3.20608239832389 41.9797318824901
v 12.4296979285112 -3.20608239832389 39.0617810346127
v 12.8380795036086 -3.20608239832389 39.0617810346127
v 15.5252283572598 -3.20608239832389 39.5019294091938
v 15.5252283572598 -3.20608239832389 41.6269294687984
v 12.8380795036086 -3.20608239832389 41.6269294687984
v 12.8380795036086 -3.20608239832389 39.5019294091938
v -1 -3 -2
v -1 -3 18
v -1 10.9341150819874 18
v -1 10.9341150819874 -2
v 5.63704176141107 -3 -2
v 5.63704176141107 -3 18
v 5.63704176141107 -7.20812264084816 -2
v 5.63704176141107 -7.20812264084816 18
v 19.6641172309049 -7.20812264084816 -2
v 19.6641172309049 -7.20812264084816 18
v 19.6641172309049 -3 -2
v 19.6641172309049 -3 18
v 26 -3 -2
v 26 -3 18
v 26 10.9341150819874 -2
v 26 10.9341150819874 18
v 0.619728364584333 -3.42387204540091 3.96324556775518
v 4.25934313825528 -3.42387204540091 3.96324556775518
v 4.25934313825528 -3.42387204540091 11.0460453980903
v 0.619728364584333 -3.42387204540091 11.0460453980903
v 21.0995027743758 -3.42387204540091 4.05339127633101
v 24.7391175480467 -3.42387204540091 4.05339127633101
v 24.7391175480467 -3.42387204540091 11.1361911066661
v 21.0995027743758 -3.42387204540091 11.1361911066661
v 20.5209333452331 -6.75 0.734598166884887
v 4.78022564708294 -6.75 0.734598166884887
vt 1 0
vt 1 1
vt 0 1
vt 0 0
vt 0.995514214038849 1.28616333007812
vt 0.94108110666275 1.28616333007812
vt 0.943772554397583 0.51446533203125
vt 0.0526388324797153 0.51446533203125
vt 0.0499473735690117 1.28616333007812
vt -0.00448576500639319 1.28616333007812
vt 0.997309505939484 1.02312290668488
vt 0.0120168225839734 1.02227663993835
vt 0.0147072998806834 -0.000846318725962192
vt 0.995014250278473 1.03779578208923
vt -0.00498577393591404 1.03779578208923
vt 0.277560621500015 0.67493748664856
vt 0.054022453725338 1.0012401342392
vt 0.914932191371918 0.992576718330383
vt 0.915034532546997 0.633269011974335
vt 0.392881631851196 0.354389429092407
vt 0.282892376184464 0.678857922554016
vt 0.920357406139374 0.636637508869171
vt 0.920357406139374 0.319453805685043
vt 0.415418237447739 0.0357129722833633
vt 0.920357406139374 0.00227000564336777
vt 0.925021886825562 0.984351992607117
vt -0.0207673311233521 0.979040920734406
vt 0.129452615976334 0.672365307807922
vt 0.828005790710449 0.642416298389435
vt 0.828133463859558 0.643074512481689
vt 0.129219144582748 0.671161234378815
vt 0.159418433904648 0.364370822906494
vt 0.74290144443512 0.340922832489014
vt 0.0978381410241127 0.0612686388194561
vt 0.657669484615326 0.0387711226940155
vt 0.960335075855255 0.00356331723742187
vt 0.0396649427711964 0.996436655521393
vt 0.0398067869246006 1
vt 0.0398067869246006 0
vt 1 0.646916508674622
vt 0 0.646916508674622
vt 1 0.315216898918152
vt 0 0.315216898918152
vt 0.261186391115189 0.0968756899237633
vt 0.847537040710449 0.0988328009843826
vt 0.579071938991547 0.00193281867541373
vt 0.134524509310722 0.0882095545530319
vt 0.926817357540131 0.0882095545530319
vt 0.230456054210663 0.00327688502147794
vt 0.0990645587444305 0.092179611325264
vt 0.898803412914276 0.0886875987052917
vt 0.087542861700058 0.094355084002018
vt 0.909250855445862 0.094355084002018
vt -0.0089470287784934 0.0914662182331085
vt 1.02889752388 0.0915349870920181
vt 0.103853583335876 0.0931557640433311
vt 0.896146416664124 0.0931557640433311
vt 0.287443220615387 0.966757953166962
vt 0.723471343517303 0.00348896603100002
vt 0.372453629970551 0.0204031802713871
vt 0.311277061700821 0.995493829250336
vt 0.669058918952942 1.0003913640976
vt 0.646179139614105 -0.00137941283173859
vt 0.0901849642395973 -0.00775036495178938
vt 0.603643357753754 -0.000326385023072362
vt 0.313585698604584 0.979035615921021
vt 0.399161845445633 0.00104374857619405
vt 0.706390619277954 0.99179470539093
vt 0.316655933856964 0.984121561050415
vt 0.90102481842041 0.98529839515686
vt 0.108731977641582 0.98529839515686
vt 0.0997821614146233 0.990992486476898
vt 0.892075002193451 0.990992486476898
vt 0.012642034329474 0.870100080966949
vt 0.973598480224609 0.25400322675705
vt 0.0312877632677555 0.874292433261871
vt 0.962682545185089 0.248904541134834
vt 1.22773671150208 0.0916904956102371
vt 1.72773671150208 0.0916904956102371
vt 1.90900635719299 -0.00359358708374202
vt 1.41521334648132 -0.00359358708374202
vt 0.888497591018677 0.879107892513275
vt -0.111502408981323 0.879107892513275
vt -0.00642859004437923 0.143021434545517
vt 0.842639446258545 0.143021434545517
vt 0.0711415335536003 0.142251282930374
vt 0.920209586620331 0.142251282930374
vt 0.118114061653614 0.161779850721359
vt 0.967182099819183 0.161779850721359
vt 0.947780609130859 0.152708649635315
vt 0.0987125486135483 0.152708649635315
vt 0.922195196151733 0.133914932608604
vt 0.0731271356344223 0.133914932608604
vt 0.902669131755829 0.342752754688263
vt 0.850013256072998 0.661654472351074
vt 0.126115366816521 0.670236647129059
vt 0.0976198315620422 0.35229703783989
vt 0.888937652111053 0.337910830974579
vt 0.0942906737327576 0.337910830974579
vt 0.835823953151703 0.666282594203949
vt 0.499968826770782 1.01747393608093
vt 0.10426902025938 0.643086135387421
vt 0.887385487556458 0.330171674489975
vt 0.861835300922394 0.637912631034851
vt 0.147291138768196 0.637912631034851
vt 0.092738501727581 0.330171674489975
vt 0.860483229160309 0.630560159683228
vt 0.527711391448975 1.0253518819809
vt 0.158511713147163 0.675161063671112
vt 0.874066948890686 0.331673979759216
vt 0.838516592979431 0.642997980117798
vt 0.152920082211494 0.645789861679077
vt 0.111612737178802 0.334778845310211
vt 0.00592378806322813 0.000548503187019378
vt 0.963081836700439 -0.00341837736777961
vt 0.867873311042786 0.331646084785461
vt 0.107270568609238 0.334798365831375
vt 0.851767957210541 0.645959675312042
vt 0.499091684818268 1.02156209945679
vt 0.136232197284698 0.646093010902405
vt 0.895830154418945 0.334500938653946
vt 0.830110907554626 0.65005350112915
vt 0.11556676030159 0.65005350112915
vt 0.101183205842972 0.334500938653946
vt 0.828066051006317 0.671090960502625
vt 0.512751281261444 1.01948893070221
vt 0.118282735347748 0.649988770484924
vt 0.8868727684021 0.326353788375854
vt 0.860844731330872 0.630536258220673
vt 0.146300569176674 0.630536258220673
vt 0.0922258049249649 0.326353788375854
vt 0.867688357830048 0.629586696624756
vt 0.512535989284515 1.01980602741241
vt 0.134297832846642 0.673718690872192
vt 0.0481700599193573 0.861893892288208
vt 0.13761693239212 0.992124855518341
vt 0.851811587810516 0.961810529232025
vt 1.03024518489838 0.864885091781616
vt 0.938913881778717 0.861159920692444
vt 0.0480590164661407 0.867704451084137
vt 0.202913641929626 0.965671539306641
vt 0.84843510389328 0.993964195251465
vt 0.75455367565155 0.0824411883950233
vt 0.362979710102081 0.0822670757770538
vt 0.363412201404572 0.967247664928436
vt 0.754986107349396 0.967421770095825
vt -0.0170223712921143 0.899769067764282
vt 0.981756985187531 0.899163722991943
vt 1.00505745410919 0.997391700744629
vt 0.00627816841006279 0.997997045516968
vt 0 0.897194445133209
vt 1 0.897194445133209
vt 1 0.896215438842773
vt 0 0.896215438842773
vt 0.0498333275318146 0.996614933013916
vt 1.01677060127258 0.998298227787018
vt 0.976125240325928 0.897286713123322
vt 0.00918796379119158 0.895603358745575
vt 0.7536301612854 0.970927178859711
vt 0.361599653959274 0.972213804721832
vt 0.358897119760513 0.0708805620670319
vt 0.750927686691284 0.0695939287543297
vt 0.131926208734512 1
vt 0.131926208734512 0
vt 1 0.150841593742371
vt 1 0.879092454910278
vt 0.131926208734512 0.879092454910278
vt 0.131926208734512 0.150841593742371
vt 0.671708881855011 0.990631699562073
vt 0.328291118144989 0.990631699562073
vn 0 -1 0
vn 0 0 1
vn -1 0 0
vn 1 0 0
vn -0.937422574635767 0 -0.348193791678212
vn -0.892633475082971 0 -0.450783184204224
vn -0.989175726074654 0 -0.146735758916091
vn -0.998705369929086 0 -0.0508683012770018
vn 0.937422574635767 0 -0.348193791678211
vn 0.892633475082971 0 -0.450783184204225
vn 0.989175726074654 0 -0.146735758916091
vn 0.998705369929086 0 -0.0508683012770025
vn 0 0 -1
vn -0.0398645938867205 -0.029441732273223 -0.998771244357284
vn 0.0385724139765935 -0.0284874013431026 -0.998849656777603
vn 0.96276384998291 -0.0664939057206806 0.262038794204395
vn 0.858926268717361 -0.125956212003131 0.496367502527204
vn 0.89469935601127 0 0.446668850887343
vn 0.917316951416649 -0.283784723219869 0.279277355886021
vn -0.893048823251363 0 0.449959775190356
vn -0.85724052021827 -0.125699154310446 0.499337974824216
vn -0.962308413212019 -0.0663898436535944 0.263732642122693
vn -0.916898357006583 -0.283655225232704 0.280779479515175
vn -0.931215159439358 0 0.364469925824245
vn 0.931215159439358 0 0.364469925824245
vn -0.00760532681926705 -0.988790901029079 0.149113088111252
vn 0.00787908716580531 -0.988773366882124 0.149215109590223
vn 0.955329039008267 0.295544289790111 0
vn 0.903560711490121 0.279529039582865 -0.324717656867235
vn 0.941074541861123 0 -0.338199211502448
vn -0.941074541861123 0 -0.338199211502448
vn -0.903560711490122 0.279529039582862 -0.324717656867235
vn -0.955329039008266 0.295544289790114 0
vn -0.903560711490122 -0.279529039582862 -0.324717656867234
vn 0 -0.992532897877634 0.121977238166086
vn 0 -0.943324738420451 -0.331871116374998
vn 0.903560711490121 -0.279529039582865 -0.324717656867234
vn 0.92346313697427 0.108443989624897 -0.368043116718511
vn 0.936430169439993 0.289697662338924 -0.197923728233753
vn 0.717606203419421 -0.555780921350003 -0.419700970069531
vn -0.92346313697427 0.108443989624897 -0.36804311671851
vn -0.936430169439994 0.289697662338919 -0.197923728233753
vn -0.717606203419423 -0.55578092135 -0.419700970069532
vn -0.981592016785225 0 0.190989823245939
vn -0.878235952968843 0 0.478227572305183
vn -0.847512076111786 0.262189616765994 0.461497438459621
vn -0.939240830791009 0.290567179415138 0.18274948979887
vn -0.639230386431205 0 0.769015287925417
vn -0.939240830791009 -0.290567179415137 0.18274948979887
vn -0.847512076111786 -0.262189616765994 0.46149743845962
vn -0.922492428665745 -0.285385828897029 0.259928158765322
vn 0 -0.982120380266405 0.188253973836869
vn 0 -0.882796021732787 0.469756515668239
vn 0 -0.963538986958334 0.267567973814706
vn 0.339910081347814 -0.454628214855674 0.823270504060036
vn 0.981592016785225 0 0.190989823245939
vn 0.878235952968843 0 0.478227572305182
vn 0.847512076111786 -0.262189616765994 0.46149743845962
vn 0.939240830791009 -0.290567179415137 0.18274948979887
vn 0.922492428665745 -0.285385828897029 0.259928158765323
vn 0.939240830791009 0.290567179415138 0.18274948979887
vn 0.847512076111786 0.262189616765994 0.46149743845962
vn 0.627086260424817 0.193997833109716 0.754405502853176
vn -0.518727132342323 0 0.854939858804062
vn 0.244792242970149 0 -0.969575555478604
vn -0.244792242970149 0 -0.969575555478604
vn 0.518727132342324 0 0.854939858804061
vn 0 -0.970243106738748 0.242132843344191
g door_front school_house
f 1/1/1 2/2/1 3/3/1 4/4/1
g school_house_front_porch school_house
f 5/5/2 6/6/2 7/7/2 8/1/2
f 8/1/2 7/7/2 9/8/2 10/4/2
f 10/4/2 9/8/2 11/9/2 12/10/2
f 13/1/3 10/11/3 12/12/3 14/13/3
f 15/1/4 5/14/4 8/15/4 16/4/4
f 16/1/1 8/2/1 10/3/1 13/4/1
g school_house_main_side_walls school_house
f 17/16/1 18/17/1 19/18/1 20/19/1
f 21/20/1 17/21/1 20/22/1 22/23/1
f 23/24/1 21/20/1 22/23/1 24/25/1
f 25/26/1 26/27/1 27/28/1 28/29/1
f 28/30/1 27/31/1 29/32/1 30/33/1
f 30/33/1 29/32/1 31/34/1 32/35/1
f 33/36/4 19/2/4 2/37/4 1/4/4
f 4/1/3 3/2/3 25/38/3 34/39/3
f 27/40/5 26/2/6 35/3/6 36/41/5
f 29/42/7 27/40/5 36/41/5 37/43/7
f 31/1/8 29/42/7 37/43/7 38/4/8
f 39/40/9 40/2/10 18/3/10 17/41/9
f 41/42/11 39/40/9 17/41/9 21/43/11
f 42/1/12 41/42/11 21/43/11 23/4/12
g school_house_roof school_house
f 43/4/13 2/44/13 19/45/14 44/46/14
f 45/4/14 18/47/14 40/48/13 46/1/13
f 44/49/14 19/50/14 18/51/14 45/1/14
f 2/52/13 43/4/13 47/1/13 3/53/13
f 48/4/15 26/54/15 25/55/15 49/1/15
f 26/56/15 48/4/15 50/1/13 35/57/13
f 51/58/16 43/59/17 44/60/18
f 51/61/16 52/62/19 43/63/17
f 49/64/20 47/65/21 53/66/22
f 47/67/21 54/68/23 53/69/22
f 48/1/24 55/70/24 56/71/24 50/4/24
f 46/4/25 57/72/25 58/73/25 45/1/25
f 53/2/26 55/74/26 48/4/26 49/75/26
f 45/4/27 58/76/27 51/2/27 44/77/27
f 25/78/15 3/79/13 47/80/13 49/81/15
g school_house_bell_tower_walls school_house
f 59/1/28 60/2/29 61/3/30 51/4/16
f 53/1/22 62/2/31 63/3/32 64/4/33
f 54/1/23 65/82/34 62/83/31 53/4/22
f 52/1/35 66/2/36 65/3/36 54/4/35
f 51/1/16 61/2/30 66/3/37 52/4/19
g school_house_bell_tower_roof school_house
f 67/4/38 61/84/30 60/85/29 68/1/39
f 69/4/40 66/86/37 61/87/30 67/1/38
f 70/1/41 71/4/42 63/88/32 62/89/31
f 65/90/34 72/1/43 70/4/41 62/91/31
f 66/92/36 69/1/40 72/4/43 65/93/36
f 73/94/44 74/95/45 75/96/46 76/97/47
f 71/4/42 70/1/41 73/98/44 76/99/47
f 74/100/45 77/101/48 75/102/46
f 78/103/49 79/104/50 74/105/45 73/106/44
f 70/4/51 72/1/43 78/103/49 73/106/44
f 79/107/50 77/108/48 74/109/45
f 80/110/52 81/111/53 79/112/53 78/113/52
f 72/114/54 69/115/54 80/116/52 78/117/52
f 81/118/53 77/119/55 79/120/53
f 82/121/56 83/122/57 81/123/58 80/124/59
f 69/4/40 67/1/60 82/121/56 80/124/59
f 83/125/57 77/126/55 81/127/58
f 84/128/61 85/129/62 83/130/57 82/131/56
f 67/4/38 68/1/39 84/128/61 82/131/56
f 85/132/62 77/133/63 83/134/57
g school_house_entrance_overhang school_house
f 86/135/1 87/136/1 88/137/1 89/138/1
f 86/139/1 90/140/1 91/141/1 87/142/1
f 92/143/64 90/144/64 86/145/64 93/146/64
f 94/147/65 91/148/65 90/149/13 92/150/13
f 95/3/13 87/151/13 91/152/65 94/2/65
f 96/153/66 88/2/66 87/3/13 95/154/13
f 97/155/13 89/156/13 88/157/66 96/158/66
f 93/159/67 86/160/67 89/161/67 97/162/67
g school_house_bell_tower_flag school_house
f 98/163/1 99/3/1 100/4/1 101/164/1
f 102/165/1 103/166/1 104/167/1 105/168/1
g school_house_camera_collide school_house
f 106//3 107//3 108//3 109//3
f 110//1 111//1 107//1 106//1
f 112//3 113//3 111//3 110//3
f 114//1 115//1 113//1 112//1
f 116//4 117//4 115//4 114//4
f 118//1 119//1 117//1 116//1
f 120//4 121//4 119//4 118//4
g school_house
f 122/1/1 123/4/1 124/3/1 125/2/1
f 126/4/1 127/1/1 128/2/1 129/3/1
g floor school_house
f 10//2 8//2 130//2 131//2
g sign_decal school_house
f 52/169/35 54/170/35 47/4/68 43/1/68
