v 0.822693969946834 4.28192008511601 0.266485013986823
v 0.658112999022476 4.3540098535733 -4.25669988873965e-05
v 0.870460975827195 5.43059001131633 0.353215998551977
v 0.359141013127925 4.4265702014833 0.0844740022824505
v 0.338948993232307 4.39933015918481 0.403234996194915
v 0.625441018051988 4.30993007549776 0.515724010667776
v -0.633581980006901 -0.323568992414499 0.0400297011290322
v -0.920074004826583 -0.23417399311316 -0.0724591999229171
v -0.899881014986614 -0.206934998980344 -0.391221015159226
v -0.600909999036414 -0.279495002716545 -0.475736991001239
v -0.43632799559065 -0.351579014084783 -0.209210003454854
vt 0.839882016181946 0.188951000571251
vt 0.655923008918762 0.188951000571251
vt 0.743987023830414 0
vt 0.462621003389359 0.188951000571251
vt 0.248633995652199 0.188951000571251
vt 1.03396999835968 0.188951000571251
vt 0.975225985050201 0.830371022224426
vt 1.25990998744965 0.922676026821136
vt 0.996733009815216 1.01889002323151
vt 0.549396991729736 0.986045002937317
vt 0.536104023456573 0.869535028934479
vt 0.248633995652199 1
vt 0.0339673012495041 1
vt 0.0339673012495041 0.188951000571251
vt 0.462621003389359 1
vt 0.655923008918762 1
vt 0.839882016181946 1
vt 1.03396999835968 1
vn 0.851354315979836 0.00420505438322336 -0.524574252303847
vn -0.17901378354443 0.338437070636167 -0.923804316140771
vn -0.889092405560625 0.457403282572439 -0.0172316994628632
vn -0.302930230849607 0.201311331636157 0.931507929645412
vn 0.777297296424276 -0.0794464178701544 0.624097091532329
vn -0.260937215181908 -0.960308079677331 -0.0985908811176158
vn -0.260937051619949 -0.96030814533801 -0.0985906744543349
vn -0.260936854141207 -0.96030818632661 -0.0985907978717455
vn -0.260937280690459 -0.960308051330411 -0.0985909838466902
vn -0.260937922135772 -0.960307870310697 -0.0985910493442445
vn -0.364542707313117 0.00345539543160838 0.931180259019291
vn -0.364542557949959 0.00345533256400505 0.931180317725935
vn -0.364542856676264 0.00345545829921174 0.93118020031262
vn -0.963298685160876 0.265682818370632 -0.038318183542086
vn -0.96329859919367 0.265682870704343 -0.0383199818086112
vn -0.963298771949779 0.265682763187332 -0.0383163842917416
vn -0.231964891268743 0.1615075400638 -0.959222395339694
vn -0.231964472473562 0.161507483897207 -0.959222506072108
vn -0.231965323883734 0.161507614904735 -0.959222278120821
vn 0.818378519818061 -0.165883471797861 -0.55021747708037
vn 0.818378416114259 -0.165883355731502 -0.550217666319042
vn 0.818378652383865 -0.165883578813321 -0.550217247641741
vn 0.74145408512303 -0.264767722152906 0.616558101852803
vn 0.741453766052184 -0.264767684834629 0.616558501583056
vn 0.741454382796061 -0.264767722027861 0.616557743933762
g ThePencilPoint pencil pencil
f 1/1/1 2/2/1 3/3/1
f 2/2/2 4/4/2 3/3/2
f 4/4/3 5/5/3 3/3/3
f 5/5/4 6/6/4 3/3/4
f 6/6/5 1/1/5 3/3/5
g ThePencil_Body pencil pencil
f 7/7/6 8/8/7 9/9/8
f 7/7/6 9/9/8 10/10/9
f 7/7/6 10/10/9 11/11/10
f 5/5/11 8/12/12 7/13/11
f 5/5/11 7/13/11 6/14/13
f 4/4/14 9/15/15 8/12/14
f 4/4/14 8/12/14 5/5/16
f 2/2/17 10/16/18 9/15/17
f 2/2/17 9/15/17 4/4/19
f 1/1/20 11/17/21 10/16/20
f 1/1/20 10/16/20 2/2/22
f 6/6/23 7/18/24 11/17/23
f 6/6/23 11/17/23 1/1/25
