v -7.58861091199942 22.0873086639145 -4.89863816542291
v -17.7627474367505 22.0873086639145 -5.13293967492965
v -16.769459842138 22.0873086639145 -4.0691482647388
v -8.7694346811558 22.0873086639145 -4.0691482647388
v -8.76943418053937 22.0873086639145 0.930851222129349
v -7.34169937500923 22.0873086639145 1.91650147492463
v -18.1344055817239 22.0873086639145 2.41337092509079
v -16.7694600924463 22.0873086639145 0.930850971821129
v -16.769459842138 20.2177241573365 -4.06914926597168
v -8.76943493146402 20.2177240165381 -4.06914926597168
v -16.7694603427545 20.2177242199136 0.930850909244074
v -8.76943418053937 20.2177240634709 0.930851096975239
v 24.6034997654712 21.9604031620376 -7.31252234751784
v 20.7717695261237 -25.9539526591464 -6.25130811075526
v 20.7911053354659 -25.9165686259432 1.43691836379644
v 24.6699375743315 21.9977871952407 1.75760812333875
v 20.7672599732406 -24.3257837971364 -6.69705270542032
v -20.4821949555805 -25.097992664247 -7.32525725137002
v -20.7189104375564 -25.097992664247 2.21665277496
v 20.7672599732406 -24.3257837971364 0.746117516664348
v -21.0350593198635 -25.4058064845747 -7.00823115551566
v -28.6139315399383 22.7586048194646 -6.27153551797541
v -28.6402028620627 22.6203959518945 0.950770428174437
v -21.0630567197492 -25.6103405944935 0.284445755125031
v 27.2889324999231 21.0140438530389 -4.38184312635206
v 29.1860985943652 -37.4367461116921 -4.38184412758494
v 29.2125531694708 -37.3937571768373 3.30638810405581
v 27.3153870750287 21.0570327878937 3.30638209665854
v 25.3107146015317 -30.9248476203658 -5.11248330744546
v -27.5928126858288 -30.9675081508366 -5.11248380806189
v -27.5433678013759 -30.9777868075634 3.52248995322881
v 25.3601474711901 -30.9351202696953 3.52248194336578
v -30.6224672813115 -37.2327549251046 -5.0125282267573
v -34.0509810159838 23.5761307043041 -5.0125282267573
v -34.070316825326 23.5295012867044 2.67569699625331
v -30.6418030906537 -37.2793843427042 2.67569699625331
v 1.19165473096953 -6.02745396571523 -10.9098339331119
v -0.128451099233052 -6.02745396571523 -10.9098339331119
v -0.128451099233052 -6.02745396571523 -7.89212154278292
v 1.19165473096953 -6.02745396571523 -7.89212154278292
v 1.51503004739917 -5.81114461102824 -10.8947723869264
v 0.51458263647525 -5.81114461102824 -10.8947723869264
v 0.51458263647525 -5.81114461102824 -8.99975894317227
v 1.51503004739917 -5.81114461102824 -8.99975894317227
v -14.0649660365788 -19.0775333114183 6.12010705502327
v 3.48447889793576 -19.0775333114183 6.25642290891312
v 3.48447889793576 -19.0775333114183 14.8296196003911
v -14.0649660365788 -19.0775333114183 17.77568827151
v 1.42820763775683 -19.8245131124662 6.12010705502327
v 18.9776523219632 -19.8245131124662 3.62605773244943
v 18.9776523219632 -19.8245131124662 16.9301891577213
v 1.42820763775683 -19.8245131124662 14.8296196003911
v -29.2822730197055 -18.0519224151852 6.12010705502327
v -10.8125941959892 -18.0519224151852 6.25642290891312
v -10.8125941959892 -18.0519224151852 17.278666258484
v -29.2822730197055 -18.0519224151852 14.8296196003911
v 11.2955228550228 -27.141603084374 -2.72315017820343
v 6.58228265957569 -27.7246009646438 -2.72315017820343
v 6.58228265957569 -27.7246009646438 7.1702171185511
v 11.2955228550228 -27.141603084374 7.1702171185511
v 26.3940505781199 -26.3766111038488 -4.81749356888098
v 22.1408373414688 -28.4895949476347 -4.81749356888098
v 22.1408373414688 -28.4895949476347 5.02512473759689
v 26.3940505781199 -26.3766111038488 5.02512473759689
v 9.22427039759678 -8.86012099859282 -10.7817211801924
v 8.64258012746576 -9.40410784223261 -10.7817211801924
v 8.64258012746576 -9.40410784223261 -8.96113438243315
v 9.22427039759678 -8.86012099859282 -8.96113438243315
v -3.90543374489612 -12.5274217660659 -10.5927014288314
v -4.86306918887642 -12.2382416812767 -10.6070070441939
v -4.89137404234078 -12.2382416812767 -8.71220385934424
v -3.93373834805226 -12.5274217660659 -8.69789824398171
v 26.8209502452941 8.85885844393352 -8.24600129615601
v 18.0480696710702 -0.73233777143824 -8.24600129615601
v 18.0480696710702 -0.73233777143824 23.9764796780163
v 26.8209502452941 8.85885844393352 23.9764796780163
v 17.5734572523222 -38.9970033500451 -4.2147268460492
v 7.49549765599368 -40.4335963131562 -4.2147268460492
v 7.49549765599368 -40.4335963131562 24.5160440760334
v 17.5734572523222 -38.9970033500451 24.5160440760334
v -10.6928637647253 11.6008488212045 -11.4316995375425
v -19.2378727469857 10.4961735682851 -11.8456412488081
v -19.946871780035 10.5116145817314 2.7490390567329
v -10.3215925962593 11.6215723393158 2.83519464527841
v -19.4062921318795 1.91733092460733 -7.40220578010941
v -34.711482330883 5.35125732421875 -7.40220578010941
v -34.711482330883 5.35125732421875 18.7526232301407
v -19.4062921318795 1.91733092460733 18.7526232301407
v 32.1259726376671 -25.4395692680138 -4.63240916334742
v 26.4611251710907 -31.5580693442677 -4.63240916334742
v 26.4611251710907 -31.5580693442677 20.2026927877912
v 32.1259726376671 -25.4395692680138 20.2026927877912
v -14.9858689996514 12.6167918127666 -12.0502401837527
v -16.6966195494484 13.175946333277 -12.0502401837527
v -16.6966195494484 13.175946333277 -7.33334398645115
v -14.9858689996514 12.6167918127666 -7.33334398645115
v -13.7519335809342 11.9198175865834 -11.2911244389892
v -17.0809728266998 12.1699055348795 -11.2911244389892
v -17.0809728266998 12.1699055348795 -8.13675527497539
v -13.7519335809342 11.9198175865834 -8.13675527497539
v 7.63541394331324 -27.141603084374 -3.81399289829524
v 2.92217349755795 -27.7246009646438 -3.81399289829524
v 2.92217349755795 -27.7246009646438 4.02162406701115
v 7.63541394331324 -27.141603084374 4.02162406701115
v -7.39355662989178 -27.141603084374 -5.18934495179985
v -14.4940634099204 -27.7246009646438 -5.18934495179985
v -14.4940634099204 -27.7246009646438 6.45520568206867
v -7.39355662989178 -27.141603084374 6.45520568206867
v -3.01862926933709 -26.1444892783177 -4.24146226697706
v -8.83082492457913 -26.6385796814766 -4.24146226697706
v -8.83082492457913 -26.6385796814766 4.39249724540811
v -3.01862926933709 -26.1444892783177 4.39249724540811
v 32.9312181848241 -41.4175278871391 -7.70924886067708
v 32.9312121774268 -41.4174117441252 26.1914571126302
v 34.0298710219816 20.7425455408772 26.1914991644111
v 34.0298750269131 20.7425535507402 -7.46816750273617
v -32.6272398780963 -41.4184289967294 -7.51582869081672
v -32.6272398780963 -41.4181887008387 26.1915091767399
v 32.9312141798925 -41.417175453166 -7.70928290259494
v -40.5963807594119 22.1058963164883 -7.00796532818652
v -40.5963807594119 22.1059063288171 26.191475134822
v -32.6272438830278 -41.4180845726193 -7.51586473520034
v -11.495129642837 -27.147230013149 -4.74364363302396
v -15.8238708816488 -27.6983366237851 -4.74364363302396
v -15.8238708816488 -27.6983366237851 4.95127480173987
v -11.495129642837 -27.147230013149 4.95127480173987
v -23.8589509578515 -33.6269308575808 -8.579374298336
v -23.9986449714721 -33.3825699613476 13.2211750260801
v -23.9986449714721 -36.187407726378 13.2211750260801
v -23.8589509578515 -35.9430468301448 -8.579374298336
v -25.3248800442913 -33.6269308575808 -8.579374298336
v -26.8704451913909 -33.3825699613476 13.2211750260801
v -17.6078435942883 -38.5265320304811 8.50634937837055
v -17.6078435942883 -16.7259837072978 8.50634937837055
v -17.6078435942883 -16.7259837072978 10.822469355866
v -17.6078435942883 -38.5265320304811 10.822469355866
v -18.5785208474307 -38.5265320304811 8.50634937837055
v -18.5785208474307 -16.7259837072978 8.50634937837055
v -18.5785208474307 -16.7259837072978 10.822469355866
v -25.6024197956396 -38.5265320304811 8.50634937837055
v -25.6024197956396 -16.7259837072978 8.50634937837055
v -25.6024197956396 -16.7259837072978 10.822469355866
v -25.6024197956396 -38.5265320304811 10.822469355866
v -26.573097048782 -38.5265320304811 8.50634937837055
v -26.573097048782 -16.7259837072978 8.50634937837055
v -26.573097048782 -16.7259837072978 10.822469355866
v 2.997477223554 -38.5265320304811 8.50634937837055
v 2.997477223554 -16.7259837072978 8.50634937837055
v 2.997477223554 -16.7259837072978 10.822469355866
v 2.997477223554 -38.5265320304811 10.822469355866
v 2.15051781161251 -38.5265320304811 10.822469355866
v 2.15051781161251 -16.7259837072978 10.822469355866
v 2.15051781161251 -16.7259837072978 8.50634937837055
v 2.15051781161251 -38.5265320304811 8.50634937837055
v 11.8061736499856 -38.5265320304811 10.822469355866
v 11.8061736499856 -16.7259837072978 10.822469355866
v 11.8061736499856 -16.7259837072978 8.50634937837055
v 11.8061736499856 -38.5265320304811 8.50634937837055
v 12.6531325613107 -16.7259837072978 8.50634937837055
v 12.6531325613107 -38.5265320304811 8.50634937837055
v 12.6531325613107 -16.7259837072978 10.822469355866
v -6.74757819788975 -38.5265320304811 8.50634937837055
v -6.74757819788975 -16.7259837072978 8.50634937837055
v -6.74757819788975 -16.7259837072978 10.822469355866
v -6.74757819788975 -38.5265320304811 10.822469355866
v -7.5945371092148 -38.5265320304811 10.822469355866
v -7.5945371092148 -16.7259837072978 10.822469355866
v -7.5945371092148 -16.7259837072978 8.50634937837055
v -7.5945371092148 -38.5265320304811 8.50634937837055
v 17.4591705242167 -20.83876602293 9.26049800682569
v -28.6738197947425 -21.6454693651575 9.26049800682569
v -28.6738197947425 -21.6454693651575 10.7579098598851
v 17.4591705242167 -20.83876602293 10.7579098598851
v 17.4591705242167 -22.6361432413417 9.26049800682569
v -28.6738197947425 -23.4428485860349 9.26049800682569
v 17.4591705242167 -27.2007379006213 9.26049800682569
v -28.6738197947425 -28.0074412428488 9.26049800682569
v -28.6738197947425 -28.0074412428488 10.7579098598851
v 17.4591705242167 -27.2007379006213 10.7579098598851
v 17.4591705242167 -28.998115119033 9.26049800682569
v -28.6738197947425 -29.8048204637262 9.26049800682569
v 12.4849744981981 -36.672985647607 -8.579374298336
v 12.9984948265897 -37.0191278732981 13.2211750260801
v 12.9984948265897 -34.010727449352 13.2211750260801
v 12.4849744981981 -34.3568696750431 -8.579374298336
v 16.1325149335886 -34.010727449352 13.2211750260801
v 14.2823537190755 -34.3568696750431 -8.579374298336
v -20.1177642101378 22.3717957343955 -12.033857010168
v -14.6070675587091 -19.7204309498544 -10.3885220104628
v 13.4659093821768 -18.5289778421557 -9.95645998656906
v 14.5451523187592 22.3717957343955 -11.082333341984
v 20.2912998950388 -23.9174950467007 -6.22924444243664
v 24.8828677680549 22.3717957343955 -6.01574955337004
v -27.6848620317114 22.371799739327 -5.85664664040713
v -20.5435344866255 -24.8482070882802 -6.33327554217161
v -20.543538491557 -24.8485034532121 -6.44213008129691
v 16.3680251209819 -27.2427443529468 3.68629012991289
v -21.71645928148 -27.2427423508921 3.62816030385719
v -21.7298031857299 -27.4199117352704 12.3705803840556
v 16.3546812167321 -27.4199137373251 12.4287102101113
vt 0.0570899024605751 0.0652456134557724
vt 0.936793923377991 0.0713623911142349
vt 0.878451108932495 0.125498473644257
vt 0.121227264404297 0.127730786800385
vt 0.123072803020477 0.882786631584167
vt 0.0570899173617363 0.946988582611084
vt 0.936793744564056 0.946988701820374
vt 0.878450989723206 0.882722318172455
vt 0.528566539287567 0.140673384070396
vt 0.528616666793823 0.869046270847321
vt 0.428052961826324 0.86939412355423
vt 0.428002685308456 0.1410211622715
vt 0.430532693862915 0.142260819673538
vt 0.4302778840065 0.871543228626251
vt 0.529694378376007 0.870060384273529
vt 0.52959930896759 0.142781049013138
vt 0.530378878116608 0.141935378313065
vt 0.530231773853302 0.870463371276855
vt 0.428906112909317 0.871440768241882
vt 0.428557097911835 0.142323285341263
vt 0.528643846511841 0.141087979078293
vt 0.533378481864929 0.871533215045929
vt 0.429220199584961 0.871817409992218
vt 0.425839006900787 0.141368716955185
vt 0 0
vt 1 0
vt 1 0.954685688018799
vt 0 0.935804724693298
vt -0.406927019357681 0
vt 1 0.954288303852081
vt -0.406927019357681 0.965616881847382
vt -0.567850232124329 0
vt 1 0.956253290176392
vt -0.567850232124329 0.967581868171692
vt -1.00482487678528 0
vt -1.00482487678528 0.9811190366745
vt 0 0.9811190366745
vt 1 0.969790458679199
vt 0 0.969790458679199
vt -1.00482487678528 0.973566651344299
vt 0 0.973566651344299
vt 1 1
vt 0 1
vt -1.00908875465393 0
vt -1.00908875465393 1
vt 0.887890100479126 0
vt 0.00540202669799328 0
vt 0.00540202669799328 1
vt 0.887890100479126 1
vt 1.001051902771 0
vt 1.001051902771 1
vt 0.989699363708496 0
vt 0.0028301696293056 0
vt 0.0028301696293056 1
vt 0.989699363708496 1
vt -1.00428223609924 0
vt -1.00428223609924 1
vt 0.999999701976776 0
vt 0.999999701976776 1
vt 1.00000059604645 0
vt 1.00000059604645 1
vt 1.00328075885773 0
vt 1.00328075885773 1
vt -0.989195585250854 0
vt -0.989195585250854 1
vt 1 0.208557561039925
vt 1 0.9811190366745
vt 0 0.208557561039925
vt 0 0.217850998044014
vt 1 0.210000485181808
vt -1 0.238469243049622
vt -1 0.9811190366745
vt 0 2
vt 1 2
vt -0.989195942878723 0
vt -0.989195942878723 1
vt -0.986414313316345 -3.02970099449158
vt 0.01358587667346 -2.99008321762085
vt 0.01358587667346 -2.00989174842834
vt -1 -1.97028315067291
vt -1 -0.00990025885403156
vt 0 -0.00990025885403156
vt -1 1
vt 1 -2.99668574333191
vt 1 -2.029700756073
vt -1 1.00608968734741
vt 0 0.999486804008484
vt -1 -0.960374593734741
vt 0 -0.966977477073669
vt 0 0.000520467758178711
vt 0 1.00052046775818
vt 1 1.00052046775818
vt 1 0.000520467758178711
vt -1.00152993202209 0.00399461388587952
vt -1.00152993202209 0.993397116661072
vt 1.0029604434967 0.993397116661072
vt 1.0029604434967 -8.94069671630859e-08
vt -0.996853709220886 0
vt -0.996853709220886 1
vt -0.00446736812591553 2.68220901489258e-07
vt -0.00446736812591553 1.00254130363464
vt 1 0.999998927116394
vt 1 4.76837158203125e-07
vt 0.990436673164368 0
vt -1.00068175792694 0
vt -1.00068175792694 1
vt 0.990436673164368 1
vn 0 1 0
vn 1.13235634202624e-08 1 0
vn 0 -6.58638043660033e-07 0.999999999999783
vn 0.999999999999996 -6.69422206556189e-08 5.62244260038367e-08
vn 2.7377373257309e-08 2.24221121669643e-08 -0.999999999999999
vn -0.999999999999984 6.69421851284813e-08 1.68673253142512e-07
vn -0.996764426751153 0.0802382410552007 0.00474365215976082
vn -0.0186662908653757 0.999825735770682 -0.000260146004255895
vn 0.987853903458251 0.155211211957508 0.00735833574778221
vn -0.999467120564667 -0.0324401980619013 0.0036205607131607
vn -0.000806431974148175 0.999998961274103 0.00119462051978617
vn 0.998410264483916 0.056292160215857 0.00285245006767878
vn -9.47517051486098e-08 -0.999999999999996 0
vn 8.70692460352981e-08 -0.999999999999996 0
vn 0 -1 0
vn -0.122758373748916 0.992436588238524 0
vn -0.444917225449753 0.895571695900498 0
vn -0.683039867187623 0.730381092192504 0
vn 0.289017565228558 0.957314058548858 0.00431744068521023
vn -0.737883716873377 0.674927863088442 0
vn -0.14112117181897 0.989992330709911 0
vn -0.120914192710319 0.992659402389466 -0.00265873071206022
vn 0.218921051245839 0.97574257533502 0
vn -0.733786406058488 0.679380239839052 0
vn 0.310673913326351 0.950516554079144 0
vn 0.0749123576080262 0.997190121630578 0
vn -0.122758226982857 0.992436606392582 0
vn -0.0818309410736924 0.996646224636904 0
vn -0.0847037295618383 0.996406181332851 0
vn -0.999843839590081 0.0176719108680151 -1.92203081017595e-07
vn -1.54491262928539e-05 0.999999999880661 -5.92379514259638e-08
vn 0.992222733651057 0.124475085161747 0
vn -1.99469269546167e-07 3.05625889041033e-08 -0.99999999999998
vn -0.126293623437315 0.991992903542699 0
vn 0.999979470247853 0 0.0064077361699193
vn 0 0.999937185649605 -0.0112082449628854
vn 1 0 0
vn 0 0 -1
vn -1 0 0
vn -0.0174838028595774 0.999847146636708 0
vn -0.999722689166835 0 0.0235487741725907
vn 0 0.999873973509779 -0.0158756762932143
vn 0.293153471277025 0.0657582640303453 0.953801285902858
vn 0.191874413762613 0.257746712197968 0.946969292899401
vn -0.175037031074884 0.23307530684745 0.956576154360152
vn -0.240155095010407 0.0361334856152217 0.970061802957851
vn -0.251666173911298 0.334046805828844 0.908337419918609
vn -0.446092726108437 0.0383704317439072 0.89416384945989
vn 0.578782385924016 0.0925927246749722 0.810208329432232
vn -0.0256737897446286 0.587824579415592 0.808580929997134
vn -3.08750927008965e-05 0.999794718761938 0.0202612779080029
g WindowFrame
f 1/1/1 2/2/1 3/3/1 4/4/1
f 1/1/1 4/4/1 5/5/2 6/6/2
f 3/3/1 2/2/1 7/7/2 8/8/2
f 5/5/2 8/8/2 7/7/2 6/6/2
f 4/9/3 3/10/3 9/11/3 10/12/3
f 3/13/4 8/14/4 11/15/4 9/16/4
f 8/17/5 5/18/5 12/19/5 11/20/5
f 5/21/6 4/22/6 10/23/6 12/24/6
g polySurface6 GardenGround2
f 13/25/7 14/26/7 15/27/7 16/28/7
g polySurface7 GardenGround2
f 17/29/8 18/26/8 19/30/8 20/31/8
g polySurface8 GardenGround2
f 21/32/9 22/26/9 23/33/9 24/34/9
g GardenGround3
f 25/25/10 26/35/10 27/36/10 28/37/10
f 29/25/11 30/26/11 31/38/11 32/39/11
f 33/25/12 34/35/12 35/40/12 36/41/12
g GardenGrass2
f 37/25/1 38/26/1 39/42/1 40/43/1
f 41/25/1 42/44/1 43/45/1 44/43/1
g polySurface1 GardenTrelisFlowers1
f 45/46/13 46/47/13 47/48/13 48/49/13
g polySurface4 GardenTrelisFlowers1
f 49/50/14 50/47/14 51/48/14 52/51/14
g polySurface5 GardenTrelisFlowers1
f 53/52/15 54/53/15 55/54/15 56/55/15
g GardenFlowers2
f 57/25/16 58/26/16 59/42/16 60/43/16
g GardenFlowers1
f 61/25/17 62/26/17 63/42/17 64/43/17
g GardenGrass4
f 65/25/18 66/56/18 67/57/18 68/43/18
g GardenGrass3
f 69/25/19 70/58/19 71/59/19 72/43/19
g GardenTree1
f 73/25/20 74/26/20 75/42/20 76/43/20
g GardenTree5
f 77/25/21 78/26/21 79/42/21 80/43/21
g GardenColumn
f 81/25/22 82/60/22 83/61/22 84/43/22
g GardenTree4
f 85/25/23 86/26/23 87/42/23 88/43/23
g GardenTree3
f 89/25/24 90/26/24 91/42/24 92/43/24
g GardenGrass1
f 93/25/25 94/62/25 95/63/25 96/43/25
g GardenFlowers6
f 97/25/26 98/26/26 99/42/26 100/43/26
g GardenFlowers3
f 101/25/27 102/26/27 103/42/27 104/43/27
g GardenFlowers5
f 105/25/28 106/26/28 107/42/28 108/43/28
g GardenFlowers4
f 109/25/29 110/64/29 111/65/29 112/43/29
g GardenBgBox
f 113/66/30 114/67/30 115/37/30 116/68/30
f 117/69/31 118/37/31 114/67/31 119/70/31
f 120/71/32 121/72/32 118/37/32 122/69/32
f 118/43/33 121/73/33 115/74/33 114/42/33
g GardenFlowers8
f 123/25/34 124/75/34 125/76/34 126/43/34
g GardenTrelis1
f 127/77/35 128/78/35 129/79/35 130/80/35
f 131/81/36 132/82/36 128/43/36 127/83/36
f 133/77/37 134/78/37 135/79/37 136/80/37
f 137/81/38 138/82/38 134/43/38 133/83/38
f 134/78/1 138/84/1 139/85/1 135/79/1
f 140/77/37 141/78/37 142/79/37 143/80/37
f 144/81/38 145/82/38 141/43/38 140/83/38
f 141/78/1 145/84/1 146/85/1 142/79/1
f 147/77/37 148/78/37 149/79/37 150/80/37
f 151/86/39 152/87/39 153/82/39 154/81/39
f 154/81/38 153/82/38 148/43/38 147/83/38
f 148/78/1 153/84/1 152/85/1 149/79/1
f 155/86/39 156/87/39 157/82/39 158/81/39
f 158/81/38 157/82/38 159/43/38 160/83/38
f 159/78/1 157/84/1 156/85/1 161/79/1
f 162/77/37 163/78/37 164/79/37 165/80/37
f 166/86/39 167/87/39 168/82/39 169/81/39
f 169/81/38 168/82/38 163/43/38 162/83/38
f 163/78/1 168/84/1 167/85/1 164/79/1
f 170/77/40 171/78/40 172/79/40 173/80/40
f 174/81/38 175/82/38 171/43/38 170/83/38
f 176/77/40 177/78/40 178/79/40 179/80/40
f 180/81/38 181/82/38 177/43/38 176/83/38
f 182/88/41 183/89/41 184/82/41 185/81/41
f 185/81/42 184/82/42 186/43/42 187/83/42
g GardenGround
f 188/90/43 189/91/44 190/92/45 191/93/46
f 190/94/45 192/95/47 193/96/48 191/97/46
f 188/98/43 194/99/49 195/42/49 189/26/44
f 189/100/44 196/101/50 192/102/47 190/103/45
g GardenTrelisFlowers2
f 197/104/51 198/105/51 199/106/51 200/107/51
