v -15.9505326465791 -2.29775115003708e-07 -16.9999990337394
v 15.9505326465791 -2.29775115003708e-07 -16.9999990337394
v 15.9505326465791 2.29775115003708e-07 16.9999990337394
v -15.9505326465791 2.29775115003708e-07 16.9999990337394
v -9.05590225602544 0.0321777194321544 -3.12100652157528
v -9.05590225602544 -0.0321796785536009 -7.45685642648456
v -4.87963982361379 -0.0321796785536009 -7.45685642648456
v -4.87963982361379 0.0321777254521509 -3.12100648244193
v 4.14001797518871 0.0321777254521511 -3.12100648244193
v 4.14001797518871 -0.0321796785536006 -7.45685642648455
v 8.31628040760036 -0.0321796785536006 -7.45685642648455
v 8.31628040760036 0.0321777194321546 -3.12100652157528
v -2.69274441988067 -3.13896093303076e-07 -5.55164763156723
v -2.69274458658645 -1.02781107403696e-06 -8.64432837840456
v 2.25390295273768 -1.02781107403696e-06 -8.64432837840456
v 2.25390295273768 -2.88885436910832e-07 -5.55164778165286
v -2.69274458658645 -2.88885436910832e-07 -5.55164778165286
v 2.2539027860319 -3.13896093303076e-07 -5.55164763156723
v -2.69274441988067 -3.13896094155439e-07 -1.71294607221691
v -2.69274458658645 -1.02781107488933e-06 -4.80562681905424
v 2.25390295273768 -1.02781107488933e-06 -4.80562681905424
v 2.25390295273768 -2.88885437763195e-07 -1.71294622230254
v -2.69274458658645 -2.88885437763195e-07 -1.71294622230254
v 2.2539027860319 -3.13896094155439e-07 -1.71294607221691
v -10.111872529911 -0.00218644136398889 -1.37880357018168
v 10.111872529911 -0.00218644136398889 -1.37880357018168
v 10.111872529911 0.00218644136398622 13.4264865994573
v -10.111872529911 0.00218644136398622 13.4264865994573
vt -3.93388006614259e-08 -2.22039595598744e-08
vt 0.999999940395355 -2.22039595598744e-08
vt 0.999999940395355 1
vt -3.93388006614259e-08 1
vt 2.58514916140484e-08 1
vt 2.58514916140484e-08 0
vt 0.999999940395355 0
vt 0 1
vt 0 0
vt 0.999999940395355 0.999999940395355
vt 0.999999940395355 -5.96046447753906e-08
vt -8.92600837687496e-09 -5.96046447753906e-08
vt -8.92600837687496e-09 0.99999988079071
vt 0 0.999999940395355
vt 0 -5.96046447753906e-08
vt 0.999999940395355 0.99999988079071
vn 0 -0.999999999999999 3.83849427666562e-08
vn -5.30866324318938e-10 -0.999889859465372 0.0148414601141166
vn 5.30866310442679e-10 -0.999889859465372 0.0148414601141166
vn 1.21979053914082e-09 -0.999999999999968 2.55056139165012e-07
vn -1.21979053914082e-09 -0.999999999999968 2.55056139253771e-07
vn 0 -0.999999956374042 0.000295384349522813
g bg group1
f 1/1/1 2/2/1 3/3/1 4/4/1
g bu_previous_up previous group1
f 5/5/2 6/6/2 7/7/2 8/3/2
g bu_previous_down previous group1
f 5/5/2 6/6/2 7/7/2 8/3/2
g bu_previous_rollover previous group1
f 5/5/2 6/6/2 7/7/2 8/3/2
g bu_next_up next group1
f 9/8/3 10/9/3 11/7/3 12/3/3
g bu_next_rollover next group1
f 9/8/3 10/9/3 11/7/3 12/3/3
g bu_next_down next group1
f 9/8/3 10/9/3 11/7/3 12/3/3
g bu_return_down return1 group1
f 13/10/4 14/11/4 15/12/4 16/13/4
g bu_return_up return1 group1
f 17/13/5 14/12/5 15/11/5 18/10/5
g bu_return_rollover return1 group1
f 17/13/5 14/12/5 15/11/5 18/10/5
g bu_check_up check group1
f 19/14/4 20/15/4 21/11/4 22/16/4
g bu_check_down check group1
f 23/13/5 20/12/5 21/11/5 24/10/5
g bu_check_rollover check group1
f 23/13/5 20/12/5 21/11/5 24/10/5
g item_board group1
f 25/1/6 26/2/6 27/3/6 28/4/6
