v 0.231843524154869 -1.55659872011984 1.32940548992059
v 0.254888628127765 -1.55972883601141 1.40013450009015
v 0.239449166962369 -1.56255244583209 1.47291579980844
v 0.111262265572426 -1.55858493997342 1.40779375614719
v 0.17648877204271 -1.55400081018275 1.27968055045616
v -0.00931897270593529 -1.56057115944426 1.48618200799517
v -0.0323640766788316 -1.5574410435527 1.41545299782561
v 0.0460357794062234 -1.56316906938135 1.5359069474596
v -0.0169246155134357 -1.55461743373201 1.34267169810732
v 0.0328624196394123 -1.5528569139534 1.28733979932389
v 0.103656632916967 -1.5526312140698 1.26428343907003
v 0.376336819304947 -1.0841539630627 0.91216138632645
v 0.597755827753581 -1.09426164596933 1.11106114418418
v 0.355037350580275 -1.29716793024553 1.26155921262406
v 0.244327846355958 -1.29197211037136 1.1621093336952
v 0.689936243645165 -1.10643998150025 1.39397718486239
v 0.401127558526067 -1.30342816202867 1.40301723296317
v 0.628178398983582 -1.11742579448481 1.68510238373556
v 0.370248636195275 -1.30907538167004 1.54857983239975
v 0.429030258372191 -1.12427544520558 1.90642997886927
v 0.270674565889579 -1.31259642122726 1.6592436299666
v 0.189662131809521 -1.5643129656107 1.52824769859186
v 0.145853405261973 -1.1251535752835 1.99865541988471
v 0.12908613933447 -1.31304782099446 1.70535635047433
v 0.118867918531967 -1.5645386654943 1.55130405884573
v -0.145475151241002 -1.11982489047334 1.9370669743402
v -0.016578138917017 -1.31030862876855 1.67456212770207
v -0.366894159689637 -1.10971720756672 1.73816721648247
v -0.127287643141334 -1.30511280889438 1.57511224877321
v -0.45907457558122 -1.09753887203579 1.45525117580426
v -0.173377851087126 -1.29885257711125 1.4336542284341
v -0.397316730919637 -1.08655305905124 1.16412597693109
v -0.142498928756335 -1.29320535746987 1.28809162899751
v -0.198168590308246 -1.07970340833047 0.942798381797381
v -0.0429248584506388 -1.28968431791265 1.17742783143066
v 0.0850082628019719 -1.07882527825255 0.850572940781938
v 0.0986635681044703 -1.28923291814545 1.13131511092294
v -1.15284973000256 -1.15796459150956 3.14429042238307
v -0.13585282076908 -1.15796459150956 3.09080859852802
v -0.13585282076908 1.18152570294692 3.09080859852802
v -1.15284973000256 1.18152570294692 3.14429042238307
v 0.83478439461349 -1.15796459150956 2.85026048252133
v 0.83478439461349 1.18152570294692 2.85026048252133
v 1.75906191614515 -1.15796459150956 2.42264607436298
v 1.75906191614515 1.18152570294692 2.42264607436298
v 0.837978703283621 -1.02835812134507 -0.60310741692077
v -1.7512963490878 -1.02835812134507 0.0385795344965949
v 0.837978703283621 1.05191923278244 -0.60310741692077
v -1.7512963490878 1.05191923278244 0.0385795344965949
v -2.7512963490878 -2.43199626536879 0.0385795344965949
v 2.2487036509122 -2.43199626536879 0.0385795344965949
v 2.2487036509122 2.56800373463121 0.0385795344965949
v -2.7512963490878 2.56800373463121 0.0385795344965949
v 1.92818838357925 1.79589738656759e-17 2.17046575619802
v 1.66986012346169 0.964094191789627 2.17046575619802
v 0.964094191789627 1.66986012346169 2.17046575619802
v 1.21232817977061e-16 1.92818838357925 2.17046575619802
v -0.964094191789627 1.66986012346169 2.17046575619802
v -1.66986012346169 0.964094191789627 2.17046575619802
v -1.92818838357925 2.54086148455441e-16 2.17046575619802
v -1.66986012346169 -0.964094191789627 2.17046575619802
v -0.964094191789628 -1.66986012346169 2.17046575619802
v -3.5102153120247e-16 -1.92818838357925 2.17046575619802
v 0.964094191789627 -1.66986012346169 2.17046575619802
v 1.66986012346169 -0.964094191789628 2.17046575619802
v 1.66986012346169 0.964094191789627 0
v 1.92818838357925 1.79589738656759e-17 0
v 0.964094191789627 1.66986012346169 0
v 1.21232817977061e-16 1.92818838357925 0
v -0.964094191789627 1.66986012346169 0
v -1.66986012346169 0.964094191789627 0
v -1.92818838357925 2.54086148455441e-16 0
v -1.66986012346169 -0.964094191789627 0
v -0.964094191789628 -1.66986012346169 0
v -3.5102153120247e-16 -1.92818838357925 0
v 0.964094191789627 -1.66986012346169 0
v 1.66986012346169 -0.964094191789628 0
vt 0.620992660522461 0.455536097288132
vt 0.625170826911926 0.519714891910553
vt 0.597524404525757 0.576327919960022
vt 0.506399869918823 0.491478115320206
vt 0.586109399795532 0.40098762512207
vt 0.391806960105896 0.527419805526733
vt 0.387628793716431 0.463241070508957
vt 0.426690220832825 0.581968307495117
vt 0.4152752161026 0.406628042459488
vt 0.467338442802429 0.372750550508499
vt 0.529868125915527 0.370686024427414
vt 0.825161516666412 0.144462868571281
vt 0.964694440364838 0.362656831741333
vt 0.73553740978241 0.42896181344986
vt 0.665770947933197 0.319864839315414
vt 0.981406986713409 0.61937290430069
vt 0.743893682956696 0.557319700717926
vt 0.870821237564087 0.845824956893921
vt 0.688600838184357 0.670545697212219
vt 0.662568509578705 0.981334924697876
vt 0.584474444389343 0.738300681114197
vt 0.545461177825928 0.610205411911011
vt 0.412449896335602 0.989593267440796
vt 0.459415137767792 0.742429792881012
vt 0.482931554317474 0.612269937992096
vt 0.187484622001648 0.868386685848236
vt 0.346932411193848 0.681826531887054
vt 0.0479517206549644 0.65019279718399
vt 0.27716600894928 0.572729587554932
vt 0.0312390848994255 0.393476694822311
vt 0.268809676170349 0.444371730089188
vt 0.141824841499329 0.167024567723274
vt 0.324102520942688 0.331145703792572
vt 0.350077509880066 0.0315145663917065
vt 0.428228914737701 0.26339066028595
vt 0.600196182727814 0.023256404325366
vt 0.553288221359253 0.259261548519135
vt 0.00391285913065076 0.929272651672363
vt 0.333205103874207 0.990514934062958
vt 0.663642168045044 0.995064795017242
vt 0.995224237442017 0.942922174930573
vt 0.959066987037659 0.0130632761865854
vt 0.0775920376181602 0.000926130975130945
vt 0 0
vt 1 0
vt 1 1
vt 0 1
vn -0.010139060447786 -0.99911130132924 -0.0409121865637792
vn 0.249046834174657 -0.805265029428673 -0.538074257669719
vn 0.468387617905751 -0.81438152027785 -0.342630674082915
vn 0.612698885155617 -0.663208407806785 -0.429830994628649
vn 0.328112253262561 -0.650611341563612 -0.684870229669652
vn 0.727065580131464 -0.474919753190557 -0.495809308320767
vn 0.391025837091515 -0.459148727890464 -0.797672389144471
vn 0.560996833510922 -0.825407207576091 -0.063130772782842
vn 0.73167924025437 -0.678399021241686 -0.0664850160495604
vn 0.866964517215433 -0.493921609948606 -0.06643770853354
vn 0.501064220015005 -0.835392529981663 0.225951251980579
vn 0.652787968555768 -0.692114343082644 0.307970135253591
vn 0.773236841210152 -0.511062766242811 0.375392642916176
vn 0.303785431891059 -0.841637354725359 0.446498571668112
vn 0.3968311707848 -0.700671728698934 0.592945318301454
vn 0.470996801950079 -0.521750263161565 0.711293663295011
vn 0.0221635614648063 -0.84243899497242 0.538335691082298
vn 0.0324474735451003 -0.701769108319796 0.71166514602626
vn 0.0412293685353522 -0.523120394359922 0.85126094246999
vn -0.267330490295165 -0.837578094930619 0.476442382509095
vn -0.342337205351886 -0.695111025313661 0.632159711085143
vn -0.40090962239772 -0.514806034038554 0.757790354904582
vn -0.486268816770446 -0.828382019727944 0.278075290574555
vn -0.626768532207111 -0.682489234668872 0.375991557878686
vn -0.736949380026698 -0.499035008256391 0.455927265923863
vn -0.576144322022044 -0.81734403850695 -0.00253829054839875
vn -0.744693512526315 -0.667294801456856 0.0122155781637406
vn -0.876848317330194 -0.480033150812027 0.0265556494306585
vn -0.513880458725262 -0.807426007133968 -0.289810484875913
vn -0.664902164972637 -0.653600384329469 -0.361540659703817
vn -0.783120626955417 -0.462891994313575 -0.415274710568024
vn -0.317004131166449 -0.801260765284705 -0.50743429805126
vn -0.409100666071036 -0.645067722898905 -0.645386921074681
vn -0.480880573106318 -0.452204497876893 -0.751175722789845
vn -0.03811596779443 -0.800471418358496 -0.598157739555572
vn -0.0457723497241801 -0.643974162966083 -0.763676744069675
vn -0.0511131394720553 -0.45083436736485 -0.891142985258845
vn 0.0525154250694232 0 0.998620113020851
vn 0.147198235101773 0 0.989107011188842
vn 0.33171975346901 0 0.943377975764995
vn 0.419887557894627 0 0.907576133845137
vn -0.00945593090517691 -0.999227065775053 -0.038155686251126
vn 0.956656113875781 0 -0.291219985207213
vn -0.00945593090517691 0.999227065775053 -0.038155686251126
vn -0.981936339951676 0 0.189211586014988
vn 0 0 1
vn 0.866025403784439 0.5 0
vn 1 0 0
vn 0.5 0.866025403784438 0
vn 0 1 0
vn -0.5 0.866025403784439 0
vn -0.866025403784438 0.5 0
vn -1 0 0
vn -0.866025403784439 -0.5 0
vn -0.5 -0.866025403784438 0
vn 0 -1 0
vn 0.5 -0.866025403784439 0
vn 0.866025403784439 -0.5 0
g safe_dial safe
f 1/1/1 2/2/1 3/3/1 4/4/1 5/5/1
f 6/6/1 7/7/1 4/4/1 8/8/1
f 9/9/1 10/10/1 11/11/1 5/5/1 4/4/1 7/7/1
f 12/12/2 13/13/3 14/14/4 15/15/5
f 14/14/4 1/1/6 5/5/7 15/15/5
f 13/13/3 16/16/8 17/17/9 14/14/4
f 17/17/9 2/2/10 1/1/6 14/14/4
f 16/16/8 18/18/11 19/19/12 17/17/9
f 19/19/12 3/3/13 2/2/10 17/17/9
f 18/18/11 20/20/14 21/21/15 19/19/12
f 21/21/15 22/22/16 3/3/13 19/19/12
f 22/22/1 4/4/1 3/3/1
f 20/20/14 23/23/17 24/24/18 21/21/15
f 24/24/18 25/25/19 22/22/16 21/21/15
f 25/25/1 4/4/1 22/22/1
f 23/23/17 26/26/20 27/27/21 24/24/18
f 27/27/21 8/8/22 25/25/19 24/24/18
f 8/8/1 4/4/1 25/25/1
f 26/26/20 28/28/23 29/29/24 27/27/21
f 29/29/24 6/6/25 8/8/22 27/27/21
f 28/28/23 30/30/26 31/31/27 29/29/24
f 31/31/27 7/7/28 6/6/25 29/29/24
f 30/30/26 32/32/29 33/33/30 31/31/27
f 33/33/30 9/9/31 7/7/28 31/31/27
f 32/32/29 34/34/32 35/35/33 33/33/30
f 35/35/33 10/10/34 9/9/31 33/33/30
f 34/34/32 36/36/35 37/37/36 35/35/33
f 37/37/36 11/11/37 10/10/34 35/35/33
f 36/36/35 12/12/2 15/15/5 37/37/36
f 15/15/5 5/5/7 11/11/37 37/37/36
g safe_box safe
f 38/38/38 39/39/39 40/39/39 41/38/38
f 39/39/39 42/40/40 43/40/40 40/39/39
f 42/40/40 44/41/41 45/41/41 43/40/40
f 46/42/42 44/41/42 42/40/42 39/39/42 38/38/42 47/43/42
f 48/42/43 45/41/43 44/41/43 46/42/43
f 49/43/44 41/38/44 40/39/44 43/40/44 45/41/44 48/42/44
f 47/43/45 38/38/45 41/38/45 49/43/45
g shadow_crack safe
f 50/44/46 51/45/46 52/46/46 53/47/46
g safe_collisions safe
f 54//46 55//46 56//46 57//46 58//46 59//46 60//46 61//46 62//46 63//46 64//46 65//46
f 66//47 55//47 54//48 67//48
f 68//49 56//49 55//47 66//47
f 69//50 57//50 56//49 68//49
f 70//51 58//51 57//50 69//50
f 71//52 59//52 58//51 70//51
f 72//53 60//53 59//52 71//52
f 73//54 61//54 60//53 72//53
f 74//55 62//55 61//54 73//54
f 75//56 63//56 62//55 74//55
f 76//57 64//57 63//56 75//56
f 77//58 65//58 64//57 76//57
f 67//48 54//48 65//58 77//58
