v 0 0 0
v 3 0 0
v 3 -1 0
v 0 -1 0
v -0.0859911918640137 0.028663730621338 0.632455539703369
v -0.0199293020837048 0.0107092970636291 0.867239658419501
v 0.046132587696604 -0.00724513649408021 1.10202377713563
v 1.5 -0.5 1.34371411789883
v 2.9538674123034 -0.99275486350592 1.10202377713563
v 3.0199293020837 -1.01070929706363 0.867239658419501
v 3.08599119186401 -1.02866373062134 0.632455539703369
v 1.5 -0.5 0.632455539703369
v -0.0859911918640137 -1.02866373062134 0.632455539703369
v 0.046132587696604 -0.99275486350592 1.10202377713563
v 1.5 -0.5 1.34838914778036
v 2.9538674123034 -0.00724513649408021 1.10202377713563
v 3.08599119186401 0.028663730621338 0.632455539703369
v 3.05427139827711 -1.01809046609237 0.632455539703369
v 3.05427139827711 0.0180904660923717 0.632455539703369
v -0.0542713982771148 0.0180904660923717 0.632455539703369
v -0.0542713982771148 -1.01809046609237 0.632455539703369
v -0.107488989830017 -1.03582966327667 0.790569424629211
v -0.107488989830017 0.0358296632766724 0.790569424629211
v 3.10748898983002 0.0358296632766724 0.790569424629211
v 3.10748898983002 -1.03582966327667 0.790569424629211
v -0.208535028597682 -4.44089209850063e-16 -1.29397328726032
v 3.20853502859768 -4.44089209850063e-16 -1.29397328726032
v 3.95793657198391 0 1.0530227660897
v -0.957936571983909 0 1.0530227660897
vt 0 0
vt 2 0
vt 1.99863851070404 0.63189160823822
vt -0.00136152550112456 0.63189160823822
vt 2.11960077285767 0
vt 2.03438568115234 0.512034595012665
vt 1.94917035102844 1.02406919002533
vt 0.976050853729248 1.02379286289215
vt 0.00293129635974765 1.02351641654968
vt 0.00146564817987382 0.511758208274841
vt 1.05980038642883 0
vt 2.30279922485352 0
vt 2.17531585693359 1.02886128425598
vt 1.11807346343994 1.02858364582062
vt 0.0608309544622898 1.02830588817596
vt 1.15139961242676 0
vt 3.00522446632385 0
vt 2.89760828018188 0.999523997306824
vt 0.142739459872246 0.999523997306824
vt 2.1550772190094 0
vt 1.84856534004211 1.0046489238739
vt -0.160130813717842 1.0046489238739
vt 3.03802800178528 0.00590317416936159
vt 2.85001230239868 1.0151549577713
vt 0.0650726780295372 1.00974357128143
vt 2.09147191047668 0
vt 1.82068264484406 1.00620472431183
vt -0.128728479146957 1.00620472431183
vt 2.60064339637756 -0.0340053103864193
vt 2.58712816238403 1.41098999977112
vt -0.0135151343420148 1.44499528408051
vt -0.0761344283819199 0.979825675487518
vt 0.984897673130035 0.99159437417984
vt 0.990083396434784 0.0109817087650299
vt 2.15017771720886 0
vt 2.23048520088196 0.994709849357605
vt -0.0737727209925652 0.994709849357605
vt -0.0674752369523048 0.975677192211151
vt 1.00418412685394 0.975677192211151
vt 1 0
vt 2.32043433189392 -0.0152120068669319
vt 2.43897724151611 0.961262404918671
vt -0.115972451865673 0.99117523431778
vt -0.0636719167232513 0.0127005958929658
vt 1 1
vt 0 1
vn 0 0 -1
vn 0.161739650443376 0.986075902409511 0.0386600589979255
vn 0.319000089239105 0.94775468506647 0
vn -4.00358544433626e-06 0.999999999991986 0
vn -0.319007678062602 0.947752130747859 0
vn -0.161743604031971 0.986075252927439 0.0386600843097368
vn 0 -0.997088771704136 0.076249467811509
vn -0.962620097881895 0 0.270855214374491
vn 0.962620097881895 0 0.270855214374491
vn 0 0 1
vn -0.990883103591769 0 -0.134724441050406
vn 0 0.998974567635071 -0.0452748629851342
vn 0.990883103591769 0 -0.134724441050406
vn 0 -0.998974567635071 -0.0452748629851342
vn 0 -1 0
g o46 g11 g1
f 1/1/1 2/2/1 3/3/1 4/4/1
f 5/5/2 6/6/3 7/7/2 8/8/3 9/9/3 10/10/3 11/1/3 12/11/4
f 13/12/5 14/13/5 15/14/5 16/15/6 17/1/6 12/16/4
f 11/17/7 9/18/7 14/19/7 13/1/7
f 13/20/8 14/21/8 7/22/8 5/1/8
f 5/23/2 7/24/2 16/25/6 17/1/6
f 17/26/9 16/27/9 9/28/9 11/1/9
f 18/29/10 19/30/10 20/31/10 21/1/10
f 4/1/11 22/32/11 23/33/11 1/34/11
f 1/35/12 23/36/12 24/37/12 2/1/12
f 2/1/13 24/38/13 25/39/13 3/40/13
f 3/41/14 25/42/14 22/43/14 4/44/14
f 26/1/15 27/40/15 28/45/15 29/46/15
