v -1.33333327372869 0 0.999999955296516
v -1.33333327372869 0 -0.999999955296516
v 1.33333327372869 0 -0.999999955296516
v 1.33333327372869 0 0.999999955296516
v -0.525376535579473 0 0.864407833656034
v -0.525376535579473 0 0.457
v 0.467213872692301 0 0.457
v 0.467213872692301 0 0.864407833656034
v -1.26666661004225 0 0.933333291610081
v -1.26666661004225 0 0.466666645805041
v -0.799999964237212 0 0.466666645805041
v -0.799999964237212 0 0.933333291610081
v 1.22207331866274 0 -0.933333291610081
v 1.22207331866274 0 -0.266666654745737
v 0.711259928243853 0 -0.266666654745737
v 0.711259928243853 0 -0.933333291610081
v -0.900031140937821 0 -0.999999955296516
v -0.900031140937821 0 -0.62812914084845
v -1.33333327372869 0 -0.62812914084845
v -0.99334371653768 0 0.181047520813054
v -0.99334371653768 0 -0.847714157677398
v 0.979469801532885 0 -0.847714157677398
v 0.979469801532885 0 0.181047520813054
v -1.19999994635582 0 -0.742520791217241
v -1.19999994635582 0 -0.980205569477101
v -0.999999955296516 0 -0.980205569477101
v -0.999999955296516 0 -0.742520791217241
v 1.33333327372869 0 -0.355999970416228
v 0.866666627923647 0 -0.355999970416228
v 0.866666627923647 0 -0.999999955296516
v 1.09590431573202 0 -0.751453762395588
v 1.09590431573202 0 0.947140331402962
v -1.29590430679133 0 0.947140331402962
v -1.29590430679133 0 -0.751453762395588
v 0.790042204856873 0 0
v 0.790042204856873 0 0.272325153946877
v 0 0 0.272325153946877
v 0 0 0
v -0.806689330279959 0 -0.999999955296516
v -0.806689330279959 0 -0.437587019114279
v -1.29211128339667 0 -0.437587019114279
v -1.29211128339667 0 -0.999999955296516
v 1.33333327372869 0 0.133333327372869
v 1.33333327372869 0 0.976952731646224
v 0.700618720523671 0 0.976952731646224
v 0.700618720523671 0 0.133333327372869
v -0.642538397745949 0 0.903016161287099
v -0.642538397745949 0 0.199999991059303
v 0.624128212296304 0 0.199999991059303
v 0.624128212296304 0 0.903016161287099
v 0.84403634765116 0 -0.928860100666446
v 0.84403634765116 0 0.296145547461429
v -0.871323126980055 0 0.296145547461429
v -0.871323126980055 0 -0.928860100666446
v -0.796188313143762 0 0.685386567583808
v -0.796188313143762 0 0.056
v 0.738025650256591 0 0.056
v 0.738025650256591 0 0.685386567583808
vt 0 1
vt 0 0
vt 1 0
vt 1 1
vt 0.998694360256195 0.999985635280609
vt -0.00129130377899855 0.988996803760529
vt 1.43478200698155e-05 -0.0109888529404998
vn 0 -1 0
g background1_2 create_account g1
f 1/1/1 2/2/1 3/3/1 4/4/1
g Logo_1 create_account g1
f 5/1/1 6/2/1 7/3/1 8/4/1
g mickey create_account g1
f 9/1/1 10/2/1 11/3/1 12/4/1
g trolley create_account g1
f 13/3/1 14/4/1 15/1/1 16/2/1
g background1_3 member_agreement g1
f 1/1/1 2/2/1 3/3/1 4/4/1
g lawbot member_agreement g1
f 17/3/1 18/4/1 19/1/1 2/2/1
g balloon_license member_agreement g1
f 20/1/1 21/2/1 22/3/1 23/4/1
g background1_4 billing g1
f 1/1/1 2/2/1 3/3/1 4/4/1
g padlock billing g1
f 24/1/1 25/2/1 26/3/1 27/4/1
g cashbot billing g1
f 3/3/1 28/4/1 29/1/1 30/2/1
g balloon billing g1
f 31/3/1 32/4/1 33/1/1 34/2/1
g visa_logo billing g1
f 35/3/1 36/5/1 37/6/1 38/7/1
g background1_5 free_time_expired g1
f 1/1/1 2/2/1 3/3/1 4/4/1
g toon free_time_expired g1
f 39/3/1 40/4/1 41/1/1 42/2/1
g cog free_time_expired g1
f 43/3/1 44/4/1 45/1/1 46/2/1
g background1_6 welcome g1
f 1/1/1 2/2/1 3/3/1 4/4/1
g characters welcome g1
f 47/1/1 48/2/1 49/3/1 50/4/1
g diploma welcome g1
f 51/3/1 52/4/1 53/1/1 54/2/1
g background1_7 first_time_install g1
f 1/1/1 2/2/1 3/3/1 4/4/1
g Logo_2 first_time_install g1
f 55/1/1 56/2/1 57/3/1 58/4/1
g background1_8 background_only g1
f 1/1/1 2/2/1 3/3/1 4/4/1
