v 1.92848102940036 1.94644427362077 0.45513218156309
v -0.0175490349609395 0.000414228814793384 0.455132118986035
v 1.92848102940036 -1.94561600372234 0.45513205640898
v -1.96357912278864 1.94644427362077 0.45513218156309
v -1.96357912278864 -1.94561575341412 0.45513205640898
v 1.92848102940036 -1.94561587856823 0.999999984981507
v -1.96357912278864 -1.94561587856823 0.999999984981507
v -2.61225587739719 -2.59429250802268 0.999999984981507
v 2.57715765885481 -2.59429250802268 0.999999984981507
v -2.61225587739719 2.59512102822932 1.00000011013562
v -1.96357912278864 1.94644414846666 1.00000011013562
v 2.57715765885481 2.59512102822932 1.00000011013562
v 1.92848102940036 1.94644414846666 1.00000011013562
v 2.57715765885481 2.59512102822932 0
v 2.57715765885481 -2.59429250802268 0
v -2.61225587739719 -2.59429250802268 0
v -2.61225587739719 2.59512102822932 0
v 5.56049997725199 6.10510307972825 0.0249997837336983
v -6.64970618220452 6.10510307972825 0.0249997837336983
v -6.64970618220452 -6.10510307972825 0.0249997837336983
v 5.56049997725199 -6.10510307972825 0.0249997837336983
v 0.104520569636127 0 5.25611116504419
v 1.30452058446689 0 2.70611119708364
v 1.45452053841018 0 1.6561111440183
v -1.24547938349366 0 1.35611111097761
v -0.795479396509686 0 2.55611099283213
v -1.54547941653434 0 5.10611096079268
v -5.42311430603188 0 6.75996344859206
v -5.46317513533465 0 11.5047294636724
v -4.54547962178708 0 13.3561111810639
v -3.19547953568106 0 14.2561114053401
v -1.54547941653434 0 16.5061109647976
v 1.30452058446689 0 16.5061109647976
v 3.55452064454086 0 15.7561114453894
v 5.05452043428196 0 12.9061110689258
v 5.05452043428196 0 4.05611103288145
v 2.05452060449155 0 4.35611094076802
v 0.104520569636127 0 7.20611131723159
v 1.71201035106589 0 0.00611109282635641
v -1.9049275265591 0 0.00611109282635641
v -1.9049275265591 0 0.756111107473298
v 1.71201035106589 0 0.756111107473298
v -1.60492761867253 0 1.05611107793693
v 1.56201027196849 0 1.05611107793693
v -2.69999992190384 0 7.64938164257941
v -2.33826850030053 -1.34999983579781 7.64938164257941
v -1.34999996095192 -2.33826875060875 7.64938114196297
v -4.95976474011834e-16 -2.70000017221206 7.64938114196297
v 1.34999996095192 -2.33826875060875 7.64938114196297
v 2.33826850030053 -1.34999983579781 7.64938164257941
v 2.69999992190384 0 7.64938164257941
v 2.33826850030053 1.34999983579781 7.64938164257941
v 1.34999996095192 2.33826875060875 7.64938214319585
v 8.26620231339728e-16 2.70000017221206 7.64938214319585
v -1.34999996095192 2.33826875060875 7.64938214319585
v -2.33826850030053 1.34999983579781 7.64938164257941
v -2.33826850030053 -1.34999996095192 0
v -2.69999992190384 3.30654623137683e-16 0
v -1.34999996095192 -2.33826850030053 0
v -4.95976474011834e-16 -2.69999992190384 0
v 1.34999996095192 -2.33826850030053 0
v 2.33826850030053 -1.34999996095192 0
v 2.69999992190384 -6.61298352675781e-16 0
v 2.33826850030053 1.34999996095192 0
v 1.34999996095192 2.33826850030053 0
v 8.26620231339728e-16 2.69999992190384 0
v -1.34999996095192 2.33826850030053 0
v -2.33826850030053 1.34999996095192 0
v -0.689663724323583 0.000106130685080381 16.7296822615496
v -5.58085353981479 0.000106130685080381 13.3374562100788
v -2.20112437651226 -4.65169691351142 13.337455208846
v -4.64671928425786 2.87507775574531 7.84872610737958
v -4.64671928425786 -2.87486499375871 7.84872560676314
v -0.689658718159192 9.9122054933563e-05 16.7296822615496
v -2.20111937034787 -4.65169891597718 13.337455208846
v 3.26740184793948 -2.87487100115598 13.3374562100788
v -4.64671628055923 -2.87486899869023 7.84872610737958
v 0.821803999072298 -4.65169891597718 7.84872610737958
v -0.689650645719113 0.000102125753567913 16.7296822615496
v 3.26740485163811 -2.87486699622447 13.3374562100788
v 3.26740810564497 2.87507525266312 13.337455208846
v 0.821808942659633 -4.65169741412786 7.84872610737958
v 4.20154060904435 0.000104128219324147 7.84872610737958
v -0.689650645719113 0.000111136849470965 16.7296822615496
v 3.26740485163811 2.87508025882751 13.3374562100788
v -2.2011146144917 4.65191317981309 13.3374572113117
v 4.20154060904435 0.000109134383714731 7.84872610737958
v 0.821808942659633 4.6519106767309 7.84872610737958
v -0.689658718159192 0.000113139315227198 16.7296822615496
v -2.20111937034787 4.65191117734734 13.3374562100788
v -5.58085353981479 0.000112138082349081 13.3374562100788
v 0.821803999072298 4.65191167796378 7.84872660799602
v -4.64671628055923 2.87508176067683 7.84872560676314
v -0.68964920644685 0.000106631301519439 4.4564995552924
v -0.689654212611241 9.96226713726214e-05 4.4564995552924
v -0.689662347628376 0.000102125753567913 4.4564995552924
v -0.689662347628376 0.000110636233031906 4.4564995552924
v -0.689654212611241 0.000113639931666257 4.4564995552924
v -1.92848102940036 -1.94644427362077 0.45513193125487
v 0.0175490349609395 -0.000414228814793384 0.455132118986035
v -1.92848102940036 1.94561575341412 0.45513205640898
v 1.96357912278864 -1.94644427362077 0.45513193125487
v 1.96357912278864 1.94561575341412 0.45513205640898
v -1.92848102940036 1.94561587856823 0.999999984981507
v 1.96357912278864 1.94561587856823 0.999999984981507
v 2.61225587739719 2.59429250802268 1.00000011013562
v -2.57715765885481 2.59429250802268 1.00000011013562
v 2.61225587739719 -2.59512102822932 0.999999859827397
v 1.96357912278864 -1.94644427362077 0.999999859827397
v -2.57715765885481 -2.59512102822932 0.999999859827397
v -1.92848102940036 -1.94644427362077 0.999999859827397
v -2.57715765885481 -2.59512102822932 0
v -2.57715765885481 2.59429250802268 0
v 2.61225587739719 2.59429250802268 0
v 2.61225587739719 -2.59512102822932 0
v -5.56049997725199 -6.10510307972825 0.0249997837336983
v 6.64970618220452 -6.10510307972825 0.0249997837336983
v 6.64970618220452 6.10510307972825 0.0249997837336983
v -5.56049997725199 6.10510307972825 0.0249997837336983
v -0.104520569636127 0 5.25611116504419
v -1.30452058446689 0 2.70611119708364
v -1.45452053841018 0 1.6561111440183
v 1.24547938349366 0 1.35611111097761
v 0.795479396509686 0 2.55611099283213
v 1.54547941653434 0 5.10611096079268
v 5.42311430603188 0 6.75996344859206
v 5.46317513533465 0 11.5047294636724
v 4.54547962178708 0 13.3561111810639
v 3.19547953568106 0 14.2561114053401
v 1.54547941653434 0 16.5061109647976
v -1.30452058446689 0 16.5061109647976
v -3.55452064454086 0 15.7561114453894
v -5.05452043428196 0 12.9061110689258
v -5.05452043428196 0 4.05611103288145
v -2.05452060449155 0 4.35611094076802
v -0.104520569636127 0 7.20611131723159
v -1.71201035106589 0 0.00611109282635641
v 1.9049275265591 0 0.00611109282635641
v 1.9049275265591 0 0.756111107473298
v -1.71201035106589 0 0.756111107473298
v 1.60492761867253 0 1.05611107793693
v -1.56201027196849 0 1.05611107793693
v -1.34999996095192 -2.33826875060875 7.64938214319585
v -1.15727477110803e-15 -2.70000017221206 7.64938214319585
v 1.34999996095192 -2.33826875060875 7.64938214319585
v 0.689663724323583 -0.000106130685080381 16.7296832627825
v 5.58085353981479 -0.000106130685080381 13.3374572113117
v 2.20112437651226 4.65169691351142 13.3374572113117
v 4.64671928425786 -2.87507775574531 7.84872610737958
v 4.64671928425786 2.87486449314228 7.84872560676314
v 0.689658718159192 -9.9122054933563e-05 16.7296832627825
v 2.20111937034787 4.65169891597718 13.3374572113117
v -3.26740184793948 2.87487100115598 13.3374562100788
v 4.64671628055923 2.87486849807379 7.84872560676314
v -0.821803999072298 4.65169841536074 7.84872560676314
v 0.689650645719113 -0.000102125753567913 16.7296822615496
v -3.26740485163811 2.87486699622447 13.3374562100788
v -3.26740810564497 -2.875076253896 13.3374572113117
v -0.821808942659633 4.65169741412786 7.84872610737958
v -4.20154060904435 -0.000104128219324147 7.84872560676314
v 0.689650645719113 -0.000111136849470965 16.7296812603167
v -3.26740485163811 -2.87508025882751 13.337455208846
v 2.2011146144917 -4.65191317981309 13.337455208846
v -4.20154060904435 -0.000109134383714731 7.84872610737958
v -0.821808942659633 -4.6519106767309 7.84872610737958
v 0.689658718159192 -0.000113139315227198 16.7296832627825
v 2.20111937034787 -4.65191117734734 13.3374562100788
v 5.58085353981479 -0.000112138082349081 13.337455208846
v -0.821803999072298 -4.65191217858022 7.84872660799602
v 4.64671628055923 -2.87508226129327 7.84872560676314
v 0.68964920644685 -0.000106631301519439 4.4564995552924
v 0.689654212611241 -9.96226713726214e-05 4.4564995552924
v 0.689662347628376 -0.000102125753567913 4.45650005590884
v 0.689662347628376 -0.000110636233031906 4.45650005590884
v 0.689654212611241 -0.000113639931666257 4.45649905467597
vt 1 0
vt 0.5 0.5
vt 0 0
vt 1 1
vt 0 1
vt 0.881809175014496 1.03844225406647
vt 0.177959516644478 1.02717280387878
vt 0.0649872869253159 0.819212019443512
vt 1.00345385074615 0.83423787355423
vt 0.947979390621185 0.812125742435455
vt -0.00441315630450845 0.810268580913544
vt 0.11131240427494 1.04003524780273
vt 0.825606822967529 1.04142820835114
vt 0.978156208992004 0.820603728294373
vt -0.0161096695810556 0.818305194377899
vt 0.106275103986263 1.04364705085754
vt 0.851974546909332 1.04537105560303
vt -0.00579875754192472 0.806860864162445
vt 0.993962645530701 0.806064784526825
vt 0.86954528093338 1.03565049171448
vt 0.119724243879318 1.03624737262726
vt 0.0321328081190586 1.00162947177887
vt 0.0260580517351627 0.409677088260651
vt 0.868972957134247 0.39765539765358
vt 0.875047743320465 0.989607810974121
vt 0.0828079804778099 1.01702868938446
vt 0.0707086697220802 0.288836628198624
vt 0.769548416137695 0.297804147005081
vt 0.781647741794586 1.02599620819092
vt 0.0198874454945326 0.990591168403625
vt 0.0172261577099562 0.404250055551529
vt 0.836706042289734 0.408465176820755
vt 0.839336812496185 0.994806289672852
vt 0.034588597714901 1.02941942214966
vt 0.0233477000147104 0.299009263515472
vt 0.831614434719086 0.306447982788086
vt 0.842855334281921 1.03685820102692
vt 0.471428573131561 0.323940873146057
vt 0.357142865657806 0.170968800783157
vt 0.342857152223587 0.107980296015739
vt 0.600000023841858 0.0899835824966431
vt 0.557142853736877 0.161970436573029
vt 0.628571450710297 0.314942538738251
vt 0.997870028018951 0.414155572652817
vt 1.00168538093567 0.698789596557617
vt 0.914285719394684 0.809852242469788
vt 0.785714268684387 0.863842368125916
vt 0.628571450710297 0.99881774187088
vt 0.357142865657806 0.99881774187088
vt 0.142857149243355 0.953825950622559
vt 0 0.782857120037079
vt 0 0.251954019069672
vt 0.28571429848671 0.269950747489929
vt 0.471428573131561 0.440919548273087
vt 0.315879881381989 0.0043920180760324
vt 0.653296828269958 0.0043920180760324
vt 0.648377418518066 0.0567315556108952
vt 0.310960471630096 0.0415131784975529
vt 0.648917496204376 0.0567315556108952
vt 0.628065526485443 0.0734216868877411
vt 0.322819590568542 0.0600967034697533
vn 0 -3.46961286368241e-08 0.999999999999999
vn 0 0 1
vn 0 -1.73480625420552e-08 1
vn 0 -5.20441929552361e-08 0.999999999999999
vn 0 1.11523291934645e-07 0.999999999999994
vn 0 -2.23046523473158e-08 1
vn 1 0 0
vn 0 -1 0
vn -1 0 0
vn 0 1 0
vn -0.999999999999969 -0 -2.47838812583715e-07
vn 0 -0.999999999999974 -2.2969621227275e-07
vn 6.19597102513579e-08 0.999999999999998 0
vn 0 -2.76368922413884e-07 0.999999999999962
vn -0.866025420782043 -0.499999970559285 -1.89833029153639e-09
vn -1 0 2.19200373325634e-09
vn -0.500000047796326 -0.866025376189215 -1.93556691598401e-08
vn 0 -0.999999999999999 -3.27226736902284e-08
vn 0.500000047796326 -0.866025376189215 -1.93556691598401e-08
vn 0.866025420782043 -0.499999970559285 -1.89833027540984e-09
vn 1 0 2.19200373325634e-09
vn 0.866025420782043 0.499999970559285 -1.89833019892935e-09
vn 0.500000047796325 0.866025376189215 -1.93556679910842e-08
vn 0 0.999999999999999 -3.27226715486816e-08
vn -0.500000047796325 0.866025376189215 -1.93556679910842e-08
vn -0.866025420782043 0.499999970559285 -1.89833018280281e-09
vn -0.526542875803284 -0.382555465743949 0.759212694552875
vn -0.703946574823397 -0.51144668834237 0.492830097272914
vn -0.95105651646431 0.309016993854317 1.12593006769187e-07
vn -0.930910642078691 0.221598728014511 -0.290343555476939
vn -0.930910666792369 -0.221598511782568 -0.290343641273472
vn 0.201121058227422 -0.618988396745775 0.759212542461975
vn 0.26888318684471 -0.827538724303907 0.492830083913
vn -0.304636571154683 -0.937574960754779 -0.167778879722072
vn -0.2688835670909 -0.827538542204086 -0.492830182228331
vn -0.0769144534261845 -0.953826355304227 -0.290343677012615
vn 0.650842617939659 0 0.759212675522117
vn 0.870125540272872 -4.06605255217448e-07 0.492830137232573
vn 0.797548925579204 -0.579453196066631 -0.167778737853234
vn 0.703946357756761 -0.511446968467672 -0.492830116618514
vn 0.88337490388206 -0.367898602508305 -0.290343585194847
vn 0.201121870362576 0.618987809953679 0.759212805734076
vn 0.268884098729449 0.827538378668371 0.492830166772872
vn 0.797548917730494 0.579453206663546 -0.167778738564371
vn 0.703946359486818 0.511446969724633 -0.492830112842901
vn 0.622870222187644 0.726452529742912 -0.290343603928239
vn -0.52654242472427 0.38255582858316 0.75921282456406
vn -0.703946162722607 0.511447082919658 0.492830276424946
vn -0.304636414266647 0.937575028235747 -0.167778787489653
vn -0.268883710223304 0.827538585718048 -0.492830031069864
vn 0.526542716549351 -0.382555628966718 -0.759212722756085
vn -0.201121435128772 -0.618988038831073 -0.759212734426792
vn -0.650842583583304 1.4030002609594e-07 -0.75921270497443
vn -0.201121704421218 0.618988234686517 -0.75921250340756
vn 0.526542753625632 0.382555642401229 -0.759212690272838
vn -6.43125304122803e-08 -3.46961321895377e-08 0.999999999999997
vn 0 -1.21436457334311e-07 0.999999999999993
vn 6.43125162014256e-08 -3.46961250841104e-08 0.999999999999997
vn 0 5.20442000606635e-08 0.999999999999999
vn 0 -2.89960553345724e-07 0.999999999999958
vn -9.64687600912833e-08 -4.4609297589204e-08 0.999999999999994
vn 0 6.69139552655905e-08 0.999999999999998
vn 9.6468774302138e-08 -4.46093046946314e-08 0.999999999999994
vn 0 -0.999999999999974 2.2969624069446e-07
vn 0 -1.08144362798156e-07 0.999999999999994
vn 0.526542967277955 0.382555012061695 0.759212859714983
vn 0.703946630136426 0.511446622455092 0.492830086641277
vn 0.9510565120143 -0.309017007550037 1.20524093118806e-07
vn 0.930910633390297 -0.221598741510171 -0.290343573033716
vn 0.930910655131512 0.221598505452544 -0.290343683492198
vn -0.201121320741474 0.618988053671643 0.759212752629325
vn -0.268883359942136 0.827538701629587 0.49283002754646
vn 0.304636613692257 0.937574940345215 -0.167778916538346
vn 0.268883565389682 0.827538536968275 -0.49283019194824
vn 0.0769144273692045 0.953826341477536 -0.290343729338255
vn -0.650842554130965 2.80600039493989e-07 0.759212730222698
vn -0.870125515486717 5.78237388916301e-07 0.492830180994063
vn -0.797548970955283 0.57945314242367 -0.167778707419933
vn -0.703946326771076 0.511446998992527 -0.492830129199756
vn -0.883374879317979 0.367898643405756 -0.290343608109686
vn -0.20112180070567 -0.618987659806791 0.759212946601822
vn -0.268884019220043 -0.827538411670367 0.492830154737068
vn -0.797548866499648 -0.579453272352109 -0.16777875522711
vn -0.703946368009294 -0.511446975916574 -0.492830094243762
vn -0.622870223542116 -0.726452538609127 -0.290343578838847
vn 0.526542613253393 -0.382556014455594 0.759212600153698
vn 0.703946241524356 -0.511447072495465 0.492830174684496
vn 0.304636552495957 -0.937574995051237 -0.167778721946652
vn 0.268883736075304 -0.827538572564638 -0.49283003905187
vn -0.526542643454236 0.382555768176924 -0.759212703304409
vn 0.201121425485341 0.618988082499877 -0.759212701378125
vn 0.65084248541828 0 -0.759212789127367
vn 0.201121754736746 -0.618988192353954 -0.75921252459242
vn -0.526542820347347 -0.382555766781369 -0.759212581325534
g box tree_ddl_halloweenL
f 1/1/1 2/2/1 3/3/1
f 1/1/2 4/4/2 2/2/2
f 4/4/3 5/5/3 2/2/3
f 5/5/4 3/3/4 2/2/4
f 6/6/5 7/7/5 8/8/5 9/9/5
f 10/10/6 8/11/6 7/12/6 11/13/6
f 12/14/2 10/15/2 11/16/2 13/17/2
f 9/18/6 12/19/6 13/20/6 6/21/6
f 14/1/7 12/4/7 9/5/7 15/3/7
f 15/1/8 9/4/8 8/5/8 16/3/8
f 16/1/9 8/4/9 10/5/9 17/3/9
f 17/1/10 10/4/10 12/5/10 14/3/10
f 7/22/7 5/23/7 4/24/7 11/25/7
f 13/26/11 1/27/11 3/28/11 6/29/11
f 11/30/12 4/31/12 1/32/12 13/33/12
f 6/34/13 3/35/13 5/36/13 7/37/13
g shadow tree_ddl_halloweenL
f 18/3/2 19/1/2 20/4/2 21/5/2
g tree tree_ddl_halloweenL
f 22/38/10 23/39/10 24/40/10 25/41/10 26/42/10 27/43/10 28/44/10 29/45/10 30/46/10 31/47/10 32/48/10 33/49/10 34/50/10 35/51/10 36/52/10 37/53/10 38/54/10
f 39/55/10 40/56/10 41/57/10 42/58/10
f 41/59/10 43/60/10 44/61/10 42/58/10
f 43/60/10 25/41/10 24/40/10 44/61/10
g collsionTree tree_ddl_halloweenL
f 45//14 46//14 47//14 48//14 49//14 50//14 51//14 52//14 53//14 54//14 55//14 56//14
f 57//15 46//15 45//16 58//16
f 59//17 47//17 46//15 57//15
f 60//18 48//18 47//17 59//17
f 61//19 49//19 48//18 60//18
f 62//20 50//20 49//19 61//19
f 63//21 51//21 50//20 62//20
f 64//22 52//22 51//21 63//21
f 65//23 53//23 52//22 64//22
f 66//24 54//24 53//23 65//23
f 67//25 55//25 54//24 66//24
f 68//26 56//26 55//25 67//25
f 58//16 45//16 56//26 68//26
g collisionLeaves tree_ddl_halloweenL
f 69//27 70//28 71//28
f 70//29 72//30 73//31
f 74//32 75//33 76//33
f 75//34 77//35 78//36
f 79//37 80//38 81//38
f 80//39 82//40 83//41
f 84//42 85//43 86//43
f 85//44 87//45 88//46
f 89//47 90//48 91//47
f 90//49 92//50 93//49
f 94//51 83//41 82//40
f 83//41 81//38 80//38
f 95//52 78//36 77//35
f 78//36 76//33 75//33
f 96//53 73//31 72//30
f 73//31 71//28 70//28
f 97//54 72//54 92//50
f 72//30 70//29 90//48
f 98//55 88//46 87//45
f 88//46 86//43 85//43
g box tree_ddl_halloweenR
f 99/1/56 100/2/56 101/3/56
f 99/1/57 102/4/57 100/2/57
f 102/4/58 103/5/58 100/2/58
f 103/5/59 101/3/59 100/2/59
f 104/6/60 105/7/60 106/8/60 107/9/60
f 108/10/61 106/11/61 105/12/61 109/13/61
f 110/14/62 108/15/62 109/16/62 111/17/62
f 107/18/63 110/19/63 111/20/63 104/21/63
f 112/1/9 110/4/9 107/5/9 113/3/9
f 113/1/10 107/4/10 106/5/10 114/3/10
f 114/1/7 106/4/7 108/5/7 115/3/7
f 115/1/8 108/4/8 110/5/8 112/3/8
f 105/22/9 103/23/9 102/24/9 109/25/9
f 111/26/7 99/27/7 101/28/7 104/29/7
f 109/30/10 102/31/10 99/32/10 111/33/10
f 104/34/64 101/35/64 103/36/64 105/37/64
g shadow tree_ddl_halloweenR
f 116/3/2 117/1/2 118/4/2 119/5/2
g tree tree_ddl_halloweenR
f 120/38/8 121/39/8 122/40/8 123/41/8 124/42/8 125/43/8 126/44/8 127/45/8 128/46/8 129/47/8 130/48/8 131/49/8 132/50/8 133/51/8 134/52/8 135/53/8 136/54/8
f 137/55/8 138/56/8 139/57/8 140/58/8
f 139/59/8 141/60/8 142/61/8 140/58/8
f 141/60/8 123/41/8 122/40/8 142/61/8
g collsionTree tree_ddl_halloweenR
f 51//65 52//65 53//65 54//65 55//65 56//65 45//65 46//65 143//65 144//65 145//65 50//65
f 64//22 52//22 51//21 63//21
f 65//23 53//23 52//22 64//22
f 66//24 54//24 53//23 65//23
f 67//25 55//25 54//24 66//24
f 68//26 56//26 55//25 67//25
f 58//16 45//16 56//26 68//26
f 57//15 46//15 45//16 58//16
f 59//17 143//17 46//15 57//15
f 60//18 144//18 143//17 59//17
f 61//19 145//19 144//18 60//18
f 62//20 50//20 145//19 61//19
f 63//21 51//21 50//20 62//20
g collisionLeaves tree_ddl_halloweenR
f 146//66 147//67 148//67
f 147//68 149//69 150//70
f 151//71 152//72 153//72
f 152//73 154//74 155//75
f 156//76 157//77 158//77
f 157//78 159//79 160//80
f 161//81 162//82 163//82
f 162//83 164//84 165//85
f 166//86 167//87 168//86
f 167//88 169//89 170//88
f 171//90 160//80 159//79
f 160//80 158//77 157//77
f 172//91 155//75 154//74
f 155//75 153//72 152//72
f 173//92 150//70 149//69
f 150//70 148//67 147//67
f 174//93 149//93 169//89
f 149//69 147//68 167//87
f 175//94 165//85 164//84
f 165//85 163//82 162//82
