v 0.958127743281354 0.914718656382803 2.76547165572856
v -0.909088342391479 0.914718656382803 2.76632199502453
v -0.858186139898933 0.912547805838626 3.01690062801196
v -0.605534122432441 0.877380985608984 3.38263556163125
v -0.196526082651455 0.844269633004769 3.55120282179114
v 0.230535163367617 0.844269633004769 3.55120282179114
v 0.639543203148602 0.877380985608984 3.38263556163125
v 0.895878736403602 0.912547805838626 3.00596277079698
v -0.227463903801511 0.763531984000505 3.75544209297728
v 0.261472984517673 0.763531984000505 3.75544209297728
v -0.243921903932311 0.673510386449392 3.83044148508787
v 0.277930984648473 0.673510386449392 3.83044148508787
v 1.21962487517707 0.914718656382803 2.76547165572856
v 1.05878625387764 0.912547805838626 3.04819805588474
v 1.21962487517707 0.678192787478635 2.76547165572856
v 1.10856630016667 0.673510386449392 3.13350927674923
v 0.744477189153464 0.763531984000505 3.49773015710529
v 0.793451791950101 0.673510386449392 3.55787499980119
v -0.710468108437303 0.763531984000505 3.49773015710529
v -0.75944271123394 0.673510386449392 3.55787499980119
v -1.01677619097682 0.912547805838626 3.04819805588475
v -1.07455721945051 0.673510386449392 3.13350927674923
v -1.21962487517707 0.914718656382803 2.76547165572856
v -1.21962487517707 0.678192787478635 2.76547165572856
v 0.86364601141606 -0.647734508562045 0.250417451398164
v 1.13807144206882 -0.853553581551618 2.27148153657641
v -1.13807144206882 -0.853553581551618 2.27148153657641
v -0.86364601141606 -0.647734508562045 0.250417451398164
v 0.86364601141606 0.647734508562045 0.250417451398164
v 1.13807144206882 0.853553581551618 2.27148153657641
v -0.86364601141606 0.647734508562045 0.250417451398164
v -1.13807144206882 0.853553581551618 2.27148153657641
v 1.21962487517707 -0.914718656382803 2.27148153657641
v 1.21962487517707 -0.914718656382803 2.76547165572856
v -1.21962487517707 -0.914718656382803 2.76547165572856
v -1.21962487517707 -0.914718656382803 2.27148153657641
v 1.21962487517707 0.914718656382803 2.27148153657641
v -1.21962487517707 0.914718656382803 2.27148153657641
v 1.10856630016667 -0.673510386449392 3.13350927674923
v 0.793451791950101 -0.673510386449392 3.55787499980119
v 0.268383113540624 -0.673510386449392 3.83860124824131
v -0.250507497672993 -0.673510386449392 3.83256763608592
v -0.75944271123394 -0.673510386449392 3.55787499980119
v -1.07455721945051 -0.673510386449392 3.13350927674923
v -1.21962487517707 -0.673510386449392 2.76547165572856
v 1.21962487517707 -0.673510386449392 2.76547165572856
v -0.931708863965796 -0.698781647974347 0
v -0.931708863965796 -0.698781647974347 0.0839084709007506
v -0.931708863965796 -0.419268988784608 0.0839084709007506
v -0.931708863965796 -0.419268988784608 0
v -0.931708863965796 0.419268988784608 0.0839084709007506
v -0.931708863965796 0.698781647974347 0.0839084709007506
v -0.931708863965796 0.698781647974347 0
v -0.931708863965796 0.419268988784608 0
v -0.66550633140414 0.698781647974347 0.0839084709007506
v -0.66550633140414 0.698781647974347 0
v 0.66550633140414 0.698781647974347 0.0839084709007506
v 0.931708863965796 0.698781647974347 0.0839084709007506
v 0.931708863965796 0.698781647974347 0
v 0.66550633140414 0.698781647974347 0
v 0.931708863965796 0.419268988784608 0.0839084709007506
v 0.931708863965796 0.419268988784608 0
v 0.931708863965796 -0.419268988784608 0.0839084709007506
v 0.931708863965796 -0.698781647974347 0.0839084709007506
v 0.931708863965796 -0.698781647974347 0
v 0.931708863965796 -0.419268988784608 0
v 0.66550633140414 -0.698781647974347 0.0839084709007506
v 0.66550633140414 -0.698781647974347 0
v -0.66550633140414 -0.698781647974347 0.0839084709007506
v -0.66550633140414 -0.698781647974347 0
v 1.05878625387764 -0.884476611395172 3.04819805588474
v 0.895878736403602 -0.884476611395172 3.00596277079698
v 0.958127743281354 -0.914718656382803 2.76547165572856
v 0.744477189153464 -0.763531984000505 3.49773015710529
v 0.639543203148602 -0.859465360901119 3.38263539369227
v 0.26015203411703 -0.763531984000505 3.75558951031679
v 0.232181442990837 -0.823343770924316 3.54898786478242
v -0.710468108437303 -0.763531984000505 3.49773015710529
v -0.605534122432441 -0.859465360901119 3.38263539369227
v -0.196204991848312 -0.823343770924316 3.55502147693781
v -0.227463903801511 -0.763531984000505 3.75544209297728
v -1.01677619097682 -0.884476611395172 3.04819805588475
v -0.859902285261078 -0.884476611395172 3.01199638295238
v -0.909088342391479 -0.914718656382803 2.76632199502453
v -2.16388789062488 -2.16388789062488 0.0338107482910138
v 2.16388789062488 -2.16388789062488 0.0338107482910138
v 2.16388789062488 2.16388789062488 0.0338107482910138
v -2.16388789062488 2.16388789062488 0.0338107482910138
v 0.791511342191937 1.21676601945401 2.78551071376004
v 0.121227238022773 1.44442017698496 2.78551071376004
v -0.573082902706092 1.30643240859933 2.78551071376004
v -1.10537923848962 0.839776425401409 2.78551071376004
v -1.33303339602057 0.169492321232246 2.78551071376004
v -1.19504562763493 -0.52481781949662 2.78551071376004
v -0.728389644437016 -1.05711415528015 2.78551071376004
v -0.0581055402678514 -1.2847683128111 2.78551071376004
v 0.636204600461013 -1.14678054442546 2.78551071376004
v 1.16850093624454 -0.680124561227543 2.78551071376004
v 1.39615509377549 -0.00984045705837877 2.78551071376004
v 1.25816732538985 0.684469683670486 2.78551071376004
v 1.25816732538985 0.684469683670486 0
v 1.39615509377549 -0.00984045705837877 0
v 1.16850093624454 -0.680124561227543 0
v 0.636204600461013 -1.14678054442546 0
v -0.0581055402678514 -1.2847683128111 0
v -0.728389644437016 -1.05711415528015 0
v -1.19504562763493 -0.52481781949662 0
v -1.33303339602057 0.169492321232246 0
v -1.10537923848962 0.839776425401409 0
v -0.573082902706092 1.30643240859933 0
v 0.121227238022773 1.44442017698496 0
v 0.791511342191937 1.21676601945401 0
vt 0.141885235905647 0.0022424201015383
vt 0.871543943881989 0.00590904708951712
vt 0.850893020629883 0.24265556037426
vt 0.751244604587555 0.548404574394226
vt 0.588517189025879 0.727392196655273
vt 0.417769014835358 0.726534128189087
vt 0.253436237573624 0.545902967453003
vt 0.151053369045258 0.239138782024384
vt 0.601430892944336 0.902490258216858
vt 0.406177014112473 0.900642693042755
vt 0.417800784111023 0.733639419078827
vt 0.588548958301544 0.734497487545013
vt 0.601725459098816 0.915296375751495
vt 0.608595192432404 0.980187356472015
vt 0.400612205266953 0.982271015644073
vt 0.406238108873367 0.914314031600952
vt 0.0803902670741081 0.00193340016994625
vt 0.0923588946461678 0.30321404337883
vt 0.051689438521862 0.00178917497396469
vt 0.0649651065468788 0.333119124174118
vt 0.211999222636223 0.661685883998871
vt 0.192659825086594 0.715723872184753
vt 0.408807128667831 0.8816779255867
vt 0.402995884418488 0.946873188018799
vt 0.418314188718796 0.723878264427185
vt 0.407297998666763 0.889030456542969
vt 0.600364446640015 0.890071988105774
vt 0.587948381900787 0.724730730056763
vt 0.793717265129089 0.66460907459259
vt 0.604960143566132 0.948472201824188
vt 0.598864853382111 0.882632970809937
vt 0.813540041446686 0.718843877315521
vt 0.910162270069122 0.307323604822159
vt 0.937824308872223 0.337505370378494
vt 0.933038949966431 0.00621806690469384
vt 0.961739778518677 0.00636229198426008
vt 0.850315451622009 0.0934913381934166
vt 0.958430051803589 0.825754106044769
vt 0.040167298167944 0.825754106044769
vt 0.153475239872932 0.0934913381934166
vt 0.82467257976532 0.0988667607307434
vt 0.933856666088104 0.823317885398865
vt 0.0597033984959126 0.820115864276886
vt 0.161305636167526 0.0964368432760239
vt 0.852439165115356 0.101272590458393
vt 0.958416044712067 0.826087951660156
vt 0.03355398401618 0.822973966598511
vt 0.150590971112251 0.098909467458725
vt 0.836517989635468 0.0962828993797302
vt 0.93886262178421 0.824054718017578
vt 0.0626808255910873 0.824054718017578
vt 0.17161163687706 0.0962828993797302
vt 0.991331100463867 0.825754106044769
vt 0.990696370601654 1.00473439693451
vt 0.00663157179951668 1.00473439693451
vt 0.00726625369861722 0.825754106044769
vt 0.965177297592163 0.823432624340057
vt 0.966103851795197 1.00040912628174
vt 0.0293093603104353 0.996977686882019
vt 0.0283827800303698 0.820001125335693
vt 0.991553544998169 0.826199531555176
vt 0.990201830863953 1.00326776504517
vt -0.000935175514314324 0.999930560588837
vt 0.000416490074712783 0.822862386703491
vt 0.97025591135025 0.824054718017578
vt 0.969451010227203 1.00193727016449
vt 0.030482629314065 1.00193727016449
vt 0.0312875285744667 0.824054718017578
vt 0.156659156084061 0.325945854187012
vt 0.850351452827454 0.329832077026367
vt 0.851575791835785 0.706310212612152
vt 0.157883495092392 0.702423989772797
vt 0.852292716503143 0.926762104034424
vt 0.158562958240509 0.911353528499603
vt 0.853030860424042 0.914541304111481
vt 0.156575560569763 0.926140666007996
vt 0.15621055662632 0.7042156457901
vt 0.852684915065765 0.7042156457901
vt 0.155587211251259 0.325221925973892
vt 0.852061569690704 0.325221925973892
vt 0.155046612024307 -0.00346614536829293
vt 0.851520955562592 -0.00346614536829293
vt 0.155597329139709 -0.000560508167836815
vt 0.84928959608078 0.00332572311162949
vt 0.853139698505402 0.980738878250122
vt 0.206613436341286 1.05936789512634
vt -1.72874236106873 -1.98730039596558
vt 0.863126218318939 0.00610923394560814
vt 0.862989485263824 0.0363241210579872
vt 0.719528138637543 0.0363241210579872
vt 0.719664871692657 0.00610923394560814
vt 0.289144098758698 0.0363241210579872
vt 0.145682737231255 0.0363241210579872
vt 0.145819455385208 0.00610923394560814
vt 0.28928080201149 0.00610923394560814
vt 0.880780279636383 0.0116048771888018
vt 0.880550682544708 0.0416814312338829
vt 0.772384941577911 0.0413172394037247
vt 0.772614538669586 0.0112406825646758
vt 0.2315564006567 0.0394962653517723
vt 0.123390689492226 0.0391320735216141
vt 0.1236202865839 0.00905551668256521
vt 0.231785997748375 0.00941971130669117
vt 0.850342452526093 0.00924812257289886
vt 0.8504998087883 0.0393091142177582
vt 0.707370579242706 0.0387848317623138
vt 0.707213222980499 0.00872384011745453
vt 0.277982980012894 0.0372119843959808
vt 0.134853765368462 0.0366877019405365
vt 0.134696379303932 0.00662670843303204
vt 0.277825593948364 0.00715099135413766
vt 0.878095746040344 0.00276121729984879
vt 0.877987921237946 0.0331625565886497
vt 0.77059406042099 0.0331625565886497
vt 0.770701825618744 0.00276121729984879
vt 0.233624517917633 0.0331625565886497
vt 0.126230612397194 0.0331625565886497
vt 0.126338422298431 0.00276121729984879
vt 0.233732327818871 0.00276121729984879
vt 0.915100812911987 0.305828124284744
vt 0.855228185653687 0.241063371300697
vt 0.862440168857574 0.00486802589148283
vt 0.924584865570068 0.00544344028457999
vt 0.943044424057007 0.336054980754852
vt 0.953588962554932 0.00571199646219611
vt 0.79729837179184 0.661719262599945
vt 0.754418134689331 0.545619189739227
vt 0.817311406135559 0.71590530872345
vt 0.616437673568726 0.925492465496063
vt 0.609094858169556 0.858086705207825
vt 0.589333653450012 0.720797538757324
vt 0.20943395793438 0.656276106834412
vt 0.251349955797195 0.540961146354675
vt 0.41790708899498 0.719210207462311
vt 0.406664311885834 0.884311079978943
vt 0.189870983362198 0.710095703601837
vt 0.408243536949158 0.876576066017151
vt 0.392506808042526 0.923419058322906
vt 0.0609626919031143 0.327887564897537
vt 0.0886565819382668 0.298175841569901
vt 0.147994071245193 0.234514907002449
vt 0.033923152834177 -0.00280342763289809
vt 0.0629272237420082 -0.00253487145528197
vt 0.125071942806244 -0.00195945729501545
vt 0.417384803295135 0.728944838047028
vt 0.589622557163239 0.730630695819855
vt 0.597118616104126 0.924526333808899
vt 0.405881941318512 0.895397424697876
vt 0.603636562824249 0.991924464702606
vt 0.40586256980896 0.990093231201172
vt 0.405635684728622 0.909119963645935
vt 0.589907586574554 0.723454833030701
vt 0.417355358600616 0.721857130527496
vt 0 0
vt 1 0
vt 1 1
vt 0 1
vn -0.0003066898951021 0.999166116872207 0.0408286276505117
vn 0.000346006216424849 0.999167391000253 0.0407971205043283
vn -0.0686493242085949 0.987052343016444 0.144965314580594
vn -0.131525746292024 0.945931782191976 0.296503021066294
vn -0.0624820154927339 0.950703570903178 0.30374120236134
vn 0.06260319054038 0.950696337632223 0.303738891396613
vn 0.127996175539817 0.947287725674445 0.293705539331006
vn 0.0650156863608656 0.987705662863494 0.142163582096158
vn -0.140864517626406 0.7974972476253 0.586647532768996
vn 0.140864517626407 0.797497247625301 0.586647532768995
vn -0.228424775430605 0.350843965713481 0.908146812851268
vn 0.224948273169199 0.350853007394777 0.909010693886621
vn -0.000396081898144165 0.999992001085913 0.00398006071830644
vn 0.0978470147082732 0.97940694088759 0.176601262322475
vn 0.937931352829353 0.0822411297551256 0.336929034006125
vn 0.97714862819577 0.0837667809188321 0.195355278479036
vn 0.814098319474969 0.317215732799175 0.486434070653685
vn 0.865699154069926 0.160232412987759 0.474226262949169
vn 0.372550858307867 0.758203043865036 0.535101861562699
vn 0.618732336363675 0.29340712299927 0.728754112243107
vn -0.373566885980619 0.758343858200827 0.53419319953349
vn -0.618693577776335 0.297208662749954 0.727244984585457
vn -0.641716685281209 0.57770313741757 0.504439075458666
vn -0.842414833691136 0.169102650542545 0.511606823211558
vn -0.965724676349296 0.09757802859334 0.240529369986049
vn -0.903380671279641 0.0948200516478756 0.418225442272275
vn 0.000256266210344964 0.999992171682217 0.00394853161464155
vn 0.000512528408423266 0.999968686851435 0.0078970014085626
vn 0 -0.986371861488913 0.16453130663462
vn 0 -0.994854601147315 -0.101312993125349
vn 0.976866649758215 0 0.213849359573886
vn 0.990907079147214 0 -0.134547985848685
vn 0 0.986371861488913 0.16453130663462
vn 0 0.994854601147315 -0.101312993125349
vn -0.976866649758215 0 0.213849359573886
vn -0.990907079147214 0 -0.134547985848685
vn 0 -1 0
vn -0.0054924413985961 -0.998460695445453 0.0551912378740067
vn 0.00415887517366324 -0.998478350155022 0.0549880716973696
vn 1 0 0
vn 0.976207582835437 -0.0884376260520038 0.197983690017335
vn 0 1 0
vn -1 0 0
vn -0.964486165235701 -0.102898369563605 0.243266032585899
vn 0.864626650498506 -0.171183484994339 0.472352590458577
vn 0.617918517988016 -0.30445854925511 0.724901163547809
vn 0.22434128598071 -0.358927178690817 0.906003459045037
vn -0.230368768457342 -0.359710448616084 0.904178424690538
vn -0.61815796201202 -0.309334865506549 0.722629002312522
vn -0.8411450745996 -0.180467459908638 0.509810218994244
vn -0.901598618278771 -0.0999308804276512 0.420872606206161
vn 0.936591200289518 -0.086790245917586 0.33950607763898
vn -0.98123723246452 0 0.192804288399844
vn -0.966538193003256 0 0.256522750386784
vn 0 0.988958880897901 0.148190188248651
vn 0 0.98033492592105 0.197340905590728
vn 0.98123723246452 0 0.192804288399844
vn 0.966538193003256 0 0.256522750386784
vn 0 -0.988958880897901 0.148190188248651
vn 0 -0.98033492592105 0.197340905590728
vn 0.30501542864473 -0.887001111368237 0.346690952752137
vn 0.053723155753167 -0.984262584153804 0.168347818431948
vn -0.00535855353395568 -0.994090753413932 0.108419831585114
vn 0.905962489570812 -0.172666962319862 0.386546358945326
vn 0.355903560896311 -0.78993193063879 0.499339764387537
vn 0.106310480451639 -0.959647594185946 0.260335507987804
vn 0.130393059704423 -0.829776963816908 0.542648910714573
vn 0.0494144882896222 -0.964525504814668 0.259323656670741
vn -0.356759335129803 -0.791051984437992 0.496950233639603
vn -0.10991818344836 -0.958512644888177 0.263004757631654
vn -0.0494087726930733 -0.964206594069579 0.260507998214462
vn -0.132776035932616 -0.829801455161186 0.542033273235507
vn -0.494300947112143 -0.765936975934104 0.41110475864548
vn -0.0568305511425328 -0.98384736329441 0.169748797331447
vn 0.00427811341411766 -0.99411808192351 0.108217082470082
vn 0 0 1
vn 0.896945716388361 0.44214068106494 0
vn 0.997848116740424 -0.065567796345389 0
vn 0.831377920042972 -0.555707435675483 0
vn 0.44214068106494 -0.896945716388361 0
vn -0.0655677963453889 -0.997848116740424 0
vn -0.555707435675483 -0.831377920042973 0
vn -0.896945716388361 -0.44214068106494 0
vn -0.997848116740424 0.0655677963453891 0
vn -0.831377920042972 0.555707435675483 0
vn -0.44214068106494 0.896945716388361 0
vn 0.0655677963453892 0.997848116740423 0
vn 0.555707435675483 0.831377920042972 0
g o9_1 g2 g1
f 1/1/1 2/2/2 3/3/3 4/4/4 5/5/5 6/6/6 7/7/7 8/8/8
g o8_1 g2 g1
f 9/9/9 10/10/10 6/11/6 5/12/5
f 9/13/9 11/14/11 12/15/12 10/16/10
g o7_1 g2 g1
f 13/17/13 1/1/1 8/8/8 14/18/14
f 15/19/15 13/17/16 14/18/17 16/20/18
f 14/18/14 8/8/8 7/7/7 17/21/19
f 16/20/18 14/18/17 17/21/19 18/22/20
f 10/23/10 12/24/12 18/22/20 17/21/19
f 6/25/6 10/26/10 17/21/19 7/7/7
f 9/27/9 5/28/5 4/4/4 19/29/21
f 11/30/11 9/31/9 19/29/21 20/32/22
f 21/33/23 22/34/24 20/32/22 19/29/21
f 21/33/23 19/29/21 4/4/4 3/3/3
f 23/35/25 24/36/26 22/34/24 21/33/23
f 2/2/2 23/35/27 21/33/28 3/3/3
g o1 g2 g1
f 25/37/29 26/38/30 27/39/30 28/40/29
f 29/41/31 30/42/32 26/43/32 25/44/31
f 31/45/33 32/46/34 30/47/34 29/48/33
f 28/49/35 27/50/36 32/51/36 31/52/35
g o2 g2 g1
f 33/53/37 34/54/38 35/55/39 36/56/37
f 37/57/40 13/58/16 34/59/41 33/60/40
f 38/61/42 23/62/27 13/63/13 37/64/42
f 36/65/43 35/66/44 23/67/25 38/68/43
g o3 g2 g1
f 39/69/45 16/70/18 18/71/20 40/72/46
f 40/72/46 18/71/20 12/73/12 41/74/47
f 42/75/48 11/76/11 20/77/22 43/78/49
f 43/78/49 20/77/22 22/79/24 44/80/50
f 44/80/50 22/79/24 24/81/26 45/82/51
f 46/83/52 15/84/15 16/70/18 39/69/45
g o4 g2 g1
f 41/85/47 12/86/12 11/87/11 42/85/48
g base g2 g1
f 47/88/43 48/89/53 49/90/54 50/91/43
f 51/92/54 52/93/53 53/94/43 54/95/43
f 48/89/53 28/49/35 49/90/54
f 28/49/35 31/52/35 51/92/54 49/90/54
f 31/52/35 52/93/53 51/92/54
f 53/96/42 52/97/55 55/98/56 56/99/42
f 57/100/56 58/101/55 59/102/42 60/103/42
f 52/97/55 31/45/33 55/98/56
f 31/45/33 29/48/33 57/100/56 55/98/56
f 29/48/33 58/101/55 57/100/56
f 59/104/40 58/105/57 61/106/58 62/107/40
f 63/108/58 64/109/57 65/110/40 66/111/40
f 58/105/57 29/41/31 61/106/58
f 29/41/31 25/44/31 63/108/58 61/106/58
f 25/44/31 64/109/57 63/108/58
f 65/112/37 64/113/59 67/114/60 68/115/37
f 69/116/60 48/117/59 47/118/37 70/119/37
f 64/113/59 25/37/29 67/114/60
f 25/37/29 28/40/29 69/116/60 67/114/60
f 28/40/29 48/117/59 69/116/60
g o7 g2 g1
f 71/120/61 72/121/62 73/122/63 34/123/38
f 39/124/45 71/120/64 34/123/41 46/125/52
f 74/126/65 75/127/66 72/121/62 71/120/61
f 40/128/46 74/126/65 71/120/61 39/124/45
f 74/126/65 40/128/46 41/129/47 76/130/67
f 75/127/66 74/126/65 76/130/67 77/131/68
f 78/132/69 79/133/70 80/134/71 81/135/72
f 43/136/49 78/132/69 81/137/72 42/138/48
f 78/132/69 43/136/49 44/139/50 82/140/73
f 83/141/74 79/133/70 78/132/69 82/140/73
f 82/140/73 44/139/50 45/142/51 35/143/44
f 83/141/74 82/140/73 35/143/39 84/144/75
g o8 g2 g1
f 80/145/71 77/146/68 76/147/67 81/148/72
f 76/147/67 41/149/47 42/150/48 81/151/72
g o9 g2 g1
f 72/121/62 75/127/66 77/152/68 80/153/71 79/133/70 83/141/74 84/144/75 73/122/63
g drop_shadow g2_1 g1
f 85/154/76 86/155/76 87/156/76 88/157/76
g collide g2_1 g1
f 89//76 90//76 91//76 92//76 93//76 94//76 95//76 96//76 97//76 98//76 99//76 100//76
f 101//77 100//77 99//78 102//78
f 102//78 99//78 98//79 103//79
f 103//79 98//79 97//80 104//80
f 104//80 97//80 96//81 105//81
f 105//81 96//81 95//82 106//82
f 106//82 95//82 94//83 107//83
f 107//83 94//83 93//84 108//84
f 108//84 93//84 92//85 109//85
f 109//85 92//85 91//86 110//86
f 110//86 91//86 90//87 111//87
f 111//87 90//87 89//88 112//88
f 112//88 89//88 100//77 101//77
