v 7.81736586146919 -0.855766054541456 9.99161045755946e-07
v 7.81736674853268 0.838953315295718 9.99161045755946e-07
v 7.82758394579656 0.838953315295718 15.125501153443
v 7.82758217166958 -0.855766054541456 15.125501153443
v -7.70524724593056 0.838953315295718 15.125501153443
v -7.70524724593056 -0.855766054541456 15.125501153443
v -7.70524724593056 0.838953315295718 5.58354702040088e-07
v -7.70524724593056 -0.855766054541456 5.58354702040088e-07
v 6.71351780550302 0.730212200967835 1.43996738947181e-06
v 6.71351780550302 0.730212200967835 14.0884349938684
v 6.71351736197127 -0.747024940213573 14.0884349938684
v 6.71351736197127 -0.747024940213573 1.43996738947181e-06
v -6.57605002017698 0.730212200967835 14.0884349938684
v -6.57605046370872 -0.747024940213573 14.0884349938684
v -6.57605002017698 0.730212200967835 5.58354702040088e-07
v -6.57605046370872 -0.747024940213573 5.58354702040088e-07
v 6.15626984507816 -1.14362423549571 1.87845779543196
v 7.76410568339083 -1.14362423549571 1.87845779543196
v 7.76410568339083 1.14362423549571 1.87845779543196
v 6.15626984507816 1.14362423549571 1.87845779543196
v 7.76565715743272 -1.14362423549571 5.87741789431636e-08
v 5.89178743057798 -1.14362423549571 5.87741789431636e-08
v 5.89178743057798 1.14362423549571 5.87741789431636e-08
v 7.76565715743272 1.14362423549571 5.87741789431636e-08
v -6.14787555502887 1.14362423549571 1.87845779543196
v -7.75571139334153 1.14362423549571 1.87845779543196
v -7.75571139334153 -1.14362423549571 1.87845779543196
v -6.14787555502887 -1.14362423549571 1.87845779543196
v -7.75726286738343 1.14362423549571 5.87741789431636e-08
v -5.88339269699695 1.14362423549571 5.87741789431636e-08
v -5.88339269699695 -1.14362423549571 5.87741789431636e-08
v -7.75726286738343 -1.14362423549571 5.87741789431636e-08
v -6.62025268541511 0.592048014873154 1.43857468598777
v -7.45262050936413 0.592048014873154 1.43857468598777
v -7.45262050936413 -0.592048014873155 1.43857468598777
v -6.62025268541511 -0.592048014873155 1.43857468598777
v -7.45342369899419 0.592048014873154 0.466107384672407
v -6.48333135565866 0.592048014873154 0.466107384672407
v -6.48333135565866 -0.592048014873155 0.466107384672407
v -7.45342369899419 -0.592048014873155 0.466107384672407
v -6.37949745233399 -1.14362423549571 13.0432383173261
v -7.75762598256577 -1.14362423549571 13.0432383173261
v -7.75762598256577 1.14362423549571 13.0432383173261
v -6.37949745233399 1.14362423549571 13.0432383173261
v -7.75762509550228 -1.14362423549571 15.2144100976261
v -6.1115271041959 -1.14362423549571 15.2144100976261
v -6.1115271041959 1.14362423549571 15.2144100976261
v -7.75762509550228 1.14362423549571 15.2144100976261
v -6.11152754772764 1.14362423549571 13.6610104231451
v -6.11152754772764 -1.14362423549571 13.6610104231451
v 6.25115143422522 1.14362423549571 13.0091077418888
v 7.72551304703839 1.14362423549571 13.0091077418888
v 7.72551304703839 -1.14362423549571 13.0091077418888
v 6.25115143422522 -1.14362423549571 13.0091077418888
v 7.7255121599749 1.14362423549571 15.1802795221887
v 5.98318152961887 1.14362423549571 15.1802795221887
v 5.98318152961887 -1.14362423549571 15.1802795221887
v 7.7255121599749 -1.14362423549571 15.1802795221887
v 5.98318197315061 1.14362423549571 13.6268798477078
v 5.98318197315061 -1.14362423549571 13.6268798477078
v 6.63106477397558 -0.436850220830432 1.43632320373198
v 7.45946346967942 -0.436850220830432 1.43632320373198
v 7.45946346967942 0.436850220830431 1.43632320373198
v 6.63106477397558 0.436850220830431 1.43632320373198
v 7.46026282931683 -0.436850220830432 0.468493092036531
v 6.4947965791837 -0.436850220830432 0.468493092036531
v 6.4947965791837 0.436850220830431 0.468493092036531
v 7.46026282931683 0.436850220830431 0.468493092036531
vt 0.0712530314922333 0.0466748997569084
vt 0.180084109306335 0.0466749109327793
vt 0.180084109306335 0.840623080730438
vt 0.0712530314922333 0.841078639030457
vt 0.0712530314922333 0.0466748774051666
vt 0.180084109306335 0.0466749332845211
vt 0.180084109306335 0.841078579425812
vt 0.180084109306335 0.0471304059028625
vt 0.0712530314922333 0.0466748476028442
vt 0.847261250019073 0
vt 0.847261250019073 0.832419037818909
vt 0.925284028053284 0.894404768943787
vt 0.925284028053284 0
vt 0.850282549858093 0.827365279197693
vt 0.850282430648804 0.00064551830291748
vt 0.923555314540863 0.00064551830291748
vt 0.923555135726929 0.888668179512024
vt 0.841456413269043 0.0897107049822807
vt 0.841458439826965 0.819920778274536
vt 0.922817468643188 0.883874356746674
vt 0.922815918922424 0.0213668271899223
vt 0.841456711292267 0.819920897483826
vt 0.841456711292267 0.0897101834416389
vt 0.922816097736359 0.0213665962219238
vt 0.922816395759583 0.883874356746674
vt 0.84663462638855 0.82414299249649
vt 0.84663462638855 0.00667549762874842
vt 0.924658298492432 0.00667549762874842
vt 0.924658298492432 0.886128723621368
vt 0.850282549858093 0.00064551830291748
vt 0.923554837703705 0.888668239116669
vt 0.923554837703705 0.00064551830291748
vt 0.939353942871094 -0.00102120148949325
vt 0.939353942871094 0.831203401088715
vt 0.846563458442688 0.83120334148407
vt 0.846563458442688 -0.00102120148949325
vt 0.181434258818626 0.00199209130369127
vt 0.181434258818626 0.842400074005127
vt 0.0688392817974091 0.842400074005127
vt 0.0688392817974091 0.00199202494695783
vt 0.846563458442688 0.831203281879425
vt 0.939353883266449 -0.00102120148949325
vt 0.939353883266449 0.831203281879425
vt 0.170800551772118 0.386777102947235
vt 0.170800551772118 0.379023194313049
vt 0.116840116679668 0.379366815090179
vt 0.11684013903141 0.387120753526688
vt 0.623041272163391 0.326810956001282
vt 0.623041272163391 0.498512357473373
vt 0.439513295888901 0.498512357473373
vt 0.439513295888901 0.326810956001282
vt 0.161182105541229 0.49005526304245
vt 0.0783657729625702 0.49005526304245
vt 0.0743479058146477 0.374203503131866
vt 0.174292773008347 0.374203503131866
vt 0.439513295888901 0.498512417078018
vt 0.623041272163391 0.498512417078018
vt 0.439513295888901 0.498512238264084
vt 0.623041152954102 0.498512238264084
vt 0.116254314780235 0.386183530092239
vt 0.172246426343918 0.386183530092239
vt 0.172246426343918 0.379437208175659
vt 0.116254314780235 0.379437208175659
vt 0.116254292428493 0.379437208175659
vt 0.116254292428493 0.386183530092239
vt 0.0901408568024635 0.375313401222229
vt 0.172212049365044 0.375313401222229
vt 0.172212049365044 0.489497303962708
vt 0.0768537595868111 0.489497303962708
vt 0.0768537595868111 0.406831085681915
vt 0.151775240898132 0.379469782114029
vt 0.116050913929939 0.379469782114029
vt 0.116050891578197 0.386746764183044
vt 0.151775240898132 0.386746764183044
vt 0.171550452709198 0.379469782114029
vt 0.171550452709198 0.386746764183044
vt 0.0765902996063232 0.407121986150742
vt 0.0765902996063232 0.488924264907837
vt 0.17217044532299 0.488924264907837
vt 0.17217044532299 0.375121772289276
vt 0.0902038067579269 0.375121772289276
vt 0.0778501927852631 0.407121986150742
vt 0.0778501629829407 0.489551395177841
vt 0.175553977489471 0.489551395177841
vt 0.175554022192955 0.374340623617172
vt 0.0901355221867561 0.374340623617172
vt 0.073102243244648 0.372003257274628
vt 0.623041212558746 0.326810956001282
vt 0.623041212558746 0.498512238264084
vn 0.999999771855139 -7.85107001688424e-07 -0.000675491712184706
vn 0 0 1
vn -1 0 0
vn -0.097604834000051 0.99522524848136 3.41326447556629e-05
vn -0.04892739164666 0.997434322433582 -0.0522578489618119
vn -0.0489274298167464 -0.997434320479189 -0.0522578505274267
vn -0.0976049505356096 -0.995225237052348 3.41326700335075e-05
vn 0.0480486819102182 0.997476260197248 -0.0522726937281997
vn 0.048048700652751 -0.997476259291956 -0.0522726937751258
vn 0.0958560359601393 0.995395208130926 0
vn 0.0958561095947092 -0.995395201039952 0
vn -0.999999999999955 3.00244117141281e-07 0
vn 0 -3.18292501223688e-07 -0.999999999999949
vn 0.999999999999955 -3.00244117141281e-07 0
vn 0 0 -1
vn 0 1 0
vn -0.990232995095343 0 0.139422435154845
vn 0.999999658815396 0 0.000826056349295567
vn 0 -1 0
vn 0.990232957802253 0 0.139422700024783
vn -0.999999658815396 0 0.000826056349295567
vn -2.23258436437083e-08 1 0
vn 0.97913479576767 0 -0.203211839509915
vn 0.999999999999945 0 -3.31095095408583e-07
vn 0.917409966270388 0 -0.397943405257288
vn -0.999999999999888 0 4.73774584294658e-07
vn -2.23258461763293e-08 -1 0
vn 2.10651543326678e-08 1 0
vn -0.979134857163966 -0 -0.20321154368416
vn -0.999999999999945 -0 -3.3109509531022e-07
vn -0.917410241086716 -0 -0.397942771701176
vn 0.999999999999888 0 4.73774584196296e-07
vn 2.10651568652888e-08 -1 0
g doorframe Doorway1
f 1/1/1 2/2/1 3/3/1 4/4/1
f 4/5/2 3/6/2 5/3/2 6/4/2
f 6/4/3 5/7/3 7/8/3 8/9/3
f 9/10/4 10/11/5 3/12/5 2/13/4
f 11/14/6 12/15/7 1/16/7 4/17/6
f 10/18/5 13/19/8 5/20/8 3/21/5
f 14/22/9 11/23/6 4/24/6 6/25/9
f 13/26/8 15/27/10 7/28/10 5/29/8
f 16/30/11 14/14/9 6/31/9 8/32/11
f 12/33/12 11/34/12 10/35/12 9/36/12
f 11/37/13 14/38/13 13/39/13 10/40/13
f 14/41/14 16/36/14 15/42/14 13/43/14
g pCube31 Doorway1
f 17/44/2 18/45/2 19/46/2 20/47/2
f 21/48/15 22/49/15 23/50/15 24/51/15
f 20/52/16 19/53/16 24/54/16 23/55/16
f 20/44/17 23/45/17 22/46/17 17/47/17
f 19/44/18 18/45/18 21/46/18 24/47/18
f 17/52/19 22/55/19 21/54/19 18/53/19
g pCube32 group1 Doorway1
f 25/47/2 26/46/2 27/45/2 28/44/2
f 29/51/15 30/56/15 31/57/15 32/48/15
f 30/55/16 29/54/16 26/53/16 25/52/16
f 28/47/20 31/46/20 30/45/20 25/44/20
f 29/47/21 32/46/21 27/45/21 26/44/21
f 27/53/19 32/54/19 31/55/19 28/52/19
g pCube32_collision group1 Doorway1
f 33/47/2 34/46/2 35/45/2 36/44/2
f 37/51/15 38/58/15 39/59/15 40/48/15
f 38/55/16 37/54/16 34/53/16 33/52/16
f 36/47/20 39/46/20 38/45/20 33/44/20
f 37/47/21 40/46/21 35/45/21 34/44/21
f 35/53/19 40/54/19 39/55/19 36/52/19
g pCube30 group2 Doorway1
f 41/60/15 42/61/15 43/62/15 44/63/15
f 45/62/2 46/64/2 47/65/2 48/61/2
f 44/66/22 43/67/22 48/68/22 47/69/22 49/70/22
f 49/71/23 47/72/24 46/73/24 50/74/23
f 44/75/25 49/71/23 50/74/23 41/76/25
f 43/44/26 42/45/26 45/46/26 48/47/26
f 50/77/27 46/78/27 45/79/27 42/80/27 41/81/27
g pCube30 group3 Doorway1
f 51/47/15 52/46/15 53/45/15 54/44/15
f 55/47/2 56/46/2 57/45/2 58/44/2
f 59/82/28 56/83/28 55/84/28 52/85/28 51/86/28
f 60/87/29 57/87/30 56/87/30 59/87/29
f 54/87/31 60/87/29 59/87/29 51/87/31
f 55/47/32 58/46/32 53/45/32 52/44/32
f 54/86/33 53/85/33 58/84/33 57/83/33 60/82/33
g pCube31_collision Doorway1
f 61/44/2 62/45/2 63/46/2 64/47/2
f 65/88/15 66/89/15 67/58/15 68/51/15
f 64/52/16 63/53/16 68/54/16 67/55/16
f 64/44/17 67/45/17 66/46/17 61/47/17
f 63/44/18 62/45/18 65/46/18 68/47/18
f 61/52/19 66/55/19 65/54/19 62/53/19
