v -8.14274492527219 -0.55968158632071 9.94435007490824
v -5.605951218974 -0.55968158632071 9.94435107614112
v -5.60353824773774 -0.55968158632071 19.9321656715213
v -8.14274492527219 -0.55968158632071 19.9321656715213
v -5.60353824773774 -0.55968158632071 29.9443482726891
v -8.14274492527219 -0.55968158632071 29.9443482726891
v -5.60864053048462 -0.55968158632071 -0.037074198560139
v -8.15267214925872 -0.55968158632071 -0.037074198560139
v 8.12984927119858 -0.55968158632071 10.0274894494084
v 8.12984927119858 -0.55968158632071 20.0153060472543
v 5.59064309428057 -0.55968158632071 20.0153060472543
v 5.59064309428057 -0.55968158632071 10.0274894494084
v 8.12984927119858 -0.55968158632071 30.0274886484221
v 5.59064309428057 -0.55968158632071 30.0274886484221
v 8.11662298487866 -0.55968158632071 0.0215984489817632
v 5.57741680796065 -0.55968158632071 0.0215984489817632
v -8.13058768044619 9.23648396029204e-09 0.652474180607032
v 8.13058768044619 9.23648396029204e-09 0.652474180607032
v 8.13058818106263 0 3.4525147886101
v -8.13058818106263 0 3.4525147886101
v 8.13058768044619 0 28.6360873324977
v -8.13058768044619 0 28.6360873324977
v -8.13073085674776 -1.4759792117622 -0.839397725783621
v 8.10481794862922 -1.4759792117622 -0.839397725783621
v 6.04789083219234 -0.589780504725206 4.77238551139631
v 6.82853987156185 -0.589780504725206 4.77238551139631
v 6.82853987156185 -0.589780504725206 5.55303455076582
v 6.04789083219234 -0.589780504725206 5.55303455076582
v 7.22647383911528 -0.589780504725206 16.9661866214836
v 8.00712287848479 -0.589780504725206 16.9661866214836
v 8.00712287848479 -0.589780504725206 17.7468356608531
v 7.22647383911528 -0.589780504725206 17.7468356608531
v -7.73246432567583 -0.589780504725206 11.6172329746795
v -6.95181528630631 -0.589780504725206 11.6172329746795
v -6.95181528630631 -0.589780504725206 12.397882014049
v -7.73246432567583 -0.589780504725206 12.397882014049
v -7.9059162296057 -0.589780504725206 9.7838661999413
v -7.43206693425294 -0.589780504725206 9.49709725402971
v -7.14529798834135 -0.589780504725206 9.97094654938248
v -7.61914728369412 -0.589780504725206 10.2577154952941
v -8.10056335553459 -0.589780504725206 23.1910512735778
v -5.59341928015708 -0.589780504725206 23.1910512735778
v -5.59341928015708 -0.589780504725206 25.6981953489554
v -8.10056335553459 -0.589780504725206 25.6981953489554
v 6.09488239217642 -0.589780504725206 14.9775810299284
v 7.90666142624291 -0.589780504725206 14.9775810299284
v 7.90666142624291 -0.589780504725206 16.7893600639949
v 6.09488239217642 -0.589780504725206 16.7893600639949
v 6.37557471497035 -0.589780504725206 9.36506660979896
v 8.0541932447867 -0.589780504725206 9.36506660979896
v 8.0541932447867 -0.589780504725206 11.6453356366851
v 6.37557471497035 -0.589780504725206 11.6453356366851
v -7.7497621128886 -0.589780504725206 1.469074343996
v -6.59879935000666 -0.589780504725206 1.469074343996
v -6.59879935000666 -0.589780504725206 2.69793086055512
v -7.7497621128886 -0.589780504725206 2.69793086055512
v 6.19675390735412 -0.589780504725206 1.95166090180182
v 7.54743461468079 -0.589780504725206 1.78402070482426
v 7.71507481165835 -0.589780504725206 3.13470141215093
v 6.36439410433168 -0.589780504725206 3.30234160912849
v -7.48602864928531 -0.589780504725206 6.85612792222192
v -6.78159805073656 -0.589780504725206 6.69463127882381
v -6.47745756152884 -0.589780504725206 8.02125864610207
v -7.18188816007758 -0.589780504725206 8.18275528950018
v -5.5624531180052 -0.622595621312172 -0.12981897194333
v -4.20289996563661 -0.573701298130625 -0.170637838076747
v -4.16265916700907 -0.55696538813824 1.18970851349321
v -5.52221231937765 -0.605859711319787 1.23052737962663
v -4.55455068834133 -0.488442978034946 0.012527903521993
v -3.19375183883482 -0.488442978034946 0.0383755333731452
v -3.21959946868597 -0.488442978034946 1.39917438287965
v -4.58039831819248 -0.488442978034946 1.3733267530285
v -6.91595083877769 -1.17009322956628 -0.585551936515981
v -4.91864591374355 -1.17009322956628 -0.585551936515981
v -4.91864591374355 -1.17009322956628 2.35018949137533
v -6.91595083877769 -1.17009322956628 2.35018949137533
v -4.24185615579672 -0.199889848163591 0.628125787281698
v -2.90084017062252 -0.199889848163591 0.628125787281698
v -2.90084017062252 -0.199889848163591 2.41832988918879
v -4.24185615579672 -0.199889848163591 2.41832988918879
v 6.03410586716816 -1.17009322956628 -0.780302340956246
v 7.26894935393345 -1.17009322956628 -0.780302340956246
v 7.26894935393345 -1.17009322956628 1.75901316628576
v 6.03410586716816 -1.17009322956628 1.75901316628576
v -1.42419062508997 -0.199889848163591 0.212457911752792
v -0.265352237265278 -0.199889848163591 0.212457911752792
v -0.265352237265278 -0.199889848163591 1.9157781312779
v -1.42419062508997 -0.199889848163591 1.9157781312779
v 6.81453900485622 -1.17009322956628 -0.780302340956246
v 8.04938249162151 -1.17009322956628 -0.780302340956246
v 8.04938249162151 -1.17009322956628 1.75901316628576
v 6.81453900485622 -1.17009322956628 1.75901316628576
v 0.836091700613691 -1.17009322956628 -0.781005352723852
v 2.1515858505024 -1.17009322956628 -0.781005352723852
v 2.1515858505024 -1.17009322956628 2.53704073854895
v 0.836091700613691 -1.17009322956628 2.53704073854895
v -0.0308987919531693 -1.17009322956628 -0.78029380704821
v 0.981442077085322 -1.17009322956628 -0.78029380704821
v 0.981442077085322 -1.17009322956628 1.74956863625515
v -0.0308987919531693 -1.17009322956628 1.74956863625515
v -3.33738827319259 -1.17009322956628 -0.781403231624762
v -1.92528704383204 -1.17009322956628 -0.781403231624762
v -1.92528704383204 -1.17009322956628 2.97737583618791
v -3.33738827319259 -1.17009322956628 2.97737583618791
v -7.85319674945665 -0.786402605331088 16.5491143758798
v -6.21351540058156 -0.786402605331088 16.078360018312
v -5.71698848677507 -0.786402605331088 17.8078095851505
v -7.35666983565016 -0.786402605331088 18.2785639427183
v 3.31891279180187 -1.16436931733026 0.0968687015934042
v 6.69192829814595 -1.16436931733026 0.0968687015934042
v 6.69192829814595 -1.16436931733026 4.06102697089165
v 3.31891279180187 -1.16436931733026 4.06102697089165
v 5.41788689685746 -0.67517893231155 20.7541671643796
v 7.12057319753347 -0.67517893231155 21.1904988618568
v 6.73937804091107 -0.67517893231155 22.6780272142955
v 5.03669174023506 -0.67517893231155 22.2416955168184
v 6.3580252314259 -0.67517893231155 19.8625593577454
v 7.83409463287476 -0.67517893231155 19.6003216114636
v 8.06319501532277 -0.67517893231155 20.8898692421404
v 6.5871256138739 -0.67517893231155 21.1521069884222
v 1.42005323570366 -0.277363136170711 0.352568129341842
v 3.60962826482083 -0.277363136170711 0.352568129341842
v 3.60962826482083 -0.277363136170711 2.26546008971683
v 1.42005323570366 -0.277363136170711 2.26546008971683
v -3.82424854885907 -0.149933860510437 24.3892015412638
v -1.85810008911383 -0.149933860510437 24.3734089031014
v -1.83886948508656 -0.149933860510437 26.7675764955858
v -3.80501794483181 -0.149933860510437 26.7833691337482
v 0.903253038002789 -0.149933860510437 17.2970306900089
v 3.84887193176088 -0.149933860510437 17.273370679432
v 3.87768258961346 -0.149933860510437 20.8602337468115
v 0.932063695855365 -0.149933860510437 20.8838937573885
v -4.31877379277815 -0.149933860510437 10.1126806071343
v -1.37315489902006 -0.149933860510437 10.0890205965574
v -1.34434424116748 -0.149933860510437 13.6758836639369
v -4.28996313492557 -0.149933860510437 13.6995436745139
v -2.02496015650048 -0.149933860510437 3.60616244683656
v 0.920658737257606 -0.149933860510437 3.58250243625964
v 0.949469395110182 -0.149933860510437 7.16936550363921
v -1.99614949864791 -0.149933860510437 7.19302551421613
v 4.51945216624719 -0.149933860510437 6.73658556739146
v 6.13840212377129 -0.149933860510437 6.72358172184997
v 6.15968559647541 -0.149933860510437 9.37332691609764
v 4.54073563895131 -0.149933860510437 9.38633076163913
v -7.02856913687132 -0.608500947615825 9.83046234613343
v -6.18269898973882 -0.578080475807521 9.80506616339361
v -6.16581869669856 -0.571060061834587 10.3757070510978
v -7.01168884383106 -0.601480533642891 10.4011032338377
v -7.67977343721538 -1.19103624707399 -0.568679715462583
v -6.83390329008288 -1.16061577526569 -0.594075898202407
v -6.81702299704262 -1.15359536129275 -0.0234350104981827
v -7.66289314417512 -1.18401583310106 0.00196117224164077
v 5.29715055872723 -1.18529174267515 -0.529187339890007
v 5.83129043954448 -1.16608218995459 -0.545224215133623
v 5.84750207745796 -1.15933986569159 0.00281268375336324
v 5.31336219664071 -1.17854941841215 0.0188495589969786
v -0.440260199951258 -1.18245172536209 -0.108553811756959
v -0.0230264304013781 -1.16744652844494 -0.121080728675159
v -0.0103630007640513 -1.16217988300465 0.307008446814203
v -0.427596770313931 -1.17718507992181 0.319535363732403
v 3.60019122814477 -1.18654103559975 -0.214626867874868
v 4.24294838199377 -1.16342522291321 -0.233924839545597
v 4.25577532611454 -1.15809057276699 0.199691968062561
v 3.61301817226554 -1.18120638545353 0.218989939733289
v 6.04995393754736 -0.707335895851058 23.7781105912018
v 6.46718770709724 -0.692330698933904 23.7655836742836
v 6.47985113673456 -0.68706405349362 24.193672849773
v 6.06261736718468 -0.702069250410773 24.2061997666912
v -7.0261369394063 -0.695268939929172 19.7443681617809
v -6.49199705858905 -0.676059387208609 19.7283312865373
v -6.47578542067556 -0.669317062945605 20.2763681854243
v -7.00992530149282 -0.688526615666168 20.2924050606679
v -6.64571602410071 -0.726418614880144 20.8556917880978
v -6.84076771988278 -0.710964539167017 21.2388060049796
v -7.23375595233761 -0.705540342614467 21.0385084338492
v -7.03870425655554 -0.720994418327594 20.6553942169675
v -8.76725600274439 2.48991501350227 27.0892099367167
v 8.76725600274439 2.48991501350227 27.0892099367167
v 8.76725600274439 2.48991501350227 39.3687162215255
v -8.76725600274439 2.48991501350227 39.3687162215255
v -8.81412908290394 -1.94494602123457 -1.49890809398912
v 8.81412908290394 -1.94494602123457 -1.49890809398912
v 8.81412908290394 -1.94494602123457 28.5874529518467
v -8.81412908290394 -1.94494602123457 28.5874529518467
v -3.26998903369653 0 -0.00276140027784613
v 3.26998953431297 0 -0.00276140027784613
v 3.26998953431297 0 4.41713708592212
v -3.26998903369653 0 4.41713708592212
vt 0.306057661771774 0.00911888107657433
vt 0.00730407238006592 0.00911888107657433
vt 0.00730407238006592 0.910877585411072
vt 0.306057661771774 0.910877585411072
vt 1 0.00395801663398743
vt 0.695787191390991 0.00395801663398743
vt 0.679364204406738 0.994437694549561
vt 1 0.994437694549561
vt 0.0147565519437194 0.00911888107657433
vt 0.0147565519437194 0.910877585411072
vt 0.313510298728943 0.910877585411072
vt 0.313510298728943 0.00911888107657433
vt 0.63769519329071 0.00911888107657433
vt 0.63769519329071 0.910877585411072
vt 0.33894157409668 0.910877585411072
vt 0.33894157409668 0.00911888107657433
vt 0 0.00321409036405385
vt 1 0.00321409036405385
vt 1 0.14913073182106
vt 0 0.14913073182106
vt 1 1
vt 0 1
vt 0 0
vt 1 0
vt 1 0.896283268928528
vt 0 0.896283268928528
vt 0.326990604400635 0
vt 0.887888967990875 0
vt 0.887888967990875 1
vt 0.326990604400635 1
vt 0.707470238208771 0
vt 0.707470238208771 1
vn 0 -1 0
vn 0 -0.924900835344958 0.380208422813328
vn 0 -1 -3.2986964271231e-09
vn 0 -0.710883117392529 0.703310168706724
vn 0.0362744794239943 -0.999278868268507 0.011220765327299
vn -0.0272627271080219 -0.999278868268507 0.0264289073297714
g cliff_a cliffs1 diving_game_background
f 1/1/1 2/2/1 3/3/1 4/4/1
f 4/5/1 3/6/1 5/7/1 6/8/1
f 7/9/1 2/10/1 1/11/1 8/12/1
g cliff_b cliffs1 diving_game_background
f 9/13/1 10/14/1 11/15/1 12/16/1
f 10/5/1 13/8/1 14/7/1 11/6/1
f 15/13/1 9/14/1 12/15/1 16/16/1
g seawater diving_game_background
f 17/17/2 18/18/2 19/19/3 20/20/3
f 20/20/1 19/19/1 21/21/1 22/22/1
f 23/23/4 24/24/4 18/25/2 17/26/2
g starfish1 diving_game_background
f 25/23/1 26/24/1 27/21/1 28/22/1
g starfish2 diving_game_background
f 29/23/1 30/24/1 31/21/1 32/22/1
g starfish3 diving_game_background
f 33/23/1 34/24/1 35/21/1 36/22/1
g starfish4 diving_game_background
f 37/23/1 38/24/1 39/21/1 40/22/1
g coral_a1 diving_game_background
f 41/23/1 42/24/1 43/21/1 44/22/1
g coral_a2 diving_game_background
f 45/23/1 46/24/1 47/21/1 48/22/1
g coral_a3 diving_game_background
f 49/24/1 50/23/1 51/22/1 52/21/1
g coral_a4 diving_game_background
f 53/24/1 54/23/1 55/22/1 56/21/1
g coral_b1 diving_game_background
f 57/23/1 58/24/1 59/21/1 60/22/1
g coral_b2 diving_game_background
f 61/27/1 62/28/1 63/29/1 64/30/1
g coral_b3 diving_game_background
f 65/23/5 66/24/5 67/21/5 68/22/5
g coral_b4 diving_game_background
f 69/23/1 70/24/1 71/21/1 72/22/1
g PetShopInteriorAquariumKelp1 diving_game_background
f 73/23/1 74/24/1 75/21/1 76/22/1
g PetShopInteriorAquariumKelp2 diving_game_background
f 77/23/1 78/24/1 79/21/1 80/22/1
g PetShopInteriorAquariumKelp3 diving_game_background
f 81/23/1 82/24/1 83/21/1 84/22/1
g PetShopInteriorAquariumKelp4 diving_game_background
f 85/23/1 86/24/1 87/21/1 88/22/1
g PetShopInteriorAquariumKelp5 diving_game_background
f 89/23/1 90/24/1 91/21/1 92/22/1
g PetShopInteriorAquariumKelp6 diving_game_background
f 93/23/1 94/24/1 95/21/1 96/22/1
g PetShopInteriorAquariumKelp7 diving_game_background
f 97/23/1 98/24/1 99/21/1 100/22/1
g PetShopInteriorAquariumKelp8 diving_game_background
f 101/23/1 102/24/1 103/21/1 104/22/1
g PetShopInteriorAquariumCoralA1 diving_game_background
f 105/23/1 106/24/1 107/21/1 108/22/1
g PetShopInteriorAquariumCoralA2 diving_game_background
f 109/23/1 110/24/1 111/21/1 112/22/1
g PetShopInteriorAquariumCoralB1 diving_game_background
f 113/23/1 114/24/1 115/21/1 116/22/1
g PetShopInteriorAquariumCoralB2 diving_game_background
f 117/23/1 118/24/1 119/21/1 120/22/1
g PetShopInteriorAquariumCoralB3 diving_game_background
f 121/23/1 122/24/1 123/21/1 124/22/1
g bubbles1 diving_game_background
f 125/24/1 126/23/1 127/22/1 128/21/1
g bubbles2 diving_game_background
f 129/23/1 130/24/1 131/21/1 132/22/1
g bubbles3 diving_game_background
f 133/23/1 134/24/1 135/21/1 136/22/1
g bubbles4 diving_game_background
f 137/23/1 138/24/1 139/21/1 140/22/1
g bubbles5 diving_game_background
f 141/23/1 142/31/1 143/32/1 144/22/1
g shell diving_game_background
f 145/23/5 146/24/5 147/21/5 148/22/5
g shell1 diving_game_background
f 149/24/5 150/23/5 151/22/5 152/21/5
g shell2 diving_game_background
f 153/24/5 154/23/5 155/22/5 156/21/5
g shell3 diving_game_background
f 157/24/5 158/23/5 159/22/5 160/21/5
g shell4 diving_game_background
f 161/24/5 162/23/5 163/22/5 164/21/5
g shell5 diving_game_background
f 165/23/5 166/24/5 167/21/5 168/22/5
g shell6 diving_game_background
f 169/24/5 170/23/5 171/22/5 172/21/5
g shell7 diving_game_background
f 173/24/6 174/23/6 175/22/6 176/21/6
g sky diving_game_background
f 177/23/1 178/24/1 179/21/1 180/22/1
g sea_front diving_game_background
f 181/23/1 182/24/1 183/21/1 184/22/1
g boat diving_game_background
f 185/23/1 186/24/1 187/21/1 188/22/1
