v -7.70000016689301 0 6.18750013411045
v -7.70000016689301 0 -6.18750013411045
v 7.70000016689301 0 -6.18750013411045
v 7.70000016689301 0 6.18750013411045
v -7.70000016689301 0 6
v -7.70000016689301 0 -6
v 7.70000016689301 0 -6
v 7.70000016689301 0 6
v -7.70000016689301 0 7.42500016093254
v -7.70000016689301 0 -7.42500016093254
v 7.70000016689301 0 -7.42500016093254
v 7.70000016689301 0 7.42500016093254
v -7.70000016689301 0 3.71250008046627
v -7.70000016689301 0 -3.71250008046627
v 7.70000016689301 0 -3.71250008046627
v 7.70000016689301 0 3.71250008046627
vt 0.000210039594094269 0.998057961463928
vt 0.000210039594094269 -0.00122547370847315
vt 1.00081932544708 -0.00425762310624123
vt 1.00081932544708 0.995025813579559
vt 0 1
vt 0 0
vt 1 0
vt 1 1
vt 0.00476866913959384 0.998015820980072
vt 0.997768878936768 0.00406132778152823
vt 1.00253760814667 1.00207710266113
vn 0 -1 0
g BR_sign1 g2 g1
f 1/1/1 2/2/1 3/3/1 4/4/1
g BR_sign2 g2 g1
f 5/5/1 6/6/1 7/7/1 8/8/1
g BR_sign3 g2 g1
f 9/5/1 10/6/1 11/7/1 12/8/1
g BR_sign4 g2 g1
f 13/9/1 14/6/1 15/10/1 16/11/1
