v -0.265861527500503 -0.265861527500503 -5.90331178386145e-17
v 0.265861527500503 -0.265861527500503 -5.90331178386145e-17
v 0.265861527500503 0.265861527500503 5.90331178386145e-17
v -0.265861527500503 0.265861527500503 5.90331178386145e-17
v -0.225471902707117 0.0445431220562752 0.00264209981157085
v 0.225471902707117 0.0445431220562752 0.00264209981157085
v 0.225471902707117 0.495486935292642 0.00264209981157085
v -0.225471902707117 0.495486935292642 0.00264209981157085
vt 0.00722020864486694 0.00722020864486694
vt 0.992779791355133 0.00722020864486694
vt 0.992779791355133 0.992779791355133
vt 0.00722020864486694 0.992779791355133
vn 0 0 1
g checker_pieceblack checker_pieceGroup
f 1/1/1 2/2/1 3/3/1 4/4/1
g checker_king checker_pieceGroup
f 5/1/1 6/2/1 7/3/1 8/4/1
