v -2.56479094306356 0 -4.21790843400641
v 2.56479094306356 0 -4.21790843400641
v 2.56479094306356 0 4.21790843400641
v -2.56479094306356 0 4.21790843400641
v -1.51224342549189 -0.025 -0.104851195310588
v 1.51224342549189 -0.025 -0.104851195310588
v 1.51224342549189 -0.025 0.612272041335167
v -1.51224342549189 -0.025 0.612272041335167
v -0.701216333809166 0 0.457593097699686
v 0.621682302207146 0 0.457593097699686
v 0.621682302207146 0 2.57637307907509
v -0.701216333809166 0 2.57637307907509
v -1.42647759195508 -0.025 2.49471301331403
v 1.39252236570779 -0.025 2.49471301331403
v 1.39252236570779 -0.025 3.78321260047334
v -1.42647759195508 -0.025 3.78321260047334
v -1.82663998986823 0 3.56181775383266
v 1.7606424637946 0 3.56181775383266
v 1.7606424637946 0 7.76748390584414
v -1.82663998986823 0 7.76748390584414
vt 0 0
vt 1 0
vt 1 1
vt 0 1
vt 0.99430388212204 0.9905064702034
vt 0.00569615187123418 0.9905064702034
vt 0.00759486900642514 0.00569615233689547
vt 0.99240517616272 0.00569615233689547
vt 0.99240517616272 0.99430388212204
vt 0.00759486900642514 0.99430388212204
vt 0.00189871736802161 0.00759486900642514
vt 0.99620258808136 0.00759486900642514
vt 0.99620258808136 0.99620258808136
vt 0.00189871736802161 0.99620258808136
vt 0.0182305071502924 0.0136728789657354
vt 0.990884780883789 0.0136728789657354
vt 0.990884780883789 0.988605976104736
vt 0.0182305071502924 0.988605976104736
vn 0 -1 0
g pPlane1
f 1/1/1 2/2/1 3/3/1 4/4/1
g trophyBase trophy
f 5/1/1 6/2/1 7/5/1 8/6/1
g trophyColumn trophy
f 9/7/1 10/8/1 11/9/1 12/10/1
g trophyTopBase trophyTop trophy
f 13/11/1 14/12/1 15/13/1 16/14/1
g trophyStatue trophyTop trophy
f 17/15/1 18/16/1 19/17/1 20/18/1
