v -1.31971954986492 -3.34240745684606 0.00839565839041562
v 1.22199847003606 -3.34240745684606 0.00839565839041562
v 0.909590533399206 -2.87236316310452 1.70818188684819
v -1.00731173838217 -2.87236316310452 1.70818188684819
v 0.909590533399206 2.87236316310452 1.70818188684819
v -1.00731173838217 2.87236316310452 1.70818188684819
v 1.22199847003606 3.34240745684606 0.00839565839041562
v -1.31971954986492 3.34240745684606 0.00839565839041562
v 1.67733624951492 4.28668582810768 0.010352450718717
v -1.67625463545183 4.28668582810768 0.010352450718717
v -1.67625563430152 -4.26830320428688 0.010352450718717
v 1.67733924606399 -4.26830320428688 0.010352450718717
v 0.908102200725886 1.96862408495325 1.73734767543362
v -1.043701171875 1.96862408495325 1.73734767543362
v -1.043701171875 0.00986014138369423 1.73734767543362
v 0.908098195794373 0.00986014138369423 1.73734767543362
v 0.650096502829724 -0.969145366838911 1.73734767543362
v -0.640308450213255 -0.969145366838911 1.73734767543362
v -0.640304445281742 -1.77755681235646 1.73734767543362
v 0.650092497898212 -1.77755681235646 1.73734767543362
vt 0.00530281662940979 0.989948451519012
vt 0.994697213172913 0.989948451519012
vt 0.994697213172913 0.0100515484809875
vt 0.00530281662940979 0.0100515484809875
vt 0.0053028492256999 0.989948451519012
vt 0.994697213172913 0.0100515345111489
vt 0.00530284596607089 0.0100515484809875
vt 0.0100515661761165 0.0053027868270874
vt 0.0100515661761165 0.994697213172913
vt 0.989948391914368 0.994697213172913
vt 0.989948391914368 0.00530284643173218
vt 0 0
vt 1 0
vt 1 1
vt 0 1
vn 0 -0.963827043576683 0.266528478910286
vn 0 0 1
vn 0 0.963827043576683 0.266528478910286
vn 0.983526365736475 0 0.180764730800016
vn -0.983526376333396 0 0.180764673143011
vn 0 -8.18160992554332e-11 1
vn 0 3.27999636340337e-08 1
vn 0 -1.31706244133055e-07 0.999999999999991
g GoldBar5 GoldBar1
f 1/1/1 2/2/1 3/3/1 4/4/1
f 4/4/2 3/3/2 5/2/2 6/1/2
f 6/5/3 5/2/3 7/6/3 8/7/3
f 2/4/4 7/3/4 5/2/4 3/1/4
f 8/8/5 1/9/5 4/10/5 6/11/5
g GoldBarShadow1 GoldBar1
f 9/12/6 10/13/6 11/14/6 12/15/6
g GoldLogo GoldBar1
f 13/14/7 14/15/7 15/12/7 16/13/7
g GoldNumbers1 GoldBar1
f 17/14/8 18/15/8 19/12/8 20/13/8
