v 7.47637370825519 8.4941022788523 0.00211040014935589
v -7.5518111374364 8.4941022788523 0.00211040014935589
v -7.5518111374364 0.0165592383289241 0.00211040014935589
v 7.47638163801958 0.0165592383289241 0.00211040014935589
v -7.5518111374364 0.0165592383289241 -0.335462593135953
v 7.47638163801958 0.0165592383289241 -0.335462593135953
v 7.45223880950627 0.0364587239470348 11.1906748996522
v 7.45223880950627 0.0364587239470348 13.5882629536784
v 7.45223087974187 8.48218516459449 11.2104689132087
v 7.45223087974187 8.48218582540819 13.5882629536784
v 5.01016775088753 1.40888455515605 13.5882629536784
v 4.89311980272608 8.48218582540819 13.5882629536784
v 5.01789728873124 0.0364587755731051 13.5882629536784
v -7.59005440867087 0.0364590440286705 11.2059833098161
v -7.58908697741472 8.48218582540819 11.1902004354159
v -7.58876450032933 0.0364590440286705 13.5882629536784
v -7.58876516114303 8.48218582540819 13.5882629536784
v -4.65066718481891 8.48218582540819 13.5882629536784
v -4.77548101557755 0.0364589820773862 13.5882629536784
v -6.14550376679249 0.0364590130530283 11.1935904096946
v 7.45223880950627 0.0364587239470348 0.00210783272034838
v 6.36786335294407 0.0364587445974629 11.1937278589441
v 6.36888893580579 0.0364587445974629 0.00210783288167985
v -4.63205239330923 6.82774885790388 13.5882629536784
v -6.13795859597094 0.0364590130530283 0.0021078336883372
v -7.59005440867087 0.0364590440286705 0.0021078336883372
v -7.59005440867087 8.48218582540819 0.00210783352700573
v 7.45223087974187 8.48218582540819 0.00210783255901691
v -3.83460852282487 4.21432979821054 13.5309915519652
v -3.83460984445227 1.58517478188964 13.5309915519652
v -6.45971605523598 1.58517478188964 13.5309915519652
v -6.45971209035379 4.21433045902424 13.5309915519652
v -0.388006474927174 4.21432979821054 13.5309915519652
v -0.388011761436771 1.58517478188964 13.5309915519652
v -3.01311532896568 1.58517478188964 13.5309915519652
v -3.01311136408349 4.21433045902424 13.5309915519652
v 3.04577050068952 4.21432979821054 13.5309915519652
v 3.04576653580732 1.58517478188964 13.5309915519652
v 0.420670898042806 1.58517478188964 13.5309915519652
v 0.420665611533209 4.21433045902424 13.5309915519652
v 6.63116655397369 4.21432979821054 13.5309915519652
v 6.6311632499052 1.58517478188964 13.5309915519652
v 4.00607025539548 1.58517478188964 13.5309915519652
v 4.00607422027767 4.21433045902424 13.5309915519652
v 6.63116655397369 7.6247298283917 13.5309915519652
v 6.6311632499052 4.99557745532561 13.5309915519652
v 4.00607025539548 4.99557877695301 13.5309915519652
v 4.00607422027767 7.6247304892054 13.5309915519652
v 3.04577050068952 7.6247298283917 13.5309915519652
v 3.04576653580732 4.99557745532561 13.5309915519652
v 0.420670898042806 4.99557877695301 13.5309915519652
v 0.420665611533209 7.6247304892054 13.5309915519652
v -0.388006474927174 7.6247298283917 13.5309915519652
v -0.388011761436771 4.99557745532561 13.5309915519652
v -3.01311532896568 4.99557877695301 13.5309915519652
v -3.01311136408349 7.6247304892054 13.5309915519652
v -3.83460852282487 7.6247298283917 13.5309915519652
v -3.83460984445227 4.99557745532561 13.5309915519652
v -6.4596922659428 4.99557877695301 13.5309915519652
v -6.45971209035379 7.6247304892054 13.5309915519652
v -14.3811251215038 -0.490505436454017 11.0938907730697
v -14.3811251215038 -0.490505436454017 8.84408788221724
v -11.7103064622396 -0.490505436454017 8.84408788221724
v -11.7103064622396 -0.490505436454017 11.0938907730697
v -8.87064593785625 -0.490505436454017 8.84408788221724
v -8.87064593785625 -0.490505436454017 11.0938907730697
v -6.13795529190245 -0.490505436454017 8.84408788221724
v -6.13795529190245 -0.490505436454017 11.0938907730697
v -14.3811251215038 -0.490505436454017 6.58351785582643
v -11.7103064622396 -0.490505436454017 6.58351785582643
v -8.87064593785625 -0.490505436454017 6.58351785582643
v -6.13795529190245 -0.490505436454017 6.58351785582643
v -14.3811251215038 -0.490505436454017 4.24767469713207
v -11.7103064622396 -0.490505436454017 4.24767469713207
v -8.87064593785625 -0.490505436454017 4.24767469713207
v -6.13764338783625 -0.490505436454017 4.24767469713207
v -14.3811251215038 -0.490505436454017 1.89025577459026
v -11.7103064622396 -0.490505436454017 1.89025577459026
v -8.87064593785625 -0.490505436454017 1.89025577459026
v -6.13795529190245 -0.490505436454017 1.89025577459026
v -14.3811251215038 -0.490505436454017 -0.209527783016048
v -11.7103064622396 -0.490505436454017 -0.209527783016048
v -8.87064593785625 -0.490505436454017 -0.209527783016048
v -6.13795529190245 -0.490505436454017 -0.209527783016048
v -6.13795529190245 0.0364702365607068 -0.209527783016048
v -6.13795529190245 0.0364702365607068 1.89026054387425
v -6.13764338783625 0.0364702365607068 4.24767708177407
v -6.13795529190245 0.0364702365607068 6.58351833275483
v -6.13795529190245 0.0364702365607068 8.84408502064685
v -6.13795529190245 0.0364702365607068 11.0938907730697
v -14.3811251215038 0.0364702365607068 11.0938907730697
v -11.7103064622396 0.0364702365607068 11.0938907730697
v -11.7103064622396 0.0364702365607068 8.84408788221724
v -14.3811251215038 0.0364702365607068 8.84408788221724
v -8.87064593785625 0.0364702365607068 11.0938907730697
v -8.87064593785625 0.0364702365607068 8.84408788221724
v -6.13795529190245 0.0364702365607068 8.84408788221724
v -11.7103064622396 0.0364702365607068 6.58351785582643
v -14.3811251215038 0.0364702365607068 6.58351785582643
v -8.87064593785625 0.0364702365607068 6.58351785582643
v -6.13795529190245 0.0364702365607068 6.58351785582643
v -11.7103064622396 0.0364702365607068 4.24767469713207
v -14.3811251215038 0.0364702365607068 4.24767469713207
v -8.87064593785625 0.0364702365607068 4.24767469713207
v -6.13764338783625 0.0364702365607068 4.24767469713207
v -11.7103064622396 0.0364702365607068 1.89025577459026
v -14.3811251215038 0.0364702365607068 1.89025577459026
v -8.87064593785625 0.0364702365607068 1.89025577459026
v -6.13795529190245 0.0364702365607068 1.89025577459026
v -11.7103064622396 0.0364702365607068 -0.209527783016048
v -14.3811251215038 0.0364702365607068 -0.209527783016048
v -8.87064593785625 0.0364702365607068 -0.209527783016048
v 14.6150905786607 -0.49050539515316 11.0938897877291
v 12.1084140774842 -0.49050539515316 11.0938897877291
v 12.1084140774842 -0.49050539515316 9.01663482239157
v 14.6150905786607 -0.49050539515316 9.01663482239157
v 8.90541967830086 -0.49050539515316 11.0938897877291
v 8.90541967830086 -0.49050539515316 9.01663482239157
v 6.36888893580579 -0.49050539515316 11.0938897877291
v 6.36888893580579 -0.49050539515316 9.01663482239157
v 12.1084140774842 -0.49050539515316 6.70687344705949
v 14.6150905786607 -0.49050539515316 6.70687344705949
v 8.90541967830086 -0.49050539515316 6.70687344705949
v 6.36888893580579 -0.49050539515316 6.70687344705949
v 12.1084140774842 -0.49050539515316 4.42543208006671
v 14.6150905786607 -0.49050539515316 4.42543208006671
v 8.90541967830086 -0.49050539515316 4.42543208006671
v 6.36857835336699 -0.49050539515316 4.42543208006671
v 12.1084140774842 -0.49050539515316 1.9968497172365
v 14.6150905786607 -0.49050539515316 1.9968497172365
v 8.90541967830086 -0.49050539515316 1.9968497172365
v 6.36888893580579 -0.49050539515316 1.9968497172365
v 12.1084140774842 -0.49050539515316 -0.209527814499877
v 14.6150905786607 -0.49050539515316 -0.209527814499877
v 8.90541967830086 -0.49050539515316 -0.209527814499877
v 6.36888893580579 -0.49050539515316 -0.209527814499877
v 6.36888893580579 0.0364702365607068 -0.209527814499877
v 6.36888893580579 0.0364702365607068 1.99685448652049
v 6.36857835336699 0.0364702365607068 4.4254349416371
v 6.36888893580579 0.0364702365607068 6.70687535477308
v 6.36888893580579 0.0364702365607068 9.01663291467798
v 6.36888893580579 0.0364702365607068 11.0938897877291
v 14.6150905786607 0.0364702365607068 11.0938897877291
v 14.6150905786607 0.0364702365607068 9.01663482239157
v 12.1084140774842 0.0364702365607068 9.01663482239157
v 12.1084140774842 0.0364702365607068 11.0938897877291
v 8.90541967830086 0.0364702365607068 9.01663482239157
v 8.90541967830086 0.0364702365607068 11.0938897877291
v 6.36888893580579 0.0364702365607068 9.01663482239157
v 14.6150905786607 0.0364702365607068 6.70687344705949
v 12.1084140774842 0.0364702365607068 6.70687344705949
v 8.90541967830086 0.0364702365607068 6.70687344705949
v 6.36888893580579 0.0364702365607068 6.70687344705949
v 14.6150905786607 0.0364702365607068 4.42543208006671
v 12.1084140774842 0.0364702365607068 4.42543208006671
v 8.90541967830086 0.0364702365607068 4.42543208006671
v 6.36857835336699 0.0364702365607068 4.42543208006671
v 14.6150905786607 0.0364702365607068 1.9968497172365
v 12.1084140774842 0.0364702365607068 1.9968497172365
v 8.90541967830086 0.0364702365607068 1.9968497172365
v 6.36888893580579 0.0364702365607068 1.9968497172365
v 14.6150905786607 0.0364702365607068 -0.209527814499877
v 12.1084140774842 0.0364702365607068 -0.209527814499877
v 8.90541967830086 0.0364702365607068 -0.209527814499877
v 7.45224145276106 0.0364703191624192 13.5882629536784
v 7.45223682706517 8.48220036330958 13.5882629536784
v 7.45224145276106 0.0364703191624192 0.0021079521056359
v 7.45224145276106 0.0364658586699472 10.2017757888431
v 7.45223682706517 8.48220036330958 0.0021079521056359
v -7.58876317870193 8.48220036330958 13.5882629536784
v -7.58876317870193 0.0364703191624192 13.5882629536784
v -7.59005242622977 8.48220036330958 0.0021079521056359
v -7.59005242622977 0.0364703191624192 10.2170835381933
v -7.59005242622977 0.0364703191624192 0.0021079521056359
v -6.13795397027505 0.0364703191624192 0.0021079521056359
v 6.36786335294407 0.0364703191624192 10.204828748135
v -6.14550178435139 0.0364703191624192 10.2046906380718
v 6.36888827499209 0.0364703191624192 0.0021079521056359
v 8.70226241857753 -0.611477998477991 -1.27418791632492
v 8.70226241857753 -0.611479650512239 13.2357201665921
v -9.41626593249284 -0.611479650512239 13.2357201665921
v -9.41626593249284 -0.611477998477991 -1.27418791632492
v 7.47637436906889 8.49409038420571 0.00211038885615302
v -7.55180320767201 8.49409038420571 0.00211038885615302
v -7.55180320767201 0.0165537246646184 0.00211038885615302
v 7.47637965557849 0.0165537246646184 0.00211038885615302
vt 0 0
vt 0 1
vt 1 1
vt 1 0
vt 0.148504495620728 0.297853171825409
vt 0.468635141849518 0.297853171825409
vt 0.468635141849518 0.384434521198273
vt 0.148504495620728 0.384434521198273
vt 1.00719344615936 0.835077702999115
vt 1.00719344615936 1
vt -0.00719341635704041 0.831227004528046
vt -0.00719341635704041 1
vt -0.997290551662445 -1.00125372409821
vt -1.19508683681488 -0.830701470375061
vt -1.98740649223328 -1.00125372409821
vt -1.98740649223328 -0.830701470375061
vt -0.997290551662445 -0.830701470375061
vt 1.00719344615936 0.836204648017883
vt -0.00719341635704041 0.829735159873962
vt -0.335073977708817 1
vt -0.0506678037345409 1
vt -0.335074007511139 0.831227004528046
vt 1.33507406711578 0.829735159873962
vt 1.33507406711578 1
vt 1.0099755525589 1
vt -0.125713840126991 0.999999940395355
vt -0.307851135730743 0.829984664916992
vt -0.499725073575974 0.999999940395355
vt -0.49989652633667 0.83089679479599
vt 1.49989700317383 0.829770088195801
vt 1.49989700317383 1.49729117993047e-11
vt 1.35573518276215 0.829994738101959
vt 1.35587131977081 1.49729117993047e-11
vt -1.98740649223328 0.000299308419926092
vt -1.82179272174835 -0.185834318399429
vt -0.997290551662445 0.000299308419926092
vt -0.997290551662445 -0.185834318399429
vt -1.98740649223328 -0.185834318399429
vt 1.17626416683197 0.999999940395355
vt -0.306848019361496 1.49729117993047e-11
vt -0.49989652633667 1.49729117993047e-11
vt 1.49989700317383 0.999999940395355
vt -0.00719341635704041 2.98023223876953e-08
vt 1.00719344615936 0
vt 1.33507406711578 0
vt -0.335073977708817 2.98023223876953e-08
vt 0 0.0500000007450581
vt 0.0023223883472383 1.01284945011139
vt 0.0023223883472383 0.00386079936288297
vt 0.997717320919037 0.00386079936288297
vt 0.997717320919037 1.01284945011139
vt 2.01976585388184 0.00386079936288297
vt 2.01976585388184 1.01284945011139
vt 3.04511833190918 0.00386079936288297
vt 3.04511833190918 1.01284945011139
vt 0.0023223883472383 -1.00183641910553
vt 0.997717320919037 -1.00183641910553
vt 2.01976585388184 -1.00183641910553
vt 3.04511833190918 -1.00183641910553
vt 0.0023223883472383 -2.00840282440186
vt 0.997717320919037 -2.00840282440186
vt 2.01976585388184 -2.00840282440186
vt 3.04511833190918 -2.00840282440186
vt 0.0023223883472383 -3.01478695869446
vt 0.997717320919037 -3.01478695869446
vt 2.01976585388184 -3.01478695869446
vt 3.04511833190918 -3.01478695869446
vt 0.0023223883472383 -4.01770162582397
vt 0.997717320919037 -4.01770162582397
vt 2.01976585388184 -4.01770162582397
vt 3.04511833190918 -4.01770162582397
vt 0.5575150847435 0.313061505556107
vt 0.5575150847435 0.382876098155975
vt 0.46641218662262 0.382875949144363
vt 0.46641218662262 0.313061505556107
vt 0.5575150847435 0.461256414651871
vt 0.46641218662262 0.461256355047226
vt 0.5575150847435 0.538919389247894
vt 0.46641218662262 0.53891932964325
vt 0.5575150847435 0.614079594612122
vt 0.46641218662262 0.614079654216766
vt 0.5575150847435 0.688881993293762
vt 0.46641218662262 0.688881993293762
vt 2.06257820129395 1.01284945011139
vt 2.06257820129395 0.00386079936288297
vt 0.897821724414825 1.01284945011139
vt 0.897821724414825 0.00386079936288297
vt 2.06257820129395 -1.00183641910553
vt 0.897821724414825 -1.00183641910553
vt 2.06257820129395 -2.00840282440186
vt 0.897821724414825 -2.00840282440186
vt 2.06257820129395 -3.01478695869446
vt 0.897821724414825 -3.01478695869446
vt 2.06257820129395 -4.01770162582397
vt 0.897821724414825 -4.01770162582397
vt 0.46641218662262 0.315167903900146
vt 0.557515263557434 0.315167903900146
vt 0.557515263557434 0.388086348772049
vt 0.46641218662262 0.388086557388306
vt 0.557515263557434 0.468348652124405
vt 0.46641218662262 0.468348741531372
vt 0.557515263557434 0.543747901916504
vt 0.46641218662262 0.543747961521149
vt 0.557515263557434 0.620083153247833
vt 0.46641218662262 0.620083093643188
vt 0.557515263557434 0.688734352588654
vt 0.46641218662262 0.688734352588654
vn 3.85527130219997e-08 -5.39114921593863e-08 0.999999999999998
vn 0 -1 0
vn -0.999999999999858 -5.33383399670053e-07 -1.28527863907361e-08
vn -0.999999999999961 -3.37063710276184e-09 2.78317571655851e-07
vn -0.999999999999552 -9.38908669922547e-07 1.17651815401079e-07
vn -3.86151413067636e-08 5.38908864200492e-08 -0.999999999999998
vn -6.24327672893411e-11 -3.20406854825689e-07 -0.999999999999949
vn -6.24254536951696e-11 2.66067115006763e-08 -1
vn -6.2440087822399e-11 -6.67420408717441e-07 -0.999999999999777
vn 0.999999956734119 -0.000115052751990155 -0.000270729801690549
vn 0.999999980195272 -5.75068146365366e-05 -0.000190531942796656
vn 0.999999941268808 -5.77402117004808e-05 -0.000337829023468277
vn 0.999999990995385 7.82423714346718e-08 -0.000134198448260991
vn 0 -0.999999999999961 2.77910544355098e-07
vn -6.76486635597914e-08 -0.999999999999963 -2.65118472952953e-07
vn -3.59551144413206e-09 -0.999999999999968 2.5410173520867e-07
vn -2.39700770343631e-09 -0.999999999999997 7.67643086874157e-08
vn 2.15535509149801e-08 1 6.04169054231572e-10
vn 2.51837040110559e-08 1 0
vn 2.17319940509639e-08 1 1.62565650772278e-10
vn 2.51278446938841e-08 1 0
vn 4.17151841244017e-06 0.999999999991203 4.38871865067772e-07
vn 1.18416210170835e-08 1 0
vn 2.10124881049964e-06 0.999999999997768 2.19435932535327e-07
vn 1.88827957714466e-08 1 1.74677958729441e-12
vn -6.242396183298e-11 9.74075717863338e-08 -0.999999999999995
vn -6.24264945292552e-11 -2.27273666553174e-08 -1
vn -6.24214291367039e-11 2.17542549307831e-07 -0.999999999999976
vn -6.24243087776753e-11 8.09405946711192e-08 -0.999999999999997
vn -6.2424843072506e-11 5.55947856639704e-08 -0.999999999999999
vn -6.24253773673366e-11 3.02489766568215e-08 -1
vn 1.73481335963288e-08 1 0
vn 2.13316792936799e-08 1 1.43815770407376e-11
vn 2.13873890606571e-08 1 7.19078852036879e-12
vn 6.74381297471881e-08 0.999999999999998 0
vn 4.99277597043602e-09 1 0
vn 1.96379215111619e-08 1 -9.7988184233344e-10
vn 2.08263415402143e-08 1 -4.8994092116672e-10
vn 1.30459420688445e-06 0.999999999999066 -4.0760687625114e-07
vn 0.999999996261494 0 -8.64697216013228e-05
vn 0.999999997425251 -5.72734163295249e-05 -4.32348609119804e-05
vn -1.5084111737451e-07 -0.999999999999989 3.79889479248936e-12
vn -7.54205586872556e-08 -0.999999999999997 -2.94767037445353e-08
vn 0 -0.999999999999998 -5.89572053399933e-08
vn -0.999999999999559 -9.38908556235715e-07 0
vn -9.55390291323958e-08 7.49666355659423e-08 -0.999999999999993
vn 1 0 0
vn 0.999999997811841 4.4903277276055e-10 -6.61537537758292e-05
vn 0.999999999999813 2.67760051846038e-10 6.11043834632636e-07
vn 0.999999997771231 -1.81272722701277e-10 6.67647976091124e-05
vn 0 1 0
vn -1.82486792343894e-09 -1 0
vn -1.26474863915149e-09 -1 0
vn -3.25129567713134e-09 -1 0
vn -4.69119543211605e-09 -1 0
vn -1.35164746062344e-09 -1 0
vn -3.47468742667445e-09 -1 0
vn -1.99866523331593e-09 -1 0
vn -5.13797893120227e-09 -1 0
vn -4.96953189710325e-09 -1 0
vn -7.17038606268261e-09 -1 0
vn -5.3107771513794e-09 -1 0
vn -7.85287834759174e-09 -1 0
vn -1.33768174315208e-09 -1 0
vn -1.93010030180574e-09 -1 0
vn -1.42947620407341e-09 -1 0
vn -2.11368922364841e-09 -1 0
vn 1.15160503355582e-09 -1 0
vn 1.66161595593906e-09 -1 0
vn 1.23064258783501e-09 -1 0
vn 1.81969106449742e-09 -1 0
vn 2.77353223721022e-10 -1 0
vn 4.00184635429568e-10 -1 0
vn 2.96409702338352e-10 -1 0
vn 4.38297592664227e-10 -1 0
vn -0.999999999999994 0 1.07438893400463e-07
vn -0.999999998610551 -6.39344409858309e-11 -5.27152506088549e-05
vn -0.999999999996792 -2.07009773905311e-11 -2.53289458520655e-06
vn -0.999999998737338 4.32334653642012e-11 5.02526037072389e-05
vn -0.999999999999998 0 7.09659015714165e-08
vn -0.999999999999994 0 1.08872858145126e-07
vn -1.82486792343894e-09 1 0
vn -4.69119543211605e-09 1 0
vn -3.25129567713134e-09 1 0
vn -1.26474863915149e-09 1 0
vn -3.47468742667445e-09 1 0
vn -1.35164746062344e-09 1 0
vn -5.3107771513794e-09 1 0
vn -7.17038606268261e-09 1 0
vn -4.96953189710325e-09 1 0
vn -1.42947620407341e-09 1 0
vn -1.93010030180574e-09 1 0
vn -1.33768174315208e-09 1 0
vn 1.23064258783501e-09 1 0
vn 1.66161595593906e-09 1 0
vn 1.15160503355582e-09 1 0
vn 2.96409702338352e-10 1 0
vn 1.81969106449742e-09 1 0
vn 4.38297592664227e-10 1 0
vn -0.999999999999961 0 2.7831762849927e-07
vn -0.99999999999986 -5.30012755461865e-07 -1.28527872789146e-08
vn 0.999999995497544 0 -9.48942156102379e-05
vn 0.999999993850938 -5.73865187415406e-05 -9.48942154539226e-05
vn 0.999999988891769 -0.000114867367844502 -9.49839439635083e-05
vn 0.999999988911119 -0.000114773037294095 -9.48942149851005e-05
vn 4.04258893027531e-09 1 0
vn 6.76142951174832e-08 0.999999999999998 -2.16701305256266e-08
vn 1.35394131461906e-07 0.99999999999999 -4.33402576049953e-08
vn 1.28350893646595e-06 0.999999999999093 -4.0760690467286e-07
vn -3.73712261136916e-09 1 0
vn 4.63528699867765e-08 0.999999999999999 0
vn 4.15043314202217e-06 0.999999999991291 4.3887189348952e-07
vn 2.05965716304049e-06 0.999999999997855 2.18658740890973e-07
vn 2.08016354008123e-06 0.999999999997812 2.19435946746191e-07
vn -1.79964602248227e-11 -0.999999999999991 -1.34969994292077e-07
g ground LBElevatorBox BB_Elevator
f 1/1/1 2/2/1 3/3/1 4/4/1
f 4/5/2 3/6/2 5/7/2 6/8/2
g elevator LBElevatorBox BB_Elevator
f 7/9/3 8/10/4 9/11/5
f 9/11/5 8/10/4 10/12/4
f 8/13/6 11/14/7 10/15/6
f 10/15/6 11/14/7 12/16/8
f 8/13/6 13/17/9 11/14/7
f 14/18/10 15/19/11 16/10/12
f 16/10/12 15/19/11 17/12/13
f 10/20/14 12/21/15 9/22/16
f 9/22/16 12/21/15 15/23/17
f 17/24/2 15/23/17 18/25/15
f 12/21/15 18/25/15 15/23/17
f 19/26/18 20/27/19 16/28/20
f 20/27/19 14/29/21 16/28/20
f 7/30/22 21/31/23 22/32/24
f 21/31/23 23/33/25 22/32/24
f 17/34/6 24/35/26 16/36/6
f 19/37/27 16/36/6 24/35/26
f 18/38/28 24/35/26 17/34/6
f 13/17/29 19/37/29 11/14/30
f 19/37/29 24/35/30 11/14/30
f 18/38/31 12/16/31 24/35/30
f 12/16/31 11/14/30 24/35/30
f 22/32/32 20/27/32 13/39/32
f 19/26/32 13/39/32 20/27/32
f 25/40/33 26/41/34 20/27/35
f 26/41/34 14/29/36 20/27/35
f 13/39/37 8/42/38 22/32/39
f 8/42/38 7/30/39 22/32/39
f 27/43/40 15/19/11 26/44/41
f 15/19/11 14/18/10 26/44/41
f 15/23/42 27/45/43 9/22/43
f 9/22/43 27/45/43 28/46/44
f 21/44/4 7/9/3 28/43/4
f 7/9/3 9/11/45 28/43/4
g ElevatorLight1 Lights LBElevatorBox BB_Elevator
f 29/47/46 30/4/46 31/3/46 32/2/46
g ElevatorLight4 Lights LBElevatorBox BB_Elevator
f 33/47/46 34/4/46 35/3/46 36/2/46
g ElevatorLight6 Lights LBElevatorBox BB_Elevator
f 37/47/46 38/4/46 39/3/46 40/2/46
g ElevatoLightsAll Lights LBElevatorBox BB_Elevator
f 41/47/46 42/4/46 43/3/46 44/2/46
g ElevatorLight7 Lights LBElevatorBox BB_Elevator
f 45/47/46 46/4/46 47/3/46 48/2/46
g ElevatorLight5 Lights LBElevatorBox BB_Elevator
f 49/47/46 50/4/46 51/3/46 52/2/46
g ElevatorLight3 Lights LBElevatorBox BB_Elevator
f 53/47/46 54/4/46 55/3/46 56/2/46
g ElevatorLight2 Lights LBElevatorBox BB_Elevator
f 57/47/46 58/4/46 59/3/46 60/2/46
g left_door Doors BB_Elevator
f 61/48/2 62/49/2 63/50/2 64/51/2
f 64/51/2 63/50/2 65/52/2 66/53/2
f 66/53/2 65/52/2 67/54/2 68/55/2
f 62/49/2 69/56/2 70/57/2 63/50/2
f 63/50/2 70/57/2 71/58/2 65/52/2
f 65/52/2 71/58/2 72/59/2 67/54/2
f 69/56/2 73/60/2 74/61/2 70/57/2
f 70/57/2 74/61/2 75/62/2 71/58/2
f 71/58/2 75/62/2 76/63/2 72/59/2
f 73/60/2 77/64/2 78/65/2 74/61/2
f 74/61/2 78/65/2 79/66/2 75/62/2
f 75/62/2 79/66/2 80/67/2 76/63/2
f 77/64/2 81/68/2 82/69/2 78/65/2
f 78/65/2 82/69/2 83/70/2 79/66/2
f 79/66/2 83/70/2 84/71/2 80/67/2
f 85/72/47 86/73/48 80/74/48 84/75/47
f 86/73/48 87/76/49 76/77/49 80/74/48
f 87/76/49 88/78/50 72/79/50 76/77/49
f 88/78/50 89/80/47 67/81/47 72/79/50
f 89/80/47 90/82/47 68/83/47 67/81/47
f 91/68/51 92/69/51 93/65/51 94/64/51
f 92/69/51 95/70/51 96/66/51 93/65/51
f 95/70/51 90/71/51 97/67/51 96/66/51
f 94/64/51 93/65/51 98/61/51 99/60/51
f 93/65/51 96/66/51 100/62/51 98/61/51
f 96/66/51 97/67/51 101/63/51 100/62/51
f 99/60/51 98/61/51 102/57/51 103/56/51
f 98/61/51 100/62/51 104/58/51 102/57/51
f 100/62/51 101/63/51 105/59/51 104/58/51
f 103/56/51 102/57/51 106/50/51 107/49/51
f 102/57/51 104/58/51 108/52/51 106/50/51
f 104/58/51 105/59/51 109/54/51 108/52/51
f 107/49/51 106/50/51 110/51/51 111/48/51
f 106/50/51 108/52/51 112/53/51 110/51/51
f 108/52/51 109/54/51 85/55/51 112/53/51
g right_door Doors BB_Elevator
f 113/55/52 114/84/53 115/85/54 116/54/55
f 114/84/53 117/86/56 118/87/57 115/85/54
f 117/86/56 119/48/58 120/49/59 118/87/57
f 116/54/55 115/85/54 121/88/60 122/59/61
f 115/85/54 118/87/57 123/89/62 121/88/60
f 118/87/57 120/49/59 124/56/63 123/89/62
f 122/59/61 121/88/60 125/90/64 126/63/65
f 121/88/60 123/89/62 127/91/66 125/90/64
f 123/89/62 124/56/63 128/60/67 127/91/66
f 126/63/65 125/90/64 129/92/68 130/67/69
f 125/90/64 127/91/66 131/93/70 129/92/68
f 127/91/66 128/60/67 132/64/71 131/93/70
f 130/67/69 129/92/68 133/94/72 134/71/73
f 129/92/68 131/93/70 135/95/74 133/94/72
f 131/93/70 132/64/71 136/68/75 135/95/74
f 137/96/76 136/97/76 132/98/77 138/99/77
f 138/99/77 132/98/77 128/100/78 139/101/78
f 139/101/78 128/100/78 124/102/79 140/103/79
f 140/103/79 124/102/79 120/104/80 141/105/80
f 141/105/80 120/104/80 119/106/81 142/107/81
f 143/71/82 144/67/83 145/92/84 146/94/85
f 146/94/85 145/92/84 147/93/86 148/95/87
f 148/95/87 147/93/86 149/64/88 142/68/86
f 144/67/83 150/63/89 151/90/90 145/92/84
f 145/92/84 151/90/90 152/91/88 147/93/86
f 147/93/86 152/91/88 153/60/91 149/64/88
f 150/63/89 154/59/92 155/88/93 151/90/90
f 151/90/90 155/88/93 156/89/91 152/91/88
f 152/91/88 156/89/91 157/56/94 153/60/91
f 154/59/92 158/54/95 159/85/96 155/88/93
f 155/88/93 159/85/96 160/87/94 156/89/91
f 156/89/91 160/87/94 161/49/97 157/56/94
f 158/54/95 162/55/96 163/84/94 159/85/96
f 159/85/96 163/84/94 164/86/98 160/87/94
f 160/87/94 164/86/98 137/48/99 161/49/97
g elevator_Collision_Walls Collisions BB_Elevator
f 165//100 166//100 167//100 168//101
f 166//100 169//100 167//100
f 170//102 171//103 172//103
f 171//103 173//104 174//105 172//103
f 170//2 172//2 166//2
f 172//2 169//2 166//2
f 173//106 171//107 175//107 174//51
f 171//107 165//108 168//109 176//110 177//111 175//107
f 168//112 167//113 176//114
f 167//113 178//51 176//114
g elevator_Door_collisions Collisions BB_Elevator
f 179//115 180//115 181//115 182//115
g elevator_floor_collision Collisions BB_Elevator
f 183//1 184//1 185//1 186//1
