v 0.526711821868977 0.654356686149057 0.421947131319622
v -4.8225121067689e-08 0.872527770795847 0.421947131319622
v -4.66125918848913e-08 0.872527770795847 2.24256865934437
v 0.526711821868977 0.654356686149057 2.24256865934437
v -0.526711821868977 0.654356686149057 0.421947131319622
v -0.526711821868977 0.654356686149057 2.24256865934437
v -0.744883031669877 0.127644840813684 0.421947131319622
v -0.744883031669877 0.127644840813684 2.24256865934437
v -0.526711821868977 -0.399067020165952 0.421947131319622
v -0.526711821868977 -0.399067020165952 0.804118534398517
v -4.68342290000847e-08 -0.617238167389797 0.421947131319622
v -5.84873723089536e-08 -0.762002924921631 1.1070446705255
v 0.526711821868977 -0.399067051454479 0.421947131319622
v 0.526711821868977 -0.399067051454479 1.21310326683865
v 0.526711821868977 -0.285174996834102 1.39815187829686
v 0.744883031669877 0.127644840813684 0.421947131319622
v 0.744883031669877 0.127644840813684 2.24256865934437
v 0.526711821868977 -0.399067051454479 2.24256865934437
v 0.369891751156704 0.497536615436784 2.57838441943872
v -3.27344352848826e-08 0.650750808515574 2.57838441943872
v -1.1653147038752e-08 0.127644832991552 2.71818130973756
v -0.369891813733759 0.497536615436784 2.57838441943872
v -0.523105944235494 0.127644840813684 2.57838441943872
v -0.369891813733759 -0.242246965097943 2.57838441943872
v -3.27344352848826e-08 -0.395461142532469 2.57838441943872
v 0.369891782445232 -0.242246980742207 2.57838441943872
v 0.523105944235494 0.127644840813684 2.57838441943872
v -0.526711821868977 -0.399067020165952 2.24256865934437
v -4.68342290000847e-08 -0.617238167389797 2.24256865934437
v -0.526711821868977 -0.285174934257047 0.983170386687351
v -5.84873723089536e-08 -0.584120137172108 1.3733409521148
v -0.759343775551463 0.108968929981622 2.04186527122037
v -0.366864899012047 0.108968945625886 2.6099963450995
v -0.791613135750838 0.108968945625886 2.9034226585248
v -1.18409204357878 0.108968929981622 2.33529183495389
v -0.929806739326537 0.108968929981622 2.15962527618008
v 0.21035705651511 0.108968929981622 2.67145151854187
v 0.716387943958673 0.108968937803754 2.0607350066578
v 1.2218168714228 0.108968937803754 2.47952618936854
v 0.715785952690705 0.108968929981622 3.09024270125261
v 0.413199265797933 0.108968929981622 2.83952372593517
v 0.513674330523634 -0.814645997495476 1.22636947731959
v 0.342607185283671 -0.814645997495476 1.73595133103098
v -0.063142911812139 -0.814645997495476 1.59974073174744
v 0.107924182583967 -0.814645997495476 1.09015887803606
v -0.421572857954371 -0.814645997495476 2.05424488998774
v -0.812017448305145 -0.814645997495476 1.18889721046908
v -0.122991923897911 -0.814645997495476 0.878008957610043
v 0.26745273685205 -0.814645997495476 1.74335669970575
v -0.89467798318137 -0.864478484226337 1.12108533463766
v 0.00168922066375652 -0.864478484226337 1.12108533463766
v 0.00168922066375652 -0.864478484226337 1.32146419815504
v -0.894678170912535 -0.864478484226337 1.32146419815504
v 0.123849972652325 -0.864478484226337 1.12108533463766
v 1.02021712956466 -0.864478484226337 1.12108533463766
v 1.02021725471877 -0.864478484226337 1.32146419815504
v 0.123849980474457 -0.864478484226337 1.32146419815504
v 0.0854009796628176 -0.854704198561941 1.53965612096111
v 0.0854009796628176 -0.854704198561941 1.40867295853422
v 0.231982309987226 -0.854704198561941 1.40867295853422
v 0.231982309987226 -0.854704198561941 1.53965612096111
v -0.253253252174598 -0.854704198561941 1.5790277265814
v -0.253253252174598 -0.854704198561941 1.36930135291392
v -0.0068017171593163 -0.854704198561941 1.36930135291392
v -0.0068017171593163 -0.854704198561941 1.5790277265814
v -0.590890974510373 -0.805583588407421 0.901299449089631
v -0.372464293882916 -0.805583588407421 0.228054191809627
v 0.840982176813241 -0.805583588407421 0.621742964416664
v 0.622555402320201 -0.805583588407421 1.29498822169667
v -0.132405945635217 -0.911707890628204 1.21511937439285
v -0.132405945635217 -0.911707953205259 0.98876953125
v 0.235674027695743 -0.911707953205259 0.98876953125
v 0.235674027695743 -0.911707890628204 1.21511937439285
vt 0.0465690903365612 0.432289332151413
vt 0.050824910402298 0.432289332151413
vt 0.050824910402298 0.451169490814209
vt 0.0465690903365612 0.451169490814209
vt 0.0550806224346161 0.432289332151413
vt 0.0550806224346161 0.451169490814209
vt 0.0593364238739014 0.432289332151413
vt 0.0593364238739014 0.451169490814209
vt 0.0635921657085419 0.432289332151413
vt 0.0635921657085419 0.438866555690765
vt 0.0678479671478271 0.432289332151413
vt 0.0678479671478271 0.438866555690765
vt 0.07210373878479 0.432289332151413
vt 0.07210373878479 0.438866555690765
vt 0.07210373878479 0.441187620162964
vt 0.0763595700263977 0.432289332151413
vt 0.0763595700263977 0.451169490814209
vt 0.07210373878479 0.451169490814209
vt 0.0806152820587158 0.432289332151413
vt 0.0806152820587158 0.451169490814209
vt 0.0465690903365612 0.458877205848694
vt 0.050824910402298 0.458877205848694
vt 0.0635921657085419 0.466335475444794
vt 0.0550806224346161 0.458877205848694
vt 0.0593364238739014 0.458877205848694
vt 0.0635921657085419 0.458877205848694
vt 0.0678479671478271 0.458877205848694
vt 0.07210373878479 0.458877205848694
vt 0.0763595700263977 0.458877205848694
vt 0.0806152820587158 0.458877205848694
vt 0.0635921657085419 0.451169490814209
vt 0.0678479671478271 0.451169490814209
vt 0.0635921657085419 0.441129326820374
vt 0.0678479671478271 0.44167697429657
vt 0.755714535713196 0.892158985137939
vt 0.755714595317841 0.61601322889328
vt 1 0.61601322889328
vt 1 0.892159044742584
vt 0.853752851486206 0.892159044742584
vt 0.615756154060364 0.61601322889328
vt 0.615756154060364 0.26993653178215
vt 1 0.26993653178215
vt 1 0.141264259815216
vt 0.615756154060364 0.141264259815216
vt 0.615756154060364 0.27148050069809
vt 1 0.27148050069809
vt 0.853752851486206 1
vt 0.974436044692993 0.892159044742584
vt 0.974436044692993 1
vt 0.980477809906006 0.892159044742584
vt 0.980477809906006 1
vt 0.182840570807457 1
vt 0.182840526103973 0.669405162334442
vt 0.750133156776428 0.669405162334442
vt 0.750133156776428 1
vt 0.980131208896637 0.892159104347229
vt 0.980131208896637 1
vn 0.707106751384225 0.707106810988869 0
vn -4.83867026446205e-08 0.999999999999999 0
vn 1.66493249496275e-08 0.956730395234111 0.29097585954024
vn 0.676510473928878 0.676510593138171 0.290975937211938
vn -0.707106781186548 0.707106781186548 0
vn -0.676510490708497 0.676510609917783 0.290975859187697
vn -0.981844044636494 -0.185172461679199 0.0411513237638401
vn -0.957395463270978 -0.0130085063084026 0.288486924611451
vn -0.734552091699609 -0.675533479285469 -0.0639354592084765
vn -0.804040972072789 -0.581476381377898 0.124110165288384
vn 0.0197948122460863 -0.993029346978684 -0.116193293469244
vn -0.254528474768594 -0.963488178291159 0.0831010579063649
vn 0.747539250664465 -0.662683869763868 -0.0451127196120409
vn 0.774431984368997 -0.615006024158677 0.148400444186786
vn 0.75592116210572 -0.638213814223622 0.145829777531457
vn 0.984823565938156 -0.171104345569799 0.029083447181966
vn 0.957490789646534 -0.0153054304124536 0.288057514295231
vn 0.683355557894561 -0.680930781382838 0.26335992948809
vn 0.407684916986201 0.407685483230319 0.817059089188301
vn 4.10914978049057e-08 0.576554138910139 0.817058948243997
vn -7.75602781999395e-09 -6.20482225599516e-08 0.999999999999998
vn -0.407685031201017 0.407685388828903 0.817059079302135
vn -0.576553827640238 -1.56147707966252e-07 0.817059167890163
vn -0.407684966684134 -0.407685473323596 0.817059069333835
vn 3.28731963515949e-08 -0.57655407104047 0.817058996135933
vn 0.407684956695251 -0.407685403730092 0.817059109042806
vn 0.576553759770563 4.10915069298891e-08 0.817059215782079
vn -0.679816886698815 -0.682485684609805 0.268444204373676
vn 0.00565516005748761 -0.96607182423577 0.258211637194173
vn -0.789167422492708 -0.599124712834327 0.13514569082069
vn -0.254958457011905 -0.960973742988837 0.107357582331822
vn 0.418065671947194 -0.762889149700496 0.493174653858646
vn -2.87964829759346e-09 -1 1.86404331969925e-08
vn 3.94366672651358e-09 -1 -7.59425677898662e-09
vn -3.56953471225552e-08 -0.999999999999999 0
vn 0 -1 0
vn 0 -0.999999999999962 2.76461634030046e-07
g head mole_norm
f 1/1/1 2/2/2 3/3/3 4/4/4
f 3/3/3 2/2/2 5/5/5 6/6/6
f 6/6/6 5/5/5 7/7/7 8/8/8
f 7/7/7 9/9/9 10/10/10
f 9/9/9 11/11/11 12/12/12 10/10/10
f 11/11/11 13/13/13 14/14/14 12/12/12
f 15/15/15 16/16/16 17/17/17 18/18/18
f 16/16/16 1/19/1 4/20/4 17/17/17
f 19/21/19 20/22/20 21/23/21
f 20/22/20 22/24/22 21/23/21
f 22/24/22 23/25/23 21/23/21
f 23/25/23 24/26/24 21/23/21
f 24/26/24 25/27/25 21/23/21
f 25/27/25 26/28/26 21/23/21
f 26/28/26 27/29/27 21/23/21
f 27/29/27 19/30/19 21/23/21
f 4/4/4 3/3/3 20/22/20 19/21/19
f 3/3/3 6/6/6 22/24/22 20/22/20
f 6/6/6 8/8/8 23/25/23 22/24/22
f 8/8/8 28/31/28 24/26/24 23/25/23
f 28/31/28 29/32/29 25/27/25 24/26/24
f 29/32/29 18/18/18 26/28/26 25/27/25
f 18/18/18 17/17/17 27/29/27 26/28/26
f 17/17/17 4/20/4 19/30/19 27/29/27
f 30/33/30 31/34/31 29/32/29 28/31/28
f 31/34/31 15/15/15 18/18/18 29/32/29
f 13/13/13 16/16/16 14/14/14
f 8/8/8 7/7/7 30/33/30 28/31/28
f 30/33/30 7/7/7 10/10/10
f 10/10/10 12/12/12 31/34/31 30/33/30
f 12/12/32 14/14/14 15/15/15 31/34/32
f 14/14/14 16/16/16 15/15/15
g ears mole_norm
f 32/35/33 33/36/33 34/37/33 35/38/33 36/39/33
f 37/35/34 38/36/34 39/37/34 40/38/34 41/39/34
g eyeball mole_norm
f 42/40/35 43/41/35 44/42/35 45/37/35
f 46/40/36 47/41/36 48/42/36 49/37/36
g whiskers mole_norm
f 50/43/36 51/44/36 52/45/36 53/46/36
f 54/44/36 55/43/36 56/46/36 57/45/36
g pupils mole_norm
f 58/47/36 59/39/36 60/48/36 61/49/36
f 62/47/36 63/39/36 64/50/36 65/51/36
g mouth mole_norm
f 66/52/36 67/53/36 68/54/36 69/55/36
g nose mole_norm
f 70/47/37 71/39/37 72/56/37 73/57/37
