v -0.730606382934578 -0.730606382934578 0.00455954162770366
v 0.730606382934578 -0.730606382934578 0.00455954162770366
v 0.730606382934578 0.730606382934578 0.00455954162770398
v -0.730606382934578 0.730606382934578 0.00455954162770398
v -0.896411809709955 0 0.64382343380648
v 1.02961613955278 0 0.64382343380648
v 1.02961613955278 0 2.56985138306921
v -0.896411809709955 0 2.56985138306921
v 0.314659631077545 0.132556200038394 0.000810402606511554
v 0.0182709851927686 0.334162746302575 0.000810402606511554
v 0.00579078859483442 0.48408185346187 0.54387666775952
v 0.437736812839981 0.190267942359642 0.54387666775952
v -0.265057286360437 0.114580133503908 0.000810402606511554
v -0.407121467968241 0.164070226139731 0.54387666775952
v -0.143774963293299 -0.222735763406926 0.000810402606511554
v -0.230369198585718 -0.327521651669446 0.54387666775952
v 0.214509755317685 -0.211625991158112 0.000810402606511554
v 0.291781905782222 -0.311330552417339 0.54387666775952
v 0.517189710746278 0.218835254731382 0.731452971200188
v 0.00317396894138603 0.568473781123435 0.731452971200188
v -0.488191550065296 0.18766008679915 0.731452971200188
v -0.277856465569643 -0.397334316724554 0.731452971200188
v 0.343503300253015 -0.378066895322961 0.731452971200188
v 0.00395447869727769 0.543304277276347 0.5698965240109
v 0.493493223746669 0.210315239848486 0.5698965240109
v -0.464012794864605 0.180624510254587 0.5698965240109
v -0.263693631447032 -0.376513047085543 0.5698965240109
v 0.328077641807432 -0.358163116053423 0.5698965240109
v 0.476317164023934 0.476317164023934 -0.00216222356559935
v 0 0.673614173500697 -0.00216222356559935
v 0 0.673614173500697 1.72984517032471
v 0.476317164023934 0.476317164023934 1.72984517032471
v -0.476317164023934 0.476317164023934 -0.00216222356559935
v -0.476317164023934 0.476317164023934 1.72984517032471
v -0.673614173500697 0 -0.00216222356559935
v -0.673614173500697 0 1.72984517032471
v -0.476317164023934 -0.476317164023934 -0.00216222356559935
v -0.476317164023934 -0.476317164023934 1.72984517032471
v 0 -0.673614215653494 -0.00216222356559935
v 0 -0.673614215653494 1.72984517032471
v 0.476317206176731 -0.476317206176731 -0.00216222356559935
v 0.476317206176731 -0.476317206176731 1.72984517032471
v 0.673614257806291 0 -0.00216222356559935
v 0.673614257806291 0 1.72984517032471
v 0 0 -0.00216222356559935
v 0 0 1.72984517032471
vt 0 0
vt 1 0
vt 1 1
vt 0 1
vt 0.00830303132534027 0.0062272734940052
vt 0.991696953773499 0.0062272734940052
vt 0.991696953773499 0.993772745132446
vt 0.00830303132534027 0.993772745132446
vt 0.797355532646179 0.0128352949395776
vt 0.987457931041718 0.0128352949395776
vt 0.987457931041718 0.722480952739716
vt 0.797355532646179 0.722480952739716
vt 0.0151536474004388 0.0128352949395776
vt 0.19147826731205 0.0128352949395776
vt 0.191478297114372 0.722480952739716
vt 0.0151536203920841 0.722480952739716
vt 0.37955567240715 0.0128352949395776
vt 0.379555612802505 0.722480952739716
vt 0.588455557823181 0.0128352949395776
vt 0.588455557823181 0.722480952739716
vt 0.995248377323151 0.702131748199463
vt 0.483983844518661 1.06414842605591
vt -0.0047517167404294 0.66985297203064
vt 0.204457610845566 0.0641483068466187
vt 0.822491586208344 0.0840978026390076
vt 0.987457990646362 0.771725296974182
vt 0.797355532646179 0.771725296974182
vt 0.19147826731205 0.771725296974182
vt 0.0151537079364061 0.771725296974182
vt 0.379555612802505 0.771725296974182
vt 0.588455557823181 0.771725296974182
vt 0.987457931041718 0.987164735794067
vt 0.797355473041534 0.987164735794067
vt 0.191478282213211 0.987164735794067
vt 0.0151536781340837 0.987164735794067
vt 0.379555642604828 0.987164735794067
vt 0.588455557823181 0.987164735794067
vn 0 0 1
vn 0 -1 0
vn 0.549825780739137 0.808317710885614 -0.210509118812558
vn 0.450182498691495 0.661828831096471 -0.599431660993445
vn -0.596691703997149 0.769914000524535 -0.226255258894207
vn -0.487344300076791 0.628822274185138 -0.60586968951359
vn -0.919935452788038 -0.330763782691043 -0.210509103754634
vn -0.753218528740346 -0.270820391850911 -0.599431533471461
vn 0.0304603791121391 -0.982325643897785 -0.184684852235227
vn 0.0250505635593658 -0.807863872529824 -0.588836507637285
vn 0.943660001661146 -0.274585658695076 -0.184684913579524
vn 0.776065348005798 -0.225819085618846 -0.588836408686579
vn 0 9.64370556744138e-08 0.999999999999995
vn 0.211704490793115 0.631001970886664 -0.7463361985829
vn 0.509115274124868 0.428700250592401 -0.746336206273535
vn -0.534698246871175 0.396333361617394 -0.746336151651485
vn -0.542166296311523 -0.386054477538293 -0.746336149142249
vn 0.199621158297331 -0.634928125414331 -0.746336163345898
vn 0.558009502198237 0.820349331151754 -0.125109433438669
vn -0.607762882675276 0.784201438152799 -0.125109483418806
vn -0.933628516975133 -0.335686481318877 -0.125109466270799
vn 0.0307501268367753 -0.991666295299769 -0.125109505897649
vn 0.95263280736654 -0.277197171388505 -0.125109801786897
vn 0.707106727773684 0.707106834599407 0
vn 0 1 0
vn -0.707106781186548 0.707106781186548 0
vn -1 0 0
vn -0.707106807892979 -0.707106754480116 0
vn -5.34128608905968e-08 -0.999999999999999 0
vn 0.707106754480117 -0.707106807892977 0
vn 0.999999999999999 5.34128609395162e-08 0
vn 0 0 -1
vn 0 1.1944657199823e-07 -0.999999999999993
vn 0 -1.19446590267814e-07 -0.999999999999993
vn 0 1.1944657199823e-07 0.999999999999993
vn 0 -1.19446590267814e-07 0.999999999999993
g shadow1 coralVase coralVaseAll
f 1/1/1 2/2/1 3/3/1 4/4/1
g coral coralVase coralVaseAll
f 5/5/2 6/6/2 7/7/2 8/8/2
g pot coralVase coralVaseAll
f 9/9/3 10/10/3 11/11/4 12/12/4
f 10/13/5 13/14/5 14/15/6 11/16/6
f 13/14/7 15/17/7 16/18/8 14/15/8
f 15/17/9 17/19/9 18/20/10 16/18/10
f 17/19/11 9/9/11 12/12/12 18/20/12
f 19/21/13 20/22/13 21/23/13 22/24/13 23/25/13
f 12/12/4 11/11/4 24/26/14 25/27/15
f 11/16/6 14/15/6 26/28/16 24/29/14
f 14/15/8 16/18/8 27/30/17 26/28/16
f 16/18/10 18/20/10 28/31/18 27/30/17
f 18/20/12 12/12/12 25/27/15 28/31/18
f 25/27/15 24/26/14 20/32/19 19/33/19
f 24/29/20 26/28/16 21/34/20 20/35/20
f 26/28/21 27/30/17 22/36/21 21/34/21
f 27/30/22 28/31/18 23/37/22 22/36/22
f 28/31/23 25/27/23 19/33/23 23/37/23
g collision VaseShortColl coralVaseAll
f 29//24 30//25 31//25 32//24
f 30//25 33//26 34//26 31//25
f 33//26 35//27 36//27 34//26
f 35//27 37//28 38//28 36//27
f 37//28 39//29 40//29 38//28
f 39//29 41//30 42//30 40//29
f 41//30 43//31 44//31 42//30
f 43//31 29//24 32//24 44//31
f 30//32 29//33 45//32
f 33//33 30//32 45//32
f 35//32 33//33 45//32
f 37//34 35//32 45//32
f 39//32 37//34 45//32
f 41//34 39//32 45//32
f 43//32 41//34 45//32
f 29//33 43//32 45//32
f 32//35 31//1 46//1
f 31//1 34//35 46//1
f 34//35 36//1 46//1
f 36//1 38//36 46//1
f 38//36 40//1 46//1
f 40//1 42//36 46//1
f 42//36 44//1 46//1
f 44//1 32//35 46//1
