v -1.23698842807079 0.859427014048018 1.28310746721082
v -1.23698842807079 -0.859427389510347 1.28310746721082
v -0.895465828302338 0.622146148381271 1.83888170037057
v -0.895465828302338 -0.622146273535381 1.83888170037057
v 0.895465765725283 0.622146210958326 1.83888170037057
v 0.895465828302338 -0.622146273535381 1.83888170037057
v 1.23698842807079 -0.859427389510347 1.28310746721082
v 1.23698842807079 0.859427076625073 1.28310746721082
v 0.88087317198906 0.564218881562 1.65417388355325
v 0.88087317198906 -0.56421913187022 1.65417388355325
v -0.88087317198906 0.564218881562 1.65417388355325
v -0.88087317198906 -0.56421913187022 1.65417388355325
v 1.07205658759971 0.744836787226319 1.28310746721082
v 1.07205658759971 -0.744837162688648 1.28310746721082
v -1.07205658759971 -0.744837225265703 1.28310746721082
v -1.07205658759971 0.744836787226319 1.28310746721082
v -1.23698842807079 -0.859427326933293 1.28310721690261
v -1.23698842807079 0.859427326933293 1.28310721690261
v -0.987317743576731 -0.685962604412569 0.0123188378695115
v -0.987317743576731 0.685962604412569 0.0123188378695115
v -1.01982833832268 0.70855010525761 1.20284726300577
v -1.01982833832268 -0.70855010525761 1.20284726300577
v 1.01982833832268 0.70855010525761 1.20284726300577
v 1.01982833832268 -0.70855010525761 1.20284726300577
v 1.23698842807079 0.859427326933293 1.28310721690261
v 1.23698842807079 -0.859427326933293 1.28310721690261
v 0.987317743576731 0.685962604412569 0.0123188378695115
v 0.987317743576731 -0.685962604412569 0.0123188378695115
v -1.09267322410123 0.759160800242987 1.28310721690261
v -1.09267322410123 -0.759160800242987 1.28310721690261
v 1.09267322410123 -0.759160800242987 1.28310721690261
v 1.09267322410123 0.759160800242987 1.28310721690261
v -0.196259666302698 -0.873473247518064 1.29449211080556
v -0.196259603725644 -0.804370970237912 0.780955637533834
v 0.196259697591226 -0.804370907660857 0.780955637533834
v 0.196259666302698 -0.873473247518064 1.29449211080556
v -1.22085118231185 0.261417774390674 1.18867143245507
v -1.22085130746596 0.261417852611992 0.872029594861929
v -1.22085130746596 -0.226194652046744 0.872029594861929
v -1.22085130746596 -0.226194683335272 1.18867143245507
v 1.2193752398954 0.261417836967729 1.18867143245507
v 1.2193752398954 -0.226194620758217 1.18867143245507
v 1.21937536504951 -0.226194652046744 0.872029594861929
v 1.21937549020362 0.261417790034937 0.872029594861929
v -1.23698842807079 0.859427264356238 1.28310721690261
v -0.987317806153786 -0.685962604412569 0.012318836891745
v -0.987317743576731 0.685962541835515 0.012318836891745
v 1.23698842807079 -0.859427264356238 1.28310721690261
v 0.987317806153786 0.685962604412569 0.012318836891745
v 0.987317743576731 -0.685962541835515 0.012318836891745
vt 0.795620083808899 0.393696546554565
vt 0.795620083808899 0.92235654592514
vt 0.980312585830688 0.466676086187363
vt 0.980312645435333 0.849377274513245
vt 0.479807317256927 0.650501608848572
vt 0.479807317256927 0.39987912774086
vt 0.0859094262123108 0.650501489639282
vt 0.0859094262123108 0.39987912774086
vt 0.78844428062439 0.922356486320496
vt 0.788443922996521 0.393696665763855
vt 0.9767245054245 0.8493772149086
vt 0.97672426700592 0.466676145792007
vt 0.969579875469208 0.971123695373535
vt 0.70101410150528 0.971123993396759
vt 0.969581007957458 0.555842518806458
vt 0.701014637947083 0.555842757225037
vt 0.01362369582057 0.376119345426559
vt 0.554995596408844 0.376119345426559
vt 0.0888533517718315 0.981368184089661
vt 0.479765951633453 0.981368184089661
vt 0.556840419769287 0.411035627126694
vt 0.0153667740523815 0.411035627126694
vt 0.482091993093491 0.577731966972351
vt 0.0901151821017265 0.577731966972351
vt 0.00603075511753559 0.0340947806835175
vt 0.552858948707581 0.0340947806835175
vt 0.054214671254158 0.0844030380249023
vt 0.504674911499023 0.0844028890132904
vt 0.553972065448761 0.0340947806835175
vt 0.00714163668453693 0.0340942740440369
vt 0.505787968635559 0.0844030380249023
vt 0.0553254038095474 0.0844027400016785
vt 0.555512726306915 0.0340942740440369
vt 0.00868452526628971 0.0340942740440369
vt 0.507328689098358 0.0844027400016785
vt 0.056868739426136 0.0844027400016785
vt 0.00714385323226452 0.0340942740440369
vt 0.553973376750946 0.0340947806835175
vt 0.0553277730941772 0.0844027400016785
vt 0.505789816379547 0.0844030380249023
vt 0.80644303560257 0.92585289478302
vt 0.806443095207214 0.393891721963882
vt 0.953150510787964 0.861020445823669
vt 0.953150689601898 0.455970346927643
vt 0.552692294120789 0.118830442428589
vt 0.0207309443503618 0.118830442428589
vt 0.490613520145416 0.263295292854309
vt 0.0855634957551956 0.263295292854309
vt 0.784779012203217 0.936088502407074
vt 0.784779071807861 0.404127180576324
vt 0.929243922233582 0.871255934238434
vt 0.929243922233582 0.46620586514473
vt 0.982577323913574 0.976321876049042
vt 0.612478613853455 0.976321876049042
vt 0.950296521186829 0.312017023563385
vt 0.644760072231293 0.312017023563385
vt 0.000123427395010367 0.988959491252899
vt 0.000123798847198486 0.0110405739396811
vt 0.981649160385132 0.988959550857544
vt 0.981649518013 0.0110403895378113
vt 0.963120460510254 0.0194946825504303
vt 0.662944376468658 0.0194946061819792
vt 0.963120400905609 0.229628428816795
vt 0.662944793701172 0.229628190398216
vt 0.555980265140533 0.977329194545746
vt 0.0146936681121588 0.977329194545746
vt 0.505337119102478 0.354192495346069
vt 0.0653367638587952 0.354192495346069
vt 0.553006827831268 0.0552030801773071
vt 0.0557588934898376 0.0552030801773071
vt 0.524000585079193 0.0261972546577454
vt 0.0847649872303009 0.0261971950531006
vt 0.553763926029205 0.0552030801773071
vt 0.0565154850482941 0.0552027821540833
vt 0.524757266044617 0.0261971354484558
vt 0.0855215787887573 0.0261967778205872
vt 0.0557588636875153 0.0552027821540833
vt 0.553006887435913 0.0552029013633728
vt 0.0847649574279785 0.0261967778205872
vt 0.524000585079193 0.0261968374252319
vt 0.553763329982758 0.0552030801773071
vt 0.524757206439972 0.0261971354484558
vt 0.605890333652496 0.944740414619446
vt 0.978335559368134 0.944740414619446
vt 0.618305206298828 0.82716178894043
vt 0.965920567512512 0.82716178894043
vt 0.618931174278259 0.366594552993774
vt 0.618931770324707 0.911859631538391
vt 0.73563539981842 0.384770125150681
vt 0.735635995864868 0.893684148788452
vt 0.618931174278259 0.366594612598419
vt 0 1
vt 0 0
vt 1 0
vt 1 1
vn -0.851995070173874 0 0.523549806990142
vn -0.851994963824434 0 0.523549980057111
vn -0.639757435761713 0 0.768576881897704
vn -0.319878717880857 0 0.947458498218734
vn 0.319878691274385 1.60871071152627e-08 0.947458507201548
vn 0.639757409155242 1.60871073032823e-08 0.768576904044724
vn 0.851994963824434 0 0.523549980057111
vn 0.851994981410049 2.14239561616012e-08 0.523549951439296
vn 0 0 -1
vn 0 -0.919688154852952 0.392649586556733
vn 0 -0.919688081091044 0.392649759326392
vn 0 -0.919688007329106 0.392649932096032
vn -4.3943685501976e-08 0.919688333090251 0.392649169078039
vn -5.23235910225765e-08 0.91968819475602 0.39264949309328
vn -6.07034967893083e-08 0.919688070328967 0.392649784533975
vn 0 4.4268853116587e-07 -0.999999999999902
vn 0 2.70367024768338e-07 -0.999999999999964
vn 0 7.1305555593408e-07 -0.999999999999746
vn 0 -4.42689355395444e-07 -0.999999999999902
vn 0 -7.13056351741944e-07 -0.999999999999746
vn 0 -2.70367024768338e-07 -0.999999999999964
vn -0.888947173512875 -0 -0.458009740839068
vn -0.888947209545073 -0 -0.458009670904477
vn -0.888947258450232 -0 -0.458009575984844
vn -7.42468664489378e-08 0.89914055356181 -0.437659987822232
vn -3.71234318245423e-08 0.899140460050533 -0.437660179934289
vn 0 0.899140367160593 -0.437660370769748
vn 0.88894710033988 0 -0.458009882859879
vn 0.888947295590996 0 -0.458009503898614
vn 0.888947490841959 0 -0.45800912493725
vn 0 -0.899140693362606 -0.437659700611573
vn 0 -0.899140611579129 -0.437659868629864
vn 0 -0.899140518378576 -0.437660060103622
vn -0.98124130082319 -0 -0.192783582181717
vn -0.98124128894437 -0 -0.192783642643229
vn -0.981241283306746 -0 -0.19278367133793
vn 0.442742127307425 -0.252875884340384 0.860251821170036
vn 0.177572099233224 0.405687183199538 0.896596932273098
vn -0.177572099233224 -0.405687183199538 0.896596932273098
vn -0.442742127307425 0.252875884340384 0.860251821170036
vn 0.98124130082319 0 -0.192783582181717
vn 0.98124128894437 0 -0.192783642643229
vn 0.981241280487934 0 -0.19278368568528
vn 0 -0.990811850650423 -0.13524746434105
vn 0 -0.990811851740704 -0.135247456353743
vn 0 -0.99081185264725 -0.13524744971246
vn 0 0.990811850650423 -0.13524746434105
vn 0 0.990811851740704 -0.135247456353743
vn 0 0.99081185264725 -0.13524744971246
vn 0 8.8283044874515e-08 0.999999999999996
vn 0 -8.8283044874515e-08 0.999999999999996
vn 0.145593771127019 -0.332628420539994 0.931751462385803
vn 0.286614147541911 0.163702077470934 0.943956545748015
vn -0.145593771127019 0.332628420539994 0.931751462385803
vn -0.286614147541911 -0.163702077470934 0.943956545748015
vn 1.61506921552715e-07 -0.991067701362833 -0.133359706491
vn -0.999999999999992 1.28333610405206e-07 0
vn 0.999999999999675 -1.2833362461602e-07 7.96163135418933e-07
vn -0.981241323373673 -0 -0.192783467402896
vn -0.98124128894437 1.84880988760566e-08 -0.192783642643229
vn -0.981241252903371 3.69761986400641e-08 -0.192783826086686
vn 0.981241323373673 0 -0.192783467402896
vn 0.981241286125558 -1.84880988229459e-08 -0.192783656990579
vn 0.981241250084556 -3.69761985338424e-08 -0.192783840434036
vn 4.14097328975616e-08 -0.990811850650422 -0.13524746434105
vn 2.07048670023705e-08 -0.990811851740704 -0.135247456353743
vn -4.14097328975616e-08 0.990811850650422 -0.13524746434105
vn -2.07048670023705e-08 0.990811851740704 -0.135247456353743
g treasure_top top treasure_chest
f 1/1/1 2/2/2 3/3/3
f 2/2/2 4/4/4 3/3/3
f 3/5/3 4/6/4 5/7/5
f 4/6/4 6/8/6 5/7/5
f 7/9/7 8/10/8 6/11/6
f 5/12/5 6/11/6 8/10/8
f 9/13/9 10/14/9 11/15/9
f 10/14/9 12/16/9 11/15/9
f 2/17/10 7/18/11 4/19/11
f 7/18/11 6/20/12 4/19/11
f 8/21/13 1/22/14 5/23/14
f 1/22/14 3/24/15 5/23/14
f 8/25/16 7/26/17 13/27/18
f 7/26/17 14/28/19 13/27/18
f 7/29/17 2/30/19 14/31/19
f 2/30/19 15/32/20 14/31/19
f 2/33/19 1/34/21 15/35/20
f 1/34/21 16/36/16 15/35/20
f 1/37/21 8/38/16 16/39/16
f 8/38/16 13/40/18 16/39/16
f 13/41/22 14/42/23 9/43/23
f 14/42/23 10/44/24 9/43/23
f 14/45/25 15/46/26 10/47/26
f 15/46/26 12/48/27 10/47/26
f 15/42/28 16/41/29 12/44/29
f 16/41/29 11/43/30 12/44/29
f 16/49/31 13/50/32 11/51/32
f 13/50/32 9/52/33 11/51/32
g collision1 top treasure_chest
f 1//1 2//2 3//3
f 2//2 4//4 3//3
f 3//3 4//4 5//5
f 4//4 6//6 5//5
f 7//7 8//8 6//6
f 5//5 6//6 8//8
f 2//10 7//11 4//11
f 7//11 6//12 4//11
f 8//13 1//14 5//14
f 1//14 3//15 5//14
g treasure_bottom treasure_chest
f 17/53/34 18/54/35 19/55/35
f 20/56/36 19/55/35 18/54/35
f 21/57/37 22/58/38 23/59/39
f 22/58/38 24/60/40 23/59/39
f 25/54/41 26/53/42 27/56/42
f 26/53/42 28/55/43 27/56/42
f 27/61/9 28/62/9 20/63/9
f 28/62/9 19/64/9 20/63/9
f 26/65/44 17/66/45 28/67/45
f 19/68/46 28/67/45 17/66/45
f 18/66/47 25/65/48 20/68/48
f 27/67/49 20/68/48 25/65/48
f 18/69/50 17/70/51 29/71/52
f 17/70/51 30/72/53 29/71/52
f 17/73/51 26/74/51 30/75/53
f 26/74/51 31/76/54 30/75/53
f 26/77/51 25/78/50 31/79/54
f 25/78/50 32/80/55 31/79/54
f 25/74/50 18/81/50 32/76/55
f 18/81/50 29/82/52 32/76/55
f 29/83/52 30/84/53 21/85/37
f 30/84/53 22/86/38 21/85/37
f 30/87/53 31/88/54 22/89/38
f 31/88/54 24/90/40 22/89/38
f 31/84/54 32/83/55 24/86/40
f 32/83/55 23/85/39 24/86/40
f 32/88/55 29/91/52 23/90/39
f 29/91/52 21/89/37 23/90/39
g treasure_lock treasure_chest
f 33/92/56 34/93/56 35/94/56 36/95/56
g handleL treasure_chest
f 37/92/57 38/93/57 39/94/57 40/95/57
g handleR treasure_chest
f 41/92/58 42/95/58 43/94/58 44/93/58
g collision treasure_chest
f 17//59 45//60 46//60
f 47//61 46//60 45//60
f 25//62 48//63 49//63
f 48//63 50//64 49//63
f 48//65 17//66 50//66
f 46//46 50//66 17//66
f 45//67 25//68 47//68
f 49//49 47//68 25//68
