v -21.4121474289432 -12.8472879214023 -2.8526709708659e-15
v -14.5602598229105 -12.8472879214023 -2.8526709708659e-15
v -14.5602611628196 14.5602598229105 3.23302713998397e-15
v -21.4121460890342 14.5602598229105 3.23302713998397e-15
v -21.4121474289432 -21.4121474289432 -4.75445181645622e-15
v -14.5602598229105 -21.4121474289432 -4.75445181645622e-15
v 12.8472892613114 -21.4121460890342 -4.75445151893664e-15
v 21.4121474289432 -21.4121474289432 -4.75445181645622e-15
v 21.4121474289432 -12.8472879214023 -2.8526709708659e-15
v 12.8472892613114 -12.8472879214023 -2.8526709708659e-15
v 12.8472892613114 14.5602598229105 3.23302713998397e-15
v 21.4121460890342 14.5602598229105 3.23302713998397e-15
v 12.8472892613114 21.4121460890342 4.75445151893664e-15
v 21.4121474289432 21.4121474289432 4.75445181645622e-15
v -14.5602598229105 21.4121474289432 4.75445181645622e-15
v -21.4121474289432 21.4121474289432 4.75445181645622e-15
v -19.9999971965479 -19.9999991990137 2.05504787875598
v -19.9999971965479 -19.9999991990137 20.0530485218278
v 1.0012328781168e-06 -19.9999991990137 20.0530485218278
v 1.0012328781168e-06 -19.9999991990137 2.0550481290642
v -19.9999971965479 0 20.0530485218278
v 1.0012328781168e-06 0 20.0530485218278
v 19.9999991990137 -19.9999991990137 2.05504837937242
v 19.9999991990137 -19.9999991990137 20.0530485218278
v 19.9999991990137 0 20.0530485218278
v 19.9999991990137 0 2.0550481290642
v -19.9999971965479 0 2.0550481290642
v -19.9999971965479 0 0.0530483215812623
v -19.9999971965479 -19.9999991990137 0.0530483215812623
v 1.0012328781168e-06 -19.9999991990137 0.0530483215812623
v 19.9999991990137 -19.9999991990137 0.0530483215812623
v 19.9999991990137 0 0.0530483215812623
v 19.9999991990137 19.9999991990137 2.05504787875598
v 19.9999991990137 19.9999991990137 0.0530483215812623
v 19.9999991990137 19.9999991990137 20.0530485218278
v -19.9999991990137 19.9999991990137 20.0530485218278
v 0 19.9999991990137 20.0530485218278
v -19.9999991990137 19.9999991990137 2.05504837937242
v -19.9999991990137 19.9999991990137 0.0530483215812623
v -1.0012328781168e-06 19.9999991990137 2.0550481290642
v -1.0012328781168e-06 19.9999991990137 0.0530483215812623
v -19.0326446113184 19.8659598565095 -5.47549230256548e-08
v -15.0326449217006 19.8659598565095 -5.47549230256548e-08
v -15.0326449217006 19.8659598565095 9.99999954475193
v -19.0326446113184 19.8659598565095 9.99999954475193
v -15.0326449217006 20.3659598490002 9.99999954475193
v -19.0326446113184 20.3659598490002 9.99999954475193
v -15.0326449217006 20.3659598490002 -5.47549230256548e-08
v -19.0326446113184 20.3659598490002 -5.47549230256548e-08
v -11.0326449817746 19.8659598565095 -5.47549230256548e-08
v -11.0326449817746 19.8659598565095 9.99999954475193
v -11.0326449817746 20.3659598490002 9.99999954475193
v -11.0326449817746 20.3659598490002 -5.47549230256548e-08
v -19.0326448616266 19.8659598565095 0.0216181881322735
v -11.0326449817746 19.8659598565095 0.0216181881322735
v -11.0326449817746 19.8659598565095 10.0216183508326
v -19.0326448616266 19.8659598565095 10.0216183508326
v -16.7993331538745 19.8659598565095 -0.791496359154156
v -13.2659566895266 19.8659598565095 -0.791496359154156
v -13.2659566895266 19.8659598565095 0.791496359154156
v -16.7993331538745 19.8659598565095 0.791496359154156
v -19.0326446113184 19.8659598565095 -6.25770548826641e-07
v -15.0326449217006 19.8659598565095 -3.64246399155235e-18
v -19.0326446113184 19.8659598565095 9.99999854351905
v -15.0326445462383 19.8659598565095 9.38655823230856e-07
v -11.0326446063122 19.8659598565095 -3.64246399155235e-18
v -15.0326449217006 19.8659598565095 10.0000005459848
v -9.01088133018468 19.8659598565095 -6.25770548815714e-07
v -5.01088164056687 19.8659598565095 7.2849279831047e-18
v -5.01088164056687 19.8659598565095 9.99999954475193
v -9.01088133018468 19.8659598565095 9.99999854351905
v -5.01088164056687 20.3659598490002 9.99999954475193
v -9.01088133018468 20.3659598490002 9.99999854351905
v -5.01088164056687 20.3659598490002 7.2849279831047e-18
v -9.01088133018468 20.3659598490002 -6.25770548815714e-07
v -5.01088126510454 19.8659598565095 9.38655823241783e-07
v -1.01088132517851 19.8659598565095 7.2849279831047e-18
v -1.01088170064084 19.8659598565095 9.99999954475193
v -5.01088164056687 19.8659598565095 10.0000005459848
v -1.01088170064084 20.3659598490002 9.99999954475193
v -5.01088164056687 20.3659598490002 10.0000005459848
v -1.01088132517851 20.3659598490002 7.2849279831047e-18
v -5.01088126510454 20.3659598490002 9.38655823241783e-07
v -9.0108815804929 19.8659598565818 0.0216178752469991
v -1.01088170064084 19.8659598565818 0.0216178752469991
v -1.01088170064084 19.865959890045 10.0216177250621
v -9.0108815804929 19.865959890045 10.0216177250621
v -6.77756987274082 19.8659598565095 -0.791496359154156
v -3.24419340839292 19.8659598565095 -0.791496359154156
v -3.24419340839292 19.8659598565095 0.791496359154156
v -6.77756987274082 19.8659598565095 0.791496359154156
v 1.01088195094905 19.8659598565095 -6.25770548815714e-07
v 5.01088164056686 19.8659598565095 7.2849279831047e-18
v 5.01088164056686 19.8659598565095 9.99999954475193
v 1.01088195094905 19.8659598565095 9.99999854351905
v 5.01088164056686 20.3659598490003 9.99999954475193
v 1.01088195094905 20.3659598490003 9.99999854351905
v 5.01088164056686 20.3659598490003 7.2849279831047e-18
v 1.01088195094905 20.3659598490003 -6.25770548815714e-07
v 5.01088201602918 19.8659598565095 9.38655823241783e-07
v 9.01088195595521 19.8659598565095 7.2849279831047e-18
v 9.01088158049288 19.8659598565095 9.99999954475193
v 5.01088164056686 19.8659598565095 10.0000005459848
v 9.01088158049288 20.3659598490003 9.99999954475193
v 5.01088164056686 20.3659598490003 10.0000005459848
v 9.01088195595521 20.3659598490003 7.2849279831047e-18
v 5.01088201602918 20.3659598490003 9.38655823241783e-07
v 1.01088170064083 19.8659598565818 0.0216178752469991
v 9.01088158049288 19.8659598565818 0.0216178752469991
v 9.01088158049288 19.865959890045 10.0216177250621
v 1.01088170064083 19.865959890045 10.0216177250621
v 3.2441934083929 19.8659598565095 -0.791496359154156
v 6.77756987274081 19.8659598565095 -0.791496359154156
v 6.77756987274081 19.8659598565095 0.791496359154156
v 3.2441934083929 19.8659598565095 0.791496359154156
v 10.9578559538654 19.8659598565095 -6.25770548815714e-07
v 14.9578556434832 19.8659598565095 7.2849279831047e-18
v 14.9578556434832 19.8659598565095 9.99999954475193
v 10.9578559538654 19.8659598565095 9.99999854351905
v 14.9578556434832 20.3659598490003 9.99999954475193
v 10.9578559538654 20.3659598490003 9.99999854351905
v 14.9578556434832 20.3659598490003 7.2849279831047e-18
v 10.9578559538654 20.3659598490003 -6.25770548815714e-07
v 14.9578560189455 19.8659598565095 9.38655823241783e-07
v 18.9578559588715 19.8659598565095 7.2849279831047e-18
v 18.9578555834092 19.8659598565095 9.99999954475193
v 14.9578556434832 19.8659598565095 10.0000005459848
v 18.9578555834092 20.3659598490003 9.99999954475193
v 14.9578556434832 20.3659598490003 10.0000005459848
v 18.9578559588715 20.3659598490003 7.2849279831047e-18
v 14.9578560189455 20.3659598490003 9.38655823241783e-07
v 10.9578557035571 19.8659598565818 0.0216178752469991
v 18.9578555834092 19.8659598565818 0.0216178752469991
v 18.9578555834092 19.865959890045 10.0216177250621
v 10.9578557035571 19.865959890045 10.0216177250621
v 13.1911674113092 19.8659598565095 -0.791496359154156
v 16.7245438756571 19.8659598565095 -0.791496359154156
v 16.7245438756571 19.8659598565095 0.791496359154156
v 13.1911674113092 19.8659598565095 0.791496359154156
vt 8.5573823582763e-08 0.200000122189522
vt 0.16000010073185 0.200000122189522
vt 0.16000010073185 0.840000152587891
vt 8.5573823582763e-08 0.840000152587891
vt 8.5573823582763e-08 8.5573823582763e-08
vt 0.16000010073185 8.5573823582763e-08
vt 0.800000131130219 8.5573823582763e-08
vt 1.00000011920929 8.5573823582763e-08
vt 1.00000011920929 0.200000122189522
vt 0.800000131130219 0.200000122189522
vt 0.800000131130219 0.840000152587891
vt 1.00000011920929 0.840000152587891
vt 0.800000131130219 1.00000011920929
vt 1.00000011920929 1.00000011920929
vt 0.16000010073185 1.00000011920929
vt 8.5573823582763e-08 1.00000011920929
vt 3.64655612372644e-08 0.22926077246666
vt 3.64655612372644e-08 0.999999940395355
vt 0.5 0.999999940395355
vt 0.5 0.229260787367821
vt 3.64655612372644e-08 -3.55097533599746e-08
vt 3.64655612372644e-08 0.499999970197678
vt 0.5 0.499999970197678
vt 0.5 -3.55097533599746e-08
vt -3.5451780178164e-08 0.224484488368034
vt -3.5451780178164e-08 0.999999940395355
vt 0.499999970197678 0.999999940395355
vt 0.499999970197678 0.224484473466873
vt 0.5 0.224484473466873
vt 8.25960633221712e-09 0.999999940395355
vt 8.25960633221712e-09 0.224484458565712
vt 0.999999940395355 0.612242221832275
vt 8.94069671630859e-08 0.612242221832275
vt 2.38418579101562e-07 1
vt 1 1
vt 1 0.224484443664551
vt 2.98023223876953e-07 0.224484443664551
vt 1.49011611938477e-07 0.612242221832275
vt 1 0.612242162227631
vt 0.99999988079071 0.224484503269196
vt -5.96046447753906e-08 0.224484503269196
vt 1 0.999999940395355
vt 1 0.224484458565712
vt 3.64655612372644e-08 1
vt 0.5 1
vt 1 0.224484488368034
vt 0 0.999999940395355
vt 1 0.99999988079071
vt 1 0.229260802268982
vt 1 0.499999970197678
vt 1 -3.55097533599746e-08
vt 0 5.96046447753906e-08
vt 1 5.96046447753906e-08
vt 0 1
vt -3.72529029846191e-07 0.999999940395355
vt -3.57627868652344e-07 5.96046447753906e-08
vt 0.999999523162842 5.96046447753906e-08
vt 0.999999582767487 0.999999940395355
vt 1.00000059604645 1
vt 1.00000047683716 1.19209289550781e-07
vt 4.76837158203125e-07 7.45058059692383e-08
vt 4.91738319396973e-07 1
vt -1.78813934326172e-07 1.19209289550781e-07
vt 0.999999761581421 1.19209289550781e-07
vt 0.999999761581421 1
vt -1.78813934326172e-07 1
vt 1.00000011920929 1.19209289550781e-07
vt 1.19209289550781e-07 1.19209289550781e-07
vt 1.19209289550781e-07 1
vt 1.00000011920929 1
vt 0 0
vt 1 0
vt -4.4703483581543e-07 0.999999940395355
vt -4.76837158203125e-07 8.94069671630859e-08
vt 0.999999284744263 1.19209289550781e-07
vt 0.999999403953552 0.999999940395355
vt 1.00000035762787 1
vt 1.00000023841858 1.19209289550781e-07
vt 2.38418579101562e-07 4.4703483581543e-08
vt 2.98023223876953e-07 1
vt -2.38418579101562e-07 5.96046447753906e-08
vt 0.999999761581421 5.96046447753906e-08
vt -2.38418579101562e-07 1
vt 1.00000011920929 5.96046447753906e-08
vt 1.19209289550781e-07 5.96046447753906e-08
vt -1.99676790657577e-08 2.1442485120815e-08
vt 0.99999988079071 2.1442485120815e-08
vt 0.99999988079071 1.00000011920929
vt -1.99676790657577e-08 1.00000011920929
vt -4.1954103835451e-07 0.99999988079071
vt -3.57627868652344e-07 -9.81117409537546e-11
vt 0.999999523162842 0
vt 0.999999523162842 0.99999988079071
vt 1.00000059604645 0.999999940395355
vt 1.00000047683716 0
vt 4.76837158203125e-07 -5.03888486491633e-09
vt 4.44726310888655e-07 0.999999940395355
vt -1.96302252675196e-07 8.13565748103429e-08
vt 0.999999701976776 8.13565748103429e-08
vt 0.999999701976776 1
vt -1.96302252675196e-07 1
vt 1.00000011920929 1.87795219375175e-08
vt 1.53388810986144e-07 1.87795219375175e-08
vt 1.53388810986144e-07 0.99999988079071
vt 1.00000011920929 0.99999988079071
vt -5.94470392911717e-08 2.14424904498856e-08
vt 1 2.14424904498856e-08
vt -5.94470392911717e-08 1
vt -4.53112761533703e-07 0.99999988079071
vt -3.57627868652344e-07 2.97042106467416e-08
vt 0.999999403953552 5.96046447753906e-08
vt 0.999999344348907 0.99999988079071
vt 1.00000035762787 0.99999988079071
vt 1.00000035762787 0
vt 4.17232513427734e-07 -3.48412072526116e-08
vt 3.54522342149721e-07 0.999999940395355
vt -1.91231890767085e-07 2.1442485120815e-08
vt 0.999999761581421 2.1442485120815e-08
vt 0.999999761581421 1.00000011920929
vt -1.9123187655623e-07 1.00000011920929
vt 1.00000011920929 5.2731014221763e-08
vt 1.58459201315964e-07 5.2731014221763e-08
vt 1.58459215526818e-07 1.00000011920929
vt -2.18460414203037e-08 2.8232868487521e-08
vt 0.99999988079071 2.8232868487521e-08
vt 0.99999988079071 1
vt -2.18460414203037e-08 1
vn 0 0 1
vn 1.39075568839075e-08 1 0
vn 0 0 -1
vn -1 0 0
vn 1 0 0
vn 0 1 0
vn 0.999999999999995 1.00123287438691e-07 0
vn 0 -5.01944334985182e-08 -0.999999999999999
vn -1.39075568839075e-08 -1 0
vn 0 -1 0
vn -2.50308261229285e-07 0 0.999999999999969
vn 1.56442652610165e-07 0 -0.999999999999988
vn 2.50308232807576e-07 0 0.999999999999969
vn -2.34663957598962e-07 -0 -0.999999999999972
vn 1 0 2.62790784688605e-08
vn -0.999999999999999 -0 -3.94186159269338e-08
vn 0 -1 3.34631296006194e-09
g securityFloor securtiyRoomAll
f 1/1/1 2/2/1 3/3/1 4/4/1
f 5/5/1 6/6/1 2/2/1 1/1/1
f 7/7/1 8/8/1 9/9/1 10/10/1
f 11/11/1 10/10/1 9/9/1 12/12/1
f 6/6/1 7/7/1 10/10/1 2/2/1
f 3/3/1 2/2/1 10/10/1 11/11/1
f 13/13/1 11/11/1 12/12/1 14/14/1
f 15/15/1 3/3/1 11/11/1 13/13/1
f 4/4/1 3/3/1 15/15/1 16/16/1
g securityRoom securtiyRoomAll
f 17/17/2 18/18/2 19/19/2 20/20/2
f 18/21/3 21/22/3 22/23/3 19/24/3
f 23/25/4 24/26/4 25/27/4 26/28/4
f 27/29/5 21/19/5 18/30/5 17/31/5
f 28/32/5 27/33/5 17/34/5 29/35/5
f 29/36/6 17/37/6 20/38/6 30/39/6
f 31/40/4 23/41/4 26/33/4 32/32/4
f 32/32/4 26/33/4 33/34/4 34/35/4
f 25/27/4 35/42/4 33/43/4 26/28/4
f 21/22/3 36/44/3 37/45/3 22/23/3
f 38/46/7 36/42/7 21/19/7 27/29/7
f 39/40/7 38/41/7 27/33/7 28/32/7
f 30/39/6 20/38/6 23/47/6 31/48/6
f 19/19/6 24/42/6 23/49/6 20/20/6
f 22/23/3 25/50/3 24/51/3 19/24/3
f 37/45/8 35/35/8 25/50/8 22/23/8
f 33/17/9 35/18/9 37/19/9 40/20/9
f 34/36/10 33/37/10 40/38/10 41/39/10
f 41/39/10 40/38/10 38/47/10 39/48/10
f 37/19/10 36/42/10 38/49/10 40/20/10
g secDoorLgeo secDoorL SecDoors1 allDoors securtiyRoomAll
f 42/52/10 43/53/10 44/35/10 45/54/10
f 45/55/1 44/56/1 46/57/1 47/58/1
f 47/54/6 46/35/6 48/53/6 49/52/6
f 49/59/3 48/60/3 43/61/3 42/62/3
f 43/63/5 48/64/5 46/65/5 44/66/5
f 49/67/4 42/68/4 45/69/4 47/70/4
g secDoorRgeo secDoorR SecDoors1 allDoors securtiyRoomAll
f 43/71/10 50/72/10 51/35/10 44/54/10
f 44/73/1 51/74/1 52/75/1 46/76/1
f 46/54/6 52/35/6 53/72/6 48/71/6
f 48/77/3 53/78/3 50/79/3 43/80/3
f 50/81/5 53/82/5 52/65/5 51/83/5
f 48/84/4 43/85/4 44/69/4 46/70/4
g SecDoorDoubleFlat SecDoors1 allDoors securtiyRoomAll
f 54/52/10 55/53/10 56/35/10 57/54/10
g trigger SecDoors1 allDoors securtiyRoomAll
f 58//10 59//10 60//10 61//10
g secDoorLhole SecDoors1 allDoors securtiyRoomAll
f 62//10 63//10 44//10 64//10
g secDoorRhole SecDoors1 allDoors securtiyRoomAll
f 65//10 66//10 51//10 67//10
g secDoorLgeo secDoorL SecDoors2 allDoors securtiyRoomAll
f 68/86/10 69/87/10 70/88/10 71/89/10
f 71/90/11 70/91/11 72/92/11 73/93/11
f 73/89/6 72/88/6 74/87/6 75/86/6
f 75/94/12 74/95/12 69/96/12 68/97/12
f 69/98/5 74/99/5 72/100/5 70/101/5
f 75/102/4 68/103/4 71/104/4 73/105/4
g secDoorRgeo secDoorR SecDoors2 allDoors securtiyRoomAll
f 76/106/10 77/107/10 78/35/10 79/108/10
f 79/109/13 78/110/13 80/111/13 81/112/13
f 81/108/6 80/35/6 82/107/6 83/106/6
f 83/113/14 82/114/14 77/115/14 76/116/14
f 77/117/15 82/118/15 80/119/15 78/120/15
f 83/121/16 76/122/16 79/123/16 81/14/16
g SecDoorDoubleFlat SecDoors2 allDoors securtiyRoomAll
f 84/124/17 85/125/17 86/126/17 87/127/17
g trigger SecDoors2 allDoors securtiyRoomAll
f 88//10 89//10 90//10 91//10
g secDoorLhole SecDoors2 allDoors securtiyRoomAll
f 68//10 69//10 70//10 71//10
g secDoorRhole SecDoors2 allDoors securtiyRoomAll
f 76//10 77//10 78//10 79//10
g secDoorLgeo secDoorL SecDoors3 allDoors securtiyRoomAll
f 92/86/10 93/87/10 94/88/10 95/89/10
f 95/90/11 94/91/11 96/92/11 97/93/11
f 97/89/6 96/88/6 98/87/6 99/86/6
f 99/94/12 98/95/12 93/96/12 92/97/12
f 93/98/5 98/99/5 96/100/5 94/101/5
f 99/102/4 92/103/4 95/104/4 97/105/4
g secDoorRgeo secDoorR SecDoors3 allDoors securtiyRoomAll
f 100/106/10 101/107/10 102/35/10 103/108/10
f 103/109/13 102/110/13 104/111/13 105/112/13
f 105/108/6 104/35/6 106/107/6 107/106/6
f 107/113/14 106/114/14 101/115/14 100/116/14
f 101/117/15 106/118/15 104/119/15 102/120/15
f 107/121/16 100/122/16 103/123/16 105/14/16
g SecDoorDoubleFlat SecDoors3 allDoors securtiyRoomAll
f 108/124/17 109/125/17 110/126/17 111/127/17
g trigger SecDoors3 allDoors securtiyRoomAll
f 112//10 113//10 114//10 115//10
g secDoorLhole SecDoors3 allDoors securtiyRoomAll
f 92//10 93//10 94//10 95//10
g secDoorRhole SecDoors3 allDoors securtiyRoomAll
f 100//10 101//10 102//10 103//10
g secDoorLgeo secDoorL SecDoors4 allDoors securtiyRoomAll
f 116/86/10 117/87/10 118/88/10 119/89/10
f 119/90/11 118/91/11 120/92/11 121/93/11
f 121/89/6 120/88/6 122/87/6 123/86/6
f 123/94/12 122/95/12 117/96/12 116/97/12
f 117/98/5 122/99/5 120/100/5 118/101/5
f 123/102/4 116/103/4 119/104/4 121/105/4
g secDoorRgeo secDoorR SecDoors4 allDoors securtiyRoomAll
f 124/106/10 125/107/10 126/35/10 127/108/10
f 127/109/13 126/110/13 128/111/13 129/112/13
f 129/108/6 128/35/6 130/107/6 131/106/6
f 131/113/14 130/114/14 125/115/14 124/116/14
f 125/117/15 130/118/15 128/119/15 126/120/15
f 131/121/16 124/122/16 127/123/16 129/14/16
g SecDoorDoubleFlat SecDoors4 allDoors securtiyRoomAll
f 132/124/17 133/125/17 134/126/17 135/127/17
g trigger SecDoors4 allDoors securtiyRoomAll
f 136//10 137//10 138//10 139//10
g secDoorLhole SecDoors4 allDoors securtiyRoomAll
f 116//10 117//10 118//10 119//10
g secDoorRhole SecDoors4 allDoors securtiyRoomAll
f 124//10 125//10 126//10 127//10
