v 0.838013912097336 0.0342690372544256 0.041275712141459
v 0.81552435667744 0.0342690372544256 1.87417439315724
v -0.969517892129167 0.0342690372544255 1.87417439315724
v -0.94702833670927 0.0342690372544256 0.041275712141459
v -1.03299966761461 -0.891251557556226 1.03405566564074
v -1.0312592405805 -0.889511186802906 0
v 1.00060557593004 -1.06123332083484 1.13390262060231
v 0.885537594887747 -0.89895352687425 1.88846981525421
v -1.09812126489611 -0.956373211118517 1.68878761173461
v -1.0312592405805 -0.889511186802905 1.88846981525421
v 0.866652914745056 -0.927280547088286 0
v 0.904213585875009 1.10261579264225 1.21874646868753
v 1.02296368107716 1.03251886129435 1.61212124933047
v 0.781671741541377 0.980073948308615 0
v 0.781671741541377 0.980073948308615 1.88846981525421
v -0.987893037506126 0.980073948308616 1.88846981525421
v -0.987893037506126 0.980073948308616 0
v 0.189116613149856 0.32160794088917 1.99817187357351
v -1.58631468083324 -2.22084051534585 0.05
v 1.58631468083324 -2.22084051534585 0.05
v 1.58631468083324 2.22084051534585 0.05
v -1.58631468083324 2.22084051534585 0.05
v -0.361085936602512 -1.3364654505614 0.270792422916445
v 0.386746089172786 -1.3364656488979 1.48080986181726
v -0.966094870901595 -0.896900975313977 1.48080986193873
v 0.0128298267044042 -0.185671060772148 -0.477040540959474
v -1.19718824217541 -0.185670638210562 0.270792422991521
v 0.991756011531485 -0.896900455534543 0.270792422794969
v 1.22284900516374 -0.185669995727724 1.48080986174218
v 0.991756011403757 0.525561748351361 0.270792422794969
v 0.386747310421096 0.965126544731284 1.48080986181725
v -0.361085936809179 0.965126743135261 0.270792422916445
v -0.966094871029323 0.525562267779192 1.48080986193873
v 0.0128309361619342 -0.185671060772148 2.22864282569317
v -0.354372667313752 -1.3364654492635 0.264999888607784
v 0.393459358461547 -1.3364656476 1.47501732750859
v -0.959381601612835 -0.896900974016083 1.47501732763007
v 0.0195430959931645 -0.185671059474253 -0.482833075268135
v -1.19047497288665 -0.185670636912667 0.26499988868286
v 0.998469280820245 -0.896900454236648 0.264999888486309
v 1.2295622744525 -0.185669994429829 1.47501732743352
v 0.998469280692517 0.525561749649256 0.264999888486309
v 0.393460579709856 0.965126546029179 1.47501732750859
v -0.354372667520419 0.965126744433156 0.264999888607784
v -0.959381601740562 0.525562269077087 1.47501732763007
v 0.0195442054506944 -0.185671059474253 2.22285029138451
v -0.367537226734409 -1.33646544796561 0.264997124347067
v 0.380294799040889 -1.33646564630211 1.47501456324788
v -0.972546161033493 -0.896900972718187 1.47501456336935
v 0.00637853657250691 -0.185671058176359 -0.482835839528853
v -1.20363953230731 -0.185670635614772 0.264997124422143
v 0.985304721399587 -0.896900452938753 0.264997124225591
v 1.21639771503184 -0.185669993131934 1.4750145631728
v 0.98530472127186 0.525561750947151 0.264997124225591
v 0.380296020289198 0.965126547327074 1.47501456324788
v -0.367537226941077 0.965126745731051 0.264997124347067
v -0.97254616116122 0.525562270374982 1.47501456336935
v 0.00637964603003686 -0.185671058176359 2.2228475271238
v -0.367538676259925 -1.33646544796561 0.271578361606345
v 0.380293349515373 -1.33646564630211 1.48159580050716
v -0.972547610559008 -0.896900972718187 1.48159580062863
v 0.00637708704699134 -0.185671058176359 -0.476254602269574
v -1.20364098183283 -0.185670635614772 0.271578361681421
v 0.985303271874072 -0.896900452938753 0.27157836148487
v 1.21639626550633 -0.185669993131934 1.48159580043208
v 0.985303271746344 0.525561750947151 0.27157836148487
v 0.380294570763683 0.965126547327074 1.48159580050716
v -0.367538676466592 0.965126745731051 0.271578361606345
v -0.972547610686736 0.525562270374982 1.48159580062863
v 0.0063781965045213 -0.185671058176359 2.22942876438307
v -0.36095494704436 -1.3364654492635 0.264998506477109
v 0.386877078730938 -1.3364656476 1.47501594537792
v -0.965963881343443 -0.896900974016083 1.47501594549939
v 0.0129608162625561 -0.185671059474253 -0.482834457398811
v -1.19705725261726 -0.185670636912667 0.264998506552185
v 0.991887001089636 -0.896900454236648 0.264998506355633
v 1.22297999472189 -0.185669994429829 1.47501594530284
v 0.991887000961909 0.525561749649256 0.264998506355633
v 0.386878299979248 0.965126546029179 1.47501594537792
v -0.360954947251028 0.965126744433156 0.264998506477109
v -0.965963881471171 0.525562269077087 1.47501594549939
v 0.012961925720086 -0.185671059474253 2.22284890925384
vt 0 0
vt 1.05607676506042 0.0184691213071346
vt 1.01187264919281 1.02041518688202
vt -0.0442042089998722 1.00194609165192
vt 0.0270646959543228 0.554077208042145
vt 0.0218017511069775 0.0344844087958336
vt 1.00161850452423 0.5899578332901
vt 0.949386715888977 0.960988879203796
vt 0.000442928750999272 0.887535393238068
vt 0.0329005196690559 0.983181834220886
vt 0.929548263549805 0.0141564514487982
vt 0.00167121237609535 0.644466161727905
vt 0.996457695960999 0.688468337059021
vt 0.95559948682785 0.886572778224945
vt 0.0696080923080444 0.980577707290649
vt 0.0820364430546761 0.101015605032444
vt 0.959890007972717 0.105077795684338
vt 0.935019373893738 0.981858432292938
vt 0.045802004635334 0.635139167308807
vt 0.99528431892395 0.997591972351074
vt -0.00577152939513326 0.846138656139374
vt 0.0853904336690903 0.0126567678526044
vt 0.961836814880371 0.0151300728321075
vt 0.118837952613831 0.995118677616119
vt 0.0342172235250473 0.533244013786316
vt 0.992304682731628 1.00011336803436
vt 0.0355689190328121 0.000813541351817548
vt -0.000222902235691436 0.869472026824951
vt 0.993105828762054 0.0277048740535975
vt 0.0347677171230316 0.973222076892853
vt 0.889898836612701 0.0447212494909763
vt 0.977997124195099 0.995211899280548
vt 0.321490049362183 0.352810502052307
vt 0.0227134246379137 0.957297146320343
vt 0.00768192624673247 0.00529161375015974
vt 1 0
vt 1 1
vt 0 1
vt 1.01439189910889 1.33795249462128
vt 0.0143919242545962 1.33795249462128
vt 0.00280124833807349 -0.00232049915939569
vt 0.00450828298926353 0.999819457530975
vt 1.00170707702637 1.00213992595673
vt 1.0100964307785 1.02718615531921
vt 0.000628600770141929 1.02474117279053
vt -0.0510528609156609 -0.025851484388113
vt 0.958415031433105 -0.0234064850956202
vn 0 -1 0
vn -0.0805335807436531 -0.995280313755589 -0.0541427688909717
vn -0.0515946254414648 -0.99695157224943 -0.0585282599685363
vn -0.0438102756757712 -0.999035388701529 -0.00299196711186735
vn 0.00117972908954468 -0.964106183277126 0.265514360451726
vn -0.0255363645801411 -0.989280229820869 0.143779417753718
vn -0.00466881889167956 -0.94777112551847 0.318917067219064
vn -0.0197645526798226 -0.993169714609311 -0.114992523410115
vn 0.996751849984641 0.0186907103782228 -0.0783352213104191
vn 0.984942180595325 0.0490104956513936 -0.165791652986905
vn 0.980175501896927 0.0174230223604506 0.197363684027571
vn 0.90364859891894 -0.00302087581878948 0.428264035358008
vn 0.993073278172213 0.0464282112793019 -0.10793463474575
vn 0.993554932430648 0.0442673158052297 -0.104350376109199
vn 0.329040102026731 0.0769294443203391 0.941177173466719
vn -0.0492766723754994 0.997843427651709 0.0433624659341001
vn -0.0245838874245765 0.997340396515282 0.0686131616953823
vn -0.00075239903249545 0.983452799286709 0.18116298040944
vn -0.0481358492391504 0.997821865632473 -0.0451050383411477
vn 0 1 0
vn 0 0.982464402934623 0.186450253328641
vn -0.997857302405988 0.0455134366538567 -0.0470035224105541
vn -0.997897709572746 0.034453825874699 0.0548916670548772
vn -0.999711199182432 0.0240176018272062 -0.000820385089126855
vn -0.992731971287144 0.0449995384930971 0.111616641768827
vn -0.999731089906794 0.0231893914058517 0
vn -0.950221687013905 0.0220409896670793 0.310794048049419
vn -0.046011987225926 0.0835956983649265 0.99543691726116
vn -0.0461292580167329 -0.0439133580062845 0.997969793402304
vn 0.0201144214697661 0.021738396838442 0.99956132986017
vn 0.0861158955878077 -0.0403355374429788 0.995468280231116
vn 0 0 1
vn -0.308197890656921 -0.948536062354353 -0.0727557462192782
vn -0.0727557554319181 -0.948536120402907 0.308197709826879
vn -0.498674735101487 -0.810146674264206 0.308197785115513
vn -0.30819823051267 -0.223919614600802 -0.924593887555984
vn -0.162459897075938 -0.500000752612135 -0.850650356626842
vn -0.689151856363006 -0.223919460816623 -0.689151502892517
vn 0.806872809088147 -0.586227660264107 -0.0727557578166438
vn 0.879628546178326 -0.362308908565075 0.308197786368734
vn 0.688190853711757 -0.500000480469443 0.525730794606715
vn 0.425325534644531 -0.309017394748995 -0.850650597673268
vn 0.806873046650472 0.586227333287618 -0.0727557578166439
vn 0.616396300846598 0.724616823806139 0.308198083965058
vn 0.688191174012491 0.499999597348285 0.525731215225863
vn 0.425325259290418 0.309016700342146 -0.850650987608426
vn -0.308197982150284 0.948536022235252 -0.0727558816908847
vn -0.498674791243884 0.810146484655326 0.308198192691791
vn -0.262865057350859 0.80901692044517 0.52573147523935
vn -0.162460080851809 0.499999619500271 -0.850650987555536
vn -0.951056598323302 0.309016741918152 8.53983402692141e-11
vn -0.850650714348282 -7.63826893986364e-11 0.525731264220378
vn 0.308198233208998 -0.223919616476629 0.924593886202916
vn -0.425325204702746 0.309016775528237 0.850650987589328
g gloves billboard icecube_glove icecubes
f 1/1/1 2/2/1 3/3/1 4/4/1
g ice_front ice icecube_glove icecubes
f 5/5/2 6/6/3 7/7/4
f 7/7/4 8/8/5 9/9/6
f 9/9/6 5/5/2 7/7/4
f 9/9/6 8/8/5 10/10/7
f 6/6/3 11/11/8 7/7/4
g ice_right ice icecube_glove icecubes
f 7/12/9 12/13/10 13/14/11
f 7/12/9 13/14/11 8/15/12
f 11/16/13 14/17/14 12/13/10
f 8/15/12 13/14/11 15/18/15
f 11/16/13 12/13/10 7/12/9
g ice_back ice icecube_glove icecubes
f 12/19/16 16/20/17 13/21/18
f 14/22/19 17/23/20 16/20/17
f 13/21/18 16/20/17 15/24/21
f 14/22/19 16/20/17 12/19/16
g ice_left ice icecube_glove icecubes
f 5/25/22 16/26/23 6/27/24
f 9/28/25 16/26/23 5/25/22
f 17/29/26 6/27/24 16/26/23
f 10/30/27 16/26/23 9/28/25
g ice_top ice icecube_glove icecubes
f 16/31/28 10/32/29 18/33/30
f 18/33/30 10/32/29 8/34/31
f 15/35/15 16/31/28 18/33/30
f 18/33/30 8/34/31 15/35/15
g drop_shadow icecube_glove icecubes
f 19/1/32 20/36/32 21/37/32 22/38/32
g prop_mailboxcollisions icecube_glove icecubes
f 23//33 24//34 25//35
f 26//36 23//37 27//38
f 28//39 29//40 24//41
f 26//36 28//42 23//37
f 30//43 31//44 29//45
f 26//46 30//46 28//42
f 32//47 33//48 31//49
f 26//46 32//50 30//46
f 27//51 25//52 33//52
f 26//36 27//38 32//50
f 24//34 23//33 28//39
f 34//53 24//41 29//40
f 25//35 27//38 23//33
f 34//53 25//35 24//34
f 33//48 32//47 27//51
f 34//54 33//52 25//52
f 31//44 30//43 32//47
f 34//54 31//49 33//48
f 29//40 28//39 30//43
f 34//53 29//45 31//44
g ice_front_5 ice_1 icecube_ear_protection icecubes
f 5/5/2 6/6/3 7/7/4
f 7/7/4 8/8/5 9/9/6
f 9/9/6 5/5/2 7/7/4
f 9/9/6 8/8/5 10/10/7
f 6/6/3 11/11/8 7/7/4
g ice_right_5 ice_1 icecube_ear_protection icecubes
f 7/12/9 12/13/10 13/14/11
f 7/12/9 13/14/11 8/15/12
f 11/16/13 14/17/14 12/13/10
f 8/15/12 13/14/11 15/18/15
f 11/16/13 12/13/10 7/12/9
g ice_back_5 ice_1 icecube_ear_protection icecubes
f 12/19/16 16/20/17 13/21/18
f 14/22/19 17/23/20 16/20/17
f 13/21/18 16/20/17 15/24/21
f 14/22/19 16/20/17 12/19/16
g ice_left_5 ice_1 icecube_ear_protection icecubes
f 5/25/22 16/26/23 6/27/24
f 9/28/25 16/26/23 5/25/22
f 17/29/26 6/27/24 16/26/23
f 10/30/27 16/26/23 9/28/25
g ice_top_5 ice_1 icecube_ear_protection icecubes
f 16/31/28 10/32/29 18/33/30
f 18/33/30 10/32/29 8/34/31
f 15/35/15 16/31/28 18/33/30
f 18/33/30 8/34/31 15/35/15
g ear_prot billboard_1 icecube_ear_protection icecubes
f 1/36/1 2/37/1 3/38/1 4/1/1
g drop_shadow_1 icecube_ear_protection icecubes
f 19/1/32 20/36/32 21/37/32 22/38/32
g prop_mailboxcollisions_1 icecube_ear_protection icecubes
f 35//33 36//34 37//35
f 38//36 35//37 39//38
f 40//39 41//40 36//41
f 38//36 40//42 35//37
f 42//43 43//44 41//45
f 38//46 42//46 40//42
f 44//47 45//48 43//49
f 38//46 44//50 42//46
f 39//51 37//52 45//52
f 38//36 39//38 44//50
f 36//34 35//33 40//39
f 46//53 36//41 41//40
f 37//35 39//38 35//33
f 46//53 37//35 36//34
f 45//48 44//47 39//51
f 46//54 45//52 37//52
f 43//44 42//43 44//47
f 46//54 43//49 45//48
f 41//40 40//39 42//43
f 46//53 41//45 43//44
g ice_front_6 ice_2 icecube_sunglasses icecubes
f 5/5/2 6/6/3 7/7/4
f 7/7/4 8/8/5 9/9/6
f 9/9/6 5/5/2 7/7/4
f 9/9/6 8/8/5 10/10/7
f 6/6/3 11/11/8 7/7/4
g ice_right_6 ice_2 icecube_sunglasses icecubes
f 7/12/9 12/13/10 13/14/11
f 7/12/9 13/14/11 8/15/12
f 11/16/13 14/17/14 12/13/10
f 8/15/12 13/14/11 15/18/15
f 11/16/13 12/13/10 7/12/9
g ice_back_6 ice_2 icecube_sunglasses icecubes
f 12/19/16 16/20/17 13/21/18
f 14/22/19 17/23/20 16/20/17
f 13/21/18 16/20/17 15/24/21
f 14/22/19 16/20/17 12/19/16
g ice_left_6 ice_2 icecube_sunglasses icecubes
f 5/25/22 16/26/23 6/27/24
f 9/28/25 16/26/23 5/25/22
f 17/29/26 6/27/24 16/26/23
f 10/30/27 16/26/23 9/28/25
g ice_top_6 ice_2 icecube_sunglasses icecubes
f 16/31/28 10/32/29 18/33/30
f 18/33/30 10/32/29 8/34/31
f 15/35/15 16/31/28 18/33/30
f 18/33/30 8/34/31 15/35/15
g sun_glass billboard_2 icecube_sunglasses icecubes
f 1/36/1 2/39/1 3/40/1 4/1/1
g drop_shadow_2 icecube_sunglasses icecubes
f 19/1/32 20/36/32 21/37/32 22/38/32
g prop_mailboxcollisions_2 icecube_sunglasses icecubes
f 47//33 48//34 49//35
f 50//36 47//37 51//38
f 52//39 53//40 48//41
f 50//36 52//42 47//37
f 54//43 55//44 53//45
f 50//46 54//46 52//42
f 56//47 57//48 55//49
f 50//46 56//50 54//46
f 51//51 49//52 57//52
f 50//36 51//38 56//50
f 48//34 47//33 52//39
f 58//53 48//41 53//40
f 49//35 51//38 47//33
f 58//53 49//35 48//34
f 57//48 56//47 51//51
f 58//54 57//52 49//52
f 55//44 54//43 56//47
f 58//54 55//49 57//48
f 53//40 52//39 54//43
f 58//53 53//45 55//44
g ice_front_7 ice_3 icecube_shoe_v icecubes
f 5/5/2 6/6/3 7/7/4
f 7/7/4 8/8/5 9/9/6
f 9/9/6 5/5/2 7/7/4
f 9/9/6 8/8/5 10/10/7
f 6/6/3 11/11/8 7/7/4
g ice_right_7 ice_3 icecube_shoe_v icecubes
f 7/12/9 12/13/10 13/14/11
f 7/12/9 13/14/11 8/15/12
f 11/16/13 14/17/14 12/13/10
f 8/15/12 13/14/11 15/18/15
f 11/16/13 12/13/10 7/12/9
g ice_back_7 ice_3 icecube_shoe_v icecubes
f 12/19/16 16/20/17 13/21/18
f 14/22/19 17/23/20 16/20/17
f 13/21/18 16/20/17 15/24/21
f 14/22/19 16/20/17 12/19/16
g ice_left_7 ice_3 icecube_shoe_v icecubes
f 5/25/22 16/26/23 6/27/24
f 9/28/25 16/26/23 5/25/22
f 17/29/26 6/27/24 16/26/23
f 10/30/27 16/26/23 9/28/25
g ice_top_7 ice_3 icecube_shoe_v icecubes
f 16/31/28 10/32/29 18/33/30
f 18/33/30 10/32/29 8/34/31
f 15/35/15 16/31/28 18/33/30
f 18/33/30 8/34/31 15/35/15
g shoe billboard_3 icecube_shoe_v icecubes
f 1/41/1 2/42/1 3/43/1 4/36/1
g drop_shadow_3 icecube_shoe_v icecubes
f 19/1/32 20/36/32 21/37/32 22/38/32
g prop_mailboxcollisions_3 icecube_shoe_v icecubes
f 59//33 60//34 61//35
f 62//36 59//37 63//38
f 64//39 65//40 60//41
f 62//36 64//42 59//37
f 66//43 67//44 65//45
f 62//46 66//46 64//42
f 68//47 69//48 67//49
f 62//46 68//50 66//46
f 63//51 61//52 69//52
f 62//36 63//38 68//50
f 60//34 59//33 64//39
f 70//53 60//41 65//40
f 61//35 63//38 59//33
f 70//53 61//35 60//34
f 69//48 68//47 63//51
f 70//54 69//52 61//52
f 67//44 66//43 68//47
f 70//54 67//49 69//48
f 65//40 64//39 66//43
f 70//53 65//45 67//44
g ice_front_8 ice_4 icecube_shoe_h icecubes
f 5/5/2 6/6/3 7/7/4
f 7/7/4 8/8/5 9/9/6
f 9/9/6 5/5/2 7/7/4
f 9/9/6 8/8/5 10/10/7
f 6/6/3 11/11/8 7/7/4
g ice_right_8 ice_4 icecube_shoe_h icecubes
f 7/12/9 12/13/10 13/14/11
f 7/12/9 13/14/11 8/15/12
f 11/16/13 14/17/14 12/13/10
f 8/15/12 13/14/11 15/18/15
f 11/16/13 12/13/10 7/12/9
g ice_back_8 ice_4 icecube_shoe_h icecubes
f 12/19/16 16/20/17 13/21/18
f 14/22/19 17/23/20 16/20/17
f 13/21/18 16/20/17 15/24/21
f 14/22/19 16/20/17 12/19/16
g ice_left_8 ice_4 icecube_shoe_h icecubes
f 5/25/22 16/26/23 6/27/24
f 9/28/25 16/26/23 5/25/22
f 17/29/26 6/27/24 16/26/23
f 10/30/27 16/26/23 9/28/25
g ice_top_8 ice_4 icecube_shoe_h icecubes
f 16/31/28 10/32/29 18/33/30
f 18/33/30 10/32/29 8/34/31
f 15/35/15 16/31/28 18/33/30
f 18/33/30 8/34/31 15/35/15
g shoe2 billboard_4 icecube_shoe_h icecubes
f 1/44/1 2/45/1 3/46/1 4/47/1
g drop_shadow_4 icecube_shoe_h icecubes
f 19/1/32 20/36/32 21/37/32 22/38/32
g prop_mailboxcollisions_4 icecube_shoe_h icecubes
f 71//33 72//34 73//35
f 74//36 71//37 75//38
f 76//39 77//40 72//41
f 74//36 76//42 71//37
f 78//43 79//44 77//45
f 74//46 78//46 76//42
f 80//47 81//48 79//49
f 74//46 80//50 78//46
f 75//51 73//52 81//52
f 74//36 75//38 80//50
f 72//34 71//33 76//39
f 82//53 72//41 77//40
f 73//35 75//38 71//33
f 82//53 73//35 72//34
f 81//48 80//47 75//51
f 82//54 81//52 73//52
f 79//44 78//43 80//47
f 82//54 79//49 81//48
f 77//40 76//39 78//43
f 82//53 77//45 79//44
