v -0.499748427306663 -0.49974814167474 0
v 0.49974814167474 -0.49974814167474 0
v 0.49974814167474 -0.49974814167474 0.132362730941496
v -0.499748427306663 -0.49974814167474 0.132362730941496
v 0.49974814167474 0.49974814167474 0.132362730941496
v -0.499748427306663 0.49974814167474 0.132362730941496
v 0.49974814167474 0.49974814167474 0
v -0.499748427306663 0.49974814167474 0
v -0.407543422939132 -0.407543178111769 0.406994601600858
v 0.407543545352814 -0.407543178111769 0.406994601600858
v 0.309656995595051 -0.309656424331204 0.487212776676635
v -0.309656873181369 -0.309656424331204 0.487212776676635
v 0.309656995595051 0.309656424331204 0.487212776676635
v -0.309656873181369 0.309656424331204 0.487212776676635
v 0.407543545352814 0.407543178111769 0.406994601600858
v -0.407543422939132 0.407543178111769 0.406994601600858
v 0.407543545352814 0.407543178111769 0.0409904048371239
v -0.407543422939132 0.407543178111769 0.0409904048371239
v 0.407543545352814 -0.407543178111769 0.0409904048371239
v -0.407543422939132 -0.407543178111769 0.0409904048371239
v -0.626362872840779 -0.626362872840779 0.00407543153629019
v 0.626362872840779 -0.626362872840779 0.00407543153629019
v 0.626362872840779 0.626362872840779 0.00407543153629047
v -0.626362872840779 0.626362872840779 0.00407543153629047
vt 0 0.895300567150116
vt 5.0663948059082e-07 0.104699224233627
vt 0.0695351958274841 0.104699045419693
vt 0.0695349276065826 0.89530074596405
vt 0.594605267047882 0.104699045419693
vt 0.594605267047882 0.895299911499023
vt 0.664140045642853 0.104698747396469
vt 0.664140045642853 0.895300209522247
vt 0.686227440834045 0.714970827102661
vt 0.686227440834045 0.242521494626999
vt 1 0.242521494626999
vt 1 0.714970827102661
vt 0.0695351958274841 0
vt 0.594605267047882 3.87430191040039e-07
vt 0.594605505466461 0.999997615814209
vt 0.0695353150367737 1
vt 0.25205409526825 0.748003482818604
vt 0.25205385684967 0.2428218126297
vt 0.312723100185394 0.303490877151489
vt 0.312723100185394 0.687334537506104
vt 0.696566164493561 0.303490877151489
vt 0.696566164493561 0.687334537506104
vt 0.757235288619995 0.2428218126297
vt 0.75723522901535 0.748003482818604
vt 0.984080672264099 0.242821991443634
vt 0.98408031463623 0.748003602027893
vt 0.25205385684967 0.0159767866134644
vt 0.75723522901535 0.0159766674041748
vt 0.025208592414856 0.748003721237183
vt 0.0252082347869873 0.242821991443634
vt 0.75723534822464 0.974848568439484
vt 0.25205409526825 0.974848568439484
vt 0 0
vt 1 0
vt 1 1
vt 0 1
vn 0 -1 0
vn 0 0 1
vn 0 1 0
vn 0 0 -1
vn 1 0 0
vn -1 0 0
vn -0.271158851839609 -0.698955741741268 0.661765629325019
vn 0.271158851839609 -0.698955741741269 0.661765629325019
vn 0.173256990137887 -0.17325677410582 0.969517460180478
vn -0.173256990137887 -0.17325677410582 0.969517460180478
vn 0.173256990137887 0.17325677410582 0.969517460180478
vn -0.173256990137887 0.17325677410582 0.969517460180478
vn 0.271158851839609 0.698955741741269 0.661765629325019
vn -0.271158851839609 0.698955741741268 0.661765629325019
g buttonBase buttonAll
f 1/1/1 2/2/1 3/3/1 4/4/1
f 4/4/2 3/3/2 5/5/2 6/6/2
f 6/6/3 5/5/3 7/7/3 8/8/3
f 8/9/4 7/10/4 2/11/4 1/12/4
f 2/13/5 7/14/5 5/5/5 3/3/5
f 8/15/6 1/16/6 4/4/6 6/6/6
g button buttonAll
f 9/17/7 10/18/8 11/19/9 12/20/10
f 12/20/10 11/19/9 13/21/11 14/22/12
f 14/22/12 13/21/11 15/23/13 16/24/14
f 10/18/8 15/23/13 13/21/11 11/19/9
f 16/24/14 9/17/7 12/20/10 14/22/12
f 16/24/14 15/23/13 17/25/3 18/26/3
f 15/23/5 10/18/5 19/27/5 17/28/5
f 10/18/8 9/17/7 20/29/1 19/30/1
f 9/17/6 16/24/6 18/31/6 20/32/6
g shadow1 buttonAll
f 21/33/2 22/34/2 23/35/2 24/36/2
g collision_floor buttonAll
f 12//10 11//9 13//11 14//12
