v -2.99051814346012 -2.94108620857513 0.0243593663387875
v 2.9980483873446 -2.94108620857513 0.0243593663387875
v 2.99804794648962 -2.94108620857513 5.46963041171947
v -2.99051858431509 -2.94108620857513 5.46963041171947
v -2.99051858431509 2.97668922225278 5.46963041171947
v 2.99804794648962 2.97668922225278 5.46963041171947
v 2.9980483873446 2.97668922225278 0.0243593663387875
v -2.99051814346012 2.97668922225278 0.0243593663387875
v 4.62834596790775 4.43251978030228 -0.00101834211488156
v -4.55461738133548 4.43251978030228 -0.00101834211488156
v -4.55461738133548 -4.73187094251337 -0.00101834211488156
v 4.62834596790775 -4.73187094251337 -0.00101834211488156
v -3.00000008009863 -3.00000008009863 -0.00588548825430668
v 3.00000008009863 -3.00000008009863 -0.00588548825430668
v 3.00000008009863 -3.00000008009863 5.49411449172104
v -3.00000008009863 -3.00000008009863 5.49411449172104
v -3.00000008009863 3.00000008009863 5.49411449172104
v 3.00000008009863 3.00000008009863 5.49411449172104
v 3.00000008009863 3.00000008009863 -0.00588548825430668
v -3.00000008009863 3.00000008009863 -0.00588548825430668
vt -1 -1
vt 1 -1
vt 1 1
vt -1 1
vt -1 -1.00000023841858
vt 1 -1.00000023841858
vt -1.04728078842163 7.85397052764893
vt 1.05866050720215 7.85397052764893
vt 1.05866050720215 9.95991325378418
vt -1.04728078842163 9.95991325378418
vt 0 0
vt 1 0
vt 0 1
vn 0 -1 0
vn 0 1 0
vn 0 0 -1
vn 0.999999999999995 0 9.99928628559927e-08
vn -0.999999999999995 -0 -9.99928628559927e-08
vn 0 0 1
vn 1.48312595538158e-09 -1 0
vn 1.48312595538158e-09 1 0
vn 1 0 1.71506790991316e-08
vn -1 0 1.71506790991316e-08
vn 0 1.44113343480967e-08 1
g CBMetalBoxSides CBMetalBox CBMetalBoxAll
f 1/1/1 2/2/1 3/3/1 4/4/1
f 5/5/2 6/6/2 7/3/2 8/4/2
f 8/7/3 7/8/3 2/9/3 1/10/3
f 2/1/4 7/2/4 6/3/4 3/4/4
f 8/1/5 1/2/5 4/3/5 5/4/5
g CBMetalBoxShadow CBMetalBox CBMetalBoxAll
f 9/11/6 10/12/6 11/3/6 12/13/6
g CBMetalBoxTop CBMetalBox CBMetalBoxAll
f 4/1/6 3/2/6 6/3/6 5/4/6
g wall collision CBMetalBoxAll
f 13//7 14//7 15//7 16//7
f 17//8 18//8 19//8 20//8
f 14//9 19//9 18//9 15//9
f 20//10 13//10 16//10 17//10
g floor collision CBMetalBoxAll
f 16//11 15//11 18//11 17//11
