v -0.415697905022328 0 -0.157119705295312
v -0.499999992490753 0 -0.499999992490753
v 0.499999992490753 0 -0.499999992490753
v 0.405833852572704 0 -0.157119705295312
v 0.499999992490753 0 0.499999992490753
v 0.405833852572704 0 0.431903078174341
v -0.499999992490753 0 0.499999992490753
v -0.415697905022328 0 0.431903078174341
vt 0.084302119910717 0.342880308628082
vt 0.0104286009445786 0.01099884044379
vt 0.999999940395355 0.01099884044379
vt 0.905833840370178 0.342880308628082
vt 0.999999940395355 1.01099848747253
vt 0.905833840370178 0.913888990879059
vt 0.0104286009445786 1.01099848747253
vt 0.084302119910717 0.913888990879059
vt 0.0104285627603531 0.0109988022595644
vt 1 1.01099848747253
vt 0.0104285627603531 1.01099848747253
vt 1 0.0109988022595644
vn 0 -1 0
g pictureframe photo_game_pictureframe
f 1/1/1 2/2/1 3/3/1 4/4/1
f 4/4/1 3/3/1 5/5/1 6/6/1
f 5/5/1 7/7/1 8/8/1 6/6/1
f 7/7/1 2/2/1 1/1/1 8/8/1
g picture photo_game_pictureframe
f 8/9/1 4/10/1 6/11/1
f 8/9/1 1/12/1 4/10/1
