v -2.26083942758085e-15 -4.01638568568515e-14 499.609599276165
v 174.460792040887 302.174966166339 276.013351800874
v 348.921584081775 -3.36326841518111e-14 276.013351800874
v -174.460792040887 302.174966166339 276.013351800874
v -348.921584081775 -3.36326841518111e-14 276.013351800874
v -174.460792040887 -302.174966166339 276.013351800874
v 174.460792040887 -302.174966166339 276.013351800874
v -174.460792040887 -302.174966166339 46.3855493099984
v 174.460792040887 -302.174966166339 46.3855493099984
v -348.921584081775 -5.56540885969029e-15 46.3855493099984
v -174.460936218422 302.175062284695 46.3850046393127
v 174.460792040887 302.174966166339 46.3855493099984
v 348.921584081775 -5.56540885969029e-15 45.2093009247867
v 173.037679677247 -303.025325264518 -98.5180471825787
v -175.88417673987 -303.025325264518 -98.5180471825787
v -350.344776544045 -0.850568042965386 -98.5180471825787
v -350.344776544045 -0.850557655174275 -98.5180471825787
v -175.88417673987 301.324575028707 -98.5180471825787
v 173.037679677247 301.324575028707 -98.5180471825787
v 172.622192062418 302.053632761237 -98.5180471825787
v 347.071273683563 -0.128101676780721 -98.5181112614829
v 347.071273683563 -1.57297990453525 -98.5181112614829
v 172.622192062418 -303.754543194308 -98.5180471825787
v -155.958825459318 -270.128529466043 -4.14889278061434
v -311.917618879183 4.95481599070953e-05 -4.14889278061434
v -311.917618879183 4.9548156087695e-05 121.342756616788
v -155.958825459318 -270.128529466043 121.342756616788
v -27.3468978761688 -47.3660566675381 -105.713771709933
v -54.69377572768 3.28325734930871e-05 -105.713771709933
v -311.917618879183 6.40789041994751e-05 -4.14888477075131
v -155.958745360687 270.128593544947 -4.14889278061434
v -155.958745360687 270.128593544947 121.342756616788
v -311.917618879183 6.40789041994751e-05 121.342756616788
v -54.69377572768 3.20394520997375e-05 -105.713771709933
v -27.3468978761688 47.3661127365793 -105.713755690207
v -155.958753945633 270.128613876777 -4.14888477075131
v 155.958851618142 270.128532197177 -4.14889278061434
v 155.958851618142 270.128532197177 121.342756616788
v -155.958753945633 270.128613876777 121.342756616788
v -27.3468601168606 47.3662152287857 -105.713771709933
v 27.3468079703109 47.3661646437506 -105.713755690207
v 155.95886493355 270.128549797873 -4.14888477075131
v 311.917596978829 -6.13477698182404e-05 -4.14889278061434
v 311.917596978829 -6.13477698182404e-05 121.342756616788
v 155.95886493355 270.128549797873 121.342756616788
v 27.3469156108194 47.3661831893336 -105.713771709933
v 54.6937058464797 5.19071712749116e-05 -105.713755690207
v 311.917618879183 -6.40789038221162e-05 -4.14888477075131
v 155.958745360688 -270.128593544947 -4.14889278061434
v 155.958745360688 -270.128593544947 121.342756616788
v 311.917618879183 -6.40789038221162e-05 121.342756616788
v 54.69377572768 -3.20394520335688e-05 -105.713771709933
v 27.3468978761689 -47.3661127365793 -105.713755690207
v 155.958753945633 -270.128613876777 -4.14888477075131
v -155.958851618142 -270.128532197178 -4.14889278061434
v -155.958851618142 -270.128532197178 121.342756616788
v 155.958753945633 -270.128613876777 121.342756616788
v 27.3468601168606 -47.3662152287856 -105.713771709933
v -27.3468079703109 -47.3661646437506 -105.713755690207
v 269.761560994458 -83.908371434369 -0.293780555064191
v 269.761561858774 -83.9083678618088 61.6722003640655
v 263.833940447518 102.490971661778 61.6722003640656
v 263.833940447518 102.490971661778 -0.293780555064151
v -241.903384289387 122.729751806827 -0.293780555064103
v -241.903384289387 122.729751806827 76.940147048156
v -272.074771809621 -37.0178351778793 76.940147048156
v -272.074771809621 -37.0178351778793 -0.293780555064139
v -60.0329220490188 265.807126001223 -1.8749262444735e-06
v -56.9167224479728 266.402782605365 29.8655077133498
v -169.808398907879 209.786117389462 29.865495061859
v -172.924600829515 211.095098343798 3.02595175862806e-07
v 205.933561409115 170.026688372191 4.08059359414153e-08
v 205.933561409115 170.026688372191 34.7105798058264
v 69.5027267015809 265.549286573057 34.7105798058264
v 69.5027267015809 265.549286573057 4.08060002818993e-08
v -269.721386482749 -61.5820028396585 -5.01204641627582e-07
v -268.515952023574 -61.5820032939974 34.8634589726224
v -177.147782418006 -224.869397259645 34.8634516256007
v -178.353214593568 -224.86940561843 1.05105006622845e-06
v 18.4598753537605 -273.162594895543 -0.127161461145394
v 18.4041747666186 -273.165150162206 34.7769055617581
v 174.210856954411 -214.325100871071 34.7769062636033
v 174.266557296277 -214.322535653191 0.127232836117909
v -224.082357845792 6.30696059716328e-15 -0.293780555064124
v -224.082357845792 -1.48131697728927e-14 94.8228307095362
v -198.245790846807 -154.32298583386 94.8228307095362
v -198.245790846807 -154.32298583386 -0.293780555064158
v 76.0335896093417 209.517725815632 -0.293780555064073
v 76.0335896093417 209.517725815632 55.1277484785328
v -57.7880457986129 209.517725815632 55.1277484785328
v -57.7880457986129 209.517725815632 -0.293780555064073
v 156.376022236902 -186.112951458123 -0.293780555064158
v 156.376022236902 -186.112951458123 65.8877831845755
v 252.834012100598 -42.2782633784282 65.8877831845755
v 252.834012100598 -42.2782633784282 -0.293780555064126
v -85.2987085976178 -249.961796676516 -0.29378055506431
v -85.2987085976192 -249.961796676515 62.5967129476491
v 45.5865515910569 -250.974445767867 62.5967129476493
v 45.586551591057 -250.974445767867 -0.29378055506415
v -82.4842477974311 210.69137148752 -0.293769736302493
v -82.4842351269656 210.691400915156 62.2903818846375
v -224.289307669339 112.021088980387 62.2903818846375
v -224.289314004572 112.021074266569 -0.293769736302493
vt 0.5 0.988572537899017
vt 0 0.850154042243958
vt 1 0.850154042243958
vt 0.996676802635193 0.00737202120944858
vt 0.996676802635193 0.850677251815796
vt 0.00332319736480713 0.850677251815796
vt 0.00332319736480713 0.00737202120944858
vt 0 0.00737198861315846
vt 1 0.00737198861315846
vt 1 1
vt 0 1
vt 0.00087350606918335 0.250436753034592
vt 0.999126493930817 0.250436753034592
vt 0.999126493930817 0.999126017093658
vt 0.00087350606918335 0.999126493930817
vt 0.00087350606918335 0.000873506825882941
vt 0.999126434326172 0.00087350606918335
vt 0.00087350606918335 0.00087350606918335
vt 0.999126493930817 0.00087350606918335
vt 0.0037130864802748 0.019930737093091
vt 0.0037130864802748 0.813979387283325
vt 1.00371313095093 0.813979387283325
vt 1.00371313095093 0.019930737093091
vt 0.034025389701128 0.0311017371714115
vt 0.034025389701128 0.980069220066071
vt 0.997172057628632 0.980069220066071
vt 0.997172057628632 0.0311017371714115
vt 1.99435710906982 -1.42440031991597e-10
vt 1.99435710906982 1
vt 2.9943573474884 1
vt 2.9943573474884 -2.84880063983195e-10
vt -0.00564330676570535 2.84880063983195e-10
vt -0.00564330676570535 1
vt 0.994357109069824 1
vt 0.994357109069824 1.42440031991597e-10
vt 2.99435710906982 -1.42440031991597e-10
vt 2.99435710906982 1
vt 1.99435687065125 1
vt 1.99435687065125 -2.84880063983195e-10
vt 0 0.0178145803511143
vt 0 0.982185482978821
vt 1 0.982185482978821
vt 1 0.0178145803511143
vt 0.996427714824677 0.019930737093091
vt 0.996427714824677 0.980069220066071
vt 0.00307142734527588 0.980069220066071
vt 0.00307142734527588 0.019930737093091
vt -0.00499673932790756 0.0265743155032396
vt -0.00499673932790756 0.98671281337738
vt 0.995002448558807 0.98671281337738
vt 0.995002448558807 0.0265743155032396
vt 1.00307130813599 0.0118763875216246
vt 1.00307130813599 0.982185423374176
vt 0.00307142734527588 0.982185423374176
vt 0.00307142734527588 0.011876386590302
vn -0.383132409284159 -0.22120159403029 -0.896816264211669
vn -0.544646804641279 -0.549014334509681 -0.633989841162251
vn -0.747783773073644 -0.197170785268145 -0.633989834433083
vn 0.203136910401335 -0.746185100935653 -0.633989898006466
vn 0.539543937344851 0 -0.841957445287121
vn 0.747783736696059 -0.197170678170311 -0.633989910647432
vn 0.544646804641279 0.549014334509681 -0.633989841162251
vn 0 0.59482024787563 -0.803858739280213
vn -0.203136973104192 0.746185131746558 -0.633989841652402
vn 0 0.999995695267924 -0.00293418568290219
vn 0 1 0
vn 0.981972849024685 0.18897255122381 -0.00432419498946496
vn 0.866025414799693 0.499999980921019 0
vn 0.866011264887034 0.4999917683576 -0.00572019784610758
vn 0.866022263189136 -0.499997679298565 -0.00278574169947814
vn 0.866025562741315 -0.499999724678328 -4.29899753374493e-07
vn -0.327328141949803 -0.9449081263351 0.00221816897027954
vn -2.02787873604384e-07 -0.999999999999958 -2.09291343367104e-07
vn -1.40025967424526e-07 -0.999995694745776 0.00293436362672918
vn -0.999987805977499 4.8224155189756e-06 0.00493840794705642
vn -0.866024459413161 0.499993775236877 0.00280364450618402
vn -0.866025399898532 0.500000006730587 0
vn 0 0.999982781109338 -0.0058683460049087
vn 0.499963023686837 0.865989096141988 -0.00999301301397362
vn 0.865968754393536 0.499967237190115 -0.0114401988877655
vn 0.866012229614561 -0.499991782642055 -0.0055709468170098
vn -8.51561688932195e-08 -0.999982777791101 0.00586891141408147
vn -0.865968140187586 -0.499966933292928 0.0114998171166832
vn -0.866016711425436 0.499983614203977 0.00560723277577709
vn 0.866025429700851 0.499999955111454 0
vn 0.359270183175096 0.207424830877739 0.90989003457378
vn 0.866025266857905 -0.500000237163638 0
vn 0.359270123490723 -0.207424935139824 0.909890034371847
vn -2.73853002420333e-07 -0.999999999999962 0
vn -2.01464065644435e-07 -0.414849521333651 0.909890034371847
vn -0.866025540710907 -0.499999762836325 0
vn -0.359270324954789 -0.207424586193827 0.909890034371847
vn -0.866025266857906 0.500000237163637 0
vn -0.359270123490724 0.207424935139824 0.909890034371847
vn 2.73853001476643e-07 0.999999999999962 0
vn 2.01464065228102e-07 0.414849521333651 0.909890034371847
vn -0.999494743423192 -0.0317845539438339 0
vn 0.982627642763703 -0.185588026759942 0
vn 0.44152653439952 -0.895450883051723 -0.0567629761643976
vn -0.573547100681792 -0.81917258456293 0
vn 0.872274779524896 0.488085138406893 -0.0301596861906643
vn -0.353293828130805 0.935512278919332 -0.00049698675998516
vn 0.98627337684116 0.165120641151661 0
vn 0 -1 0
vn -0.830532896634922 0.556969575118072 0
vn 0.0077367071999678 0.999970071232986 0
vn 0.571155297169328 -0.820842022873717 0
g sky wholeSky
f 1/1/1 2/2/2 3/3/3
f 1/1/1 4/2/4 2/3/2
f 1/1/5 5/2/6 4/3/4
f 1/1/5 6/2/7 5/3/6
f 1/1/8 7/2/9 6/3/7
f 1/1/1 3/2/3 7/3/9
f 8/4/10 6/5/11 7/6/9 9/7/10
f 10/4/12 5/5/13 6/6/7 8/7/14
f 11/4/15 4/5/16 5/6/6 10/7/12
f 12/4/17 2/5/18 4/6/4 11/7/19
f 13/4/20 3/5/3 2/6/2 12/7/17
f 9/4/21 7/5/22 3/6/22 13/7/20
f 8/8/10 9/9/10 14/10/23 15/11/24
f 10/8/12 8/9/14 15/10/24 16/11/25
f 11/8/15 10/9/26 17/10/26 18/11/26
f 12/8/17 11/9/19 18/10/27 19/11/27
f 13/8/20 12/9/28 20/10/28 21/11/28
f 9/8/21 13/9/20 22/10/29 23/11/29
g hills1 hills wholeSky
f 24/12/30 25/13/30 26/14/30 27/15/30
f 28/16/31 29/17/31 25/13/31 24/12/31
g hills2 hills wholeSky
f 30/12/32 31/13/32 32/14/32 33/15/32
f 34/18/33 35/19/33 31/13/33 30/12/33
g hills3 hills wholeSky
f 36/12/34 37/13/34 38/14/34 39/15/34
f 40/18/35 41/19/35 37/13/35 36/12/35
g hills4 hills wholeSky
f 42/12/36 43/13/36 44/14/36 45/15/36
f 46/18/37 47/19/37 43/13/37 42/12/37
g hills5 hills wholeSky
f 48/12/38 49/13/38 50/14/38 51/15/38
f 52/18/39 53/19/39 49/13/39 48/12/39
g hills6 hills wholeSky
f 54/12/40 55/13/40 56/14/40 57/15/40
f 58/18/41 59/19/41 55/13/41 54/12/41
g Buildings7 MiddleGroup wholeSky
f 60/20/42 61/21/42 62/22/42 63/23/42
g Buildings6 MiddleGroup wholeSky
f 64/24/43 65/25/43 66/26/43 67/27/43
g Hill1 MiddleGroup wholeSky
f 68/28/44 69/29/44 70/30/44 71/31/44
g Hill3 MiddleGroup wholeSky
f 72/32/45 73/33/45 74/34/45 75/35/45
g Hill2 MiddleGroup wholeSky
f 76/36/46 77/37/46 78/38/46 79/39/46
g Hill4 MiddleGroup wholeSky
f 80/32/47 81/33/47 82/34/47 83/35/47
g Buildings1 InnerGroup wholeSky
f 84/40/48 85/41/48 86/42/48 87/43/48
g Buildings2 InnerGroup wholeSky
f 88/44/49 89/45/49 90/46/49 91/47/49
g Buildings3 InnerGroup wholeSky
f 92/48/50 93/49/50 94/50/50 95/51/50
g Buildings4 InnerGroup wholeSky
f 96/40/51 97/41/51 98/42/51 99/43/51
g Buildings5 InnerGroup wholeSky
f 100/52/52 101/53/52 102/54/52 103/55/52
