v -0.499999992490753 -0.249999996245377 1.87731166278723e-09
v 0.499999992490753 -0.249999996245377 1.87731166278723e-09
v 0.499999992490753 -0.249999996245377 0.499999994368065
v -0.499999992490753 -0.249999996245377 0.499999994368065
v 0.499999992490753 0.249999996245377 0.499999994368065
v -0.499999992490753 0.249999996245377 0.499999994368065
v 0.499999992490753 0.249999996245377 1.87731166278723e-09
v -0.499999992490753 0.249999996245377 1.87731166278723e-09
vt 0.00187742419075221 0.49811914563179
vt 0.00187742419075221 0.00199203123338521
vt 0.249940976500511 0.00199203123338521
vt 0.249940976500511 0.49811914563179
vt 0.257379025220871 0.49811914563179
vt 0.257379025220871 0.00199203123338521
vt 0.505442559719086 0.00199203123338521
vt 0.505442559719086 0.49811914563179
vt 0.512696921825409 0.49811914563179
vt 0.512696921825409 0.00199203123338521
vt 0.760760486125946 0.00199203123338521
vt 0.760760486125946 0.49811914563179
vt 0.692524135112762 0.998008072376251
vt 0.692524135112762 0.501881003379822
vt 0.940587639808655 0.501881003379822
vt 0.940587639808655 0.998008072376251
vt 0.43867826461792 0.501880943775177
vt 0.686741769313812 0.501880943775177
vt 0.686741769313812 0.749944448471069
vt 0.43867826461792 0.749944448471069
vt 0.1848324239254 0.501880943775177
vt 0.432895988225937 0.501880943775177
vt 0.432895988225937 0.749944448471069
vt 0.1848324239254 0.749944448471069
vn 0 -1 0
vn 0 0 1
vn 0 1 0
vn 0 0 -1
vn 1 0 0
vn -1 0 0
g pCube1
f 1/1/1 2/2/1 3/3/1 4/4/1
f 4/5/2 3/6/2 5/7/2 6/8/2
f 6/9/3 5/10/3 7/11/3 8/12/3
f 8/13/4 7/14/4 2/15/4 1/16/4
f 2/17/5 7/18/5 5/19/5 3/20/5
f 8/21/6 1/22/6 4/23/6 6/24/6
