v 1.34671207291305 1.48856317822569 2.29486407516283
v 1.40064466212672 1.54738438380217 2.16999502282403
v 1.31430318312289 1.5480937244187 2.17004453184078
v -1.28123857822065 -1.51879341544588 2.29486407516283
v -1.28123857822065 1.48856317822569 2.29486407516283
v -1.21366990648338 -1.54809372441874 2.17001482643073
v 1.4003134043679 -1.5474189857835 2.16996866879358
v 1.34671207291305 -1.51879341544588 2.29486407516283
v 1.23101091524771 -1.51879341544588 2.29486407516283
v 1.04252438745302 1.18211397482851 0.0328715729438695
v 1.04252438745302 -1.31477472717513 0.0328715729438695
v -1.13935827665848 1.18211397482851 0.0328715729438695
v 1.40167137419032 -1.45408987304938 2.17007713162412
v -1.30386234683195 -1.54758226388273 2.16997978928042
v -1.30332007946297 1.43185377482009 2.1699371353583
v -1.3025611928214 1.54570186246173 2.1698777245382
v -1.13935827665848 -1.31477472717513 0.0328715729438695
v 1.2969069726348 -1.4002664911461 1.18325838273831
v -0.0170683978812689 -1.4002664911461 1.18325838273831
v -1.17173192626153 -1.4002664911461 1.18325838273831
v -1.17173192626153 0.232378255877147 1.18325838273831
v -1.17173192626153 1.48082206622301 1.18325838273831
v 0.205965676538421 1.48082206622301 1.18325838273831
v 1.2969069726348 1.48082206622301 1.18325838273831
v 1.2969069726348 -0.022855689956818 1.18325838273831
v -1.23888433227842 -1.4743888009821 2.12077468172777
v -1.23910584202596 1.25579889399471 2.12177384985346
v -1.23896603197751 1.4857355475668 2.12114287647694
v 1.14833499105318 1.48571608395232 2.12339287086883
v 1.34802415857348 1.48580799546514 2.11255466159328
v 1.3479592878617 -1.23563783333125 2.11489407688619
v 1.34777244295128 -1.47458073384709 2.12160567153195
v -1.04448557986813 -1.47585992584307 2.12716058321105
v -1.38289759478231 -1.53156580751632 0.0525091576763964
v 1.44031379479436 -1.53156580751632 0.0525091576763964
v 1.44031379479436 -1.53156580751632 2.87572054725307
v -1.38289759478231 -1.53156580751632 2.87572054725307
v 1.44031379479436 1.53156580751632 2.87572054725307
v -1.38289759478231 1.53156580751632 2.87572054725307
v 1.44031379479436 1.53156580751632 0.0525091576763964
v -1.38289759478231 1.53156580751632 0.0525091576763964
vt 0.252013832330704 0.435536980628967
vt 0.252013832330704 0.408000320196152
vt 0.242840498685837 0.408001482486725
vt 0.839149594306946 0.986537337303162
vt 0.59499204158783 0.569201290607452
vt 0.59499204158783 0.986537337303162
vt 0.719944894313812 0.40800079703331
vt 0.490955322980881 0.407999694347382
vt 0.490955322980881 0.435536980628967
vt 0.501458048820496 0.435536980628967
vt 0.729506373405457 0.435536980628967
vt 0.385728806257248 0.970467269420624
vt 0.385728806257248 0.542339861392975
vt 0.108815878629684 0.970467269420624
vt 0.482191979885101 0.408002257347107
vt 0.729506373405457 0.407999962568283
vt 0.986537337303162 0.435537070035934
vt 0.975145161151886 0.407998949289322
vt 0.0134627725929022 0.40799754858017
vt 0.0134627819061279 0.435536980628967
vt 0.839149594306946 0.587575256824493
vt 0.839149594306946 0.569201111793518
vt 0.108815878629684 0.542339861392975
vt 0.986537337303162 0.40799754858017
vt 0.490955144166946 0.0134626468643546
vt 0.490955233573914 0.22688889503479
vt 0.61023074388504 0.22688889503479
vt 0.729506015777588 0.0134626468643546
vt 0.729506194591522 0.22688889503479
vt 0.858021676540375 0.226888939738274
vt 0.986537218093872 0.226888939738274
vt 0.986537098884583 0.0134626468643546
vt 0.0134626906365156 0.22688889503479
vt 0.132738217711449 0.22688889503479
vt 0.0134626002982259 0.0134626468643546
vt 0.252013772726059 0.22688889503479
vt 0.252013713121414 0.0134626468643546
vt 0.371484518051147 0.22688889503479
vt 0.729506373405457 0.400822281837463
vt 0.962868094444275 0.401007652282715
vt 0.986537337303162 0.400890618562698
vt 0.013462764210999 0.400890499353409
vt 0.230214223265648 0.401307940483093
vt 0.252013832330704 0.39929723739624
vt 0.468237429857254 0.399731248617172
vt 0.490955293178558 0.400976419448853
vt 0.708097398281097 0.402007013559341
vn 0.00362040683146127 0.904693839635605 0.426046886128465
vn 0.00767210618615504 0.903345792088408 0.428844399173913
vn 0 0 1
vn -0.00274238658990568 -0.974170096536781 0.225798809406317
vn 0.000127237702272492 -0.974127116379498 0.226000763150772
vn 0 0 -1
vn 0.917164747911326 -0.00682630484244091 0.398449779459033
vn 0.917707303400134 -0.0138145435707312 0.397016956403612
vn -0.984367408640619 9.04255554481464e-05 0.176127217173754
vn -0.984805783898369 0.00337354226555417 0.173626574040098
vn 0.916575793105637 0.000162081441118309 0.399860962363643
vn -0.00560255219705875 -0.974205164463407 0.225594567624544
vn -0.000426647537283661 0.906018464898515 0.423237946355024
vn -0.98522735148976 0.00665599966001804 0.171122072056759
vn 0 -0.997249975963265 -0.0741113044094277
vn 0.000112621277651153 -0.997054704955841 -0.076693563236231
vn -0.00012108321547569 -0.997045847139559 -0.0768086195723724
vn 0 -0.997249976450932 -0.0741112978473293
vn -0.000354787859506767 -0.997036921583654 -0.0769236707689177
vn -0.998757691158697 -1.71368534667934e-05 -0.0498304531153123
vn -0.998756676101436 7.37863448172136e-06 -0.0498507962661284
vn -0.999604267062569 -0 -0.0281302198765738
vn -0.998755660028654 3.18941441438314e-05 -0.0498711393843262
vn -0.999604258160348 -0 -0.0281305362142164
vn 4.17863769864531e-06 0.991608850805282 -0.129274463786039
vn -2.69049460090732e-05 0.991608924055522 -0.12927389918144
vn 0 0.967902866218312 -0.251324574139449
vn -5.79885341690728e-05 0.99160899634737 -0.129273334451815
vn 0 0.967902872510603 -0.251324549906535
vn 0.990732133305296 -2.29258992563928e-05 -0.135830186301645
vn 0.990738697032823 -9.73407266609444e-05 -0.13578226955861
vn 0.97641278474677 0 -0.215912189982542
vn 0.990745253008447 -0.000171756141764115 -0.13573435136713
vn 0.976412823040496 0 -0.215912016807981
vn -0.662544491648681 -0.230751359904558 -0.712592875692838
vn -0.322371572193226 -0.303095468728894 -0.896777400628316
vn -0.602980600932032 7.33738924698928e-05 -0.797755845804916
vn -0.878737203945037 4.8388007275419e-05 -0.477305901976353
vn -0.334735182202884 0.34067303160086 -0.878575121054245
vn -0.671453518255556 0.25778733550365 -0.694763170063126
vn -0.0133593788288789 0.642958667605207 -0.765784355251949
vn -0.00738757408645311 0.905321648978448 -0.424662378413794
vn -0.0267902945376736 0.67013838751972 -0.741752533997057
vn -0.0147031868061097 0.912756908981418 -0.408238461446778
vn 0.918762713069293 -0.000113971344563281 -0.394810162083101
vn 0.727004695121607 -0.000168323338440867 -0.686632467145556
vn 0.700197700090473 -0.0090073985791209 -0.713892182026704
vn 0.911120869023842 -0.00493316767557305 -0.412109725541541
vn 0.371302251963964 -0.303920741125447 -0.877363562498608
vn 0.694279286267246 -0.228661639645596 -0.682414923059887
vn 0.00383296168916817 -0.858328127876154 -0.513086867207987
vn 0.00711421417346068 -0.541939372279414 -0.840387472973086
vn 8.6009158201331e-06 0.999986344067958 -0.00522605048048629
vn 0.000225271153434915 -0.996852734429517 -0.0792753121299544
vn -0.000710033585950989 -0.996815809878169 -0.0797354189130272
vn 0 -1 0
vn 0 1 0
vn 1 0 0
vn -1 0 0
g metal_crateA4
f 1/1/1 2/2/2 3/3/1
f 4/4/3 1/5/3 5/6/3
f 6/7/4 7/8/5 8/9/5 9/10/5 4/11/4
f 10/12/6 11/13/6 12/14/6
f 8/9/7 7/8/8 13/15/7
f 14/16/9 4/11/9 5/17/10 15/18/10
f 2/2/11 1/1/11 8/9/7 13/15/7
f 14/16/12 6/7/4 4/11/4
f 16/19/13 5/20/13 1/1/1 3/3/1
f 9/21/3 8/22/3 1/5/3 4/4/3
f 12/14/6 11/13/6 17/23/6
f 5/17/10 16/24/14 15/18/10
f 11/25/15 18/26/16 19/27/17
f 17/28/18 11/25/18 19/27/17 20/29/19
f 20/29/20 21/30/21 17/28/22
f 21/30/21 22/31/23 12/32/24 17/28/24
f 22/33/25 23/34/26 12/35/27
f 23/34/26 24/36/28 10/37/29 12/35/29
f 24/36/30 25/38/31 10/37/32
f 25/38/31 18/26/33 11/25/34 10/37/34
f 26/39/35 14/16/36 15/18/37 27/40/38
f 15/18/37 16/24/39 28/41/40 27/40/38
f 28/42/40 16/19/39 3/3/41 29/43/42
f 3/3/41 2/2/43 30/44/44 29/43/42
f 30/44/45 2/2/46 13/15/47 31/45/48
f 13/15/47 7/8/49 32/46/50 31/45/48
f 33/47/51 32/46/50 7/8/49 6/7/52
f 26/39/35 33/47/51 6/7/52 14/16/36
f 20/29/20 26/39/35 27/40/38 21/30/21
f 27/40/38 28/41/40 22/31/23 21/30/21
f 22/33/25 28/42/53 29/43/42 23/34/26
f 29/43/42 30/44/44 24/36/28 23/34/26
f 24/36/30 30/44/45 31/45/48 25/38/31
f 31/45/48 32/46/50 18/26/33 25/38/31
f 19/27/17 18/26/16 32/46/54 33/47/51
f 20/29/19 19/27/17 33/47/51 26/39/55
g wall_collision
f 34//56 35//56 36//56 37//56
f 37//3 36//3 38//3 39//3
f 39//57 38//57 40//57 41//57
f 41//6 40//6 35//6 34//6
f 35//58 40//58 38//58 36//58
f 41//59 34//59 37//59 39//59
