v 0 0 0
v 9.99999984981507 0 0
v 9.99999984981507 0 9.99999984981507
v 0 0 9.99999984981507
v 9.99999984981507 9.99999984981507 9.99999984981507
v 0 9.99999984981507 9.99999984981507
v 9.99999984981507 9.99999984981507 0
v 0 9.99999984981507 0
v 0 0 -7.5092466045254e-08
v 9.99999984981507 0 -7.5092466045254e-08
v 9.99999984981507 0 8.99999966458699
v 0 0 8.99999966458699
v 0 9.99999984981507 8.99999966458699
v 9.99999984981507 9.99999984981507 8.99999966458699
v 9.99999984981507 9.99999984981507 -7.5092466045254e-08
v 0 9.99999984981507 -7.5092466045254e-08
v 0 0 9.9999997747226
v 9.99999984981507 0 9.9999997747226
v 9.99999984981507 9.99999984981507 9.9999997747226
v 0 9.99999984981507 9.9999997747226
vt 0 0
vt 1 0
vt 1 1
vt 0 1
vn 0 -1 0
vn 0 0 1
vn 0 1 0
vn 0 0 -1
vn 1 0 0
vn -1 0 0
g cube_tenfoot cube_geometry cube_tenfoot
f 1/1/1 2/2/1 3/3/1 4/4/1
f 4/1/2 3/2/2 5/3/2 6/4/2
f 6/1/3 5/2/3 7/3/3 8/4/3
f 8/1/4 7/2/4 2/3/4 1/4/4
f 2/1/5 7/2/5 5/3/5 3/4/5
f 8/1/6 1/2/6 4/3/6 6/4/6
g cube_tenfoot_wall cube_collision cube_tenfoot
f 9//1 10//1 11//1 12//1
f 13//3 14//3 15//3 16//3
f 16//4 15//4 10//4 9//4
f 10//5 15//5 14//5 11//5
f 16//6 9//6 12//6 13//6
g cube_tenfoot_top cube_collision cube_tenfoot
f 17//2 18//2 19//2 20//2
