v 1.29409997384755e-07 0 0.0975359976291656
v 0.0872386991977692 0 0.0436194986104965
v 0.0269584003835917 0.0829690024256706 0.0436194986104965
v 0.0705775991082191 -0.0512778013944626 -0.0436194986104965
v 0.0705775991082191 0.0512778013944626 -0.0436194986104965
v -0.0705775991082191 0.0512778013944626 0.0436194986104965
v -0.0269581992179155 0.0829690024256706 -0.0436194986104965
v -0.070577897131443 -0.0512778013944626 0.0436194986104965
v -0.0872386991977692 4.63056011312801e-08 -0.0436194986104965
v 0.0269581992179155 -0.0829693004488945 0.0436194986104965
v -0.0269582998007536 -0.0829690024256706 -0.0436194986104965
v -1.2940199667355e-07 0 -0.0975359976291656
vn 0.308198958090566 0.223918820428028 0.924593837363201
vn 0.689152473261105 0.223918420922279 0.68915122387599
vn 0.425920338838445 0.586226654171099 0.689151779293286
vn 0.951056794216093 -0.309016139020887 1.80711795212178e-07
vn 0.924594234462865 -0.223918423449496 -0.30819805521437
vn 0.924594230274643 0.223918464391256 -0.308198038033181
vn -0.425917713018682 0.586228345501099 0.689151963407186
vn 2.92407246747208e-07 0.999999999999941 -1.80717396411852e-07
vn 0.262864780694351 0.809017184662708 -0.525731206978372
vn 0.0727555744542289 0.948535940672852 -0.308198305702194
vn -0.425324545776809 -0.309014983044629 0.850651968206551
vn -0.689151916921684 -0.223916636470224 0.68915236001557
vn -0.951056063942917 0.309018386564981 -1.47723050332094e-06
vn -0.688190930940603 0.500000184872348 -0.525730974642663
vn -0.879628015288807 0.362309485649015 -0.308198623176386
vn -9.2256264496575e-08 -0.724616974113488 0.689151827122735
vn -0.587785930921907 -0.809016501314954 -3.22152626885488e-06
vn -0.688191038102947 -0.499998870333637 -0.525732084563872
vn -0.616396363446468 -0.72461597480049 -0.308199954889524
vn 0.587785526462521 -0.809016795177814 -1.18147731168875e-06
vn 0.262864331389441 -0.809016636129613 -0.525732275734244
vn -0.308198773555584 0.223918994751827 -0.924593856657162
vn 0.425324557767207 -0.309016755319066 -0.850651318397971
g o1 g1
f 1//1 2//2 3//3
f 2//4 4//5 5//6
f 1//1 3//3 6//7
f 3//8 5//9 7//10
f 1//11 6//7 8//12
f 6//13 7//14 9//15
f 1//11 8//12 10//16
f 8//17 9//18 11//19
f 1//1 10//16 2//2
f 10//20 11//21 4//21
f 12//22 9//15 7//14
f 9//15 8//12 6//13
f 12//22 7//10 5//9
f 7//10 6//7 3//8
f 12//23 5//6 4//5
f 5//6 3//3 2//2
f 12//23 4//21 11//21
f 4//5 2//4 10//20
f 12//22 11//19 9//18
f 11//19 10//16 8//17
