v 32 -3 20
v 32.0779451742985 -4 32.2911251427662
v -3.448197360244 -4 31.9792728657127
v -2 -3 20
v 36.3111374580886 -7 50.0667049348169
v -6.79019126849938 -7 50.0667049348169
v 22.7897936251306 -2.5 0
v 22.7897936251306 -3 0
v 22.7897936251306 -3 11
v 22.7897936251306 -2.5 11
v 6.78979362513056 -3 11
v 6.78979362513056 -2.5 11
v 6.78979362513056 -3 0
v 6.78979362513056 -2.5 0
v -2.61186475098637 -3 11
v -2.67939971307832 -3 9.94002969671826
v 6.78979362513056 -3 9.94002969671826
v 32.6777412523966 -3 9.94002969671826
v 32.6921403425747 -3 11
v 22.7897936251306 -3 9.94002969671826
v 37.5365352244489 -7 50.4825079708882
v 38.3163338030419 -7 56.4077012349051
v 33.860341925368 -7 56.3037504758873
v 24.5079553272062 -7 55.0563413676732
v 17.8239675106954 -7 54.1207845365126
v 12.0311780697194 -7 54.1207845365126
v 1.00779451742984 -7 55.2642428857089
v -4.33939573577878 -7 56.511651993923
v -9.01818720733631 -7 56.3037504758873
v -8.2383886287434 -7 50.7943602479418
v -3.90604558494871 -3 0
v 33.9406888653067 -3 0
v -3.90604558494871 0 0
v -2.67830069689452 0 9.94809154043266
v -2.6113649159539 0 11
v -2 0 20
v -2 12 20
v -3.448197360244 13 31.9792728657127
v -6.79019126849938 16 50.0667049348169
v -8.2383886287434 16 50.7943602479418
v -9.01818720733631 16 56.3037504758873
v 38.3163338030419 16 56.4077012349051
v 37.5365352244489 16 50.4825079708882
v 36.3111374580886 16 50.0667049348169
v 32.0779451742985 13 32.2911251427662
v 32 12 20
v 32.6777412523966 0 9.92732174157806
v 32.6923049284407 0 11
v 32 0 20
v 33.9406888653067 0 0
v -4.33939573577878 16 56.511651993923
v 1.00779451742984 16 55.2642428857089
v 12.0311780697194 16 54.1207845365126
v 17.8239675106954 16 54.1207845365126
v 24.5079553272062 16 55.0563413676732
v 33.860341925368 16 56.3037504758873
v 33.9406888653067 0 20
v 33.9406888653067 -3 20
v 33.9406888653067 -3 -2
v 33.9406888653067 0 -2
v -3.90604558494871 -3 20
v -3.90604558494871 0 20
v -3.90604558494871 0 -2
v -3.90604558494871 -3 -2
v 6.78979362513056 -3 10.9400296967183
v -3.90604558494871 -3 10.9400296967183
v 6.78979362513056 -3 -2
v 33.9406888653067 -3 10.9400296967183
v 22.7897936251306 -3 10.9400296967183
v 22.7897936251306 -3 -2
vt 0.860038161277771 0.348065078258514
vt 0.862113416194916 0.561736583709717
vt 0.121200554072857 0.556051552295685
vt 0.150964587926865 0.347812652587891
vt 0.951047420501709 0.870781600475311
vt 0.0521646849811077 0.870461583137512
vt 0.333947360515594 0.191420435905457
vt 0.13787479698658 0.191350623965263
vt 0.136427566409111 0.172923430800438
vt 0.333908587694168 0.172993734478951
vt 0.873804450035095 0.17318594455719
vt 0.874143540859222 0.191612750291824
vt 0.667629063129425 0.191539227962494
vt 0.667590260505676 0.173112526535988
vt 0.976618409156799 0.878019094467163
vt 0.993097960948944 0.981029450893402
vt 0.900164008140564 0.979189276695251
vt 0.705073356628418 0.95743465423584
vt 0.565643846988678 0.941121160984039
vt 0.444834649562836 0.941078126430511
vt 0.214982658624649 0.960874378681183
vt 0.103512085974216 0.982519805431366
vt 0.00592778995633125 0.978870868682861
vt 0.0219890009611845 0.883100509643555
vt 0.110482066869736 0.000115211529191583
vt 0.333544909954071 0.000194627442397177
vt 0.667226612567902 0.000313426426146179
vt 0.899779677391052 0.000396221090340987
vt 0.900097906589508 0
vt 1 0
vt 1 0.207453534007072
vt 0.900097906589508 0.207453534007072
vt 0.900097906589508 0.207618683576584
vt 1 0.227938592433929
vt 0.900097966194153 0.227938592433929
vt 1 0.413532584905624
vt 0.900097906589508 0.413367420434952
vt 0.148120209574699 0.338360071182251
vt 0.965810358524323 0.335320830345154
vt 0.964450478553772 0.643290877342224
vt 0.147730618715286 0.642515301704407
vt 1.02359926700592 0.994599044322968
vt 0.0881874412298203 0.988736629486084
vt 0.500489473342896 0
vt 1 0.170000001788139
vt 0.50048953294754 0.170000001788139
vt 1 1
vt 0.50048953294754 1
vt 0.499510526657104 1
vt 0 1
vt 0 0.109270699322224
vt 0.499510526657104 0.109270714223385
vt 0 0
vt 0.499510526657104 -2.27334395752621e-09
vt 0.0788105949759483 0.989000201225281
vt 0.976167440414429 0.994062781333923
vt 0.945490956306458 0.529954135417938
vt 0.121473915874958 0.531569004058838
vt 0.972254157066345 0.0808409750461578
vt 0.10788019746542 0.0888919904828072
vt 9.0710078337608e-11 0.22151343524456
vt 0 0.20069295167923
vt 0.0999021008610725 0.20069295167923
vt 0.0999021008610725 0.221778020262718
vt 0.0999021008610725 0.410410970449448
vt 0 0.410410970449448
vt 0.0999021083116531 0.200437918305397
vt 0.0999021083116531 0.000255040416959673
vt 0.834636628627777 0.368308395147324
vt 0.867718577384949 0.551531493663788
vt 0.147550031542778 0.557257235050201
vt 0.152639552950859 0.370216965675354
vt 0.944061517715454 0.883623361587524
vt 0.0508489497005939 0.883623361587524
vt 0.944014668464661 0.88801646232605
vt 0.977131307125092 0.898125052452087
vt 0.995213866233826 0.974041223526001
vt 0.888346970081329 0.976619243621826
vt 0.766140639781952 0.959115743637085
vt 0.559964537620544 0.942819774150848
vt 0.427640557289124 0.942466974258423
vt 0.275004804134369 0.954943239688873
vt 0.107116147875786 0.971673190593719
vt 0.00533353537321091 0.972833275794983
vt 0.0228562895208597 0.891286194324493
vt 0.0508275516331196 0.885634899139404
vn 0.000184294327642159 -0.999155529424946 -0.0410876387147782
vn 0.000511848054888821 -0.992322798623975 -0.12367376982469
vn 0.000328389981171585 -0.996566368724884 -0.0827971309075304
vn -1 0 0
vn 0 0 -1
vn 1 0 0
vn 0 -1 0
vn -0.992470892859689 1.72201930825235e-05 0.122480719012243
vn -0.995661101639639 9.8931053182033e-05 0.0930535377854498
vn -0.99784119116931 0.000131834988423596 0.0656729763704153
vn -0.999656075114486 4.17416651584579e-05 -0.0262246018908906
vn -0.997698872979847 8.31141414276105e-05 0.0678008255612123
vn -0.992771705772332 0 -0.120018082878764
vn -0.988544574860204 0 -0.150929200337304
vn -0.799732332971228 0 -0.600356723623877
vn -0.812192411610314 0 -0.583389652395912
vn -0.990131261675476 0 -0.140143086354378
vn 0.991450661744975 0 -0.130482126459724
vn 0.321326199161705 0 -0.946968570614829
vn 0.73932484564985 0 -0.673348923370956
vn 0.992800660944814 0 -0.119778327035987
vn 0.999380174303202 -1.3686913535142e-05 0.035203224601874
vn 0.999979892777227 0 -0.00634145419008726
vn 0.999501034322057 -4.18125120105757e-05 0.0315860830248326
vn 0.998407688362105 0.000105727831199604 0.0564098984315966
vn 0.997055205661282 -2.73501990751711e-05 0.0766871313566101
vn 0.992014607281468 0.00026712703746069 0.126122748080356
vn 0.000368277393010666 0.996623543960889 -0.0821058828257702
vn 0.000511848054888837 0.992322798623975 -0.12367376982469
vn 0.000328389981171585 0.996566368724884 -0.0827971309075305
vn 0 1 0
g suit_landmark_new_money_building suit_landmark_new_money
f 1/1/1 2/2/2 3/3/2 4/4/1
f 2/2/2 5/5/3 6/6/3 3/3/2
f 7//4 8//4 9//4 10//4
f 10//5 9//5 11//5 12//5
f 13//6 14//6 12//6 11//6
f 11/7/7 15/8/7 16/9/7 17/10/7
f 18/11/7 19/12/7 9/13/7 20/14/7
f 5/5/3 21/15/7 22/16/7 23/17/7 24/18/7 25/19/7 26/20/7 27/21/7 28/22/7 29/23/7 30/24/7 6/6/3
f 17/10/7 16/9/7 31/25/7 13/26/7
f 18/11/7 20/14/7 8/27/7 32/28/7
f 33/29/8 31/30/8 16/31/9 34/32/9
f 34/33/9 16/31/9 15/34/10 35/35/10
f 15/34/10 4/36/11 36/37/12 35/35/10
f 37/38/13 4/39/11 3/40/14 38/41/14
f 38/41/14 3/40/14 6/42/15 39/43/15
f 39/44/15 6/30/15 30/45/16 40/46/16
f 40/46/16 30/45/16 29/47/17 41/48/17
f 42/49/18 22/50/18 21/51/18 43/52/18
f 43/52/19 21/51/19 5/53/20 44/54/20
f 44/55/20 5/56/20 2/57/21 45/58/21
f 45/58/21 2/57/21 1/59/22 46/60/23
f 19/61/24 18/62/25 47/63/25 48/64/24
f 49/65/26 1/66/22 19/61/24 48/64/24
f 47/67/25 18/62/25 32/53/27 50/68/27
f 37/69/28 38/70/29 45/71/29 46/72/28
f 38/70/29 39/73/30 44/74/30 45/71/29
f 39/75/30 40/76/31 41/77/31 51/78/31 52/79/31 53/80/31 54/81/31 55/82/31 56/83/31 42/84/31 43/85/31 44/86/30
g suit_landmark_new_money_camera_collisions suit_landmark_new_money
f 57//6 58//6 59//6 60//6
f 61//4 62//4 63//4 64//4
f 65//7 66//7 64//7 67//7
f 59//7 68//7 69//7 70//7
f 68//7 58//7 61//7 66//7
g suit_landmark_money_front suit_landmark_new_money
f 19/12/7 1/1/1 4/4/1 15/8/7
