v 1.11876195027349 -0.00594507584590224 0
v 1.53894943837076 -0.10786953382194 3.07403085939586
v 0.473058562725782 -1.2994075063616 2.92258652113378
v 0.339887571178041 -0.897619690772416 0
v -1.16177658271651 -0.843896319772192 2.97793644021456
v -0.920357647164874 -0.557030294775969 0
v -1.1661261767149 0.830900238826871 2.98052886594087
v -0.920357647164874 0.545140143084144 0
v 0.42989144846797 1.35481567122042 2.99046622868627
v 0.339887571178041 0.885729539080611 0
v 2.76792735062587e-06 1.17384939804716e-06 1.79887086152872
v 1.60895970788943 1.17384939804716e-06 0.804478875735539
v 0.49719778062233 1.530211898214 0.804478875735539
v 1.30167632166057 -0.945720699097546 -0.804478875735538
v 1.30167632166057 0.945723046796342 -0.804478875735538
v -1.30167405350087 0.945725119310289 0.804478875735539
v -0.49719458184646 1.53021268984468 -0.804478875735538
v -1.30167606125056 -0.945720008181109 0.804478875735539
v -1.60895894549986 2.02786858618824e-06 -0.804478875735538
v 0.497194532015079 -1.53021060605168 0.804478875735539
v -0.497196206287488 -1.530209814333 -0.804478875735538
v -2.00569953299706e-06 1.17384939804716e-06 -1.79887086152872
v -1.54800008201599 -1.06559992046356 0.025000000372529
v 2.14800008201599 -1.06559992046356 0.025000000372529
v 2.14800008201599 2.86559992046356 0.025000000372529
v -1.54800008201599 2.86559992046356 0.025000000372529
v -1.24949190229962 0 3.08969883777033
v -1.24440628812401 0 0
v 1.50281882859341 0 0
v 1.49773321441779 0 3.08969883777033
v -0.471364934770728 0.167328848062581 3.12632604782612
v -0.350772377319116 0.135016169680213 3.48303059858094
v 0.441693000220047 -0.077324288261039 3.48303059858094
v 0.579513065879032 -0.114253063555182 3.14416127536386
v 1.50215730372612 -0.00594507584590076 2.78662383699792
v 1.30376440778215 -0.00594507584590076 3.16459229689918
v 0.397056474549343 -1.25392148229533 3.16459229689918
v 0.458363250959293 -1.4426043387695 2.78662383699792
v -1.0700277792905 -0.777236912189593 3.16459229689918
v -1.23053100367244 -0.89384933058507 2.78662383699792
v -1.0700277792905 0.765346760497792 3.16459229689918
v -1.23053100367244 0.88195917889324 2.78662383699792
v 0.397056474549343 1.2420313306035 3.16459229689918
v 0.458363250959293 1.4307141870777 2.78662383699792
v 1.04595143912786 -0.00594507584590172 0
v 1.30376440778215 -0.00594507584590076 2.97793644021456
v 0.397056474549343 -1.25392148229533 2.97793644021456
v 0.317387885864913 -1.00872677847125 0
v -1.0700277792905 -0.777236912189593 2.97793644021456
v -0.861452706278929 -0.625698251364868 0
v -1.0700277792905 0.765346760497792 2.97793644021456
v -0.861452706278929 0.613808099673041 0
v 0.397056474549343 1.2420313306035 2.97793644021456
v 0.317387885864913 0.996836626779451 0
v -1.24440628812401 0 3.49563559096814
v 1.50281882859341 0 3.49563559096814
vt 0.424472570419312 0
vt 0.406819134950638 1
vt 0.0588354170322418 0.950734317302704
vt 0.0454601272940636 0
vt 1.78326106071472 0
vt 1.79663622379303 0.950734317302704
vt 1.46208226680756 0.968739986419678
vt 1.43778216838837 0
vt 1.15513694286346 0.96958327293396
vt 1.18239486217499 0
vt 0.818715572357178 0.972815990447998
vt 0.819946050643921 0
vt 0 0
vt 1 0
vt 1 1
vt 0 1
vt -0.00125354155898094 0.794646978378296
vt 0.00165282096713781 -0.00169634295161813
vt 0.987418591976166 -0.00386763317510486
vt 0.984512209892273 0.792475700378418
vt -0.00421778438612819 0.0470616668462753
vt 0.147015020251274 1.03873252868652
vt 0.932641088962555 1.01125264167786
vt 1.03917455673218 0.0604135654866695
vt 1.01734375953674 0.0840153843164444
vt 0.891381442546844 1.03272926807404
vt 0.142592385411263 1.08017110824585
vt 0.0241599604487419 0.0974292904138565
vt 0.249999985098839 -5.09415176708217e-09
vt 0.249999985098839 0.999999940395355
vt 0.0328422300517559 0.999999940395355
vt 0.0351496562361717 -1.20256660185447e-09
vt 1.03514957427979 -1.20256660185447e-09
vt 1.03284227848053 0.999999940395355
vt 0.840567171573639 0.999999940395355
vt 0.841715037822723 5.09415176708217e-09
vt 0.659432828426361 0.999999940395355
vt 0.658284962177277 5.09415176708217e-09
vt 0.467157781124115 0.999999940395355
vt 0.464850336313248 -1.20256660185447e-09
vt 0.462393045425415 1.23341381549835
vt 0.400308102369308 1.336421251297
vt 0.332139909267426 1.25016009807587
vt 0.352094531059265 1.09384024143219
vt 0.432595402002335 1.08349049091339
vt 0.43912273645401 0.0487861819565296
vt 0.43912273645401 1.04878628253937
vt 0.00480710156261921 1.04878628253937
vt 0.00356742925941944 0.0487861819565296
vt 2.0035674571991 0.0487861819565296
vt 2.00480723381042 1.04878628253937
vt 1.62025690078735 1.04878628253937
vt 1.61965131759644 0.0487861819565296
vt 1.2579882144928 1.04878628253937
vt 1.25859367847443 0.0487861819565296
vt 0.873438239097595 1.04878628253937
vt 0.874677896499634 0.0487861819565296
vt 0 0.998677611351013
vt 1 0.998677611351013
vn 0.747344071542806 -0.652802199289352 -0.123798737201987
vn -0.26540585193842 -0.957064002872994 -0.116568555629567
vn -0.996672876864309 -0.00148502305257817 -0.0814921544049135
vn -0.286920333504619 0.949430218240821 -0.127510716854645
vn 0.777783380823189 0.620040145052787 -0.102971991522791
vn 0.308198808900555 0.223918818403675 0.924593887583614
vn 0.689152361706525 0.223918556939186 0.689151291236251
vn 0.425919800465656 0.586227382711044 0.689151492294006
vn 0.951056440057966 -0.309017229008623 3.16475140895476e-07
vn 0.924594025878472 -0.22391920097459 -0.308198116062934
vn 0.924594062569053 0.223918842309894 -0.308198266576323
vn -0.425918346088353 0.586227888368763 0.689151961010097
vn 7.9609489644258e-07 0.999999999999683 0
vn 0.262865965732796 0.809016794228966 -0.525731215275307
vn 0.0727563740363635 0.948535966044003 -0.308198038861462
vn -0.425325407786992 -0.309016496058451 0.850650987570453
vn -0.689151764444082 -0.223918228602025 0.689151995182006
vn -0.951056270276901 0.309017751540248 0
vn -0.688190853595238 0.500000480607914 -0.525730794627548
vn -0.879628417228118 0.362309259999943 -0.308197741268573
vn -4.08302899457717e-07 -0.724617162440169 0.689151629104213
vn -0.587785896404703 -0.809016526399628 0
vn -0.688191384385271 -0.499999750038355 -0.525730794627314
vn -0.616396712321738 -0.724616619541675 -0.308197741268407
vn 0.587785037568942 -0.809017150380681 0
vn 0.262865526975444 -0.80901690501153 -0.525731264177324
vn -0.308198461710024 0.223919181106738 -0.924593915474282
vn 0.425325025054594 -0.309017022792999 -0.850650987589187
vn 0 0 1
vn 0 -1 0
vn 0.258819045102539 0.965925826289063 0
vn -0.258819045102539 -0.965925826289063 0
vn 0.744657909048369 -0.541025639739187 0.390865521166186
vn -0.284434011265047 -0.87539787388316 0.390865521166191
vn -0.920447795566637 0 0.390865521166191
vn -0.284434011265047 0.87539787388316 0.390865521166191
vn 0.74465790904836 0.541025639739186 0.390865521166203
vn 0.80703990033123 -0.586348809387844 -0.0698689702429869
vn -0.308261811649202 -0.948732302852568 -0.0698689702429871
vn -0.997556177364055 0 -0.0698689702429861
vn -0.3082618116492 0.948732302852569 -0.0698689702429869
vn 0.807039900331227 0.586348809387849 -0.0698689702429844
g trashcan_full geom_wood l1 prop_trashcan_wood
f 1/1/1 2/2/1 3/3/1 4/4/1
f 4/5/2 3/6/2 5/7/2 6/8/2
f 6/8/3 5/7/3 7/9/3 8/10/3
f 8/10/4 7/9/4 9/11/4 10/12/4
f 10/12/5 9/11/5 2/2/5 1/1/5
g trashcancollisions geom_wood l1 prop_trashcan_wood
f 11//6 12//7 13//8
f 12//9 14//10 15//11
f 11//6 13//8 16//12
f 13//13 15//14 17//15
f 11//16 16//12 18//17
f 16//18 17//19 19//20
f 11//16 18//17 20//21
f 18//22 19//23 21//24
f 11//6 20//21 12//7
f 20//25 21//26 14//26
f 22//27 19//20 17//19
f 19//20 18//17 16//18
f 22//27 17//15 15//14
f 17//15 16//12 13//13
f 22//28 15//11 14//10
f 15//11 13//8 12//7
f 22//28 14//26 21//26
f 14//10 12//9 20//25
f 22//27 21//24 19//23
f 21//24 20//21 18//22
g o12 g15 l1 prop_trashcan_wood
f 23/13/29 24/14/29 25/15/29 26/16/29
g o5 lod_wood l2 prop_trashcan_wood
f 27/17/30 28/18/30 29/19/30 30/20/30
g metal_3d geom_metal l3 prop_trashcan_metal
f 31/21/31 32/22/31 33/23/31 34/24/31
f 34/25/32 33/26/32 32/27/32 31/28/32
f 35/29/33 36/30/33 37/31/33 38/32/33
f 38/33/34 37/34/34 39/35/34 40/36/34
f 40/36/35 39/35/35 41/37/35 42/38/35
f 42/38/36 41/37/36 43/39/36 44/40/36
f 44/40/37 43/39/37 36/30/37 35/29/37
f 36/41/29 43/42/29 41/43/29 39/44/29 37/45/29
f 45/46/38 46/47/38 47/48/38 48/49/38
f 48/50/39 47/51/39 49/52/39 50/53/39
f 50/53/40 49/52/40 51/54/40 52/55/40
f 52/55/41 51/54/41 53/56/41 54/57/41
f 54/57/42 53/56/42 46/47/42 45/46/42
g o7 geom_metal l3 prop_trashcan_metal
f 21//24 20//21 18//22
f 22//27 21//24 19//23
f 14//10 12//9 20//25
f 22//28 14//26 21//26
f 15//11 13//8 12//7
f 22//28 15//11 14//10
f 17//15 16//12 13//13
f 22//27 17//15 15//14
f 19//20 18//17 16//18
f 22//27 19//20 17//19
f 20//25 21//26 14//26
f 11//6 20//21 12//7
f 18//22 19//23 21//24
f 11//16 18//17 20//21
f 16//18 17//19 19//20
f 11//16 16//12 18//17
f 13//13 15//14 17//15
f 11//6 13//8 16//12
f 12//9 14//10 15//11
f 11//6 12//7 13//8
g o11 g14 l3 prop_trashcan_metal
f 23/13/29 24/14/29 25/15/29 26/16/29
g p36 o4 lod_metal l4 prop_trashcan_metal
f 55/58/30 28/13/30 29/14/30 56/59/30
