v -0.733041444140146 -0.0251786559243826 1.86190640212515
v -0.144063553260776 -0.0251786559243826 1.86190640212515
v -0.144063553260776 -0.0251786559243826 2.45088429300452
v -0.733041444140146 -0.0251786559243826 2.45088429300452
v -0.051138251435544 -0.0859957152931567 1.93508763175457
v 0.490136206409342 -0.0859957152931567 1.93508763175457
v 0.490136206409342 -0.0859957152931567 2.47636208959945
v -0.051138251435544 -0.0859957152931567 2.47636208959945
v 0.0738921795617548 -4.98732999343332e-17 1.4017929859239
v 0.339486267402459 -4.98732999343332e-17 1.4017929859239
v 0.339486267402459 5.03069808033274e-17 2.10838816104825
v 0.0738921795617548 5.03069808033274e-17 2.10838816104825
v -0.119611701710867 -0.00235027519532969 1.62981451563868
v -0.21151698760246 0.00042871174637967 1.90128812713366
v -0.521936807614524 0.00235027519532969 1.7961782339576
v -0.430031521722932 -0.00042871174637967 1.52470462246262
v -0.0178334174566338 3.03576608295941e-17 1.42866933085172
v 0.166724551908509 3.03576608295941e-17 1.6196629837299
v -0.341401192532158 -2.94902990916057e-17 2.11066702581676
v -0.5259591618973 -2.94902990916057e-17 1.91967337293858
v -0.119633803559529 -8.97719398817998e-17 1.40216331166597
v 0.0800701262011848 -8.97719398817998e-17 1.40216331166597
v 0.0800701262011848 9.06393016197882e-17 2.6122146353001
v -0.119633803559529 9.06393016197882e-17 2.6122146353001
v -0.331955821757436 -0.0571989948692394 2.25633975640938
v 0.19879341552773 -0.0571989948692394 2.35977308606901
v 0.095360085868099 -0.0571989948692394 2.89052232335418
v -0.435389151417068 -0.0571989948692394 2.78708899369455
v -0.197223965279772 0.0114893255996663 0.00935579969511677
v -0.13173428374253 -0.137731536420617 0.00935579969511677
v -0.138778815994819 0.0127090976551955 0.0660505577112825
v -0.0912697921289241 -0.095542027054661 0.0643520575718042
v 0.0200890162964486 -0.196938361549485 0.00935579969511677
v 0.0188692569531021 -0.138493199552349 0.0643520575718042
v 0.169309903741097 -0.131448660943969 0.00935579969511677
v 0.127120394375141 -0.0909841629742717 0.0643520575718042
v 0.228516741582148 0.020374645451101 0.00935579969511677
v 0.170071579585011 0.0191548733955719 0.0643520575718042
v 0.163027034620541 0.169595482047019 0.00935579969511677
v 0.122562543006934 0.127406023529793 0.0643520575718042
v 0.0112037345815617 0.228802332600252 0.00935579969511677
v 0.0124234812127257 0.170357183315299 0.0643520575718042
v -0.138017152863086 0.16331265106301 0.00935579969511677
v -0.0958276689214959 0.122848172161587 0.0643520575718042
v -0.0630991823757698 0.0142885704510896 0.0983984860030681
v -0.0388730294006643 -0.0409115622318421 0.0983984860030681
v 0.0172897936913449 -0.0628135341528435 0.0983984860030681
v 0.0724900058254178 -0.0385874733410618 0.0983984860030681
v 0.0943918887611411 0.0175754387362255 0.0983984860030681
v 0.0701657548543095 0.0727755714191572 0.0983984860030681
v 0.0140029126940264 0.0946775433401586 0.0983984860030681
v -0.0411973057961378 0.0704514920625138 0.0983984860030681
v -0.361064091515866 -0.00271669098468747 0.957767249684548
v -0.241782631401816 -0.274504298737424 0.957767249684548
v 0.0347450695686584 -0.382342404635111 0.957767249684548
v 0.306532728170125 -0.263060817399235 0.957767249684548
v 0.414370808643447 0.0134668327225089 0.957767249684548
v 0.295089246831936 0.285254491323976 0.957767249684548
v 0.0185615967101923 0.393092597221662 0.957767249684548
v -0.253226112740005 0.273811009985787 0.957767249684548
v -0.0510061530001528 -0.0755949854202321 1.28766842215171
v -0.0855146692683628 0.00303414787034285 1.28766842215171
v -0.213188152988656 -0.244690874560603 1.10520894005467
v -0.319763405244035 -0.00185472873236383 1.10520894005467
v 0.0289942688501758 -0.106792867977965 1.28766842215171
v 0.0338831327406999 -0.341041692938914 1.10520894005467
v 0.107623389428568 -0.0722843103951611 1.28766842215171
v 0.276719253144574 -0.234466338986075 1.10520894005467
v 0.358947396007555 0.0123101130925988 1.10540196183503
v 0.138821297410666 0.00771609556493926 1.28766842215171
v 0.266494819267507 0.255441067147155 1.10520894005467
v 0.104312781142456 0.0863452161433316 1.28766842215171
v 0.024312333867762 0.117543111413247 1.28766842215171
v 0.0194235462503334 0.351791885525466 1.10520894005467
v -0.054316799422813 0.083034582432854 1.28766842215171
v -0.223412637714453 0.245216582421357 1.10520894005467
v -0.18212512126378 -0.21230356392717 1.51597983155383
v -0.274897434820193 -0.000918349363190612 1.51597983155383
v -0.0926949930550185 -0.11659837187796 1.394115561031
v -0.140456341033032 0.00276072153513314 1.39423485215237
v 0.0329467533715267 -0.296175697090708 1.51597983155383
v 0.0285909621455004 -0.161163076286731 1.39418735943823
v 0.244332044208602 -0.203403383534294 1.51597983155383
v 0.141798198191753 -0.105713044340508 1.39433624452066
v 0.328204050250314 0.0116685038131946 1.51597983155383
v 0.192228138386632 0.00970391226785788 1.39419386807572
v 0.235431774830448 0.223053781938087 1.51597983155383
v 0.141273718962682 0.127344458429537 1.39417637611248
v 0.0203598874829589 0.306925864252895 1.51597983155383
v 0.0214954476849571 0.178820039202903 1.39405118653839
v -0.191025377929751 0.214153576120846 1.51597983155383
v -0.0977164958586291 0.124008565612264 1.394115561031
v -0.205155299389154 0.000537208254915582 1.51983294494392
v -0.133839205071417 -0.16195925299418 1.51983294494392
v 0.0314912084656031 -0.226433536235304 1.51983294494392
v 0.193987682426881 -0.155117454629749 1.51983294494392
v 0.25846194024364 0.0102129716194536 1.51983294494392
v 0.18714583321372 0.172709420156367 1.51983294494392
v 0.0218154196766999 0.237183728821856 1.51983294494392
v -0.140681054284578 0.165867621791936 1.51983294494392
v 0.0266533204272428 0.0053750899371846 1.14694191680747
v -0.418865399097833 -0.418865399097833 -9.30068020594439e-17
v 0.418865399097833 -0.418865399097833 -9.30068020594439e-17
v 0.418865399097833 0.418865399097833 9.30068020594439e-17
v -0.418865399097833 0.418865399097833 9.30068020594439e-17
v 0.246581380448629 0.375891576601764 0
v -0.187460909991127 0.375891670467347 0
v -0.187460909991127 0.375891670467347 2.27405267750497
v 0.246581380448629 0.375891576601764 2.27405267750497
v -0.404482094321664 6.46773296920117e-08 0
v -0.404482094321664 6.46773296920117e-08 2.27405267750497
v -0.187461019500973 -0.375891607890292 0
v -0.187461019500973 -0.375891607890292 2.27405267750497
v 0.246581255294519 -0.375891639178819 0
v 0.246581255294519 -0.375891639178819 2.27405267750497
v 0.463602392692266 0 0
v 0.463602392692266 0 2.27405267750497
v 0.0295601530963667 0 0
v 0.0295601530963667 0 2.27405267750497
vt 0 0
vt 1 0
vt 1 1
vt 0 1
vt 0.250000059604645 -1.61953579436158e-08
vt 0.375000059604645 -1.61953579436158e-08
vt 0.250000059604645 0.0376303344964981
vt 0.375000059604645 0.0365029573440552
vt 0.500000059604645 -1.61953579436158e-08
vt 0.500000059604645 0.0365029573440552
vt 0.625000059604645 -1.61953579436158e-08
vt 0.625000059604645 0.0365029573440552
vt 0.750000059604645 -1.61953579436158e-08
vt 0.750000059604645 0.0365029573440552
vt 0.875000059604645 -1.61953579436158e-08
vt 0.875000059604645 0.0365029573440552
vt 1 -1.61953579436158e-08
vt 1 0.0365029573440552
vt 2.98023223876953e-08 -1.61953579436158e-08
vt 0.125000059604645 -1.61953579436158e-08
vt 2.98023223876953e-08 0.0365029573440552
vt 0.125000059604645 0.0365029573440552
vt 0.250000059604645 0.0591008178889751
vt 0.375000059604645 0.0591008178889751
vt 0.500000059604645 0.0591008178889751
vt 0.625000059604645 0.0591008178889751
vt 0.750000059604645 0.0591008178889751
vt 0.875000059604645 0.0591008178889751
vt 1 0.0591008178889751
vt 2.98023223876953e-08 0.0591008178889751
vt 0.125000059604645 0.0591008178889751
vt 0.250000059604645 0.629494488239288
vt 0.375000059604645 0.629494488239288
vt 0.500000059604645 0.629494488239288
vt 0.625000059604645 0.629494488239288
vt 0.750000059604645 0.629494488239288
vt 0.875000059604645 0.629494488239288
vt 1 0.629494488239288
vt 0.125000059604645 0.629494488239288
vt 2.98023223876953e-08 0.629494488239288
vt 0.375000059604645 0.84846168756485
vt 0.250000059604645 0.84846168756485
vt 0.375000059604645 0.727356791496277
vt 0.250000059604645 0.727356791496277
vt 0.500000059604645 0.84846168756485
vt 0.500000059604645 0.727356791496277
vt 0.625000059604645 0.84846168756485
vt 0.625000059604645 0.727356791496277
vt 0.750000059604645 0.727484881877899
vt 0.750000059604645 0.84846168756485
vt 0.875000059604645 0.727356791496277
vt 0.875000059604645 0.84846168756485
vt 1 0.84846168756485
vt 1 0.727356791496277
vt 0.125000059604645 0.84846168756485
vt 2.98023223876953e-08 0.84846168756485
vt 0.125000059604645 0.727356791496277
vt 2.98023223876953e-08 0.727356791496277
vt 0.375000059604645 1
vt 0.250000059604645 1
vt 0.375000059604645 0.919114351272583
vt 0.250000059604645 0.91919356584549
vt 0.500000059604645 1
vt 0.500000059604645 0.919162094593048
vt 0.625000059604645 1
vt 0.625000059604645 0.919260919094086
vt 0.750000059604645 1
vt 0.750000059604645 0.919166386127472
vt 0.875000059604645 1
vt 0.875000059604645 0.919154763221741
vt 1 0.919071674346924
vt 2.98023223876953e-08 1
vt 2.98023223876953e-08 0.919071674346924
vt 0.125000059604645 1
vt 0.125000059604645 0.919114351272583
vt 0.853553354740143 0.146446585655212
vt 1 0.494881302118301
vt 0.76500791311264 0.236956551671028
vt 0.856216728687286 0.494881302118301
vt 0.853553354740143 0.853553295135498
vt 0.761078774929047 0.757149457931519
vt 0.501234710216522 1
vt 0.501234591007233 0.869968473911285
vt 0.14644667506218 0.853553295135498
vt 0.238921478390694 0.761078596115112
vt 6.60994317058794e-08 0.494881302118301
vt 0.130031585693359 0.494881302118301
vt 0.14644667506218 0.146446585655212
vt 0.234992325305939 0.236956864595413
vt 0.501234591007233 -5.58221806556958e-08
vt 0.501234710216522 0.124137721955776
vt 0.501234829425812 0.494881242513657
vn 0 -1 0
vn -0.00866275281112829 -0.999935807132458 0.0073033093932609
vn -0.691121641898577 0.0833311922405454 0.717918371752098
vn -0.541258820470784 -0.431341438385126 0.721791834807257
vn -0.549649805225072 -0.0302149456726291 0.834848578290723
vn -0.365576903096021 -0.414431564409692 0.833426665246354
vn -0.0799332155394129 -0.683983735945818 0.725104771750353
vn 0.0298543703540765 -0.5530440279031 0.832616970624234
vn 0.427128136492487 -0.540170755193823 0.725104896032147
vn 0.412171472485663 -0.369951066593239 0.832616890049395
vn 0.683983723178878 -0.0799332310680952 0.725104782081442
vn 0.553044087311412 0.029854492260204 0.832616926792731
vn 0.540170858750844 0.427128280944233 0.725104733796436
vn 0.369950867080107 0.41217153380854 0.832616948340948
vn 0.0799332676671878 0.683983878322387 0.725104631701599
vn -0.0298543732634701 0.553044151987581 0.832616888100033
vn -0.427128211505509 0.540170898805586 0.725104744860817
vn -0.412072685880181 0.374179266048978 0.830774324597566
vn -0.396613196748775 -0.0694488837404549 0.915355026594557
vn -0.242673396726443 -0.334708512835615 0.910538211145815
vn 0.0650784865387191 -0.408270919834568 0.91053810826745
vn 0.334708495621533 -0.242673536622373 0.910538180189035
vn 0.408270484794167 0.0650788962911454 0.910538274046436
vn 0.242673376273812 0.334708509369262 0.910538217870988
vn -0.0650784754527356 0.408271047029611 0.910538052027532
vn -0.325876072793644 0.243835450413055 0.913427095231171
vn -0.939727656200479 0.110300031857662 -0.323644612413298
vn -0.73992491696093 -0.58419760091198 -0.333503043987679
vn -0.999311071414598 -0.019429440400594 -0.0316208695947399
vn -0.693001832228285 -0.719954670397222 -0.0375996423050519
vn -0.109468423154276 -0.932397344789962 -0.344458786737607
vn 0.0189270141428406 -0.998900032766471 -0.0429009635647057
vn 0.67523028413303 -0.647622015240691 -0.353057769727865
vn 0.724150939671192 -0.685159476326492 0.0784978252777548
vn 0.927018197179085 0.148274789483905 -0.344458776782276
vn 0.995391771272705 -0.0612710157520939 -0.0737637059216368
vn 0.552817634525989 0.763654600451145 -0.333503094688628
vn 0.788704249309271 0.614304323899553 -0.0239959321513413
vn -0.149411760479222 0.934307368458557 -0.323644661742699
vn 0.115768948583814 0.99278209362545 -0.0313251515633435
vn -0.682903568436689 0.654981584430768 -0.323483910377314
vn -0.677389894641676 0.732028111816529 -0.0726482907415289
vn -0.362769658126948 -0.500351946514925 0.786159083621873
vn -0.610319381268965 -0.0972852652513457 0.786158908880669
vn -0.555350212625374 -0.612093908543318 0.562962865969964
vn -0.8255077201672 -0.0401240349264521 0.562962756996919
vn 0.0972853998557504 -0.610319213041513 0.786159022823814
vn 0.0401241262389633 -0.825507606095253 0.562962917759637
vn 0.443427854453371 -0.425297331017129 0.788982837661623
vn 0.559380486280889 -0.516042159722163 0.648686334800913
vn 0.87602362242745 0.0182827258218063 0.481921523575793
vn 0.62601556160392 0.0130649833930789 0.779701111220619
vn 0.566634925782608 0.602384226756782 0.562190451927078
vn 0.362769656078196 0.500351969337156 0.786159070042022
vn -0.097285287961233 0.610319337949564 0.786158939700558
vn -0.0401240386431315 0.825507671403846 0.562962828236789
vn -0.50035208977334 0.36276960072009 0.786159018934998
vn -0.6120940485938 0.555350102310973 0.562962822519607
vn -0.397082272732685 -0.554028367811186 -0.731695453274051
vn -0.670777015344913 -0.099312805741899 -0.734979701965056
vn -0.571176319849886 -0.508076403913913 -0.644682851818355
vn -0.806053180158403 0.0249572724320345 -0.591316670921156
vn 0.113727522262804 -0.658194695822328 -0.744208165146901
vn -0.0755263682744337 -0.790652845907595 -0.607588549063835
vn 0.470110389549231 -0.451164555436679 -0.75858207568825
vn 0.578325050557823 -0.554176336836556 -0.598689171096077
vn 0.660403716570846 -0.0857816143441434 -0.745994936832634
vn 0.786891452535493 0.113082190662851 -0.606641788934353
vn 0.529077147574518 0.417837478903959 -0.738572415635458
vn 0.474823455647096 0.63675216200821 -0.607527258767226
vn 0.0869038736522014 0.68267045088826 -0.725540331220989
vn -0.119379191370109 0.777611582458921 -0.617307731600335
vn -0.498516045002172 0.4671974735012 -0.730211115794253
vn -0.582293551843196 0.528846154803471 -0.617459281274011
vn -0.0552971835760892 0.00646226036905231 0.998449027582017
vn -0.043670531819091 -0.0345315137507341 0.998449026845497
vn -0.0549794132795851 -0.00876376412087731 0.998449027519115
vn -0.0326794164169372 -0.0450732296516383 0.998449027097237
vn -0.00646227552415298 -0.0552971720857835 0.998449028120297
vn 0.00876375249617634 -0.0549793926164616 0.99844902875896
vn 0.0345314963069314 -0.0436705050945294 0.998449028617682
vn 0.0450732295014181 -0.0326793960933209 0.998449027769214
vn 0.0552971919157968 -0.0064622591577074 0.998449027127978
vn 0.0549794132200229 0.00876375613749183 0.998449027592468
vn 0.043670517767953 0.0345314953825572 0.998449028095337
vn 0.0326793978022446 0.0450732182911053 0.99844902821935
vn 0.00646226840504259 0.0552971727569789 0.998449028129201
vn -0.00876375075986461 0.0549794018975625 0.998449028263139
vn -0.0345315049488536 0.0436705140402275 0.99844902792753
vn -0.0450732316862021 0.0326793945184187 0.998449027722132
vn 0.849037151711144 0.0177196431787675 0.528035916638107
vn 0.587830325752104 0.612889557542053 0.528035887399788
vn 0.745286204336923 0.327089541469622 0.580999918662864
vn -0.0177195116815806 0.849037147829008 0.528035927292973
vn -0.61288955768708 0.587830285824524 0.528035931680405
vn -0.849037151215383 -0.01771966693316 0.528035916638105
vn -0.587830350990491 -0.612889558768942 0.528035857879374
vn 0.0177195084525449 -0.849037134643384 0.528035948602699
vn 0.61288960814706 -0.587830232659997 0.528035932296503
vn 0.348471887296157 -0.794006662397228 0.498117218968658
vn -0.613159916968684 -0.635436811269256 -0.469313301651377
vn 0.157128906105191 -0.886394649911989 -0.435448081260657
vn 0.658750820172811 -0.631504208916604 -0.408961845460262
vn 0.894620856056393 -0.119352850300074 -0.430590781408724
vn 0.700708457700638 0.550895321714877 -0.453345344984875
vn 0.114283151632939 0.867881191716518 -0.483447616932341
vn -0.640225077568311 0.595251698809283 -0.485579308782112
vn -0.888645532537845 -0.0189944593622791 -0.458201187268283
vn 0 0 1
vn 0.500000171999506 0.866025304480455 0
vn 1.99681949197835e-07 0.99999999999998 0
vn -0.866025333378226 0.500000121947118 0
vn -0.999999999999989 1.47712698370589e-07 0
vn -0.86602549622113 -0.499999839894919 0
vn -6.65606521010885e-08 -0.999999999999998 0
vn 0.866025399898532 -0.500000006730587 0
vn 0.999999999999996 -8.88140813109751e-08 0
vn 0 0 -1
vn 0 2.01337869043523e-07 0.99999999999998
vn 0 6.7112623014509e-08 0.999999999999998
g pPlane4 group2 group3
f 1/1/1 2/2/1 3/3/1 4/4/1
g pPlane5 group2 group3
f 5/1/1 6/2/1 7/3/1 8/4/1
g pPlane8 group2 group3
f 9/1/1 10/2/1 11/3/1 12/4/1
g pPlane10 group2 group3
f 13/1/2 14/4/2 15/3/2 16/2/2
g pPlane12 group2 group3
f 17/1/1 18/2/1 19/3/1 20/4/1
g pPlane14 group2 group3
f 21/1/1 22/2/1 23/3/1 24/4/1
g pPlane15 group2 group3
f 25/1/1 26/2/1 27/3/1 28/4/1
g pSphere3 group3
f 29/5/3 30/6/4 31/7/5
f 31/7/5 30/6/4 32/8/6
f 30/6/4 33/9/7 32/8/6
f 32/8/6 33/9/7 34/10/8
f 33/9/7 35/11/9 34/10/8
f 34/10/8 35/11/9 36/12/10
f 35/11/9 37/13/11 36/12/10
f 36/12/10 37/13/11 38/14/12
f 37/13/11 39/15/13 38/14/12
f 38/14/12 39/15/13 40/16/14
f 39/15/13 41/17/15 40/16/14
f 40/16/14 41/17/15 42/18/16
f 41/19/15 43/20/17 42/21/16
f 42/21/16 43/20/17 44/22/18
f 43/20/17 29/5/3 44/22/18
f 44/22/18 29/5/3 31/7/5
f 31/7/5 32/8/6 45/23/19
f 45/23/19 32/8/6 46/24/20
f 32/8/6 34/10/8 46/24/20
f 46/24/20 34/10/8 47/25/21
f 34/10/8 36/12/10 47/25/21
f 47/25/21 36/12/10 48/26/22
f 36/12/10 38/14/12 48/26/22
f 48/26/22 38/14/12 49/27/23
f 38/14/12 40/16/14 49/27/23
f 49/27/23 40/16/14 50/28/24
f 40/16/14 42/18/16 50/28/24
f 50/28/24 42/18/16 51/29/25
f 42/21/16 44/22/18 51/30/25
f 51/30/25 44/22/18 52/31/26
f 44/22/18 31/7/5 52/31/26
f 52/31/26 31/7/5 45/23/19
f 45/23/27 46/24/28 53/32/29
f 53/32/29 46/24/28 54/33/30
f 46/24/28 47/25/31 54/33/30
f 54/33/30 47/25/31 55/34/32
f 47/25/31 48/26/33 55/34/32
f 55/34/32 48/26/33 56/35/34
f 49/27/35 57/36/36 48/26/33
f 48/26/33 57/36/36 56/35/34
f 50/28/37 58/37/38 49/27/35
f 49/27/35 58/37/38 57/36/36
f 51/29/39 59/38/40 50/28/37
f 50/28/37 59/38/40 58/37/38
f 52/31/41 60/39/42 51/30/39
f 51/30/39 60/39/42 59/40/40
f 52/31/41 45/23/27 60/39/42
f 60/39/42 45/23/27 53/32/29
f 61/41/43 62/42/44 63/43/45
f 63/43/45 62/42/44 64/44/46
f 65/45/47 61/41/43 66/46/48
f 66/46/48 61/41/43 63/43/45
f 67/47/49 65/45/47 68/48/50
f 68/48/50 65/45/47 66/46/48
f 69/49/51 70/50/52 68/48/50
f 68/48/50 70/50/52 67/47/49
f 69/49/51 71/51/53 70/50/52
f 70/50/52 71/51/53 72/52/54
f 73/53/55 72/52/54 74/54/56
f 74/54/56 72/52/54 71/51/53
f 75/55/57 73/56/55 76/57/58
f 76/57/58 73/56/55 74/58/56
f 62/42/44 75/55/57 64/44/46
f 64/44/46 75/55/57 76/57/58
f 77/59/59 78/60/60 79/61/61
f 79/61/61 78/60/60 80/62/62
f 81/63/63 77/59/59 82/64/64
f 82/64/64 77/59/59 79/61/61
f 83/65/65 81/63/63 84/66/66
f 84/66/66 81/63/63 82/64/64
f 83/65/65 84/66/66 85/67/67
f 85/67/67 84/66/66 86/68/68
f 85/67/67 86/68/68 87/69/69
f 87/69/69 86/68/68 88/70/70
f 87/69/69 88/70/70 89/3/71
f 89/3/71 88/70/70 90/71/72
f 89/72/71 90/73/72 91/74/73
f 91/74/73 90/73/72 92/75/74
f 78/60/60 91/74/73 80/62/62
f 80/62/62 91/74/73 92/75/74
f 78/76/75 77/77/76 93/78/77
f 93/78/77 77/77/76 94/79/78
f 77/77/76 81/80/79 94/79/78
f 94/79/78 81/80/79 95/81/80
f 81/80/79 83/82/81 95/81/80
f 95/81/80 83/82/81 96/83/82
f 83/82/81 85/84/83 96/83/82
f 96/83/82 85/84/83 97/85/84
f 85/84/83 87/86/85 97/85/84
f 97/85/84 87/86/85 98/87/86
f 87/86/85 89/88/87 98/87/86
f 98/87/86 89/88/87 99/89/88
f 89/88/87 91/90/89 99/89/88
f 99/89/88 91/90/89 100/91/90
f 91/90/89 78/76/75 100/91/90
f 100/91/90 78/76/75 93/78/77
f 93/78/91 94/79/92 101/92/93
f 94/79/92 95/81/94 101/92/93
f 95/81/94 96/83/95 101/92/95
f 96/83/95 97/85/96 101/92/95
f 97/85/96 98/87/97 101/92/97
f 98/87/97 99/89/98 101/92/97
f 99/89/98 100/91/99 101/92/100
f 100/91/99 93/78/91 101/92/93
f 54/33/30 55/34/32 63/43/45
f 63/43/45 55/34/32 66/46/48
f 55/34/32 56/35/34 66/46/48
f 66/46/48 56/35/34 68/48/50
f 57/36/36 69/49/51 56/35/34
f 56/35/34 69/49/51 68/48/50
f 57/36/36 58/37/38 69/49/51
f 69/49/51 58/37/38 71/51/53
f 58/37/38 59/38/40 71/51/53
f 71/51/53 59/38/40 74/54/56
f 59/40/40 60/39/42 74/58/56
f 74/58/56 60/39/42 76/57/58
f 60/39/42 53/32/29 76/57/58
f 76/57/58 53/32/29 64/44/46
f 53/32/29 54/33/30 64/44/46
f 64/44/46 54/33/30 63/43/45
f 79/61/61 61/41/101 82/64/64
f 82/64/64 61/41/101 65/45/102
f 82/64/64 65/45/102 84/66/66
f 84/66/66 65/45/102 67/47/103
f 86/68/68 84/66/66 70/50/104
f 70/50/104 84/66/66 67/47/103
f 88/70/70 86/68/68 72/52/105
f 72/52/105 86/68/68 70/50/104
f 90/71/72 88/70/70 73/53/106
f 73/53/106 88/70/70 72/52/105
f 92/75/74 90/73/72 75/55/107
f 75/55/107 90/73/72 73/56/106
f 92/75/74 75/55/107 80/62/62
f 80/62/62 75/55/107 62/42/108
f 79/61/61 80/62/62 61/41/101
f 61/41/101 80/62/62 62/42/108
g pPlane16 group3
f 102/1/109 103/2/109 104/3/109 105/4/109
g tube_collision group3
f 106//110 107//111 108//111 109//110
f 107//112 110//113 111//113 108//112
f 110//113 112//114 113//114 111//113
f 112//115 114//115 115//115 113//115
f 114//116 116//117 117//117 115//116
f 116//117 106//110 109//110 117//117
f 107//118 106//118 118//118
f 110//118 107//118 118//118
f 112//118 110//118 118//118
f 114//118 112//118 118//118
f 116//118 114//118 118//118
f 106//118 116//118 118//118
f 109//109 108//119 119//120
f 108//119 111//119 119//120
f 111//119 113//109 119//120
f 113//109 115//109 119//120
f 115//109 117//109 119//120
f 117//109 109//109 119//120
