v 4.56288080639534 -14.9026530989908 13.8780460439202
v 4.56288220261334 -14.9027530892407 13.8780460439202
v 4.56289161252711 -14.902752957845 13.8781456001142
v 4.56289021630911 -14.902652967595 13.8781456001142
v 4.56299115901681 -14.9027515678235 13.8781361892831
v 4.56298976279881 -14.9026515775735 13.8781361892831
v 4.56298174910304 -14.9027516992192 13.8780366330891
v 4.56298035288504 -14.9026517089692 13.8780366330891
vn -0.995464921214283 -0.0139002156885904 0.0941083133185005
vn 0.094099140017427 0.00131395724196649 0.995561964603081
vn 0.995464921214283 0.0139002156885904 -0.0941083133185005
vn -0.094099140017427 -0.00131395724196649 -0.995561964603081
vn 0.0139621803391538 -0.999902524009304 0
vn -0.0139621803391538 0.999902524009304 0
g pCube1 camera1 flyover hole18
f 1//1 2//1 3//1 4//1
f 4//2 3//2 5//2 6//2
f 6//3 5//3 7//3 8//3
f 8//4 7//4 2//4 1//4
f 2//5 7//5 5//5 3//5
f 8//6 1//6 4//6 6//6
