v -0.002008352594895 0.0127478847353477 0.00115588560600718
v -0.002008352594895 0.0127478847353477 -0.00493247007705439
v 0.00249612030238304 0.0113368973018616 -0.00493257220923297
v 0.00249612030238304 0.0113368973018616 0.000446017086384603
v -0.002008352594895 -0.0119053198909509 -0.00493247007705439
v -0.002008352594895 -0.0119053198909509 0.00115588798117412
v 0.00249612030238304 -0.0104943285463989 0.000446019461551546
v 0.00249612030238304 -0.0104943285463989 -0.00493257220923297
v -0.002008352594895 -0.00468456526128013 0.00992613491668105
v 0.00249612030238304 -0.00410011121294317 0.00821235696014304
v -0.002008352594895 0.00552713401674286 0.00992613491668105
v 0.00249612030238304 0.0049426799684059 0.00821236171047692
v 0.00384462943540158 0.0104173900574211 -0.000207830745704496
v 0.00384462943540158 0.0104173900574211 -0.00493263871390739
v 0.00712322516078398 0.00658458455653954 -0.00493291185810592
v 0.00712322516078398 0.00658458455653954 -0.00194486396178802
v 0.00384462943540158 -0.00957481739089246 -0.00493263871390739
v 0.00384462943540158 -0.00957481739089246 -0.000207830745704496
v 0.00712322516078398 -0.00574201971214274 -0.00194486396178802
v 0.00712322516078398 -0.00574201580107681 -0.00493291185810592
v 0.00384462943540158 -0.00371923596840205 0.00473621463206722
v 0.00623715361898027 -0.00490287313936889 0.00244025950596545
v 0.00384462943540158 0.00456180472386478 0.00473621463206722
v 0.00623715361898027 0.00574544189483162 0.00244025950596545
vt 0.0111867152154446 0.206959664821625
vt 0.0386765971779823 0.00917321443557739
vt 0.225862354040146 0.0338990092277527
vt 0.189916446805 0.196764051914215
vt 0.990086734294891 0.934047222137451
vt 0.793078064918518 0.967030227184296
vt 0.75428032875061 0.801868975162506
vt 0.960210025310516 0.747570872306824
vt 0.419310003519058 0.87376606464386
vt 0.472925782203674 0.747790515422821
vt 0.107239611446857 0.598351895809174
vt 0.257548600435257 0.512211680412292
vt 0.250497549772263 0.191455483436584
vt 0.300254791975021 0.0519026517868042
vt 0.514430999755859 0.122259557247162
vt 0.443799257278442 0.215328395366669
vt 0.940205097198486 0.673795342445374
vt 0.784612536430359 0.73775839805603
vt 0.734417259693146 0.510563969612122
vt 0.868159413337708 0.478228956460953
vt 0.552735447883606 0.650298237800598
vt 0.555807530879974 0.528798699378967
vt 0.335607558488846 0.439768016338348
vt 0.452461898326874 0.404667913913727
vn -0.328658968837148 -0.889474029100995 -0.317520446204249
vn -0.29891952069757 -0.954278324256574 0
vn -0.435872225883168 -0.900008557016906 0
vn -0.543092218916186 -0.79435451995364 -0.272124490595602
vn -0.298920141631968 0.954278129753965 0
vn -0.328659692773124 0.889473723104775 -0.317520554062893
vn -0.543093027677491 0.794353959649625 -0.27212451208419
vn -0.435873378554154 0.900007998779893 0
vn -0.370838927420735 0.398840334966874 -0.838692361425183
vn -0.686689138875079 0.324523610524197 -0.650494006708242
vn -0.370838683432124 -0.398840392445648 -0.838692441973892
vn -0.686689057848421 -0.324523637464795 -0.650494078803079
vn -0.722609717798352 -0.650815358894459 -0.232969020194666
vn -0.667475913645242 -0.744631388475835 0
vn -0.938058965907664 -0.346475650631098 2.90140972856597e-08
vn -0.92070631666239 -0.341813403604701 -0.188317486108285
vn -0.66747626006576 0.744631077949745 1.62478428785263e-07
vn -0.722609847630841 0.650815236477542 -0.232968959468022
vn -0.920706194850785 0.341813731290728 -0.188317486879202
vn -0.938058825676575 0.346476030296822 2.00706192930751e-07
vn -0.810047103158875 0.268501144887706 -0.521278069611514
vn -0.832313879292781 0.217297116577936 -0.509936828895028
vn -0.810047181656683 -0.268501027447823 -0.521278008119974
vn -0.832313991989432 -0.217296967077468 -0.509936708658583
g vertex
f 1/1/1 2/2/2 3/3/3 4/4/4
f 5/5/5 6/6/6 7/7/7 8/8/8
f 6/6/6 9/9/9 10/10/10 7/7/7
f 9/9/9 11/11/11 12/12/12 10/10/10
f 11/11/11 1/1/1 4/4/4 12/12/12
f 13/13/13 14/14/14 15/15/15 16/16/16
f 17/17/17 18/18/18 19/19/19 20/20/20
f 18/18/18 21/21/21 22/22/22 19/19/19
f 21/21/21 23/23/23 24/24/24 22/22/22
f 23/23/23 13/13/13 16/16/16 24/24/24
f 16/16/16 15/15/15 20/20/20 19/19/19
f 24/24/24 16/16/16 19/19/19 22/22/22
f 4/4/4 13/13/13 23/23/23 12/12/12
f 13/13/13 4/4/4 3/3/3 14/14/14
f 17/17/17 8/8/8 7/7/7 18/18/18
f 18/18/18 7/7/7 10/10/10 21/21/21
f 21/21/21 10/10/10 12/12/12 23/23/23
