v 0.972113317059607 0.706281713623092 0.00419507968166764
v 0.371314153014079 1.14278777956686 0.00419507968166764
v 0.371314153014079 1.14278777956686 2.44506537142951
v 0.972113317059607 0.706281713623092 2.44506537142951
v -0.371314323718671 1.14278769421457 0.00419507968166764
v -0.371314323718671 1.14278769421457 2.44506537142951
v -0.972113402411903 0.706281585594648 0.00419507968166764
v -0.972113402411903 0.706281585594648 2.44506537142951
v -1.20159815738646 -5.79424740321579e-08 0.00419507968166764
v -1.20159815738646 -5.79424740321579e-08 2.44506537142951
v -0.972113402411903 -0.706281713623092 0.00419507968166764
v -0.972113402411903 -0.706281713623092 2.44506537142951
v -0.371314281042523 -1.14278777956686 0.00419507968166764
v -0.371314281042523 -1.14278777956686 2.44506537142951
v 0.371314281042523 -1.14278777956686 0.00419507968166764
v 0.371314281042523 -1.14278777956686 2.44506537142951
v 0.972113402411903 -0.706281670946944 0.00419507968166764
v 0.972113402411903 -0.706281670946944 2.44506537142951
v 1.20159815738646 0 0.00419507968166764
v 1.20159815738646 0 2.44506537142951
v -0.170494390500907 0.315538753471366 1.01063136219038
v -0.395809579128729 0.732535909147755 1.78700899025834
v 0.395809579128729 0.732535311681684 1.78700899025834
v 0.170494390500907 0.315538753471366 1.01063136219038
v -0.791618390086795 0 1.78700899025834
v -0.340988781001815 0 1.01063136219038
v -0.170494390500907 -0.315538753471366 1.01063136219038
v -0.395809579128729 -0.732535311681684 1.78700899025834
v 0.170494390500907 -0.315538753471366 1.01063136219038
v 0.395809579128729 -0.732535311681684 1.78700899025834
v 0.791618390086795 0 1.78700899025834
v 0.340988781001815 0 1.01063136219038
v -0.46487136515606 0.860351569774781 2.15679013068515
v 0.464872090650576 0.860350886956414 2.15679013068515
v -0.929743413130488 0 2.15679013068515
v -0.46487136515606 -0.860350886956414 2.15679013068515
v 0.46487136515606 -0.860350886956414 2.15679013068515
v 0.929743413130488 0 2.15679013068515
v 0.40259111777371 0.745085769332686 2.5749924821182
v -0.402590434955343 0.745086452151054 2.5749924821182
v -0.805181638081349 0 2.5749924821182
v -0.402590434955343 -0.745085769332686 2.5749924821182
v 0.402590434955343 -0.745085769332686 2.5749924821182
v 0.805181638081349 0 2.5749924821182
v 0.23243568257803 0.43017578488739 2.88113836478856
v -0.23243568257803 0.43017578488739 2.88113836478856
v -0.46487136515606 0 2.88113836478856
v -0.23243568257803 -0.43017578488739 2.88113836478856
v 0.23243568257803 -0.43017578488739 2.88113836478856
v 0.46487136515606 0 2.88113836478856
v 0 0 2.99319534566502
v -0.534191683287775 -0.0703030217909492 2.68420226305018
v -0.508097864727172 -0.325068017241272 2.62321377999064
v -0.737861551004844 -0.319053646370219 3.0679695720979
v -0.337263836102669 -0.210961578372921 2.78783889852358
v 0.68616084873194 -0.304869887184226 2.38797706649752
v 0.690600533757236 -0.246734710039682 2.13125426008306
v 1.16961810308908 -0.317249832286026 2.25855294185362
v 0.743068467818289 -0.0601401879283265 2.30939832876897
v -0.419226621660403 -0.222369680895145 2.10100916190513
v -0.156211057192671 -0.282042735707825 1.73453286237687
v -0.907195897113641 -0.6655957678166 1.54049175786869
v -0.201589853603235 -0.617126290087012 2.03900379159183
v -0.0465803594496558 0.398094852220924 2.71243059626847
v 0.0791072427168016 0.585607431560218 2.3986418229833
v -0.104065383143551 1.11200606937579 2.87792861040457
v -0.30022953655033 0.541237907669584 2.45827800733206
v 0.298629802166575 0.564827481600351 1.91127612918191
v 0.359716568394882 0.471079421724662 1.66488726664535
v 0.370531344431922 0.983706975473191 1.62112202338231
v 0.107610606364972 0.552527319557174 1.71999514721964
v 0.317875208558334 0.393389201396785 0.00710138000077116
v -0.107807012666953 0.490548536484063 0.00710138000077116
v -0.168378219020708 0.707623366362876 0.633403020562599
v 0.445674396192244 0.567470159387055 0.633403020562599
v -0.449177723854998 0.218314657329549 0.00710138000077116
v -0.660809680498257 0.314922253837836 0.633403020562599
v -0.449177723854998 -0.218314657329549 0.00710138000077116
v -0.660809680498257 -0.314922253837836 0.633403020562599
v -0.107807012666953 -0.490548536484063 0.00710138000077116
v -0.168378219020708 -0.707623366362876 0.633403020562599
v 0.317875208558334 -0.393389201396785 0.00710138000077116
v 0.445674396192244 -0.567470159387055 0.633403020562599
v 0.507321073481877 0 0.00710138000077116
v 0.718953712943504 0 0.633403020562599
v -0.110859541509694 0.501488823072273 0.832191206389879
v 0.324315786119133 0.402162862628862 0.832191206389879
v -0.45984381619252 0.223183301656134 0.832191206389879
v -0.45984381619252 -0.223183301656134 0.832191206389879
v -0.110859541509694 -0.501488823072273 0.832191206389879
v 0.324315786119133 -0.402162862628862 0.832191206389879
v 0.5179871658194 0 0.832191206389879
v -0.130647799172629 0.57240629604165 0.90389848682968
v 0.366067803439913 0.459034335017884 0.90389848682968
v -0.528982718019228 0.254744532237373 0.90389848682968
v -0.528982718019228 -0.254744532237373 0.90389848682968
v -0.130647799172629 -0.57240629604165 0.90389848682968
v 0.366067803439913 -0.459034335017884 0.90389848682968
v 0.587126750464475 0 0.90389848682968
v -0.130647799172629 0.57240629604165 1.19746190473807
v 0.366067803439913 0.459034335017884 1.19746190473807
v -0.528982718019228 0.254744532237373 1.19746190473807
v -0.528982718019228 -0.254744532237373 1.19746190473807
v -0.130647799172629 -0.57240629604165 1.19746190473807
v 0.366067803439913 -0.459034335017884 1.19746190473807
v 0.587126750464475 0 1.19746190473807
v -0.941185741923381 -0.941185741923381 0.0170494393061474
v 0.941185741923381 -0.941185741923381 0.0170494393061474
v 0.941185741923381 0.941185741923381 0.0170494393061478
v -0.941185741923381 0.941185741923381 0.0170494393061478
vt 0.276265114545822 0.00926756858825684
vt 0.375932395458221 0.317413747310638
vt 0.036826130002737 0.317413628101349
vt 0.130195811390877 0.00926756858825684
vt 0.69559770822525 0.321436882019043
vt 0.44241189956665 0.319936037063599
vt 0.588389277458191 0.00859570503234863
vt 0.69744861125946 0.00924229621887207
vt 0.806507766246796 0.00988888740539551
vt 0.948783040046692 0.32293826341629
vt 0.276542782783508 0.00929111242294312
vt 0.375982731580734 0.318322062492371
vt 0.0376743413507938 0.318322062492371
vt 0.130816906690598 0.00929111242294312
vt 0.69514787197113 0.320960462093353
vt 0.947948276996613 0.322459101676941
vt 0.805889546871185 0.00988560914993286
vt 0.696996212005615 0.00924021005630494
vt 0.588102757930756 0.00859427452087402
vt 0.44234761595726 0.319461405277252
vt 0.383476227521896 0.461777806282043
vt 0.0103904251009226 0.464926362037659
vt 0.694716095924377 0.470132112503052
vt 0.397353529930115 0.468369424343109
vt 0.992078244686127 0.471895515918732
vt 0.3834567964077 0.463074266910553
vt 0.0113085815683007 0.466222882270813
vt 0.694267630577087 0.469429790973663
vt 0.991177618503571 0.471189916133881
vt 0.397357761859894 0.467669188976288
vt 0.0307724364101887 0.63420045375824
vt 0.365575760602951 0.63420045375824
vt 0.436195403337479 0.636772155761719
vt 0.693719029426575 0.638298630714417
vt 0.95124214887619 0.639825820922852
vt 0.0316277965903282 0.635811924934387
vt 0.365619361400604 0.635811924934387
vt 0.950403690338135 0.638864576816559
vt 0.693272113800049 0.637340366840363
vt 0.436140596866608 0.635815501213074
vt 0.103661857545376 0.756453931331635
vt 0.302799046039581 0.7564537525177
vt 0.692989110946655 0.76140570640564
vt 0.544307768344879 0.760524272918701
vt 0.841670155525208 0.762287318706512
vt 0.104345642030239 0.758186399936676
vt 0.303014189004898 0.758186399936676
vt 0.692543387413025 0.760259509086609
vt 0.840998351573944 0.761139512062073
vt 0.544088304042816 0.759379148483276
vt 0.287495702505112 0.929606735706329
vt 0.287495702505112 0.789857447147369
vt 0.416814893484116 0.859732091426849
vt 0.416814893484116 0.719982743263245
vt 0.546133995056152 0.789857447147369
vt 0.546133995056152 0.929606735706329
vt 0.416814893484116 0.999481439590454
vt 0.0283375196158886 0.792821228504181
vt 0.105409801006317 0.792821228504181
vt 0.143946066498756 0.999404609203339
vt 0.182482331991196 0.792821228504181
vt 0.259554624557495 0.792821168899536
vt 0.964110016822815 0.032281219959259
vt 0.964110016822815 0.513318836688995
vt 0.269947588443756 0.513318836688995
vt 0.269947588443756 0.032281219959259
vt 0.964110016822815 0.0256164073944092
vt 0.964110016822815 0.506654262542725
vt 0.269947588443756 0.506654262542725
vt 0.269947588443756 0.0256164073944092
vt 0.964110016822815 0.0189516544342041
vt 0.964110016822815 0.49998927116394
vt 0.269947588443756 0.49998927116394
vt 0.269947588443756 0.0189516544342041
vt 0.954857289791107 0.0228890776634216
vt 0.954857289791107 0.503930270671844
vt 0.260694712400436 0.503930270671844
vt 0.260694712400436 0.0228890776634216
vt 0.954857289791107 0.0268300175666809
vt 0.954857289791107 0.507867932319641
vt 0.260694712400436 0.507867932319641
vt 0.260694712400436 0.0268300175666809
vt 0.954857289791107 0.0307676792144775
vt 0.954857289791107 0.511805415153503
vt 0.260694712400436 0.511805415153503
vt 0.260694712400436 0.0307676792144775
vt 0.964110016822815 0.0347053408622742
vt 0.964110016822815 0.515743255615234
vt 0.269947588443756 0.515743255615234
vt 0.269947588443756 0.0347053408622742
vt 0.0360908173024654 0.513318836688995
vt 0.0360908173024654 0.032281219959259
vt 0.0360908173024654 0.506654262542725
vt 0.0360908173024654 0.0256164073944092
vt 0.0360908173024654 0.49998927116394
vt 0.0360908173024654 0.0189516544342041
vt 0.0268379468470812 0.503930270671844
vt 0.0268379468470812 0.0228890776634216
vt 0.0268379468470812 0.507867932319641
vt 0.0268379468470812 0.0268300175666809
vt 0.0268379468470812 0.511805415153503
vt 0.0268379468470812 0.0307676792144775
vt 0.0360908173024654 0.515743255615234
vt 0.0360908173024654 0.0347053408622742
vt 0.0229849107563496 0.921914339065552
vt 0.142182320356369 0.921914339065552
vt 0.142182320356369 0.974083483219147
vt 0.0229849107563496 0.974083483219147
vt 0.26137974858284 0.921914339065552
vt 0.26137974858284 0.974083483219147
vt 0.380577176809311 0.921914339065552
vt 0.380577176809311 0.974083483219147
vt 0.499775469303131 0.921914339065552
vt 0.499775469303131 0.974083483219147
vt 0.618972897529602 0.921914339065552
vt 0.618972897529602 0.974083483219147
vt 0.738170325756073 0.921914339065552
vt 0.738170325756073 0.974083483219147
vt 0.857367753982544 0.921914339065552
vt 0.857367753982544 0.974083483219147
vt 0.171222001314163 0.545203804969788
vt 0.765452444553375 0.545203804969788
vt 0.765452444553375 0.887595891952515
vt 0.171222001314163 0.887595891952515
vt 0.176810771226883 0.545203804969788
vt 0.771041214466095 0.545203804969788
vt 0.771041214466095 0.887595891952515
vt 0.176810771226883 0.887595891952515
vt 0.178543448448181 0.54515129327774
vt 0.772775948047638 0.54515129327774
vt 0.772775948047638 0.887543439865112
vt 0.178543448448181 0.887543439865112
vt 0.171222165226936 0.554312288761139
vt 0.76545262336731 0.554312288761139
vt 0.76545262336731 0.896704196929932
vt 0.171222165226936 0.896704196929932
vt 0.172282829880714 0.554312288761139
vt 0.766513109207153 0.554312288761139
vt 0.766513109207153 0.896704196929932
vt 0.172282829880714 0.896704196929932
vt 0.171221137046814 0.545308887958527
vt 0.765452265739441 0.545308887958527
vt 0.765452265739441 0.88770067691803
vt 0.171221137046814 0.88770067691803
vt 0.172282665967941 0.545308887958527
vt 0.766514003276825 0.545308887958527
vt 0.766514003276825 0.88770067691803
vt 0.172282665967941 0.88770067691803
vt 0.963767409324646 0.902924776077271
vt 0.923968434333801 0.893840968608856
vt 0.892052114009857 0.919293344020844
vt 0.892052114009857 0.960115849971771
vt 0.923968434333801 0.985568284988403
vt 0.963767409324646 0.976484358310699
vt 0.981479585170746 0.939704537391663
vt 0 0
vt 1 0
vt 1 1
vt 0 1
vn 0.809016969372729 0.587785286705073 0
vn 0.309016899560043 0.951056547102378 0
vn -0.309017063100103 0.951056493964994 0
vn -0.809017026443984 0.587785208153229 0
vn -1 2.52652969629985e-09 0
vn -0.809017004338539 -0.587785238578766 0
vn -0.309016970276121 -0.951056524125337 0
vn 0.309016992384025 -0.951056516942044 0
vn 0.809017019868929 -0.587785217203016 0
vn 0.999999999999999 4.57747073649045e-08 0
vn 0 5.62565549699912e-11 -1
vn 0 1.44016780723177e-08 1
vn -0.439639457026532 0.731857594150744 -0.520674187673348
vn -0.460362644141708 0.767887724697812 -0.445437625417153
vn 0.460363071343927 0.767887469732115 -0.445437623434749
vn 0.439639834109161 0.731857517602194 -0.520673976873843
vn -0.903753638803579 -1.40759881374256e-07 -0.428052987782202
vn -0.86487108117933 -0 -0.501994036757109
vn -0.43963963203443 -0.731857694569373 -0.520673898754521
vn -0.460362826731912 -0.767887756373674 -0.445437382103039
vn 0.43963963203443 -0.731857694569373 -0.520673898754521
vn 0.460362826731912 -0.767887756373674 -0.445437382103039
vn 0.903753565274095 -1.14232243443222e-07 -0.428053143025897
vn 0.86487108117933 0 -0.501994036757109
vn -0.330093784439667 0.932371580425545 -0.147381577848353
vn 0.330094746909929 0.932371204618518 -0.147381799624934
vn -0.973655540977247 0.177483233607177 -0.143159314445989
vn -0.664666392979475 -0.731544715134892 -0.15185820953068
vn 0.330094213304134 -0.932371443853034 -0.147381481301194
vn 0.973655430167034 -0.177483624134811 -0.143159583927241
vn 0.42739585650499 0.710616305281246 0.558889298976816
vn -0.427395275407318 0.710616602269572 0.558889365740977
vn -0.851050130092634 0.459846286569204 0.25348583549742
vn -0.840864410399575 -1.54175676656129e-07 0.54124582522487
vn -0.85104996538211 -0.459846588731642 0.253485840344151
vn -0.427395479988596 -0.71061670782546 0.558889075080755
vn 0 -0.964052308773016 0.265712525014191
vn 0.427395479988596 -0.71061670782546 0.558889075080755
vn 0.85104996538211 -0.459846588731642 0.253485840344151
vn 0.840864390980965 -2.91739337672059e-07 0.541245855393024
vn 0.851050270374733 0.459846006973923 0.253485871727071
vn 0.230611466087945 0.378683810720848 0.896335273882885
vn -0.230611297425615 0.378683888176646 0.896335284553215
vn -0.459831868794875 -6.42077397540029e-08 0.888005997975582
vn -0.230611429276152 -0.378684073275492 0.896335172429763
vn 0.230611429276152 -0.378684073275492 0.896335172429763
vn 0.459831837007658 -1.18831072720188e-07 0.888006014435797
vn 0 0 1
vn -0.888184116819081 0.0189331232846255 -0.459097496696506
vn 0.39131305540912 -0.894968164513542 0.214257035295556
vn 0.221773051253987 0.760316169372551 0.610521118658599
vn -0.0841640261121339 -0.971530800012141 -0.221459525278021
vn 0.285585015316084 0.61855107395082 -0.732008038167068
vn 0.256738103292457 0.24083209861871 0.935994362479123
vn -0.339543091898218 0.858844845244523 -0.38353099032687
vn 0.478579903861411 -0.625096872024548 -0.616615906545662
vn -0.510129191718318 -0.400777173942261 0.761016336620753
vn 0.930318094549934 -0.0100778003569921 0.366615167298006
vn -0.192074088464825 0.623327309085048 -0.758004360336535
vn -0.748239038359069 -0.206411033312737 0.630502043456057
vn 0.97061959603515 6.5725055081376e-05 0.240619191821391
vn -0.23679307637038 -0.0776850251774567 -0.968449315063122
vn -0.622916092373763 0.514888099481446 0.588953127909333
vn 0.590087034294182 0.738711031720392 -0.325735020488266
vn -0.208442060862171 0.917689311802289 -0.338228080246706
vn -0.208442160326388 0.917689247710096 -0.338228192845815
vn 0.590087107094784 0.738711092701619 -0.325734750310876
vn -0.844412433563659 0.407147193971446 -0.348136186691756
vn -0.844412439535584 0.407147221897125 -0.348136139547472
vn -0.844412145201385 -0.407147049618019 -0.34813705494207
vn -0.844412439535584 -0.407147221897125 -0.348136139547472
vn -0.208442060862171 -0.917689311802289 -0.338228080246706
vn -0.208442160326388 -0.917689247710096 -0.338228192845815
vn 0.590087034294182 -0.738711031720392 -0.325735020488266
vn 0.590087107094784 -0.738711092701619 -0.325734750310876
vn 0.947374978813862 0 -0.320125990068651
vn 0.990409354854806 -0.132930918010788 0.0376653800312279
vn 0.43651204120058 0.542577945566589 0.717681273875557
vn -0.147994187313197 0.664812903058468 0.73220319887889
vn -0.602050711513492 0.291704669351801 0.743265313763837
vn -0.602050711513492 -0.291704669351801 0.743265313763837
vn -0.147994187313197 -0.664812903058468 0.73220319887889
vn 0.43651204120058 -0.542577945566589 0.717681273875557
vn 0.703243258391764 0 0.710949308689821
vn 0.66608225415728 0.320768337516087 0.673381098891202
vn 0.446918057681595 0.555759634412593 -0.700996061669173
vn -0.151892982729339 0.681485548737293 -0.71589522184452
vn -0.0247498412637781 0.85773088817325 -0.513502842086532
vn 0.403507916991758 0.765610421984314 -0.501021000232499
vn -0.617702784363927 0.299202103332919 -0.727269806571267
vn -0.681093470410262 0.511823105883231 -0.523592200905007
vn -0.617702784363927 -0.299202103332919 -0.727269806571267
vn -0.824144003925724 -0.215487885017988 -0.523785864837674
vn -0.151892982729339 -0.681485548737293 -0.71589522184452
vn -0.345167237696635 -0.785322503713734 -0.513933987182855
vn 0.446918057681595 -0.555759634412593 -0.700996061669173
vn 0.403507916991758 -0.765610421984314 -0.501021000232499
vn 0.719877346917945 0 -0.694101293324239
vn 0.853345983629661 -0.163734477213564 -0.494966315212185
vn -0.22252125795335 0.974927838231558 0
vn 0.623489935269483 0.781831376076489 0
vn -0.623490121186056 0.781831227812881 0
vn -0.900968956509062 0.43388355512392 0
vn -1 0 0
vn -0.900968956509062 -0.43388355512392 0
vn -0.623490121186056 -0.781831227812881 0
vn -0.22252125795335 -0.974927838231558 0
vn 0.222520684156935 -0.974927969196868 0
vn 0.623489935269483 -0.781831376076489 0
vn 0.900969127148208 -0.433883200787719 0
vn 1 0 0
vn 0.900969127148208 0.433883200787719 0
g tube collisions West_fatcactus
f 1//1 2//2 3//2 4//1
f 2//2 5//3 6//3 3//2
f 5//3 7//4 8//4 6//3
f 7//4 9//5 10//5 8//4
f 9//5 11//6 12//6 10//5
f 11//6 13//7 14//7 12//6
f 13//7 15//8 16//8 14//7
f 15//8 17//9 18//9 16//8
f 17//9 19//10 20//10 18//9
f 19//10 1//1 4//1 20//10
f 1//11 19//11 17//11 15//11 13//11 11//11 9//11 7//11 5//11 2//11
f 4//12 3//12 6//12 8//12 10//12 12//12 14//12 16//12 18//12 20//12
g Cactus west_cactusPor West_fatcactus
f 21/1/13 22/2/14 23/3/15 24/4/16
f 25/5/17 22/6/14 21/7/13 26/8/18
f 27/9/19 28/10/20 25/5/17 26/8/18
f 29/11/21 30/12/22 28/13/20 27/14/19
f 31/15/23 30/16/22 29/17/21 32/18/24
f 24/19/16 23/20/15 31/15/23 32/18/24
f 22/2/14 33/21/25 34/22/26 23/3/15
f 35/23/27 33/24/25 22/6/14 25/5/17
f 28/10/20 36/25/28 35/23/27 25/5/17
f 30/12/22 37/26/29 36/27/28 28/13/20
f 38/28/30 37/29/29 30/16/22 31/15/23
f 23/20/15 34/30/26 38/28/30 31/15/23
f 39/31/31 34/22/26 33/21/25 40/32/32
f 40/33/32 33/24/33 35/23/27 41/34/34
f 35/23/35 36/25/28 42/35/36 41/34/34
f 42/36/36 36/27/37 37/26/29 43/37/38
f 43/38/38 37/29/39 38/28/30 44/39/40
f 38/28/41 34/30/41 39/40/31 44/39/40
f 45/41/42 39/31/31 40/32/32 46/42/43
f 40/33/32 41/34/34 47/43/44 46/44/43
f 47/43/44 41/34/34 42/35/36 48/45/45
f 48/46/45 42/36/36 43/37/38 49/47/46
f 43/38/38 44/39/40 50/48/47 49/49/46
f 50/48/47 44/39/40 39/40/31 45/50/42
f 45/51/42 46/52/43 51/53/48
f 46/52/43 47/54/44 51/53/48
f 47/54/44 48/55/45 51/53/48
f 48/55/45 49/56/46 51/53/48
f 49/56/46 50/57/47 51/53/48
f 50/57/47 45/51/42 51/53/48
g CactusThorn1 Cactus west_cactusPor West_fatcactus
f 52/58/49 53/59/49 54/60/49
f 53/59/50 55/61/50 54/60/50
f 55/61/51 52/62/51 54/60/51
g CactusThorn2 Cactus west_cactusPor West_fatcactus
f 56/58/52 57/59/52 58/60/52
f 57/59/53 59/61/53 58/60/53
f 59/61/54 56/62/54 58/60/54
g CactusThorn3 Cactus west_cactusPor West_fatcactus
f 60/58/55 61/59/55 62/60/55
f 61/59/56 63/61/56 62/60/56
f 63/61/57 60/62/57 62/60/57
g CactusThorn4 Cactus west_cactusPor West_fatcactus
f 64/58/58 65/59/58 66/60/58
f 65/59/59 67/61/59 66/60/59
f 67/61/60 64/62/60 66/60/60
g CactusThorn5 Cactus west_cactusPor West_fatcactus
f 68/58/61 69/59/61 70/60/61
f 69/59/62 71/61/62 70/60/62
f 71/61/63 68/62/63 70/60/63
g CactusPot west_cactusPor West_fatcactus
f 72/63/64 73/64/65 74/65/66 75/66/67
f 73/67/65 76/68/68 77/69/69 74/70/66
f 76/71/68 78/72/70 79/73/71 77/74/69
f 78/75/70 80/76/72 81/77/73 79/78/71
f 80/79/72 82/80/74 83/81/75 81/82/73
f 82/83/74 84/84/76 85/85/77 83/86/75
f 84/87/76 72/88/64 75/89/67 85/90/77
f 75/66/78 74/65/79 86/91/79 87/92/78
f 74/70/79 77/69/80 88/93/80 86/94/79
f 77/74/80 79/73/81 89/95/81 88/96/80
f 79/78/81 81/77/82 90/97/82 89/98/81
f 81/82/82 83/81/83 91/99/83 90/100/82
f 83/86/83 85/85/77 92/101/84 91/102/83
f 85/90/85 75/89/78 87/103/78 92/104/84
f 87/105/86 86/106/87 93/107/88 94/108/89
f 86/106/87 88/109/90 95/110/91 93/107/88
f 88/109/90 89/111/92 96/112/93 95/110/91
f 89/111/92 90/113/94 97/114/95 96/112/93
f 90/113/94 91/115/96 98/116/97 97/114/95
f 91/115/96 92/117/98 99/118/99 98/116/97
f 92/117/98 87/119/86 94/120/89 99/118/99
f 94/121/89 93/122/88 100/123/100 101/124/101
f 93/125/102 95/126/91 102/127/103 100/128/100
f 95/129/104 96/130/93 103/131/105 102/132/103
f 96/133/106 97/134/95 104/135/107 103/136/105
f 97/137/108 98/138/97 105/139/109 104/140/107
f 98/141/110 99/142/99 106/143/111 105/144/109
f 99/145/112 94/146/112 101/147/101 106/148/111
f 101/149/48 100/150/48 102/151/48 103/152/48 104/153/48 105/154/48 106/155/48
g shadow1 west_cactusPor West_fatcactus
f 107/156/48 108/157/48 109/158/48 110/159/48
