v 49.9860888803718 53.7310862675455 15.663862667626
v 49.9860072575452 53.7310291509708 15.663853983699
v 49.985974730274 53.7310621616816 15.6639425967291
v 49.9860563531006 53.7311192782563 15.6639512806561
v 49.9860224763767 53.7309870085754 15.6639881194687
v 49.9861040992032 53.7310441251501 15.6639968033957
v 49.9860550036479 53.7309539978646 15.6638995064385
v 49.9861366264745 53.7310111144393 15.6639081903655
vn -0.477461038589939 0.751531080536406 -0.455227406486471
vn -0.325272720096697 0.330107116492615 0.886130322921988
vn 0.477461038589939 -0.751531080536406 0.455227406486471
vn 0.325272720096697 -0.330107116492615 -0.886130322921988
vn -0.816228285585296 -0.57116576107879 -0.0868392721167931
vn 0.816228285585296 0.57116576107879 0.0868392721167931
g pCube1 camera1 flyover hole9
f 1//1 2//1 3//1 4//1
f 4//2 3//2 5//2 6//2
f 6//3 5//3 7//3 8//3
f 8//4 7//4 2//4 1//4
f 2//5 7//5 5//5 3//5
f 8//6 1//6 4//6 6//6
