v -2.26083935643898e-15 3.74650668561599e-14 349.60958481867
v 174.460794329643 302.174959707766 126.013354274206
v 348.921588659286 -5.65209839109744e-15 126.013354274206
v -174.460794329643 302.174959707766 126.013354274206
v -348.921588659286 -5.65209839109744e-15 126.013354274206
v -174.460794329643 -302.174959707766 126.013354274206
v 174.460794329643 -302.174959707766 126.013354274206
v -174.460794329643 -302.174959707766 -0.390415181330045
v 174.460794329643 -302.174959707766 -0.390415181330045
v -348.921588659286 -5.65209839109744e-15 -0.390415181330045
v -174.460794329643 302.174959707766 -0.390415181330045
v 174.460794329643 302.174959707766 -0.390415181330045
v 348.921588659286 -5.65209839109744e-15 -0.390415181330045
vt -3.10781741142273 -6.69632196426392
vt 4.01253080368042 -4.74697017669678
vt 1.60511888225301e-06 4.63997548649786e-06
vt 1.04055267513559e-07 -4.8043791167629e-09
vt -6.21563816070557 -4.8043791167629e-09
vt 1.04055267513559e-07 1.74905480321286e-07
vt -6.21563816070557 8.50505514904398e-08
vt -8.95525005262243e-08 8.50505443850125e-08
vt -6.21563816070557 1.74905466110431e-07
vt -0.25 -0.538666546344757
vt -3.35782194137573 -7.23499202728271
vt 2.85781645774841 -7.23499441146851
vt 2.85781669616699 -7.23499488830566
vt 6.87034702301025 -2.4880211353302
vt 9.16666603088379 -1.42440031991597e-10
vt 9.16666603088379 1
vt 10.8333330154419 1
vt 10.8333330154419 1.42440031991597e-10
vt 7.5 -2.84880063983195e-10
vt 7.5 1
vt 5.83333301544189 -1.42440031991597e-10
vt 5.83333301544189 1
vt 4.16666650772095 1.42440031991597e-10
vt 4.16666650772095 1
vt 2.49999976158142 2.84880063983195e-10
vt 2.49999976158142 1
vt 0.833333492279053 1.42440031991597e-10
vt 0.833333492279053 1
vn -0.383132382373753 -0.221201584098749 -0.896816278157805
vn -0.544646790569017 -0.54901432949084 -0.633989857597574
vn -0.747783751665257 -0.197170791977012 -0.633989857597574
vn 0.203136961096239 -0.746185121467852 -0.633989857597574
vn 0.539543903365622 0 -0.841957467061721
vn 0.747783751665257 -0.197170791977012 -0.633989857597574
vn 0.544646790569017 0.54901432949084 -0.633989857597574
vn 0 0.594820246930642 -0.803858739979463
vn -0.203136961096239 0.746185121467852 -0.633989857597574
vn 0 1 0
vn 0.866025403784439 0.5 0
vn 0.866025403784439 -0.5 0
vn 0 -1 0
vn -0.866025403784439 -0.5 0
vn -0.866025403784439 0.5 0
g o1 skytop Sky
f 1/1/1 2/2/2 3/3/3
f 1/1/1 4/4/4 2/5/2
f 1/1/5 5/6/6 4/7/4
f 1/1/5 6/8/7 5/9/6
f 1/10/8 7/11/9 6/12/7
f 1/10/1 3/13/3 7/14/9
g o3 skypanel1 Sky
f 8/15/10 6/16/10 7/17/9 9/18/10
g o4 skypanel2 Sky
f 10/19/11 5/20/11 6/16/7 8/15/11
g o5 skypanel3 Sky
f 11/21/12 4/22/12 5/20/6 10/19/12
g o6 skypanel4 Sky
f 12/23/13 2/24/13 4/22/4 11/21/13
g o7 skypanel5 Sky
f 13/25/14 3/26/3 2/24/2 12/23/14
g o8 skypanel6 Sky
f 9/27/15 7/28/15 3/26/15 13/25/15
