v -0.028621900112923 0.601582014028795 0.0713781030785068
v -0.028621900112923 0.601582014028795 0.028621900112923
v -0.0713781030785068 0.601582014028795 0.028621900112923
v -0.0713781030785068 0.601582014028795 0.0713781030785068
v -0.10000000319143 0 0.10000000319143
v -0.10000000319143 0 0
v 0 0 0
v 0 0 0.10000000319143
vt 0.375 1
vt 0.625 1
vt 0.875 1
vt 1.125 1
vt 1.125 0
vt 0.875 0
vt 0.625 0
vt 0.375 0
vt 0.125 1
vt 0.125 0
vt 0 0
vt 1 0
vt 1 1
vt 0 1
vn 0 1 0
vn -0.998870098290903 0.047523959644808 0
vn -0.998870098114063 0.0475239633616843 0
vn -0.998870098467744 0.0475239559279317 0
vn 0 0.0475239670785605 -0.998870097937222
vn 0 0.0475239707954368 -0.998870097760382
vn 0 0.0475239633616843 -0.998870098114063
vn 0.998870098290903 0.047523959644808 0
vn 0.998870098114063 0.0475239633616843 0
vn 0.998870098467744 0.0475239559279317 0
vn 0 0.04752394760675 0.998870098863647
vn 0 0.0475239438898735 0.998870099040487
vn 0 0.0475239559279317 0.998870098467744
vn 0 -1 0
g o2 cigar cigar
f 1/1/1 2/2/1 3/3/1
f 1/1/1 3/3/1 4/4/1
f 5/5/2 4/4/3 3/3/2
f 5/5/2 3/3/2 6/6/4
f 6/6/5 3/3/6 2/2/5
f 6/6/5 2/2/5 7/7/7
f 7/7/8 2/2/9 1/1/8
f 7/7/8 1/1/8 8/8/10
f 8/8/11 1/1/12 4/9/11
f 8/8/11 4/9/11 5/10/13
f 5/11/14 6/12/14 7/13/14
f 5/11/14 7/13/14 8/14/14
