v 2.78934441686592 6.67901958972709 0
v 2.23643620320307 5.35509387870841 0.695109486579895
v 5.36802240050127 2.2052239905493 0.695109486579895
v 6.69514439580454 2.75041569134309 0
v -2.75041569134309 6.69514439580454 0
v -2.20522399054931 5.36802240050127 0.695109486579895
v -6.67901958972709 2.78934441686591 0
v -5.35509387870841 2.23643620320307 0.695109486579895
v -6.69514439580454 -2.7504156913431 0
v -5.36802240050127 -2.20522399054931 0.695109486579895
v -2.78934441686592 -6.67901958972709 0
v -2.23643620320307 -5.35509387870842 0.695109486579895
v 2.75041569134309 -6.69514439580454 0
v 2.20522399054931 -5.36802240050127 0.695109486579895
v 6.67901958972709 -2.78934441686592 0
v 5.35509387870841 -2.23643620320307 0.695109486579895
v 5.36802240050127 2.2052239905493 0.703448248508338
v 2.23643620320307 5.35509387870841 0.703448248508338
v -2.20522399054931 5.36802240050127 0.703448248508338
v -5.35509387870841 2.23643620320307 0.703448248508338
v -5.36802240050127 -2.20522399054931 0.703448248508338
v -2.23643620320307 -5.35509387870842 0.703448248508338
v 2.20522399054931 -5.36802240050127 0.703448248508338
v 5.35509387870841 -2.23643620320307 0.703448248508338
v 3.12404289136508 0 2.97716269993754
v -2.87551794161222 0 2.97716269993754
v -2.87551794161222 0 8.97672353291484
v 3.12404289136508 0 8.97672353291484
v 1.48812248261299 -2.8421709430404e-14 9.00240236868575
v -1.46542308776055 -2.8421709430404e-14 9.00240236868575
v -1.46542308776055 -2.8421709430404e-14 13.0024023686857
v 1.48812248261299 -2.8421709430404e-14 13.0024023686857
v 2.21279844746484 -4.74099477478965 0.698742051497193
v 2.21279844746484 -4.74099477478965 3.22324575938294
v -1.71004057943727 -4.72957640696391 3.22324575938294
v -1.71004057943727 -4.72957640696391 0.698742051497193
v 4.99473853021022 -1.97520270268359 0.698742051497193
v 4.99473853021022 -1.97520270268359 3.22324575938294
v 5.00615689803595 1.94763632421853 0.698742051497193
v 5.00615689803595 1.94763632421853 3.22324575938294
v 2.24036482592989 4.72957640696391 0.698742051497193
v 2.24036482592989 4.72957640696391 3.22324575938294
v -1.68247420097222 4.74099477478964 0.698742051497193
v -1.68247420097222 4.74099477478964 3.22324575938294
v -4.4644142837176 1.97520270268358 0.698742051497193
v -4.4644142837176 1.97520270268358 3.22324575938294
v -4.47583265154333 -1.94763632421853 0.698742051497193
v -4.47583265154333 -1.94763632421853 3.22324575938294
v 3.67853146166474 5.14474550250473 0
v 3.67853146166474 5.14474550250473 13.0024023686858
v 6 2 13.0024023686858
v 6 2 0
v -0.0480110663406224 6.32437308652082 0
v -0.0480110663406224 6.32437308652082 13.0024023686858
v -3.75621499883999 5.08830510902103 0
v -3.75621499883999 5.08830510902103 13.0024023686858
v -6.02967247083463 1.90867752500494 0
v -6.02967247083463 1.90867752500494 13.0024023686858
v -6 -2 0
v -6 -2 13.0024023686858
v -3.67853146166474 -5.14474550250473 0
v -3.67853146166474 -5.14474550250473 13.0024023686858
v 0.0480110663406217 -6.32437308652082 0
v 0.0480110663406217 -6.32437308652082 13.0024023686858
v 3.75621499883999 -5.08830510902103 0
v 3.75621499883999 -5.08830510902103 13.0024023686858
v 6.02967247083463 -1.90867752500495 0
v 6.02967247083463 -1.90867752500495 13.0024023686858
v -9.88962222627663 -9.88962222627663 0.025
v 9.88962222627663 -9.88962222627663 0.025
v 9.88962222627663 9.88962222627663 0.025
v -9.88962222627663 9.88962222627663 0.025
vt 0.0201200228184462 0
vt 0.0201200228184462 0.999999940395355
vt 0.0143653508275747 0.999999940395355
vt 0.0143653508275747 0
vt 0.0258746966719627 0
vt 0.0258746966719627 0.999999940395355
vt 0.0316293649375439 0
vt 0.0316293649375439 0.999999940395355
vt 0.0373840369284153 0
vt 0.0373840369284153 0.999999940395355
vt 0.043138712644577 0
vt 0.043138712644577 0.999999940395355
vt 0.0488933809101582 0
vt 0.0488933809101582 0.999999940395355
vt 0.00861067976802588 0
vt 0.00861067976802588 0.999999940395355
vt 0.00285600824281573 0.999999940395355
vt 0.00285600824281573 0
vt 0.987529695034027 0.538223385810852
vt 0.702411890029907 0.677488744258881
vt 0.298624664545059 0.678664028644562
vt 0.0127010112628341 0.54106080532074
vt 0.0121311591938138 0.345285147428513
vt 0.297248929738998 0.206019788980484
vt 0.701036155223846 0.204844459891319
vt 0.98695981502533 0.342447698116302
vt 0 0
vt 1 0
vt 1 1
vt 0 1
vt 6.37222051620483 1.50025269984866e-10
vt 6.37222051620483 0.999999940395355
vt 5.62222051620483 0.999999940395355
vt 5.62222051620483 -1.52148751930703e-10
vt 1.12222039699554 3.64316521395125e-10
vt 1.12222039699554 0.999999940395355
vt 0.372220426797867 0.999999940395355
vt 0.372220426797867 1.50025269984866e-10
vt 1.87222039699554 3.65196067830809e-10
vt 1.87222039699554 0.999999940395355
vt 2.62222051620483 1.52148696419552e-10
vt 2.62222051620483 0.999999940395355
vt 3.37222051620483 -1.50025311618229e-10
vt 3.37222051620483 0.999999940395355
vt 4.12222051620483 -3.64316549150701e-10
vt 4.12222051620483 0.999999940395355
vt 4.87222051620483 -3.6519612334196e-10
vt 4.87222051620483 0.999999940395355
vn 0.168024707848777 0.402331210335472 0.899942939714695
vn 0.403302537437962 0.165679716784444 0.899942939714696
vn -0.165679716784445 0.403302537437963 0.899942939714695
vn -0.402331210335471 0.168024707848777 0.899942939714695
vn -0.403302537437962 -0.165679716784444 0.899942939714696
vn -0.168024707848777 -0.402331210335471 0.899942939714696
vn 0.165679716784444 -0.403302537437962 0.899942939714696
vn 0.402331210335471 -0.168024707848777 0.899942939714696
vn 0 0 1
vn 0 1 0
vn 0.379992648740321 -0.924989506374702 0
vn -0.38537097375863 -0.922761731209268 0
vn 0.922761731209268 -0.38537097375863 0
vn 0.924989506374702 0.379992648740321 0
vn 0.385370973758631 0.922761731209268 0
vn -0.379992648740321 0.924989506374702 0
vn -0.922761731209268 0.38537097375863 0
vn -0.924989506374702 -0.379992648740321 0
vn 0.581626893172447 0.813455688491123 0
vn 0.948683298050514 0.316227766016838 0
vn -0.0075912161264905 0.999971186303746 0
vn -0.593909738881055 0.804531678718891 0
vn -0.953374927632631 0.30178841488943 0
vn -0.948683298050514 -0.316227766016838 0
vn -0.581626893172447 -0.813455688491123 0
vn 0.00759121612649059 -0.999971186303746 0
vn 0.593909738881055 -0.804531678718891 0
vn 0.953374927632631 -0.30178841488943 0
g o7 machine_floor_base_sides suit_interior_machinery
f 1/1/1 2/2/1 3/3/2 4/4/2
g o8 machine_floor_base_sides suit_interior_machinery
f 5/5/3 6/6/3 2/2/1 1/1/1
g o9 machine_floor_base_sides suit_interior_machinery
f 7/7/4 8/8/4 6/6/3 5/5/3
g o10 machine_floor_base_sides suit_interior_machinery
f 9/9/5 10/10/5 8/8/4 7/7/4
g o11 machine_floor_base_sides suit_interior_machinery
f 11/11/6 12/12/6 10/10/5 9/9/5
g o12 machine_floor_base_sides suit_interior_machinery
f 13/13/7 14/14/7 12/12/6 11/11/6
g o13 machine_floor_base_sides suit_interior_machinery
f 15/15/8 16/16/8 14/17/7 13/18/7
g o14 machine_floor_base_sides suit_interior_machinery
f 4/4/2 3/3/2 16/16/8 15/15/8
g machine_floor_base_floor suit_interior_machinery
f 17/19/9 18/20/9 19/21/9 20/22/9 21/23/9 22/24/9 23/25/9 24/26/9
g p72_1 machine_top suit_interior_machinery
f 25/27/10 26/28/10 27/29/10 28/30/10
f 29/27/10 30/28/10 31/29/10 32/30/10
g machine_railing suit_interior_machinery
f 33/31/11 34/32/11 35/33/12 36/34/12
f 37/35/13 38/36/13 34/37/11 33/38/11
f 39/39/14 40/40/14 38/36/13 37/35/13
f 41/41/15 42/42/15 40/40/14 39/39/14
f 43/43/16 44/44/16 42/42/15 41/41/15
f 45/45/17 46/46/17 44/44/16 43/43/16
f 47/47/18 48/48/18 46/46/17 45/45/17
f 36/34/12 35/33/12 48/48/18 47/47/18
g suit_interior_machinery_collisions suit_interior_machinery
f 49//19 50//19 51//20 52//20
f 53//21 54//21 50//19 49//19
f 55//22 56//22 54//21 53//21
f 57//23 58//23 56//22 55//22
f 59//24 60//24 58//23 57//23
f 61//25 62//25 60//24 59//24
f 63//26 64//26 62//25 61//25
f 65//27 66//27 64//26 63//26
f 67//28 68//28 66//27 65//27
f 52//20 51//20 68//28 67//28
g o1 drop_shadow
f 69/27/9 70/28/9 71/29/9 72/30/9
