v 0.665547935008183 0.00580469637801823 1.04125733642925
v 0.327747099871048 0.579283853867025 1.04125719053215
v -0.337800836623912 0.57347932796318 1.04125719053215
v -0.665547937981738 -0.00580435542967161 1.04125733642925
v -0.327747102844604 -0.579283512918679 1.04125748232634
v 0.337800833650357 -0.573478987014834 1.04125748232634
v 0.628884871206972 1.11153612988045 0.00506185411462196
v 1.27706096130423 0.0111377904193016 0.00506213406363476
v -0.648176090097255 1.10039833946115 0.00506185411462196
v -1.27706096130423 -0.0111377904193015 0.00506213406363476
v -0.628884871206972 -1.11153612988045 0.00506241401264756
v 0.648176090097255 -1.10039833946115 0.00506241401264756
v 1.92635820904095 0.0365139552991991 11.2991120002413
v -2.15270047889917 0.0365139552991991 11.2991120002413
v -2.15239700035411 0.0365139552991991 9.00836658641486e-16
v 1.92666168758594 0.0365139552991991 -8.75520180758764e-16
v 1.14929493238879 -0.739218771085305 8.2159156901417
v 1.3328254735154 -0.069376570575161 8.2159156901417
v 1.15684648424627 0.602489062156796 8.2159156901417
v 0.668511392640916 1.09635227339781 8.2159156901417
v -0.00133080786922812 1.27988281452442 8.2159156901417
v -0.673196440601185 1.10390382525529 8.2159156901417
v -1.1670596518422 0.615568733649937 8.2159156901417
v -1.35059019296881 -0.0542734668602074 8.2159156901417
v -1.17461120369968 -0.726139099592164 8.2159156901417
v -0.686276112094326 -1.22000231083318 8.2159156901417
v -0.0164339115841818 -1.40353285195979 8.2159156901417
v 0.655431721147774 -1.22755386269066 8.2159156901417
v 1.3328254735154 -0.069376570575161 0
v 1.14929493238879 -0.739218771085305 0
v 1.15684648424627 0.602489062156796 0
v 0.668511392640916 1.09635227339781 0
v -0.00133080786922812 1.27988281452442 0
v -0.673196440601185 1.10390382525529 0
v -1.1670596518422 0.615568733649937 0
v -1.35059019296881 -0.0542734668602074 0
v -1.17461120369968 -0.726139099592164 0
v -0.686276112094326 -1.22000231083318 0
v -0.0164339115841818 -1.40353285195979 0
v 0.655431721147774 -1.22755386269066 0
v -1.60000002384186 -1.60000002384186 0.025
v 1.60000002384186 -1.60000002384186 0.025
v 1.60000002384186 1.60000002384186 0.025
v -1.60000002384186 1.60000002384186 0.025
v 2.35144254865787 0.0365139552991991 11.2991120002413
v -1.72761613928225 0.0365139552991991 11.2991120002413
v -1.72731266073719 0.0365139552991991 9.00836658641486e-16
v 2.35174602720286 0.0365139552991991 -8.75520180758764e-16
v 1.1366185294353 -1.09108903204403 0
v 0.396023283757323 -0.524955696394091 1.93670663181022
v -0.539585278498712 -0.524955696394091 1.93670663181022
v -1.14992287121397 -1.09108903204403 0
v -1.14992287121397 1.19545236860524 0
v -0.539585278498712 0.524955696394091 1.93670663181022
v 0.396023283757323 0.524955696394091 1.93670663181022
v 1.1366185294353 1.19545236860524 0
v 2.12410382037651 0.0365139552991991 11.2991120002413
v -1.95495486756361 0.0365139552991991 11.2991120002413
v -1.95465138901855 0.0365139552991991 9.00836658641486e-16
v 2.12440729892149 0.0365139552991991 -8.75520180758764e-16
vt 0.968267917633057 0.507239818572998
vt 0.726366817951202 0.960148692131042
vt 0.25573542714119 0.953805923461914
vt 0.0270051527768373 0.494554191827774
vt 0.268906265497208 0.0416453182697296
vt 0.73953765630722 0.0479881428182125
vt 0.000557554769329727 -0.0157979819923639
vt 0.176772475242615 1.00786471366882
vt 0.498140066862106 1.00570809841156
vt 0.494969248771667 -0.0191158000379801
vt 0.982485115528107 -0.0280754864215851
vt 0.815609812736511 1.00182843208313
vt 0.170481026172638 1.00794446468353
vt -0.0100207235664129 -0.0186662394553423
vt 0.504977703094482 -0.0191829688847065
vt 0.504645586013794 1.00566446781158
vt 0.180025219917297 1.00784289836884
vt 0.00556179136037827 -0.0158315673470497
vt 0.999389410018921 -0.0225007869303226
vt 0.826013147830963 1.00350785255432
vt 1.00308203697205 -0.022978538647294
vt 0.833686947822571 1.00845396518707
vt 0.18646776676178 1.01280772686005
vt 0.00736015755683184 -0.0162805058062077
vt 0.822760403156281 1.00352966785431
vt 0.994385182857513 -0.0224672015756369
vt 1 1
vt 0 1
vt 0 0
vt 1 0
vt 1.0060727596283 -0.00260766572318971
vt 0.691448390483856 0.979763269424438
vt 0.275305896997452 0.982166230678558
vt 0.680246770381927 0.980234444141388
vt 0.278412997722626 0.980048596858978
vt 1.01008713245392 -3.12667507387232e-05
vt 0.689602255821228 0.965921878814697
vt 0.27757316827774 0.984925091266632
vt 0.680658221244812 0.968220353126526
vt 0.292265653610229 0.973253667354584
vt 1.0051656961441 -0.00555560970678926
vt 0.68897157907486 0.971697986125946
vt 0.275585114955902 0.973532199859619
vt 1.00726056098938 -0.00158428400754929
vt 0.684881269931793 0.969020187854767
vt 0.279790818691254 0.971774756908417
vt 1.00819611549377 -0.000281444430584088
vt 0.681492030620575 0.979731857776642
vt 0.284665018320084 0.982311189174652
vt 1.01163184642792 -0.00625622877851129
vt 0.693905234336853 0.95125287771225
vt 0.271990358829498 0.951379537582397
vn -2.20745099432154e-09 2.53106703332176e-07 0.999999999999968
vn 0.424080898995014 0.749551053391784 0.508260375660791
vn 0.861170620157153 0.00751075404666888 0.508260515436519
vn -0.437089701015338 0.742040419249163 0.508260375660791
vn -0.861170622245397 -0.00751051460820223 0.508260515436519
vn -0.424080921954072 -0.749550850841887 0.508260655212252
vn 0.437089720438125 -0.742040216329636 0.508260655212252
vn 0 -1 0
vn 0 0 1
vn 0.999984161421774 -0.00562822401758283 0
vn 0.863197575164543 -0.504866265688303 0
vn 0.868825799182126 0.49511789573347 0
vn 0.504866265688303 0.863197575164544 0
vn 0.00562822401758268 0.999984161421774 0
vn -0.49511789573347 0.868825799182126 0
vn -0.863197575164543 0.504866265688303 0
vn -0.999984161421774 0.00562822401758283 0
vn -0.868825799182126 -0.49511789573347 0
vn -0.504866265688303 -0.863197575164543 0
vn -0.00562822401758294 -0.999984161421774 0
vn 0.49511789573347 -0.868825799182126 0
vn 0 -0.959831897883753 0.28057570779537
vn 0 0.94497125797874 0.327153360970168
vn -0.95375982827416 0 0.300569775543792
vn 0.934037391923148 0 0.357175237788684
g prop_post_light_base prop_post_sign
f 1/1/1 2/2/1 3/3/1 4/4/1 5/5/1 6/6/1
f 7/7/2 2/8/2 1/9/3 8/10/3
f 9/11/4 3/12/4 2/13/2 7/14/2
f 10/15/5 4/16/5 3/17/4 9/18/4
f 11/19/6 5/20/6 4/16/5 10/15/5
f 12/21/7 6/22/7 5/23/6 11/24/6
f 8/10/3 1/9/3 6/25/7 12/26/7
g p1 prop_post_sign_streetlamp prop_post_sign
f 13/27/8 14/28/8 15/29/8 16/30/8
g prop_post_sign_collisions prop_post_sign
f 17//9 18//9 19//9 20//9 21//9 22//9 23//9 24//9 25//9 26//9 27//9 28//9
f 29//10 18//10 17//11 30//11
f 31//12 19//12 18//10 29//10
f 32//13 20//13 19//12 31//12
f 33//14 21//14 20//13 32//13
f 34//15 22//15 21//14 33//14
f 35//16 23//16 22//15 34//15
f 36//17 24//17 23//16 35//16
f 37//18 25//18 24//17 36//17
f 38//19 26//19 25//18 37//18
f 39//20 27//20 26//19 38//19
f 40//21 28//21 27//20 39//20
f 30//11 17//11 28//21 40//21
g o10 drop_shadow prop_post_sign
f 41/29/9 42/30/9 43/27/9 44/28/9
g p13 prop_post_one_light_streetlamp prop_post_one_light
f 45/27/8 46/28/8 47/29/8 48/30/8
g prop_post_sign_base prop_post_one_light
f 49/31/22 50/32/22 51/33/22 52/29/22
f 53/30/23 54/34/23 55/35/23 56/29/23
f 52/36/24 51/37/24 54/38/24 53/29/24
f 56/30/25 55/39/25 50/40/25 49/29/25
f 51/27/9 50/28/9 55/29/9 54/30/9
g prop_post_one_light_collisions prop_post_one_light
f 17//9 18//9 19//9 20//9 21//9 22//9 23//9 24//9 25//9 26//9 27//9 28//9
f 29//10 18//10 17//11 30//11
f 31//12 19//12 18//10 29//10
f 32//13 20//13 19//12 31//12
f 33//14 21//14 20//13 32//13
f 34//15 22//15 21//14 33//14
f 35//16 23//16 22//15 34//15
f 36//17 24//17 23//16 35//16
f 37//18 25//18 24//17 36//17
f 38//19 26//19 25//18 37//18
f 39//20 27//20 26//19 38//19
f 40//21 28//21 27//20 39//20
f 30//11 17//11 28//21 40//21
g o14 g8 prop_post_one_light
f 41/29/9 42/30/9 43/27/9 44/28/9
g p23 prop_post_three_light_streetlamp prop_post_three_light
f 57/27/8 58/28/8 59/29/8 60/30/8
g prop_post_sign_base__1 prop_post_three_light
f 49/41/22 50/42/22 51/43/22 52/29/22
f 53/44/23 54/45/23 55/46/23 56/29/23
f 52/47/24 51/48/24 54/49/24 53/29/24
f 56/50/25 55/51/25 50/52/25 49/29/25
f 51/27/9 50/28/9 55/29/9 54/30/9
g prop_post_three_light_collisions prop_post_three_light
f 17//9 18//9 19//9 20//9 21//9 22//9 23//9 24//9 25//9 26//9 27//9 28//9
f 29//10 18//10 17//11 30//11
f 31//12 19//12 18//10 29//10
f 32//13 20//13 19//12 31//12
f 33//14 21//14 20//13 32//13
f 34//15 22//15 21//14 33//14
f 35//16 23//16 22//15 34//15
f 36//17 24//17 23//16 35//16
f 37//18 25//18 24//17 36//17
f 38//19 26//19 25//18 37//18
f 39//20 27//20 26//19 38//19
f 40//21 28//21 27//20 39//20
f 30//11 17//11 28//21 40//21
g o16 g9 prop_post_three_light
f 41/29/9 42/30/9 43/27/9 44/28/9
