v 5.31514254635714 0.929701727396368 -0.312339602492926
v 2.72859545072546 4.17170955615639 -0.312339602492926
v 2.72859545072546 4.17170955615639 14.0374161127045
v 5.31514254635714 0.929701727396368 14.0374161127045
v -0.639459837834661 4.49950068504085 -0.312339602492926
v -0.639459837834661 4.49950068504085 14.0374161127045
v -3.85671944262161 3.20536413706113 -0.312339602492926
v -3.85671944262161 3.20536413706113 14.0374161127045
v -5.32885016550855 0.624268253834363 -0.312339602492926
v -5.32885016550855 0.624268253834363 14.0374161127045
v -5.30231749423845 -1.69919789444198 -0.312339602492926
v -5.30231749423845 -1.69919789444198 14.0374161127045
v -3.11454956432027 -3.98116631908134 -0.312339602492926
v -3.11454956432027 -3.98116631908134 14.0374161127045
v -0.950634005257459 -4.67808597807264 -0.312339602492926
v -0.950634005257459 -4.67808597807264 14.0374161127045
v 2.89765987990097 -4.11214009495 -0.312339602492926
v 2.89765987990097 -4.11214009495 14.0374161127045
v 4.69633394519801 -1.93113499250705 -0.312339602492926
v 4.69633394519801 -1.93113499250705 14.0374161127045
v -1.68421539111447 -3.32758167352261 0.907091852661633
v 1.78639781038884 -2.5760608372119 0.907093017260981
v 1.79661367587339 -2.56245831682207 3.45351191117134
v -1.68310669253475 -3.32995723783106 3.45365166309315
v 2.67439083838524 0.824122054094907 0.907093017260981
v 2.67392965704325 0.823693481534679 3.45395212972505
v 0.4110199550686 3.4629644257473 0.90688047787989
v 0.433352312174364 3.44925942061481 3.45944088645427
v -2.93179477233385 2.40590883953597 0.838938916491013
v -2.93600538127815 2.45839966136904 3.34945350363868
v -4.11025751142177 -0.863913459103403 0.910785379495223
v -4.1033537664842 -0.819528248735504 3.42447087951887
v -1.69436603903551 -3.33873365852094 5.97056776170938
v 1.79773634964529 -2.54533404800255 5.97694277854276
v 1.80039629455713 -2.43012256365968 9.82720546854437
v -1.79375294743173 -3.3286814920323 9.82720546854437
v 2.67209424847011 0.824382924348958 5.97694336084244
v 2.66218117881615 0.822240061547821 9.827202557046
v 0.439697049424687 3.46315076164305 5.97685834509
v 0.42282433406443 3.45317247442558 9.82467595875955
v -2.93721831149956 2.51928840910374 5.81975214608588
v -2.92420100228232 2.58172723857122 9.68794966605352
v -4.10973111251628 -0.743540470448227 5.96241440167092
v -4.10078436917169 -0.666108880118717 9.78946546205869
v -1.65767184276474 -2.82775470348476 10.5025985562836
v 1.45725408413419 -2.03915258719483 10.5025962270849
v -0.718119672414019 0.298188988337577 10.5001680374434
v 2.21127626148298 0.824941932036212 10.5025938978862
v 0.276089474557873 2.91165241098868 10.5036362143031
v -2.64286000318358 2.07019036765968 10.3925066506765
v -3.62504058578507 -0.524791736781122 10.4806761381485
v -1.81544244569715 -3.83054862176625 0.907091852661633
v 2.06035350271942 -2.98257122738238 0.907093017260981
v 3.21370747985489 0.819948130030083 0.907093017260981
v 0.575675669349014 3.81659327100331 0.906869996485754
v -3.19544143123201 2.7084251662878 0.81945866318959
v -4.61550729275074 -0.90872724203153 0.826563301514772
v -1.8050728530986 -4.14118919357282 0.114997685225396
v 2.28473452998543 -3.22255322752016 0.114997685225396
v 3.5341959037519 0.817618931333195 0.114997685225396
v 0.707862353794807 4.1215319643999 0.111328614978123
v -3.37751489336775 2.94268665442601 0.0545637863237227
v -4.92422394643368 -0.982255386494893 0.0447249598782303
v 0.242269509479059 -0.124625792711124 10.4729047666963
v 0.171163731660459 0.906612955143895 10.492352411216
v 0.142957135441144 0.916050577113849 14.3680388872938
v 0.214426268256458 -0.11956706429132 14.3688401316455
v -0.758391517883215 1.36022905976024 10.4688007185924
v -0.757059216228595 1.34686819373522 14.3669627974959
v -1.61683633121089 0.782569149342423 10.4317513195204
v -1.6192307474713 0.964991991282699 14.3962105455327
v -1.5457258949949 -0.248688232102171 10.4849409009625
v -1.54775695625859 -0.0708865203765225 14.3960987439952
v -0.616175303848622 -0.702285703128945 10.4904750770663
v -0.614181509764085 -0.700059280324557 14.3688331440495
v -3.45009272476278 1.15557634545687 5.98845833690018
v -3.90920573830379 -0.4494837933635 5.97681467261444
v -3.92138744748851 -0.199737792288372 5.97671102327242
v -3.5923648395661 0.950569592951568 5.54237194937119
v -0.226383319624727 -3.55301760943594 9.4714296843895
v 1.15158518694612 -3.15652197300002 9.47375364238932
v 0.97506569910311 -2.54306091384617 9.47952539676021
v -0.402913288861875 -2.93955627732912 9.47719910956169
v 1.83940571433261 -2.94692564364369 8.23319097224432
v 1.66287108669807 -2.33346438432433 8.23896214431553
v 1.14924783605379 -3.13384332955675 6.99030143260112
v 1.01480415807072 -2.67196994260696 6.98354850327917
v -0.228725328914447 -3.53033885681148 6.9879774746013
v -0.442063042858844 -2.98607707175223 7.06216419999621
v -0.916536539506151 -3.73991666175942 8.22854130934565
v -1.0930665087433 -3.12647414521082 8.23431248141686
v 0.409087302449857 -3.28895795449384 8.23335226925408
v -2.10689042024136 0.838730788321789 11.9255060402125
v -2.35012398175999 1.2415517277564 11.9040005486442
v -2.98640516498109 0.857886118404997 11.9137389283959
v -2.74317626185985 0.455046545380808 11.9352444199642
v -2.46669105974445 1.4242540735403 11.4857603138362
v -3.10298155976034 1.0405884641889 11.4954986935879
v -2.34003389300507 1.20413547988959 11.0890255705965
v -2.97631973462357 0.820469870538186 11.0987639503482
v -2.09680033148644 0.801314540454979 11.1105310621649
v -2.73309083150233 0.417648931103573 11.1202694419166
v -1.98023325350198 0.618612194671077 11.5287712969729
v -2.61651909512047 0.234927951730096 11.5385096767246
v -2.22346215662322 1.02143313410569 11.5072658054045
v -2.8597526566391 0.637767524754285 11.5170041851562
v -2.35503859101042 0.685301811760377 10.4213817269218
v -2.38328711280628 0.884457617139096 10.4214411214886
v -2.39238496291633 0.918221681449186 11.1441740081427
v -2.36414109951786 0.719047242480891 11.15367015123
v -2.57008884829671 0.959513715947618 10.4170063271697
v -2.57918669840675 0.993277780257707 11.138416228964
v -2.74486609551445 0.835395375787845 10.4070827761216
v -2.73773525370392 0.86914080650836 11.1421522636738
v -2.70038888179802 0.636220936819551 10.4165765900101
v -2.70949139030546 0.669966367540066 11.1516460775624
v -2.51359180470499 0.561164838011029 10.4244690797945
v -2.52268965481503 0.594910268731544 11.1574061859398
v -4.61550263435335 -0.90872724203153 0.826563301514772
v 4.96778509290476 5.23391941255482 0.0825592443205376
v -6.18226608819948 5.23391941255482 0.0825913799838087
v -6.18227074659687 -5.45539763271538 0.0825913799838087
v 4.96778509290476 -5.45539763271538 0.0825592443205376
vt 0.66815584897995 0.091673731803894
vt 0.835121631622314 0.091673731803894
vt 0.835121631622314 0.233152657747269
vt 0.66815584897995 0.233152657747269
vt 0.970315277576447 0.0916736498475075
vt 0.970315277576447 0.233152583241463
vt 0.0117029016837478 0.091673731803894
vt 0.164203584194183 0.091673731803894
vt 0.164203554391861 0.233152627944946
vt 0.0117029016837478 0.233152538537979
vt 0.342653542757034 0.0916738137602806
vt 0.342653542757034 0.233152747154236
vt 0.505659818649292 0.0916738137602806
vt 0.505659818649292 0.23315267264843
vt 0.639983952045441 0.374631583690643
vt 0.778342485427856 0.374631583690643
vt 0.778342485427856 0.550147950649261
vt 0.63998407125473 0.550147950649261
vt 0.930520474910736 0.374631524085999
vt 0.930520474910736 0.550147950649261
vt 0.0924909561872482 0.374631345272064
vt 0.222376838326454 0.374631524085999
vt 0.222376838326454 0.550147831439972
vt 0.0924909561872482 0.550147950649261
vt 0.370251923799515 0.37463167309761
vt 0.370251923799515 0.550147950649261
vt 0.505329370498657 0.374631524085999
vt 0.505329370498657 0.550147950649261
vt 0.4277323782444 1
vt 0.272606372833252 0.999999642372131
vt 0.342536211013794 0.846720337867737
vt 0.19276550412178 0.846720337867737
vt 0.272606641054153 0.695418775081635
vt 0.427732676267624 0.695418775081635
vt 0.494003355503082 0.846720337867737
vt 0.835121631622314 0.619414567947388
vt 0.66815596818924 0.619414567947388
vt 1 0.619414567947388
vt 0.1642035394907 0.619414687156677
vt 0.00746229290962219 0.619414746761322
vt 0.342653632164001 0.619414567947388
vt 0.505659818649292 0.619414567947388
vt 0.66815584897995 0.0670363828539848
vt 0.835121631622314 0.0670363828539848
vt 0.970315277576447 0.0670363083481789
vt 0.0117029016837478 0.0670363083481789
vt 0.164203584194183 0.0670363083481789
vt 0.342653602361679 0.0670363828539848
vt 0.505659818649292 0.0670363828539848
vt 0.66815584897995 9.25408301100106e-08
vt 0.835121631622314 9.25408301100106e-08
vt 0.970315277576447 9.25408301100106e-08
vt 0.0117029016837478 1.72896960748403e-07
vt 0.164203584194183 1.21847065770453e-08
vt 0.342653542757034 1.21847065770453e-08
vt 0.505659818649292 9.25408301100106e-08
vt 0.833333313465118 0.00195964192971587
vt 1 0.00195964192971587
vt 1 0.826628148555756
vt 0.833333313465118 0.826628148555756
vt 1.31272166470353e-08 0.00195964192971587
vt 0.166666716337204 0.00195964192971587
vt 0.166666716337204 0.826628148555756
vt 1.31272166470353e-08 0.826628148555756
vt 0.333333432674408 0.00195964192971587
vt 0.333333432674408 0.826628148555756
vt 0.500000059604645 0.00195964192971587
vt 0.500000059604645 0.826628148555756
vt 0.666666626930237 0.00195964192971587
vt 0.666666626930237 0.826628148555756
vt 0.0791748985648155 -7.2836208175886e-09
vt 0.917264342308044 4.1681110474201e-07
vt 0.803634762763977 0.0558634474873543
vt 0.212266534566879 0.0558632351458073
vt 0.239928007125854 0.935726881027222
vt 0.572664141654968 0.937301278114319
vt 0.596172034740448 0.988979279994965
vt 0.216863423585892 0.988979279994965
vt 0.736234247684479 0.642018735408783
vt 0.79362028837204 0.642018735408783
vt 0.575796723365784 0.349440932273865
vt 0.61046838760376 0.289197772741318
vt 0.242716565728188 0.349441081285477
vt 0.205385833978653 0.289197713136673
vt 0.072665810585022 0.642018675804138
vt 0.00787192676216364 0.642018675804138
vt 0.391710817813873 0.642018675804138
vt 0.744038999080658 0.98929238319397
vt 0.256101757287979 0.989291906356812
vt 0.275290697813034 0.949710130691528
vt 0.724231898784637 0.949710130691528
vt 0.00896968506276608 0.511481285095215
vt 0.0508199147880077 0.511481285095215
vt 0.256995677947998 0.0247371196746826
vt 0.27529039978981 0.0635204315185547
vt 0.747340083122253 0.02277672290802
vt 0.724231600761414 0.0635204315185547
vt 0.985344767570496 0.511481523513794
vt 0.948702275753021 0.511481285095215
vt 0.722701668739319 0.949710130691528
vt 0.274802505970001 0.949710130691528
vt 0.485230356454849 0.511481285095215
vt 0.948746979236603 0.511481285095215
vt 0.723901212215424 0.0635204315185547
vt 0.276002019643784 0.0635204315185547
vt 0.0502534508705139 0.511481285095215
vt 0.485363960266113 0.511481285095215
vt 0.827934503555298 0.157031610608101
vt 0.991901695728302 0.157031610608101
vt 0.991901695728302 0.823371946811676
vt 0.827934503555298 0.823371946811676
vt 0.008098304271698 0.157031610608101
vt 0.172065615653992 0.157031610608101
vt 0.172065615653992 0.823371946811676
vt 0.008098304271698 0.823371946811676
vt 0.336032807826996 0.157031610608101
vt 0.336032807826996 0.823371946811676
vt 0.500000059604645 0.157031610608101
vt 0.500000059604645 0.823371946811676
vt 0.663967311382294 0.157031610608101
vt 0.663967311382294 0.823371946811676
vt 0 0
vt 1 0
vt 1 1
vt 0 1
vn 0.973621893184504 0.228167502313154 0
vn 0.47696752033182 0.878920920531827 0
vn -0.142228493473069 0.989833852545154 0
vn -0.657467605423609 0.753482811893241 0
vn -0.968051298236983 0.250752236244647 0
vn -0.925715804316644 -0.378219842999266 0
vn -0.530357463438399 -0.847774121435178 0
vn -0.0826838608186612 -0.996575827100036 0
vn 0.491312669434117 -0.870983272430373 0
vn 0.899871518395784 -0.43615507606821 0
vn -0.287507748427673 -0.957765666305952 0.00492169072238836
vn 0.2135134078531 -0.976938691163203 0.00167880174067591
vn 0.215995316597957 -0.976392614066135 0.00186719170082474
vn -0.289672507216842 -0.957113011854017 0.00495187867786696
vn 0.967791881990947 -0.25174873876695 -0.00120236503214904
vn 0.974432602056488 0.224674996190336 -0.00150004543084938
vn 0.974579420004924 0.224039189275414 -0.00118142781447881
vn 0.96789215216957 -0.251365816483572 -8.98448940437964e-05
vn 0.75985396600621 0.65009216805885 -0.00145717987115645
vn 0.760957004603781 0.648799208566287 -0.00200601799603168
vn -0.291665960945601 0.956499600949868 -0.00628335964447931
vn -0.689948802143776 0.723825561914878 -0.00687068693656193
vn -0.686937933289305 0.726641898770545 -0.0103839664558026
vn -0.283409198336105 0.95894475575911 -0.0102069437436986
vn -0.941433461803611 0.337145492418036 -0.00599616032720631
vn -0.941531288018366 0.336823067075358 -0.00830994394841109
vn -0.716249364678784 -0.697810046212969 0.00692726508031084
vn -0.721169116467428 -0.692725986584319 0.00676852748907763
vn -0.103905966356679 -0.994533453798539 0.0103324455495237
vn 0.225342144595947 -0.974224304210951 0.0103885972868016
vn 0.226389931255913 -0.925916187162894 0.302368671286679
vn 0.967646886421453 -0.252292491848789 0.00282873745635956
vn 0.974910475555862 0.222589130121987 0.00190887479439116
vn 0.975186188264767 0.0684723083272879 0.210531330708681
vn 0.92727156806337 -0.243953634478409 0.283996590271916
vn 0.762266486258739 0.647263077908585 0.000558482820362447
vn 0.728821678589869 0.630658283545196 0.266625374286232
vn -0.267756459453643 0.963430361305456 -0.010412364557989
vn -0.680589320900475 0.732599142039186 -0.00983226116813663
vn -0.647719490965427 0.690583459184406 0.321797990864437
vn -0.260222103931084 0.91270583055799 0.315043685051978
vn -0.941159547468705 0.337888982323544 -0.00705278901298646
vn -0.902820887781658 0.337958581348433 0.265891786029757
vn -0.735077535712194 -0.67797755122742 0.0027306634651569
vn -0.743963223794006 -0.668219576386772 -0.00114864072425453
vn -0.721566879154683 -0.632234843585868 0.282170766492428
vn -0.130716040460607 -0.393825947425301 0.909843085317938
vn 0.296698037856209 -0.297422681334949 0.90747453019895
vn -0.0116423232135765 0.00977804432129102 0.999884416399937
vn 0.428188884404447 0.104167355472227 0.897665550929965
vn 0.10798854771259 0.394639896307059 0.912467986181257
vn -0.312609653162827 0.323791901061842 0.892991606654942
vn -0.431255920952792 -0.0556236187274173 0.900513377847784
vn 0.643761318967542 0.569811641702468 0.510770062926078
vn -1.53288671381509e-07 -2.40563258436188e-08 0.999999999999988
vn -0.0392502013600016 -0.0309817342659194 0.998748994410045
vn -8.19895318675113e-06 3.15134593376382e-05 0.99999999946984
vn -0.0147614828751822 0.0126497800593715 0.999811022987732
vn -0.0725094172680412 0.0401070853428294 0.996560989660318
vn -0.0970668671850404 -0.00350000699931186 0.995271708251514
vn -0.0784018927616668 -0.0618859046116615 0.994999134683938
vn 0.623011437784027 -0.674603901214537 0.395937273891214
vn -0.274276151019098 -0.891058242752563 0.361645960857941
vn -0.274276214753604 -0.891058227160333 0.361645950938648
vn 0.623011248242644 -0.67460377845559 0.395937781294718
vn 0.90525516122708 0.194444039366489 0.377762635297056
vn 0.905254972704296 0.194444124744561 0.377763043118919
vn 0.715088942335495 0.620383293902886 0.322137196231214
vn -0.633644051823545 0.689488850099525 0.350856582063206
vn -0.270040979999772 0.907352393222417 0.322163783865156
vn -0.633643983679532 0.689488826968861 0.350856750586101
vn -0.882877544359534 0.347176021162994 0.316221523611395
vn -0.688843725697932 -0.663290921744238 0.292471322864774
vn 0.900351856481051 -0.435126650926922 0.00559751589958194
vn 0.997608697161514 0.0687528192372971 0.00706662540612499
vn 0.435202609138318 0.900330412580446 0.00195887261558561
vn -0.0291363212485454 0.999530159654644 -0.00951497371848887
vn -0.486901813073118 0.873253449041612 -0.0188424563961137
vn -0.997630784315699 -0.0687469413895903 0.00258384117539425
vn -0.848974980833484 -0.528278694810549 0.0127711600118728
vn -0.502192465690061 -0.86452507245822 0.0199781504460904
vn 0.565982509930438 -0.824412974461672 0.00265442877122349
vn 0.889612120989712 -0.306417012222663 -0.338672243930209
vn -0.479686837763982 -0.146175368774544 0.865178189299532
vn 0.000941309752038579 -0.00913534875587962 0.999957828780324
vn -0.479686968428564 -0.146175564449124 0.865178083794194
vn 0.832727683994471 0.234905269566742 0.501382208139639
vn 0.961608151943548 0.274415350563645 0.00244489074323631
vn 0.961608067770116 0.274415646451025 0.002444786757564
vn 0.833633785479074 0.240626438319796 -0.497145480608402
vn -0.0401380628695218 0.0530001631008696 -0.997787511758072
vn -0.500765125712309 -0.110721911644378 -0.858472449850401
vn -0.500765059084755 -0.110722893658178 -0.858472362059374
vn -0.959281787248591 -0.282449893415524 0.00071439674464062
vn 0.254337296962185 -0.965867331208152 -0.0491206461562923
vn 0.299128793608499 -0.952917264574607 -0.0497056506845283
vn 0.277254179567743 -0.960753732463008 -0.00907664423765498
vn 0.232562341217864 -0.972538731071841 -0.00911997875213333
vn 0.254446722237076 -0.966593312919531 0.0308906614052418
vn 0.299169650959459 -0.953675721648094 0.0316249566605561
vn 0.322076814792704 -0.946671036946008 -0.0089706845087546
vn -0.0123652004312434 0.0458595561873335 0.998871364553312
vn -0.453349889926574 0.763526161648332 0.459893115606364
vn -0.516342219966489 0.855164605067274 -0.045653150167443
vn -0.440984439642962 0.717667965367029 -0.538966989229147
vn 0.012365110038672 -0.0458606687806985 -0.998871314590983
vn 0.268882271286249 -0.46729334790744 -0.842222803769528
vn 0.516355923533417 -0.855156742900022 0.0456454302704786
vn 0.441001619627884 -0.7176589784671 0.538964898774625
vn 0.856282841085327 0.516341012156765 -0.0131017261370074
vn 0.856282901548281 0.516340787949498 -0.013106609620691
vn 0.856283434875202 0.51633996289411 -0.0131042694124944
vn 0.856285057603336 0.5163372792812 -0.0131039745779663
vn -0.856293422828993 -0.516323414117434 0.0131036656674296
vn -0.856290439119229 -0.516328143972252 0.0131122696420786
vn -0.856288891559297 -0.516330946346215 0.0131029781871056
vn -0.856285118056065 -0.516337055067714 0.0131088580628701
vn -0.856284997130157 -0.516337503482281 0.013099091094122
vn -0.856288041307129 -0.516332549413839 0.0130953705639214
vn -0.856291145940997 -0.516327371143365 0.0130965335579934
vn 0.92749567502694 -0.372729665763254 0.0287118279866327
vn 0.990055995070595 0.140551598071139 0.00586301154895579
vn 0.373455464464706 0.926843269601329 -0.0386337890475302
vn -0.127810043514011 0.99082628885986 -0.0439073807137788
vn -0.596434596836675 0.801763176846498 -0.0379681438746282
vn -0.983776523171453 -0.179265167838472 0.00691028628441276
vn -0.775014658232018 -0.631423559755724 0.0256235772467129
vn -0.373756059297663 -0.926749404666126 0.0379730047436651
vn 0.616465115099426 -0.786159172642766 0.0438693188355221
vn -0.115367153457285 0.0548990823779483 0.991804673641551
vn 2.88210844699901e-06 0 0.999999999995847
g GearCollision1 collision_boilerA1 collision props
f 1//1 2//2 3//2 4//1
f 2//2 5//3 6//3 3//2
f 5//3 7//4 8//4 6//3
f 7//4 9//5 10//5 8//4
f 9//5 11//6 12//6 10//5
f 11//6 13//7 14//7 12//6
f 13//7 15//8 16//8 14//7
f 15//8 17//9 18//9 16//8
f 17//9 19//10 20//10 18//9
f 19//10 1//1 4//1 20//10
g SmallBoiler2 SmallBoiler2All1
f 21/1/11 22/2/12 23/3/13 24/4/14
f 22/2/15 25/5/16 26/6/17 23/3/18
f 25/7/16 27/8/19 28/9/20 26/10/17
f 27/8/21 29/11/22 30/12/23 28/9/24
f 29/11/22 31/13/25 32/14/26 30/12/23
f 31/13/27 21/1/11 24/4/14 32/14/28
f 33/15/29 34/16/30 35/17/31 36/18/31
f 34/16/32 37/19/33 38/20/34 35/17/35
f 37/21/33 39/22/36 40/23/37 38/24/34
f 39/22/38 41/25/39 42/26/40 40/23/41
f 41/25/39 43/27/42 44/28/43 42/26/40
f 43/27/44 33/15/45 36/18/46 44/28/46
f 45/29/47 46/30/48 47/31/49
f 46/30/48 48/32/50 47/31/49
f 48/32/50 49/33/51 47/31/49
f 49/33/51 50/34/52 47/31/49
f 50/34/52 51/35/53 47/31/49
f 51/35/53 45/29/47 47/31/49
f 36/18/31 35/17/31 46/36/48 45/37/47
f 35/17/35 38/20/34 48/38/50 46/36/48
f 38/24/54 40/23/37 49/39/51 48/40/50
f 40/23/41 42/26/40 50/41/52 49/39/51
f 42/26/40 44/28/43 51/42/53 50/41/52
f 44/28/46 36/18/46 45/37/47 51/42/53
f 22/2/55 21/1/56 52/43/56 53/44/55
f 25/5/57 22/2/55 53/44/55 54/45/57
f 27/8/58 25/7/57 54/46/57 55/47/58
f 29/11/59 27/8/58 55/47/58 56/48/59
f 21/1/56 31/13/60 57/49/61 52/43/56
f 53/44/62 52/43/63 58/50/64 59/51/65
f 54/45/66 53/44/62 59/51/65 60/52/67
f 55/47/68 54/46/66 60/53/67 61/54/68
f 56/48/69 55/47/70 61/54/70 62/55/71
f 57/49/72 56/48/69 62/55/71 63/56/72
f 52/43/63 57/49/73 63/56/73 58/50/64
f 32/14/28 24/4/14 33/15/29 43/27/44
f 30/12/23 32/14/26 43/27/42 41/25/39
f 28/9/24 30/12/23 41/25/39 39/22/38
f 26/10/17 28/9/20 39/22/36 37/21/33
f 23/3/18 26/6/17 37/19/33 34/16/32
f 24/4/14 23/3/13 34/16/30 33/15/29
f 64/57/74 65/58/75 66/59/75 67/60/74
f 65/61/76 68/62/77 69/63/77 66/64/76
f 68/62/77 70/65/78 71/66/78 69/63/77
f 70/65/79 72/67/80 73/68/80 71/66/79
f 72/67/80 74/69/81 75/70/81 73/68/80
f 74/69/82 64/57/74 67/60/74 75/70/82
f 76/71/83 77/72/83 78/73/83 79/74/83
f 80/75/84 81/76/85 82/77/85 83/78/86
f 81/76/87 84/79/88 85/80/89 82/77/87
f 84/79/88 86/81/90 87/82/90 85/80/89
f 86/81/91 88/83/92 89/84/93 87/82/91
f 88/83/92 90/85/94 91/86/94 89/84/93
f 90/85/94 80/75/84 83/78/86 91/86/94
f 81/76/95 80/75/96 92/87/97
f 84/79/98 81/76/95 92/87/97
f 86/81/99 84/79/98 92/87/97
f 88/83/100 86/81/99 92/87/97
f 90/85/101 88/83/100 92/87/97
f 80/75/96 90/85/101 92/87/97
f 93/88/102 94/89/102 95/90/102 96/91/102
f 94/89/103 97/92/104 98/93/104 95/90/103
f 97/92/104 99/94/105 100/95/105 98/93/104
f 99/94/106 101/96/107 102/97/107 100/95/106
f 101/96/107 103/98/108 104/99/108 102/97/107
f 103/98/108 93/88/109 96/91/109 104/99/108
f 94/100/110 93/101/111 105/102/112
f 97/103/113 94/100/110 105/102/112
f 99/104/111 97/103/113 105/102/112
f 101/105/110 99/104/111 105/102/112
f 103/106/113 101/105/110 105/102/112
f 93/101/111 103/106/113 105/102/112
f 96/91/114 95/90/115 106/107/116
f 95/90/115 98/93/117 106/107/116
f 98/93/117 100/95/118 106/107/116
f 100/95/118 102/97/119 106/107/116
f 102/97/119 104/99/120 106/107/116
f 104/99/120 96/91/114 106/107/116
f 107/108/121 108/109/122 109/110/122 110/111/121
f 108/112/123 111/113/124 112/114/124 109/115/123
f 111/113/124 113/116/125 114/117/125 112/114/124
f 113/116/126 115/118/127 116/119/127 114/117/126
f 115/118/127 117/120/128 118/121/128 116/119/127
f 117/120/129 107/108/121 110/111/121 118/121/129
f 31/1/60 29/13/59 56/49/59 119/43/130
g circleshadow1 SmallBoiler2All1
f 120/122/131 121/123/131 122/124/131 123/125/131
