v -7.38044248165421 -6.80036519768983 0.0213566258197694
v 6.22028791372544 -6.80036519768983 0.0213566258197694
v 6.22028791372544 -6.80036519768983 13.6220866926699
v -7.38044248165421 -6.80036519768983 13.6220866926699
v 6.22028791372544 6.80036519768983 13.6220866926699
v -7.38044248165421 6.80036519768983 13.6220866926699
v 6.22028791372544 6.80036519768983 0.0213566258197694
v -7.38044248165421 6.80036519768983 0.0213566258197694
v 10.4173515099553 10.146277720534 0.0661836834404412
v -10.4382292179298 10.146277720534 0.0661836834404412
v -10.4382292179298 -10.9160976459974 0.0661836834404412
v 10.4173515099553 -10.9160976459974 0.0661836834404412
vt 0 0
vt 1 0
vt 1 1
vt 0 1
vt 1 2
vt 0 2
vt 0.998007893562317 0.998007893562317
vt 0.00199204683303833 0.998007893562317
vt 0.00199204683303833 0.00199204683303833
vt 0.998007893562317 0.00199204683303833
vt 0 3
vt 1 3
vt 1 4
vt 0 4
vt 2 0
vt 2 1
vt -1 0
vt -1 1
vn 0 -1 0
vn 0 0 1
vn 0 1 0
vn 0 0 -1
vn 1 0 0
vn -1 0 0
g CBCrate CBCrateAll
f 1/1/1 2/2/1 3/3/1 4/4/1
f 4/4/2 3/3/2 5/5/2 6/6/2
f 6/7/3 5/8/3 7/9/3 8/10/3
f 8/11/4 7/12/4 2/13/4 1/14/4
f 2/2/5 7/15/5 5/16/5 3/3/5
f 8/17/6 1/1/6 4/4/6 6/18/6
g CBCrateShadow CBCrateAll
f 9/1/2 10/2/2 11/3/2 12/4/2
