v -4.99999987846363e-05 -4.99999987846363e-05 -4.99999987846362e-05
v 4.99999987846363e-05 -4.99999987846363e-05 -4.99999987846363e-05
v 4.99999987846363e-05 -4.99999987846363e-05 4.99999987846363e-05
v -4.99999987846363e-05 -4.99999987846363e-05 4.99999987846363e-05
v 4.99999987846363e-05 4.99999987846363e-05 4.99999987846362e-05
v -4.99999987846363e-05 4.99999987846363e-05 4.99999987846363e-05
v 4.99999987846363e-05 4.99999987846363e-05 -4.99999987846363e-05
v -4.99999987846363e-05 4.99999987846363e-05 -4.99999987846363e-05
vn 0 -1 0
vn 0 0 1
vn 0 1 0
vn 0 0 -1
vn 1 0 0
vn -1 0 0
g pCube2 camera1 flyover hole3
f 1//1 2//1 3//1 4//1
f 4//2 3//2 5//2 6//2
f 6//3 5//3 7//3 8//3
f 8//4 7//4 2//4 1//4
f 2//5 7//5 5//5 3//5
f 8//6 1//6 4//6 6//6
