v 2.05880713275098 2.04113737491798 4.03624457011386
v -1.33461939694062 2.04113737491798 4.03624457011386
v -1.3346153920091 -1.8217712562541 4.03624457011386
v 2.0588111376825 -1.8217712562541 4.03624457011386
v -0.705491714277293 -1.16041338662776 4.05458665582452
v 1.94597569663381 -1.16041338662776 4.05458665582452
v 1.94597519601737 -1.16041338662776 6.7869631949998
v -0.705491714277293 -1.16041338662776 6.7869631949998
v -0.705491714277293 1.4597104290339 6.7869631949998
v 1.94597519601737 1.4597104290339 6.7869631949998
v 1.94597569663381 1.4597104290339 4.05458665582452
v -0.705491714277293 1.4597104290339 4.05458665582452
v -1.79981021430549 -1.90767753781296 0.0179069190044103
v 2.08455583867751 -1.90767753781296 0.0179069190044103
v 2.08455533806108 -1.90767753781296 4.02080405728398
v -1.79981071492193 -1.90767753781296 4.02080405728398
v -1.79981071492193 1.93077097414673 4.02080405728398
v 2.08455533806108 1.93077097414673 4.02080405728398
v 2.08455583867751 1.93077097414673 0.0179069190044103
v -1.79981021430549 1.93077097414673 0.0179069190044103
v 3.14201294906496 2.87506824403297 -0.000748593663293233
v -2.81432945271489 2.87506824403297 -0.000748593663293233
v -2.81433345764641 -3.06923533362041 -0.000748593663293233
v 3.14201695399647 -3.06923533362041 -0.000748593663293233
v -1.80596066272165 -1.94589109245561 -0.00432632726634268
v 2.08582164734367 -1.94589109245561 -0.00432632726634268
v 2.08582164734367 -1.94589109245561 4.03880272011744
v -1.80596066272165 -1.94589109245561 4.03880272011744
v -1.80596066272165 1.94589109245561 4.03880272011744
v 2.08582164734367 1.94589109245561 4.03880272011744
v 2.08582164734367 1.94589109245561 -0.00432632726634268
v -1.80596066272165 1.94589109245561 -0.00432632726634268
v -0.709690008889346 -1.18649813133901 4.03941021816624
v 1.94683976060762 -1.18649813133901 4.03941021816624
v 1.94683976060762 -1.18649813133901 6.79924932364717
v -0.709690008889346 -1.18649813133901 6.79924932364717
v -0.709690008889346 1.47003163815796 6.79924932364717
v 1.94683976060762 1.47003163815796 6.79924932364717
v 1.94683976060762 1.47003163815796 4.03941021816624
v -0.709690008889346 1.47003163815796 4.03941021816624
vt 0.167737483978271 0
vt 1 0
vt 1 1
vt 0.167737483978271 1
vt 0 0
vt 0 1
vt 0 2
vt 1 2
vt 1 3
vt 0 3
vt 1 4
vt 0 4
vt 2 0
vt 2 1
vt -1 0
vt -1 1
vn 0 -3.03189757744349e-08 1
vn 0 -1 0
vn 0 1 0
vn 0 0 -1
vn 0.999999999999989 0 1.46827616731569e-07
vn -1 0 0
vn 0 0 1
vn 0.999999999999995 0 1.02619821973348e-07
vn -0.999999999999995 -0 -1.02619821973348e-07
vn 0 -2.30221874550351e-12 1
vn 1.48312595538158e-09 -1 0
vn 1.48312595538158e-09 1 0
vn 1 0 1.51329526687505e-08
vn -1 0 1.51329526687505e-08
vn 0 1.63328453837852e-08 1
g CBMetalBoxShadow1 CBMetalBox1 MetalBoxesAll
f 1/1/1 2/2/1 3/3/1 4/4/1
g CBMetalBoxSides CBMetalBox1 MetalBoxesAll
f 5/5/2 6/2/2 7/3/2 8/6/2
f 9/7/3 10/8/3 11/9/3 12/10/3
f 12/10/4 11/9/4 6/11/4 5/12/4
f 6/2/5 11/13/5 10/14/5 7/3/5
f 12/15/6 5/5/6 8/6/6 9/16/6
g CBMetalBoxTop CBMetalBox1 MetalBoxesAll
f 8/6/7 7/3/7 10/8/7 9/7/7
g CBMetalBoxSides CBMetalBox2 MetalBoxesAll
f 13/3/2 14/6/2 15/5/2 16/2/2
f 17/7/3 18/8/3 19/9/3 20/10/3
f 20/10/4 19/9/4 14/11/4 13/12/4
f 14/6/8 19/16/8 18/15/8 15/5/8
f 20/14/9 13/3/9 16/2/9 17/13/9
g CBMetalBoxShadow CBMetalBox2 MetalBoxesAll
f 21/5/10 22/2/10 23/3/10 24/6/10
g CBMetalBoxTop CBMetalBox2 MetalBoxesAll
f 16/6/7 15/3/7 18/8/7 17/7/7
g wall collision1 collision MetalBoxesAll
f 25//11 26//11 27//11 28//11
f 29//12 30//12 31//12 32//12
f 26//13 31//13 30//13 27//13
f 32//14 25//14 28//14 29//14
g floor collision1 collision MetalBoxesAll
f 28//15 27//15 30//15 29//15
g wall collision2 collision MetalBoxesAll
f 33//11 34//11 35//11 36//11
f 37//12 38//12 39//12 40//12
f 34//13 39//13 38//13 35//13
f 40//14 33//14 36//14 37//14
g floor collision2 collision MetalBoxesAll
f 36//15 35//15 38//15 37//15
