v 0.524326956231328 4.36350990663999 59.2352999789822
v -10.0451038180469 4.36350990663999 59.2893825741265
v -8.32966349344879 -0.131240749527989 80.0148791215552
v 0.350929441467548 -0.131240749527989 80.011298712783
v 0.0705201566906454 4.36350990663999 -4.73858290144146
v -18.1850309987802 4.36350990663999 -4.73858290144146
v 11.0937497206465 4.36350990663999 59.1812213887693
v 9.03153839610994 -0.131240749527989 80.0077183040109
v 18.3260713121614 4.36350990663999 -4.73858290144146
vt 0.500000059604645 1.17975568771362
vt 8.94069671630859e-08 1.1802442073822
vt 5.96046447753906e-08 1.88855719566345
vt 0.5 1.88855719566345
vt 0.500000059604645 -0.528426170349121
vt 8.94069671630859e-08 -0.528426170349121
vt 1 1.17926716804504
vt 1 1.88855719566345
vt 1 -0.528426170349121
vn 0.000318501626563061 0.994330714175296 0.106331224973471
vn 0.000318844916921086 0.994318849295033 0.106442117014467
vn 0.000634628433293016 0.977339994581291 0.211674590441539
vn 0.000633391907400698 0.977387137742209 0.211456808333959
vn 0 1 0
vn 0.000318158340431855 0.994342566405577 0.106220334254985
vn 0.000633320677306063 0.97743422252336 0.211239057811463
vn 1.16803323635315e-06 0.999999999999318 0
g mesh_tide1 waterfall golf_waterfall
f 1/1/1 2/2/2 3/3/3 4/4/4
f 5/5/5 6/6/5 2/2/2 1/1/1
f 7/7/6 1/1/1 4/4/4 8/8/7
f 9/9/8 5/5/8 1/1/1 7/7/6
