v -0.212075377940818 0.0637182395134579 2.90333008712934
v -0.121452320633724 -0.204065313771706 2.86993305165374
v 0.162823575155287 -0.199597084402947 2.85567886265768
v 0.247892683628124 0.0709479865016406 2.88026632485165
v 0.016192388267979 0.233685806440667 2.90971640118069
v 0.396343871267682 -0.698968343477757 2.22159130715118
v -0.442624835959367 -0.625897883087562 2.1435911527401
v -0.624349142198667 0.192384298801863 2.03097518895104
v 0.102307767190501 0.625040039207758 2.03937485006464
v 0.733130741592259 0.0741538103169263 2.1571820899159
v -0.127960969676601 -0.190605456488594 2.7443481931482
v -0.218584026983695 0.07717809679657 2.7777452286238
v 0.15631492611241 -0.186137227119835 2.73009400415213
v 0.241384034585248 0.0844078437847527 2.75468146634611
v 0.00968373922510248 0.247145663723779 2.78413154267514
v -0.606896934169835 0.233646154870701 2.45240085756521
v -0.442607976459979 -0.528404391523552 2.49356516908012
v 0.333395352572663 -0.606400786505031 2.52735559861005
v 0.648702827588047 0.107445336790706 2.5070749210391
v 0.0675702350218211 0.626622898706299 2.46075034345544
v -1.60000002384186 -1.59227296461747 0.025
v 1.60000002384186 -1.59227296461747 0.025
v 1.60000002384186 1.60769383174881 0.025
v -1.60000002384186 1.60769383174881 0.025
v -0.91144561932061 -0.285619602166536 1.4805811567974
v -0.873251614163723 0.21016594078271 1.24561308938911
v -0.793210089156295 0.136994447357141 0.70643652632896
v -0.781935711347217 -0.404013565536697 0.608175151828737
v -0.855009287666628 -0.665203412265561 1.08662284566646
v -0.680741425668317 0.208957386819177 1.27435551223679
v -0.718935430825204 -0.28682815613007 1.50932357964509
v -0.600699900660889 0.135785893393608 0.735178949176647
v -0.589425522851811 -0.40522211950023 0.636917574676424
v -0.662499099171222 -0.666411966229094 1.11536526851415
v 1.15745905651073 -0.298607917048422 1.78947562876827
v 1.21389538816472 -0.678191727147446 1.39551731763732
v 1.28696896448413 -0.417001880418582 0.9170696237996
v 1.27569458667505 0.124006132475256 1.01533099829982
v 1.19565306166762 0.197177625900825 1.55450756135997
v 1.02138519966931 -0.676983173183912 1.36677489478964
v 0.964948868015328 -0.297399363084888 1.76073320592058
v 1.09445877598872 -0.415793326455048 0.888327200951913
v 1.08318439817964 0.12521468643879 0.986588575452136
v 1.00314287317222 0.198386179864359 1.52576513851228
v -0.612973021127748 0.0522894245686203 0.813870671101006
v 1.07091127771278 0.0417182176138026 1.0652802973765
v 1.07940489278536 -0.365853170405637 0.991254545743843
v -0.604479406055169 -0.355281963450819 0.739844919468354
v -0.6732727480615 0.107413575095327 1.22006232622737
v 1.01061155077903 0.0968423681405095 1.47147195250286
v -0.702046413746317 -0.266089214297642 1.39707682340939
v 0.981837885094216 -0.27666042125246 1.64848644968488
v -0.659529790186708 -0.552050783562097 1.10028614404298
v 1.02435450865382 -0.562621990516915 1.35169577031847
v -0.480478209606043 -0.537036569196929 0.208426875838799
v 0.36770348055787 -0.630563863736288 0.153138933303714
v 0.73297294830484 0.157909948684626 0.153655300938337
v 0.0869275960650836 0.756835044945382 0.256505146062216
v -0.672155016414169 0.33361609019053 0.258801125084507
v 0.439543385890277 -0.762775724960533 -0.0132346148801273
v -0.597953070923772 -0.638111537301936 -0.00814742581274036
v 0.878693858666827 0.18517825989438 -0.0126138044623556
v 0.112607320204271 0.895710229964217 -0.00714293345621569
v -0.800010671665891 0.386889152705886 -0.00438255964412661
v -0.0882910326050557 -0.596576644584887 0.922473467283435
v -0.0919008497109117 -0.597134785308803 1.26627030564257
v -0.239459696031671 -0.0448796501102437 1.37605492211381
v -0.209703224809642 -0.0292334628879374 0.969300844537431
v 0.235603141593781 0.234368583047947 1.56353221161766
v 0.284334016021079 0.267717833967126 0.888312317801274
v 0.676766968359043 -0.145301652760495 1.56961493217851
v 0.711078014767268 -0.116099353270034 0.791431278325553
v 0.474358370281493 -0.65919899616499 1.38589697072532
v 0.480783069656735 -0.650262717304045 0.812544029800295
v -0.322969732310641 -0.441396839212085 2.1678502972585
v -0.446532251878287 0.122017515932107 2.08969290688511
v 0.0628362121629072 0.439048558881221 2.04893792178224
v 0.537466193703125 -0.0782549593608537 2.16397321445218
v 0.264552466285352 -0.494815926580225 2.18635535994954
v -0.279793003243213 -0.316417834744138 0.213358464706523
v -0.387474471588744 0.188940897460479 0.220710139237269
v 0.0718827908961436 0.497563809024016 0.228208376576442
v 0.48919730107213 0.111020410011105 0.160771229529142
v 0.224939557554946 -0.414150687442021 0.130849543804155
v -0.838081348000453 0.132739045249484 2.13937945265342
v -0.756044106402061 -0.385223713152124 2.13937945265342
v -0.385223713152124 -0.756044106402061 2.13937945265342
v 0.132739045249485 -0.838081348000453 2.13937945265342
v 0.6 -0.6 2.13937945265342
v 0.838081348000453 -0.132739045249484 2.13937945265342
v 0.756044106402061 0.385223713152124 2.13937945265342
v 0.385223713152124 0.756044106402061 2.13937945265342
v -0.132739045249485 0.838081348000453 2.13937945265342
v -0.6 0.6 2.13937945265342
v -0.756044106402061 -0.385223713152124 0
v -0.838081348000453 0.132739045249484 0
v -0.385223713152124 -0.756044106402061 0
v 0.132739045249485 -0.838081348000453 0
v 0.6 -0.6 0
v 0.838081348000453 -0.132739045249484 0
v 0.756044106402061 0.385223713152124 0
v 0.385223713152124 0.756044106402061 0
v -0.132739045249485 0.838081348000453 0
v -0.6 0.6 0
vt 0.13277430832386 0.598332822322845
vt 0.280149728059769 0.155385375022888
vt 0.755637764930725 0.15739007294178
vt 0.90213018655777 0.601576447486877
vt 0.517179369926453 0.874094069004059
vt 0.495706260204315 0.998942315578461
vt 0.00056848197709769 0.623207211494446
vt 0.19871512055397 0.0034849822986871
vt 0.816314280033112 -0.00378933688625693
vt 0.999864876270294 0.611437141895294
vt 0 0
vt -9.29611942979136e-12 0.690351724624634
vt -0.30901700258255 0.690351724624634
vt -0.30901700258255 -4.77832706735626e-09
vt 1 0
vt 1 0.690351724624634
vt 1.30901694297791 -4.77833062006994e-09
vt 1.30901694297791 0.690351724624634
vt 0.5 -7.73150077293394e-09
vt 0.5 0.690351724624634
vt 0.995831489562988 0.981668949127197
vt 1.00010883808136 -0.0591636784374714
vt 0.0654412060976028 0.844159543514252
vt -0.0118062002584338 -0.0898865684866905
vt 0.00902793556451797 0.847012877464294
vt -0.00225836155004799 -0.0596980042755604
vt 0.993217289447784 0.830921292304993
vt 0.990163087844849 -0.107708372175694
vt -0.00385189591906965 0.825860261917114
vt 0.00396644696593285 -0.0767204016447067
vt 0.984869241714478 1.00776338577271
vt 0.985893785953522 -0.0736097767949104
vt -0.089161179959774 0.978852570056915
vt -0.0683993920683861 -0.0309589505195618
vt 0.933126986026764 1.03921151161194
vt 0.950815618038177 0.0247486289590597
vt 0.0586304143071175 1.02716314792633
vt 0.0433032736182213 0.0256913974881172
vt 1.05830669403076 0.984925985336304
vt 1.04305481910706 -0.0139294676482677
vt 0.309402912855148 0.595515608787537
vt 0.113567352294922 0.109804131090641
vt 0.373943597078323 0.371796816587448
vt 0.00426494097337127 0.735857248306274
vt 0.729259192943573 -0.00162347219884396
vt 0.600394904613495 0.356821894645691
vt 1.00047516822815 0.555563628673553
vt 0.675808846950531 0.571285605430603
vt 0.552404165267944 1.01135182380676
vt 0.495965898036957 0.718806445598602
vt 1 1
vt 0 1
vt 0.559198796749115 0.993668854236603
vt 0.0312306508421898 0.71937358379364
vt 0.132762998342514 0.112583570182323
vt 0.723481595516205 0.0118619911372662
vt 0.987033426761627 0.556402623653412
vt 0.80901700258255 -0.0246295370161533
vt 0.80901700258255 0.504897594451904
vt 1 0.529527127742767
vt 0.190983012318611 -0.0246295370161533
vt 0.190983012318611 0.504897594451904
vt 0 0.529527127742767
vt 0.5 0.0152218909934163
vt 0.5 0.544749021530151
vt 0.550559401512146 1.02094161510468
vt -0.0134327011182904 0.713078081607819
vt 0.0998192057013512 0.0734554156661034
vt 0.733804821968079 -0.0139896161854267
vt 1.01237761974335 0.571589052677155
vt 0.80901700258255 -0.0503633916378021
vt 0.80901700258255 0.485644906759262
vt 1 0.536008298397064
vt 0.190983012318611 -0.0503633916378021
vt 0.190983012318611 0.485644906759262
vt 0 0.536008298397064
vt 0.5 0.0311262886971235
vt 0.5 0.567134618759155
vt -0.0814722552895546 0.99884170293808
vt -0.0831627547740936 0.00239156745374203
vt 0.116344340145588 0.00175000599119812
vt 0.118034839630127 0.998200118541718
vt -0.0730568319559097 1.00032484531403
vt -0.0842427313327789 0.0015023595187813
vt 0.0924321189522743 -0.00164840673096478
vt 0.103618018329144 0.997174084186554
vt -0.0799607187509537 0.995426297187805
vt -0.0761551856994629 -0.00420397846028209
vt 0.118191234767437 -0.00201285188086331
vt 0.114385701715946 0.997617423534393
vt -0.0820104032754898 1.00117337703705
vt -0.0786027759313583 0.00145272456575185
vt 0.122760370373726 0.00157115457113832
vt 0.119352743029594 1.00129187107086
vt -0.0782558470964432 1.00180244445801
vt -0.0658221542835236 0.000115355403977446
vt 0.120642282068729 -0.000211429403861985
vt 0.10820858925581 1.00147569179535
vt 0.172823667526245 0.134811773896217
vt 0.6899573802948 0.0806302577257156
vt 0.913138568401337 0.560042858123779
vt 0.531509101390839 0.927196323871613
vt 0.0628432780504227 0.674369990825653
vt 0.732179045677185 6.26086548436433e-05
vt 0.0987945720553399 0.0714391693472862
vt 0.999255537986755 0.575884342193604
vt 0.548105716705322 1.01111614704132
vt -0.0161918345838785 0.708132207393646
vt 0.884044289588928 0.398544460535049
vt 0.884044289588928 0.6525998711586
vt 0.684044361114502 0.6525998711586
vt 0.684044361114502 0.398544460535049
vt 0.484044373035431 0.652599930763245
vt 0.484044343233109 0.398544460535049
vt 0.28404426574707 0.652599930763245
vt 0.28404426574707 0.398544460535049
vt 0.0840442702174187 0.652599930763245
vt 0.0840442776679993 0.398544460535049
vt 1.08404433727264 0.398544460535049
vt 1.08404433727264 0.6525998711586
vt 0.884044289588928 1
vt 0.684044301509857 1
vt 0.484044313430786 1
vt 0.284044295549393 1
vt 0.0840442851185799 1
vt 1.08404433727264 1
vt 0.884044289588928 0
vt 0.684044301509857 0
vt 0.484044313430786 0
vt 0.284044295549393 0
vt 0.0840442851185799 0
vt 1.08404433727264 0
vn 0.051463290553392 -0.106425852868247 0.992987949356226
vn 0.0817266366023983 -0.118049037350921 -0.989638914781639
vn -0.946576527383524 -0.322151735524118 0.0145305576406096
vn -0.880281002173375 -0.232450503442741 0.413608656415523
vn 0.0102571505707929 -0.994196743133775 -0.107087005768032
vn 0.952915795064 -0.292295643237002 -0.080713966958709
vn 0.558572998619532 0.721099571913919 0.409892196313552
vn 0.578677199195387 0.813548100849794 0.0572030308207137
vn 0.518937259594395 0.66781649305278 0.533596525673984
vn -0.53851666560377 0.705946561201512 0.460042664972236
vn -0.595273617446658 0.795096021045102 0.116067384265418
vn -0.486690968237345 0.686733571746554 0.539934165313157
vn -0.885484250346914 -0.16748656918606 0.433434991123059
vn -0.976318205074173 -0.208005752121285 0.059467382027499
vn -0.848568556471603 -0.215199377983084 0.483343183135331
vn -0.976226674358341 -0.208789480892843 0.0582102477210967
vn -0.106113122487129 -0.799762660954224 0.590863513325582
vn -0.108070276769765 -0.957567347148964 0.267180820705757
vn -0.0693133107150241 -0.78096144894591 0.620721258068408
vn -0.10826469384686 -0.957437447307127 0.26756735705287
vn 0.733290085385437 -0.306655487928631 0.60683446045744
vn 0.886231328440704 -0.374071420039557 0.273248248301457
vn 0.742963927430548 -0.315025364234726 0.590562124103598
vn 0.894913730435836 -0.368927167347167 0.251042148394669
vn 0.577719871716011 0.68611193292993 0.442142697910518
vn 0.655747203251316 0.751771468294462 0.069536068960395
vn 0.587857281975868 0.688669821161902 0.424449871538181
vn 0.651513593628513 0.756929749105187 0.0508664156081453
vn -0.476305698627218 0.81022784386474 0.341560715659065
vn -0.506304058967865 0.860676878467565 -0.0537727695399126
vn -0.494772026746082 0.790770322508192 0.360392756017467
vn -0.510041554071688 0.857849030007009 -0.062870142644754
vn -0.423318672059435 -0.251798242908016 0.870286703767369
vn -0.158290385509263 -0.413263198009469 0.896748394493302
vn 0.365759293054288 -0.291436475520155 0.883903230156343
vn 0.514429115541343 -0.236661975091155 0.824229212433838
vn 0 0 1
vn -0.989018131597523 0.00620892739387353 -0.147663755173576
vn -0.130461757954284 0.432797336255686 0.892001230627773
vn 0.0257329796435948 0.991090520028716 -0.130680506839662
vn 0.146365614005835 0.179730291049868 -0.972766225521746
vn 0.0647259445962586 -0.880011091351987 -0.470522083640723
vn -0.106362780291404 -0.723607055982284 0.681967585374359
vn 0.989018131597523 -0.00620892739387342 0.147663755173576
vn -0.00909787959110711 -0.510294201474045 0.85995177569961
vn 0.28137089921098 -0.487325105892814 0.826646634447732
vn 0.439619439181775 -0.218209677920896 0.871274517678074
vn 0.0650626420730126 -0.0562074521060947 0.996296931107499
vn 0.372338394889901 -0.677085416829757 0.634759370161076
vn -0.0811633000536694 -0.846868075017491 0.525573003721241
vn 0.772242864106914 0.161384372767091 0.614488440137423
vn 0.614220576865762 0.622233182725541 0.485344155491682
vn -0.449208833837443 0.807768803745629 0.381734178844076
vn -0.865676842174033 -0.192996191929665 0.46190483308171
vn -0.973142140233977 -0.221825770442658 0.061544313046426
vn -0.965097356979872 -0.226769025769153 -0.131007253624272
vn -0.502178054741445 0.842173281644205 0.196370478995008
vn -0.482460222713491 0.853304940546308 -0.197744309497164
vn 0.670242034527701 0.740376148374503 0.051173958907856
vn 0.680925301923269 0.730917159432998 0.0458349129714648
vn 0.895057029767186 -0.391757302554064 -0.213070714458617
vn 0.887608708801372 -0.434184651107656 0.153735060420467
vn -0.144401944128615 -0.977765121586107 -0.152063952143765
vn -0.109380902896241 -0.991410565355796 0.0717001323743814
vn -0.950795966824135 -0.22501791097982 -0.212964713530756
vn -0.434077028830058 0.81242899430201 -0.389276588378359
vn 0.698100277098963 0.715672315546025 0.0216596370085332
vn 0.831986995212375 -0.47478493993269 0.28701376379992
vn -0.116674099313869 -0.981109943234543 0.154306298755458
vn -0.961834649288142 -0.214026990074645 0.170489163727037
vn -0.473951790604106 0.792700812417018 0.383399429024824
vn 0.67720250089334 0.735084465249069 0.0323666762781797
vn 0.818715262967574 -0.378629445656416 -0.43167703328513
vn -0.184313268120784 -0.939299800365979 -0.289386427164558
vn -0.891006524188368 -0.453990499739547 0
vn -0.987688340595138 0.156434465040231 0
vn -0.453990499739547 -0.891006524188368 0
vn 0.156434465040231 -0.987688340595138 0
vn 0.707106781186548 -0.707106781186547 0
vn 0.987688340595138 -0.156434465040231 0
vn 0.891006524188368 0.453990499739547 0
vn 0.453990499739547 0.891006524188368 0
vn -0.156434465040231 0.987688340595138 0
vn -0.707106781186548 0.707106781186548 0
g o63 prop_hydrant
f 1/1/1 2/2/1 3/3/1 4/4/1 5/5/1
f 6/6/2 7/7/2 8/8/2 9/9/2 10/10/2
f 11/11/3 2/12/3 1/13/3 12/14/4
f 13/15/5 3/16/5 2/12/5 11/11/5
f 14/17/6 4/18/6 3/16/6 13/15/6
f 15/19/7 5/20/8 4/18/8 14/17/9
f 12/14/10 1/13/11 5/20/11 15/19/12
g valve_mid prop_hydrant
f 16/21/13 8/22/14 17/23/15
f 8/22/14 7/24/16 17/23/15
f 17/25/17 7/26/18 18/27/19
f 7/26/18 6/28/20 18/27/19
f 18/29/21 6/30/22 19/31/23
f 6/30/22 10/32/24 19/31/23
f 19/33/25 10/34/26 20/35/27
f 10/34/26 9/36/28 20/35/27
f 20/37/29 9/38/30 16/39/31
f 9/38/30 8/40/32 16/39/31
f 12/41/33 17/42/15 11/43/34
f 12/41/4 16/44/13 17/42/15
f 11/43/34 18/45/19 13/46/35
f 11/43/34 17/42/17 18/45/19
f 13/46/35 19/47/23 14/48/36
f 13/46/35 18/45/21 19/47/23
f 14/48/9 20/49/27 15/50/7
f 14/48/9 19/47/25 20/49/27
f 15/50/12 16/44/31 12/41/10
f 15/50/12 20/49/29 16/44/31
g drop_shadow prop_hydrant
f 21/11/37 22/15/37 23/51/37 24/52/37
g valve1 prop_hydrant
f 25/53/38 26/54/38 27/55/38 28/56/38 29/57/38
f 30/58/39 26/59/39 25/60/39 31/15/39
f 32/61/40 27/62/40 26/59/40 30/58/40
f 33/11/41 28/63/41 27/62/41 32/61/41
f 34/64/42 29/65/42 28/63/42 33/11/42
f 31/15/43 25/60/43 29/65/43 34/64/43
f 34/64/44 33/11/44 32/61/44 30/58/44 31/15/44
g valve2 prop_hydrant
f 35/66/44 36/67/44 37/68/44 38/69/44 39/70/44
f 40/71/43 36/72/43 35/73/43 41/15/43
f 42/74/42 37/75/42 36/72/42 40/71/42
f 43/11/41 38/76/41 37/75/41 42/74/41
f 44/77/40 39/78/40 38/76/40 43/11/40
f 41/15/39 35/73/39 39/78/39 44/77/39
f 44/77/38 43/11/38 42/74/38 40/71/38 41/15/38
g midpipe prop_hydrant
f 45/79/41 46/80/41 47/81/41 48/82/41
f 49/83/40 50/84/40 46/85/40 45/86/40
f 51/87/39 52/88/39 50/89/39 49/90/39
f 53/91/43 54/92/43 52/93/43 51/94/43
f 48/95/42 47/96/42 54/97/42 53/98/42
g base prop_hydrant
f 55/99/45 56/100/46 57/101/47 58/102/48 59/103/48
f 60/104/49 56/100/46 55/99/45 61/105/50
f 62/106/51 57/101/47 56/100/46 60/104/49
f 63/107/52 58/102/52 57/101/52 62/106/51
f 64/108/53 59/103/53 58/102/53 63/107/53
f 61/105/54 55/99/54 59/103/54 64/108/54
g centerpost_1 prop_hydrant
f 65/109/55 66/110/56 67/111/56 68/112/55
f 68/112/57 67/111/58 69/113/58 70/114/57
f 70/114/59 69/113/60 71/115/60 72/116/59
f 72/116/61 71/115/62 73/117/62 74/118/61
f 74/119/63 73/120/64 66/110/64 65/109/63
f 66/110/56 75/121/65 76/122/65 67/111/56
f 67/111/58 76/122/66 77/123/66 69/113/58
f 69/113/60 77/123/67 78/124/67 71/115/60
f 71/115/62 78/124/68 79/125/68 73/117/62
f 73/120/64 79/126/69 75/121/69 66/110/64
f 80/127/70 65/109/55 68/112/55 81/128/70
f 81/128/71 68/112/57 70/114/57 82/129/71
f 82/129/72 70/114/59 72/116/59 83/130/72
f 83/130/73 72/116/61 74/118/61 84/131/73
f 84/132/74 74/119/63 65/109/63 80/127/74
g collide prop_hydrant
f 85//37 86//37 87//37 88//37 89//37 90//37 91//37 92//37 93//37 94//37
f 95//75 86//75 85//76 96//76
f 97//77 87//77 86//75 95//75
f 98//78 88//78 87//77 97//77
f 99//79 89//79 88//78 98//78
f 100//80 90//80 89//79 99//79
f 101//81 91//81 90//80 100//80
f 102//82 92//82 91//81 101//81
f 103//83 93//83 92//82 102//82
f 104//84 94//84 93//83 103//83
f 96//76 85//76 94//84 104//84
