v 30 -2 23.0708703813835
v 30 -2 66.5
v 0 -2 66.5
v 0 -2 23.0708703813835
v 0 -2 0.5
v 30 -2 0.5
v 0 28 66.5
v 0 28 23.0708703813835
v 30 28 23.0708703813835
v 30 28 66.5
v 30 8.88178419700125e-16 0.5
v 30 0 23.0708703813835
v 0 0 0.5
v 0 8.88178419700125e-16 23.0708703813835
v 0 -2 -10
v 30 -2 -10
v 30 -2 10
v 0 -2 10
v 0 8.88178419700125e-16 -10
v 0 0 10
v 30 0 -10
v 30 8.88178419700125e-16 10
vt 1 0.336927473545074
vt 1 0.985217392444611
vt 0 0.985217392444611
vt 0 0.336927473545074
vt 0 0
vt 1 0
vt 0.141836538910866 1.95978248119354
vt 0.833029270172119 1.95605051517487
vt 0.840849697589874 0.673607409000397
vt 0.14965695142746 0.677339434623718
vt 0.840849697589874 0.673607349395752
vt 0.14965695142746 0.677339375019073
vt 0.153721362352371 0.010831518098712
vt 0.199800878763199 0.0105827143415809
vt 0.195736467838287 0.677090585231781
vt 0.199800848960876 0.0105827143415809
vt 0.195736467838287 0.677090644836426
vn 0 -1 0
vn -1 0 0
vn 1 0 0
g suit_landmarkbldg5 suit_landmark5
f 1/1/1 2/2/1 3/3/1 4/4/1
f 5/5/1 6/6/1 1/1/1 4/4/1
f 3/7/2 7/8/2 8/9/2 4/10/2
f 9/11/3 10/8/3 2/7/3 1/12/3
f 6/13/3 11/14/3 12/15/3 1/12/3
f 13/16/2 5/13/2 4/10/2 14/17/2
g suit_landmarkbldg5collisions suit_landmark5
f 15//1 16//1 17//1 18//1
f 19//2 15//2 18//2 20//2
f 16//3 21//3 22//3 17//3
