v 0.0593121654852048 0.0593121654852048 0.0162380696497185
v 0 0.0838800673497178 0.0162380696497185
v 9.30196386053046e-10 0.0263339304834487 0.25832784513071
v 0.0186209011955404 0.0186208999456299 0.25832784513071
v -0.0593121654852048 0.0593121654852048 0.0162380696497185
v -0.0186208986957193 0.0186208999456299 0.25832784513071
v -0.0838800673497178 0 0.0162380696497185
v -0.0263339304834487 -4.65098193026523e-10 0.25832784513071
v -0.0593121654852048 -0.0593121654852048 0.0162380696497185
v -0.0186208986957193 -0.0186208999456299 0.25832784513071
v 0 -0.08388007234936 0.0162380696497185
v 9.30196386053046e-10 -0.0263339304834487 0.25832784513071
v 0.059312170484847 -0.059312170484847 0.0162380696497185
v 0.018620902445451 -0.018620902445451 0.25832784513071
v 0.0838800773490022 0 0.0162380696497185
v 0.0263339354830909 -4.65098193026523e-10 0.25832784513071
v -0.125147732128877 -0.125147732128877 -0.000134509381710054
v 0.125147732128877 -0.125147732128877 -0.000134509381710054
v 0.125147732128877 -0.125147732128877 0.0168107017789218
v -0.125147732128877 -0.125147732128877 0.0168107017789218
v 0.125147732128877 0.125147732128877 0.0168107017789218
v -0.125147732128877 0.125147732128877 0.0168107017789218
v 0.125147732128877 0.125147732128877 -0.000134509381710054
v -0.125147732128877 0.125147732128877 -0.000134509381710054
v 0.125147732128877 -0.125147732128877 -0.000134500796597073
v 0.125147732128877 -0.125147732128877 0.259585673681235
v -0.125147732128877 -0.125147732128877 0.259585673681235
v -0.125147732128877 -0.125147732128877 -0.000134500796597073
v -0.125147732128877 0.125147732128877 -0.000134500796597073
v -0.125147732128877 0.125147732128877 0.259585673681235
v 0.125147732128877 0.125147732128877 0.259585673681235
v 0.125147732128877 0.125147732128877 -0.000134500796597073
v -0.199293499083343 -0.210644143270945 -4.02975919133087e-17
v 0.180129088985493 -0.210644143270945 -4.02975919133087e-17
v 0.180129088985493 0.201489750922357 4.02975919133087e-17
v -0.199293499083343 0.201489750922357 4.02975919133087e-17
vt 0 0.0259507894515991
vt 0.117286436259747 0.0259507894515991
vt 0.293216079473495 0.757557928562164
vt 0.234572872519493 0.757557928562164
vt 0.234572872519493 0.0259507894515991
vt 0.351859301328659 0.757557928562164
vt 0.351859301328659 0.0259507894515991
vt 0.410502523183823 0.757557928562164
vt 0.469145745038986 0.0259507894515991
vt 0.469145745038986 0.757557928562164
vt 0.586432158946991 0.0259507894515991
vt 0.527788937091827 0.757557928562164
vt 0.703718602657318 0.0259507894515991
vt 0.586432158946991 0.757557928562164
vt 0.821005046367645 0.0259507894515991
vt 0.645075380802155 0.757557928562164
vt 0.938291490077972 0.0259507894515991
vt 0.703718602657318 0.757557928562164
vt 0.966715633869171 0.811139047145844
vt 0.0245009250938892 0.805982649326324
vt 0.0245009381324053 0.969513297080994
vt 0.966347098350525 0.970423221588135
vt 0.783957302570343 0.757925629615784
vt 0.960303843021393 0.757925629615784
vt 0.960303843021393 0.581579089164734
vt 0.783957302570343 0.581579089164734
vt 0.0241376589983702 0.969769358634949
vt 0.9658562541008 0.970394492149353
vt 0.966544628143311 0.811109304428101
vt 0.0246124342083931 0.806026637554169
vt 0.966574430465698 0.811085641384125
vt 0.0245010107755661 0.805978417396545
vt 0.0245009381324053 0.970472812652588
vt 0.966574490070343 0.970472991466522
vt 0.966574430465698 0.810868918895721
vt 0.0245010107755661 0.805712699890137
vt 0.0245009381324053 0.970024347305298
vt 0.965679168701172 0.970471918582916
vt 0 0
vt 1 0
vt 1 1
vt 0 1
vn 0.687938095414719 0.687938287957591 0.231261948532713
vn 0 0.97289152143704 0.231261945671834
vn -0.687938192528558 0.687938192528558 0.231261943520937
vn -0.972891528674029 0 0.231261915226676
vn -0.687938228893964 -0.687938164713007 0.231261918087557
vn -3.42642118218317e-08 -0.972891521623003 0.231261944889507
vn 0.687938153604484 -0.687938217785447 0.231261984176898
vn 0.972891514200048 5.13963216009925e-08 0.231261976116991
vn 0 -1 0
vn 0 0 1
vn 0 1 0
vn 1 0 0
vn -1 0 0
g coneNeck cone
f 1/1/1 2/2/2 3/3/2 4/4/1
f 2/2/2 5/5/3 6/6/3 3/3/2
f 5/5/3 7/7/4 8/8/4 6/6/3
f 7/7/4 9/9/5 10/10/5 8/8/4
f 9/9/5 11/11/6 12/12/6 10/10/5
f 11/11/6 13/13/7 14/14/7 12/12/6
f 13/13/7 15/15/8 16/16/8 14/14/7
f 15/15/8 1/17/1 4/18/1 16/16/8
g coneBase cone
f 17/19/9 18/20/9 19/21/9 20/22/9
f 20/23/10 19/24/10 21/25/10 22/26/10
f 22/27/11 21/28/11 23/29/11 24/30/11
f 18/31/12 23/32/12 21/33/12 19/34/12
f 24/35/13 17/36/13 20/37/13 22/38/13
g collision cone
f 25//9 26//9 27//9 28//9
f 29//11 30//11 31//11 32//11
f 28//13 27//13 30//13 29//13
f 32//12 31//12 26//12 25//12
g shadow cone
f 33/39/10 34/40/10 35/41/10 36/42/10
