v 30 0 1.4210854715202e-14
v 30 8.40575773038247 1.4210854715202e-14
v 0 8.40575773038247 0
v 0 0 0
v -1.46485175900317 -6.17247491076601 12.9508659185302
v 30.9012478486535 -6.17247491076601 12.9508659185302
v 30.9625493863462 0.82752508923399 16.8420376617291
v -1.40355022131041 0.82752508923399 16.8420376617291
v 30.9625493863462 -6.15228745547972 9.84203766172914
v -1.40355022131041 -6.15228745547972 9.84203766172914
v 30.9625493863462 0.82752508923399 9.84203766172914
v -1.40355022131041 0.82752508923399 9.84203766172914
v 0 3.40575773038247 5.88277469232143
v 0 3.40575773038247 0
v 5.32779332172437 3.40575773038247 0
v 5.32779332172437 3.40575773038247 5.88277469232143
v 24.6722066782756 3.40575773038247 5.88277469232144
v 24.6722066782756 3.40575773038247 1.4210854715202e-14
v 30 3.40575773038247 1.4210854715202e-14
v 30 3.40575773038247 5.88277469232144
v 6.40060551549415 -4.83409471361109 21.6895157071729
v 6.41964537299609 -4.83409471361109 13.820825241316
v 22.7473671666485 -4.83409471361109 13.820825241316
v 22.7283273091465 -4.83409471361109 21.6895157071729
v 30 7.5 -0.500000000000007
v 37 7.49413535997673 -0.500000000000007
v 37 22.8756656298546 -0.500000000000007
v 30 22.8756656298546 -0.500000000000007
v 30.3928833116933 22.8756656298546 17.1650255440319
v 37 22.9451434612094 17.1650255440319
v 37 8.06956760915963 17.2114438513849
v 30.3928833116933 8.06956760915963 17.2114438513849
v 37 7.99994014813007 -0.788421481907732
v 30.3928833116933 7.99994014813007 -0.788421481907732
v 30.3928833116933 22.8755160001798 -0.834839789260776
v 37 22.8755160001798 -0.834839789260776
v 30 22.8756656298546 -0.834840368061459
v 30 13.4971363103585 -0.809685852749967
v 30 13.4971363103585 20
v 30 22.8756656298546 20
v 30 5.75133125970929 -0.779723365291288
v 30 5.75133125970929 20
v 30 0 -0.757475943672368
v 30 0 20
v 30 28.7462632205709 20
v 30 28.7462632205709 -0.757475943672368
v 30 22.8756656298546 -0.779723365291288
v -7 22.9451434612094 17.1650255440319
v -7 8.06956760915963 17.2114438513849
v -7 7.99994014813007 -0.788421481907732
v -7 22.8755160001798 -0.834839789260776
v -0.283754125534868 22.8756656298546 17.1650255440319
v -0.283754125534868 22.8755160001798 -0.834839789260776
v -0.283754125534868 7.99994014813007 -0.788421481907732
v -0.283754125534868 8.06956760915963 17.2114438513849
v 0 22.8756656298546 -0.500000000000007
v -7 22.8756656298546 -0.500000000000007
v -7 7.49413535997673 -0.500000000000007
v 0 7.5 -0.500000000000007
v 0 5.75133125970929 20
v 0 0 20
v 0 0 -0.757475943672368
v 0 5.75133125970929 -0.779723365291288
v 0 13.4971363103585 20
v 0 13.4971363103585 -0.809685852749967
v 0 22.8756656298546 20
v 0 22.8756656298546 -0.834840368061459
v 0 22.8756656298546 -0.779723365291288
v 0 28.7462632205709 -0.757475943672368
v 0 28.7462632205709 20
v 30 0 -2
v 30 8.40575773038247 20
v 30 8.40575773038247 -2
v -3.57498571422939e-15 8.40575773038247 20
v 0 8.40575773038247 -2
v 0 0 -2
v 0 3.40575773038247 -2
v 5.32779332172437 3.40575773038247 -2
v 24.6722066782756 3.40575773038247 -2
v 30 3.40575773038247 -2
v 15.6203042615132 15.5096142930498 18.6282569867527
v 23.4588591352229 15.5096142930498 16.4014785541916
v 18.0425451725289 22.964539227036 16.4014785541916
v 28.9560482857067 15.5096142930498 10.3862980797853
v 26.4091481917042 23.3481738607151 10.3862980797853
v 19.741275590654 28.1926749868202 10.3862980797853
v 29.8003807527525 10.9022258793672 3.71842270461646
v 29.8003807527525 20.1170027067324 3.71842270461646
v 26.4091481917042 7.67105472538442 -2.94945267055238
v 28.9560482857067 15.5096142930498 -2.94945267055238
v 26.4091481917042 23.3481738607151 -2.94945267055238
v 9.27874926146638 20.1170196062048 16.4014785541916
v 11.4993135616333 28.1926815482041 10.3862980797853
v 4.83143324722628 23.3481910386239 10.3862980797853
v 24.3840619839841 27.5719259358555 3.71842270461646
v 15.6202884362151 30.4194485751986 3.71842270461646
v 19.7412621288511 28.192679360833 -2.94945267055238
v 11.4993135616333 28.1926815482041 -2.94945267055238
v 9.27873948005324 10.902222442855 16.4014785541916
v 2.28452067273739 15.5096213715371 10.3862980797853
v 4.83141660611218 7.67106045200427 10.3862980797853
v 6.85650057407374 27.571921285704 3.71842270461646
v 1.44019065124651 20.1170102333821 3.71842270461646
v 4.831424927367 23.3481795873328 -2.94945267055238
v 2.28452067273739 15.5096213715371 -2.94945267055238
v 18.04252934587 8.0546842166704 16.4014785541916
v 4.8314249259593 7.67104900070433 10.3862980797853
v 11.4993000975503 2.82655141264125 10.3862980797853
v 19.7412486647658 2.82654485052798 10.3862980797853
v 1.44019065041908 10.902218355264 3.71842270461646
v 6.85650057190751 3.44730730196944 3.71842270461646
v 4.8314249259593 7.67104900070433 -2.94945267055238
v 11.4993000975503 2.82655141264125 -2.94945267055238
v 19.7412621265734 2.82654922452651 10.3862980797853
v 26.4091398704433 7.67104327215136 10.3862980797853
v 15.6202884335374 0.599780010900997 3.71842270461646
v 24.3840619818178 3.44730264867023 3.71842270461646
v 11.4993135593555 2.82654703863557 -2.94945267055238
v 19.7412621265734 2.82654922452651 -2.94945267055238
v 26.4091398704433 7.67104327215136 -2.94945267055238
v 15.6202646982679 15.5096142930498 -11.1914115775197
v 7.78170982435826 15.5096142930498 -8.96463314566254
v 13.1980237870522 22.964539227036 -8.96463314517619
v 21.9618196981147 20.1170196062048 -8.96463314438926
v 21.9618294795279 10.902222442855 -8.96463314438926
v 26.4091523529288 7.67106045200427 -2.94945266958361
v 13.1980396137112 8.0546842166704 -8.96463314517619
v 19.7412688614907 2.82655141264125 -2.94945267018234
v 19.7412688602932 2.82655141264125 10.3862980801553
v 11.4993068312702 2.82654922452651 10.3862980794153
v 30 28.7462632205709 -0.889974422693334
v 30 28.7462632205709 10.4170425665433
v 0 28.7462632205709 10.4170425665433
v 0 28.7462632205709 -0.889974422693334
v 30 7.47486582847168 -0.500000000000007
v 30 20.3405054901884 -0.500000000000007
v 30 20.3405054901884 1.4210854715202e-14
v 0 20.3405054901884 1.4210854715202e-14
v 0 20.3405054901884 -0.500000000000007
v 0 28.7462632205709 0
v 30 28.7462632205709 1.4210854715202e-14
vt 9.9198522567749 -0.00109915074426681
vt 9.94709968566895 1.00705480575562
vt 0.0280589703470469 1.00705480575562
vt 0.00081156607484445 -0.00109915074426681
vt -0.00443439371883869 0.0015730889281258
vt 10.5235290527344 0.0015730889281258
vt 10.5434684753418 0.996681332588196
vt 0.0155056156218052 0.996681332588196
vt 10.52952003479 0
vt 10.5092697143555 0.997708380222321
vt -0.000655518495477736 1.00141680240631
vt 0.019595043733716 0
vt 2.99448394775391 -0.00579408276826143
vt 2.99448394775391 0.985489785671234
vt -0.00986865255981684 0.434453248977661
vt -0.00120433408301324 0
vt 2.98265314102173 0
vt 3.0049295425415 0.443586200475693
vt 0.00865683797746897 1.00476241111755
vt -0.0219348222017288 -0.00476221553981304
vt -0.207026928663254 0.991443872451782
vt -0.219872027635574 -0.00800656992942095
vt 0.992424130439758 -0.000646164058707654
vt 1.00526928901672 0.998804271221161
vt -0.203000605106354 1.00004398822784
vt -0.198601752519608 -0.00371749768964946
vt 1.01145923137665 -0.00179050397127867
vt 1.00706028938293 1.00197088718414
vt -0.000720999611075968 1.00287163257599
vt 0.000434750429121777 -0.00194327242206782
vt 0.991553783416748 -0.00594258354976773
vt 0.990398049354553 0.998872339725494
vt -0.0283651351928711 0.0377895012497902
vt 1.1049257516861 0.0319175273180008
vt 1.12569940090179 1.04981923103333
vt -0.00759163405746222 1.05569124221802
vt 0.995753884315491 -1.14083104563178e-05
vt 0.0153505597263575 0
vt 0.00320313055999577 0.998792767524719
vt 0.983591735363007 0.999988675117493
vt 0.024467296898365 -6.72852474963292e-05
vt 0.992594540119171 -0.00272964243777096
vt 0.988990902900696 0.996196448802948
vt 0.0208584479987621 1.00029909610748
vt 0 0
vt 0.657196700572968 0
vt 0.666371703147888 1
vt 0.00918483920395374 1.00107181072235
vt 0.00658852932974696 1.08099853992462
vt 1.13987982273102 1.07512652873993
vt 1.11910617351532 0.0572248101234436
vt -0.0141849732026458 0.063096784055233
vt 0.980241060256958 0.999979972839355
vt 0.00311786192469299 0.99879252910614
vt 0.0152334542945027 -3.09802487663546e-07
vt 0.992371261119843 -2.01818365894724e-05
vt 1.3274804353714 0
vt 1.3274804353714 1.00065624713898
vt 0 1.00065624713898
vt -0.0141844442114234 0.0631232708692551
vt 4.84277820587158 0.0379576608538628
vt 4.8635516166687 1.05585944652557
vt 0.00658905971795321 1.08102512359619
vt 9.94547843933105 0.947086751461029
vt 0.0264381803572178 0.947086751461029
vn 0 0 1
vn 0 -0.485860731586857 0.874036240382448
vn 0 -0.999978917312852 -0.00649345284234462
vn 0.999963268775712 -0.00606931878275586 0.00605181533967835
vn -0.999963268775712 0.00606931878275626 -0.00605181533967835
vn 0 -1 0
vn 1.64449691727444e-05 -0.00312772658965614 -0.999995108516008
vn 0 0.999992518516258 -0.00386819227942036
vn 0.00525772010761728 -0.999984299685847 0.00193823658927879
vn -1 0 0
vn 1 0 0
vn -0.00517229213930094 -0.999984745198447 0.00193823745280129
vn -1.6177762442185e-05 -0.00312772658966928 -0.999995108520367
vn 4.87567728206248e-07 3.19686583359865e-08 0.999999999999881
vn 0.540178054416233 -2.18166965415554e-07 0.841550752793345
vn 0.166924681995261 0.51373960904485 0.841550809303411
vn 0.898197664280834 -1.8003695712503e-07 0.439591805975068
vn 0.700033744885287 0.508603834365402 0.501273274462835
vn 0.27755886553917 0.854236571617954 0.439591805964366
vn 0.951056514756911 -0.309016999109169 4.93614796226227e-08
vn 0.951056542199679 0.309016914649006 0
vn 0.902083220064718 -0.293104341192786 -0.31675812420775
vn 0.865288953097852 1.44790021304635e-07 -0.501273406083748
vn 0.726657290730836 0.527947235253712 -0.439591740841071
vn -0.437012606714555 0.317508947373775 0.841550978794598
vn -0.267388451909985 0.822938905444802 0.501273352264503
vn -0.72665685148489 0.527947785599157 0.439591805964366
vn 0.587785399929921 0.809016887110041 -4.93531247316251e-08
vn 1.72625655691956e-07 0.999999999999984 4.93533231870491e-08
vn 0.267389043332776 0.822938682229829 -0.501273403239604
vn -0.277558206391355 0.854236819291466 -0.43959174085919
vn -0.437013114328289 -0.317508143709361 0.841551018407872
vn -0.865288984275874 5.77574776016893e-07 0.501273352264503
vn -0.825859684824096 -0.268337351002183 0.49593431726326
vn -0.587785104625947 0.809017101660936 -4.93531248637688e-08
vn -0.951056462939778 0.309017158585857 4.93533234121829e-08
vn -0.700033435445175 0.508604193518508 -0.501273342193872
vn -0.898197696144148 1.74523555440303e-07 -0.439591740870223
vn 0.166923871978262 -0.513739709669712 0.841550908544614
vn -0.625871883397756 -0.680464794417858 0.381119468316704
vn -0.219426156876312 -0.675322724330362 0.704124548415626
vn -6.00926724704267e-07 -0.754757950308731 0.65600338142833
vn -0.951056572709823 -0.309016820748389 -4.93533188556667e-08
vn -0.587785284279436 -0.809016971135057 2.46829011342135e-08
vn -0.700033475149939 -0.508604057096372 -0.501273425162965
vn -0.557518246319496 -0.76735760618451 -0.31675812420775
vn 0.26470068696764 -0.8830270289426 0.387552335144126
vn 0.700033379561873 -0.508604227880156 0.50127338537131
vn 3.93245528669922e-08 -0.999999999999999 2.46618206159184e-08
vn 0.587785220301186 -0.809017017617977 -2.46865239617538e-08
vn -0.198724546485103 -0.86286573717444 -0.464727096514394
vn 0.29822221669135 -0.917833607179561 -0.262001868320537
vn 0.625871801338293 -0.680464927337077 -0.381119365755281
vn -4.87477934946086e-07 3.19686583006861e-08 -0.999999999999881
vn -0.540178054366023 -9.09686325761059e-08 -0.841550752825597
vn -0.166924454294221 0.513739683012916 -0.841550809313594
vn 0.437012747460871 0.317508753723271 -0.841550978768248
vn 0.437013053511324 -0.317508178108241 -0.841551037011478
vn 0.717817564058431 -0.233232643684776 -0.656003413595563
vn -0.166923924264742 -0.513739755618306 -0.841550870123311
vn 0.219426012045706 -0.675322771407018 -0.704124548398124
vn 0.557518070057579 -0.767357792036922 0.316757984207964
vn -0.298222217518536 -0.917833609126258 0.262001860559414
g station_floor prop_trolley_station
f 1/1/1 2/2/1 3/3/1 4/4/1
g awning prop_trolley_station
f 5/5/2 6/6/2 7/7/2 8/8/2
f 9/9/3 6/10/3 5/11/3 10/12/3
f 11/13/4 7/14/4 6/15/4 9/16/4
f 10/17/5 5/18/5 8/19/5 12/20/5
g front_fence prop_trolley_station
f 13/21/6 14/22/6 15/23/6 16/24/6
f 17/25/6 18/26/6 19/27/6 20/28/6
g sign_front prop_trolley_station
f 21/29/6 22/30/6 23/31/6 24/32/6
g tunnelR prop_trolley_station
f 25/33/1 26/34/1 27/35/1 28/36/1
f 29//7 30//7 31//7 32//7
f 32//8 31//8 33//8 34//8
f 35//9 36//9 30//9 29//9
f 36//10 33//10 31//10 30//10
f 37/37/10 38/38/10 39/39/10 40/40/10
f 38/41/10 41/42/10 42/43/10 39/44/10
f 41/45/10 43/46/10 44/47/10 42/48/10
f 40/48/10 45/47/10 46/46/10 47/45/10
g tunnelL prop_trolley_station
f 48//11 49//11 50//11 51//11
f 52//12 48//12 51//12 53//12
f 54//8 50//8 49//8 55//8
f 55//13 49//13 48//13 52//13
f 56/49/1 57/50/1 58/51/1 59/52/1
f 60/48/11 61/47/11 62/46/11 63/45/11
f 64/44/11 60/43/11 63/42/11 65/41/11
f 66/53/11 64/54/11 65/55/11 67/56/11
f 68/45/11 69/46/11 70/47/11 66/48/11
g prop_trolley_station_floor_collisions prop_trolley_station
f 1/1/1 2/2/1 3/3/1 4/4/1
g prop_trolley_station_collisions prop_trolley_station
f 71//10 44//10 72//10 73//10
f 73//6 72//6 74//6 75//6
f 75//11 74//11 61//11 76//11
f 13//6 77//6 78//6 16//6
f 17//6 79//6 80//6 20//6
g trolley_sphere prop_trolley_station
f 81//14 82//15 83//16
f 82//15 84//17 85//18
f 82//15 85//18 83//16
f 83//16 85//18 86//19
f 84//17 87//20 88//21
f 87//20 89//22 90//23
f 87//20 90//23 88//21
f 88//21 90//23 91//24
f 81//14 83//16 92//25
f 83//16 86//19 93//26
f 83//16 93//26 92//25
f 92//25 93//26 94//27
f 86//19 95//28 96//29
f 95//28 91//24 97//30
f 95//28 97//30 96//29
f 96//29 97//30 98//31
f 81//14 92//25 99//32
f 92//25 94//27 100//33
f 92//25 100//33 99//32
f 99//32 100//33 101//34
f 94//27 102//35 103//36
f 102//35 98//31 104//37
f 102//35 104//37 103//36
f 103//36 104//37 105//38
f 81//14 99//32 106//39
f 99//32 107//40 108//41
f 99//32 108//41 106//39
f 106//39 108//41 109//42
f 107//40 110//43 111//44
f 110//43 105//38 112//45
f 110//43 112//45 111//44
f 111//44 112//45 113//46
f 81//14 106//39 82//15
f 106//39 114//47 115//48
f 106//39 115//48 82//15
f 82//15 115//48 84//17
f 114//47 116//49 117//50
f 116//49 118//51 119//52
f 116//49 119//52 117//50
f 117//50 119//52 120//53
f 121//54 122//55 123//56
f 122//55 105//38 104//37
f 122//55 104//37 123//56
f 123//56 104//37 98//31
f 105//38 110//43 103//36
f 110//43 101//34 100//33
f 110//43 100//33 103//36
f 103//36 100//33 94//27
f 121//54 123//56 124//57
f 123//56 98//31 97//30
f 123//56 97//30 124//57
f 124//57 97//30 91//24
f 98//31 102//35 96//29
f 102//35 94//27 93//26
f 102//35 93//26 96//29
f 96//29 93//26 86//19
f 121//54 124//57 125//58
f 124//57 91//24 90//23
f 124//57 90//23 125//58
f 125//58 90//23 126//59
f 91//24 95//28 88//21
f 95//28 86//19 85//18
f 95//28 85//18 88//21
f 88//21 85//18 84//17
f 121//54 125//58 127//60
f 125//58 120//53 128//61
f 125//58 128//61 127//60
f 127//60 128//61 118//51
f 120//53 87//20 117//50
f 87//20 84//17 115//48
f 87//20 115//48 117//50
f 117//50 115//48 129//62
f 121//54 127//60 122//55
f 127//60 118//51 112//45
f 127//60 112//45 122//55
f 122//55 112//45 105//38
f 118//51 116//49 111//44
f 116//49 114//47 130//63
f 116//49 130//63 111//44
f 111//44 130//63 107//40
g hill_1 prop_trolley_station
f 131/57/6 132/58/6 133/59/6 134/45/6
f 59/60/1 135/61/1 28/62/1 56/63/1
f 136/64/6 137/2/6 138/3/6 139/65/6
f 140/4/1 138/3/1 137/2/1 141/1/1
