v 6.46487841521622 2.83361626098766 4.10574701213101e-06
v 5.49935445647507 4.72856453000005 4.10574701213101e-06
v 5.49935445647507 4.72856453000005 30.9999987284054
v 6.46487841521622 2.83361626098766 30.9999987284054
v 3.99551401403551 6.23239832093932 4.10574701213101e-06
v 3.99551401403551 6.23239832093932 30.9999987284054
v 2.10056682100115 7.19790193391483 4.10574701213101e-06
v 2.10056682100115 7.19790193391483 30.9999987284054
v 4.29662500154427e-07 7.53059589355877 4.10574701213101e-06
v 4.29662500154427e-07 7.53059589355877 30.9999987284054
v -2.1005656682276 7.19790193391483 4.10574701213101e-06
v -2.1005656682276 7.19790193391483 30.9999987284054
v -3.99551315471051 6.23239832093932 4.10574701213101e-06
v -3.99551315471051 6.23239832093932 30.9999987284054
v -5.49935281462062 4.72856453000005 4.10574701213101e-06
v -5.49935281462062 4.72856453000005 30.9999987284054
v -6.46487638209705 2.83361626098766 4.10574701213101e-06
v -6.46487638209705 2.83361626098766 30.9999987284054
v -6.79757347185882 0.733056814597876 4.10574701213101e-06
v -6.79757347185882 0.733056814597876 30.9999987284054
v -6.46487638209705 -1.3675276727342 4.10574701213101e-06
v -6.46487638209705 -1.3675276727342 30.9999987284054
v -5.4993524233559 -3.26247594174659 4.10574701213101e-06
v -5.4993524233559 -3.26247594174659 30.9999987284054
v -3.99551276344579 -4.76630973268585 4.10574701213101e-06
v -3.99551276344579 -4.76630973268585 30.9999987284054
v -2.10056547259524 -5.73181334566136 4.10574701213101e-06
v -2.10056547259524 -5.73181334566136 30.9999987284054
v 4.29662500154427e-07 -6.06450730530531 4.10574701213101e-06
v 4.29662500154427e-07 -6.06450730530531 30.9999987284054
v 2.10056476686135 -5.73181334566136 4.10574701213101e-06
v 2.10056476686135 -5.73181334566136 30.9999987284054
v 3.99551323150607 -4.76630973268585 4.10574701213101e-06
v 3.99551323150607 -4.76630973268585 30.9999987284054
v 5.49935132635728 -3.26247594174659 4.10574701213101e-06
v 5.49935132635728 -3.26247594174659 30.9999987284054
v 6.46487450256899 -1.3675276727342 4.10574701213101e-06
v 6.46487450256899 -1.3675276727342 30.9999987284054
v 6.79757159233075 0.733056814597876 4.10574701213101e-06
v 6.79757159233075 0.733056814597876 30.9999987284054
v -2.51818687503955 4.67247222578639 27.4373607917743
v 2.27254835977067 4.67247366028429 27.4373607917743
v 2.27254721217235 4.67247366028429 5.85130686603045
v -2.51818687503955 4.67247222578639 5.85130686603045
v 4.66791540337662 0.523576176560992 27.4373607917743
v 4.66791540337662 0.523576176560992 5.85130686603045
v 2.27254835977067 -3.62532116371251 27.4373607917743
v 2.27254721217235 -3.62532116371251 5.85130686603045
v -2.51818687503955 -3.62532116371251 27.4373607917743
v -2.51818687503955 -3.62532116371251 5.85130686603045
v -4.91355277104718 0.523575459312045 27.4373607917743
v -4.91355277104718 0.523575459312045 5.85130686603045
v 2.65576471741784 -4.52599591327257 30.4693317472109
v -3.29982526800437 -4.3896437326056 30.4963109097349
v -3.30910245278083 -4.48858162611541 26.9553278087305
v 2.68290886035669 -4.58092398521075 26.921016535431
v -5.90283760308342 0.684235924032317 30.5005668233836
v -5.90953728204495 0.644724831304317 26.9543876904006
v -2.82556190285963 5.66065651103878 30.4567589336075
v -2.7550844475557 5.74163678611933 26.912072213092
v 2.93194802304294 5.66792539876443 30.4114647228434
v 2.86997427125133 5.68063791909611 26.861364707582
v 5.80127374444105 0.520217945267551 30.4233674737064
v 5.76996955761122 0.493137422310271 26.8713405204428
v 2.70384564401105 -4.48902345146659 6.65687050610148
v -3.26478794385664 -4.39091182874341 6.65683700296446
v -3.26438169405322 -4.39424990534144 3.1345638811184
v 2.70425189381447 -4.49406743295951 3.11063654980339
v -5.87002776726463 0.684361370873099 6.65683192673157
v -5.86517113119659 0.682122836910384 3.13440296453603
v -2.82556190285963 5.75187795348019 6.65667710162866
v -2.75508559515402 5.74163678611933 3.11077360809122
v 2.96849099617962 5.75095413683681 6.6549039734828
v 2.96588250521019 5.74072903585236 3.11204165106527
v 5.83628065723344 0.603184784755832 6.65693142089607
v 5.83674543455091 0.602238876844897 3.1105928942006
v 8.40363940786974 8.6061867771306 -0.602587130438047
v -8.22771342020566 8.6061867771306 -0.602544743893478
v -8.22771342020566 -7.33792909535157 -0.602544743893478
v 8.40363940786974 -7.33792909535157 -0.602587130438047
v 2.70490080796922 -4.4815856021181 3.1106411750625
v -3.26438278159412 -4.39425180703831 3.13456397022604
v -3.2644369423025 -4.39228257923103 -0.415313705749282
v 2.70530631891402 -4.48663018604612 -0.438140612802411
v -5.86517166561676 0.682122894472213 3.134403027017
v -5.86563411474216 0.682662939227893 -0.415254734191771
v -2.75508464344074 5.741636950843 3.13063499020688
v -2.68460628574027 5.73139571638266 -0.438113584171888
v 2.96588320808617 5.74072871742554 3.11204174955338
v 2.96817740014373 5.73910528491023 -0.436812524184304
v 5.83674515881702 0.602238974266991 3.11059326067202
v 5.83654240334463 0.602555258916573 -0.438204498656381
vt 0.66549551486969 0.871444761753082
vt 0.515167713165283 0.871444761753082
vt 0.515167713165283 0.343666911125183
vt 0.66549551486969 0.343666911125183
vt 0.35061126947403 0.871444761753082
vt 0.350611209869385 0.343667030334473
vt 0.172743797302246 0.871444761753082
vt 0.172743797302246 0.343667030334473
vt 0.00173303484916687 0.871444761753082
vt 0.00173309445381165 0.343666911125183
vt 0.997773051261902 0.871444761753082
vt 0.833216428756714 0.871444761753082
vt 0.833216369152069 0.343666911125183
vt 0.997773051261902 0.343666911125183
vt 0.755227386951447 1.00292277336121
vt -0.0129692554473877 1.00292277336121
vt -0.0129692554473877 0.83469820022583
vt 0.755227386951447 0.83469820022583
vt -0.0129691958427429 1.00292277336121
vt 0.755227506160736 1.00292277336121
vt 0.755227506160736 0.834698081016541
vt -0.0129691958427429 0.834698081016541
vt 0.755227327346802 1.00292277336121
vt 0.755227327346802 0.834698081016541
vt -0.0129692554473877 0.834698081016541
vt -0.0129687190055847 1.00292277336121
vt 0.75522792339325 1.00292277336121
vt 0.75522792339325 0.834698081016541
vt -0.0129687190055847 0.834698081016541
vt -0.0129689034074545 1.00292277336121
vt 0.75522792339325 0.834697961807251
vt -0.0129689034074545 0.834697961807251
vt -0.0129690319299698 1.00292277336121
vt 0.755227565765381 1.00292277336121
vt 0.755227565765381 0.834697961807251
vt -0.0129690319299698 0.834697961807251
vt 0.334544897079468 0.216710969805717
vt 0.655806601047516 0.0312305241823196
vt 0.977068424224854 0.216710969805717
vt 0.977068424224854 0.587672233581543
vt 0.655806601047516 0.773152828216553
vt 0.334544897079468 0.587671995162964
vt 0.979684948921204 0.216710969805717
vt 0.979684948921204 0.587672233581543
vt 0.658423244953156 0.773153126239777
vt 0.337161540985107 0.587672472000122
vt 0.337161540985107 0.216711312532425
vt 0.658423244953156 0.0312305241823196
vt 0 0
vt 1 0
vt 1 1
vt 0 1
vn 0.951056417177441 0.309017299427734 0
vn 0.809016048110934 0.587786554710948 0
vn 0.587782782490841 0.809018788785109 0
vn 0.309011607701791 0.951058266514494 0
vn -1.5086889959548e-08 1 0
vn -0.309011607701791 0.951058266514494 0
vn -0.587782860514677 0.809018732097832 0
vn -0.809016194921039 0.587786352644805 0
vn -0.951056172375961 0.309018052847379 0
vn -0.999999999999662 8.22236408008193e-07 0
vn -0.951057133618962 -0.309015094441169 0
vn -0.809017526619658 -0.587784519719779 0
vn -0.587779059938226 -0.809021493347448 0
vn -0.309012100997313 -0.951058106236011 0
vn 6.03476664196022e-08 -0.999999999999998 0
vn 0.309012047084226 -0.951058123753126 0
vn 0.587779137962581 -0.809021436660343 0
vn 0.809017779053029 -0.587784172274232 0
vn 0.951057186170758 -0.309014932702223 0
vn 0.999999999999997 -8.29779672249457e-08 0
vn -0.500000189848641 0.866025294175247 0
vn -3.00369738110945e-07 0.999999999999955 2.44344922692476e-09
vn 0.866025440609259 0.499999936217534 8.09740519611593e-10
vn 0.866025466418825 -0.499999891514045 -1.18290550522834e-09
vn 0.499999951378167 -0.866025431856265 -1.32909679437924e-08
vn 0 -1 -6.55222253148061e-09
vn -0.86602541080694 -0.49999998783667 -1.8152651980844e-09
vn -1 -7.48579379643437e-09 0
vn 0.479342878644548 -0.877487909090877 0.0156644212174695
vn -0.0190224868578042 -0.999584689351468 0.0216470276914332
vn -0.890859611269377 -0.454148392923789 0.010880726708973
vn -0.999141600028095 0.0412669809982888 0.00361930553904393
vn -0.48468991239861 0.874672038541876 0.00495114249715352
vn 0.0048312166862169 0.99990106798527 0.0132103590885366
vn 0.873111269425101 0.487361894213818 -0.0124537251940326
vn 0.851491716821039 -0.524338609382748 0.00555687823573882
vn 0.00651010169252413 0.00457512378682223 0.999968342908059
vn -0.00724332252820343 -0.00476434974955754 -0.999962416918864
vn 0.480704115975752 -0.876882295836771 0.000996058233636129
vn -0.016576140175865 -0.999861905608971 0.00118376047702646
vn -0.889815404657177 -0.456320559949194 -0.000303648545377443
vn -0.999331267841446 0.036083358618055 -0.00591678504333817
vn -0.490145398232155 0.871609221693708 -0.00740629801797232
vn 0.000158885880185961 0.999995824002834 -0.00288560776432103
vn 0.87328811713125 0.487203037225079 -0.00103198644147141
vn 0.851841981116899 -0.523798568127864 0.00054702288400808
vn 4.43781646552916e-05 0.000103161901507825 0.9999999936941
vn 2.5485923940421e-06 0 0.999999999996752
vn 0.481061151448629 -0.876686918818528 0.000463615568211042
vn -0.0152139818829207 -0.999884167197462 0.000432369175478447
vn -0.889953173906069 -0.456051903795353 -9.64320944152336e-05
vn -0.999122813155803 0.0415435110044373 -0.00526696545069253
vn -0.485847478914244 0.874022013025819 -0.00614393839238887
vn -0.000600528612031793 0.999998419806183 -0.00167324550611496
vn 0.873041500957197 0.487645885422569 0.000167442057738343
vn 0.851554932839377 -0.524265254229382 0.000373583625229945
g collision_pipeD4 collision props
f 1//1 2//2 3//2 4//1
f 2//2 5//3 6//3 3//2
f 5//3 7//4 8//4 6//3
f 7//4 9//5 10//5 8//4
f 9//5 11//6 12//6 10//5
f 11//6 13//7 14//7 12//6
f 13//7 15//8 16//8 14//7
f 15//8 17//9 18//9 16//8
f 17//9 19//10 20//10 18//9
f 19//10 21//11 22//11 20//10
f 21//11 23//12 24//12 22//11
f 23//12 25//13 26//13 24//12
f 25//13 27//14 28//14 26//13
f 27//14 29//15 30//15 28//14
f 29//15 31//16 32//16 30//15
f 31//16 33//17 34//17 32//16
f 33//17 35//18 36//18 34//17
f 35//18 37//19 38//19 36//18
f 37//19 39//20 40//20 38//19
f 39//20 1//1 4//1 40//20
g LargeStraightPipe2 geometry
f 41/1/21 42/2/22 43/3/22 44/4/21
f 42/2/23 45/5/23 46/6/23 43/3/23
f 45/5/24 47/7/25 48/8/25 46/6/24
f 47/7/25 49/9/26 50/10/26 48/8/25
f 49/11/27 51/12/28 52/13/28 50/14/27
f 51/12/28 41/1/21 44/4/21 52/13/28
g new_End5 geometry
f 53/15/29 54/16/30 55/17/30 56/18/29
f 54/19/31 57/20/32 58/21/32 55/22/31
f 57/16/32 59/23/33 60/24/33 58/25/32
f 59/26/33 61/27/34 62/28/34 60/29/33
f 61/30/35 63/27/35 64/31/35 62/32/35
f 63/33/36 53/34/29 56/35/29 64/36/36
f 53/37/37 63/38/37 61/39/37 59/40/37 57/41/37 54/42/37
f 56/43/38 55/44/38 58/45/38 60/46/38 62/47/38 64/48/38
g new_End7 geometry
f 65/15/39 66/16/40 67/17/40 68/18/39
f 66/19/41 69/20/42 70/21/42 67/22/41
f 69/16/42 71/23/43 72/24/43 70/25/42
f 71/26/43 73/27/44 74/28/44 72/29/43
f 73/30/45 75/27/45 76/31/45 74/32/45
f 75/33/46 65/34/39 68/35/39 76/36/46
f 65/37/47 75/38/47 73/39/47 71/40/47 69/41/47 66/42/47
g circleshadows2 geometry
f 77/49/48 78/50/48 79/51/48 80/52/48
g new_End8 geometry
f 81/15/49 82/16/50 83/17/50 84/18/49
f 82/19/51 85/20/52 86/21/52 83/22/51
f 85/16/52 87/23/53 88/24/53 86/25/52
f 87/26/53 89/27/54 90/28/54 88/29/53
f 89/30/55 91/27/55 92/31/55 90/32/55
f 91/33/56 81/34/49 84/35/49 92/36/56
