v 1.89580329134083 -0.0636226548923282 -1.72034987001594
v 1.28943976454847 -0.0466351121116498 -1.64468632595433
v 1.28943976454847 0.122089273347629 -1.58986594733291
v 1.89580329134083 0.19405000791775 -1.63662752767247
v 1.28943976454847 0.122089273347629 -1.41245811942994
v 1.89580329134083 0.19405000791775 -1.36569466177873
v 1.28943976454847 -0.0466351121116498 -1.35763611380509
v 1.89580329134083 -0.0636226548923282 -1.28197231943526
v 1.28943976454847 -0.150912077095252 -1.5011610947256
v 1.89580329134083 -0.222870934353726 -1.5011610947256
v 0.0165122152939243 -0.0579588682319861 -1.79954851706197
v 0.0165122152939243 0.170064347935474 -1.72545878593064
v 0.0165122152939243 0.170064347935474 -1.4857023093957
v 0.0165122152939243 -0.0579588682319861 -1.41161257826437
v 0.0165122152939243 -0.19888527437145 -1.6055796715844
v -1.33576655951072 -0.0466351121116498 -1.67949368634562
v -1.33576655951072 0.122089210770574 -1.62467155556666
v -1.33576655951072 0.122089273347629 -1.4472637276637
v -1.33576655951072 -0.0466351121116498 -1.39244147173063
v -1.33576655951072 -0.150912077095252 -1.535968580271
v -1.86278062855478 -0.0692845642410238 -1.78037716022001
v -1.86278062855478 0.218037545211672 -1.6870222066644
v -1.86278062855478 0.218037545211672 -1.38491495387761
v -1.86278062855478 -0.0692845642410238 -1.29155787270213
v -1.86278062855478 -0.246858471647648 -1.53596845511689
v -1.45152234655666 0.0521680188617056 -1.45987926192797
v 1.34967656273229 0.0521761812563018 -1.46192841016714
v 1.35053124014787 0.0475216099596399 -0.232544095497432
v -1.45066754398696 0.0475134514761096 -0.230495009835311
v -1.79817445009086 0.173382183385333 -1.93190274276133
v -1.77741088266448 -0.0967389955295352 -1.92906149416145
v -1.70910890333922 -0.0337279687716266 -1.58569743939898
v -1.72270552066993 0.143147891587786 -1.58755885647351
v -1.51411767393898 -0.160513900396392 -1.93283489057085
v -1.53670573797752 -0.0754868264586281 -1.58816773121751
v -1.37215787031519 0.0701913683433232 -1.93800563261578
v -1.44374952541562 0.0755800662704027 -1.59155490204418
v -1.54771479408885 0.27655115903519 -1.93743067463552
v -1.55870370038851 0.210703576956521 -1.59117793786557
v -1.58336719502927 -0.0543018025676096 -0.883880374938484
v -1.60174182080847 0.184736289377288 -0.886394408118381
v -1.35037179381203 -0.110739234864242 -0.887218485354126
v -1.22474547759129 0.0934198146729957 -0.891794307338284
v -1.38010140166195 0.276033552925731 -0.891285180419762
v -1.70023722911444 -0.00880183040939291 -0.0926638369172264
v -1.71383409675338 0.168074006483624 -0.0945252383474916
v -1.52783431406096 -0.0505625888744364 -0.0951341600242875
v -1.43487810149906 0.100504296032463 -0.0985213308509566
v -1.54983227647196 0.235627767607922 -0.0981442884510271
v -1.7782379010218 -0.0838188987391514 0.209662920533829
v -1.80139015978716 0.217383411612723 0.206496318181356
v -1.48464826148326 -0.154931151022123 0.205458618524506
v -1.32635359376121 0.102320188299565 0.19969070364484
v -1.52211126692965 0.332424115008257 0.200331711706527
v 1.71020863250172 0.108376700734216 -1.9310513193526
v 1.63107957114072 0.0951053589347779 -1.58645699969114
v 1.60309448642681 -0.0799333016703448 -1.57926789731804
v 1.66747163286985 -0.158938961079114 -1.92007280084405
v 1.42787197443444 -0.107578342668028 -1.58161603872544
v 1.3998724969979 -0.201159324545873 -1.92365946732168
v 1.34756133312315 0.0503744040261416 -1.59025505146017
v 1.27722459828134 0.0400619556897581 -1.93685133626142
v 1.47315035341919 0.175639713217267 -1.59324673529998
v 1.46902314634148 0.231366395324547 -1.9414204625007
v 1.51096629345511 0.168179965081803 -0.887725109190453
v 1.47314722456644 -0.0683755073647486 -0.878010772344634
v 1.23634113101509 -0.105738639831543 -0.881183491604222
v 1.12780473363681 0.107726525133989 -0.892857554077789
v 1.29753323051873 0.277017201651426 -0.89690059501668
v 1.61799958997511 0.167076872402602 -0.0949819726268138
v 1.59001463041531 -0.00796183513531222 -0.0877926434118917
v 1.41479186811472 -0.0356087534446416 -0.0901405814438667
v 1.33448122680344 0.122344071470846 -0.0987800713286312
v 1.46007049740769 0.247609333729181 -0.101771457927434
v 1.70802068835481 0.218431326973782 0.204968718406097
v 1.66036675921262 -0.0796428033373174 0.217208274080372
v 1.36197558225296 -0.126720163140084 0.213212259798225
v 1.22521493065701 0.142257201077118 0.19850028468555
v 1.43908315443304 0.355573370074976 0.193405104434396
v 1.82699118386416 -0.0863784880150022 -0.23668547627807
v 1.22127820813437 -0.0128301735625179 -0.199356901989834
v 1.22090374703795 0.131681710090537 -0.302261567804131
v 1.82641922958254 0.134318707183277 -0.393838519499371
v 1.22255815921493 0.274204269168884 -0.196629606206899
v 1.82894584075047 0.351975658747155 -0.232520034619829
v 1.22395512938812 0.217775034466441 -0.0284416723282631
v 1.83107921770551 0.265797104422502 0.0243327631725101
v 1.2231640302603 0.0403780323939686 -0.0301277700058744
v 1.82987097992985 -0.00511924112875631 0.0217566418209727
v -0.0529609053466577 -0.138425451564038 -0.270031130532893
v -0.0534669073235019 0.0568775993006749 -0.409100687722834
v -0.0512310721742825 0.249488772995516 -0.266345091692106
v -0.0493432397604614 0.17322705486628 -0.0390469245710398
v -0.0504123257214003 -0.0665165933724151 -0.0413243851949537
v -1.40410195498329 -0.0293307417021023 -0.194433605264178
v -1.4044764160797 0.11518251864616 -0.297337222912806
v -1.40282212905684 0.257705202878617 -0.191705183094255
v -1.40142515888364 0.201275843022064 -0.0235173176592729
v -1.40221613285736 0.0238774016773294 -0.0252044693691524
v -1.93190824954216 -0.121562875161959 -0.231157090720229
v -1.9325457845773 0.124528526946941 -0.406393604328626
v -1.9297285655665 0.367229754530539 -0.226513294410205
v -1.92734988655631 0.271135740705675 0.0598951900412091
v -1.9286967950856 -0.0309552420468468 0.0570235837475834
v 0.646256148971598 -9.53930172585484e-16 -0.112212204870589
v 0.646256148971598 1.09341182166043e-15 0.740381801535138
v -0.575444829745555 1.09341182166043e-15 0.740381801535138
v -0.575444829745555 -9.53930172585484e-16 -0.112212204870589
vt 0.920226454734802 0.0930604189634323
vt 0.792056918144226 0.218927428126335
vt 0.711650192737579 0.210792437195778
vt 0.805481731891632 0.0729222968220711
vt 0.627191364765167 0.203181117773056
vt 0.685791075229645 0.0601239800453186
vt 0.541259169578552 0.198210462927818
vt 0.563843190670013 0.0536452420055866
vt 0.455796957015991 0.196297854185104
vt 0.440662145614624 0.0528837293386459
vt 0.373200982809067 0.195802256464958
vt 0.317738950252533 0.0586518160998821
vt 0.774495184421539 0.516111433506012
vt 0.665778517723083 0.510316073894501
vt 0.557296574115753 0.504072904586792
vt 0.447857737541199 0.498012214899063
vt 0.338104337453842 0.492448359727859
vt 0.228377401828766 0.486839294433594
vt 0.633060932159424 0.822528839111328
vt 0.55181622505188 0.824151754379272
vt 0.464424282312393 0.823340654373169
vt 0.376022219657898 0.81885302066803
vt 0.290708959102631 0.810940027236938
vt 0.211607456207275 0.801189064979553
vt 0.72305291891098 0.933422863483429
vt 0.592657506465912 0.948815584182739
vt 0.457905441522598 0.951713740825653
vt 0.324283242225647 0.944467484951019
vt 0.193830356001854 0.928441166877747
vt 0.0710525661706924 0.90241265296936
vt 0.0312713086605072 0.205297663807869
vt 0.133036136627197 0.321937382221222
vt 0.259751170873642 0.247176125645638
vt 0.236300021409988 0.0843317732214928
vt 0.0950923040509224 0.0584504380822182
vt 0.236562013626099 0.0843768566846848
vt 0.0954834148287773 0.0585181415081024
vt 0.0317206457257271 0.205232262611389
vt 0.133393138647079 0.321765333414078
vt 0.259992212057114 0.247072577476501
vt 0 0
vt 1 0
vt 1 1
vt 0 1
vt 0.532706439495087 0.949934542179108
vt 0.428952783346176 0.936491966247559
vt 0.415875762701035 0.795741677284241
vt 0.527690827846527 0.802621304988861
vt 0.255613803863525 0.938040912151337
vt 0.240115433931351 0.818515121936798
vt 0.837977826595306 0.920405507087708
vt 0.737295985221863 0.942631006240845
vt 0.765086948871613 0.796335339546204
vt 0.870400249958038 0.798707127571106
vt 0.634998857975006 0.949445843696594
vt 0.64570677280426 0.799408674240112
vt 0.421093970537186 0.491414844989777
vt 0.55098956823349 0.490763485431671
vt 0.296708434820175 0.493782460689545
vt 0.796191394329071 0.488759934902191
vt 0.886149883270264 0.487945884466171
vt 0.675784468650818 0.491065710783005
vt 0.418972194194794 0.144448101520538
vt 0.521656155586243 0.139691412448883
vt 0.326966226100922 0.163380026817322
vt 0.761248409748077 0.171682357788086
vt 0.872117221355438 0.192229032516479
vt 0.624955415725708 0.150439321994781
vt 0.428543716669083 0.0155844986438751
vt 0.54587322473526 0.00465956330299377
vt 0.320871472358704 0.0650239884853363
vt 0.774318635463715 0.0654233992099762
vt 0.893163442611694 0.103669196367264
vt 0.662682056427002 0.0210604965686798
vt 0.281622886657715 0.154191583395004
vt 0.137343347072601 0.0342361405491829
vt 0.0184829086065292 0.175195634365082
vt 0.0968805626034737 0.306331992149353
vt 0.237085103988647 0.296010047197342
vt 0.0188690740615129 0.175601065158844
vt 0.0966095849871635 0.307092189788818
vt 0.236947983503342 0.2975033223629
vt 0.282225877046585 0.15578493475914
vt 0.138268977403641 0.0351570323109627
vt 0.856522798538208 0.102362118661404
vt 0.762850642204285 0.225348308682442
vt 0.676976561546326 0.222497016191483
vt 0.731322169303894 0.0904591754078865
vt 0.587067306041718 0.220360219478607
vt 0.603280663490295 0.0855819508433342
vt 0.496452540159225 0.220733508467674
vt 0.474866092205048 0.0866400375962257
vt 0.407275915145874 0.22388868033886
vt 0.393474400043488 0.0930202007293701
vt 0.321512281894684 0.228180289268494
vt 0.312269032001495 0.096925213932991
vt 0.837142705917358 0.499346345663071
vt 0.722656190395355 0.500271081924438
vt 0.6082723736763 0.500771582126617
vt 0.4929538667202 0.501494467258453
vt 0.377463668584824 0.502691805362701
vt 0.261986315250397 0.503846049308777
vt 1.00129413604736 0.788945198059082
vt 0.835659265518188 0.795105814933777
vt 0.655911564826965 0.799383282661438
vt 0.471830695867538 0.800342202186584
vt 0.291974097490311 0.797976613044739
vt 0.123724177479744 0.793566167354584
vt 1.01587736606598 0.885638535022736
vt 0.846786558628082 0.907271862030029
vt 0.666792750358582 0.917679190635681
vt 0.484222650527954 0.918703436851501
vt 0.302371174097061 0.911479353904724
vt 0.126798659563065 0.894627511501312
vt 0.0092092165723443 0.215784057974815
vt 0.121343910694122 0.325574100017548
vt 0.248434096574783 0.265022397041321
vt 0.270116627216339 0.126431167125702
vt 0.111685164272785 0.0398319363594055
vt 0.270606637001038 0.126505166292191
vt 0.112417168915272 0.0399429388344288
vt 0.0100502157583833 0.215677037835121
vt 0.122011914849281 0.325294077396393
vt 0.248885095119476 0.26485338807106
vn -0.109357342672253 0.307159497184133 -0.945353909862996
vn 0.00145050991137065 0.309013487948877 -0.951056549468362
vn -0.117848907058835 0.993031537819942 0
vn -0.0402153888110179 0.999191034038426 0
vn -0.109359021765831 0.307162702834914 0.945352674056392
vn -0.0762402785543257 0.308117818608497 0.948288368473377
vn -0.0955699273860703 -0.805315717214696 0.58509228723886
vn -0.0566901642479259 -0.807716275003156 0.586839538862686
vn -0.0955698053414139 -0.805315918698466 -0.585092029853296
vn -0.00858590723259897 -0.808988429196926 -0.587761859618743
vn 0.0154058095135098 0.308980076602702 -0.950943727723056
vn 0.00110428767604469 0.999999390274176 -7.50058718712033e-08
vn -0.0134901821039832 0.308990504697749 0.950969443774842
vn -0.00808369888371667 -0.808990272056939 0.587766444712182
vn 0.00982691590184544 -0.808978367371839 -0.587756269935295
vn 0.0427551306482472 0.308733967077009 -0.950187000740456
vn 0.0722497084936973 0.997386574815681 -1.39962933165889e-07
vn 0.0915062295163533 0.307722259362519 0.947065795524539
vn 0.0738290327212601 -0.806810573370809 0.586179130150937
vn 0.0436586723831213 -0.808245567199549 -0.58722484912342
vn 0.166423047852369 0.304705006887636 -0.937794342018085
vn 0.179115947737625 0.983827971378145 -1.28390241372721e-07
vn 0.166421592112079 0.304709235134278 0.937793226517852
vn 0.145714334669817 -0.800384432467812 0.581508463339023
vn 0.145714183950726 -0.80038168488451 -0.581512282842768
vn 1 0 0
vn -1 0 0
vn 1.4307919475016e-07 -0.999992832806909 -0.00378607115539838
vn -0.975540054251698 -0.0728066011447125 0.207414564050717
vn -0.97892602556063 -0.0732439716526183 0.190628321863828
vn -0.226714838015995 -0.948963844893266 0.219244163682344
vn -0.232208636350766 -0.965594293307976 0.117076086094424
vn 0.83935626100028 -0.512414721891372 0.181417253613372
vn 0.850908745343629 -0.524316622124751 -0.0323479035089164
vn 0.753726855327363 0.640813883498604 0.145785439169217
vn 0.760579002287018 0.647194170840844 -0.0515682703773954
vn -0.37278825120863 0.913678814045617 0.161925737685541
vn -0.377804744394197 0.921824156691307 0.0866244726021202
vn -0.996937089866992 -0.0764618335370745 0.0164324940189375
vn -0.235145024092893 -0.971804463795414 0.017404073996089
vn 0.851532660407996 -0.524203795252779 -0.0101246877019817
vn 0.761327176834348 0.647765385687119 -0.0279452128111412
vn -0.381065877247186 0.924471841403932 -0.0118579782870032
vn -0.975815692659545 -0.0771616359813049 -0.204523387151838
vn -0.235068803144706 -0.962422242278691 -0.135963544214513
vn 0.850811804044447 -0.524313936511615 -0.0348449433681248
vn 0.760993439955921 0.647515575813194 -0.040156735715973
vn -0.379558659634917 0.913653927429252 -0.145505067916029
vn -0.960678508359843 -0.0766526026156698 -0.266872969945912
vn -0.229234598275979 -0.929255502669037 -0.289716602410988
vn 0.811555222482332 -0.505927981882222 -0.292258443864731
vn 0.732892867156326 0.62425189029722 -0.270513627626645
vn -0.373111704079342 0.892149877370668 -0.254668907773428
vn -0.0171907667791968 -0.0118351705358675 -0.999782179415062
vn 0.0171888284317335 0.0118370139077292 0.999782190919048
vn 0.965472070993909 -0.145481083107677 0.216099362767572
vn 0.968881637919181 -0.14671385939618 0.199357505913679
vn 0.147640511203559 -0.95699116523155 0.249740243293532
vn 0.152188742624921 -0.97718196497679 0.148168802189751
vn -0.879106321102283 -0.436511183634077 0.191389818852484
vn -0.890693194028725 -0.454073105163003 -0.0219829315273674
vn -0.699557713236079 0.704255115691512 0.12101131300107
vn -0.705037661593148 0.705033103624612 -0.0764867212574439
vn 0.445381366734663 0.884897426125822 0.136352423526168
vn 0.451361727981692 0.890262407125517 0.0608723005353127
vn 0.987301951069036 -0.156800202581719 0.0254667211396844
vn 0.155027380010913 -0.986706336022266 0.0487556960822739
vn -0.891399327341526 -0.453218699993861 0.000221790329156608
vn -0.705835840711999 0.70639762102794 -0.0528977029033569
vn 0.455241736095787 0.88957271494226 -0.0376210917804032
vn 0.967122000674731 -0.162647738088117 -0.195501276481062
vn 0.156360755771721 -0.982121755777413 -0.10482447654621
vn -0.890585931116325 -0.45415585080494 -0.0244777955974078
vn -0.705472064981405 0.705742199130753 -0.0650931171243253
vn 0.453418634520301 0.874763479658021 -0.170881235149842
vn 0.95233863851584 -0.162847569033246 -0.257937563859472
vn 0.153896931444061 -0.953386417549421 -0.259557456691932
vn -0.848879795994139 -0.447038054608411 -0.282063946091796
vn -0.678395144821387 0.673118277840727 -0.294434732189501
vn 0.445697747192341 0.850472055375242 -0.279375734761421
vn 0.0203667945841743 -0.0442724837439401 -0.998811864597887
vn -0.0203653292818489 0.0442739888190042 0.998811827762015
vn -0.119779006372581 -0.576077232238023 -0.808571587510578
vn -0.00904054340199488 -0.580038470493726 -0.814538913325997
vn -0.123054645948439 0.591840877314684 -0.796606508917602
vn -0.0454579030949436 0.595169755280442 -0.802313243967486
vn -0.102149142557695 0.942845412364361 0.317187769401983
vn -0.069010019244851 0.945627883874135 0.317845123422635
vn -0.0858808901388576 -0.00908871077723232 0.996263955006586
vn -0.0469745345661033 -0.00928408393009989 0.99885294157242
vn -0.0967932723451969 -0.949169243730929 0.299514288780961
vn -0.00982008029222957 -0.953880722506011 0.300025221030608
vn 0.00491509505856322 -0.580028869250526 -0.814581090301341
vn -0.00414484780001552 0.595470698188239 -0.803366334766354
vn -0.00624312569560108 0.948027206880438 0.31812802202262
vn 0.00164441406755016 -0.00950986681348063 0.99995342808331
vn 0.00859165652395637 -0.953950597706591 0.299840691990619
vn 0.0322711352398625 -0.579686548848539 -0.814200269537171
vn 0.0670101478005987 0.593604206949442 -0.801962396614496
vn 0.0987175064494246 0.943677440116971 0.315796996399094
vn 0.0835261284505055 -0.00984460289583657 0.996456958257552
vn 0.042422625907703 -0.953235028408275 0.299237867634715
vn 0.156068579600365 -0.572669490177461 -0.804793298606177
vn 0.173941386853996 0.585063819547221 -0.792114083321415
vn 0.173557848341059 0.934107012755266 0.311964360144962
vn 0.155329933634838 -0.0100842041793153 0.987811176563146
vn 0.144484254107696 -0.944408630581812 0.295324632900015
vn 0.999942739438002 -0.00436617276366079 -0.0097700757736472
vn -0.999942741396108 0.00436603887197508 0.00976993519964022
vn 0 -1 0
g BottomFrame FramedBison
f 1/1/1 2/2/2 3/3/2 4/4/1
f 4/4/3 3/3/4 5/5/4 6/6/3
f 6/6/5 5/5/6 7/7/6 8/8/5
f 8/8/7 7/7/8 9/9/8 10/10/7
f 10/10/9 9/9/10 2/11/10 1/12/9
f 2/2/2 11/13/11 12/14/11 3/3/2
f 3/3/4 12/14/12 13/15/12 5/5/4
f 5/5/6 13/15/13 14/16/13 7/7/6
f 7/7/8 14/16/14 15/17/14 9/9/8
f 9/9/10 15/17/15 11/18/15 2/11/10
f 11/13/11 16/19/16 17/20/16 12/14/11
f 12/14/12 17/20/17 18/21/17 13/15/12
f 13/15/13 18/21/18 19/22/18 14/16/13
f 14/16/14 19/22/19 20/23/19 15/17/14
f 15/17/15 20/23/20 16/24/20 11/18/15
f 16/19/16 21/25/21 22/26/21 17/20/16
f 17/20/17 22/26/22 23/27/22 18/21/17
f 18/21/18 23/27/23 24/28/23 19/22/18
f 19/22/19 24/28/24 25/29/24 20/23/19
f 20/23/20 25/29/25 21/30/25 16/24/20
f 1/31/26 4/32/26 6/33/26 8/34/26 10/35/26
f 21/36/27 25/37/27 24/38/27 23/39/27 22/40/27
g PictureInsert FramedBison
f 26/41/28 27/42/28 28/43/28 29/44/28
g RightSide FramedBison
f 30/45/29 31/46/29 32/47/30 33/48/30
f 31/46/31 34/49/31 35/50/32 32/47/32
f 34/51/33 36/52/33 37/53/34 35/54/34
f 36/52/35 38/55/35 39/56/36 37/53/36
f 38/55/37 30/45/37 33/48/38 39/56/38
f 33/48/30 32/47/30 40/57/39 41/58/39
f 32/47/32 35/50/32 42/59/40 40/57/40
f 35/54/34 37/53/34 43/60/41 42/61/41
f 37/53/36 39/56/36 44/62/42 43/60/42
f 39/56/38 33/48/38 41/58/43 44/62/43
f 41/58/39 40/57/39 45/63/44 46/64/44
f 40/57/40 42/59/40 47/65/45 45/63/45
f 42/61/41 43/60/41 48/66/46 47/67/46
f 43/60/42 44/62/42 49/68/47 48/66/47
f 44/62/43 41/58/43 46/64/48 49/68/48
f 46/64/44 45/63/44 50/69/49 51/70/49
f 45/63/45 47/65/45 52/71/50 50/69/50
f 47/67/46 48/66/46 53/72/51 52/73/51
f 48/66/47 49/68/47 54/74/52 53/72/52
f 49/68/48 46/64/48 51/70/53 54/74/53
f 30/75/54 38/76/54 36/77/54 34/78/54 31/79/54
f 51/80/55 50/81/55 52/82/55 53/83/55 54/84/55
g LeftSide FramedBison
f 55/45/56 56/48/57 57/47/57 58/46/56
f 58/46/58 57/47/59 59/50/59 60/49/58
f 60/51/60 59/54/61 61/53/61 62/52/60
f 62/52/62 61/53/63 63/56/63 64/55/62
f 64/55/64 63/56/65 56/48/65 55/45/64
f 56/48/57 65/58/66 66/57/66 57/47/57
f 57/47/59 66/57/67 67/59/67 59/50/59
f 59/54/61 67/61/68 68/60/68 61/53/61
f 61/53/63 68/60/69 69/62/69 63/56/63
f 63/56/65 69/62/70 65/58/70 56/48/65
f 65/58/66 70/64/71 71/63/71 66/57/66
f 66/57/67 71/63/72 72/65/72 67/59/67
f 67/61/68 72/67/73 73/66/73 68/60/68
f 68/60/69 73/66/74 74/68/74 69/62/69
f 69/62/70 74/68/75 70/64/75 65/58/70
f 70/64/71 75/70/76 76/69/76 71/63/71
f 71/63/72 76/69/77 77/71/77 72/65/72
f 72/67/73 77/73/78 78/72/78 73/66/73
f 73/66/74 78/72/79 79/74/79 74/68/74
f 74/68/75 79/74/80 75/70/80 70/64/75
f 55/75/81 58/79/81 60/78/81 62/77/81 64/76/81
f 75/80/82 79/84/82 78/83/82 77/82/82 76/81/82
g BottomFrame1 FramedBison
f 80/85/83 81/86/84 82/87/84 83/88/83
f 83/88/85 82/87/86 84/89/86 85/90/85
f 85/90/87 84/89/88 86/91/88 87/92/87
f 87/92/89 86/91/90 88/93/90 89/94/89
f 89/94/91 88/93/92 81/95/92 80/96/91
f 81/86/84 90/97/93 91/98/93 82/87/84
f 82/87/86 91/98/94 92/99/94 84/89/86
f 84/89/88 92/99/95 93/100/95 86/91/88
f 86/91/90 93/100/96 94/101/96 88/93/90
f 88/93/92 94/101/97 90/102/97 81/95/92
f 90/97/93 95/103/98 96/104/98 91/98/93
f 91/98/94 96/104/99 97/105/99 92/99/94
f 92/99/95 97/105/100 98/106/100 93/100/95
f 93/100/96 98/106/101 99/107/101 94/101/96
f 94/101/97 99/107/102 95/108/102 90/102/97
f 95/103/98 100/109/103 101/110/103 96/104/98
f 96/104/99 101/110/104 102/111/104 97/105/99
f 97/105/100 102/111/105 103/112/105 98/106/100
f 98/106/101 103/112/106 104/113/106 99/107/101
f 99/107/102 104/113/107 100/114/107 95/108/102
f 80/115/108 83/116/108 85/117/108 87/118/108 89/119/108
f 100/120/109 104/121/109 103/122/109 102/123/109 101/124/109
g Hanger FramedBison
f 105/41/110 106/44/110 107/43/110 108/42/110
