v -19.7262200783557 3.19582120640071 0.0185498415328699
v -8.04138433901969 3.19582120640071 0.0185498415328699
v -8.04138433901969 3.19582120640071 8.92733075800217
v 19.726226085753 3.19582120640071 0.0185498415328699
v 19.726226085753 27.3821212488209 0.0185498415328699
v 19.726226085753 27.3821212488209 8.92732975676929
v 19.726226085753 3.19582120640071 8.92732975676929
v -19.7262200783557 27.3821212488209 0.0185498415328699
v -19.7262200783557 3.19582120640071 8.92732675307066
v -19.7262200783557 27.3821212488209 8.92732675307066
v -8.04138433901969 3.19582120640071 63.7324375743315
v 8.10617862411059 3.19582120640071 8.92733075800217
v 8.10617862411059 3.19582120640071 63.7324375743315
v 19.726226085753 3.19582120640071 63.732441579263
v -19.7262200783557 3.19582120640071 63.732441579263
v 19.726226085753 27.3821212488209 63.732441579263
v -19.7262200783557 27.3821212488209 63.732441579263
v 8.10617862411059 3.19582120640071 0.0185498415328699
v 10.4384054349163 1.99964528321594 9.09705074440463
v 10.4384054349163 5.86683818987348 9.09705074440463
v 10.7344339525919 5.86683818987348 12.8638520328392
v 10.7344339525919 1.99964528321594 12.8638520328392
v 6.43276905450295 5.86683818987348 12.8642124766753
v 6.43276905450295 1.99964628444882 12.8642124766753
v -10.6981012139108 1.99963026472277 12.8650455024299
v -10.6981012139108 5.86682417261319 12.8650455024299
v -10.2919691190945 5.86682417261319 9.05276921790416
v -10.2919691190945 1.99963026472277 9.05276921790416
v 6.43276905450295 1.99964628444882 9.0686347540908
v 6.43276905450295 5.86683818987348 9.0686347540908
v 6.43276905450295 5.86683818987348 -0.064558721589917
v 6.43276905450295 1.99964628444882 -0.064558721589917
v 9.70966809690781 1.99964528321594 -0.064558721589917
v 9.70966809690781 5.86683818987348 -0.064558721589917
v -6.47442034223261 5.86682417261319 12.8642124766753
v -6.47442034223261 1.99963226718853 12.8642124766753
v -6.47442034223261 1.99963226718853 9.0686347540908
v -6.47442034223261 5.86682417261319 9.0686347540908
v -6.47442034223261 1.99963226718853 -0.064558721589917
v -6.47442034223261 5.86682417261319 -0.064558721589917
v -9.29281880536417 1.99963026472277 -0.064558721589917
v -9.29281880536417 5.86682417261319 -0.064558721589917
v -3.01257080919161 3.35636339162591 0
v -3.01257080919161 3.35636339162591 8.71044469317739
v -6.45550905563074 3.35636339162591 8.71044469317739
v -6.45550905563074 3.35636339162591 0
v -3.01257080919161 3.78462723859652 8.71206969413857
v -3.01257080919161 3.35426030196543 8.71206969413857
v -3.01257080919161 3.35426030196543 0
v -3.01257080919161 3.78462723859652 0
v -6.45550905563074 3.78462723859652 8.71044469317739
v -3.01257080919161 3.78462723859652 8.71044469317739
v -6.45550905563074 3.78462723859652 0
v 6.45550905563074 3.35636339162591 0
v 6.45550905563074 3.35636339162591 8.71044469317739
v 3.01257105949983 3.35636339162591 8.71044469317739
v 3.01257105949983 3.35636339162591 0
v 6.45550905563074 3.78462723859652 8.71044469317739
v 6.45550905563074 3.78462723859652 0
v 3.01257105949983 3.78462723859652 8.71044469317739
v 3.01257105949983 3.78462723859652 0
v 3.01257105949983 3.35426030196543 0
v 3.01257105949983 3.35426030196543 8.71206969413857
v 3.01257105949983 3.78462723859652 8.71206969413857
v 3.44293849674735 8.30348407815448 3.87330543337844
v 3.44293849674735 8.30348407815448 8.71044469317739
v 0 8.30348407815448 8.71044469317739
v 0 8.30348407815448 3.87330543337844
v 0 8.30348407815448 0
v 3.44293849674735 8.30348407815448 0
v -3.44293799613092 8.30348407815448 3.87330543337844
v -3.44293799613092 8.30348407815448 0
v -3.44293799613092 8.30348407815448 8.71044469317739
v -3.44293799613092 5.76924001138041 8.71044469317739
v -3.44293799613092 5.76924001138041 3.87330543337844
v -3.44293799613092 5.76924001138041 0
v -3.44293799613092 3.38336714296516 3.87330543337844
v -3.44293799613092 3.38336714296516 0
v -3.44293799613092 3.38336714296516 8.71044469317739
v 3.44293849674735 5.76924001138041 3.87330543337844
v 3.44293849674735 5.76924001138041 8.71044469317739
v 3.44293849674735 5.76924001138041 0
v 3.44293849674735 3.38336714296516 0
v 3.44293849674735 3.38336714296516 3.87330543337844
v 3.44293849674735 3.38336714296516 8.71044469317739
v -2.70464288906788 7.565188470475 8.71044469317739
v -2.70464288906788 3.87737144009648 8.71044469317739
v -3.44293799613092 3.87737144009648 8.71044469317739
v -3.44293799613092 7.565188470475 8.71044469317739
v 3.44293849674735 7.565188470475 8.71044469317739
v 3.44293849674735 3.87737144009648 8.71044469317739
v 3.44293849674735 3.13907633303344 8.71044469317739
v -3.44293799613092 3.13907633303344 8.71044469317739
v 2.70464338968432 3.87737144009648 8.71044469317739
v 2.70464338968432 7.565188470475 8.71044469317739
v -2.70464288906788 3.87737144009648 0.0860734561609784
v 2.70464338968432 3.87737144009648 0.0860734561609784
v 2.70464338968432 7.565188470475 0.0860734561609784
v -2.70464288906788 7.565188470475 0.0860734561609784
v 3.44293849674735 3.87737144009648 0.0860734561609784
v 3.44293849674735 7.565188470475 0.0860734561609784
v -3.44293799613092 7.565188470475 0.0860734561609784
v 3.44293849674735 8.30348407815448 0.0860734561609784
v -3.44293799613092 8.30348407815448 0.0860734561609784
v -3.44293799613092 3.38336714296516 0.0860734561609784
v 3.44293849674735 3.38336714296516 0.0860734561609784
v -3.44293799613092 3.87737144009648 0.0860734561609784
v -6.88587599226183 2.96692985875087 1.32942174676209
v -6.00143692937736 2.96692985875087 1.32942174676209
v -6.00143692937736 2.96692985875087 8.04661177587634
v -6.88587599226183 2.96692985875087 8.04661177587634
v -5.88754468702582 3.13907633303344 8.04661177587634
v -5.88754468702582 3.13907633303344 1.32942174676209
v 6.88587699349471 2.96692985875087 8.04661177587634
v 6.00143793061024 2.96692985875087 8.04661177587634
v 6.00143793061024 2.96692985875087 1.32942174676209
v 6.88587699349471 2.96692985875087 1.32942174676209
v 5.88754568825869 3.13907633303344 1.32942174676209
v 5.88754568825869 3.13907633303344 8.04661177587634
v -6.88587599226183 3.05300284558394 9.46808061574701
v -6.88587599226183 3.0468758009863 8.74411715610134
v 6.88746995500379 3.0468758009863 8.74411715610134
v 6.88746995500379 3.05300284558394 9.46808061574701
v 6.88746995500379 3.13907633303344 8.68283169163181
v -6.88587599226183 3.13907633303344 8.68283169163181
v 5.02681081376364 3.13907633303344 8.60734574125195
v 5.14070305611518 2.88085587068493 8.60734574125195
v 5.14070305611518 2.88085587068493 9.46808061574701
v 5.02681081376364 3.13907633303344 9.46808061574701
v 6.88587699349471 2.88085587068493 9.46808061574701
v 6.00143793061024 2.88085587068493 8.04661177587634
v 6.88587699349471 2.88085587068493 8.04661177587634
v 6.88587699349471 3.13907633303344 8.04661177587634
v -5.02680981253076 3.13907633303344 0.860734561609784
v -5.14070255549874 2.88085587068493 0.860734561609784
v -5.14070255549874 2.88085587068493 0
v -5.02680981253076 3.13907633303344 0
v -6.88587599226183 2.88085587068493 0
v -6.00143692937736 2.88085587068493 1.42146871471655
v -6.88587599226183 2.88085587068493 1.42146871471655
v -6.88587599226183 3.13907633303344 1.42146871471655
v -5.88754468702582 3.13907633303344 1.42146871471655
v 5.02681081376364 3.13907633303344 0
v 5.14070305611518 2.88085587068493 0
v 5.14070305611518 2.88085587068493 0.860734561609784
v 5.02681081376364 3.13907633303344 0.860734561609784
v 6.88587699349471 2.88085587068493 1.42146871471655
v 6.00143793061024 2.88085587068493 1.42146871471655
v 6.88587699349471 2.88085587068493 0
v 5.88754568825869 3.13907633303344 1.42146871471655
v 6.88587699349471 3.13907633303344 1.42146871471655
v -5.02680981253076 3.13907633303344 9.46808061574701
v -5.14070255549874 2.88085587068493 9.46808061574701
v -5.14070255549874 2.88085587068493 8.60734574125195
v -5.02680981253076 3.13907633303344 8.60734574125195
v -6.88587599226183 2.88085587068493 8.04661177587634
v -6.00143692937736 2.88085587068493 8.04661177587634
v -6.88587599226183 2.88085587068493 9.46808061574701
v -6.88587599226183 3.13907633303344 8.04661177587634
v -1.82765750434455 2.91077521216525 8.5641795881777
v -1.82765750434455 2.91077521216525 7.93191003674284
v 1.82765800496099 2.91077521216525 7.93191003674284
v 1.82765800496099 2.91077521216525 8.5641795881777
v -1.61858531120881 2.90304819742839 8.05491700260032
v -1.17600408438935 2.90304819742839 8.05491700260032
v -1.17600408438935 2.90304819742839 8.49748946863209
v -1.61858531120881 2.90304819742839 8.49748946863209
v -0.929997661920983 2.90304819742839 8.05491700260032
v -0.487419188491941 2.90304819742839 8.05491700260032
v -0.487419188491941 2.90304819742839 8.49748946863209
v -0.929997661920983 2.90304819742839 8.49748946863209
v -0.241406508318083 2.90304819742839 8.05491700260032
v 0.201168711104105 2.90304819742839 8.05491700260032
v 0.201168711104105 2.90304819742839 8.49748946863209
v -0.241406508318083 2.90304819742839 8.49748946863209
v 0.447181140969744 2.90304819742839 8.05491700260032
v 0.889758613165908 2.90304819742839 8.05491700260032
v 0.889758613165908 2.90304819742839 8.49748946863209
v 0.447181140969744 2.90304819742839 8.49748946863209
v 1.13576553625072 2.90304819742839 8.05491700260032
v 1.57834651276195 2.90304819742839 8.05491700260032
v 1.57834651276195 2.90304819742839 8.49748946863209
v 1.13576553625072 2.90304819742839 8.49748946863209
v -2.05094094664406 3.19523047900262 7.78780609291057
v -2.05094094664406 3.19523047900262 8.70831006468125
v 2.0509414472605 3.19523047900262 7.78780609291057
v 2.0509414472605 3.19523047900262 8.70831006468125
v 6.88587699349471 3.38336714296516 3.87330543337844
v 6.88587699349471 3.38336714296516 8.71044469317739
v 3.44293824643914 3.38336714296516 8.71044469317739
v 3.44293824643914 3.38336714296516 3.87330543337844
v 3.44293824643914 3.38336714296516 0
v 6.88587699349471 3.38336714296516 0
v -6.88587599226183 3.38336714296516 3.87330543337844
v -6.88587599226183 3.38336714296516 0
v -6.88587599226183 3.38336714296516 8.71044469317739
v -3.44293799613092 3.38336714296516 0.0860734600482295
v 3.44293849674735 3.38336714296516 0.0860734600482295
v 3.44293849674735 8.30348407815448 0.0860734600482295
v -3.44293799613092 8.30348407815448 0.0860734600482295
vt -1.78813934326172e-07 5.96046447753906e-08
vt 0.999999821186066 5.96046447753906e-08
vt 0.999999701976776 0.755094110965729
vt -5.96046447753906e-08 0.755094170570374
vt 1 0.999998390674591
vt 4.11234623243217e-06 0.999999940395355
vt 7.73923147789901e-08 0.731125593185425
vt 0.999998569488525 0.731125116348267
vt 1 0.99999988079071
vt 1.19209289550781e-07 0.99999988079071
vt 2.98023223876953e-08 0.499999910593033
vt 0.999999821186066 0.499999910593033
vt 0.799292743206024 0.708429932594299
vt 0.986187875270844 0.71061235666275
vt 1.00000011920929 0.999908268451691
vt 0.799292743206024 0.999935925006866
vt -1.70588066339405e-07 5.83257246944413e-08
vt 0.999999821186066 5.83257246944413e-08
vt -7.01746785125579e-08 0.755094170570374
vt 0.799292743206024 -3.52408413561989e-08
vt 0.952186226844788 0.00436217896640301
vt 2.56561384048837e-06 0.250280022621155
vt 0.999999105930328 0.250279992818832
vt 1.00000023841858 0.999999940395355
vt 2.98023223876953e-07 0.99999988079071
vt 2.96588552828325e-07 0
vt 1.00000023841858 3.09955794364214e-09
vt 0.197068214416504 0.999935925006866
vt 0.197068214416504 0.708429932594299
vt 4.17959563492332e-06 2.31525831395629e-07
vt 0.999998986721039 -4.92438090304859e-09
vt 5.90018771617906e-08 0.999999940395355
vt 0.0189488548785448 0.707211494445801
vt 0.065567709505558 0.0033119348809123
vt 0.197068214416504 0.000424746802309528
vt 2.37489246046607e-08 -5.96046447753906e-08
vt 0.999999761581421 -3.58340912498534e-08
vn 0 -1 0
vn 1 0 0
vn -1 0 0
vn 6.31175556264907e-09 -1 0
vn 0.996888890490045 0 -0.0788196677075432
vn 0.996926121652633 0 -0.0783473545605784
vn 8.37917174763564e-05 0 0.999999996489474
vn 4.18958523866741e-05 0 0.999999999122369
vn -0.994373229265897 -0 -0.10593337962754
vn -0.994212143284725 -0 -0.107434697119664
vn -2.67749811655439e-07 -0.999999999999964 9.43708222678163e-09
vn -2.52509266829285e-07 -0.999999999999968 1.09545190696277e-08
vn 0.996851436074248 0 -0.0792919566961855
vn 0 0 1
vn 9.86137172470667e-05 0 0.999999995137668
vn 0 0 -1
vn 1.08355754946324e-06 -0.999999999999413 0
vn 0.000197227458358917 0 0.999999980550665
vn 4.8549037501283e-07 -0.999999999999882 2.65848605351917e-08
vn 5.55411759250915e-07 -0.999999999999845 3.3036261726233e-08
vn -0.994048780220361 -0 -0.108935864353354
vn 0 1 0
vn 0.473406895156376 -0.880843863359676 0
vn 0.769706826243701 -0.443229148666412 -0.459455464007446
vn 0.833995488513089 -0.551771261611017 0
vn -0.621317537551305 -0.783558879428459 0
vn -0.473406895156376 -0.880843863359676 0
vn -0.833995534088361 -0.551771192724547 0
vn -0.769706884183941 -0.44322889481289 -0.459455611830777
vn 0 -0.999964182971966 0.00846361466566436
vn 0 -0.883343782588172 -0.468725678582708
vn 0 -0.999964182885263 0.00846362490947889
vn 0 -0.553558814411169 -0.83281008578649
vn -0.81323286185658 -0.358689289564502 -0.458251356733692
vn -0.914954975064853 -0.403555936152691 0
vn -0.914955006780058 -0.403555864246952 0
vn -0.278567134887789 -0.122866465923193 -0.95252516130124
vn 0.813232483979543 -0.358690410138765 0.458251150216721
vn 0.914954975064853 -0.403555936152691 0
vn 0.914955006780058 -0.403555864246952 0
vn 0.184666307158533 -0.0814501658041026 0.979420351785133
vn 0.278567237678764 -0.122866781292327 0.952525090560289
vn -0.9149549530567 -0.403555986050278 0
vn -0.813232895018402 -0.358689304191052 0.458251286434559
vn -0.184666279174414 -0.081449999859047 0.979420370861684
vn -0.278567203818239 -0.122866496326062 0.952525137220769
vn 0.9149549530567 -0.403555986050278 0
vn 0.813232450817728 -0.358690395512208 -0.458251220515873
vn 0.278567168748327 -0.122866750889402 -0.952525114640776
vn -0.437349833534291 -0.899291456151746 0
vn 0.437349833534292 -0.899291456151746 0
vn -0.786609937293553 -0.617450246215056 0
vn 0 -0.451914739086308 -0.892061135010687
vn 0.786609937293554 -0.617450246215054 0
vn 0 -0.451980949508346 0.892027589977762
g wallmesh wall
f 1//1 2//1 3//1
f 4//2 5//2 6//2 7//2
f 8//3 1//3 9//3 10//3
f 11//1 3//1 12//1 13//1
f 13//4 12//4 7//4 14//1
f 9//1 3//1 11//1 15//1
f 7//2 6//2 16//2 14//2
f 10//3 9//3 15//3 17//3
f 7//1 12//1 4//1
f 1//1 3//1 9//1
f 4//1 12//1 18//1
g doorway2 wall
f 19/1/5 20/2/5 21/3/6 22/4/6
f 22/5/7 21/6/7 23/7/8 24/8/8
f 25/9/9 26/10/9 27/11/10 28/12/10
f 29/13/11 19/14/11 22/15/11 24/16/11
f 29/17/3 30/18/3 31/3/3 32/19/3
f 32/20/12 33/21/12 19/14/12 29/13/12
f 33/1/13 34/2/13 20/3/5 19/4/5
f 24/8/14 23/7/14 35/22/15 36/23/15
f 30/24/16 29/25/16 37/26/16 38/27/16
f 29/13/17 24/16/17 36/28/17 37/29/17
f 36/23/15 35/22/15 26/30/18 25/31/18
f 37/29/19 36/28/19 25/32/19 28/33/19
f 38/17/2 37/18/2 39/3/2 40/19/2
f 37/29/20 28/33/20 41/34/20 39/35/20
f 28/12/10 27/11/10 42/36/21 41/37/21
g doorL wall
f 43//1 44//1 45//1 46//1
f 47//2 48//2 49//2 50//2
f 51//14 45//14 44//14 52//14
f 53//3 46//3 45//3 51//3
f 51//22 52//22 50//22 53//22
g doorR wall
f 54//1 55//1 56//1 57//1
f 58//2 55//2 54//2 59//2
f 60//14 56//14 55//14 58//14
f 61//3 62//3 63//3 64//3
f 60//22 58//22 59//22 61//22
g elevator wall
f 65//1 66//1 67//1 68//1
f 68//1 69//1 70//1 65//1
f 71//1 72//1 69//1 68//1
f 68//1 67//1 73//1 71//1
f 71//2 73//2 74//2 75//2
f 75//2 76//2 72//2 71//2
f 77//2 78//2 76//2 75//2
f 75//2 74//2 79//2 77//2
f 80//3 81//3 66//3 65//3
f 65//3 70//3 82//3 80//3
f 80//3 82//3 83//3 84//3
f 84//3 85//3 81//3 80//3
f 86//16 87//16 88//16 89//16
f 73//16 66//16 90//16 89//16
f 88//16 91//16 92//16 93//16
f 90//16 91//16 94//16 95//16
f 86//16 95//16 94//16 87//16
f 96//14 97//14 98//14 99//14
f 98//14 97//14 100//14 101//14
f 102//14 101//14 103//14 104//14
f 105//14 106//14 100//14
f 105//14 100//14 107//14
f 102//14 107//14 96//14 99//14
f 108//1 109//23 110//23 111//1
f 112//24 110//23 109//23 113//25
f 114//1 115//26 116//27 117//1
f 118//28 116//27 115//26
f 118//28 115//26 119//29
f 120//30 121//31 122//31 123//32
f 124//33 122//31 121//31 125//33
f 126//34 127//34 128//35 129//36
f 130//1 128//1 127//1 131//1 132//1
f 133//16 132//16 131//37 119//16
f 119//29 131//37 127//34 126//34
f 134//38 135//38 136//39 137//40
f 138//1 136//1 135//1 139//1 140//1
f 141//14 140//14 139//41
f 141//14 139//41 142//42
f 142//42 139//41 135//38 134//38
f 143//35 144//43 145//44 146//44
f 147//1 148//1 145//1 144//1 149//1
f 150//45 148//46 147//14
f 150//45 147//14 151//14
f 146//44 145//44 148//46 150//45
f 152//39 153//47 154//48 155//48
f 156//1 157//1 154//1 153//1 158//1
f 112//16 157//49 156//16 159//16
f 155//48 154//48 157//49 112//24
f 160//50 161//50 162//51 163//51
f 164//1 165//1 166//1 167//1
f 168//1 169//1 170//1 171//1
f 172//1 173//1 174//1 175//1
f 176//1 177//1 178//1 179//1
f 180//1 181//1 182//1 183//1
f 184//52 161//50 160//50 185//52
f 186//53 162//53 161//53 184//53
f 187//54 163//51 162//51 186//54
f 185//55 160//55 163//55 187//55
f 188//1 189//1 190//1 191//1
f 191//1 192//1 193//1 188//1
f 194//1 195//1 78//1 77//1
f 77//1 79//1 196//1 194//1
g floor collisions
f 197//14 198//14 199//14 200//14
