v -0.851985868563238 -1.79110914860534 1.16392312808648
v 3.85198586856324 -1.79110914860534 1.16392312808648
v 3.96850896802869 -0.758347749710083 1.16392312808648
v -0.968508968028688 -0.758347749710083 1.16392312808648
v 3.85198586856324 -1.79110914860534 1
v -0.851985868563238 -1.79110914860534 1
v 3.96850896802869 -0.758347749710083 1
v -0.968508968028688 -0.758347749710083 1
v -0.903238023942038 -2.00379416865289 1.68610741587417
v 3.78583803624332 -2.01198756910524 1.82204257440649
v 3.74854766243284 -2.0977494689752 2.33287488830463
v -0.955198929478222 -2.14324753504425 2.32482572659503
v -0.956644097614064 -1.99242443200324 2.31402371374503
v -0.88777339981635 -1.89128934780633 1.72295422666374
v 3.747102494297 -1.94692636593419 2.32207287545463
v 3.76731759345918 -1.88650027671275 1.86208414760885
v 3.78324851723448 -2.00910777379212 1.71844538231749
v -0.905696293892852 -2.02743760325955 1.62093068002435
v -0.86822617705229 -1.97799875046624 1.26225040282884
v 3.83574556007418 -1.97799875046624 1.26225040282884
v 3.83574556007418 -1.83677764903255 1.3055674586959
v 3.76664971703723 -1.89241466234499 1.72101181609576
v -0.86822617705229 -1.83677764903255 1.3055674586959
v -0.888441276233046 -1.89720373449891 1.62453553261747
v 2.71936008285883 -2.4527186660464 0.333333333333333
v 2.71936008285883 -2.5 0
v 3.18786905088752 -2.5 0
v 3.18786905088752 -2.4527186660464 0.333333333333333
v 2.71936008285883 -2.298946530474 0.666666666666667
v 3.18786905088752 -2.298946530474 0.666666666666667
v 2.71936008285883 -2 1
v 2.71936008285883 -2.5 2.5
v 2.71936008285883 -2.2 2.5
v 3.18786905088752 -2.5 2.5
v 3.18786905088752 -2.2 2.5
v 3.18786905088752 -2 1
v 3.18786905088752 -1 1
v 3.18786905088752 -0.5 0
v 3.18786905088752 -0.580710059078032 0.333333333333333
v 3.18786905088752 -0.714424959575773 0.666666666666667
v 2.71936008285883 -0.714424959575773 0.666666666666667
v 2.71936008285883 -1 1
v 2.71936008285883 -0.580710059078032 0.333333333333333
v 2.71936008285883 -0.5 0
v -0.468508968028688 -2.4527186660464 0.333333333333333
v -0.468508968028688 -2.5 0
v 0 -2.5 0
v 0 -2.4527186660464 0.333333333333333
v -0.468508968028688 -2.298946530474 0.666666666666667
v 0 -2.298946530474 0.666666666666667
v -0.468508968028688 -2 1
v -0.468508968028688 -2.5 2.5
v -0.468508968028688 -2.2 2.5
v 0 -2.5 2.5
v 0 -2.2 2.5
v 0 -2 1
v 0 -1 1
v 0 -0.5 0
v 0 -0.580710059078032 0.333333333333333
v 0 -0.714424959575773 0.666666666666667
v -0.468508968028688 -0.714424959575773 0.666666666666667
v -0.468508968028688 -1 1
v -0.468508968028688 -0.580710059078032 0.333333333333333
v -0.468508968028688 -0.5 0
v -2 -3 0
v 5 -3 0
v 5 0 0
v -2 0 0
v 3.99914209578184 -0.5 0
v 3.99914209578184 -0.5 2.5
v 3.99914209578184 -2.5 2.5
v 3.99914209578184 -2.5 0
v -1.03415566124429 -0.5 0
v -1.03415566124429 -0.5 2.5
v -1.03415566124429 -2.5 0
v -1.03415566124429 -2.5 2.5
vt 0.019624313339591 0.256741046905518
vt 0.982481837272644 0.338596671819687
vt 0.993916928768158 0.190464600920677
vt -0.0202633664011955 0.0240879766643047
vt 1.0000958442688 0.632546663284302
vt 1.00045907497406 0.483198583126068
vt 0.00428819889202714 0.478437781333923
vt 0.00392495328560472 0.627785861492157
vt 0.0168200209736824 0.0467053689062595
vt 0.0586500205099583 1.02540743350983
vt 0.997322857379913 0.858854353427887
vt 0.995801091194153 1.00456786155701
vt -0.00339584005996585 1.01609814167023
vt -0.00187409180216491 0.870384514331818
vt 0.987906515598297 0.966595709323883
vt 0.991914927959442 0.031465757638216
vt 0.016823785379529 0.0458272024989128
vt 0.0588434599339962 0.980279207229614
vt 0.00745939603075385 0.0141733000054955
vt 0.996611773967743 0.0423030629754066
vt 0.996364295482635 0.510636270046234
vt 0.0056109456345439 0.473495334386826
vt 0.927177786827087 -0.815677404403687
vt 1.11136484146118 -0.821554005146027
vt 1.17882990837097 -0.305596381425858
vt 1.03111982345581 -0.270078539848328
vt 0.00381735595874488 0.142424538731575
vt 0.00147324136923999 0.0188013948500156
vt 0.992016315460205 0.00117158889770508
vt 0.994360446929932 0.124794729053974
vt -0.00283767818473279 1.21459352970123
vt -0.000293412478640676 1.23794305324554
vt -0.0124333770945668 1.91518437862396
vt -0.0139020532369614 1.97320866584778
vt 0.0087206345051527 0.980053842067719
vt 0.986713409423828 0.995205044746399
vt 0.999854624271393 0.488479286432266
vt 0.00201753410510719 0.378405898809433
vt 0.00291953887790442 -0.00407825969159603
vt 0.991914868354797 -0.0040642861276865
vt 0.993931591510773 -0.0495565608143806
vt 0.00640231370925903 -0.0268876794725657
vt 0.00881127454340458 -0.280443638563156
vt 0.999419927597046 -0.459017097949982
vt 0.0369519107043743 1.44708895683289
vt 0.142468556761742 1.41414260864258
vt 0.137456893920898 1.06546485424042
vt 0.049964003264904 1.07113397121429
vt 0.964892685413361 0.0189022868871689
vt 0.964892685413361 0.018902288749814
vt 0.0330649949610233 0.0044662463478744
vt 0.0330649949610233 0.00446624588221312
vt -0.42722749710083 -0.0138822589069605
vt -0.686417758464813 -0.041575264185667
vt -0.662311673164368 -0.210644289851189
vt -0.373572826385498 -0.201435148715973
vt 0.000591988966334611 0.126537337899208
vt 0.00182595569640398 0.0667300596833229
vt 1.00226330757141 0.0655738711357117
vt 1.00857496261597 0.132293283939362
vt 0.00350530073046684 1.06393098831177
vt 1.00941121578217 1.06851375102997
vt 1.01560997962952 1.1311970949173
vt 0.0170642882585526 1.12209832668304
vt 6.00498294830322 0.603429198265076
vt 6.00161647796631 0.542840600013733
vt 6.92653751373291 0.542840600013733
vt 6.92990398406982 0.603429198265076
vt 6.00834989547729 0.664017856121063
vt 6.9332709312439 0.664017856121063
vt 0.751659274101257 0.398697793483734
vt 0.900934755802155 0.264938831329346
vt 1.00132846832275 1.00363409519196
vt 0.851526975631714 1.00314295291901
vt 6.95178413391113 0.997255384922028
vt 6.02686309814453 0.997255384922028
vt 0.252320766448975 0.397060602903366
vt 0.977719128131866 0.130942210555077
vt 1.00132846832275 -0.00322874868288636
vt 0.00265153055079281 -0.00650309957563877
vt 0.0429531708359718 0.127877414226532
vt 0.109722167253494 0.262344688177109
vt 6.01171588897705 0.724606513977051
vt 6.93663692474365 0.724606513977051
vt 6.00498390197754 0.603429198265076
vt 6.92990493774414 0.603429198265076
vt 6.92653894424438 0.542840600013733
vt 6.00161743164062 0.542840600013733
vt 0.339372336864471 0.196045070886612
vt 0.657142996788025 0.222996771335602
vt 0.662995517253876 0.505668759346008
vt 0.345224857330322 0.478717088699341
vt -0.00372415129095316 0.163064509630203
vt 0.958688676357269 0.212771698832512
vt 0.954619467258453 0.406475186347961
vt -0.00779338227584958 0.356768012046814
vt 0.0725236609578133 0.600871622562408
vt 0.0691576227545738 0.540283024311066
vt 0.994078695774078 0.540283024311066
vt 0.997444748878479 0.600871622562408
vt 0.0758896917104721 0.661460280418396
vt 1.00081074237823 0.661460280418396
vt 1.01932394504547 0.99469780921936
vt 0.0944028869271278 0.99469780921936
vt 0.0792557299137115 0.722048938274384
vt 1.00417685508728 0.722048938274384
vt 0.167475953698158 0.213046535849571
vt 0.567480385303497 0.206796571612358
vt 0.549883961677551 0.436979115009308
vt 0.149879544973373 0.443229079246521
vt 0.0267800744622946 0.162076875567436
vt 0.997679948806763 0.157282486557961
vt 1.01335191726685 0.450520247220993
vt 0.0424520894885063 0.455314606428146
vt 0 0
vt 1 0
vt 1 1
vt 0 1
vn 0 0 1
vn 0 -1 0
vn 0.993695194703695 -0.112115387091981 0
vn 0 1 0
vn -0.993695194703695 -0.112115387091981 0
vn 0 0 -1
vn 0.00683712203110049 -0.98142093505266 -0.191745148576682
vn -0.994426902890249 0.0614182023944122 -0.0856909518137524
vn -0.00239762117517401 0.0714143664546254 0.997443852894279
vn 0.995538951773323 0.0646648919767041 0.0687069665151543
vn 0.0281094140512118 0.307630819647511 -0.951090500238909
vn -0.0076903920325871 0.98845993567701 0.151287188591056
vn 0.00295990209196619 -0.995177736034551 -0.0980434224247132
vn 0.989147617857214 0.0384311197074031 0.14180986963337
vn 0 0.293247203126421 -0.956036650897094
vn -0.994498195250722 0.0757263375357788 -0.0723799795970784
vn -0.0206883804026977 -0.024924258570675 0.99947524844341
vn -0.0021119738076503 0.987778930343131 0.155847118474533
vn 0 -0.959220644827019 0.282658370719209
vn 0 -0.990089439601654 0.140438248313207
vn 0 -0.986987544620453 0.160796724979366
vn -1 0 0
vn 0 -0.994040436980623 -0.109011970202234
vn 1 0 0
vn 0 0.855158858515444 0.518366016153222
vn 0 0.417966219688355 0.908462568958912
vn 0 0.952478218261216 0.304606703369999
vn 0 0.971915508720225 0.235330074382995
vn 0 0.991227900682635 0.132163720091018
g seat bench
f 1/1/1 2/2/1 3/3/1 4/4/1
f 5/5/2 2/6/2 1/7/2 6/8/2
f 7/9/3 3/9/3 2/10/3 5/10/3
f 8/11/4 4/12/4 3/13/4 7/14/4
f 6/15/5 1/15/5 4/16/5 8/16/5
f 8/16/6 7/17/6 5/18/6 6/15/6
f 9/19/7 10/20/7 11/21/7 12/22/7
f 12/23/8 13/24/8 14/25/8 9/26/8
f 11/27/9 15/28/9 13/29/9 12/30/9
f 10/31/10 16/32/10 15/33/10 11/34/10
f 9/35/11 14/35/11 16/36/11 10/36/11
f 13/37/12 15/38/12 16/39/12 14/40/12
f 17/41/13 18/42/13 19/43/13 20/44/13
f 20/45/14 21/46/14 22/47/14 17/48/14
f 19/49/15 23/50/15 21/51/15 20/52/15
f 18/53/16 24/54/16 23/55/16 19/56/16
f 17/57/17 22/58/17 24/59/17 18/60/17
f 21/61/18 23/62/18 24/63/18 22/64/18
f 25/65/19 26/66/20 27/67/20 28/68/19
f 29/69/21 25/65/19 28/68/19 30/70/21
f 31/71/22 29/72/22 32/73/22 33/74/22
f 34/75/23 32/76/23 29/69/21 30/70/21
f 35/74/24 34/73/24 30/72/24 36/71/24
f 37/77/24 36/71/24 30/72/24 28/78/24 27/79/24 38/80/24 39/81/24 40/82/24
f 41/69/25 42/83/26 37/84/26 40/70/25
f 43/85/27 41/69/25 40/70/25 39/86/27
f 38/87/28 44/88/28 43/85/27 39/86/27
f 37/89/26 42/90/26 31/91/1 36/92/1
f 36/84/29 31/83/29 33/76/29 35/75/29
f 35/93/1 33/94/1 32/95/1 34/96/1
f 44/80/22 26/79/22 25/78/22 29/72/22 31/71/22 42/77/22 41/82/22 43/81/22
f 45/97/19 46/98/20 47/99/20 48/100/19
f 49/101/21 45/97/19 48/100/19 50/102/21
f 51/71/22 49/72/22 52/73/22 53/74/22
f 54/103/23 52/104/23 49/101/21 50/102/21
f 55/74/24 54/73/24 50/72/24 56/71/24
f 57/77/24 56/71/24 50/72/24 48/78/24 47/79/24 58/80/24 59/81/24 60/82/24
f 61/101/25 62/105/26 57/106/26 60/102/25
f 63/97/27 61/101/25 60/102/25 59/100/27
f 58/99/28 64/98/28 63/97/27 59/100/27
f 57/107/26 62/108/26 51/109/1 56/110/1
f 56/106/29 51/105/29 53/104/29 55/103/29
f 55/111/1 53/112/1 52/113/1 54/114/1
f 64/80/22 46/79/22 45/78/22 49/72/22 51/71/22 62/77/22 61/82/22 63/81/22
g bench_shadow bench
f 65/115/1 66/116/1 67/117/1 68/118/1
g bench_wall_collisions bench
f 69//24 70//24 71//24 72//24
f 73//4 74//4 70//4 69//4
f 75//22 76//22 74//22 73//22
f 72//2 71//2 76//2 75//2
