v 0.0815716269271718 -0.999099266611557 -0.00614549695913169
v 0.0815716269271718 0.000900733388442987 -0.00614549695913169
v 2.91809253748531 0.00321950797218662 -0.00861552991411685
v 2.91809253748531 -0.996780492027813 -0.00861552991411685
v 2.95682428227897 -0.993956498270708 0.648784166036165
v 2.95682428227897 -0.0132309222201501 0.648784166036165
v 0.0146475541272927 -0.0132309222201501 0.648784166036165
v 0.0146475541272927 -0.993956498270708 0.648784166036165
v 2.98684646457499 -1.00396389236938 0.648784166036165
v 2.8617938161477 -0.969976831525832 1.09322158603368
v 0.10967802025856 -0.969976831525832 1.09322158603368
v 0.0146475541272927 -1.01397128646806 0.648784166036165
v 0.10967802025856 -0.0372105889650269 1.09322158603368
v 2.8617938161477 -0.0372105889650269 1.09322158603368
v 2.98684646457499 -0.00322352812147519 0.648784166036165
v 1.48573591820313 -0.50359371024543 1.32197690405624
v 2.92432014036135 -0.986970361947608 0.871002876034921
v 1.48573591820313 -0.50359371024543 0.648784166036165
v 0.0471516960449138 -0.0202170585432513 0.871002876034921
v 1.48573591820313 -0.50359371024543 1.32640173106396
v 0 0 0
v -0.107488989830017 0.0358296632766724 0.790569424629211
v 3.10748898983002 0.0358296632766724 0.790569424629211
v 3 0 0
v -0.0259173629028453 -1.03492892988823 0.78442392767008
v -0.0259173629028453 0.0367303966651154 0.78442392767008
v 3.02558152731532 0.039049171248859 0.781953894715095
v 3.02558152731532 -1.03261015530449 0.781953894715095
v 3 -0.965735814759526 -0.00861552991411685
v 3.10748898983002 -1.03582966327667 0.790569424629211
v -0.107488989830017 -1.03582966327667 0.790569424629211
v 0 -0.965735814759526 0
v -0.957936571983909 -4.44089209850063e-16 -1.29397328726032
v 3.95793657198391 -4.44089209850063e-16 -1.29397328726032
v 3.95793657198391 0 1.0530227660897
v -0.957936571983909 0 1.0530227660897
vt 0.0249413512647152 0.882829248905182
vt 0.0270961225032806 -0.00044654167140834
vt 0.969054698944092 0.00964296888560057
vt 0.966899931430817 0.892918705940247
vt 2.60064339637756 -0.0340053103864193
vt 2.58712816238403 1.41098999977112
vt -0.0135151343420148 1.44499528408051
vt 0 0
vt 3.00522446632385 0
vt 2.89760828018188 0.999523997306824
vt 0.142739459872246 0.999523997306824
vt 2.1550772190094 0
vt 1.84856534004211 1.0046489238739
vt -0.160130813717842 1.0046489238739
vt 3.03802800178528 0.00590317416936159
vt 2.85001230239868 1.0151549577713
vt 0.0650726780295372 1.00974357128143
vt 2.09147191047668 0
vt 1.82068264484406 1.00620472431183
vt -0.128728479146957 1.00620472431183
vt 0.976050853729248 1.02379286289215
vt 0.00293129635974765 1.02351641654968
vt 0.00146564817987382 0.511758208274841
vt 1.05980038642883 0
vt 2.11960077285767 0
vt 2.03438568115234 0.512034595012665
vt 1.94917035102844 1.02406919002533
vt 1.11807346343994 1.02858364582062
vt 0.0608309544622898 1.02830588817596
vt 1.15139961242676 0
vt 2.30279922485352 0
vt 2.17531585693359 1.02886128425598
vt 0.973081946372986 -0.00555739691480994
vt 0.995252549648285 0.971085071563721
vt 0.00659850845113397 0.971085071563721
vt -0.0147684831172228 -0.00555739691480994
vt 0.95808869600296 0.112427651882172
vt 0.932315468788147 0.948774337768555
vt 0.0580137073993683 1.04332911968231
vt 0.000489322235807776 0.0656026154756546
vt -1.87387275695801 0.00333880353718996
vt -1.89147424697876 1.00340294837952
vt -1.02536427974701 0.984339237213135
vt -1.0645763874054 -0.00850167311728001
vt 1.02390670776367 -0.0183722171932459
vt 0.996781468391418 0.992812871932983
vt 0.000717402901500463 1.01008188724518
vt 0.02421884983778 -0.0106030851602554
vt 1 0
vt 1 1
vt 0 1
vn -0.000870796336912225 0 -0.999999620856798
vn 0 0 1
vn 0.00174152494777598 -0.996167111208881 0.0874531510959383
vn -0.977895237121109 0 0.209095445229806
vn 0.160868609119952 0.98653477550208 0.02950300535323
vn -0.162589149317811 0.986253140355316 0.0294874831647011
vn 0.962620097881895 0 0.270855214374491
vn 0.319005908399193 0.947752726191557 2.0071817511137e-05
vn 0.318992557105832 0.947732306970543 0.00687188732263196
vn -0.0012616706715521 0.999989748387854 -0.00434871317908097
vn 0.319004283012444 0.947728650345144 -0.00683174462994079
vn -0.321390199810151 0.946910830737482 -0.0082594248009412
vn -0.323777502840265 0.946083802001597 -0.00967306800990351
vn 0 0.998974567635071 -0.0452748629851342
vn -0.990883103591769 0 -0.134724441050406
vn 0.990883103591769 0 -0.134724441050406
vn -0.000121769984114714 -0.996134490600401 -0.0878411168437122
vn 0 -1 0
g o44 g12 g1
f 1/1/1 2/2/1 3/3/1 4/4/1
f 5/5/2 6/6/2 7/7/2 8/8/2
f 9/9/3 10/10/3 11/11/3 12/8/3
f 12/12/4 11/13/4 13/14/4 7/8/4
f 7/15/5 13/16/5 14/17/6 15/8/6
f 15/18/7 14/19/7 10/20/7 9/8/7
f 16/21/8 10/22/9 17/23/9 9/8/9 18/24/10
f 7/25/5 19/26/11 13/27/5 16/21/8 18/24/10
f 20/28/12 14/29/6 15/8/6 18/30/10
f 12/31/13 11/32/13 20/28/12 18/30/10
f 21/33/14 22/34/14 23/35/14 24/36/14
f 1/37/15 25/38/15 26/39/15 2/40/15
f 3/41/16 27/42/16 28/43/16 4/44/16
f 29/45/17 30/46/17 31/47/17 32/48/17
f 33/8/18 34/49/18 35/50/18 36/51/18
