v -2.19186060673135 -2.43519651674427 0.00649545988043511
v 0.81036782302802 -2.43519651674427 0.00649545988043511
v -0.537792752990077 -1.30700436128401 4.99520669673515
v -1.32813519092968 -1.27446729784884 5.27057069662508
v -0.609530560353956 -0.379427233732031 5.40191721964502
v -1.37859979640517 -0.379427233732031 5.87001168301502
v -0.609530560353956 0.46532491023188 5.40191721964502
v -1.37859979640517 0.46532491023188 5.87001168301502
v -0.537792752990077 1.30700329272774 4.99520669673515
v -1.32813519092968 1.27446634802104 5.27057069662508
v 0.81036782302802 2.43519556691648 0.00649545988043511
v -2.19186060673135 2.43519556691648 0.00649545988043511
v 0.81036782302802 0.46532491023188 0.00649545988043511
v -2.19186060673135 0.46532491023188 0.00649545988043511
v -2.02888469124214 0.46532491023188 0.682674971457827
v 0.645333129834204 0.46532491023188 0.695590577379079
v 0.643620407835714 -0.37942726341415 0.70633687361937
v -2.02828392866078 -0.37942726341415 0.686444636792512
v -2.19186060673135 -0.379427233732031 0.00649545988043511
v 0.81036782302802 -0.379427233732031 0.00649545988043511
v -0.0369726506197228 0.46532491023188 4.91916257874228
v -0.0491994721741713 -0.379427233732031 4.97457774446081
v -2.19805861118941 0.46532491023188 5.22808603669079
v -2.19720465049728 -0.379427233732031 5.24448453157154
v -2.45557422320448 -4.6850310803031 4.62518906116235
v -2.19733061230159 -4.6850310803031 4.62518906116235
v -2.19733061230159 -4.6850310803031 4.89955869922889
v -2.45557422320448 -4.6850310803031 4.89955869922889
v -2.45557422320448 -0.111705725182154 9.39723256730265
v -2.19733061230159 -0.111705725182154 9.39723256730265
v -2.19733061230159 0.171088007893113 9.39723256730265
v -2.45557422320448 0.171088007893113 9.39723256730265
v -2.45557422320448 4.75574748539427 4.88775479664521
v -2.19733061230159 4.75574748539427 4.88775479664521
v -2.19733061230159 4.75574748539427 4.63699296374603
v -2.45557422320448 4.75574748539427 4.63699296374603
v -2.45557422320448 0.168162681166349 0.0831650620026138
v -2.19733061230159 0.168162681166349 0.0831650620026138
v -2.19733061230159 -0.108780398455389 0.0831650620026138
v -2.45557422320448 -0.108780398455389 0.0831650620026138
v -2.19733061230159 -0.195022414217815 4.53766054961284
v -2.19733061230159 0.254404696928774 4.53766054961284
v -2.19733061230159 0.254404696928774 4.98708721077839
v -2.19733061230159 -0.195022414217815 4.98708721077839
v -2.45557422320448 0.254404696928774 4.53766054961284
v -2.45557422320448 -0.195022414217815 4.53766054961284
v -2.45557422320448 -0.195022414217815 4.98708721077839
v -2.45557422320448 0.254404696928774 4.98708721077839
v -2.19733061230159 -0.111705725182154 5.07999029584343
v -2.45557422320448 -0.111705725182154 5.07999029584343
v -2.19733061230159 0.171088007893113 5.07999029584343
v -2.45557422320448 0.171088007893113 5.07999029584343
v -2.19733061230159 -0.277269948307653 4.62518906116235
v -2.45557422320448 -0.277269948307653 4.62518906116235
v -2.19733061230159 -0.277269948307653 4.89955869922889
v -2.45557422320448 -0.277269948307653 4.89955869922889
v -2.19733061230159 0.168162681166349 4.46310049157285
v -2.45557422320448 0.168162681166349 4.46310049157285
v -2.19733061230159 -0.108780398455389 4.46310049157285
v -2.45557422320448 -0.108780398455389 4.46310049157285
v -2.19733061230159 0.340710609998568 4.88775479664521
v -2.45557422320448 0.340710609998568 4.88775479664521
v -2.19733061230159 0.340710609998568 4.63699296374603
v -2.45557422320448 0.340710609998568 4.63699296374603
v -2.19733061230159 -0.111705725182154 5.27452789803107
v -2.45557422320448 -0.111705725182154 5.27452789803107
v -2.19733061230159 0.171088007893113 5.27452789803107
v -2.45557422320448 0.171088007893113 5.27452789803107
v -2.19733061230159 0.770343955254228 5.27452789803107
v -2.45557422320448 0.770343955254228 5.27452789803107
v -2.45557422320448 0.770343955254228 9.39723256730265
v -2.19733061230159 0.770343955254228 9.39723256730265
v -2.19733061230159 -0.483883691606833 4.62518906116235
v -2.45557422320448 -0.483883691606833 4.62518906116235
v -2.19733061230159 -0.483883691606833 4.89955869922889
v -2.45557422320448 -0.483883691606833 4.89955869922889
v -2.19733061230159 -0.483883691606833 5.49972270832429
v -2.45557422320448 -0.483883691606833 5.49972270832429
v -2.45557422320448 -4.6850310803031 5.49972270832429
v -2.19733061230159 -4.6850310803031 5.49972270832429
v -2.19733061230159 0.168162681166349 4.27616396907581
v -2.45557422320448 0.168162681166349 4.27616396907581
v -2.19733061230159 -0.108780398455389 4.27616396907581
v -2.45557422320448 -0.108780398455389 4.27616396907581
v -2.19733061230159 -0.790974600799372 4.27616396907581
v -2.45557422320448 -0.790974600799372 4.27616396907581
v -2.45557422320448 -0.790974600799372 0.0831650620026138
v -2.19733061230159 -0.790974600799372 0.0831650620026138
v -2.19733061230159 0.557016044889973 4.88775479664521
v -2.45557422320448 0.557016044889973 4.88775479664521
v -2.19733061230159 0.557016044889973 4.63699296374603
v -2.45557422320448 0.557016044889973 4.63699296374603
v -2.19733061230159 0.557016044889973 4.0465926432089
v -2.45557422320448 0.557016044889973 4.0465926432089
v -2.45557422320448 4.75574748539427 4.0465926432089
v -2.19733061230159 4.75574748539427 4.0465926432089
vt 0.140495806932449 0.207948505878448
vt 0.414837032556534 0.20030389726162
vt 0.249078333377838 0.943896889686584
vt 0.17450800538063 0.962549805641174
vt 0.91501522064209 0.992063641548157
vt 0.888910591602325 0.990218877792358
vt 0.903374433517456 0.974441170692444
vt 0.951886415481567 0.977960586547852
vt 0.918906033039093 0.953033804893494
vt 0.970335841178894 0.954422235488892
vt 0.918763041496277 0.936232149600983
vt 0.968962728977203 0.938236892223358
vt 0.0746986716985703 0.966841876506805
vt 0.149268954992294 0.94818913936615
vt 0.315027594566345 0.204596355557442
vt 0.0406865179538727 0.212240993976593
vt 0.742336392402649 0.350066244602203
vt 0.0190811157226562 0.350066244602203
vt 0.0190811157226562 0.0578698627650738
vt 0.742336511611938 0.0578698515892029
vt 0.562927424907684 0.646631717681885
vt 0.549238085746765 0.826043725013733
vt 0.343175411224365 0.825838804244995
vt 0.356850266456604 0.646581888198853
vt 0.771235048770905 -0.14787769317627
vt 0.0479797720909119 -0.147877678275108
vt 0.0479797124862671 -0.452815264463425
vt 0.77123498916626 -0.452815532684326
vt 0.797753512859344 0.201152861118317
vt 0.703749477863312 0.201152861118317
vt 0.757587730884552 0.952996551990509
vt 0.797753512859344 0.931566059589386
vt 0.797753512859344 0.298144936561584
vt 0.838065564632416 0.299657613039017
vt 0.838065564632416 0.939365983009338
vt 0.936168730258942 0.201152861118317
vt 0.838065564632416 0.201152861118317
vt 0.882330596446991 0.942269563674927
vt 1.02859687805176 0.955995082855225
vt 1.00052046775818 0.972959399223328
vt 1.1676961183548 0.382345616817474
vt 0.671633958816528 0.377110660076141
vt 0.699041962623596 0.240362361073494
vt 1.14090394973755 0.247593328356743
vt 0.742258608341217 0.89714789390564
vt 1.23832094669342 0.902382969856262
vt 1.21115612983704 1.03731548786163
vt 0.769669592380524 1.03661227226257
vt 0.879369854927063 0.951966285705566
vt 0.879759311676025 0.968835949897766
vt 0.513137817382812 0.199135690927505
vt 0.607141852378845 0.199135690927505
vt 0.607141852378845 0.294309973716736
vt 0.607141852378845 0.934090256690979
vt 0.568528890609741 0.974932789802551
vt 0.64745420217514 0.294840574264526
vt 0.647454142570496 0.936398386955261
vt 0.647454142570496 0.199135690927505
vt 0.745557367801666 0.199135690927505
vt 0.690166354179382 0.966887533664703
vt 0.0582372397184372 0.945281326770782
vt 0.0635166093707085 0.945281326770782
vt 0.0635166093707085 0.946652173995972
vt 0.0582372397184372 0.946652173995972
vt 0.0647955760359764 0.945281326770782
vt 0.0700749233365059 0.945281326770782
vt 0.0700749233365059 0.946694254875183
vt 0.0647955760359764 0.946694254875183
vt 0.0516789220273495 0.945281326770782
vt 0.0569582805037498 0.945281326770782
vt 0.0569582805037498 0.946534276008606
vt 0.0516789220273495 0.946534276008606
vt 0.071353904902935 0.945281326770782
vt 0.0766333043575287 0.945281326770782
vt 0.0766333043575287 0.946664988994598
vt 0.071353904902935 0.946664988994598
vt 0.236642450094223 0.709788084030151
vt 0.236642450094223 0.211981996893883
vt 0.759897589683533 0.211981996893883
vt 0.759897589683533 0.709788084030151
vt 0.236199498176575 0.706745266914368
vt 0.236199498176575 0.208937883377075
vt 0.759454429149628 0.208937883377075
vt 0.759454429149628 0.706745266914368
vt 0.110703870654106 0.945718586444855
vt 0.115983158349991 0.945718586444855
vt 0.115983158349991 0.946182727813721
vt 0.110703870654106 0.946182727813721
vt 0.868063271045685 0.304266780614853
vt 0.868063271045685 0.61750316619873
vt 0.049386914819479 0.949043691158295
vt 0.049386914819479 0.951289296150208
vt 0.0482956282794476 0.951289296150208
vt 0.0482956282794476 0.949043691158295
vt 0.867618680000305 0.301224380731583
vt 0.867618680000305 0.614460468292236
vt 0.123820453882217 0.945712268352509
vt 0.12909984588623 0.945712268352509
vt 0.12909984588623 0.94612318277359
vt 0.123820453882217 0.94612318277359
vt 0.657990157604218 0.80088996887207
vt 0.338549822568893 0.80088996887207
vt 0.110703870654106 0.945281326770782
vt 0.115983158349991 0.945281326770782
vt 0.338106215000153 0.117835819721222
vt 0.657546937465668 0.117835819721222
vt 0.117262154817581 0.945777595043182
vt 0.122541457414627 0.945777595043182
vt 0.122541457414627 0.946150124073029
vt 0.117262154817581 0.946150124073029
vt 0.149834483861923 0.614263117313385
vt 0.149834483861923 0.30750647187233
vt 0.123820453882217 0.945281326770782
vt 0.12909984588623 0.945281326770782
vt 0.149390697479248 0.61122065782547
vt 0.149390697479248 0.304464489221573
vt 0.0505537427961826 0.949043691158295
vt 0.0505537427961826 0.951289296150208
vt 0.352293342351913 0.116383835673332
vt 0.644248127937317 0.116383835673332
vt 0.117262154817581 0.945281326770782
vt 0.122541457414627 0.945281326770782
vt 0.643805146217346 0.802343428134918
vt 0.351851314306259 0.802343428134918
vt 0.115983158349991 0.947154760360718
vt 0.110703870654106 0.947154760360718
vt 1.00283980369568 1.04539227485657
vt 1.00283968448639 0.977972507476807
vt 0.958075404167175 0.977972507476807
vt 0.958075523376465 1.04539275169373
vt 0.0460104718804359 0.951289296150208
vt 0.0460104718804359 0.949043691158295
vt 1.01241636276245 0.995491981506348
vt 1.01241636276245 1.06291103363037
vt 0.967651724815369 1.06291115283966
vt 0.967651903629303 0.995491981506348
vt 0.115983158349991 0.967753231525421
vt 0.110703870654106 0.967753231525421
vt 0.00941586494445801 0.977973699569702
vt 0.00941598415374756 1.04539275169373
vt 0.0831915885210037 0.965879738330841
vt 0.0779122561216354 0.965879738330841
vt 0.0779122561216354 0.945281326770782
vt 0.0831915885210037 0.945281326770782
vt 0.0189924836158752 1.06291115283966
vt 0.0189918279647827 0.995491862297058
vt 0.0374355837702751 0.951628029346466
vt 0.0321562252938747 0.951628029346466
vt 0.0321562252938747 0.948633968830109
vt 0.0374355837702751 0.948633968830109
vt 0.0189916491508484 -0.0106509923934937
vt 0.967651903629303 -0.0106511116027832
vt 0.0700749233365059 0.949688315391541
vt 0.0647955760359764 0.949688315391541
vt 0.958075881004333 -0.0281718373298645
vt 0.00941598415374756 -0.0281708240509033
vt 0.12909984588623 0.947155475616455
vt 0.123820453882217 0.947155475616455
vt 1.02628290653229 1.0475662946701
vt 1.02628302574158 0.983905911445618
vt 0.978739976882935 0.983906030654907
vt 0.978739857673645 1.0475662946701
vt 0.0545317120850086 0.949837923049927
vt 0.0545317120850086 0.952083587646484
vt 0.0521047003567219 0.952083587646484
vt 0.0521047003567219 0.949837923049927
vt 1.0144327878952 0.992526471614838
vt 1.0144327878952 1.05618691444397
vt 0.966889977455139 1.05618643760681
vt 0.966889977455139 0.992526412010193
vt 0.12909984588623 0.968145847320557
vt 0.123820453882217 0.968145847320557
vt 0.0120297074317932 0.98390531539917
vt 0.0120295435190201 1.04756605625153
vt 0.10286657512188 0.966271698474884
vt 0.0975872576236725 0.966271698474884
vt 0.0975872576236725 0.945281326770782
vt 0.10286657512188 0.945281326770782
vt 0.000179767608642578 1.05618786811829
vt 0.000179767608642578 0.992526173591614
vt 0.0438415631651878 0.948279976844788
vt 0.0385622344911098 0.948279976844788
vt 0.0385622344911098 0.945281326770782
vt 0.0438415631651878 0.945281326770782
vt 0.000179767608642578 -0.0140223503112793
vt 0.966889917850494 -0.0140215158462524
vt 0.0635166093707085 0.949650883674622
vt 0.0582372397184372 0.949650883674622
vt 0.978739976882935 -0.0226426422595978
vt 0.0120297074317932 -0.0226425230503082
vt 0.122541457414627 0.947084069252014
vt 0.117262154817581 0.947084069252014
vt 1.02401971817017 1.09115719795227
vt 1.02401971817017 1.02634823322296
vt 0.98100471496582 1.02634799480438
vt 0.98100471496582 1.09115707874298
vt 0.0583633407950401 0.950004756450653
vt 0.0583633407950401 0.952250361442566
vt 0.0561674833297729 0.952250361442566
vt 0.0561674833297729 0.950004756450653
vt 1.01424765586853 1.00256395339966
vt 1.01424753665924 1.06737220287323
vt 0.971232354640961 1.06737232208252
vt 0.971232295036316 1.0025634765625
vt 0.122541457414627 0.968033790588379
vt 0.117262154817581 0.968033790588379
vt 0.0161694493144751 1.02634763717651
vt 0.0161694493144751 1.09115552902222
vt 0.0897499322891235 0.966230988502502
vt 0.0844705998897552 0.966230988502502
vt 0.0844705998897552 0.945281326770782
vt 0.0897499322891235 0.945281326770782
vt 0.00639653205871582 1.06737232208252
vt 0.00639653205871582 1.00256276130676
vt 0.0503999479115009 0.948689758777618
vt 0.0451206117868423 0.948689758777618
vt 0.0451206117868423 0.945281386375427
vt 0.0503999479115009 0.945281386375427
vt 0.00639605522155762 -0.0405875444412231
vt 0.971232235431671 -0.0405876636505127
vt 0.0766333043575287 0.950073480606079
vt 0.071353904902935 0.950073480606079
vt 0.98100483417511 -0.0168037414550781
vt 0.0161693599075079 -0.0168047249317169
vt 0.10414557158947 0.945281326770782
vt 0.109424889087677 0.945281326770782
vt 0.109424889087677 0.946362018585205
vt 0.10414557158947 0.946362018585205
vt 1.01750004291534 1.06931018829346
vt 1.01749992370605 1.01618361473083
vt 0.96772712469101 1.01618373394012
vt 0.967727065086365 1.06931018829346
vt 0.0623648688197136 0.950004756450653
vt 0.0623648688197136 0.952250361442566
vt 0.059824027121067 0.952250361442566
vt 0.059824027121067 0.950004756450653
vt 1.0173237323761 0.988284111022949
vt 1.01732397079468 1.04140973091125
vt 0.967550754547119 1.04140973091125
vt 0.967550456523895 0.988284111022949
vt 0.109424889087677 0.967340350151062
vt 0.10414557158947 0.967340350151062
vt 0.0015728622674942 1.01618361473083
vt 0.00157299637794495 1.06931006908417
vt 0.096308246254921 0.966259658336639
vt 0.0910288989543915 0.966259658336639
vt 0.0910288989543915 0.945281326770782
vt 0.096308246254921 0.945281326770782
vt 0.0013960599899292 1.04140996932983
vt 0.00139600038528442 0.988284230232239
vt 0.044383030384779 0.951993465423584
vt 0.0391036868095398 0.951993465423584
vt 0.0391036868095398 0.949043691158295
vt 0.044383030384779 0.949043691158295
vt 0.0013960599899292 -0.0139088034629822
vt 0.967550694942474 -0.0139086842536926
vt 0.0569582805037498 0.949484050273895
vt 0.0516789220273495 0.949484050273895
vt 0.967727184295654 0.0139900594949722
vt 0.00157296657562256 0.0139905149117112
vn 0.00747160764933923 -0.975872070186078 0.218215209620854
vn 0.217774330643416 -0.784584725532592 0.580518000904158
vn -0.0540724946863846 -0.737689750444314 0.672971022710337
vn 0.539722314190562 -0.177835851406934 0.82284520629287
vn 0.145604862077741 -0.358547337943016 0.922086238154165
vn 0.547521611402478 0.200944007842695 0.81230634046482
vn 0.460707450520147 0.238395740780085 0.854936322665695
vn 0.581528151166748 0.56082531813271 0.589321620120905
vn -0.0548869648310883 0.757064268761882 0.651030808837545
vn 0.00747163910542435 0.975872067233338 0.218215221748644
vn 0 0 -1
vn 0.00613641291633936 -0.00859540579908308 -0.999944230162697
vn 0.961202617005845 0.149327502121288 0.23192849365986
vn 0.85229110089862 0.125188790609528 0.507865775608813
vn 0.977688624272647 0.0739876242725014 0.196598030057194
vn 0.97794745938679 -0.0718480354378885 0.196103611600192
vn 0.847742305233697 -0.110408092343426 0.518789973941423
vn 0.962601169516129 -0.141359219003657 0.231120227692984
vn 0.818883390307617 -0.228306128776486 0.52659880805163
vn -0.767401719751437 0.284700149852503 0.574491449193545
vn -0.589903205920735 0.278068104000681 0.758084650406474
vn -0.875709486483135 -0.202099557898557 0.438507313485935
vn -0.611937540105196 0.00736697523823932 0.790871781444907
vn 0 -1 0
vn -1.50831591350666e-10 0.999999999999999 4.30237452529965e-08
vn -0.963434063556546 0.243421456001876 0.111985713092551
vn -0.991766764861857 0.122341237992505 0.037832599724406
vn -0.992463057895764 -0.116828602420837 0.0369885978185765
vn -0.999310204590458 -0.00130347813109642 -0.0371135547494341
vn -0.966874172543815 -0.230147527581206 0.110392255235459
vn 0 0 1
vn 0 1 0
vn 1 0 -2.34649772037472e-08
vn 1 0 9.34075923878741e-09
vn -1 -0 -1.17324886018736e-08
vn -1 -0 -2.80222797577593e-08
vn 0 -0.736660812612071 0.67626240998722
vn 0 -0.933935965398141 0.357440362208639
vn 1 0 1.40111388581811e-08
vn 0 0.749694130758619 0.661784489321168
vn 0 0.933935965398141 0.357440362208639
vn -0.999999999999999 -0 -4.20334186159403e-08
vn 0 -0.692310188826574 -0.721600029411663
vn 0 -0.397000860444901 -0.917818237346594
vn 1 0 0
vn 0 -0.397000860444919 0.917818237346586
vn -1 0 0
vn 0 0.706235063019881 -0.707977426025227
vn 0 0.909399050173364 -0.415924713792994
vn 0.999999999999999 0 -3.51974658056208e-08
vn 0 -0.909399050173364 -0.415924713792994
vn -1 -0 -1.75987329028104e-08
vn 0 0.414803978419175 0.909910797544257
vn 0 0.414803978419159 -0.909910797544264
g windmillBase0
f 1/1/1 2/2/1 3/3/2 4/4/3
f 4/5/3 3/6/2 5/7/4 6/8/5
f 6/8/5 5/7/4 7/9/6 8/10/7
f 8/10/7 7/9/6 9/11/8 10/12/9
f 10/13/9 9/14/8 11/15/10 12/16/10
f 12/17/11 11/18/11 13/19/11 14/20/11
f 15/21/12 16/22/12 17/23/12 18/24/12
f 19/25/11 20/26/11 2/27/11 1/28/11
f 13/29/13 11/30/13 9/31/8 21/32/14 16/33/15
f 17/34/16 16/33/15 21/32/14 22/35/17
f 2/36/18 20/37/18 17/34/16 22/35/17 3/38/19
f 10/12/9 23/39/20 8/10/21
f 23/39/20 24/40/22 6/8/23 8/10/21
f 24/40/22 4/5/3 6/8/5
f 14/41/24 13/42/24 16/43/24 15/44/24
f 20/45/25 19/46/25 18/47/25 17/48/25
f 21/49/14 9/11/8 7/9/6
f 22/50/17 21/49/14 7/9/6 5/7/4
f 3/6/19 22/50/17 5/7/4
f 12/51/26 14/52/26 15/53/27 23/54/20 10/55/26
f 15/53/27 18/56/28 24/57/22 23/54/29
f 19/58/30 1/59/30 4/60/30 24/57/22 18/56/28
g windmillFan0
f 25/61/24 26/62/24 27/63/24 28/64/24
f 29/65/31 30/66/31 31/67/31 32/68/31
f 33/69/32 34/70/32 35/71/32 36/72/32
f 37/73/11 38/74/11 39/75/11 40/76/11
f 41/77/33 42/78/33 43/79/34 44/80/34
f 45/81/35 46/82/35 47/83/36 48/84/36
f 47/85/37 44/86/37 49/87/38 50/88/38
f 44/80/34 43/79/34 51/89/39 49/90/39
f 43/91/40 48/92/40 52/93/41 51/94/41
f 48/84/36 47/83/36 50/95/42 52/96/42
f 46/97/43 41/98/43 53/99/44 54/100/44
f 41/77/33 44/80/34 55/101/45 53/102/45
f 44/86/37 47/85/37 56/103/46 55/104/46
f 47/83/36 46/82/35 54/105/47 56/106/47
f 45/107/48 42/108/48 57/109/49 58/110/49
f 42/78/33 41/77/33 59/111/50 57/112/50
f 41/98/43 46/97/43 60/113/51 59/114/51
f 46/82/35 45/81/35 58/115/52 60/116/52
f 48/92/40 43/91/40 61/117/53 62/118/53
f 43/79/34 42/78/33 63/119/45 61/120/45
f 42/108/48 45/107/48 64/121/54 63/122/54
f 45/81/35 48/84/36 62/123/47 64/124/47
f 50/88/38 49/87/38 65/125/24 66/126/24
f 49/127/39 51/128/39 67/129/45 65/130/45
f 51/94/41 52/93/41 68/131/32 67/132/32
f 52/133/42 50/134/42 66/135/47 68/136/47
f 66/126/24 65/125/24 30/137/24 29/138/24
f 65/130/45 67/129/45 31/139/45 30/140/45
f 69/141/32 70/142/32 71/143/32 72/144/32
f 68/136/47 66/135/47 29/145/47 32/146/47
f 67/147/11 68/148/11 70/149/11 69/150/11
f 68/136/47 32/146/47 71/151/47 70/152/47
f 32/68/31 31/67/31 72/153/31 71/154/31
f 31/139/45 67/129/45 69/155/45 72/156/45
f 54/100/44 53/99/44 73/157/11 74/158/11
f 53/159/45 55/160/45 75/161/45 73/162/45
f 55/163/46 56/164/46 76/165/31 75/166/31
f 56/167/47 54/168/47 74/169/47 76/170/47
f 74/158/11 73/157/11 26/171/11 25/172/11
f 73/162/45 75/161/45 27/173/45 26/174/45
f 77/175/31 78/176/31 79/177/31 80/178/31
f 76/170/47 74/169/47 25/179/47 28/180/47
f 75/181/32 76/182/32 78/183/32 77/184/32
f 76/170/47 28/180/47 79/185/47 78/186/47
f 28/64/24 27/63/24 80/187/24 79/188/24
f 27/173/45 75/161/45 77/189/45 80/190/45
f 58/110/49 57/109/49 81/191/32 82/192/32
f 57/193/50 59/194/50 83/195/45 81/196/45
f 59/197/51 60/198/51 84/199/24 83/200/24
f 60/201/52 58/202/52 82/203/47 84/204/47
f 82/192/32 81/191/32 38/205/32 37/206/32
f 81/196/45 83/195/45 39/207/45 38/208/45
f 85/209/24 86/210/24 87/211/24 88/212/24
f 84/204/47 82/203/47 37/213/47 40/214/47
f 83/215/31 84/216/31 86/217/31 85/218/31
f 84/204/47 40/214/47 87/219/47 86/220/47
f 40/76/11 39/75/11 88/221/11 87/222/11
f 39/207/45 83/195/45 85/223/45 88/224/45
f 62/225/53 61/226/53 89/227/31 90/228/31
f 61/229/45 63/230/45 91/231/45 89/232/45
f 63/233/54 64/234/54 92/235/11 91/236/11
f 64/237/47 62/238/47 90/239/47 92/240/47
f 90/228/31 89/227/31 34/241/31 33/242/31
f 89/232/45 91/231/45 35/243/45 34/244/45
f 93/245/11 94/246/11 95/247/11 96/248/11
f 92/240/47 90/239/47 33/249/47 36/250/47
f 91/251/24 92/252/24 94/253/24 93/254/24
f 92/240/47 36/250/47 95/255/47 94/256/47
f 36/72/32 35/71/32 96/257/32 95/258/32
f 35/243/45 91/231/45 93/259/45 96/260/45
