v 0.0366700720286432 -0.0485076405244862 0.01313709055032
v 0.0417658506728846 -0.0901652680920178 0.0614461310579395
v -0.0447525752810981 -0.0578720112798095 0.0177566147851819
v -0.0428560446566484 -0.0912157725787225 0.0626615026178635
v 0.0963128927185779 -0.0276605073079037 0.084758555795264
v -0.0895292114397985 -0.0248134859747148 0.097252189956625
v -0.0223648027954452 -0.0652089597671989 0.141887652279511
v 0.0271900490982326 -0.0656207637211156 0.137368399952966
v 0.039890588424963 -0.0864685285748459 -0.0657561257129579
v -0.04033842894036 -0.0885397352258677 -0.0700696872601046
v 0.0247027773869632 -0.0598662872639854 -0.131753298241322
v -0.020060932698838 -0.0599044670895954 -0.136108473529966
v 0.0921119776923513 -0.0286902166570578 -0.0880915036038777
v 0.0534404802510119 -0.0266761643680062 -0.140861200848277
v 0.0747243485112828 0.0518356408346982 -0.109883180753453
v 0.0441157207714291 0.0165086699126587 -0.146645761224541
v 0.00139696626212653 0.0918037544085285 -0.115948461797919
v 0.00202333911510277 0.0451670974258363 -0.148183091731835
v -0.0719464904680027 0.0578439141821674 -0.115948461797919
v -0.0379692616425161 0.023032799167583 -0.147634916731066
v -0.0894081717713924 -0.0275679343328701 -0.100355198377074
v -0.0473420451006551 -0.0258386076435329 -0.145259804613008
v 0.0380494072055566 -0.0536701615088255 -0.00736641445810713
v -0.0434301734909298 -0.0627708638434022 -0.00934938746174489
v 0.105690424210756 0.0066986107059664 -0.014030761293226
v 0.0908908177548506 0.0752384972384595 -0.0318824149805104
v 0.00174195747675858 0.114477478613065 -0.0376881733341167
v -0.0870504717188557 0.0727057222306259 -0.0376881733341167
v -0.108367932124401 -0.00695461050419044 -0.0233854834488996
v -0.0447525713700322 -0.0566465413476538 0.0177566147851819
v 0.0366700759397091 -0.0472821784144624 0.01313709055032
v 0.104686852515213 0.0113463523037477 0.0266513564768113
v 0.0907508719937382 0.0758865921516118 0.0376881733341167
v 0.00174195747675858 0.114477478613065 0.0376881733341167
v -0.0897157223518752 0.072130224523269 0.0376881733341167
v -0.108844135689923 -0.00474923669196802 0.0354786088147501
v 0.0417658506728846 -0.088939805981994 0.0614461310579395
v -0.0428560446566484 -0.0899903104686987 0.0626615026178635
v 0.0963128927185779 -0.0264350451978799 0.084758555795264
v 0.0782090613222498 0.057407736465374 0.105599969077924
v 0.00170254370984756 0.0966020378227935 0.105599969077924
v -0.075434089645626 0.0608859803732925 0.105599969077924
v -0.0895292114397985 -0.0235880219091581 0.097252189956625
v -0.0223648008399122 -0.0639834898350433 0.141887652279511
v 0.0271900471426996 -0.064395289877894 0.137368399952966
v 0.058668179149077 -0.0264631950949121 0.145512177875349
v 0.0480426265185899 0.0227458892375465 0.152596338527409
v 0.00185738769885436 0.0529259247729785 0.152596338527409
v -0.0424485428752549 0.0290288035012293 0.152596338527409
v -0.0527781138582805 -0.0250867189071936 0.151750859938894
v 0.00372551347366155 -0.0172536614842302 -0.160170790404472
v 0.00337624770840948 -0.0156361365255721 0.165919744436509
vt 0.679067134857178 0.115068525075912
vt 0.706487059593201 0.403932064771652
vt 0.240939080715179 0.14269095659256
vt 0.251144111156464 0.411199331283569
vt 0.999999761581421 0.543328404426575
vt -2.98023223876953e-08 0.618034064769745
vt 0.361405670642853 0.884931445121765
vt 0.628055930137634 0.857908666133881
vt 0.97330242395401 0.293673992156982
vt 0.906360626220703 0.280705988407135
vt 0.838730156421661 0.0952649936079979
vt 0.794223129749298 0.0821719020605087
vt 0.761894106864929 0.226526573300362
vt 0.713980972766876 0.0678836405277252
vt 0.37227275967598 0.161013707518578
vt 0.505032777786255 0.0504933707416058
vt 0.114307202398777 0.142779484391212
vt 0.330530107021332 0.0458716526627541
vt 0.198088765144348 0.142779484391212
vt 0.392934262752533 0.0475196242332458
vt 0.575510799884796 0.189657896757126
vt 0.609507024288177 0.0546600148081779
vt 0.819840252399445 0.469212502241135
vt 0.784146845340729 0.463251054286957
vt 0.611848413944244 0.449177294969559
vt 0.280220717191696 0.395509421825409
vt 0.0098327100276947 0.378055423498154
vt 0.114306911826134 0.378055423498154
vt 0.461291164159775 0.421053946018219
vt 0.754514515399933 0.544740617275238
vt 0.788932263851166 0.530852735042572
vt 0.589360475540161 0.571481049060822
vt 0.277084946632385 0.604661226272583
vt 0.0098327100276947 0.604661226272583
vt 0.114306911826134 0.604661226272583
vt 0.45062056183815 0.598018646240234
vt 0.98659884929657 0.676085531711578
vt 0.910553395748138 0.67973929643631
vt 0.755662024021149 0.746170282363892
vt 0.349991858005524 0.808826267719269
vt 0.0924301370978355 0.808826267719269
vt 0.18054424226284 0.808826267719269
vt 0.556991100311279 0.783730208873749
vt 0.810780346393585 0.917918920516968
vt 0.862150251865387 0.904332518577576
vt 0.718214869499207 0.928815484046936
vt 0.4801185131073 0.950112760066986
vt 0.29449599981308 0.950112760066986
vt 0.360743969678879 0.950112760066986
vt 0.600604772567749 0.94757091999054
vt 0.620795607566833 0.0098327100276947
vt 0.612969279289246 0.990167260169983
vn 0.428387172219777 -0.661469625876746 -0.615582947067267
vn 0.199113082262335 -0.942773502973906 -0.267454860793933
vn 0.0254874750343982 -0.779117048533723 -0.626360130676012
vn -0.342948221172011 -0.908111586143913 -0.2402495883579
vn 0.765081822896813 -0.63947984044341 -0.0755998540961593
vn -0.847318405070364 -0.442893740481758 -0.293081311364426
vn -0.80506048753235 -0.591196225636912 0.0486275046331162
vn -0.217755312419862 -0.908681382376244 0.356203269546655
vn 0.350584056035231 -0.869335258486057 0.348349003166172
vn 0.639712378046426 -0.686897142261422 0.344877354036589
vn -0.649656129127993 -0.656409334887913 0.383501889119781
vn 0.207274976927007 -0.97798842589594 0.0239942233358624
vn -0.132457797802429 -0.962548389983534 -0.236549209978468
vn 0.287551040894132 -0.745470252881471 -0.601322293740667
vn -0.261167470780073 -0.679802882666679 -0.68531714769471
vn 0.849608050724695 -0.477230573333197 -0.224537613819715
vn 0.597509232436955 -0.232031641024764 -0.767557186609542
vn 0.71332873493515 0.436514816727468 -0.548285446362753
vn 0.426406893192182 0.186258730450218 -0.885146793910063
vn -0.0548103449779154 0.845920548927095 -0.530484920602164
vn 0.0422550294072149 0.429422974236586 -0.902114417181989
vn -0.593521686489434 0.476414243086359 -0.648661295786321
vn -0.440010901552761 0.16615363933822 -0.88248703936624
vn -0.824210532832146 -0.152250127622917 -0.545432760482313
vn -0.482913475699588 -0.241947404861623 -0.841579484225031
vn 0.48073652628148 -0.806928677039714 0.34315958746588
vn -0.28922379112939 -0.914608441542248 0.282561492961096
vn 0.653616855285818 -0.730826945385422 0.196664644470965
vn 0.759645159040763 -0.556488228221362 0.336541355849447
vn 0.976333452042718 0.178320692711451 -0.122371242427537
vn 0.711385065461613 0.690014377847537 -0.133459533199588
vn 0.0984338861588368 0.977570338935703 -0.186190769075173
vn -0.725125075783701 0.668296586578657 -0.166052090733593
vn -0.96589525034378 0.233407049095342 -0.112104927616634
vn -0.648893803624345 -0.757988430217677 0.0662598768039276
vn -0.740745442665756 -0.661260680032962 0.118450420903673
vn -0.809082088825168 -0.554681497281087 0.194202497708744
vn -0.336160086094435 -0.925563650631014 -0.174150294709976
vn 0.418244391403835 -0.908109956140849 -0.0201974408552306
vn 0.9421453368416 -0.329154795547981 0.0633978298949966
vn 0.778265005176304 0.611374274795944 0.143265759467017
vn 0.977472516058202 0.211062740318582 2.4360674145837e-07
vn -0.0123686103422499 0.996473238336144 0.0829945947521924
vn -0.766056887470029 0.631533843134741 0.119673932563426
vn -0.961999852483614 0.200329685054157 0.185537869739868
vn -0.630338170914407 -0.77629507079178 -0.00630502598457512
vn 0.199113096284723 -0.942773509924823 -0.267454825852779
vn -0.342948238457085 -0.908111564728663 -0.240249644630833
vn 0.737330421948742 -0.67522235495775 -0.0204602110008637
vn 0.741438627213599 -0.46751296801419 -0.481352663661662
vn 0.916924735354633 0.102091641495171 0.385780152977908
vn 0.755032675919109 0.412043689124677 0.510044759356428
vn 0.00617862242856985 0.905256463065457 0.424820621795959
vn -0.70231705575777 0.495264170089389 0.511335657877882
vn -0.887928891670688 -0.260245741648864 0.379281475015715
vn -0.634995015806578 -0.771640289805797 -0.0367776161439166
vn -0.847318457055625 -0.442893662662977 -0.293081278668304
vn -0.255927785179386 -0.75448776208149 0.604358490998877
vn 0.362408368945022 -0.693301008040459 0.622891552654788
vn 0.639712125747219 -0.686897306170883 0.34487749556496
vn 0.640398567804202 -0.210029735282485 0.738767341354161
vn 0.449609393194486 0.222206270365096 0.865144939857895
vn 0.0181942339676136 0.546061373197915 0.837547578679289
vn -0.505735859816708 0.237535493636336 0.829341985768475
vn -0.536962864039903 -0.228606509024264 0.812040606542434
vn -0.649655955814713 -0.656409400050376 0.383502071180817
vn 0.0394384210486093 -0.159061563130665 -0.986480628334699
vn 0.0400382731489191 -0.134538668713975 0.99009912801897
g Jellybeanhilight Jellybean_all
f 1/1/1 2/2/2 3/3/3
f 3/3/3 2/2/2 4/4/4
f 1/1/1 5/5/5 2/2/2
f 3/3/6 4/4/4 6/6/7
f 4/4/4 2/2/2 7/7/8
f 2/2/2 8/8/9 7/7/8
f 2/2/10 5/5/5 8/8/9
f 4/4/11 7/7/8 6/6/7
g jellybean Jellybean_all
f 9/9/12 10/10/13 11/11/14
f 12/12/15 11/11/14 10/10/13
f 9/9/12 11/11/14 13/13/16
f 11/11/14 14/14/17 13/13/16
f 13/13/16 14/14/17 15/15/18
f 14/14/17 16/16/19 15/15/18
f 17/17/20 15/15/18 18/18/21
f 16/16/19 18/18/21 15/15/18
f 17/17/20 18/18/21 19/19/22
f 18/18/21 20/20/23 19/19/22
f 19/19/22 20/20/23 21/21/24
f 20/20/23 22/22/25 21/21/24
f 10/10/13 21/21/24 12/12/15
f 22/22/25 12/12/15 21/21/24
f 23/23/26 24/24/27 9/9/12
f 10/10/13 9/9/12 24/24/27
f 25/25/28 23/23/26 13/13/16
f 9/9/29 13/13/16 23/23/26
f 13/13/16 15/15/18 25/25/30
f 15/15/18 26/26/31 25/25/30
f 26/26/31 15/15/18 27/27/32
f 15/15/18 17/17/20 27/27/32
f 27/27/32 17/17/20 28/28/33
f 17/17/20 19/19/22 28/28/33
f 19/19/22 21/21/24 28/28/33
f 21/21/24 29/29/34 28/28/33
f 29/29/35 21/21/36 24/24/27
f 21/21/36 10/10/37 24/24/27
f 30/30/38 24/24/27 31/31/39
f 24/24/27 23/23/26 31/31/39
f 32/32/40 31/31/39 25/25/28
f 23/23/26 25/25/28 31/31/39
f 26/26/31 33/33/41 25/25/30
f 25/25/30 33/33/41 32/32/42
f 27/27/32 34/34/43 26/26/31
f 26/26/31 34/34/43 33/33/41
f 35/35/44 34/34/43 28/28/33
f 27/27/32 28/28/33 34/34/43
f 28/28/33 29/29/34 35/35/44
f 29/29/34 36/36/45 35/35/44
f 36/36/46 29/29/35 30/30/38
f 29/29/35 24/24/27 30/30/38
f 31/31/39 37/37/47 30/30/38
f 30/30/38 37/37/47 38/38/48
f 32/32/40 39/39/49 31/31/39
f 31/31/50 39/39/49 37/37/47
f 39/39/51 32/32/40 40/40/52
f 32/32/40 33/33/41 40/40/52
f 34/34/43 41/41/53 33/33/41
f 33/33/41 41/41/53 40/40/52
f 34/34/43 35/35/44 41/41/53
f 35/35/44 42/42/54 41/41/53
f 43/43/55 42/42/54 36/36/45
f 35/35/44 36/36/45 42/42/54
f 36/36/46 30/30/38 43/43/56
f 30/30/57 38/38/48 43/43/55
f 38/38/48 37/37/47 44/44/58
f 37/37/47 45/45/59 44/44/58
f 37/37/60 39/39/49 45/45/59
f 39/39/49 46/46/61 45/45/59
f 39/39/51 40/40/52 46/46/61
f 40/40/52 47/47/62 46/46/61
f 41/41/53 48/48/63 40/40/52
f 40/40/52 48/48/63 47/47/62
f 41/41/53 42/42/54 48/48/63
f 42/42/54 49/49/64 48/48/63
f 42/42/54 43/43/55 49/49/64
f 43/43/55 50/50/65 49/49/64
f 38/38/66 44/44/58 43/43/55
f 43/43/55 44/44/58 50/50/65
f 11/11/14 12/12/15 51/51/67
f 14/14/17 11/11/14 51/51/67
f 16/16/19 14/14/17 51/51/67
f 18/18/21 16/16/19 51/51/67
f 20/20/23 18/18/21 51/51/67
f 22/22/25 20/20/23 51/51/67
f 12/12/15 22/22/25 51/51/67
f 44/44/58 45/45/59 52/52/68
f 45/45/59 46/46/61 52/52/68
f 46/46/61 47/47/62 52/52/68
f 47/47/62 48/48/63 52/52/68
f 48/48/63 49/49/64 52/52/68
f 49/49/64 50/50/65 52/52/68
f 50/50/65 44/44/58 52/52/68
