v 0.0127492614305551 -0.00137920427842559 -0.00117221999708123
v 0.0118315014548189 1.22220810316992e-10 0.000283727339246455
v 0.0112072523106427 0.00432107910474767 0.00480404347572427
v 0.0116623625198374 0.00228333748935714 0.00678391598184591
v 0.0109137434346156 -0.00137920427842559 -0.00117221999708123
v 0.00805197151627128 0.000794311701821217 0.00538113005361532
v 0.0044166953779581 0.0126175523742916 0.00678392380397777
v 0.0044166953779581 0.0119613165774058 0.00580910870956937
v -3.44169574729478e-11 0.0126523149060452 0.00580910870956937
v -1.54692440688435e-11 0.0133084822592773 0.00678392331509452
v 0.0112072454662774 0.0056334206555772 0.0067839218484448
v 0.0100203073556655 0.00790872530439707 0.00678392380397777
v 0.0100203073556655 0.00725225973238782 0.0054810235663036
v 0.00792327349189072 0.0101245040186434 0.00580910870956937
v 0.00792327349189072 0.0107758529386495 0.00678392380397777
v -1.01864902121434e-11 0.00497725281346188 0.00796403026017617
v -7.94023420941851e-11 0.00790871552673225 0.00785737060342874
v -3.812931306357e-12 0.0101234851859686 0.00580910870956937
v 2.41232977746289e-11 0.00725223724375872 0.00548102405518684
v -1.85010580783721e-11 0.0107758529386495 0.00747510986378187
v -2.98886917694498e-11 0.00432107812698119 0.00482485670195477
v 6.01511914060326e-11 0.00108201875598255 0.00607475612967659
v -4.26681291640195e-11 0.00162717001390426 0.00744008431284446
v 0.0109137434346156 -0.00137920464508803 -0.00276478771071421
v 0.0109137434346156 -3.66662430950976e-10 -0.00356107193419314
v 0.0118315014548189 -4.88883241267968e-10 -0.0042207350470419
v 0.0118315014548189 -0.00195048988999657 -0.00309461914491779
v 0.0109137434346156 0.00137920427842559 -0.00276478819959746
v 0.0118315014548189 0.00195048952333414 -0.00309461987824265
v 0.0109137434346156 0.00137920427842559 -0.00117222011930204
v 0.0118315014548189 0.00195048952333414 -0.000842388501767255
v 0.0109137434346156 1.22220810316992e-10 -0.000375935956933523
v 0.0118315014548189 -0.00195048940111333 -0.000842388379546444
v 0.0127492594750222 -3.66662430950976e-10 -0.00356107193419314
v 0.0127492594750222 -0.00137920464508803 -0.00276478771071421
v 0.0127492594750222 0.00137920427842559 -0.00276478819959746
v 0.0127492594750222 0.00137920427842559 -0.00117222011930204
v 0.0127492594750222 1.22220810316992e-10 -0.000375935956933523
v -0.0127492614305551 -0.00137920427842559 -0.00117222005819164
v -0.0116623625198374 0.00228333748935714 0.00678391598184591
v -0.0112072523106427 0.00432107910474767 0.00480404347572427
v -0.0118315014548189 1.22220810316992e-10 0.000283727339246455
v -0.00805197249403776 0.000794311701821217 0.00538113005361532
v -0.0109137434346156 -0.00137920427842559 -0.00117222005819164
v -0.0044166953779581 0.0126175523742916 0.00678392380397777
v -0.0044166953779581 0.0119613165774058 0.00580910870956937
v -0.0112072454662774 0.0056334206555772 0.0067839218484448
v -0.0100203073556655 0.00790872530439707 0.00678392380397777
v -0.00792327349189072 0.0107758529386495 0.00678392380397777
v -0.00792327349189072 0.0101245040186434 0.00580910870956937
v -0.0100203073556655 0.00725225973238782 0.0054810235663036
v -0.0109137434346156 -0.00137920464508803 -0.00276478746627259
v -0.0118315014548189 -0.00195048988999657 -0.00309461914491779
v -0.0118315014548189 -3.66662430950976e-10 -0.0042207350470419
v -0.0109137434346156 -3.66662430950976e-10 -0.00356107193419314
v -0.0118315014548189 0.00195048952333414 -0.00309461987824265
v -0.0109137434346156 0.00137920427842559 -0.00276478819959746
v -0.0118315014548189 0.00195048952333414 -0.000842388501767255
v -0.0109137434346156 0.00137920427842559 -0.00117222011930204
v -0.0109137424568492 1.22220810316992e-10 -0.000375935956933523
v -0.0118315014548189 -0.00195048940111333 -0.000842388379546444
v -0.0127492594750222 -0.00137920464508803 -0.00276478746627259
v -0.0127492594750222 -2.44441620633984e-10 -0.00356107193419314
v -0.0127492594750222 0.00137920427842559 -0.00276478819959746
v -0.0127492594750222 0.00137920427842559 -0.00117222011930204
v -0.0127492594750222 1.22220810316992e-10 -0.000375935956933523
vt 0.0374393202364445 0.250190675258636
vt 0.127825781702995 0.369679838418961
vt 0.41100862622261 0.740660786628723
vt 0.277464777231216 0.903148293495178
vt 0.0374393239617348 0.250190675258636
vt 0.179881170392036 0.788022100925446
vt 0.646624386310577 0.832151174545288
vt 0.657355785369873 0.927170634269714
vt 0.495598912239075 0.98602294921875
vt 0.494512915611267 0.880025386810303
vt 0.89616584777832 0.116098046302795
vt 0.989714324474335 0.148675203323364
vt 0.880491554737091 0.348223924636841
vt 0.839613318443298 0.505878686904907
vt 0.941156685352325 0.557131350040436
vt 0.834950149059296 0.740010261535645
vt 0.767391264438629 0.704540729522705
vt 0.494512915611267 0.30275821685791
vt 0.494512915611267 0.50587797164917
vt 0.293379813432693 0.378081142902374
vt 0.405788660049438 0.378117322921753
vt 0.435539662837982 0.276102095842361
vt 0.293379813432693 0.276101320981979
vt 0.494512915611267 0.704540729522705
vt 0.293379813432693 0.467899143695831
vt 0.356040269136429 0.443356484174728
vt 0.452379047870636 0.171993523836136
vt 0.293379813432693 0.171993508934975
vt 0.293379813432693 0.0569498091936111
vt 0.494512915611267 0.0706324577331543
vt 0.771823585033417 0.0187023878097534
vt 0.407614499330521 0.0467311628162861
vt 0.494512915611267 0.032859206199646
vt 0.037439301609993 0.119489140808582
vt 0.127825751900673 0.0541383326053619
vt 0.127825736999512 -2.73911595627396e-08
vt -1.97200655804863e-09 0.0924199670553207
vt 0.218212217092514 0.119489103555679
vt 0.255651533603668 0.092419907450676
vt 0.218212217092514 0.250190675258636
vt 0.255651533603668 0.277259856462479
vt 0.127825781702995 0.315541476011276
vt 3.00670635056122e-08 0.277259856462479
vt 0.0374392978847027 0.119489140808582
vn 0.992045851347042 0.121098231398326 -0.034354725691232
vn 0.822731365191385 0.441587279747055 0.357929846612317
vn 0.938556013307577 0.31039475104938 -0.150889722662548
vn 0.964158300325493 0.247435193898211 -0.095784115248884
vn -0.599326988542718 0.593754590112081 -0.536900966217375
vn -0.955705458636209 0.218308241079957 -0.197404630668908
vn -0.392358497507894 0.291211942704365 -0.87249665550058
vn -0.255211104551284 0.271253776209867 -0.928056399690019
vn 0.266675819375265 0.799956328577217 -0.537544304899411
vn 0.198881586363648 0.596591666252291 -0.77751173519362
vn 1.69512345160965e-08 0.467919323471366 -0.883771184595933
vn -8.10674299155585e-10 0.829557710435487 -0.558420992672225
vn 0.942001884754045 0.28590127724333 -0.175763786914311
vn 0.813962717417513 0.501387650675346 -0.293385613833663
vn 0.591359341155565 0.682485497190147 -0.429543566769629
vn -3.75586363610243e-09 -0.0322628953936213 0.99947941728723
vn 0.0890709677891826 -0.331291643171371 0.939314755479712
vn 0.104016832621848 0.0291033634260248 0.994149632987213
vn 0.100783863027534 0.0728774702216319 0.992235600695391
vn 0 0.0732504070660105 0.997313580507487
vn 0 0.0568444357800741 -0.998383047793203
vn -3.31241474917846e-06 0.0568444401694077 -0.998383047537795
vn -0.000482221603438495 0.167786231432708 -0.985823284368925
vn -2.91476442077506e-10 0.167786324149347 -0.985823386529479
vn 0.0915975419290267 0.132492055080772 0.986942625309614
vn -3.12118641469574e-09 0.176921846472159 0.984224903282213
vn -4.86811096041849e-10 -0.0723671472956012 -0.997378060713337
vn -0.00173256474405576 -0.360008912218555 -0.932947255391547
vn -2.78383212610993e-09 -0.224336452951499 -0.974511752559783
vn 0.0635434170172625 0.21348234319231 0.974878209469722
vn -5.93376642718001e-09 -0.684910304322825 0.728627391080253
vn -0.0784901476710944 -0.910598901327052 0.405769562215471
vn -9.26689256522124e-11 -0.928706379845521 0.370815938214942
vn -1.51177079871031e-10 0.263283846855771 0.964718412794545
vn -0.813506664067001 -0.503642046069277 -0.29077757298274
vn -0.813506581357104 -1.76801288849351e-07 -0.58155570849975
vn -0.583650385451467 -1.68522630607908e-07 -0.812005066217154
vn -0.583650441382511 -0.703217044661062 -0.406002401929055
vn -0.901164046049365 0.375403097565429 -0.216739189917787
vn -0.583650497021598 0.703216882218616 -0.406002603303441
vn -0.813506588500962 0.503642073088816 0.290777737594071
vn -0.583650481721845 0.703216975861411 0.406002463103599
vn -0.8135065813571 2.00374794029263e-07 0.581555708499748
vn -0.583650483923824 4.60973657229959e-08 0.812004995437518
vn -0.578013202449192 -0.76575002137812 0.282006458354838
vn -0.326632410429356 -0.925751976515442 0.190511276398171
vn 0.583650201213893 -0.703217164761251 -0.406002539164634
vn 0.583650385451468 -1.6852263097576e-07 -0.812005066217154
vn 0.813506359727608 -5.8933803245904e-08 -0.581556018525071
vn 0.81350635604367 -0.503642017174804 -0.290778484782909
vn 0.583650497021599 0.703216882218616 -0.40600260330344
vn 0.901163990026805 0.375403282844044 -0.216739101937981
vn 0.583650481721847 0.70321697586141 0.406002463103599
vn 0.813506370649377 0.503642145426492 0.290778221782648
vn 0.813506726429957 2.23948204655556e-07 0.581555505565174
vn 0.569536974797517 -0.795501953524331 0.206891943481292
vn 0.583649951354002 -0.703630528706847 0.405286088283566
vn 0.528459247771019 -0.424478776322796 0.735220097587648
vn 0.385649158865534 -0.803016204461033 0.454356359743431
vn -0.992045851277287 0.121098231916846 -0.0343547258777632
vn -0.964158300100691 0.24743519466623 -0.095784115527735
vn -0.938556013111334 0.310394751553641 -0.150889722845894
vn -0.822731364862427 0.441587280596188 0.357929846320855
vn 0.599327081230142 0.593754544755224 -0.536900912912872
vn 0.255211139724804 0.271253751989424 -0.928056397096656
vn 0.392358552880823 0.291211903910068 -0.872496643547893
vn 0.955705440373579 0.218308212447264 -0.197404750749375
vn -0.266675820156362 0.79995632898238 -0.537544303908957
vn -0.198881550667966 0.596591708178431 -0.777511712154001
vn -0.942001884754045 0.28590127724333 -0.175763786914311
vn -0.813962717417513 0.501387650675346 -0.293385613833663
vn -0.591359341155565 0.682485497190147 -0.429543566769629
vn -0.104016833192056 0.0291033621632555 0.99414963296452
vn -0.0890709677153481 -0.331291632213184 0.939314759351612
vn -0.100783864028725 0.0728774701625878 0.992235600598034
vn 0.000482221603692784 0.167786231424221 -0.98582328437037
vn 3.31241474168181e-06 0.0568444401694423 -0.998383047537793
vn -0.0915975426345853 0.132492056656952 0.986942625032538
vn 0.001732564753357 -0.36000891213471 -0.932947255423884
vn -0.0635434173612324 0.213482343601999 0.974878209357587
vn 0.0784901405728822 -0.910598890617726 0.405769587621616
vn 0.81350668143826 -0.503641997219183 -0.290777608994196
vn 0.583650462390537 -0.7032170438483 -0.406002373136624
vn 0.583650427218376 -1.72844474734578e-07 -0.812005036196068
vn 0.813506581357113 -9.42940207196548e-08 -0.581555708499757
vn 0.583650505547231 0.703216881888775 -0.406002591618687
vn 0.901164054780741 0.375403101202708 -0.216739147314285
vn 0.583650361637507 0.703217065311249 0.406002480799614
vn 0.813506565070444 0.503642155088871 0.290777661117091
vn 0.583650194014623 -1.0885870650838e-07 0.812005203817488
vn 0.813506609556037 2.35735113261227e-08 0.581555669053824
vn 0.57801300611107 -0.765750152466876 0.282006504824622
vn 0.326632402972709 -0.925751974099033 0.190511300924688
vn -0.58365023427901 -0.70321715496727 -0.406002508595447
vn -0.81350635604367 -0.503642017174804 -0.290778484782909
vn -0.813506331528677 -9.42940833459741e-08 -0.58155605797098
vn -0.583650427218384 -1.52935723735396e-07 -0.812005036196066
vn -0.901163972564059 0.375403275569483 -0.216739187144978
vn -0.583650493490167 0.703216890869984 -0.406002593395458
vn -0.813506370649377 0.503642145426492 0.290778221782648
vn -0.813506726429955 2.35734956756644e-07 0.581555505565172
vn -0.569536983916509 -0.795501947776847 0.206891940477459
vn -0.583649952903626 -0.703630531576111 0.405286081070539
vn -0.528459240463476 -0.424478803029559 0.735220087421011
vn -0.385649189395434 -0.803016193012187 0.454356354064581
g vertex
f 1/1/1 2/2/2 3/3/3 4/4/4
f 2/2/5 5/5/6 6/6/7 3/3/8
f 7/7/9 8/8/10 9/9/11 10/10/12
f 4/11/4 3/12/3 11/13/13
f 12/14/14 13/15/14 14/16/15 15/17/15
f 16/18/16 4/11/17 11/13/18
f 16/18/16 11/13/18 12/14/19 17/19/20
f 18/20/21 14/21/22 13/22/23 19/23/24
f 12/14/19 15/17/25 20/24/26 17/19/20
f 18/20/21 9/25/11 8/26/10 14/21/22
f 13/22/23 3/27/8 21/28/27 19/23/24
f 21/28/27 3/27/28 22/29/29
f 20/24/26 15/17/25 7/7/30
f 23/30/31 6/31/32 4/11/17
f 6/32/7 22/29/29 3/27/8
f 23/30/31 4/11/17 16/18/16
f 22/33/33 6/31/32 23/30/31
f 3/12/3 13/15/14 12/14/14 11/13/13
f 14/16/15 8/8/10 7/7/9 15/17/15
f 20/24/26 7/7/30 10/10/34
f 24/34/35 25/35/36 26/36/37 27/37/38
f 25/35/36 28/38/39 29/39/40 26/36/37
f 28/38/39 30/40/41 31/41/42 29/39/40
f 30/40/41 32/42/43 2/2/44 31/41/42
f 5/5/45 24/34/35 27/37/38 33/43/46
f 27/37/47 26/36/48 34/35/49 35/44/50
f 26/36/48 29/39/51 36/38/52 34/35/49
f 29/39/51 31/41/53 37/40/54 36/38/52
f 31/41/53 2/2/2 38/42/55 37/40/54
f 33/43/56 27/37/47 35/44/50 1/1/57
f 38/42/55 1/1/1 36/38/52 37/40/54
f 1/1/1 35/44/50 34/35/49 36/38/52
f 30/40/41 28/38/39 5/5/6 32/42/43
f 28/38/39 25/35/36 24/34/35 5/5/6
f 1/1/57 38/42/55 2/2/58
f 32/42/43 5/5/45 2/2/44
f 5/5/45 33/43/46 6/6/32
f 33/43/56 1/1/57 4/4/59
f 33/43/46 4/4/59 6/6/32
f 39/1/60 40/4/61 41/3/62 42/2/63
f 42/2/64 41/3/65 43/6/66 44/5/67
f 45/7/68 10/10/12 9/9/11 46/8/69
f 40/11/61 47/13/70 41/12/62
f 48/14/71 49/17/72 50/16/72 51/15/71
f 16/18/16 47/13/73 40/11/74
f 16/18/16 17/19/20 48/14/75 47/13/73
f 18/20/21 19/23/24 51/22/76 50/21/77
f 48/14/75 17/19/20 20/24/26 49/17/78
f 18/20/21 50/21/77 46/26/69 9/25/11
f 51/22/76 19/23/24 21/28/27 41/27/65
f 21/28/27 22/29/29 41/27/79
f 20/24/26 45/7/80 49/17/78
f 23/30/31 40/11/74 43/31/81
f 43/32/66 41/27/65 22/29/29
f 23/30/31 16/18/16 40/11/74
f 22/33/33 23/30/31 43/31/81
f 41/12/62 47/13/70 48/14/71 51/15/71
f 50/16/72 49/17/72 45/7/68 46/8/69
f 20/24/26 10/10/34 45/7/80
f 52/34/82 53/37/83 54/36/84 55/35/85
f 55/35/85 54/36/84 56/39/86 57/38/87
f 57/38/87 56/39/86 58/41/88 59/40/89
f 59/40/89 58/41/88 42/2/90 60/42/91
f 44/5/92 61/43/93 53/37/83 52/34/82
f 53/37/94 62/44/95 63/35/96 54/36/97
f 54/36/97 63/35/96 64/38/98 56/39/99
f 56/39/99 64/38/98 65/40/100 58/41/42
f 58/41/42 65/40/100 66/42/101 42/2/63
f 61/43/102 39/1/103 62/44/95 53/37/94
f 66/42/101 65/40/100 64/38/98 39/1/60
f 39/1/60 64/38/98 63/35/96 62/44/95
f 59/40/89 60/42/91 44/5/67 57/38/87
f 57/38/87 44/5/67 52/34/82 55/35/85
f 39/1/103 42/2/104 66/42/101
f 60/42/91 42/2/90 44/5/92
f 44/5/92 43/6/81 61/43/93
f 61/43/102 40/4/105 39/1/103
f 61/43/93 43/6/81 40/4/105
