v -7.70000016689301 0 4.03218761689961
v -7.70000016689301 0 -4.03218761689961
v 7.70000016689301 0 -4.03218761689961
v 7.70000016689301 0 4.03218761689961
v -7.76281660832458 0 3.67337961842218
v -7.76281660832458 0 -3.67337961842218
v 7.63718372546143 0 -3.67337961842218
v 7.63718372546143 0 3.67337961842218
v -7.70000016689301 0 3.20760042888524
v -7.70000016689301 0 -3.20760042888524
v 7.70000016689301 0 -3.20760042888524
v 7.70000016689301 0 3.20760042888524
v -7.70000016689301 0 4.00950047636034
v -7.70000016689301 0 -4.00950047636034
v 7.70000016689301 0 -4.00950047636034
v 7.70000016689301 0 4.00950047636034
vt 0.00665100384503603 0.981673359870911
vt 0.000169512117281556 0.0262336581945419
vt 0.985560715198517 0.0194091610610485
vt 0.992042243480682 0.974848866462708
vt 0 1
vt 0 0
vt 1 0
vt 1 1
vt -0.00325509672984481 0.986290276050568
vt 1.00331997871399 -0.00717594614252448
vt 1.00006484985352 0.979114353656769
vt -0.00123824609909207 0.990269303321838
vt -0.00527738081291318 -0.00750335492193699
vt 0.999796807765961 -0.00423291185870767
vt 1.00383591651917 0.993539750576019
vn 0 -1 0
g MM_sign1 g2 g1
f 1/1/1 2/2/1 3/3/1 4/4/1
g MM_sign2 g2 g1
f 5/5/1 6/6/1 7/7/1 8/8/1
g MM_sign3 g2 g1
f 9/9/1 10/6/1 11/10/1 12/11/1
g MM_sign4 g2 g1
f 13/12/1 14/13/1 15/14/1 16/15/1
