v 0.00247485163252498 -0.00210418353673667 0.00316973785402894
v 0.00247485163252498 -0.00407149541018203 0.00430556517729922
v -0.00247485163252498 -0.00407149541018203 0.00430556517729922
v -0.00247485163252498 -0.00210418353673667 0.00316973785402894
v 0.00247485163252498 -0.00407149589906527 0.00657722080160627
v -0.00247485163252498 -0.00407149589906527 0.00657722080160627
v 0.00247485163252498 -0.00210418427006153 0.00771304812487655
v -0.00247485163252498 -0.00210418427006153 0.00771304812487655
v 0.00247485163252498 -0.000136873129941034 0.00657722080160627
v -0.00247485163252498 -0.000136873129941034 0.00657722080160627
v 0.00247485163252498 -0.000136873252161844 0.00430556566618246
v -0.00247485163252498 -0.000136873252161844 0.00430556566618246
v 0.00318079072190082 -0.00210418329229505 0.00225606310887756
v 0.00318079072190082 -0.00486276026942286 0.00384872725472988
v 0.00318079072190082 -0.00486276124718934 0.00703405774640912
v 0.00318079072190082 -0.00210418451450315 0.00862672299224874
v 0.00318079072190082 0.000654392462624653 0.00703405774640912
v 0.00318079072190082 0.00065439148485817 0.00384872872137961
v -0.00318079072190082 -0.00486276026942286 0.00384872725472988
v -0.00318079072190082 -0.00210418329229505 0.00225606310887756
v -0.00318079072190082 -0.00486276124718934 0.00703405774640912
v -0.00318079072190082 -0.00210418402561991 0.00862672299224874
v -0.00318079072190082 0.000654392462624653 0.00703405774640912
v -0.00318079072190082 0.00065439148485817 0.00384872872137961
v 0.00384213583754116 -0.00210418329229505 0.00317342501143458
v 0.00384213583754116 -0.00406830251373331 0.0043074082671188
v 0.00384213583754116 -0.00406830300261655 0.0065753767340202
v 0.00384213583754116 -0.00210418451450315 0.00770936194523739
v 0.00384213583754116 -0.000140066148610566 0.00657537722290345
v 0.00384213583754116 -0.000140066026389755 0.00430740900044366
v -0.00384213583754116 -0.00406830251373331 0.0043074082671188
v -0.00384213583754116 -0.00210418378117829 0.00317342476699296
v -0.00384213583754116 -0.00406830275817493 0.0065753767340202
v -0.00384213583754116 -0.00210418427006153 0.00770936096747091
v -0.00384213583754116 -0.000140066148610566 0.00657537722290345
v -0.00384213583754116 -0.000140066026389755 0.00430740900044366
v 0.000704462661987215 -0.00147394227289309 0.00299335562494483
v 0.000704462661987215 -0.000299242254239055 0.00367156941238351
v -0.000704462661987215 -0.00147394227289309 0.00299335562494483
v -0.000704462661987215 -0.000299242254239055 0.00367156941238351
v 0.00119758647648994 -0.000970637587111766 0.00146010521496218
v 0.00119758647648994 0.0013352880190833 0.00146010619272867
v -0.00119758647648994 -0.000970637587111766 0.00146010521496218
v -0.00119758647648994 0.0013352880190833 0.00146010619272867
v 0.00167662092042094 -0.00143182278168327 0.00146010497052056
v 0.00167662092042094 0.00179647333587561 0.00146010692605353
v -0.00167662092042094 -0.00143182278168327 0.00146010497052056
v -0.00167662092042094 0.00179647333587561 0.00146010692605353
v 0.00167662092042094 -0.00143182302612489 -0.00207161017524914
v 0.00167662092042094 0.00179647406920048 -0.0020716072419497
v -0.00167662092042094 -0.00143182302612489 -0.00207161017524914
v -0.00167662092042094 0.00179647406920048 -0.0020716072419497
v 0.0111517415741297 -0.0030988040245737 0.00975422365615375
v 0.00963617223767158 -0.00530713704705551 0.00967673468464629
v 0.0117338040056504 -0.00346333370238464 0.00992427289173047
v 0.00381486104151082 -0.000140066148610566 0.00657537771178669
v 0.00381486153039407 -0.00210418427006153 0.00770936096747091
v 0.00978719804856408 -0.00227214255201535 0.0074847904950615
v 0.0100493020429386 -0.00070615725352226 0.00657171499854311
v 0.0038148607970692 -0.00406830275817493 0.00657537722290345
v 0.00381486104151082 -0.00406830275817493 0.00430740875600204
v 0.0105353810499346 -0.00381003771945248 0.00484424288778167
v 0.0100424635441597 -0.00386472786544502 0.00657781919469358
v 0.00381486104151082 -0.00210418353673667 0.00317342476699296
v 0.0107974850443092 -0.00224405229873857 0.0039311676357049
v 0.0038148607970692 -0.000140065537506514 0.00430740973376852
v 0.0105422195487135 -0.00065146716864012 0.00483813795830634
v 0.0108827482371193 -0.00381765452035143 0.00885090920243051
v 0.0114648184907718 -0.0041821868870202 0.00902096137130667
v 0.0116020069504034 -0.00157448917803333 0.00783543711102854
v 0.0107626081138771 -0.00237559269028386 0.00797365711429926
v 0.01211325366666 -0.00339977325886253 0.00699858828948865
v 0.0110376010260244 -0.00331352056637211 0.00753780108267867
v 0.0107152568386609 -0.00325729532700198 0.00922530869955779
v 0.0129526525031863 -0.00259867011327443 0.0068603692639844
v 0.012677659591039 -0.00166074223718618 0.007296225295605
v 0.0119013051817736 -0.00402369338461733 0.00954987241683671
v -0.0111852261650906 -0.0030988040245737 0.00975422365615375
v -0.0117672885966113 -0.00346333345794302 0.00992427289173047
v -0.00966965682863251 -0.00530713704705551 0.00967673468464629
v -0.00384834514358851 -0.000140066026389755 0.00657537771178669
v -0.0100827866338995 -0.000706157314632665 0.00657171499854311
v -0.009820682639525 -0.00227214255201535 0.0074847904950615
v -0.00384834563247175 -0.00210418427006153 0.00770936096747091
v -0.00384834514358851 -0.00406830251373331 0.00657537722290345
v -0.0100759481351207 -0.0038647276210034 0.00657781919469358
v -0.0105688656408956 -0.00381003771945248 0.00484424288778167
v -0.00384834563247175 -0.00406830251373331 0.00430740851156042
v -0.0108309696352701 -0.00224405229873857 0.0039311676357049
v -0.00384834563247175 -0.00210418378117829 0.00317342476699296
v -0.00384834514358851 -0.000140065537506514 0.0043074094893269
v -0.0105757041396744 -0.00065146716864012 0.00483813795830634
v -0.0114983030817327 -0.0041821868870202 0.00902096137130667
v -0.0109162328280802 -0.00381765452035143 0.00885090920243051
v -0.0116354915413644 -0.00157448930025414 0.00783543711102854
v -0.010796092704838 -0.00237559269028386 0.00797365711429926
v -0.0110710856169853 -0.00331352056637211 0.00753780108267867
v -0.0121467382576209 -0.00339977325886253 0.00699858828948865
v -0.0107487414296218 -0.00325729532700198 0.00922530869955779
v -0.0129861370941472 -0.00259867011327443 0.0068603692639844
v -0.0127111441819999 -0.00166074223718618 0.007296225295605
v -0.0119347897727346 -0.00402369338461733 0.00954987241683671
vt 0 0.00990116596221924
vt 0.16666667163372 0.00990116596221924
vt 0.16666667163372 0.328211009502411
vt 0 0.328211009502411
vt 0.333333343267441 0.00990116596221924
vt 0.333333343267441 0.328211009502411
vt 0.5 0.00990116596221924
vt 0.5 0.328211009502411
vt 0.666666686534882 0.00990116596221924
vt 0.666666686534882 0.328211009502411
vt 0.833333373069763 0.00990116596221924
vt 0.833333373069763 0.328211009502411
vt 0.984894692897797 0.790289640426636
vt 0.821612596511841 0.79065990447998
vt 0.821612596511841 0.894948303699493
vt 0.98498660326004 0.894429206848145
vt 0.168035551905632 0.789549291133881
vt 0.00466418266296387 0.790289640426636
vt 0.00475616659969091 0.894429206848145
vt 0.168127655982971 0.893391013145447
vt 0.331497460603714 0.789179146289825
vt 0.331497430801392 0.892871916294098
vt 0.494959384202957 0.789549291133881
vt 0.494867265224457 0.893391072750092
vt 0.658330678939819 0.790289700031281
vt 0.658238649368286 0.894429206848145
vt 0.823059916496277 0.992070853710175
vt 0.987406730651855 0.991694688796997
vt 0.987314164638519 0.886181950569153
vt 0.823059916496277 0.88670939207077
vt 0.00186986837070435 0.991694688796997
vt 0.166125640273094 0.990942418575287
vt 0.166033163666725 0.885127067565918
vt 0.00177727174013853 0.886181950569153
vt 0.330291599035263 0.990566253662109
vt 0.330291599035263 0.884599626064301
vt 0.494457453489304 0.990942418575287
vt 0.494549959897995 0.885127067565918
vt 0.658713221549988 0.991694688796997
vt 0.658805787563324 0.886181950569153
vt 0.821612596511841 0.992070913314819
vt 0.985074698925018 0.991701304912567
vt 0.0048442455008626 0.991701304912567
vt 0.168215617537498 0.990962147712708
vt 0.331497430801392 0.990592539310455
vt 0.494779258966446 0.990962147712708
vt 0.658150672912598 0.991701304912567
vt 0.987225770950317 0.787040770053864
vt 0.823059916496277 0.787416338920593
vt 0.16594460606575 0.786289691925049
vt 0.00168883043807 0.787040770053864
vt 0.330291599035263 0.785914182662964
vt 0.494638502597809 0.786289691925049
vt 0.658894240856171 0.787040770053864
vt 1 0.00990116596221924
vt 0.999020934104919 0.00990116596221924
vt 1 0.328211009502411
vt 0.999020934104919 0.328211009502411
vt 0.217946633696556 0.361472249031067
vt 0.120434522628784 0.387349605560303
vt 0.135097682476044 0.621696710586548
vt 0.244973883032799 0.749310076236725
vt 0.0364796966314316 0.384425222873688
vt 0.0199229940772057 0.616725504398346
vt 0.511402368545532 0.384425222873688
vt 0.411676496267319 0.358547925949097
vt 0.386923283338547 0.744338810443878
vt 0.494845628738403 0.616725504398346
vt 0.770031988620758 0.370124995708466
vt 0.520983815193176 0.535183072090149
vt 0.527034521102905 0.642123520374298
vt 0.866163969039917 0.417363584041595
vt 0.770640552043915 0.371831655502319
vt 0.520034730434418 0.537922620773315
vt 0.52364981174469 0.641413271427155
vt 0.864544928073883 0.415483474731445
vt 0.522659420967102 0.537711322307587
vt 0.771707832813263 0.372652471065521
vt 0.867839574813843 0.419890940189362
vt 0.528710842132568 0.644651651382446
vt 0.520400941371918 0.538474857807159
vt 0.771006345748901 0.372383177280426
vt 0.864910185337067 0.416034162044525
vt 0.524016082286835 0.641965329647064
vt 0.531563639640808 0.77457982301712
vt 0.986388862133026 0.47314178943634
vt 0.531158089637756 0.772432327270508
vt 0.982285916805267 0.473446249961853
vt 0.988064587116241 0.475669205188751
vt 0.533240556716919 0.777108073234558
vt 0.982651174068451 0.473996937274933
vt 0.531524956226349 0.772984981536865
vt 1 0.755427598953247
vt 0.918946027755737 1
vt 0.837892055511475 0.755427598953247
vt 0 0.0552291534841061
vt 0.165190204977989 0.0552291534841061
vt 0.165190204977989 0.346052646636963
vt 0 0.346052646636963
vt 0.337892055511475 0.0552291534841061
vt 0.5 0.0552291534841061
vt 0.5 0.346052646636963
vt 0.337892055511475 0.346052646636963
vt 0.66519021987915 0.0552291534841061
vt 0.66519021987915 0.346052646636963
vt 0.837892055511475 0.0552291534841061
vt 1 0.0552291534841061
vt 1 0.346052646636963
vt 0.837892055511475 0.346052646636963
vt 0.501027405261993 1
vt 0.337892055511475 0.755427598953247
vt 0.5 0.755427598953247
vt 0 0.521304786205292
vt 0.165190204977989 0.521304786205292
vt 0.5 0.521304786205292
vt 0.337892055511475 0.521304786205292
vt 0 0.755427598953247
vt 0.165190204977989 0.755427598953247
vt 0.0825951024889946 1
vt 0.66519021987915 0.521304786205292
vt 1 0.521304786205292
vt 0.837892055511475 0.521304786205292
vt 0.66519021987915 0.755427598953247
vn -0.271410605072952 -0.400962088461834 -0.874966106240841
vn -0.408822598856702 -0.456306720540673 -0.790346923479473
vn 0.408822598856702 -0.456306720540673 -0.790346923479473
vn 0.271410605072952 -0.400962088461834 -0.874966106240841
vn -0.408822471879038 -0.912613930688474 -2.15937388398923e-07
vn 0.408822471879038 -0.912613930688474 -2.15937388398923e-07
vn -0.408822562755186 -0.456306823445223 0.790346882741756
vn -0.304704022481475 -0.135923037731972 0.942698460005808
vn 0.304703995946647 -0.135923036344549 0.942698468782582
vn 0.408822527742217 -0.456306817138351 0.79034690449418
vn -0.408822545248701 0.456306885496949 0.790346855971761
vn 0.408822580261672 0.456306891803823 0.790346834219334
vn -0.408822489385497 0.912613922846148 -1.0299876018171e-07
vn -0.271410532574956 0.958223959106904 -0.0902394980087448
vn 0.271410532574956 0.958223959106904 -0.0902394980087448
vn 0.408822489385497 0.912613922846148 -1.02998760141611e-07
vn -0.791319437202929 2.34212338805189e-07 -0.611402934491473
vn -0.791319395561958 -0.52949042820518 -0.305701652999379
vn -0.791319455713249 -0.529490468014503 0.30570142834385
vn -0.791319357246676 -4.22416441534831e-08 0.611403037976347
vn -0.746194273073189 0.332864107506831 0.57653759007237
vn -0.79131947282515 0.529490459742705 0.305701398376235
vn -0.791319193292967 0.529490770138719 -0.305701584333602
vn -0.74619421264234 0.332864381063899 -0.576537510347788
vn 0.791319395561958 -0.52949042820518 -0.305701652999379
vn 0.791319437202929 2.34212338805189e-07 -0.611402934491473
vn 0.791319455713249 -0.529490468014503 0.30570142834385
vn 0.791319539440231 3.96020278407023e-08 0.611402802168995
vn 0.746194324155301 0.33286410470422 0.576537525576499
vn 0.79131949445336 0.529490474214649 0.305701317324647
vn 0.791319193292967 0.529490770138719 -0.305701584333602
vn 0.74619421264234 0.332864381063899 -0.576537510347788
vn 0.811179929722479 -0.506448682245968 -0.292398450520444
vn 0.811180049232056 1.97818251004266e-07 -0.584796484024861
vn 0.811180049232062 1.59136404227265e-07 -0.584796484024865
vn 0.811179911482169 -0.506448693249218 -0.292398482065041
vn 0.811179940579358 -0.506448748628952 0.292398305422309
vn 0.811179941086845 -0.506448868155084 0.292398096988979
vn 0.811179798046159 -3.84875811241616e-09 0.584796832448494
vn 0.811179826321132 -8.61131975924103e-08 0.58479679322788
vn 0.811180006656444 0.506448693065283 0.292398218348399
vn 0.811180009937059 0.506448635508843 0.2923983089379
vn 0.811179649325636 0.506449110483272 -0.292398486676385
vn 0.811179665606878 0.506449105826175 -0.29239844957486
vn -0.811179964407151 2.15805901879314e-07 -0.584796601686746
vn -0.811179929722479 -0.506448682245968 -0.292398450520444
vn -0.811179919373128 -0.506448735389141 -0.292398387185266
vn -0.811179964407166 9.73801055226031e-08 -0.584796601686757
vn -0.811180051527298 -0.506448624261806 0.292398213037452
vn -0.811180034109196 -0.506448672991708 0.292398176956596
vn -0.81118012616601 3.91583766485256e-08 0.584796377308627
vn -0.811180126166009 -6.76030334570291e-08 0.584796377308626
vn -0.811180013725185 0.506448697478551 0.292398191094077
vn -0.811180002868316 0.506448631095574 0.29239833619222
vn -0.811179649325636 0.506449110483272 -0.292398486676385
vn -0.81117967267562 0.506449110239449 -0.292398422320546
vn 0.255504613606346 0.483404139064288 -0.837280019325307
vn 0.139554719217365 0.116827919089638 -0.983298386892477
vn 0.139554712060375 0.793147661420714 -0.592824821953837
vn -0.113489858827772 -0.32701561878562 -0.938179533465482
vn -0.255504613606346 0.483404139064287 -0.837280019325307
vn -0.139554712060375 0.793147661420714 -0.592824821953837
vn 0.97206359175352 -0.0448914514884327 0.230384745958817
vn 0 -0.950119477834102 -0.311886161668411
vn 0 -0.950119479572408 -0.311886156372893
vn -0.97206359175352 -0.0448914514884327 0.230384745958817
vn 0 0.804181268706977 0.594384124166213
vn -1.87867982813147e-07 0.296071923518084 0.955165648515621
vn 1.87867982724924e-07 0.296071923518084 0.955165648515621
vn 5.06168689184902e-08 -4.77453284020102e-07 0.999999999999885
vn -3.73294675171049e-08 -5.68803386613489e-07 0.999999999999838
vn -4.85282839690283e-07 -1.08602250747859e-06 0.999999999999293
vn -5.06168689184902e-08 -4.77453284020102e-07 0.999999999999885
vn 3.73294675171049e-08 -5.68803386613489e-07 0.999999999999838
vn 4.85282839690283e-07 -1.08602250747859e-06 0.999999999999293
vn 1 0 0
vn 0 -0.999999999999977 2.13955004824124e-07
vn -1 0 0
vn 0 0.999999999999766 6.8465664071466e-07
vn -0.366930862850705 0.582869693683651 0.724999766946696
vn -0.272718623659557 0.0594006351301907 0.960258359430089
vn 0.171758199701861 0.144612986474983 0.97446713899339
vn 0.0734036406497183 0.857097495642772 0.509897821629252
vn 0.0365595383972275 0.00105947190134235 0.999330914998366
vn -0.110137939786722 0.198296038144889 0.973934451323895
vn 0.0198605699566283 0.845058564930049 0.53430476284548
vn 0.0360278088385396 -0.999308256595587 -0.00921983135320167
vn 0.069825244629294 -0.863886268282991 -0.498823566689213
vn 0.292145155915222 -0.886475990154292 -0.358903227563139
vn 0.113129370678872 -0.99126993770042 0.0677174726433823
vn 0.0172494737905979 -0.496704771879497 0.867748134683149
vn -0.217968865128865 -0.508289878246867 0.833145229540576
vn 0.0855244665113517 -0.504550957146191 -0.859135552326181
vn 0.409909748591644 -0.556213810895835 -0.722910917456824
vn 0.0818621124456384 0.99636179639121 0.0237015872468453
vn 0.187388505767159 0.976528301398134 0.106198043648774
vn 0.104541568646142 0.500617131902351 -0.859333199446448
vn 0.46541208553932 0.498039780956787 -0.731674768745278
vn -0.129415210602647 -0.541523413835694 -0.830664851508963
vn -0.430743729868787 -0.439115360989603 -0.788439939958458
vn 0.0487082163062712 -0.835298005473968 -0.547635601212588
vn -0.101353694551352 0.811919606203111 0.574903454211033
vn -0.50240125543515 0.607232139004741 0.615517755955839
vn 0.337870735456829 -0.904970337582098 -0.258596315167879
vn -0.235988807871633 -0.95089890160861 0.200251245885922
vn -0.440837253218411 -0.491075665041772 0.751336946634882
vn -0.685947553417837 0.58157706544629 0.437314613187081
vn -0.965707701573219 -0.188844219139164 -0.178175464135469
vn -0.89395041446366 0.0216416330653175 -0.447643045515639
vn 0.820811516016717 -0.352671598540621 -0.449323044987836
vn 0.549884468934413 0.825973969928863 0.124072848861759
vn 0.554039090728841 -0.820912042764263 -0.138362220237187
vn 0.621850780151031 -0.771075870593237 -0.136907300807647
vn 0.920924690311487 0.0640809101126419 0.384436407919212
vn 0.693056770451451 -0.224747219229774 0.684953283355798
vn 0.366931119218615 0.582870377847263 0.72499908715609
vn -0.171758102728242 0.144613078925429 0.974467142365971
vn 0.272718650747891 0.0594006930361888 0.960258348154844
vn -0.0734036421687854 0.857097453775511 0.509897891786084
vn -0.0198605188235018 0.845058548765829 0.534304790311535
vn 0.110137930738123 0.198296028773481 0.973934454255209
vn -0.0365595384052125 0.00105926573003117 0.999330915216632
vn -0.0360277869705904 -0.999308257947673 -0.00921977025682893
vn -0.11312930098353 -0.991269942719796 0.0677175156017237
vn -0.29214509778371 -0.886476023402384 -0.358903192760447
vn -0.0698252561956652 -0.863886319204042 -0.498823476882657
vn 0.217968880010495 -0.508289923050438 0.833145198313206
vn -0.0172494723747117 -0.496704822468928 0.867748105753567
vn -0.40990975517522 -0.556213813331603 -0.722910911849661
vn -0.0855244813261892 -0.504550965075132 -0.859135546194917
vn -0.0818621218438241 0.996361795869123 0.0237015767340958
vn -0.187388492562283 0.976528301701301 0.106198064161302
vn -0.104541573589939 0.500617067245879 -0.859333236511584
vn -0.46541208890495 0.498039746820023 -0.7316747898408
vn 0.129415210602646 -0.541523413835692 -0.830664851508965
vn -0.0487082163062736 -0.835298005473967 -0.547635601212589
vn 0.430743729868788 -0.439115360989604 -0.788439939958457
vn 0.101353885881895 0.811919706230286 0.574903279214484
vn 0.502401221870208 0.607232167882958 0.615517754862916
vn 0.235988858217794 -0.950898891548742 0.200251234324375
vn -0.337870688230196 -0.90497041012122 -0.25859612301789
vn 0.440837279336376 -0.491075698288353 0.751336909580455
vn 0.685947536081521 0.581577083219943 0.437314616742997
vn 0.96570770157322 -0.188844219139159 -0.17817546413547
vn 0.893950414463661 0.0216416330653206 -0.447643045515637
vn -0.820811516016717 -0.352671598540621 -0.449323044987837
vn -0.549884402894496 0.825974012625043 0.124072857311538
vn -0.554039090728842 -0.820912042764262 -0.13836222023719
vn -0.621850780151029 -0.771075870593239 -0.136907300807647
vn -0.920924693181787 0.0640809036406942 0.38443640212215
vn -0.69305673978192 -0.224747155488636 0.684953335302941
g accessory_frontMiddle_3
f 1/1/1 2/2/2 3/3/3 4/4/4
f 2/2/5 5/5/5 6/6/6 3/3/6
f 5/5/7 7/7/8 8/8/9 6/6/10
f 7/7/8 9/9/11 10/10/12 8/8/9
f 9/9/13 11/11/14 12/12/15 10/10/16
f 2/13/2 1/14/1 13/15/17 14/16/18
f 5/17/5 2/18/5 14/19/18 15/20/19
f 7/21/8 5/17/7 15/20/19 16/22/20
f 9/23/11 7/21/21 16/22/20 17/24/22
f 11/25/14 9/23/13 17/24/22 18/26/23
f 1/14/24 11/25/24 18/26/23 13/15/17
f 4/27/4 3/28/3 19/29/25 20/30/26
f 3/31/6 6/32/6 21/33/27 19/34/25
f 6/32/10 8/35/9 22/36/28 21/33/27
f 8/35/29 10/37/12 23/38/30 22/36/28
f 10/37/16 12/39/15 24/40/31 23/38/30
f 12/39/32 4/27/32 20/30/26 24/40/31
f 14/16/33 13/15/34 25/41/35 26/42/36
f 15/20/37 14/19/33 26/43/36 27/44/38
f 16/22/39 15/20/37 27/44/38 28/45/40
f 17/24/41 16/22/39 28/45/40 29/46/42
f 18/26/43 17/24/41 29/46/42 30/47/44
f 13/15/34 18/26/43 30/47/44 25/41/35
f 20/30/45 19/29/46 31/48/47 32/49/48
f 19/34/46 21/33/49 33/50/50 31/51/47
f 21/33/49 22/36/51 34/52/52 33/50/50
f 22/36/51 23/38/53 35/53/54 34/52/52
f 23/38/53 24/40/55 36/54/56 35/53/54
f 24/40/55 20/30/45 32/49/48 36/54/56
f 11/11/57 1/55/57 37/55/58 38/56/59
f 1/55/1 4/57/4 39/57/60 37/55/58
f 4/57/61 12/12/61 40/58/62 39/57/60
f 12/12/15 11/11/14 38/56/59 40/58/62
f 38/59/63 37/60/63 41/61/63 42/62/63
f 37/60/64 39/63/60 43/64/65 41/61/65
f 39/65/66 40/66/66 44/67/66 43/68/66
f 40/66/67 38/59/67 42/62/68 44/67/69
f 42/69/68 41/70/70 45/71/71 46/72/72
f 41/73/70 43/74/73 47/75/74 45/76/71
f 43/77/73 44/78/69 48/79/75 47/80/74
f 44/81/69 42/82/68 46/83/72 48/84/75
f 46/72/76 45/71/76 49/85/76 50/86/76
f 45/76/77 47/75/77 51/87/77 49/88/77
f 47/80/78 48/79/78 52/89/78 51/90/78
f 48/84/79 46/83/79 50/91/79 52/92/79
g polySurface2 accessory_frontMiddle_3
f 53/93/80 54/94/81 55/95/82
f 56/96/83 57/97/84 58/98/85 59/99/86
f 60/100/87 61/101/88 62/102/89 63/103/90
f 57/97/84 60/100/91 63/103/92 58/98/85
f 61/101/88 64/104/93 65/105/94 62/102/89
f 66/106/95 56/107/83 59/108/86 67/109/96
f 64/104/97 66/106/97 67/109/98 65/105/98
f 54/110/99 68/111/100 69/112/101
f 70/113/102 59/99/86 58/98/85 71/114/103
f 63/103/90 62/102/89 72/115/104 73/116/105
f 58/98/106 63/103/92 73/116/105 71/114/106
f 73/116/105 72/115/104 69/112/101 68/111/100
f 53/117/80 70/113/102 71/114/103 74/118/107
f 71/114/108 73/116/108 68/111/108 74/118/109
f 54/119/81 53/117/80 74/118/107
f 54/110/99 74/118/109 68/111/100
f 72/115/104 62/102/89 65/105/94 75/120/110
f 59/108/86 70/121/102 76/122/111 67/109/96
f 76/122/111 75/120/110 65/105/98 67/109/98
f 70/121/102 53/93/80 55/95/82 76/122/111
f 77/123/112 69/112/113 72/115/104 75/120/110
f 55/95/114 77/123/115 75/120/114 76/122/114
f 54/110/99 69/112/101 77/123/112
f 54/94/81 77/123/115 55/95/82
g polySurface1 accessory_frontMiddle_3
f 78/93/116 79/95/117 80/94/118
f 81/96/119 82/99/120 83/98/121 84/97/122
f 85/100/123 86/103/124 87/102/125 88/101/126
f 84/97/122 83/98/121 86/103/127 85/100/128
f 88/101/126 87/102/125 89/105/129 90/104/130
f 91/106/131 92/109/132 82/108/120 81/107/119
f 90/104/133 89/105/134 92/109/134 91/106/133
f 80/110/135 93/112/136 94/111/137
f 95/113/138 96/114/139 83/98/121 82/99/120
f 86/103/124 97/116/140 98/115/141 87/102/125
f 83/98/142 96/114/142 97/116/140 86/103/127
f 97/116/140 94/111/137 93/112/136 98/115/141
f 78/117/116 99/118/143 96/114/139 95/113/138
f 96/114/144 99/118/145 94/111/144 97/116/144
f 80/119/118 99/118/143 78/117/116
f 80/110/135 94/111/137 99/118/145
f 98/115/141 100/120/146 89/105/129 87/102/125
f 82/108/120 92/109/132 101/122/147 95/121/138
f 101/122/147 92/109/134 89/105/134 100/120/146
f 95/121/138 101/122/147 79/95/117 78/93/116
f 102/123/148 100/120/146 98/115/141 93/112/149
f 79/95/150 101/122/150 100/120/150 102/123/151
f 80/110/135 102/123/148 93/112/136
f 80/94/118 79/95/117 102/123/151
