v -20.0254618909929 28.9743734229482 23.5450213611554
v -20.0255160640104 28.9742893677063 23.5450213611554
v -20.0254893834651 28.9742721722809 23.5451161897658
v -20.0254352104477 28.9743562275228 23.5451161897658
v -20.0254096750453 28.9742208007599 23.5450844480874
v -20.0253555020278 28.9743048560018 23.5450844480874
v -20.0254363555906 28.9742379961853 23.5449896194769
v -20.0253821825731 28.9743220514272 23.5449896194769
vn -0.797084217917207 0.51371522215619 0.317416792360346
vn 0.266805459143973 -0.171954258578567 0.948286127668052
vn 0.797084217917207 -0.51371522215619 -0.317416792360346
vn -0.266805459143973 0.171954258578567 -0.948286127668052
vn -0.541730187933337 -0.840552439459735 0
vn 0.541730187933337 0.840552439459735 0
g pCube1 camera1 flyover hole13
f 1//1 2//1 3//1 4//1
f 4//2 3//2 5//2 6//2
f 6//3 5//3 7//3 8//3
f 8//4 7//4 2//4 1//4
f 2//5 7//5 5//5 3//5
f 8//6 1//6 4//6 6//6
