v -4.31566113249211 -2.16605068817539 0.0215139601800073
v 4.50993785707969 -2.16605068817539 0.0215139601800073
v 4.50993785707969 -2.16605068817539 10.0247270478977
v -4.31566113249211 -2.16605068817539 10.0247270478977
v 4.50993785707969 2.51898778079376 10.0247270478977
v -4.31566113249211 2.51898778079376 10.0247270478977
v 4.50993785707969 2.51898778079376 0.0215139601800073
v -4.31566113249211 2.51898778079376 0.0215139601800073
v 3.87594668571092 1.93152490250395 0.266136178194381
v 0.282122394231361 1.93152490250395 0.266136178194381
v 0.282122394231361 1.93152490250395 3.8599610015789
v 3.87594668571092 1.93152490250395 3.8599610015789
v 0.282122394231361 -1.66229938897561 3.8599610015789
v 3.87594668571092 -1.66229938897561 3.8599610015789
v 0.282122394231361 -1.66229938897561 0.266136178194381
v 3.87594668571092 -1.66229938897561 0.266136178194381
v 3.03189735712968 1.08445285186367 7.9963308619702
v 1.06230708244904 1.08445285186367 7.9963308619702
v 1.06230708244904 1.08445285186367 9.96592063603439
v 3.03189735712968 1.08445285186367 9.96592063603439
v 1.06230708244904 -0.885138424049838 9.96592063603439
v 3.03189735712968 -0.885138424049838 9.96592063603439
v 1.06230708244904 -0.885138424049838 7.9963308619702
v 3.03189735712968 -0.885138424049838 7.9963308619702
v 0.939252558029856 2.32346101695784 4.83570249061885
v -3.50083879285597 2.32346101695784 4.83570249061885
v -3.50083879285597 -2.16065254111302 4.83570249061885
v 0.939256562961368 -2.16065254111302 4.83570249061885
v 0.176648517919025 1.56736298808901 4.83183572924356
v -2.71890695326597 1.56736298808901 4.83183572924356
v -2.71890695326597 1.56736298808901 7.727391701045
v 0.176648517919025 1.56736298808901 7.727391701045
v -2.71890695326597 -1.32819248309599 7.727391701045
v 0.176648517919025 -1.32819248309599 7.727391701045
v -2.71890695326597 -1.32819248309599 4.83183572924356
v 0.176648517919025 -1.32819248309599 4.83183572924356
v 4.47300988545255 2.20068833959384 3.85307477215144
v 0.36307407489286 2.20068833959384 3.85307477215144
v 0.36307407489286 2.20068833959384 7.96301133363579
v 4.47300988545255 2.20068833959384 7.96301133363579
v 0.36307407489286 -1.90924747096585 7.96301133363579
v 4.47300988545255 -1.90924747096585 7.96301133363579
v 0.36307407489286 -1.90924747096585 3.85307477215144
v 4.47300988545255 -1.90924747096585 3.85307477215144
v 3.55063210635048 1.59876064991388 7.99895909827525
v 0.53042113937418 1.59876064991388 7.99895909827525
v 0.530425144305692 -1.45138718011811 7.99895909827525
v 3.55063210635048 -1.45138718011811 7.99895909827525
v 5.77806688043389 3.64218083579396 0.249981770678142
v -5.86656785699639 3.64218083579396 0.249981770678142
v -5.86656785699639 -3.45128978018373 0.249981770678142
v 5.77806688043389 -3.45128978018373 0.249981770678142
v 0.334497887318529 2.44610153158193 0.243865426756891
v -4.24601036732591 2.44610153158193 0.243865426756891
v -4.24601036732591 2.44610153158193 4.82437354060296
v 0.334497887318529 2.44610153158193 4.82437354060296
v -4.24601036732591 -2.13440672306251 4.82437354060296
v 0.334497887318529 -2.13440672306251 4.82437354060296
v -4.24601036732591 -2.13440672306251 0.243865426756891
v 0.334497887318529 -2.13440672306251 0.243865426756891
vt 0 0
vt 1 0
vt 1 1
vt 0 1
vt 1 2
vt 0 2
vt 0.998007953166962 0.998007953166962
vt 0.00199204683303833 0.998007953166962
vt 0.00199204683303833 0.00199204683303833
vt 0.998007953166962 0.00199204683303833
vt 2 0
vt 2 1
vt -1 0
vt -1 1
vt 0 3
vt 1 3
vt 1 4
vt 0 4
vn 0 -1 0
vn 0 0 1
vn 0 1 0
vn 1 0 0
vn -1 0 0
vn 0 -2.23869225379758e-08 1
vn 0 0 -1
vn 0 2.27212378021559e-08 1
g F1Collision MetalBoxF1
f 1//1 2//1 3//1 4//1
f 4//2 3//2 5//2 6//2
f 6//3 5//3 7//3 8//3
f 2//4 7//4 5//4 3//4
f 8//5 1//5 4//5 6//5
g F1MetalBox MetalBoxF1
f 9/1/3 10/2/3 11/3/3 12/4/3
f 12/4/2 11/3/2 13/5/2 14/6/2
f 14/7/1 13/8/1 15/9/1 16/10/1
f 10/2/5 15/11/5 13/12/5 11/3/5
f 16/13/4 9/1/4 12/4/4 14/14/4
g F1MetalBox4 MetalBoxF1
f 17/1/3 18/2/3 19/3/3 20/4/3
f 20/4/2 19/3/2 21/5/2 22/6/2
f 22/7/1 21/8/1 23/9/1 24/10/1
f 18/2/5 23/11/5 21/12/5 19/3/5
f 24/13/4 17/1/4 20/4/4 22/14/4
g F1MetalBoxShadow MetalBoxF1
f 25/1/6 26/2/6 27/3/6 28/4/6
g F1MetalBox3 MetalBoxF1
f 29/1/3 30/2/3 31/3/3 32/4/3
f 32/4/2 31/3/2 33/5/2 34/6/2
f 34/7/1 33/8/1 35/9/1 36/10/1
f 30/2/5 35/11/5 33/12/5 31/3/5
f 36/13/4 29/1/4 32/4/4 34/14/4
g F1MetalBox2 MetalBoxF1
f 37/1/3 38/2/3 39/3/3 40/4/3
f 40/4/2 39/3/2 41/5/2 42/6/2
f 42/7/1 41/8/1 43/9/1 44/10/1
f 44/15/7 43/16/7 38/17/7 37/18/7
f 38/2/5 43/11/5 41/12/5 39/3/5
f 44/13/4 37/1/4 40/4/4 42/14/4
g F1MetalBoxShadow1 MetalBoxF1
f 45/1/2 46/2/2 47/3/2 48/4/2
g F1MetalBox1Shadow MetalBoxF1
f 49/1/8 50/2/8 51/3/8 52/4/8
g F1MetalBox5 MetalBoxF1
f 53/1/3 54/2/3 55/3/3 56/4/3
f 56/4/2 55/3/2 57/5/2 58/6/2
f 58/7/1 57/8/1 59/9/1 60/10/1
f 54/2/5 59/11/5 57/12/5 55/3/5
f 60/13/4 53/1/4 56/4/4 58/14/4
