v -2.18691337765671 -0.33338345254813 0.813992943350724
v -1.78418447339316 -0.185352954964625 0.560287790974294
v -1.78418447339316 -0.185352954964625 0.38935687598281
v -1.78418447339316 -0.33338345254813 0.645753279758563
v -1.78418447339316 -0.481413950131634 0.560287790974294
v -1.78418447339316 -0.481413950131634 0.38935687598281
v -1.78418447339316 -0.33338345254813 0.303891449775596
v -1.20008511180327 -0.164971514323878 0.306009245043977
v -1.20008511180327 -0.164971514323878 0.11154326397603
v -1.20008511180327 -0.33338345254813 0.403241598074205
v -1.20008511180327 -0.501795422060909 0.306009245043977
v -1.20008511180327 -0.501795422060909 0.11154326397603
v -1.20008511180327 -0.33338345254813 0.0143109217012335
v -0.29651339598528 -0.121919329710833 0.378687050085994
v -0.29651339598528 -0.121919329710833 0.134508628544845
v -0.29651339598528 -0.33338345254813 0.500775572508965
v -0.29651339598528 -0.54484759102969 0.378687050085994
v -0.29651339598528 -0.54484759102969 0.134508628544845
v -0.29651339598528 -0.33338345254813 0.0124201022108083
v -0.29651339598528 -0.00453250301791614 0.446459533661369
v -0.29651339598528 -0.00453250301791614 0.0667361684358652
v -0.29651339598528 -0.33338345254813 0.636321853777868
v -0.29651339598528 -0.662234449011134 0.446459533661369
v -0.29651339598528 -0.662234449011134 0.0667361684358652
v -0.29651339598528 -0.33338345254813 -0.123126253368348
v 0.252186063080635 -0.00453250301791614 0.446459533661369
v 0.252186063080635 -0.00453250301791614 0.0667361684358652
v 0.252186063080635 -0.33338345254813 0.636321853777868
v 0.252186063080635 -0.662234449011134 0.446459533661369
v 0.252186063080635 -0.662234449011134 0.0667361606137333
v 0.252186063080635 -0.33338345254813 -0.123126253368348
v 2.19879951376927 -0.33338345254813 0.813992943350724
v 1.73868519740468 -0.185352954964625 0.38935687598281
v 1.73868519740468 -0.185352954964625 0.560287790974294
v 1.73868519740468 -0.33338345254813 0.645753279758563
v 1.73868519740468 -0.481413950131634 0.560287853551349
v 1.73868519740468 -0.481413950131634 0.389356938559865
v 1.73868519740468 -0.33338345254813 0.303891449775596
v 1.15458571066068 -0.164971514323878 0.111543256153898
v 1.15458571066068 -0.164971514323878 0.306009245043977
v 1.15458571066068 -0.33338345254813 0.403241598074205
v 1.15458571066068 -0.501795390772381 0.306009245043977
v 1.15458571066068 -0.501795422060909 0.111543271798161
v 1.15458571066068 -0.33338345254813 0.014310981344989
v 0.251014354660755 -0.121919329710833 0.134508628544845
v 0.251014354660755 -0.121919329710833 0.378687050085994
v 0.251014354660755 -0.33338345254813 0.500775572508965
v 0.251014354660755 -0.54484759102969 0.378687050085994
v 0.251014354660755 -0.54484759102969 0.134508612900581
v 0.251014354660755 -0.33338345254813 0.0124201031885748
v -0.882140732812756 -0.0786061987789284 -0.867961773409305
v 0.853110548705254 -0.0786061987789284 -0.867961773409305
v 0.853110548705254 -0.0786062300674559 0.86728944553165
v -0.882140732812756 -0.0786062300674559 0.86728944553165
v -2.19879951376927 -0.679019993058653 -0.834609079235808
v 2.18295775686349 -0.679019993058653 -0.834609079235808
v 2.18295775686349 -0.679019993058653 0.867961773409305
v -2.19879951376927 -0.679019993058653 0.867961773409305
v 2.18295775686349 0.00328246376958732 0.867961773409305
v -2.19879951376927 0.00328246376958732 0.867961773409305
v -2.19879951376927 0.00328246376958732 -0.834609079235808
v 2.18295775686349 0.00328246376958732 -0.834609079235808
vt 0.962301671504974 0.284838259220123
vt 0.767009794712067 0.227756500244141
vt 0.748902142047882 0.159676194190979
vt 0.782867550849915 0.298181116580963
vt 0.773918390274048 0.370492517948151
vt 0.762443542480469 0.440878391265869
vt 0.784673810005188 0.509467780590057
vt 0.764429211616516 0.0885104537010193
vt 0.517338395118713 0.224438965320587
vt 0.509245812892914 0.135948419570923
vt 0.525416195392609 0.316393077373505
vt 0.525857985019684 0.408924281597137
vt 0.525897145271301 0.498080492019653
vt 0.537480115890503 0.584346532821655
vt 0.512978315353394 0.048761248588562
vt 0.0211305357515812 0.243615925312042
vt 0.0199472159147263 0.135854482650757
vt 0.0253279618918896 0.35074120759964
vt 0.03078992664814 0.457780063152313
vt 0.0392414070665836 0.565056204795837
vt 0.0534206964075565 0.672124564647675
vt 0.0245792977511883 0.0275532007217407
vt 0.794898092746735 0.570301473140717
vt 0.794898092746735 0.650994956493378
vt 0.755956709384918 0.673366844654083
vt 0.755956709384918 0.547880053520203
vt 0.865047633647919 0.691385984420776
vt 0.865047633647919 0.736179828643799
vt 0.935197174549103 0.651084184646606
vt 0.974136769771576 0.67350560426712
vt 0.935197174549103 0.57039076089859
vt 0.974136769771576 0.54801881313324
vt 0.865047633647919 0.529999673366547
vt 0.865047633647919 0.485205888748169
vt 0.0426299907267094 0.974736630916595
vt 0.192763581871986 0.974671244621277
vt 0.194811597466469 0.755111694335938
vt 0.0401805378496647 0.755177140235901
vt 0.348804920911789 0.976564824581146
vt 0.353502839803696 0.757005274295807
vt 0.507455706596375 0.978523910045624
vt 0.509747207164764 0.758964419364929
vt 0.66225790977478 0.978589355945587
vt 0.6600261926651 0.759029924869537
vt 0.811236441135406 0.976695775985718
vt 0.806880056858063 0.757136344909668
vt 0.958123505115509 0.97473669052124
vt 0.95567399263382 0.75517737865448
vt 0 0
vt 1 0
vt 1 1
vt 0 1
vn -0.611517747440922 0.719522878343455 -0.329139593645509
vn -0.192353253330712 0.98132574914403 0
vn -0.443034048596743 0.800438756052479 -0.403755655803283
vn 0.385466308162738 0 0.922721911125659
vn 0.384459521473179 9.729926625252e-09 0.923141850610519
vn 0.33927933177832 0.47034264734355 0.814657798782972
vn 0.339279330261782 -0.470342630171291 0.814657809328965
vn -0.611517747440922 -0.719522878343455 -0.329139593645509
vn -0.44303406885205 -0.800438743223049 -0.403755659011615
vn -0.192353279582152 -0.981325743998388 0
vn -0.634937138259919 1.06218304572031e-08 -0.772563803487003
vn -0.0663255301612776 0.943111018529564 0.325795228290647
vn -0.0412334584738461 0.99914953930945 0
vn 0.223825923314553 0.190918041888786 0.955746963026166
vn 0.338356381399277 0.470508474075833 0.814945847887587
vn 0.125646740834049 -0.49603661586132 0.859162715812686
vn -0.0412334765721419 -0.999149538562559 0
vn -0.300745995756726 -0.190137106342189 -0.934558573246276
vn -0.202276307447114 -0.489663270152193 -0.848123916246571
vn -0.202276300691645 0.48966331188364 -0.848123893764141
vn -0.0811689185192807 0.863629869502012 0.497549048004664
vn -0.047592679430769 0.998866826391086 0
vn -0.107319259450727 2.65168487495602e-08 0.994224610714775
vn -0.0930753705758447 -0.49782834506225 0.86226673033624
vn -0.0811689081814497 -0.863629857030644 0.497549071338558
vn -0.0475926621757569 -0.99886682721323 0
vn -0.00209255896186856 2.67457414103772e-08 -0.999997810596099
vn -0.00181220876726341 -0.499997974236156 -0.866024677280691
vn -0.00181221451135704 0.499998020561201 -0.866024650522978
vn -1 0 0
vn 0 0.866025539238785 -0.499999765386116
vn 0 0.866025481259844 0.499999865808637
vn 0 0.866025296660251 0.50000018554449
vn 0 0.866025296660251 -0.50000018554449
vn 0 0.500000268382689 0.866025248833566
vn 0 -0.500000214863615 0.866025279732837
vn 0 -0.866025465810219 0.499999892568181
vn 0 -0.866025296660251 0.50000018554449
vn -3.56394040064962e-09 -0.866025521559201 -0.499999796008072
vn 0 -0.866025296660251 -0.50000018554449
vn -6.17292668855699e-09 -0.500000407983773 -0.866025168234769
vn 0 0.500000469227659 -0.866025132875554
vn 0.56630707046139 0.744209958754897 -0.354186164658464
vn 0.416861979689326 0.808908986646834 -0.414599012554887
vn 0.172210735446826 0.985060131462472 0
vn -0.343410786531522 1.53406298120123e-07 0.939185302106979
vn -0.320180447716145 0.473678099763295 0.820434969211407
vn -0.363553043870458 1.14302933253069e-07 0.931573499136011
vn -0.320180506296371 -0.473677898514005 0.820435062541305
vn 0.566306996928709 -0.744210041520057 -0.354186108324851
vn 0.172210729436039 -0.985060132513293 4.32002534748253e-08
vn 0.416861941070843 -0.808909048599992 -0.414598930509601
vn 0.607748788776908 -9.51993750402127e-08 -0.79412934068714
vn 0.0412334642005825 0.999149539073116 0
vn 0.0663255483689063 0.943111017637482 0.325795227166325
vn -0.33835631720023 0.470508485617658 0.814945867878644
vn -0.223825881685246 0.190918074684292 0.955746966224149
vn -0.125646721707468 -0.496036588783883 0.859162734242946
vn 0.0412334599855195 -0.999149539247062 7.84145989761782e-08
vn 0.202276283388028 -0.489663223263887 -0.84812394905553
vn 0.300745935409181 -0.190137107923616 -0.934558592344696
vn 0.202276272361714 0.489663190141752 -0.848123970808308
vn 0.0475926983400861 0.99886682549012 0
vn 0.0811689505957881 0.863629867604476 0.497549046065464
vn 0.107319307163573 8.99245006474178e-09 0.994224605564523
vn 0.0930754149321016 -0.497828373741823 0.862266708990199
vn 0.0811689542483077 -0.863629845174934 0.497549084402087
vn 0.0475927021024145 -0.998866825310855 7.12492203196569e-08
vn 0.00181224527265645 -0.499997857176775 -0.866024744788338
vn 0.00209259229445611 2.67535814104345e-08 -0.999997810526348
vn 0.00181223602261091 0.499997903515403 -0.866024718054168
vn 0.999962639809556 -0.00748593054690512 0.00432201676897769
vn 0.999962639805547 -0.00748593039624815 -0.00432201795748789
vn 0.999962639625056 -3.83008368048079e-10 -0.00864403575243392
vn 0.999962639819075 0.0074859286831412 -0.00432201779464254
vn 0.999962639822709 0.00748592876501744 0.0043220168121135
vn 0.999962639643823 -4.51797032587141e-10 0.00864403358144777
vn 0 -1 -1.8031123261153e-08
vn 0 -1 0
vn 0 0 1
vn 0 0 -1
vn 1 0 0
g Horns hangingHorns West_hangingHornsAll
f 1/1/1 2/2/2 3/3/3
f 1/1/4 4/4/5 2/2/6
f 1/1/4 5/5/7 4/4/5
f 1/1/8 6/6/9 5/5/10
f 1/1/8 7/7/11 6/6/9
f 1/1/1 3/3/3 7/8/11
f 3/3/3 2/2/2 8/9/12 9/10/13
f 2/2/6 4/4/5 10/11/14 8/9/15
f 4/4/5 5/5/7 11/12/16 10/11/14
f 5/5/10 6/6/9 12/13/17 11/12/17
f 6/6/9 7/7/11 13/14/18 12/13/19
f 7/8/11 3/3/3 9/10/20 13/15/18
f 9/10/13 8/9/12 14/16/21 15/17/22
f 8/9/12 10/11/14 16/18/23 14/16/21
f 10/11/24 11/12/16 17/19/25 16/18/23
f 11/12/17 12/13/17 18/20/26 17/19/25
f 12/13/19 13/14/18 19/21/27 18/20/28
f 13/15/29 9/10/20 15/17/29 19/22/27
f 15/23/30 14/24/30 20/25/30 21/26/30
f 14/24/30 16/27/30 22/28/30 20/25/30
f 16/27/30 17/29/30 23/30/30 22/28/30
f 17/29/30 18/31/30 24/32/30 23/30/30
f 18/31/30 19/33/30 25/34/30 24/32/30
f 19/33/30 15/23/30 21/26/30 25/34/30
f 21/35/31 20/36/32 26/37/33 27/38/34
f 20/36/32 22/39/35 28/40/35 26/37/33
f 22/39/36 23/41/37 29/42/38 28/40/36
f 23/41/37 24/43/39 30/44/40 29/42/38
f 24/43/39 25/45/41 31/46/41 30/44/40
f 25/45/42 21/47/31 27/48/34 31/46/42
f 32/1/43 33/3/44 34/2/45
f 32/1/46 34/2/47 35/4/48
f 32/1/46 35/4/48 36/5/49
f 32/1/50 36/5/51 37/6/52
f 32/1/50 37/6/52 38/7/53
f 32/1/43 38/8/53 33/3/44
f 33/3/44 39/10/54 40/9/55 34/2/45
f 34/2/47 40/9/56 41/11/57 35/4/48
f 35/4/48 41/11/57 42/12/58 36/5/49
f 36/5/51 42/12/59 43/13/59 37/6/52
f 37/6/52 43/13/60 44/14/61 38/7/53
f 38/8/53 44/15/61 39/10/62 33/3/44
f 39/10/54 45/17/63 46/16/64 40/9/55
f 40/9/55 46/16/64 47/18/65 41/11/57
f 41/11/66 47/18/65 48/19/67 42/12/58
f 42/12/59 48/19/67 49/20/68 43/13/59
f 43/13/60 49/20/69 50/21/70 44/14/61
f 44/15/71 50/22/70 45/17/71 39/10/62
f 45/23/72 27/26/72 26/25/73 46/24/73
f 46/24/73 26/25/73 28/28/74 47/27/74
f 47/27/74 28/28/74 29/30/75 48/29/75
f 48/29/75 29/30/75 30/32/76 49/31/76
f 49/31/76 30/32/76 31/34/77 50/33/77
f 50/33/77 31/34/77 27/26/72 45/23/72
g Plaque hangingHorns West_hangingHornsAll
f 51/49/78 52/50/78 53/51/78 54/52/78
g collision collisions West_hangingHornsAll
f 55//79 56//79 57//79 58//79
f 58//80 57//80 59//80 60//80
f 61//81 62//81 56//81 55//81
f 56//82 62//82 59//82 57//82
f 61//30 55//30 58//30 60//30
