v -3.07274340331711 -1.81691440071647 -0.0156974512839255
v -0.136427882462349 -1.81691440071647 -0.0156974512839255
v -0.136427882462349 -1.81691440071647 1.30941598747033
v -3.07274340331711 -1.81691440071647 1.30941598747033
v -0.136427882462349 0.549968834624203 1.30941598747033
v -3.07274340331711 0.549968834624203 1.30941598747033
v -3.07274340331711 1.89609577649535 1.30262437454985
v -0.136427882462349 1.89609577649535 1.30262437454985
v -0.136427882462349 1.89609577649535 -0.0156974512839255
v -3.07274340331711 1.89609577649535 -0.0156974512839255
v 3.04266962166533 -1.81691440071647 -0.0156974512839255
v 3.04266962166533 0.549968834624203 -0.0156974512839255
v 3.04266962166533 0.549968834624203 1.30941598747033
v 3.04266962166533 -1.81691440071647 1.30941598747033
v -3.07274340331711 0.549968834624203 -0.0156974512839255
v -3.07274340331711 0.549968834624203 3.18660911299738
v -0.136427882462349 0.549968834624203 3.18660911299738
v -0.136427882462349 1.89609577649535 3.18660911299738
v -3.07274340331711 1.89609577649535 3.18660911299738
v 3.04266962166533 1.89609577649535 -0.0156974512839255
v 3.04266962166533 1.89609577649535 1.30262437454985
v 3.04266962166533 1.89609577649535 3.18660911299738
v 3.04266962166533 0.549968834624203 3.18660911299738
v 0.0470352102452376 -1.81691440071647 -0.0156974512839255
v 0.0470352102452376 -1.81691440071647 1.30941598747033
v 0.0470342051012935 0.549968834624203 1.30941598747033
v 0.0470342051012935 0.549968834624203 3.18660911299738
v 0.0470352102452376 1.89609577649535 3.18660911299738
v 0.0470352102452376 1.89609577649535 1.30262437454985
v 0.0470352102452376 1.89609577649535 -0.0156974512839255
v -0.0456142104829703 1.84934445879278 0.0246235000805592
v -0.0456142104829703 1.89609577649535 1.30262437454985
v -0.0456142104829703 1.84934445879278 3.12535168304844
v -0.0456142104829703 0.537116258476037 3.12535168304844
v -0.0456142104829703 0.537116258476037 1.26145780868731
v -0.0456142104829703 -1.77016333332212 1.25226173501002
v -0.0456142104829703 -1.77016333332212 0.0246235000805592
v 3.03488678819551 -1.19246798237478 -0.00618439744620186
v 4.25042330123621 -1.19246798237478 -0.00942744842664463
v 4.25485075302324 -1.19246798237478 1.84292004803034
v 3.03931549152364 -1.19246798237478 1.84616329163078
v 3.37945883042543 -1.19246798237478 2.79638335460753
v 4.57629156237825 -1.19246798237478 2.60140927132033
v 4.57629156237825 0.668897591237947 2.60140927132033
v 3.37945883042543 0.668897591237947 2.79638335460753
v 3.03931549152364 0.668897591237947 1.84616329163078
v 4.25485075302324 0.668897591237947 1.84292004803034
v 4.25042330123621 0.668897591237947 -0.00942744842664463
v 3.03488678819551 0.668897591237947 -0.00618439744620186
v -3.05504385880598 -1.19246773206656 -0.0061844003795013
v -3.05947231182589 -1.19246773206656 1.84616304132256
v -4.27500857455837 -1.19246773206656 1.84292004803034
v -4.27058012153846 -1.19246773206656 -0.00942745233771056
v -3.39961615134412 -1.19246773206656 2.79638310429931
v -3.39961615134412 0.668897466083837 2.79638310429931
v -4.59644938391338 0.668897466083837 2.60140902101211
v -4.59644938391338 -1.19246773206656 2.60140902101211
v -3.05947231182589 0.668897466083837 1.84616304132256
v -3.05504385880598 0.668897466083837 -0.0061844003795013
v -4.27058012153846 0.668897466083837 -0.00942745233771056
v -4.27500857455837 0.668897466083837 1.84292004803034
v -4.97984698438269 -2.53619446842063 0.00653417531664916
v 4.97984698438269 -2.53619446842063 0.00653417531664916
v 4.97984698438269 2.67116416470585 0.00653417531664916
v -4.97984698438269 2.67116416470585 0.00653417531664916
v -4.31158411221241 -1.84342742279133 -0.0132862781602254
v 4.27407442428308 -1.84342742279133 -0.0132862781602254
v 4.27407442428308 -1.84342742279133 3.14974021411005
v -4.31158411221241 -1.84342742279133 3.14974021411005
v -4.31158411221241 1.95699351353282 3.14974021411005
v 4.27407442428308 1.95699351353282 3.14974021411005
v 4.27407442428308 1.95699351353282 -0.0132862781602254
v -4.31158411221241 1.95699351353282 -0.0132862781602254
vt 0.267389208078384 -5.50392691422985e-08
vt 0.490765541791916 -4.50373391913672e-08
vt 0.490765541791916 0.130971044301987
vt 0.267389208078384 0.130971044301987
vt 0.490765541791916 0.364907711744308
vt 0.267389208078384 0.364907711744308
vt 0.267389208078384 0.869028687477112
vt 0.490765541791916 0.869028687477112
vt 0.490765541791916 1
vt 0.267389208078384 1
vt 1 1
vt 0.829550981521606 1
vt 0.829550981521606 0.869028687477112
vt 1 0.869028687477112
vt 0.170449018478394 1
vt 1.12470388557995e-09 1
vt 1.12470388557995e-09 0.869028687477112
vt 0.170449018478394 0.869028687477112
vt 0.267389208078384 0.550444662570953
vt 0.490765541791916 0.550444662570953
vt 0.490765541791916 0.683492839336395
vt 0.267389208078384 0.683492839336395
vt 0.732611179351807 1
vt 0.732611179351807 0.869028687477112
vt 0.732611179351807 0.683492839336395
vt 0.829550981521606 0.683492839336395
vt 0.170449018478394 0.683492839336395
vt 0.50472217798233 -4.44124133025525e-08
vt 0.732611179351807 -3.42084263138531e-08
vt 0.732611179351807 0.130971044301987
vt 0.50472217798233 0.130971044301987
vt 0.50472217798233 0.364907711744308
vt 0.732611179351807 0.364907711744308
vt 0.50472217798233 0.550444662570953
vt 0.732611179351807 0.550444662570953
vt 0.50472217798233 0.683492839336395
vt 0.50472217798233 0.869028687477112
vt 0.50472217798233 1
vt 0.497674077749252 1
vt 0.497674077749252 0.869028687477112
vt 0.497674077749252 0.683492839336395
vt 0.497674077749252 0.550444662570953
vt 0.497674077749252 0.364907711744308
vt 0.497674077749252 0.130971044301987
vt 0.497674077749252 -4.47280008586404e-08
vt 0.48497948050499 4.60594193896213e-08
vt 0.671476483345032 4.60594193896213e-08
vt 0.671476542949677 0.430642932653427
vt 0.484979540109634 0.430642932653427
vt 0.186940029263496 0.999999940395355
vt -6.20721962718562e-09 1
vt -6.20721962718562e-09 0.705387115478516
vt 0.186939999461174 0.705387115478516
vt 0.186940014362335 0.430642932653427
vt -6.20721962718562e-09 0.430642932653427
vt -6.20721962718562e-09 4.60594193896213e-08
vt 0.186940014362335 4.60594193896213e-08
vt 0.999999940395355 3.45488828656926e-08
vt 1 0.430642932653427
vt 0.671476483345032 0.705387115478516
vt 0.484979510307312 0.705387115478516
vt 1 0.705387115478516
vt 0.0133257210254669 0.0133257210254669
vt 0.986674308776855 0.0133257210254669
vt 0.986674308776855 0.986674308776855
vt 0.0133257210254669 0.986674308776855
vn 0 -1 0
vn 0.23547717021364 -0.971879880596453 0
vn 0 0 1
vn 0.259449481561862 -0.000881460985241916 0.965756278542269
vn 0 1 0
vn 0.127543684034544 0.991832081923271 -0.00131526827920005
vn 0.127476913145079 0.991802664087499 -0.00878135091784534
vn 1 0 0
vn -1 0 0
vn 0.292381962936748 0 0.956301619652113
vn -0.0702386980403293 -0.997530212724206 0
vn 0.127603344454772 0.991806207579294 0.00615086100768334
vn -0.23154072326641 -0.972825212188329 0
vn -0.2552783906559 -0.000884871858050549 0.966867188535183
vn 0.0688676640818448 -0.997625804018676 0
vn -0.287960653103147 1.08880074840702e-07 0.957642241269879
vn -0.125135121977158 0.99213883507224 -0.00131650646016854
vn -0.125193767136038 0.992113207102791 0.00615670061823018
vn -0.125069487366575 0.992109048949653 -0.00878967132927391
vn 0.00242675467048483 0.999834973906939 -0.0180037722236162
vn 0.00242816732861411 0.999993415270432 -0.00269692773381471
vn 0.00242901104475591 0.999917520691311 0.0126115708730912
vn -0.551526612021428 2.22507582756628e-07 0.834157297056206
vn -0.00137436200432677 -0.999999055564095 0
vn 0.00431648287290644 -0.00196746594440817 0.999988748463384
vn 0.00404835759721705 -0.999991805366807 0
vn 0.559210644381071 0 0.829025605883743
vn 0.160788759556658 0 0.986988842287607
vn 0.999997143513198 0 -0.00239018104846566
vn 0.979743824180172 0 -0.200254934972431
vn -0.99999714205608 0 0.0023907905955735
vn -0.985060586448555 0 0.172208132867264
vn -0.941497131288716 0 0.337020996044933
vn 0.92073117786117 0 -0.390197511671183
vn 1.14204922851967e-07 -0.999999999999994 0
vn -0.160788682574859 0 0.986988854828585
vn 1.04858797200791e-08 1 0
vn -0.999997142054626 -0 -0.00239079120373395
vn -0.979743758188679 -0 -0.200255257834406
vn 0.999997142053854 0 0.0023907915268907
vn 0.985060557845465 0 0.172208296481854
vn -1.20677667858615e-09 -1 0
vn 0.941497032640869 0 0.337021271626049
vn 2.31701129393969e-08 1 0
vn -0.920731217425247 -0 -0.390197418313631
vn 0 0 -1
g couch HayCouch hayCouchAll
f 1/1/1 2/2/2 3/3/2 4/4/1
f 4/4/3 3/3/4 5/5/4 6/6/3
f 7/7/5 8/8/6 9/9/7 10/10/5
f 11/11/8 12/12/8 13/13/8 14/14/8
f 15/15/9 1/16/9 4/17/9 6/18/9
f 16/19/3 17/20/10 18/21/10 19/22/3
f 10/10/9 15/15/9 6/18/9 7/7/9
f 13/13/8 12/12/8 20/23/8 21/24/8
f 6/6/1 5/5/11 17/20/11 16/19/1
f 13/13/8 21/24/8 22/25/8 23/26/8
f 8/8/6 7/7/5 19/22/5 18/21/12
f 7/7/9 6/18/9 16/27/9 19/22/9
f 24/28/13 11/29/1 14/30/1 25/31/13
f 26/32/14 25/31/14 14/30/3 13/33/3
f 27/34/15 26/32/15 13/33/1 23/35/1
f 28/36/16 27/34/16 23/35/3 22/25/3
f 21/24/5 29/37/17 28/36/18 22/25/5
f 30/38/19 29/37/17 21/24/5 20/23/5
f 31/39/20 32/40/21 29/37/17 30/38/19
f 28/36/18 29/37/17 32/40/21 33/41/22
f 33/41/23 34/42/23 27/34/16 28/36/16
f 34/42/24 35/43/24 26/32/15 27/34/15
f 35/43/25 36/44/25 25/31/14 26/32/14
f 37/45/26 24/28/13 25/31/13 36/44/26
f 2/2/2 37/45/26 36/44/26 3/3/2
f 5/5/4 3/3/4 36/44/25 35/43/25
f 17/20/11 5/5/11 35/43/24 34/42/24
f 18/21/10 17/20/10 34/42/27 33/41/27
f 32/40/21 8/8/6 18/21/12 33/41/22
f 9/9/7 8/8/6 32/40/21 31/39/20
g arm1 HayCouch hayCouchAll
f 38/46/1 39/47/1 40/48/1 41/49/1
f 42/50/28 43/51/28 44/52/28 45/53/28
f 46/54/5 47/55/5 48/56/5 49/57/5
f 39/47/29 48/58/29 47/59/30 40/48/30
f 49/57/31 38/46/31 41/49/32 46/54/32
f 41/49/1 40/48/1 43/60/1 42/61/1
f 46/54/32 41/49/32 42/61/33 45/53/33
f 45/53/5 44/52/5 47/55/5 46/54/5
f 40/48/30 47/59/30 44/62/34 43/60/34
g arm2 HayCouch hayCouchAll
f 50/46/35 51/49/35 52/48/35 53/47/35
f 54/50/36 55/53/36 56/52/36 57/51/36
f 58/54/37 59/57/37 60/56/37 61/55/37
f 53/47/38 52/48/39 61/59/39 60/58/38
f 59/57/40 58/54/41 51/49/41 50/46/40
f 51/49/42 54/61/42 57/60/42 52/48/42
f 58/54/41 55/53/43 54/61/43 51/49/41
f 55/53/44 58/54/44 61/55/44 56/52/44
f 52/48/39 57/60/45 56/62/45 61/59/39
g West_HayCouch_v1s5_shadow HayCouch hayCouchAll
f 62/63/3 63/64/3 64/65/3 65/66/3
g collision collisions hayCouchAll
f 66//1 67//1 68//1 69//1
f 70//5 71//5 72//5 73//5
f 73//46 72//46 67//46 66//46
f 67//8 72//8 71//8 68//8
f 73//9 66//9 69//9 70//9
