v 8.74664090623991 11.975 3.44112656143482
v 8.74664090623991 11.975 7.04839870956715
v 3.86805796093118 11.975 7.04839870956715
v 3.86805796093118 11.975 3.44112656143482
v -2.975 -1.23378879401264 7.38151502609253
v -2.975 -6.76992506358204 7.38151502609253
v -2.975 -6.76992506358204 0
v -2.975 -1.23378879401264 0
v 5 0 8.97966012320373
v 19 0 8.97966012320373
v 19 12 8.97966012320373
v -3 12 8.97966012320373
v -3 -8 8.97966012320373
v 5 -8 8.97966012320373
v 5 0 -5
v 19 0 -5
v 19 12 -5
v -3 12 -5
v -3 -8 -5
v 5 -8 -5
v 5 0 0
v 19 0 0
v 19 12 0
v -3 12 0
v -3 -8 0
v 5 -8 0
v 5 -8 9
v -3 -8 9
v -3 12 9
v 19 12 9
v 19 0 9
v 5 0 9
v 13.9958021620157 0 0.535025566061894
v 19 0 0.535025566061894
v 19 12 0.535025566061894
v 13.9958021620157 12 0.535025566061894
v 14.0801562374264 11 0
v 14.0801562374264 11 6.5
v 14.0801562374264 10 6.5
v 14.0801562374264 10 7.5
v 14.0801562374264 2 7.5
v 14.0801562374264 2 6.5
v 14.0801562374264 1 6.5
v 14.0801562374264 1 0
v 14.0801562374264 0 0
v 14.0801562374264 0 9
v 14.0801562374264 12 9
v 14.0801562374264 12 0
v 15 11 6.5
v 15 11 0
v 15 10 6.5
v 15 10 7.5
v 15 2 7.5
v 15 2 6.5
v 15 1 6.5
v 15 1 0
v 15 12 0
v 15 12 9
v 15 0 9
v 15 0 0
v 14 0 0
v 14 12 0
v 3.97978868437439 -1.00212190970807 -0.020339876796271
v 5 -1.00212190970807 -0.020339876796271
v 5 -1.00212190970807 8.97966012320373
v -3 -1.00212190970807 8.97966012320373
v -3 -1.00212190970807 -0.020339876796271
v -1.96449263834051 -1.00212190970807 -0.020339876796271
v -2 -1.00212190970807 6.97966012320373
v -1 -1.00212190970807 6.97966012320373
v -1 -1.00212190970807 7.97966012320373
v 3 -1.00212190970807 7.97966012320373
v 3 -1.00212190970807 6.97966012320373
v 4 -1.00212190970807 6.97966012320373
v 4 0 6.97966012320373
v 3 0 6.97966012320373
v 3 0 7.97966012320373
v -1 0 7.97966012320373
v -1 0 6.97966012320373
v -2 0 6.97966012320373
v -1.96449263834051 0 -0.020339876796271
v 3.97978868437439 0 -0.020339876796271
v -3 0 -0.020339876796271
v -3 0 8.97966012320373
v 5 0 -0.020339876796271
v 5 -8 2.5
v -3 -8 2.5
v -3 -8 8.19999980926514
v 5 -8 8.19999980926514
v 19 12 8.19999980926514
v 19 12 2.5
v 19 0 2.5
v 19 0 8.19999980926514
v -3 12 8.19999980926514
v -3 12 2.5
v 5 0 2.5
v 5 0 8.19999980926514
v -2.975 1.27904753055291 3.70000004768372
v -2.975 3.22904745902734 3.70000004768372
v -2.975 3.22904745902734 6.29999995231628
v -2.975 1.27904753055291 6.29999995231628
v -2.975 3.77904753055291 3.70000004768372
v -2.975 5.72904745902734 3.70000004768372
v -2.975 5.72904745902734 6.29999995231628
v -2.975 3.77904753055291 6.29999995231628
v -2.975 6.27904753055291 3.70000004768372
v -2.975 8.22904745902734 3.70000004768372
v -2.975 8.22904745902734 6.29999995231628
v -2.975 6.27904753055291 6.29999995231628
v -2.975 8.77904753055291 3.70000004768372
v -2.975 10.7290474590273 3.70000004768372
v -2.975 10.7290474590273 6.29999995231628
v -2.975 8.77904753055291 6.29999995231628
vt 1 0
vt 1 1
vt 0 1
vt 0 0
vt 1.8601142168045 0
vt 1.8601142168045 -2.126380443573
vt 4.65028524398804 -2.126380443573
vt 4.65028524398804 1.21507453918457
vt 0 1.21507453918457
vt 6.03639125823975 2.99773025512695
vt 0.0889164954423904 3.01443982124329
vt 5.94747495651245 -0.0167094524949789
vt 0.12178173661232 -0.000837202416732907
vt 0.124455995857716 0.725522935390472
vt 0.246237739920616 0.724685728549957
vt 0.246649160981178 0.836433470249176
vt 1.22090303897858 0.829735815525055
vt 1.22049164772034 0.717988133430481
vt 1.34227335453033 0.717150926589966
vt 1.33959913253784 -0.00920922681689263
vt 1.46138083934784 -0.0100464290007949
vt 1.46508371829987 0.995683014392853
vt 0.00370282283984125 1.00572943687439
vt -0.0394865646958351 0.867821156978607
vt 0.296586811542511 0.865539371967316
vt 0.336073398590088 -0.00228176335804164
vt -0.00659491308033466 0.990066468715668
vt 0.221263125538826 0.992315053939819
vt 0.22043876349926 1.11607336997986
vt -0.00741927698254585 1.11382472515106
vt -0.045561421662569 1.00133204460144
vt 0.290511965751648 0.999050319194794
vt 0.227858036756516 0.0022486075758934
vt 0.000824364135041833 -0.123758308589458
vt 0.228682398796082 -0.121509701013565
vt 1 3.50439763069153
vt 0 3.50439763069153
vt 1.14616656303406 0
vt 1.14914464950562 1
vt 0.00297811231575906 1
vt 0.14835798740387 0
vt 0.145587116479874 0.777777791023254
vt 0.288857936859131 0.777777791023254
vt 0.289188832044601 0.888888895511627
vt 0.862272083759308 0.888888895511627
vt 0.861941158771515 0.777777791023254
vt 1.00521194934845 0.777777791023254
vt 0.464130640029907 0.996559679508209
vt 0.0117689287289977 0.992290258407593
vt 0.00980744045227766 0.826908588409424
vt 0.462169140577316 0.831177949905396
vt 0.0383221805095673 0.881439685821533
vt 0.258891552686691 0.877316474914551
vt 0.2643683552742 1.00328731536865
vt 0.043798990547657 1.00741052627563
vt 0.0019614880438894 0.165381714701653
vt 0.454323202371597 0.169651120901108
vt 0.549332499504089 0.916603922843933
vt 0.163868188858032 0.899514555931091
vt 0.163983330130577 0.787986636161804
vt 0.549447655677795 0.805076062679291
vt 0.452361702919006 0.00426940014585853
vt 0.378591686487198 0.797516047954559
vt -0.00687263673171401 0.780426681041718
vt 0.385464310646057 0.0170894004404545
vt 0.220569357275963 -0.00412322115153074
vt 0.258907347917557 0.87768018245697
vt 0.0383379943668842 0.881803452968597
vt 0.20381261408329 0.782299876213074
vt 0.348671168088913 0.781113803386688
vt 0.357093185186386 0.893040359020233
vt 0.936527371406555 0.888296127319336
vt 0.928105413913727 0.776369512081146
vt 1.07296395301819 0.775183498859406
vt 1.00886631011963 -0.0082603320479393
vt 1.15886843204498 -0.00948850996792316
vt 1.23466646671295 0.99785053730011
vt 0.0757980793714523 1.0073390007019
vt 0.14778633415699 -0.00121003563981503
vt -9.53816852415912e-05 0.0909663289785385
vt 1.597540974617 0.0924057215452195
vt 1.59648859500885 1.09605300426483
vt -0.00114774412941188 1.0946136713028
vt 0.00239507644437253 1.09761679172516
vt 0.000206312106456608 0.0945441424846649
vt 2.43894743919373 0.0899581834673882
vt 2.44113612174988 1.09303081035614
vt 1.59648716449738 1.09738159179688
vt 1.59754073619843 0.0926328301429749
vt -2.79595923423767 0.0886751934885979
vt -2.79701280593872 1.09342396259308
vt -0.0036661250051111 1.08354997634888
vt -0.000279941741609946 0.0827388018369675
vt 4.01739501953125 0.0944355428218842
vt 4.01400899887085 1.09524667263031
vt 2.78973245620728 0.0881369113922119
vt 2.78935623168945 1.08522713184357
vt -0.000409160507842898 1.08433401584625
vt -3.29204121953808e-05 0.0872438028454781
vt 1.59703528881073 0.0981798395514488
vt 1.59488451480865 1.0937374830246
vt -0.0023565930314362 1.09080708026886
vt -0.000205778080271557 0.0952494814991951
vt 1.89842247962952 0
vt 1.89842247962952 0.985505402088165
vt 0 0.985505402088165
vt 1.46001279354095 0
vt 1.45111358165741 0.987468302249908
vt -0.00889921747148037 0.987468302249908
vt 3.40942168235779 -0.022089870646596
vt 3.41906666755676 0.958164274692535
vt 0.00964505132287741 0.980254113674164
vt 2.315514087677 0.0135292643681169
vt 2.30563306808472 1.00168108940125
vt -0.00988096557557583 0.988151848316193
vt 2.3028256893158 -0.0394346415996552
vt 2.29049515724182 0.959269642829895
vt -0.0123305581510067 0.998704314231873
vt 3.84591197967529 0.0385874733328819
vt 3.8422999382019 1.03979933261871
vt -0.00361194484867156 1.00121188163757
vt 16.0551776885986 0
vt 16.0517292022705 1
vt -0.0034485578071326 1
vt 23.9825649261475 1.01258325576782
vt -0.0174353178590536 1.01258325576782
vt 24 0
vt 15.9693841934204 0
vt 15.9712982177734 1
vt 0.00191347836516798 1
vt 27.0670261383057 0.0254566390067339
vt 27.1003456115723 1.02454745769501
vt 0.0333205163478851 0.999090850353241
vt 39.1064453125 0.998127698898315
vt -0.014309486374259 0.998127698898315
vt 39.1207542419434 0
vt 44.478458404541 1.02047049999237
vt 0.0218914728611708 1.02047049999237
vt 44.4565658569336 0
vt 1 1.015625
vt 0 1.015625
vn 0 -1 0
vn 1 0 0
vn 0 0 1
vn 0 1 0
vn -1 0 0
vn 0 0 -1
vn -0.999969221161353 0 -0.00784580970697213
vn 0.99998713522038 0 0.00507241498072951
vn -0.999995831686478 0 0.00288731876835817
g g33 g2 g1
f 1/1/1 2/2/1 3/3/1 4/4/1
f 5/2/2 6/3/2 7/4/2 8/1/2
g collision_wall g2 g1
f 9//3 10//3 11//3 12//3 13//3 14//3
f 15//4 9//4 10//4 16//4
f 16//5 10//5 11//5 17//5
f 17//1 11//1 12//1 18//1
f 18//2 12//2 13//2 19//2
f 19//4 13//4 14//4 20//4
f 20//5 14//5 9//5 15//5
g floor g2 g1
f 21/5/3 22/6/3 23/7/3 24/8/3 25/9/3 26/4/3
g ceiling g2 g1
f 27//6 28//6 29//6 30//6 31//6 32//6
g arch2 g2 g1
f 33/10/3 34/11/3 35/4/3 36/12/3
f 37/13/5 38/14/5 39/15/5 40/16/5 41/17/5 42/18/5 43/19/5 44/20/5 45/21/5 46/22/5 47/23/5 48/4/5
f 49/24/1 38/25/1 37/26/1 50/4/1
f 51/27/6 39/28/6 38/29/6 49/30/6
f 52/31/1 40/32/1 39/25/1 51/24/1
f 53/4/6 41/33/6 40/28/6 52/27/6
f 54/24/4 42/25/4 41/32/4 53/31/4
f 55/34/6 43/35/6 42/33/6 54/4/6
f 56/4/4 44/26/4 43/25/4 55/24/4
f 57/4/2 58/23/2 59/22/2 60/21/2 56/20/2 55/19/2 54/18/2 53/17/2 52/16/2 51/15/2 49/14/2 50/13/2
f 61/36/7 33/37/7 36/4/7 62/1/7
g arch g2 g1
f 63/1/1 64/38/1 65/39/1 66/40/1 67/4/1 68/41/1 69/42/1 70/43/1 71/44/1 72/45/1 73/46/1 74/47/1
f 75/48/6 74/49/6 73/50/6 76/51/6
f 76/52/5 73/53/5 72/54/5 77/55/5
f 77/51/6 72/50/6 71/56/6 78/57/6
f 78/58/2 71/59/2 70/60/2 79/61/2
f 79/57/6 70/56/6 69/4/6 80/62/6
f 80/63/8 69/64/8 68/4/8 81/65/8
f 82/4/9 63/66/9 74/67/9 75/68/9
f 75/69/4 76/70/4 77/71/4 78/72/4 79/73/4 80/74/4 81/75/4 83/76/4 84/77/4 9/78/4 85/4/4 82/79/4
g top_wall wall g2 g1
f 86/80/4 87/81/4 88/82/4 89/83/4
f 90/84/5 91/85/5 92/86/5 93/87/5
f 94/88/1 95/89/1 91/90/1 90/91/1
f 88/92/2 87/93/2 95/94/2 94/95/2
f 9//3 10//3 11//3 12//3 13//3 14//3
f 96/96/4 97/97/4 93/98/4 92/99/4
f 86/100/5 89/101/5 97/102/5 96/103/5
g low_wall wall g2 g1
f 26/104/5 86/105/5 96/106/5 21/4/5
f 25/107/4 87/108/4 86/109/4 26/4/4
f 23/110/1 91/111/1 95/112/1 24/4/1
f 21/113/4 96/114/4 92/115/4 22/4/4
f 22/116/5 92/117/5 91/118/5 23/4/5
f 24/119/2 95/120/2 87/121/2 25/4/2
g molding wall g2 g1
f 88/122/4 13/123/4 14/124/4 89/4/4
f 10/125/5 11/126/5 90/4/5 93/127/5
f 89/128/5 14/129/5 9/130/5 97/4/5
f 97/131/4 9/132/4 10/133/4 93/4/4
f 12/134/2 13/135/2 88/4/2 94/136/2
f 11/137/1 12/138/1 94/4/1 90/139/1
g trophy_wall g2 g1
f 98/4/2 99/1/2 100/140/2 101/141/2
f 102/4/2 103/1/2 104/140/2 105/141/2
f 106/4/2 107/1/2 108/140/2 109/141/2
f 110/4/2 111/1/2 112/140/2 113/141/2
