v 1.64456674175456 1.22124532708767e-15 1.1107425974317
v 1.52955678726845 -0.682963819869022 1.19431153943657
v 2.44121514739546 -0.920876990681082 1.19431153943657
v 2.50400621597066 -0.408269727508923 1.15210849407434
v 1.43411421433495 -1.24973062262148 1.07694982609065
v 2.37842407882026 -1.43348425385324 1.07694982609065
v 1.00550426106418 1.33226762955019e-15 0.93349446464078
v 0.903891386636377 -0.673788465617121 0.973025752340491
v 0.795410914625489 -1.39311553118075 0.855664038994578
v 0 0 0.885095394104662
v 0 -0.834747324694084 0.956729077110674
v 0 -1.41445223076758 0.855664038994578
v 4.34552809411002 -1.65623453396745 0.538474913045327
v 4.48208815498113 -0.402618934245117 0.538474913045327
v 3.02446011288259 -0.474443273180829 0.939380606965726
v 2.94894588589105 -1.16766069234194 0.939380606965726
v 2.55401661242613 1.33226762955019e-15 0.991409080885932
v 4.16372286474881 1.33226762955019e-15 0.538474913045327
v 0.274449600350464 -2.40803754371602 0
v 0.451071665428339 -2.06394746094964 0.317189125949251
v 0 -2.05672096871811 0.317189125949251
v 0 -2.41347261253645 0
v 1.69432253908005 -2.08928492167988 0
v 1.60610383567999 -1.80464994019175 0.538474913045327
v 3.79357585899875 -2.49777945818526 0
v 3.31379545503232 -2.13695033001249 0.538474913045327
v 5.06187754960129 -1.90683890466328 0
v 5.22974987379803 -0.365778048126974 0
v 4.94051599891609 1.33226762955019e-15 0
vt 1.97508466243744 1.18115103244781
vt 1.92872583866119 0.936608135700226
vt 2.32132935523987 0.825500309467316
vt 2.35307002067566 1.04688405990601
vt 1.88236713409424 0.692065179347992
vt 2.28958892822266 0.604116559028625
vt 1.70789647102356 1.23696422576904
vt 1.65791535377502 0.946139335632324
vt 1.78555345535278 1.23537075519562
vt 1.60455632209778 0.635658800601959
vt 1.27145552635193 1.19270217418671
vt 1.29711806774139 0.895013153553009
vt 1.32278048992157 0.597324192523956
vt 3.1392993927002 0.490196913480759
vt 3.2095627784729 1.03175687789917
vt 2.57782101631165 1.01360929012299
vt 2.53896713256836 0.714140474796295
vt 2.41960477828979 1.22236025333405
vt 3.07529830932617 1.2089056968689
vt 1.98458898067474 1.23128652572632
vt 2.19542336463928 1.22696030139923
vt 2.37835001945496 1.22320675849915
vt 1.36998081207275 0.200860276818275
vt 1.44950926303864 0.34827047586441
vt 1.254274725914 0.355406761169434
vt 1.2521835565567 0.253497660160065
vt 1.2582733631134 0.550281286239624
vt 1.98756968975067 0.326254814863205
vt 1.95190274715424 0.450275897979736
vt 2.89284610748291 0.130740121006966
vt 2.68832325935364 0.291229426860809
vt 3.4472279548645 0.375329434871674
vt 3.53360223770142 1.04106521606445
vt 3.41162347793579 1.20200431346893
vn -0.00423361541241405 0.226454823627337 0.974012468789004
vn -0.167495097310813 -0.0265656217049609 0.985514921307775
vn 0.174298920312652 -0.0671367620068915 0.982401415697816
vn 0.277332776516064 0.147150585814374 0.949438379340322
vn -0.174307006055933 -0.424051253078537 0.888705576893911
vn 0.111119831038648 -0.330480492156963 0.93724864761366
vn -0.214448483901316 0.11324234756672 0.970148451769112
vn -0.171297072689527 -0.0235733255318845 0.98493736410564
vn -0.0716206508226931 -0.443870688374807 0.893224100871337
vn -0.040441805110159 0.0757663137886399 0.996305137041014
vn -0.00990708795216338 -0.0683882552861734 0.997609591046127
vn 0.000731651159062848 -0.534909005791849 0.844909356208911
vn 0.344597432645322 -0.277220950737136 0.896884136266581
vn 0.390667969527852 0.117349882492997 0.913021107458018
vn 0.326674405229721 0.0976093492423347 0.940083106915711
vn 0.34090571452954 -0.0695818775584835 0.937518883071984
vn 0.291163187423953 0.270692775301644 0.917578018311586
vn 0.398595354017305 0.308033385330176 0.863850205346882
vn 0.0643300721445598 -0.689439882827072 0.721480623291623
vn 0.0428994153854836 -0.700360978465829 0.71249851929809
vn -0.00397952547451997 -0.659110721453081 0.752035384967088
vn 0.00575068734197579 -0.667646288995667 0.744456420742953
vn 0.0314084532985476 -0.838560504366067 0.543902371367069
vn -0.0612633361811766 -0.774126514635907 0.630059475746231
vn 0.0677131973047753 -0.799880111440985 0.596327703726668
vn 0.0489417008591246 -0.698842930256655 0.713598814984517
vn 0.469216680328549 -0.375823147637407 0.799119933803036
vn 0.569187820293112 0.178772206128252 0.80253705431339
vn 0.519433180257198 0.410734521214049 0.74932391149019
g snowpile_quarter prop_snow_pile_quarter
f 1/1/1 2/2/2 3/3/3 4/4/4
f 2/2/2 5/5/5 6/6/6 3/3/3
f 7/7/7 8/8/8 2/2/2 1/1/1 7/9/7
f 8/8/8 9/10/9 5/5/5 2/2/2
f 10/11/10 11/12/11 8/8/8 7/7/7
f 11/12/11 12/13/12 9/10/9 8/8/8
f 13/14/13 14/15/14 15/16/15 16/17/16 6/6/6
f 17/18/17 15/16/15 14/15/14 18/19/18
f 1/20/1 1/1/1 4/4/4 17/21/17
f 6/6/6 16/17/16 3/3/3
f 16/17/16 4/4/4 3/3/3
f 16/17/16 15/16/15 4/4/4
f 15/16/15 17/18/17 17/22/17 4/4/4
f 19/23/19 20/24/20 21/25/21 22/26/22
f 20/24/20 12/13/12 12/27/12 21/25/21
f 20/24/20 9/10/9 12/13/12
f 23/28/23 20/24/20 19/23/19
f 23/28/23 24/29/24 20/24/20
f 24/29/24 9/10/9 20/24/20
f 24/29/24 5/5/5 9/10/9
f 25/30/25 26/31/26 24/29/24 23/28/23
f 26/31/26 6/6/6 5/5/5 24/29/24
f 27/32/27 13/14/13 26/31/26 25/30/25
f 13/14/13 6/6/6 26/31/26
f 28/33/28 14/15/14 13/14/13 27/32/27
f 18/19/18 14/15/14 28/33/28 29/34/29
g snowpile_quarter_floor prop_snow_pile_quarter
f 1/1/1 3/3/3 4/4/4
f 1/1/1 2/2/2 3/3/3
f 2/2/2 6/6/6 3/3/3
f 2/2/2 5/5/5 6/6/6
f 7/9/7 2/2/2 1/1/1
f 7/7/7 8/8/8 2/2/2
f 8/8/8 5/5/5 2/2/2
f 8/8/8 9/10/9 5/5/5
f 10/11/10 8/8/8 7/7/7
f 10/11/10 11/12/11 8/8/8
f 11/12/11 9/10/9 8/8/8
f 11/12/11 12/13/12 9/10/9
f 16/17/16 6/6/6 13/14/13
f 16/17/16 14/15/14 15/16/15
f 16/17/16 13/14/13 14/15/14
f 17/18/17 14/15/14 18/19/18
f 17/18/17 15/16/15 14/15/14
f 1/20/1 1/1/1 4/4/4 17/21/17
f 6/6/6 16/17/16 3/3/3
f 16/17/16 4/4/4 3/3/3
f 16/17/16 15/16/15 4/4/4
f 15/16/15 17/18/17 17/22/17 4/4/4
f 19/23/19 21/25/21 22/26/22
f 19/23/19 20/24/20 21/25/21
f 20/24/20 12/13/12 12/27/12 21/25/21
f 20/24/20 9/10/9 12/13/12
f 23/28/23 20/24/20 19/23/19
f 23/28/23 24/29/24 20/24/20
f 24/29/24 9/10/9 20/24/20
f 24/29/24 5/5/5 9/10/9
f 25/30/25 26/31/26 24/29/24 23/28/23
f 26/31/26 6/6/6 5/5/5 24/29/24
f 27/32/27 13/14/13 26/31/26 25/30/25
f 13/14/13 6/6/6 26/31/26
f 28/33/28 14/15/14 13/14/13 27/32/27
f 18/19/18 14/15/14 28/33/28 29/34/29
