v -0.143390612901637 0.562049180269241 0.025
v -11.242834751134 0.562049180269241 0.025
v -11.242834751134 -1.56204918026924 0.025
v -0.143390612901637 -1.56204918026924 0.025
v -1.09285873729321 -1.19213461875916 0.927215828407046
v -0.975950112556054 -1.19213461875916 1.56807863697533
v -10.4005673906909 -1.19213461875916 1.57069357772744
v -10.2738071419397 -1.19213461875916 0.927215828407046
v -10.0900581810368 -1.19213461875916 0.264918808116299
v -1.28645932221014 -1.19213461875916 0.264918808116299
v -1.10217204264617 -1.19213461875916 1.58905382616045
v -10.2743454606008 -1.19213461875916 1.59166876691255
v -0.838306891449326 -1.19213461875916 1.66424646941423
v -0.777541196743528 -1.19213461875916 1.90741541843735
v -2.58680133677503 -1.19213461875916 1.99242022025264
v -4.39606147680653 -1.19213461875916 2.02859059904986
v -6.33032165456229 -1.19213461875916 2.01824715646121
v -8.03269993680986 -1.19213461875916 2.02170875314178
v -10.5810628951142 -1.19213461875916 1.90741541843735
v -10.5382106117976 -1.19213461875916 1.66686141016633
v -1.10217204264617 -1.19213461875916 1.66424646941423
v -10.2743454606008 -1.19213461875916 1.66686141016633
v -10.0171030972663 -1.19213461875916 0
v -1.37135677247978 -1.19213461875916 0
v -1.3936643693426 -1.19213461875916 0.158951284869779
v -10 -1.19213461875916 0.158951284869779
v -1.4734952257822 -1.19213461875916 0.158951284869779
v -1.4734952257822 -1.19213461875916 0.264918808116299
v -9.91496464396385 -1.19213461875916 0.264918808116299
v -9.91496464396385 -1.19213461875916 0.158951284869779
v -10.5382106117976 0.132459402084351 1.66686141016633
v -7.99219466530049 0.132459402084351 1.66496920441969
v -6.29216339486017 0.132459402084351 1.66307699867305
v -4.36025022891164 0.132459402084351 1.66118479292642
v -4.36025022891164 -0.0662297010421752 1.66118479292642
v -10.2743454606008 -0.0662297010421751 1.66603028954262
v -10.5810628951142 0.132459402084351 1.90741541843735
v -8.03269993680986 0.132459402084351 2.02170875314178
v -6.33032165456229 0.132459402084351 2.01824715646121
v -4.39606147680653 0.132459402084351 2.02859059904986
v -2.58680133677503 0.132459402084351 1.99242022025264
v -2.63443455910239 0.132459402084351 1.66125159561202
v -2.63619970253771 -0.0662297010421752 1.65346954683362
v -1.10217204264616 -0.0662297010421751 1.66266480988
v -0.838306891449326 0.132459402084351 1.66424646941423
v -0.777541196743528 0.132459402084351 1.90741541843735
v -4.34186744579515 -0.0662297010421752 1.58951284869779
v -10.2743454606008 -0.0662297010421751 1.56089388691981
v -2.65975314915126 -0.0662297010421752 1.58579024564692
v -1.10217204264617 -0.0662297010421753 1.55827894616771
v -4.34186744579515 0.0662297010421754 1.567737181539
v -10.4005673906909 0.0662297010421755 1.53911821976102
v -2.6589087791756 0.0662297010421754 1.567737181539
v -0.975950112556054 0.0662297010421753 1.53650327900891
v -10.2738071419397 0.0950905023281228 0.927215828407046
v -1.09285873729321 0.0950905023281226 0.927215828407046
v -1.28645932221014 0.0662297010421753 0.264918808116299
v -10.0900581810368 0.0662297010421755 0.264918808116299
v -10 2.02763281770011e-16 0.158951284869779
v -1.3936643693426 0 0.158951284869779
v -1.37135677247978 0 0
v -10.0171030972663 2.02763281770011e-16 0
v -9.91496464396385 -0.13245940208435 0.264918808116299
v -1.4734952257822 -0.132459402084351 0.264918808116299
v -1.4734952257822 -0.132459402084351 0.158951284869779
v -9.91496464396385 -0.13245940208435 0.158951284869779
v -10.4005673906909 -0.0662297010421751 1.5399186977347
v -1.02359310632593 -0.0305643404161036 1.53650327900891
v -1.02359310632593 -0.0305643404161036 1.66424646941423
v -1.09626370623044 -0.0305643404161036 1.66424646941423
v -1.09626370623044 -0.0305643404161036 1.53650327900891
v -1.02359310632593 0.0305643404161036 1.53650327900891
v -1.02359310632593 0.0305643404161036 1.66424646941423
v -1.09626370623044 0.0305643404161036 1.53650327900891
v -1.09626370623044 0.0305643404161036 1.66424646941423
v -2.62233252301571 -0.0305643404161036 1.57984422395942
v -2.62257347922334 -0.0305643404161036 1.66424646941423
v -2.69524407912786 -0.0305643404161036 1.66424646941423
v -2.69500222882377 -0.0305643404161036 1.58000504565215
v -2.62238839165618 0.0305643404161036 1.56979509638207
v -2.62257347922334 0.0305643404161036 1.66424646941423
v -2.69505809746424 0.0305643404161036 1.5699559180748
v -2.69524407912786 0.0305643404161036 1.66424646941423
v -4.30527048349856 -0.0305643404161036 1.58356864981956
v -4.30553214584289 -0.0305643404161036 1.66424646941423
v -4.37820274574741 -0.0305643404161036 1.66424646941423
v -4.37794018930662 -0.0305643404161036 1.58372947151229
v -4.30532635213903 0.0305643404161036 1.57351952224221
v -4.30553214584289 0.0305643404161036 1.66424646941423
v -4.37799605794709 0.0305643404161036 1.57368034393494
v -4.37820274574741 0.0305643404161036 1.66424646941423
v -10.2700754204857 -0.0305643404161036 1.53650327900891
v -10.2700754204857 -0.0305643404161036 1.66424646941423
v -10.3427460203902 -0.0305643404161036 1.66424646941423
v -10.3427460203902 -0.0305643404161036 1.53650327900891
v -10.2700754204857 0.0305643404161036 1.53650327900891
v -10.2700754204857 0.0305643404161036 1.66424646941423
v -10.3427460203902 0.0305643404161036 1.53650327900891
v -10.3427460203902 0.0305643404161036 1.66424646941423
v -6.05036193828286 -0.0305643404161036 1.58356864981956
v -6.05062360062719 -0.0305643404161036 1.66424646941423
v -6.12329420053171 -0.0305643404161036 1.66424646941423
v -6.12303164409092 -0.0305643404161036 1.58372947151229
v -6.05041780692333 0.0305643404161036 1.57351952224221
v -6.05062360062719 0.0305643404161036 1.66424646941423
v -6.12308751273139 0.0305643404161036 1.57368034393494
v -6.12329420053171 0.0305643404161036 1.66424646941423
v -6.65377530519329 -0.0305643404161036 1.58356864981956
v -6.65403696753762 -0.0305643404161036 1.66424646941423
v -6.72670756744214 -0.0305643404161036 1.66424646941423
v -6.72644501100135 -0.0305643404161036 1.58372947151229
v -6.65383117383376 0.0305643404161036 1.57351952224221
v -6.65403696753762 0.0305643404161036 1.66424646941423
v -6.72650087964182 0.0305643404161036 1.57368034393494
v -6.72670756744214 0.0305643404161036 1.66424646941423
v -8.60662455242976 -0.0305643404161036 1.58356864981956
v -8.60688621477409 -0.0305643404161036 1.66424646941423
v -8.67955681467861 -0.0305643404161036 1.66424646941423
v -8.67929425823782 -0.0305643404161036 1.58372947151229
v -8.60668042107023 0.0305643404161036 1.57351952224221
v -8.60688621477409 0.0305643404161036 1.66424646941423
v -8.67935012687829 0.0305643404161036 1.57368034393494
v -8.67955681467861 0.0305643404161036 1.66424646941423
vt 0 0
vt 1 0
vt 1 1
vt 0 1
vt 0.962241172790527 -0.151683643460274
vt 0.973556518554688 -0.248518705368042
vt 0.0104815736413002 -0.219430521130562
vt 0.0220136363059282 -0.122901171445847
vt 0.038879182189703 -0.0237016566097736
vt 0.943722546100616 -0.0514009445905685
vt 0.963445663452148 0.177903980016708
vt 0.940190851688385 0.166907325387001
vt 0.0565088130533695 0.165536388754845
vt 0.0332540161907673 0.176533043384552
vt 0.930281817913055 -0.0605255514383316
vt 0.935134768486023 -0.0965191349387169
vt 0.780699849128723 -0.103344708681107
vt 0.626331150531769 -0.102980241179466
vt 0.461363792419434 -0.0953742936253548
vt 0.243998229503632 -0.0878696143627167
vt 0.0267924815416336 -0.0630275309085846
vt 0.0307740084826946 -0.0277448203414679
vt 0.940190851688385 0.12748609483242
vt 0.0565088130533695 0.126115158200264
vt 0.026598522439599 -0.0627042800188065
vt 0.913039445877075 -0.0866644680500031
vt 0.910782992839813 -0.112232536077499
vt 0.0280226413160563 -0.0883718356490135
vt 0.871779263019562 0.916666686534882
vt 0.871779263019562 0.861111104488373
vt 0.122720189392567 0.861111104488373
vt 0.122720189392567 0.916666686534882
vt 0.887167274951935 0.999995589256287
vt 0.774334609508514 0.999991178512573
vt 0.661501884460449 0.99998676776886
vt 0.661501884460449 0.849987685680389
vt 0.950440049171448 0.849998950958252
vt 1.18758451938629 -0.0150070087984204
vt 0.948290467262268 0.00351876579225063
vt 0.944487035274506 -0.054305050522089
vt 1.1835606098175 -0.0539983436465263
vt 0.708996474742889 0.00295767653733492
vt 0.705413401126862 -0.0546117573976517
vt 0.527367413043976 0.00463424250483513
vt 0.524004697799683 -0.0549184642732143
vt 0.357475936412811 -0.00122860434930772
vt 0.361948758363724 -0.0549076348543167
vt 0.33735403418541 0.999986946582794
vt 0.33768555521965 0.849969744682312
vt 0.0432117879390717 0.869207382202148
vt 0.0495599359273911 0.849991142749786
vt 0 0.999993920326233
vt 0.187584489583969 -0.0150070087984204
vt 0.193290457129478 -0.0544221960008144
vt 1.00003027915955 0.0700339153409004
vt 0.67930006980896 0.0668365284800529
vt 0.6754469871521 0.0194751769304276
vt 0.319853752851486 0.0623587220907211
vt 0.324745059013367 0.0176209975033998
vt 3.02584176097298e-05 0.0700339153409004
vt 0.975959539413452 0.978394150733948
vt 0.667003333568573 1
vt 0.667003333568573 0.983560502529144
vt 1.00101006031036 0.961954653263092
vt 0.333164244890213 0.99718964099884
vt 0.332996666431427 0.983560502529144
vt 0.0240404866635799 0.976420044898987
vt -0.00101002061273903 0.959980487823486
vt 0.896286249160767 0.384779542684555
vt 0.362954258918762 0.391934305429459
vt 0.886494994163513 0.231803953647614
vt 0.232959091663361 0.391934305429459
vt 0.111994169652462 0.231803953647614
vt 0.102963909506798 0.384125828742981
vt 0.126948282122612 0.0662297010421753
vt 0.872301876544952 0.0662297010421753
vt 1.08936405181885 0.210768029093742
vt 0.093516118824482 0.210768029093742
vt 0.0911659076809883 0.181860983371735
vt 1.09116590023041 0.181860983371735
vt 1 0.0826206654310226
vt 0 0.0826206654310226
vt 0.0422407239675522 0.842105269432068
vt 0.960456371307373 0.842105269432068
vt 0.0201000962406397 0.888888895511627
vt 0.981130123138428 0.888888895511627
vt 0.435239732265472 -0.00698207272216678
vt 0.435675948858261 0.101679809391499
vt 0.00119292084127665 0.108661882579327
vt 0.000756706460379064 0
vt 0.365405023097992 0.0213591605424881
vt 0.366988450288773 0.156854152679443
vt 0.0421839766204357 0.137868225574493
vt 0.00158341799397022 0.135494992136955
vt 0.402338057756424 0.0253698285669088
vt 0.402426600456238 0.0925383269786835
vt 0.000124760394101031 0.0946592539548874
vt 0.570830821990967 -0.356009721755981
vt 0.569175183773041 -0.499458104372025
vt 0.443757206201553 -0.48680379986763
vt 0.42899489402771 -0.485943734645844
vt 0.427352339029312 -0.349385797977448
vt 0.57253485918045 -0.208365991711617
vt 0.432273328304291 -0.201890617609024
vt 0.5 0
vt 0.5 0.228436574339867
vt 0 0.228436574339867
vt 0.0750000029802322 0
vt 0.0702222064137459 1.00266563892365
vt 0.0705115869641304 1.01916062831879
vt 0.0351234413683414 1.00203609466553
vt 0.369181782007217 1.04336214065552
vt 0.368892401456833 1.02686715126038
vt 0.960456371307373 0
vt 1 0.842105269432068
vt 0 0.888888895511627
vt 0.0201000962406397 0
vt 1 0.85000091791153
vt 0.950440049171448 6.08941400059848e-06
vt 1 6.08941400059848e-06
vt 0.000562246597837657 0
vt 0.000493905448820442 -0.0997744277119637
vt 0.399479418992996 -0.100868195295334
vt 0.399547755718231 -0.0010937659535557
vt -0.000387171574402601 -0.145202398300171
vt 0.0478249974548817 -0.145716607570648
vt 0.433522373437881 -0.149830341339111
vt 0.43390953540802 -0.00462795235216618
vt 0.00189160637091845 -0.0216627418994904
vt 0.00290152127854526 -0.131103813648224
vt 0.467632472515106 -0.113920718431473
vt 0.466915875673294 -0.0362633094191551
vt 0.956976711750031 0.297742873430252
vt 0.950690627098083 0.524969637393951
vt 0.71590930223465 0.533022046089172
vt 0.716858506202698 0.293929696083069
vt 0.952574014663696 0.0505684018135071
vt 0.717839479446411 0.0468407198786736
vt 0.962855815887451 0.572824060916901
vt 0.962495684623718 0.663545250892639
vt 0.715406715869904 0.65962141752243
vt 0.715766847133636 0.568900227546692
vt 0.0576923079788685 0.923639237880707
vt 0.0576923079788685 0.938865423202515
vt 0.384615391492844 0.961205244064331
vt 0.384615391492844 0.945979118347168
vt 0.0422407239675522 0
vt 0 0.842105269432068
vt 1 0.888888895511627
vt 0.981130123138428 0
vt 0.0495599359273911 0
vt 0 0.849994838237762
vt 0.795575499534607 0.315595358610153
vt 0.949681460857391 0.332708120346069
vt 0.939592838287354 0.545157432556152
vt 0.785486876964569 0.528044700622559
vt 0.641469538211823 0.298482596874237
vt 0.631380915641785 0.51093202829361
vt 0.0425972975790501 0.231980532407761
vt 0.259657114744186 0.256084024906158
vt 0.249568536877632 0.46853318810463
vt 0.0325086638331413 0.444429665803909
vt 0.476717084646225 0.280187517404556
vt 0.466628462076187 0.492636978626251
vt 0.741741538047791 1.60545573635318e-06
vt 0.741741538047791 -0.999998867511749
vt 1.10066080093384 -0.999998867511749
vt 1.10066080093384 1.60396541559749e-06
vt 0.358918637037277 1.09461973352154e-06
vt 0.358919203281403 -0.999999403953552
vt -5.88144132507296e-07 5.89418164054223e-07
vt -1.68230940289504e-09 -0.99999988079071
vt -0.382822304964066 2.94709252557368e-07
vt -0.382822304964066 -1.00000023841858
vt 0.961697638034821 -0.303876429796219
vt 0.781835377216339 -1.17919552326202
vt 1.25715363025665 -1.27775704860687
vt 1.43666362762451 -0.404103726148605
vt 0.47595027089119 -0.09544737637043
vt 0.274673670530319 -1.07498323917389
vt 7.50998481180432e-07 6.61341346130939e-07
vt -0.200941756367683 -0.977865695953369
vt -0.528576552867889 3.50962608308691e-07
vt -0.708102464675903 -0.873649716377258
vt 1.00119566917419 -0.316254109144211
vt 0.822213113307953 -1.18729603290558
vt 1.31701850891113 -1.29002451896667
vt 1.49563431739807 -0.420718163251877
vt 0.495507210493088 -0.0992712825536729
vt 0.294231712818146 -1.07880663871765
vt -3.913152113455e-07 -9.93892513179162e-07
vt -0.200927734375 -0.977798402309418
vt -0.550275266170502 -5.57814189505734e-07
vt -0.728907644748688 -0.869303464889526
vt 0.741741597652435 1.1846010465888e-06
vt 0.741741538047791 -0.999999284744263
vt 1.10066080093384 -0.999999344348907
vt 1.10066080093384 1.17326260351547e-06
vt 0.358919203281403 8.90535773123702e-07
vt 0.358919203281403 -0.999999582767487
vt -1.95359426413688e-08 5.89418505114736e-07
vn 0 0 1
vn 0 -1 0
vn -0.00128637777920774 0.00107092267011861 -0.999998599177441
vn -0.000870164496754634 0.00248100635173512 -0.999996543704643
vn -0.00154343668847271 0.0110356702903446 -0.999937913964878
vn 0 1 0
vn 0.00181360979420036 0.0214750138778088 -0.999767740326953
vn 0.0018865624597551 0.0293379648861161 -0.999567768937367
vn 0.00422234344115168 0.0208202679462625 -0.999774318663223
vn 0.00245374553187978 0.00255029668717367 -0.999993737540227
vn -0.111410220950412 0.0646482559838126 0.991669484085314
vn -0.001808943433736 0.154352390966883 0.988014203909266
vn -0.0848411228922519 0.0835094244679513 0.992888795329776
vn 0.00952047683214396 0.144453611750482 0.989465772310053
vn 0.0861754186079233 0.0833574106779824 0.992786653472342
vn -0.000222328071972484 0.998891692758546 0.0470673635143877
vn -0.000111164095463851 0.998939589879876 0.0460400196912436
vn -7.41755432469284e-05 0.999868834326379 0.0161959451961456
vn 0.000437504026197216 0.99893765174498 0.0460801097704111
vn 0.000291929906468173 0.999868360621817 0.0162227064440156
vn 0.000875007469066685 0.998887553549114 0.0471475315005543
vn 0 0.999051880268903 -0.0435355088539203
vn 0 0 -1
vn -1 0 0
vn -0.994260947156832 0 0.106982096440473
vn -0.972473521356674 -0.00123114460206539 -0.233010159742272
vn -0.980121375505484 -0.00246073918879109 -0.198383552846203
vn -0.963601319659233 0 -0.267343406036103
vn -0.984500997824499 0 -0.175378976170366
vn -0.163906834118943 0.0164585269294676 0.986338515227109
vn -0.163869479328853 0.0269539026817501 0.98611372613645
vn -0.00170258828106046 -0.00033916332637618 -0.999998493079556
vn 1 0 0
vn 0.990295139398829 0 0.13898034711086
vn 0.972590462300148 -0.00114191703546968 -0.232522017598912
vn 0.982943458222987 -0.00228100990579148 -0.183893868659192
vn 0.959832076141882 0 -0.280575097984771
vn 0.970167411826401 0 -0.242435956553607
vn 0.153724138493158 0.0258310071245918 0.987776112444245
vn 0.0032400884690282 -0.000645440354039118 -0.99999454260184
vn 0.0334626533313572 0 0.999439968598427
vn 0.0469314137564492 0 0.99889811412517
vn 0.00732078555754345 0 0.999973202690362
vn -0.0448046684826015 0 0.99899576659872
vn -0.0213915116037727 0 0.999771175435312
vn -0.00165702728701295 0 0.999998627129343
vn 0.99999694980223 0.000652772397844379 0.00238207355760528
vn -0.999996914849832 -0.00065394841047548 -0.00239638108265609
vn 0.999996049220573 0.000681139751857218 0.00272719487447049
vn -0.9999960057383 -0.000682420293068792 -0.00274277414131467
g shadow g2
f 1/1/1 2/2/1 3/3/1 4/4/1
g o2 g2
f 5/5/2 6/6/2 7/7/2 8/8/2 9/9/2 10/10/2
f 6/11/2 11/12/2 12/13/2 7/14/2
f 13/15/2 14/16/2 15/17/2 16/18/2 17/19/2 18/20/2 19/21/2 20/22/2
f 11/12/2 21/23/2 22/24/2 12/13/2
f 23/25/2 24/26/2 25/27/2 26/28/2
f 27/29/2 28/30/2 29/31/2 30/32/2
g o4 g2
f 31/3/3 32/33/4 33/34/4 34/35/5 35/36/5 36/37/3
f 37/38/6 38/39/6 32/40/6 31/41/6
f 38/39/6 39/42/6 33/43/6 32/40/6
f 39/42/6 40/44/6 34/45/6 33/43/6
f 40/44/6 41/46/6 42/47/6 34/45/6
f 34/35/5 42/48/7 43/49/8 35/36/5
f 42/48/7 44/50/9 44/51/9 43/49/8
f 42/48/7 45/52/10 44/50/9
f 41/46/6 46/53/6 45/54/6 42/47/6
f 36/55/6 35/56/6 47/57/6 48/2/6
f 35/56/6 43/58/6 49/59/6 47/57/6
f 43/58/6 44/60/6 50/1/6 49/59/6
f 48/61/11 47/62/12 51/63/12 52/64/13
f 47/62/12 49/65/14 53/66/14 51/63/12
f 49/65/14 50/67/15 54/68/15 53/66/14
f 52/69/16 51/70/17 55/71/18
f 51/70/17 53/72/19 56/73/20 55/71/18
f 53/72/19 54/74/21 56/73/20
f 56/73/20 57/75/22 58/76/22 55/71/18
f 59/77/6 60/78/6 61/79/6 62/80/6
f 63/81/6 64/82/6 65/1/6 66/2/6
f 58/3/23 57/4/23 64/83/23 63/84/23
f 66/85/1 65/86/1 60/3/1 59/4/1
g o5 g2
f 30/87/24 29/88/24 63/89/24 66/90/24
f 23/91/25 26/92/25 59/93/25 59/94/25 62/1/25
f 12/95/24 22/96/24 36/97/24 48/1/24
f 8/98/26 7/99/27 67/100/27 52/101/27 55/102/26
f 9/103/28 8/98/26 55/102/26 58/104/28 58/104/28
f 20/105/29 19/106/29 37/107/29 31/1/29 31/108/29
f 67/109/30 48/110/11 52/111/13
f 12/112/31 48/110/11 67/109/30 7/113/31
f 29/114/23 9/2/23 58/115/23 63/84/23
f 66/85/1 59/116/1 26/1/1 30/117/1
f 31/118/3 36/37/3 22/119/32 20/120/32
g o6 g2
f 65/121/33 64/122/33 28/123/33 27/124/33
f 61/1/34 60/125/34 60/126/34 25/127/34 24/128/34
f 50/129/33 44/130/33 21/131/33 11/132/33
f 56/133/35 54/134/36 54/134/36 6/135/36 5/136/35
f 57/137/37 57/137/37 56/133/35 5/136/35 10/138/37
f 45/139/38 45/139/38 46/140/38 14/141/38 13/142/38
f 54/143/15 50/144/15 11/145/39 6/146/39
f 10/1/23 28/147/23 64/83/23 57/148/23
f 25/2/1 60/149/1 65/86/1 27/150/1
f 13/1/40 21/151/40 44/51/9 45/152/10
g o7 g2
f 15/153/41 14/154/42 46/155/42 41/156/41
f 16/157/43 15/153/41 41/156/41 40/158/43
f 19/159/44 18/160/45 38/161/45 37/162/44
f 18/160/45 17/163/46 39/164/46 38/161/45
f 17/163/46 16/157/43 40/158/43 39/164/46
g o3 g1 g2
f 68/165/2 69/166/2 70/167/2 71/168/2
f 72/169/33 73/170/33 69/166/33 68/165/33
f 74/171/6 75/172/6 73/170/6 72/169/6
f 71/173/24 70/174/24 75/172/24 74/171/24
g o3_1 g1 g2
f 76/175/2 77/176/2 78/177/2 79/178/2
f 80/179/47 81/180/47 77/176/47 76/175/47
f 82/181/6 83/182/6 81/180/6 80/179/6
f 79/183/48 78/184/48 83/182/48 82/181/48
g o3_2 g1 g2
f 84/185/2 85/186/2 86/187/2 87/188/2
f 88/189/49 89/190/49 85/186/49 84/185/49
f 90/191/6 91/192/6 89/190/6 88/189/6
f 87/193/50 86/194/50 91/192/50 90/191/50
g o3_3 g1 g2
f 92/195/2 93/196/2 94/197/2 95/198/2
f 96/199/33 97/200/33 93/196/33 92/195/33
f 98/201/6 99/172/6 97/200/6 96/199/6
f 95/173/24 94/174/24 99/172/24 98/201/24
g o3_4 g1 g2
f 100/185/2 101/186/2 102/187/2 103/188/2
f 104/189/49 105/190/49 101/186/49 100/185/49
f 106/191/6 107/192/6 105/190/6 104/189/6
f 103/193/50 102/194/50 107/192/50 106/191/50
g o3_5 g1 g2
f 108/185/2 109/186/2 110/187/2 111/188/2
f 112/189/49 113/190/49 109/186/49 108/185/49
f 114/191/6 115/192/6 113/190/6 112/189/6
f 111/193/50 110/194/50 115/192/50 114/191/50
g o3_6 g1 g2
f 116/185/2 117/186/2 118/187/2 119/188/2
f 120/189/49 121/190/49 117/186/49 116/185/49
f 122/191/6 123/192/6 121/190/6 120/189/6
f 119/193/50 118/194/50 123/192/50 122/191/50
