v 0.33548028516609 0.000882181370942563 0.210362328638171
v 0.287481453988977 0.0538270992893698 0.213681341630566
v 0.33548028516609 0.000882181370942563 0.227201108563841
v 0.246105228500225 0.000882181370942563 0.175389478023319
v 0.248911604386796 0.0806946692124037 0.22202453956908
v 0.269420460673918 0.000882181370942563 0.321757334300294
v 0.210790241407896 0.105191571201052 0.227152809824189
v 0.137300811689597 0.000882181370942563 0.372273674077306
v 0.204365475279068 0.0419737596174431 0.3470155041888
v 0.123153696403635 0.120768738206922 0.240579587137574
v 0.0803080219316477 0.000882181370942583 0.334710241935429
v 0.165797206568568 0.000882181370942583 0.146893081226029
v 0.0592201009527189 0.12904749850329 0.249678296780096
v 0 0.000882181370942583 0.0727053328998934
v -0.0652256953377807 0.097436234092215 0.26738880029071
v -0.0828986032842818 0.000882181370942583 0.346075310558419
v -0.023315232173704 0.000882181370942583 0.0804770774809782
v -0.100172994228162 0.097436234092215 0.272362325135533
v -0.130824358308006 0.000882181370942583 0.0950814506855053
v -0.204907787183233 0.0761779377815613 0.287267657204638
v -0.187817148065941 0.000882181370942582 0.358698035675246
v -0.224085287002817 0.000882181370942582 0.183161222604396
v -0.239490328366405 0.0683797913502651 0.292538290251519
v -0.255172263234416 0.000882181370942582 0.352221581857677
v -0.309454241598268 0.0390678806227184 0.304365499397735
v -0.31605092502131 0.000882181370942583 0.328579691399458
v -0.329003831784493 0.000882181370942583 0.284193902158414
v -0.347137901252931 0.000882181370942583 0.307509135901647
v -0.343252029223971 0.000882181370942583 0.323101022571298
v 0.228729706339143 0.0166866349839995 0.359968411823928
v 0.191703020094903 0.000882181370942563 0.398179489347562
v 0.209837089563334 0.000882181370942563 0.394293617057023
v 0.287481453988977 -0.0520627365474847 0.213681341630566
v 0.248911604386796 -0.0789303064705186 0.22202453956908
v 0.204365475279068 -0.040209396875558 0.3470155041888
v 0.210790241407896 -0.103427208459167 0.227152809824189
v 0.123153696403635 -0.119004375465037 0.240579587137574
v 0.0592201009527189 -0.127283135761405 0.249678296780096
v -0.0652256953377807 -0.0956718713503298 0.26738880029071
v -0.100172994228162 -0.0956718713503298 0.272362325135533
v -0.204907787183233 -0.0744135750396762 0.287267657204638
v -0.239490328366405 -0.0666154286083799 0.292538290251519
v -0.309454241598268 -0.0373035178808333 0.304365499397735
v 0.228729706339143 -0.0149222722421144 0.359968411823928
v -0.286526185022257 0.0202021511259076 0.312541239189009
v -0.47928948559227 0.117313945996236 0.373013293009571
v -0.47928948559227 -0.128184478366203 0.373013293009571
v -0.286526185022257 -0.0310726834958753 0.312541239189009
v -0.114032248222319 -0.0841271926821522 0.26128908793931
v -0.165552593222738 -0.382605924209935 0.267246578740574
v 0.0529318327975551 -0.344444259905019 0.241982404787064
v -0.00431299498069765 -0.0814013595175225 0.248601839010693
v 0.0500695914086339 -0.385331757374573 0.242313376498247
v -0.204669892204529 -0.623842159280273 0.271769858793385
v 0.0041897991069742 0.0957018638735795 0.248601839010693
v 0.061434626885227 0.358744764261076 0.241982404787064
v -0.157049799135067 0.396906428565992 0.267246578740574
v -0.105529454134647 0.0984276970382091 0.26128908793931
v 0.0585723854963058 0.39963226173063 0.242313376498247
v -0.196167098116857 0.638142663636329 0.271769858793385
vt 0.994986116886139 0.525905847549438
vt 0.961669564247131 0.534203350543976
vt 0.994986116886139 0.568002760410309
vt 0.867307424545288 0.438473701477051
vt 0.877919733524323 0.555061340332031
vt 0.90061491727829 0.804393351078033
vt 0.826441645622253 0.567882061004639
vt 0.711872577667236 0.930684208869934
vt 0.806243777275085 0.867538809776306
vt 0.691662430763245 0.601448953151703
vt 0.630454301834106 0.836775600910187
vt 0.752581715583801 0.367232710123062
vt 0.600328683853149 0.624195754528046
vt 0.515728533267975 0.0272188782691956
vt 0.422548979520798 0.668472051620483
vt 0.397301971912384 0.930684208869934
vt 0.482421070337296 0.0466482378542423
vt 0.372624278068542 0.680905818939209
vt 0.328836590051651 0.237703621387482
vt 0.223003134131432 0.718169152736664
vt 0.247418329119682 0.950113534927368
vt 0.195606708526611 0.457903057336807
vt 0.170096024870872 0.73134571313858
vt 0.151196733117104 0.933922410011292
vt 0.0513733737170696 0.760913729667664
vt 0.0642272159457207 0.8756343126297
vt 0.0457230657339096 0.710484743118286
vt 0.019817253574729 0.768772840499878
vt 0.0253684986382723 0.830299139022827
vt 0.845102429389954 0.899921059608459
vt 0.789590001106262 0.995448708534241
vt 0.815495789051056 0.985734045505524
vt 0.888888895511627 0
vt 1 1.01234567165375
vt 0 1.01234567165375
vt 0.111111111938953 0
vt 0.371552377939224 0.881437659263611
vt 0.160904318094254 0.415519714355469
vt 0.991325199604034 0.475089132785797
vt 0.787733912467957 0.885692656040192
vt 0.978377521038055 0.41126474738121
vt 0.000219285444472916 0.0389558896422386
vn 0.740865094997329 0.671653862502554 0
vn 0.658672175642075 0.692337078887488 0.294652904673406
vn 0.694246566800801 0.685444861128453 0.219515482000468
vn 0.364399369853746 0 -0.931242771381444
vn 0.236767220800124 0 -0.971566406971024
vn 0.250960378821872 0.430812051199553 -0.866844775494907
vn 0.573888357499293 0.697878476694598 0.428506458403127
vn 0.618106091034826 0.649627682249566 0.442638379132113
vn 0.179629270586472 0.491576489259721 -0.852106730612814
vn 0.067619744403458 0.830054020378946 0.553568327688244
vn -0.148868683536767 0.799849822849763 0.581445075608378
vn 0.209165969800829 0.844599540211794 0.49285009257512
vn 0.163169448348652 0.53059113097274 -0.831774478364578
vn 0.0780830189711153 0.658683195008867 0.748357862764378
vn 0.0576202970394719 0.636107758251352 0.769445788383771
vn 0.219315996751733 0.615100784234274 -0.757331841931379
vn 0.154485279708468 0.687194366989744 -0.70985787333167
vn 0.10260383147066 0.578755668553691 0.809020599171931
vn 0.0233110899682621 0.788372804520111 -0.61475597937522
vn -0.122543176688504 0.825748911460828 -0.550565077959316
vn 0.0640796164979466 0.603011434031826 0.795154710214532
vn 0.054077105987969 0.61859028596869 0.78385057550093
vn -0.164459190403097 0.85829046322899 -0.486097372367023
vn 0.0725988828754269 0.632775182150316 0.770924750581971
vn -0.195827445577869 0.86394330148859 -0.463954290174627
vn -0.0131665484307951 0.662654799088839 0.748809227538597
vn -0.354474611922406 0.780905777256533 -0.514328607555354
vn -0.293595658897587 0.819186847191847 -0.492680929673935
vn -0.135241202237749 0.656692301073859 0.741933311644388
vn -0.368925631709758 0.752993147902407 -0.544880902105754
vn -0.315319409950452 0.657401477174755 0.684395329847412
vn -0.556937476465726 0.643352365920816 -0.525279335755822
vn -0.416467065400258 0.670083782208439 0.614445203625295
vn -0.638025704413909 0.588784254346405 -0.496242181138286
vn 0.362869052423592 0.762327385401785 0.535894586891567
vn 0.0232095184422809 0.839535194650737 0.542809335951794
vn 0.434885597596011 0.702815567092373 0.562960740776998
vn 0.694246566800801 -0.685444861128453 0.219515482000468
vn 0.658672175642075 -0.692337078887488 0.294652904673406
vn 0.740865094997329 -0.671653862502554 0
vn 0.250960378821872 -0.430812051199553 -0.866844775494907
vn 0.618106091034826 -0.649627682249566 0.442638379132113
vn 0.573888357499293 -0.697878476694598 0.428506458403127
vn 0.179629270586473 -0.491576489259721 -0.852106730612815
vn 0.209165969800829 -0.844599540211794 0.49285009257512
vn -0.148868683536767 -0.799849822849763 0.581445075608378
vn 0.0676197444034575 -0.830054020378946 0.553568327688244
vn 0.163169448348652 -0.530591130972739 -0.831774478364578
vn 0.0576202970394719 -0.636107758251352 0.769445788383771
vn 0.0780830189711154 -0.658683195008867 0.748357862764378
vn 0.154485279708468 -0.687194366989744 -0.70985787333167
vn 0.219315996751733 -0.615100784234274 -0.757331841931379
vn 0.10260383147066 -0.578755668553691 0.809020599171931
vn 0.0233110899682619 -0.788372804520111 -0.61475597937522
vn -0.122543176688505 -0.825748911460828 -0.550565077959316
vn 0.0540771059879687 -0.61859028596869 0.78385057550093
vn 0.0640796164979464 -0.603011434031826 0.795154710214532
vn -0.164459190403097 -0.85829046322899 -0.486097372367023
vn 0.0725988828754267 -0.632775182150316 0.770924750581971
vn -0.195827445577869 -0.86394330148859 -0.463954290174627
vn -0.0131665484307952 -0.662654799088839 0.748809227538597
vn -0.293595658897587 -0.819186847191847 -0.492680929673936
vn -0.354474611922405 -0.780905777256533 -0.514328607555354
vn -0.135241202237749 -0.656692301073859 0.741933311644388
vn -0.368925631709758 -0.752993147902407 -0.544880902105754
vn -0.315319409950452 -0.657401477174756 0.684395329847412
vn -0.556937476465725 -0.643352365920816 -0.525279335755822
vn -0.416467065400258 -0.67008378220844 0.614445203625294
vn -0.638025704413908 -0.588784254346405 -0.496242181138286
vn 0.434885597596009 -0.702815567092374 0.562960740776998
vn 0.0232095184422801 -0.839535194650737 0.542809335951793
vn 0.362869052423591 -0.762327385401785 0.535894586891567
vn 0.299327875247292 0 0.954150314730306
vn 0.114868340457931 0 0.993380724777988
g bird_bod bird
f 1/1/1 2/2/2 3/3/3
f 1/1/4 4/4/5 2/2/6
f 2/2/2 5/5/7 6/6/8
f 2/2/2 6/6/8 3/3/3
f 2/2/6 4/4/5 5/5/9
f 7/7/10 8/8/11 9/9/12
f 5/5/7 7/7/10 9/9/12 6/6/8
f 5/5/9 4/4/5 7/7/13
f 7/7/10 10/10/14 11/11/15 8/8/11
f 7/7/13 4/4/5 12/12/16 10/10/17
f 10/10/14 13/13/18 11/11/15
f 10/10/17 12/12/16 14/14/19
f 10/10/17 14/14/19 13/13/20
f 13/13/18 15/15/21 16/16/22 11/11/15
f 13/13/20 14/14/19 17/17/23 15/15/23
f 15/15/21 18/18/24 16/16/22
f 15/15/23 17/17/23 19/19/25 18/18/25
f 18/18/24 20/20/26 21/21/26 16/16/22
f 18/18/25 19/19/25 22/22/27 20/20/28
f 20/20/26 23/23/29 24/24/29 21/21/26
f 20/20/28 22/22/27 23/23/30
f 23/23/29 25/25/31 26/26/31 24/24/29
f 23/23/30 22/22/27 27/27/32 25/25/32
f 25/25/31 28/28/33 29/29/33 26/26/31
f 25/25/32 27/27/32 28/28/34
f 30/30/35 31/31/36 32/32/37
f 30/30/35 32/32/37 6/6/8
f 9/9/12 8/8/11 31/31/36 30/30/35
f 9/9/12 30/30/35 6/6/8
f 3/3/38 33/2/39 1/1/40
f 33/2/41 4/4/5 1/1/4
f 6/6/42 34/5/43 33/2/39
f 3/3/38 6/6/42 33/2/39
f 34/5/44 4/4/5 33/2/41
f 35/9/45 8/8/46 36/7/47
f 6/6/42 35/9/45 36/7/47 34/5/43
f 36/7/48 4/4/5 34/5/44
f 8/8/46 11/11/49 37/10/50 36/7/47
f 37/10/51 12/12/52 4/4/5 36/7/48
f 11/11/49 38/13/53 37/10/50
f 14/14/54 12/12/52 37/10/51
f 38/13/55 14/14/54 37/10/51
f 11/11/49 16/16/56 39/15/57 38/13/53
f 39/15/58 17/17/58 14/14/54 38/13/55
f 16/16/56 40/18/59 39/15/57
f 40/18/60 19/19/60 17/17/58 39/15/58
f 16/16/56 21/21/61 41/20/61 40/18/59
f 41/20/62 22/22/63 19/19/60 40/18/60
f 21/21/61 24/24/64 42/23/64 41/20/61
f 42/23/65 22/22/63 41/20/62
f 24/24/64 26/26/66 43/25/66 42/23/64
f 43/25/67 27/27/67 22/22/63 42/23/65
f 26/26/66 29/29/68 28/28/68 43/25/66
f 28/28/69 27/27/67 43/25/67
f 32/32/70 31/31/71 44/30/72
f 6/6/42 32/32/70 44/30/72
f 44/30/72 31/31/71 8/8/46 35/9/45
f 6/6/42 44/30/72 35/9/45
g bird_tail bird
f 45/33/73 46/34/73 47/35/73 48/36/73
g bird_left_wing bird
f 49/37/74 50/38/74 51/39/74 52/40/74
f 50/38/74 53/41/74 51/39/74
f 50/38/74 54/42/74 53/41/74
g bird_right_wing bird
f 55/40/74 56/39/74 57/38/74 58/37/74
f 56/39/74 59/41/74 57/38/74
f 59/41/74 60/42/74 57/38/74
