v -1.55016005508543 0.345250002042515 0.425587989526784
v 1.4822699579354 0.345250002042515 0.425587989526784
v 1.4822699579354 4.28095990278589 0.425587989526784
v -1.55016005508543 4.28095990278589 0.425587989526784
v 1.4822699579354 0.345250002042515 0
v -1.55016005508543 0.345250002042515 0
v 1.4822699579354 4.28095990278589 0
v -1.55016005508543 4.28095990278589 0
vt 0 0
vt 1 0
vt 1 1
vt 0 1
vn 0 0 1
vn 0 -1 0
vn 1 0 0
vn 0 1 0
vn -1 0 0
vn 0 0 -1
g ThePad pad pad
f 1/1/1 2/2/1 3/3/1
f 1/1/1 3/3/1 4/4/1
f 5/3/2 2/4/2 1/1/2
f 5/3/2 1/1/2 6/2/2
f 7/3/3 3/4/3 2/1/3
f 7/3/3 2/1/3 5/2/3
f 8/3/4 4/4/4 3/1/4
f 8/3/4 3/1/4 7/2/4
f 6/3/5 1/4/5 4/1/5
f 6/3/5 4/1/5 8/2/5
f 8/1/6 7/2/6 5/3/6
f 8/1/6 5/3/6 6/4/6
