v -0.75576053127167 1.30901637039785 0.47007458397961
v 0.755761070968464 1.30901586978141 0.470074740422248
v -0.436338457707166 0.755760926274177 -0.00505547216632544
v 0.43633912255807 0.755760738543012 -0.00505540958927055
v -1.51152189558523 2.40105437544517e-07 0.470074552691083
v -0.872677247839784 1.38624940747803e-07 -0.00505553474338032
v -0.75576078157989 -1.30901586978141 0.47007458397961
v -0.436338708015385 -0.755760738543012 -0.00505547216632544
v 0.755760570352025 -1.30901599493552 0.470074740422248
v 0.436338621941631 -0.755760801120067 -0.00505540958927055
v 1.51152155920326 0 0.470074771710775
v 0.872677412074248 0 -0.00505540958927055
v -0.872676997531564 1.51152185254835 1.11911422292943
v 0.872677912690687 1.51152147708602 1.11911447323765
v -1.74535432748858 2.77249881495606e-07 1.11911422292943
v -0.872677498148003 -1.51152147708602 1.11911422292943
v 0.872677286920138 -1.51152160224013 1.11911447323765
v 1.74535461687715 0 1.11911459839176
v -0.75576053127167 1.30901637039785 1.76815404961041
v 0.755761070968464 1.30901586978141 1.83676077919295
v -1.51152189558523 2.40105437544517e-07 1.7681539244563
v -0.75576078157989 -1.30901586978141 1.76815404961041
v 0.755760570352025 -1.30901599493552 1.81143897393483
v 1.51152155920326 0 1.84767108871168
v -0.436338457707166 0.755760926274177 2.24328423091046
v 0.43633912255807 0.755760738543012 2.33763440994691
v -0.872677247839784 1.38624940747803e-07 2.24328423091046
v -0.436338708015385 -0.755760738543012 2.24328423091046
v 0.436338621941631 -0.755760801120067 2.33763440994691
v 0.872677412074248 0 2.33763440994691
v 8.21172323490491e-08 0 0.148336032997473
v 8.21172323490491e-08 0 2.08989285090077
v -0.306875291943371 0 2.08918172524908
v 0.396005707604232 0 2.08918172524908
v 0.396005707604232 0 3.08918158507648
v -0.306875291943371 0 3.08918158507648
v 0.544918171748861 0.544918171748861 -1.88258388458659
v 0 0.770630672322469 -1.88258388458659
v 0 1.42393971571056 -1.44605675249677
v 1.00687745531127 1.00687745531127 -1.44605675249677
v -0.544918171748861 0.544918171748861 -1.88258388458659
v -1.00687745531127 1.00687745531127 -1.44605675249677
v -0.770630672322469 0 -1.88258388458659
v -1.42393971571056 0 -1.44605675249677
v -0.544918171748861 -0.544918171748861 -1.88258388458659
v -1.00687745531127 -1.00687745531127 -1.44605675249677
v 0 -0.770630728329075 -1.88258388458659
v 0 -1.42393982772377 -1.44605675249677
v 0.544918227755466 -0.544918227755466 -1.88258388458659
v 1.00687756732448 -1.00687756732448 -1.44605675249677
v 0.77063078433568 0 -1.88258388458659
v 1.42393993973698 0 -1.44605675249677
v 0 1.86046684780037 -0.792747541088864
v 1.31554878806472 1.31554878806472 -0.792747541088864
v -1.31554878806472 1.31554878806472 -0.792747541088864
v -1.86046684780037 0 -0.792747541088864
v -1.31554878806472 -1.31554878806472 -0.792747541088864
v 0 -1.86046695981359 -0.792747541088864
v 1.31554890007794 -1.31554890007794 -0.792747541088864
v 1.8604670718268 0 -0.792747541088864
v 0 2.01375491062255 -0.0221168127597892
v 1.42393971571056 1.42393971571056 -0.0221168127597892
v -1.42393971571056 1.42393971571056 -0.0221168127597892
v -2.01375491062255 0 -0.0221168127597892
v -1.42393971571056 -1.42393971571056 -0.0221168127597892
v 0 -2.01375491062255 -0.0221168127597892
v 1.42393993973698 -1.42393993973698 -0.0221168127597892
v 2.01375513464897 0 -0.0221168127597892
v 0 1.86046684780037 0.748513915569285
v 1.31554878806472 1.31554878806472 0.748513915569285
v -1.31554878806472 1.31554878806472 0.748513915569285
v -1.86046684780037 0 0.748513915569285
v -1.31554878806472 -1.31554878806472 0.748513915569285
v 0 -1.86046695981359 0.748513915569285
v 1.31554890007794 -1.31554890007794 0.748513915569285
v 1.8604670718268 0 0.748513915569285
v 0 1.42393971571056 1.40182312697719
v 1.00687745531127 1.00687745531127 1.40182312697719
v -1.00687745531127 1.00687745531127 1.40182312697719
v -1.42393971571056 0 1.40182312697719
v -1.00687745531127 -1.00687745531127 1.40182312697719
v 0 -1.42393982772377 1.40182312697719
v 1.00687756732448 -1.00687756732448 1.40182312697719
v 1.42393993973698 0 1.40182312697719
v 0 0.770630672322469 1.83835025906701
v 0.544918171748861 0.544918171748861 1.83835025906701
v -0.544918171748861 0.544918171748861 1.83835025906701
v -0.770630672322469 0 1.83835025906701
v -0.544918171748861 -0.544918171748861 1.83835025906701
v 0 -0.770630728329075 1.83835025906701
v 0.544918227755466 -0.544918227755466 1.83835025906701
v 0.77063078433568 0 1.83835025906701
v 0 0 -2.03587194740876
v 0 0 1.99163832188918
v -1.77671299336099 -1.77671299336099 0.0249999999999996
v 1.77671299336099 -1.77671299336099 0.0249999999999996
v 1.77671299336099 1.77671299336099 0.0250000000000004
v -1.77671299336099 1.77671299336099 0.0250000000000004
vt 0.988847732543945 0.346119314432144
vt 0.825898468494415 0.346119314432144
vt 0.988847732543945 0.170650899410248
vt 0.825898408889771 0.170650899410248
vt 0.174101516604424 0.346119344234467
vt 0.0111522674560547 0.346119314432144
vt 0.174101531505585 0.170650899410248
vt 0.0111522674560547 0.170650899410248
vt 0.337050765752792 0.346119314432144
vt 0.337050765752792 0.17065092921257
vt 0.5 0.346119314432144
vt 0.5 0.170650899410248
vt 0.66294926404953 0.346119314432144
vt 0.662949204444885 0.170650899410248
vt 0.988847732543945 0.488441050052643
vt 0.825898468494415 0.488441050052643
vt 0.174101516604424 0.488441050052643
vt 0.0111522674560547 0.488441050052643
vt 0.337050765752792 0.488441050052643
vt 0.5 0.488441050052643
vt 0.66294926404953 0.488441050052643
vt 0.988847732543945 0.631236612796783
vt 0.825898468494415 0.644798696041107
vt 0.0111522674560547 0.631236612796783
vt 0.174101516604424 0.631236553192139
vt 0.337050765752792 0.631236612796783
vt 0.5 0.639844357967377
vt 0.66294926404953 0.646914482116699
vt 0.988847732543945 0.810933589935303
vt 0.825898408889771 0.825241208076477
vt 0.0111522674560547 0.810933589935303
vt 0.174101531505585 0.810933589935303
vt 0.337050765752792 0.810933530330658
vt 0.5 0.825241208076477
vt 0.662949204444885 0.825241208076477
vt 0.418525397777557 0.0111522795632482
vt 0.454876601696014 0.988847732543945
vt 0 0
vt 1 0
vt 1 1
vt 0 1
vn -0.372965099870013 0.703814375386904 -0.604600991793508
vn 0.423038589690209 0.674904534830594 -0.604600877023858
vn -0.0879392141782702 0.298484912650965 -0.950354382075157
vn 0.214525940274541 0.225400197143504 -0.950354340273665
vn -0.796003864581114 0.0289097151054989 -0.604600757479223
vn -0.302464972925165 0.0730847579903867 -0.950354438250733
vn -0.423038433911039 -0.674904711873618 -0.604600788392543
vn -0.214525689771662 -0.225400192098849 -0.950354398016758
vn 0.372965348212752 -0.703814317972577 -0.604600905432118
vn 0.0879394421050467 -0.298484963425933 -0.950354345037088
vn 0.796003831843012 -0.0289097397735589 -0.604600799401942
vn 0.302465267468879 -0.0730847802982879 -0.950354342792061
vn -0.492079735458716 0.852307382903992 -0.177284119419164
vn 0.185424422918231 0.979852036280592 -0.074214354286875
vn -0.990864099292398 0.114415232161458 -0.0713967182922554
vn -0.59451856910978 -0.800905812857425 -0.0713971281974816
vn 0.394122220114795 -0.915931824188316 -0.0757401416083234
vn 0.989680585908978 -0.1170543093374 -0.0826476045654464
vn -0.435131889518575 0.737265110089699 0.516817565653895
vn 0.294479026349423 0.714555463455682 0.634580643169906
vn -0.826719888468423 0.477306902627332 0.297846179621396
vn -0.796003895777637 -0.0289095679115261 0.604600723444815
vn -0.826720042297124 -0.477306684196283 0.297846102686926
vn -0.378494760927386 -0.703116393927051 0.601970973171914
vn -2.21453539474855e-07 -0.954613591670966 0.297847092644884
vn 0.412312244286259 -0.700857538575642 0.582062989575287
vn 0.831197735853926 -0.479892282065206 0.280737816343926
vn 0.784167671987782 0.0749659395443845 0.616004196509642
vn 0.834393174314955 0.481736847298941 0.267801494788753
vn 0.833410149468215 0.482302311332602 0.269836993843687
vn -0.219754795933778 0.305465510054882 0.926498058190633
vn 0.163342221168406 0.222430899761248 0.96116794246124
vn -0.302465225035441 -0.0730847104941355 0.950354361665294
vn -0.134560117123987 -0.300407278548025 0.944271699181411
vn 0.165969397071634 -0.231427799306875 0.958590284190099
vn 0.176369118868364 -4.41292838634706e-08 0.98432410003494
vn 6.53189364385864e-08 1.19061259783241e-08 -0.999999999999998
vn -0.0694948569578285 3.11038567120774e-08 0.99758230981529
vn 0 -1 0
vn 0.269132495110168 0.269132550851148 -0.924735297340882
vn 0 0.380610867268257 -0.924735296026547
vn 0 0.704976806943659 -0.709230358678704
vn 0.498493831829184 0.498493922756132 -0.709230363565648
vn -0.269132522904165 0.269132522904165 -0.924735297385408
vn -0.498493873431356 0.498493873431356 -0.709230368993606
vn -0.380610867268257 -0 -0.924735296026547
vn -0.704976806943659 -0 -0.709230358678704
vn -0.269132536877657 -0.269132509007166 -0.924735297363145
vn -0.498493898093745 -0.498493852630269 -0.709230366279627
vn -2.78704901398177e-08 -0.380610842868295 -0.924735306069302
vn -4.54634736476746e-08 -0.704976790870194 -0.709230374655767
vn 0.269132484607206 -0.269132512477694 -0.924735311565745
vn 0.498493836556808 -0.498493882020279 -0.709230388874607
vn 0.380610818391842 2.78704900714693e-08 -0.924735316143539
vn 0.704976770935427 4.54634737601594e-08 -0.709230394470976
vn 0 0.92310381250254 -0.384550843638752
vn 0.65273291698655 0.652733015699596 -0.384550840979369
vn -0.652732963319808 0.652732963319808 -0.384550851242698
vn -0.92310381250254 -0 -0.384550843638752
vn -0.652732986839294 -0.652732951426679 -0.38455083150823
vn -6.3300431025787e-08 -0.923103816929816 -0.384550833011191
vn 0.652732921947846 -0.652732985248277 -0.384550884245895
vn 0.923103798371625 6.33004312407077e-08 -0.384550877559621
vn 0 1 0
vn 0.707106731829924 0.707106830543168 0
vn -0.707106781186548 0.707106781186547 0
vn -1 0 0
vn -0.707106791777709 -0.707106770595386 0
vn -7.75309207526182e-08 -0.999999999999997 0
vn 0.707106742421085 -0.707106819952008 0
vn 0.999999999999997 7.75309234520777e-08 0
vn 0 0.92310381250254 0.384550843638752
vn 0.65273291698655 0.652733015699596 0.384550840979369
vn -0.652732963319808 0.652732963319808 0.384550851242698
vn -0.92310381250254 0 0.384550843638752
vn -0.652732986839294 -0.652732951426679 0.38455083150823
vn -6.33004309501997e-08 -0.923103816929816 0.384550833011191
vn 0.652732921947846 -0.652732985248277 0.384550884245894
vn 0.923103798371625 6.33004311953553e-08 0.384550877559621
vn 0 0.704976806943659 0.709230358678704
vn 0.498493831829184 0.498493922756131 0.709230363565648
vn -0.498493873431356 0.498493873431356 0.709230368993606
vn -0.704976806943659 0 0.709230358678704
vn -0.498493898093745 -0.498493852630269 0.709230366279627
vn -4.54634736624136e-08 -0.704976790870194 0.709230374655767
vn 0.498493836556808 -0.498493882020279 0.709230388874607
vn 0.704976770935428 4.54634738191153e-08 0.709230394470976
vn 0 0.380610867268257 0.924735296026547
vn 0.269132495110168 0.269132550851147 0.924735297340882
vn -0.269132522904165 0.269132522904165 0.924735297385408
vn -0.380610867268257 0 0.924735296026547
vn -0.269132536877657 -0.269132509007166 0.924735297363145
vn -2.78704902331303e-08 -0.380610842868295 0.924735306069302
vn 0.269132484607206 -0.269132512477694 0.924735311565745
vn 0.380610818391842 2.78704901791377e-08 0.924735316143539
vn -1.06020100519647e-08 7.06800698759165e-09 -1
vn -1.06020100519647e-08 7.06800698049376e-09 1
vn 0 0 1
g pumpkin pumpkin_short2
f 1/1/1 2/2/2 3/3/3
f 4/4/4 3/3/3 2/2/2
f 5/5/5 1/6/1 6/7/6
f 3/8/3 6/7/6 1/6/1
f 7/9/7 5/5/5 8/10/8
f 6/7/6 8/10/8 5/5/5
f 9/11/9 7/9/7 10/12/10
f 8/10/8 10/12/10 7/9/7
f 11/13/11 9/11/9 12/14/12
f 10/12/10 12/14/12 9/11/9
f 2/2/2 11/13/11 4/4/4
f 12/14/12 4/4/4 11/13/11
f 13/15/13 14/16/14 1/1/1
f 2/2/2 1/1/1 14/16/14
f 15/17/15 13/18/13 5/5/5
f 1/6/1 5/5/5 13/18/13
f 16/19/16 15/17/15 7/9/7
f 5/5/5 7/9/7 15/17/15
f 17/20/17 16/19/16 9/11/9
f 7/9/7 9/11/9 16/19/16
f 18/21/18 17/20/17 11/13/11
f 9/11/9 11/13/11 17/20/17
f 14/16/14 18/21/18 2/2/2
f 11/13/11 2/2/2 18/21/18
f 13/15/13 19/22/19 14/16/14
f 14/16/14 19/22/19 20/23/20
f 13/18/21 15/17/15 19/24/19
f 15/17/15 21/25/22 19/24/19
f 15/17/23 16/19/16 21/25/22
f 16/19/16 22/26/24 21/25/22
f 16/19/25 17/20/17 22/26/24
f 17/20/17 23/27/26 22/26/24
f 17/20/27 18/21/18 23/27/26
f 18/21/18 24/28/28 23/27/26
f 18/21/29 14/16/30 24/28/28
f 14/16/30 20/23/20 24/28/28
f 19/22/19 25/29/31 20/23/20
f 20/23/20 25/29/31 26/30/32
f 19/24/19 21/25/22 25/31/31
f 21/25/22 27/32/33 25/31/31
f 21/25/22 22/26/24 27/32/33
f 22/26/24 28/33/34 27/32/33
f 22/26/24 23/27/26 28/33/34
f 23/27/26 29/34/35 28/33/34
f 23/27/26 24/28/28 29/34/35
f 24/28/28 30/35/36 29/34/35
f 20/23/20 26/30/32 24/28/28
f 24/28/28 26/30/32 30/35/36
f 3/3/3 4/4/4 31/36/37
f 6/7/6 3/8/3 31/36/37
f 8/10/8 6/7/6 31/36/37
f 10/12/10 8/10/8 31/36/37
f 12/14/12 10/12/10 31/36/37
f 4/4/4 12/14/12 31/36/37
f 26/30/32 25/29/31 32/37/38
f 25/31/31 27/32/33 32/37/38
f 27/32/33 28/33/34 32/37/38
f 28/33/34 29/34/35 32/37/38
f 29/34/35 30/35/36 32/37/38
f 30/35/36 26/30/32 32/37/38
g stem pumpkin_short2
f 33/38/39 34/39/39 35/40/39 36/41/39
g collision_pSphere1
f 37//40 38//41 39//42 40//43
f 38//41 41//44 42//45 39//42
f 41//44 43//46 44//47 42//45
f 43//46 45//48 46//49 44//47
f 45//48 47//50 48//51 46//49
f 47//50 49//52 50//53 48//51
f 49//52 51//54 52//55 50//53
f 51//54 37//40 40//43 52//55
f 40//43 39//42 53//56 54//57
f 39//42 42//45 55//58 53//56
f 42//45 44//47 56//59 55//58
f 44//47 46//49 57//60 56//59
f 46//49 48//51 58//61 57//60
f 48//51 50//53 59//62 58//61
f 50//53 52//55 60//63 59//62
f 52//55 40//43 54//57 60//63
f 54//57 53//56 61//64 62//65
f 53//56 55//58 63//66 61//64
f 55//58 56//59 64//67 63//66
f 56//59 57//60 65//68 64//67
f 57//60 58//61 66//69 65//68
f 58//61 59//62 67//70 66//69
f 59//62 60//63 68//71 67//70
f 60//63 54//57 62//65 68//71
f 62//65 61//64 69//72 70//73
f 61//64 63//66 71//74 69//72
f 63//66 64//67 72//75 71//74
f 64//67 65//68 73//76 72//75
f 65//68 66//69 74//77 73//76
f 66//69 67//70 75//78 74//77
f 67//70 68//71 76//79 75//78
f 68//71 62//65 70//73 76//79
f 70//73 69//72 77//80 78//81
f 69//72 71//74 79//82 77//80
f 71//74 72//75 80//83 79//82
f 72//75 73//76 81//84 80//83
f 73//76 74//77 82//85 81//84
f 74//77 75//78 83//86 82//85
f 75//78 76//79 84//87 83//86
f 76//79 70//73 78//81 84//87
f 78//81 77//80 85//88 86//89
f 77//80 79//82 87//90 85//88
f 79//82 80//83 88//91 87//90
f 80//83 81//84 89//92 88//91
f 81//84 82//85 90//93 89//92
f 82//85 83//86 91//94 90//93
f 83//86 84//87 92//95 91//94
f 84//87 78//81 86//89 92//95
f 38//41 37//40 93//96
f 41//44 38//41 93//96
f 43//46 41//44 93//96
f 45//48 43//46 93//96
f 47//50 45//48 93//96
f 49//52 47//50 93//96
f 51//54 49//52 93//96
f 37//40 51//54 93//96
f 86//89 85//88 94//97
f 85//88 87//90 94//97
f 87//90 88//91 94//97
f 88//91 89//92 94//97
f 89//92 90//93 94//97
f 90//93 91//94 94//97
f 91//94 92//95 94//97
f 92//95 86//89 94//97
g pPlane1
f 95/38/98 96/39/98 97/40/98 98/41/98
