v 0.310614976433095 -0.0239315407327184 -0.108591689134612
v 0.604878053537537 -0.0239315407327184 -0.108591689134612
v 0.604878053537537 -0.0239315407327184 0.185671424798069
v 0.310614976433095 -0.0239315407327184 0.185671424798069
v -0.777694383372453 -0.0171983484927715 1.20751231113028
v 0.71119448315557 -0.0171983484927715 1.20751231113028
v 0.71119448315557 -0.0171983484927715 1.42663437171678
v -0.777694383372453 -0.0171983484927715 1.42663437171678
v 0.0664158798258885 -0.0210705985542297 0.40233526133671
v 0.885807197681445 -0.0210705985542297 0.40233526133671
v 0.885807197681445 -0.0210705985542297 0.622504537815388
v 0.0664158798258885 -0.0210705985542297 0.622504537815388
v -0.0821656242514449 -0.0210705985542297 0.380094065473775
v 1.00644571167806 -0.0210705985542297 0.380094065473775
v 1.00644571167806 -0.0210705985542297 0.6443153395541
v -0.0821656242514449 -0.0210705985542297 0.6443153395541
v -0.0821656242514449 -0.0210705985542297 0.360709380152977
v 1.00644571167806 -0.0210705985542297 0.360709380152977
v 1.00644571167806 -0.0210705985542297 0.624930654233302
v -0.0821656242514449 -0.0210705985542297 0.624930654233302
v -1.41577651037105 -0.0239315407327185 -0.661440386364056
v -0.41577652538954 -0.0239315407327185 -0.661440386364056
v -0.41577652538954 -0.0239315407327185 0.949670700550595
v -1.41577651037105 -0.0239315407327185 0.949670700550595
v -1.08543491937939 2.73184799366426e-18 0.105273350226423
v -1.08543491937939 2.73184799366426e-18 -0.00170417040149923
v -1.08543491937939 2.73184799366426e-18 -0.0394864781254642
v -1.05042052784117 2.73184777655649e-18 -0.0394864781254642
v -0.948099551783884 2.73184799366426e-18 -0.0394864781254642
v -0.907538229258108 2.73184799366426e-18 -0.0394864781254642
v -0.826543625274242 2.73184799366426e-18 -0.0394864781254642
v -0.769159339588269 2.73184799366426e-18 -0.0394864781254642
v -0.730132657867189 2.73184799366426e-18 -0.0394864781254642
v -0.723102521375639 2.73184799366426e-18 -0.0394864781254642
v -0.723102521375639 2.73184799366426e-18 -0.000609517299031695
v -0.723102521375639 2.73184799366426e-18 0.107469265377228
v -0.73013274204935 2.73184799366426e-18 0.107426650624046
v -0.767203451247276 2.73184799366426e-18 0.107201991499875
v -1.0527034638797 2.73184799366426e-18 0.105471719932184
v -1.07227943626842 2.73184799366426e-18 0.10535307415437
v -0.730132657867189 2.73184799366426e-18 -0.537967605202614
v -0.775805605423241 2.73184799366426e-18 -0.537967605202614
v -0.809834813125081 2.73184799366426e-18 -0.537967605202614
v -0.909412039991608 2.73184799366426e-18 -0.537967605202614
v -0.90969876443378 2.73184799366426e-18 -0.614232858983568
v -0.788681014482801 2.73184799366426e-18 -0.614232858983568
v -0.776822525934525 2.73184799366426e-18 -0.614232858983568
v -0.730132657867189 2.73184799366426e-18 -0.614232858983568
v -0.723102521375639 2.73184799366426e-18 -0.614232858983568
v -0.703900107328711 2.73184799366426e-18 -0.614232813948161
v -0.703900107328711 2.73184799366426e-18 -0.537962471166299
v -0.723102521375639 2.73184799366426e-18 -0.538299336005188
v -0.723102521375639 2.73184799366426e-18 -0.537967605202614
v -0.695365340973052 2.73184799366426e-18 0.514377660376987
v -0.691800815707378 2.73184799366426e-18 0.529425520815137
v -0.805803666138045 2.73184799366426e-18 0.574212061428689
v -0.905234584407833 2.73184799366426e-18 0.573207681798086
v -0.906076995298266 2.73184799366426e-18 0.349197044959779
v -0.763976833177985 2.73184799366426e-18 0.349197044959779
v -0.744520820369447 2.73184799366426e-18 0.349197044959779
v -0.734487148536662 2.73184799366426e-18 0.349197044959779
v -0.723102521375639 2.73184799366426e-18 0.397265518287451
v -0.566856851833711 2.73184799366426e-18 -0.000137444911672737
v -0.571106830349644 2.73184799366426e-18 -0.000150291261310856
v -0.700239067214843 2.73184799366426e-18 -0.000540444244667238
v -0.708074574445752 2.73184799366426e-18 -0.000564121609512949
v -0.708074574445752 2.73184799366426e-18 -0.129835451849467
v -0.703900107328711 2.73184799366426e-18 -0.129820545129992
v -0.566856851833711 2.73184799366426e-18 -0.129331100334665
v -1.23948482351105 2.73184799366426e-18 -0.131733333940438
v -1.09546463465059 2.73184777655649e-18 -0.131218984565444
v -1.09546463465059 2.73184777655649e-18 -0.001734479229918
v -1.09948155485232 2.73184777655649e-18 -0.00174661627190738
v -1.2330949765401 2.73184799366426e-18 -0.00215031365369904
v -1.23948482351105 2.73184799366426e-18 -0.00216961132528513
v -0.944605066076604 2.73184799366426e-18 -0.537967605202614
v -0.90884439967641 2.73184777655649e-18 -0.386978119172405
v -0.908594799567473 2.73184799366426e-18 -0.320568323628458
v -1.04599422978791 2.73184799366426e-18 -0.320568323628458
v -1.04257062546064 2.73184799366426e-18 -0.537967605202614
v -1.07227943626842 2.73184799366426e-18 -0.614232858983568
v -1.04136959856208 2.73184799366426e-18 -0.614232858983568
v -0.962667864111817 2.73184799366426e-18 -0.614232858983568
v -1.07227943626842 2.73184799366426e-18 -0.537967605202614
v -1.08543491937939 2.73184799366426e-18 -0.537967605202614
v -1.11344813308964 2.73184799366426e-18 -0.537967605202614
v -1.1144648852366 2.73184799366426e-18 -0.614232858983568
v -1.08543491937939 2.73184799366426e-18 -0.614232858983568
v -0.908080530742685 2.73184799366426e-18 -0.183766116458012
v -1.1021926413644 2.73184799366426e-18 0.516058832092993
v -1.08543475101507 2.73184799366426e-18 0.455642303379864
v -1.05658375643328 2.73184799366426e-18 0.351626817716485
v -1.05658038914682 2.73184799366426e-18 0.351653343570777
v -1.05657971568952 2.73184799366426e-18 0.351612609045807
v -1.05590979404807 2.73184799366426e-18 0.349197044959779
v -0.980561961095324 2.73184799366426e-18 0.572446808609179
v -1.10591223017162 2.73184799366426e-18 0.529469430336249
v -0.730132657867189 2.73184799366426e-18 0.231097208857664
v -0.762419294825353 2.73184799366426e-18 0.231261092701075
v -0.765549019226723 2.73184799366426e-18 0.231276990199488
v -0.906517604731715 2.73184799366426e-18 0.231992535251987
v -1.02356523976277 2.73184799366426e-18 0.232586664849185
v -1.05470767278141 2.73184799366426e-18 0.232744739125188
v -1.07143340554504 2.73184799366426e-18 0.232829653383707
v -1.07227943626842 2.73184799366426e-18 0.226060291396663
v -0.729960589529021 2.73184799366426e-18 0.231096330667242
v -0.741085851450368 2.73184799366426e-18 0.321335575623871
v -1.05654166535251 2.73184799366426e-18 0.349197044959779
v -1.05688748567208 2.73184799366426e-18 0.349197044959779
v -1.12435696267369 2.73184799366426e-18 0.516150344038531
v -1.20724473928821 2.73184799366426e-18 0.206915334873228
v -1.07467265093856 2.73184799366426e-18 0.206915334873228
v -1.11347692338888 2.73184799366426e-18 0.556741656416539
v -0.677842487321893 2.73184799366426e-18 0.514305288479113
v -0.687359364865044 2.73184799366426e-18 0.548180785968129
v -0.726979278278429 2.73184799366426e-18 0.206915334873228
v -0.591498191154945 2.73184799366426e-18 0.206915312355525
v -0.772906961055271 2.73184799366426e-18 -0.320568323628458
v -0.870135421432944 2.73184799366426e-18 -0.320568323628458
v -0.893115720433945 2.73184799366426e-18 -0.320568323628458
v -0.975341656894513 2.73184799366426e-18 0.825125476391962
v -1.03345597028528 2.73184777655649e-18 0.571912598620021
v -1.02904221537409 2.73184777655649e-18 0.57195713863682
v -0.772304216778715 2.73184799366426e-18 0.574550457471391
v -0.771090730920257 2.73184799366426e-18 0.574562707101896
v -0.826771422203343 2.73184799366426e-18 0.825125476391962
v -1.20633489848639 2.73184799366426e-18 0.204283690907922
v -1.08543491937939 2.73184799366426e-18 0.171497160801332
v -1.08543491937939 2.73184799366426e-18 0.203932257115106
v -0.721491358986113 2.73184821077204e-18 0.202874285351044
v -0.59589241580466 2.73184799366426e-18 0.202509138277018
v -0.764841973252031 0 0.234509136271979
v -1.01933702233559 0 0.233054875450456
v -1.06926285269215 0 0.232769576151745
v -1.07309684505688 0 0.105291882296102
v -0.981646564064479 0 0.105849499437668
v -0.79728510484848 0 0.10697363947239
v -0.727907554973622 0 0.107396668302323
v -0.727046624007653 0 0.228800042854716
v -0.727757121450968 0 0.234721027858472
v -0.739626301133758 0 0.333631570079681
v -0.741859232968346 0 0.352239164135519
v -0.904000642284124 0 0.35017368278012
v -1.05347465666148 0 0.348269518249974
v -1.05594523473807 0 0.348238015983289
v -1.07037961324701 0 0.232763203641758
v -0.907629230174722 0 -0.0398941836584138
v -0.910202763034862 0 -0.31654922886683
v -0.768690024037738 0 -0.31654922886683
v -0.763369963975514 0 -0.0398941836584138
v -1.05301300168765 0 -0.039894206176117
v -1.05114441024816 0 -0.131449115491476
v -1.04736690411382 0 -0.31654922886683
v -0.772912096167124 0 -0.536089403584182
v -0.912251420117861 0 -0.536782633592875
v -0.912971935238398 0 -0.614232813948161
v -0.774415000296923 0 -0.614232813948161
v -0.701071123699407 0 -0.614232813948161
v -0.702610394522987 0 -0.5357396586191
v -1.0428591177282 0 -0.537432449469924
v -1.09950209529974 0 -0.537714236006947
v -1.11715021200725 0 -0.537802010013764
v -1.11715021200725 0 -0.614232813948161
v -1.04129181424483 0 -0.614232813948161
v -1.23948482351105 0 -0.039894206176117
v -1.23948423423592 0 -0.13144907045607
v -1.09284210777244 0 -0.13144907045607
v -1.09134105565019 0 -0.039894206176117
v -1.090707753249 0 -0.00126705674825627
v -1.2323667166607 0 -0.00208826612271248
v -1.23948482351105 0 -0.00212952981370609
v -0.711123147243406 0 -0.0398941836584138
v -0.711123147243406 0 -0.101585011709616
v -0.710538417949418 0 -0.131449115491476
v -0.566856851833711 0 -0.131449115491476
v -0.566856851833711 0 -0.0398941836584138
v -0.566856851833711 0 0.00176977076724744
v -0.570333743469231 0 0.00174960616409068
v -0.696771730254656 0 0.00101663240936621
v -0.711123147243406 0 0.000933440755136545
v -1.20975261006236 0 0.204915717799496
v -1.20445620518752 0 0.204915717799496
v -1.07386054562628 0 0.204915717799496
v -1.05520931428197 0 0.354124481348141
v -1.10693049759749 0 0.528684102921737
v -1.11626234274959 0 0.560178533445926
v -1.17242666055067 0 0.346754189417552
v -1.20262305443804 0 0.232007487006868
v -0.724180473954034 0 0.204915717799496
v -0.721315249904192 0 0.204915717799496
v -0.596191851753223 0 0.204915717799496
v -0.592144836428739 0 0.204915717799496
v -0.600061747809847 0 0.235450691510836
v -0.63070885299005 0 0.353655099826307
v -0.683113258728542 0 0.555786410414176
v -0.690433150220078 0 0.527010812401827
v -0.734870261553785 0 0.352328176616009
v -0.72866334241984 0 0.000831762066633623
v -1.07629905029933 0 -0.00118352732847961
v -1.07746320541113 0 -0.039894206176117
v -0.728952087233889 0 -0.0398941836584138
v -1.10250041134696 0 -0.00133542049497199
v -1.07741572667203 0 0.204915717799496
v -0.9899789985949 0 0.573125717358678
v -0.901926646370504 0 0.573125717358678
v -0.798034662814745 0 0.573125717358678
v -0.971364386490856 0 0.825125476391962
v -1.02736404398398 0 0.573125627287865
v -0.772747520041333 0 0.573125717358678
v -0.823631932671235 0 0.825125476391962
v -1.84568888202013 -0.0119657703663593 -1.44380496847868
v 1.43307271521299 -0.0119657703663593 -1.44380496847868
v 1.43307271521299 -0.0119657703663593 1.53549744999138
v -1.84568888202013 -0.0119657703663593 1.53549744999138
v -1.73571751354524 0.00769268208738353 -1.27728942939099
v 1.32352454280661 0.00769268208738353 -1.27728942939099
v 1.32352454280661 0.00769268208738353 1.03888897745798
v -1.73571751354524 0.00769268208738353 1.03888897745798
v 1.13544702987911 0.0179486555495389 -1.36626614112365
v 1.77898771276782 0.0179486555495389 -1.36626614112365
v 1.77898771276782 0.0179486555495389 1.11383295736386
v 1.13544702987911 0.0179486555495389 1.11383295736386
v 1.52252942253209 0.0390335277812592 0.4379575630927
v 1.71459114253 0.0390335277812592 0.4379575630927
v 1.71459114253 0.0390335277812592 1.08472981071699
v 1.52252942253209 0.0390335277812592 1.08472981071699
v 1.13544702987911 0.0258340180887253 -1.36626614112365
v 1.77898771276782 0.0258340180887253 -1.36626614112365
v 1.77898771276782 0.0258340180887253 1.11383295736386
v 1.13544702987911 0.0258340180887253 1.11383295736386
v 1.52252942253209 0.0390335277812592 -0.171359174190433
v 1.71459114253 0.0390335277812592 -0.171359174190433
v 1.71459114253 0.0390335277812592 0.410735848671432
v 1.52252942253209 0.0390335277812592 0.410735848671432
v 1.52258264401064 0.0468402333375113 -0.764136360092218
v 1.71154564782525 0.0468402333375113 -0.764136360092218
v 1.71154564782525 0.0468402333375107 -0.193769695809116
v 1.52258264401064 0.0468402333375107 -0.193769695809116
v 1.46160568192148 0.0468402333375113 -1.300023682229
v 1.71497801202242 0.0468402333375113 -1.300023682229
v 1.71497801202242 0.0468402333375107 -0.799368499136051
v 1.46160568192148 0.0468402333375107 -0.799368499136051
v -0.0916784252135493 -0.0210705985542297 0.381320448904203
v 0.996932910715959 -0.0210705985542297 0.381320448904203
v 0.996932910715959 -0.0210705985542297 0.645541722984528
v -0.0916784252135493 -0.0210705985542297 0.645541722984528
vt 0 0
vt 1 0
vt 1 1
vt 0 1
vt 0.229026973247528 0.499879777431488
vt 0.229026973247528 0.425556719303131
vt 0.229026973247528 0.399307310581207
vt 0.281082659959793 0.399307280778885
vt 0.433203816413879 0.399307310581207
vt 0.493506878614426 0.399307310581207
vt 0.613921642303467 0.399307310581207
vt 0.699235320091248 0.399307310581207
vt 0.75725644826889 0.399307310581207
vt 0.767708241939545 0.39930734038353
vt 0.767708241939545 0.426317274570465
vt 0.767708241939545 0.501405417919159
vt 0.75725644826889 0.50137585401535
vt 0.702143132686615 0.501219689846039
vt 0.277688771486282 0.500017583370209
vt 0.248584985733032 0.499935150146484
vt 0.757256388664246 0.0529856085777283
vt 0.689354062080383 0.0529856085777283
vt 0.638762712478638 0.0529856085777283
vt 0.49072077870369 0.0529856085777283
vt 0.490294575691223 0
vt 0.670212388038635 0
vt 0.687842428684235 0
vt 0.75725644826889 0
vt 0.767708241939545 0
vt 0.796256422996521 0
vt 0.796256422996521 0.0529891587793827
vt 0.767708241939545 0.0527551285922527
vt 0.767708241939545 0.0529856085777283
vt 0.80894523859024 0.78410667181015
vt 0.814243793487549 0.794561266899109
vt 0.644755899906158 0.82567685842514
vt 0.496931314468384 0.824979066848755
vt 0.495679199695587 0.669346749782562
vt 0.706940174102783 0.669346749782562
vt 0.735865533351898 0.669346749782562
vt 0.75078272819519 0.669346749782562
vt 0.767708241939545 0.702742576599121
vt 1 0.426645249128342
vt 0.993681490421295 0.426636338233948
vt 0.801699280738831 0.426365256309509
vt 0.790050268173218 0.426348805427551
vt 0.790049970149994 0.336537063121796
vt 0.796256303787231 0.336547404527664
vt 1 0.336887449026108
vt 0 0.33521842956543
vt 0.214115723967552 0.335575789213181
vt 0.214115723967552 0.425535678863525
vt 0.208143532276154 0.42552724480629
vt 0.00949977803975344 0.425246804952621
vt 0 0.425233393907547
vt 0.438399136066437 0.0529856085777283
vt 0.491564691066742 0.157886102795601
vt 0.491935849189758 0.204024568200111
vt 0.287663578987122 0.204024568200111
vt 0.292753458023071 0.0529856085777283
vt 0.248585015535355 0
vt 0.294539004564285 0
vt 0.411545097827911 0
vt 0.248585030436516 0.0529856011271477
vt 0.229026973247528 0.052985604852438
vt 0.187379449605942 0.052985604852438
vt 0.185867726802826 0
vt 0.229026958346367 0
vt 0.492700457572937 0.299068450927734
vt 0.20411291718483 0.785274624824524
vt 0.229026973247528 0.743300080299377
vt 0.271919965744019 0.671034872531891
vt 0.271924883127213 0.671053290367126
vt 0.271925806999207 0.671024978160858
vt 0.272921919822693 0.669346749782562
vt 0.384941637516022 0.824450373649597
vt 0.198582753539085 0.794591784477234
vt 0.75725656747818 0.587296426296234
vt 0.709255754947662 0.587410271167755
vt 0.704602718353271 0.587421357631683
vt 0.495024234056473 0.58791846036911
vt 0.321008801460266 0.58833122253418
vt 0.274709045886993 0.588441014289856
vt 0.249843060970306 0.588500022888184
vt 0.248585060238838 0.583796977996826
vt 0.757512390613556 0.587295830249786
vt 0.740972340106964 0.649989902973175
vt 0.271982431411743 0.669346749782562
vt 0.2714684009552 0.669346749782562
vt 0.171160861849785 0.785338282585144
vt 0.0479306429624557 0.570495963096619
vt 0.24502719938755 0.570495963096619
vt 0.187336564064026 0.813539147377014
vt 0.834994792938232 0.78405636548996
vt 0.820847868919373 0.807591557502747
vt 0.761944591999054 0.570495963096619
vt 0.963365435600281 0.570495963096619
vt 0.693663597106934 0.204024583101273
vt 0.549113631248474 0.204024568200111
vt 0.514948546886444 0.204024568200111
vt 0.392703056335449 1
vt 0.306303530931473 0.824079155921936
vt 0.312865793704987 0.824110150337219
vt 0.694559812545776 0.825911939144135
vt 0.696363925933838 0.825920462608337
vt 0.613583207130432 1
vt 0.0492832884192467 0.568667590618134
vt 0.229026973247528 0.545889019966125
vt 0.229026973247528 0.568423449993134
vt 0.770103514194489 0.567688465118408
vt 0.956832408905029 0.567434787750244
vt 0.705654323101044 0.589666903018951
vt 0.32729497551918 0.588656544685364
vt 0.253069758415222 0.588458359241486
vt 0.247369974851608 0.499892711639404
vt 0.383329629898071 0.5002800822258
vt 0.657420754432678 0.501061081886292
vt 0.760564684867859 0.501354992389679
vt 0.7618448138237 0.585700511932373
vt 0.760788440704346 0.589814126491547
vt 0.743142127990723 0.658532559871674
vt 0.739822387695312 0.671460270881653
vt 0.498765975236893 0.670025289058685
vt 0.27654230594635 0.66870242357254
vt 0.272869229316711 0.668680548667908
vt 0.251409649848938 0.588453888893127
vt 0.493371367454529 0.399024069309235
vt 0.489545404911041 0.206816852092743
vt 0.69993269443512 0.206816866993904
vt 0.707842171192169 0.399024099111557
vt 0.277228593826294 0.399024069309235
vt 0.280006498098373 0.335415929555893
vt 0.28562268614769 0.206816852092743
vt 0.693656146526337 0.054290447384119
vt 0.486499726772308 0.0538088083267212
vt 0.485428661108017 0
vt 0.69142210483551 0
vt 0.800461232662201 0
vt 0.798172831535339 0.0545334443449974
vt 0.29232457280159 0.0533573552966118
vt 0.208112776279449 0.0531615763902664
vt 0.181875362992287 0.0531005784869194
vt 0.181875661015511 0
vt 0.294654816389084 0
vt 0 0.399024069309235
vt 0 0.335415959358215
vt 0.218014344573021 0.335415929555893
vt 0.220245867967606 0.399024069309235
vt 0.221187323331833 0.425860404968262
vt 0.0105824610218406 0.425289928913116
vt 0 0.425261259078979
vt 0.785516142845154 0.399024128913879
vt 0.785516142845154 0.356164157390594
vt 0.786386787891388 0.335415959358215
vt 1 0.335415959358215
vt 1 0.399024099111557
vt 1 0.427970290184021
vt 0.994829952716827 0.427956283092499
vt 0.806852579116821 0.427447080612183
vt 0.785516321659088 0.42738926410675
vt 0.0442029684782028 0.569106757640839
vt 0.0520771816372871 0.569106757640839
vt 0.246234536170959 0.569106757640839
vt 0.273963153362274 0.672770202159882
vt 0.197068676352501 0.794046103954315
vt 0.183195203542709 0.815927028656006
vt 0.0996956080198288 0.667649626731873
vt 0.0548023283481598 0.587928891181946
vt 0.766105830669403 0.569106757640839
vt 0.770365536212921 0.569106757640839
vt 0.956385552883148 0.569106817245483
vt 0.962401211261749 0.569106757640839
vt 0.950631737709045 0.590321063995361
vt 0.905070662498474 0.672443985939026
vt 0.8271604180336 0.81287556886673
vt 0.81627756357193 0.792883574962616
vt 0.750213146209717 0.67152214050293
vt 0.759440124034882 0.427318602800369
vt 0.242608800530434 0.425918430089951
vt 0.240878045558929 0.399024069309235
vt 0.759011030197144 0.399024099111557
vt 0.203655168414116 0.425812929868698
vt 0.2409488260746 0.569106757640839
vt 0.370941162109375 0.824922204017639
vt 0.501849114894867 0.824922204017639
vt 0.656305551528931 0.82492208480835
vt 0.398615956306458 1
vt 0.315360248088837 0.824922204017639
vt 0.693900465965271 0.82492208480835
vt 0.618250608444214 1
vt 0 0.0240180063992739
vt 1 0.141439288854599
vt 0.997331321239471 1.04002952575684
vt 0 0.965307414531708
vn 0 -1 0
g meter_face_whole locator1 group
f 1/1/1 2/2/1 3/3/1 4/4/1
g meter_face_half locator1 group
f 1/1/1 2/2/1 3/3/1 4/4/1
g text_cog_disguises group
f 5/1/1 6/2/1 7/3/1 8/4/1
g text_merit_progress group
f 9/1/1 10/2/1 11/3/1 12/4/1
g text_cashbuck_progress group
f 13/1/1 14/2/1 15/3/1 16/4/1
g text_jury_notice_progress group
f 13/1/1 14/2/1 15/3/1 16/4/1
g text_ready4promotion group
f 17/1/1 18/2/1 19/3/1 20/4/1
g tube group
f 21/1/1 22/2/1 23/3/1 24/4/1
g hip robot group
f 25/5/1 26/6/1 27/7/1 28/8/1 29/9/1 30/10/1 31/11/1 32/12/1 33/13/1 34/14/1 35/15/1 36/16/1 37/17/1 38/18/1 39/19/1 40/20/1
g lShoe robot group
f 41/21/1 42/22/1 43/23/1 44/24/1 45/25/1 46/26/1 47/27/1 48/28/1 49/29/1 50/30/1 51/31/1 52/32/1 53/33/1
g lShoulder robot group
f 54/34/1 55/35/1 56/36/1 57/37/1 58/38/1 59/39/1 60/40/1 61/41/1 62/42/1
g lHand robot group
f 63/43/1 64/44/1 65/45/1 66/46/1 67/47/1 68/48/1 69/49/1
g rHand robot group
f 70/50/1 71/51/1 72/52/1 73/53/1 74/54/1 75/55/1
g rLowleg robot group
f 76/56/1 44/24/1 77/57/1 78/58/1 79/59/1 80/60/1
g rShoe robot group
f 81/61/1 82/62/1 83/63/1 45/25/1 44/24/1 76/56/1 80/60/1 84/64/1 85/65/1 86/66/1 87/67/1 88/68/1
g rUpleg robot group
f 29/9/1 28/8/1 79/59/1 78/58/1 89/69/1 30/10/1
g rShoulder robot group
f 90/70/1 91/71/1 92/72/1 93/73/1 94/74/1 95/75/1 58/38/1 57/37/1 96/76/1 97/77/1
g waist robot group
f 38/18/1 37/17/1 98/78/1 99/79/1 100/80/1 101/81/1 102/82/1 103/83/1 104/84/1 105/85/1 40/20/1 39/19/1
g chest robot group
f 100/80/1 99/79/1 98/78/1 106/86/1 107/87/1 60/40/1 59/39/1 58/38/1 95/75/1 108/88/1 109/89/1 104/84/1 103/83/1 102/82/1 101/81/1
g rUparm robot group
f 110/90/1 111/91/1 112/92/1 105/85/1 104/84/1 109/89/1 92/72/1 91/71/1 90/70/1 97/77/1 113/93/1
g lUparm robot group
f 114/94/1 115/95/1 55/35/1 54/34/1 62/42/1 61/41/1 107/87/1 106/86/1 116/96/1 117/97/1
g lLowleg robot group
f 77/57/1 44/24/1 43/23/1 42/22/1 118/98/1 119/99/1 120/100/1 78/58/1
g lUpleg robot group
f 120/100/1 119/99/1 118/98/1 32/12/1 31/11/1 30/10/1 89/69/1 78/58/1
g face robot group
f 121/101/1 122/102/1 123/103/1 96/76/1 57/37/1 56/36/1 124/104/1 125/105/1 126/106/1
g rLowarm robot group
f 127/107/1 74/54/1 73/53/1 128/108/1 129/109/1
g lLowarm robot group
f 130/110/1 65/45/1 64/44/1 131/111/1
g waist robot_hole group
f 132/112/1 133/113/1 134/114/1 135/115/1 136/116/1 137/117/1 138/118/1 139/119/1 140/120/1
g chest robot_hole group
f 141/121/1 142/122/1 143/123/1 144/124/1 145/125/1 146/126/1 134/114/1 133/113/1 132/112/1 140/120/1
g lUpleg robot_hole group
f 147/127/1 148/128/1 149/129/1 150/130/1
g rUpleg robot_hole group
f 151/131/1 152/132/1 153/133/1 148/128/1 147/127/1
g lShoe robot_hole group
f 154/134/1 155/135/1 156/136/1 157/137/1 158/138/1 159/139/1
g rShoe robot_hole group
f 160/140/1 161/141/1 162/142/1 163/143/1 164/144/1 156/136/1 155/135/1
g rHand robot_hole group
f 165/145/1 166/146/1 167/147/1 168/148/1 169/149/1 170/150/1 171/151/1
g lHand robot_hole group
f 172/152/1 173/153/1 174/154/1 175/155/1 176/156/1 177/157/1 178/158/1 179/159/1 180/160/1
g rUparm robot_hole group
f 181/161/1 182/162/1 183/163/1 146/126/1 145/125/1 184/164/1 185/165/1 186/166/1 187/167/1 188/168/1
g lUparm robot_hole group
f 189/169/1 190/170/1 191/171/1 192/172/1 193/173/1 194/174/1 195/175/1 196/176/1 197/177/1 141/121/1 140/120/1 139/119/1
g hip robot_hole group
f 198/178/1 138/118/1 137/117/1 136/116/1 135/115/1 199/179/1 200/180/1 151/131/1 147/127/1 150/130/1 201/181/1
g rLowarm robot_hole group
f 182/162/1 170/150/1 202/182/1 203/183/1
g lLowarm robot_hole group
f 178/158/1 191/171/1 190/170/1 179/159/1
g rShoulder robot_hole group
f 204/184/1 185/165/1 184/164/1 144/124/1 143/123/1 205/185/1
g lShoulder robot_hole group
f 196/176/1 206/186/1 205/185/1 143/123/1 142/122/1 197/177/1
g face robot_hole group
f 207/187/1 208/188/1 204/184/1 205/185/1 206/186/1 209/189/1 210/190/1
g lLowleg robot_hole group
f 149/129/1 148/128/1 155/135/1 154/134/1
g rLowleg robot_hole group
f 148/128/1 153/133/1 160/140/1 155/135/1
g pipe_frame group
f 211/1/1 212/2/1 213/3/1 214/4/1
g base group
f 215/1/1 216/2/1 217/3/1 218/4/1
g page1 group
f 219/1/1 220/2/1 221/3/1 222/4/1
g tab1 group
f 223/1/1 224/2/1 225/3/1 226/4/1
g page2 group
f 227/1/1 228/2/1 229/3/1 230/4/1
g tab2 group
f 231/1/1 232/2/1 233/3/1 234/4/1
g page3 group
f 227/1/1 228/2/1 229/3/1 230/4/1
g tab3 group
f 235/1/1 236/2/1 237/3/1 238/4/1
g page4 group
f 227/1/1 228/2/1 229/3/1 230/4/1
g tab4 group
f 239/1/1 240/2/1 241/3/1 242/4/1
g text_stock_option_progress group
f 243/191/1 244/192/1 245/193/1 246/194/1
