v 5.65999999759704 6.16000017781896 0.0249997837336983
v -6.66000035804088 6.16000017781896 0.0249997837336983
v -6.66000035804088 -6.16000017781896 0.0249997837336983
v 5.65999999759704 -6.16000017781896 0.0249997837336983
v 0.720000079297644 1.24707672539658 0
v 0.720000079297644 1.24707660024247 15.0000004004932
v 1.24707672539658 0.719999578681205 15.0000004004932
v 1.24707672539658 0.720000079297644 0
v -8.81658475850754e-17 1.44000015859529 0
v -8.81658475850754e-17 1.44000015859529 15.0000004004932
v -0.720000079297644 1.24707672539658 0
v -0.720000079297644 1.24707660024247 15.0000004004932
v -1.24707672539658 0.720000079297644 0
v -1.24707672539658 0.719999578681205 15.0000004004932
v -1.44000015859529 5.83330039123232e-21 0
v -1.44000015859529 0 15.0000004004932
v -1.24707672539658 -0.720000079297644 0
v -1.24707672539658 -0.720000579914083 15.0000004004932
v -0.720000079297644 -1.24707672539658 0
v -0.720000079297644 -1.24707660024247 15.0000004004932
v -8.81774984565694e-17 -1.44000015859529 0
v -8.81774984565694e-17 -1.44000015859529 15.0000004004932
v 0.720000079297644 -1.24707672539658 0
v 0.720000079297644 -1.24707660024247 15.0000004004932
v 1.24707672539658 -0.720000079297644 0
v 1.24707672539658 -0.720000579914083 15.0000004004932
v 1.44000015859529 -1.76349161056219e-16 0
v 1.44000015859529 0 15.0000004004932
v 1.93856782487684 0 0.00597654384734437
v 1.93856782487684 0 4.98779877590069
v -1.86143221817617 0 4.98779877590069
v -1.86143221817617 0 0.00597654384734437
v 5.8329960179767 0 19.4999995194082
v -5.66268280109395 0 19.4999995194082
v -5.66268280109395 0 4.98779877590069
v 5.8329960179767 0 4.98779877590069
v -1.93856782487684 0 4.98779877590069
v -1.93856782487684 0 0.00597654384734437
v 1.86143221817617 0 0.00597654384734437
v 1.86143221817617 0 4.98779877590069
v 5.66268280109395 0 19.4999995194082
v -5.8329960179767 0 19.4999995194082
v -5.8329960179767 0 4.98779877590069
v 5.66268280109395 0 4.98779877590069
v -1.39345960041357 -0.804514271693593 0
v -1.39345960041357 -0.804514647155922 15.0000004004932
v -1.60902854338719 0 15.0000004004932
v -1.60902854338719 2.07142407467347e-16 0
v -0.804514271693593 -1.39345960041357 0
v -0.804514271693593 -1.39345985072178 15.0000004004932
v -2.69722135347601e-16 -1.60902854338719 0
v -2.69722135347601e-16 -1.60902829307897 15.0000004004932
v 0.804514271693593 -1.39345960041357 0
v 0.804514271693593 -1.39345985072178 15.0000004004932
v 1.39345960041357 -0.804514271693593 0
v 1.39345960041357 -0.804514647155922 15.0000004004932
v 1.60902854338719 -3.83998579435842e-16 0
v 1.60902854338719 0 15.0000004004932
v 1.39345960041357 0.804514271693593 0
v 1.39345960041357 0.804514647155922 15.0000004004932
v 0.804514271693593 1.39345960041357 0
v 0.804514271693593 1.39345985072178 15.0000004004932
v 5.18461530508515e-16 1.60902854338719 0
v 5.18461530508515e-16 1.60902829307897 15.0000004004932
v -0.804514271693593 1.39345960041357 0
v -0.804514271693593 1.39345985072178 15.0000004004932
v -1.39345960041357 0.804514271693593 0
v -1.39345960041357 0.804514647155922 15.0000004004932
vt 0 0
vt 1 0
vt 1 1
vt 0 1
vt 0 0.0138446781784296
vt 1 0.0138446781784296
vn 0 0 1
vn 0.500000108524133 0.866025341127992 9.72083090943408e-09
vn 0.866025428716045 0.499999956817188 9.8705921327091e-09
vn 0 1 4.171803555582e-09
vn -0.500000108524133 0.866025341127992 9.72083090429416e-09
vn -0.866025428716045 0.499999956817188 9.87059212756917e-09
vn -0.999999999999996 8.69125641107725e-08 0
vn -0.866025353447538 -0.50000008718606 -6.81662193519237e-09
vn -0.499999902886771 -0.86602545985278 -2.49505772944803e-09
vn 0 -1 4.171803555582e-09
vn 0.499999902886771 -0.86602545985278 -2.49505773458795e-09
vn 0.866025353447538 -0.50000008718606 -6.81662193519238e-09
vn 0.999999999999996 8.69125640245684e-08 0
vn 0 0 -1
vn 0 -1 0
vn -0.866025406950133 -0.499999994516856 -9.31167762060585e-09
vn -1 -0 -3.35349328986389e-09
vn -0.499999848070278 -0.866025491501087 -7.63493104337789e-09
vn 0.499999848070278 -0.866025491501087 -7.63493104337789e-09
vn 0.866025406950133 -0.499999994516856 -9.31167761140591e-09
vn 1 0 -3.35349328986389e-09
vn 0.866025406950133 0.499999994516856 -9.31167762060585e-09
vn 0.499999848070278 0.866025491501087 -7.63493104337789e-09
vn 0 1 0
vn -0.499999848070278 0.866025491501087 -7.63493104337789e-09
vn -0.866025406950133 0.499999994516856 -9.31167761140591e-09
g shadow_small_ur prop_tree_small_ur prop_tree_small trees
f 1/1/1 2/2/1 3/3/1 4/4/1
g prop_tree_small_ur_collide prop_tree_small_ur prop_tree_small trees
f 5//2 6//2 7//3 8//3
f 9//4 10//4 6//2 5//2
f 11//5 12//5 10//4 9//4
f 13//6 14//6 12//5 11//5
f 15//7 16//7 14//6 13//6
f 17//8 18//8 16//7 15//7
f 19//9 20//9 18//8 17//8
f 21//10 22//10 20//9 19//9
f 23//11 24//11 22//10 21//10
f 25//12 26//12 24//11 23//11
f 27//13 28//13 26//12 25//12
f 8//3 7//3 28//13 27//13
f 27//14 25//14 23//14 21//14 19//14 17//14 15//14 13//14 11//14 9//14 5//14 8//14
g prop_leaves_small_ur prop_tree_small_ur prop_tree_small trees
f 29/2/15 30/3/15 31/4/15 32/1/15
f 33/3/15 34/4/15 35/5/15 36/6/15
g prop_leaves_small_ul prop_tree_small_ul prop_tree_small trees
f 37/3/15 38/2/15 39/1/15 40/4/15
f 41/4/15 42/3/15 43/6/15 44/5/15
g prop_tree_small_ur_collide_1 prop_tree_small_ul prop_tree_small trees
f 45//16 46//16 47//17 48//17
f 49//18 50//18 46//16 45//16
f 51//15 52//15 50//18 49//18
f 53//19 54//19 52//15 51//15
f 55//20 56//20 54//19 53//19
f 57//21 58//21 56//20 55//20
f 59//22 60//22 58//21 57//21
f 61//23 62//23 60//22 59//22
f 63//24 64//24 62//23 61//23
f 65//25 66//25 64//24 63//24
f 67//26 68//26 66//25 65//25
f 48//17 47//17 68//26 67//26
f 67//14 65//14 63//14 61//14 59//14 57//14 55//14 53//14 51//14 49//14 45//14 48//14
g shadow_small_ur_1 prop_tree_small_ul prop_tree_small trees
f 1/1/1 2/2/1 3/3/1 4/4/1
