v 35.8216777203686 -25.5937610842778 5.50584935363621
v 35.8217776146153 -25.5937564865615 5.50584935363621
v 35.8217749906362 -25.5936994755596 5.50593146855513
v 35.8216750963895 -25.5937040732759 5.50593146855513
v 35.8217712152251 -25.5936174474779 5.50587439719975
v 35.8216713209784 -25.5936220451942 5.50587439719975
v 35.8217738392042 -25.5936744584798 5.50579228228083
v 35.8216739449575 -25.5936790561962 5.50579228228083
vn 0.0377541121322365 -0.820280836468868 0.570713567684387
vn -0.0262397914898751 0.570110032959962 0.821149209133735
vn -0.0377541121322365 0.820280836468868 -0.570713567684387
vn 0.0262397914898751 -0.570110032959962 -0.821149209133735
vn 0.998942491017213 0.0459771643354134 0
vn -0.998942491017213 -0.0459771643354134 0
g pCube1 camera1 flyover hole1
f 1//1 2//1 3//1 4//1
f 4//2 3//2 5//2 6//2
f 6//3 5//3 7//3 8//3
f 8//4 7//4 2//4 1//4
f 2//5 7//5 5//5 3//5
f 8//6 1//6 4//6 6//6
