v 2 -3.75 2.05105750613694
v 8 -3.75 2.05105750613694
v 8 -2.55 2.05105750613694
v 2 -2.55 2.05105750613694
v 2 -2.55 3.01304230795869
v 8 -2.55 3.01304230795869
v 8 -1.35 3.01304230795869
v 2 -1.35 3.01304230795869
v 2 -1.35 4
v 8 -1.35 4
v 8 0.2 4
v 2 0.2 4
v 8 -3.75 1.08907270431519
v 2 -3.75 1.08907270431519
v 8 -5 0
v 8 -5 1.08907270431519
v 2 -5 1.08907270431519
v 2 -5 0
v 8 -5.0878027246188 0
v 9.66722244326813 -5.0878027246188 0
v 9.98311926506958 -5.04974716901779 2.16317297014134
v 8 -5.04974716901779 2.16317297014134
v 9.98311926506958 -5.27418037652969 2.16317297014134
v 8 -5.27418037652969 2.16317297014134
v 9.98311926506958 -5.27418037652969 2.5958075641696
v 8 -5.27418037652969 2.5958075641696
v 9.98311926506958 -3.36649811267853 2.5958075641696
v 8 -3.36649811267853 2.5958075641696
v 9.1582703264324 0.2 5.5
v 8 0.2 5.5
v 9.66722244326813 -3.36649811267853 0
v 9.40174354617341 0.2 0
v 0.345801825401552 -5.0878027246188 0
v 2 -5.0878027246188 0
v 2 -5.04974716901779 2.16317297014134
v 0.0245156877972905 -5.04974716901779 2.16317297014134
v 2 -5.27418037652969 2.16317297014134
v 0.0245156877972905 -5.27418037652969 2.16317297014134
v 2 -5.27418037652969 2.5958075641696
v 0.0245156877972905 -5.27418037652969 2.5958075641696
v 2 -3.36649811267853 2.5958075641696
v 0.0245156877972905 -3.36649811267853 2.5958075641696
v 2 0.2 5.5
v 0.857480903444754 0.2 5.5
v 0.345801825401552 -3.36649811267853 0
v 0.611280722496279 0.2 0
v 9.48311926506958 0.2 5.5
v 7.94782602316616 0.2 5.5
v 7.94782602316616 -5.31154470939908 2.5958075641696
v 9.98311926506958 -5.31154470939908 2.5958075641696
v 7.94782602316616 0.2 0
v 9.48311926506958 0.2 0
v 7.94782602316616 -5.31154470939908 0
v 9.98311926506958 -5.31154470939908 0
v 0.447826023166162 0.2 5.5
v -0.0521739768338376 -5.31154470939908 2.5958075641696
v 2 -5.31154470939908 2.5958075641696
v 0.447826023166162 0.2 0
v 2 0.2 0
v -0.0521739768338376 -5.31154470939908 0
v 2 -5.31154470939908 0
v 1.38496889224536 -4.99999999999998 1.0890727043152
v 8.60964179195183 -5.00000000000002 1.08907270431517
v 8.60964179195183 -1.35000000000002 3.99999999999999
v 1.38496889224536 -1.34999999999998 4.00000000000001
v 8.57231318044142 0.2 4
v 1.42229750375577 0.2 4
v -1.13684238913609 -6.42825667305213 0.025
v 11.1092550452665 -6.42825667305213 0.025
v 11.1092550452665 1.57174332694787 0.025
v -1.13684238913609 1.57174332694787 0.025
vt 0 0.493834495544434
vt 1 0.493834495544434
vt 1 1
vt 0 1
vt 0 0.499797374010086
vt 1 0.499797374010086
vt 0 0.487635523080826
vt 1 0.487635523080826
vt 1 0
vt 1 0.451654046773911
vt 0 0.451654046773911
vt 0 0
vt 1 0.369189113378525
vt 0 0.369189113378525
vt 1 0.0394727140665054
vt 1 0.438048273324966
vt 0 0.438048273324966
vt 0 0.0394727140665054
vt 0 0.513529717922211
vt 1 0.513529717922211
vt -0.00524467974901199 -0.0113630248233676
vt 1.00737380981445 -0.0117559060454369
vt 1.00698101520538 0.988256335258484
vt -0.00563756143674254 0.988649189472198
vt 0.951461851596832 0.184511303901672
vt 0.951461851596832 0.198789298534393
vt 1.00583112239838 0.198789298534393
vt 1.00583112239838 0.184511303901672
vt 0 0.800000011920929
vt 0.535027146339417 0.800000011920929
vt 0.535027146339417 0.886526942253113
vt 0 0.886526942253113
vt -0.00887631718069315 -0.000621739076450467
vt 0.946025311946869 0.00255118682980537
vt 0.957786858081818 0.400907188653946
vt 0.00288521405309439 0.397734254598618
vt 0.699855923652649 0.985810279846191
vt 0.0201815813779831 0.983551859855652
vt 0.0646007433533669 0.0185295883566141
vt 0.0693964138627052 0.390165984630585
vt 0.371656119823456 0.467664867639542
vt 0.0290405303239822 0.389741182327271
vt 0.028631092980504 0.464054077863693
vt 0.374112755060196 0.0217876099050045
vt 0.97424590587616 0.972884833812714
vt 0.979451060295105 0.0281595923006535
vt 0.975168764591217 0.805390655994415
vt -0.0173254422843456 -0.0156196216121316
vt 1.01418972015381 -0.0154367247596383
vt 1.01436698436737 0.998132169246674
vt -0.0171481333673 0.997949182987213
vt 0.951461851596832 0.203463837504387
vt 0.951461851596832 0.217741832137108
vt 1.00583112239838 0.217741832137108
vt 1.00583112239838 0.203463837504387
vt 0.946523606777191 0.0113272992894053
vt 0.0132056884467602 0.00712316483259201
vt 0.0248447936028242 0.398973047733307
vt 0.958162724971771 0.403177201747894
vt 0.0419611260294914 0.975222885608673
vt 0.706272721290588 0.978215277194977
vn 0 0 1
vn 0 -1 0
vn 0 -0.999845288410417 0.0175897482497789
vn 0 0 -1
vn 0 -0.335088660721645 0.942186600125355
vn 0 -0.631432091971769 0.775431178911549
vn -1 0 0
vn 0.997244307588418 0.0573589160340487 -0.0470504594440475
vn 0.997784068006016 0.00838754831924836 -0.0660045654978375
vn 0.991146092733268 0.0167379241651533 -0.131716607738804
vn 0.993788379544304 0.0860422889542674 -0.0705789004888561
vn 1 0 0
vn 0.98793586673421 0.15461117321387 -0.00883789214435621
vn 0 -0.551514141574253 0.834165542109967
vn -0.99363041210257 0.0868064540809647 -0.0718557142805317
vn -0.990845585106814 0.0170183179151601 -0.13392312470098
vn -0.997708771412483 0.00852870015919915 -0.067115338933716
vn -0.997174326347966 0.0578686048408819 -0.047901852221507
vn -0.987740346155134 0.155836726269622 -0.0091609673563409
vn 0 -0.466171164846509 0.88469454901997
vn 0 1 0
vn 0.995910287680341 0.0903476557109272 0
vn -0.995910287680341 0.0903476557109272 0
vn 0 -0.623509365988598 0.781815880194625
vn 0 -0.330290871661158 0.943879197830587
g o27 g11 stairs g2 g1
f 1/1/1 2/2/1 3/3/1 4/4/1
f 5/5/1 6/6/1 7/3/1 8/4/1
f 9/7/1 10/8/1 11/3/1 12/4/1
f 13/9/2 2/10/2 1/11/2 14/12/2
f 3/9/2 6/10/2 5/11/2 4/12/2
f 7/9/2 10/13/2 9/14/2 8/12/2
f 15/15/2 16/16/2 17/17/2 18/18/2
f 17/19/1 16/20/1 13/3/1 14/4/1
g rightside_wall stairs g2 g1
f 19/21/3 20/22/3 21/23/3 22/24/3
f 22/25/4 21/26/4 23/27/4 24/28/4
f 24/29/2 23/30/2 25/31/2 26/32/2
f 26/33/1 25/34/1 27/35/5 28/36/5
f 28/36/5 27/35/5 29/37/6 30/38/6
f 19/39/7 22/40/7 28/41/7
f 22/40/7 24/42/7 26/43/7 28/41/7
f 27/41/8 21/40/9 20/39/10 31/44/11
f 27/41/8 25/43/12 23/42/12 21/40/9
f 29/45/13 27/41/8 31/44/11 32/46/13
f 11/47/7 28/41/7 30/45/7
f 11/47/7 19/39/7 28/41/7
g leftside_wall stairs g2 g1
f 33/48/3 34/49/3 35/50/3 36/51/3
f 36/52/4 35/53/4 37/54/4 38/55/4
f 38/29/2 37/30/2 39/31/2 40/32/2
f 40/56/1 39/57/1 41/58/5 42/59/5
f 42/59/5 41/58/5 43/60/14 44/61/6
f 45/44/15 33/39/16 36/40/17 42/41/18
f 36/40/17 38/42/7 40/43/7 42/41/18
f 46/46/19 45/44/15 42/41/18 44/45/19
f 41/41/12 35/40/12 34/39/12
f 41/41/12 39/43/12 37/42/12 35/40/12
f 12/47/12 41/41/12 34/39/12
f 12/47/12 43/45/12 41/41/12
g stairs_collisions collisions stairs g2 g1
f 47//20 48//20 49//20 50//20
f 51//21 48//21 47//21 52//21
f 53//7 49//7 48//7 51//7
f 54//2 50//2 49//2 53//2
f 52//22 47//22 50//22 54//22
f 54//4 53//4 51//4 52//4
f 43//14 55//20 56//20 57//20
f 58//21 55//21 43//21 59//21
f 60//23 56//23 55//23 58//23
f 61//2 57//2 56//2 60//2
f 59//12 43//12 57//12 61//12
f 61//4 60//4 58//4 59//4
g steps_collisions_1 collisions stairs g2 g1
f 62//24 63//24 64//25 65//25
f 64//25 66//1 67//1 65//25
g o1 square_drop_shadow stairs g2 g1
f 68/12/1 69/9/1 70/3/1 71/4/1
