v -0.0286847309436718 -0.50019695031286 0.403334344354391
v -0.0598374094652712 -0.453954503555666 0.382029625334975
v -0.053956339626114 -0.464960708316132 0.312434816782091
v -0.0263485241539542 -0.512773952667839 0.311751551842917
v -0.0297532849996442 -0.399791620683544 0.358145938626604
v -0.0263485163318224 -0.417147463964425 0.313118081721264
v 0.0214785302771651 -0.398479632214109 0.357510601563255
v 0.0587779025916332 -0.449911449076792 0.380096624566703
v 0.0564748987961296 -0.464960745442954 0.31243489711499
v 0.0288671067903654 -0.417147501091248 0.313118162054163
v 0.0387427399062089 -0.496510576563646 0.401274740311297
v 0.0288670911461017 -0.512773989794661 0.311751632175816
v 0.00125929131820557 -0.384002585346144 0.459184915124432
v 0.0288671067903654 -0.417147511892767 0.313118132689233
v -0.0263485163318224 -0.417147511892767 0.313118132689233
v -0.0571146192302874 -0.344011951301469 0.275864149009543
v 0.0651852102627571 -0.344011951301469 0.275864149009543
v -0.053956339626114 -0.464960745442954 0.31243489711499
v -0.118264698241579 -0.44991584504481 0.274350634178777
v -0.0263485241539542 -0.512773989794661 0.311751632175816
v -0.0571146505188149 -0.55581987785091 0.272837103824227
v 0.065185163329966 -0.55581987785091 0.272837103824227
v 0.0564748909739977 -0.464960745442954 0.31243489711499
v 0.12633496074451 -0.44991584504481 0.274350634178777
v -0.119904561253297 -0.252478642188188 0.180839276190958
v 0.12242323775529 -0.252478663791227 0.180839217461097
v -0.241068476401854 -0.425622772910466 0.16830148638683
v -0.119904623830352 -0.635463798020727 0.165302949583514
v 0.122423175178235 -0.635463798020727 0.165302949583514
v 0.243587059038265 -0.425622772910466 0.16830148638683
v -0.0263485261094872 -0.512773931064801 0.311751610572778
v -0.0539563357150481 -0.464960756244473 0.31243486775006
v -0.0263485163318224 -0.417147442361387 0.313118140451125
v 0.0288671087458983 -0.417147570622627 0.313118154292271
v 0.0564748987961296 -0.464960686713094 0.312434875511952
v 0.0288670931016346 -0.512773931064801 0.311751610572778
v -0.0198600383983842 -0.494562517390263 0.213493123653367
v 0.0223786014794657 -0.494562517390263 0.213493123653367
v 0.0434979194628578 -0.457986336283567 0.214015482314019
v 0.0223786132126635 -0.42141036377101 0.214537817688996
v -0.0198600305762524 -0.42141036377101 0.214537817688996
v -0.0409793524707103 -0.457986336283567 0.214015482314019
v -0.0252499042220629 0.0191444487083615 -0.0175763928671209
v -0.00337165171705832 -0.0294418159745184 -0.0175763928671209
v 0.0158350768051748 -0.176821324456082 0.39717628574121
v -0.00200061973311457 -0.142609791492853 0.417136833110819
v 0.0277660650218253 0.0137983774888547 -0.0175763928671209
v 0.0412193808968612 -0.146374161162089 0.414940534927088
v -0.0138212425580488 -0.413951160400871 0.440446191572455
v -0.001375605364445 -0.388916834132878 0.428733925806882
v 0.0163374248686738 -0.41119667488759 0.439157886455065
v -0.0149912701973452 -0.358465775417218 0.509757194619166
v -0.00173444529687326 -0.341383271955755 0.487396973637458
v 0.0165094443037128 -0.353160993320735 0.509843676109014
v -0.0112885927043249 -0.253238593499492 0.479913884260523
v -0.025081765542193 -0.242521709657404 0.508609155970296
v 0.00834217358605442 -0.243700708304177 0.505451893243264
v -0.0384068192972561 0.033069004228626 -0.0429941141257668
v 0.0824507498791249 -0.0603186092506489 0.0159865960538252
v 0.10646344314911 0.0880677260460672 0.195142195318656
v -0.0143941260272711 0.181455313071119 0.136161501846728
v 0.169463331191249 0.243463532511645 0.2696674536387
v 0.0486058245919233 0.336851106309585 0.210686768520604
v 0.227078901700151 0.310847820501188 0.217450555673943
v 0.1062217079861 0.404235433980463 0.158469845494351
v 0.256604664793794 0.290169954055468 0.0827855816846837
v 0.135747283348578 0.383557514626297 0.0238049049204195
v -0.0847203479916697 -0.0326770832141154 -0.015103845644689
v 0.0519005330643005 0.0515467134218029 -0.0110967072535118
v -0.019597785672143 0.171619374737379 0.166595798962192
v -0.16171508554261 0.0914617511516445 0.180158278765505
v -0.0885244617828092 0.28585326243555 0.236078771442221
v -0.230641927387535 0.205695720599368 0.249641180477999
v -0.152253320666233 0.381503185241594 0.198578633523901
v -0.294371126319876 0.301345590945941 0.212140948320138
v -0.18655736579265 0.403521957994112 0.0551321612472637
v -0.328675278215844 0.323364452296282 0.0686941367580918
v 0.0158350768051748 -0.0249531012507561 0.470312874461096
v -0.00200061973311457 0.0146556714075444 0.470312874461096
v 0.0412193808968612 0.0102974298432117 0.470312874461096
v -0.0138212376692164 -0.168789512529148 0.8064324461569
v -0.00137560010895016 -0.169303176284149 0.778798606452041
v 0.0163374297575062 -0.168845722368696 0.803392139945443
v -0.0149912701973452 -0.0829000954865784 0.783947008488372
v -0.00173444480799002 -0.0963757200816799 0.759244778650639
v 0.0165094443037128 -0.0806628093318989 0.779136272240186
v -0.0112885878154925 -0.0459857265467406 0.693413529183295
v -0.0250817596755941 -0.0205500916702541 0.710480982863058
v 0.00834217847488684 -0.0233485844973817 0.708602982868986
v -0.00976180154194669 0.0483579210096144 -0.0157845614776211
v 0.111095767634434 -0.062095555733508 -0.0157845614776211
v 0.148027243576651 -0.00634755049477725 0.210798787945525
v 0.0271696744002695 0.104105894959818 0.210798787945525
v 0.226014680436903 0.0636481159315335 0.400895021093173
v 0.105157142549049 0.174101553563997 0.400895021093173
v 0.305348149747673 0.126108503717137 0.568233262209755
v 0.184490580571292 0.236561949171732 0.568233262209755
v 0.409310289568163 0.193652549753665 0.734424778795618
v 0.288452689103254 0.304106026496787 0.734424778795618
v -0.0874446132990319 -0.0596009527291526 -0.00514354742574567
v 0.0329115885136321 0.0451264418954924 -0.0230747414386179
v -0.00451962778887411 0.130893567728558 0.184167933276319
v -0.124875798313011 0.026166188748177 0.22095213411987
v -0.049750854962767 0.253119728383743 0.359317449134166
v -0.170107025486904 0.148392349403361 0.396101649977717
v -0.109385536724501 0.371201645358028 0.511307697596512
v -0.229741738537165 0.266474250733383 0.548091898440063
v -0.179908250573426 0.51359808038226 0.657446490810925
v -0.300264483674618 0.408870685757614 0.694230660365948
v -0.0299440213105157 -0.223022152413421 0.874256219226598
v -0.0610967012206955 -0.227053114845017 0.823501856142986
v -0.0552156282097703 -0.296168876441101 0.809805692035512
v -0.027607817038551 -0.313316364575025 0.854443532318067
v -0.0310125768297029 -0.230770180445786 0.764423626531687
v -0.0276078082375534 -0.279021387947099 0.765167857251918
v 0.0202192402209662 -0.230913520371178 0.762972985681839
v 0.0575186087158703 -0.227471516921306 0.819040045227367
v 0.0552156106077752 -0.296168813277618 0.809805698944571
v 0.027607817038551 -0.279021324063459 0.7651678751589
v 0.0374834486934555 -0.223682500754274 0.870085441630367
v 0.0276077994365559 -0.313316302131699 0.854443528229203
v 0 -0.127878496999655 0.786833719976819
v 0.0276078165901887 -0.279021352512999 0.765167872931069
v -0.0276078077066815 -0.279021345686257 0.765167855159891
v -0.0611498857880993 -0.21250566704863 0.72848383914674
v 0.061149932746227 -0.212505676150952 0.728483862841645
v -0.0552156262008867 -0.296168828589463 0.809805689919995
v -0.122299833129883 -0.250486482175107 0.827354405703933
v -0.0276078172253366 -0.313316312928295 0.854443528417281
v -0.0611499238627198 -0.288467301727888 0.926224983783553
v 0.0276078007257635 -0.313316314066085 0.854443531379144
v 0.0611498946716065 -0.288467301727888 0.926224983783553
v 0.0552156097013135 -0.296168831734729 0.809805698107662
v 0.12229980393877 -0.250486489141713 0.827354423839203
v -0.121163851443756 -0.132352234002422 0.647921366136973
v 0.121163961859584 -0.132352256758228 0.647921425374234
v -0.242327777132736 -0.207608339742409 0.843825898112475
v -0.121163902209916 -0.28286445222533 1.03973044764099
v 0.121163873018803 -0.282864456776492 1.03973045948844
v 0.242327747941623 -0.207608353546212 0.84382593404614
v -0.0276078168686841 -0.313316316087405 0.854443542439185
v -0.0552156259152363 -0.296168843713147 0.809805735087735
v -0.0276078074370785 -0.279021344281648 0.765167857301653
v 0.0276078177297301 -0.279021371338889 0.765167927736285
v 0.0552156055551698 -0.296168816655906 0.809805664653103
v 0.0276078012244204 -0.313316316087405 0.854443542439185
v -0.0443672847574282 -0.402082454259985 0.851440846662588
v 0.0443672643973617 -0.402082454259985 0.851440846662588
v 0.0887345413326581 -0.374525438953454 0.779705216268428
v 0.0443672879763756 -0.346968504818647 0.707969797178164
v -0.0443672706100199 -0.346968504818647 0.707969797178164
v -0.0887345569769219 -0.374525438953454 0.779705216268428
vt 0.976372122764587 0.475622355937958
vt 0.797250986099243 0.421088069677353
vt 0.670411229133606 0.724266409873962
vt 0.989608645439148 0.985944986343384
vt 0.647145330905914 0.262776732444763
vt 0.494536519050598 0.392279356718063
vt 0.637463331222534 0.262776762247086
vt 0.799675703048706 0.418108195066452
vt 0.670411229133606 0.724266529083252
vt 0.975267291069031 0.473158568143845
vt 0.989608466625214 0.985945105552673
vt 0.927496075630188 0.0236900746822357
vt 0.384742558002472 0.339286088943481
vt 0.607279121875763 0.339286088943481
vt 0.743231773376465 0.573434829711914
vt 0.250324368476868 0.573434829711914
vt 0.607279181480408 0.339286088943481
vt 0.986479640007019 0.992699980735779
vt 0.00982189178466797 0.992699980735779
vt 0.383124947547913 0.325768709182739
vt 0.198057919740677 0.432617127895355
vt 0.012991189956665 0.325768649578094
vt 0.012991189956665 0.112071812152863
vt 0.198057919740677 0.0052234441973269
vt 0.383124947547913 0.112071856856346
vt 0.669379711151123 0.400703132152557
vt 0.595362305641174 0.00851820409297943
vt 0.98725438117981 0.00851820409297943
vt 0.913265764713287 0.400703132152557
vt 0.669354557991028 0.400702923536301
vt 0.595361828804016 0.00851809978485107
vt 0.987254023551941 0.00851809978485107
vt 0.913265228271484 0.400702923536301
vt 0.669379711151123 0.400702923536301
vt 0.59536224603653 0.00851809978485107
vt 0.987254440784454 0.00851809978485107
vt 0.913265824317932 0.400702923536301
vt 0.913265764713287 0.400703012943268
vt 0.98725438117981 0.00851810164749622
vt 0.595362305641174 0.00851810164749622
vt 0.669379711151123 0.400703012943268
vt 0.668726444244385 0.400702923536301
vt 0.987253844738007 0.00851809978485107
vt 0.913265407085419 0.400702863931656
vt 0.669379711151123 0.400702983140945
vt -1.32457103063643e-08 2.20861693378538e-08
vt 0.329147785902023 2.20861693378538e-08
vt 0.618104577064514 0.38901498913765
vt 0.349774718284607 0.38901498913765
vt 0.797601819038391 2.20861693378538e-08
vt 1 0.38901498913765
vt 0.171938970685005 1
vt 0.35917803645134 1
vt 0.625662803649902 1
vt 0.0916049182415009 0.887897670269012
vt 0.291047781705856 0.892004251480103
vt 0.565519630908966 0.881797015666962
vt 0.210038900375366 0.763594031333923
vt 0.00252723437733948 0.763594031333923
vt 0.50537645816803 0.763594031333923
vt 0.0096516041085124 0
vt 0.993565559387207 0
vt 0.993565559387207 0.274220913648605
vt 0.0096516041085124 0.274220913648605
vt 0.993565559387207 0.527358114719391
vt 0.0096516041085124 0.527358114719391
vt 0.993565559387207 0.75771301984787
vt 0.0096516041085124 0.75771301984787
vt 0.993565559387207 0.995533406734467
vt 0.0096516041085124 0.995533406734467
vn -0.84215817459014 -0.367205523971853 0.394879364028509
vn -0.850893015693795 -0.52428060283387 0.0333305465852795
vn -0.86483134032293 0.502024166182269 -0.00620397971007561
vn -0.872957151061401 0.452314555450642 -0.182639960956658
vn 0.457438236032485 0.874093116681811 -0.16343648180552
vn 0.967910116700809 0.18317153829394 0.172041255364109
vn 0.997354488048939 0.0446551464808268 -0.0573580252572792
vn 0.475568302817578 0.832655704238966 -0.283759171752246
vn 0.0471951598808643 -0.805088001174594 0.59127483224683
vn 0.0322917920975299 -0.987249422996709 0.155871154983194
vn -0.642922165828209 -0.0267939686611435 0.765462717531135
vn 0.688751447699214 0.683691394217858 0.241220896202378
vn 0.900156077604578 -0.270018743328805 0.341773191170217
vn 0.894313093697319 -0.447005341162758 0.0197564018357913
vn -0.0205450693238456 0.964716931931465 -0.262486459405471
vn -0.0136622057362355 0.926900698965145 -0.375057913384516
vn -0.219490328567941 -0.354080935934337 -0.909093332102376
vn 0.232334419009758 -0.362094758226626 -0.902722606235271
vn 0.273297467851548 -0.467058561804682 -0.840930909118504
vn -0.270776416433022 -0.466373089850786 -0.84212604363404
vn 0.515829623994642 0.0384573088368622 -0.85582757282444
vn 0.589524636462349 0.0298632036039266 -0.807198173978637
vn 0.283530095281074 0.52362941282043 -0.803382177484189
vn 0.317826547663077 0.585062868990773 -0.746115088259751
vn -0.266295896093389 0.513026992417121 -0.816020710996518
vn -0.313717635721911 0.58324537478759 -0.749270363637812
vn -0.48435294632308 0.0363474834287049 -0.87411731697556
vn -0.583608912770946 0.028616289354473 -0.81153049537149
vn 0.310878060461676 -0.56740104115124 -0.762503042632667
vn -0.318294354284183 -0.573048468839072 -0.755184849154172
vn 0.660477646032365 0.0207793299789586 -0.750558124689335
vn 0.350330341348155 0.643150220620075 -0.68090120109105
vn -0.358792766707466 0.648542509512578 -0.671312419007372
vn -0.678082755520578 0.0201742546096758 -0.734708633484434
vn -1.29596945799183e-07 0.0142889598375733 -0.999897907601943
vn -0.493097675376447 -0.848991605602761 -0.189915602714441
vn 0.493097847339275 -0.848991526565249 -0.189915509555646
vn 0.991446127976665 0.0036851421162291 -0.130464535593628
vn 0.497794201823524 0.864453890162357 -0.0701455944022747
vn -0.49779331570774 0.864454387203649 -0.0701457573988472
vn -0.991446103321534 0.00368465781152649 -0.130464736635455
vn -0.911051716424469 -0.411035967962686 -0.0321590273641416
vn -0.916900770012773 -0.294061950094873 -0.26985282554827
vn 0.808989185745445 -0.573204043570997 -0.130282852980665
vn 0.787631143598432 -0.557621898356496 -0.262097310377508
vn 0.0997934393738916 0.97928035993728 0.176213637664739
vn 0.0984140874502676 0.822150626433876 0.56069868454074
vn 0 2.60922714545586e-08 -1
vn 1.28203013852143e-05 -0.423769844503178 -0.905769903852734
vn -0.914925004676785 0.115556748654281 -0.386728423648477
vn -0.903446274988099 0.328607216199907 -0.275321858324899
vn 0.815800631347478 0.259906713544221 -0.516640910253629
vn 0.795245980486631 0.47026775814414 -0.382664430238742
vn 0.0883430860319757 -0.4142925437431 0.905846116815223
vn 0.113028419670256 -0.771356209128007 0.626286016917602
vn -0.882368682643497 -0.135390687593002 -0.450660481519153
vn 0.829771656152676 -0.279151134125763 -0.48327387986725
vn 0.0745112183563902 0.366352985992209 0.927487772422709
vn -0.665562380622132 -0.528525654667729 0.526960482255215
vn -0.620011095051331 -0.363130076968825 0.695501825456889
vn -0.276410640203462 0.231390200227805 0.932767780972761
vn 0.381652187142605 0.793399536503479 0.474192770427103
vn 0.607915721927657 0.793919997833875 0.0113803371055763
vn 0.418570965915471 -0.67440473872319 0.608257013835678
vn 0.362824647296195 -0.531848702190146 0.765176602682707
vn 0.110274207984515 -0.027412352467423 0.993523105914296
vn -0.311363576086041 0.666628489028828 0.677243812154865
vn -0.459226629086927 0.854986154055999 0.24105928629694
vn -0.911620377688894 -0.407502659534531 -0.0537575060307082
vn 0.798791041249814 -0.60160747078581 0.00115044067193125
vn 0.0982322128263109 0.992041263984125 0.0787690479568423
vn 1.11271091123589e-05 -0.999827194086492 0.018589831664661
vn -0.912406256936194 -0.265227783374124 -0.311719497674003
vn -0.903446373606899 -0.117807089928176 -0.41219672436738
vn 0.810289032506794 -0.285890298111418 -0.511564679434545
vn 0.795246144248944 -0.158228180869381 -0.585275501653669
vn 0.0970348624538153 0.540702649058245 0.835598516495791
vn 0.113028552565671 0.258272878180855 0.959437161413444
vn -0.898566941260576 -0.402840731249543 -0.174059752154099
vn 0.822862759564644 -0.529790865146645 -0.205471453318526
vn 0.086727159581893 0.909459403675597 0.406647258513917
vn -0.64765106145373 -0.708656294772029 0.279918485416444
vn -0.623260710684272 -0.681968454574481 0.382707608341707
vn -0.585659107797886 -0.640825002671923 0.496333280572555
vn -0.56385934630707 -0.616971847017406 0.54900671905733
vn -0.546952891371896 -0.598472701404507 0.585382746836218
vn 0.655845681538097 -0.656261006690127 0.373078990437534
vn 0.650955601997566 -0.60302001572916 0.461111336726816
vn 0.627420173731933 -0.516320127020667 0.582887169208204
vn 0.598611456399073 -0.456827498630544 0.658006809054999
vn 0.581438525686267 -0.424405861342962 0.694124560655736
vn -0.843855446407881 0.234035997733379 0.48284069560539
vn -0.85089306515057 -0.149711855482622 0.503554716000773
vn -0.864718010905757 0.168116213776512 -0.4732860660115
vn -0.872957222428316 -0.0152626352943507 -0.487557934787356
vn 0.457217229606788 0.154525356713329 -0.875827790769003
vn 0.968804749774172 0.221629469409491 -0.110895153655475
vn 0.997354495120094 -0.0384156741596515 -0.0617109961238914
vn 0.475568234574922 0.021137775688529 -0.879424839711862
vn 0.0473976315619968 0.26384515443651 0.9633998126441
vn 0.0322924423780877 -0.194532851955616 0.9803643035501
vn -0.649842255947799 0.697423335172116 0.302168386735074
vn 0.690990682011649 0.464709269808104 -0.553694114044474
vn 0.901789957841494 0.219023278233862 0.372563652988222
vn 0.894312973377779 -0.135774774060875 0.426344363604017
vn -0.0204926133629668 0.0950107798368317 -0.995265293533515
vn -0.0136623707200573 -0.0320136832589627 -0.9993940482665
vn 0.294670609009539 -0.571130888013421 -0.766145378464785
vn -0.294670384883752 -0.571130823355742 -0.766145512866488
vn -0.237783711604472 -0.67348361922906 -0.699913366871735
vn 0.237783889358979 -0.673483671919968 -0.699913255781396
vn -0.589341003299535 -0.75415364223145 -0.28970582620813
vn -0.475567603065708 -0.821173518165958 -0.315451276708908
vn -0.294670518826094 -0.937176447146636 0.186734014706396
vn -0.237783823160489 -0.968863432005617 0.0690108945419406
vn 0.294670522270121 -0.937176437345821 0.186734058459748
vn 0.237783809055182 -0.968863433837434 0.0690109174257633
vn 0.589341053278115 -0.754153672901717 -0.289705644698013
vn 0.475567633267748 -0.821173553300943 -0.315451139714561
vn -0.178704458143909 -0.760837844824804 -0.623851336875893
vn 0.178704587701062 -0.760837885709402 -0.623851249901642
vn -0.357409048430663 -0.871832994617402 -0.334911931104792
vn -0.178704544849933 -0.982828171010414 -0.045972512638564
vn 0.178704512473329 -0.982828176998009 -0.0459725104866017
vn 0.357409053461353 -0.87183302848093 -0.334911837583608
vn -2.35518982094618e-08 -0.933492076026885 -0.358598025642941
vn -0.464346666297007 0.0577753668872413 0.883767039711202
vn 0.464346729991712 0.0577755208578353 0.883766996179202
vn 0.928693016381902 0.346185164769508 0.132985386479087
vn 0.464346598846088 0.634595089896271 -0.617795522822572
vn -0.464346222090564 0.63459523065668 -0.617795661410806
vn -0.928693064652583 0.346184979917518 0.132985530587735
g back_wilt head_wilt wilt narcissi
f 1/1/1 2/2/1 3/3/2 4/4/2
f 2/2/3 5/5/3 6/6/4 3/3/4
f 7/7/5 8/8/6 9/9/7 10/6/8
f 11/10/9 1/1/9 4/4/10 12/11/10
f 2/2/1 1/1/1 13/12/11
f 5/5/3 2/2/3 13/12/11
f 8/8/6 7/7/5 13/12/12
f 1/1/9 11/10/9 13/12/11
f 8/8/6 11/10/13 12/11/14 9/9/7
f 13/12/12 11/10/13 8/8/6
f 5/5/15 7/7/5 10/6/8 6/6/16
f 13/12/12 7/7/5 5/5/15
g desat_petals_wilt head_wilt wilt narcissi
f 14/13/17 15/14/18 16/15/19 17/16/20
f 15/13/18 18/14/21 19/15/22 16/16/19
f 18/13/21 20/14/23 21/15/24 19/16/22
f 20/13/23 12/14/25 22/15/26 21/16/24
f 12/13/25 23/14/27 24/15/28 22/16/26
f 23/13/27 14/17/17 17/15/20 24/16/28
f 17/16/20 16/15/19 25/18/29 26/19/30
f 16/16/19 19/15/22 27/18/31 25/19/29
f 19/16/22 21/15/24 28/18/32 27/19/31
f 21/16/24 22/15/26 29/18/33 28/19/32
f 22/16/26 24/15/28 30/18/34 29/19/33
f 24/16/28 17/15/20 26/18/30 30/19/34
g nose_wilt head_wilt wilt narcissi
f 31/20/35 32/21/35 33/22/35 34/23/35 35/24/35 36/25/35
f 31/26/36 37/27/36 38/28/37 36/29/37
f 36/30/37 38/31/37 39/32/38 35/33/38
f 35/34/38 39/35/38 40/36/39 34/37/39
f 34/38/39 40/39/39 41/40/40 33/41/40
f 33/42/40 41/31/40 42/43/41 32/44/41
f 32/45/41 42/35/41 37/36/36 31/37/36
g stem_wilt stem_wilt wilt narcissi
f 43/46/42 44/47/42 45/48/43 46/49/43
f 44/47/44 47/50/44 48/51/45 45/48/45
f 47/50/46 43/46/46 46/49/47 48/51/47
f 43/46/48 47/50/48 44/47/48
f 49/52/49 50/53/49 51/54/49
f 52/55/50 53/56/50 50/53/51 49/52/51
f 53/56/52 54/57/52 51/54/53 50/53/53
f 54/57/54 52/55/54 49/52/55 51/54/55
f 46/49/43 45/48/43 55/58/56 56/59/56
f 45/48/45 48/51/45 57/60/57 55/58/57
f 48/51/47 46/49/47 56/59/58 57/60/58
f 55/58/57 57/60/57 54/57/52 53/56/52
f 57/60/58 56/59/58 52/55/54 54/57/54
f 56/59/56 55/58/56 53/56/50 52/55/50
g leaf1_wilt stem_wilt wilt narcissi
f 58/61/59 59/62/59 60/63/60 61/64/60
f 61/64/60 60/63/60 62/65/61 63/66/61
f 63/66/61 62/65/61 64/67/62 65/68/62
f 65/68/62 64/67/62 66/69/63 67/70/63
g leaf2_wilt stem_wilt wilt narcissi
f 68/61/64 69/62/64 70/63/65 71/64/65
f 71/64/65 70/63/65 72/65/66 73/66/66
f 73/66/66 72/65/66 74/67/67 75/68/67
f 75/68/67 74/67/67 76/69/68 77/70/68
g stem_bloom stem_bloom bloom narcissi
f 43/46/42 44/47/42 78/48/69 79/49/69
f 44/47/44 47/50/44 80/51/70 78/48/70
f 47/50/46 43/46/46 79/49/71 80/51/71
f 43/46/48 47/50/48 44/47/48
f 81/52/72 82/53/72 83/54/72
f 84/55/73 85/56/73 82/53/74 81/52/74
f 85/56/75 86/57/75 83/54/76 82/53/76
f 86/57/77 84/55/77 81/52/78 83/54/78
f 79/49/69 78/48/69 87/58/79 88/59/79
f 78/48/70 80/51/70 89/60/80 87/58/80
f 80/51/71 79/49/71 88/59/81 89/60/81
f 87/58/80 89/60/80 86/57/75 85/56/75
f 89/60/81 88/59/81 84/55/77 86/57/77
f 88/59/79 87/58/79 85/56/73 84/55/73
g leaf1_bloom stem_bloom bloom narcissi
f 90/61/82 91/62/82 92/63/83 93/64/83
f 93/64/83 92/63/83 94/65/84 95/66/84
f 95/66/84 94/65/84 96/67/85 97/68/85
f 97/68/85 96/67/85 98/69/86 99/70/86
g leaf2_bloom stem_bloom bloom narcissi
f 100/61/87 101/62/87 102/63/88 103/64/88
f 103/64/88 102/63/88 104/65/89 105/66/89
f 105/66/89 104/65/89 106/67/90 107/68/90
f 107/68/90 106/67/90 108/69/91 109/70/91
g back_bloom head_bloom bloom narcissi
f 110/1/92 111/2/92 112/3/93 113/4/93
f 111/2/94 114/5/94 115/6/95 112/3/95
f 116/7/96 117/8/97 118/9/98 119/6/99
f 120/10/100 110/1/100 113/4/101 121/11/101
f 111/2/92 110/1/92 122/12/102
f 114/5/94 111/2/94 122/12/102
f 117/8/97 116/7/96 122/12/103
f 110/1/100 120/10/100 122/12/102
f 117/8/97 120/10/104 121/11/105 118/9/98
f 122/12/103 120/10/104 117/8/97
f 114/5/106 116/7/96 119/6/99 115/6/107
f 122/12/103 116/7/96 114/5/106
g desat_petals_bloom head_bloom bloom narcissi
f 123/13/108 124/14/109 125/15/110 126/16/111
f 124/13/109 127/14/112 128/15/113 125/16/110
f 127/13/112 129/14/114 130/15/115 128/16/113
f 129/13/114 131/14/116 132/15/117 130/16/115
f 131/13/116 133/14/118 134/15/119 132/16/117
f 133/13/118 123/17/108 126/15/111 134/16/119
f 126/16/111 125/15/110 135/18/120 136/19/121
f 125/16/110 128/15/113 137/18/122 135/19/120
f 128/16/113 130/15/115 138/18/123 137/19/122
f 130/16/115 132/15/117 139/18/124 138/19/123
f 132/16/117 134/15/119 140/18/125 139/19/124
f 134/16/119 126/15/111 136/18/121 140/19/125
g nose_bloom head_bloom bloom narcissi
f 141/20/126 142/21/126 143/22/126 144/23/126 145/24/126 146/25/126
f 141/26/127 147/27/127 148/28/128 146/29/128
f 146/30/128 148/31/128 149/32/129 145/33/129
f 145/34/129 149/35/129 150/36/130 144/37/130
f 144/38/130 150/39/130 151/40/131 143/41/131
f 143/42/131 151/31/131 152/43/132 142/44/132
f 142/45/132 152/35/132 147/36/127 141/37/127
