v 5.00000029802322 -18.0000011920929 0
v 5.00000029802322 2 0
v -5 2 0
v -5 -18.0000011920929 0
vt 0 0
vt 1 0
vt 1 1
vt 0 1
vn 0 0 1
g wake
f 1/1/1 2/2/1 3/3/1 4/4/1
f 1/1/1 2/2/1 3/3/1 4/4/1
f 1/1/1 2/2/1 3/3/1 4/4/1
f 1/1/1 2/2/1 3/3/1 4/4/1
f 1/1/1 2/2/1 3/3/1 4/4/1
f 1/1/1 2/2/1 3/3/1 4/4/1
f 1/1/1 2/2/1 3/3/1 4/4/1
f 1/1/1 2/2/1 3/3/1 4/4/1
f 1/1/1 2/2/1 3/3/1 4/4/1
f 1/1/1 2/2/1 3/3/1 4/4/1
f 1/1/1 2/2/1 3/3/1 4/4/1
f 1/1/1 2/2/1 3/3/1 4/4/1
f 1/1/1 2/2/1 3/3/1 4/4/1
f 1/1/1 2/2/1 3/3/1 4/4/1
f 1/1/1 2/2/1 3/3/1 4/4/1
f 1/1/1 2/2/1 3/3/1 4/4/1
f 1/1/1 2/2/1 3/3/1 4/4/1
f 1/1/1 2/2/1 3/3/1 4/4/1
f 1/1/1 2/2/1 3/3/1 4/4/1
f 1/1/1 2/2/1 3/3/1 4/4/1
f 1/1/1 2/2/1 3/3/1 4/4/1
f 1/1/1 2/2/1 3/3/1 4/4/1
f 1/1/1 2/2/1 3/3/1 4/4/1
f 1/1/1 2/2/1 3/3/1 4/4/1
f 1/1/1 2/2/1 3/3/1 4/4/1
f 1/1/1 2/2/1 3/3/1 4/4/1
f 1/1/1 2/2/1 3/3/1 4/4/1
f 1/1/1 2/2/1 3/3/1 4/4/1
