v 59.194278729394 13.3431806222509 2.23133745613145
v 59.1940663741824 13.3429308948909 2.23135089596653
v 59.1940529988062 13.3429598418572 2.23167742665706
v 59.1942653540178 13.3432095692172 2.23166398682198
v 59.1943027296269 13.3427490399639 2.231706343752
v 59.1945150848385 13.342998767324 2.23169290391692
v 59.1943161050031 13.3427200929976 2.23137981306146
v 59.1945284602147 13.3429698203577 2.23136637322639
vn -0.76117948775753 0.642524125123506 -0.0881392991318751
vn -0.0407681438118052 0.0882303470234778 0.99526547429028
vn 0.76117948775753 -0.642524125123506 0.0881392991318751
vn 0.0407681438118052 -0.0882303470234778 -0.99526547429028
vn -0.647258639082805 -0.76116893952551 0.0409646144164105
vn 0.647258639082805 0.76116893952551 -0.0409646144164105
g pCube1 camera1 flyover hole6
f 1//1 2//1 3//1 4//1
f 4//2 3//2 5//2 6//2
f 6//3 5//3 7//3 8//3
f 8//4 7//4 2//4 1//4
f 2//5 7//5 5//5 3//5
f 8//6 1//6 4//6 6//6
