v 3.65359062965616 63.4737517731124 -1.53054862667274
v 3.65359062965616 63.4737517731124 -0.11067224769472
v 3.65359062965616 26.4925185617853 -0.11067224769472
v 3.65359062965616 26.4172899282551 -1.53054862667274
v 3.65359463458767 1.80940476277777 -0.11067224769472
v 3.65359463458767 1.66136647435093 -1.53054862667274
v 2.98383792296325 63.4737517731124 -1.53054862667274
v 2.98383792296325 63.4737517731124 -0.11067224769472
v 2.98384993775779 63.4737517731124 -0.11067224769472
v 2.98384192789476 26.4925185617853 -0.11067224769472
v 2.98384192789476 1.82175597156221 -0.11067224769472
v 2.98383391803174 -25.5728406389201 -0.11067224769472
v 3.65359062965616 -25.5728406389201 -0.11067224769472
v 3.65359062965616 -25.5728406389201 -1.53054862667274
v 3.65359062965616 0.422240664393579 -1.53054862667274
v -2.62731142189403 62.9402468364736 -4.32303918785015
v -2.62731142189403 62.9402468364736 -0.934670886658795
v 2.65096403537303 62.9402468364736 -0.934670886658795
v 2.65096403537303 62.9402468364736 -4.32303918785015
v 2.65096403537303 -25.2207911392482 -0.934670886658795
v 2.65096403537303 -25.2207911392482 -4.32303918785015
v 6.34794234658632 -4.37980037686298 -3.85401364856209
v 6.34794234658632 73.4686991515163 -3.85401364856209
v -3.61931393410747 73.4686991515163 -3.85401364856209
v -3.61931393410747 -4.37980037686298 -3.85401364856209
v 5.99119305978452 4.2279508637046 7.50463693942593
v 5.99119305978452 4.2279508637046 -4.81999111457464
v -3.97606322090927 4.2279508637046 -4.81999111457464
v -3.97606322090927 4.2279508637046 7.50463693942593
v -2.91508978065388 63.0431415368919 -0.29358147480061
v -2.91508978065388 62.9065092934126 -0.0452236569179816
v 2.95591954538984 62.9065092934126 -0.0452236569179816
v 2.95591954538984 63.0431415368919 -0.291450851235977
v 2.95591954538984 26.5797780095789 -0.0452236569179816
v -2.91508978065388 26.5958297750809 -0.0452236569179816
v -2.91508978065388 0.758238398563526 -0.0452236569179816
v 2.95591954538984 0.750212515812542 -0.0452236569179816
v -2.91508978065388 63.1615593518526 -0.542311751313897
v 2.95591954538984 63.1615593518526 -0.54442635515248
v -2.91508978065388 62.9065092934126 -1.465100035896
v -2.91508978065388 63.0431415368919 -1.27514613425968
v 2.95591954538984 63.0431415368919 -1.26971945206029
v 2.95591954538984 62.9065092934126 -1.465100035896
v -2.91508978065388 63.1615593518526 -1.01829786157062
v 2.95591954538984 63.1615593518526 -1.01911086266765
v 2.95591954538984 62.9785179620068 -1.26971945206029
v 2.95591954538984 62.8484217667558 -1.465100035896
v 2.95591954538984 26.5797780095789 -0.206398120705711
v 2.95591954538984 62.8726275728171 -0.110992642215718
v 2.95591954538984 -25.079401037132 -0.0452236569179816
v 2.95591954538984 -25.079401037132 -0.18544031410097
v 2.95591954538984 0.750212515812542 -0.195921219869097
v 2.95591954538984 63.0053029439621 -0.330094435399773
v 2.95591954538984 63.1078612301334 -0.995862235237782
v 2.95591954538984 63.1077651117771 -0.575776959032073
v -2.91508978065388 -25.079401037132 -0.0452236569179816
vt 0.00670114438980818 -2.1557822227478
vt 0.993137121200562 -2.1557822227478
vt 0.993137359619141 1.01918268203735
vt 0.00670084916055202 1.0256404876709
vt 0.99313747882843 3.16838049888611
vt 0.00670076301321387 3.18122339248657
vt -0.032862663269043 4.18607139587402
vt -1.01084160804749 4.18607234954834
vt -1.01084160804749 3.63682436943054
vt -0.0328626148402691 3.63682436943054
vt -1.01084184646606 -5.951904296875
vt -0.0328631512820721 -5.951904296875
vt -1.01084172725677 -8.78226566314697
vt -1.01084184646606 -11.9251184463501
vt -0.0328637361526489 -11.9251232147217
vt -0.0328634306788445 -8.78368473052979
vt 0.99313759803772 5.55259561538696
vt 0.00670066755264997 5.55259609222412
vt 0.006700758356601 3.28911828994751
vt -1.01084160804749 -5.951904296875
vt 0 0
vt 0 1
vt 1 1
vt 1 0
vt 2 1
vt 2 0
vt 2.9954047203064 -5.44095325469971
vt 2.99557876586914 -5.4036226272583
vt 1.99657499790192 -5.40286540985107
vt 1.9965752363205 -5.44063282012939
vt 1.9965752363205 -0.937246799468994
vt 2.99657487869263 -0.939220666885376
vt 2.99657487869263 2.39138126373291
vt 1.99657499790192 2.39236736297607
vt 2.99523019790649 -5.47834014892578
vt 1.99657499790192 -5.47865772247314
vt 2.99458289146423 -5.61704444885254
vt 2.99471592903137 -5.58849239349365
vt 1.99657499790192 -5.58767700195312
vt 1.99657547473907 -5.61704444885254
vt 2.99489617347717 -5.54988574981689
vt 1.99657499790192 -5.55000782012939
vt 0.96559739112854 -5.58767700195312
vt 0.866972088813782 -5.58621597290039
vt 0.86697244644165 -5.61503124237061
vt 0.965597033500671 -5.61704444885254
vt 0.965597033500671 -0.937246918678284
vt 0.866972208023071 -0.937246918678284
vt 0.86697244644165 -5.39632606506348
vt 0.96559739112854 -5.39968967437744
vt 0.96559727191925 1.83441209793091
vt 0.866972208023071 1.83441209793091
vt 0.866972208023071 0.448582708835602
vt 0.965597033500671 0.448582708835602
vt 0.86697244644165 -5.44193649291992
vt 0.965596675872803 -5.44063282012939
vt 0.96559739112854 -5.55000782012939
vt 0.866972088813782 -5.54925441741943
vt 0.866972088813782 -5.47924613952637
vt 0.96559739112854 -5.47865772247314
vt 2.99657464027405 5.72198295593262
vt 1.99657475948334 5.7219820022583
vn 0.999999999999181 0 1.27990210785251e-06
vn 0.999999999999987 1.62014814009124e-07 0
vn 0 1 0
vn 0 0 1
vn 0 -1.14608546653016e-07 0.999999999999993
vn 0.999999999998666 -1.46656631727442e-07 -1.62658750468619e-06
vn 0 -3.90054957222219e-08 0.999999999999999
vn 1 0 0
vn -4.41895249275329e-05 0.890247125664673 0.455477829639461
vn -8.83049965461206e-05 0.875284622139633 0.483608129013676
vn -2.98429625711793e-07 0.975783019985827 0.218740709304989
vn 0.000269853658115893 0.815709956502304 -0.578461056633904
vn 0.000217641309150454 0.864442501125083 -0.502731652953015
vn 8.5107096056203e-05 0.976260154776792 -0.216601253348119
vn 0.999999999866642 0 1.63314216457414e-05
g shelf_4 belt1 food_belt1
f 1/1/1 2/2/1 3/3/1 4/4/1
f 4/4/2 3/3/2 5/5/2 6/6/2
f 1/7/3 7/8/3 8/9/3 2/10/3
f 2/10/4 9/9/4 10/11/4 3/12/4
f 11/13/5 12/14/5 13/15/5 5/16/5
f 6/6/6 5/5/6 13/17/6 14/18/6 15/19/6
f 3/12/7 10/20/7 11/13/7 5/16/7
g conveyorbelt1 belt1 food_belt1
f 16/21/3 17/22/3 18/23/3 19/24/3
f 19/24/8 18/23/8 20/25/8 21/26/8
g shadow41 belt1 food_belt1
f 22/21/4 23/24/4 24/23/4 25/22/4
g shadow44 belt1 food_belt1
f 26/21/3 27/24/3 28/23/3 29/22/3
g mesh_tide1 belt1 food_belt1
f 30/27/9 31/28/10 32/29/10 33/30/9
f 34/31/4 32/29/4 31/28/4 35/32/4
f 36/33/4 37/34/4 34/31/4 35/32/4
f 38/35/11 30/27/9 33/30/9 39/36/11
f 40/37/12 41/38/13 42/39/13 43/40/12
f 44/41/14 38/35/11 39/36/11 45/42/14
f 41/38/13 44/41/14 45/42/14 42/39/13
f 42/43/8 46/44/8 47/45/8 43/46/8
f 34/47/15 48/48/15 49/49/15 32/50/15
f 50/51/8 51/52/8 52/53/8 37/54/8
f 32/50/8 49/49/8 53/55/8 33/56/8
f 45/57/8 54/58/8 46/44/8 42/43/8
f 33/56/8 53/55/8 55/59/8 39/60/8
f 39/60/8 55/59/8 54/58/8 45/57/8
f 56/61/4 50/62/4 37/34/4 36/33/4
f 52/53/8 48/48/8 34/47/8 37/54/8
