v -0.237125799724749 -0.240877653983009 3.91106593014374e-09
v 0.237125799724749 -0.240877653983009 3.91106593014374e-09
v 0.169963113904938 -0.173714983807461 0.265819726027842
v -0.169963113904938 -0.173714983807461 0.265819726027842
v 0.169963113904938 0.166211244002415 0.265819726027842
v -0.169963113904938 0.166211244002415 0.265819726027842
v 0.237125799724749 0.233373929822226 3.91106593014374e-09
v -0.237125799724749 0.233373929822226 3.91106593014374e-09
v 0.179297326430874 0.000181555591543202 0.229658770818199
v 0.179297326430874 0.000181555591543202 1.57480312777358
v -0.199526360654456 0.00100571104860681 1.57480312777358
v -0.199526360654456 0.00100571104860681 0.229658770818199
v -0.328649623500393 -0.179085487455834 1.55161034090938
v 0.00646528140140644 -0.0234018610374821 1.61540752320778
v 0.00646528140140644 -0.0234018610374821 1.6542475993239
v -0.328649623500393 -0.179085487455834 1.7180447816223
v 0.341580170658943 -0.179085487455834 1.55161034090938
v 0.341580170658943 -0.179085487455834 1.7180447816223
v 0.00646528140140644 0.0122798895194462 1.6542475993239
v -0.328649623500393 0.167963495404702 1.7180447816223
v 0.341580170658943 0.167963495404702 1.7180447816223
v 0.00646528140140644 0.0122798895194462 1.61540752320778
v -0.328649623500393 0.167963495404702 1.55161034090938
v 0.341580170658943 0.167963495404702 1.55161034090938
v -0.0944871210989364 -0.0906785094518987 1.58109877678979
v 0.107417691723881 -0.0906785094518987 1.58109877678979
v 0.107417691723881 -0.0906785094518987 1.68855634574189
v -0.0944871210989364 -0.0906785094518987 1.68855634574189
v 0.107417691723881 0.079556548689294 1.68855634574189
v -0.0944871210989364 0.079556548689294 1.68855634574189
v 0.107417691723881 0.079556548689294 1.58109877678979
v -0.0944871210989364 0.079556548689294 1.58109877678979
v 0.0276532972578614 0.0517755825062749 1.68666313952348
v -0.0441705421825719 0.0284386138747058 1.68666313952348
v -0.0550145082899279 0.0354854531801279 1.73620038770941
v 0.0302132150632503 0.0631776029669394 1.73620038770941
v -0.0441705421825719 -0.0470814390445319 1.68666313952348
v -0.0550145161120597 -0.054128276394421 1.73620038770941
v 0.0276532894357296 -0.0704184135426999 1.68666313952348
v 0.0302132033300525 -0.0818204379144303 1.73620038770941
v 0.0720428591325214 -0.00932141649597899 1.68666313952348
v 0.0828868291509433 -0.00932141649597899 1.73620038770941
v -0.0314581464594743 0.0183707499128627 1.7762768612759
v 0.0212154832724824 0.0354854414469301 1.7762768612759
v -0.0314581484150073 -0.0370135809492877 1.7762768612759
v 0.0212154754503505 -0.054128276394421 1.7762768612759
v 0.0537695612494401 -0.00932141649597899 1.7762768612759
v 0.00665684541066488 -0.00932141649597899 1.79158471074943
v 0.237125815369013 -0.240877685271536 3.51995933712937e-08
v 0.237125799724749 -0.240877653983009 1.45688132038267
v -0.237125799724749 -0.240877653983009 1.45688132038267
v -0.237125815369013 -0.240877685271536 3.51995933712937e-08
v -0.237125815369013 0.233373961110753 3.51995933712937e-08
v -0.237125799724749 0.233373929822226 1.45688132038267
v 0.237125799724749 0.233373929822226 1.45688132038267
v 0.237125815369013 0.233373961110753 3.51995933712937e-08
v -0.383527792031996 -0.382274655219451 -8.30326000483965e-17
v 0.364363381243128 -0.382274655219451 -8.30326000483965e-17
v 0.364363381243128 0.365616518055673 8.30326000483965e-17
v -0.383527792031996 0.365616518055673 8.30326000483965e-17
vt 0.018186092376709 0.0382779240608215
vt 0.801174759864807 0.0311161279678345
vt 0.697677493095398 0.8398357629776
vt 0.136459648609161 0.844969213008881
vt 0.987345933914185 0.983014404773712
vt 0.739903748035431 0.983014464378357
vt 0.739903748035431 0.735572278499603
vt 0.987345933914185 0.735572278499603
vt 0.689726829528809 0.837960958480835
vt 0.127537667751312 0.837961137294769
vt 0.0164600610733032 0.0292299389839172
vt 0.800803899765015 0.0292297601699829
vt 0.0215514861047268 0.0258667469024658
vt 0.813595712184906 0.0258669853210449
vt 0.701427519321442 0.842913925647736
vt 0.133719101548195 0.842913627624512
vt 0.0186106655746698 0.0278968214988708
vt 0.812006950378418 0.0278970003128052
vt 0.699647426605225 0.846338510513306
vt 0.130970001220703 0.846338510513306
vt 0 0
vt 0 1
vt 1 1
vt 1 0
vt 0.314516335725784 0.578120350837708
vt 0.216942876577377 0.960357844829559
vt 0.153312146663666 0.961519598960876
vt 0.041850995272398 0.583098530769348
vt 0.209800526499748 0.970833599567413
vt 0.30719006061554 0.578738629817963
vt 0.0345247834920883 0.583716809749603
vt 0.146169885993004 0.971995234489441
vt 0.331455290317535 0.96514093875885
vt 0.968957602977753 0.684747457504272
vt 0.968957602977753 0.620482921600342
vt 0.331455290317535 0.340089201927185
vt 0.955508410930634 0.68080997467041
vt 0.335255324840546 0.961203455924988
vt 0.335255324840546 0.336151719093323
vt 0.955508410930634 0.616545438766479
vt 0.038769967854023 0.58526599407196
vt 0.15023110806942 0.963684797286987
vt 0.213862046599388 0.962523102760315
vt 0.311435788869858 0.58028769493103
vt 0.150308072566986 0.967899680137634
vt 0.0386679284274578 0.57961893081665
vt 0.311333745718002 0.574640691280365
vt 0.213938996195793 0.966738104820251
vt 0.331455290317535 0.342013239860535
vt 0.968957543373108 0.622406840324402
vt 0.968957543373108 0.686671376228333
vt 0.331455290317535 0.967065095901489
vt 0.955508470535278 0.61846935749054
vt 0.335255324840546 0.338075876235962
vt 0.335255324840546 0.963127613067627
vt 0.955508470535278 0.68273389339447
vt 0.978652715682983 0.0400067567825317
vt 0.629472851753235 0.0400067567825317
vt 0.629472851753235 0.225846886634827
vt 0.978652715682983 0.225846886634827
vt 0.0486317873001099 0.504902005195618
vt 0.304407954216003 0.504902005195618
vt 0.304407954216003 0.28924548625946
vt 0.0486317873001099 0.28924548625946
vt 0.629472851753235 0.225827574729919
vt 0.978652715682983 0.225827574729919
vt 0.978652715682983 0.0399873852729797
vt 0.629472851753235 0.0399873852729797
vt 0.0486317873001099 0.289009094238281
vt 0.304407954216003 0.289009094238281
vt 0.304407954216003 0.504665493965149
vt 0.0486317873001099 0.504665493965149
vt 0.312057346105576 0.0261112451553345
vt 0.0365638136863708 0.0261112451553345
vt 0.0365638136863708 0.200011193752289
vt 0.312057316303253 0.200011193752289
vt 0.312068194150925 0.0255436301231384
vt 0.0365746878087521 0.0255436301231384
vt 0.0365746878087521 0.199443340301514
vt 0.312068164348602 0.199443340301514
vt 0.356343030929565 0.210877120494843
vt 0.400694906711578 0.0750634074211121
vt 0.424431651830673 0.106894254684448
vt 0.394412219524384 0.197661995887756
vt 0.543406069278717 0.0750634670257568
vt 0.5196692943573 0.106894314289093
vt 0.587757885456085 0.210877120494843
vt 0.549688756465912 0.197661995887756
vt 0.47205051779747 0.295117020606995
vt 0.47205051779747 0.254460275173187
vt 0.447434812784195 0.138803482055664
vt 0.432061433792114 0.185677766799927
vt 0.496666103601456 0.138803541660309
vt 0.512039422988892 0.185677707195282
vt 0.47205051779747 0.214838206768036
vt 0.472050458192825 0.172783732414246
vn 3.81257425659316e-09 -0.969532072618368 0.244964405913045
vn 0 1.54426285092768e-08 1
vn 3.8125742426763e-09 0.96953206907933 0.244964419920024
vn 0.969532072618368 0 0.244964405913045
vn -0.969532072618368 0 0.244964405913045
vn -0.00217555862967177 -0.999997633469524 0
vn 0.421321826758132 -0.906911196478019 0
vn -8.91887559175692e-09 -1 0
vn -0.421321842935388 -0.906911188962584 0
vn 0.187015283312694 0 0.982357004254295
vn -4.28822770116626e-09 0 1
vn -0.187015291737835 0 0.982357002650367
vn 0.421321781054049 0.906911217710667 0
vn -8.91887464843948e-09 1 0
vn -0.421321797231304 0.906911210195234 0
vn 0.187015283312693 0 -0.982357004254295
vn -4.28822775767439e-09 -0 -1
vn -0.187015291737835 -0 -0.982357002650367
vn 0 -1 0
vn 0 0 1
vn 0 1 0
vn 0 0 -1
vn 1 0 0
vn -1 0 0
vn -0.302843725802518 0.932057654407636 -0.198882393896961
vn -0.304790082265059 0.938047928353046 0.164830488276345
vn -0.976868320273529 4.62727416827728e-08 -0.213841728495568
vn -0.987553088198101 5.60680076086312e-08 0.157286038765018
vn -0.302843837314866 -0.932057606510222 -0.198882448564077
vn -0.304790200465778 -0.938047898330985 0.164830440565004
vn 0.796620908228647 -0.578779007467414 -0.174384601063286
vn 0.796226538604258 -0.578492463159147 0.177115130043552
vn 0.796620962661792 0.578778930408751 -0.17438460815881
vn 0.796226591752149 0.578492386672639 0.177115140935357
vn -0.27486556504823 0.427956320924493 0.860989145420249
vn -0.0291753512107115 0.507785883516869 0.8609891377844
vn -0.491948752286362 -0.129166955599122 0.860989153651279
vn -0.862103678816708 5.81342995884789e-08 0.506731928114556
vn -0.029175403230838 -0.507785890110583 0.860989132132875
vn -0.266404670723121 -0.819909372011575 0.506731855229657
vn 0.473917384591025 -0.184661962275918 0.860989124362677
vn 0.697456549926427 -0.50673184530293 0.506731879716101
vn 0.697456585153622 0.506731771523179 0.506731905009769
vn 1.92696365530736e-08 5.39549830591489e-07 0.999999999999854
vn 8.98301522056499e-09 -0.999999999999999 3.79536650996215e-08
vn -8.98301522056499e-09 0.999999999999999 3.79536650996215e-08
vn -0.999999999999999 0 3.79536686523352e-08
vn 0.999999999999999 0 3.79536686523352e-08
g polySurface1 Base announcer
f 1/1/1 2/2/1 3/3/1 4/4/1
f 4/5/2 3/6/2 5/7/2 6/8/2
f 6/9/3 5/10/3 7/11/3 8/12/3
f 2/13/4 7/14/4 5/15/4 3/16/4
f 8/17/5 1/18/5 4/19/5 6/20/5
g Pole announcer
f 9/21/6 10/22/6 11/23/6 12/24/6
g Top announcer
f 13/25/7 14/26/8 15/27/8 16/28/7
f 14/29/8 17/30/9 18/31/9 15/32/8
f 16/33/10 15/34/11 19/35/11 20/36/10
f 15/37/11 18/38/12 21/39/12 19/40/11
f 20/41/13 19/42/14 22/43/14 23/44/13
f 19/45/14 21/46/15 24/47/15 22/48/14
f 23/49/16 22/50/17 14/51/17 13/52/16
f 22/53/17 24/54/18 17/55/18 14/56/17
f 25/57/19 26/58/19 27/59/19 28/60/19
f 28/61/20 27/62/20 29/63/20 30/64/20
f 30/65/21 29/66/21 31/67/21 32/68/21
f 32/69/22 31/70/22 26/71/22 25/72/22
f 26/73/23 31/74/23 29/75/23 27/76/23
f 32/77/24 25/78/24 28/79/24 30/80/24
f 33/81/25 34/82/25 35/83/26 36/84/26
f 34/82/27 37/85/27 38/86/28 35/83/28
f 37/85/29 39/87/29 40/88/30 38/86/30
f 39/87/31 41/89/31 42/90/32 40/88/32
f 41/89/33 33/81/33 36/84/34 42/90/34
f 36/84/26 35/83/26 43/91/35 44/92/36
f 35/83/28 38/86/28 45/93/37 43/91/38
f 38/86/30 40/88/30 46/94/39 45/93/40
f 40/88/32 42/90/32 47/95/41 46/94/42
f 42/90/34 36/84/34 44/92/43 47/95/43
f 44/92/36 43/91/35 48/96/44
f 43/91/35 45/93/37 48/96/44
f 45/93/37 46/94/39 48/96/44
f 46/94/39 47/95/41 48/96/44
f 47/95/41 44/92/36 48/96/44
g collision announcer
f 49//45 50//45 51//45 52//45
f 53//46 54//46 55//46 56//46
f 52//47 51//47 54//47 53//47
f 56//48 55//48 50//48 49//48
g shadow announcer
f 57/21/20 58/24/20 59/23/20 60/22/20
