v -2.21855059490078 -15.7531633736579 -2.82045665183087
v -2.21846655142954 -15.7531091877747 -2.82045741637035
v -2.21846310411535 -15.75311312561 -2.8203575534193
v -2.21854714758658 -15.7531673114932 -2.82035678887982
v -2.21851718563236 -15.7530291709613 -2.82035237596808
v -2.21860122910359 -15.7530833568445 -2.8203516114286
v -2.21852063294656 -15.7530252331261 -2.82045223891912
v -2.21860467641779 -15.7530794190092 -2.82045147437964
vn 0.540815183253304 -0.839546506937763 -0.0517745135302663
vn 0.0344731427624411 -0.03937835374847 0.998629534754576
vn -0.540815183253304 0.839546506937763 0.0517745135302663
vn -0.0344731427624411 0.03937835374847 -0.998629534754576
vn 0.840434732737037 0.541858845036843 -0.00764539499068199
vn -0.840434732737037 -0.541858845036843 0.00764539499068199
g pCube1 camera1 flyover hole11
f 1//1 2//1 3//1 4//1
f 4//2 3//2 5//2 6//2
f 6//3 5//3 7//3 8//3
f 8//4 7//4 2//4 1//4
f 2//5 7//5 5//5 3//5
f 8//6 1//6 4//6 6//6
