v -3.93192820711343e-07 3.5075229612963 51.3442402903232
v -28.8853874985842 3.50752043448411 44.4619878802984
v -25.01547757957 -10.9351724259343 44.4619878802984
v -14.4426906229574 -21.5079593825469 44.4619878802984
v 3.39466851787177e-06 -25.3778648709863 44.4619878802984
v 14.442696482434 -21.5079549519721 44.4619878802984
v 25.0154812237592 -10.9351657800721 44.4619878802984
v 28.8853867121986 3.50752801492067 44.4619878802984
v -50.030959196522 3.50751859994924 25.6593201983915
v -43.3280799436362 -21.5079615978343 25.6593201983915
v -25.0154753642826 -39.8205595313256 25.6593201983915
v 6.16757553727144e-06 -46.5234343536367 25.6593201983915
v 25.015485654334 -39.8205551007508 25.6593201983915
v 43.3280835878253 -21.5079505213973 25.6593201983915
v 50.0309584101364 3.50753171860428 25.6593201983915
v -57.7636458091375 3.50751790767193 0.78128445148468
v -50.0247829752639 -25.374304904142 0.78128445148468
v -28.881816455303 -46.5172625629534 0.78128445148468
v 7.18159500321351e-06 -54.2561209662521 0.78128445148468
v 28.8818289606417 -46.5172537018038 0.78128445148468
v 50.0247866194531 -25.3742916124176 0.78128445148468
v 57.7636450227518 3.50753306854504 0.78128445148468
v 1.05320425870728e-06 -8.34869095222894 25.4889930770574
v -14.1149120545591 -8.34869218696173 22.1259640686954
v -12.223871368746 -15.4061484025605 22.1259640686954
v -7.05745387691926 -20.5725658943872 22.1259640686954
v 2.90415171055493e-06 -22.4636044151894 22.1259640686954
v 7.05745923084414 -20.5725637293763 22.1259640686954
v 12.2238756401655 -15.4061451550441 22.1259640686954
v 14.1149141609677 -8.34868848276338 22.1259640686954
v -24.4477459557072 -8.34869308341156 12.9379957871579
v -21.1723680671881 -20.5725669768927 12.9379957871579
v -12.2238702862406 -29.5210615103239 12.9379957871579
v 4.25913932044672e-06 -32.7964372338321 12.9379957871579
v 12.2238778051764 -29.521059345313 12.9379957871579
v 21.1723723386075 -20.5725615643654 12.9379957871579
v 24.4477480621157 -8.34868667294957 12.9379957871579
v -28.2263416597704 -8.34869342169451 0.78128445148468
v -24.4447279305004 -22.4618648289243 0.78128445148468
v -14.1131670557667 -32.7934213736362 0.78128445148468
v 4.7546423441428e-06 -36.5750329378952 0.78128445148468
v 14.1131756572079 -32.7934170436144 0.78128445148468
v 24.4447322019198 -22.4618583338915 0.78128445148468
v 28.2263437661789 -8.34868601329781 0.78128445148468
vt 0.0522119030356407 0.501216351985931
vt 0.0514756664633751 0.25162136554718
vt 0.218707218766212 0.285428881645203
vt 0.341326504945755 0.377056509256363
vt 0.386477738618851 0.501952648162842
vt 0.342062711715698 0.626651465892792
vt 0.219982385635376 0.717740058898926
vt 0.0529481135308743 0.750811278820038
vt 0.0509367026388645 0.0689051523804665
vt 0.340590268373489 0.127461507916451
vt 0.552973031997681 0.286165177822113
vt 0.631177306175232 0.502491652965546
vt 0.55424827337265 0.718476355075836
vt 0.342798948287964 0.876246452331543
vt 0.0534870587289333 0.93352746963501
vt 0.0507396087050438 0.00208798935636878
vt 0.385161459445953 0.0696946978569031
vt 0.63036972284317 0.252927303314209
vt 0.720661044120789 0.502688765525818
vt 0.631841957569122 0.752055644989014
vt 0.387711495161057 0.934210360050201
vt 0.0536841414868832 1.00034463405609
vn 2.07600030118472e-08 -0.156873795831683 0.98761865726674
vn -0.457102545471824 -0.122480305225416 0.880940314524808
vn -0.398865487027144 -0.23028514528171 0.887623273197127
vn -0.230285065104528 -0.398865546468806 0.887623267287391
vn 5.56429824721188e-08 -0.460570240123352 0.887623261250355
vn 0.230285167851484 -0.398865477970133 0.88762327141151
vn 0.398865555524002 -0.230285042526746 0.887623269075898
vn 0.457102588143679 -0.122480195295513 0.880940307667167
vn -0.818794987016596 -0.219395515300452 0.530509544779867
vn -0.726805096165775 -0.419621231439327 0.543757642992538
vn -0.419621049710145 -0.726805222167186 0.543757614816255
vn 1.00269464713588e-07 -0.839242320364062 0.543757600139929
vn 0.419621260630063 -0.726805110677656 0.543757601068782
vn 0.726805222397048 -0.419621051621964 0.543757613033652
vn 0.818795043086532 -0.219395359120016 0.530509522830197
vn -0.925129840203484 -0.247887849724217 0.28755241735061
vn -0.826997526733902 -0.47746738567496 0.296816418671085
vn -0.477467157690492 -0.826997664649424 0.296816401149534
vn 1.20758262678699e-07 -0.954934570783153 0.296816383515432
vn 0.477467407978549 -0.826997539522151 0.296816347161933
vn 0.826997659331806 -0.477467183585357 0.296816374310417
vn 0.925129888368183 -0.247887692541735 0.287552397893336
g Sphere01 g2 g1
f 1/1/1 2/2/2 3/3/3
f 1/1/1 3/3/3 4/4/4
f 1/1/1 4/4/4 5/5/5
f 1/1/1 5/5/5 6/6/6
f 1/1/1 6/6/6 7/7/7
f 1/1/1 7/7/7 8/8/8
f 2/2/2 9/9/9 10/10/10 3/3/3
f 3/3/3 10/10/10 11/11/11 4/4/4
f 4/4/4 11/11/11 12/12/12 5/5/5
f 5/5/5 12/12/12 13/13/13 6/6/6
f 6/6/6 13/13/13 14/14/14 7/7/7
f 7/7/7 14/14/14 15/15/15 8/8/8
f 9/9/9 16/16/16 17/17/17 10/10/10
f 10/10/10 17/17/17 18/18/18 11/11/11
f 11/11/11 18/18/18 19/19/19 12/12/12
f 12/12/12 19/19/19 20/20/20 13/13/13
f 13/13/13 20/20/20 21/21/21 14/14/14
f 14/14/14 21/21/21 22/22/22 15/15/15
g o1 g4 g3 g1
f 23/1/1 24/2/2 25/3/3
f 23/1/1 25/3/3 26/4/4
f 23/1/1 26/4/4 27/5/5
f 23/1/1 27/5/5 28/6/6
f 23/1/1 28/6/6 29/7/7
f 23/1/1 29/7/7 30/8/8
f 24/2/2 31/9/9 32/10/10 25/3/3
f 25/3/3 32/10/10 33/11/11 26/4/4
f 26/4/4 33/11/11 34/12/12 27/5/5
f 27/5/5 34/12/12 35/13/13 28/6/6
f 28/6/6 35/13/13 36/14/14 29/7/7
f 29/7/7 36/14/14 37/15/15 30/8/8
f 31/9/9 38/16/16 39/17/17 32/10/10
f 32/10/10 39/17/17 40/18/18 33/11/11
f 33/11/11 40/18/18 41/19/19 34/12/12
f 34/12/12 41/19/19 42/20/20 35/13/13
f 35/13/13 42/20/20 43/21/21 36/14/14
f 36/14/14 43/21/21 44/22/22 37/15/15
