v 0.22191797132786 -0.922492082993977 3.05660901867871
v 0.945918531259636 -0.0740091981071266 3.05660901867871
v 0.362691831578986 0.876751883083649 3.05660901867871
v -0.721762651901862 0.615871661553297 3.05660901867871
v -0.808765682264585 -0.496122263535839 3.05660901867871
v -0.808765682264585 -0.496122263535839 -4
v 0.22191797132786 -0.922492082993977 -4
v -0.808765682264585 -0.496122263535839 -17.9999999995891
v 0.22191797132786 -0.922492082993977 -17.9999999995891
v -0.721762651901862 0.615871661553297 -4
v -0.721762651901862 0.615871661553297 -17.9999999995891
v 0.362691831578986 0.876751883083649 -4
v 0.362691831578986 0.876751883083649 -17.9999999995891
v 0.945918531259636 -0.0740091981071266 -4
v 0.945918531259636 -0.0740091981071266 -17.9999999995891
v 0.779302822771205 -0.0518373458119898 -17.9999999995891
v 0.779302822771205 -0.0518373458119898 2.45338740273507
v 0.6 -0.5 2.45338740273507
v 0.6 -0.5 -17.9999999995891
v 0.660938454772545 0.416125412589618 -17.9999999995891
v 0.660938454772545 0.416125412589618 2.45338740273507
v 0.290118061522608 0.725142406964566 -17.9999999995891
v 0.290118061522608 0.725142406964566 2.45338740273507
v -0.191517570478732 0.757179648562958 -17.9999999995891
v -0.191517570478732 0.757179648562958 2.45338740273507
v -0.6 0.5 -17.9999999995891
v -0.6 0.5 2.45338740273507
v -0.779302822771205 0.0518373458119899 -17.9999999995891
v -0.779302822771205 0.0518373458119899 2.45338740273507
v -0.660938454772545 -0.416125412589618 -17.9999999995891
v -0.660938454772545 -0.416125412589618 2.45338740273507
v -0.290118061522608 -0.725142406964566 -17.9999999995891
v -0.290118061522608 -0.725142406964566 2.45338740273507
v 0.191517570478732 -0.757179648562958 -17.9999999995891
v 0.191517570478732 -0.757179648562958 2.45338740273507
vt 0.143856197595596 0.102428376674652
vt 0.646088480949402 -0.00528393033891916
vt 0.903727293014526 0.439082413911819
vt 0.560724556446075 0.821428239345551
vt 0.0910983830690384 0.613364577293396
vt 0.828730881214142 1
vt 0.828730881214142 0.664874374866486
vt 1.02686989307404 0.664874374866486
vt 1.02686989307404 1
vt 0.828730881214142 0
vt 1.02686989307404 0
vt 0.641820251941681 1
vt 0.641820251941681 0.664874374866486
vt 0.641820251941681 0
vt 0.449710458517075 1
vt 0.449710458517075 0.664874374866486
vt 0.449710458517075 0
vt 0.240733563899994 1
vt 0.240733563899994 0.664874374866486
vt 0.240733563899994 0
vt 0.0268698986619711 1
vt 0.0268698986619711 0.664874374866486
vt 0.0268698986619711 0
vn 0 0 1
vn -0.382259957919252 -0.924054827686957 0
vn -0.996953188551777 0.0780021784083314 0
vn -0.233890997798329 0.97226282513984 0
vn 0.852400602249783 0.522889293526084 0
vn 0.760703542019576 -0.649099469387298 0
vn 0.997795019505237 -0.0663709202176974 0
vn 0.768221279597376 -0.64018439966448 0
vn 0.846244975767462 0.532793994887638 0
vn 0.371458114095347 0.928449712947733 0
vn -0.245213121764253 0.969469197506878 0
vn -0.768221279597376 0.64018439966448 0
vn -0.997795019505237 0.0663709202176976 0
vn -0.846244975767462 -0.532793994887638 0
vn -0.371458114095348 -0.928449712947733 0
vn 0.245213121764253 -0.969469197506878 0
g pylon pier_pylon
f 1/1/1 2/2/1 3/3/1 4/4/1 5/5/1
f 5/6/2 6/7/2 7/8/2 1/9/2
f 6/7/2 8/10/2 9/11/2 7/8/2
f 4/12/3 10/13/3 6/7/3 5/6/3
f 10/13/3 11/14/3 8/10/3 6/7/3
f 3/15/4 12/16/4 10/13/4 4/12/4
f 12/16/4 13/17/4 11/14/4 10/13/4
f 2/18/5 14/19/5 12/16/5 3/15/5
f 14/19/5 15/20/5 13/17/5 12/16/5
f 1/21/6 7/22/6 14/19/6 2/18/6
f 7/22/6 9/23/6 15/20/6 14/19/6
g pier_pylon_collisions pier_pylon
f 16//7 17//7 18//8 19//8
f 20//9 21//9 17//7 16//7
f 22//10 23//10 21//9 20//9
f 24//11 25//11 23//10 22//10
f 26//12 27//12 25//11 24//11
f 28//13 29//13 27//12 26//12
f 30//14 31//14 29//13 28//13
f 32//15 33//15 31//14 30//14
f 34//16 35//16 33//15 32//15
f 19//8 18//8 35//16 34//16
