v -0.961993183010805 -0.961993602544923 0.0175233582783246
v 0.96199328059535 -0.961993602544923 0.0175233582783246
v 0.96199328059535 0.961992861061232 0.0175233582783246
v -0.961993183010805 0.961992861061232 0.0175233582783246
v 0.232642178503239 0.32631857173715 1.77594158389761e-05
v 0.233468591120013 0.32631857173715 0.161726268960115
v 0.368653335826577 -4.62723593816927e-05 0.161726268960115
v 0.367826923209803 -4.62723593816927e-05 1.77594158389761e-05
v 0.189398084684045 0.282248065301182 0.161726268960115
v 0.173387232157065 0.197507577979023 0.546032834913876
v 0.299532492462262 -0.107034020278869 0.546032834913876
v 0.30632822792418 -4.62723593816949e-05 0.161726268960115
v 0.173387232157065 0.197507577979023 0.899788423901831
v 0.299532492462262 -0.107034020278869 0.899788423901831
v 0.220617091679521 0.335194206486213 1.36746915322463
v 0.364786137513173 -0.012860659239778 1.36746915322463
v 0.274953832285672 0.389530947092364 1.36746915322463
v 0.24232109345851 0.360135583767752 1.52657060945285
v 0.39682119602644 -0.012860659239778 1.52657060945285
v 0.441629893013541 -0.012860659239778 1.36746915322463
v -0.0937226655932923 0.461503316443714 1.77594158389761e-05
v -0.0928962529765184 0.461503316443714 0.161726268960115
v -0.0928962529765184 0.399178208541317 0.161726268960115
v -0.131154366100827 0.32365283828422 0.546032834913876
v -0.131154366100827 0.32365283828422 0.899788423901831
v -0.12743777404647 0.479363252319865 1.36746915322463
v -0.12743777404647 0.556207007820233 1.36746915322463
v -0.13067514954902 0.514635686335682 1.52657060945285
v -0.420087509689824 0.32631857173715 1.77594158389761e-05
v -0.41926109707305 0.32631857173715 0.161726268960115
v -0.375190590637082 0.282248065301182 0.161726268960115
v -0.435695964358719 0.197507577979023 0.546032834913876
v -0.435695964358719 0.197507577979023 0.899788423901831
v -0.475492639772461 0.335194206486213 1.36746915322463
v -0.529829380378612 0.389530947092364 1.36746915322463
v -0.50367139255655 0.360135583767752 1.52657060945285
v -0.555272254396388 -4.62723593816354e-05 1.77594158389761e-05
v -0.554445841779614 -4.62723593816354e-05 0.161726268960115
v -0.492120733877217 -4.62723593816466e-05 0.161726268960115
v -0.527295780000199 -0.107034020278869 0.538490767494017
v -0.561841224663916 -0.107034020278869 0.899788423901831
v -0.619661685606113 -0.012860659239778 1.36746915322463
v -0.696505441106481 -0.0128606592397779 1.36746915322463
v -0.65817149512448 -0.0128606592397779 1.52657060945285
v -0.420087509689824 -0.326411116455913 1.77594158389761e-05
v -0.41926109707305 -0.326411116455913 0.161726268960115
v -0.375190590637082 -0.282340610019945 0.161726268960115
v -0.435695964358719 -0.411575618536761 0.546032834913876
v -0.435695964358719 -0.411575618536761 0.899788423901831
v -0.475492639772461 -0.360915524965769 1.36746915322463
v -0.529829380378612 -0.41525226557192 1.36746915322463
v -0.50367139255655 -0.385856902247308 1.52657060945285
v -0.0937226655932924 -0.461595861162477 1.77594158389761e-05
v -0.0928962529765185 -0.461595861162477 0.161726268960115
v -0.0928962529765185 -0.39927075326008 0.161726268960115
v -0.131154366100827 -0.537720878841958 0.546032834913876
v -0.131154366100827 -0.537720878841958 0.899788423901831
v -0.12743777404647 -0.505084570799421 1.36746915322463
v -0.12743777404647 -0.581928326299789 1.36746915322463
v -0.13067514954902 -0.540357004815238 1.52657060945285
v 0.232642178503239 -0.326411116455913 1.77594158389761e-05
v 0.233468591120013 -0.326411116455913 0.161726268960115
v 0.189398084684045 -0.282340610019945 0.161726268960115
v 0.173387232157065 -0.411575618536761 0.546032834913876
v 0.173387232157065 -0.411575618536761 0.899788423901831
v 0.220617091679521 -0.360915524965769 1.36746915322463
v 0.274953832285672 -0.41525226557192 1.36746915322463
v 0.24232109345851 -0.385856902247308 1.52657060945285
v -0.0890598502436812 0.397589118498651 0.161726268960115
v 0.193234487416882 0.280658975258515 0.161726268960115
v -0.371354187904245 0.280658975258515 0.161726268960115
v -0.48828433114438 -0.00163536240204796 0.161726268960115
v -0.371354187904245 -0.283929700062611 0.161726268960115
v -0.0890598502436813 -0.400859843302747 0.161726268960115
v 0.217379716176971 -0.360915524965769 1.52657060945285
v 0.361548762010623 -0.012860659239778 1.52657060945285
v -0.13067514954902 -0.505084570799421 1.52657060945285
v -0.478730015275011 -0.360915524965769 1.52657060945285
v -0.622899061108663 -0.012860659239778 1.52657060945285
v -0.478730015275011 0.335194206486213 1.52657060945285
v -0.13067514954902 0.479363252319865 1.52657060945285
v 0.217379716176971 0.335194206486213 1.52657060945285
v 0.304508497187474 0.293892626146237 0
v 0.304508497187474 0.293892626146237 1.0711069483784
v 0.4 0 1.0711069483784
v 0.4 0 0
v 0.0545084971874737 0.475528258147577 0
v 0.0545084971874737 0.475528258147577 1.0711069483784
v -0.254508497187474 0.475528258147577 0
v -0.254508497187474 0.475528258147577 1.0711069483784
v -0.504508497187474 0.293892626146237 0
v -0.504508497187474 0.293892626146237 1.0711069483784
v -0.6 6.12303176911189e-17 0
v -0.6 6.12303176911189e-17 1.0711069483784
v -0.504508497187474 -0.293892626146237 0
v -0.504508497187474 -0.293892626146237 1.0711069483784
v -0.254508497187474 -0.475528258147577 0
v -0.254508497187474 -0.475528258147577 1.0711069483784
v 0.0545084971874736 -0.475528258147577 0
v 0.0545084971874736 -0.475528258147577 1.0711069483784
v 0.304508497187474 -0.293892626146237 0
v 0.304508497187474 -0.293892626146237 1.0711069483784
vt 0 0
vt 1 0
vt 1 1
vt 0 1
vt 0.370311796665192 0
vt 0.370137363672256 0.130605518817902
vt 0.258689433336258 0.130605518817902
vt 0.25870344042778 0
vt 0.369471162557602 0.130605518817902
vt 0.372287571430206 0.357142835855484
vt 0.225574970245361 0.357142835855484
vt 0.259891241788864 0.130605518817902
vt 0.372287571430206 0.642857134342194
vt 0.225574970245361 0.642857134342194
vt 0.394330769777298 0.895778477191925
vt 0.257936120033264 0.895778477191925
vt 0.3916155397892 0.895778477191925
vt 0.392351746559143 1
vt 0.256785541772842 1
vt 0.256742537021637 0.895778477191925
vt 0.483964323997498 0
vt 0.483698397874832 0.130605518817902
vt 0.48134046792984 0.130605518817902
vt 0.521405696868896 0.357142835855484
vt 0.521405696868896 0.642857134342194
vt 0.518133044242859 0.895778477191925
vt 0.515790700912476 0.895778477191925
vt 0.516653954982758 1
vt 0.605565369129181 0
vt 0.605334639549255 0.130605518817902
vt 0.602178692817688 0.130605518817902
vt 0.653614282608032 0.357142835855484
vt 0.653614282608032 0.642857134342194
vt 0.632612228393555 0.895778477191925
vt 0.631678879261017 0.895778477191925
vt 0.632233440876007 1
vt 0.739211738109589 0
vt 0.739190101623535 0.130605518817902
vt 0.737266719341278 0.130605518817902
vt 0.769371867179871 0.357142835855484
vt 0.769371867179871 0.642857134342194
vt 0.743755638599396 0.895778477191925
vt 0.744519233703613 0.895778477191925
vt 0.744547307491302 1
vt 0.880949735641479 0
vt 0.881186902523041 0.130605518817902
vt 0.882306814193726 0.130605518817902
vt 0.87688809633255 0.357142835855484
vt 0.87688809633255 0.642857134342194
vt 0.857612490653992 0.895778477191925
vt 0.859842240810394 0.895778477191925
vt 0.859296023845673 1
vt 1.01808822154999 0
vt 1.01838755607605 0.130605518817902
vt 1.02143979072571 0.130605518817902
vt 0.983698427677155 0.357142835855484
vt 0.983698427677155 0.642857134342194
vt 0.980216383934021 0.895778477191925
vt 0.982970595359802 0.895778477191925
vt 0.982040703296661 1
vt 0.1432054489851 0
vt 0.143375635147095 0.130605518817902
vt 0.0183875374495983 0.130605518817902
vt 0.018088148906827 0
vt 1.14610505104065 0.130605518817902
vt 1.09715914726257 0.357142835855484
vt 1.09715914726257 0.642857134342194
vt 1.115403175354 0.895778477191925
vt 1.11684024333954 0.895778477191925
vt 1.11609125137329 1
vt 0.0971590504050255 0.357142835855484
vt 0.146105021238327 0.130605518817902
vt 0.0971590504050255 0.642857134342194
vt 0.115403205156326 0.895778477191925
vt 0.11609123647213 1
vt 0.116840280592442 0.895778477191925
vt 0.479858160018921 0.130605518817902
vt 0.368153959512711 0.130605518817902
vt 0.601299226284027 0.130605518817902
vt 0.737854182720184 0.130605518817902
vt 0.884119808673859 0.130605518817902
vt 1.02295565605164 0.130605518817902
vt 0.0214398354291916 0.130605518817902
vt 0.508665859699249 0.0978566110134125
vt 0.751890361309052 0.145853295922279
vt 0.925199389457703 0.398168861865997
vt 0.92707085609436 0.707000255584717
vt 0.759713888168335 0.892090559005737
vt 0.516489386558533 0.844093859195709
vt 0.343180388212204 0.59177827835083
vt 0.341308921575546 0.282946884632111
vt 0.115374483168125 1
vt 0.257335335016251 1
vt 0.980711817741394 1
vt 1.11537456512451 1
vt 0.858235836029053 1
vt 0.74419778585434 1
vt 0.632699072360992 1
vt 0.517791450023651 1
vt 0.393654316663742 1
vt 0.258402436971664 1
vt 0.257841527462006 1
vt 0.380360305309296 1
vt 0.380730271339417 1
vt 0.5 1
vt 0.619639694690704 1
vt 0.619269728660583 1
vt 0.742158472537994 1
vt 0.741597592830658 1
vt 0.869252741336823 1
vt 0.868825316429138 1
vt -1.39137670274181e-08 1
vt 0.130747273564339 1
vt 0.131174683570862 1
vn 0 0 1
vn 0.70710081207919 0.707103516560258 -0.00361364429169641
vn 0.999986941610249 0 -0.00511044117273059
vn 0.697623972965145 0.692996088714772 0.181871419883262
vn 0.705310078950167 0.702984880821519 0.0913780601001358
vn 0.999961944850725 -0.000355286007434377 0.00871680114544053
vn 0.999846923619295 -0.000712546141158886 0.0174820366956893
vn 0.702354076981887 0.698746525891103 -0.135838297626387
vn 0.997627619387073 -0.00199622157821219 -0.0688124126556506
vn 0.684676597846689 0.677542821185809 -0.268614373816179
vn 0.990507758804812 -0.00398589281175882 -0.137399026219115
vn 0.681307617437445 0.682051296353684 0.26575545067594
vn 0.962554042454263 0 0.27108986582858
vn 0 1 0
vn -0.00271804279102435 0.981278691353953 0.192573991333356
vn -0.00136682449805462 0.995299038355358 0.096839847375404
vn -0.000170744428531668 0.987020284579824 -0.160595543756056
vn -0.000335853721163549 0.9487954612751 -0.315890898675552
vn -0.000711798723735507 0.967521583379921 0.25278741866752
vn -0.70710081207919 0.707103516560258 0.00361364429169628
vn -0.725046950829315 0.686139531290456 0.059325059575412
vn -0.725054596476532 0.688477325638719 0.0171698634126877
vn -0.710152067605326 0.689272149240238 -0.143484999765216
vn -0.686805967774518 0.679341419271115 -0.258443027942358
vn -0.686832676319759 0.686153739080778 0.239695475728905
vn -0.999986941610249 0 0.00511044117273072
vn -0.9909676321463 0.00305906702432054 -0.134066379630747
vn -0.995833325621487 0.00152858569487758 -0.0911792246480672
vn -0.996396475369236 -0.00175845468766821 -0.0847995973391074
vn -0.99252460439523 -0.00355137155357909 -0.121993022055279
vn -0.972179482157681 0 0.234237175682304
vn -0.70710081207919 -0.707103516560258 0.00361364429169654
vn -0.694789860727936 -0.650147138435948 -0.307531702127118
vn -0.716652439009327 -0.676808224687837 -0.168344612794357
vn -0.71567497910714 -0.698421190353518 -0.00414308401686953
vn -0.70724380025999 -0.706780004046066 0.0163778165348877
vn -0.686832676319759 -0.686153739080777 0.239695475728905
vn 0 -1 0
vn 0.00444390129663901 -0.940941250589869 -0.338540713474227
vn 0.00226439418762784 -0.985006258800151 -0.172503746752041
vn 4.03715714170629e-05 -0.999393114105025 0.034833918091377
vn 8.06800235984889e-05 -0.997574043134232 0.0696133748323904
vn -0.000711798723736284 -0.967521583379921 0.25278741866752
vn 0.70710081207919 -0.707103516560258 -0.00361364429169641
vn 0.69790287073894 -0.687118596135615 -0.201989152825017
vn 0.706162594752132 -0.700747338251237 -0.101427598348492
vn 0.707144005153418 -0.707064838080095 0.00258277493262594
vn 0.707176557977552 -0.707018097641952 0.00516966669884627
vn 0.681307617437444 -0.682051296353684 0.26575545067594
vn 0.00271804279102435 -0.981278691353953 -0.192573991333356
vn 0.00136682449805463 -0.995299038355358 -0.096839847375404
vn 0.725054596476532 -0.688477325638719 -0.0171698634126877
vn 0.725046950829315 -0.686139531290456 -0.059325059575412
vn -0.697623972965145 -0.692996088714772 -0.181871419883262
vn -0.705310078950167 -0.702984880821519 -0.0913780601001358
vn 0.995833325621487 -0.00152858569487758 0.0911792246480673
vn 0.9909676321463 -0.00305906702432051 0.134066379630747
vn 0.716652439009327 0.676808224687837 0.168344612794357
vn 0.694789860727936 0.650147138435948 0.307531702127118
vn 0.71567497910714 0.698421190353518 0.00414308401686951
vn -4.03715714171381e-05 0.999393114105025 -0.034833918091377
vn -0.00226439418762787 0.985006258800151 0.172503746752041
vn -0.00444390129663907 0.940941250589869 0.338540713474227
vn -0.707144005153418 0.707064838080095 -0.00258277493262591
vn -0.706162594752132 0.700747338251237 0.101427598348492
vn -0.69790287073894 0.687118596135615 0.201989152825017
vn -0.997627619387073 0.00199622157821216 0.0688124126556506
vn -0.999961944850725 0.000355286007434362 -0.00871680114544053
vn -0.999846923619295 0.000712546141158856 -0.0174820366956894
vn -0.702354076981887 -0.698746525891103 0.135838297626387
vn 0.000170744428531607 -0.987020284579824 0.160595543756056
vn 0.710152067605326 -0.689272149240238 0.143484999765216
vn 0.996396475369236 0.00175845468766819 0.0847995973391074
vn -0.707101810859929 0.707044091324041 -0.00978171776170171
vn -0.707012174039718 0.707055035535679 -0.0143861907144176
vn -0.99979304638707 0 -0.0203436573914849
vn -0.998276498384485 0.00199769738672619 0.058651871055934
vn -4.03721832650644e-05 0.999393095704086 -0.0348344460138421
vn 0.707211590732478 0.707001269159047 -0.000985566403046752
vn 0.707012174039719 0.707055035535678 0.0143861907144178
vn 0.997459424091216 0.00177638190198302 0.0712147580137634
vn 0.99979304638707 0 0.020343657391485
vn 0.702243525853386 -0.698497550426651 0.137677893813689
vn 0.707012174039719 -0.707055035535678 0.0143861907144178
vn 0.00017074700691677 -0.987019889989833 0.160597968884782
vn -0.703016553742724 -0.699426962686035 0.128723148778651
vn -0.707012174039719 -0.707055035535678 -0.0143861907144175
vn 0 0 -1
vn 0.809016994374947 0.587785252292473 0
vn 1 0 0
vn 0.309016994374948 0.951056516295154 0
vn -0.309016994374947 0.951056516295154 0
vn -0.809016994374947 0.587785252292473 0
vn -1 0 0
vn -0.809016994374948 -0.587785252292473 0
vn -0.309016994374948 -0.951056516295154 0
vn 0.309016994374947 -0.951056516295154 0
vn 0.809016994374947 -0.587785252292473 0
g o10 g2
f 1/1/1 2/2/1 3/3/1 4/4/1
g o1 g2
f 5/5/2 6/6/2 7/7/3 8/8/3
f 9/9/4 10/10/5 11/11/6 12/12/7
f 10/10/5 13/13/8 14/14/9 11/11/6
f 13/13/8 15/15/10 16/16/11 14/14/9
f 17/17/12 18/18/12 19/19/13 20/20/13
f 21/21/14 22/22/14 6/6/2 5/5/2
f 23/23/15 24/24/16 10/10/5 9/9/4
f 24/24/16 25/25/17 13/13/8 10/10/5
f 25/25/17 26/26/18 15/15/10 13/13/8
f 27/27/19 28/28/19 18/18/12 17/17/12
f 29/29/20 30/30/20 22/22/14 21/21/14
f 31/31/21 32/32/22 24/24/16 23/23/15
f 32/32/22 33/33/23 25/25/17 24/24/16
f 33/33/23 34/34/24 26/26/18 25/25/17
f 35/35/25 36/36/25 28/28/19 27/27/19
f 37/37/26 38/38/26 30/30/20 29/29/20
f 39/39/27 40/40/28 32/32/22 31/31/21
f 40/40/28 41/41/29 33/33/23 32/32/22
f 41/41/29 42/42/30 34/34/24 33/33/23
f 43/43/31 44/44/31 36/36/25 35/35/25
f 45/45/32 46/46/32 38/38/26 37/37/26
f 47/47/33 48/48/34 40/40/28 39/39/27
f 48/48/34 49/49/35 41/41/29 40/40/28
f 49/49/35 50/50/36 42/42/30 41/41/29
f 51/51/37 52/52/37 44/44/31 43/43/31
f 53/53/38 54/54/38 46/46/32 45/45/32
f 55/55/39 56/56/40 48/48/34 47/47/33
f 56/56/40 57/57/41 49/49/35 48/48/34
f 57/57/41 58/58/42 50/50/36 49/49/35
f 59/59/43 60/60/43 52/52/37 51/51/37
f 61/61/44 62/62/44 54/63/38 53/64/38
f 63/65/45 64/66/46 56/56/40 55/55/39
f 64/66/46 65/67/47 57/57/41 56/56/40
f 65/67/47 66/68/48 58/58/42 57/57/41
f 67/69/49 68/70/49 60/60/43 59/59/43
f 8/8/3 7/7/3 62/62/44 61/61/44
f 12/12/7 11/11/6 64/71/46 63/72/45
f 11/11/6 14/14/9 65/73/47 64/71/46
f 14/14/9 16/16/11 66/74/48 65/73/47
f 20/20/13 19/19/13 68/75/49 67/76/49
f 22/22/1 69/77/1 70/78/1 6/6/1
f 30/30/1 71/79/1 69/77/1 22/22/1
f 38/38/1 72/80/1 71/79/1 30/30/1
f 46/46/1 73/81/1 72/80/1 38/38/1
f 54/54/1 74/82/1 73/81/1 46/46/1
f 62/62/1 63/72/1 55/83/1 54/63/1
f 7/7/1 12/12/1 63/72/1 62/62/1
f 6/6/1 9/9/1 12/12/1 7/7/1
f 47/84/1 55/85/1 63/86/1 12/87/1 70/88/1 69/89/1 71/90/1 72/91/1
f 23/23/50 24/24/51 32/32/52 31/31/53
f 9/9/54 10/10/55 24/24/51 23/23/50
f 31/31/53 32/32/52 40/40/56 39/39/57
f 39/39/57 40/40/56 48/48/58 47/47/59
f 48/48/58 49/49/60 57/57/61 56/56/62
f 47/47/59 48/48/58 56/56/62 55/55/63
f 56/56/62 57/57/61 65/67/64 64/66/65
f 55/55/63 56/56/62 64/66/65 63/65/66
f 64/71/65 65/73/64 14/14/67 11/11/68
f 63/72/66 64/71/65 11/11/68 12/12/69
f 11/11/68 14/14/67 13/13/70 10/10/55
f 10/10/55 13/13/70 25/25/71 24/24/51
f 24/24/51 25/25/71 33/33/72 32/32/52
f 32/32/52 33/33/72 41/41/73 40/40/56
f 40/40/56 41/41/73 49/49/60 48/48/58
f 12/12/69 11/11/68 10/10/55 9/9/54
g o2 g2
f 66/74/74 75/92/75 76/93/76 16/16/77
f 58/58/78 77/94/14 75/95/75 66/68/74
f 50/50/79 78/96/80 77/94/14 58/58/78
f 42/42/81 79/97/82 78/96/80 50/50/79
f 34/34/83 80/98/84 79/97/82 42/42/81
f 26/26/85 81/99/38 80/98/84 34/34/83
f 15/15/86 82/100/87 81/99/38 26/26/85
f 16/16/77 76/93/76 82/100/87 15/15/86
f 67/76/88 66/74/88 16/16/88 20/20/88
f 66/68/88 67/69/88 59/59/88 58/58/88
f 58/58/88 59/59/88 51/51/88 50/50/88
f 43/43/88 42/42/88 50/50/88 51/51/88
f 35/35/88 34/34/88 42/42/88 43/43/88
f 27/27/88 26/26/88 34/34/88 35/35/88
f 17/17/88 15/15/88 26/26/88 27/27/88
f 20/20/88 16/16/88 15/15/88 17/17/88
f 76/101/1 19/102/1 18/103/1 82/104/1
f 82/104/1 18/103/1 28/105/1 81/105/1
f 81/105/1 28/105/1 36/106/1 80/107/1
f 80/107/1 36/106/1 44/108/1 79/109/1
f 52/110/1 78/111/1 79/109/1 44/108/1
f 60/3/1 77/3/1 78/111/1 52/110/1
f 60/112/1 68/113/1 75/114/1 77/112/1
f 19/102/1 76/101/1 75/114/1 68/113/1
g o3 g2
f 65/73/64 66/74/74 16/16/77 14/14/67
f 57/57/61 58/58/78 66/68/74 65/67/64
f 49/49/60 50/50/79 58/58/78 57/57/61
f 41/41/73 42/42/81 50/50/79 49/49/60
f 33/33/72 34/34/83 42/42/81 41/41/73
f 25/25/71 26/26/85 34/34/83 33/33/72
f 13/13/70 15/15/86 26/26/85 25/25/71
f 14/14/67 16/16/77 15/15/86 13/13/70
g collide g2
f 83//89 84//89 85//90 86//90
f 87//91 88//91 84//89 83//89
f 89//92 90//92 88//91 87//91
f 91//93 92//93 90//92 89//92
f 93//94 94//94 92//93 91//93
f 95//95 96//95 94//94 93//94
f 97//96 98//96 96//95 95//95
f 99//97 100//97 98//96 97//96
f 101//98 102//98 100//97 99//97
f 86//90 85//90 102//98 101//98
