v -1.46485175900317 -6.17247491076601 12.9508659185302
v 30.9012478486535 -6.17247491076601 12.9508659185302
v 30.9625493863462 0.82752508923399 16.8420376617291
v -1.40355022131041 0.82752508923399 16.8420376617291
v 30.9625493863462 -6.15228745547972 9.84203766172914
v -1.40355022131041 -6.15228745547972 9.84203766172914
v 30.9625493863462 0.82752508923399 9.84203766172914
v -1.40355022131041 0.82752508923399 9.84203766172914
v 0 3.40575773038247 5.88277469232143
v 0 3.40575773038247 0
v 5.32779332172437 3.40575773038247 0
v 5.32779332172437 3.40575773038247 5.88277469232143
v 24.6722066782756 3.40575773038247 5.88277469232144
v 24.6722066782756 3.40575773038247 1.4210854715202e-14
v 30 3.40575773038247 1.4210854715202e-14
v 30 3.40575773038247 5.88277469232144
v 30 29.3368080843599 -0.889974422693334
v 30 29.3368080843599 10.4170425665433
v 0 29.3368080843599 10.4170425665433
v 0 29.3368080843599 -0.889974422693334
v 0 7.5 -0.500000000000007
v 30 7.47486582847168 -0.500000000000007
v 30 22.8756656298546 -0.500000000000007
v 0 22.8756656298546 -0.500000000000007
v 30 20.9310503539774 -0.500000000000007
v 30 20.9310503539774 1.4210854715202e-14
v 0 20.9310503539774 1.4210854715202e-14
v 0 20.9310503539774 -0.500000000000007
v 0 29.3368080843599 0
v 30 29.3368080843599 1.4210854715202e-14
v 30 7.5 -0.500000000000007
v 37 7.49413535997673 -0.500000000000007
v 37 22.8756656298546 -0.500000000000007
v 30.3928833116933 22.8756656298546 17.1650255440319
v 37 22.9451434612094 17.1650255440319
v 37 8.06956760915963 17.2114438513849
v 30.3928833116933 8.06956760915963 17.2114438513849
v 37 7.99994014813007 -0.788421481907732
v 30.3928833116933 7.99994014813007 -0.788421481907732
v 30.3928833116933 22.8755160001798 -0.834839789260776
v 37 22.8755160001798 -0.834839789260776
v 30 22.8756656298546 -0.834840368061459
v 30 14.9242486931363 -0.809685852749967
v 30 14.9242486931363 20
v 30 22.8756656298546 20
v 30 5.75133125970929 -0.779723365291288
v 30 5.75133125970929 20
v 30 0 -0.757475943672368
v 30 0 20
v 30 29.3368080843599 20
v 30 29.3368080843599 -0.757475943672368
v 30 22.8756656298546 -0.779723365291288
v -7 22.9451434612094 17.1650255440319
v -7 8.06956760915963 17.2114438513849
v -7 7.99994014813007 -0.788421481907732
v -7 22.8755160001798 -0.834839789260776
v -0.283754125534868 22.8756656298546 17.1650255440319
v -0.283754125534868 22.8755160001798 -0.834839789260776
v -0.283754125534868 7.99994014813007 -0.788421481907732
v -0.283754125534868 8.06956760915963 17.2114438513849
v -7 22.8756656298546 -0.500000000000007
v -7 7.49413535997673 -0.500000000000007
v 0 5.75133125970929 20
v 0 0 20
v 0 0 -0.757475943672368
v 0 5.75133125970929 -0.779723365291288
v 0 14.9242486931363 20
v 0 14.9242486931363 -0.809685852749967
v 0 22.8756656298546 20
v 0 22.8756656298546 -0.834840368061459
v 0 22.8756656298546 -0.779723365291288
v 0 29.3368080843599 -0.757475943672368
v 0 29.3368080843599 20
v 6.40060551549415 -4.83409471361109 21.6895157071729
v 6.41964537299609 -4.83409471361109 13.820825241316
v 22.7473671666485 -4.83409471361109 13.820825241316
v 22.7283273091465 -4.83409471361109 21.6895157071729
v 30 0 1.4210854715202e-14
v 30 8.40575773038247 1.4210854715202e-14
v 0 8.40575773038247 0
v 0 0 0
v 30 0 -2
v 30 8.40575773038247 20
v 30 8.40575773038247 -2
v -3.57498571422939e-15 8.40575773038247 20
v 0 8.40575773038247 -2
v 0 0 -2
v 0 3.40575773038247 -2
v 5.32779332172437 3.40575773038247 -2
v 24.6722066782756 3.40575773038247 -2
v 30 3.40575773038247 -2
v 15.6203042615132 15.5096142930498 18.6282569867527
v 23.4588591352229 15.5096142930498 16.4014785541916
v 18.0425451725289 22.964539227036 16.4014785541916
v 28.9560482857067 15.5096142930498 10.3862980797853
v 26.4091481917042 23.3481738607151 10.3862980797853
v 19.741275590654 28.1926749868202 10.3862980797853
v 29.8003807527525 10.9022258793672 3.71842270461646
v 29.8003807527525 20.1170027067324 3.71842270461646
v 26.4091481917042 7.67105472538442 -2.94945267055238
v 28.9560482857067 15.5096142930498 -2.94945267055238
v 26.4091481917042 23.3481738607151 -2.94945267055238
v 9.27874926146638 20.1170196062048 16.4014785541916
v 11.4993135616333 28.1926815482041 10.3862980797853
v 4.83143324722628 23.3481910386239 10.3862980797853
v 24.3840619839841 27.5719259358555 3.71842270461646
v 15.6202884362151 30.4194485751986 3.71842270461646
v 19.7412621288511 28.192679360833 -2.94945267055238
v 11.4993135616333 28.1926815482041 -2.94945267055238
v 9.27873948005324 10.902222442855 16.4014785541916
v 2.28452067273739 15.5096213715371 10.3862980797853
v 4.83141660611218 7.67106045200427 10.3862980797853
v 6.85650057407374 27.571921285704 3.71842270461646
v 1.44019065124651 20.1170102333821 3.71842270461646
v 4.831424927367 23.3481795873328 -2.94945267055238
v 2.28452067273739 15.5096213715371 -2.94945267055238
v 18.04252934587 8.0546842166704 16.4014785541916
v 4.8314249259593 7.67104900070433 10.3862980797853
v 11.4993000975503 2.82655141264125 10.3862980797853
v 19.7412486647658 2.82654485052798 10.3862980797853
v 1.44019065041908 10.902218355264 3.71842270461646
v 6.85650057190751 3.44730730196944 3.71842270461646
v 4.8314249259593 7.67104900070433 -2.94945267055238
v 11.4993000975503 2.82655141264125 -2.94945267055238
v 19.7412621265734 2.82654922452651 10.3862980797853
v 26.4091398704433 7.67104327215136 10.3862980797853
v 15.6202884335374 0.599780010900997 3.71842270461646
v 24.3840619818178 3.44730264867023 3.71842270461646
v 11.4993135593555 2.82654703863557 -2.94945267055238
v 19.7412621265734 2.82654922452651 -2.94945267055238
v 26.4091398704433 7.67104327215136 -2.94945267055238
v 15.6202646982679 15.5096142930498 -11.1914115775197
v 7.78170982435826 15.5096142930498 -8.96463314566254
v 13.1980237870522 22.964539227036 -8.96463314517619
v 21.9618196981147 20.1170196062048 -8.96463314438926
v 21.9618294795279 10.902222442855 -8.96463314438926
v 26.4091523529288 7.67106045200427 -2.94945266958361
v 13.1980396137112 8.0546842166704 -8.96463314517619
v 19.7412688614907 2.82655141264125 -2.94945267018234
v 19.7412688602932 2.82655141264125 10.3862980801553
v 11.4993068312702 2.82654922452651 10.3862980794153
vt -0.00443439371883869 0.0015730889281258
vt 10.5235290527344 0.0015730889281258
vt 10.5434684753418 0.996681332588196
vt 0.0155056156218052 0.996681332588196
vt 10.52952003479 0
vt 10.5092697143555 0.997708380222321
vt -0.000655518495477736 1.00141680240631
vt 0.019595043733716 0
vt 2.99448394775391 -0.00579408276826143
vt 2.99448394775391 0.985489785671234
vt -0.00986865255981684 0.434453248977661
vt -0.00120433408301324 0
vt 2.98265314102173 0
vt 3.0049295425415 0.443586200475693
vt 0.00865683797746897 1.00476241111755
vt -0.0219348222017288 -0.00476221553981304
vt -0.207026928663254 0.991443872451782
vt -0.219872027635574 -0.00800656992942095
vt 0.992424130439758 -0.000646164058707654
vt 1.00526928901672 0.998804271221161
vt -0.203000605106354 1.00004398822784
vt -0.198601752519608 -0.00371749768964946
vt 1.01145923137665 -0.00179050397127867
vt 1.00706028938293 1.00197088718414
vt 1.3274804353714 0
vt 1.3274804353714 1.00065624713898
vt 0 1.00065624713898
vt 0 0
vt -0.0141159612685442 0.0664788112044334
vt 4.84284591674805 0.0413132049143314
vt 4.86361932754517 1.05921471118927
vt 0.00665754033252597 1.08438014984131
vt 9.94547843933105 0.947086751461029
vt 9.94709968566895 1.00705480575562
vt 0.0280589703470469 1.00705480575562
vt 0.0264381803572178 0.947086751461029
vt 0.00081156607484445 -0.00109915074426681
vt 9.9198522567749 -0.00109915074426681
vt -0.0282966587692499 0.0411450415849686
vt 1.10499429702759 0.0352730676531792
vt 1.12576794624329 1.05317449569702
vt -0.00752315390855074 1.05904650688171
vt 0.995753884315491 -1.14083104563178e-05
vt 0.0153505597263575 0
vt 0.00320313055999577 0.998792767524719
vt 0.983591735363007 0.999988675117493
vt 0.024467296898365 -6.72852474963292e-05
vt 0.992594540119171 -0.00272964243777096
vt 0.988990902900696 0.996196448802948
vt 0.0208584479987621 1.00029909610748
vt 0.657196700572968 0
vt 0.666371703147888 1
vt 0.00918483920395374 1.00107181072235
vt 0.00665698386728764 1.084352850914
vt 1.13994812965393 1.07848083972931
vt 1.11917448043823 0.0605790764093399
vt -0.0141165181994438 0.0664510503411293
vt 0.980241060256958 0.999979972839355
vt 0.00311786192469299 0.99879252910614
vt 0.0152334542945027 -3.09802487663546e-07
vt 0.992371261119843 -2.01818365894724e-05
vt -0.000720999611075968 1.00287163257599
vt 0.000434750429121777 -0.00194327242206782
vt 0.991553783416748 -0.00594258354976773
vt 0.990398049354553 0.998872339725494
vn 0 -0.485860731586857 0.874036240382448
vn 0 -0.999978917312852 -0.00649345284234462
vn 0.999963268775712 -0.00606931878275586 0.00605181533967835
vn -0.999963268775712 0.00606931878275626 -0.00605181533967835
vn 0 -1 0
vn 0 0 1
vn 1.64449691727444e-05 -0.00312772658965614 -0.999995108516008
vn 0 0.999992518516258 -0.00386819227942036
vn 0.00525772010761728 -0.999984299685847 0.00193823658927879
vn -1 0 0
vn 1 0 0
vn -0.00517229213930094 -0.999984745198447 0.00193823745280129
vn -1.6177762442185e-05 -0.00312772658966928 -0.999995108520367
vn 4.87567728206248e-07 3.19686583359865e-08 0.999999999999881
vn 0.540178054416233 -2.18166965415554e-07 0.841550752793345
vn 0.166924681995261 0.51373960904485 0.841550809303411
vn 0.898197664280834 -1.8003695712503e-07 0.439591805975068
vn 0.700033744885287 0.508603834365402 0.501273274462835
vn 0.27755886553917 0.854236571617954 0.439591805964366
vn 0.951056514756911 -0.309016999109169 4.93614796226227e-08
vn 0.951056542199679 0.309016914649006 0
vn 0.902083220064718 -0.293104341192786 -0.31675812420775
vn 0.865288953097852 1.44790021304635e-07 -0.501273406083748
vn 0.726657290730836 0.527947235253712 -0.439591740841071
vn -0.437012606714555 0.317508947373775 0.841550978794598
vn -0.267388451909985 0.822938905444802 0.501273352264503
vn -0.72665685148489 0.527947785599157 0.439591805964366
vn 0.587785399929921 0.809016887110041 -4.93531247316251e-08
vn 1.72625655691956e-07 0.999999999999984 4.93533231870491e-08
vn 0.267389043332776 0.822938682229829 -0.501273403239604
vn -0.277558206391355 0.854236819291466 -0.43959174085919
vn -0.437013114328289 -0.317508143709361 0.841551018407872
vn -0.865288984275874 5.77574776016893e-07 0.501273352264503
vn -0.825859684824096 -0.268337351002183 0.49593431726326
vn -0.587785104625947 0.809017101660936 -4.93531248637688e-08
vn -0.951056462939778 0.309017158585857 4.93533234121829e-08
vn -0.700033435445175 0.508604193518508 -0.501273342193872
vn -0.898197696144148 1.74523555440303e-07 -0.439591740870223
vn 0.166923871978262 -0.513739709669712 0.841550908544614
vn -0.625871883397756 -0.680464794417858 0.381119468316704
vn -0.219426156876312 -0.675322724330362 0.704124548415626
vn -6.00926724704267e-07 -0.754757950308731 0.65600338142833
vn -0.951056572709823 -0.309016820748389 -4.93533188556667e-08
vn -0.587785284279436 -0.809016971135057 2.46829011342135e-08
vn -0.700033475149939 -0.508604057096372 -0.501273425162965
vn -0.557518246319496 -0.76735760618451 -0.31675812420775
vn 0.26470068696764 -0.8830270289426 0.387552335144126
vn 0.700033379561873 -0.508604227880156 0.50127338537131
vn 3.93245528669922e-08 -0.999999999999999 2.46618206159184e-08
vn 0.587785220301186 -0.809017017617977 -2.46865239617538e-08
vn -0.198724546485103 -0.86286573717444 -0.464727096514394
vn 0.29822221669135 -0.917833607179561 -0.262001868320537
vn 0.625871801338293 -0.680464927337077 -0.381119365755281
vn -4.87477934946086e-07 3.19686583006861e-08 -0.999999999999881
vn -0.540178054366023 -9.09686325761059e-08 -0.841550752825597
vn -0.166924454294221 0.513739683012916 -0.841550809313594
vn 0.437012747460871 0.317508753723271 -0.841550978768248
vn 0.437013053511324 -0.317508178108241 -0.841551037011478
vn 0.717817564058431 -0.233232643684776 -0.656003413595563
vn -0.166923924264742 -0.513739755618306 -0.841550870123311
vn 0.219426012045706 -0.675322771407018 -0.704124548398124
vn 0.557518070057579 -0.767357792036922 0.316757984207964
vn -0.298222217518536 -0.917833609126258 0.262001860559414
g front_fence prop_trolley_station
f 1/1/1 2/2/1 3/3/1 4/4/1
f 5/5/2 2/6/2 1/7/2 6/8/2
f 7/9/3 3/10/3 2/11/3 5/12/3
f 6/13/4 1/14/4 4/15/4 8/16/4
f 9/17/5 10/18/5 11/19/5 12/20/5
f 13/21/5 14/22/5 15/23/5 16/24/5
g hill_1 prop_trolley_station
f 17/25/5 18/26/5 19/27/5 20/28/5
f 21/29/6 22/30/6 23/31/6 24/32/6
f 25/33/5 26/34/5 27/35/5 28/36/5
f 29/37/6 27/35/6 26/34/6 30/38/6
g tunnelR prop_trolley_station
f 31/39/6 32/40/6 33/41/6 23/42/6
f 34//7 35//7 36//7 37//7
f 37//8 36//8 38//8 39//8
f 40//9 41//9 35//9 34//9
f 41//10 38//10 36//10 35//10
f 42/43/10 43/44/10 44/45/10 45/46/10
f 43/47/10 46/48/10 47/49/10 44/50/10
f 46/28/10 48/51/10 49/52/10 47/53/10
f 45/53/10 50/52/10 51/51/10 52/28/10
g tunnelL prop_trolley_station
f 53//11 54//11 55//11 56//11
f 57//12 53//12 56//12 58//12
f 59//8 55//8 54//8 60//8
f 60//13 54//13 53//13 57//13
f 24/54/6 61/55/6 62/56/6 21/57/6
f 63/53/11 64/52/11 65/51/11 66/28/11
f 67/50/11 63/49/11 66/48/11 68/47/11
f 69/58/11 67/59/11 68/60/11 70/61/11
f 71/28/11 72/51/11 73/52/11 69/53/11
g sign_front prop_trolley_station
f 74/62/5 75/63/5 76/64/5 77/65/5
g prop_trolley_station_floor_collisions prop_trolley_station
f 78/38/6 79/34/6 80/35/6 81/37/6
g prop_trolley_station_collisions prop_trolley_station
f 82//10 49//10 83//10 84//10
f 84//5 83//5 85//5 86//5
f 86//11 85//11 64//11 87//11
f 9//5 88//5 89//5 12//5
f 13//5 90//5 91//5 16//5
g trolley_sphere prop_trolley_station
f 92//14 93//15 94//16
f 93//15 95//17 96//18
f 93//15 96//18 94//16
f 94//16 96//18 97//19
f 95//17 98//20 99//21
f 98//20 100//22 101//23
f 98//20 101//23 99//21
f 99//21 101//23 102//24
f 92//14 94//16 103//25
f 94//16 97//19 104//26
f 94//16 104//26 103//25
f 103//25 104//26 105//27
f 97//19 106//28 107//29
f 106//28 102//24 108//30
f 106//28 108//30 107//29
f 107//29 108//30 109//31
f 92//14 103//25 110//32
f 103//25 105//27 111//33
f 103//25 111//33 110//32
f 110//32 111//33 112//34
f 105//27 113//35 114//36
f 113//35 109//31 115//37
f 113//35 115//37 114//36
f 114//36 115//37 116//38
f 92//14 110//32 117//39
f 110//32 118//40 119//41
f 110//32 119//41 117//39
f 117//39 119//41 120//42
f 118//40 121//43 122//44
f 121//43 116//38 123//45
f 121//43 123//45 122//44
f 122//44 123//45 124//46
f 92//14 117//39 93//15
f 117//39 125//47 126//48
f 117//39 126//48 93//15
f 93//15 126//48 95//17
f 125//47 127//49 128//50
f 127//49 129//51 130//52
f 127//49 130//52 128//50
f 128//50 130//52 131//53
f 132//54 133//55 134//56
f 133//55 116//38 115//37
f 133//55 115//37 134//56
f 134//56 115//37 109//31
f 116//38 121//43 114//36
f 121//43 112//34 111//33
f 121//43 111//33 114//36
f 114//36 111//33 105//27
f 132//54 134//56 135//57
f 134//56 109//31 108//30
f 134//56 108//30 135//57
f 135//57 108//30 102//24
f 109//31 113//35 107//29
f 113//35 105//27 104//26
f 113//35 104//26 107//29
f 107//29 104//26 97//19
f 132//54 135//57 136//58
f 135//57 102//24 101//23
f 135//57 101//23 136//58
f 136//58 101//23 137//59
f 102//24 106//28 99//21
f 106//28 97//19 96//18
f 106//28 96//18 99//21
f 99//21 96//18 95//17
f 132//54 136//58 138//60
f 136//58 131//53 139//61
f 136//58 139//61 138//60
f 138//60 139//61 129//51
f 131//53 98//20 128//50
f 98//20 95//17 126//48
f 98//20 126//48 128//50
f 128//50 126//48 140//62
f 132//54 138//60 133//55
f 138//60 129//51 123//45
f 138//60 123//45 133//55
f 133//55 123//45 116//38
f 129//51 127//49 122//44
f 127//49 125//47 141//63
f 127//49 141//63 122//44
f 122//44 141//63 118//40
g station_ground prop_trolley_station
f 78/38/6 79/34/6 80/35/6 81/37/6
