v 2.04846246418952 0 -1.82994969999768
v 2.04846246418952 0 1.73695230299384
v -2.02808289880699 0 1.73695230299384
v -2.02808289880699 0 -1.82994969999768
v 1.5 0 -1.71497797966003
v 1.5 0 1.5
v -1.71497797966003 0 1.5
v -1.71497797966003 0 -1.71497797966003
v 1.5 0 -1.5
v -1.5 0 1.5
v -1.5 0 -1.5
v 1.04104222990572 0 -0.293394769544393
v 1.04104222990572 0 0.693394769544393
v -1.04104222990571 0 0.693394769544393
v -1.04104222990571 0 -0.293394769544393
v 0.623540421073816 0 -0.0342884832185873
v 0.623540421073816 0 -0.814828071928813
v 1.33020828055289 0 -0.814828071928813
v 1.33020828055289 0 -0.0342884832185873
v 0.264426844138836 0 -0.28658732013727
v 0.212532837440071 0 -1.1466864500199
v 1.07600217064207 0 -1.1230598501227
v 1.07600217064207 0 -0.28658732013727
v -0.0340411772396716 0 -0.328289500087716
v -0.0340411772396716 0 -1.28893948229341
v 0.616662418502561 0 -1.28893948229341
v 0.616662418502561 0 -0.328289500087716
v -0.864193824020289 0 -0.289791862665102
v -0.864193824020289 0 -1.31928137564914
v -0.02559582246794 0 -1.31928137564914
v -0.02559582246794 0 -0.289791862665102
v -1.15865007407716 0 -0.184813740411218
v -1.21054408077593 0 -1.04491287029384
v -0.347074747573932 0 -1.02128627039664
v -0.347074747573932 0 -0.184813740411218
v -1.3631666734632 0 0.0682604201972405
v -1.3631666734632 0 -0.712279168512985
v -0.656498813984128 0 -0.712279168512985
v -0.656498813984128 0 0.0682604201972405
vt 1 0
vt 1 1
vt 0 1
vt 0 0
vt 0.837500035762787 0.386344969272614
vt 0.837500035762787 0.746988356113434
vt 0.162500008940697 0.746988356113434
vt 0.162500008940697 0.386344969272614
vn 0 -1 0
g monkeyhead heads laff_o_meter
f 1/1/1 2/2/1 3/3/1 4/4/1
g bearhead heads laff_o_meter
f 1/1/1 2/2/1 3/3/1 4/4/1
g bunnyhead heads laff_o_meter
f 5/1/1 6/2/1 7/3/1 8/4/1
g cathead heads laff_o_meter
f 5/1/1 6/2/1 7/3/1 8/4/1
g doghead heads laff_o_meter
f 5/1/1 6/2/1 7/3/1 8/4/1
g duckhead heads laff_o_meter
f 5/1/1 6/2/1 7/3/1 8/4/1
g horsehead heads laff_o_meter
f 5/1/1 6/2/1 7/3/1 8/4/1
g mousehead heads laff_o_meter
f 5/1/1 6/2/1 7/3/1 8/4/1
g pighead heads laff_o_meter
f 1/1/1 2/2/1 3/3/1 4/4/1
g o1_10 open_smile laff_o_meter
f 9/1/1 6/2/1 10/3/1 11/4/1
g o27_1 eyes laff_o_meter
f 12/5/1 13/6/1 14/7/1 15/8/1
g o1_9 smile laff_o_meter
f 9/1/1 6/2/1 10/3/1 11/4/1
g o1_8 frown laff_o_meter
f 9/1/1 6/2/1 10/3/1 11/4/1
g tooth_1 teeth laff_o_meter
f 16/3/1 17/4/1 18/1/1 19/2/1
g tooth_2 teeth laff_o_meter
f 20/3/1 21/4/1 22/1/1 23/2/1
g tooth_3 teeth laff_o_meter
f 24/3/1 25/4/1 26/1/1 27/2/1
g tooth_4 teeth laff_o_meter
f 28/3/1 29/4/1 30/1/1 31/2/1
g tooth_5 teeth laff_o_meter
f 32/3/1 33/4/1 34/1/1 35/2/1
g tooth_6 teeth laff_o_meter
f 36/3/1 37/4/1 38/1/1 39/2/1
