v -3.60554030250474e-10 -0.000815620391124592 0.00478377347404713
v 0.00112512933086552 -0.000166026636086092 0.00478377347404713
v 0.00112512947508714 0.00113316087399091 0.00478377347404713
v 2.16332418150285e-10 0.00178275520591586 0.00478377347404713
v -0.00112512976353036 0.00113316145087736 0.00478377347404713
v -0.00112512997986278 -0.000166026347642868 0.00478377347404713
v 0.00112512947508714 0.00113316087399091 0.00330987619151519
v 1.4422161210019e-10 0.00178275506169424 0.00330987619151519
v -0.00112512976353036 0.00113316145087736 0.00330987619151519
v -0.00112512997986278 -0.000166026347642868 0.00330987619151519
v -3.60554030250474e-10 -0.000815620391124592 0.00330987619151519
v 0.00112512933086552 -0.000166026636086092 0.00330987619151519
v 4.32664836300569e-10 0.00327137809192968 0.007421677330532
v 0.0024143153605866 0.00187747188433298 0.007421677330532
v -0.00241431478370015 0.00187747289388427 0.007421677330532
v -0.00241431521636499 -0.000910337934871392 0.007421677330532
v -2.88443224200379e-10 -0.00230424356558164 0.007421677330532
v 0.00241431449525693 -0.000910338223314616 0.007421677330532
v 4.32664836300569e-10 0.00327137809192968 0.00817749664863322
v 0.0024143153605866 0.00187747188433298 0.00817749664863322
v -0.00241431478370015 0.00187747289388427 0.00817749664863322
v -0.00241431521636499 -0.000910337934871392 0.00817749664863322
v -2.88443224200379e-10 -0.00230424356558164 0.00817749664863322
v 0.00241431449525693 -0.000910338223314616 0.00817749664863322
v -4.92857040848407e-06 0.00628228067100205 0.00428111925525615
v -4.92857804728471e-06 0.00427477550631746 0.00462751405367388
v 0.002707589388363 0.00328083847725172 0.00354595985899134
v 0.002707589388363 0.00737236074497068 0.00322820897412112
v -4.92857804728471e-06 0.00228690144818599 0.00462752040915602
v 0.00337874370179777 0.00806900176398084 0.000474919666465264
v 0.002707589388363 -0.000810683973798445 0.00322820897412112
v 0.00337874370179777 -0.00150732542058145 0.000474919666465264
v 0.00286648841941451 0.00765531512070203 -0.00117510701395239
v 0.00286680130468892 -0.00109363865508182 -0.00117509271411758
v -4.92857804728471e-06 0.000299029406697888 0.00428010384476404
v -4.92857804728471e-06 0.00785238786632307 0.00322820897412112
v -4.92857804728471e-06 0.00863076234114139 0.000474919605354859
v -4.92857804728471e-06 0.00765531512070203 -0.00117510689173158
v -4.92863342858939e-06 -0.00129071115626125 0.00322820897412112
v -4.92863342858939e-06 -0.00206908440887146 0.000474919666465264
v -4.92857804728471e-06 -0.00109363853286101 -0.00117509271411758
v -0.00271744674115669 0.00737236074497068 0.00322820897412112
v -0.00271744674115669 0.00328083847725172 0.00354595985899134
v -0.00338860105459146 0.00806900225286409 0.000474919666465264
v -0.00338860105459146 -0.00150732542058145 0.000474919666465264
v -0.00271744674115669 -0.000810683973798445 0.00322820897412112
v -0.00287634577220819 0.00765531560958527 -0.00117510701395239
v -0.00287665841304098 -0.00109363865508182 -0.00117509271411758
vt 0.409819751977921 0.0459286756813526
vt 0.590180218219757 0.0459286756813526
vt 0.680360496044159 0.202125355601311
vt 0.590180337429047 0.358322113752365
vt 0.409819811582565 0.358322143554688
vt 0.319639503955841 0.202125445008278
vt 0.0157894790172577 0.383404523134232
vt 0.177192986011505 0.383404523134232
vt 0.177192986011505 0.626214861869812
vt 0.0157894790172577 0.626214861869812
vt 0.338596493005753 0.383404523134232
vt 0.338596493005753 0.626214861869812
vt 0.5 0.383404523134232
vt 0.5 0.626214861869812
vt 0.66140353679657 0.383404523134232
vt 0.66140353679657 0.626214861869812
vt 0.82280707359314 0.383404523134232
vt 0.82280707359314 0.626214861869812
vt 0.98421049118042 0.383404523134232
vt 0.98421049118042 0.626214861869812
vt 0.177192986011505 0.869025111198425
vt 0.0157894790172577 0.869025111198425
vt 0.338596493005753 0.869025111198425
vt 0.5 0.869025111198425
vt 0.66140353679657 0.869025111198425
vt 0.82280707359314 0.869025111198425
vt 0.98421049118042 0.869025111198425
vt 0.177192986011505 0.9859219789505
vt 0.0157894790172577 0.9859219789505
vt 0.338596493005753 0.9859219789505
vt 0.5 0.9859219789505
vt 0.66140353679657 0.9859219789505
vt 0.82280707359314 0.9859219789505
vt 0.98421049118042 0.9859219789505
vt 0.811245322227478 0.954782783985138
vt 0.592892527580261 0.98281729221344
vt 0.5 0.841454327106476
vt 0.882390856742859 0.815737962722778
vt 0.407107353210449 0.982817769050598
vt 0.947498440742493 0.592907726764679
vt 0.117609180510044 0.815737962722778
vt 0.0525015741586685 0.592907726764679
vt 0.908835589885712 0.459367126226425
vt 0.0911644399166107 0.459368288516998
vt 0.142295151948929 0.954700589179993
vt 0.690545797348022 0.048860490322113
vt 0.691656708717346 0.343982517719269
vt 0.410056322813034 0.417575627565384
vt 0.408670961856842 0.0495676696300507
vt 0.988719284534454 0.815737962722778
vt 0.240921229124069 0.36236959695816
vt 0.239745318889618 0.0499914921820164
vt -0.00628083199262619 0.815737962722778
vt 0.408670008182526 0.0495677888393402
vt 0.41005551815033 0.417575746774673
vt 0.691656827926636 0.343982636928558
vt 0.690545916557312 0.0488605499267578
vt 0.239745229482651 0.0499915778636932
vt 0.240921258926392 0.362403780221939
vn 0 -1.59153017875722e-07 0.999999999999987
vn 0.866025573649809 0.499999705784433 -2.63039387831407e-08
vn 0.500000322460526 0.866025217611685 -5.46018303341521e-08
vn 0.487140632030853 0.843751652648906 -0.225337864720561
vn 0.753312840085495 0.635393031399066 -0.169692252657069
vn -0.49999977312588 0.866025534770233 -3.01392142295871e-08
vn -0.487140170305046 0.843751927869017 -0.225337832359521
vn -0.999999999999986 1.66513585209857e-07 0
vn -0.974280692560486 1.58672334098974e-07 -0.22533781774002
vn -0.500000089421591 -0.866025352156853 0
vn -1.03238278370554e-07 -0.999999999999995 0
vn -0.173610449658428 -0.970084506523197 -0.169692256667897
vn -0.487140422261085 -0.843751775276282 -0.225337859041518
vn 0.499999898873841 -0.866025462169646 0
vn 0.487140278872262 -0.843751857344166 -0.225337861728839
vn 0.999999999999994 -1.11009081747496e-07 0
vn 0.974280678886598 -1.70863999408866e-07 -0.22533787686104
vn 0.190510874404339 0.922901761848438 -0.33460117260814
vn 0.704001244318533 0.626437773416157 -0.334601201485238
vn -0.70400101061912 0.626438066089751 -0.334601145247577
vn -0.894511776306045 -0.296463709663942 -0.334601181859985
vn -0.190510713532569 -0.922901780451248 -0.334601212892644
vn 0.449222827761378 -0.778076808506628 -0.43908465138537
vn 0.704001029326644 -0.626438013709201 -0.334601203953448
vn 0.89844568250349 -2.21929904935207e-07 -0.439084679294084
vn 0.500000224383689 0.866025274236417 0
vn -0.499999907983841 0.866025456909986 0
vn -0.866025292667481 0.500000192460167 0
vn -0.999999999999988 1.55198779370034e-07 0
vn -0.500000069184952 -0.866025363840485 0
vn 0.50000001398658 -0.866025395709283 0
vn 0.866025322469823 -0.50000014084102 0
vn 0.999999999999952 -3.10397637420973e-07 0
vn 3.98131035260783e-09 0.350089993547428 0.93671607033186
vn 2.40593618432419e-08 0.054296134415136 0.998524876899706
vn 0.5668971728256 -0.000135221130199613 0.823788551242118
vn 0.567124003652011 0.258914630746228 0.781878237622239
vn 2.40572210213778e-08 -0.054555280097991 0.998510751776579
vn 0.999325121771722 8.3265857101128e-06 -0.0367328317258779
vn 0.756180717848909 -0.0573607619458331 0.651843896145774
vn 0.955060234795503 1.60753684861895e-05 -0.296411787306005
vn 3.97748560451826e-09 -0.347312731937963 0.937749362161227
vn 6.00163600854219e-08 0.806784370260757 0.590845986618298
vn 0.162017311082536 0.948070676666375 0.273701265899422
vn 0.129699702238818 0.989370467043112 -0.0657576321202118
vn 8.38435495631178e-08 0.997798551515945 -0.0663177999685957
vn 0.0820798055426214 0.913941911725132 -0.397458283992542
vn 4.48548311164941e-08 0.917036215231477 -0.398803936733235
vn 0.138017072772015 -0.797233345662449 0.587682125121483
vn -4.00544191023855e-09 -0.804936708365834 0.593360679119518
vn 1.99627275737087e-09 -0.997798708586409 -0.0663154366893208
vn 0.12969727674589 -0.989370938324964 -0.0657553252800093
vn 0 -0.917038173838287 -0.398799432952632
vn 0.0820756578532252 -0.913944190624591 -0.397453900234381
vn -0.567123993417889 0.258914632313827 0.781878244526309
vn -0.566897172825756 -0.00013521909293145 0.823788551242345
vn -0.999325120536468 8.31998639526301e-06 -0.0367328653327091
vn -0.756180709738292 -0.0573607628587266 0.651843905474277
vn -0.955060214768827 1.60626276522586e-05 -0.296411851834088
vn -0.129699579584167 0.989370486123644 -0.0657575869626903
vn -0.162017223601987 0.948070670844733 0.273701337848981
vn -0.0820796592641315 0.913941931176059 -0.397458269473991
vn -0.138017068516787 -0.797233344661312 0.587682127478937
vn -0.129697274147625 -0.989370938387908 -0.0657553294578147
vn -0.0820756570698143 -0.913944187481334 -0.39745390762407
g vertex
f 1/1/1 2/2/1 3/3/1 4/4/1 5/5/1 6/6/1
f 7/7/2 8/8/3 4/9/4 3/10/5
f 8/8/6 9/11/6 5/12/7 4/9/7
f 9/11/8 10/13/8 6/14/9 5/12/9
f 10/13/10 11/15/11 1/16/12 6/14/13
f 11/15/11 12/17/14 2/18/15 1/16/12
f 12/17/16 7/19/2 3/20/5 2/18/17
f 3/10/5 4/9/4 13/21/18 14/22/19
f 4/9/7 5/12/7 15/23/20 13/21/18
f 5/12/9 6/14/9 16/24/21 15/23/20
f 6/14/13 1/16/12 17/25/22 16/24/21
f 1/16/23 2/18/15 18/26/24 17/25/22
f 2/18/17 3/20/25 14/27/19 18/26/24
f 14/22/19 13/21/18 19/28/26 20/29/26
f 13/21/27 15/23/20 21/30/28 19/28/27
f 15/23/29 16/24/21 22/31/29 21/30/28
f 16/24/30 17/25/22 23/32/30 22/31/30
f 17/25/31 18/26/24 24/33/32 23/32/31
f 18/26/33 14/27/33 20/34/33 24/33/32
g base
f 25/35/34 26/36/35 27/37/36 28/38/37
f 26/36/35 29/39/38 27/37/36
f 30/40/39 28/38/37 27/37/36 31/41/40 32/42/39
f 33/43/41 30/40/39 32/42/39 34/44/41
f 29/39/38 35/45/42 31/41/40 27/37/36
f 36/46/43 28/47/44 30/48/45 37/49/46
f 25/35/34 28/38/37 36/50/43
f 37/49/46 30/48/45 33/51/47 38/52/48
f 31/41/49 35/45/42 39/53/50
f 40/54/51 32/55/52 31/56/49 39/57/50
f 41/58/53 34/59/54 32/55/52 40/54/51
f 25/35/34 42/38/55 43/37/56 26/36/35
f 26/36/35 43/37/56 29/39/38
f 44/40/57 45/42/57 46/41/58 43/37/56 42/38/55
f 47/43/59 48/44/59 45/42/57 44/40/57
f 29/39/38 43/37/56 46/41/58 35/45/42
f 36/46/43 37/49/46 44/48/60 42/47/61
f 25/35/34 36/50/43 42/38/55
f 37/49/46 38/52/48 47/51/62 44/48/60
f 46/41/63 39/53/50 35/45/42
f 40/54/51 39/57/50 46/56/63 45/55/64
f 41/58/53 40/54/51 45/55/64 48/59/65
