v 5.65927112701406 -3.13026030441205 32.5216430181036
v 9.01455883867213 -3.13026030698773 32.6015308136142
v 8.94074838382135 -3.83151616635342 35.7015701721093
v 5.58546067216329 -3.83151616377774 35.6216823765986
v 16.4144280297632 -3 32.2015504311584
v 7.10943379633057 -4.72830250120023 39.6246351084709
v -1.15005546705348 -3 31.783348477507
v 6.63879403051427 -3 20.2754300590533
v 1.48775896014293 -3 20.2754300590533
v 1.48775896014293 -3 13.9230660879138
v 6.63879403051427 -3 13.9230660879138
v 8.58737634754442 -3 13.9230660879138
v 13.7384114179158 -3 13.9230660879138
v 13.7384114179158 -3 20.2754300590533
v 8.58737634754442 -3 20.2754300590533
v 16.1007765387486 -3 3.13651465238556
v 16.3098775327584 -3 6.79578174683537
v 15.7871250477341 -3 10.559599329698
v 15.9962260417438 -3 12.7551595863679
v 17.0417310117924 -3 18.2963354722491
v 16.4144280297632 -3 22.6874559855889
v 15.7871250477341 -3 31.2605960354427
v -0.41820198801945 -3 31.1560455470299
v -1.3591564610632 -3 22.582905497176
v -1.25460596405834 -3 17.8781335185977
v -0.209100994009728 -3 12.2324071443037
v 0 -3 10.3504983528723
v -0.41820198801945 -3 6.79578174683537
v -0.104550497004861 -3 3.24106514079841
v 0 -3 0
v 16.3098775327584 -3 0
v -1.15005546705348 6.19511031534057 31.783348477507
v 7.10943379633057 6.19511031534057 39.6246351084709
v 16.4144280297632 6.19511031534057 32.2015504311584
v -0.209100994009728 0 12.2324071443037
v -1.25460596405834 0 17.8781335185977
v 0 0 10.3504983528723
v -0.41820198801945 0 6.79578174683537
v -0.104550497004861 0 3.24106514079841
v 0 0 0
v -1.3591564610632 0 22.582905497176
v -0.41820198801945 6.19511031534057 31.1560455470299
v -1.3591564610632 6.19511031534057 22.582905497176
v -1.30107289793832 0 19.9691453713566
v -1.30107289793832 6.19511031534057 19.9691453713566
v 16.1007765387486 0 3.13651465238556
v 16.3098775327584 0 0
v 16.3098775327584 0 6.79578174683537
v 15.7871250477341 0 10.559599329698
v 15.9962260417438 0 12.7551595863679
v 17.0417310117924 0 18.2963354722491
v 15.7871250477341 6.19511031534057 31.2605960354427
v 16.4144280297632 6.19511031534057 22.6874559855889
v 16.4144280297632 0 22.6874559855889
v 16.8027581494238 0 19.9691453713566
v 16.8027581494238 6.19511031534057 19.9691453713566
v 7.74417836572027 -3 11.5041637304847
v 4.77677896686048 -3.00000017044055 10.9748287610312
v 5.17433529267412 -3.97420020378374 10.9748287610312
v 6.2604790076555 -4.68736425879806 10.9748287610312
v 7.74417875484773 -4.9484002091093 10.9748287610312
v 9.22787840651528 -4.6873639599434 10.9748287610312
v 10.3140218939199 -3.97419975550174 10.9748287610312
v 10.7115777645801 -2.9999996591189 10.9748287610312
v 2.60449176447448 -3.00000029418506 9.52865838975169
v 3.29307938121896 -4.68736440822539 9.52865838975169
v 5.17433552025087 -5.92260036386219 9.52865838975169
v 7.74417903970881 -6.37472802028329 9.52865838975169
v 10.3140223490734 -5.92260006500753 9.52865838975169
v 12.1952778053751 -4.68736366108874 9.52865838975169
v 12.8838649669661 -2.99999940929508 9.52865838975169
v 10.7112122763215 -6.37431111802829 7.61521297862899
v 12.8832309381439 -4.94815918282353 7.61521297862899
v 13.6782448214622 -2.9999993182378 7.61521297862899
v 1.81011190997832 -3.0000003408811 7.61521297862899
v 2.60512624845012 -4.94816007938751 7.61521297862899
v 4.77714582057954 -6.37431171573762 7.61521297862899
v 7.74417914387916 -6.89631936260753 7.61521297862899
v 1.30500516588805 -2.92784036355878 18.6934257990908
v 1.30500516588805 -2.92784036355878 18
v 1.30500516588805 -5.65425551004997 18
v 1.30500516588805 -5.65425551004997 18.6934257990908
v 6.71254825555049 -5.65425551004997 18
v 6.71254825555049 -5.65425551004997 18.6934257990908
v 1.30500516588805 -2.92784036355878 20.9089821974561
v 6.71254825555049 -2.92784036355878 20.9089821974561
v 6.71254825555049 -5.65653002866027 17.984797329065
v 6.71254825555049 -2.93011488216908 17.984797329065
v 6.71254825555049 -2.92784036355878 18.6934257990908
v 8.40894633426864 -5.49104097982045 18.6934257990908
v 8.40894633426864 -5.49104097982045 18
v 13.8164894239311 -5.49104097982045 18
v 13.8164894239311 -5.49104097982045 18.6934257990908
v 8.40894633426864 -2.76462583332926 18.6934257990908
v 8.40894633426864 -2.76462583332926 18
v 8.40894633426864 -2.76462583332926 20.9089821974561
v 13.8164894239311 -2.76462583332926 20.9089821974561
v 13.8164894239311 -2.76462583332926 18.6934257990908
v 13.8164894239311 -5.49331549843075 17.984797329065
v 13.8164894239311 -2.76690035193956 17.984797329065
v 16.3098775327584 -3 -2
v 16.3098775327584 -3 20
v -0.41820198801945 -3 20
v -0.41820198801945 -3 -2
v 16.3098775327584 0 -2
v 16.3098775327584 0 20
v -0.41820198801945 0 20
v -0.41820198801945 0 -2
v 0.415799119551335 -3.025 15.358351342655
v 7.76529865473906 -3.025 15.358351342655
v 7.76529865473906 -3.025 21.5429644627581
v 0.415799119551335 -3.025 21.5429644627581
v 7.47451980329698 -3.025 15.358351342655
v 14.8240193384847 -3.025 15.358351342655
v 14.8240193384847 -3.025 21.5429644627581
v 7.47451980329698 -3.025 21.5429644627581
v 1.38488070403706 -3.0250003408811 2.72527887171044
v 14.1034760274035 -3.0250003408811 2.72527887171044
v 14.1034760274035 -3.0250003408811 13.298434218636
v 1.38488070403706 -3.0250003408811 13.298434218636
v -1.30175855640897 6.19511031534057 20
v 16.7983503449697 6.19511031534057 20
vt 0 0
vt 1 0
vt 1 1
vt 0 1
vt 0.957408428192139 0.805810153484344
vt 0.492158710956573 0.991387248039246
vt 0.0791842490434647 0.795355081558228
vt 0.941725850105286 0.0791842341423035
vt 0.952180922031403 0.17066590487957
vt 0.926043272018433 0.264761358499527
vt 0.93649834394455 0.31965035200119
vt 0.988773584365845 0.458179742097855
vt 0.957408428192139 0.567957758903503
vt 0.926043272018433 0.782286286354065
vt 0.115776926279068 0.779672503471375
vt 0.0687291994690895 0.565343976020813
vt 0.0739567279815674 0.44772469997406
vt 0.126231968402863 0.306581556797028
vt 0.136687025427818 0.259533822536469
vt 0.115776926279068 0.17066590487957
vt 0.131459504365921 0.0817979946732521
vt 0.136687025427818 0.000771365710534155
vt 0.952180922031403 0.000771365710534155
vt 1 0.984839975833893
vt 0 0.984839975833893
vt 0.700217604637146 0.392264246940613
vt 0.998925864696503 0.393951863050461
vt 0.998925864696503 0.574980556964874
vt 0.700217604637146 0.573292911052704
vt 0.700217604637146 0.331921339035034
vt 0.998925864696503 0.333608955144882
vt 0.700217604637146 0.21794031560421
vt 0.998925864696503 0.219627931714058
vt 0.700217604637146 0.103959284722805
vt 0.998925864696503 0.105646900832653
vt 0.700217604637146 3.5405952075962e-05
vt 0.998925864696503 0.00172302324790508
vt 0.998925864696503 0.725837767124176
vt 0.700217604637146 0.72415018081665
vt 0.000765324162784964 -0.00520573882386088
vt 0.998704373836517 -0.000303843204164878
vt 0.9976766705513 0.0520022921264172
vt -0.000262390705756843 0.0471003949642181
vt 0.0833740383386612 0.720665156841278
vt 0.998925864696503 1.00073325634003
vt 0.0833740383386612 0.995560586452484
vt 0.700217604637146 0.640340685844421
vt 0.0833740383386612 0.636855661869049
vt 0.700217604637146 0.1006069034338
vt 0.998925864696503 0.102294519543648
vt 0.700217604637146 0.338626116514206
vt 0.998925864696503 0.340313732624054
vt 0.700217604637146 0.409026145935059
vt 0.998925864696503 0.410713762044907
vt 0.700217604637146 0.586702466011047
vt 0.998925864696503 0.588390052318573
vt 0.0833740383386612 0.998912990093231
vt 0.998925864696503 1.00408554077148
vt 0.998925864696503 0.729190170764923
vt 0.0833740383386612 0.724017560482025
vt 1.00902032852173 0.0587004981935024
vt 0.0149835906922817 0.0599374026060104
vt -0.000743208453059196 -0.00354382744990289
vt 0.993293583393097 -0.00478073116391897
vt 0.700217604637146 0.727502524852753
vt 1 -1.02240395545959
vt 0.518576860427856 -0.907699823379517
vt 0.583075344562531 -0.907699823379517
vt 0.759288489818573 -0.907699823379517
vt 1 -0.907699823379517
vt 1.24071156978607 -0.907699823379517
vt 1.41692471504211 -0.907699823379517
vt 1.48142313957214 -0.907699823379517
vt 0.1661506742239 -0.594322025775909
vt 0.277865320444107 -0.594322025775909
vt 0.583075404167175 -0.594322025775909
vt 1.00000011920929 -0.594322025775909
vt 1.41692471504211 -0.594322025775909
vt 1.72213470935822 -0.594322025775909
vt 1.83384931087494 -0.594322025775909
vt 1.48136377334595 -0.179688081145287
vt 1.83374643325806 -0.179688081145287
vt 1.9627274274826 -0.179688081145287
vt 0.0372725687921047 -0.179688081145287
vt 0.166253611445427 -0.179688081145287
vt 0.518636405467987 -0.179688081145287
vt 1.00000011920929 -0.179688081145287
vt 1 -0.176363229751587
vt 0 -0.176363229751587
vt 0.00231699598953128 -0.245190426707268
vt -0.000535952509380877 -0.0706590339541435
vt 1.74477827548981 -0.0421295389533043
vt 1.74763119220734 -0.21666094660759
vt 0.0114324185997248 -0.802833616733551
vt 1.75674664974213 -0.774304091930389
vt 1 -0.739859223365784
vt 0.190982893109322 0
vt 0.800923824310303 0
vt 0.800923824310303 1
vt 0.190982893109322 1
vt 0.0715990960597992 0.500771343708038
vt 0.976604521274567 0.500771343708038
vn 0.00525028898305959 -0.975370088327323 -0.220512188465729
vn 0.00264146000204997 -0.993823447179458 -0.110941329203306
vn 0.00525028976964791 -0.975370088327323 -0.220512188447002
vn 0 -1 0
vn -0.688508129661209 0 0.725228622842772
vn 0.623623278877464 0 0.781725019455129
vn -0.989231921643039 0 -0.146356432050047
vn -0.99473460695799 0 -0.102484446235189
vn -0.999994797234417 0 0.00322575636043343
vn -0.999894140626177 0 0.0145501732442944
vn -0.998192908470147 0 -0.0600909101271404
vn -0.999480114254317 0 -0.0322412966578087
vn -0.999051849149826 0 0.0435362229679353
vn -0.999753177791057 0 -0.0222167391100276
vn -0.929984453635655 0 -0.367598852005814
vn -0.65079134262497 0 -0.759256628791866
vn 0.999988748718607 0 0.00474367328075509
vn 0.997785157493784 0 0.0665190159661487
vn 0.999181499715698 0 0.0404515837253347
vn 0.999768299631089 0 0.0215254977354914
vn 0.990115364538122 0 -0.140255356067219
vn 0.999751478448218 0 -0.022293078311512
vn 0.967034488377724 0 -0.254645436417056
vn 0.994230782366133 0 0.107262068764437
vn 0.83205027329837 0 -0.554700227784438
vn 0.989949492034076 0 0.141421367626942
vn 1.56333459313428e-08 -0.177634977023655 0.984096445953244
vn -0.366393938298292 -0.149519813496509 0.918367740804432
vn -0.312817661665705 -0.269648320803498 0.910733162697974
vn -0.17192344231507 -0.445983498575339 0.878374093983331
vn 4.07998155929941e-08 -0.503705797905677 0.863875262498125
vn 0.171923523622772 -0.445983431854856 0.878374111945528
vn 0.312817723569615 -0.269648207885752 0.910733174867769
vn 0.366393980566635 -0.149519683318188 0.918367745135338
vn -0.733024991290057 -0.299136355796168 0.610894264816097
vn -0.615554217607094 -0.517092581950682 0.594733778154307
vn -0.310326273098353 -0.791722126999512 0.526187873144426
vn 6.98728625189962e-08 -0.866250086366235 0.499610636266368
vn 0.310326450523401 -0.791722047781902 0.526187887699421
vn 0.615554363565197 -0.517092401705752 0.594733783800805
vn 0.733025073499071 -0.299136157917928 0.61089426306668
vn 0.35247169532986 -0.891786340527703 0.283691428914416
vn 0.723493317696094 -0.599738487751729 0.34186425019058
vn 0.864227061380289 -0.352677669094819 0.358789698987912
vn -0.864226974303372 -0.35267787554989 0.358789705794433
vn -0.723493148291114 -0.599738682270724 0.341864267457112
vn -0.352471479721623 -0.891786416749692 0.283691457191778
vn 8.27347062176827e-08 -0.964796770766821 0.262996561038178
vn 0.615554217607094 0.517092581950682 -0.594733778154307
vn 0.723493148291114 0.599738682270724 -0.341864267457112
vn 0.864226974303372 0.35267787554989 -0.358789705794433
vn 0.733024991290057 0.299136355796168 -0.610894264816097
vn 0.310326273098353 0.791722126999512 -0.526187873144426
vn 0.352471479721623 0.891786416749692 -0.283691457191778
vn -6.98728625189962e-08 0.866250086366235 -0.499610636266368
vn -8.27347062176827e-08 0.964796770766821 -0.262996561038178
vn -0.310326450523401 0.791722047781902 -0.526187887699421
vn -0.35247169532986 0.891786340527703 -0.283691428914416
vn -0.615554363565197 0.517092401705752 -0.594733783800805
vn -0.723493317696094 0.599738487751729 -0.34186425019058
vn -0.733025073499071 0.299136157917928 -0.61089426306668
vn -0.864227061380289 0.352677669094819 -0.358789698987912
vn -0.366393980566635 0.149519683318188 -0.918367745135338
vn -0.312817723569615 0.269648207885752 -0.910733174867769
vn -0.171923523622772 0.445983431854856 -0.878374111945528
vn -4.07998155929941e-08 0.503705797905677 -0.863875262498124
vn 0.17192344231507 0.445983498575339 -0.878374093983331
vn 0.312817661665705 0.269648320803498 -0.910733162697974
vn 0.366393938298292 0.149519813496509 -0.918367740804432
vn -1.56333459313428e-08 0.177634977023655 -0.984096445953244
vn -1 0 0
vn 0 -0.902953935859915 0.42973734968593
vn 0 -0.630651620569825 0.776066062569839
vn 1 0 0
vn 0 0.630651620569825 -0.776066062569839
vn 0 0.902953935859916 -0.42973734968593
vn 0 1 0
g decals decal_base o214 MM_B1
f 1/1/1 2/2/1 3/3/1 4/4/1
g decal_base o214 MM_B1
f 5/5/2 6/6/3 7/7/2
g decals decal_base MM_B1_front MM_B1
f 8/3/4 9/4/4 10/1/4 11/2/4
f 12/1/4 13/2/4 14/3/4 15/4/4
g decal_base MM_B1_front MM_B1
f 16/8/4 17/9/4 18/10/4 19/11/4 20/12/4 21/13/4 22/14/4 5/5/2 7/7/2 23/15/4 24/16/4 25/17/4 26/18/4 27/19/4 28/20/4 29/21/4 30/22/4 31/23/4
g o216 MM_B1
f 32/1/5 7/2/5 6/3/5 33/4/5
f 33/24/6 6/25/6 5/1/6 34/2/6
g o217 MM_B1
f 35/26/7 26/27/7 25/28/8 36/29/8
f 37/30/9 27/31/9 26/27/7 35/26/7
f 38/32/10 28/33/10 27/31/9 37/30/9
f 39/34/11 29/35/11 28/33/10 38/32/10
f 40/36/12 30/37/12 29/35/11 39/34/11
f 36/29/8 25/28/8 24/38/13 41/39/14
f 42/40/15 23/41/15 7/42/16 32/43/16
f 43/44/13 24/38/13 23/45/15 42/46/15
f 44/47/14 41/39/14 43/44/13 45/48/14
g o218 MM_B1
f 46/49/17 16/50/17 31/37/18 47/36/18
f 48/32/19 17/33/19 16/50/17 46/49/17
f 49/51/20 18/52/20 17/33/19 48/32/19
f 50/53/21 19/54/21 18/52/20 49/51/20
f 51/55/22 20/56/22 19/54/21 50/53/21
f 52/57/23 22/58/23 21/59/24 53/60/24
f 34/61/25 5/62/25 22/63/23 52/64/23
f 54/65/26 21/59/24 20/56/22 51/55/22
f 53/60/24 54/65/26 55/47/26 56/48/26
g MM_B1_large_awning_outside MM_B1_large_awning MM_B1_awnings MM_B1
f 57/66/27 58/67/28 59/68/29
f 57/66/27 59/68/29 60/69/30
f 57/66/27 60/69/30 61/70/31
f 57/66/27 61/70/31 62/71/32
f 57/66/27 62/71/32 63/72/33
f 57/66/27 63/72/33 64/73/34
f 58/67/28 65/74/35 66/75/36 59/68/29
f 59/68/29 66/75/36 67/76/37 60/69/30
f 60/69/30 67/76/37 68/77/38 61/70/31
f 61/70/31 68/77/38 69/78/39 62/71/32
f 62/71/32 69/78/39 70/79/40 63/72/33
f 63/72/33 70/79/40 71/80/41 64/73/34
f 69/78/39 72/81/42 73/82/43 70/79/40
f 70/79/40 73/82/43 74/83/44 71/80/41
f 65/74/35 75/84/45 76/85/46 66/75/36
f 66/75/36 76/85/46 77/86/47 67/76/37
f 67/76/37 77/86/47 78/87/48 68/77/38
f 68/77/38 78/87/48 72/81/42 69/78/39
g MM_B1_large_awning_inside MM_B1_large_awning MM_B1_awnings MM_B1
f 66/75/49 76/85/50 75/84/51 65/74/52
f 67/76/53 77/86/54 76/85/50 66/75/49
f 68/77/55 78/87/56 77/86/54 67/76/53
f 69/78/57 72/81/58 78/87/56 68/77/55
f 70/79/59 73/82/60 72/81/58 69/78/57
f 71/80/61 74/83/62 73/82/60 70/79/59
f 64/73/63 71/80/61 70/79/59 63/72/64
f 63/72/64 70/79/59 69/78/57 62/71/65
f 62/71/65 69/78/57 68/77/55 61/70/66
f 61/70/66 68/77/55 67/76/53 60/69/67
f 60/69/67 67/76/53 66/75/49 59/68/68
f 59/68/68 66/75/49 65/74/52 58/67/69
f 64/73/63 63/72/64 57/66/70
f 63/72/64 62/71/65 57/66/70
f 62/71/65 61/70/66 57/66/70
f 61/70/66 60/69/67 57/66/70
f 60/69/67 59/68/68 57/66/70
f 59/68/68 58/67/69 57/66/70
g MM_B1_lefttop_awning_outside MM_B1_lefttop_awning MM_B1_awnings MM_B1
f 79/88/71 80/2/71 81/1/71 82/89/71
f 82/90/72 81/91/4 83/92/4 84/93/72
f 85/94/73 82/90/72 84/93/72 86/95/73
f 79/88/71 82/89/71 85/96/71 85/96/71
f 84/89/74 87/1/74 88/2/74 89/88/74
f 86/96/74 86/96/74 84/89/74 89/88/74
g MM_B1_lefttop_awning_inside MM_B1_lefttop_awning MM_B1_awnings MM_B1
f 89/88/71 88/2/71 87/1/71 84/89/71
f 89/88/71 84/89/71 86/96/71 86/96/71
f 86/95/75 84/93/76 82/90/76 85/94/75
f 84/93/76 83/92/77 81/91/77 82/90/76
f 85/96/74 85/96/74 82/89/74 79/88/74
f 82/89/74 81/1/74 80/2/74 79/88/74
g MM_B1_righttop_awning_outside MM_B1_righttop_awning MM_B1_awnings MM_B1
f 90/90/72 91/91/4 92/92/4 93/93/72
f 94/88/71 95/2/71 91/1/71 90/89/71
f 94/88/71 90/89/71 96/96/71 96/96/71
f 96/94/73 90/90/72 93/93/72 97/95/73
f 97/96/74 97/96/74 93/89/74 98/88/74
f 93/89/74 99/1/74 100/2/74 98/88/74
g MM_B1_righttop_awning_inside MM_B1_righttop_awning MM_B1_awnings MM_B1
f 98/88/71 100/2/71 99/1/71 93/89/71
f 98/88/71 93/89/71 97/96/71 97/96/71
f 97/95/75 93/93/76 90/90/76 96/94/75
f 93/93/76 92/92/77 91/91/77 90/90/76
f 96/96/74 96/96/74 90/89/74 94/88/74
f 90/89/74 91/1/74 95/2/74 94/88/74
g MM_B1_camera_collisions MM_B1
f 101//4 102//4 103//4 104//4
f 105//74 106//74 102//74 101//74
f 104//71 103//71 107//71 108//71
g o1 square_drop_shadow MM_B1
f 109/1/4 110/2/4 111/3/4 112/4/4
g o1_1 square_drop_shadow MM_B1
f 113/1/4 114/2/4 115/3/4 116/4/4
g o1_2 drop_shadow MM_B1
f 117/97/4 118/98/4 119/99/4 120/100/4
g bldg_back MM_B1
f 121/101/77 43/16/77 42/15/77 32/7/77 34/5/77 52/14/77 53/13/77 122/102/77
f 32/7/77 33/6/77 34/5/77
