v -5.66000012040138 -6.16000012040138 0.025000000372529
v 6.66000012040138 -6.16000012040138 0.025000000372529
v 6.66000012040138 6.16000012040138 0.025000000372529
v -5.66000012040138 6.16000012040138 0.025000000372529
v -0.72000005722046 -1.24707668055834 0
v -0.72000005722046 -1.24707668055834 15
v -1.24707668055834 -0.720000057220461 15
v -1.24707668055834 -0.720000057220461 0
v 2.64514993447395e-16 -1.44000011444092 0
v 2.64514993447395e-16 -1.44000011444092 15
v 0.720000057220461 -1.24707668055834 0
v 0.720000057220461 -1.24707668055834 15
v 1.24707668055834 -0.72000005722046 0
v 1.24707668055834 -0.72000005722046 15
v 1.44000011444092 1.7634332896493e-16 0
v 1.44000011444092 1.7634332896493e-16 15
v 1.24707668055834 0.72000005722046 0
v 1.24707668055834 0.72000005722046 15
v 0.72000005722046 1.24707668055834 0
v 0.72000005722046 1.24707668055834 15
v -8.81716644824651e-17 1.44000011444092 0
v -8.81716644824651e-17 1.44000011444092 15
v -0.72000005722046 1.24707668055834 0
v -0.72000005722046 1.24707668055834 15
v -1.24707668055834 0.72000005722046 0
v -1.24707668055834 0.72000005722046 15
v -1.44000011444092 0 0
v -1.44000011444092 0 15
v -1.93856776824213 2.47290948686299e-16 0.00597654370566511
v 1.86143218407416 -2.18074829150125e-16 0.00597654370566511
v 1.86143218407416 -2.18074829150125e-16 4.98779871021558
v -1.93856776824213 2.47290948686299e-16 4.98779871021558
v -5.83299619494207 0 19.5
v -5.83299619494207 0 4.98779871021558
v 5.66268260023966 0 4.98779871021558
v 5.66268260023966 0 19.5
v 1.93856776824213 2.47290948686299e-16 4.98779871021558
v -1.86143218407416 -2.18074829150125e-16 4.98779871021558
v -1.86143218407416 -2.18074829150125e-16 0.00597654370566511
v 1.93856776824213 2.47290948686299e-16 0.00597654370566511
v -5.66268260023966 0 19.5
v -5.66268260023966 0 4.98779871021558
v 5.83299619494207 0 4.98779871021558
v 5.83299619494207 0 19.5
v 1.39345956410789 0.804514254442548 0
v 1.39345956410789 0.804514254442548 15
v 1.6090285088851 -1.00932403067942e-17 15
v 1.6090285088851 -1.00932403067942e-17 0
v 0.804514254442549 1.39345956410789 0
v 0.804514254442549 1.39345956410789 15
v 7.26729690479639e-17 1.6090285088851 0
v 7.26729690479639e-17 1.6090285088851 15
v -0.804514254442548 1.39345956410789 0
v -0.804514254442548 1.39345956410789 15
v -1.39345956410789 0.804514254442548 0
v -1.39345956410789 0.804514254442548 15
v -1.6090285088851 1.86949413239409e-16 0
v -1.6090285088851 1.86949413239409e-16 15
v -1.39345956410789 -0.804514254442549 0
v -1.39345956410789 -0.804514254442549 15
v -0.804514254442549 -1.39345956410789 0
v -0.804514254442549 -1.39345956410789 15
v -3.21412338044443e-16 -1.6090285088851 0
v -3.21412338044443e-16 -1.6090285088851 15
v 0.804514254442549 -1.39345956410789 0
v 0.804514254442549 -1.39345956410789 15
v 1.39345956410789 -0.804514254442549 0
v 1.39345956410789 -0.804514254442549 15
vt 0 0
vt 1 0
vt 1 1
vt 0 1
vn 0 0 1
vn -0.5 -0.866025403784439 0
vn -0.866025403784438 -0.5 0
vn 0 -1 0
vn 0.5 -0.866025403784438 0
vn 0.866025403784439 -0.5 0
vn 1 0 0
vn 0.866025403784438 0.5 0
vn 0.5 0.866025403784439 0
vn 0 1 0
vn -0.5 0.866025403784438 0
vn -0.866025403784439 0.5 0
vn -1 0 0
vn 0 0 -1
g shadow_small_ur prop_tree_small_ur prop_tree_small trees
f 1/1/1 2/2/1 3/3/1 4/4/1
g prop_tree_small_ur_collide prop_tree_small_ur prop_tree_small trees
f 5//2 6//2 7//3 8//3
f 9//4 10//4 6//2 5//2
f 11//5 12//5 10//4 9//4
f 13//6 14//6 12//5 11//5
f 15//7 16//7 14//6 13//6
f 17//8 18//8 16//7 15//7
f 19//9 20//9 18//8 17//8
f 21//10 22//10 20//9 19//9
f 23//11 24//11 22//10 21//10
f 25//12 26//12 24//11 23//11
f 27//13 28//13 26//12 25//12
f 8//3 7//3 28//13 27//13
f 27//14 25//14 23//14 21//14 19//14 17//14 15//14 13//14 11//14 9//14 5//14 8//14
g p264_8 prop_leaves_small_ur prop_tree_small_ur prop_tree_small trees
f 29/2/4 30/1/4 31/4/4 32/3/4
f 33/3/4 34/2/4 35/1/4 36/4/4
g p264_6 prop_leaves_small_ul prop_tree_small_ul prop_tree_small trees
f 37/3/4 38/4/4 39/1/4 40/2/4
f 41/4/4 42/1/4 43/2/4 44/3/4
g prop_tree_small_ur_collide_1 prop_tree_small_ul prop_tree_small trees
f 45//8 46//8 47//7 48//7
f 49//9 50//9 46//8 45//8
f 51//10 52//10 50//9 49//9
f 53//11 54//11 52//10 51//10
f 55//12 56//12 54//11 53//11
f 57//13 58//13 56//12 55//12
f 59//3 60//3 58//13 57//13
f 61//2 62//2 60//3 59//3
f 63//4 64//4 62//2 61//2
f 65//5 66//5 64//4 63//4
f 67//6 68//6 66//5 65//5
f 48//7 47//7 68//6 67//6
f 67//14 65//14 63//14 61//14 59//14 57//14 55//14 53//14 51//14 49//14 45//14 48//14
g shadow_small_ur_1 prop_tree_small_ul prop_tree_small trees
f 1/1/1 2/2/1 3/3/1 4/4/1
