v -0.946030080318451 -1.94603008031845 0.590467188572336
v 1 0 0.590467188572336
v -0.946030080318451 1.94603008031845 0.590467188572336
v 2.94603008031845 -1.94603008031845 0.590467188572336
v 2.94603008031845 1.94603008031845 0.590467188572336
v -0.946030080318451 1.94603008031845 1.29735338687897
v 2.94603008031845 1.94603008031845 1.29735338687897
v 3.59470677375793 2.59470677375793 1.29735338687897
v -1.59470677375793 2.59470677375793 1.29735338687897
v 3.59470677375793 -2.59470677375793 1.29735338687897
v 2.94603008031845 -1.94603008031845 1.29735338687897
v -1.59470677375793 -2.59470677375793 1.29735338687897
v -0.946030080318451 -1.94603008031845 1.29735338687897
v -1.59470677375793 -2.59470677375793 0
v -1.59470677375793 2.59470677375793 0
v 3.59470677375793 2.59470677375793 0
v 3.59470677375793 -2.59470677375793 0
v -5.06000012040138 -6.16000012040138 0.025000000372529
v 7.26000012040138 -6.16000012040138 0.025000000372529
v 7.26000012040138 6.16000012040138 0.025000000372529
v -5.06000012040138 6.16000012040138 0.025000000372529
v 8.88273408879398 -1.15675292720596e-14 -0.0574282137077118
v 8.91176377941201 -1.9030224230847e-14 9.36926113354857
v 4.04047574021408 -3.46601681842629e-14 29.112614838551
v 2.05494288602756 -3.46601681842629e-14 29.112614838551
v -5.01423344372747 -1.88271237333846e-14 9.11270967239079
v -5.04247307865674 -1.15675292720596e-14 -0.0574282137077118
v 4 0 20
v 3.59807621135332 1.5 20
v 2.5 2.59807621135332 20
v 1 3 20
v -0.499999999999999 2.59807621135332 20
v -1.59807621135332 1.5 20
v -2 3.67381906146713e-16 20
v -1.59807621135332 -1.5 20
v -0.500000000000001 -2.59807621135332 20
v 0.999999999999999 -3 20
v 2.5 -2.59807621135332 20
v 3.59807621135332 -1.5 20
v 3.59807621135332 -1.5 0
v 2.5 -2.59807621135332 0
v 0.999999999999999 -3 0
v -0.500000000000001 -2.59807621135332 0
v -1.59807621135332 -1.5 0
v -2 3.67381906146713e-16 0
v -1.59807621135332 1.5 0
v -0.499999999999999 2.59807621135332 0
v 1 3 0
v 2.5 2.59807621135332 0
v 3.59807621135332 1.5 0
v 4 0 0
v 7.22524415264822 -1.90156970657846e-17 -0.0296488487668487
v 7.19700451771896 -7.27861015839072e-15 9.14048903733166
v 0.127828187963922 -2.3111654609269e-14 29.1403942034919
v -1.85770466622259 -2.3111654609269e-14 29.1403942034919
v -6.72899270542053 -7.48171065585317e-15 9.39704049848944
v -6.6999630148025 -1.90156970657846e-17 -0.0296488487668487
v -5.66000012040138 -6.16000012040138 0.025000000372529
v 6.66000012040138 -6.16000012040138 0.025000000372529
v 6.66000012040138 6.16000012040138 0.025000000372529
v -5.66000012040138 6.16000012040138 0.025000000372529
v 8.32520716745072 0 -0.00667706583304201
v 8.32520716745072 0 7.13294649295358
v 3.32520716745072 0 23.1329464929535
v 1.32520716745072 0 23.1329464929535
v -5.6 0 7.30390153878051
v -5.6 0 -0.00667706583304201
v 3 0 20
v 2.59807621135332 1.5 20
v 1.5 2.59807621135332 20
v 1.83690953073357e-16 3 20
v -1.5 2.59807621135332 20
v -2.59807621135332 1.5 20
v -3 3.67381906146713e-16 20
v -2.59807621135332 -1.5 20
v -1.5 -2.59807621135332 20
v -5.5107285922007e-16 -3 20
v 1.5 -2.59807621135332 20
v 2.59807621135332 -1.5 20
v 2.59807621135332 -1.5 0
v 1.5 -2.59807621135332 0
v -5.5107285922007e-16 -3 0
v -1.5 -2.59807621135332 0
v -2.59807621135332 -1.5 0
v -3 3.67381906146713e-16 0
v -2.59807621135332 1.5 0
v -1.5 2.59807621135332 0
v 1.83690953073357e-16 3 0
v 1.5 2.59807621135332 0
v 2.59807621135332 1.5 0
v 3 0 0
v 6.46312897989481 0 -0.0250000003725291
v 6.46312897989481 0 7.28557860424102
v -0.462078187555909 0 23.1146235584141
v -2.46207818755591 0 23.1146235584141
v -7.46207818755591 0 7.11462355841409
v -7.46207818755591 0 -0.0250000003725291
vt 1 0
vt 0.5 0.5
vt 0 0
vt 1 1
vt 0 1
vt 0.881809175014496 1.03844225406647
vt 0.177959516644478 1.02717280387878
vt 0.0649872869253159 0.819212019443512
vt 1.00345385074615 0.83423787355423
vt 0.947979390621185 0.812125742435455
vt -0.00441315630450845 0.810268580913544
vt 0.11131240427494 1.04003524780273
vt 0.825606822967529 1.04142820835114
vt 0.978156208992004 0.820603728294373
vt -0.0161096695810556 0.818305194377899
vt 0.106275103986263 1.04364705085754
vt 0.851974546909332 1.04537105560303
vt -0.00579875754192472 0.806860864162445
vt 0.993962645530701 0.806064784526825
vt 0.86954528093338 1.03565049171448
vt 0.119724243879318 1.03624737262726
vt 0.0321328081190586 1.00162947177887
vt 0.0260580517351627 0.409677088260651
vt 0.868972957134247 0.39765539765358
vt 0.875047743320465 0.989607810974121
vt 0.0828079804778099 1.01702868938446
vt 0.0707086697220802 0.288836628198624
vt 0.769548416137695 0.297804147005081
vt 0.781647741794586 1.02599620819092
vt 0.0198569279164076 0.990591168403625
vt 0.0172261577099562 0.404250055551529
vt 0.836706042289734 0.408465176820755
vt 0.839336812496185 0.994806289672852
vt 0.034588597714901 1.02941942214966
vt 0.0233477000147104 0.299009263515472
vt 0.831614434719086 0.306447982788086
vt 0.842855334281921 1.03685820102692
vt 0 0.323163360357285
vt 0.354184180498123 1
vt 0.496769696474075 1
vt 1 0.314368337392807
vt 0.734965026378632 0.517258405685425
vt 0.228211745619774 0.491138458251953
vt 0.311221837997437 0.789295673370361
vt 0.691286861896515 0.808885633945465
vt 0.211948677897453 0.533334076404572
vt 0.734182000160217 0.532928168773651
vt 0.7144775390625 0.810281157493591
vt 0.322802752256393 0.810585618019104
vt 0.225301429629326 -0.00649489788338542
vt 0.702354729175568 -0.0337550863623619
vt 0.665723860263824 0.382814675569534
vt 0.307933896780014 0.403259813785553
vt 0.70553982257843 0.377816319465637
vt 0.296490073204041 0.38636839389801
vt 0.198317602276802 0.150091648101807
vt 0.74371725320816 0.138688862323761
vt 0 1.15341150760651
vt 1 1.15341150760651
vt 0 0.308545351028442
vt 0.35906109213829 1
vt 0.502685546875 1
vt 1 0.315933346748352
vn 0 0 1
vn -1 0 0
vn 0 1 0
vn 1 0 0
vn 0 -1 0
vn 0.866025403784438 -0.5 0
vn 0.5 -0.866025403784439 0
vn -0.5 -0.866025403784438 0
vn -0.866025403784439 -0.5 0
vn -0.866025403784438 0.5 0
vn -0.5 0.866025403784439 0
vn 0.5 0.866025403784439 0
vn 0.866025403784439 0.5 0
g box_drit tree_box_planter_bricks prop_snow_tree_large_brickbox_ul prop_snow_tree_large_ul_group prop_snow_tree_large pine_trees
f 1/1/1 2/2/1 3/3/1
f 1/1/1 4/4/1 2/2/1
f 4/4/1 5/5/1 2/2/1
f 5/5/1 3/3/1 2/2/1
f 6/6/1 7/7/1 8/8/1 9/9/1
f 10/10/1 8/11/1 7/12/1 11/13/1
f 12/14/1 10/15/1 11/16/1 13/17/1
f 9/18/1 12/19/1 13/20/1 6/21/1
f 14/1/2 12/4/2 9/5/2 15/3/2
f 15/1/3 9/4/3 8/5/3 16/3/3
f 16/1/4 8/4/4 10/5/4 17/3/4
f 17/1/5 10/4/5 12/5/5 14/3/5
f 7/22/2 5/23/2 4/24/2 11/25/2
f 13/26/4 1/27/4 3/28/4 6/29/4
f 11/30/3 4/31/3 1/32/3 13/33/3
f 6/34/5 3/35/5 5/36/5 7/37/5
g shadow_snow_tree_large_brickbox_ul prop_snow_tree_large_brickbox_ul prop_snow_tree_large_ul_group prop_snow_tree_large pine_trees
f 18/3/1 19/1/1 20/4/1 21/5/1
g p285_1 prop_snow_tree_leaves_large_brickbox_ul prop_snow_tree_large_brickbox_ul prop_snow_tree_large_ul_group prop_snow_tree_large pine_trees
f 22/3/5 23/38/5 24/39/5 25/40/5 26/41/5 27/1/5
g prop_snow_tree_large_brickbox_ul_collide prop_snow_tree_large_brickbox_ul prop_snow_tree_large_ul_group prop_snow_tree_large pine_trees
f 28//1 29//1 30//1 31//1 32//1 33//1 34//1 35//1 36//1 37//1 38//1 39//1
f 40//6 39//6 38//7 41//7
f 41//7 38//7 37//5 42//5
f 42//5 37//5 36//8 43//8
f 43//8 36//8 35//9 44//9
f 44//9 35//9 34//2 45//2
f 45//2 34//2 33//10 46//10
f 46//10 33//10 32//11 47//11
f 47//11 32//11 31//3 48//3
f 48//3 31//3 30//12 49//12
f 49//12 30//12 29//13 50//13
f 50//13 29//13 28//4 51//4
f 51//4 28//4 39//6 40//6
g box3_top tree_planter_box3 prop_snow_tree_large_woodbox_ul prop_snow_tree_large_ul_group prop_snow_tree_large pine_trees
f 9/42/1 12/43/1 13/44/1 6/45/1
f 12/46/1 10/47/1 11/48/1 13/49/1
f 10/50/1 8/51/1 7/52/1 11/53/1
f 6/54/1 7/55/1 8/56/1 9/57/1
f 5/5/1 3/3/1 2/2/1
f 4/4/1 5/5/1 2/2/1
f 1/1/1 4/4/1 2/2/1
f 1/1/1 2/2/1 3/3/1
f 7/58/2 5/3/2 4/1/2 11/59/2
f 11/5/3 4/3/3 1/1/3 13/4/3
f 13/5/4 1/3/4 3/1/4 6/4/4
f 6/5/5 3/3/5 5/1/5 7/4/5
f 14/1/2 12/4/2 9/5/2 15/3/2
f 15/1/3 9/4/3 8/5/3 16/3/3
f 16/1/4 8/4/4 10/5/4 17/3/4
f 17/1/5 10/4/5 12/5/5 14/3/5
g shadow_snow_tree_large_woodbox_ul prop_snow_tree_large_woodbox_ul prop_snow_tree_large_ul_group prop_snow_tree_large pine_trees
f 18/3/1 19/1/1 20/4/1 21/5/1
g p285 prop_snow_tree_leaves_large_woodbox_ul prop_snow_tree_large_woodbox_ul prop_snow_tree_large_ul_group prop_snow_tree_large pine_trees
f 22/3/5 23/38/5 24/39/5 25/40/5 26/41/5 27/1/5
g prop_snow_tree_large_collide_woodbox_ul prop_snow_tree_large_woodbox_ul prop_snow_tree_large_ul_group prop_snow_tree_large pine_trees
f 28//1 29//1 30//1 31//1 32//1 33//1 34//1 35//1 36//1 37//1 38//1 39//1
f 40//6 39//6 38//7 41//7
f 41//7 38//7 37//5 42//5
f 42//5 37//5 36//8 43//8
f 43//8 36//8 35//9 44//9
f 44//9 35//9 34//2 45//2
f 45//2 34//2 33//10 46//10
f 46//10 33//10 32//11 47//11
f 47//11 32//11 31//3 48//3
f 48//3 31//3 30//12 49//12
f 49//12 30//12 29//13 50//13
f 50//13 29//13 28//4 51//4
f 51//4 28//4 39//6 40//6
g shadow_snow_tree_large_nobox_ul prop_snow_tree_large_nobox_ul prop_snow_tree_large_ul_group prop_snow_tree_large pine_trees
f 18/3/1 19/1/1 20/4/1 21/5/1
g p285_2 prop_snow_tree_leaves_large_nobox_ul prop_snow_tree_large_nobox_ul prop_snow_tree_large_ul_group prop_snow_tree_large pine_trees
f 22/3/5 23/38/5 24/39/5 25/40/5 26/41/5 27/1/5
g prop_snow_tree_large_collide_nobox_ul prop_snow_tree_large_nobox_ul prop_snow_tree_large_ul_group prop_snow_tree_large pine_trees
f 28//1 29//1 30//1 31//1 32//1 33//1 34//1 35//1 36//1 37//1 38//1 39//1
f 40//6 39//6 38//7 41//7
f 41//7 38//7 37//5 42//5
f 42//5 37//5 36//8 43//8
f 43//8 36//8 35//9 44//9
f 44//9 35//9 34//2 45//2
f 45//2 34//2 33//10 46//10
f 46//10 33//10 32//11 47//11
f 47//11 32//11 31//3 48//3
f 48//3 31//3 30//12 49//12
f 49//12 30//12 29//13 50//13
f 50//13 29//13 28//4 51//4
f 51//4 28//4 39//6 40//6
g box_drit_1 tree_box_planter_bricks_1 prop_snow_tree_large_brickbox_ur prop_snow_tree_large_ur_group prop_snow_tree_large pine_trees
f 1/1/1 2/2/1 3/3/1
f 1/1/1 4/4/1 2/2/1
f 4/4/1 5/5/1 2/2/1
f 5/5/1 3/3/1 2/2/1
f 6/6/1 7/7/1 8/8/1 9/9/1
f 10/10/1 8/11/1 7/12/1 11/13/1
f 12/14/1 10/15/1 11/16/1 13/17/1
f 9/18/1 12/19/1 13/20/1 6/21/1
f 14/1/2 12/4/2 9/5/2 15/3/2
f 15/1/3 9/4/3 8/5/3 16/3/3
f 16/1/4 8/4/4 10/5/4 17/3/4
f 17/1/5 10/4/5 12/5/5 14/3/5
f 7/22/2 5/23/2 4/24/2 11/25/2
f 13/26/4 1/27/4 3/28/4 6/29/4
f 11/30/3 4/31/3 1/32/3 13/33/3
f 6/34/5 3/35/5 5/36/5 7/37/5
g shadow_snow_tree_large_brickbox_ur prop_snow_tree_large_brickbox_ur prop_snow_tree_large_ur_group prop_snow_tree_large pine_trees
f 18/3/1 19/1/1 20/4/1 21/5/1
g p287 prop_snow_tree_leaves_large_brickbox_ur prop_snow_tree_large_brickbox_ur prop_snow_tree_large_ur_group prop_snow_tree_large pine_trees
f 52/1/5 53/41/5 54/40/5 55/39/5 56/38/5 57/3/5
g prop_snow_tree_large_collide_brickbox_ur prop_snow_tree_large_brickbox_ur prop_snow_tree_large_ur_group prop_snow_tree_large pine_trees
f 28//1 29//1 30//1 31//1 32//1 33//1 34//1 35//1 36//1 37//1 38//1 39//1
f 40//6 39//6 38//7 41//7
f 41//7 38//7 37//5 42//5
f 42//5 37//5 36//8 43//8
f 43//8 36//8 35//9 44//9
f 44//9 35//9 34//2 45//2
f 45//2 34//2 33//10 46//10
f 46//10 33//10 32//11 47//11
f 47//11 32//11 31//3 48//3
f 48//3 31//3 30//12 49//12
f 49//12 30//12 29//13 50//13
f 50//13 29//13 28//4 51//4
f 51//4 28//4 39//6 40//6
g box3_top_1 tree_planter_box3_1 prop_snow_tree_large_woodbox_ur prop_snow_tree_large_ur_group prop_snow_tree_large pine_trees
f 9/42/1 12/43/1 13/44/1 6/45/1
f 12/46/1 10/47/1 11/48/1 13/49/1
f 10/50/1 8/51/1 7/52/1 11/53/1
f 6/54/1 7/55/1 8/56/1 9/57/1
f 5/5/1 3/3/1 2/2/1
f 4/4/1 5/5/1 2/2/1
f 1/1/1 4/4/1 2/2/1
f 1/1/1 2/2/1 3/3/1
f 7/58/2 5/3/2 4/1/2 11/59/2
f 11/5/3 4/3/3 1/1/3 13/4/3
f 13/5/4 1/3/4 3/1/4 6/4/4
f 6/5/5 3/3/5 5/1/5 7/4/5
f 14/1/2 12/4/2 9/5/2 15/3/2
f 15/1/3 9/4/3 8/5/3 16/3/3
f 16/1/4 8/4/4 10/5/4 17/3/4
f 17/1/5 10/4/5 12/5/5 14/3/5
g shadow_snow_tree_large_woodbox_ur prop_snow_tree_large_woodbox_ur prop_snow_tree_large_ur_group prop_snow_tree_large pine_trees
f 18/3/1 19/1/1 20/4/1 21/5/1
g p287_1 prop_snow_tree_leaves_large_woodbox_ur prop_snow_tree_large_woodbox_ur prop_snow_tree_large_ur_group prop_snow_tree_large pine_trees
f 52/1/5 53/41/5 54/40/5 55/39/5 56/38/5 57/3/5
g prop_snow_tree_large_collide_woodbox_ur prop_snow_tree_large_woodbox_ur prop_snow_tree_large_ur_group prop_snow_tree_large pine_trees
f 28//1 29//1 30//1 31//1 32//1 33//1 34//1 35//1 36//1 37//1 38//1 39//1
f 40//6 39//6 38//7 41//7
f 41//7 38//7 37//5 42//5
f 42//5 37//5 36//8 43//8
f 43//8 36//8 35//9 44//9
f 44//9 35//9 34//2 45//2
f 45//2 34//2 33//10 46//10
f 46//10 33//10 32//11 47//11
f 47//11 32//11 31//3 48//3
f 48//3 31//3 30//12 49//12
f 49//12 30//12 29//13 50//13
f 50//13 29//13 28//4 51//4
f 51//4 28//4 39//6 40//6
g shadow_snow_tree_large_nobox_ur prop_snow_tree_large_nobox_ur prop_snow_tree_large_ur_group prop_snow_tree_large pine_trees
f 18/3/1 19/1/1 20/4/1 21/5/1
g p287_2 prop_snow_tree_leaves_large_nobox_ur prop_snow_tree_large_nobox_ur prop_snow_tree_large_ur_group prop_snow_tree_large pine_trees
f 52/1/5 53/41/5 54/40/5 55/39/5 56/38/5 57/3/5
g prop_snow_tree_large_collide_nobox_ur prop_snow_tree_large_nobox_ur prop_snow_tree_large_ur_group prop_snow_tree_large pine_trees
f 28//1 29//1 30//1 31//1 32//1 33//1 34//1 35//1 36//1 37//1 38//1 39//1
f 40//6 39//6 38//7 41//7
f 41//7 38//7 37//5 42//5
f 42//5 37//5 36//8 43//8
f 43//8 36//8 35//9 44//9
f 44//9 35//9 34//2 45//2
f 45//2 34//2 33//10 46//10
f 46//10 33//10 32//11 47//11
f 47//11 32//11 31//3 48//3
f 48//3 31//3 30//12 49//12
f 49//12 30//12 29//13 50//13
f 50//13 29//13 28//4 51//4
f 51//4 28//4 39//6 40//6
g box_drit_2 tree_box_planter_bricks_2 prop_snow_tree_small_brickbox_ul prop_snow_tree_small_ul_group prop_snow_tree_small pine_trees
f 1/1/1 2/2/1 3/3/1
f 1/1/1 4/4/1 2/2/1
f 4/4/1 5/5/1 2/2/1
f 5/5/1 3/3/1 2/2/1
f 6/6/1 7/7/1 8/8/1 9/9/1
f 10/10/1 8/11/1 7/12/1 11/13/1
f 12/14/1 10/15/1 11/16/1 13/17/1
f 9/18/1 12/19/1 13/20/1 6/21/1
f 14/1/2 12/4/2 9/5/2 15/3/2
f 15/1/3 9/4/3 8/5/3 16/3/3
f 16/1/4 8/4/4 10/5/4 17/3/4
f 17/1/5 10/4/5 12/5/5 14/3/5
f 7/22/2 5/23/2 4/24/2 11/25/2
f 13/26/4 1/27/4 3/28/4 6/29/4
f 11/30/3 4/31/3 1/32/3 13/33/3
f 6/34/5 3/35/5 5/36/5 7/37/5
g shadow_snow_tree_small_brickbox_ul prop_snow_tree_small_brickbox_ul prop_snow_tree_small_ul_group prop_snow_tree_small pine_trees
f 58/3/1 59/1/1 60/4/1 61/5/1
g p292 prop_snow_tree_leaves_small_brickbox_ul prop_snow_tree_small_brickbox_ul prop_snow_tree_small_ul_group prop_snow_tree_small pine_trees
f 62/3/5 63/60/5 64/61/5 65/62/5 66/63/5 67/1/5
g prop_snow_tree_small_brickbox_ul_collide prop_snow_tree_small_brickbox_ul prop_snow_tree_small_ul_group prop_snow_tree_small pine_trees
f 28//1 29//1 30//1 31//1 32//1 33//1 34//1 35//1 36//1 37//1 38//1 39//1
f 40//6 39//6 38//7 41//7
f 41//7 38//7 37//5 42//5
f 42//5 37//5 36//8 43//8
f 43//8 36//8 35//9 44//9
f 44//9 35//9 34//2 45//2
f 45//2 34//2 33//10 46//10
f 46//10 33//10 32//11 47//11
f 47//11 32//11 31//3 48//3
f 48//3 31//3 30//12 49//12
f 49//12 30//12 29//13 50//13
f 50//13 29//13 28//4 51//4
f 51//4 28//4 39//6 40//6
g box3_top_2 tree_planter_box3_2 prop_snow_tree_small_woodbox_ul prop_snow_tree_small_ul_group prop_snow_tree_small pine_trees
f 9/42/1 12/43/1 13/44/1 6/45/1
f 12/46/1 10/47/1 11/48/1 13/49/1
f 10/50/1 8/51/1 7/52/1 11/53/1
f 6/54/1 7/55/1 8/56/1 9/57/1
f 5/5/1 3/3/1 2/2/1
f 4/4/1 5/5/1 2/2/1
f 1/1/1 4/4/1 2/2/1
f 1/1/1 2/2/1 3/3/1
f 7/58/2 5/3/2 4/1/2 11/59/2
f 11/5/3 4/3/3 1/1/3 13/4/3
f 13/5/4 1/3/4 3/1/4 6/4/4
f 6/5/5 3/3/5 5/1/5 7/4/5
f 14/1/2 12/4/2 9/5/2 15/3/2
f 15/1/3 9/4/3 8/5/3 16/3/3
f 16/1/4 8/4/4 10/5/4 17/3/4
f 17/1/5 10/4/5 12/5/5 14/3/5
g shadow_snow_tree_small_woodbox_ul prop_snow_tree_small_woodbox_ul prop_snow_tree_small_ul_group prop_snow_tree_small pine_trees
f 58/3/1 59/1/1 60/4/1 61/5/1
g p292_1 prop_snow_tree_leaves_small_woodbox_ul prop_snow_tree_small_woodbox_ul prop_snow_tree_small_ul_group prop_snow_tree_small pine_trees
f 62/3/5 63/60/5 64/61/5 65/62/5 66/63/5 67/1/5
g prop_snow_tree_small_woodbox_ul_collide prop_snow_tree_small_woodbox_ul prop_snow_tree_small_ul_group prop_snow_tree_small pine_trees
f 28//1 29//1 30//1 31//1 32//1 33//1 34//1 35//1 36//1 37//1 38//1 39//1
f 40//6 39//6 38//7 41//7
f 41//7 38//7 37//5 42//5
f 42//5 37//5 36//8 43//8
f 43//8 36//8 35//9 44//9
f 44//9 35//9 34//2 45//2
f 45//2 34//2 33//10 46//10
f 46//10 33//10 32//11 47//11
f 47//11 32//11 31//3 48//3
f 48//3 31//3 30//12 49//12
f 49//12 30//12 29//13 50//13
f 50//13 29//13 28//4 51//4
f 51//4 28//4 39//6 40//6
g shadow_snow_tree_small_nobox_ul prop_snow_tree_small_nobox_ul prop_snow_tree_small_ul_group prop_snow_tree_small pine_trees
f 58/3/1 59/1/1 60/4/1 61/5/1
g p292_2 prop_snow_tree_leaves_small_nobox_ul prop_snow_tree_small_nobox_ul prop_snow_tree_small_ul_group prop_snow_tree_small pine_trees
f 62/3/5 63/60/5 64/61/5 65/62/5 66/63/5 67/1/5
g prop_snow_tree_small_nobox_ul_collide prop_snow_tree_small_nobox_ul prop_snow_tree_small_ul_group prop_snow_tree_small pine_trees
f 68//1 69//1 70//1 71//1 72//1 73//1 74//1 75//1 76//1 77//1 78//1 79//1
f 80//6 79//6 78//7 81//7
f 81//7 78//7 77//5 82//5
f 82//5 77//5 76//8 83//8
f 83//8 76//8 75//9 84//9
f 84//9 75//9 74//2 85//2
f 85//2 74//2 73//10 86//10
f 86//10 73//10 72//11 87//11
f 87//11 72//11 71//3 88//3
f 88//3 71//3 70//12 89//12
f 89//12 70//12 69//13 90//13
f 90//13 69//13 68//4 91//4
f 91//4 68//4 79//6 80//6
g box_drit_3 tree_box_planter_bricks_3 prop_snow_tree_small_brickbox_ur prop_snow_tree_small_ur_group prop_snow_tree_small pine_trees
f 1/1/1 2/2/1 3/3/1
f 1/1/1 4/4/1 2/2/1
f 4/4/1 5/5/1 2/2/1
f 5/5/1 3/3/1 2/2/1
f 6/6/1 7/7/1 8/8/1 9/9/1
f 10/10/1 8/11/1 7/12/1 11/13/1
f 12/14/1 10/15/1 11/16/1 13/17/1
f 9/18/1 12/19/1 13/20/1 6/21/1
f 14/1/2 12/4/2 9/5/2 15/3/2
f 15/1/3 9/4/3 8/5/3 16/3/3
f 16/1/4 8/4/4 10/5/4 17/3/4
f 17/1/5 10/4/5 12/5/5 14/3/5
f 7/22/2 5/23/2 4/24/2 11/25/2
f 13/26/4 1/27/4 3/28/4 6/29/4
f 11/30/3 4/31/3 1/32/3 13/33/3
f 6/34/5 3/35/5 5/36/5 7/37/5
g shadow_snow_tree_small_brickbox_ur prop_snow_tree_small_brickbox_ur prop_snow_tree_small_ur_group prop_snow_tree_small pine_trees
f 58/3/1 59/1/1 60/4/1 61/5/1
g p290 prop_snow_tree_leaves_small_brickbox_ur prop_snow_tree_small_brickbox_ur prop_snow_tree_small_ur_group prop_snow_tree_small pine_trees
f 92/1/5 93/63/5 94/62/5 95/61/5 96/60/5 97/3/5
g prop_snow_tree_small_brickbox_ur_collide prop_snow_tree_small_brickbox_ur prop_snow_tree_small_ur_group prop_snow_tree_small pine_trees
f 28//1 29//1 30//1 31//1 32//1 33//1 34//1 35//1 36//1 37//1 38//1 39//1
f 40//6 39//6 38//7 41//7
f 41//7 38//7 37//5 42//5
f 42//5 37//5 36//8 43//8
f 43//8 36//8 35//9 44//9
f 44//9 35//9 34//2 45//2
f 45//2 34//2 33//10 46//10
f 46//10 33//10 32//11 47//11
f 47//11 32//11 31//3 48//3
f 48//3 31//3 30//12 49//12
f 49//12 30//12 29//13 50//13
f 50//13 29//13 28//4 51//4
f 51//4 28//4 39//6 40//6
g box3_top_3 tree_planter_box3_3 prop_snow_tree_small_woodbox_ur prop_snow_tree_small_ur_group prop_snow_tree_small pine_trees
f 9/42/1 12/43/1 13/44/1 6/45/1
f 12/46/1 10/47/1 11/48/1 13/49/1
f 10/50/1 8/51/1 7/52/1 11/53/1
f 6/54/1 7/55/1 8/56/1 9/57/1
f 5/5/1 3/3/1 2/2/1
f 4/4/1 5/5/1 2/2/1
f 1/1/1 4/4/1 2/2/1
f 1/1/1 2/2/1 3/3/1
f 7/58/2 5/3/2 4/1/2 11/59/2
f 11/5/3 4/3/3 1/1/3 13/4/3
f 13/5/4 1/3/4 3/1/4 6/4/4
f 6/5/5 3/3/5 5/1/5 7/4/5
f 14/1/2 12/4/2 9/5/2 15/3/2
f 15/1/3 9/4/3 8/5/3 16/3/3
f 16/1/4 8/4/4 10/5/4 17/3/4
f 17/1/5 10/4/5 12/5/5 14/3/5
g shadow_snow_tree_small_woodbox_ur prop_snow_tree_small_woodbox_ur prop_snow_tree_small_ur_group prop_snow_tree_small pine_trees
f 58/3/1 59/1/1 60/4/1 61/5/1
g p290_1 prop_snow_tree_leaves_small_woodbox_ur prop_snow_tree_small_woodbox_ur prop_snow_tree_small_ur_group prop_snow_tree_small pine_trees
f 92/1/5 93/63/5 94/62/5 95/61/5 96/60/5 97/3/5
g prop_snow_tree_small_ur_collide_1 prop_snow_tree_small_woodbox_ur prop_snow_tree_small_ur_group prop_snow_tree_small pine_trees
f 28//1 29//1 30//1 31//1 32//1 33//1 34//1 35//1 36//1 37//1 38//1 39//1
f 40//6 39//6 38//7 41//7
f 41//7 38//7 37//5 42//5
f 42//5 37//5 36//8 43//8
f 43//8 36//8 35//9 44//9
f 44//9 35//9 34//2 45//2
f 45//2 34//2 33//10 46//10
f 46//10 33//10 32//11 47//11
f 47//11 32//11 31//3 48//3
f 48//3 31//3 30//12 49//12
f 49//12 30//12 29//13 50//13
f 50//13 29//13 28//4 51//4
f 51//4 28//4 39//6 40//6
g shadow_snow_tree_small_nobox_ur prop_snow_tree_small_nobox_ur prop_snow_tree_small_ur_group prop_snow_tree_small pine_trees
f 58/3/1 59/1/1 60/4/1 61/5/1
g p290_2 prop_snow_tree_leaves_small_nobox_ur prop_snow_tree_small_nobox_ur prop_snow_tree_small_ur_group prop_snow_tree_small pine_trees
f 92/1/5 93/63/5 94/62/5 95/61/5 96/60/5 97/3/5
g prop_snow_tree_small_nobox_ur_collide prop_snow_tree_small_nobox_ur prop_snow_tree_small_ur_group prop_snow_tree_small pine_trees
f 68//1 69//1 70//1 71//1 72//1 73//1 74//1 75//1 76//1 77//1 78//1 79//1
f 80//6 79//6 78//7 81//7
f 81//7 78//7 77//5 82//5
f 82//5 77//5 76//8 83//8
f 83//8 76//8 75//9 84//9
f 84//9 75//9 74//2 85//2
f 85//2 74//2 73//10 86//10
f 86//10 73//10 72//11 87//11
f 87//11 72//11 71//3 88//3
f 88//3 71//3 70//12 89//12
f 89//12 70//12 69//13 90//13
f 90//13 69//13 68//4 91//4
f 91//4 68//4 79//6 80//6
