v 6.00000016019726 -1.7105710788036 -0.783443325773625
v 6.00000016019726 1.7105710788036 -0.783443325773625
v 6.00000016019726 1.7105710788036 0.784580163129671
v 6.00000016019726 -1.7105710788036 0.784580163129671
v -3.44173801852649e-07 1.7105710788036 -0.783443325773625
v -3.44173801852649e-07 -1.7105710788036 -0.783443325773625
v -3.44173801852649e-07 -1.7105710788036 0.784580163129671
v -3.44173801852649e-07 1.7105710788036 0.784580163129671
v -0.305862095099422 -1.7105710788036 0.784580163129671
v 6.30586178596877 -1.7105710788036 0.784580163129671
v 6.30586178596877 1.7105710788036 0.784580163129671
v -0.305862095099422 1.7105710788036 0.784580163129671
v -2.50308219529199e-07 -1.7105710788036 -0.784580100552617
v -2.50308219529199e-07 1.7105710788036 -0.784580100552617
v 6.00000016019726 1.7105710788036 -0.784580100552617
v 6.00000016019726 -1.7105710788036 -0.784580100552617
v 0 -1.69507374600788 -0.774820833381393
v 6.00000016019726 -1.69507374600788 -0.774820833381393
v 6.00000016019726 -1.69507374600788 0.777599504926386
v 0 -1.69507374600788 0.777599504926386
v 0 1.67918418023217 -0.774820833381393
v 6.00000016019726 1.67918418023217 -0.774820833381393
v 6.00000016019726 1.67918418023217 0.777599504926386
v 0 1.67918418023217 0.777599504926386
vt 0 3.5
vt 0 2.5
vt 1 2.5
vt 1 3.5
vt -1.01728582382202 0.98026043176651
vt -1.01728582382202 0.0953593701124191
vt -0.9919393658638 0.0953593701124191
vt -0.9919393658638 0.98026043176651
vt 0 0
vt 0 -1
vt 1 -1
vt 1 0
vt -0.961810290813446 0.98026043176651
vt -0.961810290813446 0.0953593701124191
vt -0.0495055019855499 0.0953593701124191
vt -0.0495055019855499 0.98026043176651
vn 0.999999999999975 0 2.22958802498235e-07
vn -0.999999999999975 0 2.22958802498235e-07
vn 0 7.20566717404836e-09 1
vn 0 -7.20566717404836e-09 -1
vn 0 -1 0
vn 0 0 -1
vn 1 0 0
vn -1 0 0
vn 0 0 1
g wall collision block02
f 1//1 2//1 3//1 4//1
f 5//2 6//2 7//2 8//2
g floor collision block02
f 9//3 10//3 11//3 12//3
g floor1 collision block02
f 13//4 14//4 15//4 16//4
g blocksides block02mesh block02
f 17/1/5 18/2/5 19/3/5 20/4/5
f 21/5/6 22/6/6 18/7/6 17/8/6
f 18/9/7 22/10/7 23/11/7 19/12/7
f 21/9/8 17/10/8 20/11/8 24/12/8
g blocktop block02mesh block02
f 20/13/9 19/14/9 23/15/9 24/16/9
