v 21.2099988365173 11.7248336407227 34.3211007293279
v 21.2099988365173 5.11393672303127 34.3211007293279
v 21.3731793399783 5.11393672303127 24
v 21.3731793399783 11.7248336407227 24
v 22.6078730276861 13.618055721316 38.8019476953286
v 22.6116491105911 5.11393672303127 38.6131286864464
v 20.5295320226187 -1.49696019466011 4
v 20.5295320226187 0 4
v 20.5295320226187 0 18.679712859412
v 20.5295320226187 -1.49696019466011 18.5186972657949
v 20.7350215929787 0 19.2126790215066
v 21.4370179879481 0 21.5834693727179
v 21.4370179879481 -1.49696019466011 21.5834693727179
v 21.2099988365173 0 34.3211007293279
v 21.2099988365173 -1.49696019466011 34.3211007293279
v 21.3939488554655 5.11393672303127 24
v 21.3939488554655 0 24
v 22.6116491105911 -3.83428791022074 38.6131286864464
v 0.0426533966987274 -1.49696019682348 18.0008998586574
v -2.22044604925031e-16 0 18.3732174643617
v -0.0332476829139793 0 14.8305600300078
v -0.292542031002055 0 4.00000000000639
v -0.292542031002055 -1.49696019466011 4.00000000000639
v 0.440486670703827 -1.49696019466011 33.9057431850906
v 0.440486670703827 0 33.9057431850906
v 0.460649947940736 0 31.6627036352038
v 0 -7.105427357601e-15 26.4147269975225
v 0.529532022618683 -1.49696019466011 27.1215699625483
v 0.440486670703827 5.11393672303127 33.9057431850906
v 0 5.11393672303127 24
v 0 -7.105427357601e-15 24
v 0.440486670703827 11.7248336407227 33.9057431850906
v -1.76194668425186 5.11393672303127 38.0593186274634
v -1.76592597401926 13.5941565340037 38.2582987793396
v 0 11.7248336407227 24
v -1.76194668425186 -3.83428791022074 38.0593186274634
v 0 -7.105427357601e-15 25.9929357369363
v -0.145713140671679 0 22.137279431701
v -0.145713140671679 -1.49696019466011 22.137279431701
v -0.145713140671679 0 21.5729623188949
v 11.3888993184088 1.60981936016856 49.4124248366157
v 11.5013136424754 1.60981936016856 45.702381098695
v 17.1386362563512 1.60981936016856 45.8731919720835
v 17.0313975016935 1.60981936016856 49.4124248366157
v 11.3666437942103 1.60981936016856 50.1469305935328
v 17.0074090235075 1.60981936016856 50.2041237950469
v 20.8497024266265 1.60981936016856 49.4124248366157
v 21.2901890976177 1.60981936016856 50.2431399250903
v 7.63510229689241 1.60981936016856 50.1046874103445
v 8.3692467485443 1.60981936016856 49.4124248366157
v 7.34144451623165 1.60981936016856 42.905156643565
v 7.48827340656203 1.60981936016856 38.0593186274634
v 21.7306757686088 1.60981936016856 38.0593186274634
v 11.3103015112779 1.16090163204224 51.9312883057671
v 16.9476926798808 1.13401816934541 52.0953378664516
v 13.9487445810987 0.128597891754162 56.0581455444122
v 20.8497024266265 10.658361923563 49.4124248366157
v 21.7306757686088 10.658361923563 38.0593186274634
v 21.2901890976177 10.658361923563 50.2431399250903
v 13.9487445810987 12.1395833919774 56.0581455444122
v 7.63510229689241 10.658361923563 50.1046874103445
v 8.3692467485443 10.658361923563 49.4124248366157
v 7.34144451623165 10.658361923563 42.905156643565
v 7.48827340656203 10.658361923563 38.0593186274634
v 19.4830573861012 -1.49696019466011 16.9862373266197
v 19.4830573863885 -3.99999999798114 16.9862373266134
v 20.5295320226187 -3.99999999783663 4
v 20.5295320226187 -1.49696019249675 4
v 21.1232575641038 -3.99999999781234 18.5186972657885
v 10.9091140044689 -1.49696019466011 24.2026347389404
v 10.9091140046039 -3.99999999890367 24.2026347389378
v 0.0426533969860317 -4.00000000000159 18.000899858651
v 1.73151705218677 -1.49696019466011 17.0753702420518
v 1.73151705247407 -3.999999999852 17.0753702420454
v -0.0981884880925202 -1.49696019466011 11.7692327033101
v -0.0981884878052161 -4 11.7692327033037
v -0.29254203071475 -4 4
v 9.39704898085696 -3.83428791022074 39.5822962896668
v 8.69142012062467 -1.49696019466012 32.9026927398222
v 2.33774690224449 -1.49696019466012 32.7756292785428
v 2.50430892874272 -1.49696019466012 24.4468723227253
v 8.8579821471229 -1.49696019466012 24.5739357840047
v 13.0836933434009 -1.49696019466012 24.4468723227253
v 19.4373665617811 -1.49696019466012 24.5739357840047
v 19.2708045352829 -1.49696019466012 32.9026927398222
v 12.9171313169027 -1.49696019466012 32.7756292785428
v 21.3939488554655 11.7248336407227 24
v 9.30850460807004 -3.99999999905666 18.2529039107503
v 12.2850918980882 -3.99999999874324 18.3479785081392
v 12.2379698356175 -3.9999999987546 20.7739094419125
v 9.26138254559933 -3.99999999906802 20.6788348445236
v 16.11188197011 -3.99999999841512 12.3558791014218
v 16.0250470472788 -3.99999999841365 8.32425440420443
v 18.920480987975 -3.99999999810831 8.24012883807915
v 19.0073159108062 -3.99999999810979 12.2717535352965
v 1.20012130624387 -3.9999999998459 12.3558791014218
v 1.11328638341275 -3.99999999984442 8.32425440420443
v 4.00872032410894 -3.99999999953908 8.24012883807915
v 4.09555524694006 -3.99999999954056 12.2717535352965
v 20.5295320226187 -4 4
v 20.5295320226187 -4 -2
v 20.5295320226187 -4 20
v 0 -4 20
v 0 -4 -2
v 20.5295320226187 0 -2
v 20.5295320226187 0 20
v 0 0 20
v 0 0 -2
v 20.5295320226187 -4 0
v -0.29254203071475 -4 0
v -0.29254203071475 0 0
v -0.29254203071475 0 4
v 20.5295320226187 0 0
vt 1 0.844659507274628
vt 0 0.844659507274628
vt 0 0.668486654758453
vt 1 0.668486654758453
vt 0.994364202022552 0.9839688539505
vt -0.00563584687188268 0.9839688539505
vt -0.00563584687188268 0.859131217002869
vt 0.994364202022552 0.859131217002869
vt 1 0
vt 0.773561716079712 0
vt 0.773561716079712 0.455823957920074
vt 1 0.46000000834465
vt 1 0.464129686355591
vt 0.773561716079712 0.471619218587875
vt 0.773561716079712 0.509864568710327
vt 1 0.513570249080658
vt 0.773561716079712 0.461339592933655
vt 0.773561716079712 0.513570249080658
vt 0.773561716079712 0.737800657749176
vt 1 0.741506397724152
vt 0 0.543552875518799
vt 0 0.741506397724152
vt 0.773561716079712 0.559918105602264
vt 1 0.394790023565292
vt 0.773561716079712 0.405355393886566
vt 0.773561716079712 0.305394440889359
vt 1 0.875370919704437
vt 0.773561716079712 0.875370919704437
vt 0.773561716079712 0.830284833908081
vt 0.773561716079712 0.676261126995087
vt 1 0.676261126995087
vt 0 0.875370919704437
vt 0 0.676261126995087
vt 0 1
vt 1 1
vt 1 0.651735365390778
vt 0.773561716079712 0.651735365390778
vt 0.773561716079712 0.620048344135284
vt 0.773561716079712 0.511798620223999
vt 1 0.511798620223999
vt 0.773561716079712 0.495868772268295
vt 0 0.585013210773468
vt 0 0
vt 1 0.558079123497009
vt 0 0.700832724571228
vt 1 0.68291711807251
vt 0.912580668926239 0.87088680267334
vt 0.929524183273315 0.886539876461029
vt 0.404274106025696 0.88393098115921
vt 0.432513356208801 0.87088680267334
vt 0.392978370189667 0.748271465301514
vt 0.398626238107681 0.656962275505066
vt 0.946467757225037 0.656962275505066
vt 0.647131681442261 0.996110916137695
vt 0.967394709587097 0.059097521007061
vt 0.0135443741455674 0.0420363247394562
vt 0.0170901846140623 -0.00752309896051884
vt 0.97094053030014 0.00953809637576343
vt 1 0.499575138092041
vt 0 0.499575138092041
vt 0.988581895828247 0.0131881209090352
vt 0.0114181153476238 0.986811876296997
vt 0.00874859094619751 0.00625568255782127
vt 0.964759111404419 -0.00102398323360831
vt 0.966382741928101 0.0522812269628048
vt 0.010372188873589 0.0595608912408352
vt 0 0.423668652772903
vt 1 0.423668652772903
vt 0.00592369865626097 1.09597611427307
vt 0.437459915876389 1.0947972536087
vt 0.431536197662354 -0.00117889523971826
vt 0.937268793582916 0.281189918518066
vt 0.870686888694763 0.25172021985054
vt 0.0311639569699764 0.7674919962883
vt 0.4373839199543 0.761487483978271
vt 0.406219959259033 -0.00600447086617351
vt 0.360150396823883 0.00857973471283914
vt 0.369303315877914 1.00637245178223
vt 0.00915293861180544 0.997792720794678
vt 0.150084957480431 0.253434270620346
vt 0.0934030041098595 0.271232515573502
vt -0.00705041689798236 0.671837389469147
vt 0.420130521059036 0.672578871250153
vt 0.415286988019943 1.134122133255
vt -0.0118939587846398 1.13338077068329
vt 0.42718094587326 0.000741441326681525
vt 0.0876856967806816 0.151395574212074
vt 0.920299887657166 0.577097296714783
vt 0.451235443353653 0.675755798816681
vt 0.0980025008320808 0.569374263286591
vt 0.0111343637108803 0.647240817546844
vt 0.972411513328552 0.657548606395721
vt 0.932124495506287 -0.000671731075271964
vt 0.510891258716583 0.387455135583878
vt 0.913737833499908 0.280877292156219
vt 0.926108121871948 0.33832636475563
vt 0.10959342867136 0.442202091217041
vt 0.0864369124174118 0.348771929740906
vt 0.0938716158270836 0.271233737468719
vt 0.0897451415657997 0.383688896894455
vt 0.924406230449677 0.383625060319901
vt 0.916754007339478 0.00692774588242173
vt 0.872506558895111 0.248115718364716
vt 0.939550518989563 0.276598691940308
vt 0.520437002182007 0.382046610116959
vt 0.0878352075815201 0.266731023788452
vt 0.145145654678345 0.249557480216026
vt 0.0827213823795319 0.150985136628151
vt 0.075577087700367 0.0066805356182158
vt 0.991527318954468 0
vt 0.991527318954468 1
vt 0.363636374473572 0
vt 0.363636374473572 1
vt 0.307692319154739 0
vt 0.307692319154739 1
vn 0.989218868197688 0.00204985266952506 -0.146430286845713
vn 0.989076755079719 0.00102526439044516 -0.14739783374902
vn 0.999875039401061 0 0.0158084022825112
vn 0.952408592804326 0.00404550898067438 -0.304797483929199
vn 0.951507531734344 0.00202276749998136 -0.307618798945151
vn 1 0 0
vn 0.982942712439335 0.0196684387141358 -0.182857257392077
vn 0.976039187834856 0.013053199638731 -0.217202941485297
vn 0.94653667227711 0.0193520833128503 -0.322015255703869
vn 0.990897546121594 0 -0.134618175185243
vn 0.999841213273661 0 0.0178198832615026
vn 0.98893256229949 0 -0.148365721188437
vn 0.950594231220721 0 -0.310436156995102
vn -0.999876495255785 -0.0105036309387647 -0.0116905077781641
vn -0.999747961288387 -0.00384800842000693 0.0221180182411136
vn -0.971339319386171 -0.0605221824405459 -0.229862985378339
vn -0.99732806105467 -0.0644031715275224 0.0344814461722477
vn -0.973905547744898 -0.226620233693233 0.0122985264375434
vn -0.979452892918871 -0.197887609846007 0.0388911869488394
vn -0.976004334657682 -0.00151870887076074 -0.217745797325189
vn -0.998995643386065 -0.00585565466174758 0.0444231449150709
vn -0.998944261271798 -0.0117111085390377 0.0444208600651586
vn -0.976447492822677 0.00302660382141802 -0.215733941301818
vn -0.88539603661422 0.0029234331322712 -0.464828260636712
vn -0.887288048564628 0.00584679187632829 -0.461178635562326
vn -0.999012770953249 0 0.0444239065404134
vn -0.883481495320069 0 -0.468466057924174
vn -0.970147778621947 -0.238100939410689 0.0460568158544387
vn -0.996475855991626 -0.0701790779820082 0.0459430673698713
vn -0.998500617085734 -0.0525253644770226 0.0154144012521838
vn -0.99970441771566 -0.008575925981107 -0.0227493009422191
vn 0 -1 0
vn 0.00247304631352998 -0.969795246703273 -0.243907899654091
vn 0.979049648593706 0 -0.203621672688692
vn 0.997002837849985 0 0.0773649876822649
vn 0.883481495320067 0 -0.468466057924177
vn 0.620901723034841 0 0.783888417016329
vn -0.686049190193566 0 0.727555158482676
vn -0.94634994324992 0 -0.323143597972903
vn -0.686049190193568 0 -0.727555158482675
vn -0.998004746124148 0 0.0631389476763376
vn -0.99954127085156 0 -0.0302861001855398
vn 0.948498590125222 0.048264018008637 -0.313083070599687
vn 0.996768888910732 5.71032515434384e-11 0.0803229861226788
vn 0.749011283249318 0.0888334115530607 -0.656574993856037
vn 0.000412096081542721 0.0339204439776187 0.99942445120038
vn 0.496391904162064 0.0588725260603709 0.86609993831984
vn -0.495676667731252 -4.33756146337563e-11 0.8685071335728
vn -0.480584519675417 -5.29237717679528e-11 -0.876948413219586
vn -0.984104867035784 -1.13411007585805e-10 0.177588317961747
vn -0.945372820158459 -1.09344127730445e-10 0.325991151575685
vn -0.999687251745517 -1.14810055384197e-10 0.0250079726786428
vn 1.07736695244336e-09 -1 -3.71506536440504e-10
vn -0.0133118928760641 -0.902363048558566 -0.430771078537252
vn 0.0122517607346858 -0.896869867067923 -0.442124796753662
vn 0.035600176392938 -0.90307185418417 -0.428011511084874
vn 0.0632897393402658 -0.88371330369754 -0.463729668839746
vn -0.0344173568204217 -0.882378100442348 -0.469280655268518
vn -8.21339748104445e-12 -1 4.39622367114118e-11
vn 0.00399269617981523 0.979859033809128 -0.199650525268175
vn 0.00782455884209437 0.920247452274715 -0.391258741577518
vn 0 1 0
vn 0.00124596748550262 0.992420084113394 -0.122885410905401
vn 0.00247304631353012 0.969795246703272 -0.243907899654093
vn 1.05378110976483e-10 -1 -2.63596472955915e-12
vn 6.33344666113422e-11 -1 5.90600836426348e-11
vn -1 0 0
g o4 posNode TT_C1
f 1/1/1 2/2/2 3/3/3 4/4/3
f 5/5/4 6/6/5 2/7/2 1/8/1
f 7/9/6 8/10/6 9/11/7 10/12/8
f 10/13/8 11/14/9 12/15/10 13/16/10
f 10/13/8 9/17/7 11/14/9
f 13/16/10 12/18/10 14/19/11 15/20/12
f 16/21/11 2/22/2 14/19/11 17/23/11
f 15/8/12 2/7/2 6/6/5 18/5/13
g o153 posNode TT_C1
f 19/24/14 20/25/14 21/26/15 22/10/15 23/9/15
f 24/27/16 25/28/17 26/29/17 27/30/18 28/31/19
f 26/29/17 25/28/17 29/32/20 30/33/21 31/30/22
f 32/27/23 29/32/20 33/34/24 34/35/25
f 35/31/26 30/33/21 29/32/20 32/27/23
f 36/35/27 33/34/24 29/32/20 24/27/16
f 28/36/19 27/37/18 37/38/28
f 28/36/19 37/38/28 38/39/29 39/40/30
f 39/40/30 40/41/31 20/25/14 19/24/14
f 39/40/30 38/39/29 40/41/31
g decals decal_base o5 posNode TT_C1
f 41/42/32 42/43/32 43/9/32 44/44/32
f 45/45/32 41/42/32 44/44/32 46/46/32
g decal_base o5 posNode TT_C1
f 47/47/32 48/48/32 49/49/32 50/50/32 51/51/32 52/52/32 53/53/32
g decals decal_base o5 posNode TT_C1
f 54/34/33 45/45/33 46/46/33 55/35/33
g decal_base o5 posNode TT_C1
f 48/48/33 56/54/33 49/49/33
g o5 posNode TT_C1
f 57/35/34 47/34/34 53/43/35 58/9/35
f 59/55/36 48/56/36 47/57/34 57/58/34
f 60/59/37 56/60/37 48/43/37 59/9/37
f 61/43/38 49/61/38 56/35/38 60/62/38
f 62/63/39 50/64/39 49/65/40 61/66/40
f 63/67/41 51/68/41 50/35/39 62/34/39
f 64/43/42 52/9/42 51/68/41 63/67/41
g o6 posNode TT_C1
f 65/69/43 66/70/43 67/71/44 68/43/44
f 10/72/45 69/72/45 66/73/43 65/73/43
f 70/74/46 71/75/46 69/76/47 10/43/47
f 19/43/48 72/77/48 71/78/46 70/79/46
f 73/80/49 74/80/49 72/81/49 19/81/49
f 75/82/50 76/83/50 74/84/51 73/85/51
f 23/43/52 77/86/52 76/83/50 75/82/50
g o32 posNode TT_C1
f 75/87/53 73/80/53 19/81/53
f 15/88/54 78/89/55 24/90/56
f 78/89/55 36/91/57 24/90/56
f 15/88/54 18/92/58 78/89/55
f 10/72/32 65/73/32 7/93/32
g decals decal_base o32 posNode TT_C1
f 79/35/32 80/34/32 81/43/32 82/9/32
f 83/43/32 84/9/32 85/35/32 86/34/32
g decal_base o32 posNode TT_C1
f 70/94/59 10/95/59 13/96/59 15/88/59 24/90/59 28/97/59 39/98/59 19/99/59
g o297 posNode TT_C1
f 1/88/60 32/90/60 34/91/61 5/92/61
f 62/50/62 61/49/63 59/48/63 57/47/62
f 61/49/63 60/54/64 59/48/63
f 64/52/62 63/51/62 62/50/62 57/47/62 58/53/62
f 35/100/62 32/90/60 1/88/60 87/101/62
g decals decal_base building3_landmark30c_front posNode TT_C1
f 88/43/65 89/9/65 90/35/65 91/34/65
f 92/34/65 93/43/65 94/9/65 95/35/65
f 96/34/65 97/43/65 98/9/65 99/35/65
g decal_base building3_landmark30c_front posNode TT_C1
f 100/102/66 66/103/66 69/104/66 71/105/66 72/106/66 74/107/66 76/108/66 77/109/66
g TT_C1_camera_collisions posNode TT_C1
f 101//32 102//32 103//32 104//32
f 105//6 106//6 102//6 101//6
f 104//67 103//67 107//67 108//67
g g67 posNode TT_C1
f 109/110/32 100/111/32 77/34/32 110/43/32
f 111/43/67 110/112/67 77/113/67 112/34/67
f 113/114/6 8/115/6 100/34/6 109/43/6
