v -5 -4 -0.025
v 5 -4 -0.025
v 5 0 -0.025
v 10 0 -0.025
v 10 20 -0.025
v 7 20 -0.025
v 7 21 -0.025
v -7 21 -0.025
v -7 20 -0.025
v -10 20 -0.025
v -10 0 -0.025
v -5 0 -0.025
v 11 21 -0.025
v 11 28 -0.025
v -11 28 -0.025
v -11 21 -0.025
v -5 0 12
v -10 0 12
v -10 20 12
v -7 20 12
v -7 21 12
v 7 21 12
v 7 20 12
v 10 20 12
v 10 0 12
v 5 0 12
v 5 -4 12
v -5 -4 12
v -11 21 12
v -11 28 12
v 11 28 12
v 11 21 12
v 9.97499999962747 8 3
v 9.97499999962747 8 6
v 9.97499999962747 12 6
v 9.97499999962747 12 3
v -10.9749999996275 25.5892633199692 3
v -10.9749999996275 25.5892633199692 6
v -10.9749999996275 23 6
v -10.9749999996275 23 3
v 10.9749999996275 23 3
v 10.9749999996275 23 6
v 10.9749999996275 25.5892633199692 6
v 10.9749999996275 25.5892633199692 3
v 4 27.929999999702 -0.025
v 10 27.929999999702 -0.025
v 10 27.929999999702 8
v 4 27.929999999702 8
v -5 -4 2.5
v -5 -4 3.5
v -2.5 -4 3.5
v -2.5 -4 2.5
v 2.5 -4 3.5
v 2.5 -4 2.5
v 5 -4 3.5
v 5 -4 2.5
v -7 21 3.5
v -7 21 2.5
v -11 21 2.5
v -11 21 3.5
v -10 15 3
v -11 15 3
v -11 5 3
v -10 5 3
v 5 0 2.5
v 5 0 3.5
v 7.5 0 3.5
v 7.5 0 2.5
v 10 0 3.5
v 10 0 2.5
v -5 0 2.5
v -5 0 3.5
v -10 0 2.5
v -10 0 3.5
v -7.5 0 3.5
v -7.5 0 2.5
v -10 3 2.8
v -10 3 3.5
v -10 5 3.5
v -10 15 3.5
v -10 17 2.8
v -10 17 3.5
v -10 20 2.5
v -10 20 3.5
v -10 3 2.5
v -10 17 2.5
v -8.5 20 2.5
v -8.5 20 3.5
v -7 20 2.5
v -7 20 3.5
v -11 23.5 2.5
v -11 23.5 3.5
v -11 25.5 2.5
v -11 25.5 3.5
v -11 28 2.5
v -11 28 3.5
v 11 23 3.5
v 11 23 2.5
v 11 21 2.5
v 11 21 3.5
v 11 25.5 3.5
v 11 25.5 2.5
v 11 28 3.5
v 11 28 2.5
v 7 20 3.5
v 7 20 2.5
v 8.5 20 2.5
v 8.5 20 3.5
v 10 20 2.5
v 10 20 3.5
v 7 21 3.5
v 7 21 2.5
v 10 3.5 3.5
v 10 3.5 2.5
v 10 16.5 3.5
v 10 16.5 2.5
v -7.5 28 2.5
v -7.5 28 3.5
v 7.5 28 2.5
v 7.5 28 3.5
v 7.5 28 12
v -7.5 28 12
v 10 16.5 12
v 10 3.5 12
v 8.5 20 12
v 11 25.5 12
v 11 23 12
v -11 25.5 12
v -11 23.5 12
v -8.5 20 12
v -10 17 7.4
v -10 15 7
v -10 17 12
v -10 3 7.4
v -10 5 7
v -10 3 12
v -7.5 0 12
v 7.5 0 12
v -11 5 7
v -11 15 7
v 2.5 -4 12
v -2.5 -4 12
v -2.5 -4 -0.025
v 2.5 -4 -0.025
v -7.5 28 -0.025
v 7.5 28 -0.025
v 8.5 20 -0.025
v 10 3.5 -0.025
v 10 16.5 -0.025
v 7.5 0 -0.025
v 11 23 -0.025
v 11 25.5 -0.025
v -11 23.5 -0.025
v -11 25.5 -0.025
v -8.5 20 -0.025
v -10 3 -0.025
v -10 17 -0.025
v -7.5 0 -0.025
v -11 -4 0
v 11 -4 0
v 11 28 0
v -11 28 0
v 5 -4 -2
v 5 2 12
v 5 2 -2
v 7 2 12
v 7 2 -2
v 7 18.5 12
v 7 18.5 -2
v -7 18.5 12
v -7 18.5 -2
v -7 15.5 12
v -7 15.5 -2
v -10 15.5 12
v -10 15.5 -2
v -10 6 12
v -10 6 -2
v -7.5 6 12
v -7.5 6 -2
v -5.5 3 12
v -5.5 3 -2
v -5 0 -2
v -5 -4 -2
v 11 -4 12
v -11 -4 12
vt -2 0
vt 0 0
vt 0 0.5
vt 1 0.5
vt 1 3
vt 0.400000005960464 3
vt 0.400000005960464 3.125
vt -2.40000009536743 3.125
vt -2.40000009536743 3
vt -3 3
vt -3 0.5
vt -2 0.5
vt 1.20000004768372 3.125
vt 1.20000004768372 4
vt -3.20000004768372 4
vt -3.20000004768372 3.125
vt 1 0
vt 1 1
vt 0 1
vt 10 0
vt 10 1
vt 8.33333301544189 1
vt 8.33333301544189 0
vt 5 1
vt 5 0
vt 3.33333325386047 1
vt 3.33333325386047 0
vt 12 1
vt 12 0
vt 14.6666669845581 0
vt 14.6666669845581 1
vt -6.66666650772095 0.5
vt -6.66666650772095 1.5
vt 0 1.5
vt 1.66666662693024 1
vt 1.66666662693024 0
vt 21.3333339691162 0
vt 21.3333339691162 1
vt 18.6666660308838 1
vt 18.6666660308838 0
vt 2.66666674613953 0
vt 2.66666674613953 1
vt 13.3333330154419 0
vt 13.3333330154419 1
vt 11.6666669845581 1
vt 11.6666669845581 0
vt 1.33333337306976 0.300000011920929
vt 1.33333337306976 1
vt -6.66666650772095 1
vt -8 0.300000011920929
vt -8 1
vt -10 0
vt -10 1
vt 1.33333337306976 0
vt -8 0
vt 2 0
vt 2 1
vt 0.333333343267441 1
vt 0.333333343267441 0
vt 3 0
vt 3 1
vt 4.66666650772095 0
vt 4.66666650772095 1
vt 11.3333330154419 1
vt 11.3333330154419 0
vt 12.3333330154419 0
vt 12.3333330154419 1
vt 5.33333349227905 0
vt 5.33333349227905 1
vt 16.3333339691162 1
vt 16.3333339691162 0
vt 7.66666650772095 1
vt 7.66666650772095 0
vt 2.33333325386047 0
vt 2.33333325386047 1
vt 14.6666669845581 9.5
vt 12.3333330154419 9.5
vt 2.33333325386047 9.5
vt 0 9.5
vt 2.66666674613953 9.5
vt 7.66666650772095 9.5
vt 5.33333349227905 9.5
vt 16.3333339691162 9.5
vt 18.6666660308838 9.5
vt 4.66666650772095 9.5
vt 13.3333330154419 9.5
vt 11.3333330154419 9.5
vt 1.66666662693024 9.5
vt 3.33333325386047 9.5
vt 3 9.5
vt 1 9.5
vt 0.333333343267441 9.5
vt 2 9.5
vt -10 9.5
vt -8 4.90000009536743
vt -6.66666650772095 4.5
vt -8 9.5
vt 1.33333337306976 4.90000009536743
vt 0 4.5
vt 1.33333337306976 9.5
vt 11.6666669845581 9.5
vt 10 9.5
vt 21.3333339691162 9.5
vt 0 3.5
vt -6.66666650772095 3.5
vt 12 9.5
vt 5 9.5
vt 8.33333301544189 9.5
vt 0 4
vt 0.666666686534882 4
vt 0.666666686534882 0
vt 0.75 0
vt 0.75 1
vt 0.25 0
vt 0.25 1
vt 0.254545450210571 -8.8601499470542e-09
vt 0.254545450210571 0.999999940395355
vt 1.34545457363129 5.41860423197704e-09
vt 1.34545457363129 1
vt 1.60000002384186 0
vt 1.60000002384186 1
vt 0.600000023841858 1
vt 0.600000023841858 0
vt 1.20000004768372 0
vt 1.20000004768372 1
vt 4 0
vt 4 1
vt 3.30000019073486 1
vt 3.30000019073486 -5.9604645663569e-09
vt 0.700000047683716 1
vt 0.700000047683716 -1.26434096525685e-09
vt 0.5 1
vt 0.5 0
vt 0.800000011920929 0
vt 0.800000011920929 1
vt 0.714285731315613 0
vt 0.714285731315613 1
vt 0.357142865657806 0
vt 0.357142865657806 1
vt 0.5 3.72529029846191e-09
vt 0.767857193946838 3.31136917885999e-09
vt 0.767857193946838 1
vt 0.982142925262451 1.27724240073235e-08
vt 0.982142925262451 1
vt 1.25 0
vt 1.25 1
vt 0.599999964237213 1
vt 0.599999964237213 -1.31480835108277e-08
vt 3.39999985694885 0.999999940395355
vt 3.39999985694885 -5.96046412226769e-09
vt 0.200000002980232 1
vt 0.200000002980232 0
vn 0 0 1
vn 0 0 -1
vn -1 0 0
vn 1 0 0
vn 0 -1 0
vn 0 1 0
vn 0.998488220722063 0.0549661084604663 0
vn 0.471857925532024 0.881674598767944 0
vn 0.929929353268323 0.367738219294592 0
vn 0.996592676029717 0.0824805315448933 0
g random_tc1_TI_floor g1
f 1/1/1 2/2/1 3/3/1 4/4/1 5/5/1 6/6/1 7/7/1 8/8/1 9/9/1 10/10/1 11/11/1 12/12/1
f 13/13/1 14/14/1 15/15/1 16/16/1
g ceiling g1
f 17//2 18//2 19//2 20//2 21//2 22//2 23//2 24//2 25//2 26//2 27//2 28//2
f 29//2 30//2 31//2 32//2
g doors_and_windows g1
f 33/17/3 34/18/3 35/19/3 36/2/3
f 37/17/4 38/18/4 39/19/4 40/2/4
f 41/2/3 42/19/3 43/18/3 44/17/3
f 45/17/5 46/2/5 47/19/5 48/18/5
g random_tc1_TI_wallpaper_border g1
f 49/20/6 50/21/6 51/22/6 52/23/6
f 53/24/6 54/25/6 52/23/6 51/22/6
f 55/26/6 56/27/6 54/25/6 53/24/6
f 57/28/6 58/29/6 59/30/6 60/31/6
f 61/32/1 62/33/1 63/34/1 64/3/1
f 65/27/6 66/26/6 67/35/6 68/36/6
f 69/19/6 70/2/6 68/36/6 67/35/6
f 56/37/3 55/38/3 66/39/3 65/40/3
f 71/41/4 72/42/4 50/19/4 49/2/4
f 73/43/6 74/44/6 75/45/6 76/46/6
f 72/21/6 71/20/6 76/46/6 75/45/6
f 73/27/4 77/47/4 78/48/4 74/26/4
f 77/47/4 64/3/4 79/19/4 78/48/4
f 80/49/4 61/32/4 81/50/4 82/51/4
f 82/51/4 81/50/4 83/52/4 84/53/4
f 77/47/4 73/27/4 85/54/4
f 64/3/4 77/47/4 85/54/4 86/55/4 81/50/4 61/32/4
f 86/55/4 83/52/4 81/50/4
f 84/19/5 83/2/5 87/17/5 88/18/5
f 89/56/5 90/57/5 88/18/5 87/17/5
f 90/58/4 89/59/4 58/17/4 57/18/4
f 60/19/4 59/2/4 91/36/4 92/35/4
f 92/35/4 91/36/4 93/60/4 94/61/4
f 95/62/4 96/63/4 94/61/4 93/60/4
f 97/26/3 98/27/3 99/62/3 100/63/3
f 101/35/3 102/36/3 98/27/3 97/26/3
f 103/19/3 104/2/3 102/36/3 101/35/3
f 105/64/5 106/65/5 107/66/5 108/67/5
f 109/43/5 110/44/5 108/67/5 107/66/5
f 111/63/3 112/62/3 106/68/3 105/69/3
f 70/40/3 69/39/3 113/70/3 114/71/3
f 115/72/3 116/73/3 114/71/3 113/70/3
f 110/69/3 109/68/3 116/73/3 115/72/3
f 100/19/6 99/2/6 112/41/6 111/42/6
f 96/19/5 95/2/5 117/74/5 118/75/5
f 118/75/5 117/74/5 119/66/5 120/67/5
f 104/30/5 103/31/5 120/67/5 119/66/5
g random_tc1_TI_wallpaper g1
f 103/31/5 31/76/5 121/77/5 120/67/5
f 121/77/5 122/78/5 118/75/5 120/67/5
f 122/78/5 30/79/5 96/19/5 118/75/5
f 22/80/6 32/79/6 100/19/6 111/42/6
f 123/81/3 24/82/3 110/69/3 115/72/3
f 124/83/3 123/81/3 115/72/3 113/70/3
f 69/39/3 25/84/3 124/83/3 113/70/3
f 23/82/3 22/85/3 111/63/3 105/69/3
f 110/44/5 24/86/5 125/77/5 108/67/5
f 125/77/5 23/87/5 105/64/5 108/67/5
f 126/88/3 31/79/3 103/19/3 101/35/3
f 127/89/3 126/88/3 101/35/3 97/26/3
f 32/85/3 127/89/3 97/26/3 100/63/3
f 96/63/4 30/85/4 128/90/4 94/61/4
f 128/90/4 129/88/4 92/35/4 94/61/4
f 129/88/4 29/79/4 60/19/4 92/35/4
f 21/91/4 20/92/4 90/58/4 57/18/4
f 90/57/5 20/93/5 130/91/5 88/18/5
f 130/91/5 19/79/5 84/19/5 88/18/5
f 19/94/4 131/95/4 82/51/4 84/53/4
f 131/95/4 132/96/4 80/49/4 82/51/4
f 131/95/4 19/94/4 133/97/4
f 134/98/4 135/99/4 132/96/4 131/95/4 133/97/4 136/100/4
f 18/89/4 134/98/4 136/100/4
f 79/19/4 135/99/4 134/98/4 78/48/4
f 78/48/4 134/98/4 18/89/4 74/26/4
f 137/101/6 17/102/6 72/21/6 75/45/6
f 74/44/6 18/86/6 137/101/6 75/45/6
f 72/42/4 17/80/7 28/79/4 50/19/4
f 55/38/3 27/103/3 26/84/3 66/39/3
f 138/88/6 25/79/6 69/19/6 67/35/6
f 66/26/6 26/89/6 138/88/6 67/35/6
f 135/99/2 139/104/2 140/105/2 132/96/2
f 29/76/6 21/106/6 57/28/6 60/31/6
f 141/107/6 27/89/6 55/26/6 53/24/6
f 142/108/6 141/107/6 53/24/6 51/22/6
f 50/21/6 28/102/6 142/108/6 51/22/6
f 139/109/6 135/110/6 64/111/6 63/2/6
f 63/3/4 62/32/4 140/96/4 139/99/4
f 62/2/5 61/111/5 132/110/5 140/109/5
g random_tc1_TI_wainscotting g1
f 143/112/6 1/17/6 49/18/6 52/113/6
f 144/114/6 143/112/6 52/113/6 54/115/6
f 2/2/6 144/114/6 54/115/6 56/19/6
f 15/2/5 145/116/5 117/117/5 95/19/5
f 145/116/5 146/118/5 119/119/5 117/117/5
f 146/118/5 14/120/5 104/121/5 119/119/5
f 107/122/5 106/19/5 6/2/5 147/123/5
f 5/124/5 109/125/5 107/122/5 147/123/5
f 4/126/3 70/127/3 114/128/3 148/129/3
f 114/128/3 116/130/3 149/131/3 148/129/3
f 116/130/3 109/19/3 5/2/3 149/131/3
f 3/17/6 65/18/6 68/132/6 150/133/6
f 68/132/6 70/19/6 4/2/6 150/133/6
f 2/134/3 56/135/3 65/19/3 3/2/3
f 7/2/3 6/17/3 106/18/3 112/19/3
f 13/2/6 7/17/6 112/18/6 99/19/6
f 151/136/3 13/17/3 99/18/3 98/137/3
f 152/138/3 151/136/3 98/137/3 102/139/3
f 104/19/3 14/2/3 152/138/3 102/139/3
f 9/2/4 8/114/4 58/115/4 89/19/4
f 8/114/6 16/140/6 59/132/6 58/115/6
f 16/140/4 153/141/4 91/142/4 59/132/4
f 153/141/4 154/143/4 93/144/4 91/142/4
f 154/143/4 15/145/4 95/146/4 93/144/4
f 87/122/5 83/19/5 10/2/5 155/123/5
f 9/124/5 89/125/5 87/122/5 155/123/5
f 85/147/4 73/19/4 11/2/4 156/148/4
f 86/149/4 85/147/4 156/148/4 157/150/4
f 10/126/4 83/127/4 86/149/4 157/150/4
f 11/17/6 73/18/6 76/132/6 158/133/6
f 76/132/6 71/19/6 12/2/6 158/133/6
f 12/17/4 71/18/4 49/151/4 1/152/4
g floors collisions g1
f 159//1 160//1 161//1 162//1
g walls collisions g1
f 163//3 27//3 164//3 165//3
f 165//6 164//6 166//6 167//6
f 167//3 166//3 168//3 169//3
f 169//5 168//5 170//5 171//5
f 171//4 170//4 172//4 173//4
f 173//5 172//5 174//5 175//5
f 175//4 174//4 176//4 177//4
f 177//6 176//6 178//8 179//8
f 179//8 178//8 180//9 181//9
f 181//9 180//9 17//7 182//10
f 182//10 17//7 28//4 183//4
f 183//6 28//6 27//6 163//6
g ceiling_collision collisions g1
f 30//2 31//2 184//2 185//2
