v 1.92635820904095 0.0365139552991991 11.2991120002413
v -2.15270047889917 0.0365139552991991 11.2991120002413
v -2.15239700035411 0.0365139552991991 9.00836658641486e-16
v 1.92666168758594 0.0365139552991991 -8.75520180758764e-16
v 0.795345176640659 -0.76348605662173 0
v 0.262918113732941 -0.305536363747333 1.03760563160319
v -0.346705154326802 -0.305536363747333 1.03760563160319
v -0.804654847201199 -0.76348605662173 0
v -0.804654847201199 0.836513967220128 0
v -0.346705154326802 0.378564274345731 1.03760563160319
v 0.262918113732941 0.378564274345731 1.03760563160319
v 0.795345176640659 0.836513967220128 0
v -0.473726180220091 -1.45798015715236 -0.766504445694071
v 0.473725573714769 -1.45798040843107 0.766504445694071
v -1.24023089811266 -0.901082192520718 0.766504445847973
v -6.19454287695876e-07 -2.79666977044044e-06 -1.71395738813791
v -1.53301030898252 -2.26131329649629e-06 -0.766504445598955
v 1.24023154341093 -0.901081533995916 -0.766504445847973
v 1.53301047583489 -1.44733171948351e-06 0.766504445598955
v 1.24023154324911 0.901080266417128 -0.766504445847973
v 0.473727120952401 1.45797863790157 0.766504445694071
v -0.473726180481924 1.45797888926577 -0.766504445694071
v -1.24023089827449 0.901080924496472 0.766504445847973
v 7.8615211379962e-07 -2.79666977044044e-06 1.71395738813791
v -1.20000002384186 -1.30000002384186 0.025000000372529
v 2.00000002384186 -1.30000002384186 0.025000000372529
v 2.00000002384186 1.90000002384186 0.025000000372529
v -1.20000002384186 1.90000002384186 0.025000000372529
v 2.35144254865787 0.0365139552991991 11.2991120002413
v -1.72761613928225 0.0365139552991991 11.2991120002413
v -1.72731266073719 0.0365139552991991 9.00836658641486e-16
v 2.35174602720286 0.0365139552991991 -8.75520180758764e-16
v 2.12410382037651 0.0365139552991991 11.2991120002413
v -1.95495486756361 0.0365139552991991 11.2991120002413
v -1.95465138901855 0.0365139552991991 9.00836658641486e-16
v 2.12440729892149 0.0365139552991991 -8.75520180758764e-16
vt 1 1
vt 0 1
vt 0 0
vt 1 0
vn 0 -1 0
vn 0 -0.914858366989384 0.403774898117153
vn 0 0.914858366989384 0.403774898117153
vn -0.914858366989384 0 0.403774898117153
vn 0.889705463412695 0 0.456534980449037
vn 0 0 1
vn -0.308197890656921 -0.948536062354353 -0.0727557462192784
vn -0.0727557554319178 -0.948536120402907 0.308197709826879
vn -0.498674735101487 -0.810146674264206 0.308197785115513
vn -0.30819823051267 -0.223919614600802 -0.924593887555984
vn -0.162459897075938 -0.500000752612135 -0.850650356626842
vn -0.689151856363006 -0.223919460816623 -0.689151502892517
vn 0.806872809088147 -0.586227660264107 -0.0727557578166437
vn 0.879628546178326 -0.362308908565076 0.308197786368734
vn 0.688190853711757 -0.500000480469444 0.525730794606716
vn 0.425325534644531 -0.309017394748995 -0.850650597673268
vn 0.806873046650472 0.586227333287618 -0.0727557578166437
vn 0.616396300846598 0.724616823806139 0.308198083965058
vn 0.688191174012491 0.499999597348285 0.525731215225863
vn 0.425325259290418 0.309016700342146 -0.850650987608427
vn -0.308197982150284 0.948536022235252 -0.0727558816908845
vn -0.498674791243884 0.810146484655326 0.308198192691792
vn -0.262865057350859 0.80901692044517 0.52573147523935
vn -0.162460080851809 0.49999961950027 -0.850650987555536
vn -0.951056598323302 0.309016741918152 8.53985333933638e-11
vn -0.850650714348282 -7.63826236454156e-11 0.525731264220379
vn 0.308198233208998 -0.223919616476629 0.924593886202916
vn -0.425325204702745 0.309016775528237 0.850650987589328
g p1 prop_post_sign_streetlamp prop_post_sign
f 1/1/1 2/2/1 3/3/1 4/4/1
g prop_post_sign_base prop_post_sign
f 5/4/2 6/1/2 7/2/2 8/3/2
f 9/4/3 10/1/3 11/2/3 12/3/3
f 8/4/4 7/1/4 10/2/4 9/3/4
f 12/4/5 11/1/5 6/2/5 5/3/5
f 7/4/6 6/1/6 11/2/6 10/3/6
g prop_post_sign_collisions prop_post_sign
f 13//7 14//8 15//9
f 16//10 13//11 17//12
f 18//13 19//14 14//15
f 16//10 18//16 13//11
f 20//17 21//18 19//19
f 16//20 20//20 18//16
f 22//21 23//22 21//23
f 16//20 22//24 20//20
f 17//25 15//26 23//26
f 16//10 17//12 22//24
f 14//8 13//7 18//13
f 24//27 14//15 19//14
f 15//9 17//12 13//7
f 24//27 15//9 14//8
f 23//22 22//21 17//25
f 24//28 23//26 15//26
f 21//18 20//17 22//21
f 24//28 21//23 23//22
f 19//14 18//13 20//17
f 24//27 19//19 21//18
g o10 drop_shadow prop_post_sign
f 25/3/6 26/4/6 27/1/6 28/2/6
g p13 prop_post_one_light_streetlamp prop_post_one_light
f 29/1/1 30/2/1 31/3/1 32/4/1
g prop_post_one_light_collisions prop_post_one_light
f 13//7 14//8 15//9
f 16//10 13//11 17//12
f 18//13 19//14 14//15
f 16//10 18//16 13//11
f 20//17 21//18 19//19
f 16//20 20//20 18//16
f 22//21 23//22 21//23
f 16//20 22//24 20//20
f 17//25 15//26 23//26
f 16//10 17//12 22//24
f 14//8 13//7 18//13
f 24//27 14//15 19//14
f 15//9 17//12 13//7
f 24//27 15//9 14//8
f 23//22 22//21 17//25
f 24//28 23//26 15//26
f 21//18 20//17 22//21
f 24//28 21//23 23//22
f 19//14 18//13 20//17
f 24//27 19//19 21//18
g o13 prop_post_one_light
f 5/4/2 6/1/2 7/2/2 8/3/2
f 9/4/3 10/1/3 11/2/3 12/3/3
f 8/4/4 7/1/4 10/2/4 9/3/4
f 12/4/5 11/1/5 6/2/5 5/3/5
f 7/4/6 6/1/6 11/2/6 10/3/6
g o14 g8 prop_post_one_light
f 25/3/6 26/4/6 27/1/6 28/2/6
g p23 prop_post_three_light_streetlamp prop_post_three_light
f 33/1/1 34/2/1 35/3/1 36/4/1
g prop_post_three_light_collisions prop_post_three_light
f 13//7 14//8 15//9
f 16//10 13//11 17//12
f 18//13 19//14 14//15
f 16//10 18//16 13//11
f 20//17 21//18 19//19
f 16//20 20//20 18//16
f 22//21 23//22 21//23
f 16//20 22//24 20//20
f 17//25 15//26 23//26
f 16//10 17//12 22//24
f 14//8 13//7 18//13
f 24//27 14//15 19//14
f 15//9 17//12 13//7
f 24//27 15//9 14//8
f 23//22 22//21 17//25
f 24//28 23//26 15//26
f 21//18 20//17 22//21
f 24//28 21//23 23//22
f 19//14 18//13 20//17
f 24//27 19//19 21//18
g o15 prop_post_three_light
f 5/4/2 6/1/2 7/2/2 8/3/2
f 9/4/3 10/1/3 11/2/3 12/3/3
f 8/4/4 7/1/4 10/2/4 9/3/4
f 12/4/5 11/1/5 6/2/5 5/3/5
f 7/4/6 6/1/6 11/2/6 10/3/6
g o16 g9 prop_post_three_light
f 25/3/6 26/4/6 27/1/6 28/2/6
