v 0.8428273238535 -0.639995690092953 0.00138858753669606
v -0.0945495964661045 -1.07260776629911 0.00239469360296182
v -0.937896388096446 -0.477120350664995 0.00101236132733778
v -0.843864976577559 0.550979766945826 -0.00138267913828372
v 0.093515424590724 0.983589214915679 -0.0023884158532607
v 0.936865368540206 0.388105115865472 -0.000999649324187927
v 0.936865243386096 0.396709961528227 3.69620761220537
v 0.0935148301087027 0.992194686348983 3.69482566052534
v -0.843864976577559 0.559577729132545 3.69582564186236
v -0.937896262942337 -0.468523546153792 3.69822109152326
v -0.0945501909481259 -1.06400767649253 3.69960279289506
v 0.8428273238535 -0.631392095971295 3.69860281155804
v 0.0680754660308518 0.0312125647631217 3.69691197953512
v 0.119799883972629 0.0387853172820384 4.56178970537161
v -0.0566511720497151 0.0100817130463017 4.51189426612353
v -0.0738361923713384 0.00808504006759388 3.69721435186431
v 0.369983426542107 0.0788148541463016 5.31096721258689
v 0.245213320874792 0.0584576973139145 5.33612469049889
v 0.839668183814822 0.154819591777531 5.85063774128911
v 0.740012158871949 0.138506520138638 5.92417479187172
v 1.50291788296437 0.262539780984713 6.21341394940073
v 1.40232551754929 0.246031781819862 6.33455862210491
v -1.74590633922987 1.68684060805113 0.0300773720102986
v -1.74590621407576 -1.68788138962793 0.0300773720102986
v 1.74590633922987 -1.68788151478204 0.0300773720102986
v 1.74590621407576 1.68684048289702 0.0300773720102986
vt 0.0165017005056143 0.233972996473312
vt 0.0208781994879246 0.739454984664917
vt 0.506308972835541 1.00356996059418
vt 0.98736298084259 0.762196004390717
vt 0.982985973358154 0.25671398639679
vt 0.497556000947952 -0.00739776995033026
vt 1 0
vt 1 1
vt 0 1
vt 0 0
vt -0.222157001495361 0.941878974437714
vt 0.166538000106812 1.08910000324249
vt -0.115785002708435 1.08422994613647
vt -0.37594398856163 1.05507004261017
vn 9.2405046222279e-07 -0.00232550659738622 -0.99999729600545
vn -1.20236914314709e-06 -0.00232304279687115 -0.999997301731719
vn -1.49356420613361e-06 -0.00232622627299465 -0.999997294330888
vn -6.02986692774796e-07 -0.00232773603276344 -0.999997290818629
vn 3.34166539422213e-06 -0.00232478701602223 -0.99999729767343
vn 6.10454424966258e-06 -0.00232351171520701 -0.999997300624379
vn -2.71674497357769e-06 0.00232504070578962 0.999997297085515
vn -2.5806471781554e-06 0.00231631691624539 0.999997317331044
vn -1.98440099158238e-06 0.0023231498983846 0.999997301481665
vn 2.54066499320361e-07 0.00232671111790887 0.999997293203991
vn -3.44908919828598e-06 0.0023269313744729 0.999997292685576
vn -8.79446513708415e-06 0.0023304232552183 0.999997284521367
vn 0.2776378563403 0.960683205400941 -0.00223597570109722
vn -0.098754679922076 0.995109115528815 -0.0023154664644235
vn 0.576799577417936 0.816883487942379 -0.00190121476533036
vn 0.576799362196299 0.816883640003956 -0.00190117432926094
vn -0.419040121736213 0.907965260302411 -0.00211245337833365
vn -0.419043225830353 0.9079638299325 -0.00211149709879694
vn -0.97079711079997 -0.239901351572762 0.000557831509672685
vn -0.812414374882728 -0.583078935162657 0.00135604332093629
vn -0.995843504557687 0.0910805664311844 -0.000211775443059105
vn -0.995843493919197 0.091080682668376 -0.000211809985167879
vn -0.277639005104665 -0.960682877139438 0.00223437140677545
vn -0.0910832203514767 -0.995840590253724 0.00231641393502478
vn 0.693158211827957 -0.720783518852339 0.00167699919732678
vn 0.911168540751155 -0.41203273045092 0.000958844393465936
vn 0.419041697906415 -0.907964532811725 0.00211247998671545
vn 0.995842926482329 -0.0910868861671334 0.000211998789674141
vn 0.995842937291939 -0.0910867679465673 0.00021201606509877
vn 0.160838629767545 -0.986980234822526 -0.000975317472035401
vn 0.160832087114171 -0.986981301300766 -0.00097500622935263
vn 0.1608355588774 -0.986980735820277 -0.00097474112431021
vn 0.160847048954561 -0.986978864106881 -0.00097398608842914
vn 0.160837623460896 -0.986980396817266 -0.000977332023288952
vn 0.160834214533315 -0.986980954359257 -0.00097527818678576
vn 0.160833751317384 -0.986981033875529 -0.000971188535073676
vn 0.160839083652924 -0.986980157651288 -0.000978556246094829
vn 0.160820547166818 -0.986983200917353 -0.000955361660283395
vn 0.160830763688355 -0.986981524923781 -0.000966907724857109
vn -0.160833823736748 0.986981021071791 0.000972206923635022
vn -0.16082548987217 0.986982398561644 0.000952227325772804
vn -0.160830807031071 0.986981516573098 0.00096822146343167
vn -0.160837163535053 0.986980468757312 0.000980366051715053
vn -0.160837134924779 0.986980476072348 0.000977691766105527
vn -0.160833571474317 0.986981059398749 0.000975025609736839
vn -0.16083149277572 0.986981399151536 0.000973991997410766
vn -0.160835206132316 0.986980793550967 0.000974489548291791
vn -0.160838213815229 0.986980302283013 0.000975644432224222
vn -0.160847179014736 0.98697883925389 0.00097768504415444
vn 0 0 1
g TheSticks
f 1/1/1 2/2/2 3/3/3
f 1/1/1 3/3/3 4/4/4
f 1/1/1 4/4/4 5/5/5
f 1/1/1 5/5/5 6/6/6
f 7/6/7 8/5/8 9/4/9
f 7/6/7 9/4/9 10/3/10
f 7/6/7 10/3/10 11/2/11
f 7/6/7 11/2/11 12/1/12
f 5/7/13 8/8/14 7/9/15
f 5/7/13 7/9/15 6/10/16
f 4/7/17 9/8/18 8/9/14
f 4/7/17 8/9/14 5/10/13
f 3/7/19 10/8/20 9/9/21
f 3/7/19 9/9/21 4/10/22
f 2/7/23 11/8/24 10/9/20
f 2/7/23 10/9/20 3/10/19
f 1/7/25 12/8/26 11/9/27
f 1/7/25 11/9/24 2/10/23
f 6/7/28 7/8/29 12/9/26
f 6/7/28 12/9/26 1/10/25
g TheFuse
f 13/7/30 14/8/31 15/11/32
f 13/7/30 15/11/32 16/10/33
f 14/7/31 17/8/34 18/12/35
f 14/7/31 18/12/35 15/10/32
f 17/7/34 19/8/36 20/13/37
f 17/7/34 20/13/37 18/10/35
f 19/7/36 21/8/38 22/14/39
f 19/7/36 22/14/39 20/10/37
f 20/10/40 22/14/41 21/8/42
f 20/10/40 21/8/42 19/7/43
f 18/10/44 20/13/40 19/8/43
f 18/10/44 19/8/43 17/7/45
f 15/10/46 18/12/44 17/8/45
f 15/10/46 17/8/45 14/7/47
f 16/10/48 15/11/46 14/8/47
f 16/10/48 14/8/47 13/7/49
g pPlane1
f 23/10/50 24/7/50 25/8/50 26/9/50
