v -19.9999991990137 -14.9999993992603 3.00000008009863
v 19.9999991990137 -14.9999983980274 3.00000008009863
v 19.9999991990137 -14.9999983980274 -1.88843647048229e-08
v -19.9999991990137 -14.9999993992603 -1.88843647048229e-08
v -19.9999991990137 14.9999993992603 3.00000008009863
v -19.9999991990137 14.9999993992603 -1.88843647048229e-08
v 19.9999991990137 15.0000004004932 -1.88843647048229e-08
v 19.9999991990137 15.0000004004932 3.00000008009863
v 19.9999991990137 -14.9999993992603 -1.88843647048229e-08
v 19.9999991990137 -14.9999993992603 3.00000008009863
v -19.9999991990137 -14.9999983980274 -1.88843647048229e-08
v -19.9999991990137 -14.9999983980274 3.00000008009863
v -21.0000005606904 -15.9999997597041 -1.61038759186512
v 21.0000005606904 -15.9999997597041 -1.61038759186512
v 21.0000005606904 -15.9999997597041 3.00000008009863
v -21.0000005606904 -15.9999997597041 3.00000008009863
v 21.0000005606904 -16.0000017621699 3.00000008009863
v 21.0000005606904 16.000000760937 3.00000008009863
v 20.0000012014795 14.9999993992603 3.00000008009863
v 20.0000012014795 -14.9999993992603 3.00000008009863
v -20.0000012014795 14.9999993992603 3.00000008009863
v -21.0000005606904 16.000000760937 3.00000008009863
v -21.0000005606904 -16.0000017621699 3.00000008009863
v -20.0000012014795 -14.9999993992603 3.00000008009863
v -22.3124526617095 -17.403455919481 -0.794080048408408
v 0 -17.403455919481 -0.794080048408408
v 0 -1.23356996871668 -0.794080048408408
v -26.1035468634658 -1.23356996871668 -0.794080048408408
v 22.3124526617095 -17.403455919481 -0.794080048408408
v 26.1035468634658 -1.23356996871668 -0.794080048408408
v 0 29.8680162805272 -0.794080048408408
v -33.6189290044189 29.8680162805272 -0.794080048408408
v 33.6189290044189 29.8680162805272 -0.794080048408408
vt 2.99774837493896 0.969136357307434
vt -2.99774837493896 0.969136357307434
vt -2.99774837493896 0.501344382762909
vt 2.99774837493896 0.501344382762909
vt -2.26543498039246 2.96913719177246
vt -2.26543498039246 2.36784338951111
vt 2.64015364646912 2.36784338951111
vt 2.64015364646912 2.96913719177246
vt 19.5805778503418 2.25693559646606
vt 19.5221977233887 2.89282560348511
vt 39.8474731445312 5.21459436416626
vt 39.8718223571777 4.59578609466553
vt 0.00164812803268433 0.00164812803268433
vt 0.998351871967316 0.00164812803268433
vt 0.998351871967316 0.998351871967316
vt 0.00164812803268433 0.998351871967316
vn -3.5038770107576e-08 0.999999999999999 0
vn 3.5038770107576e-08 -0.999999999999999 0
vn -1 0 0
vn 1 0 0
vn 0 -1 0
vn 0 0 1
vn 0 -1.08961877742785e-07 0.999999999999994
vn 0 2.05104498718352e-07 0.999999999999979
vn 0 -1.41478287418728e-10 1
vn 0 -2.82956574837456e-10 1
vn 0 -5.65913149674913e-10 1
g icerink_walls ice_game
f 1/1/1 2/2/1 3/3/1 4/4/1
f 5/1/2 6/4/2 7/3/2 8/2/2
f 8/5/3 7/6/3 9/7/3 10/8/3
f 11/6/4 6/7/4 5/8/4 12/5/4
f 13/4/5 14/3/5 15/2/5 16/1/5
f 17/9/6 18/9/6 19/10/6 20/10/6
f 21/11/6 22/12/6 23/12/6 24/11/6
f 21/11/7 19/10/7 18/9/7 22/12/7
f 24/11/8 23/12/8 17/9/8 20/10/8
g background ice_game
f 25/13/6 26/14/6 27/15/9 28/16/10
f 26/13/6 29/14/6 30/15/6 27/16/9
f 28/13/10 27/14/9 31/15/10 32/16/11
f 27/13/9 30/14/6 33/15/6 31/16/10
