v 2.75 -0.025000000372529 -2.75
v 2.75 -0.025000000372529 2.75
v -2.75 -0.025000000372529 2.75
v -2.75 -0.025000000372529 -2.75
v 0.828019291671283 -0.482499986886978 -1.99261356001079
v 1.99448861666194 -0.482499986886978 -0.823492504473851
v 1.99261356001079 -0.482499986886978 0.828019291671282
v 0.823492504473851 -0.482499986886978 1.99448861666194
v -0.828019291671282 -0.482499986886978 1.99261356001079
v -1.99448861666194 -0.482499986886978 0.823492504473849
v -1.99261356001079 -0.482499986886978 -0.828019291671284
v -0.82349250447385 -0.482499986886978 -1.99448861666194
v 1.99448861666194 0 -0.823492504473851
v 0.828019291671283 0 -1.99261356001079
v 1.99261356001079 0 0.828019291671282
v 0.823492504473851 0 1.99448861666194
v -0.828019291671282 0 1.99261356001079
v -1.99448861666194 0 0.823492504473849
v -1.99261356001079 0 -0.828019291671284
v -0.82349250447385 0 -1.99448861666194
vt 1 0
vt 1 1
vt 0 1
vt 0 0
vt 0.70397025346756 -0.000897313584573567
vt 0.991569638252258 0.287355870008469
vt 0.99110734462738 0.694545149803162
vt 0.702854156494141 0.98214453458786
vt 0.29566490650177 0.981682240962982
vt 0.00806550960987806 0.693429052829742
vt 0.00852781534194946 0.286239773035049
vt 0.296781003475189 -0.00135961908381432
vn 0 -1 0
vn 0.924313419359802 0 -0.381634252644324
vn 0.383732118793179 0 -0.923444454748902
vn 0.923444454748902 0 0.383732118793179
vn 0.381634252644324 0 0.924313419359802
vn -0.383732118793179 0 0.923444454748902
vn -0.924313419359801 0 0.381634252644324
vn -0.923444454748902 0 -0.38373211879318
vn -0.381634252644324 0 -0.924313419359802
g shadow g1
f 1/1/1 2/2/1 3/3/1 4/4/1
g clock g1
f 5/5/1 6/6/1 7/7/1 8/8/1 9/9/1 10/10/1 11/11/1 12/12/1
f 13/6/2 6/6/2 5/5/3 14/5/3
f 15/7/4 7/7/4 6/6/2 13/6/2
f 16/8/5 8/8/5 7/7/4 15/7/4
f 17/9/6 9/9/6 8/8/5 16/8/5
f 18/10/7 10/10/7 9/9/6 17/9/6
f 19/11/8 11/11/8 10/10/7 18/10/7
f 20/12/9 12/12/9 11/11/8 19/11/8
f 14/5/3 5/5/3 12/12/9 20/12/9
