v 0 0 -3
v 0 0 0
v -3 0 0
v -3 0 -3
v 0 0 1
v -3 0 1
v -0.025 0.315136212196371 -0.276904430101131
v -0.025 -0.215136212196371 -0.276904430101131
v -0.025 -0.215136212196371 1.17690443010113
v -0.025 0.315136212196371 1.17690443010113
v 0.147384332167718 0 0
v 0.147384332167718 0 1
v -3.39357782525407 0 1
v -3.39357782525407 0 0
v 0 0 -3.5
v -3 0 -3.5
vt 1 0
vt 1 1
vt 0 1
vt 0 0
vt 1 0.00587480515241623
vt 0 0.00587480515241623
vt 1 0.9823859333992
vt 0.00756246969103813 0.9823859333992
vt 0.00756246969103813 0
vt 1 0.00502307526767254
vt 0 0.00502307526767254
vt 1 0.961705386638641
vt 0.0125584248453379 0.961705386638641
vt 0.0125584248453379 0
vt 1 0.00507093081250787
vt 0 0.00507093081250787
vt 0.99294102191925 0.980244636535645
vt 0.00392175232991576 0.980244636535645
vt 0.0109807606786489 0
vn 0 -1 0
vn -1 0 0
g o1 anvil landmark_signs
f 1/1/1 2/2/1 3/3/1 4/4/1
g o3 anvil landmark_signs
f 2/1/1 5/2/1 6/3/1 3/4/1
g o1_1 anvil_square_drop_shadow anvil landmark_signs
f 7/4/2 8/1/2 9/2/2 10/3/2
g o4 drycleaner landmark_signs
f 1/5/1 2/2/1 3/3/1 4/6/1
g o5 drycleaner landmark_signs
f 2/1/1 5/7/1 6/8/1 3/9/1
g o1_2 drycleaner_square_drop_shadow drycleaner landmark_signs
f 7/4/2 8/1/2 9/2/2 10/3/2
g o6 post_office landmark_signs
f 1/10/1 2/2/1 3/3/1 4/11/1
g o7 post_office landmark_signs
f 11/1/1 12/12/1 13/13/1 14/14/1
g o1_3 post_office_square_drop_shadow post_office landmark_signs
f 7/4/2 8/1/2 9/2/2 10/3/2
g o8 dentist landmark_signs
f 15/15/1 2/2/1 3/3/1 16/16/1
g o9 dentist landmark_signs
f 2/1/1 5/17/1 6/18/1 3/19/1
g o1_4 dentist_square_drop_shadow dentist landmark_signs
f 7/4/2 8/1/2 9/2/2 10/3/2
