v 0 0 3.19508792616339
v 0 -5.67011629213027 0
v 10 -5.67011629213027 0
v 10 0 3.19508792616339
v 10 0 0
v 0 0 0
v 20 -5.67011629213027 0
v 20 0 3.19508792616339
v 20 0 0
v 9.0452920348925 -4.93945645180069 2.69350608279976
v 7.26187932373722 -4.93945645180069 3.90054231179978
v 4.83291396728009 -4.93945645180069 4.33742058093681
v 2.40923527122698 -4.93945645180069 3.88707971080489
v 0.640265984897829 -4.93945645180069 2.67018817387459
v 0 -4.93945645180069 1.03973627673242
v 9.70528810502049 -4.93945645180069 1.03973627673242
v 0 -4.93945645180069 0
v 9.70528810502049 -4.93945645180069 0
v 9.0452920348925 0 2.69350608279976
v 9.70528810502049 0 1.03973627673242
v 0 0 1.03973627673242
v 0.640265984897829 0 2.67018817387459
v 2.40923527122698 0 3.88707971080489
v 4.83291396728009 0 4.33742058093681
v 7.26187932373722 0 3.90054231179978
v 9.70528810502049 0 0
v 14.6697457862581 -8.01086025643945 2.60806233701853
v 11.7773890769658 -8.01086025643945 3.7768088077893
v 7.83806858124262 -8.01086025643945 4.19982836838142
v 3.90732204464489 -8.01086025643945 3.76377326915166
v 1.03838982730544 -8.01086025643945 2.5854841217941
v 0 -8.01086025643945 1.00675362906886
v 15.7401340646419 -8.01086025643945 1.00675362906886
v 0 -8.01086025643945 0
v 15.7401340646419 -8.01086025643945 0
v 14.6697457862581 0 2.60806233701853
v 15.7401340646419 0 1.00675362906886
v 0 0 1.00675362906886
v 1.03838982730544 0 2.5854841217941
v 3.90732204464489 0 3.76377326915166
v 7.83806858124262 0 4.19982836838142
v 11.7773890769658 0 3.7768088077893
v 15.7401340646419 0 0
vt 0.991177439689636 0.0589903853833675
vt -0.00183526834007353 0.069175012409687
vt 0.00910643953830004 0.959396243095398
vt 1.00211918354034 0.949211597442627
vt 0 0
vt 1 1
vt 1 0
vt 0.991233229637146 0.0635293051600456
vt 0.0336900986731052 2.95953154563904
vt 1.02675867080688 2.95388579368591
vt 0.927048444747925 0.352266609668732
vt 0.741074442863464 0.510127246379852
vt 0.489999562501907 0.567263782024384
vt 0.241099163889885 0.508366584777832
vt 0.0610658973455429 0.349217027425766
vt -0.00190991919953376 0.135980531573296
vt 0.998090088367462 0.135980531573296
vt -4.07132538384758e-05 0.00289866188541055
vt 0.999955058097839 0.0031980078201741
vt 0.998085856437683 0.136279881000519
vt 0.93199622631073 0
vt 0.93199622631073 1
vt 0 1
vt 0.0659708380699158 1
vt 0.0659708380699158 0
vt 0.248239442706108 1
vt 0.248239442706108 0
vt 0.497967064380646 1
vt 0.497967064380646 0
vt 0.748239457607269 1
vt 0.748239457607269 0
vt 0.999865114688873 0.144945502281189
vt 0.999995291233063 0.00509231258183718
vt -4.70761506221606e-06 0.00505982665345073
vt -0.000134819827508181 0.144913017749786
vn 0 -0.490920266277838 0.871204506506766
vn 1 0 0
vn -1 0 0
vn 0 0.490920266277838 -0.871204506506766
vn 0 -1 0
vn 0 1 0
vn -0.778979108738587 0 -0.62704987692275
vn -0.982030850887768 0 -0.188720449089775
vn 0.982548647078619 0 -0.186005795941886
vn 0.783069226417917 0 -0.621934551731326
vn 0.383090453671898 0 -0.923710833705798
vn 0.00287727435085004 0 -0.999995860637588
vn -0.376927153661457 0 -0.926242905955383
vn -0.982548647078619 0 0.186005795941886
vn 0.982030850887768 0 0.188720449089775
vn 0.778979108738587 0 0.62704987692275
vn -0.783069226417917 0 0.621934551731326
vn -0.383090453671898 0 0.923710833705798
vn -0.00287727435085004 0 0.999995860637588
vn 0.376927153661457 0 0.926242905955383
vn -0.630960966555398 0 -0.775814577514162
vn -0.956913514717464 0 -0.290373079590843
vn 0.957986820895451 0 -0.286812222526565
vn 0.636036919274606 0 -0.771658627451069
vn 0.247493391280051 0 -0.96888958156887
vn 0.00175435917836998 0 -0.999998461110752
vn -0.243038215473469 0 -0.970016714195932
vn -0.957986820895451 0 0.286812222526565
vn 0.956913514717464 0 0.290373079590843
vn 0.630960966555398 0 0.775814577514162
vn -0.636036919274606 0 0.771658627451069
vn -0.247493391280051 0 0.96888958156887
vn -0.00175435917836998 0 0.999998461110752
vn 0.243038215473469 0 0.970016714195932
g o2 prop_keyboard_small prop_awnings
f 1/1/1 2/2/1 3/3/1 4/4/1
f 4/5/2 4/5/2 3/6/2 5/7/2
f 6/7/3 2/6/3 1/5/3 1/5/3
f 1/5/2 1/5/2 2/6/2 6/7/2
f 5/7/3 3/6/3 4/5/3 4/5/3
f 4/4/4 3/3/4 2/2/4 1/1/4
g o1 prop_keyboard_large prop_awnings
f 1/8/1 2/2/1 7/9/1 8/10/1
f 8/5/2 8/5/2 7/6/2 9/7/2
f 6/7/3 2/6/3 1/5/3 1/5/3
f 1/5/2 1/5/2 2/6/2 6/7/2
f 9/7/3 7/6/3 8/5/3 8/5/3
f 8/10/4 7/9/4 2/2/4 1/8/4
g o8 prop_awning_small prop_awnings
f 10/11/5 11/12/5 12/13/5 13/14/5 14/15/5 15/16/5 16/17/5
f 15/16/5 17/18/5 18/19/5 16/20/5
f 16/20/6 18/19/6 17/18/6 15/16/6
f 16/17/6 15/16/6 14/15/6 13/14/6 12/13/6 11/12/6 10/11/6
f 10/21/7 19/22/7 20/6/8 16/7/8
f 15/5/9 21/23/9 22/24/10 14/25/10
f 14/25/10 22/24/10 23/26/11 13/27/11
f 13/27/11 23/26/11 24/28/12 12/29/12
f 12/29/12 24/28/12 25/30/13 11/31/13
f 11/31/13 25/30/13 19/22/7 10/21/7
f 15/32/9 17/33/2 6/34/2 21/35/9
f 20/35/8 26/34/3 18/33/3 16/32/8
f 21/35/14 6/34/3 17/33/3 15/32/14
f 16/32/15 18/33/2 26/34/2 20/35/15
f 16/7/15 20/6/15 19/22/16 10/21/16
f 14/25/17 22/24/17 21/23/14 15/5/14
f 13/27/18 23/26/18 22/24/17 14/25/17
f 12/29/19 24/28/19 23/26/18 13/27/18
f 11/31/20 25/30/20 24/28/19 12/29/19
f 10/21/16 19/22/16 25/30/20 11/31/20
g o10 prop_awning_large prop_awnings
f 27/11/5 28/12/5 29/13/5 30/14/5 31/15/5 32/16/5 33/17/5
f 32/16/5 34/18/5 35/19/5 33/20/5
f 33/20/6 35/19/6 34/18/6 32/16/6
f 33/17/6 32/16/6 31/15/6 30/14/6 29/13/6 28/12/6 27/11/6
f 27/21/21 36/22/21 37/6/22 33/7/22
f 32/5/23 38/23/23 39/24/24 31/25/24
f 31/25/24 39/24/24 40/26/25 30/27/25
f 30/27/25 40/26/25 41/28/26 29/29/26
f 29/29/26 41/28/26 42/30/27 28/31/27
f 28/31/27 42/30/27 36/22/21 27/21/21
f 32/32/23 34/33/2 6/34/2 38/35/23
f 37/35/22 43/34/3 35/33/3 33/32/22
f 38/35/28 6/34/3 34/33/3 32/32/28
f 33/32/29 35/33/2 43/34/2 37/35/29
f 33/7/29 37/6/29 36/22/30 27/21/30
f 31/25/31 39/24/31 38/23/28 32/5/28
f 30/27/32 40/26/32 39/24/31 31/25/31
f 29/29/33 41/28/33 40/26/32 30/27/32
f 28/31/34 42/30/34 41/28/33 29/29/33
f 27/21/30 36/22/30 42/30/34 28/31/34
