v -0.997239460782429 -0.997239460782429 -0.00237210841942334
v 0.997239460782429 -0.997239460782429 -0.00237210841942334
v -0.997239460782429 -0.997239460782429 1.99210675056838
v 0.997239460782429 -0.997239460782429 1.99210675056838
v -0.997239460782429 0.997239460782429 1.99210675056838
v 0.997239460782429 0.997239460782429 1.99210675056838
v -0.997239460782429 0.997239460782429 -0.00237210841942334
v 0.997239460782429 0.997239460782429 -0.00237210841942334
v -1.00622234506257 -1.00622234506257 -0.0113550093025195
v 1.00622234506257 -1.00622234506257 -0.0113550093025195
v -1.00622234506257 -1.00622234506257 2.00108963445364
v 1.00622234506257 -1.00622234506257 2.00108963445364
v -1.00622234506257 1.00622234506257 2.00108963445364
v 1.00622234506257 1.00622234506257 2.00108963445364
v -1.00622234506257 1.00622234506257 -0.0113550093025195
v 1.00622234506257 1.00622234506257 -0.0113550093025195
v -1.00622227185667 -1.00622227185667 2.00108968679673
v 1.00622227185667 -1.00622227185667 2.00108968679673
v 1.00622227185667 1.00622227185667 2.00108956164262
v -1.00622227185667 1.00622227185667 2.00108968679673
v -4.04189846964425 -4.04189846964425 -8.97481748839246e-16
v 4.04189846964425 -4.04189846964425 -8.97481748839246e-16
v 4.04189846964425 4.04189846964425 8.97481748839246e-16
v -4.04189846964425 4.04189846964425 8.97481748839246e-16
vt 0.188794076442719 0.201320350170135
vt 0.630580008029938 0.712864875793457
vt 0.202275633811951 0.640588223934174
vt -0.0395498871803284 -0.201735883951187
vt 0.660998106002808 0.980683088302612
vt 0.331551313400269 0.768365323543549
vt 1.00636422634125 0.880411922931671
vt 0.676917731761932 0.668094217777252
vt 0.901023328304291 0.743926107883453
vt 0.734274387359619 0.529000401496887
vt -0.518673300743103 -0.12119996547699
vt 0.277858793735504 -0.491275250911713
vt 0.615250647068024 0.60867178440094
vt 0.0465039610862732 0.620720982551575
vt -0.28155243396759 0.493529051542282
vt -0.378727316856384 -0.102566041052341
vn 0 -1 0
vn 0 0 1
vn 0 1 0
vn 0 0 -1
vn 1 0 0
vn -1 0 0
vn 3.10950447612867e-08 6.48876863351687e-08 0.999999999999997
g wood_crate_cubeB2
f 1/1/1 2/2/1 3/3/1
f 2/2/1 4/4/1 3/3/1
f 3/5/2 4/6/2 5/7/2
f 4/6/2 6/8/2 5/7/2
f 5/7/3 6/8/3 7/9/3
f 6/8/3 8/10/3 7/9/3
f 7/11/4 8/12/4 1/1/4
f 8/12/4 2/2/4 1/1/4
f 2/2/5 8/12/5 4/13/5
f 8/12/5 6/14/5 4/13/5
f 7/11/6 1/1/6 5/15/6
f 1/1/6 3/16/6 5/15/6
g wall_collsion
f 9//1 10//1 11//1
f 10//1 12//1 11//1
f 13//3 14//3 15//3
f 14//3 16//3 15//3
f 15//4 16//4 9//4
f 16//4 10//4 9//4
f 10//5 16//5 12//5
f 16//5 14//5 12//5
f 15//6 9//6 13//6
f 9//6 11//6 13//6
g floor_collsion
f 17//7 18//7 19//7 20//7
g floor_collsion2
f 21//2 22//2 23//2 24//2
