v -0.223877282906079 0.0114893252298901 0.000971242824564456
v -0.158387594648546 -0.137731534602448 0.000971242824564456
v -0.165432128380603 0.012709097716752 0.0576659997930051
v -0.117923104231126 -0.0955420216237466 0.0559674942587304
v -0.00656429199096099 -0.196938361395688 0.000971242824564456
v -0.00778405176685864 -0.138493206870212 0.0559674942587304
v 0.142656599129905 -0.131448673138155 0.000971242824564456
v 0.100467086151203 -0.0909841592543394 0.0559674942587304
v 0.201863441567408 0.0203746471192267 0.000971242824564456
v 0.143418271397668 0.0191548736545983 0.0559674942587304
v 0.136373722021348 0.169595489351768 0.000971242824564456
v 0.0959092394260597 0.12740603112799 0.0559674942587304
v -0.0154495747696383 0.228802331789272 0.000971242824564456
v -0.0142298286824714 0.170357192908059 0.0559674942587304
v -0.164670471757103 0.163312659176003 0.000971242824564456
v -0.122480982244797 0.122848168758583 0.0559674942587304
v -0.0897524941937504 0.0142885709372092 0.0900139254847849
v -0.0655263388563642 -0.0409115604528292 0.0900139254847849
v -0.00936351520965106 -0.062813537483766 0.0900139254847849
v 0.0458366953794725 -0.0385874721008962 0.0900139254847849
v 0.0677385824558929 0.0175754385670339 0.0900139254847849
v 0.0435124466738363 0.0727755738681383 0.0900139254847849
v -0.0126503965282065 0.0946775430769432 0.0900139254847849
v -0.0678506110283959 0.0704514933383371 0.0900139254847849
v -0.387717419721949 -0.00271669288319866 0.949382719405367
v -0.268435947538361 -0.274504294858517 0.949382719405367
v 0.00809176074551159 -0.382342394881361 0.949382719405367
v 0.279879413564687 -0.263060828832191 0.949382719405367
v 0.387717482299004 0.0134668325188905 0.949382719405367
v 0.268435947538361 0.285254469693802 0.949382719405367
v -0.00809171381272043 0.393092601005174 0.949382719405367
v -0.279879413564687 0.273811003667476 0.949382719405367
v -0.0776594626934822 -0.0755949830758603 1.27928388400341
v -0.11216797071492 0.00303414823814953 1.27928388400341
v -0.239841456175476 -0.24469086504358 1.0968243356139
v -0.346416719942268 -0.00185472915178835 1.0968243356139
v 0.00234096069035568 -0.106792867653013 1.27928388400341
v 0.00722982439156279 -0.34104169510168 1.0968243356139
v 0.0809700861377666 -0.0722843048766529 1.27928388400341
v 0.250065936816959 -0.234466337469306 1.0968243356139
v 0.332294079888211 0.0123101132591878 1.09701732325116
v 0.112167994181315 0.00771609601855591 1.27928388400341
v 0.239841503108267 0.255441071167393 1.0968243356139
v 0.0776594705156141 0.0863452126660685 1.27928388400341
v -0.00234097535685291 0.117543105065353 1.27928388400341
v -0.00722976377004088 0.351791869936966 1.0968243356139
v -0.0809701096041622 0.0830345813996523 1.27928388400341
v -0.250065952461223 0.245216574881646 1.0968243356139
v -0.208778425151595 -0.212303562740016 1.50759539266271
v -0.301550723749196 -0.000918349568925192 1.50759539266271
v -0.119348304478202 -0.116598379267795 1.38573108382738
v -0.167109647135096 0.00276072170790725 1.38585023053988
v 0.00629344480869964 -0.296175698908608 1.50759539266271
v 0.00193765352717222 -0.161163074763741 1.38580279713228
v 0.21767874402324 -0.20340336902248 1.50759539266271
v 0.11514488636978 -0.105713045816096 1.3859517305229
v 0.301550755037723 0.0116685028933478 1.50759539266271
v 0.165574835354262 0.00970391189958167 1.38580930514598
v 0.208778472084386 0.223053784508092 1.50759539266271
v 0.114620404606416 0.127344455305986 1.38579178357062
v -0.00629342134230406 0.306925842455366 1.50759539266271
v -0.00515786094928351 0.178820035589023 1.38566662946085
v -0.217678697090449 0.214153575146292 1.50759539266271
v -0.124369800247232 0.124008566375792 1.38573108382738
v -0.231808611727136 0.000537208371900824 1.51144838708592
v -0.160492514687886 -0.161959258277272 1.51144838708592
v 0.00483789860107142 -0.226433539953757 1.51144838708592
v 0.167334376983442 -0.155117458558771 1.51144838708592
v 0.231808611727136 0.0102129723299832 1.51144838708592
v 0.16049253033215 0.172709417468294 1.51144838708592
v -0.00483788882340659 0.237183714789043 1.51144838708592
v -0.167334361339179 0.165867617749792 1.51144838708592
v 1.17331977904312e-08 0.00537508986205879 1.13855734897724
v -0.723192885791848 -0.0499241621162634 1.68793282796705
v -0.278525965733166 -0.0499241621162634 1.68793282796705
v -0.278525965733166 -0.0499242246933184 2.13259974802573
v -0.723192885791848 -0.0499242246933184 2.13259974802573
v -0.72823991299927 -0.00200534430075816 2.10774914799087
v 0.0153568473075006 -0.00200534430075816 2.10774914799087
v 0.0153568473075006 -0.00200534430075816 2.85134578314353
v -0.72823991299927 -0.00200534430075816 2.85134578314353
v -0.167089372169314 2.08166817117217e-17 1.37919641229425
v 0.070811444380152 2.08166817117217e-17 1.37919641229425
v 0.070811444380152 2.08166817117217e-17 2.34720475404594
v -0.167089372169314 2.08166817117217e-17 2.34720475404594
v -0.0217729978986926 -0.0098158994058924 2.17469433161218
v 0.319670879934716 0.065920672078771 2.26256928731763
v 0.231460448638034 0.140276606001566 2.54123167103044
v -0.109983366618319 0.0645399719398478 2.45335671532499
v -0.0501020686832938 2.08166817117217e-17 1.25385444621089
v 0.134455876087579 2.08166817117217e-17 1.44484800303702
v -0.37366987213375 2.08166817117217e-17 1.93585210584906
v -0.558227816904624 2.08166817117217e-17 1.74485842386882
v -0.022442697540043 0.0239013061122944 1.23128690744636
v 0.706611092635028 0.0239013061122944 1.90015014388117
v 0.457285270290424 -0.0239013061122944 2.17191265636855
v -0.271768519884646 -0.0239013061122944 1.50304941993373
v 0.194336172789726 -0.0294772345875818 2.39116012893637
v 0.315286043122058 -0.0294772345875818 1.78603925729987
v 0.920406977335612 -0.0294772345875818 1.90698906505515
v 0.799457169580334 -0.0294772345875818 2.51211006184576
v -0.181716633593942 0.000111387157690521 1.56192629356084
v -0.285540040083758 0.000111387157690521 1.75543094244529
v -0.479044626391154 6.13255137848004e-06 1.65160747337842
v -0.375221282478392 6.13255137848004e-06 1.45810294964808
v -0.555431239487402 -0.555431239487402 0.0249999999999999
v 0.555431239487402 -0.555431239487402 0.0249999999999999
v 0.555431239487402 0.555431239487402 0.0250000000000001
v -0.555431239487402 0.555431239487402 0.0250000000000001
v 0.215197845393904 0.37273337521891 -0.00485541626537253
v -0.215197673307003 0.372733469084492 -0.00485541626537253
v -0.215197673307003 0.372733469084492 2.11405441204081
v 0.215197845393904 0.37273337521891 2.11405441204081
v -0.430395471768116 6.41339230191881e-08 -0.00485541626537253
v -0.430395471768116 6.41339230191881e-08 2.11405441204081
v -0.215197798461113 -0.372733406507437 -0.00485541626537253
v -0.215197798461113 -0.372733406507437 2.11405441204081
v 0.215197720239794 -0.372733437795964 -0.00485541626537253
v 0.215197720239794 -0.372733437795964 2.11405441204081
v 0.430395471768116 0 -0.00485541626537253
v 0.430395471768116 0 2.11405441204081
v 6.94744830025593e-24 0 -0.00485541626537253
v 3.47372415012796e-24 0 2.11405441204081
vt 0.250000059604645 -1.61953579436158e-08
vt 0.375000059604645 -1.61953579436158e-08
vt 0.250000059604645 0.0376303344964981
vt 0.375000059604645 0.0365029573440552
vt 0.500000059604645 -1.61953579436158e-08
vt 0.500000059604645 0.0365029573440552
vt 0.625000059604645 -1.61953579436158e-08
vt 0.625000059604645 0.0365029573440552
vt 0.750000059604645 -1.61953579436158e-08
vt 0.750000059604645 0.0365029573440552
vt 0.875000059604645 -1.61953579436158e-08
vt 0.875000059604645 0.0365029573440552
vt 1 -1.61953579436158e-08
vt 1 0.0365029573440552
vt 2.98023223876953e-08 -1.61953579436158e-08
vt 0.125000059604645 -1.61953579436158e-08
vt 2.98023223876953e-08 0.0365029573440552
vt 0.125000059604645 0.0365029573440552
vt 0.250000059604645 0.0591008178889751
vt 0.375000059604645 0.0591008178889751
vt 0.500000059604645 0.0591008178889751
vt 0.625000059604645 0.0591008178889751
vt 0.750000059604645 0.0591008178889751
vt 0.875000059604645 0.0591008178889751
vt 1 0.0591008178889751
vt 2.98023223876953e-08 0.0591008178889751
vt 0.125000059604645 0.0591008178889751
vt 0.250000059604645 0.629494488239288
vt 0.375000059604645 0.629494488239288
vt 0.500000059604645 0.629494488239288
vt 0.625000059604645 0.629494488239288
vt 0.750000059604645 0.629494488239288
vt 0.875000059604645 0.629494488239288
vt 1 0.629494488239288
vt 0.125000059604645 0.629494488239288
vt 2.98023223876953e-08 0.629494488239288
vt 0.375000059604645 0.84846168756485
vt 0.250000059604645 0.84846168756485
vt 0.375000059604645 0.727356791496277
vt 0.250000059604645 0.727356791496277
vt 0.500000059604645 0.84846168756485
vt 0.500000059604645 0.727356791496277
vt 0.625000059604645 0.84846168756485
vt 0.625000059604645 0.727356791496277
vt 0.750000059604645 0.727484881877899
vt 0.750000059604645 0.84846168756485
vt 0.875000059604645 0.727356791496277
vt 0.875000059604645 0.84846168756485
vt 1 0.84846168756485
vt 1 0.727356791496277
vt 0.125000059604645 0.84846168756485
vt 2.98023223876953e-08 0.84846168756485
vt 0.125000059604645 0.727356791496277
vt 2.98023223876953e-08 0.727356791496277
vt 0.375000059604645 1
vt 0.250000059604645 1
vt 0.375000059604645 0.919114351272583
vt 0.250000059604645 0.91919356584549
vt 0.500000059604645 1
vt 0.500000059604645 0.919162094593048
vt 0.625000059604645 1
vt 0.625000059604645 0.919260919094086
vt 0.750000059604645 1
vt 0.750000059604645 0.919166386127472
vt 0.875000059604645 1
vt 0.875000059604645 0.919154763221741
vt 1 1
vt 1 0.919071674346924
vt 2.98023223876953e-08 1
vt 2.98023223876953e-08 0.919071674346924
vt 0.125000059604645 1
vt 0.125000059604645 0.919114351272583
vt 0.853553354740143 0.146446585655212
vt 1 0.494881302118301
vt 0.76500791311264 0.236956551671028
vt 0.856216728687286 0.494881302118301
vt 0.853553354740143 0.853553295135498
vt 0.761078774929047 0.757149457931519
vt 0.501234710216522 1
vt 0.501234591007233 0.869968473911285
vt 0.14644667506218 0.853553295135498
vt 0.238921478390694 0.761078596115112
vt 6.60994317058794e-08 0.494881302118301
vt 0.130031585693359 0.494881302118301
vt 0.14644667506218 0.146446585655212
vt 0.234992325305939 0.236956864595413
vt 0.501234591007233 -5.58221806556958e-08
vt 0.501234710216522 0.124137721955776
vt 0.501234829425812 0.494881242513657
vt 0 0
vt 1 0
vt 0 1
vn -0.691121584634113 0.0833311758772524 0.71791842877847
vn -0.541258770238242 -0.431341427349104 0.721791879070847
vn -0.549649764862685 -0.0302149440006898 0.834848604925126
vn -0.365576897930136 -0.41443156470936 0.83342666736332
vn -0.0799332503420094 -0.683983715923701 0.725104786800478
vn 0.0298543402746705 -0.553044002999472 0.832616988244345
vn 0.427128079209129 -0.540170683758995 0.725104982991056
vn 0.412171447623191 -0.369951021215686 0.832616922519399
vn 0.683983628098313 -0.0799332079843336 0.725104874314607
vn 0.553044073288271 0.0298544786510662 0.832616936595209
vn 0.540170829456109 0.427128271474566 0.72510476119789
vn 0.369950875839821 0.412171531532413 0.832616945575559
vn 0.0799332732294209 0.68398389048687 0.725104619613802
vn -0.0298543764604157 0.553044125752109 0.832616905411634
vn -0.427128165674385 0.540170835937982 0.725104818691544
vn -0.412072659373496 0.374179234157108 0.830774352109196
vn -0.396613180395692 -0.0694488953536528 0.915355032799062
vn -0.242673427827032 -0.334708527143698 0.910538197597429
vn 0.0650785023515404 -0.408270929873282 0.910538102636065
vn 0.334708526847936 -0.242673559096245 0.910538162720732
vn 0.408270508006487 0.0650788769724985 0.910538265019172
vn 0.242673363882925 0.33470850474171 0.910538222874424
vn -0.0650785013113977 0.408271045620377 0.910538050811226
vn -0.325876057528789 0.243835482802098 0.913427092030974
vn -0.939727649271788 0.110300080552639 -0.323644615935754
vn -0.739924913988821 -0.584197608147602 -0.333503037907089
vn -0.999311074152205 -0.019429431337469 -0.0316207886471551
vn -0.693001816666486 -0.719954691233964 -0.0375995301454484
vn -0.109468415075182 -0.932397350240566 -0.344458774551179
vn 0.0189270127982637 -0.998900035489261 -0.0429009007608048
vn 0.67523029141892 -0.647622021438495 -0.353057744424673
vn 0.724150936399986 -0.685159466693158 0.078497939538383
vn 0.927018210535923 0.148274754784076 -0.34445875577273
vn 0.995391776975764 -0.0612710336290679 -0.0737636141133126
vn 0.552817639224041 0.763654602457167 -0.333503082307711
vn 0.788704274858071 0.614304293923676 -0.0239958597999446
vn -0.149411791071536 0.934307367717505 -0.323644649758932
vn 0.115768941751916 0.992782097363009 -0.0313250583582406
vn -0.682903541722044 0.654981621425948 -0.32348389186747
vn -0.677389877795816 0.732028133845295 -0.0726482258471889
vn -0.362769770810838 -0.500352046045617 0.786158968277929
vn -0.610319516013345 -0.0972853060981092 0.786158799219747
vn -0.555350232260159 -0.612093908849162 0.562962846268154
vn -0.825507703273326 -0.040124051312882 0.562962780601559
vn 0.0972854303191922 -0.610319344255031 0.786158917188961
vn 0.0401240942843412 -0.825507628666394 0.562962886939671
vn 0.443427967189533 -0.425297429884971 0.788982721006865
vn 0.559380550381901 -0.516042170154365 0.648686271225787
vn 0.876023615962532 0.0182827228429795 0.48192153544055
vn 0.626015743348524 0.0130649947775821 0.779700965108583
vn 0.566634955095447 0.60238422229915 0.562190427158831
vn 0.362769707710844 0.500352108585099 0.786158957591805
vn -0.0972852972343712 0.61031949479722 0.78615881678735
vn -0.0401240429285052 0.825507674218267 0.562962823804396
vn -0.500352189175999 0.362769674082819 0.786158921817104
vn -0.612094030675417 0.555350154076924 0.562962790935829
vn -0.397082512509171 -0.554028454440108 -0.731695257556115
vn -0.670777443133732 -0.0993131161767487 -0.73497926959761
vn -0.571176476860648 -0.508076624558021 -0.644682538819522
vn -0.806053242626682 0.024957262186456 -0.591316586199954
vn 0.113727669166144 -0.658195006403473 -0.744207868012404
vn -0.0755264125441164 -0.790652933800509 -0.607588429186126
vn 0.470110557502347 -0.451164725016427 -0.75858187074678
vn 0.578325156385184 -0.554176457468505 -0.598688957205418
vn 0.660404013007696 -0.0857817593222796 -0.74599465773617
vn 0.786891588873318 0.113082120989831 -0.606641625074365
vn 0.529077466310408 0.417837732602071 -0.738572043782135
vn 0.474823490360086 0.636752284306918 -0.607527103454807
vn 0.0869038675199812 0.682670873023835 -0.725539934762343
vn -0.119379336996783 0.777611669268039 -0.61730759408611
vn -0.498516191396279 0.467197720675758 -0.730210857705584
vn -0.582293523304565 0.52884635669508 -0.617459135269611
vn -0.0552954921150387 0.00646206001958737 0.998449122555606
vn -0.043669197071997 -0.0345304553204317 0.998449121829676
vn -0.0549777355414006 -0.0087634935503768 0.99844912227691
vn -0.0326784140281166 -0.0450718459786817 0.998449122367625
vn -0.00646207668064414 -0.0552954730449359 0.998449123503902
vn 0.00876348555636222 -0.0549777056556077 0.998449123992679
vn 0.0345304361811777 -0.0436691664680887 0.998449123830113
vn 0.0450718345553844 -0.0326783891073711 0.998449123698929
vn 0.055295472188658 -0.00646205797188064 0.998449123672409
vn 0.0549777047152252 0.00876348742163021 0.998449124028088
vn 0.0436691642521469 0.03453042738558 0.998449124231219
vn 0.0326783903041059 0.0450718310808424 0.998449123816608
vn 0.00646206785974248 0.0552954749939928 0.99844912345305
vn -0.0087634787492735 0.054977712316285 0.998449123685668
vn -0.0345304373522245 0.0436691672098546 0.998449123757171
vn -0.0450718472186215 0.0326783872082797 0.998449123189443
vn 0.849037154643681 0.0177196280325455 0.528035912431105
vn 0.587830324316007 0.612889561471406 0.52803588443772
vn 0.745286207696807 0.327089534897093 0.580999918053106
vn -0.0177195104295487 0.849037150493045 0.528035923051442
vn -0.612889595248181 0.587830248413374 0.528035929730914
vn -0.849037177712019 -0.0177196699791052 0.528035873931536
vn -0.587830370285403 -0.612889546012188 0.528035851206242
vn 0.0177195189513277 -0.849037155016071 0.528035915492829
vn 0.612889589523406 -0.587830267022492 0.528035915659246
vn 0.348471934807694 -0.794006566936891 0.498117337895876
vn -0.613159876311948 -0.635436834496937 -0.469313323319964
vn 0.157128965873945 -0.886394624663832 -0.435448111088392
vn 0.658750855115267 -0.631504228507765 -0.408961758923395
vn 0.894620840746394 -0.119352909932252 -0.430590796688595
vn 0.70070838905745 0.550895300134527 -0.453345477306439
vn 0.114283110398535 0.867881133315523 -0.483447731520792
vn -0.640225035137655 0.595251749834903 -0.485579302175736
vn -0.888645370502538 -0.0189944609134874 -0.458201501458706
vn 0 -0.99999999999999 -1.40727948405582e-07
vn 0 -1 0
vn 0.133972054847705 -0.946102378120935 0.294858913098781
vn 0.0868968495015549 -0.991704439339085 -0.0947166434258282
vn -2.02178274122389e-09 -1 0
vn 0.000422352286492783 -0.999999885133252 0.000226609860948873
vn 0 0 1
vn 0.500000171235842 0.866025304921357 0
vn 2.16118110074598e-07 0.999999999999977 0
vn -0.866025333378226 0.500000121947118 0
vn -0.999999999999987 1.64072389432232e-07 0
vn -0.866025509125911 -0.499999817543174 0
vn -7.20393700248676e-08 -0.999999999999997 0
vn 0.866025412803317 -0.499999984378844 0
vn 0.999999999999996 -8.95666096111779e-08 0
vn 0 -1.19979026713679e-09 -1
vn 0 -7.99860289113496e-10 -1
vn 0 1.33310085193017e-10 -1
vn 0 -3.9993000577887e-10 -1
vn 0 1.19979037815909e-09 -1
vn 0 1.59972046720469e-09 -1
vn 0 3.99930116801173e-10 -1
vn 0 -2.04764205591341e-07 0.999999999999979
vn 0 2.04764205591341e-07 0.999999999999979
g tallVaseA TallVaseA TallVaseA
f 1/1/1 2/2/2 3/3/3
f 3/3/3 2/2/2 4/4/4
f 2/2/2 5/5/5 4/4/4
f 4/4/4 5/5/5 6/6/6
f 5/5/5 7/7/7 6/6/6
f 6/6/6 7/7/7 8/8/8
f 7/7/7 9/9/9 8/8/8
f 8/8/8 9/9/9 10/10/10
f 9/9/9 11/11/11 10/10/10
f 10/10/10 11/11/11 12/12/12
f 11/11/11 13/13/13 12/12/12
f 12/12/12 13/13/13 14/14/14
f 13/15/13 15/16/15 14/17/14
f 14/17/14 15/16/15 16/18/16
f 15/16/15 1/1/1 16/18/16
f 16/18/16 1/1/1 3/3/3
f 3/3/3 4/4/4 17/19/17
f 17/19/17 4/4/4 18/20/18
f 4/4/4 6/6/6 18/20/18
f 18/20/18 6/6/6 19/21/19
f 6/6/6 8/8/8 19/21/19
f 19/21/19 8/8/8 20/22/20
f 8/8/8 10/10/10 20/22/20
f 20/22/20 10/10/10 21/23/21
f 10/10/10 12/12/12 21/23/21
f 21/23/21 12/12/12 22/24/22
f 12/12/12 14/14/14 22/24/22
f 22/24/22 14/14/14 23/25/23
f 14/17/14 16/18/16 23/26/23
f 23/26/23 16/18/16 24/27/24
f 16/18/16 3/3/3 24/27/24
f 24/27/24 3/3/3 17/19/17
f 17/19/25 18/20/26 25/28/27
f 25/28/27 18/20/26 26/29/28
f 18/20/26 19/21/29 26/29/28
f 26/29/28 19/21/29 27/30/30
f 19/21/29 20/22/31 27/30/30
f 27/30/30 20/22/31 28/31/32
f 21/23/33 29/32/34 20/22/31
f 20/22/31 29/32/34 28/31/32
f 22/24/35 30/33/36 21/23/33
f 21/23/33 30/33/36 29/32/34
f 23/25/37 31/34/38 22/24/35
f 22/24/35 31/34/38 30/33/36
f 24/27/39 32/35/40 23/26/37
f 23/26/37 32/35/40 31/36/38
f 24/27/39 17/19/25 32/35/40
f 32/35/40 17/19/25 25/28/27
f 33/37/41 34/38/42 35/39/43
f 35/39/43 34/38/42 36/40/44
f 37/41/45 33/37/41 38/42/46
f 38/42/46 33/37/41 35/39/43
f 39/43/47 37/41/45 40/44/48
f 40/44/48 37/41/45 38/42/46
f 41/45/49 42/46/50 40/44/48
f 40/44/48 42/46/50 39/43/47
f 41/45/49 43/47/51 42/46/50
f 42/46/50 43/47/51 44/48/52
f 45/49/53 44/48/52 46/50/54
f 46/50/54 44/48/52 43/47/51
f 47/51/55 45/52/53 48/53/56
f 48/53/56 45/52/53 46/54/54
f 34/38/42 47/51/55 36/40/44
f 36/40/44 47/51/55 48/53/56
f 49/55/57 50/56/58 51/57/59
f 51/57/59 50/56/58 52/58/60
f 53/59/61 49/55/57 54/60/62
f 54/60/62 49/55/57 51/57/59
f 55/61/63 53/59/61 56/62/64
f 56/62/64 53/59/61 54/60/62
f 55/61/63 56/62/64 57/63/65
f 57/63/65 56/62/64 58/64/66
f 57/63/65 58/64/66 59/65/67
f 59/65/67 58/64/66 60/66/68
f 59/65/67 60/66/68 61/67/69
f 61/67/69 60/66/68 62/68/70
f 61/69/69 62/70/70 63/71/71
f 63/71/71 62/70/70 64/72/72
f 50/56/58 63/71/71 52/58/60
f 52/58/60 63/71/71 64/72/72
f 50/73/73 49/74/74 65/75/75
f 65/75/75 49/74/74 66/76/76
f 49/74/74 53/77/77 66/76/76
f 66/76/76 53/77/77 67/78/78
f 53/77/77 55/79/79 67/78/78
f 67/78/78 55/79/79 68/80/80
f 55/79/79 57/81/81 68/80/80
f 68/80/80 57/81/81 69/82/82
f 57/81/81 59/83/83 69/82/82
f 69/82/82 59/83/83 70/84/84
f 59/83/83 61/85/85 70/84/84
f 70/84/84 61/85/85 71/86/86
f 61/85/85 63/87/87 71/86/86
f 71/86/86 63/87/87 72/88/88
f 63/87/87 50/73/73 72/88/88
f 72/88/88 50/73/73 65/75/75
f 65/75/89 66/76/90 73/89/91
f 66/76/90 67/78/92 73/89/91
f 67/78/92 68/80/93 73/89/93
f 68/80/93 69/82/94 73/89/93
f 69/82/94 70/84/95 73/89/95
f 70/84/95 71/86/96 73/89/95
f 71/86/96 72/88/97 73/89/98
f 72/88/97 65/75/89 73/89/91
f 26/29/28 27/30/30 35/39/43
f 35/39/43 27/30/30 38/42/46
f 27/30/30 28/31/32 38/42/46
f 38/42/46 28/31/32 40/44/48
f 29/32/34 41/45/49 28/31/32
f 28/31/32 41/45/49 40/44/48
f 29/32/34 30/33/36 41/45/49
f 41/45/49 30/33/36 43/47/51
f 30/33/36 31/34/38 43/47/51
f 43/47/51 31/34/38 46/50/54
f 31/36/38 32/35/40 46/54/54
f 46/54/54 32/35/40 48/53/56
f 32/35/40 25/28/27 48/53/56
f 48/53/56 25/28/27 36/40/44
f 25/28/27 26/29/28 36/40/44
f 36/40/44 26/29/28 35/39/43
f 51/57/59 33/37/99 54/60/62
f 54/60/62 33/37/99 37/41/100
f 54/60/62 37/41/100 56/62/64
f 56/62/64 37/41/100 39/43/101
f 58/64/66 56/62/64 42/46/102
f 42/46/102 56/62/64 39/43/101
f 60/66/68 58/64/66 44/48/103
f 44/48/103 58/64/66 42/46/102
f 62/68/70 60/66/68 45/49/104
f 45/49/104 60/66/68 44/48/103
f 64/72/72 62/70/70 47/51/105
f 47/51/105 62/70/70 45/52/104
f 64/72/72 47/51/105 52/58/60
f 52/58/60 47/51/105 34/38/106
f 51/57/59 52/58/60 33/37/99
f 33/37/99 52/58/60 34/38/106
g pPlane6 flowers TallVaseA TallVaseA
f 74/90/107 75/91/107 76/67/107 77/92/107
g pPlane7 flowers TallVaseA TallVaseA
f 78/90/108 79/91/108 80/67/108 81/92/108
g pPlane9 flowers TallVaseA TallVaseA
f 82/90/108 83/91/108 84/67/108 85/92/108
g pPlane11 flowers TallVaseA TallVaseA
f 86/90/109 87/91/109 88/67/109 89/92/109
g pPlane13 flowers TallVaseA TallVaseA
f 90/90/108 91/91/108 92/67/108 93/92/108
g pPlane16 flowers TallVaseA TallVaseA
f 94/90/110 95/92/110 96/67/110 97/91/110
g pPlane17 flowers TallVaseA TallVaseA
f 98/90/111 99/91/111 100/67/111 101/92/111
g pPlane18 flowers TallVaseA TallVaseA
f 102/90/112 103/92/112 104/67/112 105/91/112
g shadow TallVaseA TallVaseA
f 106/90/113 107/91/113 108/67/113 109/92/113
g pCylinder1 VaseTallAColl TallVaseA
f 110//114 111//115 112//115 113//114
f 111//116 114//117 115//117 112//116
f 114//117 116//118 117//118 115//117
f 116//119 118//119 119//119 117//119
f 118//120 120//121 121//121 119//120
f 120//121 110//114 113//114 121//121
f 111//122 110//123 122//124
f 114//125 111//122 122//124
f 116//126 114//125 122//124
f 118//127 116//126 122//124
f 120//128 118//127 122//124
f 110//123 120//128 122//124
f 113//129 112//129 123//113
f 112//129 115//113 123//113
f 115//113 117//130 123//113
f 117//130 119//130 123//113
f 119//130 121//113 123//113
f 121//113 113//129 123//113
