v -2.10566725012187 2.09726109768353 2.03582379240959
v -2.10566725012187 -0.0566465210356313 2.05037332495338
v -2.04653243981737 -0.0566465210356313 0.581419943983634
v -2.04653243981737 2.09726109768353 0.566870411439848
v -3.23552578309609 2.09726109768353 0.570775404806444
v -3.23552578309609 -0.0566465210356313 0.58532493735023
v -3.22469132305968 -0.0566465210356313 2.04096227681992
v -3.22469132305968 2.09726109768353 2.02641274427613
v -2.10566725012187 2.09726109768353 2.05362647342689
v -3.22469132305968 2.09726109768353 2.04421542529343
v -0.406319313781457 2.13566366772754 1.54771403920859
v -0.274220676016905 -0.047461516786696 1.54144692117648
v -0.274220676016905 -0.047461516786696 1.54664203370719
v -0.406319313781457 2.13566366772754 1.5529091517393
v -2.09162531257301 -0.047461516786696 1.59146095409732
v -2.09162531257301 2.09201549368032 1.57691142155353
v -0.421742327766252 2.13566366772754 2.07861818369895
v -0.271050467944602 -0.047461516786696 2.07235106566684
v -2.10566725012187 2.09201549368032 2.06406865115516
v -0.399791642946009 1.78859838099769 0
v -0.395876883347304 1.77629067325086 2.07861818369895
v -0.421742327766252 2.13473482392858 2.07861818369895
v -0.425657087364957 2.1470425316754 0
v -0.101543595681689 1.79940073135193 -2.06872974290286e-14
v -0.139272419641292 1.7870930236051 2.07861818369893
v -0.108990423306344 2.14185589209069 0
v -0.146719247265946 2.12954818434386 2.07861818369895
v -3.53192056339098 0.0312525241440861 0.0144253330460758
v -3.51463682804333 0.0312525241440863 2.03027924065807
v -3.47900012916922 0.395673131813367 2.03027924065807
v -3.49628386451687 0.395673131813367 0.0144253330460758
v -3.21053129106753 0.384510035237089 0.0144253330460758
v -3.19324755571989 0.384510035237089 2.03027924065807
v -3.19548361317596 0.00879188124956899 2.03027924065807
v -3.2127673485236 0.00389837781221742 0.0144253330460714
v -0.276471335817001 0.0273541463318689 2.06872974290286e-14
v -0.272556576218296 0.0351509019563037 2.07861818369897
v -0.303654706405505 0.399571509625585 2.07861818369897
v -0.30756946600421 0.39177475400115 2.06872974290286e-14
v 0.00223605745607007 0.380611657424871 2.06872974290286e-14
v 0.00177614928367271 0.388408413049306 2.07861818369897
v -0.000459908172398 0.0126902590617864 2.07861818369895
v 0 0 0
v -3.51685130835467 1.73799291773893 0.013517194672775
v -3.49956757300703 1.73799291773893 2.04188219478803
v -3.48349758155429 2.10241352540821 2.04188219478803
v -3.50078131690194 2.10241352540821 -0.00192172576133066
v -3.21553476426862 1.73016341941998 0.0135171946727707
v -3.19825102892097 1.73016341941998 2.04188219478802
v -3.2363152155849 2.09125042883193 -0.00192172576133066
v -3.21903148023725 2.09125042883193 2.04188219478803
v -3.75081372789462 -0.206637717566607 2.50612930612148
v -2.4401306713576 -0.216253116631195 2.45813322411335
v -2.45865453460433 2.31300933369778 2.43027460424327
v -3.78482274299417 2.28398545141973 2.46434137631635
v -1.12944761482058 -0.225868515695782 2.43665889380786
v -1.13248632621448 2.34203321597582 2.42272958387282
v 0.181235441716446 -0.23548391476037 2.50612930612148
v 0.193681882175362 2.37105709825387 2.47545582306315
v 0.193681882175362 2.3410764093591 2.07285592364548
v 0.181235441716446 -0.195333070224682 2.07285592364548
v -3.78482274299417 2.25400476252496 2.03106799384036
v -3.75081372789462 -0.166486873030919 2.03265634800488
v -0.0873008683828343 0.647702246402414 2.76098027979555
v -0.237018766457349 1.12486486297941 2.49077551832057
v -1.36352559725483 0.663500386678592 2.50538096999019
v -1.20788331360487 0.206795136023022 2.6285654249395
v -0.386736664531863 1.60202747955641 2.49702506218443
v -1.51916788090478 1.12020563733416 2.48057365591933
v -0.536454562606377 2.07919009613341 2.55006331422198
v -1.67481016455474 1.57691088798973 2.46866805269609
v -1.40464801989655 0.600000025704503 3.08166024481567
v -1.39705461751323 0.600000025704503 2.4479825819475
v -1.73496102357107 0.600000025704503 2.4479825819475
v -1.72736762118775 0.600000025704503 3.07480983109427
v -1.98531624584819 0.962757055860742 2.43061794612085
v -3.79846206763337 0.962757055860742 2.43804887229877
v -3.8133239186316 0.962757055860742 3.64928983929878
v -2.00017809684643 0.962757055860742 3.64185891312087
v 0.200472453345204 -0.236907158262113 0
v 0.200472453345204 -0.236907158262113 2.86706107053814
v -3.76686157899786 -0.201405287142041 2.86706107053814
v -3.76686157899786 -0.201405287142041 0
v 0.209347920979082 2.39023130462323 0
v 0.209347920979082 2.39023130462323 2.86706107053814
v -3.79348798189949 2.28372569126301 0
v -3.79348798189949 2.28372569126301 2.86706107053814
vt 1 1
vt 0 1
vt 0 0
vt 1 0
vt 0.000738696777261794 -0.00738459918648005
vt 0.000738696777261794 0.992615401744843
vt 0.058929406106472 1.0089898109436
vt 0.971059679985046 -0.0207039806991816
vt 1.01773929595947 0.988258898258209
vt 0.0263209939002991 0.964946806430817
vt 0.0514321103692055 -0.0222322270274162
vt 1.00257360935211 0.385063201189041
vt -0.00552624557167292 0.402088582515717
vt -0.00496687740087509 0.0765554830431938
vt 1.00254428386688 0.0592126399278641
vt 0.0132538555189967 0.995660722255707
vt 0.0229020193219185 0.99573415517807
vt 0.0393038205802441 -0.00486971205100417
vt 0.943573594093323 -0.00632333476096392
vt 0.998723447322845 0.99400520324707
vt -0.0025778990238905 0.999999940395355
vt 0.997422099113464 0.999999940395355
vt -0.0505285747349262 0.000895325152669102
vt -0.0505922064185143 1.00089776515961
vt 0.881365060806274 1.00093865394592
vt 0.88142865896225 0.000936235941480845
vt 0.99993634223938 1.00000238418579
vt -6.36337135802023e-05 1.00000238418579
vt 1.05558204650879 0.991536557674408
vt 0.0684385597705841 0.991536438465118
vt 0.0128565020859241 1
vt 0.0106803001835942 1.00264966487885
vt 0.882036149501801 0.998152196407318
vt 0.883819818496704 -0.00456156022846699
vt 1.58946459123399e-05 0.992446660995483
vt 0.986702919006348 -0.0050356057472527
vt 0.0132970800623298 1.0050356388092
vt 0.982402741909027 1.0075079202652
vt -0.0174849703907967 0.999897360801697
vt 0.0939813107252121 0.980449378490448
vt 0.367981284856796 0.996319234371185
vt 0.359218746423721 0.0179120749235153
vt 0.082023411989212 0.0167492683976889
vt 0.641981899738312 1.01221990585327
vt 0.636413991451263 0.0190743561834097
vt 0.915982365608215 1.02811753749847
vt 0.913609266281128 0.0202356483787298
vt 1.00311172008514 -0.000729834369849414
vt -0.00302820350043476 0.973804831504822
vt 1 0.333333343267441
vt 1 0.666666686534882
vt -0.0442010723054409 0.99146044254303
vt 1.02491879463196 1.01793026924133
vt 1.00259625911713 -0.00288662523962557
vt 0.96070671081543 1.01508736610413
vt 0.948511183261871 -0.0165444668382406
vt -0.00117687473539263 -0.0195321943610907
vt 0.0539037995040417 1.00033223628998
vt 0.0335667841136456 1.0107741355896
vt 0.019695196300745 0.688858926296234
vt 1 0.666677713394165
vt 0.999989986419678 0.992795169353485
vt 0.0196958221495152 0.68930846452713
vt 0.00984791107475758 0.344654232263565
vt 0.0384615398943424 0.913939774036407
vt 0.961538434028625 0.898053824901581
vt -5.02916918776464e-05 -0.00613558618351817
vt -5.02916918776464e-05 0.993864417076111
vn 0.999190656801895 0.000271709940331405 0.0402238428485746
vn -0.999972299988819 5.02763825720044e-05 0.00744289777953142
vn 0 1 0
vn -0.998174344513055 -0.0603984929938982 0
vn -0.0196127982015354 -0.00251506352616096 -0.999804487188453
vn 0.997845144088673 0.0645947375934937 0.0115146990357161
vn -0.0259045023711387 0.999664138036047 -0.000753579160285888
vn -0.997405516127979 -0.0719731006679368 0.00145230083768322
vn 0.038907641963397 -0.999227118700315 -0.00560005809927612
vn 0.999596739430514 0.0217366401973532 0.0182723012457852
vn 0.0175286032371104 0.99982798133946 0.006062656118984
vn -0.99521634527066 0.0973222272961789 0.00853288815243684
vn 0.999945828715752 -0.00591259604534396 -0.00856626184355936
vn 0.0390358254147687 0.999237755650382 -0.000334689370592684
vn -0.996376264418976 -0.0850265822904999 0.00219545131691056
vn 0.999982487821093 -0.00591281280756758 0.00025039137245016
vn 0.036264675991205 0.999335076759452 -0.00377857558247125
vn -0.998985282764649 0.0442322591011016 0.00848009872865316
vn -0.0259755278757503 -0.999662554545827 0.0002213379491828
vn 0.998322643650577 0.0572720042319614 -0.00847447377580841
vn 0.042172378825335 0.999110285841466 -0.000356637066437126
vn 0.0309989928969859 0.0141904685280399 0.99941867755327
vn 0.0209724407755299 0.0112177459741336 0.999717119440883
vn -0.0177126316718178 0.00847263225857798 0.999807220008872
vn -0.0463543100526747 0.00869451089169418 0.998887222573147
vn 0.999988283029742 -0.00484048909101463 -5.88947254327696e-05
vn -0.0213050873305055 0.996816959977326 -0.0768247457229927
vn -0.999904074047587 -0.0138498581977729 -0.000155341364140353
vn 0.0103657885997665 -0.000275324370193584 -0.999946235866307
vn -0.181382632472571 0.330808802547991 0.926102519591694
vn -0.0963252284050512 0.177013657407462 0.979483341085467
vn -0.0145129284168096 -0.0168079689109537 0.999753403139923
vn -0.0209903349236377 -0.0508422997778855 0.998486087230608
vn -0.00894818774614455 -0.999959964166596 0
vn 0.999994293328804 -0.00337835904345686 0
vn -0.0265981256868353 0.999646207270326 0
vn -0.999942606984022 -0.0107136706127064 0
g cabinet desk g1
f 1/1/1 2/2/1 3/3/1 4/4/1
f 5/4/2 6/5/2 7/6/2 8/1/2
f 9/7/3 4/3/3 5/4/3 10/1/3
g draw desk g1
f 11//4 12//4 13//4 14//4
f 14/8/5 13/9/5 15/10/5 16/11/5
f 17/12/6 18/13/6 12/14/6 11/15/6
f 11/16/7 14/17/7 16/18/7 19/19/7 17/20/7
g leg_L desk g1
f 20/3/8 21/21/8 22/22/8 23/4/8
f 24/23/9 25/24/9 21/25/9 20/26/9
f 26/3/10 27/2/10 25/1/10 24/4/10
f 23/4/11 22/27/11 27/28/11 26/3/11
g leg2 desk g1
f 28/4/12 29/1/12 30/2/12 31/3/12
f 32/4/13 33/29/13 34/30/13 35/3/13
f 31/3/14 30/2/14 33/1/14 32/4/14
g leg_L2 desk g1
f 36/4/15 37/1/15 38/2/15 39/3/15
f 40/4/16 41/1/16 42/31/16 43/3/16
f 39/3/17 38/32/17 41/33/17 40/34/17
g leg1 desk g1
f 44/3/18 45/35/18 46/1/18 47/4/18
f 48/36/19 49/1/19 45/37/19 44/3/19
f 50/4/20 51/38/20 49/39/20 48/3/20
f 47/4/21 46/1/21 51/2/21 50/3/21
g top desk g1
f 52/40/22 53/41/23 54/42/23 55/43/22
f 53/41/23 56/44/24 57/45/24 54/42/23
f 56/44/24 58/46/25 59/47/25 57/45/24
f 60/3/26 59/48/26 58/1/26 61/49/26
f 62/3/27 55/4/27 54/50/27 57/51/27 59/1/27 60/2/27
f 63/52/28 52/53/28 55/54/28 62/3/28
f 62/55/29 60/56/29 61/57/29 63/58/29
g stuff_on_desk desk g1
f 64/59/30 65/60/31 66/61/31 67/62/30
f 65/63/31 68/64/32 69/50/32 66/61/31
f 68/64/32 70/3/33 71/4/33 69/50/32
g ink_b ink desk g1
f 72/65/3 73/3/3 74/4/3 75/66/3
g tel o16 desk g1
f 76/4/3 77/67/3 78/68/3 79/1/3
g collision desk g1
f 80//34 81//34 82//34 83//34
f 84//35 85//35 81//35 80//35
f 86//36 87//36 85//36 84//36
f 83//37 82//37 87//37 86//37
