v 4.57585511298984 -0.0657785686212308 11.6978045922473
v -5.30626753422864 0.0529966109674156 11.6978045922473
v -5.30626753422864 0.0529966109674156 24.5958801068681
v 4.57585511298984 -0.0657785686212308 24.5958801068681
v -3.11758924217195 3.18008341477223 11.7198980923338
v -3.11758924217195 -3.17252939632058 11.7198980923338
v 3.13162787273818 -3.17252939632058 11.7198980923338
v 3.13162787273818 3.18008341477223 11.7198980923338
v -4.12744496015046 3.79886034595972 10.5774224777457
v 4.10900035996273 3.82056354787799 10.6011657703719
v 4.10900035996273 -3.80382559843606 10.5774224777457
v -4.12744496015046 -3.816811951668 10.656384739607
v -4.76761183691166 -4.1704283556551 1.3146751467483
v -4.76761183691166 -3.36887072935199 1.37856617245609
v -4.76761183691166 3.39403038542351 1.29362795393243
v -4.76761183691166 4.27014265241984 1.20868973540877
v -4.8458698580872 4.31112344573584 0.00933073837914575
v -4.8458698580872 -4.30324548262542 0.00933073837914575
v -3.40798407746581 -4.1869872259285 1.43276570115694
v -3.40798407746581 -3.43465239238037 1.46350439097976
v -3.40798407746581 3.44195851530046 1.46350439097976
v -3.40798407746581 4.27014265241984 1.20868973540877
v -3.03407404736797 3.35963269097033 4.62641241589457
v -3.15638679084343 -3.09442696241984 7.61941918247446
v -3.12738319215501 -3.21866725972993 10.5774224777457
v -3.12738319215501 3.22664716953162 10.5774224777457
v -3.97006678635615 -3.88174368810951 11.3986469583416
v -3.97006678635615 3.88945074350513 11.3986469583416
v -3.67872828081721 -3.7761399063265 11.3986469583416
v -3.6647470060421 3.91641953014075 11.3986469583416
v -3.67872828081721 3.64566715651965 11.3986469583416
v -3.67872828081721 -3.63812308379237 11.3986469583416
v 3.69438606965811 -3.63812308379237 11.3986469583416
v 3.69438606965811 3.64566715651965 11.3986469583416
v 3.98572457519705 -3.88174368810951 11.3986469583416
v 3.98572457519705 3.88945074350513 11.3986469583416
v 3.69438606965811 3.85868995252178 11.3986469583416
v 3.69438606965811 -3.7761399063265 11.3986469583416
v 3.39015471976341 -3.43465239238037 1.46350439097976
v 2.88918926810734 3.44195851530046 1.46350439097975
v 2.91592572444214 3.28648587243234 4.62210961533831
v 3.07163473125404 -3.11815073997456 8.43795589407827
v 3.10361701688861 3.22664716953162 10.5774224777457
v 3.10361701688861 -3.21866725972993 10.5774224777457
v 4.74860493817104 -4.1920851833936 1.27243087058735
v 3.02319315925642 -4.1869872259285 1.39643586559434
v 4.74556781976787 -3.27278677892131 1.33943813315975
v 4.73130079140669 2.45036778698833 1.35886052468466
v 4.74978247920925 4.27014265241984 1.20868973540877
v 3.39015471976341 4.27014265241984 1.20868973540877
v 4.80267908329307 -4.30324548262542 0.00933073837914575
v 4.80267908329307 4.31112344573584 0.00933073837914575
v 4.74978247920925 4.27014265241984 20
v 4.73011218773685 4.24522205813774 -2
v -4.78728212838406 4.24522205813774 -2
v -4.76761183691166 4.27014265241984 20
v -4.76761183691166 -4.1704283556551 20
v -4.78728212838406 -4.27449436526819 -2
v 4.73066370915486 -4.26592182535542 -2
v 4.74860493817104 -4.1920851833936 20
v 4.73145774223803 -4.26592182535542 -2
v 4.73090622082003 4.24522205813774 -2
v -4.78648809530088 4.24522205813774 -2
v -4.78648809530088 -4.27449436526819 -2
v -6.92686067245814 -6.62470011990963 0.025
v 6.89728232970338 -6.62470011990963 0.025
v 6.89728232970338 6.62508503053364 0.025
v -6.92686067245814 6.62508503053364 0.025
vt 0 0
vt 1 0
vt 1 1
vt 0 1
vt 0.0351055711507797 0.0112413903698325
vt 0.0534443408250809 0.993487179279327
vt 0.954975426197052 0.993617057800293
vt 0.935731589794159 0.0112433172762394
vt -0.0119456592947245 1
vt -0.0119456592947245 0.666666686534882
vt -0.0119456592947245 0.333333343267441
vt -0.0119456592947245 0
vt 1.02446782588959 0
vt 1.02446782588959 1
vt 0.10917092114687 0.7662553191185
vt 0.178643316030502 0.766257286071777
vt 0.110568292438984 0.872392237186432
vt 0.184578269720078 0.872393429279327
vt 0.813837468624115 0.766275644302368
vt 0.80950927734375 0.872403264045715
vt 0.890524983406067 0.872404515743256
vt 0.890554010868073 0.766277849674225
vt 0.00110055285040289 0.333427011966705
vt 0.970495223999023 0.661297619342804
vt 0.969526350498199 0.896222174167633
vt 0.0272155664861202 0.906091868877411
vt 0.0795103684067726 0.20004615187645
vt 0.950105845928192 0.252992421388626
vt 0.935505092144012 0.999626696109772
vt 0.935505092144012 -0.000242609879933298
vt 0.905056834220886 0.0996565669775009
vt 0.0343953669071198 0.0996565669775009
vt 0.0272083301097155 0
vt 0.943845629692078 0
vt 0.0435611978173256 0
vt 0.920130908489227 0
vt 0.882460236549377 0.0982347801327705
vt 0.0800771191716194 0.0982347801327705
vt 0.0644948855042458 -0.000242609879933298
vt 0.0644948855042458 0.999626696109772
vt 0.101835012435913 0
vt 0.887733459472656 0
vt 0.952434003353119 0.9715616106987
vt 0.101835012435913 1
vt 0.988546192646027 0.330748617649078
vt 0.0242065005004406 0.752200901508331
vt 0.110257223248482 0.130706384778023
vt 0.179731667041779 0.236421063542366
vt 0.110319562256336 0.264979332685471
vt 0.194986045360565 0.130951747298241
vt 0.722782373428345 0.132118180394173
vt 0.814065992832184 0.275474309921265
vt 0.890727996826172 0.130698531866074
vt 0.890699028968811 0.236488059163094
vt 0 -0.0191552247852087
vt 1 -0.0191552247852087
vt 1 1.01048839092255
vt 0.666666686534882 1.01048839092255
vt 0.333333343267441 1.01048839092255
vt 0 1.01048839092255
vt 0.109280809760094 0.101777493953705
vt 0.0194661263376474 0
vt 0.91018533706665 0.101777493953705
vt 0.116540908813477 0.859205365180969
vt 0.0615457855165005 0.850965321063995
vt 0.0824155285954475 0
vt 0.913601636886597 0.0135780647397041
vt 0.914031207561493 0.992981672286987
vt 0.85906445980072 0.982903063297272
vt 0.0096536697819829 0.6565802693367
vt 0.984422564506531 0.749655187129974
vt 0.140889808535576 1.01461398601532
vt -0.00196734629571438 1.01461398601532
vt -0.00196734629571438 -0.0232194047421217
vt 0.998032689094543 -0.0232194047421217
vt 0.998032689094543 1.01461398601532
vt 0.85517555475235 1.01461398601532
vt 0.0915977358818054 0.101777493953705
vt 0.908402264118195 0.101777493953705
vt 0.0634294226765633 -0.123739190399647
vt 0.0325291939079762 -0.162367984652519
vt 0.0366498194634914 -0.832587480545044
vt 0.952328205108643 -0.80190646648407
vt 0.915684401988983 -0.0932012796401978
vt 0.881902933120728 -0.0596382096409798
vt 0.0112066157162189 0.346778869628906
vt 0.956087529659271 0.347061216831207
vt 0.010508387349546 1
vt 0.142857149243355 1.01635074615479
vt 0 1.01635074615479
vt 0 -0.0271180365234613
vt 1 -0.0271180365234613
vt 1 1.01635074615479
vt 0.857142865657806 1.01635074615479
vt 0.935505092144012 0.940458536148071
vt 0.0644948855042458 0.940458536148071
vt 0.935505092144012 0.0595611594617367
vt 0.0644948855042458 0.0595611594617367
vn 0.0120183290130526 0.999927777275806 0
vn -0.177777596224625 0.203212954719323 0.962860125519193
vn -0.177777355127906 -0.203209738295472 0.962860848859072
vn 0.177366203019683 -0.203180519866767 0.962942836503316
vn 0.177366443568965 0.20318373583978 0.962942113621524
vn -0.00334444092484555 -0.00362323328956459 -0.999987843373823
vn -0.998243283120738 0.000368182021399728 0.0592470433551696
vn -0.0421502206078588 -0.0531575488611823 0.997696163118702
vn -0.0609365668673547 -0.0448771771327122 0.997132274972092
vn -0.0764803069714173 -0.0599907453457168 0.995264725145236
vn -0.0796957636292864 -0.0365785165889043 0.996147879274809
vn -0.0555347557139788 0.17420323992961 0.98314247294368
vn -0.110120930917992 0.05101804477571 0.992607948628772
vn -0.0638173693663362 0.196284983026201 0.978467960030151
vn 0 0.29407400656532 0.955782652417703
vn -0.99943231171237 0.0159590363204009 0.0296709195171374
vn -0.997510806422166 0.0240360630790909 0.0662907138493679
vn -0.999944677528155 0.00785950827994405 -0.00699070902781958
vn -0.980334327357918 0.00101271520352615 0.197341280556339
vn 0 0 1
vn 0.988598393609596 -0.000232220650364816 0.150576101112014
vn 0.997966993989888 0.0573377790176585 0.0278254919832517
vn 0.999527583631701 0.0307320305375061 0.000389690151967018
vn 0.999625839915898 0.00408132034330185 -0.027046681805563
vn 0.0851475499901125 -0.0974323699586207 0.991593075820383
vn 0.0612659946041181 -0.0648342893653286 0.996013550524119
vn 0.0367976523914605 -0.094245422792691 0.994868701417983
vn 0.0856391363924884 -0.0353347841297515 0.995699448301772
vn 0.0858503560470709 0.0411460068165219 0.995458046574363
vn 0.0433025249010143 0.169215871433587 0.984627279833424
vn 0.0502791433636892 0.188792659025799 0.980728983787357
vn 0.998871906386328 0.000170892472547238 0.0474856339107459
vn 0.000356184134785263 -0.999334570218225 0.0364731394263983
vn -0.00198413381498908 -0.999993719644115 0.00293664525134654
vn -0.00495629621214046 -0.998740539557848 0.0499276453636243
vn 0.000992430498708226 -0.999028355362521 -0.0440608699796312
vn -0.000966481075859793 -0.996444776881498 0.0842429376263161
vn -0.00119040784416765 0.995393359150702 -0.0958678438677244
vn 0.0059959238868085 0.999626049374278 0.0266797734082728
vn 0.00598137721555968 0.999289510676345 0.0372115167500027
vn 0.00600980482410629 0.999851598504639 0.0161450677822813
vn 0 0.999416753351697 0.0341489841716205
vn 0 0.999999358434482 -0.0011327535588137
vn -0.000687404958191622 -0.999991587560131 0.00404379566648225
vn 0.999999664240763 -3.68824427086516e-05 -0.000818631814066239
vn -0.999999631908126 0 0.00085801142913756
g p47 billboard g1
f 1/1/1 2/2/1 3/3/1 4/4/1
g o2 base g1
f 5/1/2 6/2/3 7/3/4 8/4/5
g o3 base g1
f 9/5/6 10/6/6 11/7/6 12/8/6
g o1 base g1
f 13/9/7 14/10/7 15/11/7 16/12/7 17/13/7 18/14/7
f 19/15/8 20/16/9 13/17/10
f 20/16/9 14/18/11 13/17/10
f 20/16/9 21/19/12 15/20/13 14/18/11
f 21/19/12 16/21/14 15/20/13
f 21/19/12 22/22/15 16/21/14
f 23/23/16 21/1/17 20/2/17 24/24/16
f 25/3/18 26/4/18 23/23/16 24/24/16
f 27/25/19 28/26/19 9/27/19 12/28/19
f 29/29/20 30/30/20 28/2/20 27/3/20
f 6/31/3 5/32/2 31/33/2 32/34/3
g base g1
f 33/35/4 34/36/5 8/37/5 7/38/4
f 35/4/20 36/1/20 37/39/20 38/40/20
f 11/41/21 10/42/21 36/43/21 35/44/21
f 39/1/22 40/2/22 41/45/23 42/46/23
f 41/45/23 43/3/24 44/4/24 42/46/23
f 45/47/25 39/48/26 46/49/27
f 45/47/25 47/50/28 39/48/26
f 47/50/28 48/51/29 40/52/30 39/48/26
f 48/51/29 49/53/31 40/52/30
f 49/53/31 50/54/15 40/52/30
f 51/55/32 52/56/32 49/57/32 48/58/32 47/59/32 45/60/32
f 6/61/3 32/62/3 33/2/4 7/63/4
f 29/64/33 27/65/33 12/66/33 11/67/33 35/68/33 38/69/33
f 24/70/34 20/1/35 39/2/35 42/71/34
f 25/4/36 24/70/34 42/71/34 44/3/36
f 19/72/37 13/73/37 18/74/37 51/75/37 45/76/37 46/77/37
f 8/78/5 34/1/5 31/2/2 5/79/2
f 37/80/38 36/81/38 10/82/38 9/83/38 28/84/38 30/85/38
f 41/86/39 40/1/40 21/2/40 23/87/39
f 43/88/41 41/86/39 23/87/39 26/3/41
f 50/89/42 49/90/42 52/91/42 17/92/42 16/93/42 22/94/42
f 32/95/3 29/29/20 38/40/20 33/96/4
f 37/39/20 30/30/20 31/97/2 34/98/5
f 19/15/8 46/49/27 39/48/26 20/16/9
f 50/54/15 22/22/15 21/19/12 40/52/30
g colli g1
f 53//43 54//43 55//43 56//43
f 57//44 58//44 59//44 60//44
f 61//45 62//45 53//45 60//45
f 57//46 56//46 63//46 64//46
g shadow g1
f 65/1/20 66/2/20 67/3/20 68/4/20
