v 1.55334350476232 -3.67855011864231 0.000610028817497735
v 6.18474039917587 -3.67855011864231 0.000610028817497735
v 6.18474039917587 0 2.93847198728588
v 1.55334350476232 0 2.93847198728588
v 6.18474039917587 -4.53391258898173 0
v 8.00895211683573 -4.53391258898173 0
v 8.02689965568431 -4.5 2.16317297014134
v 6.18474039917587 -4.5 2.16317297014134
v 8.02689965568431 -4.7 2.16317297014134
v 6.18474039917587 -4.7 2.16317297014134
v 8.02689965568431 -4.7 2.5958075641696
v 6.18474039917587 -4.7 2.5958075641696
v 8.02689965568431 -3 2.5958075641696
v 6.18474039917587 -3 2.5958075641696
v 7.49594186149486 -0.5 4.32634594028267
v 6.18474039917587 -0.5 4.32634594028267
v 6.18474039917587 -3.67855011864231 0
v 8.00895211683573 -3 0
v 7.49594186149486 0 4.32634594028267
v 7.74347321974101 -0.5 0
v 7.74347321974101 0 0
v 6.18474039917587 0 2.89088876550322
v 6.18474039917587 0 4.32634594028267
v -0.265478897094727 -4.53391258898173 0
v 1.55334350476232 -4.53391258898173 0
v 1.55334350476232 -4.5 2.16317297014134
v -0.288815751746119 -4.5 2.16317297014134
v 1.55334350476232 -4.7 2.16317297014134
v -0.288815751746119 -4.7 2.16317297014134
v 1.55334350476232 -4.7 2.5958075641696
v -0.288815751746119 -4.7 2.5958075641696
v 1.55334350476232 -3 2.5958075641696
v -0.288815751746119 -3 2.5958075641696
v 1.55334350476232 -0.5 4.32634594028267
v 0.242142042443334 -0.5 4.32634594028267
v -0.265478897094727 -3 0
v 0 -0.5 0
v 0 0 0
v 0.242142042443334 0 4.32634594028267
v 1.55334350476232 -3.67855011864231 0
v 1.55334350476232 0 2.89088876550322
v 1.55334350476232 0 4.32634594028267
v 1.19573229239081 0.0737047946971396 10.0948071939929
v 1.19573229239081 0.0737047946971396 12.9285144224542
v 1.19573229239081 -1.08774380321088 12.9285144224542
v 1.19573229239081 -0.50701950425687 10.0948071939929
v -0.327160807594529 -1.08774380321088 12.9285144224542
v -0.128316627852716 -0.493313296152012 10.0948071939929
v -0.327160807594529 0.0737047946971396 12.9285144224542
v -0.128316627852716 0.059998586592281 10.0948071939929
v 6.57486172176298 0.0737047946971396 12.9285144224542
v 6.57486172176298 -1.08774380321088 12.9285144224542
v 8.09775482174831 0.0737047946971396 12.9285144224542
v 8.09775482174831 -1.08774380321088 12.9285144224542
v 3.88529700707689 0.0737047946971396 16.5338027060231
v 3.88529700707689 -1.08774380321088 16.5338027060231
v 7.8989106420065 0.059998586592281 10.0948071939929
v 7.8989106420065 -0.493313296152012 10.0948071939929
v 6.57486172176298 -0.50701950425687 10.0948071939929
v 6.57486172176298 0.0737047946971396 10.0948071939929
v 1.19573229239082 0.398565346840769 10.094807193993
v 6.5695423311554 0.398565346840769 10.1000003814698
v 6.5695423311554 0.0737047946971395 10.1000003814698
v 1.21613140463591 0.260609993913575 10.0797003715502
v 1.57374261700743 0.186905199216436 2.89003096736676
v 6.20513951142097 0.186905199216436 2.89003096736676
v 6.59526083400808 0.260609993913575 10.0797003715502
v 6.59479230038995 -0.113200404519296 10.0709818953349
v 6.20467097780284 -0.0394956098221566 2.8813124911515
v 1.5732740833893 -0.0394956098221566 2.8813124911515
v 1.21566287101778 -0.113200404519296 10.0709818953349
v 1.19573229239081 0.0737047946971396 7.89919710605828
v 1.55334350476232 0 3.89919710605828
v 6.18474039917587 0 3.89919710605828
v 6.57486172176298 0.0737047946971396 7.89919710605828
v 1.55334350476232 0 2.90381403133888
v 6.18474039917587 0 2.90381403133888
v 3.99596655919987 0.186905199216436 2.89003096736676
v 3.99102722049343 0.260609993913575 10.0797003715502
v 3.9905586868753 -0.113200404519296 10.0709818953349
v 3.99549802558175 -0.0394956098221566 2.8813124911515
vt 0 0
vt 1 0
vt 1 1
vt -0.102158069610596 1
vt -0.00524467974901199 -0.0113630248233676
vt 1.00737380981445 -0.0117559060454369
vt 1.00698101520538 0.988256335258484
vt -0.00563756143674254 0.988649189472198
vt 0.951461851596832 0.184511303901672
vt 0.951461851596832 0.198789298534393
vt 1.00583112239838 0.198789298534393
vt 1.00583112239838 0.184511303901672
vt -0.0423526838421822 -0.0133049841970205
vt 1.04109716415405 -0.043919276446104
vt 1.03315317630768 1.19960153102875
vt -0.0502966083586216 1.23021578788757
vt -0.00887631718069315 -0.000621739076450467
vt 0.946025311946869 0.00255118682980537
vt 0.957786858081818 0.400907188653946
vt 0.00288521405309439 0.397734254598618
vt 0.699855923652649 0.985810279846191
vt 0.0201815813779831 0.983551859855652
vt 0.735710024833679 0
vt 0.906782507896423 0
vt 0.899999976158142 0.16666667163372
vt 0.600000023841858 0.200000002980232
vt 0.939999997615814 0.16666667163372
vt 0.939999997615814 0.200000002980232
vt 0.815538704395294 0.239014610648155
vt 0.815538704395294 0
vt 1.00583112239838 0.239014610648155
vt 0 0.399915874004364
vt 0.135923117399216 0.399915874004364
vt 0.135923117399216 0
vt 0 0.222735211253166
vt 0.100000001490116 0.333333343267441
vt 0 0.333333343267441
vt -0.0173254422843456 -0.0156196216121316
vt 1.01418972015381 -0.0154367247596383
vt 1.01436698436737 0.998132169246674
vt -0.0171481333673 0.997949182987213
vt 0.951461851596832 0.203463837504387
vt 0.951461851596832 0.217741832137108
vt 1.00583112239838 0.217741832137108
vt 1.00583112239838 0.203463837504387
vt -0.0593832097947598 -0.298299014568329
vt 1.04059612751007 -0.222325757145882
vt 1.06961131095886 1.30629730224609
vt -0.0303680021315813 1.23032414913177
vt 0.0449487715959549 0.00182081037200987
vt 1.00170290470123 -0.00106088165193796
vt 0.993050336837769 0.397252589464188
vt 0.0362962670624256 0.400134265422821
vt 0.980326056480408 0.983007490634918
vt 0.299333155155182 0.985058605670929
vt 0.815538704395294 0.243689149618149
vt 1.00583112239838 0.243689149618149
vt 0.135923117399216 0.404590398073196
vt 0 0.404590398073196
vt -0.0147409588098526 0.777777791023254
vt -0.0147409588098526 0.996107280254364
vt 0.217548757791519 0.996107280254364
vt 0.101403899490833 0.777777791023254
vt 0.93244868516922 0.66901957988739
vt 1.01880657672882 1.00232625007629
vt -0.0570093058049679 1.00233578681946
vt -0.00292649865150452 0.668917179107666
vt 1.01173746585846 1.26193788219098e-06
vt 0.0854667276144028 9.39195979299257e-06
vt 1.19392347335815 0.676352024078369
vt 1.357137799263 1.00977230072021
vt 0.966715216636658 1.00142669677734
vt 0.981815814971924 0.672376155853271
vt 1.27732121944427 0.00661747995764017
vt 1.04615688323975 0.00302468845620751
vt 1 0.180760636925697
vt 0 0.180760636925697
vt 1 0.819239377975464
vt 0 0.819239377975464
vt 0 1
vt -0.0110795879736543 0.0126892095431685
vt 0.172084525227547 0.0128513490781188
vt 0.819052636623383 0.0134242260828614
vt 1.0022166967392 0.0135864773765206
vt 0.503403425216675 1.02718091011047
vt 0.5651975274086 0.672828257083893
vt 0.582109868526459 1.00181841850281
vt 0.191626191139221 1.01015996932983
vt 0.355356067419052 0.676802158355713
vt 0.502675414085388 0.00336121022701263
vt 0.27146178483963 0.00695222336798906
vt 0.994926333427429 0.67009711265564
vt 1.03843462467194 0.997716009616852
vt 0.00106386351399124 0.992227256298065
vt 0.0930045768618584 0.665326952934265
vt 0.907543361186981 0.00335406069643795
vt 0.0143736405298114 -0.00137170508969575
vt 0 0.0185433402657509
vt 1 0.0185433402657509
vt 1 0.954782724380493
vt 0 0.954782724380493
vt -0.00363567261956632 1.00321531295776
vt 0.0592229850590229 -0.00382685847580433
vt 0.926103055477142 -0.00382685847580433
vt 1.00320100784302 1.00321531295776
vt 1.00311052799225 1.00253081321716
vt 0.926011741161346 -0.00472304178401828
vt 0.0591316595673561 -0.00472304178401828
vt -0.00372614152729511 1.00253081321716
vt -0.0860931500792503 1.00460767745972
vt -0.00176915619522333 0.200178727507591
vt 0.998230814933777 0.200178727507591
vt 1.07535541057587 1.00460767745972
vt 7.66593584557995e-05 0.974592387676239
vt 0.0516503714025021 -0.000514373590704054
vt 0.503045976161957 0.00213915156200528
vt 0.51719468832016 0.977632224559784
vt 0.517081081867218 0.975929021835327
vt 0.502935528755188 0.000640960701275617
vt 0.0515399239957333 -0.00201256456784904
vt -3.69573281204794e-05 0.972889125347137
vn 0 -0.624050055437145 0.781384366562895
vn 0 -0.999877134668592 0.0156753171236373
vn 0 0 -1
vn 0 -1 0
vn 0 0 1
vn 0 -0.298137784062871 0.954522845045671
vn 0.00293620344804249 -0.885849013599934 0.46396433463504
vn -1 0 0
vn 0.998753482608069 0.0491967931896598 0.00843543230110774
vn 0.999992729566709 0.000538320874032127 -0.003775052894941
vn 0.999970918372554 0.00107663392041225 -0.00755005089734152
vn 0.997191297990619 0.0738194273855025 0.0126573043047006
vn 1 0 0
vn 0.999980182250835 0 -0.00629564179316112
vn 0.998780532021581 0.0489043510002568 0.00676855286829256
vn 0.996292526883448 0.0732726098064055 0.045081321280024
vn 0.998367236425658 0 0.0571214603436795
vn -0.9997467670703 0 0.0225033715803409
vn -0.999430063421155 0 0.0337571967139718
vn -0.00293618092070786 -0.885842213629378 0.463977317757889
vn -0.997181904778604 0.0742477100915317 0.0107483174627291
vn -0.99995083223587 0.00139989916397629 -0.00981699511670376
vn -0.999987707983421 0.000699958185885769 -0.00490855789442689
vn -0.998749324382038 0.0494820777710147 0.00716317149636882
vn -0.996334938577485 0.0735392462990839 0.0436883213635154
vn -0.998765401632671 0.0490736538913892 0.00771031745629834
vn -0.998437395589227 0 0.055881724105489
vn -0.999991548865974 0 -0.00411122811704561
vn 0.999787097818102 0 0.020633929253927
vn 0.999520855257416 0 0.0309525427951273
vn -0.00498342080098383 -0.994740408446734 -0.10230681952023
vn -0.00236933350626734 -0.994768289363742 -0.102129509619259
vn -0.997749990415553 0 -0.0670444376944451
vn -0.92244690673203 0 0.386123949348533
vn 0.92244690673203 0 0.386123949348533
vn 0.650230818500892 0 0.75973671931246
vn -0.650230818500892 0 0.75973671931246
vn 0.00236933350626733 -0.994768289363742 -0.102129509619259
vn 0.997557984647479 0 -0.0698431619133851
vn 0.00498341328775828 -0.994738908941271 -0.102321398692222
vn 0.000966387909954239 0 -0.999999533047095
vn 0 -0.999947457659509 0.0102509472872058
vn 0 0.999947457659509 0.0102509472872058
vn -0.998760775179797 0.00300250655604419 -0.0496779520172846
vn 0 -0.0233169165574773 0.999728123742776
vn 0.998760775179797 -0.00300250655604419 0.0496779520172846
vn 0.998531094541653 1.51152984819247e-05 -0.0541816666869659
vn 0 -0.999830280817889 0.0184230713949165
vn 0 -0.99995756930429 0.00921192656591126
vn 0.9999985139383 -0.00158118523496714 0.000687003962019474
g steps stairs g2 g1
f 1/1/1 2/2/1 3/3/1 4/4/1
g rightside_wall stairs g2 g1
f 5/5/2 6/6/2 7/7/2 8/8/2
f 8/9/3 7/10/3 9/11/3 10/12/3
f 10/13/4 9/14/4 11/15/4 12/16/4
f 12/17/5 11/18/5 13/19/6 14/20/6
f 14/20/6 13/19/6 15/21/7 16/22/7
f 17/23/8 5/24/8 8/25/8 14/26/8
f 8/25/8 10/27/8 12/28/8 14/26/8
f 13/29/9 7/10/10 6/2/11 18/30/12
f 13/29/9 11/31/13 9/11/13 7/10/10
f 19/32/14 15/33/15 20/34/16 21/1/17
f 15/33/15 13/29/9 18/30/12 20/34/16
f 22/35/8 16/36/18 23/37/19
f 22/35/8 17/23/8 14/26/8 16/36/18
g leftside_wall stairs g2 g1
f 24/38/2 25/39/2 26/40/2 27/41/2
f 27/42/3 26/43/3 28/44/3 29/45/3
f 29/46/4 28/47/4 30/48/4 31/49/4
f 31/50/5 30/51/5 32/52/6 33/53/6
f 33/53/6 32/52/6 34/54/20 35/55/20
f 36/30/21 24/2/22 27/42/23 33/56/24
f 27/42/23 29/45/8 31/57/8 33/56/24
f 37/34/25 36/30/21 33/56/24 35/58/26
f 38/1/27 37/34/25 35/58/26 39/59/28
f 32/26/13 26/25/13 25/24/13 40/23/13
f 32/26/13 30/28/13 28/27/13 26/25/13
f 41/35/13 34/36/29 32/26/13 40/23/13
f 41/35/13 42/37/30 34/36/29
g leftside_frame door_frame g2 g1
f 43/60/30 44/61/13 45/62/13 46/63/30
f 42/37/30 43/60/30 46/63/30 34/36/29
f 46/64/31 45/65/32 47/66/32 48/67/31
f 34/68/20 46/64/31 48/67/31 35/69/20
f 48/70/33 47/71/34 49/72/34 50/73/33
f 35/74/26 48/70/33 50/73/33 39/75/28
g top_pyramids door_frame g2 g1
f 47/1/3 49/2/3 44/76/3 45/77/3
f 45/77/3 44/76/3 51/78/3 52/79/3
f 52/79/3 51/78/3 53/3/3 54/80/3
f 54/1/35 53/2/35 55/3/36 56/80/36
f 56/3/37 55/80/37 49/1/34 47/2/34
f 47/81/32 45/82/32 52/83/38 54/84/38 56/85/4
g rightside_frame door_frame g2 g1
f 57/86/39 53/87/35 54/88/35 58/89/39
f 19/90/14 57/86/39 58/89/39 15/91/15
f 58/92/40 54/93/38 52/94/38 59/95/40
f 15/96/7 58/92/40 59/95/40 16/97/7
f 59/63/19 52/62/8 51/61/8 60/60/19
f 16/36/18 59/63/19 60/60/19 23/37/19
g door_frame g2 g1
f 43/98/4 60/99/4 51/100/4 44/101/4
f 61//41 62//41 63//41 43//41
g two_doors Default
f 64/102/42 65/103/42 66/104/42 67/105/42
f 68/106/43 69/107/43 70/108/43 71/109/43
f 65/1/44 70/1/44 71/1/44 64/1/44
f 64/1/45 71/1/45 68/1/45 67/1/45
f 71/1/46 70/1/46 65/1/46 64/1/46
f 66/1/47 67/1/47 68/1/47 69/1/47
g old_door Default
f 72/110/48 73/111/49 74/112/49 75/113/48
f 73/111/49 76/1/4 77/2/4 74/112/49
g one_door Default
f 64/114/42 65/115/42 78/116/42 79/117/42
f 80/118/43 81/119/43 70/120/43 71/121/43
f 65/115/44 70/120/44 71/121/44 64/114/44
f 64/114/45 71/121/45 80/118/45 79/117/45
f 71/121/46 70/120/46 65/115/46 64/114/46
f 78/116/50 79/117/50 80/118/50 81/119/50
