v 8.72778958757346 0.29885543493325 14.6264889933568
v 8.72778958757346 0.29885543493325 23.4644096657101
v -9.00817310835355 0.29885543493325 23.4644096657101
v -9.00817310835355 0.29885543493325 14.6264889933568
v -0.18001452796734 0.971394762536939 0
v -0.163706665699722 2.21213122078924 7.13896775437698
v 0.613802684422439 1.12202955367128 7.13896775437698
v 0.597494822154821 -0.118706904581028 0
v -0.735315589338183 -0.246998919907764 0
v -0.719007727070565 0.993737538344541 7.13896775437698
v -0.136913051231548 1.93377556292728 12.9189276907456
v 0.359342806192764 1.23800343181361 12.9189276907456
v -0.491341463309063 1.15611931806417 12.9189276907456
v -0.133859299399543 1.90205050018315 17.6203538517621
v 0.330341220003684 1.25122133652231 17.6203538517621
v -0.465393628951989 1.1746264760996 17.6203538517621
v -0.19474601483139 2.53459530854476 19.4168356527721
v 0.908584450792721 0.987678374658478 19.4168356527721
v -0.159250466028267 2.1658362950865 21.7414517356815
v 0.571482002861822 1.14131783440283 21.7414517356815
v -0.982750144309179 0.805624629601826 19.4168356527721
v -0.681143245181403 1.02074418331573 21.7414517356815
v -3 -3 0.025000000372529
v 3 -3 0.025000000372529
v 3 3 0.025000000372529
v -3 3 0.025000000372529
v -1.11602540378444 0.433012701892219 13.8145284663643
v -0.933012701892219 -0.116025403784439 13.8145284663643
v -0.5 -0.5 13.8145284663643
v 0.0669872981077813 -0.616025403784439 13.8145284663643
v 0.616025403784439 -0.433012701892219 13.8145284663643
v 1 1.11022302462516e-16 13.8145284663643
v 1.11602540378444 0.566987298107781 13.8145284663643
v 0.933012701892219 1.11602540378444 13.8145284663643
v 0.5 1.5 13.8145284663643
v -0.0669872981077808 1.61602540378444 13.8145284663643
v -0.616025403784439 1.43301270189222 13.8145284663643
v -1 1 13.8145284663643
v -0.933012701892219 -0.116025403784439 0
v -1.11602540378444 0.433012701892219 0
v -0.5 -0.5 0
v 0.0669872981077813 -0.616025403784439 0
v 0.616025403784439 -0.433012701892219 0
v 1 1.11022302462516e-16 0
v 1.11602540378444 0.566987298107781 0
v 0.933012701892219 1.11602540378444 0
v 0.5 1.5 0
v -0.0669872981077808 1.61602540378444 0
v -0.616025403784439 1.43301270189222 0
v -1 1 0
vt 1 0
vt 1 0.996610224246979
vt 0 0.996610224246979
vt 0 0
vt 0.340459078550339 0
vt 0.33523878455162 0.322335213422775
vt 0.241764292120934 0.3204165995121
vt 0.120242550969124 0
vt 0.560630202293396 0
vt 0.425944685935974 0.319997429847717
vt 0.780936002731323 0
vt 0.337285816669464 0.580293357372284
vt 0.219002857804298 0.578374743461609
vt 0.456461846828461 0.577955603599548
vt 0.33951336145401 0.790116846561432
vt 0.193932324647903 0.788198232650757
vt 0.486287623643875 0.787779092788696
vt 0.340533316135406 0.870887935161591
vt 0.162747278809547 0.86816531419754
vt 0.341250449419022 0.934507369995117
vt 0.156206429004669 0.931784808635712
vt 0.518083035945892 0.867570519447327
vt 0.524223148822784 0.931190013885498
vt 0.823440790176392 0.86816531419754
vt 0.81689989566803 0.931784808635712
vt 1 1
vt 0 1
vn 0 -1 0
vn 0.809867712372886 0.577633937939683 -0.102241489602817
vn 0.813511296045803 0.58023270506306 -0.0391072778531176
vn -0.907726844081658 0.413710024285379 -0.0698283061468902
vn -0.909710470968178 0.414614091773022 -0.0228476238171119
vn 0.0944150038389713 -0.980866188727713 0.170256649975432
vn 0.0953575674009848 -0.990658368901562 0.0974829752554951
vn 0.814056710970311 0.580621719424098 0.0137873223362486
vn -0.909861514495426 0.414682932109444 0.0137873223362486
vn 0.0958048035251139 -0.995304651533545 0.0137873223362486
vn 0.811136989481932 0.5785392432428 -0.085727057118721
vn -0.906598176475456 0.413195617219182 -0.0857270571187212
vn 0.0954611869935223 -0.991734860461984 -0.0857270571187214
vn 0.813205361065112 0.580014498527659 -0.0477516725641004
vn 0.811561732508269 0.578842188999456 0.0794309420974864
vn -0.908909970820801 0.414249251912252 -0.0477516725641005
vn -0.907072906709858 0.413411982591743 0.0794309420974865
vn 0.0957046097556872 -0.994263750439914 -0.0477516725641007
vn 0.0955111742015859 -0.992254171591201 0.0794309420974866
vn 0 0 1
vn -0.834511930120699 -0.550989871491505 0
vn -0.998203466991462 -0.0599152608792165 0
vn -0.447213595499958 -0.894427190999916 0
vn 0.0599152608792164 -0.998203466991462 0
vn 0.550989871491504 -0.834511930120699 0
vn 0.894427190999916 -0.447213595499958 0
vn 0.998203466991462 0.0599152608792163 0
vn 0.8345119301207 0.550989871491504 0
vn 0.447213595499958 0.894427190999916 0
vn -0.0599152608792163 0.998203466991462 0
vn -0.550989871491504 0.8345119301207 0
vn -0.894427190999916 0.447213595499958 0
g p2948 o165 flat_top prop_palm_tree_topflat
f 1/1/1 2/2/1 3/3/1 4/4/1
g o162 palm_trunk prop_palm_tree_topflat
f 5/5/2 6/6/3 7/7/3 8/8/2
f 9/9/4 10/10/5 6/6/5 5/5/4
f 8/11/6 7/7/7 10/10/7 9/9/6
f 6/6/3 11/12/8 12/13/8 7/7/3
f 10/10/5 13/14/9 11/12/9 6/6/5
f 7/7/7 12/13/10 13/14/10 10/10/7
f 11/12/8 14/15/11 15/16/11 12/13/8
f 13/14/9 16/17/12 14/15/12 11/12/9
f 12/13/10 15/16/13 16/17/13 13/14/10
f 14/15/11 17/18/14 18/19/14 15/16/11
f 17/18/14 19/20/15 20/21/15 18/19/14
f 16/17/12 21/22/16 17/18/16 14/15/12
f 21/22/16 22/23/17 19/20/17 17/18/16
f 15/16/13 18/24/18 21/22/18 16/17/13
f 18/24/18 20/25/19 22/23/19 21/22/18
g o166 shadow prop_palm_tree_topflat
f 23/4/20 24/1/20 25/26/20 26/27/20
g palm_tree_collisions prop_palm_tree_topflat
f 27//20 28//20 29//20 30//20 31//20 32//20 33//20 34//20 35//20 36//20 37//20 38//20
f 39//21 28//21 27//22 40//22
f 41//23 29//23 28//21 39//21
f 42//24 30//24 29//23 41//23
f 43//25 31//25 30//24 42//24
f 44//26 32//26 31//25 43//25
f 45//27 33//27 32//26 44//26
f 46//28 34//28 33//27 45//27
f 47//29 35//29 34//28 46//28
f 48//30 36//30 35//29 47//29
f 49//31 37//31 36//30 48//30
f 50//32 38//32 37//31 49//31
f 40//22 27//22 38//32 50//32
