v -0.700151855417368 0.619329108573209 0.642918793071388
v 0.727985652696893 0.619329000743771 0.800970115918412
v -0.406408668158606 0.418606657720575 -0.00990003639987843
v 0.535020235985051 0.418606549891136 -0.00990003639987843
v -0.911138590512851 0.151977196230275 0.619327976364106
v -0.607904525658282 6.84305329910868e-08 -0.00990003639987843
v -0.74409946831495 -0.551090218936392 0.642918793071388
v -0.481045186206102 -0.406067900175851 -0.00990003639987843
v 0.725029724301587 -0.551090218936392 0.800970115918412
v 0.505122583254238 -0.406067927133211 -0.00990003639987843
v 0.977744942452045 0.151977101879516 0.824560716966818
v 0.753917230853317 0 -0.00990003639987843
v -0.675626858370366 -0.250259294861088 1.60187068184905
v -0.531213641150079 -0.276826689301134 1.54663214062545
v -0.531213641150079 -0.234495385770692 1.75391870854168
v 0.708448791556311 -0.250655999365022 1.98977490182519
v 0.575832276642926 -0.15094671072337 1.97005138792671
v 0.438424953695424 -0.278667903919452 1.89295333945904
v -0.258583242274355 0.459000374072113 1.52307679980341
v 0.767466269363923 0.523390938881291 1.43589324830179
v -0.468823258508805 0.135995471674278 1.38592735095788
v -0.314285045722744 -0.194040435776813 1.41602060628998
v 0.723773026111564 -0.194040435776813 1.33428233359895
v 0.962686561377207 0.151860511299229 1.40431572074989
v -1.30743485219262 -1.10610456679563 0.0107696664996084
v 1.30743485219262 -1.10610456679563 0.0107696664996084
v 1.30743485219262 1.10610456679563 0.0107696664996089
v -1.30743485219262 1.10610456679563 0.0107696664996089
v -0.890229060621229 -0.63165293508981 0.000592522764097633
v 0.973664892161249 -0.63165293508981 0.000592522764097633
v 0.973664892161249 -0.63165293508981 2.00186646373144
v -0.890229060621229 -0.63165293508981 2.00186646373144
v 0.973664892161249 0.63165293508981 2.00186646373144
v -0.890229060621229 0.63165293508981 2.00186646373144
v 0.973664892161249 0.63165293508981 0.000592522764097633
v -0.890229060621229 0.63165293508981 0.000592522764097633
vt 0.265698581933975 0.278026670217514
vt 0.886265099048615 0.341461658477783
vt 0.376755803823471 0.0132626611739397
vt 0.804274499416351 0.0160134304314852
vt 0.202292963862419 0.268558323383331
vt 0.31864795088768 0.0160134304314852
vt 0.20746336877346 0.263387709856033
vt 0.323818385601044 0.0108428550884128
vt 0.265949368476868 0.272856026887894
vt 0.377720654010773 0.0108428550884128
vt 0.890179574489594 0.336291015148163
vt 0.796741425991058 0.0108428550884128
vt 0.992387294769287 0.345759332180023
vt 0.902453780174255 0.0108428550884128
vt 0.992387294769287 0.350929915904999
vt 0.897283375263214 0.0160134304314852
vt 0.227632522583008 0.387542545795441
vt 0.128384739160538 0.349778920412064
vt 0.227632522583008 0.681105494499207
vt 0.128384709358215 0.755167365074158
vt 0.0260724425315857 0.690006017684937
vt 0.0260724276304245 0.409760057926178
vt 0.0151457162573934 0.895586907863617
vt 0.0902192667126656 0.78092885017395
vt 0.0902192667126656 0.963619768619537
vt 0.734660267829895 0.893874883651733
vt 0.665719270706177 0.963619709014893
vt 0.594287753105164 0.772982656955719
vt 0.453320264816284 0.581770777702332
vt 0.894788146018982 0.552280366420746
vt 0.377743303775787 0.576238214969635
vt 0.448576629161835 0.583145797252655
vt 0.382913708686829 0.571067690849304
vt 0.889645516872406 0.55033951997757
vt 0.985989093780518 0.578447937965393
vt 0.985989093780518 0.583618462085724
vt 0.356356739997864 0.64447945356369
vt 0.763850033283234 0.774920761585236
vt 0.269659608602524 0.635207891464233
vt 0.274830043315887 0.630037248134613
vt 0.358003586530685 0.645164310932159
vt 0.768401741981506 0.774565935134888
vt 0.883134305477142 0.81342601776123
vt 0.877963900566101 0.818596601486206
vt 0 0
vt 1 0
vt 1 1
vt 0 1
vn 0.00521758043726207 0.998874456175921 -0.0471444339624459
vn 0.181754727231438 0.977152189068962 -0.110176306557993
vn 0.0155513136371048 0.96529345775106 -0.260704232929123
vn 0.486690702469933 0.814595206887494 -0.315542087597271
vn -0.911381020844364 0.411557531990941 -0.00224336938801912
vn -0.793157354713217 0.38190085447773 -0.474397668642576
vn -0.955658000181943 0.280981249704934 -0.0881324231058153
vn -0.896057219525757 -0.0405971297722885 -0.44207842334819
vn -0.963499662241294 -0.251110701966239 -0.0927998718691797
vn -0.870152208151881 -0.271843514389771 -0.411018537699487
vn 0.246815768640259 -0.957205147867876 0.15113001437754
vn -0.00976453841330504 -0.999842134609877 0.0148445157664173
vn 0.309012504573629 -0.913972437279404 -0.262993642338897
vn 0 -0.976202424513328 -0.216861306770712
vn 0.992053034551208 0.0938665415867441 -0.0837845391959878
vn 0.940663995335881 -0.338774999985123 0.0195639276173577
vn 0.945290541977779 -0.140064738831091 -0.294631397144865
vn 0.845172313570972 0.436070584313322 -0.309073140000434
vn 0 0 -1
vn 0 9.46150491287767e-10 -1
vn 0 -1.37795697074949e-09 -1
vn 0 -4.12742062749771e-11 -1
vn 0 3.27025784230273e-09 -1
vn 0 3.86715015565642e-09 -1
vn -0.103160547192171 -0.974550850995665 0.199018944642557
vn -0.0162071445215348 -0.999812428331692 0.0106036135323884
vn -0.120090492956998 -0.866727233505089 0.484109673733092
vn -0.307825878366499 -0.22663152618564 0.924057022021185
vn -0.175732549652637 0.105682248337499 0.978748861240162
vn -0.22946184446273 -0.310063221513297 0.922609375955262
vn 0.0452175010157987 -0.993516162860554 -0.104312088162048
vn -0.0684215043509655 0.823125379904649 0.563722544075699
vn -0.0111650456174422 0.862631996368359 0.505708790311085
vn -0.831437313150932 0.369698627837043 0.414770923373092
vn -0.836494052273186 0.278655826030214 0.471835385628298
vn -0.823591185613707 -0.259981706902308 0.504090340172841
vn -0.823591185710429 -0.259981624354642 0.504090382588293
vn 0.0310418843806725 -0.991187559125717 0.128777420569372
vn 0.278497186239256 -0.955634992735523 0.0959222493282645
vn 0.883600562316121 -0.457332728982246 0.100482940225127
vn 0.823193297738536 -0.567746313109393 -0.00411321152460547
vn 0.881490640771601 0.471913324736193 0.0164943677813087
vn 0.866137696071485 0.43824861059539 0.240299077724385
vn 0.716189317296959 0.517979437606385 0.46772872907989
vn -0.599706959346997 0.512954970473199 0.614189515685199
vn -0.605169524499957 0.609998335110536 0.511538735365046
vn -0.387629773600631 -0.282942143440626 -0.87731801650459
vn -0.402390128268511 -0.278652412997245 -0.87202925260731
vn -0.41704412318429 -0.274289075339781 -0.866510070608931
vn 0.523990686040569 -0.849527828278545 -0.0611247079589996
vn 0.56614284016616 0.500457450701852 0.65499971340879
vn 0.40414945346433 0.6623233241291 0.630865305417141
vn 0 0 1
vn 0 -1 0
vn 0 1 0
vn 1 0 0
vn -1 0 0
g sack sack
f 1/1/1 2/2/2 3/3/3
f 4/4/4 3/3/3 2/2/2
f 1/1/5 3/3/6 5/5/7
f 3/3/6 6/6/8 5/5/7
f 5/7/7 6/8/8 7/9/9
f 6/8/8 8/10/10 7/9/9
f 9/11/11 7/9/12 10/12/13
f 8/10/14 10/12/13 7/9/12
f 11/13/15 9/11/16 12/14/17
f 10/12/13 12/14/17 9/11/11
f 2/2/2 11/15/15 4/4/18
f 12/16/17 4/4/4 11/15/15
f 8/17/19 6/18/20 10/19/21
f 10/19/21 6/18/20 12/20/22
f 12/20/22 6/18/20 4/21/23
f 4/21/23 6/18/20 3/22/24
f 13/23/25 14/24/26 15/25/27
f 16/26/28 17/27/29 18/28/30
f 17/27/29 15/25/27 18/28/30
f 15/25/27 14/24/26 18/28/31
f 1/1/1 19/29/32 2/2/2
f 2/2/2 19/29/32 20/30/33
f 1/1/5 5/5/7 19/29/34
f 5/5/7 21/31/35 19/29/34
f 7/9/9 22/32/36 5/7/37
f 5/7/37 22/32/36 21/33/35
f 7/9/12 9/11/11 22/32/38
f 9/11/11 23/34/39 22/32/38
f 9/11/16 11/13/15 23/34/40
f 11/13/15 24/35/41 23/34/39
f 2/2/42 20/30/43 11/15/15
f 11/15/15 20/30/43 24/36/44
f 15/37/45 17/38/29 19/29/32
f 20/30/33 19/29/32 17/38/29
f 19/29/34 21/31/35 15/37/45
f 21/31/35 13/39/46 15/37/45
f 13/40/47 21/33/48 14/41/48
f 21/33/48 22/32/49 14/41/48
f 14/41/26 22/32/38 18/42/31
f 22/32/38 23/34/39 18/42/31
f 18/42/31 23/34/39 16/43/50
f 23/34/40 24/35/41 16/43/50
f 20/30/43 17/38/51 24/36/44
f 24/36/44 17/38/51 16/44/52
g shadow sack
f 25/45/53 26/46/53 27/47/53 28/48/53
g collision sack
f 29//54 30//54 31//54 32//54
f 32//53 31//53 33//53 34//53
f 34//55 33//55 35//55 36//55
f 30//56 35//56 33//56 31//56
f 36//57 29//57 32//57 34//57
