v 0.212267972040051 0.64064561538496 1.0303469780549
v 0.545691943231217 0.36378779749232 1.03034710320901
v 0.680838106811203 0.439894512256612 1.0910143063763
v 0.267344697566796 0.783239950345257 1.0910143063763
v -0.221110923396634 0.638411739679772 1.03034710320901
v -0.270110165353209 0.780469226086233 1.0910143063763
v -0.551660229840617 0.358131050750652 1.03034710320901
v -0.680038935243301 0.432878654459956 1.0910143063763
v -0.624715186792409 -0.0690504791229729 1.03034710320901
v -0.770638120456005 -0.0968897905875379 1.0910143063763
v -0.406092608694642 -0.443249987804984 1.03034710320901
v -0.499515051603943 -0.560951420641321 1.0910143063763
v 0.00191510818761791 -0.589374607316465 1.03034710320901
v 0.00647503559983621 -0.742166499140381 1.0910143063763
v 0.408393191540335 -0.439050785825634 1.03034710320901
v 0.510567630056947 -0.555745009675114 1.0910143063763
v 0.623146630334729 -0.062618363560654 1.03034710320901
v 0.776893886055533 -0.0889117792835386 1.0910143063763
v 1.18417764898986 0.738898224717989 1.03499914404601
v 0.459919138530421 1.34028812718829 1.03499914404601
v -0.481460882922796 1.33543515142806 1.0349990188919
v -1.19948036714489 0.726610469067191 1.03499908146896
v -1.35817002123735 -0.201309775430074 1.03499858085252
v -0.883277006975309 -1.01414315030957 1.03499845569841
v 0.00299065131840743 -1.33155349671371 1.03499858085252
v 0.885937908503014 -1.00502079240293 1.03499858085252
v 1.35242457152039 -0.18733688226835 1.03499858085252
v 1.30188609045634 0.805589345496471 0.850790942434877
v 0.507561240609237 1.46515888804839 0.850791130166041
v -0.524888701952036 1.4598360837601 0.850791005011932
v -1.31236924899845 0.79211200003236 0.850791005011932
v -1.48641018104053 -0.225575545954266 0.850790942434877
v -0.965576847707193 -1.11704285689226 0.850790879857822
v 0.00642962030225539 -1.46515888804839 0.850790879857822
v 0.974793446658477 -1.10703903859056 0.850790879857822
v 1.48641005588642 -0.210250581656228 0.850791005011932
v 1.30188609045634 0.805589345496471 0.265730991764019
v 0.507561240609237 1.46515888804839 0.265731085629601
v -0.524888701952036 1.4598360837601 0.265731023052546
v -1.31236924899845 0.79211200003236 0.265731023052546
v -1.48641018104053 -0.225575545954266 0.265730991764019
v -0.965576847707193 -1.11704285689226 0.265730960475491
v 0.00642962030225539 -1.46515888804839 0.265730897898436
v 0.974793446658477 -1.10703903859056 0.265730897898436
v 1.48641005588642 -0.210250612944756 0.265730991764019
v 1.18417764898986 0.738898349872098 0.0815231969037394
v 0.459919138530421 1.3402882523424 0.0815232281922668
v -0.481460882922796 1.33543502627395 0.0815232281922668
v -1.19948036714489 0.726610469067191 0.0815232907693217
v -1.35817002123735 -0.201309822362865 0.0815231969037394
v -0.883277006975309 -1.01414315030957 0.0815231343266845
v 0.00299065131840743 -1.33155349671371 0.0815231030381571
v 0.885937908503014 -1.00502079240293 0.0815231656152119
v 1.35242457152039 -0.18733688226835 0.0815231969037394
v 0.680838106811203 0.439894574833667 0.0255073775143761
v 0.267344697566796 0.783240075499367 0.0255073149373212
v -0.270110165353209 0.780469288663288 0.0255073149373212
v -0.680038935243301 0.432878717037011 0.0255073775143761
v -0.770638120456005 -0.096889728010483 0.0255073775143761
v -0.499515051603943 -0.560951420641321 0.0255072836487938
v 0.00647503559983621 -0.742166499140381 0.0255073462258487
v 0.510567630056947 -0.555744947098059 0.0255072836487938
v 0.776893886055533 -0.0889117167064837 0.0255072836487938
v 0.545691943231217 0.36378779749232 0.0861749561439975
v 0.212267972040051 0.64064561538496 0.0861749874325249
v -0.221110923396634 0.638411614525662 0.0861749874325249
v -0.551660229840617 0.358131019462125 0.0861749561439975
v -0.624715186792409 -0.0690505573442915 0.0861749561439975
v -0.406092608694642 -0.443250081670566 0.0861749561439975
v 0.00191510818761791 -0.58937466989352 0.0861749561439975
v 0.408391126497524 -0.439050629382997 0.0861748935669426
v 0.623146630334729 -0.0626183948491815 0.0861749561439975
v 0.212267972040051 0.640645552807906 0.929092422245056
v 0.545691943231217 0.363787766203793 0.929092422245056
v -0.221110923396634 0.638411614525662 0.92909248482211
v -0.551660229840617 0.358131019462125 0.929092422245056
v -0.624715186792409 -0.0690505417000278 0.929092422245056
v -0.406092608694642 -0.443250112959093 0.929092422245056
v 0.00191510818761791 -0.58937466989352 0.929092422245056
v 0.408393191540335 -0.439050817114162 0.929092422245056
v 0.623146630334729 -0.0626183948491815 0.929092422245056
v -2.18798244406232 -2.18798244406232 0.0386246076719029
v 2.18798244406232 -2.18798244406232 0.0386246076719029
v 2.18798244406232 2.18798244406232 0.0386246076719029
v -2.18798244406232 2.18798244406232 0.0386246076719029
v -0.999999984981507 -0.999999984981507 0.0713812553976464
v 0.999999984981507 -0.999999984981507 0.0713812553976464
v 0.999999984981507 0.999999984981507 0.0713812553976464
v -0.999999984981507 0.999999984981507 0.0713812553976464
vt 0.208243399858475 0.876990497112274
vt 0.251554071903229 0.852036476135254
vt 0.277868390083313 0.873586297035217
vt 0.214465022087097 0.910116612911224
vt 0.158915340900421 0.868454933166504
vt 0.14225310087204 0.897621333599091
vt 0.126651227474213 0.830423712730408
vt 0.0950208306312561 0.841946721076965
vt 0.126547574996948 0.780692398548126
vt 0.0948691368103027 0.769144058227539
vt 0.158652901649475 0.742530286312103
vt 0.141869008541107 0.71327817440033
vt 0.207944989204407 0.733794391155243
vt 0.214028269052505 0.700489282608032
vt 0.25135925412178 0.758571982383728
vt 0.277583301067352 0.736761748790741
vt 0.268581867218018 0.805269479751587
vt 0.302796006202698 0.805123090744019
vt 0.338725835084915 0.924912750720978
vt 0.227670878171921 0.988897442817688
vt 0.101187109947205 0.967011213302612
vt 0.0184571743011475 0.869494378566742
vt 0.018191397190094 0.741976082324982
vt 0.100514352321625 0.64412385225296
vt 0.226905882358551 0.621723353862762
vt 0.338226407766342 0.68525630235672
vt 0.38238736987114 0.80499529838562
vt -4.43581438064575 -2.58773303031921
vt -5.55838537216187 -2.58773303031921
vt -5.55838537216187 -2.78273320198059
vt -4.43581438064575 -2.78273320198059
vt -3.31324338912964 -2.58773303031921
vt -3.31324338912964 -2.78273320198059
vt -2.19067192077637 -2.58773303031921
vt -2.19067192077637 -2.78273320198059
vt -1.06810140609741 -2.58773303031921
vt -1.06810140609741 -2.78273320198059
vt 0.0544701218605042 -2.58773303031921
vt 0.0544701218605042 -2.78273320198059
vt 1.17704105377197 -2.58773303031921
vt 1.17704105377197 -2.78273320198059
vt 2.29961204528809 -2.58773303031921
vt 2.29961204528809 -2.78273320198059
vt 3.42218327522278 -2.58773303031921
vt 3.42218327522278 -2.78273320198059
vt 4.54475402832031 -2.58773303031921
vt 4.54475402832031 -2.78273320198059
vt -5.55838537216187 -3.31803417205811
vt -4.43581438064575 -3.31803417205811
vt -3.31324338912964 -3.31803417205811
vt -2.19067192077637 -3.31803417205811
vt -1.06810140609741 -3.31803417205811
vt 0.0544701218605042 -3.31803417205811
vt 1.17704105377197 -3.31803417205811
vt 2.29961204528809 -3.31803417205811
vt 3.42218327522278 -3.31803417205811
vt 4.54475402832031 -3.31803417205811
vt -5.55838537216187 -3.45913600921631
vt -4.43581438064575 -3.45913600921631
vt -3.31324338912964 -3.45913600921631
vt -2.19067192077637 -3.45913600921631
vt -1.06810140609741 -3.45913600921631
vt 0.0544701218605042 -3.45913600921631
vt 1.17704105377197 -3.45913600921631
vt 2.29961204528809 -3.45913600921631
vt 3.42218327522278 -3.45913600921631
vt 4.54475402832031 -3.45913600921631
vt 0.226996034383774 0.989479303359985
vt 0.338050931692123 0.92549455165863
vt 0.27711421251297 0.874236464500427
vt 0.213710904121399 0.91076672077179
vt 0.100512266159058 0.96759295463562
vt 0.141498923301697 0.898271322250366
vt 0.0177822113037109 0.87007611989975
vt 0.0942666530609132 0.842596888542175
vt 0.017516553401947 0.7425577044487
vt 0.0941149592399597 0.769794166088104
vt 0.0998393893241882 0.644705474376678
vt 0.141114830970764 0.713928043842316
vt 0.226230978965759 0.622305154800415
vt 0.21327406167984 0.701139450073242
vt 0.337551474571228 0.685837984085083
vt 0.276829212903976 0.737411856651306
vt 0.38171249628067 0.805577099323273
vt 0.30204176902771 0.805773079395294
vt 0.25098791718483 0.852524518966675
vt 0.207677245140076 0.87747848033905
vt 0.158349215984344 0.868942975997925
vt 0.126085042953491 0.830911695957184
vt 0.125981390476227 0.781180441379547
vt 0.158086776733398 0.743018209934235
vt 0.20737886428833 0.734282314777374
vt 0.250793039798737 0.759059906005859
vt 0.268015652894974 0.805757522583008
vt 0.208182632923126 0.877042829990387
vt 0.25149330496788 0.852088809013367
vt 0.158854603767395 0.868507266044617
vt 0.126590430736542 0.830476045608521
vt 0.126486837863922 0.780744671821594
vt 0.158592224121094 0.742582678794861
vt 0.207884222269058 0.733846724033356
vt 0.251298546791077 0.758624315261841
vt 0.268521189689636 0.8053218126297
vt 0 0
vt 1 0
vt 1 1
vt 0 1
vn -0.12345458062309 -0.347744724221027 0.929425937501003
vn -0.3142352110955 -0.184346290419764 0.93127475930374
vn -0.118401006323563 -0.0696166756470187 0.990522448091625
vn -0.0466844863975573 -0.132117220333731 0.990134131732204
vn 0.130752586037707 -0.350890406048806 0.927243055615601
vn 0.0502193334774873 -0.134250185725451 0.98967414141108
vn 0.328587783583881 -0.187029842419175 0.925769899340053
vn 0.126459226568511 -0.0718973878208466 0.989362840236196
vn 0.372065563812204 0.0672058589698871 0.925770267801481
vn 0.143164246696539 0.0257866139414171 0.989362951099974
vn 0.239926342493991 0.28749778710392 0.927243426823725
vn 0.0919776434056254 0.10993153000533 0.989674275620133
vn -0.000878391890906294 0.369007768719437 0.929425895406615
vn -0.000127026301891076 0.140122413597755 0.990134179327155
vn -0.235115369947475 0.278293891632619 0.931275078961332
vn -0.0885369931363323 0.105005913036875 0.990522568684666
vn -0.357303465433291 0.0611046172913104 0.931987370802332
vn -0.134319197537232 0.0229705305244957 0.99067184672846
vn 0.419359284109648 0.245233322396118 0.874070024893661
vn 0.164240056128853 0.459475720686698 0.872872995379185
vn -0.170352333660979 0.459873372277914 0.871491000461851
vn -0.427427673569146 0.24372537107302 0.870576548824161
vn -0.484129611074525 -0.0878342619741043 0.870576626210636
vn -0.313492913068312 -0.377128170721103 0.871490984637534
vn 0.00221647147145366 -0.487942818099584 0.87287278197871
vn 0.314032311211909 -0.370655769173385 0.874069796007958
vn 0.478016948891205 -0.0817493210822646 0.874538075257637
vn 0.819444392439267 0.479037061319517 0.314697285628906
vn 0.320009489814346 0.89462724519932 0.311826904829968
vn -0.330244124463273 0.892045022482194 0.308536053196752
vn -0.82688659539726 0.471587628754496 0.306371778657956
vn -0.936608584827583 -0.170001050658561 0.306372325124608
vn -0.607914109696522 -0.731604838045133 0.308536539458196
vn 0.00452698552262089 -0.950128116045174 0.311826986488545
vn 0.613683633926963 -0.724125675012589 0.3146973216247
vn 0.935239529607387 -0.159942135844779 0.315825165940215
vn 0.819444380885286 0.479037029804696 -0.314697363686805
vn 0.32000947042717 0.894627155106898 -0.311827183199703
vn -0.330244067001209 0.892044909060377 -0.308536442628688
vn -0.826886539982739 0.471587511934905 -0.306372108035997
vn -0.936608613993773 -0.170001015331445 -0.306372255563295
vn -0.607914272736535 -0.731604819061731 -0.308536263231505
vn 0.00452695237325403 -0.950128157303117 -0.311826861257963
vn 0.613683673374488 -0.724125710832522 -0.314697162276513
vn 0.935239589894099 -0.159942135961426 -0.315824987356628
vn 0.419359439926712 0.24523365167469 -0.874069857752029
vn 0.164240187517455 0.459476040897635 -0.872872802099633
vn -0.170352421828133 0.459873577547241 -0.871490874909882
vn -0.427427822640336 0.243725535019765 -0.870576429736224
vn -0.48412982760488 -0.0878340493867387 -0.870576527245938
vn -0.31349317690872 -0.377128201303241 -0.871490876494677
vn 0.00221647905593696 -0.487942936984413 -0.872872715501876
vn 0.314032534557309 -0.370655959998607 -0.874069634844401
vn 0.478017256592795 -0.0817491909808487 -0.874537919231336
vn -0.118401526266247 -0.0696167908469058 -0.990522377844136
vn -0.0466845561516297 -0.132117660105152 -0.990134069762911
vn 0.0502194680521765 -0.13425060914143 -0.989674077145457
vn 0.126459738123848 -0.0718975992319713 -0.98936275948629
vn 0.143165160686679 0.0257870693309156 -0.98936280697269
vn 0.0919784233186043 0.109932534421986 -0.98967409156721
vn -0.000126991697047313 0.140123277435483 -0.990134057082094
vn -0.0885371329787527 0.105006314715846 -0.990522513602644
vn -0.134319549110008 0.0229708021208565 -0.990671792763279
vn -0.31423695464323 -0.184347236420212 -0.931273983723791
vn -0.123455134028747 -0.347746453219958 -0.929425217085745
vn 0.130753240114221 -0.350892222111345 -0.927242276140058
vn 0.328589433984769 -0.187030846701047 -0.925769110661972
vn 0.372067664200556 0.067206400461918 -0.925769384346498
vn 0.239927924974575 0.28749968685493 -0.927242428319429
vn -0.000878406538438723 0.369009510419682 -0.929425203887747
vn -0.235115748331065 0.278294845254313 -0.931274698459913
vn -0.357304599074837 0.0611048930368227 -0.931986918109331
vn -0.863436075590541 -0.504458267222134 2.19130098721832e-07
vn -0.337170255467592 -0.941443688612044 6.82997630286021e-07
vn 0.346859880867901 -0.937916959567133 8.06769492932135e-07
vn 0.868591661348087 -0.495528531808658 3.55089984543013e-07
vn 0.983899725194216 0.178721377464206 -2.07253205283664e-07
vn 0.638830637588716 0.769347396484505 -7.13203979180976e-07
vn -0.00515612339134258 0.999986707107194 -6.95694155033361e-07
vn -0.646728559823061 0.762720243542212 -3.12792860779621e-07
vn -0.985689711563894 0.168569844625557 -5.20894656882055e-08
vn 0 0 1
g tiremesh tire
f 1/1/1 2/2/2 3/3/3 4/4/4
f 5/5/5 1/1/1 4/4/4 6/6/6
f 7/7/7 5/5/5 6/6/6 8/8/8
f 9/9/9 7/7/7 8/8/8 10/10/10
f 11/11/11 9/9/9 10/10/10 12/12/12
f 13/13/13 11/11/11 12/12/12 14/14/14
f 15/15/15 13/13/13 14/14/14 16/16/16
f 17/17/17 15/15/15 16/16/16 18/18/18
f 2/2/2 17/17/17 18/18/18 3/3/3
f 4/4/4 3/3/3 19/19/19 20/20/20
f 6/6/6 4/4/4 20/20/20 21/21/21
f 8/8/8 6/6/6 21/21/21 22/22/22
f 10/10/10 8/8/8 22/22/22 23/23/23
f 12/12/12 10/10/10 23/23/23 24/24/24
f 14/14/14 12/12/12 24/24/24 25/25/25
f 16/16/16 14/14/14 25/25/25 26/26/26
f 18/18/18 16/16/16 26/26/26 27/27/27
f 3/3/3 18/18/18 27/27/27 19/19/19
f 20/28/20 19/29/19 28/30/28 29/31/29
f 21/32/21 20/28/20 29/31/29 30/33/30
f 22/34/22 21/32/21 30/33/30 31/35/31
f 23/36/23 22/34/22 31/35/31 32/37/32
f 24/38/24 23/36/23 32/37/32 33/39/33
f 25/40/25 24/38/24 33/39/33 34/41/34
f 26/42/26 25/40/25 34/41/34 35/43/35
f 27/44/27 26/42/26 35/43/35 36/45/36
f 19/46/19 27/44/27 36/45/36 28/47/28
f 29/31/29 28/30/28 37/48/37 38/49/38
f 30/33/30 29/31/29 38/49/38 39/50/39
f 31/35/31 30/33/30 39/50/39 40/51/40
f 32/37/32 31/35/31 40/51/40 41/52/41
f 33/39/33 32/37/32 41/52/41 42/53/42
f 34/41/34 33/39/33 42/53/42 43/54/43
f 35/43/35 34/41/34 43/54/43 44/55/44
f 36/45/36 35/43/35 44/55/44 45/56/45
f 28/47/28 36/45/36 45/56/45 37/57/37
f 38/49/38 37/48/37 46/58/46 47/59/47
f 39/50/39 38/49/38 47/59/47 48/60/48
f 40/51/40 39/50/39 48/60/48 49/61/49
f 41/52/41 40/51/40 49/61/49 50/62/50
f 42/53/42 41/52/41 50/62/50 51/63/51
f 43/54/43 42/53/42 51/63/51 52/64/52
f 44/55/44 43/54/43 52/64/52 53/65/53
f 45/56/45 44/55/44 53/65/53 54/66/54
f 37/57/37 45/56/45 54/66/54 46/67/46
f 47/68/47 46/69/46 55/70/55 56/71/56
f 48/72/48 47/68/47 56/71/56 57/73/57
f 49/74/49 48/72/48 57/73/57 58/75/58
f 50/76/50 49/74/49 58/75/58 59/77/59
f 51/78/51 50/76/50 59/77/59 60/79/60
f 52/80/52 51/78/51 60/79/60 61/81/61
f 53/82/53 52/80/52 61/81/61 62/83/62
f 54/84/54 53/82/53 62/83/62 63/85/63
f 46/69/46 54/84/54 63/85/63 55/70/55
f 56/71/56 55/70/55 64/86/64 65/87/65
f 57/73/57 56/71/56 65/87/65 66/88/66
f 58/75/58 57/73/57 66/88/66 67/89/67
f 59/77/59 58/75/58 67/89/67 68/90/68
f 60/79/60 59/77/59 68/90/68 69/91/69
f 61/81/61 60/79/60 69/91/69 70/92/70
f 62/83/62 61/81/61 70/92/70 71/93/71
f 63/85/63 62/83/62 71/93/71 72/94/72
f 55/70/55 63/85/63 72/94/72 64/86/64
f 2/2/73 1/1/74 73/95/74 74/96/73
f 1/1/74 5/5/75 75/97/75 73/95/74
f 5/5/75 7/7/76 76/98/76 75/97/75
f 7/7/76 9/9/77 77/99/77 76/98/76
f 9/9/77 11/11/78 78/100/78 77/99/77
f 11/11/78 13/13/79 79/101/79 78/100/78
f 13/13/79 15/15/80 80/102/80 79/101/79
f 15/15/80 17/17/81 81/103/81 80/102/80
f 17/17/81 2/2/73 74/96/73 81/103/81
g drop_shadow tire
f 82/104/82 83/105/82 84/106/82 85/107/82
g tireblockermesh tire
f 86/104/82 87/105/82 88/106/82 89/107/82
