v 0.00220843854792944 0.00124080576340285 0.00275784756333183
v 0.000820205512693703 -0.000131427707131407 0.0014088752134422
v 0.00511722282318305 -8.56081031100534e-05 0.0011319584235197
v 0.00521752406449456 0.0012408055861554 0.0022639168470394
v 0.000820205512693706 0.00261304217740718 0.0014088799800538
v 0.0051172233120663 0.00256721976230718 0.00113195830129889
v 0.00565256023891955 0.00124080578311553 -0.00011083103008715
v 0.00491662180720978 0.00256721976230718 -0.00113195866796132
v 0.00481632056589827 0.00124080631648489 -0.0022639168470394
v 0.00491662107388491 -8.56083475516738e-05 -0.00113195793463646
v -0.00329002063340089 0.00257253233426924 -0.00113195866796132
v -0.00349129875266333 0.00257253233426924 0.00113195830129889
v -0.00318938132932806 0.00124080631843499 -0.0022639168470394
v -0.000568048422300597 0.00124080576335952 0.00275824600317347
v -0.00359193781229455 0.00124080558518037 0.0022639168470394
v -0.00349129826378009 -9.09206750720934e-05 0.0011319584235197
v -0.00402802850787095 0.00124080578292936 -0.00011083103008715
v -0.00329002014451765 -9.09209195137143e-05 -0.00113195793463646
v -0.00311868922644367 0.00113734856676007 -0.00581402559902171
v 0.00475910917395023 0.00113734856676006 -0.00581402559902171
v 0.00229239392917806 0.00199884942152802 -0.00871787192321934
v -0.000651975273855138 0.00199884942152803 -0.00871787192321934
v 0.000820210486025264 0.000824761139763673 -0.00151634105936233
v 0.00443341730350624 0.000824761139763669 -0.00151634105936233
v 0.00455837533769109 0.000823891715540352 -0.00376372600707299
v -0.00291795539018453 0.00082389171554036 -0.00376372600707299
v -0.00279299735599968 0.000824761139763676 -0.00151634105936233
v 0.00455837533769109 0.000464309787938901 -0.003799130654207
v 0.00443341730350624 0.000463440385251979 -0.00151634084399839
v 0.000820210486025264 0.000463440385251983 -0.00151634084399839
v -0.00279299735599968 0.000463440385251986 -0.00151634084399839
v -0.00291795539018453 0.000464309787938909 -0.003799130654207
v 0.00475910917395023 0.000793200965079902 -0.00592409358580109
v -0.00311868922644367 0.00079320096507991 -0.00592409358580109
v -0.000651975273855138 0.00164984018351189 -0.0088113885451648
v -0.00364059702842627 0.00140924084530577 -0.00800556236996982
v 0.00528101697593283 0.00140924084530576 -0.00800556236996982
v 0.00229239392917806 0.00164984018351188 -0.0088113885451648
v 0.00528101697593283 0.0017582497387396 -0.00791204553266043
v -0.00364059702842627 0.0017582497387396 -0.00791204553266043
vt 0.355274140834808 0.855964243412018
vt 0.50060909986496 1.00090968608856
vt 0.0124983871355653 0.97841739654541
vt 0.0220166184008121 0.845210015773773
vt 0.500985443592072 0.720591843128204
vt 0.0282843317836523 0.711062133312225
vt 0.345439195632935 0.385464191436768
vt 0.505737543106079 0.1991126537323
vt 0.65565025806427 0.382738828659058
vt 0.805579781532288 0.196101725101471
vt 0.651932656764984 0.0125135183334351
vt 0.341730982065201 0.0160182118415833
vt 0.192001938819885 0.202262759208679
vt 0.954256653785706 0.541688978672028
vt 0.975811839103699 0.710773766040802
vt 0.0493914037942886 0.541946291923523
vt 0.943259060382843 0.413712680339813
vt 0.0599969774484634 0.414252936840057
vt 0.646249115467072 0.856145620346069
vt 0.980973899364471 0.84577488899231
vt 0.989040613174438 0.978559374809265
vt 0.654341280460358 0.382368445396423
vt 0.344200879335403 0.38586550951004
vt 0.490405857563019 0.198614239692688
vt 0.190564945340157 0.201624393463135
vt 0.340471416711807 0.0143359899520874
vt 0.650619149208069 0.0116053819656372
vt 0.804055094718933 0.195465445518494
vt 0.941500782966614 0.410876333713531
vt 0.058499239385128 0.410876333713531
vt 0.334986805915833 0.0128191336989403
vt 0.665013313293457 0.0128191336989403
vt 0.499999940395355 0.999999940395355
vt 0.0950051695108414 0.999999940395355
vt 0.080998957157135 0.691929996013641
vt 0.919001042842865 0.691929996013641
vt 0.90499484539032 0.999999940395355
vt 0.080998957157135 0.687076687812805
vt 0.919001042842865 0.687076687812805
vt 0.058499239385128 0.395788252353668
vt 0.941500782966614 0.395788252353668
vt 0.665013313293457 -4.74175010367617e-08
vt 1 0.110462002456188
vt -2.30160246417199e-08 0.110462002456188
vt 0.334986805915833 -4.74175010367617e-08
vt -2.30160246417199e-08 0.123281247913837
vt 1 0.123281247913837
vn 0.0398125083981336 -0.700120511223349 0.712913903595241
vn 0.000266519799185692 -0.700249352875252 0.713898293011678
vn 0.0794598685064839 -0.698046933192571 0.711629544325823
vn 0.000380314502981904 0.824126128487852 0.566406196739146
vn 0.0398129357318481 0.700119051101531 0.712915313647493
vn 0.0794607209216686 0.698046016285761 0.711630348550557
vn 0.0435444486229148 0.923174661122869 0.381906305335225
vn 0.941259235389358 0.334135289668135 0.0488329805831432
vn 0.995735218647336 -2.27076890423892e-07 -0.0922571099985832
vn 0.914927775494075 0.339037154022735 -0.21899994023202
vn 0.932161285987674 -2.52830205712759e-07 -0.362043280431693
vn 0.91492759672232 -0.339037602225165 -0.21899999322678
vn 0.941259108535676 -0.334135654906135 0.0488329265872134
vn 0.983631109531229 -2.14966500680393e-07 0.180193896573432
vn 0.000463553300488596 0.905917887615667 -0.423453145006983
vn -0.0424919049813958 0.922980485214137 0.382493741027128
vn 0.000212470908457523 0.64839597269059 -0.761303236204035
vn -0.0393616806515148 -0.699700851006271 0.713350809347959
vn -0.0787643098084914 -0.697221183943354 0.712515827305625
vn -0.039362106539325 0.699699390185965 0.713352218712591
vn -0.0787651599339569 0.69722026651022 0.712516631067652
vn -0.941384945020943 0.333770439933114 0.0489047923497455
vn -0.914929109552726 0.338635029812537 -0.219615666738322
vn -0.995709331176851 -1.85351830833026e-07 -0.0925360892155782
vn -0.931809186341192 -1.70581315132906e-07 -0.362948536641404
vn -0.914928981621169 -0.338635365359903 -0.21961568231166
vn -0.941384830137828 -0.33377076504201 0.0489047849360872
vn -0.983553603233444 -2.0216200119789e-07 0.180616470916883
vn -0.00021274653916326 0.970693195761196 0.24032202238211
vn 0.000212746452966089 0.970693195766149 0.240322022362178
vn 0.000318459986310143 0.958772643630523 0.284174095246162
vn -0.000318460115339317 0.958772643621737 0.28417409527566
vn 0 0.999999925169529 -0.000386860359429256
vn 0 0.997139076419098 0.0755887708463957
vn 0 -0.997039370094602 -0.0768927466108439
vn 0 -0.99999992747631 -0.000380850855218145
vn -0.000211163020716297 -0.970542722762696 -0.240928990996416
vn 0.000211163106229131 -0.970542722757731 -0.240928991016344
vn 0.00031610733238419 -0.958768108588216 -0.284189398166661
vn 0.000632219810196987 -0.958841487601719 -0.283941194531252
vn 0.270772443359896 0.249150232620128 -0.929842161607145
vn 0.136668594405892 0.256390383029416 -0.956862407451117
vn -0.136668650227047 0.256390381036179 -0.956862400012269
vn -0.270772560020881 0.249150305887844 -0.929842108003145
vn -0.972501932585351 -0.0656305520364511 0.223456084627713
vn -0.986442570532829 -0.0425090958862043 0.158505620744255
vn -0.99720243860838 -0.0109435906456886 0.0739427769107993
vn -0.998478101782275 -0.00270518620782736 0.0550832300146478
vn 0.972501936113153 -0.0656305476279332 0.223456070569198
vn 0.986442570532829 -0.0425090958862101 0.158505620744255
vn 0.99720243860838 -0.0109435906456889 0.0739427769107995
vn 0.998478107109358 -0.00270518622226209 0.0550831334513336
vn -0.000636893714765507 0.958846195559969 0.283925285289228
vn 0.000636871278678211 0.958846174820252 0.2839253553798
vn -0.000316107204372302 -0.958768108597002 -0.284189398137164
vn -0.000632242124602664 -0.958841485342163 -0.283941202111865
g accessory_rear_ww_4
f 1/1/1 2/2/2 3/3/3 4/4/3
f 5/5/4 1/1/5 4/4/6 6/6/7
f 6/7/8 7/8/9 8/9/10
f 8/9/10 7/8/9 9/10/11
f 9/10/11 7/8/9 10/11/12
f 10/11/12 7/8/9 3/12/13
f 3/12/13 7/8/9 4/13/14
f 4/13/14 7/8/9 6/7/8
f 11/14/15 12/15/16 5/5/4 6/6/7 8/16/15
f 13/17/17 11/14/15 8/16/15 9/18/17
f 2/2/2 14/19/18 15/20/19 16/21/19
f 14/19/20 5/5/4 12/15/16 15/20/21
f 12/22/22 11/23/23 17/24/24
f 11/23/23 13/25/25 17/24/24
f 13/25/25 18/26/26 17/24/24
f 18/26/26 16/27/27 17/24/24
f 16/27/27 15/28/28 17/24/24
f 15/28/28 12/22/22 17/24/24
f 5/5/4 14/19/20 1/1/5
f 2/2/2 1/1/1 14/19/18
g pCube1 accessory_rear_ww_4
f 19/29/29 20/30/30 21/31/31 22/32/32
f 23/33/33 24/34/33 25/35/34 26/36/34 27/37/33
f 28/38/35 29/34/36 30/33/36 31/37/36 32/39/35
f 33/40/37 28/38/35 32/39/35 34/41/38
f 35/42/39 34/41/38 36/43/40
f 37/44/41 38/45/42 21/31/42 39/46/41
f 22/32/43 35/42/43 36/43/44 40/47/44
f 40/47/45 36/43/45 34/41/46 19/29/46
f 19/29/46 34/41/46 32/39/47 26/36/47
f 26/36/47 32/39/47 31/37/48 27/37/48
f 37/44/49 39/46/49 20/30/50 33/40/50
f 33/40/50 20/30/50 25/35/51 28/38/51
f 28/38/51 25/35/51 24/34/52 29/34/52
f 22/32/43 21/31/42 38/45/42 35/42/43
f 22/32/32 40/47/53 19/29/29
f 21/31/31 20/30/30 39/46/54
f 38/45/55 37/44/56 33/40/37
f 38/45/55 33/40/37 34/41/38 35/42/39
f 19/29/29 26/36/34 25/35/34 20/30/30
