v 2.31949763660982 0.960766236613116 1.07730755995762e-31
v 1.77526736822654 1.77526636699366 1.07730755995762e-31
v 1.7171091294977 1.71710712703194 0.138959327707766
v 2.24351031886624 0.929290791509033 0.138959327707766
v 0.960768864849421 2.31949763660982 1.07730755995762e-31
v 0.929292793974789 2.24350906732514 0.138959327707766
v 1.25685089958796e-06 2.51060646037104 1.07730755995762e-31
v 1.21567585441226e-06 2.4283571818995 0.138959327707766
v -0.960766737229555 2.31949763660982 1.07730755995762e-31
v -0.929291229548417 2.24351031886624 0.138959327707766
v -1.77526636699366 1.77526749338065 1.07730755995762e-31
v -1.71710700187783 1.71710812826482 0.138959327707766
v -2.31949763660982 0.960768364232982 1.07730755995762e-31
v -2.24350906732514 0.929292793974789 0.138959327707766
v -2.51060746160392 7.69449167898178e-07 1.07730755995762e-31
v -2.4283571818995 7.35480077890129e-07 0.138959327707766
v -2.31949863784269 -0.96076679980661 1.07730755995762e-31
v -2.24351006855802 -0.929291792741911 0.138959327707766
v -1.77526736822654 -1.77526636699366 1.07730755995762e-31
v -1.7171091294977 -1.71710812826482 0.138959327707766
v -0.960767801039488 -2.31949763660982 1.07730755995762e-31
v -0.92929229335835 -2.24351031886624 0.138959327707766
v -6.28425449793981e-07 -2.51060746160392 1.07730755995762e-31
v -6.07837927206132e-07 -2.4283571818995 0.138959327707766
v 0.960767300423049 -2.31949863784269 1.07730755995762e-31
v 0.929291792741911 -2.24351006855802 0.138959327707766
v 1.77526749338065 -1.77526736822654 1.07730755995762e-31
v 1.71710812826482 -1.71710800311071 0.138959327707766
v 2.31949863784269 -0.960767801039488 1.07730755995762e-31
v 2.24351031886624 -0.92929229335835 0.138959327707766
v 2.51060746160392 9.05846130097755e-09 1.07730755995762e-31
v 2.4283571818995 0 0.138959327707766
v 0 0 0.138959327707766
v -2.76347132805451 -2.76347132805451 0.0245724352482423
v 2.76347132805451 -2.76347132805451 0.0245724352482423
v 2.76347132805451 2.76347132805451 0.0245724352482423
v -2.76347132805451 2.76347132805451 0.0245724352482423
vt 0.00779817393049598 0.986223757266998
vt 0.00779823353514075 0.843732833862305
vt 0.068727619946003 0.843732833862305
vt 0.0687276646494865 0.986223757266998
vt 0.00779826333746314 0.986223697662354
vt 0.00779820373281837 0.843732893466949
vt 0.0687276944518089 0.84373277425766
vt 0.068727619946003 0.986223697662354
vt 0.00779820373281837 0.986223757266998
vt 0.00779819628223777 0.843733131885529
vt 0.0687276944518089 0.843733131885529
vt 0.0687276944518089 0.986223757266998
vt 0.00779820373281837 0.843733549118042
vt 0.0687276944518089 0.843733549118042
vt 0.00779825588688254 0.843733489513397
vt 0.068727619946003 0.843733549118042
vt 0.0687276795506477 0.986223757266998
vt 0.00779825588688254 0.986223757266998
vt 0.00779818138107657 0.843733549118042
vt 0.0687276795506477 0.843733489513397
vt 0.0687276050448418 0.986223757266998
vt 0.00779816647991538 0.986223757266998
vt 0.00779817393049598 0.843733549118042
vt 0.0687276646494865 0.843733549118042
vt 0.0687276944518089 0.986223816871643
vt 0.00779818138107657 0.986223757266998
vt 0.00779831549152732 0.843733608722687
vt 0.0687278136610985 0.843733489513397
vt 0.00779831549152732 0.986223816871643
vt 0.00779829313978553 0.843733429908752
vt 0.0687277838587761 0.986223816871643
vt 0.00779829313978553 0.986223697662354
vt 0.00779830804094672 0.843733549118042
vt 0.0687277838587761 0.843733549118042
vt 0.0687278136610985 0.986223816871643
vt 0.00779830059036613 0.986223697662354
vt 0.00779831549152732 0.843733072280884
vt 0.0687277987599373 0.843733072280884
vt 0.0687277838587761 0.986223757266998
vt 0.00779830804094672 0.843732833862305
vt 0.0687277838587761 0.84373277425766
vt 0.0687277987599373 0.986223697662354
vt 0.0687277987599373 0.843732833862305
vt 0.00779829313978553 0.986223638057709
vt 0.00779829313978553 0.84373277425766
vt 0.00779832294210792 0.986223757266998
vt 0.00779817393049598 0.843732893466949
vt 0.00779818883165717 0.84373277425766
vt 0.0687276944518089 0.843732893466949
vt 0.961939811706543 0.691341459751129
vt 0.853553593158722 0.853553175926208
vt 0.500000059604645 0.5
vt 0.691341936588287 0.961939632892609
vt 0.500000298023224 0.999999940395355
vt 0.308658510446548 0.961939811706543
vt 0.14644680917263 0.853553473949432
vt 0.0380603894591331 0.691341876983643
vt 1.77985270966019e-08 0.50000011920929
vt 0.0380602031946182 0.308658391237259
vt 0.146446496248245 0.14644667506218
vt 0.308658272027969 0.0380602329969406
vt 0.499999910593033 -4.72659600347924e-08
vt 0.691341698169708 0.0380601361393929
vt 0.853553414344788 0.146446526050568
vt 0.961939930915833 0.308658242225647
vt 1 0.5
vt 0 0
vt 1 0
vt 1 1
vt 0 1
vn 0.795050061548073 0.329320480815605 0.509355887909214
vn 0.608505375481809 0.608504183388899 0.509356325972253
vn 0.347698536045664 0.347697930243685 0.870753626082579
vn 0.45428987889108 0.188173022201115 0.870753478116985
vn 0.329320164378524 0.795048539321496 0.509358468523355
vn 0.188172717273897 0.454288672481327 0.870754173420324
vn 7.55894680957059e-08 0.860555401155701 0.509356850883293
vn 8.4384105222705e-08 0.491719334743003 0.870753751550857
vn -0.329320162939145 0.795050145171941 0.509355962901988
vn -0.188172805248328 0.454289868457118 0.870753530444861
vn -0.608503558711846 0.608504273967558 0.50935838816911
vn -0.347697462873542 0.347697823365045 0.87075409728494
vn -0.795047303475571 0.329320056848424 0.509360467050177
vn -0.454287896115638 0.188172597552952 0.870754604336378
vn -0.860553333906568 4.00624179016768e-07 0.509360343472213
vn -0.491717573564912 2.52215102782771e-07 0.870754746095232
vn -0.795049212804098 -0.329320147075524 0.509357428481945
vn -0.45428909516578 -0.188172716182855 0.870753953133618
vn -0.608505728878273 -0.608505728878273 0.509354057453794
vn -0.347699062306929 -0.347699007121279 0.870752985936746
vn -0.32932100663461 -0.795050274321011 0.509355215828063
vn -0.188173315490342 -0.454290032890572 0.870753334391351
vn -4.38418890721423e-07 -0.860554120389168 0.509359014724421
vn -2.23754467546349e-07 -0.491718257549419 0.870754359846974
vn 0.329319469366581 -0.795047920198715 0.509359884250626
vn 0.188172221929558 -0.45428806812426 0.870754595769682
vn 0.608503501714236 -0.608503680528165 0.50935916521173
vn 0.347697261084212 -0.347697364049874 0.870754361268037
vn 0.795048379663599 -0.329319760193973 0.50935897905119
vn 0.454288271000729 -0.188172371263307 0.870754457654001
vn 0.860554531494853 4.2330103812941e-07 0.509358320167145
vn 0.491718404013575 2.7774452227581e-07 0.870754277138083
vn 0 1.03954045371779e-09 1
vn 0 0 1
g checker_boardRound checker_boardGroup
f 1/1/1 2/2/2 3/3/3 4/4/4
f 2/5/2 5/6/5 6/7/6 3/8/3
f 5/9/5 7/10/7 8/11/8 6/12/6
f 7/9/7 9/13/9 10/14/10 8/12/8
f 9/9/9 11/15/11 12/16/12 10/17/10
f 11/18/11 13/19/13 14/20/14 12/21/12
f 13/22/13 15/23/15 16/24/16 14/25/14
f 15/26/15 17/27/17 18/28/18 16/25/16
f 17/29/17 19/30/19 20/28/20 18/31/18
f 19/32/19 21/33/21 22/34/22 20/35/20
f 21/36/21 23/37/23 24/38/24 22/39/22
f 23/36/23 25/40/25 26/41/26 24/42/24
f 25/36/25 27/40/27 28/43/28 26/42/26
f 27/44/27 29/45/29 30/43/30 28/42/28
f 29/46/29 31/47/31 32/7/32 30/35/30
f 31/9/31 1/48/1 4/49/4 32/4/32
f 4/50/4 3/51/3 33/52/33
f 3/51/3 6/53/6 33/52/33
f 6/53/6 8/54/8 33/52/33
f 8/54/8 10/55/10 33/52/33
f 10/55/10 12/56/12 33/52/33
f 12/56/12 14/57/14 33/52/33
f 14/57/14 16/58/16 33/52/33
f 16/58/16 18/59/18 33/52/33
f 18/59/18 20/60/20 33/52/33
f 20/60/20 22/61/22 33/52/33
f 22/61/22 24/62/24 33/52/33
f 24/62/24 26/63/26 33/52/33
f 26/63/26 28/64/28 33/52/33
f 28/64/28 30/65/30 33/52/33
f 30/65/30 32/66/32 33/52/33
f 32/66/32 4/50/4 33/52/33
g dropshadow checker_boardGroup
f 34/67/34 35/68/34 36/69/34 37/70/34
