v -1.98428662117385 1.0839179384637e-15 0.0106432638925517
v 1.98428662117385 1.0839179384637e-15 0.0106432638925517
v 1.98428662117385 1.0839179384637e-15 6.03290968366808
v -1.98428662117385 1.0839179384637e-15 6.03290968366808
v -1.38850900444772 -0.00907545053739873 2.62939923704453
v -0.726425366138849 -0.00907545053739873 2.62939923704453
v -0.726425366138849 -0.00907545053739873 3.29148275019929
v -1.38850900444772 -0.00907545053739873 3.29148275019929
v -1.38864241872873 -0.0250000007978574 2.62926582276352
v -0.726291764126675 -0.0250000007978574 2.62926582276352
v -0.726291764126675 -0.0250000007978574 3.29161616448029
v -1.38864241872873 -0.0250000007978574 3.29161616448029
v -1.38857233242726 -0.0250000007978574 2.62933590906499
v -0.726361850428143 -0.0250000007978574 2.62933590906499
v -0.726361850428143 -0.0250000007978574 3.29154607817883
v -1.38857233242726 -0.0250000007978574 3.29154607817883
v -1.38857233242726 -0.00907544955963225 1.91415801761657
v -0.726361850428143 -0.00907544955963225 1.91415801761657
v -0.726361850428143 -0.00907544955963225 2.57636843703863
v -1.38857233242726 -0.00907544955963225 2.57636843703863
v -1.38857233242726 -0.0250000007978574 1.91415801761657
v -0.726361850428143 -0.0250000007978574 1.91415801761657
v -0.726361850428143 -0.0250000007978574 2.57636843703863
v -1.38857233242726 -0.0250000007978574 2.57636843703863
v -1.38845581395107 -0.00907544955963225 1.16420981139336
v -0.726478368904334 -0.00907544955963225 1.16420981139336
v -0.726478368904334 -0.00907544955963225 1.82618719386304
v -1.38845581395107 -0.00907544955963225 1.82618719386304
v -1.38845581395107 -0.0200660229511461 1.16420981139336
v -0.726478368904334 -0.0200660229511461 1.16420981139336
v -0.726478368904334 -0.0200660229511461 1.82618719386304
v -1.38845581395107 -0.0200660229511461 1.82618719386304
v -1.38845581395107 -0.0250000007978574 1.16420981139336
v -0.726478368904334 -0.0250000007978574 1.16420981139336
v -0.726478368904334 -0.0250000007978574 1.82618719386304
v -1.38845581395107 -0.0250000007978574 1.82618719386304
v 0.887927295654777 -0.00929140590933051 0.276039912613934
v 1.64066975510965 -0.00929140590933051 0.276039912613934
v 1.64066975510965 -0.00929140590933051 1.02878249722292
v 0.887927295654777 -0.00929140590933051 1.02878249722292
v 0.887927295654777 -0.0204683914585063 0.276039912613934
v 1.64066975510965 -0.0204683914585063 0.276039912613934
v 1.64066975510965 -0.0204683914585063 1.02878249722292
v 0.887927295654777 -0.0204683914585063 1.02878249722292
v 0.887927295654777 -0.0386080482187546 0.276039912613934
v 1.64066975510965 -0.0386080482187546 0.276039912613934
v 1.64066975510965 -0.0386080482187546 1.02878249722292
v 0.887927295654777 -0.0386080482187546 1.02878249722292
v -0.277395032442647 -0.0320536649133277 0.276039912613934
v 0.475347520877809 -0.0320536649133277 0.276039912613934
v 0.475347520877809 -0.0320536649133277 1.02878249722292
v -0.277395032442647 -0.0320536649133277 1.02878249722292
v -0.277395032442647 -0.0231985247197739 0.276039912613934
v 0.475347520877809 -0.0231985247197739 0.276039912613934
v 0.475347520877809 -0.0231985247197739 1.02878249722292
v -0.277395032442647 -0.0231985247197739 1.02878249722292
v -0.277395032442647 -0.0205387104683974 0.276039912613934
v 0.475347520877809 -0.0205387104683974 0.276039912613934
v 0.475347520877809 -0.0205387104683974 1.02878249722292
v -0.277395032442647 -0.0205387104683974 1.02878249722292
v -1.25972317272597 -0.0440624950751858 2.75818506876628
v -0.855211010129433 -0.0440624950751858 2.75818506876628
v -0.855211010129433 -0.0440624950751858 3.16269691847754
v -1.25972317272597 -0.0440624950751858 3.16269691847754
v -1.28190273375023 -0.0882255984103586 2.0208276162936
v -0.83303132395106 -0.0882255984103586 2.0208276162936
v -0.83303132395106 -0.0882255984103586 2.4696988383616
v -1.28190273375023 -0.0882255984103586 2.4696988383616
v -1.28954677131232 -0.0929417337958268 1.30514785686503
v -0.825387411543078 -0.0929417337958268 1.30514785686503
v -0.825387411543078 -0.0929417337958268 1.68524914839136
v -1.28954677131232 -0.0929417337958268 1.68524914839136
v -0.0673300230426727 -0.0409390435131203 0.486104953302436
v 0.265282511477834 -0.0409390435131203 0.486104953302436
v 0.265282511477834 -0.0409390435131203 0.818717393957361
v -0.0673300230426727 -0.0409390435131203 0.818717393957361
v -1.64625298231481 -0.0320536649133277 0.276039912613934
v -0.893510428994354 -0.0320536649133277 0.276039912613934
v -0.893510428994354 -0.0320536649133277 1.02878249722292
v -1.64625298231481 -0.0320536649133277 1.02878249722292
v -1.64625298231481 -0.0231985247197739 0.276039912613934
v -0.893510428994354 -0.0231985247197739 0.276039912613934
v -0.893510428994354 -0.0231985247197739 1.02878249722292
v -1.64625298231481 -0.0231985247197739 1.02878249722292
v -1.64625298231481 -0.0205387104683974 0.276039912613934
v -0.893510428994354 -0.0205387104683974 0.276039912613934
v -0.893510428994354 -0.0205387104683974 1.02878249722292
v -1.64625298231481 -0.0205387104683974 1.02878249722292
v -1.41548602615028 -0.0409390433582811 0.472110133225344
v -1.12427738575533 -0.0409390433582811 0.472110133225344
v -1.12427738575533 -0.0409390433582811 0.832712211181355
v -1.41548602615028 -0.0409390433582811 0.832712211181355
vt 0 0
vt 1 0
vt 1 1
vt 0 1
vt 0.0285280849784613 0.0213960614055395
vt 1.03209412097931 0.0213960614055395
vt 1.03209412097931 1.03209412097931
vt 0.0285280849784613 1.03209412097931
vt 1.03209412097931 0.0213960409164429
vt 0.0285280849784613 0.0213960409164429
vt 0.0285280849784613 1.03801143169403
vt 1.03209412097931 1.03801143169403
vt 1.03209412097931 0.0273131746798754
vt 0.0285280849784613 0.0273131746798754
vt 0.0249620079994202 0.0249621272087097
vt 0.0249620676040649 1.02852809429169
vt 1.03566002845764 1.02852809429169
vt 1.03566002845764 0.0249621272087097
vt 0.028528094291687 -0.0318581238389015
vt 1.03209412097931 -0.0318581238389015
vt 1.03209412097931 0.978840112686157
vt 0.028528094291687 0.978840112686157
vt 0.0226109568029642 0.0213960409164429
vt 1.02617704868317 0.0213960409164429
vt 1.02617704868317 0.990674257278442
vt 0.0226109568029642 0.990674257278442
vn 0 -1 0
g PetControlPannel
f 1/1/1 2/2/1 3/3/1 4/4/1
g ButtonFeedUp
f 5/5/1 6/6/1 7/7/1 8/8/1
g ButtonFeedDown
f 9/8/1 10/7/1 11/9/1 12/10/1
g ButtonFeedRollover
f 13/10/1 14/9/1 15/7/1 16/8/1
g ButtonScratchUp
f 17/5/1 18/6/1 19/7/1 20/8/1
g ButtonScratchDown
f 21/11/1 22/12/1 23/13/1 24/14/1
g ButtonScratchRollover
f 21/10/1 22/9/1 23/7/1 24/8/1
g ButtonGoToUp
f 25/5/1 26/6/1 27/7/1 28/8/1
g ButtonGoToDown
f 29/8/1 30/7/1 31/9/1 32/10/1
g ButtonGoToRollover
f 33/10/1 34/9/1 35/7/1 36/8/1
g CancelButtonDown
f 37/5/1 38/6/1 39/7/1 40/8/1
g CancelButtonUp
f 41/8/1 42/7/1 43/9/1 44/10/1
g CancelButtonRollover
f 45/10/1 46/9/1 47/7/1 48/8/1
g PetControlToonButtonUp
f 49/10/1 50/9/1 51/7/1 52/8/1
g PetControlToonButtonDown
f 53/8/1 54/7/1 55/9/1 56/10/1
g PetControlToonButtonRollover
f 57/10/1 58/9/1 59/7/1 60/8/1
g PetControlFeedIcon
f 61/15/1 62/16/1 63/17/1 64/18/1
g PetControlScratchIcon
f 65/19/1 66/20/1 67/21/1 68/22/1
g PetControlGoToIcon
f 69/10/1 70/9/1 71/7/1 72/8/1
g PetControlToonIcon
f 73/23/1 74/24/1 75/25/1 76/26/1
g PetControlToonButtonUp1
f 77/10/1 78/9/1 79/7/1 80/8/1
g PetControlToonButtonDown1
f 81/8/1 82/7/1 83/9/1 84/10/1
g PetControlToonButtonRollover1
f 85/10/1 86/9/1 87/7/1 88/8/1
g PetBattleIcon
f 89/23/1 90/24/1 91/25/1 92/26/1
