v -0.138897056637865 -0.140222195378206 0.0600092141897322
v 0.138897056637865 -0.140222195378206 0.0600092141897322
v 0.131233592786385 -0.131233592678924 0.0656168012268635
v 0.138897056637865 -0.140222195378206 0.275546464490814
v -0.138897056637865 -0.140222195378206 0.275546464490814
v -0.138897056637865 0.137571917897524 0.275546464490814
v 0.138897056637865 0.137571917897524 0.275546464490814
v 0.138897056637865 0.137571917897524 0.0600092141897322
v -0.138897056637865 0.137571917897524 0.0600092141897322
v -0.138897056637865 0.11886351919238 0.13664940785295
v 0.159654000493138 -0.160979139233479 -0.000778127523278732
v 0.159654000493138 0.158328861752797 -0.000778127523278732
v 0.141827205503564 0.16097913923348 0.0320109135038742
v 0.159654000493138 0.158328861752797 0.0583037859772529
v 0.159654000493138 -0.160979139233479 0.0583037859772529
v -0.159654000493138 0.158328861752798 0.0583037859772529
v -0.159654000493138 -0.160979139233479 0.0583037859772529
v -0.159654000493138 0.158328861752798 -0.000778127523278732
v -0.159654000493138 -0.160979139233479 -0.000778127523278732
v -0.150491994363707 -0.160979139233479 0.0287628292269871
v 0.163752906141665 0.150242340002235 0.261639020616454
v -0.155164801565634 0.166025090224381 0.261639020616454
v -0.158692982093618 0.148351082968332 0.294428061643607
v -0.155164801565634 0.166025090224381 0.320720934116986
v 0.163752906141665 0.150242340002235 0.320720934116986
v -0.170947551787779 -0.152892617482917 0.320720934116986
v 0.147970155919519 -0.168675367705063 0.320720934116986
v -0.170947551787779 -0.152892617482917 0.261639020616454
v 0.147970155919519 -0.168675367705063 0.261639020616454
v 0.14842301539635 -0.159524560384942 0.29117997736672
v -0.170233664511802 -0.170233664511802 0.00042200838590761
v 0.170233664511802 -0.170233664511802 0.00042200838590761
v 0.170233664511802 -0.170233664511802 0.340889337409512
v -0.170233664511802 -0.170233664511802 0.340889337409512
v -0.170233664511802 0.170233664511802 0.340889337409512
v 0.170233664511802 0.170233664511802 0.340889337409512
v 0.170233664511802 0.170233664511802 0.00042200838590761
v -0.170233664511802 0.170233664511802 0.00042200838590761
v -0.238467622043241 -0.238467622043241 -5.29504489240031e-17
v 0.238467622043241 -0.238467622043241 -5.29504489240031e-17
v 0.238467622043241 0.238467622043241 5.29504489240031e-17
v -0.238467622043241 0.238467622043241 5.29504489240031e-17
vt 0.0314222574234009 0.0306608080863953
vt 0.934657633304596 0.0306608080863953
vt 0.934657633304596 0.482278406620026
vt 0.934657633304596 0.93389618396759
vt 0.0314222574234009 0.93389618396759
vt 0.0314222574234009 0.0311318635940552
vt 0.934657633304596 0.0311318635940552
vt 0.934657633304596 0.93436723947525
vt 0.0314222574234009 0.93436723947525
vt 0.0314222574234009 0.482749581336975
vt 0.0177457928657532 0.019054651260376
vt 0.954717814922333 0.019054651260376
vt 0.954717814922333 0.956026434898376
vt 0.0177457928657532 0.956026434898376
vt 0.0177457928657532 0.487540543079376
vt 0.036000058054924 0.0306608080863953
vt 0.963260173797607 0.0306608080863953
vt 0.963260173797607 0.957920849323273
vt 0.036000058054924 0.957920849323273
vt 0.036000058054924 0.494290769100189
vt 0.00854861736297607 0.0111504793167114
vt 0.997722744941711 0.0105546116828918
vt 1.00698637962341 0.156842529773712
vt 0.997722744941711 0.27101469039917
vt 0.00854861736297607 0.271610498428345
vt 0.341641217470169 0.449226975440979
vt 0.200220167636871 0.45063579082489
vt 0.198811933398247 0.309215724468231
vt 0.340226054191589 0.307806968688965
vt 1.00524950027466 0.279474437236786
vt 0.00920874439179897 0.279513597488403
vt 0.00920874439179897 0.021942138671875
vt 1.00524950027466 0.0219029784202576
vt 1.00552558898926 0.150805115699768
vt 0.938151240348816 0.486019015312195
vt 0.0251917243003845 0.486023604869843
vt 0.0251917243003845 0.71899938583374
vt 0.938151240348816 0.718994736671448
vt 0.88720029592514 0.615330338478088
vt 0.98051130771637 0.962569713592529
vt 0.0105910925194621 0.962569713592529
vt 0.0105910925194621 0.740179419517517
vt 0.980511367321014 0.740179419517517
vt 0.952681243419647 0.851374447345734
vt 0 0
vt 1 0
vt 1 1
vt 0 1
vn 0.0164025667486553 -0.999865468852713 0
vn -0.033654036698236 0.99943354246989 0
vn 0.999901730756853 -0.014018874043565 0
vn -1 0 0
vn 0.999613821461262 0.02778862975412 0
vn 0 0 1
vn -0.999897102571951 -0.0143451827529972 0
vn -0.00426916780893418 0.999990887061587 0
vn 0 -1 0
vn 0.0216542308362458 0.999765519652929 0
vn -0.0350952477949149 -0.999383972045887 0
vn -0.998979604813481 0.0451635823058871 0
vn 0.99877769026215 -0.0494279823035948 0
vn 0 1 0
vn 1 0 0
g pCube4 box
f 1/1/1 2/2/1 3/3/1 4/4/1 5/5/1
f 6/6/2 7/7/2 8/8/2 9/9/2 10/10/2
f 2/11/3 8/12/3 7/13/3 4/14/3 3/15/3
f 9/16/4 1/17/4 5/18/4 6/19/4 10/20/4
g pCube6 box
f 11/21/5 12/22/5 13/23/5 14/24/5 15/25/5
f 15/26/6 14/27/6 16/28/6 17/29/6
f 17/30/7 16/31/7 18/32/7 19/33/7 20/34/7
f 12/35/8 18/36/8 16/37/8 14/38/8 13/39/8
f 19/40/9 11/41/9 15/42/9 17/43/9 20/44/9
g pCube7 box
f 21/21/10 22/22/10 23/23/10 24/24/10 25/25/10
f 25/26/6 24/27/6 26/28/6 27/29/6
f 27/30/11 26/31/11 28/32/11 29/33/11 30/34/11
f 22/35/12 28/36/12 26/37/12 24/38/12 23/39/12
f 29/40/13 21/41/13 25/42/13 27/43/13 30/44/13
g collision box
f 31//9 32//9 33//9 34//9
f 35//14 36//14 37//14 38//14
f 32//15 37//15 36//15 33//15
f 38//4 31//4 34//4 35//4
g pPlane1
f 39/45/6 40/46/6 41/47/6 42/48/6
