v -0.998166602427565 0 -0.998166602427565
v 0.998166602427565 0 -0.998166602427565
v 0.998166602427565 0 0.998166602427565
v -0.998166602427565 0 0.998166602427565
v 0.208816487645227 -0.00449893433903772 0.653887358237439
v 0.451571359409122 -0.00449893433903772 0.653887358237439
v 0.451571359409122 -0.00449893433903772 0.983976629462455
v 0.208816487645227 -0.00449893433903772 0.983976629462455
vt 0 0
vt 1 0
vt 1 1
vt 0 1
vn 0 -1 0
g part1 tutorialPage2
f 1/1/1 2/2/1 3/3/1 4/4/1
g part1 tutorialPage1
f 1/1/1 2/2/1 3/3/1 4/4/1
g part1 tutorialPage3
f 1/1/1 2/2/1 3/3/1 4/4/1
g king tutorialPage3
f 5/1/1 6/2/1 7/3/1 8/4/1
g part1 tutorialPage4
f 1/1/1 2/2/1 3/3/1 4/4/1
