v -1.83117518437616e-16 0.816591893594096 0.385203730715854
v -0.57741757140072 0.57741769655483 0.385203730715854
v -0.816591768439986 1.251541097646e-07 0.385203730715854
v -0.57741757140072 -0.577417508823665 0.385203730715854
v -5.09767659926139e-16 -0.816591643285877 0.385203730715854
v 0.57741757140072 -0.577417508823665 0.385203730715854
v 0.816591768439986 1.251541097646e-07 0.385203730715854
v 0.57741757140072 0.57741769655483 0.385203730715854
v -8.82470604815668e-16 0.816591893594096 0.385203699427327
v -8.62913147627627e-16 1.13599932412776 0.590688537737829
v -0.803272742924728 0.803272868078838 0.590688537737829
v -0.57741757140072 0.57741769655483 0.385203699427327
v -1.13599919897365 1.251541097646e-07 0.590688537737829
v -0.816591768439986 1.251541097646e-07 0.385203699427327
v -0.803272742924728 -0.803272742924728 0.590688537737829
v -0.57741757140072 -0.577417508823665 0.385203699427327
v -1.31733165081787e-15 -1.13599919897365 0.590688537737829
v -1.20912063514501e-15 -0.816591643285877 0.385203699427327
v 0.803272742924728 -0.803272742924728 0.590688537737829
v 0.57741757140072 -0.577417508823665 0.385203699427327
v 1.13599919897365 1.251541097646e-07 0.590688537737829
v 0.816591768439986 1.251541097646e-07 0.385203699427327
v 0.803272742924728 0.803272868078838 0.590688537737829
v 0.57741757140072 0.57741769655483 0.385203699427327
v -8.3870240044989e-16 1.53140471050433 0
v -1.08286664867651 1.08286689898473 0
v -1.53140471050433 1.251541097646e-07 0
v -1.08286664867651 -1.08286664867651 0
v -1.45128946678942e-15 -1.53140471050433 0
v 1.08286664867651 -1.08286664867651 0
v 1.53140471050433 1.251541097646e-07 0
v 1.08286664867651 1.08286689898473 0
vt 0.411040812730789 0.285233527421951
vt 0.588959217071533 0.285233527421951
vt 0.714766502380371 0.411040812730789
vt 0.714766502380371 0.588959217071533
vt 0.588959217071533 0.714766502380371
vt 0.411040812730789 0.714766383171082
vt 0.285233527421951 0.588959217071533
vt 0.285233527421951 0.411040812730789
vt -1.13225448131561 0.101171039044857
vt -1.13225448131561 0.290633499622345
vt -0.724190711975098 0.290633499622345
vt -0.724190711975098 0.101171039044857
vt -0.316127181053162 0.290633499622345
vt -0.316127181053162 0.101171039044857
vt 0.0919363871216774 0.290633499622345
vt 0.0919363871216774 0.101171039044857
vt 0.499999940395355 0.290633499622345
vt 0.499999940395355 0.101171039044857
vt 0.908063650131226 0.290633499622345
vt 0.908063650131226 0.101171039044857
vt 1.31612706184387 0.290633499622345
vt 1.31612706184387 0.101171039044857
vt 1.72419083118439 0.290633499622345
vt 1.72419083118439 0.101171039044857
vt 2.13225412368774 0.290633499622345
vt 2.13225412368774 0.101171039044857
vt -1.13225448131561 0.898828983306885
vt -0.724190711975098 0.898828983306885
vt -0.316127181053162 0.898828983306885
vt 0.0919363871216774 0.898828983306885
vt 0.499999940395355 0.898828983306885
vt 0.908063650131226 0.898828983306885
vt 1.31612706184387 0.898828983306885
vt 1.72419083118439 0.898828983306885
vt 2.13225412368774 0.898828983306885
vn 0 8.70833538613169e-09 1
vn 0 -0.541039785685935 0.840996997797803
vn 0.382572921338448 -0.382572921338448 0.840996979612372
vn 0.541039793801935 -3.81769296729342e-08 0.840996992576524
vn 0.382572841386509 0.382572811584186 0.840997065910473
vn 0 0.541039613089383 0.840997108834561
vn -0.382572841386509 0.382572811584186 0.840997065910473
vn -0.541039793801935 -3.81769296729342e-08 0.840996992576524
vn -0.382572921338448 -0.382572921338448 0.840996979612372
vn -0.58760661533635 0.587606734545629 0.556270429853665
vn 0 0.83100139481219 0.556270331601636
vn -0.831001309595906 1.57592155522107e-08 0.556270458904559
vn -0.587606713906716 -0.587606713906716 0.556270347532117
vn 0 -0.831001401363761 0.556270321814372
vn 0.587606713906716 -0.587606713906716 0.556270347532117
vn 0.831001309595906 1.57592155522107e-08 0.556270458904559
vn 0.58760661533635 0.587606734545629 0.556270429853665
g bottom mole_hole
f 1/1/1 2/2/1 3/3/1 4/4/1 5/5/1 6/6/1 7/7/1 8/8/1
g wall mole_hole
f 9/9/2 10/10/2 11/11/3 12/12/3
f 12/12/3 11/11/3 13/13/4 14/14/4
f 14/14/4 13/13/4 15/15/5 16/16/5
f 16/16/5 15/15/5 17/17/6 18/18/6
f 18/18/6 17/17/6 19/19/7 20/20/7
f 20/20/7 19/19/7 21/21/8 22/22/8
f 22/22/8 21/21/8 23/23/9 24/24/9
f 24/24/9 23/23/9 10/25/2 9/26/2
f 11/11/10 10/10/11 25/27/11 26/28/10
f 13/13/12 11/11/10 26/28/10 27/29/12
f 15/15/13 13/13/12 27/29/12 28/30/13
f 17/17/14 15/15/13 28/30/13 29/31/14
f 19/19/15 17/17/14 29/31/14 30/32/15
f 21/21/16 19/19/15 30/32/15 31/33/16
f 23/23/17 21/21/16 31/33/16 32/34/17
f 25/35/11 10/25/11 23/23/17 32/34/17
