v 0.66309801236851 0.128369999369924 -0.127141001656299
v 0.66309801236851 0.0307460000195841 -0.0590259008833117
v -0.403942992993853 0.0307460000195841 -0.0590259008833117
v -0.403942992993853 0.128369999369924 -0.127141001656299
v -0.403942992993853 -0.103450001381201 -0.127141001656299
v -0.403942992993853 -0.00582600007532776 -0.0590259008833117
v 0.66309801236851 -0.00582600007532776 -0.0590259008833117
v 0.66309801236851 -0.103450001381201 -0.127141001656299
v 0.729577998163819 0.312460000746519 -0.127141001656299
v -0.470422008844811 0.312460000746519 -0.127141001656299
v -0.470422008844811 -0.287540002757796 -0.127141001656299
v 0.729577998163819 -0.287540002757796 -0.127141001656299
v -0.403942992993853 -0.103450001381201 0.371760990363094
v -0.403942992993853 -0.00582600007532776 0.30364599127782
v -0.403942992993853 0.0307460000195841 0.30364599127782
v -0.403942992993853 0.128369999369924 0.371760990363094
v 0.66309801236851 0.128369999369924 0.371760990363094
v 0.66309801236851 0.0307460000195841 0.30364599127782
v 0.66309801236851 -0.00582600007532776 0.30364599127782
v 0.66309801236851 -0.103450001381201 0.371760990363094
v -0.470422008844811 0.261988993391903 0.371760990363094
v 0.729577998163819 0.261988993391903 0.371760990363094
v 0.729577998163819 -0.23706899540318 0.371760990363094
v -0.470422008844811 -0.23706899540318 0.371760990363094
vt 1 1
vt 1 0.578881025314331
vt 0 0.578881025314331
vt 0 1
vt 0 0
vt 0 0.421119004487991
vt 1 0.421119004487991
vt 1 0
vt 0.0553993992507458 0.26774200797081
vt 0.944600999355316 0.26774200797081
vt 0.944600999355316 0.732258021831512
vt 0.0553993992507458 0.732258021831512
vt 0.455828011035919 -1.24652004241943
vt 0.61702299118042 -0.995213985443115
vt 0.679727971553802 -0.988572001457214
vt 0.853294014930725 -1.20440995693207
vt 0.168236002326012 1
vn 0 -0.572211691536884 -0.820105956610789
vn 0 0.572211691536884 -0.820105956610789
vn 0 0 -1
vn 0 -7.43496144650633e-08 -0.999999999999997
vn 0 -1.48699228930125e-07 -0.999999999999989
vn 0.999999999994566 0 3.29661315843651e-06
vn 0.999999999978265 0 6.59322631676553e-06
vn 1 0 0
vn -0.999999999999459 -0 -1.04014964108445e-06
vn -1 0 0
vn -0.999999999997836 -0 -2.08029928216552e-06
vn 0.999999999994566 0 -3.29661793328369e-06
vn 0.999999999978265 0 -6.5932358664599e-06
vn -0.999999999999459 0 1.04015123270017e-06
vn -0.999999999997836 0 2.08030269277065e-06
vn 0 -2.04866353215034e-07 0.999999999999979
vn 0 0 1
vn 0 -4.09732706430043e-07 0.999999999999916
vn 0 2.30393808919865e-07 0.999999999999974
vn 0 4.60787617839693e-07 0.999999999999894
vn 0 -0.572211094855113 0.820106372932629
vn 0 0.572211094855113 0.820106372932629
vn 0 0.994921850326012 0.100650443336655
vn 0 0.994921851072108 0.100650435961553
vn 0 -0.994921850326012 0.100650443336655
vn 0 -0.994921851072108 0.100650435961553
g shredder shredder shredder
f 1/1/1 2/2/1 3/3/1
f 1/1/1 3/3/1 4/4/1
f 5/5/2 6/6/2 7/7/2
f 5/5/2 7/7/2 8/8/2
f 3/3/3 2/2/3 7/7/3
f 3/3/3 7/7/3 6/6/3
f 9/5/3 1/9/3 4/10/3
f 9/5/3 4/10/3 10/8/3
f 11/1/4 5/11/3 8/12/4
f 11/1/4 8/12/4 12/4/5
f 12/4/3 8/12/3 1/9/3
f 12/4/3 1/9/3 9/5/3
f 10/8/3 4/10/3 5/11/3
f 10/8/3 5/11/3 11/1/3
f 4/13/6 3/14/7 6/15/6
f 4/13/6 6/15/6 5/16/8
f 8/16/9 7/15/10 2/14/9
f 8/16/9 2/14/9 1/13/11
f 13/16/12 14/15/13 15/14/12
f 13/16/12 15/14/12 16/13/8
f 17/13/14 18/14/10 19/15/14
f 17/13/14 19/15/14 20/16/15
f 21/8/16 16/10/17 17/9/16
f 21/8/16 17/9/16 22/5/18
f 23/4/19 20/12/20 13/11/19
f 23/4/19 13/11/19 24/1/17
f 22/5/17 17/9/17 20/12/17
f 22/5/17 20/12/17 23/4/17
f 24/1/17 13/11/17 16/10/17
f 24/1/17 16/10/17 21/8/17
f 16/4/21 15/3/21 18/2/21
f 16/4/21 18/2/21 17/1/21
f 20/8/22 19/7/22 14/6/22
f 20/8/22 14/6/22 13/5/22
f 14/6/17 19/7/17 18/2/17
f 14/6/17 18/2/17 15/3/17
f 11/8/10 24/1/10 21/17/10
f 11/8/10 21/17/10 10/5/10
f 10/8/23 21/1/23 22/4/23
f 10/8/23 22/4/23 9/5/24
f 9/8/8 22/1/8 23/17/8
f 9/8/8 23/17/8 12/5/8
f 12/8/25 23/1/26 24/4/25
f 12/8/25 24/4/25 11/5/25
