v 0.0152509004425189 -9.66874030241474e-08 0.251131999523934
v 0.13926099604509 -9.66874030241474e-08 0.215902994936845
v 0.0535720015761108 0.117941001268822 0.215902994936845
v 0.226229006849875 -9.66874030241474e-08 0.120740002534521
v 0.185936001029227 0.124009997825923 0.120740002534521
v 0.0804469028482913 0.200652997950556 0.120740002534521
v 0.239587002226061 -0.0728913961745935 0.0152506002682088
v 0.239587002226061 0.072891200621297 0.0152506002682088
v 0.185936001029227 -0.124009997825923 -0.0902387022659222
v 0.226229006849875 -9.66874030241474e-08 -0.0902387022659222
v 0.185936001029227 0.124009997825923 -0.0902387022659222
v 0.01525070000039 2.00961000421479e-07 0.251131999523934
v 0.0535718998883966 0.117941001268822 0.215902994936845
v -0.0850757979971217 0.0728914978623077 0.215902994936845
v 0.0804465977851487 0.200652997950556 0.120740002534521
v -0.0499453014276159 0.200652997950556 0.120740002534521
v -0.155435005823771 0.124009997825923 0.120740002534521
v 0.153898003846016 0.190831998514691 0.0152506002682088
v 0.01525070000039 0.235881001304767 0.0152506002682088
v 0.0804465977851487 0.200652997950556 -0.0902387022659222
v -0.0499453014276159 0.200652997950556 -0.0902387022659222
v 0.0152503000938986 8.72695973229147e-08 0.251131999523934
v -0.0850758996848359 0.0728913961745935 0.215902994936845
v -0.0850760013725501 -0.0728914978623077 0.215902994936845
v -0.195727996000155 1.52980000204475e-08 0.120740002534521
v -0.155435005823771 -0.124009997825923 0.120740002534521
v -0.123397000818428 0.190831998514691 0.0152506002682088
v -0.209086007020605 0.0728913023090112 0.0152506002682088
v -0.0499455008919783 0.200652997950556 -0.0902387022659222
v -0.155435005823771 0.124009997825923 -0.0902387022659222
v -0.195727996000155 1.52980000204475e-08 -0.0902387022659222
v 0.0152503000938986 -2.80643985624299e-07 0.251131999523934
v -0.0850758996848359 -0.0728915995500219 0.215902994936845
v 0.0535717982006824 -0.117941001268822 0.215902994936845
v -0.0499455008919783 -0.200652997950556 0.120740002534521
v 0.0804464022318522 -0.200652997950556 0.120740002534521
v -0.209086007020605 -0.0728914978623077 0.0152506002682088
v -0.123397000818428 -0.190831998514691 0.0152506002682088
v -0.195727996000155 -2.0863499624348e-07 -0.0902387022659222
v -0.155435005823771 -0.124009997825923 -0.0902387022659222
v -0.0499455008919783 -0.200652997950556 -0.0902387022659222
v 0.01525070000039 -3.94335985504164e-07 0.251131999523934
v 0.0535718998883966 -0.117941001268822 0.215902994936845
v 0.13926099604509 -2.28334000992265e-07 0.215902994936845
v 0.0804465977851487 -0.200652997950556 0.120740002534521
v 0.185936001029227 -0.124009997825923 0.120740002534521
v 0.226229006849875 -3.20657992780116e-07 0.120740002534521
v 0.01525070000039 -0.235882002537645 0.0152506002682088
v 0.153898003846016 -0.190831998514691 0.0152506002682088
v -0.0499453014276159 -0.200652997950556 -0.0902387022659222
v 0.0804465977851487 -0.200652997950556 -0.0902387022659222
v 0.0152503000938986 -9.66874030241474e-08 -0.220631004318478
v -0.108760000839634 -9.66874030241474e-08 -0.185401999731389
v -0.0230707990841603 0.117941001268822 -0.185401999731389
v -0.195727996000155 -9.66874030241474e-08 -0.0902387022659222
v -0.0499455986686266 0.200652997950556 -0.0902387022659222
v -0.209086007020605 -0.0728913961745935 0.0152506002682088
v -0.209086007020605 0.072891200621297 0.0152506002682088
v -0.195727996000155 -9.66874030241474e-08 0.120740002534521
v 0.0152504995582611 2.00961000421479e-07 -0.220631004318478
v -0.0230706993519791 0.117941001268822 -0.185401999731389
v 0.115576996578006 0.0728914978623077 -0.185401999731389
v -0.0499453992042642 0.200652997950556 -0.0902387022659222
v 0.0804464960974345 0.200652997950556 -0.0902387022659222
v 0.0152504995582611 0.235881001304767 0.0152506002682088
v -0.0499453992042642 0.200652997950556 0.120740002534521
v 0.0804464960974345 0.200652997950556 0.120740002534521
v 0.0152509004425189 8.72695973229147e-08 -0.220631004318478
v 0.115576996578006 0.0728913961745935 -0.185401999731389
v 0.115576996578006 -0.0728914978623077 -0.185401999731389
v 0.226229006849875 1.52980000204475e-08 -0.0902387022659222
v 0.239587002226061 0.0728913023090112 0.0152506002682088
v 0.0804466994728629 0.200652997950556 0.120740002534521
v 0.226229006849875 1.52980000204475e-08 0.120740002534521
v 0.0152509004425189 -2.80643985624299e-07 -0.220631004318478
v 0.115576996578006 -0.0728915995500219 -0.185401999731389
v -0.0230705996197978 -0.117941001268822 -0.185401999731389
v 0.0804466994728629 -0.200652997950556 -0.0902387022659222
v -0.0499451997399017 -0.200652997950556 -0.0902387022659222
v 0.239587002226061 -0.0728914978623077 0.0152506002682088
v 0.226229006849875 -2.0863499624348e-07 0.120740002534521
v 0.0804466994728629 -0.200652997950556 0.120740002534521
v 0.0152504995582611 -3.94335985504164e-07 -0.220631004318478
v -0.0230706993519791 -0.117941001268822 -0.185401999731389
v -0.108760000839634 -2.28334000992265e-07 -0.185401999731389
v -0.0499453992042642 -0.200652997950556 -0.0902387022659222
v -0.195727996000155 -3.20657992780116e-07 -0.0902387022659222
v 0.0152504995582611 -0.235882002537645 0.0152506002682088
v 0.0804464960974345 -0.200652997950556 0.120740002534521
v -0.0499453992042642 -0.200652997950556 0.120740002534521
vt 0.349999994039536 1
vt 0.25 0.925324976444244
vt 0.449999988079071 0.925324976444244
vt 0.25 0.723607003688812
vt 0.349999994039536 0.723607003688812
vt 0.449999988079071 0.723607003688812
vt 0.200000002980232 0.5
vt 0.300000011920929 0.5
vt 0.150000005960464 0.276392996311188
vt 0.25 0.276392996311188
vt 0.349999994039536 0.276392996311188
vt 0.550000011920929 1
vt 0.649999976158142 0.925324976444244
vt 0.550000011920929 0.723607003688812
vt 0.649999976158142 0.723607003688812
vt 0.400000005960464 0.5
vt 0.5 0.5
vt 0.449999988079071 0.276392996311188
vt 0.550000011920929 0.276392996311188
vt 0.75 1
vt 0.850000023841858 0.925324976444244
vt 0.75 0.723607003688812
vt 0.850000023841858 0.723607003688812
vt 0.600000023841858 0.5
vt 0.699999988079071 0.5
vt 0.649999976158142 0.276392996311188
vt 0.75 0.276392996311188
vt 0.449999988079071 1
vt 1.04999995231628 0.925324976444244
vt 0.949999988079071 0.723607003688812
vt 1.04999995231628 0.723607003688812
vt 0.800000011920929 0.5
vt 0.899999976158142 0.5
vt 0.850000023841858 0.276392996311188
vt 0.949999988079071 0.276392996311188
vt 0.150000005960464 1
vt 0.0500000007450581 0.925324976444244
vt 0.0500000007450581 0.723607003688812
vt 0.150000005960464 0.723607003688812
vt 0 0.5
vt 0.0999998971819878 0.5
vt 1 0.5
vt 1.04999995231628 0.276392996311188
vt 0.0500000007450581 0.276392996311188
vt 0.649999976158142 0
vt 0.75 0.0746748000383377
vt 0.550000011920929 0.0746748000383377
vt 0.449999988079071 0
vt 0.349999994039536 0.0746748000383377
vt 0.25 0
vt 0.150000005960464 0.0746748000383377
vt 0.550000011920929 0
vt 1.14999997615814 0.0746748000383377
vt 0.949999988079071 0.0746748000383377
vt 0.0500001013278961 0.276392996311188
vt 0.100000001490116 0.5
vt 0.0500001013278961 0.723607003688812
vt 0.850000023841858 0
vn 0.268037219945562 0.194739617715423 0.943521345818898
vn 0.717818192912402 0.233231392989011 0.656003170151166
vn 0.527518275260947 0.383263487120481 0.758177794917501
vn 0.44363731351504 0.610609117000513 0.656004908741552
vn 0.992077702064444 0 0.12562576593411
vn 0.902083425172356 -0.293102850266554 -0.316758919676989
vn 0.992077685350182 0 -0.12562589792804
vn 0.90208371085248 0.293102458825895 -0.316758468308005
vn -0.10238125690835 0.315096258926927 0.943521290615173
vn 0 0.754756461705933 0.656005094121334
vn -0.201494091910638 0.620133143697314 0.758178748721694
vn -0.443635927790758 0.610610467512953 0.656004588807766
vn 0.306567726078267 0.943523220655292 0.125619112444988
vn 0.557520436251793 0.767356497162102 -0.316756956395152
vn 0.306567748488811 0.943523197905624 -0.12561922862542
vn 0 0.948508078918959 -0.316752938779526
vn -0.331312237508197 2.64887038238877e-07 0.943521171610496
vn -0.717816688450485 0.233231030699943 0.656004945180005
vn -0.652048053925014 5.1985267850876e-07 0.758177641039573
vn -0.717817125842079 -0.233231141558105 0.656004427161372
vn -0.802607825696552 0.583129117972211 0.125622887658278
vn -0.55752002039247 0.767356737470687 -0.316757106186938
vn -0.802607701945394 0.583129233881619 -0.125623140267107
vn -0.902083554305488 0.293102536101192 -0.316758842627364
vn -0.102381151095831 -0.315096664657532 0.943521166599876
vn -0.443636746350693 -0.610610427036139 0.656004072915797
vn -0.201493664083863 -0.620133335766468 0.758178705322968
vn 0 -0.754756461705933 0.656005094121334
vn -0.802607256520361 -0.583129733541003 0.125623666724304
vn -0.902083303324375 -0.29310296861848 -0.316759157169003
vn -0.802607244500905 -0.583129724808335 -0.125623784052307
vn -0.557520045892335 -0.767356712963424 -0.316757120674783
vn 0.268036989135776 -0.194740383202725 0.943521253393417
vn 0.443636717000575 -0.610609790592966 0.656004685166932
vn 0.527517705445192 -0.383264668468628 0.758177594199058
vn 0.717817982123819 -0.23323229157068 0.656003081325368
vn 0.306573761031554 -0.943520671347808 0.125623531976892
vn 0 -0.948505374313619 -0.316761037531735
vn 0.306573782867848 -0.943520646831324 -0.125623662823124
vn 0.557520394962785 -0.767356499937634 -0.316757022343633
vn -0.268036785582354 0.194739999450898 -0.94352139042448
vn -0.717819356437151 0.233231741334602 -0.656001773136464
vn -0.527518540063828 0.383264698382587 -0.758176998373488
vn -0.443637216072713 0.61061041724305 -0.656003764371456
vn -0.992077653754542 -0 -0.125626147441057
vn -0.902083513593034 -0.293102750855832 0.316758759854231
vn -0.992077668635902 0 0.125626029921963
vn -0.902083761352642 0.293102306856091 0.31675846511105
vn 0.102381248882547 0.315096250284721 -0.943521294372182
vn 0 0.754757428972768 -0.656003981245859
vn 0.201494391123065 0.620134279845538 -0.758177739917495
vn 0.443637223320942 0.610611280269815 -0.656002956160521
vn -0.306567352085766 0.943523289499092 -0.125619508070739
vn -0.557519743766789 0.76735694573568 0.316757088541713
vn -0.306567330249075 0.943523314014939 0.125619377224302
vn 0 0.948508159536991 0.316752697370915
vn 0.331312656940683 0 -0.943521024329032
vn 0.717817957588724 0.233231438698079 -0.656003411398125
vn 0.652049367570583 0 -0.758176511276103
vn 0.717818128468373 -0.233231436120095 -0.656003225333169
vn 0.802607730694502 0.583129135559806 -0.125623412987768
vn 0.557520885108621 0.767356399046117 0.316756404056297
vn 0.802607814529893 0.583129050254513 0.125623273340643
vn 0.902083628197022 0.293102689754851 0.316758490016241
vn 0.102381229616989 -0.315096706817831 -0.943521143999789
vn 0.4436378186819 -0.610611040907815 -0.656002776333028
vn 0.201494177139462 -0.62013451548877 -0.758177604046967
vn 0 -0.754757403322432 -0.656004010757541
vn 0.802607292103498 -0.583129656483677 -0.125623797074911
vn 0.902083362133698 -0.293103068202734 0.3167588975415
vn 0.802607284416773 -0.583129694204338 0.125623671090636
vn 0.557520930845366 -0.767356342787624 0.316756459844026
vn -0.268036544989987 -0.194740587166435 -0.943521337469325
vn -0.443636683577649 -0.610611037307111 -0.656003547324981
vn -0.527518025316291 -0.3832658168303 -0.758176791135025
vn -0.717819048566796 -0.233232378884985 -0.656001883346618
vn -0.306573395667733 -0.943520739259952 -0.12562391354798
vn 0 -0.948505457907503 0.316760787219122
vn -0.306573373831434 -0.943520763776461 0.125623782701744
vn -0.557519743766789 -0.76735694573568 0.316757088541713
g o2 baseball baseball
f 1/1/1 2/2/1 3/3/1
f 2/2/2 4/4/2 5/5/2
f 2/2/3 5/5/3 3/3/3
f 3/3/4 5/5/4 6/6/4
f 4/4/5 7/7/5 8/8/5
f 7/7/6 9/9/6 10/10/6
f 7/7/7 10/10/7 8/8/7
f 8/8/8 10/10/8 11/11/8
f 12/12/9 13/3/9 14/13/9
f 13/3/10 15/6/10 16/14/10
f 13/3/11 16/14/11 14/13/11
f 14/13/12 16/14/12 17/15/12
f 15/6/13 18/16/13 19/17/13
f 18/16/14 11/11/14 20/18/14
f 18/16/15 20/18/15 19/17/15
f 19/17/16 20/18/16 21/19/16
f 22/20/17 23/13/17 24/21/17
f 23/13/18 17/15/18 25/22/18
f 23/13/19 25/22/19 24/21/19
f 24/21/20 25/22/20 26/23/20
f 17/15/21 27/24/21 28/25/21
f 27/24/22 29/19/22 30/26/22
f 27/24/23 30/26/23 28/25/23
f 28/25/24 30/26/24 31/27/24
f 32/28/25 33/21/25 34/29/25
f 33/21/26 26/23/26 35/30/26
f 33/21/27 35/30/27 34/29/27
f 34/29/28 35/30/28 36/31/28
f 26/23/29 37/32/29 38/33/29
f 37/32/30 39/27/30 40/34/30
f 37/32/31 40/34/31 38/33/31
f 38/33/32 40/34/32 41/35/32
f 42/36/33 43/37/33 44/2/33
f 43/37/34 45/38/34 46/39/34
f 43/37/35 46/39/35 44/2/35
f 44/2/36 46/39/36 47/4/36
f 45/38/37 48/40/37 49/41/37
f 48/42/38 50/35/38 51/43/38
f 48/40/39 51/44/39 49/41/39
f 49/41/40 51/44/40 9/9/40
f 52/45/41 53/46/41 54/47/41
f 53/46/42 55/27/42 30/26/42
f 53/46/43 30/26/43 54/47/43
f 54/47/44 30/26/44 56/19/44
f 55/27/45 57/32/45 58/25/45
f 57/32/46 26/23/46 59/22/46
f 57/32/47 59/22/47 58/25/47
f 58/25/48 59/22/48 17/15/48
f 60/48/49 61/47/49 62/49/49
f 61/47/50 63/19/50 64/18/50
f 61/47/51 64/18/51 62/49/51
f 62/49/52 64/18/52 11/11/52
f 63/19/53 27/24/53 65/17/53
f 27/24/54 17/15/54 66/14/54
f 27/24/55 66/14/55 65/17/55
f 65/17/56 66/14/56 67/6/56
f 68/50/57 69/49/57 70/51/57
f 69/49/58 11/11/58 71/10/58
f 69/49/59 71/10/59 70/51/59
f 70/51/60 71/10/60 9/9/60
f 11/11/61 18/16/61 72/8/61
f 18/16/62 73/6/62 5/5/62
f 18/16/63 5/5/63 72/8/63
f 72/8/64 5/5/64 74/4/64
f 75/52/65 76/53/65 77/54/65
f 76/51/66 9/9/66 78/55/66
f 76/53/67 78/43/67 77/54/67
f 77/54/68 78/43/68 79/35/68
f 9/9/69 80/7/69 49/56/69
f 80/7/70 81/4/70 46/39/70
f 80/7/71 46/39/71 49/56/71
f 49/56/72 46/39/72 82/57/72
f 83/58/73 84/54/73 85/46/73
f 84/54/74 86/35/74 40/34/74
f 84/54/75 40/34/75 85/46/75
f 85/46/76 40/34/76 87/27/76
f 86/35/77 88/42/77 38/33/77
f 88/42/78 89/31/78 90/30/78
f 88/42/79 90/30/79 38/33/79
f 38/33/80 90/30/80 26/23/80
