v 10.0131623270237 -49.9973657327331 75
v 10.0105297923166 -39.997366079245 75
v -9.9894695146595 -40.0026311486593 75
v -9.98683697995236 -50.0026308021474 75
v -49.9868355939045 -50.0131609409759 75
v -50.0131609409759 49.9868355939045 75
v -10.0131623270237 49.9973657327331 75
v -10.0105297923166 39.997366079245 75
v 9.9894695146595 40.0026311486593 75
v 9.98683697995236 50.0026308021474 75
v 49.9868355939045 50.0131609409759 75
v 50.0131609409759 -49.9868355939045 75
v 50.0131609409759 -49.9868355939045 -75
v 49.9868355939045 50.0131609409759 -75
v 9.98683697995236 50.0026308021474 -75
v 9.9894695146595 40.0026311486593 -75
v -10.0105297923166 39.997366079245 -75
v -10.0131623270237 49.9973657327331 -75
v -50.0131609409759 49.9868355939045 -75
v -49.9868355939045 -50.0131609409759 -75
v -9.98683697995236 -50.0026308021474 -75
v -9.9894695146595 -40.0026311486593 -75
v 10.0105297923166 -39.997366079245 -75
v 10.0131623270237 -49.9973657327331 -75
v 50.0131609409759 -49.9868355939045 -30
v 49.9868355939045 50.0131609409759 -30
v 50.0131609409759 -49.9868355939045 30
v 49.9868355939045 50.0131609409759 30
v 9.98683697995236 50.0026308021474 -30
v 9.98683697995236 50.0026308021474 30
v -10.0131623270237 49.9973657327331 -30
v -50.0131609409759 49.9868355939045 -30
v -10.0131623270237 49.9973657327331 30
v -50.0131609409759 49.9868355939045 30
v -49.9868355939045 -50.0131609409759 -30
v -49.9868355939045 -50.0131609409759 30
v -9.98683697995236 -50.0026308021474 -30
v -9.98683697995236 -50.0026308021474 30
v 10.0131623270237 -49.9973657327331 -30
v 10.0131623270237 -49.9973657327331 30
v -9.9894695146595 -40.0026311486593 0
v 10.0105297923166 -39.997366079245 0
v 8.01052986161898 -39.9978925861865 11
v 10.0105297923166 -39.997366079245 11
v 8.01052986161898 -39.9978925861865 0
v -9.9894695146595 -40.0026311486593 11
v -7.98946958396189 -40.0021046417179 11
v -7.98946958396189 -40.0021046417179 0
v 9.9894695146595 40.0026311486593 0
v -10.0105297923166 39.997366079245 0
v 9.9894695146595 40.0026311486593 11
v 7.98946958396189 40.0021046417179 11
v 7.98946958396189 40.0021046417179 0
v -8.01052986161898 39.9978925861865 11
v -10.0105297923166 39.997366079245 11
v -8.01052986161898 39.9978925861865 0
v -8.01066148835434 40.4978925688609 11
v 7.98933795722654 40.5021046243923 11
v -8.01066148835434 40.4978925688609 0
v 7.98933795722654 40.5021046243923 0
v 8.01066148835434 -40.4978925688609 11
v -7.98933795722654 -40.5021046243923 11
v 8.01066148835434 -40.4978925688609 0
v -7.98933795722654 -40.5021046243923 0
v 15.0039482822928 -20.9960506781713 -0.025000000372529
v 14.9960506781714 22.0039482822927 -0.025000000372529
v 4.99605102468332 22.0013157475856 -0.025000000372529
v 4.98946968791548 40.0013148813057 -0.025000000372529
v -5.01052996557257 39.9986823465986 -0.025000000372529
v -5.00394862880472 21.9986832128785 -0.025000000372529
v -15.0039482822928 21.9960506781713 -0.025000000372529
v -14.9960506781714 -21.0039482822927 -0.025000000372529
v -4.99605102468332 -21.0013157475856 -0.025000000372529
v -4.98946968791548 -40.0013148813057 -0.025000000372529
v 5.01052996557257 -39.9986823465986 -0.025000000372529
v 5.00394862880473 -20.9986832128785 -0.025000000372529
v -4.98946968791548 -40.0013148813057 0.974999999627471
v -4.99605102468332 -21.0013157475856 0.974999999627471
v -14.9960506781714 -21.0039482822927 0.974999999627471
v -15.0039482822928 21.9960506781713 0.974999999627471
v -5.00394862880472 21.9986832128785 0.974999999627471
v -5.01052996557257 39.9986823465986 0.974999999627471
v -6.01052993092137 39.9984190931279 0.974999999627471
v -6.00421184762424 22.9984199247566 0.974999999627471
v -16.0042115011123 22.9957873900494 0.974999999627471
v -15.9957873900495 -22.0042115011123 0.974999999627471
v -5.99578773656141 -22.0015789664051 0.974999999627471
v -5.98946965326428 -40.0015781347765 0.974999999627471
v 6.01052993092137 -39.9984190931279 0.974999999627471
v 6.00421184762425 -21.9984199247566 0.974999999627471
v 16.0042115011123 -21.9957873900494 0.974999999627471
v 15.9957873900495 23.0042115011123 0.974999999627471
v 5.99578773656142 23.0015789664051 0.974999999627471
v 5.98946965326428 40.0015781347765 0.974999999627471
v 4.98946968791548 40.0013148813057 0.974999999627471
v 4.99605102468332 22.0013157475856 0.974999999627471
v 14.9960506781714 22.0039482822927 0.974999999627471
v 15.0039482822928 -20.9960506781713 0.974999999627471
v 5.00394862880473 -20.9986832128785 0.974999999627471
v 5.01052996557257 -39.9986823465986 0.974999999627471
v 6.00421184762425 -21.9984199247566 -1.02500000037253
v 6.01052993092137 -39.9984190931279 -1.02500000037253
v 16.0042115011123 -21.9957873900494 -1.02500000037253
v 15.9957873900495 23.0042115011123 -1.02500000037253
v 5.99578773656142 23.0015789664051 -1.02500000037253
v 5.98946965326428 40.0015781347765 -1.02500000037253
v -6.00421184762424 22.9984199247566 -1.02500000037253
v -6.01052993092137 39.9984190931279 -1.02500000037253
v -16.0042115011123 22.9957873900494 -1.02500000037253
v -15.9957873900495 -22.0042115011123 -1.02500000037253
v -5.99578773656141 -22.0015789664051 -1.02500000037253
v -5.98946965326428 -40.0015781347765 -1.02500000037253
v 15.0039482822928 -20.9960506781713 -2
v 15.0039482822928 -20.9960506781713 15
v 14.9960506781714 22.0039482822927 15
v 14.9960506781714 22.0039482822927 -2
v 4.99605102468332 22.0013157475856 15
v 4.99605102468332 22.0013157475856 -2
v 4.98946968791548 40.0013148813057 15
v 4.98946968791548 40.0013148813057 -2
v -5.01052996557257 39.9986823465986 -2
v -5.01052996557257 39.9986823465986 15
v -5.00394862880472 21.9986832128785 15
v -5.00394862880472 21.9986832128785 -2
v -15.0039482822928 21.9960506781713 15
v -15.0039482822928 21.9960506781713 -2
v -14.9960506781714 -21.0039482822927 15
v -14.9960506781714 -21.0039482822927 -2
v -4.99605102468332 -21.0013157475856 15
v -4.99605102468332 -21.0013157475856 -2
v -4.98946968791548 -40.0013148813057 15
v -4.98946968791548 -40.0013148813057 -2
v 5.01052996557257 -39.9986823465986 -2
v 5.01052996557257 -39.9986823465986 15
v 5.00394862880473 -20.9986832128785 15
v 5.00394862880473 -20.9986832128785 -2
v 15.0039482822928 -20.9960506781713 0
v 14.9960506781714 22.0039482822927 0
v 4.99605102468332 22.0013157475856 0
v 4.98946968791548 40.0013148813057 0
v -5.01052996557257 39.9986823465986 0
v -5.00394862880472 21.9986832128785 0
v -15.0039482822928 21.9960506781713 0
v -14.9960506781714 -21.0039482822927 0
v -4.99605102468332 -21.0013157475856 0
v -4.98946968791548 -40.0013148813057 0
v 5.01052996557257 -39.9986823465986 0
v 5.00394862880473 -20.9986832128785 0
vt 1 0.400000005960464
vt 0.899999976158142 0.400000005960464
vt 0.899999976158142 0.600000023841858
vt 1 0.600000023841858
vt 1 1
vt 0 1
vt 0 0.600000023841858
vt 0.100000001490116 0.600000023841858
vt 0.100000001490116 0.400000005960464
vt 0 0.400000005960464
vt 0 0
vt 1 0
vt 0.990091860294342 0.991794228553772
vt 0.0081087714061141 0.99317878484726
vt 0.00898915808647871 0.599855184555054
vt 0.10718747228384 0.59971672296524
vt 0.107627660036087 0.403054922819138
vt 0.00942935142666101 0.403193384408951
vt 0.0103097381070256 0.0098697692155838
vt 0.992292821407318 0.00848520454019308
vt 0.991412460803986 0.401808828115463
vt 0.893214166164398 0.401947259902954
vt 0.892773926258087 0.598609089851379
vt 0.990972280502319 0.598470628261566
vt 5 0
vt 5 3.375
vt 0 3.375
vt 5 7.875
vt 0 7.875
vt 5 11.25
vt 0 11.25
vt 3 3.375
vt 3 0
vt 3 7.875
vt 3 11.25
vt 2 0
vt 2 3.375
vt 2 7.875
vt 2 11.25
vt 1 0.5
vt 0 0.5
vt 0.100000001490116 0.566666662693024
vt 0 0.566666662693024
vt 0.100000001490116 0.5
vt 1 0.566666662693024
vt 0.899999976158142 0.566666662693024
vt 0.899999976158142 0.5
vt 36.0006217956543 36.0026168823242
vt -6.99937629699707 35.9982948303223
vt -6.99757480621338 25.9982948303223
vt -24.9975738525391 25.9932098388672
vt -24.9957733154297 15.9932107925415
vt -6.99577379226685 15.9982957839966
vt -6.99397277832031 5.99829578399658
vt 36.0060272216797 6.00261878967285
vt 36.0042266845703 16.0026187896729
vt 55.0042266845703 16.0076198577881
vt 55.0024223327637 26.0076198577881
vt 36.0024261474609 26.0026187896729
vn -0 0 -1
vn 0 0 1
vn -0.999999965348805 -0.000263253470713589 0
vn 0.000263253470713589 -0.999999965348805 0
vn 0.999999965348805 0.000263253470713589 0
vn -0.000263253470713589 0.999999965348805 0
vn 0.999999938397876 0.000351004622212347 0
vn 0.999999982477618 0.000187202469395622 0
vn 0.999999930937411 0.000371651951168251 0
vn -0.999999933157418 -0.000365629813592481 0
vn -0.999999983133545 -0.000183665213468174 0
vn -0.999999940008319 -0.000346386140688393 0
vn 0.999999940008319 0.000346386140688393 0
vn 0.999999983133545 0.000183665213468174 0
vn 0.999999933157418 0.000365629813592481 0
vn -0.999999930937411 -0.000371651951168251 0
vn -0.999999982477618 -0.000187202469395661 0
vn -0.999999938397876 -0.000351004622212347 0
g ceiling_floor g1
f 1/1/1 2/2/1 3/3/1 4/4/1 5/5/1 6/6/1 7/7/1 8/8/1 9/9/1 10/10/1 11/11/1 12/12/1
f 13/13/2 14/14/2 15/15/2 16/16/2 17/17/2 18/18/2 19/19/2 20/20/2 21/21/2 22/22/2 23/23/2 24/24/2
g front g1
f 13/25/3 25/26/3 26/27/3 14/11/3
f 25/26/3 27/28/3 28/29/3 26/27/3
f 27/28/3 12/30/3 11/31/3 28/29/3
g right g1
f 14/25/4 26/26/4 29/32/4 15/33/4
f 26/26/4 28/28/4 30/34/4 29/32/4
f 28/28/4 11/30/4 10/35/4 30/34/4
f 18/36/4 31/37/4 32/27/4 19/11/4
f 31/37/4 33/38/4 34/29/4 32/27/4
f 33/38/4 7/39/4 6/31/4 34/29/4
g back g1
f 19/25/5 32/26/5 35/27/5 20/11/5
f 32/26/5 34/28/5 36/29/5 35/27/5
f 34/28/5 6/30/5 5/31/5 36/29/5
g left g1
f 20/25/6 35/26/6 37/32/6 21/33/6
f 35/26/6 36/28/6 38/34/6 37/32/6
f 36/28/6 5/30/6 4/35/6 38/34/6
f 24/36/6 39/37/6 25/27/6 13/11/6
f 39/37/6 40/38/6 27/29/6 25/27/6
f 40/38/6 1/39/6 12/31/6 27/29/6
g columns g1
f 22/12/6 41/40/6 42/41/6 23/11/6
f 43/42/6 44/43/6 42/41/6 45/44/6
f 41/40/6 46/45/6 47/46/6 48/47/6
f 46/45/6 3/5/6 2/6/6 44/43/6
f 23/12/5 2/5/5 1/6/5 24/11/5
f 21/12/3 4/5/3 3/6/3 22/11/3
f 17/12/3 8/5/3 7/6/3 18/11/3
f 16/12/4 49/40/4 50/41/4 17/11/4
f 49/40/4 51/45/4 52/46/4 53/47/4
f 54/42/4 55/43/4 50/41/4 56/44/4
f 51/45/4 9/5/4 8/6/4 55/43/4
f 15/12/5 10/5/5 9/6/5 16/11/5
f 54//1 57//1 58//1 52//1
f 56//5 59//5 57//5 54//5
f 53//2 60//2 59//2 56//2
f 52//3 58//3 60//3 53//3
f 43//1 61//1 62//1 47//1
f 45//3 63//3 61//3 43//3
f 48//2 64//2 63//2 45//2
f 47//5 62//5 64//5 48//5
g floor_geom g1
f 65/48/2 66/49/2 67/50/2 68/51/2 69/52/2 70/53/2 71/54/2 72/55/2 73/56/2 74/57/2 75/58/2 76/59/2
g fence g1
f 77//2 78//2 79//2 80//2 81//2 82//2 83//2 84//2 85//2 86//2 87//2 88//2
f 89//2 90//2 91//2 92//2 93//2 94//2 95//2 96//2 97//2 98//2 99//2 100//2
f 101//7 90//7 89//7 102//7
f 103//4 91//4 90//4 101//4
f 104//8 92//8 91//8 103//8
f 105//6 93//6 92//6 104//6
f 106//9 94//9 93//9 105//9
f 67//10 96//10 95//10 68//10
f 66//4 97//4 96//4 67//4
f 65//11 98//11 97//11 66//11
f 76//6 99//6 98//6 65//6
f 75//12 100//12 99//12 76//12
f 73//13 78//13 77//13 74//13
f 72//6 79//6 78//6 73//6
f 71//14 80//14 79//14 72//14
f 70//4 81//4 80//4 71//4
f 69//15 82//15 81//15 70//15
f 107//16 84//16 83//16 108//16
f 109//6 85//6 84//6 107//6
f 110//17 86//17 85//17 109//17
f 111//4 87//4 86//4 110//4
f 112//18 88//18 87//18 111//18
g collisions g1
f 113//11 114//11 115//11 116//11
f 116//4 115//4 117//4 118//4
f 118//10 117//10 119//10 120//10
f 121//15 122//15 123//15 124//15
f 124//4 123//4 125//4 126//4
f 126//14 125//14 127//14 128//14
f 128//6 127//6 129//6 130//6
f 130//13 129//13 131//13 132//13
f 133//12 134//12 135//12 136//12
f 136//6 135//6 114//6 113//6
f 135//1 134//1 131//1 129//1 127//1 125//1 123//1 122//1 119//1 117//1 115//1 114//1
g floor_collisions g1
f 137//2 138//2 139//2 140//2 141//2 142//2 143//2 144//2 145//2 146//2 147//2 148//2
