v 5 0 0
v 4.99587024427837 4.53241109679828 5.55288081170052
v -5.00412975572163 4.53241109679828 5.55288081170052
v -5 0 0
v -6 0 4
v -6 0 0
v 6 0 0
v 6 0 4
v 5 4.38307583375981 5.44031409671149
v -5 4.38307583375981 5.44031409671149
vt 1 0
vt 0.999799489974976 1.0003936290741
vt -0.000200485301320441 1.0003936290741
vt 0 0
vt 0.996782064437866 -0.00192511640489101
vt 0.99659276008606 1.00345230102539
vt -0.00340926391072571 1.00364398956299
vt -0.00322004198096693 -0.0017334446310997
vn 0 -0.774698981603054 0.632330204800618
vn 0 -1 0
vn 0 -0.778711909558785 0.627381671641204
g prop_owl owl g1
f 1/1/1 2/2/1 3/3/1 4/4/1
g prop_owl_collisions owl g1
f 5//2 6//2 7//2 8//2
g prop_pillows pillows g1
f 1/5/3 9/6/3 10/7/3 4/8/3
g prop_pillows_collisions pillows g1
f 5//2 6//2 7//2 8//2
