v 0.269651250263524 -0.0323626156554135 -0.681742545500828
v 0.387658340724434 -0.0323626156554135 -0.681742545500828
v 0.387658340724434 -0.0323626156554135 -0.561630214293172
v 0.269651250263524 -0.0323626156554135 -0.561630214293172
v 0.263029659201154 -0.0323626156554135 -0.688482344619871
v 0.394279900498278 -0.0323626156554135 -0.688482344619871
v 0.394279900498278 -0.0323626156554135 -0.554890477751184
v 0.263029659201154 -0.0323626156554135 -0.554890477751184
v 0.263029659201154 -0.0323626156554135 -0.68848229768708
v 0.394279900498278 -0.0323626156554135 -0.68848229768708
v 0.394279900498278 -0.0323626156554135 -0.554890579438898
v 0.263029659201154 -0.0323626156554135 -0.554890579438898
v 0.00718408212887023 -0.0323626156554135 -0.681742545500828
v 0.125191133479121 -0.0323626156554135 -0.681742545500828
v 0.125191133479121 -0.0323626156554135 -0.561630214293172
v 0.00718408212887023 -0.0323626156554135 -0.561630214293172
v 0.000562506710763389 -0.0323626156554135 -0.688482344619871
v 0.131812708897228 -0.0323626156554135 -0.688482344619871
v 0.131812708897228 -0.0323626156554135 -0.554890477751184
v 0.000562506710763389 -0.0323626156554135 -0.554890477751184
v 0.000562506710763389 -0.0323626156554135 -0.68848229768708
v 0.131812708897228 -0.0323626156554135 -0.68848229768708
v 0.131812708897228 -0.0323626156554135 -0.554890579438898
v 0.000562506710763389 -0.0323626156554135 -0.554890579438898
v -0.124049505849523 -0.0323626156554135 -0.681742545500828
v -0.00604245058820627 -0.0323626156554135 -0.681742545500828
v -0.00604245058820627 -0.0323626156554135 -0.561630214293172
v -0.124049505849523 -0.0323626156554135 -0.561630214293172
v -0.13067108126763 -0.0323626156554135 -0.688482344619871
v 0.000579117007768709 -0.0323626156554135 -0.688482344619871
v 0.000579117007768709 -0.0323626156554135 -0.554890477751184
v -0.13067108126763 -0.0323626156554135 -0.554890477751184
v -0.13067108126763 -0.0323626156554135 -0.68848229768708
v 0.000579117007768709 -0.0323626156554135 -0.68848229768708
v 0.000579117007768709 -0.0323626156554135 -0.554890579438898
v -0.13067108126763 -0.0323626156554135 -0.554890579438898
v -0.255283086005784 -0.0323626156554135 -0.681742545500828
v -0.137276073766193 -0.0323626156554135 -0.681742545500828
v -0.137276073766193 -0.0323626156554135 -0.561630214293172
v -0.255283086005784 -0.0323626156554135 -0.561630214293172
v -0.261904661423891 -0.0323626156554135 -0.688482344619871
v -0.130654506170218 -0.0323626156554135 -0.688482344619871
v -0.130654506170218 -0.0323626156554135 -0.554890477751184
v -0.261904661423891 -0.0323626156554135 -0.554890477751184
v -0.261904661423891 -0.0323626156554135 -0.68848229768708
v -0.130654506170218 -0.0323626156554135 -0.68848229768708
v -0.130654506170218 -0.0323626156554135 -0.554890579438898
v -0.261904661423891 -0.0323626156554135 -0.554890579438898
v -0.3865167287391 -0.0323626156554135 -0.681742545500828
v -0.268509622633926 -0.0323626156554135 -0.681742545500828
v -0.268509622633926 -0.0323626156554135 -0.561630214293172
v -0.3865167287391 -0.0323626156554135 -0.561630214293172
v -0.393138288512943 -0.0323626156554135 -0.688482344619871
v -0.26188804721582 -0.0323626156554135 -0.688482344619871
v -0.26188804721582 -0.0323626156554135 -0.554890477751184
v -0.393138288512943 -0.0323626156554135 -0.554890477751184
v -0.393138288512943 -0.0323626156554135 -0.68848229768708
v -0.26188804721582 -0.0323626156554135 -0.68848229768708
v -0.26188804721582 -0.0323626156554135 -0.554890579438898
v -0.393138288512943 -0.0323626156554135 -0.554890579438898
v 0.138417701395791 -0.0323626156554135 -0.681742545500828
v 0.256424776212437 -0.0323626156554135 -0.681742545500828
v 0.256424776212437 -0.0323626156554135 -0.561630214293172
v 0.138417701395791 -0.0323626156554135 -0.561630214293172
v 0.131796125977684 -0.0323626156554135 -0.688482344619871
v 0.263046304697753 -0.0323626156554135 -0.688482344619871
v 0.263046304697753 -0.0323626156554135 -0.554890477751184
v 0.131796125977684 -0.0323626156554135 -0.554890477751184
v 0.131796125977684 -0.0323626156554135 -0.68848229768708
v 0.263046304697753 -0.0323626156554135 -0.68848229768708
v 0.263046304697753 -0.0323626156554135 -0.554890579438898
v 0.131796125977684 -0.0323626156554135 -0.554890579438898
v -0.517750293251098 -0.0323626156554135 -0.681742545500828
v -0.399743234078715 -0.0323626156554135 -0.681742545500828
v -0.399743234078715 -0.0323626156554135 -0.561630214293172
v -0.517750293251098 -0.0323626156554135 -0.561630214293172
v -0.524371884313468 -0.0323626156554135 -0.688482344619871
v -0.393121705593399 -0.0323626156554135 -0.688482344619871
v -0.393121705593399 -0.0323626156554135 -0.554890477751184
v -0.524371884313468 -0.0323626156554135 -0.554890477751184
v -0.524371884313468 -0.0323626156554135 -0.68848229768708
v -0.393121705593399 -0.0323626156554135 -0.68848229768708
v -0.393121705593399 -0.0323626156554135 -0.554890579438898
v -0.524371884313468 -0.0323626156554135 -0.554890579438898
v -0.517809375377465 -0.0323626156554135 -0.681802576060683
v -0.399684214529403 -0.0323626156554135 -0.681802576060683
v -0.399684214529403 -0.0323626156554135 -0.561570121156262
v -0.517809375377465 -0.0323626156554135 -0.561570121156262
v -0.386575776448087 -0.0323626156554135 -0.681802576060683
v -0.268450559280676 -0.0323626156554135 -0.681802576060683
v -0.268450559280676 -0.0323626156554135 -0.561570121156262
v -0.386575776448087 -0.0323626156554135 -0.561570121156262
v -0.255342153661207 -0.0323626156554135 -0.681802576060683
v -0.137217013932901 -0.0323626156554135 -0.681802576060683
v -0.137217013932901 -0.0323626156554135 -0.561570121156262
v -0.255342153661207 -0.0323626156554135 -0.561570121156262
v -0.12410857135386 -0.0323626156554135 -0.681802576060683
v -0.00598339290600121 -0.0323626156554135 -0.681802576060683
v -0.00598339290600121 -0.0323626156554135 -0.561570121156262
v -0.12410857135386 -0.0323626156554135 -0.561570121156262
v 0.00712501682008661 -0.0323626156554135 -0.681802576060683
v 0.125250198787904 -0.0323626156554135 -0.681802576060683
v 0.125250198787904 -0.0323626156554135 -0.561570121156262
v 0.00712501682008661 -0.0323626156554135 -0.561570121156262
v 0.138358634913687 -0.0323626156554135 -0.681802576060683
v 0.256483795761749 -0.0323626156554135 -0.681802576060683
v 0.256483795761749 -0.0323626156554135 -0.561570121156262
v 0.138358634913687 -0.0323626156554135 -0.561570121156262
v 0.26959217126601 -0.0323626156554135 -0.681802576060683
v 0.387717388433421 -0.0323626156554135 -0.681802576060683
v 0.387717388433421 -0.0323626156554135 -0.561570121156262
v 0.26959217126601 -0.0323626156554135 -0.561570121156262
v 0.400884846064049 -0.0323626156554135 -0.681742545500828
v 0.518891936524959 -0.0323626156554135 -0.681742545500828
v 0.518891936524959 -0.0323626156554135 -0.561630214293172
v 0.400884846064049 -0.0323626156554135 -0.561630214293172
v 0.394263255001679 -0.0323626156554135 -0.688482344619871
v 0.525513496298803 -0.0323626156554135 -0.688482344619871
v 0.525513496298803 -0.0323626156554135 -0.554890477751184
v 0.394263255001679 -0.0323626156554135 -0.554890477751184
v 0.394263255001679 -0.0323626156554135 -0.68848229768708
v 0.525513496298803 -0.0323626156554135 -0.68848229768708
v 0.525513496298803 -0.0323626156554135 -0.554890579438898
v 0.394263255001679 -0.0323626156554135 -0.554890579438898
v 0.400825767066535 -0.0323626156554135 -0.681802576060683
v 0.518950984233946 -0.0323626156554135 -0.681802576060683
v 0.518950984233946 -0.0323626156554135 -0.561570121156262
v 0.400825767066535 -0.0323626156554135 -0.561570121156262
v 0.272415472766546 -0.0164041994750656 -0.0843225345211079
v -0.272415504055073 -0.0164041994750656 -0.0843225345211079
v -0.272415504055073 -0.0164041994750656 -0.526922643966875
v 0.272415472766546 -0.0164041994750656 -0.526922643966875
v 0.383752506236079 -0.0164041994750656 -0.0843225345211079
v 0.383752506236079 -0.0164041994750656 -0.526922643966875
v -0.383752537524606 -0.0164041994750656 -0.526922643966875
v -0.383752537524606 -0.0164041994750656 -0.0843225345211079
v 0.0767179220680177 -0.0656167979002625 -0.435780227340738
v 0.185749266795286 -0.0656167979002625 -0.435780227340738
v 0.185749266795286 -0.0656167979002625 -0.324803794149965
v 0.0767179220680177 -0.0656167979002625 -0.324803794149965
v 0.10939635629729 -0.0984251968503937 -0.402077320679592
v 0.149790032954979 -0.0984251968503937 -0.402077320679592
v 0.149790032954979 -0.0984251968503937 -0.361787553221535
v 0.10939635629729 -0.0984251968503937 -0.361787553221535
v -0.1857492617109 -0.0656167979002625 -0.435780227340738
v -0.0767179424055605 -0.0656167979002625 -0.435780227340738
v -0.0767179424055605 -0.0656167979002625 -0.324803794149965
v -0.1857492617109 -0.0656167979002625 -0.324803794149965
v -0.15307083530376 -0.0984251968503937 -0.402077320679592
v -0.11267715864607 -0.0984251968503937 -0.402077320679592
v -0.11267715864607 -0.0984251968503937 -0.361787553221535
v -0.15307083530376 -0.0984251968503937 -0.361787553221535
v -0.357625803609533 -0.0328083989501312 -0.55163720148442
v 0.357625803609533 -0.0328083989501312 -0.55163720148442
v 0.357625803609533 -0.0328083989501312 -0.465791025186774
v -0.357625803609533 -0.0328083989501312 -0.465791025186774
v -0.126457292576787 -0.0328083989501312 -0.425013719894129
v 0.126457292576787 -0.0328083989501312 -0.425013719894129
v 0.126457292576787 -0.0328083989501312 -0.172099134740554
v -0.126457292576787 -0.0328083989501312 -0.172099134740554
v -0.152436125622647 -0.0656167979002625 -0.455777382287453
v -0.0760695596379558 -0.0656167979002625 -0.455777382287453
v -0.0760695596379558 -0.0656167979002625 -0.344126775195905
v -0.152436125622647 -0.0656167979002625 -0.344126775195905
v 0.0760695596379558 -0.0656167979002625 -0.455777382287453
v 0.0760695596379558 -0.0656167979002625 -0.344126775195905
v 0.152436125622647 -0.0656167979002625 -0.455777382287453
v 0.152436125622647 -0.0656167979002625 -0.344126775195905
v -0.0760695674600877 -0.0656167979002625 -0.455777382287453
v -0.0760695674600877 -0.0656167979002625 -0.344126775195905
v 0.0760695674600877 -0.0656167979002625 -0.455777382287453
v 0.0760695674600877 -0.0656167979002625 -0.344126775195905
v 0.222674066939066 -0.0164041994750656 -0.0843225345211079
v -0.222674066939066 -0.0164041994750656 -0.0843225345211079
v -0.222674066939066 -0.0164041994750656 -0.526922643966875
v 0.222674066939066 -0.0164041994750656 -0.526922643966875
v -0.520449632640899 5.64581918690614e-17 -0.282588740252447
v 0.520449632640899 5.64581918690614e-17 -0.282588740252447
v 0.520449632640899 5.64581918690614e-17 0.758310492833455
v -0.520449632640899 5.64581918690614e-17 0.758310492833455
v -0.349715717430192 -0.0323626156554137 -0.354192713943367
v -0.230992944925791 -0.0323626156554137 -0.354192713943367
v -0.230992944925791 -0.0323626156554137 -0.215033091319202
v -0.349715717430192 -0.0323626156554137 -0.215033091319202
v -0.356311424276024 -0.0323626156554137 -0.361923732633979
v -0.224397238079959 -0.0323626156554137 -0.361923732633979
v -0.224397238079959 -0.0323626156554137 -0.207302013493273
v -0.356311424276024 -0.0323626156554137 -0.207302013493273
v 0.353030630257813 -0.0323626156554137 -0.361923719328533
v 0.353030630257813 -0.0323626156554137 -0.207302014971656
v 0.221116370142602 -0.0323626156554137 -0.207302014971656
v 0.221116370142602 -0.0323626156554137 -0.361923719328533
v 0.353030630257813 -0.0323626156554137 -0.361923796204446
v 0.353030630257813 -0.0323626156554137 -0.207302032712252
v 0.221116370142602 -0.0323626156554137 -0.207302032712252
v 0.221116370142602 -0.0323626156554137 -0.361923796204446
v 0.346434925875953 -0.0323626156554137 -0.354192610456564
v 0.346434925875953 -0.0323626156554137 -0.215033076535374
v 0.22771205481269 -0.0323626156554137 -0.215033076535374
v 0.22771205481269 -0.0323626156554137 -0.354192610456564
v -0.40308704091215 -0.0492126727354495 -0.139763385695877
v -0.110758469145115 -0.0492126727354495 -0.139763385695877
v -0.110758469145115 -0.0492126727354495 0.00639943228320317
v -0.40308704091215 -0.0492126727354495 0.00639943228320317
v -0.403087075870945 -0.0492126727354495 -0.139763306602615
v -0.110758465474846 -0.0492126727354495 -0.139763306602615
v -0.110758465474846 -0.0492126727354495 0.00639933754567678
v -0.403087075870945 -0.0492126727354495 0.00639933754567678
v 0.402452573472051 -0.0492119997786306 0.00746453383114957
v 0.110126937513889 -0.0492119997786306 0.00746453383114957
v 0.110126937513889 -0.0492127433881151 -0.138698129631674
v 0.402452573472051 -0.0492127433881151 -0.138698129631674
v 0.402452283520852 -0.0492126727354495 0.00746452417388352
v 0.110129699258757 -0.0492126727354495 0.00746452417388352
v 0.110129699258757 -0.0492126727354495 -0.138698119974408
v 0.402452283520852 -0.0492126727354495 -0.138698119974408
v 0.402452283520852 -0.0492126727354495 0.00639933754567702
v 0.110129699258757 -0.0492126727354495 0.00639933754567702
v 0.110129699258757 -0.0492126727354495 -0.139763306602615
v 0.402452283520852 -0.0492126727354495 -0.139763306602615
vt 0 0
vt 1 0
vt 1 1
vt 0 1
vt 0.75 1.03081929683685
vt 0.25 1.03081929683685
vt 0.25 -0.0308192521333694
vt 0.75 -0.0308192521333694
vt 1 1.03081929683685
vt 1 -0.0308192521333694
vt 5.61482238481403e-09 -0.0308192521333694
vt 5.61482238481403e-09 1.03081929683685
vt 0.333333343267441 0
vt 0.333333343267441 1
vt 0.666666686534882 0
vt 0.666666686534882 1
vn 0 -1 0
vn 0 -0.999999999987059 5.0875469241215e-06
g paintKartButton_down uiAccessoryIcons uiRoot
f 1/1/1 2/2/1 3/3/1 4/4/1
g paintKartButton_rollover uiAccessoryIcons uiRoot
f 5/1/1 6/2/1 7/3/1 8/4/1
g paintKartButton_up uiAccessoryIcons uiRoot
f 9/1/1 10/2/1 11/3/1 12/4/1
g rimButton_inactive uiAccessoryIcons uiRoot
f 13/1/1 14/2/1 15/3/1 16/4/1
g rimButton_rollover uiAccessoryIcons uiRoot
f 17/1/1 18/2/1 19/3/1 20/4/1
g rimButton_up uiAccessoryIcons uiRoot
f 21/1/1 22/2/1 23/3/1 24/4/1
g rearButton_inactive uiAccessoryIcons uiRoot
f 25/1/1 26/2/1 27/3/1 28/4/1
g rearButton_rollover uiAccessoryIcons uiRoot
f 29/1/1 30/2/1 31/3/1 32/4/1
g rearButton_up uiAccessoryIcons uiRoot
f 33/1/1 34/2/1 35/3/1 36/4/1
g frontButton_inactive uiAccessoryIcons uiRoot
f 37/1/1 38/2/1 39/3/1 40/4/1
g frontButton_rollover uiAccessoryIcons uiRoot
f 41/1/1 42/2/1 43/3/1 44/4/1
g frontButton_up uiAccessoryIcons uiRoot
f 45/1/1 46/2/1 47/3/1 48/4/1
g spoilerButton_inactive uiAccessoryIcons uiRoot
f 49/1/1 50/2/1 51/3/1 52/4/1
g spoilerButton_rollover uiAccessoryIcons uiRoot
f 53/1/1 54/2/1 55/3/1 56/4/1
g spoilerButton_up uiAccessoryIcons uiRoot
f 57/1/1 58/2/1 59/3/1 60/4/1
g decalButton_inactive uiAccessoryIcons uiRoot
f 61/1/1 62/2/1 63/3/1 64/4/1
g decalButton_rollover uiAccessoryIcons uiRoot
f 65/1/1 66/2/1 67/3/1 68/4/1
g decalButton_up uiAccessoryIcons uiRoot
f 69/1/1 70/2/1 71/3/1 72/4/1
g eBlockButton_inactive uiAccessoryIcons uiRoot
f 73/1/1 74/2/1 75/3/1 76/4/1
g eBlockButton_rollover uiAccessoryIcons uiRoot
f 77/1/1 78/2/1 79/3/1 80/4/1
g eBlockButton_up uiAccessoryIcons uiRoot
f 81/1/1 82/2/1 83/3/1 84/4/1
g eBlockButton_down uiAccessoryIcons uiRoot
f 85/1/1 86/2/1 87/3/1 88/4/1
g spoilerButton_down uiAccessoryIcons uiRoot
f 89/1/1 90/2/1 91/3/1 92/4/1
g frontButton_down uiAccessoryIcons uiRoot
f 93/1/1 94/2/1 95/3/1 96/4/1
g rearButton_down uiAccessoryIcons uiRoot
f 97/1/1 98/2/1 99/3/1 100/4/1
g rimButton_down uiAccessoryIcons uiRoot
f 101/1/1 102/2/1 103/3/1 104/4/1
g decalButton_down uiAccessoryIcons uiRoot
f 105/1/1 106/2/1 107/3/1 108/4/1
g paintKartButton_inactive uiAccessoryIcons uiRoot
f 109/1/1 110/2/1 111/3/1 112/4/1
g paintAccessoryButton_inactive uiAccessoryIcons uiRoot
f 113/1/1 114/2/1 115/3/1 116/4/1
g paintAccessoryButton_rollover uiAccessoryIcons uiRoot
f 117/1/1 118/2/1 119/3/1 120/4/1
g paintAccessoryButton_up uiAccessoryIcons uiRoot
f 121/1/1 122/2/1 123/3/1 124/4/1
g paintAccessoryButton_down uiAccessoryIcons uiRoot
f 125/1/1 126/2/1 127/3/1 128/4/1
g uiAccessoryNotice uiAccessoryView uiRoot
f 129/5/1 130/6/1 131/7/1 132/8/1
f 133/9/1 129/5/1 132/8/1 134/10/1
f 135/11/1 131/7/1 130/6/1 136/12/1
g CheckButtonDown uiAccessoryNotice uiAccessoryView uiRoot
f 137/1/1 138/2/1 139/3/1 140/4/1
g CheckButtonUp uiAccessoryNotice uiAccessoryView uiRoot
f 137/1/1 138/2/1 139/3/1 140/4/1
g CheckIcon uiAccessoryNotice uiAccessoryView uiRoot
f 141/1/1 142/2/1 143/3/1 144/4/1
g CheckButtonRollover uiAccessoryNotice uiAccessoryView uiRoot
f 137/1/1 138/2/1 139/3/1 140/4/1
g CancelButtonDown uiAccessoryNotice uiAccessoryView uiRoot
f 145/1/1 146/2/1 147/3/1 148/4/1
g CancelButtonUp uiAccessoryNotice uiAccessoryView uiRoot
f 145/1/1 146/2/1 147/3/1 148/4/1
g CancelIcon uiAccessoryNotice uiAccessoryView uiRoot
f 149/1/1 150/2/1 151/3/1 152/4/1
g CancelButtonRollover uiAccessoryNotice uiAccessoryView uiRoot
f 145/1/1 146/2/1 147/3/1 148/4/1
g uiAccessoryTextBlock uiAccessoryView uiRoot
f 153//1 154//1 155//1 156//1
g uiAccessoryImagePlane uiAccessoryView uiRoot
f 157//1 158//1 159//1 160//1
g uiAccessorydelete_rollover uiAccessoryView uiRoot
f 161/1/1 162/13/1 163/14/1 164/4/1
f 162/13/1 165/15/1 166/16/1 163/14/1
f 165/15/1 167/2/1 168/3/1 166/16/1
g uiAccessorydelete_up uiAccessoryView uiRoot
f 161/1/1 169/13/1 170/14/1 164/4/1
f 169/13/1 171/15/1 172/16/1 170/14/1
f 171/15/1 167/2/1 168/3/1 172/16/1
g uiAccessorydelete_down uiAccessoryView uiRoot
f 161/1/1 162/13/1 163/14/1 164/4/1
f 162/13/1 171/15/1 172/16/1 163/14/1
f 171/15/1 167/2/1 168/3/1 172/16/1
g uiAccessoryViewerFrame uiAccessoryView uiRoot
f 173/9/1 174/12/1 175/11/1 176/10/1
g uiKartViewerFrame1 uiKartView uiRoot
f 177/1/1 178/2/1 179/3/1 180/4/1
g ArrowLeftButtonDown uiKartView uiRoot
f 181/1/1 182/2/1 183/3/1 184/4/1
g ArrowLeftButtonRollover uiKartView uiRoot
f 185/1/1 186/2/1 187/3/1 188/4/1
g ArrowLeftButtonUp uiKartView uiRoot
f 185/1/1 186/2/1 187/3/1 188/4/1
g ArrowLeftButtonInactive uiKartView uiRoot
f 185/1/1 186/2/1 187/3/1 188/4/1
g ArrowRightButtonUp uiKartView uiRoot
f 189/1/1 190/4/1 191/3/1 192/2/1
g ArrowRightButtonRollover uiKartView uiRoot
f 193/1/1 194/4/1 195/3/1 196/2/1
g ArrowRightButtonDown uiKartView uiRoot
f 197/1/1 198/4/1 199/3/1 200/2/1
g ArrowRightButtonInactive uiKartView uiRoot
f 189/1/1 190/4/1 191/3/1 192/2/1
g rotate_left_up
f 201/1/1 202/2/1 203/3/1 204/4/1
g rotate_left_roll
f 205/1/1 206/2/1 207/3/1 208/4/1
g rotate_left_down
f 205/1/1 206/2/1 207/3/1 208/4/1
g rotate_left_inactive
f 205/1/1 206/2/1 207/3/1 208/4/1
g rotate_right_up
f 209/4/2 210/3/2 211/2/2 212/1/2
g rotate_right_roll
f 213/4/1 214/3/1 215/2/1 216/1/1
g rotate_right_down
f 217/4/1 218/3/1 219/2/1 220/1/1
g rotate_right_inactive
f 217/4/1 218/3/1 219/2/1 220/1/1
