v 1 0 2
v 0.476925053173604 0 2
v 0.514287549375488 0 1.64394981656166
v 0.682418782283972 0 1.38241234574503
v 1 0 1.27032485825219
v 10.4802157489314 0 1.64394981656166
v 10.5175782451333 0 2
v 10 0 2
v 10.312084516023 0 1.38241234574503
v 9.99450329830693 0 1.27032485825219
v 2.2 0 2
v 2.2 0 1.41
v 2.77 0 1.15
v 2.9 0 1.13
v 3.27 0 1.16
v 3.5 0 1.27
v 3.75 0 1.5
v 3.75 0 2
v 4 0 1.3
v 4.7 0 1.2
v 5.2 0 1.2
v 5.8 0 1.4
v 5.9 0 1.5
v 5.9 0 2
v 2.66401664018631 0 0.896247160434723
v 2.64319817965398 0 1.14672867284794
v 2.4213388800621 0 1.31125851869583
v 2.12840091017301 0 1.29345734569587
v 1.93598335981369 0 1.10375283956528
v 1.95680182034602 0 0.853271327152065
v 2.1786611199379 0 0.688741481304169
v 2.47159908982699 0 0.70654265430413
v 1.59201598167419 0 0.782822644710541
v 1.50586618052679 0 0.6
v 1.59201598167419 0 0.417177355289459
v 1.8 0 0.341449736341435
v 2.00798401832581 0 0.417177355289459
v 2.09413381947321 0 0.6
v 2.00798401832581 0 0.782822644710541
v 1.8 0 0.858550263658564
v 1.44 0 0.17
v 1.51142135623731 0 0.257573593128807
v 1.5 0 0.37
v 1.41242640687119 0 0.441421356237309
v 1.3 0 0.43
v 1.22857864376269 0 0.342426406871193
v 1.24 0 0.23
v 1.32757359312881 0 0.158578643762691
v 1.3 0 1.2
v 1.8 0 1.2
v 2.2 0 1.4
v 9 0 2
v 9 0 1.4
v 9.3 0 1.2
v 9.8 0 1.2
v 6.1 0 1.3
v 6.4 0 1.1
v 7.3 0 1
v 8 0 1
v 8.5 0 1.1
v 8.9 0 1.3
v 1 0 3
v 10 0 3
v 10.5175782451333 0 2.60143517821309
v 10.4 0 2.8
v 10 0 2.8
v 10.5175782451333 0 3
v 0.476925053173604 0 3
v 0.4 0 2.7
v 0.4 0 2.5
v 0.5 0 2.3
v 0.7 0 2.2
v 1 0 2.2
v 0.5 0 2.1
v 10.312084516023 0 3.59779993329515
v 9.99450329830693 0 3.70988742078798
v 10.4802157489314 0 3.33626246247852
v 1 0 3.70988742078798
v 0.682418782283972 0 3.59779993329515
v 0.514287549375488 0 3.33626246247852
v 1.5 0 3
v 1.5 0 3.6
v 1.4 0 3.7
v 9.7 0 3.7
v 9.5 0 3.6
v 9.5 0 3
v 2.8 0 3
v 4.7 0 3
v 4.7 0 3.5
v 4.6 0 3.7
v 4.2 0 3.9
v 3.8 0 4
v 3.2 0 3.9
v 2.8 0 3.5
v 2.6 0 3.8
v 2.1 0 3.9
v 1.7 0 3.8
v 9.3 0 3.8
v 8.8 0 3.9
v 8.1 0 3.9
v 7.4 0 3.8
v 6.7 0 3.6
v 6.7 0 3
v 6.6 0 3.7
v 6.3 0 4
v 5.8 0 4.2
v 5.4 0 4.2
v 4.9 0 3.9
vt 0.0679611638188362 0.452380955219269
vt 0.0171771887689829 0.452380955219269
vt 0.0208046156913042 0.367607086896896
vt 0.0371280387043953 0.305336266756058
vt 0.0679611638188362 0.278648763895035
vt 0.988370478153229 0.367607086896896
vt 0.991997897624969 0.452380955219269
vt 0.941747546195984 0.452380955219269
vt 0.972047030925751 0.305336266756058
vt 0.94121390581131 0.278648763895035
vt 0.184466019272804 0.452380955219269
vt 0.184466019272804 0.311904758214951
vt 0.239805832505226 0.25
vt 0.252427190542221 0.245238095521927
vt 0.288349509239197 0.252380967140198
vt 0.310679614543915 0.278571426868439
vt 0.334951460361481 0.333333343267441
vt 0.334951460361481 0.452380955219269
vt 0.359223306179047 0.28571429848671
vt 0.427184462547302 0.261904776096344
vt 0.475728154182434 0.261904776096344
vt 0.53398060798645 0.309523820877075
vt 0.54368931055069 0.333333343267441
vt 0.54368931055069 0.452380955219269
vt 0.229516178369522 0.189582660794258
vt 0.227494969964027 0.249221116304398
vt 0.205955237150192 0.288394898176193
vt 0.177514657378197 0.284156501293182
vt 0.158833339810371 0.238988772034645
vt 0.160854548215866 0.179350316524506
vt 0.182394281029701 0.140176549553871
vt 0.210834860801697 0.14441491663456
vt 0.125438451766968 0.162576824426651
vt 0.117074385285378 0.119047619402409
vt 0.125438451766968 0.0755184143781662
vt 0.145631074905396 0.0574880316853523
vt 0.165823698043823 0.0755184143781662
vt 0.174187749624252 0.119047619402409
vt 0.165823698043823 0.162576824426651
vt 0.145631074905396 0.180607199668884
vt 0.110679611563683 0.0166666675359011
vt 0.117613725364208 0.0375175215303898
vt 0.116504855453968 0.0642857179045677
vt 0.108002565801144 0.0812907963991165
vt 0.0970873758196831 0.0785714313387871
vt 0.090153269469738 0.0577205717563629
vt 0.0912621393799782 0.0309523809701204
vt 0.0997644290328026 0.0139472959563136
vt 0.0970873758196831 0.261904776096344
vt 0.145631074905396 0.261904776096344
vt 0.184466019272804 0.309523820877075
vt 0.844660222530365 0.452380955219269
vt 0.844660222530365 0.309523820877075
vt 0.873786389827728 0.261904776096344
vt 0.92233008146286 0.261904776096344
vt 0.563106775283813 0.28571429848671
vt 0.592233002185822 0.238095238804817
vt 0.679611623287201 0.214285716414452
vt 0.747572839260101 0.214285716414452
vt 0.796116530895233 0.238095238804817
vt 0.834951460361481 0.28571429848671
vt 0.0679611638188362 0.690476179122925
vt 0.941747546195984 0.690476179122925
vt 0.991997897624969 0.59557980298996
vt 0.980582535266876 0.642857134342194
vt 0.941747546195984 0.642857134342194
vt 0.991997897624969 0.690476179122925
vt 0.0171771887689829 0.690476179122925
vt 0.00970873795449734 0.61904764175415
vt 0.00970873795449734 0.571428596973419
vt 0.0194174759089947 0.523809552192688
vt 0.0388349518179893 0.5
vt 0.0679611638188362 0.5
vt 0.0194174759089947 0.476190477609634
vt 0.972047030925751 0.832809507846832
vt 0.94121390581131 0.859497010707855
vt 0.988370478153229 0.770538687705994
vt 0.0679611638188362 0.859497010707855
vt 0.0371280387043953 0.832809507846832
vt 0.0208046156913042 0.770538687705994
vt 0.116504855453968 0.690476179122925
vt 0.116504855453968 0.833333313465118
vt 0.106796115636826 0.857142865657806
vt 0.912621378898621 0.857142865657806
vt 0.893203854560852 0.833333313465118
vt 0.893203854560852 0.690476179122925
vt 0.242718443274498 0.690476179122925
vt 0.427184462547302 0.690476179122925
vt 0.427184462547302 0.809523820877075
vt 0.41747573018074 0.857142865657806
vt 0.37864077091217 0.904761910438538
vt 0.3398058116436 0.928571403026581
vt 0.281553387641907 0.904761910438538
vt 0.242718443274498 0.809523820877075
vt 0.223300963640213 0.88095235824585
vt 0.174757286906242 0.904761910438538
vt 0.135922327637672 0.88095235824585
vt 0.873786389827728 0.88095235824585
vt 0.825242698192596 0.904761910438538
vt 0.757281541824341 0.904761910438538
vt 0.689320385456085 0.88095235824585
vt 0.62135922908783 0.833333313465118
vt 0.62135922908783 0.690476179122925
vt 0.611650466918945 0.857142865657806
vt 0.582524299621582 0.928571403026581
vt 0.53398060798645 0.976190447807312
vt 0.495145618915558 0.976190447807312
vt 0.446601927280426 0.904761910438538
vn 0 -1 0
g bottom chatBalloon
f 1/1/1 2/2/1 3/3/1
f 1/1/1 3/3/1 4/4/1
f 1/1/1 4/4/1 5/5/1
f 6/6/1 7/7/1 8/8/1
f 9/9/1 6/6/1 8/8/1
f 10/10/1 9/9/1 8/8/1
f 11/11/1 12/12/1 13/13/1 14/14/1 15/15/1 16/16/1 17/17/1 18/18/1
f 18/18/1 17/17/1 19/19/1 20/20/1 21/21/1 22/22/1 23/23/1 24/24/1
f 25/25/1 26/26/1 27/27/1 28/28/1 29/29/1 30/30/1 31/31/1 32/32/1
f 33/33/1 34/34/1 35/35/1 36/36/1 37/37/1 38/38/1 39/39/1 40/40/1
f 41/41/1 42/42/1 43/43/1 44/44/1 45/45/1 46/46/1 47/47/1 48/48/1
f 1/1/1 5/5/1 49/49/1 50/50/1 51/51/1 11/11/1
f 52/52/1 53/53/1 54/54/1 55/55/1 10/10/1 8/8/1
f 24/24/1 23/23/1 56/56/1 57/57/1 58/58/1 59/59/1 60/60/1 61/61/1 53/53/1 52/52/1
g middle chatBalloon
f 62/62/1 1/1/1 8/8/1 63/63/1
f 8/8/1 7/7/1 64/64/1 65/65/1 66/66/1
f 65/65/1 67/67/1 63/63/1 66/66/1
f 62/62/1 68/68/1 69/69/1 70/70/1 71/71/1 72/72/1 73/73/1
f 73/73/1 72/72/1 74/74/1 2/2/1 1/1/1
g top chatBalloon
f 63/63/1 75/75/1 76/76/1
f 63/63/1 77/77/1 75/75/1
f 63/63/1 67/67/1 77/77/1
f 78/78/1 79/79/1 62/62/1
f 79/79/1 80/80/1 62/62/1
f 80/80/1 68/68/1 62/62/1
f 62/62/1 81/81/1 82/82/1 83/83/1 78/78/1
f 63/63/1 76/76/1 84/84/1 85/85/1 86/86/1
f 87/87/1 88/88/1 89/89/1 90/90/1 91/91/1 92/92/1 93/93/1 94/94/1
f 87/87/1 94/94/1 95/95/1 96/96/1 97/97/1 82/82/1 81/81/1
f 86/86/1 85/85/1 98/98/1 99/99/1 100/100/1 101/101/1 102/102/1 103/103/1
f 102/102/1 104/104/1 105/105/1 106/106/1 107/107/1 108/108/1 89/89/1
f 89/89/1 88/88/1 103/103/1 102/102/1
