v -0.968330300699069 0.403427702235425 0.250712044908619
v -0.967802838703466 -0.0880077676823133 0.0239079138581834
v -0.968527543576058 -0.530146363526192 0.336102112697491
v -0.969783214759326 -0.480848848037519 0.875100751561443
v -0.970310489023764 0.0105884825698347 1.10190346485048
v -0.969582404990209 0.452728690750643 0.789710981013581
v 0.968740180408548 0.452728690750643 0.794222223477101
v 0.968015663267121 0.0105881706623268 1.10641502019927
v 0.968539996409979 -0.480848848037519 0.879608364555779
v 0.969795667593248 -0.530146363526192 0.340609131209807
v 0.97052012215762 -0.0880081118561152 0.0284166297731124
v 0.969995976745926 0.403427702235425 0.255222583380271
v 0.969109447609408 0.0356897046872637 0.579540998604041
v 1.42253627927285 0.0628070490253879 0.583511137273994
v 1.39637731817451 -0.0297002826775779 0.568462794847063
v 0.96926789271237 -0.0387098571759822 0.567416005872992
v 1.81530479371078 0.193969987508819 0.604497291284596
v 1.82849390926011 0.12855713605255 0.593824711997365
v 2.09823593379944 0.440210057055856 0.644344044482614
v 2.13678915669599 0.387963660432911 0.63579163839185
v 2.28842762824431 0.787929725146356 0.700818146933408
v 2.35193958432656 0.735192536681969 0.692163552512021
v -1.4346914967214 -0.736948824304295 0.0273095927839204
v 1.4346914967214 -0.736948824304295 0.0273095927839204
v 1.4346914967214 0.736948824304295 0.0273095927839204
v -1.4346914967214 0.736948824304295 0.0273095927839204
vt 0.0165017005056143 0.233972996473312
vt 0.0208781994879246 0.739454984664917
vt 0.506308972835541 1.00356996059418
vt 0.98736298084259 0.762196004390717
vt 0.982985973358154 0.25671398639679
vt 0.497556000947952 -0.00739776995033026
vt 1 0
vt 1 1
vt 0 1
vt 0 0
vt -0.222157001495361 0.941878974437714
vt 0.166538000106812 1.08910000324249
vt -0.115785002708435 1.08422994613647
vt -0.37594398856163 1.05507004261017
vn -0.999997295715014 9.17006598360355e-07 -0.00232563148814487
vn -0.999997301025615 -1.20022868870079e-06 -0.00232334673356372
vn -0.999997294103183 -1.49520393558063e-06 -0.00232632415550352
vn -0.999997290940031 -5.98707009055392e-07 -0.00232768387898636
vn -0.999997297320546 3.32921714005654e-06 -0.00232493882076936
vn -0.999997299928647 6.06566935252892e-06 -0.00232381122811318
vn 0.999997296976816 -2.79331379989395e-06 0.00232508736590891
vn 0.999997315471631 -2.49217850400286e-06 0.00231711961722882
vn 0.99999730135284 -1.91813054664163e-06 0.00232320540613403
vn 0.999997294426003 2.08125879692891e-07 0.00232618585486364
vn 0.999997292595943 -3.66849750021612e-06 0.00232696955848665
vn 0.999997283504782 -9.09732903968967e-06 0.00233085827437693
vn -0.002235982195976 0.277637892926434 0.960683194812415
vn -0.00231546206705895 -0.0987546665580497 0.995109116865294
vn -0.00190122851996353 0.576799593797615 0.816883476344712
vn -0.00190120747271065 0.576799565736193 0.816883496207803
vn -0.0021124490994582 -0.419040074492718 0.907965282115974
vn -0.0021114932637461 -0.419042982033656 0.907963942458366
vn 0.000557811656532604 -0.970797115536435 -0.2399013324521
vn 0.00135601567501021 -0.812414394136787 -0.583078908399924
vn -0.000211786545738489 -0.995843502527998 0.0910805885972886
vn -0.000211817920925815 -0.995843499636927 0.0910806201342841
vn 0.00223435490389161 -0.277638994472386 -0.960682880250567
vn 0.00231639983215059 -0.0910831925042665 -0.995840592833536
vn 0.00167698977972623 0.693158242145414 -0.720783489718763
vn 0.00095882415357738 0.911168537011889 -0.412032738767025
vn 0.00211246764674714 0.419041697917339 -0.907964532835394
vn 0.000211989679887949 0.995842925132594 -0.0910869009448381
vn 0.000212005411658489 0.995842930535904 -0.0910868418344188
vn -0.000975324866507612 0.160838978142707 -0.986980178043822
vn -0.000975008527489448 0.160831912925252 -0.986981329683179
vn -0.000974752603970344 0.160836207027963 -0.986980630187958
vn -0.000974003197210521 0.160848538365405 -0.986978621360911
vn -0.000977303032279741 0.160837280142784 -0.986980452792787
vn -0.000975296035484667 0.160834345171842 -0.986980933053313
vn -0.000971151751447799 0.160833731753361 -0.986981037099783
vn -0.000978518753360815 0.160839127205864 -0.986980150591037
vn -0.000955407662036094 0.160820441143376 -0.986983218148439
vn -0.000966913123926818 0.160830855189053 -0.986981510008252
vn 0.000972253984657368 -0.160833644486868 0.986981050235141
vn 0.000952512167771278 -0.160826757104672 0.986982191794647
vn 0.000968259522798952 -0.160830497140788 0.986981567033014
vn 0.000980281933931007 -0.16083683979518 0.986980521597073
vn 0.000977652688622222 -0.160837986302619 0.986980337371186
vn 0.000974992105739709 -0.160834156515368 0.986980964096261
vn 0.000974001378907817 -0.160832169311776 0.986981288898519
vn 0.000974520422556251 -0.160835051508775 0.986980818717423
vn 0.000975649881167349 -0.160838349509299 0.986980280164925
vn 0.000977676041205895 -0.160846323237413 0.986978978727797
vn 0 0 1
g TheSticks
f 1/1/1 2/2/2 3/3/3
f 1/1/1 3/3/3 4/4/4
f 1/1/1 4/4/4 5/5/5
f 1/1/1 5/5/5 6/6/6
f 7/6/7 8/5/8 9/4/9
f 7/6/7 9/4/9 10/3/10
f 7/6/7 10/3/10 11/2/11
f 7/6/7 11/2/11 12/1/12
f 5/7/13 8/8/14 7/9/15
f 5/7/13 7/9/15 6/10/16
f 4/7/17 9/8/18 8/9/14
f 4/7/17 8/9/14 5/10/13
f 3/7/19 10/8/20 9/9/21
f 3/7/19 9/9/21 4/10/22
f 2/7/23 11/8/24 10/9/20
f 2/7/23 10/9/20 3/10/19
f 1/7/25 12/8/26 11/9/27
f 1/7/25 11/9/24 2/10/23
f 6/7/28 7/8/29 12/9/26
f 6/7/28 12/9/26 1/10/25
g TheFuse
f 13/7/30 14/8/31 15/11/32
f 13/7/30 15/11/32 16/10/33
f 14/7/31 17/8/34 18/12/35
f 14/7/31 18/12/35 15/10/32
f 17/7/34 19/8/36 20/13/37
f 17/7/34 20/13/37 18/10/35
f 19/7/36 21/8/38 22/14/39
f 19/7/36 22/14/39 20/10/37
f 20/10/40 22/14/41 21/8/42
f 20/10/40 21/8/42 19/7/43
f 18/10/44 20/13/40 19/8/43
f 18/10/44 19/8/43 17/7/45
f 15/10/46 18/12/44 17/8/45
f 15/10/46 17/8/45 14/7/47
f 16/10/48 15/11/46 14/8/47
f 16/10/48 14/8/47 13/7/49
g pPlane1
f 23/10/50 24/7/50 25/8/50 26/9/50
