v -4.47983780677088 -5.53658363708539 0.025
v 6.41319140618078 -5.53658363708539 0.025
v 4.93102904570962 6.68720379183255 0.025
v -2.99767544629971 6.68720379183255 0.025
v -6.41319140618078 -6.68720379183255 0.025
v 5.36529079528096 -6.68720379183255 0.025
v 5.36529079528096 5.09127840962919 0.025
v -6.41319140618078 5.09127840962919 0.025
v -2.64076524214933 -3.35650962755652 0.394583191504341
v -2.94524334695736 -3.50074842794015 -0.223583905307992
v 4.04456829199174 -3.16898291378377 2.30647930981968
v 3.40473786850094 -3.06956492125533 2.58284030446652
v -2.90269668585257 -2.29309029115751 0.978776338166421
v -3.37485095000199 -2.3155006950851 0.807873287083673
v -3.31840954116014 -2.93858125085765 0.733646613863887
v -2.84625527701073 -2.91617084693005 0.904549664946635
v -3.06822691342702 -1.59074911831407 1.34398955712922
v -3.54038117757643 -1.61315952224167 1.17308650604648
v -3.13418402422172 -1.17903172240504 1.47222119388181
v -3.15004352747647 -1.5313036555109 1.56222946643649
v -2.80122656959728 -3.16716431532901 0.813061355607931
v -2.62236821837381 -2.94787418515373 0.29017359534092
v -2.70667770160808 -2.88661747943711 0.515063053167516
v -2.71577684647293 -1.48303364928034 0.356150263957822
v -3.62219779162588 -1.5537140594385 1.39132641535374
v -3.59047878511638 -0.849170193226781 1.21130987024439
v -3.11291950629874 -3.37892003148412 0.223680140421593
v -3.27338083374669 -3.18957471925661 0.642158304525183
v -2.85008632742883 -1.38711682930501 -0.763633540636028
v -3.11832452096696 -0.826759789299185 1.38221292132714
v 3.42313489227645 -2.66092947885253 2.4784307083031
v 3.32972626417734 -1.19608894297914 2.54440737692
v 2.95915078271864 -0.934322470775761 3.42135140393809
v 3.19924783363954 -2.62922614062885 3.09280677790881
v 3.67140209778895 -2.60681573670126 3.26370982899156
v 3.61496068894711 -1.98373518092872 3.33793650221135
v 3.14280642479769 -2.00614558485631 3.1670334511286
v 3.47229152126187 -1.3015803559172 3.58885951462787
v 2.9851208140917 -1.31073121967105 3.49302876477484
v 3.33882540904218 -2.59967277313592 2.70332016612969
v 3.24427654105299 -2.88021960902782 3.00131846857011
v 4.13972531152026 -1.05535131514862 1.76642967449165
v 3.45639963455448 -0.567794726202079 3.45607685732187
v 3.7164308052024 -2.85780920510022 3.17222151965286
v 3.87689213265035 -3.04715451732773 2.75374335554927
v -3.44032177227446 2.48612349999553 0.359115881519144
v -2.69992931458692 1.9481768639173 -1.61582752936128
v 2.65743107168544 1.1073442655369 3.02068068212218
v 3.39782352937298 0.569397629458672 1.04573727124176
v 3.4730879460293 2.24117392179974 0.618585170747114
v 2.73269548834175 2.77912055787797 2.59352858162753
v 3.64931101808483 -0.471039903200799 1.42341862984647
v 2.72894224133102 4.04289346398022 -0.151152749679622
v 1.34434042476542 5.03778992406437 -0.941225992911665
v -0.309714565080073 4.95928159902007 -1.53993507146355
v -1.7900200294397 3.82840473114206 -1.78685637123612
v -2.53041248712725 4.36635136722029 0.188087039644296
v -1.05010702276762 5.4972282350983 0.435008339416867
v 0.603947967077878 5.5757365601426 1.03371741796875
v 1.98854978364347 4.58084010005845 1.8237906612008
v 2.93952344662041 0.0398825755701848 3.24535781499469
v 2.01303502586056 2.52990248906076 -0.00742402253109198
v 2.25304609474034 2.35551774785381 -0.647636215538788
v 3.1488304522815 1.43215032755261 -0.060300713537687
v 2.90881938340171 1.60653506875957 0.579911479470009
v 3.19240832365533 2.40010378378052 -0.307620497831196
v 2.95239725477554 2.57448852498747 0.332591695176499
v 4.28457936087152 -3.34336765499072 1.66626711681198
v 4.32815723224535 -2.37541419876282 1.41894733251848
v 4.08814616336556 -2.20102945755587 2.05915952552617
v 3.34521713195653 -3.38795369091742 1.32625139910439
v 3.10520606307675 -3.21356894971047 1.96646359211209
v -2.70523227807757 -3.6751331691471 -0.863796098315688
v -1.76587004916258 -3.6305471332204 -0.523780380608097
v -2.00588111804237 -3.45616239201345 0.116431812399599
v -2.66165440670374 -2.7071797129192 -1.1111158826092
v -2.90166547558353 -2.53279497171225 -0.470903689601502
v 2.9692289273843 -0.57694558995593 3.36024610746883
v -3.92405056677025 2.78377773450588 1.38782509121939
v -2.95837916505281 4.84483626877771 1.2169532963653
v -1.33928147947134 6.04697911766945 1.32848879752837
v 0.499406572655515 6.0680930756337 1.69254574724455
v 2.06501001262761 4.90252067468492 2.21157537983845
v 2.93802666303703 2.86257609837733 2.74650412440872
v 2.89595707339166 1.00052892258914 3.06697057265758
v 3.20175737148357 -0.170313526396279 3.33493711840021
v 3.76206395842981 -0.841893033961541 3.5656300252883
v 3.7443343904999 -1.62662357614509 3.70068557756211
v -4.02571148225154 -1.71584829359937 2.16223037505149
v -4.07591441969383 -1.6715190296761 2.4132119182221
v -3.97425350421254 2.82810699842914 1.63880663439
v -3.0085821024951 4.88916553270098 1.46793483953591
v -1.38948441691363 6.09130838159272 1.57947034069898
v 0.449203635213222 6.11242233955697 1.94352729041516
v 2.01480707518531 4.94684993860819 2.46255692300906
v 2.88782372559474 2.9069053623006 2.99748566757933
v 2.84575413594937 1.04485818651241 3.31795211582819
v 3.15155443404128 -0.125984262473012 3.58591866157082
v 3.71186102098752 -0.797563770038273 3.81661156845891
v 3.6941314530576 -1.58229431222182 3.95166712073272
v -0.791169368541476 -2.71855977717452 1.51031626434027
v -0.607200514823724 -2.85222594972 1.01959263299498
v 1.35251386653634 -2.71628701734338 1.89692940283756
v 1.40796718872637 -2.75657771428627 1.74901167064904
v 1.34341472167149 -1.3127031871866 1.73801661362786
v -0.80026851340632 -1.31497594701775 1.35140347513058
v 4.13972531152026 -1.05535131514862 0.116431812399599
v 4.13972531152026 -1.05535131514862 3.94772709161259
v 4.13866705836333 -1.07885727743001 3.95166712073272
v 4.04456829199174 -3.16898291378377 2.43970373176299
v 4.04456829199174 -3.16898291378377 0.116431812399599
v 4.13972531152026 -1.05535131514862 3.95166712073272
v 3.4730879460293 2.24117392179974 0.116431812399599
v 3.4730879460293 2.24117392179974 3.23213785367109
v 2.01480707518531 4.94684993860819 0.116431812399599
v 0.449203635213222 6.11242233955697 0.116431812399599
v -1.38948441691363 6.09130838159272 0.116431812399599
v -3.0085821024951 4.88916553270098 0.116431812399599
v -3.97425350421254 2.82810699842914 0.116431812399599
v -4.07591441969383 -1.6715190296761 0.116431812399599
v -3.11291950629874 -3.37892003148412 0.116431812399599
v -3.11291950629874 -3.37892003148412 0.568696562760382
vt 0 0
vt 1 0
vt 1 1
vt 0 1
vt 0 0.226469293236732
vt 0.101218044757843 0.631652057170868
vt 0.0337393470108509 0.521147668361664
vt 0.168696746230125 0.889495611190796
vt 0.210870921611786 1
vt 0.168696746230125 1
vt 0.00843483675271274 0.447478055953979
vt 0.0489220544695854 0.226469293236732
vt 0.0489220544695854 0.34034064412117
vt 0.210870921611786 0.434884607791901
vt 0.253045111894608 1
vt 0.253045111894608 0
vt 0.652348279953003 1
vt 0.652348279953003 0
vt 0.452202320098877 1
vt 0.452202320098877 0
vt 0.3259417116642 0
vt 0.872750639915466 0
vt 0.872750639915466 1
vt 0.3259417116642 1
vt 0.179889068007469 1
vt 0.179889068007469 0
vt 0.865609765052795 0
vt 0.865609765052795 1
vt 0.134390205144882 1
vt 0.134390205144882 0
vt 0.0123456791043282 0.576161801815033
vt 0.128055661916733 0.833095550537109
vt 0.3284712433815 0.981436371803284
vt 0.559891223907471 0.981436371803284
vt 0.760306775569916 0.833095550537109
vt 0.876016795635223 0.576161801815033
vt 0.876016795635223 0.342841923236847
vt 0.917845547199249 0.195653796195984
vt 0.990295052528381 0.110674679279327
vt 0.990295052528381 0.0123456791043282
vt 0.0123456791043282 0.0123456791043282
vt 1.07262551784515 0.116342470049858
vt 0 0.116342470049858
vt 2.14525103569031 0.116342470049858
vt 3.21787643432617 0.116342470049858
vt 3.21787643432617 0.653846144676208
vt 2.14525103569031 0.653846144676208
vt 1.07262551784515 0.653846144676208
vt 0 0.653846144676208
vn 0 0 1
vn -0.0605279789548909 -0.954388122646796 0.292369073457437
vn -0.0435778713738292 -0.9679534562279 0.24731978429351
vn -0.308497287450859 -0.32313394148285 0.894658526756002
vn -0.317804168644384 -0.259326016912927 0.912003578580878
vn -0.173160494208237 -0.794151837344074 0.582527512216025
vn 0.939362228914988 0.044586035926707 0.340015717707591
vn -0.939362228914989 -0.0445860359267054 -0.340015717707589
vn -0.0689700099113863 -0.946688047435698 0.314682186618832
vn -0.213273037006644 -0.70047684854887 0.681062989989183
vn -0.340146397914767 0.247140025040067 0.907315951589524
vn -0.324068737237938 0.228109501469692 0.918120639613475
vn -0.0450548186282581 -0.965556752994982 0.256262014477686
vn -0.283981559900361 -0.282870377910759 0.916154366325447
vn -0.230531277126389 -0.418218615160388 0.878606009653817
vn -0.937185519080397 -0.0588552395771879 -0.343830428555005
vn 0.938113547884121 0.0510362074456736 0.342546751270288
vn 0.890853458106615 0.38700651295795 0.237920312515798
vn 0.93681836451981 0.0574838490973994 0.345060804774138
vn -0.90800655338335 0.164639089390215 -0.38525065769918
vn 0.935645365483846 0.17745943391629 0.305083430167405
vn 0.926751495650214 0.251724332731866 0.278866501431758
vn -0.69666106816907 0.581848941353435 -0.41966077436832
vn -0.246911627808015 0.907522264648663 -0.339761662375491
vn 0.329858550934425 0.93489817472817 -0.130991370957702
vn 0.752147385974621 0.6506154126879 0.104756358014672
vn 0.84541488255861 0.500100455672811 0.187545222771092
vn -0.695043610414408 -0.715973541121703 -0.0655459231055145
vn 0.0435778713738285 0.9679534562279 -0.24731978429351
vn -0.633415193698188 0.652919364421706 -0.415308916296584
vn 0.695043610414408 0.715973541121703 0.0655459231055146
vn 0.2784889911171 0.474417604001407 -0.835087910845406
vn -0.307752110450878 0.208910771485033 0.928248311644335
vn 0.193263905657705 -0.170652298794073 -0.966191935221066
vn -0.980894255615272 -0.0112637704130839 -0.19421531035694
vn -0.983914638528684 -0.16559451592993 -0.067010748264004
vn -0.970329053532931 0.213522239695354 -0.113445057298085
vn -0.954347619818946 0.195890843709625 -0.225493675957098
vn -0.768563662971122 0.626472817251957 -0.129775595567144
vn -0.749744664570569 0.60951847392166 -0.257624082523695
vn -0.304687181816816 0.945897462086189 -0.111551389303013
vn -0.286102071575291 0.932158608426148 -0.221869180774066
vn 0.31917111089839 0.946365171320827 -0.0502271289124577
vn 0.328382371367707 0.939214834566834 -0.100202358777203
vn 0.767435469399264 0.640737879078956 0.0223107736605664
vn 0.7776828784409 0.627058176156239 0.0448038424187769
vn 0.963696838808493 0.217916064369637 0.154275700485093
vn 0.974581086336843 0.147123889763119 0.168956406257557
vn 0.875318056003425 0.474866604899652 0.0912140799737785
vn 0.928111558937904 0.351179393736593 0.123620255543552
vn 0.980894255615271 0.011263770413079 0.194215310356945
vn -0.022260325040113 -0.985266928498252 0.169568739857111
vn -0.0965403982912073 -0.818762842343785 0.565957029724785
vn -0.193263905657705 0.170652298794073 0.966191935221066
vn -0.27949132954968 0.106228062572184 0.954253737445504
vn -0.379326836586947 0.101664233279604 0.919660554072322
vn -0.324860462046639 0.104319133709259 0.939991063011236
vn -0.465560842163985 0.0965842675542137 0.879729834383589
vn 0.99701603883294 0.0771946779893069 0
vn 0.999339912364517 0.0363282198198529 0
vn 0.998988109536619 -0.044975070922156 0
vn 0.998988109536703 -0.0449750709202753 0
vn 0.998988109536534 -0.0449750709240368 0
vn 0.940419353042519 0.340016823735371 0
vn 0.756674778591616 0.653791464798469 0
vn 0.309094342360072 0.951031380933876 0
vn -0.31938064525043 0.947626510519529 0
vn -0.774328897830405 0.63278334205694 0
vn -0.973581180202675 0.228341160448935 0
vn -0.970022236268131 -0.24301617465793 0
vn -0.871012165204659 -0.491261445734847 0
vn 0.0293185089337095 -0.999570120118596 0
vn -0.0808072479182017 -0.849175703310465 0.521891572638477
vn -0.0604397804978274 -0.939688541304442 0.336648894658075
vn -0.164051162061486 -0.221471045785893 0.961268844863277
g decals decal_base shadow_crack piano
f 1/1/1 2/2/1 3/3/1 4/4/1
g decal_base shadow_crack piano
f 5/1/1 6/2/1 7/3/1 8/4/1
g o7 crashed_piano piano
f 9/5/2 10/1/3 11/1/3 12/5/2
f 13/6/4 14/6/4 15/7/5 16/7/5
f 17/8/6 18/8/6 14/6/4 13/6/4
f 19/9/7 20/10/7 17/8/7
f 19/9/7 17/8/7 13/6/7 16/7/7 21/11/7 9/5/7 22/12/7 23/13/7 24/14/7
f 18/8/8 18/8/8 25/10/8 26/15/8
f 27/5/8 27/5/8 28/11/8 15/7/8 14/6/8 18/8/8 26/15/8 29/16/8 10/1/8
f 10/1/3 10/1/3 9/5/2 27/5/9
f 27/5/9 9/5/2 21/11/10 28/11/10
f 28/11/10 21/11/10 16/7/5 15/7/5
f 18/8/6 17/8/6 20/10/3 25/10/3
f 25/10/11 20/10/11 19/9/12 30/15/12 26/15/11
f 22/12/11 9/5/11 12/5/11 31/12/11
f 24/14/13 32/14/13 33/9/13 19/9/13
f 34/7/5 35/7/5 36/6/14 37/6/14
f 37/6/14 36/6/14 38/8/15 39/8/15
f 32/14/16 40/13/16 31/12/16 12/5/16 41/11/16 34/7/16 37/6/16 39/8/16 33/9/16
f 11/1/17 42/16/18 43/15/18 38/8/19 36/6/19 35/7/19 44/11/19 45/5/19 45/5/19
f 45/5/9 12/5/2 11/1/3 11/1/3
f 44/11/10 41/11/10 12/5/2 45/5/9
f 35/7/5 34/7/5 41/11/10 44/11/10
f 26/15/8 46/17/20 47/18/20 29/16/8
f 48/19/21 49/20/21 50/18/22 51/17/22
f 42/16/11 52/21/11 49/20/11 50/18/11 53/22/11 54/2/11 55/2/11 56/22/11 47/18/11 29/16/11 10/16/11 11/16/11
f 47/18/20 46/17/20 57/23/23 56/22/23
f 56/22/23 57/23/23 58/3/24 55/2/24
f 55/2/24 58/3/24 59/3/25 54/2/25
f 54/2/25 59/3/25 60/23/26 53/22/26
f 53/22/26 60/23/26 51/17/22 50/18/22
f 49/20/21 48/19/21 61/24/27 52/21/27
f 52/21/27 61/24/27 43/15/18 42/16/18
f 62/25/28 63/26/28 64/1/28 65/4/28
f 65/4/7 64/1/7 66/1/7 67/4/7
f 67/4/29 66/1/29 63/26/29 62/25/29
f 11/4/17 68/1/7 69/1/7 70/4/7
f 70/3/30 69/2/30 71/27/30 72/28/30
f 72/29/3 71/30/3 68/1/3 11/4/3
f 10/4/3 73/1/3 74/30/3 75/29/3
f 75/29/31 74/30/31 76/1/31 77/4/31
f 43/9/32 42/15/32 11/15/32 10/15/32 29/15/32 26/9/32
f 19/10/12 33/10/33 78/9/33 30/9/12
f 79/31/34 80/32/34 81/33/34 82/34/34 83/35/34 84/36/34 85/37/34 86/38/34 87/39/34 88/40/34 89/41/34
f 89/41/35 90/41/36 91/31/37 79/31/38
f 79/31/38 91/31/37 92/32/39 80/32/40
f 80/32/40 92/32/39 93/33/41 81/33/42
f 81/33/42 93/33/41 94/34/43 82/34/44
f 82/34/44 94/34/43 95/35/45 83/35/46
f 83/35/46 95/35/45 96/36/47 84/36/47
f 84/36/47 96/36/47 97/37/48 85/37/48
f 85/37/48 97/37/48 98/38/49 86/38/49
f 86/38/49 98/38/49 99/39/50 87/39/50
f 87/39/50 99/39/50 100/40/51 88/40/51
f 88/40/52 100/40/52 90/41/53 89/41/52
f 90/41/54 100/40/54 99/39/54 98/38/54 97/37/54 96/36/54 95/35/54 94/34/54 93/33/54 92/32/54 91/31/54
f 101/42/3 23/43/3 22/43/3 102/42/3
f 103/44/3 101/42/3 102/42/3 104/44/3
f 31/45/3 40/45/3 103/44/3 104/44/3
f 103/44/55 40/45/56 32/46/56 105/47/55
f 101/42/57 103/44/55 105/47/55 106/48/57
f 24/49/58 23/43/58 101/42/57 106/48/57
g coll_walls piano
f 107//59 108//60 109//61 110//62 111//62
f 108//60 112//63 109//61
f 113//64 114//64 108//60 107//59
f 115//65 95//45 114//64 113//64
f 116//66 94//43 95//45 115//65
f 117//67 93//41 94//43 116//66
f 118//68 92//39 93//41 117//67
f 119//69 91//37 92//39 118//68
f 120//70 90//36 91//37 119//69
f 121//71 122//71 90//36 120//70
f 111//72 110//73 122//74 121//72
g coll_top_walls piano
f 91//54 90//54 109//75 114//54 95//54 94//54 93//54 92//54
f 90//53 110//73 109//75
f 90//53 122//74 110//73
