v -4.08763585128183 -3.56814467062162 2.43505943478562
v 4.08763585128183 -3.56814467062162 2.43505943478562
v 4.08763585128183 -3.56814467062162 2.74414628196576
v -4.08763585128183 -3.56814467062162 2.74414628196576
v 4.08763585128183 2.01491621222709 2.74414628196576
v -4.08763585128183 2.01491621222709 2.74414628196576
v 4.08763585128183 2.01491621222709 2.43505943478562
v -4.08763585128183 2.01491621222709 2.43505943478562
v -3.38469953361772 -2.32439266415093 -0.00752191843948965
v -3.05932663244212 -2.32439266415093 -0.00752191843948965
v -3.05932663244212 0.0483048556670742 2.4850459862256
v -3.38469953361772 0.0483048556670742 2.4850459862256
v -3.38469953361772 0.801974456767085 2.4850459862256
v -3.05932663244212 0.801974456767085 2.4850459862256
v -3.05932663244212 -1.57072287531975 -0.00752191843948965
v -3.38469953361772 -1.57072287531975 -0.00752191843948965
v -3.57284620990903 -0.0260928797283823 -0.00752194972801709
v -3.24747305842522 -0.0260928797283823 -0.00752194972801709
v -3.24747305842522 -2.19034685550399 2.4850459862256
v -3.57284620990903 -2.19034685550399 2.4850459862256
v -3.57284620990903 -1.43667731698104 2.4850459862256
v -3.24747305842522 -1.43667731698104 2.4850459862256
v -3.24747305842522 0.727576721371628 -0.00752194972801709
v -3.57284620990903 0.727576721371628 -0.00752194972801709
v 3.20335848750718 -2.32439266415093 -0.00752191843948965
v 3.52873138868277 -2.32439266415093 -0.00752191843948965
v 3.52873138868277 0.0483048556670742 2.4850459862256
v 3.20335848750718 0.0483048556670742 2.4850459862256
v 3.20335848750718 0.801974456767085 2.4850459862256
v 3.52873138868277 0.801974456767085 2.4850459862256
v 3.52873138868277 -1.57072287531975 -0.00752191843948965
v 3.20335848750718 -1.57072287531975 -0.00752191843948965
v 3.01521206152408 -0.0260928797283823 -0.00752191843948965
v 3.34058496269967 -0.0260928797283823 -0.00752191843948965
v 3.34058496269967 -2.19034685550399 2.4850459862256
v 3.01521206152408 -2.19034685550399 2.4850459862256
v 3.01521206152408 -1.43667719182693 2.4850459862256
v 3.34058496269967 -1.43667719182693 2.4850459862256
v 3.34058496269967 0.727576658794573 -0.00752191843948965
v 3.01521206152408 0.727576658794573 -0.00752191843948965
v -2.99487677146131 3.48031727347787 0.0094840532838516
v -2.73392394458841 3.48031727347787 0.0094840532838516
v -2.73392394458841 2.59413731692657 1.32265241127315
v -2.99487677146131 2.59413731692657 1.32265241127315
v -2.99487677146131 2.90273656369507 1.32265241127315
v -2.73392394458841 2.90273656369507 1.32265241127315
v -2.73392394458841 3.78891652024637 0.0094840532838516
v -2.99487677146131 3.78891652024637 0.0094840532838516
v -2.84398096440032 2.60417167283106 0.0094840532838516
v -2.58302813752743 2.60417167283106 0.0094840532838516
v -2.58302813752743 3.57570197638564 1.32265241127315
v -2.84398096440032 3.57570197638564 1.32265241127315
v -2.84398096440032 3.88430122315414 1.32265241127315
v -2.58302813752743 3.88430122315414 1.32265241127315
v -2.58302813752743 2.91277116990778 0.0094840532838516
v -2.84398096440032 2.91277116990778 0.0094840532838516
v -3.24319278787127 2.50385364522458 1.25964995757176
v 3.24319278787127 2.50385364522458 1.25964995757176
v 3.24319278787127 2.50385364522458 1.5687368047519
v -3.24319278787127 2.50385364522458 1.5687368047519
v 3.24319278787127 4.08342817011155 1.5687368047519
v -3.24319278787127 4.08342817011155 1.5687368047519
v 3.24319278787127 4.08342817011155 1.25964995757176
v -3.24319278787127 4.08342817011155 1.25964995757176
v 2.5422001135318 3.54523871514428 0.0094840532838516
v 2.8031529404047 3.54523871514428 0.0094840532838516
v 2.8031529404047 2.65905875859298 1.32265241127315
v 2.5422001135318 2.65905875859298 1.32265241127315
v 2.5422001135318 2.96765800536148 1.32265241127315
v 2.8031529404047 2.96765800536148 1.32265241127315
v 2.8031529404047 3.85383796191278 0.0094840532838516
v 2.5422001135318 3.85383796191278 0.0094840532838516
v 2.69309592059278 2.60417167283106 0.0094840532838516
v 2.95404874746568 2.60417167283106 0.0094840532838516
v 2.95404874746568 3.57570197638564 1.32265241127315
v 2.69309592059278 3.57570197638564 1.32265241127315
v 2.69309592059278 3.88430122315414 1.32265241127315
v 2.95404874746568 3.88430122315414 1.32265241127315
v 2.95404874746568 2.91277116990778 0.0094840532838516
v 2.69309592059278 2.91277116990778 0.0094840532838516
v -2.99487677146131 -4.64215616541585 0.0094840532838516
v -2.73392394458841 -4.64215616541585 0.0094840532838516
v -2.73392394458841 -5.52833637227536 1.32265241127315
v -2.99487677146131 -5.52833637227536 1.32265241127315
v -2.99487677146131 -5.21973737581508 1.32265241127315
v -2.73392394458841 -5.21973737581508 1.32265241127315
v -2.73392394458841 -4.33355666833913 0.0094840532838516
v -2.99487677146131 -4.33355666833913 0.0094840532838516
v -2.84398096440032 -5.51830151575444 0.0094840532838516
v -2.58302813752743 -5.51830151575444 0.0094840532838516
v -2.58302813752743 -4.54677171281629 1.32265241127315
v -2.84398096440032 -4.54677171281629 1.32265241127315
v -2.84398096440032 -4.23817221573957 1.32265241127315
v -2.58302813752743 -4.23817221573957 1.32265241127315
v -2.58302813752743 -5.20970251929416 0.0094840532838516
v -2.84398096440032 -5.20970251929416 0.0094840532838516
v -3.24319278787127 -5.61862004397735 1.25964995757176
v 3.24319278787127 -5.61862004397735 1.25964995757176
v 3.24319278787127 -5.61862004397735 1.5687368047519
v -3.24319278787127 -5.61862004397735 1.5687368047519
v 3.24319278787127 -4.03904551909039 1.5687368047519
v -3.24319278787127 -4.03904551909039 1.5687368047519
v 3.24319278787127 -4.03904551909039 1.25964995757176
v -3.24319278787127 -4.03904551909039 1.25964995757176
v 2.5422001135318 -4.57723472374944 0.0094840532838516
v 2.8031529404047 -4.57723472374944 0.0094840532838516
v 2.8031529404047 -5.46341493060895 1.32265241127315
v 2.5422001135318 -5.46341493060895 1.32265241127315
v 2.5422001135318 -5.15481593414867 1.32265241127315
v 2.8031529404047 -5.15481593414867 1.32265241127315
v 2.8031529404047 -4.26863522667272 0.0094840532838516
v 2.5422001135318 -4.26863522667272 0.0094840532838516
v 2.69309592059278 -5.51830151575444 0.0094840532838516
v 2.95404874746568 -5.51830151575444 0.0094840532838516
v 2.95404874746568 -4.54677171281629 1.32265241127315
v 2.69309592059278 -4.54677171281629 1.32265241127315
v 2.69309592059278 -4.23817221573957 1.32265241127315
v 2.95404874746568 -4.23817221573957 1.32265241127315
v 2.95404874746568 -5.20970251929416 0.0094840532838516
v 2.69309592059278 -5.20970251929416 0.0094840532838516
v -4.71314107339213 -6.57658214018414 0.00407584084887204
v 4.75717028920732 -6.57658214018414 0.00407584084887204
v 4.75717028920732 5.19269908194154 0.00407584084887204
v -4.71314107339213 5.19269908194154 0.00407584084887204
v -3.66552458034726 -1.43185212543317 2.77308241275978
v -0.566710699887413 -3.60069725457139 2.77308241275978
v 1.24172350865962 -3.60069725457139 2.77308241275978
v 3.66552458034726 -0.137606630800903 2.77308241275978
v 0.520332278854891 2.06369915659346 2.773082663068
v -1.21900415795995 2.06369865597702 2.77308241275978
v -0.647122841181717 2.04634879204858 1.86541286979135
v 0.647122841181717 -3.57280791275145 1.86541286979135
v -1.21900453342227 2.06369915659346 2.77308241275978
v -0.647122716027608 2.0463490423568 1.86541286979135
v 0.520332716894275 2.06369915659346 2.77308241275978
v 0.647122716027608 -3.57280791275145 1.86541286979135
v -0.566711701120291 -3.60069725457139 2.77308241275978
vt -0.203744783997536 0.411443084478378
vt 1.20374476909637 0.411443084478378
vt 1.20374476909637 0.588557064533234
vt -0.203744783997536 0.588557064533234
vt -0.203744769096375 0
vt 1.20374476909637 0
vt 1.20374476909637 1
vt -0.203744769096375 1
vt 0.706590175628662 8.94069671630859e-08
vt 0.706590175628662 1
vt 0.544883966445923 1
vt 0.544883966445923 1.19209289550781e-07
vt 0.706590294837952 1
vt 0.706590175628662 1.19209289550781e-07
vt 0.988136649131775 0
vt 0.748002409934998 0
vt 0.748002409934998 1
vt 0.988136649131775 1
vt 0.285616278648376 0.0114003419876099
vt 0.504531741142273 0.0114003419876099
vt 0.504531741142273 0.984485864639282
vt 0.285616278648376 0.984485864639282
vt 0.218953400850296 0.0053732069209218
vt 0.218953400850296 0.965446591377258
vt 0.0418393462896347 0.965446352958679
vt 0.0418393164873123 0.0053732069209218
vt 0.981038212776184 0.0485063008964062
vt 0.981038212776184 0.985536158084869
vt 0.733852982521057 0.985536158084869
vt 0.733852982521057 0.0485063306987286
vt 0 0
vt 1 0
vt 1 1
vt 0 1
vt -2.98605489730835 -2.98605489730835
vt 2.02369165420532 -2.98605489730835
vt 3.98605489730835 -1.61260557174683
vt 3.98605489730835 3.98605489730835
vt -1.09867072105408 3.98605513572693
vt -2.98605489730835 2.66508293151855
vt -2.98605489730835 3.98605489730835
vt 3.98605489730835 -2.98605489730835
vt -1.09867012500763 3.98605489730835
vt 3.98605489730835 -1.61260509490967
vt 2.02369093894958 -2.98605489730835
vn 0 -1 0
vn 0 0 1
vn 0 1 0
vn 0 0 -1
vn 1 0 0
vn -1 0 0
vn 0 -0.724308678624656 0.68947584299162
vn 0 0.724308678624656 -0.68947584299162
vn -0.999999999999961 0 2.79777054856811e-07
vn 0 -0.755084639672952 -0.655627323202723
vn 0 0.755084639672952 0.655627323202723
vn 0.999999999999961 0 -2.79777054856811e-07
vn 0 0.724308881261799 -0.689475630117034
vn -0.999999999999961 -0 -2.79777054856811e-07
vn 0 -0.755084889694064 -0.655627035253812
vn 0 0.755084889694064 0.655627035253812
vn 0 -0.828909743346435 -0.559382371357328
vn 0 0.828909743346435 0.559382371357328
vn 0 -0.803904438054141 0.594758484157104
vn 0 0.803904742967019 -0.594758072021836
vn -0.99999999999979 -0 -6.48476884634738e-07
vn -0.99999999999979 -0 -6.48477737286021e-07
vn 0 -0.803904742967019 0.594758072021836
vn 0 -0.828909456630957 -0.559382796220773
vn 0.99999999999979 0 6.48477339382089e-07
vn -0.99999999999979 0 6.48477339382089e-07
vn 0 0.803904438054141 -0.594758484157104
vn 0 0.828909456630957 0.559382796220773
vn 0 -0.80390504787969 0.594757659886405
vn -1.05029762664798e-08 -1.40257199632286e-07 0.99999999999999
vn -1.05029763602312e-08 -2.33053044659505e-08 1
vn -2.85017463781506e-07 0.99981736004376 -0.0191114247256656
vn -3.32850338873916e-07 0.999817360355168 -0.0191114084335096
vn 0 -0.999528280720251 -0.0307118224861241
vn 0 -0.999528280621977 -0.0307118256844848
vn 0 -0.999817358233562 0.0191115194283544
vn 0 0.999528281079403 0.0307118107973787
g table_top picnic_table
f 1/1/1 2/2/1 3/3/1 4/4/1
f 4/5/2 3/6/2 5/7/2 6/8/2
f 6/4/3 5/3/3 7/2/3 8/1/3
f 8/5/4 7/6/4 2/7/4 1/8/4
f 2/9/5 7/10/5 5/11/5 3/12/5
f 8/13/6 1/14/6 4/12/6 6/11/6
g table_leg1 picnic_table
f 9/15/7 10/16/7 11/17/7 12/18/7
f 13/19/8 14/20/8 15/21/8 16/22/8
f 10/16/5 15/15/5 14/18/5 11/17/5
f 16/16/9 9/15/9 12/18/9 13/17/9
g table_leg2 picnic_table
f 17/15/10 18/16/10 19/17/10 20/18/10
f 21/19/11 22/20/11 23/21/11 24/22/11
f 18/16/12 23/15/12 22/18/12 19/17/12
f 24/16/9 17/15/9 20/18/9 21/17/9
g table_leg3 picnic_table
f 25/15/7 26/16/7 27/17/7 28/18/7
f 29/19/13 30/20/13 31/21/13 32/22/13
f 26/16/12 31/15/12 30/18/12 27/17/12
f 32/16/14 25/15/14 28/18/14 29/17/14
g table_leg4 picnic_table
f 33/15/15 34/16/15 35/17/15 36/18/15
f 37/19/16 38/20/16 39/21/16 40/22/16
f 34/16/12 39/15/12 38/18/12 35/17/12
f 40/16/6 33/15/6 36/18/6 37/17/6
g pCube2 bench1 picnic_table
f 41/15/17 42/16/17 43/17/17 44/18/17
f 45/19/18 46/20/18 47/21/18 48/22/18
f 42/16/5 47/15/5 46/18/5 43/17/5
f 48/16/6 41/15/6 44/18/6 45/17/6
g pCube3 bench1 picnic_table
f 49/15/19 50/16/19 51/17/19 52/18/19
f 53/19/20 54/20/20 55/21/20 56/22/20
f 50/16/5 55/15/5 54/18/5 51/17/5
f 56/16/21 49/15/21 52/18/21 53/17/21
g pCube4 bench1 picnic_table
f 57/23/1 58/24/1 59/25/1 60/26/1
f 60/27/2 59/28/2 61/29/2 62/30/2
f 62/26/3 61/25/3 63/24/3 64/23/3
f 64/27/4 63/28/4 58/29/4 57/30/4
f 58/9/5 63/10/5 61/11/5 59/12/5
f 64/13/6 57/14/6 60/12/6 62/11/6
g pCube2 group3 bench1 picnic_table
f 65/15/17 66/16/17 67/17/17 68/18/17
f 69/19/18 70/20/18 71/21/18 72/22/18
f 66/16/5 71/15/5 70/18/5 67/17/5
f 72/16/22 65/15/22 68/18/22 69/17/22
g pCube3 group3 bench1 picnic_table
f 73/15/23 74/16/23 75/17/23 76/18/23
f 77/19/20 78/20/20 79/21/20 80/22/20
f 74/16/5 79/15/5 78/18/5 75/17/5
f 80/16/6 73/15/6 76/18/6 77/17/6
g pCube2 bench2 picnic_table
f 81/15/24 82/16/24 83/17/24 84/18/24
f 85/19/18 86/20/18 87/21/18 88/22/18
f 82/16/25 87/15/25 86/18/25 83/17/25
f 88/16/26 81/15/26 84/18/26 85/17/26
g pCube3 bench2 picnic_table
f 89/15/23 90/16/23 91/17/23 92/18/23
f 93/19/27 94/20/27 95/21/27 96/22/27
f 90/16/5 95/15/5 94/18/5 91/17/5
f 96/16/26 89/15/26 92/18/26 93/17/26
g pCube4 bench2 picnic_table
f 97/23/1 98/24/1 99/25/1 100/26/1
f 100/27/2 99/28/2 101/29/2 102/30/2
f 102/26/3 101/25/3 103/24/3 104/23/3
f 104/27/4 103/28/4 98/29/4 97/30/4
f 98/9/5 103/10/5 101/11/5 99/12/5
f 104/13/6 97/14/6 100/12/6 102/11/6
g pCube2 group3 bench2 picnic_table
f 105/15/24 106/16/24 107/17/24 108/18/24
f 109/19/28 110/20/28 111/21/28 112/22/28
f 106/16/5 111/15/5 110/18/5 107/17/5
f 112/16/6 105/15/6 108/18/6 109/17/6
g pCube3 group3 bench2 picnic_table
f 113/15/29 114/16/29 115/17/29 116/18/29
f 117/19/20 118/20/20 119/21/20 120/22/20
f 114/16/25 119/15/25 118/18/25 115/17/25
f 120/16/6 113/15/6 116/18/6 117/17/6
g shadow1 picnic_table
f 121/31/2 122/32/2 123/33/2 124/34/2
g tablecloth table_cloth picnic_table
f 125/35/30 126/36/31 127/37/31 128/38/30 129/39/31 130/40/31
f 130/40/32 129/39/32 131/41/33
f 127/37/34 126/36/34 132/42/35
g pPlane2 table_cloth picnic_table
f 133/40/36 134/41/36 135/43/36
f 127/44/37 136/42/37 137/45/37
