v 0.0383413682772419 0.0616544422515108 0.0232023081071179
v 0.0387865922895316 0.0621880094210307 0.0227152474225734
v -0.0395279935025793 0.0625039414158018 0.0220470496305402
v -0.039101722515787 0.0619687120432616 0.0225468955896104
v 0.0389529612120681 0.0623754628999965 0.0221379819134161
v -0.0396726364538738 0.0626919971989209 0.0214652159963765
v 0.0388081383517408 0.0621948968081337 0.0215539659044633
v -0.039506459173568 0.0625108366250366 0.0208857681124301
v 0.0383813393710479 0.0616672236149705 0.0210478153071137
v -0.0390617592441128 0.0619814934067213 0.0203923988785402
v -0.0390669062068769 -0.0664825514545591 0.0208512451334647
v -0.039493693454372 -0.0670102246477222 0.0203450945361151
v 0.038820892337739 -0.0673261683756911 0.0210133001502802
v 0.0383762002304157 -0.066796813424178 0.0215066654731041
v -0.0396385280478971 -0.0671907907395851 0.0197610785271624
v 0.0389870774401767 -0.0675073289495754 0.020433844444202
v -0.0394721591253606 -0.0670033411716852 0.0191838169290709
v 0.0388424266667504 -0.0673192770775222 0.0198520186321701
v -0.0390269351130708 -0.0664697700910994 0.0186967562445264
v 0.0384161635020899 -0.0667840398828501 0.0193521726730999
v -0.0386953040996562 -0.0579780559214394 0.00789095334075032
v -0.0387568720995285 -0.0579871921714522 0.0204081956738321
v -0.0390654591124827 0.0553536055282032 0.020489440246399
v -0.0390038950236764 0.055362741778216 0.00797219595778423
v -0.0262224572537139 0.0341713193833359 0.000186382744607302
v -0.0263562802411127 0.0450088439651049 0.000186382744607302
v -0.0277293987787302 0.0433992330483564 0.0211521938346574
v -0.0276348956926601 0.0357465363862946 0.0211521938346574
v -0.0371965719020273 0.0448749955557776 0.00018638176684082
v -0.035384050973757 0.0433047143180226 0.0211521938346574
v -0.0370627391369637 0.0340374631518767 0.00018638176684082
v -0.0352895517987529 0.0356520137448949 0.0211521938346574
v -0.0262224572537139 -0.0534735483134513 0.000186382744607302
v -0.0263562802411127 -0.0426360237316822 0.000186382744607302
v -0.0277293987787302 -0.0442456346484307 0.0201234368300572
v -0.0276348956926601 -0.0518983313104925 0.0201234368300572
v -0.0371965719020273 -0.0427698721410096 0.00018638176684082
v -0.035384050973757 -0.0443401533787645 0.0201234368300572
v -0.0370627391369637 -0.0536074045449104 0.00018638176684082
v -0.0352895517987529 -0.0519928539518922 0.0201234368300572
v 0.0300540346798934 -0.0534735483134513 0.000186382744607302
v 0.0299202116924947 -0.0426360237316822 0.000186382744607302
v 0.0285470931548772 -0.0442456346484307 0.0211521938346574
v 0.0286415962409473 -0.0518983313104925 0.0211521938346574
v 0.0190799200315801 -0.0427698721410096 0.00018638176684082
v 0.0208924409598503 -0.0443401533787645 0.0211521938346574
v 0.0192137527966437 -0.0536074045449104 0.00018638176684082
v 0.0209869401348545 -0.0519928539518922 0.0211521938346574
v 0.0300540346798934 0.0341713193833359 0.000186382744607302
v 0.0299202116924947 0.0450088439651049 0.000186382744607302
v 0.0285470931548772 0.0433992330483564 0.0211521938346574
v 0.0286415962409473 0.0357465363862946 0.0211521938346574
v 0.0190799200315801 0.0448749955557776 0.00018638176684082
v 0.0208924409598503 0.0433047143180226 0.0211521938346574
v 0.0192137527966437 0.0340374631518767 0.00018638176684082
v 0.0209869401348545 0.0356520137448949 0.0211521938346574
v -0.0396366390030528 -0.0686209032854696 -0.00224783821055895
v 0.0396366390030528 -0.0686209032854696 -0.00224783821055895
v 0.0396366390030528 -0.0686209032854696 0.138020046113983
v -0.0396366390030528 -0.0686209032854696 0.138020046113983
v -0.0396366390030528 0.0637370144601256 0.138020046113983
v 0.0396366390030528 0.0637370144601256 0.138020046113983
v 0.0396366390030528 0.0637370144601256 -0.00224783821055895
v -0.0396366390030528 0.0637370144601256 -0.00224783821055895
v -0.0425020954649372 -0.0679459965144056 0.000290732339435481
v -0.0367706356461955 -0.0679459965144056 0.000290732339435481
v -0.0367706356461955 -0.060430163004651 0.000290732339435484
v -0.0425020954649372 -0.060430163004651 0.000290732339435484
v 0.0294280091319471 -0.0679459965144056 0.000290732339435481
v 0.0294280091319471 -0.060430163004651 0.000290732339435484
v 0.0355089844992283 -0.0679459965144056 0.000290732339435481
v 0.0355089844992283 -0.060430163004651 0.000290732339435484
v -0.0367706356461955 0.0575343858454514 0.000290732339435486
v -0.0425020954649372 0.0575343858454514 0.000290732339435486
v 0.0294280091319471 0.0575343858454514 0.000290732339435486
v 0.0355089844992283 0.0575343858454514 0.000290732339435486
v -0.0367706356461955 0.0636521258616571 0.000290732339435489
v -0.0425020954649372 0.0636521258616571 0.000290732339435489
v 0.0294280091319471 0.0636521258616571 0.000290732339435489
v 0.0355089844992283 0.0636521258616571 0.000290732339435489
vt 0.510353088378906 0.24370664358139
vt 0.502864420413971 0.190960168838501
vt 0.98650586605072 0.190959990024567
vt 0.979016721248627 0.243706464767456
vt 0.500189661979675 0.129323184490204
vt 0.989176511764526 0.129323124885559
vt 0.502864181995392 0.0676859021186829
vt 0.986506998538971 0.0676858425140381
vt 0.510352969169617 0.0149796009063721
vt 0.979018747806549 0.0149796605110168
vt 0.516018152236938 0.245800256729126
vt 0.508681952953339 0.193553447723389
vt 0.982456624507904 0.193553447723389
vt 0.97512024641037 0.245800256729126
vt 0.506063640117645 0.132437765598297
vt 0.985074877738953 0.132437765598297
vt 0.508681893348694 0.0713220834732056
vt 0.982456505298615 0.0713220834732056
vt 0.516018152236938 0.0190215110778809
vt 0.975120306015015 0.0190215110778809
vt 0.0108047733083367 0.210820734500885
vt 0.00887128058820963 0.165560066699982
vt 0.438695788383484 0.165560066699982
vt 0.436764180660248 0.210820615291595
vt 0.439365684986115 0.112643659114838
vt 0.00820076372474432 0.112643480300903
vt 0.00887128058820963 0.0597314238548279
vt 0.438695788383484 0.0597317814826965
vt 0.436764180660248 0.0144814252853394
vt 0.0108047733083367 0.0144809484481812
vt 0.438961386680603 0.166815996170044
vt 0.437036395072937 0.212980568408966
vt 0.0122054815292358 0.212980568408966
vt 0.0102707147598267 0.166815996170044
vt 0.00960615277290345 0.113042831420898
vt 0.439636051654816 0.113042831420898
vt 0.438961267471313 0.0587623119354248
vt 0.0102713108062744 0.0587623119354248
vt 0.012206494808197 0.0125980377197266
vt 0.437035977840424 0.0125980377197266
vt 0.0162019710987806 0.989738821983337
vt 0.0175440106540918 0.247949182987213
vt 0.465018630027771 0.247949182987213
vt 0.463675945997238 0.989738702774048
vt 0.972010970115662 0.266607046127319
vt 0.973414540290833 0.982742667198181
vt 0.505596160888672 0.982742428779602
vt 0.504193067550659 0.26660680770874
vt -2.23304268729407e-05 0.066846139729023
vt -2.23304268729407e-05 0.991885483264923
vt 0.998275995254517 0.991885483264923
vt 0.998275995254517 0.066846139729023
vt 0.508528590202332 0.287588894367218
vt 0.326584994792938 0.287588894367218
vt 0.330973416566849 0.64407342672348
vt 0.504140257835388 0.64407342672348
vt 0.123125791549683 0.287588864564896
vt 0.130097895860672 0.64407342672348
vt 0.711987972259521 0.287588864564896
vt 0.705016016960144 0.64407342672348
vt 0.956659317016602 0.64407342672348
vt 0.949687302112579 0.287588864564896
vt 0 -2.98023223876953e-08
vt 0.169003084301949 -2.98023223876953e-08
vt 0.169003084301949 0.16718290746212
vt 0 0.16718290746212
vt 0.816132545471191 -2.98023223876953e-08
vt 0.816132545471191 0.16718290746212
vt 1 -2.98023223876953e-08
vt 1 0.16718290746212
vt 0.169003084301949 0.812288761138916
vt 0 0.812288761138916
vt 0.816132545471191 0.812288761138916
vt 1 0.812288761138916
vt 0.169003084301949 0.99999988079071
vt 0 0.99999988079071
vt 0.816132545471191 0.99999988079071
vt 1 0.99999988079071
vn -0.0064668119915393 0.358080750599402 0.933668226080782
vn -0.00118759330888545 0.84230922839825 0.53899327767355
vn 0.00397861484120171 0.999974069547915 0.00600257075990413
vn 0.00397858533318155 0.999974065563453 0.00600325405471148
vn 0.00792721602879149 0.848672072213163 -0.528859974938025
vn 0.00937664880085557 0.375894013222627 -0.926615221804959
vn -0.00937666663879784 -0.375890566216663 0.926616619941635
vn -0.00792728194844337 -0.848670595015769 0.528862344430468
vn -0.00397867386112389 -0.999974073094806 -0.00600194072696957
vn 0.00118759369895612 -0.842308606867548 -0.538994248965661
vn 0.00646684145342878 -0.358078219598935 -0.933669196562933
vn -0.76270358472495 -0.00872170792374518 0.646689395041084
vn -0.890048618162542 -0.00623497067435212 0.455822972707211
vn -0.762704876125974 -0.00872173332886094 0.646687871620771
vn -0.999832818372195 -2.35846946049632e-05 -0.0182848229325861
vn -0.873474456509817 0.00617428984355193 -0.486830824794207
vn -0.740447948665696 0.00865308642901224 -0.672058003011656
vn -0.740449370000536 0.00865305123211407 -0.672056437488835
vn 0.87347415114496 -0.00617426341259309 0.486831373016267
vn 0.740449485891194 -0.00865303134068487 0.672056310060462
vn 0.999832771550349 2.35568340130722e-05 0.0182873830556474
vn 0.89004847463175 0.00623493682237349 -0.455823253431104
vn 0.762703447078222 0.00872170410310738 -0.646689557432727
vn -0.999984196746395 -0.00271909658478236 -0.00492064744011606
vn 0.997724338130733 0.0123203787913021 0.0662899190528215
vn -0.0123113283593528 0.99705154974099 0.0757405991072082
vn 0.01231199260236 -0.997051550931632 0.0757404754605293
vn -0.996287145935052 -0.012302936920347 0.0852089231695998
vn 0.997492352175764 0.0123175114610092 0.0696942340675973
vn -0.012307405918569 0.996748936645216 0.0796246510584991
vn 0.0123080337613743 -0.99674893825324 0.0796245338822657
vn -0.995904500513255 -0.0122982120888837 0.0895710881750431
vn 0.997724347222467 0.012320379639598 0.0662897820560552
vn -0.0123109894162585 0.997051554464833 0.0757405920154722
vn 0.0123116534597781 -0.997051555316166 0.0757404728708516
vn -0.996287151852499 -0.0123029349354976 0.0852088542676682
vn 0 -1 0
vn 0 1 0
vn 1 0 0
vn -1 0 0
vn 0 0 1
g Podium KartShowBlock
f 1/1/1 2/2/2 3/3/2 4/4/1
f 2/2/2 5/5/3 6/6/4 3/3/2
f 5/5/3 7/7/5 8/8/5 6/6/4
f 7/7/5 9/9/6 10/10/6 8/8/5
f 11/11/7 12/12/8 13/13/8 14/14/7
f 12/12/8 15/15/9 16/16/9 13/13/8
f 15/15/9 17/17/10 18/18/10 16/16/9
f 17/17/10 19/19/11 20/20/11 18/18/10
f 4/21/12 3/22/13 12/23/13 11/24/14
f 15/25/15 12/23/13 3/22/13 6/26/15
f 6/26/15 8/27/16 17/28/16 15/25/15
f 19/29/17 17/28/16 8/27/16 10/30/18
f 2/31/19 1/32/20 14/33/20 13/34/19
f 13/34/19 16/35/21 5/36/21 2/31/19
f 7/37/22 5/36/21 16/35/21 18/38/22
f 18/38/22 20/39/23 9/40/23 7/37/22
f 4/41/1 11/42/7 14/43/7 1/44/1
f 9/45/6 20/46/11 19/47/11 10/48/6
g Banner KartShowBlock
f 21/49/24 22/50/24 23/51/24 24/52/24
g polySurface176 Legs KartShowBlock
f 25/53/25 26/54/25 27/55/25 28/56/25
f 26/54/26 29/57/26 30/58/26 27/55/26
f 31/59/27 25/53/27 28/56/27 32/60/27
f 32/60/28 30/61/28 29/62/28 31/59/28
g polySurface179 Legs KartShowBlock
f 33/53/29 34/54/29 35/55/29 36/56/29
f 34/54/30 37/57/30 38/58/30 35/55/30
f 39/59/31 33/53/31 36/56/31 40/60/31
f 40/60/32 38/61/32 37/62/32 39/59/32
g polySurface180 Legs KartShowBlock
f 41/53/33 42/54/33 43/55/33 44/56/33
f 42/54/34 45/57/34 46/58/34 43/55/34
f 47/59/35 41/53/35 44/56/35 48/60/35
f 48/60/36 46/61/36 45/62/36 47/59/36
g polySurface181 Legs KartShowBlock
f 49/53/33 50/54/33 51/55/33 52/56/33
f 50/54/34 53/57/34 54/58/34 51/55/34
f 55/59/35 49/53/35 52/56/35 56/60/35
f 56/60/36 54/61/36 53/62/36 55/59/36
g collision
f 57//37 58//37 59//37 60//37
f 61//38 62//38 63//38 64//38
f 58//39 63//39 62//39 59//39
f 64//40 57//40 60//40 61//40
g pPlane1
f 65/63/41 66/64/41 67/65/41 68/66/41
f 66/64/41 69/67/41 70/68/41 67/65/41
f 69/67/41 71/69/41 72/70/41 70/68/41
f 68/66/41 67/65/41 73/71/41 74/72/41
f 67/65/41 70/68/41 75/73/41 73/71/41
f 70/68/41 72/70/41 76/74/41 75/73/41
f 74/72/41 73/71/41 77/75/41 78/76/41
f 73/71/41 75/73/41 79/77/41 77/75/41
f 75/73/41 76/74/41 80/78/41 79/77/41
