v 0.205647390106992 0.680029343711826 3.38166109021633
v 0.205647390106992 -0.918072751203055 3.38166109021633
v 0.538391856997813 -0.918072751203055 3.17728220909085
v 0.538391856997813 0.680029343711826 3.17728220909085
v -0.205647390106992 0.680029343711826 3.38166109021633
v -0.205647390106992 -0.918072751203055 3.38166109021633
v -0.538391856997813 0.680029343711826 3.17728220909085
v -0.538391856997813 -0.918072751203055 3.17728220909085
v -0.665488933781644 0.680029343711826 2.84659023284714
v -0.665488933781644 -0.918072751203055 2.84659023284714
v -0.593039631843565 0.593039631843565 2.01633474826812
v -0.593039631843565 -0.831083039334792 2.01633474826812
v -0.183259324577524 0.593039631843565 2.07563871145248
v -0.183259324577524 -0.831083039334792 2.07563871145248
v 0.183259324577524 0.593039631843565 2.07563871145248
v 0.183259324577524 -0.831083039334792 2.07563871145248
v 0.593039631843565 0.593039631843565 2.01633474826812
v 0.593039631843565 -0.831083039334792 2.01633474826812
v 0.665488933781644 0.680029343711826 2.84659023284714
v 0.665488933781644 -0.918072751203055 2.84659023284714
v -0.374227862759431 -0.593039631843565 0.188905173232994
v 0.374227862759431 -0.593039631843565 0.188905173232994
v 0.374227862759431 0.593039631843565 0.188905173232994
v -0.374227862759431 0.593039631843565 0.188905173232994
v 0.374227862759431 -0.593039631843565 0
v -0.374227862759431 -0.593039631843565 0
v 0.374227862759431 0.593039631843565 0
v -0.374227862759431 0.593039631843565 0
v -0.746342373259856 -0.104475935772277 2.45894743915526
v -0.756624198884494 -0.0847339327487176 2.5767752427092
v -0.760278843857559 0.0275667052038521 2.61865679231607
v -0.753651663205986 0.120125340132863 2.54271053836898
v -0.743369837581348 0.100383337109304 2.42488273481504
v -0.739715192608283 -0.0119173008432661 2.38300118520817
v -0.642811121711292 -0.0847339327487327 2.58670673713388
v -0.632529296086653 -0.104475935772292 2.46887893357993
v -0.646465766684357 0.0275667052038371 2.62858828674074
v -0.639838586032784 0.120125340132848 2.55264203279366
v -0.629556760408146 0.100383337109289 2.43481422923971
v -0.625902115435081 -0.0119173008432813 2.39293267963285
v -0.70102314219838 -0.0593039631843565 2.48897040960279
v -0.792099932449259 -0.0593039631843565 3.53269343523351
v -0.761741002365633 0.080387934995039 3.18478576002327
v -0.70102314219838 0.080387934995039 2.48897040960279
v -0.792099932449259 0.35977173135383 3.53269343523351
v -0.761741002365633 0.35977173135383 3.18478576002327
v 0.0863308920731283 0.000189655598721418 0.188905173232994
v 0.11842905617115 0.000260170293793862 2.07563871145248
v -0.100202642080964 -0.000220129684994284 2.07563871145248
v -0.0863308920731283 -0.000189655598721418 0.188905173232994
v 0.138625692704257 0.000304539176147129 3.38166109021634
v 0.141536092827059 0.000310932874446243 3.56986310520563
v -0.110083627754381 -0.000241836680124859 3.55413683601971
v -0.108930951031308 -0.000239304427893972 3.38166109021634
v 0.918754392865268 0.0080445980638659 2.71466830368958
v 0.742963705820312 0.448787496121159 2.71466830368958
v 0.370353056062015 0.742586698853872 2.71466830368958
v -0.0992368337156529 0.810718947152867 2.71466830368958
v -0.539979731772945 0.634928260107911 2.71466830368958
v -0.833778934505658 0.262317610349614 2.71466830368958
v -0.901911182804654 -0.207272279428054 2.71466830368958
v -0.726120495759699 -0.648015177485347 2.71466830368958
v -0.353509846001401 -0.94181438021806 2.71466830368958
v 0.116080043776267 -1.00994662851706 2.71466830368958
v 0.55682294183356 -0.8341559414721 2.71466830368958
v 0.850622144566272 -0.461545291713803 2.71466830368958
v 0.742963705820312 0.448787496121159 0.00359678486792481
v 0.918754392865268 0.0080445980638659 0.00359678486792481
v 0.370353056062015 0.742586698853872 0.00359678486792481
v -0.0992368337156529 0.810718947152867 0.00359678486792481
v -0.539979731772945 0.634928260107911 0.00359678486792481
v -0.833778934505658 0.262317610349614 0.00359678486792481
v -0.901911182804654 -0.207272279428054 0.00359678486792481
v -0.726120495759699 -0.648015177485347 0.00359678486792481
v -0.353509846001401 -0.94181438021806 0.00359678486792481
v 0.116080043776267 -1.00994662851706 0.00359678486792481
v 0.55682294183356 -0.8341559414721 0.00359678486792481
v 0.850622144566272 -0.461545291713803 0.00359678486792481
v -1.99261320823971 -1.93911804876156 0.0296519815921783
v 1.99261320823971 -1.93911804876156 0.0296519815921783
v 1.99261320823971 1.93911804876156 0.0296519815921783
v -1.99261320823971 1.93911804876156 0.0296519815921783
vt 0.99123477935791 0.974579513072968
vt 0.0243255849927664 0.974579513072968
vt 0.0236815419048071 0.833533704280853
vt 0.990590751171112 0.833533704280853
vt 0.0175421424210072 0.840630173683167
vt 0.971382915973663 0.840630173683167
vt 0.971382915973663 0.984676957130432
vt 0.0175421424210072 0.984676957130432
vt 0.0175421424210072 0.607557654380798
vt 0.971382915973663 0.607557654380798
vt 0.0694626867771149 0.0223914831876755
vt 0.919462382793427 0.0223914831876755
vt 0.0694626867771149 0.0641890689730644
vt 0.919462382793427 0.0641890689730644
vt 0.989548683166504 0.605316877365112
vt 0.0226394552737474 0.605316877365112
vt 0.0726550295948982 0.0323416590690613
vt 0.934300422668457 0.0323416590690613
vt 0.9631307721138 0.610525190830231
vt 0.91124027967453 0.0375499948859215
vt 0.617742657661438 0.078476794064045
vt 0.355230331420898 0.078476794064045
vt 0.061732679605484 0.0375499948859215
vt 0.00984218902885914 0.610525190830231
vt 0.100873149931431 0.838742077350616
vt 0.339195311069489 0.979787826538086
vt 0.633777678012848 0.979787826538086
vt 0.872099816799164 0.838742077350616
vt 1 1
vt 0 1
vt 0 0
vt 1 0
vt -0.994088411331177 0.0386998392641544
vt -0.994088411331177 0.970613360404968
vt 0.00591158214956522 0.970613360404968
vt 0.00591158214956522 0.0386998392641544
vt 0.00883233919739723 0.00146103010047227
vt 0.0145904431119561 0.928515791893005
vt 0.990732729434967 0.928515791893005
vt 0.98497462272644 0.00146103010047227
vt 0.995798349380493 2.10442757606506
vt 1.00666737556458 2.97394943237305
vt 0.677916646003723 2.6848361492157
vt 0.670670628547668 2.1051549911499
vt 0.0312842763960361 2.97613143920898
vt 0.0276612676680088 2.6862907409668
vt 0.884868025779724 0.00818152725696564
vt 0.990189552307129 0.996314406394958
vt 0.0556950867176056 0.996314406394958
vt 0.146862179040909 0.00818152725696564
vt 1.35359466075897 0.944002985954285
vt 1.37567353248596 1
vt -0.0278272833675146 1.00385284423828
vt -0.0267618615180254 0.952405273914337
vn 0.271937214770338 0 0.962314995842292
vn 0.769040158233706 0 0.639200465444039
vn -0.271937214770338 0 0.962314995842292
vn -0.769040158233706 0 0.639200465444039
vn -0.990223662594859 0 0.13948870218488
vn -0.996214325224356 0 -0.0869311119092635
vn 0.0717999197363195 0 -0.997419055124704
vn 0.143229216202859 0 -0.989689543051716
vn -0.0717999197363192 0 -0.997419055124704
vn -0.143229216202858 0 -0.989689543051716
vn 0.990223662594859 0 0.13948870218488
vn 0.996214325224356 0 -0.0869311119092634
vn 0 0.997511817988518 -0.0704994537088136
vn 0 -0.997511817988518 -0.0704994537088136
vn 0 0 1
vn 0 -1 0
vn 1 0 0
vn 0 1 0
vn -1 0 0
vn -0.0143121308633234 -0.986354122103997 0.164014355221135
vn 0.0304777599488456 -0.936526536701295 -0.349269455009708
vn -0.0814132904589352 -0.350596700004832 0.932981152050978
vn -0.0304777599488455 0.936526536701295 0.349269455009708
vn -0.0671011595956117 0.635757422099166 0.768966796829842
vn 0.0552670977686963 0.771888917037825 -0.633350651423364
vn 0.0814132904589352 0.350596700004836 -0.932981152050977
vn 0.0671011595956118 -0.635757422099166 -0.768966796829842
vn 0.996214325224356 0 0.0869311119092636
vn 0.00219683981617242 -0.9999975869445 0
vn 0.80130990772746 0.598249472860452 0
vn 0.993079472826371 0.11744428743407 0
vn 0.394829999965919 0.918754195161531 0
vn -0.117444287434071 0.993079472826371 0
vn -0.598249472860452 0.80130990772746 0
vn -0.918754195161531 0.394829999965919 0
vn -0.993079472826371 -0.117444287434071 0
vn -0.80130990772746 -0.598249472860452 0
vn -0.394829999965919 -0.918754195161531 0
vn 0.11744428743407 -0.993079472826371 0
vn 0.598249472860452 -0.80130990772746 0
vn 0.918754195161531 -0.394829999965919 0
g mailbox DD_mailbox
f 1/1/1 2/2/1 3/3/2 4/4/2
f 5/1/3 6/2/3 2/2/1 1/1/1
f 7/5/4 8/6/4 6/7/3 5/8/3
f 9/9/5 10/10/5 8/6/4 7/5/4
f 11/11/6 12/12/6 10/10/5 9/9/5
f 13/13/7 14/14/7 12/12/8 11/11/8
f 15/13/9 16/14/9 14/14/7 13/13/7
f 17/11/10 18/12/10 16/14/9 15/13/9
f 19/15/11 20/16/11 18/17/12 17/18/12
f 4/4/2 3/3/2 20/16/11 19/15/11
f 19/19/13 17/20/13 15/21/13 13/22/13 11/23/13 9/24/13 7/25/13 5/26/13 1/27/13 4/28/13
f 3/28/14 2/27/14 6/26/14 8/25/14 10/24/14 12/23/14 14/22/14 16/21/14 18/20/14 20/19/14
f 21/29/15 22/30/15 23/31/15 24/32/15
f 25/33/16 22/34/16 21/35/16 26/36/16
f 27/37/17 23/38/17 22/39/17 25/40/17
f 28/36/18 24/35/18 23/34/18 27/33/18
f 26/40/19 21/39/19 24/38/19 28/37/19
g o7 mailbox_arm DD_mailbox
f 29//6 30//6 31//6 32//6 33//6 34//6
f 35//20 30//20 29//21 36//21
f 37//22 31//22 30//22 35//22
f 38//23 32//23 31//24 37//24
f 39//25 33//25 32//23 38//23
f 40//26 34//26 33//25 39//25
f 36//21 29//21 34//27 40//27
f 41/41/6 42/42/6 43/43/6 44/44/6
f 42/42/6 45/45/6 46/46/6 43/43/6
f 44/44/28 43/43/28 42/42/28 41/41/28
f 43/43/28 46/46/28 45/45/28 42/42/28
g p7_3 o2 mailbox_stand DD_mailbox
f 47/47/29 48/48/29 49/49/29 50/50/29
f 51/51/29 52/52/29 53/53/29 54/54/29
g prop_mailboxcollisions DD_mailbox
f 55//15 56//15 57//15 58//15 59//15 60//15 61//15 62//15 63//15 64//15 65//15 66//15
f 67//30 56//30 55//31 68//31
f 69//32 57//32 56//30 67//30
f 70//33 58//33 57//32 69//32
f 71//34 59//34 58//33 70//33
f 72//35 60//35 59//34 71//34
f 73//36 61//36 60//35 72//35
f 74//37 62//37 61//36 73//36
f 75//38 63//38 62//37 74//37
f 76//39 64//39 63//38 75//38
f 77//40 65//40 64//39 76//39
f 78//41 66//41 65//40 77//40
f 68//31 55//31 66//41 78//41
g o10 drop_shadow DD_mailbox
f 79/31/15 80/32/15 81/29/15 82/30/15
