v 0 50 0
v 10 40 0
v 40 40 0
v 50 50 0
v 40 10 0
v 50 0 0
v 0 0 0
v 10 10 0
v 10 10 -2
v 10 40 -2
v 40 40 -2
v 40 10 -2
v 9.98123646959442 39.9812129688407 -2
v 10.0187870311593 9.98123646959442 -2
v 40.0187635304056 10.0187870311593 -2
v 39.9812129688407 40.0187635304056 -2
v 40 10 -1
v 40 40 -1
v 10 40 -1
v 10 10 -1
v 33.4277505668018 26.1013986635912 14.1785497175841
v 33.4277505668018 26.1013986635912 23.0164703899374
v 15.6917878708748 26.1013986635912 23.0164703899374
v 15.6917878708748 26.1013986635912 14.1785497175841
v 24.519946451261 26.4987584541759 -0.833156688447018
v 24.5362543135286 27.7394949124282 6.30581106592996
v 25.3137636636507 26.6493932453103 6.30581106592996
v 25.2974558013831 25.408656787058 -0.833156688447018
v 23.9646453898901 25.2803647717312 -0.833156688447018
v 23.9809532521577 26.5211012299835 6.30581106592996
v 24.5630479279968 27.4611392545663 12.0857710022986
v 25.0593037854211 26.7653671234526 12.0857710022986
v 24.2086195159192 26.6834830097032 12.0857710022986
v 24.5661016798288 27.4294141918222 16.7871971633151
v 25.030302199232 26.7785850281613 16.7871971633151
v 24.2345673502763 26.7019901677386 16.7871971633151
v 24.5052149643969 28.0619590001838 18.5836789643251
v 25.608545430021 26.5150420662975 18.5836789643251
v 24.5052149643969 28.0619590001838 20.0091738099623
v 25.608545430021 26.5150420662975 20.0091738099623
v 23.7172108349191 26.3329883212408 18.5836789643251
v 23.7172108349191 26.3329883212408 20.0091738099623
v 21.8041813114103 22.6298616882092 0.175303189914693
v 27.8041813114103 22.6298616882092 0.175303189914693
v 27.8041813114103 28.6156195219437 0.588465574317901
v 21.8041813114103 28.6156195219437 0.588465574317901
v 20 9.68392133712769 2
v 9.68392133712769 9.68392133712769 2
v 9.68392133712769 9.68392133712769 0
v 20 9.68392133712769 0
v 40.3160786628723 9.68392133712769 0
v 40.3160786628723 9.68392133712769 2
v 30 9.68392133712769 2
v 30 9.68392133712769 0
v 9.80120361507379 40.5950420182784 2.36649811267853
v 9.30063933569173 40.5950420182784 2.36649811267853
v 9.30063933569173 40.1691433449863 2.36649811267853
v 9.80120361507379 40.1691433449863 2.36649811267853
v 9.36711061080272 40.5384857895424 0
v 9.7347323399628 40.5384857895424 0
v 9.36711061080272 40.2256995737223 0
v 9.7347323399628 40.2256995737223 0
v 40.4333609408184 40.5950420182784 2.36649811267853
v 39.9327966614364 40.5950420182784 2.36649811267853
v 39.9327966614364 40.1691433449863 2.36649811267853
v 40.4333609408184 40.1691433449863 2.36649811267853
v 39.9992679365474 40.5384857895424 0
v 40.3668896657074 40.5384857895424 0
v 39.9992679365474 40.2256995737223 0
v 40.3668896657074 40.2256995737223 0
v 40.4333609408184 9.96288469253379 2.36649811267853
v 39.9327966614364 9.96288469253379 2.36649811267853
v 39.9327966614364 9.53698601924167 2.36649811267853
v 40.4333609408184 9.53698601924167 2.36649811267853
v 39.9992679365474 9.90632846379778 0
v 40.3668896657074 9.90632846379778 0
v 39.9992679365474 9.59354224797768 0
v 40.3668896657074 9.59354224797768 0
v 9.80120361507379 9.96288469253379 2.36649811267853
v 9.30063933569173 9.96288469253379 2.36649811267853
v 9.30063933569173 9.53698601924167 2.36649811267853
v 9.80120361507379 9.53698601924167 2.36649811267853
v 9.36711061080272 9.90632846379778 0
v 9.7347323399628 9.90632846379778 0
v 9.36711061080272 9.59354224797768 0
v 9.7347323399628 9.59354224797768 0
v 40.5663608025633 30.3183088909368 2.36649811267853
v 40.0657965231813 30.3183088909368 2.36649811267853
v 40.0657965231813 29.8924102176447 2.36649811267853
v 40.5663608025633 29.8924102176447 2.36649811267853
v 40.1322677982923 30.2617526622008 0
v 40.4998895274524 30.2617526622008 0
v 40.1322677982923 29.9489664463807 0
v 40.4998895274524 29.9489664463807 0
v 9.93420347681871 30.3183088909368 2.36649811267853
v 9.43363919743665 30.3183088909368 2.36649811267853
v 9.43363919743665 29.8924102176447 2.36649811267853
v 9.93420347681871 29.8924102176447 2.36649811267853
v 9.50011047254765 30.2617526622008 0
v 9.86773220170772 30.2617526622008 0
v 9.50011047254765 29.9489664463807 0
v 9.86773220170772 29.9489664463807 0
v 40.5663608025633 20.1075897823553 2.36649811267853
v 40.0657965231813 20.1075897823553 2.36649811267853
v 40.0657965231813 19.6816911090632 2.36649811267853
v 40.5663608025633 19.6816911090632 2.36649811267853
v 40.1322677982923 20.0510335536193 0
v 40.4998895274524 20.0510335536193 0
v 40.1322677982923 19.7382473377992 0
v 40.4998895274524 19.7382473377992 0
v 9.93420347681871 20.1075897823553 2.36649811267853
v 9.43363919743665 20.1075897823553 2.36649811267853
v 9.43363919743665 19.6816911090632 2.36649811267853
v 9.93420347681871 19.6816911090632 2.36649811267853
v 9.50011047254765 20.0510335536193 0
v 9.86773220170772 20.0510335536193 0
v 9.50011047254765 19.7382473377992 0
v 9.86773220170772 19.7382473377992 0
v 20.1449225854003 9.89687067377375 2.36649811267853
v 19.6443583060182 9.89687067377375 2.36649811267853
v 19.6443583060182 9.47097200048164 2.36649811267853
v 20.1449225854003 9.47097200048164 2.36649811267853
v 19.7108295811292 9.84031444503774 0
v 20.0784513102893 9.84031444503774 0
v 19.7108295811292 9.52752822921764 0
v 20.0784513102893 9.52752822921764 0
v 20.1449225854003 40.5290279995184 2.36649811267853
v 19.6443583060182 40.5290279995184 2.36649811267853
v 19.6443583060182 40.1031293262263 2.36649811267853
v 20.1449225854003 40.1031293262263 2.36649811267853
v 19.7108295811292 40.4724717707824 0
v 20.0784513102893 40.4724717707824 0
v 19.7108295811292 40.1596855549623 0
v 20.0784513102893 40.1596855549623 0
v 30.3556416939818 9.89687067377375 2.36649811267853
v 29.8550774145997 9.89687067377375 2.36649811267853
v 29.8550774145997 9.47097200048164 2.36649811267853
v 30.3556416939818 9.47097200048164 2.36649811267853
v 29.9215486897107 9.84031444503774 0
v 30.2891704188708 9.84031444503774 0
v 29.9215486897107 9.52752822921764 0
v 30.2891704188708 9.52752822921764 0
v 30.3556416939818 40.5290279995184 2.36649811267853
v 29.8550774145997 40.5290279995184 2.36649811267853
v 29.8550774145997 40.1031293262263 2.36649811267853
v 30.3556416939818 40.1031293262263 2.36649811267853
v 29.9215486897107 40.4724717707824 0
v 30.2891704188708 40.4724717707824 0
v 29.9215486897107 40.1596855549623 0
v 30.2891704188708 40.1596855549623 0
v 40.3160786628723 40.3160786628723 0
v 40.3160786628723 40.3160786628723 2
v 9.68392133712769 40.3160786628723 0
v 9.68392133712769 40.3160786628723 2
v 20 40.3160786628723 2
v 20 40.3160786628723 0
v 19.8946404457092 40.3160786628723 0
v 30 40.3160786628723 2
v 30.1053595542908 40.3160786628723 0
v 30 40.3160786628723 0
v 9.68392133712769 30.1053595542908 0
v 9.68392133712769 19.8946404457092 0
v 22.4765356927681 22.8519835749248 0.0783507312434254
v 23.1498010120583 21.4866410442256 0.0783507312434254
v 25.2151058391947 22.1686049846944 0.0783507312434254
v 26.7005215572275 22.1439712567399 0.0783507312434254
v 28.2009521154108 23.4330630579297 0.0783507312434254
v 28.1350463578401 26.5088663404962 0.307056433500243
v 27.4090702665744 28.4833313352658 0.571589376129131
v 23.7798668940823 29.3838877542161 0.571589376129131
v 21.6866174768464 27.0589328407 0.307056433500243
v 22.1422656502666 25.2931420379105 0.307056433500243
v 21.9959574289035 19.1872510444516 -2
v 20.876173535105 21.4581070229043 -2
v 25.4310000710075 20.3215026014653 -2
v 27.9015633823657 20.2805314552955 -2
v 30.3970995769048 22.4245661994613 -2
v 30.2874842384614 27.599284985456 -2
v 29.080031082937 30.8933593145549 -2
v 23.0438914402176 32.3911768086456 -2
v 19.5623709816932 28.5141629537668 -2
v 20.3202111246736 25.5772760473303 -2
v 9.53076069656447 9.53076069656447 -2
v 9.53076069656447 9.53076069656447 2
v 9.53076069656447 40.4692393034355 2
v 9.53076069656447 40.4692393034355 -2
v 9.53076069656447 30.1564131011452 -2.00808162689209
v 9.53076069656447 19.8435868988548 -2.00808162689209
v 20 40.4692393034355 2
v 20 40.4692393034355 -2.00808162689209
v 19.8435868988548 40.4692393034355 -2.00808162689209
v 30 40.4692393034355 2
v 40.4692393034355 40.4692393034355 2
v 40.4692393034355 40.4692393034355 -2
v 30.1564131011452 40.4692393034355 -2.00808162689209
v 30 40.4692393034355 -2.00808162689209
v 40.4692393034355 9.53076069656447 2
v 40.4692393034355 9.53076069656447 -2
v 20 9.53076069656447 2
v 20 9.53076069656447 -2
v 30 9.53076069656447 2
v 30 9.53076069656447 -2
v 9.99174359112941 19.9972478637098 -1.94824085109636
v 9.99174359112941 30.0027521362902 -1.94824085109636
v 9.99174359112941 40.0082564088706 -1.94040005645752
v 9.99174359112941 40.0082564088706 1.94040005645752
v 9.99174359112941 9.99174359112941 1.94040005645752
v 9.99174359112941 9.99174359112941 -1.94040005645752
v 19.9972478637098 40.0082564088706 -1.94824085109636
v 20.1489998588562 40.0082564088706 -1.94824085109636
v 20.1489998588562 40.0082564088706 1.94040005645752
v 29.8510001411438 40.0082564088706 -1.94824085109636
v 30.0027521362902 40.0082564088706 -1.94824085109636
v 40.0082564088706 40.0082564088706 -1.94040005645752
v 40.0082564088706 40.0082564088706 1.94040005645752
v 29.8510001411438 40.0082564088706 1.94040005645752
v 40.0082564088706 9.99174359112941 -1.94040005645752
v 40.0082564088706 9.99174359112941 1.94040005645752
v 20.1489998588562 9.99174359112941 -1.94040005645752
v 20.1489998588562 9.99174359112941 1.94040005645752
v 29.8510001411438 9.99174359112941 -1.94040005645752
v 29.8510001411438 9.99174359112941 1.94040005645752
v 20.1489998588562 9.99174359112941 0
v 29.8510001411438 9.99174359112941 0
v 20.1489998588562 40.0082564088706 2.22044604925031e-16
v 29.8510001411438 40.0082564088706 2.22044604925031e-16
v 24.984080561597 27.3323166116691 5.74306969446837
v 24.595059629018 27.529254918789 5.71372650396023
v 24.1633023542037 27.462171736289 5.72200345362258
v 23.8537253412433 27.1566905598107 5.76473903000758
v 23.7845764869518 26.7294948158454 5.82560969546499
v 23.9822683033856 26.3437587587387 5.88136492470788
v 24.3712892359646 26.1468204516189 5.91070811521603
v 24.8030465107788 26.2139036341189 5.90243116555368
v 25.1126235237393 26.5193848105972 5.85969558916867
v 25.1817723780307 26.9465805545624 5.79882492371127
v 24.6130328792059 26.6853145292931 -0.188704662099774
v 25.0020538117849 26.4883762221733 -0.159361471591629
v 24.1812756043916 26.6182313467931 -0.180427712437422
v 23.8716985914312 26.3127501703148 -0.137692136052417
v 23.8025497371397 25.8855544263496 -0.0768214705950134
v 24.0002415535735 25.4998183692429 -0.0210662413521167
v 24.3892624861525 25.3028800621231 0.00827694915602888
v 24.8210197609667 25.3699632446231 -5.0632387171845e-10
v 25.1305967739272 25.6754444211014 -0.0427355768913293
v 25.1997456282186 26.1026401650666 -0.103606242348732
v 25.0730543576189 27.5103862283876 11.8275048135698
v 24.6842081425699 27.7098394884691 11.8276587941683
v 24.2524508677407 27.6427563060041 11.8359357433328
v 23.942699137226 27.3347601766206 11.8491741478058
v 23.8732675840082 26.9034951533399 11.8623173870352
v 24.0706767015249 26.513689816896 11.8703451903579
v 24.4595229165739 26.3142365568145 11.8701912097594
v 24.8912801914031 26.3813197392795 11.8619142605949
v 25.2010319219178 26.689315868663 11.848675856122
v 25.2704634751356 27.1205808919437 11.8355326168925
v 24.5959744619606 27.5424233832736 5.86817569962492
v 24.9848206770096 27.342970123192 5.86802171902646
v 24.1642171871314 27.4753402008085 5.87645264878945
v 23.8544654566167 27.1673440714251 5.88969105326237
v 23.7850339033989 26.7360790481443 5.90283429249184
v 23.9824430209157 26.3462737117004 5.91086209581448
v 25.1127982413086 26.5218997634674 5.88919276157857
v 25.1822297945263 26.9531647867482 5.8760495223491
vt 0 -5
vt 1 -4
vt 1 -1
vt 0 0
vt 0 1
vt 3 0
vt 3 1
vt 1 0
vt 1 1
vt 1 0.996610224246979
vt 0 0.996610224246979
vt 0.340459078550339 0
vt 0.33523878455162 0.322335213422775
vt 0.241764292120934 0.3204165995121
vt 0.120242550969124 0
vt 0.560630202293396 0
vt 0.425944685935974 0.319997429847717
vt 0.780936002731323 0
vt 0.337285816669464 0.580293357372284
vt 0.219002857804298 0.578374743461609
vt 0.456461846828461 0.577955603599548
vt 0.33951336145401 0.790116846561432
vt 0.193932324647903 0.788198232650757
vt 0.486287623643875 0.787779092788696
vt 0.340533316135406 0.870887935161591
vt 0.162747278809547 0.86816531419754
vt 0.341250449419022 0.934507369995117
vt 0.156206429004669 0.931784808635712
vt 0.518083035945892 0.867570519447327
vt 0.524223148822784 0.931190013885498
vt 0.823440790176392 0.86816531419754
vt 0.81689989566803 0.931784808635712
vt 1.01031851768494 1
vt 1.01031851768494 0
vt 1.98968148231506 1
vt 1.98968148231506 0
vt 1.36220109462738 0.771913170814514
vt 0.637798964977264 0.771913170814514
vt 0.862201035022736 0.771913170814514
vt 1.13779902458191 0.771913170814514
vt 0.637798964977264 0
vt 0.362201035022736 0.771913170814514
vt 0.362201035022736 0
vt 0.862201035022736 0
vt 1.13779902458191 0
vt 0.137798979878426 0.771913170814514
vt 0.137798979878426 0
vt -0.00492138508707285 -2.12810064113e-05
vt -0.0152906915172935 0.999978482723236
vt 1.01036930084229 2.19588585537167e-07
vt 0.0102131394669414 0
vt 2 0
vt 0.290431052446365 0.295958310365677
vt 0.344648838043213 0.197116300463676
vt 0.520539522171021 0.245961621403694
vt 0.646031737327576 0.243856549263
vt 0.775375068187714 0.336712002754211
vt 0.775850415229797 0.559063494205475
vt 0.718374967575073 0.701947927474976
vt 0.413421034812927 0.767838001251221
vt 0.231939360499382 0.600233793258667
vt 0.266978085041046 0.472492545843124
vt 0.242611780762672 0.03115488961339
vt 0.152436003088951 0.195550218224525
vt 0.535155475139618 0.112395077943802
vt 0.743875861167908 0.108893908560276
vt 0.959001362323761 0.263332307338715
vt 0.959907948970795 0.637415289878845
vt 0.864333868026733 0.875793993473053
vt 0.357130467891693 0.985383212566376
vt 0.0552678294479847 0.705890238285065
vt 0.113544687628746 0.493429332971573
vn 0 0 1
vn 1 0 0
vn 0 -1 0
vn -1 0 0
vn 0 1 0
vn 0.809867712372886 0.577633937939683 -0.102241489602817
vn 0.813511296045803 0.58023270506306 -0.0391072778531176
vn -0.907726844081658 0.413710024285379 -0.0698283061468902
vn -0.909710470968178 0.414614091773022 -0.0228476238171119
vn 0.0944150038389714 -0.980866188727713 0.170256649975432
vn 0.0953575674009848 -0.990658368901562 0.0974829752554952
vn 0.814056710970311 0.580621719424098 0.0137873223362486
vn -0.909861514495426 0.414682932109444 0.0137873223362486
vn 0.0958048035251139 -0.995304651533545 0.0137873223362486
vn 0.811136989481932 0.5785392432428 -0.085727057118721
vn -0.906598176475456 0.413195617219182 -0.0857270571187213
vn 0.0954611869935224 -0.991734860461984 -0.0857270571187214
vn 0.811017540151708 0.578454046628653 -0.0874154763483503
vn 0.814134094127606 0.580676912558974 0
vn -0.906464669378176 0.413134769371818 -0.0874154763483505
vn -0.909948004730989 0.414722351322053 0
vn 0.0954471292264657 -0.991588816000472 -0.0874154763483508
vn 0.0958139106033804 -0.995399263881026 0
vn 0 -0.0688603974005345 0.997626305622421
vn 0 0.999714548336734 -0.0238918781990954
vn -0.999605752624495 0 -0.0280773809322913
vn 0 -0.999714548336735 -0.0238918781990678
vn 0.999605752624494 0 -0.0280773809323238
vn -0.507341021358883 -0.184169212811499 0.841835369356098
vn -0.152711844266228 -0.416957650317368 0.896005251358845
vn 0.080223572340309 -0.549025995757051 0.831946292992485
vn 0.157269633683176 -0.482940202002075 0.861414548061126
vn 0.420448215850597 -0.215905152489844 0.881253801646488
vn 0.503103166954069 0.0517272740793099 0.862676934035627
vn 0.316420145992713 0.301688259330857 0.89936782541509
vn -0.136339581676656 0.38801846452131 0.911511486301055
vn -0.492719775442087 0.0662035578911226 0.86766601397707
vn -0.565712943204626 -0.14501440068504 0.811751002145805
vn -0.229522938354128 -0.586739925937421 0.776566468552587
vn -0.707393417953578 -0.221939231968537 0.671071925764422
vn 0.112581970911832 -0.736878813741945 0.666584513534384
vn 0.225424747690746 -0.657036844222171 0.719365184355716
vn 0.605031700058768 -0.274697717847974 0.747313726445
vn 0.702735206397741 0.107023996432682 0.703355595610571
vn 0.453340844337523 0.469193336371618 0.75785202510768
vn -0.196713227111017 0.596391538487399 0.778216575960833
vn -0.701018869845161 0.131080521403056 0.700992468597
vn -0.774189915027756 -0.163841945367709 0.611380235538769
vn -0.00301438811850267 0.141541671997727 0.989927708750674
vn 0.158229562356813 0.977528786281973 -0.139287033088025
vn 0.708388241257068 0.699015961402323 -0.0977894951081286
vn -0.45236743133872 0.882658839783336 -0.127581658620443
vn -0.890175441666351 0.450643216958005 -0.0671444269009541
vn -0.987966689227881 -0.153502797945677 0.0189396937395693
vn -0.708388241257069 -0.699015961402326 0.0977894951081062
vn -0.158229562356807 -0.977528786281972 0.139287033088037
vn -0.158791657275702 -0.983662917432603 0.0848084574061867
vn 0.45236743133872 -0.882658839783335 0.127581658620454
vn 0.452724401850779 -0.88865017349568 0.0730854644573909
vn 0.890175441666349 -0.45064321695801 0.0671444269009546
vn 0.98796668922788 0.153502797945676 -0.0189396937395922
vn 0.0147981336542147 0.028078233656858 0.999496187103814
vn 0.158876446934218 0.986840296816841 -0.0300749594847176
vn 0.708788037933881 0.704770791350045 -0.0302927209354025
vn -0.451720546782488 0.891970350367636 -0.0183695857211614
vn -0.88977564504498 0.45639804703514 0.000352345428616576
vn -0.987966689262144 -0.1535027978657 0.0189396926004509
vn -0.708788037933873 -0.704770791350054 0.0302927209353911
vn -0.158876446906276 -0.986840296821414 0.0300749594822693
vn 0.451720546787263 -0.891970350365301 0.0183695857170908
vn 0.889775645034501 -0.456398047055568 -0.000352345429658697
vn 0.987966689262145 0.153502797865693 -0.0189396926004627
g DD_street_water_boardwalk DD_street_water
f 1/1/1 2/2/1 3/3/1 4/4/1
f 4/1/1 3/2/1 5/3/1 6/4/1
f 1/4/1 7/1/1 8/2/1 2/3/1
f 6/1/1 5/2/1 8/3/1 7/4/1
g DD_street_water_boardwalk_side DD_street_water
f 8/5/2 9/4/2 10/6/2 2/7/2
f 2/5/3 10/4/3 11/6/3 3/7/3
f 3/5/4 11/4/4 12/6/4 5/7/4
f 5/5/5 12/4/5 9/6/5 8/7/5
g DD_street_water_water DD_street_water
f 13/5/1 14/4/1 15/8/1 16/9/1
g DD_street_water_water_1 DD_street_water
f 17/5/1 18/4/1 19/8/1 20/9/1
g p2948 o165 flat_top prop_palm_tree_topflat DD_street_water
f 21/8/3 22/10/3 23/11/3 24/4/3
g o162 palm_trunk prop_palm_tree_topflat DD_street_water
f 25/12/6 26/13/7 27/14/7 28/15/6
f 29/16/8 30/17/9 26/13/9 25/12/8
f 28/18/10 27/14/11 30/17/11 29/16/10
f 26/13/7 31/19/12 32/20/12 27/14/7
f 30/17/9 33/21/13 31/19/13 26/13/9
f 27/14/11 32/20/14 33/21/14 30/17/11
f 31/19/12 34/22/15 35/23/15 32/20/12
f 33/21/13 36/24/16 34/22/16 31/19/13
f 32/20/14 35/23/17 36/24/17 33/21/14
f 34/22/15 37/25/18 38/26/18 35/23/15
f 37/25/18 39/27/19 40/28/19 38/26/18
f 36/24/16 41/29/20 37/25/20 34/22/16
f 41/29/20 42/30/21 39/27/21 37/25/20
f 35/23/17 38/31/22 41/29/22 36/24/17
f 38/31/22 40/32/23 42/30/23 41/29/22
g shadow DD_street_water
f 43/4/24 44/8/24 45/9/24 46/5/24
g o13 fence DD_street_water
f 47/33/3 48/5/3 49/4/3 50/34/3
f 51/6/3 52/7/3 53/35/3 54/36/3
g o25 fence DD_street_water
f 55/37/1 56/38/1 57/39/1 58/40/1
f 59/41/25 56/38/25 55/42/25 60/43/25
f 61/44/26 57/39/26 56/38/26 59/41/26
f 62/45/27 58/40/27 57/39/27 61/44/27
f 60/43/28 55/42/28 58/46/28 62/47/28
g o25_1 fence DD_street_water
f 63/37/1 64/38/1 65/39/1 66/40/1
f 67/41/25 64/38/25 63/42/25 68/43/25
f 69/44/26 65/39/26 64/38/26 67/41/26
f 70/45/27 66/40/27 65/39/27 69/44/27
f 68/43/28 63/42/28 66/46/28 70/47/28
g o25_2 fence DD_street_water
f 71/37/1 72/38/1 73/39/1 74/40/1
f 75/41/25 72/38/25 71/42/25 76/43/25
f 77/44/26 73/39/26 72/38/26 75/41/26
f 78/45/27 74/40/27 73/39/27 77/44/27
f 76/43/28 71/42/28 74/46/28 78/47/28
g o25_3 fence DD_street_water
f 79/37/1 80/38/1 81/39/1 82/40/1
f 83/41/25 80/38/25 79/42/25 84/43/25
f 85/44/26 81/39/26 80/38/26 83/41/26
f 86/45/27 82/40/27 81/39/27 85/44/27
f 84/43/28 79/42/28 82/46/28 86/47/28
g o25_4 fence DD_street_water
f 87/37/1 88/38/1 89/39/1 90/40/1
f 91/41/25 88/38/25 87/42/25 92/43/25
f 93/44/26 89/39/26 88/38/26 91/41/26
f 94/45/27 90/40/27 89/39/27 93/44/27
f 92/43/28 87/42/28 90/46/28 94/47/28
g o25_5 fence DD_street_water
f 95/37/1 96/38/1 97/39/1 98/40/1
f 99/41/25 96/38/25 95/42/25 100/43/25
f 101/44/26 97/39/26 96/38/26 99/41/26
f 102/45/27 98/40/27 97/39/27 101/44/27
f 100/43/28 95/42/28 98/46/28 102/47/28
g o25_6 fence DD_street_water
f 103/37/1 104/38/1 105/39/1 106/40/1
f 107/41/25 104/38/25 103/42/25 108/43/25
f 109/44/26 105/39/26 104/38/26 107/41/26
f 110/45/27 106/40/27 105/39/27 109/44/27
f 108/43/28 103/42/28 106/46/28 110/47/28
g o25_7 fence DD_street_water
f 111/37/1 112/38/1 113/39/1 114/40/1
f 115/41/25 112/38/25 111/42/25 116/43/25
f 117/44/26 113/39/26 112/38/26 115/41/26
f 118/45/27 114/40/27 113/39/27 117/44/27
f 116/43/28 111/42/28 114/46/28 118/47/28
g o25_8 fence DD_street_water
f 119/37/1 120/38/1 121/39/1 122/40/1
f 123/41/25 120/38/25 119/42/25 124/43/25
f 125/44/26 121/39/26 120/38/26 123/41/26
f 126/45/27 122/40/27 121/39/27 125/44/27
f 124/43/28 119/42/28 122/46/28 126/47/28
g o25_9 fence DD_street_water
f 127/37/1 128/38/1 129/39/1 130/40/1
f 131/41/25 128/38/25 127/42/25 132/43/25
f 133/44/26 129/39/26 128/38/26 131/41/26
f 134/45/27 130/40/27 129/39/27 133/44/27
f 132/43/28 127/42/28 130/46/28 134/47/28
g o25_10 fence DD_street_water
f 135/37/1 136/38/1 137/39/1 138/40/1
f 139/41/25 136/38/25 135/42/25 140/43/25
f 141/44/26 137/39/26 136/38/26 139/41/26
f 142/45/27 138/40/27 137/39/27 141/44/27
f 140/43/28 135/42/28 138/46/28 142/47/28
g o25_11 fence DD_street_water
f 143/37/1 144/38/1 145/39/1 146/40/1
f 147/41/25 144/38/25 143/42/25 148/43/25
f 149/44/26 145/39/26 144/38/26 147/41/26
f 150/45/27 146/40/27 145/39/27 149/44/27
f 148/43/28 143/42/28 146/46/28 150/47/28
g o58 fence DD_street_water
f 151/6/2 152/7/2 52/5/2 51/4/2
g o59 fence DD_street_water
f 153/48/5 154/49/5 155/9/5 156/50/5 157/8/5
f 158/5/5 152/9/5 151/8/5 159/51/5 160/4/5
g o60 fence DD_street_water
f 49/6/4 48/7/4 154/5/4 153/4/4 161/8/4 162/52/4
g island DD_street_water
f 163/53/29 164/54/30 165/55/31 166/56/32 167/57/33 168/58/34 169/59/35 170/60/36 171/61/37 172/62/38
f 173/63/39 164/54/30 163/53/29 174/64/40
f 175/65/41 165/55/31 164/54/30 173/63/39
f 176/66/42 166/56/32 165/55/31 175/65/41
f 177/67/43 167/57/33 166/56/32 176/66/42
f 178/68/44 168/58/34 167/57/33 177/67/43
f 179/69/45 169/59/35 168/58/34 178/68/44
f 180/70/46 170/60/36 169/59/35 179/69/45
f 181/71/47 171/61/37 170/60/36 180/70/46
f 182/72/48 172/62/38 171/61/37 181/71/47
f 174/64/40 163/53/29 172/62/38 182/72/48
g DD_street_water_wall_collisions DD_street_water
f 183//4 184//4 185//4 186//4 187//4 188//4
f 186//5 185//5 189//5 190//5 191//5
f 192//5 193//5 194//5 195//5 196//5
f 194//2 193//2 197//2 198//2
f 199//3 184//3 183//3 200//3
f 198//3 197//3 201//3 202//3
g DD_street_water_wall_collisions_inside DD_street_water
f 203//2 204//2 205//2 206//2 207//2 208//2
f 209//3 210//3 211//3 206//3 205//3
f 212//3 213//3 214//3 215//3 216//3
f 217//4 218//4 215//4 214//4
f 219//5 208//5 207//5 220//5
f 221//5 222//5 218//5 217//5
f 219//5 223//5 224//5 221//5
f 225//3 210//3 212//3 226//3
g DD_street_water_floor_collisions DD_street_water
f 6//1 5//1 8//1 7//1
f 1//1 7//1 8//1 2//1
f 4//1 3//1 5//1 6//1
f 1//1 2//1 3//1 4//1
g palm_tube DD_street_water
f 227//49 228//49 229//49 230//49 231//49 232//49 233//49 234//49 235//49 236//49
f 237//50 228//50 227//51 238//51
f 239//52 229//52 228//50 237//50
f 240//53 230//53 229//52 239//52
f 241//54 231//54 230//53 240//53
f 242//55 232//55 231//54 241//54
f 243//56 233//57 232//55 242//55
f 244//58 234//59 233//57 243//56
f 245//60 235//60 234//59 244//58
f 246//61 236//61 235//60 245//60
f 238//51 227//51 236//61 246//61
g palm_tube_1 DD_street_water
f 247//62 248//62 249//62 250//62 251//62 252//62 253//62 254//62 255//62 256//62
f 257//63 248//63 247//64 258//64
f 259//65 249//65 248//63 257//63
f 260//66 250//66 249//65 259//65
f 261//67 251//67 250//66 260//66
f 262//68 252//68 251//67 261//67
f 233//57 253//69 252//68 262//68
f 234//59 254//70 253//69 233//57
f 263//71 255//71 254//70 234//59
f 264//72 256//72 255//71 263//71
f 258//64 247//64 256//72 264//72
g floor DD_street_water
f 163//29 164//30 165//31 166//32 167//33 168//34 169//35 170//36 171//37 172//38
f 173//39 164//30 163//29 174//40
f 175//41 165//31 164//30 173//39
f 176//42 166//32 165//31 175//41
f 177//43 167//33 166//32 176//42
f 178//44 168//34 167//33 177//43
f 179//45 169//35 168//34 178//44
f 180//46 170//36 169//35 179//45
f 181//47 171//37 170//36 180//46
f 182//48 172//38 171//37 181//47
f 174//40 163//29 172//38 182//48
f 183//1 198//1 194//1 186//1
