v -0.668933948506833 0 3.80548389534016e-09
v 4.937794122257e-09 0 -1.94555972382473e-09
v 0 0 0.501700211071906
v -0.619250958360086 0 0.501700211071906
v -0.643565460765768 0 0.494158424417491
v -0.658761985658661 0 0.482869555005251
v -0.668933948506833 0 0.467672998823832
v 0.668933948506833 0 1.58372935646523e-10
v 0.668933948506833 0 0.467672998823832
v 0.658761985658661 0 0.482869555005251
v 0.643565460765768 0 0.494158424417491
v 0.619250958360086 0 0.501700211071906
v -0.668933948506833 0 -0.467672998823832
v -0.658761985658661 0 -0.482869555005251
v -0.643565460765768 0 -0.494158424417491
v -0.619250958360086 0 -0.501700211071906
v 9.87558824451401e-09 0 -0.501700211071906
v 0.619250958360086 0 -0.501700211071906
v 0.643565460765768 0 -0.494158424417491
v 0.658761985658661 0 -0.482869555005251
v 0.668933948506833 0 -0.467672998823832
vt 0.0324721708893776 0.0217697229236364
vt 0.97823029756546 0.0217697229236364
vt 0.97823029756546 0.97823029756546
vt 0.0821054130792618 0.97823029756546
vt 0.056600596755743 0.963852345943451
vt 0.0402046293020248 0.942330837249756
vt 0.0324721708893776 0.913359522819519
vn 0 -1 0
g viewfinder_mesh photo_game_viewfinder
f 1/1/1 2/2/1 3/3/1 4/4/1 5/5/1 6/6/1 7/7/1
f 8/1/1 9/7/1 10/6/1 11/5/1 12/4/1 3/3/1 2/2/1
f 1/1/1 13/7/1 14/6/1 15/5/1 16/4/1 17/3/1 2/2/1
f 8/1/1 2/2/1 17/3/1 18/4/1 19/5/1 20/6/1 21/7/1
