v 8.72779005155789 0.29885549870688 14.6264884728459
v 8.72779005155789 0.29885549870688 23.4644091348322
v -9.00817230304708 0.29885549870688 23.4644091348322
v -9.00817230304708 0.29885549870688 14.6264884728459
v -0.18001452205688 0.97139476165371 0
v -0.163706659957806 2.2121309295414 7.1389676391922
v 0.613802687076759 1.12202962239583 7.1389676391922
v 0.597494793689157 -0.118706905309922 0
v -0.735315563171867 -0.246998925847331 0
v -0.71900773236132 0.993737648791216 7.1389676391922
v -0.136913058013115 1.93377517339751 12.9189278509986
v 0.359342792841393 1.23800342790098 12.9189278509986
v -0.491341455714909 1.15611959942995 12.9189278509986
v -0.133859297734859 1.90205010842151 17.6203529978675
v 0.330341206447972 1.251220703125 17.6203529978675
v -0.465393629599744 1.17462638794907 17.6203529978675
v -0.194746021210678 2.53459499889784 19.4168351140861
v 0.908584419510809 0.987678187412853 19.4168351140861
v -0.159250469658318 2.16583692495591 21.7414515537853
v 0.571482012591024 1.14131737255988 21.7414515537853
v -0.982750119186762 0.805624013184875 19.4168351140861
v -0.681143232530809 1.02074490444554 21.7414515537853
v -3.00000008009863 -3.00000008009863 0.0250000340419179
v 3.00000008009863 -3.00000008009863 0.0250000340419179
v 3.00000008009863 3.00000008009863 0.0250000340419179
v -3.00000008009863 3.00000008009863 0.0250000340419179
v -1.11602535397988 0.433013195127953 13.8145286580083
v -0.933012687002267 -0.116025869614809 13.8145286580083
v -0.499999992490753 -0.499999679605479 13.8145286580083
v 0.0669872979792397 -0.616025549220288 13.8145286580083
v 0.616025424066178 -0.433012193895075 13.8145286580083
v 0.999999984981507 0 13.8145286580083
v 1.11602535397988 0.566987165315883 13.8145286580083
v 0.933012687002267 1.11602522882577 13.8145286580083
v 0.499999992490753 1.50000004004932 13.8145286580083
v -0.0669872979792397 1.61602590966412 13.8145286580083
v -0.616025424066178 1.43301255433891 13.8145286580083
v -0.999999984981507 1.00000036044384 13.8145286580083
v -0.933012687002267 -0.116025400286897 0
v -1.11602535397988 0.433012694511514 0
v -0.499999992490753 -0.499999992490753 0
v 0.0669872979792397 -0.616025424066178 0
v 0.616025424066178 -0.433012694511514 0
v 0.999999984981507 -1.33907057911243e-16 0
v 1.11602535397988 0.566987290469993 0
v 0.933012687002267 1.11602535397988 0
v 0.499999992490753 1.50000004004932 0
v -0.0669872979792397 1.61602540904768 0
v -0.616025424066178 1.43301267949302 0
v -0.999999984981507 0.999999984981507 0
vt 1 0.00558931799605489
vt 1 0.996610224246979
vt 0.00920948851853609 0.996610224246979
vt 0.00920948851853609 0.00558931799605489
vt 0.340459078550339 0
vt 0.33523878455162 0.322335213422775
vt 0.241764292120934 0.3204165995121
vt 0.120242550969124 0
vt 0.560630202293396 0
vt 0.425944685935974 0.319997429847717
vt 0.780936002731323 0
vt 0.337285816669464 0.580293357372284
vt 0.219002857804298 0.578374743461609
vt 0.456461846828461 0.577955603599548
vt 0.33951336145401 0.790116846561432
vt 0.193932324647903 0.788198232650757
vt 0.486287623643875 0.787779092788696
vt 0.340533316135406 0.870887935161591
vt 0.162747278809547 0.86816531419754
vt 0.341250449419022 0.934507369995117
vt 0.156206429004669 0.931784808635712
vt 0.518083035945892 0.867570519447327
vt 0.524223148822784 0.931190013885498
vt 0.823440790176392 0.86816531419754
vt 0.81689989566803 0.931784808635712
vt 0 0
vt 1 0
vt 1 1
vt 0 1
vn 0 -1 0
vn 0.809867673447263 0.577633989302656 -0.102241507752073
vn 0.813511220474111 0.580232811209362 -0.0391072750112085
vn -0.907726793571481 0.41371013578151 -0.0698283021709895
vn -0.909710416985658 0.414614209912201 -0.0228476293444496
vn 0.0944149656769106 -0.980866190087487 0.170256663304217
vn 0.0953574876958503 -0.990658375455321 0.09748298662105
vn 0.814056642886073 0.580621814305754 0.01378734656672
vn -0.909861423365516 0.414683131835717 0.0137873290451189
vn 0.095804482245979 -0.995304683134751 0.01378727353808
vn 0.81113698843019 0.57853924412658 -0.0857270611058606
vn -0.906598133064358 0.413195722961346 -0.0857270065421081
vn 0.0954609179762806 -0.991734882174821 -0.0857271054965691
vn 0.813205421907835 0.580014407083777 -0.0477517471403332
vn 0.811561829925299 0.578842065985611 0.0794308432147661
vn -0.908909978854814 0.414249226714079 -0.0477517382398767
vn -0.907072857533572 0.413412133579596 0.0794307178303613
vn 0.0957044724082346 -0.994263768966938 -0.0477515620762387
vn 0.0955109666281192 -0.992254175147618 0.0794311472653018
vn 0 0 1
vn 0 -1.75193846985164e-07 0.999999999999985
vn -0.834511878858447 -0.550989949131692 -2.00760897809388e-09
vn -0.998203475431091 -0.0599151202726949 -3.10522756335325e-09
vn -0.447213558871387 -0.8944272093142 1.25280707679784e-09
vn 0.0599153240813619 -0.998203463197872 1.01191980309804e-08
vn 0.550989995543057 -0.834511848215148 1.28962185658031e-08
vn 0.894427142875926 -0.447213691747925 5.75272603027481e-09
vn 0.998203466980357 0.0599152610642293 1.01289404364921e-09
vn 0.834511996162293 0.550989771466971 3.23736345312837e-09
vn 0.447213851759211 0.894427062870244 -7.43438500499709e-09
vn -0.0599153505167081 0.998203461611139 -1.58621792775853e-08
vn -0.550989995543057 0.834511848215148 -9.78481313554839e-09
vn -0.894427142875926 0.447213691747925 -6.40200603834695e-09
g o165 flat_top prop_palm_tree_topflat
f 1/1/1 2/2/1 3/3/1 4/4/1
g o162 palm_trunk prop_palm_tree_topflat
f 5/5/2 6/6/3 7/7/3 8/8/2
f 9/9/4 10/10/5 6/6/5 5/5/4
f 8/11/6 7/7/7 10/10/7 9/9/6
f 6/6/3 11/12/8 12/13/8 7/7/3
f 10/10/5 13/14/9 11/12/9 6/6/5
f 7/7/7 12/13/10 13/14/10 10/10/7
f 11/12/8 14/15/11 15/16/11 12/13/8
f 13/14/9 16/17/12 14/15/12 11/12/9
f 12/13/10 15/16/13 16/17/13 13/14/10
f 14/15/11 17/18/14 18/19/14 15/16/11
f 17/18/14 19/20/15 20/21/15 18/19/14
f 16/17/12 21/22/16 17/18/16 14/15/12
f 21/22/16 22/23/17 19/20/17 17/18/16
f 15/16/13 18/24/18 21/22/18 16/17/13
f 18/24/18 20/25/19 22/23/19 21/22/18
g o166 shadow prop_palm_tree_topflat
f 23/26/20 24/27/20 25/28/20 26/29/20
g palm_tree_collisions prop_palm_tree_topflat
f 27//21 28//21 29//21 30//21 31//21 32//21 33//21 34//21 35//21 36//21 37//21 38//21
f 39//22 28//22 27//23 40//23
f 41//24 29//24 28//22 39//22
f 42//25 30//25 29//24 41//24
f 43//26 31//26 30//25 42//25
f 44//27 32//27 31//26 43//26
f 45//28 33//28 32//27 44//27
f 46//29 34//29 33//28 45//28
f 47//30 35//30 34//29 46//29
f 48//31 36//31 35//30 47//30
f 49//32 37//32 36//31 48//31
f 50//33 38//33 37//32 49//32
f 40//23 27//23 38//33 50//33
