v 0.999999523162899 0 -1
v 0.999999523162899 0 1
v -0.999999523162899 0 1
v -0.999999523162899 0 -1
v 0.915 0 -0.5
v 0.915 0 0.5
v -0.915 0 0.5
v -0.915 0 -0.5
v 0.749999821186066 0 -0.9
v 0.749999821186066 0 -0.8
v -0.749999821186066 0 -0.8
v -0.749999821186066 0 -0.9
v -0.824999803304672 0 -0.8
v -0.824999803304672 0 -0.9
v 0.824999803304672 0 -0.9
v 0.824999803304672 0 -0.8
vt 1 0
vt 1 1
vt 0 1
vt 0 0
vt 0.75 0
vt 0.75 1
vt 0.25 1
vt 0.25 0
vt 0.5 0
vt 0.5 1
vn 0 -1 0
g bg title_screen
f 1/1/1 2/2/1 3/3/1 4/4/1
g fg title_screen
f 5/1/1 6/2/1 7/3/1 8/4/1
g bar_shadow title_screen
f 9/5/1 10/6/1 11/7/1 12/8/1
f 12/9/1 11/10/1 13/3/1 14/4/1
f 15/1/1 16/2/1 10/10/1 9/9/1
