v 0.0152510001747001 0 0.288818013949657
v 0.25993699789673 0 0.13759400588008
v 0.0908630961195378 0.232710002914188 0.13759400588008
v 0.213206002092737 -0.143823004144383 -0.107092001619614
v 0.213206002092737 0.143823004144383 -0.107092001619614
v 0.01525070000039 3.45203010883278e-07 0.288818013949657
v 0.0908627988785271 0.232711004147067 0.13759400588008
v -0.182705006887281 0.143823004144383 0.13759400588008
v -0.0603614986099283 0.232711004147067 -0.107092001619614
v 0.0152503000938986 2.13347002356859e-07 0.288818013949657
v -0.182705006887281 -0.143823004144383 0.13759400588008
v -0.0603617997620049 0.232710002914188 -0.107092001619614
v -0.229436002691274 1.2987700713671e-07 -0.107092001619614
v 0.0152503000938986 -2.13347002356859e-07 0.288818013949657
v 0.0908626033252306 -0.232711004147067 0.13759400588008
v -0.229436002691274 -1.29832994515807e-07 -0.107092001619614
v -0.0603617997620049 -0.232710002914188 -0.107092001619614
v 0.01525070000039 -3.45203010883278e-07 0.288818013949657
v 0.0908627988785271 -0.232711004147067 0.13759400588008
v 0.25993699789673 -2.5975401427342e-07 0.13759400588008
v -0.0603614986099283 -0.232711004147067 -0.107092001619614
v 0.0152502003617174 0 -0.258317003099937
v -0.229436002691274 0 -0.107092001619614
v -0.0603619014497191 0.232710002914188 -0.107092001619614
v 0.0152504995582611 3.45203010883278e-07 -0.258317003099937
v -0.0603616002976425 0.232711004147067 -0.107092001619614
v 0.0908626971908129 0.232711004147067 0.13759400588008
v 0.0152509004425189 2.13347002356859e-07 -0.258317003099937
v 0.0908630022539554 0.232710002914188 0.13759400588008
v 0.25993699789673 1.2987700713671e-07 0.13759400588008
v 0.0152509004425189 -2.13347002356859e-07 -0.258317003099937
v -0.0603614008332801 -0.232711004147067 -0.107092001619614
v 0.25993699789673 -1.29832994515807e-07 0.13759400588008
v 0.0908630022539554 -0.232710002914188 0.13759400588008
v 0.0152504995582611 -3.45203010883278e-07 -0.258317003099937
v -0.0603616002976425 -0.232711004147067 -0.107092001619614
v -0.229436002691274 -2.5975401427342e-07 -0.107092001619614
v 0.0908626971908129 -0.232711004147067 0.13759400588008
vt 0.383767008781433 1
vt 0.274120002985001 0.723607003688812
vt 0.493414998054504 0.723605990409851
vt 0.164471998810768 0.276394009590149
vt 0.383767008781433 0.276392996311188
vt 0.603062987327576 1
vt 0.712710976600647 0.723605990409851
vt 0.383767992258072 0.276392996311188
vt 0.603062987327576 0.276392996311188
vt 0.822358012199402 1
vt 0.932006001472473 0.723607003688812
vt 0.822358012199402 0.276392996311188
vt 0.453579992055893 1.13779997825623
vt 0.892171025276184 0.861406028270721
vt 1.11146998405457 0.861406028270721
vt 0.822359025478363 0.276392996311188
vt 1.04165005683899 0.276394009590149
vt 0.164471998810768 1
vt 0.0548239015042782 0.723607003688812
vt 1.15129995346069 0.723607003688812
vt 1.26094996929169 0.276394009590149
vt 0.712710976600647 0
vt 0.493414998054504 0
vt 0.274120002985001 0
vt 0.603062987327576 0
vt 0.0548239983618259 0.723607003688812
vt 0.932007014751434 0
vn 0.491122889336413 0.356821996911796 0.79465487482915
vn 0.982246868644609 0 -0.187592881095899
vn -0.187592952898799 0.577348945848533 0.794655320721064
vn 0.303532569908967 0.934171642390479 -0.187593500841402
vn -0.607061032955513 0 0.794655209677119
vn -0.794653477911974 0.577351452829027 -0.187593043470741
vn -0.187593104718088 -0.577348716071043 0.794655451823837
vn -0.794653477911974 -0.577351452829027 -0.187593043470741
vn 0.491122705716434 -0.35682133776889 0.794655284285324
vn 0.303532569908967 -0.934171642390479 -0.187593500841402
vn -0.491124568055219 0.356823740708091 -0.794653054307136
vn -0.982246868644609 0 0.187592881095899
vn 0.187593879251843 0.577351337670167 -0.794653364277604
vn -0.303532361941194 0.934171736107867 0.187593370649429
vn 0.607063912387361 0 -0.794653009984201
vn 0.794653820432681 0.577351084225136 0.18759272698003
vn 0.187594009607015 -0.577351312368799 -0.794653351887217
vn 0.794653820432681 -0.577351084225136 0.18759272698003
vn -0.491124361822404 -0.356823086788675 -0.794653475396124
vn -0.303532361941194 -0.934171736107867 0.187593370649429
g eyeball evil_eye evil_eye
f 1/1/1 2/2/1 3/3/1
f 2/2/2 4/4/2 5/5/2
f 6/6/3 7/3/3 8/7/3
f 7/3/4 5/8/4 9/9/4
f 10/10/5 8/7/5 11/11/5
f 8/7/6 12/9/6 13/12/6
f 14/13/7 11/14/7 15/15/7
f 11/11/8 16/16/8 17/17/8
f 18/18/9 19/19/9 20/2/9
f 19/20/10 21/17/10 4/21/10
f 22/22/11 23/16/11 24/9/11
f 23/16/12 11/11/12 8/7/12
f 25/23/13 26/9/13 5/8/13
f 26/9/14 8/7/14 27/3/14
f 28/24/15 5/5/15 4/4/15
f 5/5/16 29/3/16 30/2/16
f 31/25/17 4/21/17 32/17/17
f 4/4/18 33/2/18 34/26/18
f 35/27/19 36/17/19 37/16/19
f 36/17/20 38/20/20 11/11/20
