v -7.70000016689301 0 3.30000007152557
v -7.70000016689301 0 -3.30000007152557
v 7.70000016689301 0 -3.30000007152557
v 7.70000016689301 0 3.30000007152557
v -7.76281660832458 0 2.93870365094765
v -7.76281660832458 0 -2.93870365094765
v 7.63718372546143 0 -2.93870365094765
v 7.63718372546143 0 2.93870365094765
v -7.70000016689301 0 2.67300021135808
v -7.70000016689301 0 -2.67300021135808
v 7.70000016689301 0 -2.67300021135808
v 7.70000016689301 0 2.67300021135808
vt 0 1
vt 0 0
vt 1 0
vt 1 1
vt -0.00325509672984481 0.986290276050568
vt 1.00331997871399 -0.00717594614252448
vt 1.00006484985352 0.979114353656769
vn 0 -1 0
g DL_sign1 g2 g1
f 1/1/1 2/2/1 3/3/1 4/4/1
g DL_sign2 g2 g1
f 5/1/1 6/2/1 7/3/1 8/4/1
g DL_sign3 g2 g1
f 9/5/1 10/2/1 11/6/1 12/7/1
g DL_sign4 g2 g1
f 9/1/1 10/2/1 11/3/1 12/4/1
