v 9.23557702850315 -1.18974652448254 25.708172014692
v 9.24321443289742 0.663887966884755 25.2312487504614
v 18.4047255512281 0.828210306841284 25.2958322760314
v 18.4356796668879 -0.966027045264605 25.7665078471026
v 9.26409414333767 -1.69242149833834 27.5456826517901
v 18.4676410228232 -1.44268998894694 27.5656031811331
v 9.11724131463852 -0.361354475649284 28.9095060093196
v 18.4704044255668 -0.143658413426105 28.9064862909592
v 9.0606636471619 2.01035395123925 26.5811189266015
v 8.99775818789558 1.4674454354092 28.4421945807189
v 18.3253858555004 1.61779056438722 28.4507170749774
v 18.2056384032776 2.13005334428387 26.6254214789924
v 17.7692931051313 -1.37410954172745 24.941059422931
v 17.5718379667721 -2.33019883183572 27.8155669765522
v 14.9140052178384 -2.28221574738485 27.6737763812849
v 15.0645946476386 -1.34401648634277 24.7905701164186
v 17.5718359643063 -2.33021084663025 27.8155910061413
v 17.4198247838191 -0.313042986814392 30.0791222279466
v 15.242768043231 -0.287279262394691 29.9382928162422
v 14.9140032153726 -2.28215967834367 27.6738004108739
v 17.4652907688144 2.6602662272194 29.4682019651718
v 17.6626337690912 3.61637554198523 26.5936864016876
v 15.872851903293 3.58402771015903 26.4363646820148
v 15.7221423255473 2.64586849843208 29.3195869666072
v 17.8147630950581 1.59915161312819 24.3301151305672
v 15.5440790655715 1.58908722023736 24.1718322273314
v 15.872859913156 3.58403171509055 26.4363406524258
v 17.8147610925923 1.59919967230634 24.3301311502932
v 15.5440810680373 1.58908722023736 24.1718562569205
v 15.5781229858932 1.60285617477723 24.1374939445436
v 15.1713621168295 -0.87785847801764 23.3747947873093
v 15.0183537083957 -1.82995084647647 26.2543245250472
v 15.4311379944542 0.687701289657885 26.9544185928785
v 15.274164703823 -0.289417895822348 29.9620420601111
v 14.869796781338 -2.75562668667906 29.1036170298659
v 15.2939490654946 -0.312430232292985 29.9800802716433
v 15.6788390035688 2.17785220188516 30.7751232557722
v 15.8321237522769 3.13213526788131 27.8425922543984
v 15.4204228001926 0.620710800248846 27.1237791366777
v 15.5752935017797 1.58495813584801 24.1605223007402
v 15.9785220212494 4.04310499957012 25.0430490088275
v 9.33725623220742 -2.10138507973393 27.366381867977
v 9.39520959365857 -0.345370793983027 29.226031766476
v 6.49997251452882 -0.151031492340557 29.0225812456426
v 6.38954453793556 -1.91560031180209 27.170748973456
v 9.55374480757959 2.13454687744086 28.6334701097543
v 9.65433066498096 2.85848230256594 26.1812185052186
v 7.74765886559406 2.92687451800434 26.0594525675135
v 7.17902867712519 2.27021393242568 28.4669290377399
v 9.6543286625152 2.85849431736048 26.1812345249446
v 9.59623312599535 1.1024880414726 24.3215605968565
v 7.63737106160374 1.16225763936466 24.207668354505
v 9.43783608221152 -1.37747368419792 24.9141703127563
v 6.95831489900737 -1.25899579526461 24.7632965328187
v 7.63737106160374 1.16224161963861 24.207652334779
v 9.43784208960879 -1.37744164474582 24.9141462831672
v 6.95831289654161 -1.25897577060704 24.7633205624077
v 9.40783313778587 -1.37992470228355 24.8797759609272
v 9.46511767567445 0.371680153872124 26.7591861915088
v 9.33607878234275 -1.21019970971671 28.3119942572486
v 9.27778700417879 -2.9868033483732 26.412639467735
v 9.53671583878858 2.15703857281487 28.6505070884084
v 9.39359160132754 0.545261895485477 30.1886891442647
v 9.59459110407524 1.96486994405216 25.2185370978408
v 9.65438473155638 3.77378537015124 27.1343121065555
v 9.53725049714549 0.230626466003029 23.3819235654015
v 6.82028092949867 -3.6398795202482 29.3000509106894
v 6.72103271922247 -3.64804157067061 24.8872251335404
v 8.31263655652357 3.11127758456438 24.8389256595001
v 8.41188276433402 3.11944764484981 29.251743426786
v -6.03383911976519 5.30791443531692 24.4554935164965
v -6.03383911976519 5.30791443531692 28.8694406744689
v -13.6413927570119 -7.9794791296232 32.6215008112389
v -13.6413927570119 -7.9794791296232 27.9646785866244
v -4.78585440130226 -2.19099141739387 24.4554935164965
v -4.78585440130226 -2.19099141739387 28.8694406744689
v -13.6414047718065 -7.97947512469169 27.9646785866244
v -15.3118536957935 2.78294128437778 27.9646785866244
v -6.03384412592958 5.3079064254539 24.4554935164965
v -4.7858664160968 -2.19099141739387 24.4554935164965
v 8.31263455405781 3.11126957470136 24.8389256595001
v -4.7858664160968 -2.19099141739387 28.8694406744689
v 6.72102871429096 -3.64804157067061 24.8872251335404
v 6.82027692456716 -3.63987151038518 29.3000509106894
v -16.606992249911 -8.37844889480304 23.5474571492772
v 20.4173926812263 -8.37844889480304 23.5474571492772
v 20.4173926812263 -8.37844889480304 32.8454456761682
v -16.606992249911 -8.37844889480304 32.8454456761682
v 20.4173926812263 5.71116859288234 32.8454456761682
v -16.606992249911 5.71116859288234 32.8454456761682
v 20.4173926812263 5.71116859288234 23.5474571492772
v -16.606992249911 5.71116859288234 23.5474571492772
vt -0.605444014072418 1.99414682388306
vt -0.274754732847214 1.997891664505
vt -0.274754732847214 2.60358834266663
vt -0.605444014072418 2.59524059295654
vt -0.936132907867432 1.9920802116394
vt -0.936132967472076 2.59160876274109
vt -1.26682257652283 1.98701584339142
vt -1.26682257652283 2.59665465354919
vt -2.02820134162903 1.98905098438263
vt -1.59751152992249 1.98617672920227
vt -1.59751152992249 2.60267925262451
vt -2.02820134162903 2.60345935821533
vt 0.0559346750378609 1.98905098438263
vt 0.0559346750378609 2.60345935821533
vt 1 1
vt 0 1
vt 0 0
vt 1 0
vt -11.6945695877075 0.64952552318573
vt -11.6945695877075 1.65312445163727
vt -13.2015581130981 1.65312445163727
vt -13.2015581130981 0.64952552318573
vt 8.97182941436768 -1.99057340621948
vt 10.0063018798828 -1.99057340621948
vt 9.93279075622559 1.00698113441467
vt 8.99105739593506 1.00698113441467
vt 0.0105267316102982 -1.65584540367126
vt -1.02132880687714 -1.65584540367126
vt -1.00850331783295 0.00271099945530295
vt 0.0105267316102982 0.00271099945530295
vt -2.07910752296448 -2.79468750953674
vt -3.38889265060425 -2.78143501281738
vt -3.56444263458252 -1.02084767818451
vt -2.2321925163269 -1.02074325084686
vt 2.20771431922913 3.58097791671753
vt 0.793117165565491 3.36640644073486
vt 0.793196320533752 5.97937870025635
vt 2.1829891204834 6.08884239196777
vt 0.953472495079041 -0.938723921775818
vt 0.0581442937254906 -0.938723921775818
vt 0.0581442937254906 1.80563855171204
vt 0.953472495079041 1.80563855171204
vn 0.0117904635940624 -0.251334843742512 -0.967828384213423
vn 0.00285461144737972 0.265043754575706 -0.964232160505911
vn 0.0249406860156571 -0.967524936469297 0.251542162452246
vn 0.0259372549411538 -0.965165764436869 -0.260350352342978
vn 0.0174091285954962 -0.716353456594349 0.697520356310032
vn -0.0148395958510251 0.961224956099537 0.27536588417308
vn -0.00684269513463249 0.710724885872933 -0.703436787582368
vn 0.0362975009655391 -0.668149166258384 -0.743141428701081
vn 0.00319114283037753 -0.949963337691749 -0.31234511945761
vn -0.0501786136323624 -0.746547998763149 0.663436652798646
vn -0.0394256772615624 0.949878840369851 0.310122241366359
vn 0.00251061289676145 0.978990490238515 -0.203890453051229
vn 0.0437762119107671 0.746892772127485 -0.663501944393884
vn 0.0597433648340851 -0.20853976102007 -0.976187429970287
vn -0.986868289231506 0.161524086989851 0.000974182414077917
vn -0.986872445626279 0.161498613153816 0.000986920970323994
vn -0.987700307073854 0.156325369833729 0.00323761525871237
vn -0.987288759410833 0.158922903527757 0.00210149359397475
vn -0.986869089836168 0.161519243180685 0.000966234067664731
vn -0.0748978185785294 -0.96880332065136 0.23624233885372
vn -0.0938059701941966 -0.720191432527623 0.687404350051508
vn 0.0271559186056854 0.960591957908151 0.276632692368178
vn 0.0536376968947169 0.969968279016735 -0.237243619878689
vn 0.0659125511743286 0.722440291372181 -0.688284505854788
vn 0.0660006933210608 0.280940750418431 -0.957452977036193
vn 0.0484410474741018 -0.235674822270578 -0.970623945236951
vn -0.0360913613828589 -0.959991817706856 -0.277692498223158
vn 0.998027437896161 -0.0581179518489964 0.0237389317220313
vn 0.997998136839291 -0.0589624738725372 0.0228723750436015
vn 0.997914289614239 -0.0599893495982904 0.0238400612097336
vn 0.997967786999566 -0.0598009400483927 0.0220032652240114
vn 0.997797611363208 -0.0618606435724028 0.0239413352736437
vn 0.998079990139174 -0.0579354803965594 0.0219046432293886
vn 0.998129952892601 -0.0577407808209223 0.0200648789880335
vn 0.99802660298045 -0.0581300031367893 0.0237445252346583
vn 0.973121013656581 -0.229292147307656 -0.0214616859317202
vn 0.150632998873778 0.988586310955213 -0.00260872425840581
vn 0.547138950661651 -0.837041796249666 0
vn -0.338735174680272 -0.0541349816769242 -0.939323099467465
vn -0.156724554969154 -0.0296673211550332 -0.987196669324408
vn 0.0309310690075044 -0.00413108712663467 -0.9995129829518
vn -0.124829739430227 -0.992175460640901 0.00232195086028228
vn 0 -1 0
vn 0 0 1
vn 0 1 0
vn 0 0 -1
vn 1 0 0
vn -1 0 0
g polySurface16 pipeduct geometry props
f 1/1/1 2/2/2 3/3/2 4/4/1
f 5/5/3 1/1/4 4/4/4 6/6/3
f 7/7/5 5/5/3 6/6/3 8/8/5
f 9/9/6 10/10/6 11/11/6 12/12/6
f 2/2/2 9/13/7 12/14/7 3/3/2
g polySurface17 pipeduct geometry props
f 13/15/8 14/16/9 15/17/9 16/18/8
g polySurface18 pipeduct geometry props
f 17/15/10 18/16/10 19/17/10 20/18/10
g polySurface19 pipeduct geometry props
f 21/15/11 22/16/12 23/17/11 24/18/11
g polySurface20 pipeduct geometry props
f 22/15/12 25/16/13 26/17/13 27/18/13
g polySurface21 pipeduct geometry props
f 28/15/14 13/16/8 16/17/8 29/18/14
g polySurface22 pipeduct geometry props
f 30/17/15 31/16/15 32/15/15 33/18/15
g polySurface23 pipeduct geometry props
f 34/17/16 33/18/16 32/15/16 35/16/16
g polySurface24 pipeduct geometry props
f 36/17/17 37/16/17 38/15/18 39/18/18
g polySurface25 pipeduct geometry props
f 40/17/19 39/18/18 38/15/18 41/16/19
g polySurface26 pipeduct geometry props
f 42/15/20 43/16/21 44/17/21 45/18/20
g polySurface27 pipeduct geometry props
f 46/15/22 47/16/22 48/17/23 49/18/22
g polySurface28 pipeduct geometry props
f 50/15/24 51/16/25 52/17/24 48/18/23
g polySurface29 pipeduct geometry props
f 51/15/25 53/16/26 54/17/26 55/18/26
g polySurface30 pipeduct geometry props
f 56/15/27 42/16/20 45/17/20 57/18/27
g polySurface31 pipeduct geometry props
f 58/17/28 59/18/29 60/15/30 61/16/28
f 62/17/31 63/16/32 60/15/30 59/18/29
f 62/17/31 59/18/29 64/15/33 65/16/34
f 58/17/35 66/16/35 64/15/33 59/18/29
g polySurface32 pipeduct geometry props
f 67/19/36 68/20/36 69/21/36 70/22/36
f 71/23/37 72/24/37 70/25/37 69/26/37
g polySurface33 pipeduct geometry props
f 73/27/38 74/28/38 75/29/38 76/30/38
g polySurface34 pipeduct geometry props
f 77/31/39 78/32/39 79/33/40 80/34/40
f 80/35/40 79/36/40 81/37/41 68/38/41
g polySurface35 pipeduct geometry props
f 82/39/42 80/40/42 83/41/42 84/42/42
g collision_pipe collision props
f 85//43 86//43 87//43 88//43
f 88//44 87//44 89//44 90//44
f 90//45 89//45 91//45 92//45
f 92//46 91//46 86//46 85//46
f 86//47 91//47 89//47 87//47
f 92//48 85//48 88//48 90//48
