v -15.8464695815502 -36.6937755709594 -2.80774617476772
v 0.657308278907668 -36.6937755709594 -2.80774617476772
v 0.657308278907668 -36.6937755709594 10.6006463452569
v -15.8464695815502 -36.6937755709594 10.6006463452569
v -15.8464695815502 -3.73852540071667 10.6006463452569
v 0.657308278907668 -3.73852540071667 10.6006463452569
v 0.657308278907668 12.4389373233793 10.6006463452569
v -15.8464695815502 12.4389373233793 10.6006463452569
v 0.657308278907668 12.4389373233793 -2.80774617476772
v -15.8464695815502 12.4389373233793 -2.80774617476772
v 0.657308278907668 -3.73852540071667 -2.80774617476772
v -15.8464695815502 -3.73852540071667 -2.80774617476772
v 54.340180646867 -3.73852540071667 -2.80774617476772
v 54.340180646867 12.4389373233793 -2.80774617476772
v 54.340180646867 12.4389373233793 10.6006463452569
v 54.340180646867 -3.73852540071667 10.6006463452569
v 54.0557892917635 1.41457836629441 0.613765033496626
v 54.0557892917635 1.41457836629441 5.84541107316403
v 12.1922281771494 1.41457836629441 5.84541107316403
v 12.1922281771494 1.41457836629441 0.613765033496626
v 54.0557892917635 5.94530932717039 8.46123209053198
v 12.1922281771494 5.94530932717039 8.46123209053198
v 54.0557892917635 10.4760402880464 5.84541107316403
v 12.1922281771494 10.4760402880464 5.84541107316403
v 54.0557892917635 10.4760402880464 0.613767035962382
v 12.1922281771494 10.4760402880464 0.613767035962382
v 54.0557892917635 5.94530932717039 -2.002054482022
v 12.1922281771494 5.94530932717039 -2.002054482022
v 4.88454979429586 3.67385635083345 8.19681950344875
v 4.88454979429586 9.06793840771501 8.19682050468162
v -2.47019454369217 9.02603080436855 8.33512280460165
v -1.40738183863967 3.57491852274946 8.33512280460165
v 4.88454979429586 11.7649874460188 3.52541131826584
v -3.00160089621841 11.7516269944932 3.52541131826584
v 4.88454979429586 9.06793840771501 -1.14600187308146
v -2.47019454369217 9.0260468240946 -1.28430417300149
v 4.88454979429586 3.6738723705595 -1.14600187308146
v -1.40738183863967 3.57491852274946 -1.28430317176861
v 4.88454979429586 0.976823332255691 3.5254083145672
v -0.875975486113425 0.849354372076885 3.5254083145672
v -8.0848281789653 6.57238548366645 8.47704856630759
v -4.74042201098629 2.13849376676192 8.47909809000909
v -9.65305523102812 8.86552916907492 3.66803794298646
v -7.87687611511195 6.7247971573049 -1.13892215540029
v -4.53247795699597 2.29090544040038 -1.13687112984947
v -2.96425090493314 -0.00223824500808835 3.67213899285522
v -11.5678049772757 0.952729664276689 8.40859727812938
v -7.12821023789738 -1.07003308486209 8.410645800598
v -14.0654885248889 2.16902736461297 3.59958765604112
v -11.462555377128 1.18807545967531 -1.20737344357851
v -6.36190664230191 -1.00919016532469 -1.20532442049344
v -3.8642150848257 -2.22550388538703 3.60368670344413
v -11.6814328941474 -3.66636610549037 8.0799946499972
v -7.07815660385457 -3.67061133289359 8.40828589470428
v -14.2014719694632 -3.66103153671577 3.37886586806027
v -11.671028082078 -3.65994219534437 -1.1295631310721
v -6.62056113910309 -3.66418742274759 -1.12769783422017
v -4.10053808351336 -3.6695219915222 3.59202334164695
v 10.0331375593262 3.6738723705595 8.06889698477615
v 10.0345553050816 9.06058535345812 8.19257527727841
v 10.0345553050816 11.7576343917619 3.52116508962975
v 10.0345553050816 11.7576343917619 3.52965554443618
v 10.0345553050816 9.06058535345812 -1.14175564444536
v 10.0331375593262 3.67385635083345 -1.01808035564174
v 10.0328411943943 1.09879752639939 3.59583303274818
v -11.6814328941474 -8.82941167328073 7.93173909403581
v -7.07815660385457 -8.83365690068394 8.40828889840292
v -14.2014719694632 -8.82407710450612 3.37886586806027
v -11.671028082078 -8.82298776313473 -1.12956162922278
v -6.62056113910309 -8.82723299053794 -1.12769733360373
v -4.10053808351336 -8.83256755931255 3.59202334164695
v 14.3037642381935 11.7719560268505 6.45347882346905
v 14.3390556946814 11.6141457055333 -0.439008309486991
v 9.70679171010131 11.7286547073377 -0.449750537036306
v 9.6619124475726 11.8355222998164 6.48489350625284
v 14.3446225494837 5.7420670627757 -3.45151779316481
v 9.70556620105849 5.78780338064808 -3.45926908779897
v 14.2873119795403 -0.0172166888647156 0.109861546899369
v 9.65021003769317 -0.110932086256448 0.191424980849398
v 14.2280630227448 -0.0256270450408967 6.77310840254754
v 9.58387235212066 -0.0403331535546763 6.70138808902228
v 14.2436341964653 5.93190081646665 10.0938254006303
v 9.59692041898828 5.96323540062019 10.0575947877028
v -4.6016511340793 -12.3016552551377 0.613765033496626
v -4.6016511340793 -12.3016552551377 5.84541107316403
v -4.60164312421628 -36.1827254497325 5.84541107316403
v -4.6016511340793 -36.1827254497325 0.613765033496626
v -9.13239010481831 -12.3016552551377 8.46123209053198
v -9.13238209495529 -36.1827254497325 8.46123209053198
v -13.6631210656943 -12.3016552551377 5.84541107316403
v -13.6631210656943 -36.1827254497325 5.84541107316403
v -13.6631210656943 -12.3016552551377 0.613767536578821
v -13.6631210656943 -36.1827254497325 0.613767536578821
v -9.13239010481831 -12.3016552551377 -2.002054482022
v -9.13238209495529 -36.1827254497325 -2.002054482022
v -14.8416202224159 -8.3992019302115 6.45347782223617
v -14.6838099010987 -8.36391047372364 -0.43900881010343
v -14.7983189029031 -12.9961744583037 -0.449750036419867
v -14.9051864953818 -13.0410617306954 6.48489450748572
v -8.81173926820414 -8.35833560905828 -3.45151779316481
v -8.85746757621349 -12.9974079772095 -3.45926933810719
v -3.05245551656372 -8.41565418886472 0.10986104628293
v -2.95873210930896 -13.0527561307118 0.191424480232959
v -3.04404516038754 -8.47491115552318 6.77310840254754
v -3.02933104201073 -13.1190938162843 6.70138808902228
v -9.00155700216903 -8.45933998180271 10.0938254006303
v -9.0328995961856 -13.1060537592797 10.0575937864699
vt 0.66549551486969 0.871444761753082
vt 0.515167713165283 0.871444761753082
vt 0.515167713165283 0.343666911125183
vt 0.66549551486969 0.343666911125183
vt 0.35061126947403 0.871444761753082
vt 0.350611209869385 0.343667030334473
vt 0.172743797302246 0.871444761753082
vt 0.172743797302246 0.343667030334473
vt 0.00173303484916687 0.871444761753082
vt 0.00173309445381165 0.343666911125183
vt 0.997773051261902 0.871444761753082
vt 0.833216428756714 0.871444761753082
vt 0.833216369152069 0.343666911125183
vt 0.997773051261902 0.343666911125183
vt 0.540229797363281 0.99011218547821
vt 0.334810972213745 0.990112662315369
vt 0.334810972213745 0.836605191230774
vt 0.540229797363281 0.836605131626129
vt 0.334810972213745 0.9901123046875
vt 0.161446183919907 0.990113079547882
vt 0.161446183919907 0.836605191230774
vt 0.334810972213745 0.836605131626129
vt 0.00105905532836914 0.990112841129303
vt 0.00105905532836914 0.836605131626129
vt 1.0024573802948 0.9901123046875
vt 0.843690752983093 0.99011218547821
vt 0.843690752983093 0.836605191230774
vt 1.0024573802948 0.836605131626129
vt 0.843690752983093 0.990112841129303
vt 0.678381383419037 0.990113615989685
vt 0.678381383419037 0.836605191230774
vt 0.843690752983093 0.836605131626129
vt 0.540229797363281 0.990113079547882
vt 0.334810972213745 0.664162635803223
vt 0.540229797363281 0.664162635803223
vt 0.161446183919907 0.664162635803223
vt 0.00105905532836914 0.664162635803223
vt 0.161446154117584 0.664162635803223
vt 0.843690752983093 0.664162635803223
vt 1.0024573802948 0.664162635803223
vt 0.678381443023682 0.664162635803223
vt 0.334810972213745 0.499735534191132
vt 0.540229797363281 0.499735534191132
vt 0.161446183919907 0.499735534191132
vt 0.00105905532836914 0.499735534191132
vt 1.00026607513428 0.664162397384644
vt 0.843690752983093 0.499735534191132
vt 1.00026607513428 0.499735534191132
vt 0.678381383419037 0.499735534191132
vt 0.540229797363281 0.338994085788727
vt 0.334810972213745 0.338994026184082
vt 0.334810972213745 0.499735504388809
vt 0.540229797363281 0.499735414981842
vt 0.161446094512939 0.338994145393372
vt 0.161446094512939 0.499735504388809
vt 0.161446094512939 0.338994204998016
vt 0.00376415252685547 0.338994026184082
vt 0.00376415252685547 0.499735534191132
vt 1.00026607513428 0.338993489742279
vt 0.843690752983093 0.338994026184082
vt 0.843690752983093 0.499735504388809
vt 0.843690872192383 0.338994145393372
vt 0.678381443023682 0.338994145393372
vt 0.678381443023682 0.499735504388809
vt 0.843690872192383 0.499735414981842
vt 0.678381443023682 0.338994085788727
vt 0.678381443023682 0.499735534191132
vt 0.377886712551117 -0.00114705413579941
vt 0.869849145412445 -0.00114705413579941
vt 0.869849145412445 0.185722410678864
vt 0.377886712551117 0.185722410678864
vt -0.642709672451019 -0.999965608119965
vt -0.157226085662842 -0.999965608119965
vt -0.157226085662842 -0.815318822860718
vt -0.642709672451019 -0.815318822860718
vt 0.755227386951447 0.834698021411896
vt -0.0129692554473877 0.834698021411896
vt -0.0129692554473877 1.00292253494263
vt 0.755227386951447 1.00292253494263
vt -0.0129691958427429 0.834698021411896
vt 0.755227506160736 0.834698021411896
vt 0.755227506160736 1.00292265415192
vt -0.0129691958427429 1.00292265415192
vt 0.755227327346802 0.834698021411896
vt 0.755227327346802 1.00292265415192
vt -0.0129692554473877 1.00292265415192
vt -0.0129687190055847 0.834698021411896
vt 0.75522792339325 0.834698021411896
vt 0.75522792339325 1.00292265415192
vt -0.0129687190055847 1.00292265415192
vt -0.0129689034074545 0.834698021411896
vt 0.75522792339325 1.00292277336121
vt -0.0129689034074545 1.00292277336121
vt -0.0129690319299698 0.834698021411896
vt 0.755227565765381 0.834698021411896
vt 0.755227565765381 1.00292277336121
vt -0.0129690319299698 1.00292277336121
vt 0.334544897079468 0.216710969805717
vt 0.655806601047516 0.0312305241823196
vt 0.977068424224854 0.216710969805717
vt 0.977068424224854 0.587672233581543
vt 0.655806601047516 0.773152828216553
vt 0.334544897079468 0.587671995162964
vt 0.979684948921204 0.216710969805717
vt 0.979684948921204 0.587672233581543
vt 0.658423244953156 0.773153126239777
vt 0.337161540985107 0.587672472000122
vt 0.337161540985107 0.216711312532425
vt 0.658423244953156 0.0312305241823196
vn 0 -1 0
vn 0 0 1
vn 0 1 0
vn 0 0 -1
vn 1 0 0
vn -1 0 0
vn 0 -0.866025435883192 -0.499999944403325
vn 0 -0.866025498035768 0.499999836751873
vn 7.16353462692834e-10 -0.499999939675357 0.866025438612885
vn -1.04648203460052e-09 0.499999891514045 0.866025466418825
vn 0 0.866025498035768 0.499999836751873
vn 0 0.866025518753287 -0.499999800868061
vn -1.6059115646232e-09 0.499999980921019 -0.866025414799693
vn 2.33571674598837e-09 -0.499999747030122 -0.866025549836617
vn 0.016534444868523 -0.00474431255702864 0.999852040869673
vn 0.0131375257979338 0.324131677473533 0.945920747776526
vn 0.0234614512324683 0.00704276565013995 0.999699934859488
vn 0.00135676400170241 0.868083295348391 0.496416711572567
vn 0.00173338615164733 0.999998497684982 4.78814259324665e-07
vn -0.12851838905823 0.97356609854374 0.188817571852298
vn -0.170789324781685 0.847892553713413 0.50190559261475
vn 0.00150315611959237 0.867055720997287 -0.498208909201306
vn -0.17962270346762 0.84672721348316 -0.500788089261343
vn 0.0165343539101914 -0.00474413403130411 -0.999852043220929
vn -0.00428777577918014 -0.0055376500621388 -0.999975474404576
vn 0.0209034664457195 -0.86837413673582 -0.495468872623571
vn 0.0221416284938087 -0.999753461312865 0.0016627930080742
vn 0.133613181737485 -0.973078163276698 -0.187793519110839
vn 0.165782519389538 -0.85006444833763 -0.499906581210228
vn 0.0175254375021998 -0.866793760770993 0.498358741599699
vn 0.194640911589105 -0.843552340557347 0.500534079035567
vn 0.00902636268597326 0.00116694585600057 0.999958580649234
vn 0.275761780369387 -0.166957769627167 0.946615309219446
vn -0.55883612689779 0.8071713538289 0.190201442770284
vn -0.55791782310554 0.658221854497866 0.505442076723501
vn -0.354634360668425 0.797234288292273 -0.488520173385307
vn -0.558295841463435 0.659367498030512 -0.503527810498702
vn -0.0100701925649188 -0.00135508353444015 -0.999948376152649
vn 0.581150939486361 -0.791291937498429 -0.190054347974735
vn 0.581882124081255 -0.632453040458435 -0.5112889058933
vn 0.361369679918091 -0.79416588382227 0.488582135785468
vn -0.0276312829004501 -0.0275605058607233 0.999238175172454
vn 0.432877345803099 -0.157033671431193 0.88766977504436
vn -0.912656736369776 0.367339507134386 0.179218771497672
vn -0.83795618883708 0.240044464308161 0.490110274065586
vn -0.728062913859318 0.481470190606426 -0.487966032649907
vn -0.823976313226159 0.265508299471237 -0.500568055467104
vn 0.00224450345381512 -0.00510168096350173 -0.999984467407166
vn 0.841682220186424 -0.249221248019469 -0.479019634000185
vn 0.719050046843596 -0.448604023613179 0.530774396643516
vn 0.795733158323564 -0.250216368132667 0.551543751540079
vn -0.542150576357473 -0.0199777761642857 0.840043832793736
vn 0.266221507964133 -0.0379173686676209 0.963165812231013
vn -0.999939215578629 0.00696229923194621 -0.0085493588883726
vn -0.873748909824739 0.0346785463810439 -0.485139403677931
vn -0.87302485507422 0.0173418913167808 -0.487367275499899
vn -0.00184132496217129 -0.0102305740879438 -0.99994597097854
vn 0.879030222877672 -0.0566226541953634 -0.473391742956616
vn 0.843565595101431 -0.0202064698323631 0.5366458658539
vn 0.0148921263649702 -0.505167295600001 0.862892941232289
vn 0.0128234997754684 -0.0114721747864239 0.999851962572049
vn 0.00164869420715462 0.866023472342705 0.500000627158502
vn 0.00164864560374303 0.866023588423011 -0.500000426262423
vn 0.0128234644111906 -0.011471803403269 -0.999851967286744
vn 0.0188152538444787 -0.507946001674499 -0.861183398356969
vn 0.0189275748136267 -0.999815326880879 0.00332551435952615
vn -0.547708560134845 -0.0120109704986049 0.836582972419769
vn -0.0870924954732386 -0.0143010560062642 0.996097574050529
vn -0.99997195991339 -0.00392337864722406 -0.00637859600253622
vn -0.872034290221586 7.46878432128669e-08 -0.489444784094927
vn 0.000369445766855429 0 -0.99999993175491
vn 0.999499185526867 7.50645318893001e-08 0.0316445592657669
vn 0.8821327455361 5.72040216667698e-09 -0.471000869694465
vn 0.850571572801614 -5.84168224918573e-09 0.525859296334855
vn 0.0138583222190759 0.877517993897281 0.47934342312351
vn 0.0191566592109919 0.999635489868409 -0.0190239271292539
vn 0.00962608495720776 0.45415416447478 -0.890871109296183
vn 0.00320206831392754 -0.041264052685874 -0.9991431452572
vn 0.00437906269799307 -0.874676754117766 -0.484686908855497
vn 0.0116823713143767 -0.999920084456673 0.0048318630602143
vn -0.0110138142710585 -0.487369687379084 0.873126270203352
vn 0.00491744469176014 0.524341000409497 0.851494177330222
vn 0.999959548292345 -0.0051714943528344 0.00735917285626898
vn -0.999951972725643 0.00538543293379315 -0.008188367005164
vn 0.866025148812831 1.45235175019778e-07 -0.500000441623497
vn 0.999999999999955 2.16164819377686e-09 -3.00369720207514e-07
vn 0.499999939675357 7.16353629226299e-10 0.866025438612885
vn -1.91380106505356e-07 4.84116690726293e-08 0.999999999999981
vn -0.499999891514045 -1.04648214562282e-09 0.866025466418825
vn -1 -5.79655923260702e-09 0
vn -0.866025443780634 -4.84117504398061e-08 -0.49999993072455
vn -2.07175189247484e-07 -0 -0.999999999999979
vn -0.877517898175405 0.0138586193870877 0.47934358976678
vn -0.999635593866558 0.0191518302230688 -0.0190233244770982
vn -0.454153688906681 0.00962612067400483 -0.890871351348343
vn 0.0412638876208503 0.00320233316066491 -0.99914315122546
vn 0.874676741197595 0.00438059539802506 -0.484686918321419
vn 0.999920028910544 0.0116875946803238 0.00483072604532931
vn 0.4873718131753 -0.0110170855558236 0.873125042332469
vn -0.524339281059967 0.00491629655044982 0.851495242714688
vn 0.00517148379153821 0.999959546650453 0.00735940337350212
vn -0.00538513383467085 -0.999951978622312 -0.00818784360536171
g collision_pipes collision props
f 1//1 2//1 3//1 4//1
f 5//2 6//2 7//2 8//2
f 8//3 7//3 9//3 10//3
f 10//4 9//4 11//4 12//4
f 13//5 14//5 15//5 16//5
f 10//6 12//6 5//6 8//6
f 11//4 9//4 14//4 13//4
f 9//3 7//3 15//3 14//3
f 7//2 6//2 16//2 15//2
f 6//1 11//1 13//1 16//1
f 12//4 11//4 2//4 1//4
f 11//5 6//5 3//5 2//5
f 6//2 5//2 4//2 3//2
f 5//6 12//6 1//6 4//6
g LargeStraightPipe4 LargePipe3 geometry props
f 17/1/7 18/2/8 19/3/8 20/4/7
f 18/2/8 21/5/9 22/6/9 19/3/8
f 21/5/10 23/7/11 24/8/11 22/6/10
f 23/7/11 25/9/12 26/10/12 24/8/11
f 25/11/12 27/12/13 28/13/13 26/14/12
f 27/12/14 17/1/7 20/4/7 28/13/14
g LargePipeElbow3 LargePipe3 geometry props
f 29/15/15 30/16/16 31/17/17 32/18/17
f 30/19/18 33/20/19 34/21/20 31/22/21
f 33/20/19 35/23/22 36/24/23 34/21/20
f 35/25/24 37/26/24 38/27/25 36/28/25
f 37/29/26 39/30/27 40/31/28 38/32/29
f 39/30/27 29/33/30 32/18/31 40/31/28
f 32/18/17 31/17/17 41/34/32 42/35/33
f 31/22/21 34/21/20 43/36/34 41/34/35
f 34/21/36 36/24/23 44/37/37 43/38/34
f 36/28/25 38/27/25 45/39/38 44/40/38
f 38/32/29 40/31/28 46/41/39 45/39/40
f 40/31/41 32/18/31 42/35/41 46/41/39
f 42/35/33 41/34/32 47/42/42 48/43/43
f 41/34/35 43/36/34 49/44/44 47/42/45
f 43/38/46 44/37/37 50/45/47 49/44/44
f 44/46/38 45/39/38 51/47/48 50/48/48
f 45/39/40 46/41/39 52/49/49 51/47/49
f 46/41/50 42/35/33 48/43/43 52/49/51
f 48/50/43 47/51/42 53/52/52 54/53/53
f 47/51/45 49/54/44 55/55/54 53/52/52
f 49/56/55 50/57/47 56/58/56 55/55/54
f 50/59/48 51/60/48 57/61/57 56/48/57
f 51/62/49 52/63/49 58/64/58 57/65/58
f 52/66/51 48/50/43 54/53/53 58/67/59
f 30/68/16 29/69/15 59/70/60 60/71/61
f 33/68/19 30/69/16 60/70/62 61/71/62
f 35/68/22 33/69/19 62/70/63 63/71/63
f 37/68/24 35/69/24 63/70/64 64/71/65
f 39/68/27 37/69/26 64/70/65 65/71/66
f 29/68/30 39/69/27 65/70/66 59/71/60
f 54/72/53 53/73/52 66/74/67 67/75/68
f 53/72/52 55/73/54 68/74/69 66/75/67
f 55/72/54 56/73/56 69/74/70 68/75/69
f 56/72/57 57/73/57 70/74/71 69/75/71
f 57/72/58 58/73/58 71/74/72 70/75/73
f 58/72/59 54/73/74 67/74/74 71/75/72
g new_End7 LargePipe3 geometry props
f 72/76/75 73/77/76 74/78/76 75/79/75
f 73/80/77 76/81/78 77/82/78 74/83/77
f 76/77/78 78/84/79 79/85/79 77/86/78
f 78/87/79 80/88/80 81/89/80 79/90/79
f 80/91/81 82/88/81 83/92/81 81/93/81
f 82/94/82 72/95/75 75/96/75 83/97/82
f 72/98/83 82/99/83 80/100/83 78/101/83 76/102/83 73/103/83
f 75/104/84 74/105/84 77/106/84 79/107/84 81/108/84 83/109/84
g LargeStraightPipe3 LargePipe3 geometry props
f 84/1/85 85/2/86 86/3/86 87/4/85
f 85/2/87 88/5/88 89/6/88 86/3/87
f 88/5/88 90/7/89 91/8/89 89/6/88
f 90/7/90 92/9/91 93/10/91 91/8/90
f 92/11/91 94/12/92 95/13/92 93/14/91
f 94/12/92 84/1/85 87/4/85 95/13/92
g new_End8 LargePipe3 geometry props
f 96/76/93 97/77/94 98/78/94 99/79/93
f 97/80/95 100/81/96 101/82/96 98/83/95
f 100/77/96 102/84/97 103/85/97 101/86/96
f 102/87/97 104/88/98 105/89/98 103/90/97
f 104/91/99 106/88/99 107/92/99 105/93/99
f 106/94/100 96/95/93 99/96/93 107/97/100
f 96/98/101 106/99/101 104/100/101 102/101/101 100/102/101 97/103/101
f 99/104/102 98/105/102 101/106/102 103/107/102 105/108/102 107/109/102
