v -40 0 10
v -36.0704463036017 -3.30970579839349 29.5788491103981
v -33.5088112491838 -0.42417406335683 29.5788491103981
v -35.7801536719004 4 10
v -26.4911887508162 -0.42417406335683 29.5788491103981
v -24.2198463280996 4 10
v -23.9295536963983 -3.30970579839349 29.5788491103981
v -20 0 10
v -20 -6.61941159678699 10
v -40 -6.61941159678699 10
v -26.4911887508162 -6.19523753343016 29.5788491103981
v -24.2198463280996 -10.619411596787 10
v -35.7801536719004 -10.619411596787 10
v -33.5088112491838 -6.19523753343016 29.5788491103981
v -24.5904205791117 -3.30970579839349 30
v -24.5904205791117 -3.30970579839349 34.3081210958583
v -26.8731799646915 -6.09052516867521 34.3081210958583
v -26.8731799646915 -6.09052516867521 30
v -33.1268200353085 -6.09052516867521 30
v -33.1268200353085 -6.09052516867521 34.3081210958583
v -35.4095794208883 -3.30970579839349 34.3081210958583
v -35.4095794208883 -3.30970579839349 30
v -33.1268200353085 -0.52888642811178 34.3081210958583
v -33.1268200353085 -0.52888642811178 30
v -26.8731799646915 -0.52888642811178 34.3081210958583
v -26.8731799646915 -0.52888642811178 30
v -23.9295536963983 -3.30970579839349 34.7870832838679
v -28.0444561269389 -3.30970579839349 38.7819564162226
v -28.8696655901563 -5.14616544001101 38.7819564162226
v -26.4911887508162 -6.19523753343016 34.7870832838679
v -33.5088112491838 -6.19523753343016 34.7870832838679
v -31.1303344098437 -5.14616544001101 38.7819564162226
v -31.9555438730611 -3.30970579839349 38.7819564162226
v -36.0704463036017 -3.30970579839349 34.7870832838679
v -31.1303344098437 -1.47324615677598 38.7819564162226
v -33.5088112491838 -0.42417406335683 34.7870832838679
v -28.8696655901563 -1.47324615677598 38.7819564162226
v -26.4911887508162 -0.42417406335683 34.7870832838679
v -20 0 0
v -24.2198463280996 4 0
v -35.7801536719004 4 0
v -40 0 0
v 0 0 10
v 0 0 0
v -60 0 0
v -60 0 10
v -40 0 15
v -35.7801536719004 4 15
v -24.2198463280996 4 15
v -20 0 15
v -60 0 15
v 0 0 15
vt 1.75775492191315 0
vt 1.88565099239349 1
vt 1.6102569103241 1
vt 1.52482974529266 0
vt 0.903944551944733 1
vt 0.989371776580811 0
vt 0.628550350666046 1
vt 0.756446540355682 0
vt 0.50065416097641 0
vt 2.01354718208313 0
vt 0.35315614938736 1
vt 0.267728924751282 0
vt 2.24647259712219 0
vt 2.16104507446289 1
vt 1 0
vt 1 1
vt 0 1
vt 0 0
vt 0.998720645904541 0.00563038373365998
vt 0.677697241306305 0.97365415096283
vt 0.336235284805298 0.982571184635162
vt -0.00402707234025002 -0.00493755144998431
vt 0.982464373111725 0.00441723968833685
vt 0.665747582912445 0.978386700153351
vt 0.330549359321594 0.986305892467499
vt 0.00485078385099769 -0.000650906120426953
vt 0.9954873919487 0.0162277333438396
vt 0.688462436199188 0.988649785518646
vt 0.331139385700226 0.982661724090576
vt 0.00943353120237589 -0.00812505930662155
vt 0.98742550611496 0.0126095535233617
vt 0.663221120834351 0.990086317062378
vt 0.352179288864136 0.996196389198303
vt 0.0101606985554099 0.0101823313161731
vt 0.981271922588348 0.00113671214785427
vt 0.695744216442108 0.977090775966644
vt 0.32879501581192 0.984596967697144
vt 0.0902721658349037 0.0109986802563071
vt 0.0497457534074783 0.837024927139282
vt 0.945566833019257 0.545902252197266
vt 0.054433137178421 0.545902252197266
vt 1.04542982578278 1.26036548614502
vt 0.113706968724728 1.46769416332245
vt 1.04542982578278 1.24342095851898
vt 0.113706968724728 1.48552429676056
vt 0.0517816506326199 0.854929685592651
vt 0.108866274356842 1
vt 0.955129027366638 0.736318528652191
vt -0.1165486946702 0.846559047698975
vt -0.0535730831325054 0.844660580158234
vt 0.0619675293564796 1.13888728618622
vt 0.296365320682526 0.991626620292664
vt 0.297605901956558 0.00104857154656202
vt 0.391143471002579 0.00484909303486347
vt 0.390054255723953 0.995427131652832
vt 0.609049320220947 0.00648953299969435
vt 0.609751641750336 0.99706757068634
vt 0.702458560466766 0.00388662749901414
vt 0.703572154045105 0.994464635848999
vt 1.40986621379852 -0.0122636025771499
vt 1.42513048648834 0.997625172138214
vt -0.0267435666173697 1.00829839706421
vt -0.0420078299939632 -0.00159038661513478
vt 1.40009546279907 -0.00114628544542938
vt 1.43105041980743 0.995981931686401
vt 0.0262161884456873 0.999543726444244
vt -0.00473881838843226 0.00241552502848208
vn -0.69420257765805 0.708008446238905 0.129641124753259
vn -0.805703198324135 0.415107692126263 0.422525691701542
vn -0.339037059103432 0.854364999069364 0.39384555465271
vn -0.374561899598108 0.918586623960387 0.126103123079946
vn 0.339037059103433 0.854364999069365 0.393845554652709
vn 0.374561899598107 0.918586623960387 0.126103123079946
vn 0.805703198324136 0.415107692126264 0.422525691701541
vn 0.69420257765805 0.708008446238905 0.129641124753259
vn 0.89974519861424 -0.366335870784668 0.237184753614269
vn -0.89974519861424 -0.366335870784668 0.237184753614269
vn 0.635438698188048 -0.589930465409581 0.498196454048715
vn 0.690966273924952 -0.680524773232288 0.243827072564578
vn -0.690966273924952 -0.680524773232287 0.243827072564578
vn -0.635438698188047 -0.589930465409581 0.498196454048717
vn 0.707640317943911 -0.590716063725292 0.387685068679641
vn 0.716650195919741 -0.598601930361822 -0.357894154262537
vn -0.707640317943908 -0.590716063725294 0.387685068679643
vn -0.716650195919749 -0.598601930361807 -0.357894154262549
vn -0.707640317943907 0.590716063725295 0.387685068679644
vn -0.716650195919748 0.598601930361807 -0.357894154262549
vn -0.38399918478086 0.887980923287706 -0.253050402024475
vn -0.376968050358767 0.884071433479602 0.27624769594339
vn 0.282941083262854 0.955945442530181 -0.0781834656933239
vn 0.283343028528753 0.954930863471144 0.0884521010175011
vn 0.716650195919741 0.598601930361823 -0.357894154262537
vn 0.707640317943909 0.590716063725293 0.387685068679642
vn 0.740750806508638 0 0.671779906410427
vn 0.654154337985608 -0.469191672870821 0.593246387433832
vn -0.654154337985611 -0.469191672870812 0.593246387433835
vn -0.740750806508638 0 0.671779906410427
vn -0.365171898333381 0.80184763142149 0.472958624671696
vn 0.365171898333378 0.801847631421493 0.472958624671693
vn 0.253602031123699 0.935595367658829 0.245656910803005
vn 0.531621325539474 0.454504732544828 0.71470568370904
vn -0.64584631595096 0 -0.76346744277184
vn -0.31459187943047 0.812539792933156 -0.490725008835445
vn 0.565384278046219 0.483370056341663 -0.668351708885683
vn 0.645846315950963 0 -0.763467442771837
vn 0.565384278046219 -0.483370056341663 -0.668351708885683
vn -0.56538427804623 -0.483370056341625 -0.668351708885701
vn 0.442951556706431 0.896545547315556 0
vn 0.370297596933421 0.928913176623808 0
vn -0.370297596933422 0.928913176623808 0
vn -0.442951556706431 0.896545547315556 0
vn 0 1 0
vn -0.489428197231077 0.872043599687044 0
vn 0.489428197231077 0.872043599687045 0
g lighthouse_walls lighthouse DD_lighthouse
f 1/1/1 2/2/2 3/3/3 4/4/4
f 4/4/4 3/3/3 5/5/5 6/6/6
f 6/6/6 5/5/5 7/7/7 8/8/8
f 9/9/9 8/8/8 7/7/7
f 1/1/1 10/10/10 2/2/2
f 9/9/9 7/7/11 11/11/11 12/12/12
f 13/13/13 14/14/14 2/2/14 10/10/10
g lighthouse_windows lighthouse DD_lighthouse
f 15/15/15 16/16/16 17/17/16 18/18/15
f 19/15/17 20/16/18 21/17/18 22/18/17
f 22/18/19 21/17/20 23/16/21 24/15/22
f 24/15/22 23/16/21 25/17/23 26/18/24
f 26/18/24 25/17/23 16/16/25 15/15/26
g lighthouse_roof lighthouse DD_lighthouse
f 27/19/27 28/20/27 29/21/28 30/22/28
f 31/23/29 32/24/29 33/25/30 34/26/30
f 34/27/30 33/28/30 35/29/31 36/30/31
f 36/31/31 35/32/31 37/33/32 38/34/33
f 38/35/33 37/36/32 28/37/27 27/38/27
g lighthouse_window_lower_frame lighthouse DD_lighthouse
f 3/18/3 2/15/2 22/16/19 24/39/22
f 3/15/3 24/40/22 26/41/24 5/18/5
f 5/15/5 26/42/34 15/43/26 7/18/7
f 7/15/11 15/16/15 18/39/15 11/18/11
f 19/44/17 22/45/17 2/18/14 14/15/14
g lighthouse_window_upper_frame lighthouse DD_lighthouse
f 21/16/20 34/15/35 36/18/36 23/46/21
f 25/47/23 23/16/21 36/15/36 38/18/33
f 16/18/25 25/15/37 38/48/37 27/49/38
f 27/16/38 30/50/39 17/18/16 16/15/16
f 20/16/18 31/15/40 34/18/35 21/51/18
g lighthouse_base lighthouse DD_lighthouse
f 8/52/8 39/53/41 40/54/42 6/55/6
f 6/55/6 40/54/42 41/56/43 4/57/4
f 4/57/4 41/56/43 42/58/44 1/59/1
g fence_left_wall fence_walls DD_lighthouse
f 39/60/41 8/61/8 43/62/45 44/63/45
g fence_right_wall fence_walls DD_lighthouse
f 45/64/45 46/65/45 1/66/1 42/67/44
g DD_lighthouse_camera_collision DD_lighthouse_collisions DD_lighthouse
f 42//44 47//46 48//43 41//43
f 42//44 47//46 48//43 41//43
f 48//43 49//42 40//42 41//43
f 48//43 49//42 40//42 41//43
f 49//42 50//47 39//41 40//42
f 49//42 50//47 39//41 40//42
f 45//45 51//45 47//46 42//44
f 39//41 50//47 52//45 44//45
