v -5.63175192056388 8.12140046118293 3.36169213560035
v 1.86674429972743 8.12140046118293 3.36217577866565
v 1.88228593697071 8.12140046118293 4.40382999470591
v -5.6309662966699 8.12140046118293 4.39032716023145
v 4.11483855106127 8.12140046118293 4.89977626768717
v 4.07311364059755 8.12140046118293 2.74945102280324
v 7.13355761669197 8.12140046118293 2.74504075959809
v 7.14699962371393 8.12140046118293 4.98911927690445
v 4.74945853420541 2.10406060803541 -0.0108549293994829
v 4.80113876583412 3.03171407938249 3.98312216423044
v 0.106437306937852 3.03171407938249 3.98312216423044
v 0.0547570753091448 2.10406060803541 -0.0108549293994829
v -4.75188720657693 8.06948368251324 2.07544301583985
v -2.22129584660236 8.06948368251324 2.04144780299752
v -2.17506289468814 8.06948368251324 5.42771453414682
v -4.72411214430773 8.06948368251324 5.42893449346934
v 4.20675147462249 8.06948368251324 2.07544293003863
v 6.73734296477415 8.06948368251324 2.04144771544754
v 6.78357591906666 8.06948368251324 5.42771462079105
v 4.23452653832047 8.06948368251324 5.42893458017632
v 3.83719453698054 2.16193712433741 0.0110655926644445
v 3.87988231304559 3.08552897188647 6.61217548942135
v 0.574289571864435 3.08552897188647 6.61217548942135
v 0.531601795799388 2.16193712433741 0.0110655926644445
v 0.0902912987968041 8.06948368251324 4.19031865803166
v 0.0902912987968041 8.06948368251324 5.19089222637098
v -1.87874891039171 8.06948368251324 5.19089222637098
v -1.87874891039171 8.06948368251324 4.19031865803166
v 7.36947694035725 8.06948368251324 1.75080686043021
v 7.36947694035725 8.06948368251324 5.1248183772479
v 5.30288439988805 8.06948368251324 5.1248183772479
v 5.30288439988805 8.06948368251324 1.75080686043021
v -2.89405976703899 8.06948368065059 2.747478339425
v -2.89405976703899 8.06948368065059 5.07188484391592
v -5.21846627152991 8.06948368065059 5.07188484391592
v -5.21846627152991 8.06948368065059 2.747478339425
v 4.64662124712753 1.624349242189 0.020038189973171
v 4.50932260296919 3 4.88741968337055
v 0.0172908899989413 3 4.88741968337055
v 0.15458953415728 1.624349242189 0.020038189973171
v -2.46579669446532 -3.1585088085019 0.528506876783821
v -2.46629326492139 -3.2086238264604 -0.000493483219572328
v -2.25558796033787 -3.00431403424044 -0.000493483219572523
v -2.3067367386635 -3.00427678010272 0.528506876783821
v -2.62110096632177 -3.00576431108932 0.528506876783816
v -2.65132328990087 -2.98558439468557 -0.000493483219579517
v -2.46343492724341 -2.84809827201097 0.528506876783816
v -2.48386481153384 -2.81812591631854 -0.00049348321957967
v -3.0009598015733 -3.68258045238098 0.528506876783822
v -3.04666196820245 -3.77652894657566 -0.000493483219571621
v -2.83130356154553 -3.54385832491367 -0.000493483219571867
v -2.84189984577149 -3.5283484239818 0.528506876783821
v -3.15626407342975 -3.52983595496841 0.528506876783816
v -3.20718655559241 -3.53035619714821 -0.000493483219578789
v -2.9985980343514 -3.37216991589005 0.528506876783816
v -2.99832776005826 -3.32149740161406 -0.000493483219579073
v -3.55214935300651 -3.15914707591075 0.528506876783823
v -3.54033989742537 -3.19732959113663 -0.000493483219571191
v -3.35424664491628 -3.01688480438189 -0.000493483219571416
v -3.3930893972047 -3.00491504751156 0.528506876783822
v -3.70745362486296 -3.00640257849817 0.528506876783817
v -3.75837610702562 -3.00692282067798 -0.000493483219578348
v -3.54978758578461 -2.84873653941981 0.528506876783817
v -3.54951731149147 -2.79806402514382 -0.000493483219578556
v -3.00373266096807 -2.60393564695747 0.528506876783821
v -3.00422923142414 -2.65405066491597 -0.000493483219571815
v -2.81802516516021 -2.42532089131759 -0.000493483219572897
v -2.84467270516626 -2.44970361855829 0.528506876783822
v -3.15903693282452 -2.4511911495449 0.528506876783816
v -3.20995941498718 -2.4517113917247 -0.000493483219578962
v -3.00137089374617 -2.29352511046654 0.528506876783816
v -2.97659938113345 -2.26727257756896 -0.000493483219578407
v -3.00137089374617 -2.24285431472541 0.528506876783816
v -2.24359331681849 -3.00063189165309 0.528506876783816
v -3.00137089374617 -3.75840946858077 0.528506876783816
v -3.75914847067384 -3.00063189165309 0.528506876783817
v -3.67539816478386 -3.03371140180194 0.846814779760739
v -3.00137089374616 -3.70773867283963 0.846814779760739
v -2.28473996378988 -2.99110774288335 0.846814779760738
v -2.95876723482758 -2.31708047184566 0.846814779760739
v -4.23770972577372 -3.00000000000001 0.0175469943972708
v -2.99999999999999 -4.23770972577372 0.0175469943972697
v -1.76229027422628 -3.00000000000001 0.0175469943972682
v -3 -1.76229027422629 0.0175469943972693
v -6.50227261251928 8.26948368549347 8.44956087341579
v 8.32890128427027 8.26948368549347 8.44956087341579
v 8.32890128427027 -5 8.44956087341579
v -6.50227261251928 -5 8.44956087341579
v 8.32890128427027 -5 -0.000607767791893643
v 8.32890128427027 8.26948368549347 -0.000607767791893643
v -6.50227261251928 8.26948368549347 -0.000607767791893643
v -6.50227261251928 -5 -0.000607767791893643
vt 0 0
vt 1 0
vt 1.00126910209656 1.01415205001831
vt -0.000688699830789119 1.00147747993469
vt 0.00942485313862562 0.958240449428558
vt 1 1
vt 0 1
vt -0.00711576920002699 0.990249693393707
vt 1.00316035747528 0.990698039531708
vt -0.00398621475324035 0.981038451194763
vt 0.601942896842957 0.986850142478943
vt 0.623170495033264 -0.0141406264156103
vt -0.00746960705146194 -0.00320568424649537
vt -0.0286972038447857 0.997785091400146
vt -0.00529604824259877 0.986441850662231
vt 0.000471226871013641 -0.0112967723980546
vt 0.420803219079971 -0.00892201531678439
vt 0.415035933256149 0.988816618919373
vt 0.693629503250122 0.983826160430908
vt 0.705905139446259 -0.00633087567985058
vt -0.00980764627456665 -0.0082739032804966
vt -0.0220832880586386 0.981883108615875
vt 0.506395399570465 0.98336136341095
vt 0.526925146579742 -0.0153337642550468
vt 0.0105312569066882 -0.0119485752657056
vt -0.00999844446778297 0.986746549606323
vt -0.00602716067805886 0.284595340490341
vt 0.993972837924957 0.284595340490341
vt -0.00425907829776406 -0.885919690132141
vt 0.995579719543457 -0.88160240650177
vt 0.999897062778473 0.00275748665444553
vt 5.82346110604703e-05 -0.00155982619617134
vt 2.71223402023315 0
vt 2.71223402023315 1.77170121669769
vt 0 1.77170121669769
vn 0 -1 0
vn 0 -0.974071396079442 0.226240834819551
vn 0 -0.990353352197865 0.138564922655236
vn 0 -0.962304931405024 0.271972827675069
vn 0.6945535102048 -0.716295128721495 0.0672064731409685
vn -0.740595172854426 -0.670731018057476 0.0404807529611843
vn -0.705507453780028 0.705507453780026 0.0672195308050148
vn 0.664001787111311 0.746638530106713 0.0404046046023423
vn 0.717775523999334 -0.694614876032225 0.0480465518244425
vn -0.777777267283396 -0.615778106912545 0.126015259172747
vn 0.759661828317982 0.649653695368958 0.0293935824635142
vn -0.675801259796287 -0.735255822502363 0.0518799839449277
vn 0.728158765351357 0.683439184209609 0.0519200725046906
vn 0.742271503304923 -0.669204195716318 0.0346231110260958
vn -0.699581670994036 -0.711305636918505 0.0680424609868828
vn -0.658064438679674 0.75216808753397 0.0345595520904981
vn 0.70429499790639 0.706638523739712 0.0680481644939742
vn -5.16315937908508e-14 -9.54097911787243e-18 -1
vn -0.70266924021429 -0.702669240214292 0.111856505011299
vn 0.702669240214292 -0.702669240214289 0.111856505011299
vn 0.705368504980895 0.705368504980897 0.0700752763964013
vn -0.68443176425667 0.684431764256668 0.251209713492547
vn 5.16315937908508e-14 -1.20563281580388e-16 1
vn -1 0 0
vn 1 0 0
g hanging_on_wall drafting_table g1
f 1/1/1 2/2/1 3/3/1 4/4/1
f 5/5/1 6/1/1 7/2/1 8/6/1
g o11 prop_drafting_table drafting_table g1
f 9/2/2 10/6/2 11/7/2 12/1/2
g easel g1
f 13/1/1 14/2/1 15/6/1 16/8/1
f 17/1/1 18/2/1 19/9/1 20/10/1
g o10 prop_easel easel g1
f 21/2/3 22/6/3 23/7/3 24/1/3
g sewing_machine g1
f 25/2/1 26/6/1 27/7/1 28/1/1
f 29/2/1 30/6/1 31/7/1 32/1/1
f 33/2/1 34/6/1 35/7/1 36/1/1
g manne_sewing prop_manne_sewing sewing_machine g1
f 37/1/4 38/7/4 39/6/4 40/2/4
g leg1_1 legs stool g1
f 41/11/5 42/12/5 43/13/5 44/14/5
f 45/15/6 46/16/6 42/17/6 41/18/6
f 47/19/7 48/20/7 46/21/7 45/22/7
f 44/23/8 43/24/8 48/25/8 47/26/8
g leg1_2 legs stool g1
f 49/11/9 50/12/9 51/13/9 52/14/9
f 53/15/10 54/16/10 50/17/10 49/18/10
f 55/19/7 56/20/7 54/21/7 53/22/7
f 52/23/11 51/24/11 56/25/11 55/26/11
g leg1_3 legs stool g1
f 57/11/5 58/12/5 59/13/5 60/14/5
f 61/15/12 62/16/12 58/17/12 57/18/12
f 63/19/7 64/20/7 62/21/7 61/22/7
f 60/23/13 59/24/13 64/25/13 63/26/13
g leg1_4 legs stool g1
f 65/11/14 66/12/14 67/13/14 68/14/14
f 69/15/15 70/16/15 66/17/15 65/18/15
f 71/19/16 72/20/16 70/21/16 69/22/16
f 68/23/17 67/24/17 72/25/17 71/26/17
g top stool g1
f 73/1/18 74/7/18 75/6/18 76/2/18
f 77/1/19 76/7/19 75/6/19 78/2/19
f 78/6/20 75/2/20 74/1/20 79/7/20
f 79/27/21 74/1/21 73/2/21 80/28/21
f 80/2/22 73/6/22 76/7/22 77/1/22
f 77/2/23 78/6/23 79/7/23 80/1/23
g shadow stool g1
f 81/1/23 82/2/23 83/6/23 84/7/23
g wall_floor g1
f 85/29/18 86/30/18 87/31/18 88/32/18
f 89/1/24 86/6/24 90/2/24
f 89/1/24 87/7/24 86/6/24
f 90/2/1 86/6/1 85/7/1 91/1/1
f 91/2/25 85/6/25 92/1/25
f 85/6/25 88/7/25 92/1/25
g floor g1
f 92/1/23 89/33/23 90/34/23 91/35/23
