v 1.02796404380498 1.78048504306263 -0.000961668290725843
v -1.02796310514916 1.78048529337085 -0.000961668290725843
v -1.02796310514916 1.78048529337085 5.96197834165078
v 1.02796404380498 1.78048504306263 5.96197834165078
v -2.05592708637708 3.26584329483499e-07 -0.000961668290725843
v -2.05592708637708 3.26584329483499e-07 5.96197834165078
v -1.02796366834265 -1.78048504306263 -0.000961668290725843
v -1.02796366834265 -1.78048504306263 5.96197834165078
v 1.02796335545738 -1.78048516821674 -0.000961668290725843
v 1.02796335545738 -1.78048516821674 5.96197834165078
v 2.05592671091475 0 -0.000961668290725843
v 2.05592671091475 0 5.96197834165078
v -2.18587842902838e-16 0 -0.000961668290725843
v -2.18587842902838e-16 0 5.96197834165078
v 1.01661337955104 1.76082483426792 0.0118468201223008
v -1.01661212800995 1.76082483426792 0.0118468201223008
v 1.01661337955104 1.76082483426792 0.225893859788189
v -1.01661212800995 1.76082483426792 0.225893859788189
v -2.0332256327151 3.22978218797847e-07 0.0118468201223008
v -2.0332256327151 3.22978218797847e-07 0.225893859788189
v -1.01661300408871 -1.76082483426792 0.0118468201223008
v -1.01661300408871 -1.76082483426792 0.225893859788189
v 1.01661256604933 -1.76082483426792 0.0118468201223008
v 1.01661256604933 -1.76082483426792 0.225893859788189
v 2.03322538240688 0 0.0118468201223008
v 2.03322538240688 0 0.225893859788189
v -0.259801033600735 0.449988723114094 0.435764770808182
v 0.259801158754844 0.449988723114094 0.435764770808182
v -0.519602223644106 1.59924915771573e-07 0.435764770808182
v -0.259801143110581 -0.449988441517347 0.435764770808182
v 0.259801049244998 -0.449988441517347 0.435764770808182
v 0.519602067201469 7.73860411155699e-08 0.435764770808182
v 0.178237380631014 0.308716391015241 1.88345521140912
v -0.178237380631014 0.308716391015241 1.88345521140912
v -0.356474761262028 1.62031777554888e-07 1.88345521140912
v -0.178237380631014 -0.308716046841439 1.88345433533035
v 0.17823736498675 -0.308716046841439 1.88345433533035
v 0.356474667396445 1.05405706443677e-07 1.88345521140912
v 0.63977147650531 1.10811674062974 2.02395872181169
v -0.639770975888871 1.10811649032152 2.02395872181169
v -1.27954195177774 1.18366856357294e-07 2.02396072427745
v -0.63977110104298 -1.10811674062974 2.02395721996237
v 0.63977147650531 -1.10811674062974 2.02395721996237
v 1.27954182662363 -8.48887383250649e-08 2.02396072427745
v -0.783363978068034 1.35682699248547 2.29102958218632
v 0.783364478684473 1.35682761825602 2.29102958218632
v -1.56672795613607 -2.99081256698413e-08 2.29103158465208
v -0.783364165799199 -1.35682761825602 2.29102632817947
v 0.783364478684473 -1.35682761825602 2.29102632817947
v 1.56672770582785 -2.78783311046922e-07 2.29103158465208
v -0.928840424445045 1.60879825982522 3.10009333092397
v 0.928841112792648 1.60879901074988 3.10009333092397
v -1.8576809740442 -1.38356141498394e-06 3.10009533338972
v -0.928840612176209 -1.60880163898618 3.10009107814999
v 0.928841112792648 -1.60880163898618 3.10009107814999
v 1.85768084889009 -1.67865484848733e-06 3.10009533338972
v 0.754334482308135 1.30654407611356 4.46130947803888
v -0.754333731383476 1.30654357549712 4.46130947803888
v -1.50866783822928 -1.85124149407459e-06 4.46130947803888
v -0.754333981691696 -1.30654720496631 4.46130747557312
v 0.75433441973108 -1.30654720496631 4.46130747557312
v 1.50866783822928 -2.09089370606054e-06 4.46130947803888
v -0.868991791732668 1.50513636471405 5.0457656539957
v 0.868992417503217 1.50513674017638 5.0457656539957
v -1.73798358346534 -2.37422231236458e-06 5.0457656539957
v -0.868991854309723 -1.50514137087844 5.04576415214639
v 0.868992417503217 -1.50514137087844 5.04576415214639
v 1.73798345831123 -2.65030074200661e-06 5.0457656539957
v 0.828069401538278 1.44258471611604 5.12905321096185
v -0.828068900921839 1.44258446580782 5.12905321096185
v -1.65613792699779 0.00832620861492758 5.12905070787965
v -0.828069088653004 -1.4259322108872 5.1290487054139
v 0.828069338961223 -1.4259322108872 5.1290487054139
v 1.65613767668957 0.00832594559574378 5.12905070787965
v 0.661869937666445 1.15513063165459 4.41587453126282
v -0.661869562204116 1.15513038134637 4.41587453126282
v -1.32373912440823 0.00873792750316029 4.4158730294135
v -0.661869687358225 -1.1376546123835 4.4158730294135
v 0.66186987508939 -1.1376546123835 4.4158730294135
v 1.32373887410001 0.00873771630560006 4.4158730294135
v -0.722157110379437 1.25081357680594 5.16733084450869
v 0.722157861304095 1.2508130761895 5.16733084450869
v -0.625406475517693 1.08323635391676 4.57783095792835
v 0.625407038711187 1.08323597845443 4.57783095792835
v -1.44431472137531 2.2942960194256e-07 5.16733084450869
v -1.25081332649772 1.98691888722124e-07 4.57783095792835
v -0.722157548418821 -1.2508130761895 5.16733084450869
v -0.625406788402968 -1.08323597845443 4.57783095792835
v 0.722157235533547 -1.25081320134361 5.16733084450869
v 0.625406538094748 -1.08323610360854 4.57783095792835
v 1.4443145962212 0 5.16733084450869
v 1.25081320134361 0 4.57783095792835
v 0.625407038711187 1.08323597845443 5.75683073108903
v -0.625406475517693 1.08323635391676 5.75683073108903
v -1.25081332649772 1.98691888722124e-07 5.75683073108903
v -0.625406788402968 -1.08323597845443 5.75683073108903
v 0.625406538094748 -1.08323610360854 5.75683073108903
v 1.25081320134361 0 5.75683073108903
v 0.361078930652048 0.625406538094748 6.18837461696835
v -0.361078555189718 0.625406788402968 6.18837461696835
v -0.722157360687656 1.1471480097128e-07 6.18837461696835
v -0.36107877420941 -0.625406538094748 6.18837461696835
v 0.361078617766773 -0.625406600671803 6.18837461696835
v 0.722157298110601 0 6.18837461696835
v 0 0 6.34633061766937
v -1.28358155097861 4.24723530082306e-31 5.50194837915616
v 1.28358155097861 4.24723530082306e-31 5.50194837915616
v 1.28358155097861 4.24723530082306e-31 7.92289143159321
v -1.28358155097861 4.24723530082306e-31 7.92289143159321
v -2.72020830569931 -2.72020830569931 0.0134600262864055
v 2.72020830569931 -2.72020830569931 0.0134600262864055
v 2.72020830569931 2.72020830569931 0.0134600262864055
v -2.72020830569931 2.72020830569931 0.0134600262864055
vt 0.851481199264526 4.29764135390087e-08
vt 1.01762473583221 4.29764135390087e-08
vt 0.851481199264526 0.0438823066651821
vt 1.01762473583221 0.0438823066651821
vt 0.0176249668002129 4.29764135390087e-08
vt 0.183763459324837 4.29764135390087e-08
vt 0.0176249668002129 0.0438823066651821
vt 0.183763459324837 0.0438823066651821
vt 0.350952297449112 4.29764135390087e-08
vt 0.350952297449112 0.0438823066651821
vt 0.518147468566895 4.29764135390087e-08
vt 0.518147468566895 0.0438823066651821
vt 0.684814214706421 4.29764135390087e-08
vt 0.684814214706421 0.0438823066651821
vt 1.01762473583221 0.0714760571718216
vt 0.851481199264526 0.0714760571718216
vt 0.183763459324837 0.0714760571718216
vt 0.0176249668002129 0.0714760571718216
vt 0.358961015939713 0.0714760571718216
vt 0.508251309394836 0.0714760571718216
vt 0.684814214706421 0.0714760571718216
vt 0.833856046199799 0.315568387508392
vt 1 0.315568387508392
vt 4.03178042063246e-08 0.315568387508392
vt 0.166138529777527 0.315568387508392
vt 0.343223690986633 0.315568178892136
vt 0.492513746023178 0.315568178892136
vt 0.667189061641693 0.315568387508392
vt 0.833856046199799 0.339258372783661
vt 1 0.339258372783661
vt 4.03178042063246e-08 0.339258372783661
vt 0.166138529777527 0.339258700609207
vt 0.333327531814575 0.339258074760437
vt 0.500522434711456 0.339258074760437
vt 0.667189061641693 0.339258700609207
vt 1 0.384288638830185
vt 0.833856046199799 0.384288638830185
vt 0.166138529777527 0.384288936853409
vt 4.03178042063246e-08 0.384288638830185
vt 0.333327531814575 0.384288102388382
vt 0.500522434711456 0.384288102388382
vt 0.667189061641693 0.384288936853409
vt 1 0.520703136920929
vt 0.833856046199799 0.520703136920929
vt 0.166138529777527 0.520703554153442
vt 4.03178042063246e-08 0.520703136920929
vt 0.333327531814575 0.520702838897705
vt 0.500522434711456 0.520702838897705
vt 0.667189061641693 0.520703554153442
vt 0.833856046199799 0.750215470790863
vt 1 0.750215470790863
vt 4.03178042063246e-08 0.750215470790863
vt 0.166138529777527 0.750215470790863
vt 0.333327531814575 0.75021505355835
vt 0.500522434711456 0.75021505355835
vt 0.667189061641693 0.750215470790863
vt 1 0.848759472370148
vt 0.833856046199799 0.848759472370148
vt 0.166138529777527 0.848759472370148
vt 4.03178042063246e-08 0.848759472370148
vt 0.333327531814575 0.848759055137634
vt 0.500522434711456 0.848759055137634
vt 0.667189061641693 0.848759472370148
vt 0.833856046199799 0.862802386283875
vt 1 0.862802386283875
vt 0.166138529777527 0.862802028656006
vt 1.01825747833573e-08 0.862802386283875
vt 0.333327531814575 0.862801611423492
vt 0.500522434711456 0.862801611423492
vt 0.667189061641693 0.862802028656006
vt 0.833856046199799 1
vt 1 1
vt 1.01825747833573e-08 1
vt 0.166138529777527 0.999999582767487
vt 0.333327531814575 0.999999582767487
vt 0.500522434711456 0.999999582767487
vt 0.667189061641693 0.999999582767487
vt 0 0.189398735761642
vt 0.166666626930237 0.189398735761642
vt 0 3.75087836346211e-08
vt 0.166666626930237 3.75087836346211e-08
vt 0.833333253860474 0.189398735761642
vt 1 0.189398735761642
vt 0.833333253860474 3.75087836346211e-08
vt 0.999999940395355 3.75087836346211e-08
vt 0.666666448116302 0.189398735761642
vt 0.666666448116302 3.75087836346211e-08
vt 0.479220688343048 0.189398735761642
vt 0.49999988079071 3.75087836346211e-08
vt 0.333333253860474 0.189398735761642
vt 0.333333253860474 3.75087836346211e-08
vt 0.166666626930237 0.387341648340225
vt 0 0.387341648340225
vt 0.999999940395355 0.387341648340225
vt 0.833333253860474 0.387341648340225
vt 0.684848308563232 0.387341648340225
vt 0.49999988079071 0.387341648340225
vt 0.333333253860474 0.387341648340225
vt 0.166666626930237 0.642047703266144
vt 0 0.642047703266144
vt 1 0.642047703266144
vt 0.833333253860474 0.642047703266144
vt 0.666666507720947 0.642047703266144
vt 0.49999988079071 0.642047703266144
vt 0.333333253860474 0.642047703266144
vt 0.497994780540466 1
vt 0 0
vt 1 0
vt 0 1
vn 1.71487300804072e-07 0.999999999999985 0
vn -0.49999985492007 0.866025487546359 0
vn -0.866025296660251 0.50000018554449 0
vn -0.866025453514042 -0.49999991386579 0
vn -8.57436504020367e-08 -0.999999999999996 0
vn 0.866025453514042 -0.49999991386579 0
vn 0.999999999999992 -1.29758887926067e-07 0
vn 0.866025573649809 0.499999705784433 0
vn 0 3.50537203430701e-11 -1
vn 0 0 -1
vn 0 1.75268619062585e-11 -1
vn 0 1.43580024314359e-07 0.99999999999999
vn 0 4.78600092890246e-08 0.999999999999999
vn 0 0 1
vn 0 1 0
vn -0.327326720463484 0.944911222322299 0
vn -0.654653440926969 0.755929145014584 0
vn -0.86602520033757 0.500000352380148 0
vn -0.866025215238751 0.500000326570569 0
vn -0.866025455510416 -0.499999910407969 0
vn -0.866025442605634 -0.499999932759712 0
vn 0 -1 0
vn 0.327326821060793 -0.944911187474376 0
vn 0.654653642121586 -0.755928970774995 0
vn 0.981980483064741 -0.188982356001662 0
vn 0.981980548547129 0.188982015745098 0
vn 0.866025549836617 0.499999747030122 0
vn -0.0915285179403263 0.105688082821609 0.990178044370375
vn 0.045764262938366 0.132110043555307 0.990178048953583
vn -0.04576426014626 0.132110083656113 0.990178043732358
vn 0.0915285280807097 0.105688011435221 0.990178051052561
vn -0.13729277314021 -0.0264219864324161 0.990178051199094
vn -0.137292781879077 0.0264220545804381 0.990178048168941
vn -0.0457642514545892 -0.132110034642724 0.990178050673463
vn -0.0915285151059481 -0.105688024299539 0.990178050878811
vn 0.0915285245825254 -0.105688037982566 0.990178048542353
vn 0.045764262380546 -0.132110040151971 0.990178049433439
vn 0.137292789981346 0.0264219746089714 0.99017804917949
vn 0.137292789498855 -0.0264220312587777 0.990178047734741
vn 0.650682615385658 0.751343237889791 0.109979420402933
vn -0.325341151182084 0.939179257362113 0.109979352099686
vn 0.325341319832451 0.939179195243474 0.109979383665756
vn -0.650682386643129 0.751343437946227 0.109979407015797
vn -0.976023661554142 0.187835911311662 0.109979464029257
vn -0.976023647200931 -0.187835956187509 0.109979514763961
vn -0.65068236775918 -0.751343441341727 0.109979495543841
vn -0.325341161789161 -0.939179238404881 0.10997948260883
vn 0.325341212946356 -0.939179222585279 0.109979466368526
vn 0.650682407151807 -0.751343411762455 0.109979464557179
vn 0.976023650200475 -0.187835971716374 0.109979461622191
vn 0.976023723893505 0.187835599037938 0.109979444129868
vn 0.100279490837043 0.115791362389178 -0.988198555004773
vn -0.0501391385943142 0.144739128344135 -0.988198690298262
vn 0.256251178372547 0.34283410190918 -0.903769944261706
vn -0.168779065386696 0.39333658057582 -0.90376986089829
vn -0.150418801066556 0.028948159309602 -0.988198455958258
vn -0.425030249456779 0.0505026668623697 -0.90376920045247
vn -0.100279651684196 -0.115789845577768 -0.98819871641243
vn -0.256250949643369 -0.342832583889288 -0.903770584955422
vn 0.050139671230058 -0.144737950936733 -0.988198835724662
vn 0.168778961061104 -0.393334364934994 -0.903770844663801
vn 0.15041934517921 -0.0289461398323804 -0.98819843229215
vn 0.425029960021063 -0.0505008733668238 -0.903769436788876
vn -0.396963666276331 0.729817811326061 -0.556584054683291
vn 0.433559830454837 0.708688630520219 -0.556584493484457
vn -0.830522157432143 0.0211298911216598 -0.55658465098801
vn -0.433559609966447 -0.708686985340712 -0.556586760006412
vn 0.396963405584155 -0.729816147848032 -0.556586421831587
vn 0.830522368069986 -0.0211285446030326 -0.556584387796118
vn -0.391308869146156 0.913841393786216 -0.10849551110725
vn 0.234334540956921 0.953132643718682 -0.19137786285865
vn -0.987064099733208 0.118038177490146 -0.108496321009869
vn -0.595755966033074 -0.795803521116921 -0.108496934122168
vn 0.391308858986462 -0.913841222410664 -0.108496991210338
vn 0.987064149307273 -0.118037786243983 -0.108496295655334
vn 0.241089028403136 0.965969183007176 0.093699615069011
vn -0.40245478620856 0.915438410677417 0.00163135349548941
vn -0.845433972628269 0.488111772401664 0.216767837948552
vn -0.994020311655354 0.10918314817805 0.00163100291919809
vn -0.845434072988026 -0.488111587315393 0.216767863299255
vn -0.59156583199689 -0.806255051186357 0.00163059814533682
vn 0 -0.976223208755482 0.21676772519716
vn 0.402454772281735 -0.915438418697147 0.00163028860118786
vn 0.845434287939631 -0.488111310156244 0.216767649047462
vn 0.994020314722444 -0.109183124702664 0.00163070514095904
vn 0.845434330971162 0.48811103236685 0.216768106734158
vn 0.845434425072139 0.488110958265936 0.216767906581329
vn -0.424211458944888 0.90350519577099 0.0610163856244767
vn 0.249129426599262 0.962112585259127 -0.110787644113964
vn -0.99382864488377 -0.0263626199943706 -0.107748024926315
vn -0.819981535161466 0.473416067003785 -0.321725829701181
vn -0.30544034040985 -0.881729607428915 -0.359526212999229
vn -0.819981630718197 -0.473415725522472 -0.321726088641809
vn 0.610880780558365 -0.705383377633677 -0.359526024791681
vn 0 -0.946832491980188 -0.321726952757439
vn 0.916320885103996 0.17634580458086 -0.359524954250688
vn 0.819981630172733 -0.473415670213275 -0.321726171418776
vn 0.819981840028322 0.473415921943355 -0.321725266142233
vn 0.8199819920619 0.473415787272462 -0.321725076820868
vn 0.242795823213331 0.714632164117085 0.656011477216285
vn -0.367922247997904 0.647670606614359 0.667200123468182
vn -0.712856226113578 0.146136892258417 0.685915453691021
vn -0.675907501956403 0.390233939305803 0.625193187273286
vn -0.345830310501161 -0.589165965942983 0.73026355578869
vn -0.345830859286717 -0.589166398619102 0.730262946823409
vn -0.64337173696373 -0.371451357426312 0.66940025182429
vn 0.228583815128365 -0.646870839408368 0.727535261402824
vn 0.457168537658372 -0.521395567444953 0.720516197197579
vn 0.701228620492008 -0.126004380319233 0.701713130804349
vn 0.712855689310531 0.146136501346875 0.685916094862704
vn 0.675907092274239 0.390232632362771 0.625194445954702
vn -0.595350151337192 -0.687485383412981 0.415838965101021
vn 0.297675067597092 -0.859382725765538 0.415753394197643
vn -0.297675051323755 -0.859382688801069 0.415753482256546
vn 0.595349960947996 -0.68748558066578 0.415838911570159
vn 0.892933636504187 -0.171891522496541 0.416080311109802
vn 0.892873959866863 0.171787258773229 0.416251401817275
vn 0.595188539844235 0.687229397909795 0.416492925133942
vn 0.297594167767758 0.859011110985146 0.416578471016783
vn -0.297594318226828 0.859011042598777 0.416578504549229
vn -0.595188639989422 0.687229315564152 0.416492917895093
vn -0.892873993090292 0.171787223354156 0.416251345169319
vn -0.892933732861786 -0.171891106524395 0.416080276167154
vn -0.396517157078809 0.915717766822675 -0.0650777663064084
vn 0.237260974967958 0.958877476835797 -0.155760117405802
vn -0.31154216722554 0.899345528265811 -0.306788361625248
vn 0.623085018754425 0.71947617204759 -0.306788359067851
vn -0.991293441837143 0.114464825424351 -0.0650777681796487
vn -0.934627201249851 0.179869197057642 -0.306788309154226
vn -0.594776161762108 -0.801252896760875 -0.0650777445202425
vn -0.623084895458427 -0.719476299228517 -0.30678831121801
vn 0.396517323946314 -0.91571769468832 -0.0650777645986968
vn 0.311542348022649 -0.899345494634259 -0.306788276616944
vn 0.991293439294521 -0.114464832633215 -0.0650777942303744
vn 0.934627209356912 -0.179869181142278 -0.306788293787292
vn 0.386333501144314 0.721903918550072 0.574109012536493
vn -0.432020453562275 0.695526537305696 0.574109017180007
vn -0.833021158449349 0.480945162144964 0.27343646535358
vn -0.818353898586222 -0.0263774927164657 0.574108983161494
vn -0.833021392037355 -0.48094486594326 0.273436274716737
vn -0.386333370245873 -0.721904030480926 0.574108959875962
vn 0 -0.961890194141976 0.273436015209249
vn 0.432020582081513 -0.695526505660006 0.57410895880689
vn 0.833021281789327 -0.480945015518223 0.273436347500187
vn 0.818353922634126 0.0263774381065554 0.574108951391871
vn 0.833021316457106 0.480944920934811 0.273436408247108
vn 0.833021272212283 0.480944954994702 0.273436483130861
vn 0.17194691297648 0.444132687609126 0.879306780887622
vn -0.298656767586616 0.370976683602961 0.879306792534701
vn -0.470603643988721 -0.0731560506693897 0.879306773836637
vn -0.171946824486279 -0.444132742646709 0.879306770392561
vn 0.298656860181584 -0.370976671568942 0.879306766161905
vn 0.470603678660893 0.0731559948883762 0.879306759920977
vn 1.72385884288906e-08 -1.35751283301817e-08 1
g tube collisions icecreamChestAll
f 1//1 2//2 3//2 4//1
f 2//2 5//3 6//3 3//2
f 5//4 7//4 8//4 6//4
f 7//5 9//5 10//5 8//5
f 9//6 11//7 12//7 10//6
f 11//7 1//8 4//8 12//7
f 2//9 1//10 13//11
f 5//9 2//9 13//11
f 7//11 5//9 13//11
f 9//11 7//11 13//11
f 11//10 9//11 13//11
f 1//10 11//10 13//11
f 4//12 3//12 14//13
f 3//12 6//14 14//13
f 6//14 8//14 14//13
f 8//14 10//14 14//13
f 10//14 12//14 14//13
f 12//14 4//12 14//13
g chest icecreamChest icecreamChestAll
f 15/1/15 16/2/16 17/3/15
f 16/2/16 18/4/17 17/3/15
f 16/5/16 19/6/18 18/7/17
f 19/6/18 20/8/19 18/7/17
f 19/6/20 21/9/20 20/8/20
f 21/9/20 22/10/21 20/8/20
f 21/9/22 23/11/23 22/10/22
f 23/11/23 24/12/24 22/10/22
f 23/11/23 25/13/25 24/12/24
f 25/13/25 26/14/26 24/12/24
f 25/13/25 15/1/27 26/14/26
f 15/1/27 17/3/27 26/14/26
f 27/15/28 28/16/29 18/4/30
f 17/3/31 18/4/30 28/16/29
f 29/17/32 27/18/28 20/8/33
f 18/7/30 20/8/33 27/18/28
f 30/19/34 29/17/32 22/10/35
f 20/8/33 22/10/35 29/17/32
f 31/20/36 30/19/34 24/12/37
f 22/10/35 24/12/37 30/19/34
f 32/21/38 31/20/36 26/14/39
f 24/12/37 26/14/39 31/20/36
f 28/16/29 32/21/38 17/3/31
f 26/14/39 17/3/31 32/21/38
f 28/16/40 27/15/41 33/22/42
f 27/15/41 34/23/43 33/22/42
f 27/18/41 29/17/44 34/24/43
f 29/17/44 35/25/45 34/24/43
f 29/17/44 30/19/46 35/25/45
f 30/19/46 36/26/47 35/25/45
f 30/19/46 31/20/48 36/26/47
f 31/20/48 37/27/49 36/26/47
f 31/20/48 32/21/50 37/27/49
f 32/21/50 38/28/51 37/27/49
f 32/21/50 28/16/40 38/28/51
f 28/16/40 33/22/42 38/28/51
f 33/22/52 34/23/53 39/29/54
f 34/23/53 40/30/55 39/29/54
f 34/24/53 35/25/56 40/31/55
f 35/25/56 41/32/57 40/31/55
f 35/25/56 36/26/58 41/32/57
f 36/26/58 42/33/59 41/32/57
f 36/26/58 37/27/60 42/33/59
f 37/27/60 43/34/61 42/33/59
f 37/27/60 38/28/62 43/34/61
f 38/28/62 44/35/63 43/34/61
f 38/28/62 33/22/52 44/35/63
f 33/22/52 39/29/54 44/35/63
f 45/36/64 46/37/65 40/30/55
f 39/29/54 40/30/55 46/37/65
f 47/38/66 45/39/64 41/32/57
f 40/31/55 41/32/57 45/39/64
f 48/40/67 47/38/66 42/33/59
f 41/32/57 42/33/59 47/38/66
f 49/41/68 48/40/67 43/34/61
f 42/33/59 43/34/61 48/40/67
f 50/42/69 49/41/68 44/35/63
f 43/34/61 44/35/63 49/41/68
f 46/37/65 50/42/69 39/29/54
f 44/35/63 39/29/54 50/42/69
f 51/43/70 52/44/71 45/36/64
f 46/37/65 45/36/64 52/44/71
f 53/45/72 51/46/70 47/38/66
f 45/39/64 47/38/66 51/46/70
f 54/47/73 53/45/72 48/40/67
f 47/38/66 48/40/67 53/45/72
f 55/48/74 54/47/73 49/41/68
f 48/40/67 49/41/68 54/47/73
f 56/49/75 55/48/74 50/42/69
f 49/41/68 50/42/69 55/48/74
f 52/44/71 56/49/75 46/37/65
f 50/42/69 46/37/65 56/49/75
f 52/44/71 51/43/70 57/50/76
f 51/43/70 58/51/77 57/50/76
f 51/46/78 53/45/72 58/52/77
f 53/45/72 59/53/79 58/52/77
f 53/45/80 54/47/73 59/53/79
f 54/47/73 60/54/81 59/53/79
f 54/47/82 55/48/74 60/54/81
f 55/48/74 61/55/83 60/54/81
f 55/48/84 56/49/75 61/55/83
f 56/49/75 62/56/85 61/55/83
f 56/49/86 52/44/87 62/56/85
f 52/44/87 57/50/76 62/56/85
f 63/57/88 64/58/89 58/51/77
f 57/50/76 58/51/77 64/58/89
f 65/59/90 63/60/88 59/53/79
f 58/52/91 59/53/79 63/60/88
f 66/61/92 65/59/90 60/54/81
f 59/53/93 60/54/81 65/59/90
f 67/62/94 66/61/92 61/55/83
f 60/54/95 61/55/83 66/61/92
f 68/63/96 67/62/94 62/56/85
f 61/55/97 62/56/85 67/62/94
f 64/58/89 68/63/96 57/50/98
f 62/56/99 57/50/98 68/63/96
f 64/58/89 63/57/88 69/64/100
f 63/57/88 70/65/101 69/64/100
f 65/59/90 71/66/102 63/60/103
f 63/60/103 71/66/102 70/67/101
f 66/61/104 72/68/105 65/59/106
f 65/59/106 72/68/105 71/66/102
f 66/61/104 67/62/107 72/68/105
f 67/62/107 73/69/108 72/68/105
f 67/62/107 68/63/109 73/69/108
f 68/63/109 74/70/110 73/69/108
f 68/63/109 64/58/111 74/70/110
f 64/58/111 69/64/100 74/70/110
f 69/64/112 70/65/113 75/71/114
f 70/65/113 76/72/115 75/71/114
f 70/67/113 71/66/116 76/73/115
f 71/66/116 77/74/117 76/73/115
f 71/66/116 72/68/118 77/74/117
f 72/68/118 78/75/119 77/74/117
f 72/68/118 73/69/120 78/75/119
f 73/69/120 79/76/121 78/75/119
f 73/69/120 74/70/122 79/76/121
f 74/70/122 80/77/123 79/76/121
f 74/70/122 69/64/112 80/77/123
f 69/64/112 75/71/114 80/77/123
g icecream icecreamChest icecreamChestAll
f 81/78/124 82/79/125 83/80/126
f 84/81/127 83/80/126 82/79/125
f 85/82/128 81/83/124 86/84/129
f 83/85/126 86/84/129 81/83/124
f 87/86/130 85/82/128 88/87/131
f 86/84/129 88/87/131 85/82/128
f 89/88/132 87/86/130 90/89/133
f 88/87/131 90/89/133 87/86/130
f 91/90/134 89/88/132 92/91/135
f 90/89/133 92/91/135 89/88/132
f 82/79/125 91/90/134 84/81/127
f 92/91/135 84/81/127 91/90/134
f 82/79/125 81/78/124 93/92/136
f 81/78/124 94/93/137 93/92/136
f 81/83/138 85/82/128 94/94/137
f 85/82/128 95/95/139 94/94/137
f 85/82/140 87/86/130 95/95/139
f 87/86/130 96/96/141 95/95/139
f 87/86/142 89/88/132 96/96/141
f 89/88/132 97/97/143 96/96/141
f 89/88/144 91/90/134 97/97/143
f 91/90/134 98/98/145 97/97/143
f 91/90/146 82/79/147 98/98/145
f 82/79/147 93/92/136 98/98/145
f 93/92/136 94/93/137 99/99/148
f 94/93/137 100/100/149 99/99/148
f 94/94/137 95/95/139 100/101/149
f 95/95/139 101/102/150 100/101/149
f 95/95/139 96/96/141 101/102/150
f 96/96/141 102/103/151 101/102/150
f 96/96/141 97/97/143 102/103/151
f 97/97/143 103/104/152 102/103/151
f 97/97/143 98/98/145 103/104/152
f 98/98/145 104/105/153 103/104/152
f 98/98/145 93/92/136 104/105/153
f 93/92/136 99/99/148 104/105/153
f 99/99/148 100/100/149 105/106/154
f 100/101/149 101/102/150 105/106/154
f 101/102/150 102/103/151 105/106/154
f 102/103/151 103/104/152 105/106/154
f 103/104/152 104/105/153 105/106/154
f 104/105/153 99/99/148 105/106/154
g whipcream icecreamChest icecreamChestAll
f 106/107/22 107/108/22 108/72/22 109/109/22
g shadow1 icecreamChest icecreamChestAll
f 110/107/14 111/108/14 112/72/14 113/109/14
