v -1.10150272139101 -1.04165121013411 -0.921868777337662
v 1.10150272139101 -1.04165121013411 -0.921868777337662
v 1.10150272139101 -1.04165121013411 1.21282780264306
v -1.10150272139101 -1.04165121013411 1.21282780264306
v 1.10150272139101 1.99933690348948e-05 1.21282780264306
v -1.10150272139101 1.99933690348948e-05 1.21282780264306
v -1.10150272139101 1.99933690348948e-05 -0.921868777337662
v 1.10150272139101 1.99933690348948e-05 -0.921868777337662
v -0.616334179254967 -0.109446017448045 0.722249661843608
v 0.0323742569431545 -0.0563430035208154 1.01316726113868
v 0.0336418158113174 -0.2830265075203 1.31397535168906
v -0.789281139223594 -0.275123901567434 0.980025263908967
v -0.902668009279907 -0.0343201901969009 0.00152462736515235
v -1.16627335235516 -0.151400584874191 0.00624769315944882
v -0.404683498572803 -0.0407014306136004 -0.727656507116603
v -0.563627653547472 -0.173468852606345 -0.920454160434993
v 0.404683498572803 -0.0407014306136004 -0.727656507116603
v 0.563627653547472 -0.173468852606345 -0.920454160434993
v 0.902668009279907 -0.102129070151822 0.00432282295126927
v 1.16627335235516 -0.151400584874191 0.00624769315944882
v 0.626438996923251 -0.105878061509821 0.740605702237507
v 0.773577051838552 -0.272147361374903 0.987910285709411
v 0.0374020553949311 -0.510608242565565 1.51336850143793
v -0.992870330810547 -0.445982540060529 1.17786162168648
v -1.36300722757975 -0.334091449347068 0.00797920026804206
v -0.681503238327547 -0.355212894950326 -1.09237110208026
v 0.681503238327547 -0.355212894950326 -1.0923716026967
v 1.36300722757975 -0.334091449347068 0.00797920026804206
v 0.99556158220987 -0.454145716869925 1.19053322499193
v -0.318640799034299 -0.0213499144306333 0.492743870091876
v 0.030052268833626 -0.0169794077635437 0.59865503486373
v -0.450040411761427 -0.0426025919401114 0.0184069155395187
v -0.225020205880713 -0.0233937436201441 -0.3942881356387
v 0.225020205880713 -0.0233936184660343 -0.3942881356387
v 0.450040411761427 -0.0426025919401114 0.0184069155395187
v 0.318640799034299 -0.0213499144306333 0.492743870091876
v -0.214095988611537 -0.58256403354835 0.438354522224486
v -0.428191195009887 -0.559336369431864 0.023081171231007
v -0.214095988611537 -0.61365056225634 -0.314978852359642
v 0.214095988611537 -0.61365056225634 -0.314978852359642
v 0.428191195009887 -0.599631737536333 0.0247440938874492
v 0.214095988611537 -0.58256403354835 0.438354522224486
v -0.0597850583356822 -1.26088235009061 0.155983571931133
v 0.0612732541216953 -1.26679437992767 0.154152316997058
v -0.121058316368443 -1.24106644958336 0.0532883671637908
v -0.0612732541216953 -1.22716282922139 -0.0512380925376271
v 0.0597850583356822 -1.23307485905845 -0.0530693474717028
v 0.12105830072418 -1.25289063441159 0.0496258572956396
v -0.254912639227439 -0.0170799084692177 0.394195052269563
v 0.0240418189779667 -0.0135834575716279 0.47892397782934
v 0.00318249301334691 -0.506567297958014 0.104049591254687
v -0.360032298120614 -0.0340820180149529 0.0147255553113507
v -0.180016149060307 -0.0187149471811109 -0.315430564830309
v 0.180016164704571 -0.0187149471811109 -0.315430564830309
v 0.360032329409141 -0.0340820884141396 0.014725537711554
v 0.254912623583175 -0.0170799084692177 0.394195052269563
vt 0.273906469345093 0.717781841754913
vt 0.511876046657562 0.814776957035065
vt 0.512341022491455 0.926903545856476
vt 0.210463345050812 0.79855352640152
vt 0.168868958950043 0.425932645797729
vt 0.0721690431237221 0.425890892744064
vt 0.346291452646255 0.145304515957832
vt 0.293241113424301 0.0690246224403381
vt 0.648452460765839 0.145304515957832
vt 0.706758856773376 0.0690246224403381
vt 0.831131041049957 0.425932645797729
vt 0.927830934524536 0.425890892744064
vt 0.729800343513489 0.724900305271149
vt 0.783775866031647 0.801634252071381
vt 0.513720393180847 1.00000011920929
vt 0.135779500007629 0.871951580047607
vt -1.75470908914122e-08 0.423656761646271
vt 0.250000149011612 3.31661539121342e-07
vt 0.74999988079071 6.00051706101112e-08
vt 1 0.423656761646271
vt 0.86520779132843 0.8766970038414
vt 0.338106513023376 0.659579336643219
vt 0.5078946352005 0.732062458992004
vt 0.275685548782349 0.423017740249634
vt 0.392072767019272 0.228125259280205
vt 0.607927262783051 0.228125259280205
vt 0.724314391613007 0.423017740249634
vt 0.661893546581268 0.659579336643219
vt 0.42363503575325 0.60266900062561
vt 0.35451352596283 0.421061128377914
vt 0.435949146747589 0.328052282333374
vt 0.581435918807983 0.328052282333374
vt 0.64548647403717 0.421061128377914
vt 0.580711245536804 0.60266900062561
vt 0.478068679571152 0.518038153648376
vt 0.522477209568024 0.517239689826965
vt 0.455591470003128 0.473588287830353
vt 0.477522760629654 0.438852190971375
vt 0.521931290626526 0.438053756952286
vt 0.544408559799194 0.471991419792175
vt 0.145986437797546 0.893182992935181
vt 0.533388435840607 1
vt 0.50441974401474 0.502599537372589
vt -4.27368718192156e-09 0.414719313383102
vt 0.25 -1.31975790296224e-08
vt 0.75 -1.31975790296224e-08
vt 1 0.41471928358078
vt 0.854013562202454 0.893182992935181
vn 0 -1 0
vn 0 0 1
vn 0 0 -1
vn 1 0 0
vn -1 0 0
vn 0.217141910820128 -0.942815261487925 -0.252880946832377
vn -0.00448140573728069 -0.941219653235312 -0.337765423580061
vn -0.00663375628339708 -0.805465656778463 -0.592605323151937
vn 0.359982817869215 -0.826489629842938 -0.432813195964521
vn 0.234391221295897 -0.972012631969847 -0.0158807641651511
vn 0.516812907511669 -0.855419871493423 0.034077295718862
vn 0.107066999637509 -0.966373437157914 0.233792723462943
vn 0.261663098364126 -0.81422599774151 0.518235899524848
vn -0.112546770333853 -0.971126634567422 0.210348007171855
vn -0.242255596033726 -0.833068930966985 0.497301098377903
vn -0.244161914006039 -0.969630155241742 -0.0142239865995047
vn -0.478917935671882 -0.877494219609407 0.0253279577515008
vn -0.229960353036521 -0.945902728520945 -0.228880458335677
vn -0.352311869290856 -0.836276468325644 -0.420140470892261
vn -0.0056317479659374 -0.75768462273319 -0.652596579740127
vn 0.390815457805314 -0.788141916765891 -0.475495107206173
vn 0.611777285781031 -0.788705325177642 0.0606008468490744
vn 0.317738463765582 -0.737640723697342 0.595758702317598
vn -0.317738220319553 -0.737640900562398 0.595758613169509
vn -0.60948556127236 -0.790525339332741 0.0599753155337335
vn -0.393270063496726 -0.788690994510032 -0.472551766832015
vn 0.0990754789764668 -0.98914049785755 -0.108559315416516
vn -0.00124080915669867 -0.990545991849419 -0.137175429373077
vn 0.049959976986344 -0.998026265656226 -0.0380469940969352
vn 0.00758934760533309 -0.999655611241002 0.0251209219039541
vn -0.0591750392691252 -0.997846210420244 0.0283064493968355
vn -0.145593725686912 -0.989148703452013 -0.0196801803803992
vn -0.14456059031631 -0.985656906623937 -0.0870786894247435
vn -0.471592643173828 -0.296428327429472 0.830500226129824
vn 0.0181475248043463 -0.19714814954658 0.980205730688122
vn -0.672156662585473 -0.149916874748963 0.725072652640728
vn -0.991361876039228 -0.104592906743356 -0.0791325128816133
vn -0.963167143445907 -0.263677920617972 -0.0527542222465112
vn -0.497166977077813 -0.113390474831434 -0.860213692707115
vn -0.632055428564018 -0.222393944752009 -0.742325311814434
vn 0.496382342391418 -0.112524576206209 -0.860780337781726
vn 0.470221736003242 -0.282227844829986 -0.836205096009776
vn 0.991863476873425 -0.101247399908652 -0.0771738767738066
vn 0.961961182949732 -0.267673227232688 -0.0546051821788877
vn 0.690608115546154 -0.14944451106079 0.707620497763874
vn 0.748790389616244 -0.230092693880636 0.62158692444509
vn -0.00052801835422987 -0.328887518973851 0.944368953883937
vn -0.479637647099867 -0.426640435669241 0.766763109530227
vn 0.466988689727249 -0.427527087429591 0.774042733433237
vn -0.908986570701136 -0.416081711393296 -0.0248882247059667
vn -0.453625550261781 -0.438829486247787 -0.775662647127732
vn -0.00728813240499017 -0.392166649609526 -0.91986531734819
vn 0.291350461038464 -0.715836789638355 -0.63458064850177
vn 0.902923531888476 -0.428749220613952 -0.0300533090519137
vn -0.0505648013455791 -0.985812915039215 -0.160050296490721
vn -0.050565138009507 -0.985812898597725 -0.160050291397523
vn -0.0505644646816455 -0.985812931480593 -0.160050301583901
vn 0.553326529630167 0.620892803675931 -0.555267393199779
vn 0.229432123057533 0.582978714744728 -0.779420758681662
vn 0.782276199967957 0.617241898025621 0.0840022992865171
vn 0.372763103835201 0.681492275518149 0.629774520624837
vn -0.375198243788676 0.678782748502432 0.631252927275095
vn -0.787373185338686 0.610653540227147 0.0845323655037672
vn -0.795354300917536 0.55435162379789 -0.245164869434062
vn 0.27028711513517 -0.589985763491848 0.760829596078418
g collision collisions West_SombreroYEllow
f 1//1 2//1 3//1 4//1
f 4//2 3//2 5//2 6//2
f 7//3 8//3 2//3 1//3
f 2//4 8//4 5//4 3//4
f 7//5 1//5 4//5 6//5
g hat SombreroYellow West_SombreroYEllow
f 9/1/6 10/2/7 11/3/8 12/4/9
f 13/5/10 9/1/6 12/4/9 14/6/11
f 15/7/12 13/5/10 14/6/11 16/8/13
f 17/9/14 15/7/12 16/8/13 18/10/15
f 19/11/16 17/9/14 18/10/15 20/12/17
f 21/13/18 19/11/16 20/12/17 22/14/19
f 12/4/9 11/3/8 23/15/20 24/16/21
f 14/6/11 12/4/9 24/16/21 25/17/22
f 16/8/13 14/6/11 25/17/22 26/18/23
f 18/10/15 16/8/13 26/18/23 27/19/24
f 20/12/17 18/10/15 27/19/24 28/20/25
f 22/14/19 20/12/17 28/20/25 29/21/26
f 10/2/7 9/1/6 30/22/27 31/23/28
f 9/1/6 13/5/10 32/24/29 30/22/27
f 13/5/10 15/7/12 33/25/30 32/24/29
f 15/7/12 17/9/14 34/26/31 33/25/30
f 17/9/14 19/11/16 35/27/32 34/26/31
f 19/11/16 21/13/18 36/28/33 35/27/32
f 37/29/34 31/23/35 30/22/36
f 30/22/36 32/24/37 38/30/38 37/29/34
f 32/24/37 33/25/39 39/31/40 38/30/38
f 33/25/39 34/26/41 40/32/42 39/31/40
f 34/26/41 35/27/43 41/33/44 40/32/42
f 35/27/43 36/28/45 42/34/46 41/33/44
f 42/34/47 37/29/34 43/35/48 44/36/49
f 37/29/34 38/30/38 45/37/50 43/35/48
f 38/30/38 39/31/40 46/38/51 45/37/50
f 39/31/52 40/32/42 47/39/53 46/38/51
f 40/32/42 41/33/44 48/40/54 47/39/53
f 41/33/44 42/34/46 44/36/49 48/40/54
f 21/13/18 10/2/7 31/23/28 36/28/33
f 11/3/8 10/2/7 21/13/18 22/14/19
f 23/15/20 11/3/8 22/14/19 29/21/26
f 44/36/55 43/35/56 45/37/56 46/38/55
f 46/38/55 47/39/53 48/40/57 44/36/55
f 36/28/45 31/23/35 42/34/46
f 42/34/47 31/23/35 37/29/34
g inside SombreroYellow West_SombreroYEllow
f 49/41/58 50/42/59 51/43/58
f 52/44/60 49/41/58 51/43/58
f 53/45/61 52/44/60 51/43/61
f 54/46/62 53/45/61 51/43/61
f 55/47/63 54/46/62 51/43/63
f 56/48/64 55/47/63 51/43/63
f 56/48/65 50/42/65 51/43/65
