v 6.83051226000604e-05 0.00705092833511893 0.00318033669002322
v 6.83047559376295e-05 0.00224960995088917 0.00331863584812183
v 6.83003559884581e-05 0.00193332864286307 0.00450019809933109
v 6.82998059948116e-05 0.00663651436039701 0.00468408778490109
v 0.00664703716619277 0.00639829092569267 0.0163188636242992
v 0.00567430630326271 0.0061872532267471 0.0145180632606749
v 0.00417584788024895 0.00432770449904465 0.0147947654524302
v 0.00567833739002858 0.00417803094654451 0.0180258381854421
v 0.0080882584837478 0.00246263533768501 0.0178486360990861
v 0.00557334946952467 0.00290089555821798 0.0134564551064092
v 0.00707180789253843 0.00476044570259528 0.0131797532942507
v 0.00905695715992469 0.00468289536768951 0.0161416585147951
v 0.00895093305139091 0.0138560026454878 0.0180055760594842
v 0.00812899101320214 0.0136501951751125 0.0209193727178694
v 0.00906532512992386 0.00647969179742488 0.0206770310193599
v 0.00979776780201694 0.00737088994416307 0.0177863982698505
v 0.00605639238937164 0.0135064593897844 0.01716437684781
v 0.00681372887388928 0.00770673725915311 0.0169683644571256
v 0.0052344507178453 0.0133006514595709 0.0200781749013695
v 0.00608128620179619 0.00681553894804465 0.0198589964033984
v 0.00297038793915839 0.010236130775814 0.00868034274095783
v 0.0010863404746688 0.0104192869339852 0.00505688551166769
v 0.000553084372388799 0.00909517661930351 0.00605383537144305
v 0.00169397148443019 0.00871622788817244 0.00886921954606613
v 0.00195046835468979 0.00805956042351716 0.00597411052181612
v 0.00248372459446821 0.00938367073226767 0.00497716068417631
v 0.00410727137245062 0.00907684554198144 0.00752337613994467
v 0.00283085510105364 0.0075569427017895 0.0077122527679686
v 0.00148641451547934 0.00188838132803811 0.00466913376879258
v 0.00148641451547934 0.00220858715268164 0.0034729193554725
v 0.00201269298586554 0.00692500846446436 0.00360741313083767
v 0.00177523377901456 0.00651059439484322 0.00511116457988425
v 0.00791395963059635 0.0149753472134296 0.0185786022309812
v 0.00748654930141028 0.0148683276183087 0.0200937757813444
v 0.00640879788501995 0.0147935850522325 0.0181411775758332
v 0.00598138975580846 0.0146865649004304 0.0196563524954217
v 0.00772060166428408 0.0164560905113366 0.0186286462067031
v 0.00729319133509801 0.0163490707391314 0.0201438197096167
v 0.0062154402853701 0.0162743292355612 0.0181912217888032
v 0.00578803178949619 0.0161673089066748 0.019706396660942
v 0.0069649551269107 0.0147130555683341 0.0191018810962703
v 6.83161224729889e-05 -0.000278010403359699 0.00446920294299134
v 6.82281234895607e-05 1.38919198294446e-05 0.0033795253070328
v 6.83051226000602e-05 0.00705092923473441 0.000227581046354027
v 6.83047559376292e-05 0.00224960518380526 0.000365878686065112
v 6.83003559884578e-05 0.00193332389950397 0.00154744084873219
v 6.82998059948114e-05 0.00663651526001249 0.00173133214123189
v 0.00664703716619277 0.00639829092569266 0.0120537717607822
v 0.00567430630326271 0.00618725322674709 0.0102529713971578
v 0.00417584788024895 0.00432770449904464 0.0105296735889132
v 0.00567833739002858 0.0041780309465445 0.013760746321925
v 0.0080882584837478 0.00246263533768501 0.013583544235569
v 0.00557334946952467 0.00290089555821798 0.00919136324289213
v 0.00707180789253843 0.00476044570259528 0.00891466143073368
v 0.00905695715992469 0.00468289536768951 0.011876566651278
v 0.00895093305139091 0.0138560026454878 0.0137404841959671
v 0.00812899101320214 0.0136501951751125 0.0166542808543524
v 0.00906532512992386 0.00647969179742488 0.0164119391558428
v 0.00979776780201694 0.00737088994416307 0.0135213064063334
v 0.00605639238937164 0.0135064593897844 0.012899284984293
v 0.00681372887388928 0.00770673725915311 0.0127032725936085
v 0.0052344507178453 0.0133006514595709 0.0158130830378525
v 0.00608128620179619 0.00681553894804465 0.0155939045398813
v 0.00297038793915839 0.0102361316517046 0.00572758718583081
v 0.0010863404746688 0.0104192878336007 0.00210412986799849
v 0.000553084372388799 0.00909517752781579 0.00310107969457053
v 0.00169397148443019 0.00871622881151273 0.00591646381385474
v 0.00195046835468979 0.00805956132609824 0.00302135486707915
v 0.00248372459446821 0.00938367163188314 0.00202440504050711
v 0.00410727137245062 0.00907684646532171 0.00457062040773329
v 0.00283085510105364 0.00755694357768018 0.00475949721284158
v 0.00148641451547934 0.001888376584679 0.00171637651819368
v 0.00148641451547934 0.00220858238559773 0.000520162193415783
v 0.00201269298586554 0.00692500936407984 0.000654657487168475
v 0.00177523377901456 0.0065105953181835 0.00215840884767287
v 0.00791395963059635 0.0149753472134296 0.0143135103674641
v 0.00748654930141028 0.0148683276183087 0.0158286839178273
v 0.00640879788501995 0.0147935850522325 0.0138760857123162
v 0.00598138975580846 0.0146865649004304 0.0153912606319046
v 0.00772060166428408 0.0164560905113366 0.014363554343186
v 0.00729319133509801 0.0163490707391314 0.0158787278460996
v 0.0062154402853701 0.0162743292355612 0.0139261299252861
v 0.00578803178949619 0.0161673089066748 0.0154413047974249
v 0.0069649551269107 0.0147130555683341 0.0148367892327532
v 6.83161224729887e-05 -0.000278015158581205 0.00151644573666353
v 6.82281234895605e-05 1.38871646079382e-05 0.000426768100704986
vt 0.665265202522278 -0.00112659484148026
vt 0.886325299739838 0.058072105050087
vt 0.886310577392578 0.110685303807259
vt 0.66579806804657 0.0659655556082726
vt 0.519962430000305 0.739222884178162
vt 0.552143394947052 0.642594695091248
vt 0.634985625743866 0.637580335140228
vt 0.601759314537048 0.810806155204773
vt 0.683556139469147 0.882389605045319
vt 0.717827916145325 0.632565915584564
vt 0.634985625743866 0.637580275535583
vt 0.152956873178482 0.783492922782898
vt 0.126279786229134 0.886435806751251
vt 0.462001472711563 0.979448437690735
vt 0.456588715314865 0.867615044116974
vt 0.179633975028992 0.6805499792099
vt 0.451175928115845 0.755781531333923
vt 0.152956888079643 0.783492922782898
vt 0.449092775583267 0.26807501912117
vt 0.485643923282623 0.0646238327026367
vt 0.534687340259552 0.107543781399727
vt 0.517267465591431 0.261144608259201
vt 0.583730757236481 0.150463744997978
vt 0.585442125797272 0.254214197397232
vt 0.886295735836029 0.15342253446579
vt 0.886310577392578 0.100156769156456
vt 0.66579806804657 0.0663070976734161
vt 0.666330993175507 0.127502262592316
vt 0.093895398080349 0.769087314605713
vt 0.080023318529129 0.822617530822754
vt 0.107767499983311 0.715556859970093
vt 0.433968245983124 0.49692314863205
vt 0.440239518880844 0.0963090658187866
vt 0.313612639904022 0.21462407708168
vt 0.311030238866806 0.379615664482117
vt 0.0159192532300949 0.0980215221643448
vt 0.138857871294022 0.215329751372337
vt 0.00964865460991859 0.49863588809967
vt 0.136275082826614 0.380321055650711
vt 0.224943995475769 0.297472357749939
vt 0.989301264286041 0.134016498923302
vt 0.989304780960083 0.0854900851845741
vn -0.991157357431981 0.132156095841297 -0.0119104634854278
vn -0.999999999993452 -1.92984588212502e-09 -3.61893131151821e-06
vn -0.886768126755765 0.453866662296501 0.0874490836195867
vn -0.645335384442979 0.58058629554326 0.496449186738368
vn 0.849531906454372 -0.499738529426119 -0.168987994020344
vn 0.594956150040845 -0.572717134889243 -0.563934626470863
vn 0.890934883469945 0.360059986524977 0.276752307162973
vn 0.972219949976181 -0.107769757528721 0.207783657274851
vn 0.226632651449077 0.329240553330117 -0.916645132720422
vn 0.273939216619561 0.255258986723956 -0.927254094245218
vn 0.414805229692143 0.64835978578592 -0.638409123991571
vn 0.657756081924337 0.742610755440321 -0.126040479989172
vn -0.953902175746565 0.152834147663302 -0.2582873640231
vn -0.969847502446755 0.0694008689657127 -0.233622219372634
vn -0.294664940532046 0.182896833556553 0.937934603848388
vn -0.288139768403888 -0.29610432738304 0.910657839789013
vn -0.45411401717427 -0.694541256494893 0.558025897635891
vn -0.684316492201681 -0.727472768943935 0.0499430570332914
vn -0.633622786475919 0.579375010834045 0.512685830972089
vn -0.871362531162395 0.453471285045813 0.187326273985161
vn 0.869858913028853 -0.455420407573295 -0.189572476351492
vn 0.582029492412505 -0.567326139430408 -0.582565637058204
vn 0.673249814296971 0.735017807510826 -0.0805202470877555
vn 0.433563154644513 0.660227130518115 -0.613288779501561
vn -0.703043309240496 -0.71110475925382 -0.00775414074799373
vn -0.488246908514741 -0.678576549051049 0.548770282908766
vn 0.945652081149372 -0.322538306590097 -0.0413664380851748
vn 0.981824707469942 -0.161441172325826 0.0997847266851262
vn 0.209733674478602 0.213384987875972 -0.954190040159126
vn 0.138689732251119 -0.0184393596400081 -0.990164202637209
vn -0.229681580307723 -0.253578052471045 0.939651287963965
vn -0.154582944787892 -0.036933916146605 0.987289217513682
vn 0.890934737132294 0.360060191491262 0.276752511595262
vn 0.226633027272459 0.329240440664066 -0.916645080268613
vn -0.953902313990058 0.152834058117951 -0.258286906450195
vn -0.294665078105964 0.182897032335972 0.937934521865733
vn 0.953878596287096 0.115190270948144 0.277212598963779
vn 0.270866779825489 0.0678225192101314 -0.960224605743344
vn -0.953879010318767 -0.115190139927796 -0.277211228734886
vn -0.270866291027344 -0.0678224710342467 0.960224747029516
vn -0.913569122863008 0.3324619088643 -0.234223262947174
vn -0.300190764425532 0.368960470383974 0.879632693939721
vn 0.800486195375887 0.538165689176166 0.26381725115348
vn 0.185130615534877 0.501204036692446 -0.845293540017239
vn 0.834083329301137 -0.53285681961512 -0.14271863778635
vn 0.107343350527421 -0.0270711334059843 -0.99385338900346
vn -0.118714056979433 -0.0139168266664914 0.99283094966415
vn -0.991157357417883 0.132156095894092 -0.0119104640728119
vn -0.999999999993452 -1.9286545742187e-09 -3.61893110667285e-06
vn -0.615332669129443 0.563289299653448 0.551426215551967
vn 0.560226103443069 -0.551708487189855 -0.617870907377648
vn 0.662612098207064 0.73960016484866 -0.118054239506537
vn -0.690180398797948 -0.722591113004844 0.0388985927962229
vn -0.602793526758314 0.561402840742172 0.566980435733803
vn -0.871362534249217 0.453471279087845 0.187326274049361
vn 0.869858908547118 -0.455420417640172 -0.189572472731851
vn 0.546389339855259 -0.545457068040757 -0.635559026540349
vn 0.677779248270209 0.73168515975572 -0.0724714951378601
vn 0.433563147040436 0.660227139458392 -0.613288775252721
vn -0.708311193586281 -0.705649052932873 -0.0188326082983045
vn -0.488246906593236 -0.678576549173401 0.548770284467058
vn 0.945652095845652 -0.32253826542545 -0.0413664230876667
vn 0.981824712397684 -0.161441131801005 0.0997847437638398
vn 0.209733674923371 0.213385146811936 -0.95419000451859
vn 0.138689740890105 -0.0184391872303503 -0.990164204637857
vn -0.229681557928147 -0.253578183192898 0.939651258157136
vn -0.154582936630288 -0.0369340341253809 0.987289214377419
vn 0.83408332930134 -0.532856819615403 -0.142718637784105
vn 0.107343351142823 -0.0270711138822957 -0.993853389468789
vn -0.118714056388951 -0.0139168067202289 0.992830950014348
g extrudedSurface1
f 1/1/1 2/2/2 3/3/2 4/4/1
f 5/5/3 6/6/4 7/7/4 8/8/3
f 9/9/5 10/10/6 11/11/6 12/8/5
f 13/12/7 14/13/7 15/14/8 16/15/8
f 17/16/9 13/12/9 16/15/10 18/17/10
f 15/14/8 9/9/5 12/8/5 16/15/8
f 12/8/11 5/5/11 18/17/10 16/15/10
f 11/11/12 6/6/12 5/5/11 12/8/11
f 19/18/13 17/16/13 18/17/14 20/15/14
f 14/13/15 19/18/15 20/15/16 15/14/16
f 18/17/14 5/5/3 8/8/3 20/15/14
f 8/8/17 9/9/17 15/14/16 20/15/16
f 7/7/18 10/10/18 9/9/17 8/8/17
f 21/19/19 22/20/20 23/21/20 24/22/19
f 25/23/21 26/21/21 27/22/22 28/24/22
f 11/11/6 10/10/6 28/24/22 27/22/22
f 21/19/23 6/6/12 11/11/12 27/22/23
f 26/21/24 22/20/24 21/19/23 27/22/23
f 6/6/4 21/19/19 24/22/19 7/7/4
f 24/22/25 28/24/25 10/10/18 7/7/18
f 23/21/26 25/23/26 28/24/25 24/22/25
f 29/25/27 30/26/27 31/27/28 32/28/28
f 26/21/21 25/23/21 32/28/28 31/27/28
f 1/1/29 22/20/24 26/21/24 31/27/29
f 30/26/30 2/2/30 1/1/29 31/27/29
f 22/20/20 1/1/1 4/4/1 23/21/20
f 4/4/31 32/28/31 25/23/26 23/21/26
f 3/3/32 29/25/32 32/28/31 4/4/31
f 14/13/7 13/12/7 33/29/33 34/30/33
f 13/12/9 17/16/9 35/31/34 33/29/34
f 17/16/13 19/18/13 36/29/35 35/31/35
f 19/18/15 14/13/15 34/30/36 36/29/36
f 34/32/33 33/33/33 37/34/37 38/35/37
f 33/33/34 35/36/34 39/37/38 37/34/38
f 35/36/35 36/38/35 40/39/39 39/37/39
f 36/38/36 34/32/36 38/35/40 40/39/40
f 38/35/41 37/34/41 41/40/41
f 37/34/42 39/37/42 41/40/42
f 39/37/43 40/39/43 41/40/43
f 40/39/44 38/35/44 41/40/44
f 30/26/27 29/25/27 42/41/45 43/42/45
f 2/2/30 30/26/30 43/42/46
f 29/25/32 3/3/32 42/41/47
g extrudedSurface2
f 44/1/48 45/2/49 46/3/49 47/4/48
f 48/5/3 49/6/50 50/7/50 51/8/3
f 52/9/5 53/10/51 54/11/51 55/8/5
f 56/12/7 57/13/7 58/14/8 59/15/8
f 60/16/9 56/12/9 59/15/10 61/17/10
f 58/14/8 52/9/5 55/8/5 59/15/8
f 55/8/11 48/5/11 61/17/10 59/15/10
f 54/11/52 49/6/52 48/5/11 55/8/11
f 62/18/13 60/16/13 61/17/14 63/15/14
f 57/13/15 62/18/15 63/15/16 58/14/16
f 61/17/14 48/5/3 51/8/3 63/15/14
f 51/8/17 52/9/17 58/14/16 63/15/16
f 50/7/53 53/10/53 52/9/17 51/8/17
f 64/19/54 65/20/55 66/21/55 67/22/54
f 68/23/56 69/21/56 70/22/57 71/24/57
f 54/11/51 53/10/51 71/24/57 70/22/57
f 64/19/58 49/6/52 54/11/52 70/22/58
f 69/21/59 65/20/59 64/19/58 70/22/58
f 49/6/50 64/19/54 67/22/54 50/7/50
f 67/22/60 71/24/60 53/10/53 50/7/53
f 66/21/61 68/23/61 71/24/60 67/22/60
f 72/25/62 73/26/62 74/27/63 75/28/63
f 69/21/56 68/23/56 75/28/63 74/27/63
f 44/1/64 65/20/59 69/21/59 74/27/64
f 73/26/65 45/2/65 44/1/64 74/27/64
f 65/20/55 44/1/48 47/4/48 66/21/55
f 47/4/66 75/28/66 68/23/61 66/21/61
f 46/3/67 72/25/67 75/28/66 47/4/66
f 57/13/7 56/12/7 76/29/33 77/30/33
f 56/12/9 60/16/9 78/31/34 76/29/34
f 60/16/13 62/18/13 79/29/35 78/31/35
f 62/18/15 57/13/15 77/30/36 79/29/36
f 77/32/33 76/33/33 80/34/37 81/35/37
f 76/33/34 78/36/34 82/37/38 80/34/38
f 78/36/35 79/38/35 83/39/39 82/37/39
f 79/38/36 77/32/36 81/35/40 83/39/40
f 81/35/41 80/34/41 84/40/41
f 80/34/42 82/37/42 84/40/42
f 82/37/43 83/39/43 84/40/43
f 83/39/44 81/35/44 84/40/44
f 73/26/62 72/25/62 85/41/68 86/42/68
f 45/2/65 73/26/65 86/42/69
f 72/25/67 46/3/67 85/41/70
