v 1.13565061937346 0.274440210663184 0
v 1.36535229588998 0.329949691675628 1.42097403488192
v 0.968420962906929 -1.01745492751832 1.42097403488192
v 0.805497503941001 -0.846282180869357 0
v 0.33015311543246 1.12072239153254 0
v 0.396931332983055 1.34740461919395 1.42097403488192
v -0.805497503941001 0.846282180869357 0
v -0.968420962906929 1.01745492751832 1.42097403488192
v -1.13565061937346 -0.274440210663184 0
v -1.36535229588998 -0.329949691675628 1.42097403488192
v -0.330153115432459 -1.12072239153254 0
v -0.396931332983055 -1.34740461919395 1.42097403488192
vt 0.445652931928635 0
vt 0.445652931928635 0.438082754611969
vt 0.187516823410988 0.438082754611969
vt 0.187516823410988 0
vt 0.703788995742798 0
vt 0.703788995742798 0.438082754611969
vt 0.961925148963928 0
vt 0.961925148963928 0.438082754611969
vt 1.22006118297577 0
vt 1.22006118297577 0.438082754611969
vt 1.4781973361969 0
vt 1.4781973361969 0.438082754611969
vt 1.73633337020874 0
vt 1.73633337020874 0.438082754611969
vt 0.0322086438536644 0.42039555311203
vt 0.206287547945976 0.874162495136261
vt 0.686300694942474 0.950289189815521
vt 0.992234945297241 0.572649002075195
vt 0.818156003952026 0.118882060050964
vt 0.338142871856689 0.0427553467452526
vn 0.958851109279115 0.231715015107698 -0.164050912852838
vn 0.680096644161119 -0.714531911528754 -0.164050912852838
vn 0.278754465117996 0.946246926636452 -0.164050912852838
vn -0.680096644161119 0.714531911528754 -0.164050912852838
vn -0.958851109279115 -0.231715015107698 -0.164050912852838
vn -0.278754465117996 -0.946246926636452 -0.164050912852838
vn 0.278754465117996 0.946246926636452 0.164050912852838
vn -0.680096644161119 0.714531911528754 0.164050912852838
vn 0.958851109279115 0.231715015107698 0.164050912852838
vn 0.680096644161119 -0.714531911528753 0.164050912852838
vn -0.278754465117996 -0.946246926636452 0.164050912852838
vn -0.958851109279115 -0.231715015107698 0.164050912852838
vn 0 0 -1
g o11 large_half_barrel
f 1/1/1 2/2/1 3/3/2 4/4/2
f 5/5/3 6/6/3 2/2/1 1/1/1
f 7/7/4 8/8/4 6/6/3 5/5/3
f 9/9/5 10/10/5 8/8/4 7/7/4
f 11/11/6 12/12/6 10/10/5 9/9/5
f 4/13/2 3/14/2 12/12/6 11/11/6
g o10 large_half_barrel
f 11/11/7 12/12/7 3/14/8 4/13/8
f 9/9/9 10/10/9 12/12/7 11/11/7
f 7/7/10 8/8/10 10/10/9 9/9/9
f 5/5/11 6/6/11 8/8/10 7/7/10
f 1/1/12 2/2/12 6/6/11 5/5/11
f 4/4/8 3/3/8 2/2/12 1/1/12
f 9/15/13 7/16/13 5/17/13 1/18/13 4/19/13 11/20/13
