v 1.9799999677603 3.40347990902077 1.59869995017064
v 3.9599999355206 -1.93715001228574e-07 1.59869995017064
v 2.27545996043716e-08 -1.93715001228574e-07 1.59869995017064
v 1.9799999677603 3.40347990902077 12.9996001876871
v 3.9599999355206 -1.93715001228574e-07 12.9996001876871
v 3.17635989251973e-08 -1.93715001228574e-07 12.9996001876871
v -1.9799999677603 3.40347990902077 1.59869995017064
v -1.9799999677603 3.40347990902077 12.9996001876871
v -3.9599999355206 -9.68574976303805e-07 1.59869995017064
v -3.9599999355206 -9.68574976303805e-07 12.9996001876871
v -1.9799999677603 -3.40347990902077 1.59869995017064
v -1.9799999677603 -3.40347990902077 12.9996001876871
v 1.9799999677603 -3.40347990902077 1.59869995017064
v 1.9799999677603 -3.40347990902077 12.9996001876871
vt 0.625266015529633 0.127113997936249
vt 0.500353991985321 0.132110998034477
vt 0.750177025794983 4.1723301364982e-06
vt 0.625266015529633 0.872889995574951
vt 0.500355005264282 0.872159004211426
vt 0.750177979469299 0.9999960064888
vt 0.875087976455688 0.127110004425049
vt 0.87508898973465 0.872886002063751
vt 0.999998986721039 0.127840995788574
vt 1 0.872151017189026
vt 0.12491100281477 0.127112999558449
vt 0 0.127846002578735
vt 0.249823004007339 4.1723301364982e-06
vt 3.57628010760891e-07 0.872156023979187
vt 0.12491200119257 0.87288898229599
vt 0.249823004007339 0.9999960064888
vt 0.37473401427269 0.127111002802849
vt 0.37473401427269 0.872887015342712
vt 0.499644994735718 0.132104992866516
vt 0.499646008014679 0.872153997421265
vn 0 0 -1
vn 0.864371166589689 0.502854339116587 0
vn 0.652870970854164 0.757469138259732 0
vn 0.86437115151791 0.502854365023913 0
vn 0.326435485923456 0.945219484315636 0
vn 0 0 1
vn -0.498570793148456 0.866848985821244 0
vn -0.498570837937005 0.866848960060974 0
vn -0.864371222640562 0.502854242769076 0
vn -0.864371192497014 0.502854294583719 0
vn -0.864371099703254 -0.502854454089637 0
vn -0.652870877702906 -0.757469218547814 0
vn -0.864371088867712 -0.502854472715165 0
vn -0.326435459296871 -0.945219493511238 0
vn 0.498570793148456 -0.866848985821244 0
vn 0.49857077075418 -0.866848998701379 0
vn 0.864371140682364 -0.50285438364945 0
g TheRedTapeTube redtape_tube redtape_tube
f 1/1/1 2/2/1 3/3/1
f 2/2/2 4/4/3 5/5/4
f 2/2/2 1/1/5 4/4/3
f 5/5/6 4/4/6 6/6/6
f 7/7/1 1/1/1 3/3/1
f 1/1/5 8/8/7 4/4/3
f 1/1/5 7/7/8 8/8/7
f 4/4/6 8/8/6 6/6/6
f 9/9/1 7/7/1 3/3/1
f 7/7/8 9/9/9 8/8/7
f 9/9/9 10/10/10 8/8/7
f 8/8/6 10/10/6 6/6/6
f 11/11/1 9/12/1 3/13/1
f 9/12/11 11/11/12 10/14/13
f 11/11/12 12/15/14 10/14/13
f 10/14/6 12/15/6 6/16/6
f 13/17/1 11/11/1 3/13/1
f 11/11/12 13/17/15 12/15/14
f 13/17/15 14/18/16 12/15/14
f 12/15/6 14/18/6 6/16/6
f 2/19/1 13/17/1 3/13/1
f 13/17/15 5/20/17 14/18/16
f 13/17/15 2/19/17 5/20/17
f 14/18/6 5/20/6 6/16/6
