v -0.75359281905367 0 0.000767038250219791
v 0.75359281905367 0 0.000767038250219791
v 0.75359281905367 0 1.5079528328002
v -0.75359281905367 0 1.5079528328002
v -1.47551075992935 0 1.50178974381895
v 0.799885321789839 0 1.50178974381895
v 0.799885321789839 0 3.01249020994492
v -1.47551075992935 0 3.01249020994492
vt 0.331758081912994 0.00395619496703148
vt 0.915822625160217 0.00395619496703148
vt 0.915822625160217 0.538504540920258
vt 0.331758081912994 0.534548401832581
vt 0.00510038016363978 0.542716085910797
vt 0.992671608924866 0.542716085910797
vt 0.992671608924866 0.995984733104706
vt 0.00510038016363978 0.995984733104706
vn 0 -1 0
g pedistal group1
f 1/1/1 2/2/1 3/3/1 4/4/1
g watering_can group1
f 5/5/1 6/6/1 7/7/1 8/8/1
