v -7.37024232221281 22.1108108116271 30.0000028034521
v -7.37024232221281 37.1107851800655 30.0000028034521
v 7.62974706471868 37.1107851800655 30.0000028034521
v 7.62975307211595 22.1108108116271 30.0000028034521
v -22.3702491065094 -22.8892086520094 30.0000008009863
v -22.3702491413747 -7.88920200415369 30.0000028034521
v -7.37024232221281 -7.88920200415369 30.0000028034521
v -7.37024232221281 -22.8892193318319 30.0000028034521
v 7.62976308444473 -7.88920200415369 30.0000028034521
v 7.62976308444473 -22.8891979721927 30.0000028034521
v 22.629737452883 -7.88920200415369 30.0000028034521
v 22.629737452883 -22.8891766125583 30.0000008009863
v -22.3702491413747 7.11083644318883 30.0000028034521
v -7.37024232221281 7.11083644318883 30.0000028034521
v 7.62976308444473 7.11083644318883 30.0000028034521
v 22.629737452883 7.11083644318883 30.0000028034521
v -22.3702491362397 22.1108108116271 30.0000028034521
v 22.629737452883 22.1108108116271 30.0000028034521
v 22.629737452883 7.11083644318883 -7.88423889021761e-07
v 22.629737452883 7.11083644318883 15.0000004004932
v 22.629737452883 22.1108108116271 15.0000004004932
v 22.629737452883 22.1108108116271 -7.77658431788019e-07
v 22.629737452883 -7.88920200415369 -7.88423889021761e-07
v 22.629737452883 -7.88920200415369 15.0000004004932
v 22.629737452883 -22.8891766125577 -1.06340173458964e-06
v 22.629737452883 -22.889176612558 15.0000004004932
v -22.3702492015896 22.1108108116271 -7.91828645696666e-07
v -22.3702492047996 22.1108108116271 15.0000004004932
v -22.3702491413747 7.11083644318883 15.0000004004932
v -22.3702491413747 7.11083644318883 -7.88423889021761e-07
v -22.3702491413747 -7.88920200415369 15.0000004004932
v -22.3702491413747 -7.88920200415369 -7.88423889021761e-07
v -22.3702490336019 -22.8892086520094 15.0000004004932
v -22.3702488910322 -22.8892086520094 -2.51375503206792e-07
v 7.62974706471868 22.1108108116271 2.70512560779703e-06
v 7.62974706471868 22.1108108116271 15.0000024029589
v 7.62973104499263 37.1107851800655 15.0000044054247
v 7.62973104499263 37.1107851800655 7.22143901655636e-06
v -7.37024232221281 37.1107851800655 -7.88423889021761e-07
v -7.37024232221281 37.1107851800655 15.0000004004932
v -7.37024232221281 22.1108148165587 15.0000004004932
v -7.37024232221281 22.1108148165587 -7.85019132346856e-07
v 7.62973104499263 -22.8892086520094 15.0000004004932
v -7.37024232221281 -22.8892406914615 15.0000004004932
v 7.62974706471868 -22.8892086520094 -4.20100018930538e-08
v -7.37024232221281 -22.8892406914615 2.05557380157909e-07
v -22.3702492077578 22.1108108116271 1.01874864799535e-07
v -22.3702489364334 7.11083844565458 1.01874864799535e-07
v -7.37024232221281 7.11083644318883 1.01874864799535e-07
v -7.37024232221281 22.1108108116271 3.46203753445878e-07
v 7.62976308444473 7.11083644318883 1.01874864799535e-07
v 7.62976308444473 22.1108108116271 1.01874864799535e-07
v 22.629737452883 7.11083644318883 1.01874864799535e-07
v 22.629737452883 22.1108108116271 1.01874864799535e-07
v -22.3702488660893 -7.88920100292081 1.01874864799535e-07
v -7.37024232221281 -7.88920100292081 1.01874864799535e-07
v 7.62976308444473 -7.88920200415369 1.01874864799535e-07
v 22.629737452883 -7.88920200415369 1.01874864799535e-07
v -22.3702491413747 -22.8891769882982 1.01874864799535e-07
v -7.37024232221281 -22.8891767132837 1.01874864799535e-07
v 7.62976308444473 -22.8891763302715 1.01874864799535e-07
v 22.629737452883 -22.8891765999377 1.01874864799535e-07
v -7.37024232221281 37.1107851800655 1.30891296634829e-07
v 7.62976308444473 37.1107851800655 1.01874864799535e-07
v -16.8958809119197 12.8500870832308 29.7777886782034
v -16.8958809119197 16.0489720622386 29.7777886782034
v -13.6969939304462 16.0489720622386 29.7777886782034
v -13.6969939304462 12.8500870832308 29.7777886782034
v -16.8958809119197 5.48661349639492 29.7777886782034
v -16.8958809119197 8.68549897601911 29.7777886782034
v -13.6969939304462 8.68549897601911 29.7777886782034
v -13.6969939304462 5.48661349639492 29.7777886782034
v -16.8958809119197 -2.17992327031814 29.7777886782034
v -16.8958809119197 1.01896170868961 29.7777886782034
v -13.6969939304462 1.01896170868961 29.7777886782034
v -13.6969939304462 -2.17992327031814 29.7777886782034
v -16.8958809119197 -9.74840279326351 29.7777886782034
v -16.8958809119197 -6.54951681302288 29.7777886782034
v -13.6969939304462 -6.54951681302288 29.7777886782034
v -13.6969939304462 -9.74840279326351 29.7777886782034
v -16.8958809119197 -17.2744470631357 29.7777886782034
v -16.8958809119197 -14.0755640865937 29.7777886782034
v -13.6969939304462 -14.0755640865937 29.7777886782034
v -13.6969939304462 -17.2744470631357 29.7777886782034
v -1.63734516133786 -17.2744470631357 29.7777886782034
v -1.63734516133786 -14.0755640865937 29.7777886782034
v 1.56154081890276 -14.0755640865937 29.7777886782034
v 1.56154081890276 -17.2744470631357 29.7777886782034
v -1.63734516133786 -9.74840279326351 29.7777886782034
v -1.63734516133786 -6.54951681302288 29.7777886782034
v 1.56154081890276 -6.54951681302288 29.7777886782034
v 1.56154081890276 -9.74840279326351 29.7777886782034
v -1.63734516133786 -2.17992327031814 29.7777886782034
v -1.63734516133786 1.01896170868961 29.7777886782034
v 1.56154081890276 1.01896170868961 29.7777886782034
v 1.56154081890276 -2.17992327031814 29.7777886782034
v -1.63734516133786 5.48661349639492 29.7777886782034
v -1.63734516133786 8.68549897601911 29.7777886782034
v 1.56154081890276 8.68549897601911 29.7777886782034
v 1.56154081890276 5.48661349639492 29.7777886782034
v -1.63734516133786 12.8500870832308 29.7777886782034
v -1.63734516133786 16.0489720622386 29.7777886782034
v 1.56154081890276 16.0489720622386 29.7777886782034
v 1.56154081890276 12.8500870832308 29.7777886782034
v 13.2942139633059 12.8500870832308 29.7777906806692
v 13.2942139633059 16.0489730634714 29.7777906806692
v 16.4930989423136 16.0489730634714 29.7777906806692
v 16.4930989423136 12.8500870832308 29.7777906806692
v 13.294212962073 5.48661349639492 29.7777886782034
v 13.294212962073 8.68549897601911 29.7777886782034
v 16.4930989423136 8.68549897601911 29.7777886782034
v 16.4930989423136 5.48661349639492 29.7777886782034
v 13.294212962073 -2.17992327031814 29.7777886782034
v 13.294212962073 1.01896170868961 29.7777886782034
v 16.4930989423136 1.01896170868961 29.7777886782034
v 16.4930989423136 -2.17992327031814 29.7777886782034
v 13.294212962073 -9.74840279326351 29.7777886782034
v 13.294212962073 -6.54951681302288 29.7777886782034
v 16.4930989423136 -6.54951681302288 29.7777886782034
v 16.4930989423136 -9.74840279326351 29.7777886782034
v 13.294212962073 -17.2744470631357 29.7777886782034
v 13.294212962073 -14.0755640865937 29.7777886782034
v 16.4930989423136 -14.0755640865937 29.7777886782034
v 16.4930989423136 -17.2744470631357 29.7777886782034
v -1.63734516133786 20.4132378808672 29.7777886782034
v -1.63734516133786 23.6121228598749 29.7777886782034
v 1.56154081890276 23.6121228598749 29.7777886782034
v 1.56154081890276 20.4132378808672 29.7777886782034
v -1.63734516133786 28.091088657354 29.7777886782034
v -1.63734516133786 31.2899736363617 29.7777886782034
v 1.56154081890276 31.2899736363617 29.7777886782034
v 1.56154081890276 28.091088657354 29.7777886782034
v -7.37024031974706 36.9808171426229 29.999568268383
v 7.6297550745817 36.9808171426229 29.9995642634514
v 22.629737452883 -22.889176612558 14.9999993992603
v 22.629737452883 22.1108108116271 15.000001401726
v -22.3702491689147 22.1108108116271 15.000001401726
v -22.3702489987708 -22.8892086520094 15.0000004004932
v 7.62975106965019 22.1108108116271 15.0000024029589
v 7.6297550745817 37.0308147076245 15.0004028961102
v 7.62976708937624 37.1080097625273 -1.70584578003509e-05
v -7.3702062778292 37.0857904024962 -0.000152725520423978
v -7.37024232221281 37.0308147076245 15.0004008936444
v -7.37024232221281 22.1108108116271 15.000001401726
v -7.37024232221281 22.1108108116271 3.17187321610584e-07
v -7.37024232221281 37.1107851800655 1.01874864799535e-07
vt -1.0050607919693 1.00000059604645
vt 1 1.00000059604645
vt 1 -1.00506126880646
vt -1.0050607919693 -1.00506126880646
vt 0.999999940395355 1.00000059604645
vt 0 0
vt 1 0
vt 1 1
vt 0 1
vn 0 0 -1
vn 6.67488535555085e-08 1.49498575297e-07 -0.999999999999987
vn 3.33744267777546e-08 7.47492876485009e-08 -0.999999999999997
vn 1.66872133888773e-08 3.73746438242506e-08 -0.999999999999999
vn -1.66872577977983e-08 3.73747930382251e-08 -0.999999999999999
vn -3.33745155955966e-08 7.474958607645e-08 -0.999999999999997
vn -6.67490382966198e-08 1.49499186363753e-07 -0.999999999999987
vn -1 0 0
vn 1 4.1213379375904e-09 1.06994649251568e-10
vn 1 3.03216962649344e-09 -1.089165757584e-09
vn 1 1.51608481324672e-09 -5.44582878791999e-10
vn 1 2.06066874675059e-09 5.34973176868903e-11
vn 1 4.17294199195339e-09 1.79564285662792e-09
vn 1 5.9685842934698e-09 2.37616015752451e-09
vn 1 8.34588398390679e-09 3.59128571325584e-09
vn 1 1.19371685869396e-08 4.75232031504902e-09
vn 1 1.9430017594857e-09 -2.28532615054178e-09
vn 1 9.71500879742848e-10 -1.14266307527089e-09
vn 1 2.37729924634777e-09 1.21512555573133e-09
vn 1 4.75459849269555e-09 2.43025111146267e-09
vn -0.99999999999943 -1.06798358956378e-06 0
vn -0.999999999999524 -9.01111263828651e-07 3.73747582216133e-07
vn -0.999999999999451 -7.34238938093364e-07 7.47495164432211e-07
vn 1 0 0
vn 0 -1 0
vn 5.07477970757008e-08 -0.999999999999999 0
vn 1.01495594151401e-07 -0.999999999999995 0
vn 0 -0.999999999999991 -1.33497692900163e-07
vn 1.49498674772983e-07 -0.999999999999987 -6.67488464500812e-08
vn 2.98997349545957e-07 -0.999999999999955 0
vn -1.77997071659391e-06 0.999999999997846 -1.0679793831491e-06
vn -1.95796837942504e-06 0.999999999997941 -5.33990260008787e-07
vn -2.13596604225553e-06 0.999999999997719 -1.14058643172366e-12
vn -1.77997094396849e-06 0.999999999998353 -3.55992369804294e-07
vn -1.95796724255691e-06 0.999999999998067 -1.77996753336285e-07
vn -2.1359635411451e-06 0.999999999997719 -1.14058502226084e-12
vn 1.42397539093328e-06 0.999999999998733 -7.11987638623221e-07
vn 1.77996889760541e-06 0.999999999998353 -3.55993819311475e-07
vn 2.13596240427673e-06 0.999999999997719 0
vn 2.98997832715018e-07 -0.999999999999955 0
vn -8.14429057527377e-09 -8.144310115199e-09 1
vn -4.07214528763689e-09 -4.0721550575995e-09 1
vn 0 -4.0721550575995e-09 1
vn 0 -8.144310115199e-09 1
vn 2.03607286586305e-09 -2.03607752879975e-09 1
vn 4.0721457317261e-09 -4.0721550575995e-09 1
vn 0 0 1
vn 9.11150799254301e-09 7.1770940301974e-09 1
vn -1.335013450321e-07 -2.94071123662607e-05 -0.999999999567602
vn 1 5.34112265526687e-09 2.50212139896178e-09
vn -0.999999999999633 8.0320609185917e-07 -2.99820669624641e-07
vn 0.999999999998501 -1.20571019124146e-06 1.243066094501e-06
vn 2.00436062414151e-07 -0.99999999999998 0
vn 1.36190148047887e-09 -0.999999999999991 -1.33497692900163e-07
vn -7.11988036527875e-07 0.999999999999747 0
vn 0.999999999999995 -6.72194104822662e-08 -7.52783506641204e-08
vn 1 2.22082308098948e-09 2.50212139896178e-09
vn -2.98997804293308e-07 -0.999999999999955 0
vn -0.999999999999968 2.01658210130511e-07 1.50556786593365e-07
vn 1.68683624982411e-07 -0.999994444413344 -0.00333333802947824
vn 0 -1.59490864959366e-09 1
vn 7.17707848707505e-09 7.1770940301974e-09 1
g wall geometry_entrance room entrance1 Z03 Z03a_ALL
f 1/1/1 2/2/1 3/3/1 4/4/1
f 5/2/2 6/3/3 7/4/4 8/1/3
f 8/2/3 7/3/4 9/4/5 10/1/6
f 10/2/6 9/3/5 11/4/6 12/1/7
f 6/2/3 13/3/1 14/4/1 7/1/4
f 7/2/4 14/3/1 15/4/1 9/1/5
f 9/2/5 15/3/1 16/4/1 11/1/6
f 13/2/1 17/3/1 1/4/1 14/1/1
f 14/2/1 1/3/1 4/4/1 15/1/1
f 15/2/1 4/3/1 18/4/1 16/1/1
f 19/3/8 20/5/8 21/1/8 22/4/8
f 23/3/8 24/5/8 20/1/8 19/4/8
f 25/3/8 26/5/8 24/1/8 23/4/8
f 20/3/8 16/5/8 18/1/8 21/4/8
f 24/3/8 11/5/8 16/1/8 20/4/8
f 26/3/8 12/5/8 11/1/8 24/4/8
f 27/3/9 28/2/10 29/1/11 30/4/12
f 30/3/12 29/2/11 31/1/13 32/4/14
f 32/3/14 31/2/13 33/1/15 34/4/16
f 28/3/10 17/2/17 13/1/18 29/4/11
f 29/3/11 13/2/18 6/1/19 31/4/13
f 31/3/13 6/2/19 5/1/20 33/4/15
f 35/4/21 36/1/22 37/2/22 38/3/21
f 36/4/22 4/1/23 3/2/23 37/3/22
f 39/3/24 40/2/24 41/1/24 42/4/24
f 40/3/24 2/2/24 1/1/24 41/4/24
f 4/2/25 36/3/26 21/4/26 18/1/25
f 36/2/26 35/3/27 22/4/27 21/1/26
f 17/2/28 28/3/29 41/4/29 1/1/28
f 28/2/29 27/3/30 42/4/30 41/1/29
f 8/2/31 10/1/31 43/4/32 44/3/32
f 44/2/32 43/1/32 45/4/33 46/3/33
f 10/2/34 12/1/34 26/4/35 43/3/35
f 43/2/35 26/1/35 25/4/36 45/3/36
f 5/2/37 8/1/37 44/4/38 33/3/38
f 33/2/38 44/1/38 46/4/39 34/3/39
f 2/1/40 40/4/40 37/3/40 3/2/40
g floor geometry_entrance room entrance1 Z03 Z03a_ALL
f 47/6/41 48/7/42 49/8/43 50/9/44
f 50/6/44 49/7/43 51/8/45 52/9/46
f 52/6/46 51/7/45 53/8/47 54/9/47
f 48/6/42 55/7/47 56/8/47 49/9/43
f 49/6/43 56/7/47 57/8/47 51/9/45
f 51/6/45 57/7/47 58/8/47 53/9/47
f 55/6/47 59/7/47 60/8/47 56/9/47
f 56/6/47 60/7/47 61/8/47 57/9/47
f 57/6/47 61/7/47 62/8/47 58/9/47
f 63/6/48 50/7/48 52/8/48 64/9/48
g pPlane11 CeilingLights geometry_entrance room entrance1 Z03 Z03a_ALL
f 65/6/1 66/9/1 67/8/1 68/7/1
g pPlane12 CeilingLights geometry_entrance room entrance1 Z03 Z03a_ALL
f 69/6/1 70/9/1 71/8/1 72/7/1
g pPlane13 CeilingLights geometry_entrance room entrance1 Z03 Z03a_ALL
f 73/6/1 74/9/1 75/8/1 76/7/1
g pPlane14 CeilingLights geometry_entrance room entrance1 Z03 Z03a_ALL
f 77/6/1 78/9/1 79/8/1 80/7/1
g pPlane15 CeilingLights geometry_entrance room entrance1 Z03 Z03a_ALL
f 81/6/1 82/9/1 83/8/1 84/7/1
g pPlane10 CeilingLights geometry_entrance room entrance1 Z03 Z03a_ALL
f 85/6/1 86/9/1 87/8/1 88/7/1
g pPlane9 CeilingLights geometry_entrance room entrance1 Z03 Z03a_ALL
f 89/6/1 90/9/1 91/8/1 92/7/1
g pPlane8 CeilingLights geometry_entrance room entrance1 Z03 Z03a_ALL
f 93/6/1 94/9/1 95/8/1 96/7/1
g pPlane7 CeilingLights geometry_entrance room entrance1 Z03 Z03a_ALL
f 97/6/1 98/9/1 99/8/1 100/7/1
g pPlane6 CeilingLights geometry_entrance room entrance1 Z03 Z03a_ALL
f 101/6/1 102/9/1 103/8/1 104/7/1
g pPlane1 CeilingLights geometry_entrance room entrance1 Z03 Z03a_ALL
f 105/6/1 106/9/1 107/8/1 108/7/1
g pPlane2 CeilingLights geometry_entrance room entrance1 Z03 Z03a_ALL
f 109/6/1 110/9/1 111/8/1 112/7/1
g pPlane3 CeilingLights geometry_entrance room entrance1 Z03 Z03a_ALL
f 113/6/1 114/9/1 115/8/1 116/7/1
g pPlane4 CeilingLights geometry_entrance room entrance1 Z03 Z03a_ALL
f 117/6/1 118/9/1 119/8/1 120/7/1
g pPlane5 CeilingLights geometry_entrance room entrance1 Z03 Z03a_ALL
f 121/6/1 122/9/1 123/8/1 124/7/1
g pPlane16 CeilingLights geometry_entrance room entrance1 Z03 Z03a_ALL
f 125/6/1 126/9/1 127/8/1 128/7/1
g pPlane17 pPlane16 CeilingLights geometry_entrance room entrance1 Z03 Z03a_ALL
f 129/6/1 130/9/1 131/8/1 132/7/1
g wall collsion_entrance room entrance1 Z03 Z03a_ALL
f 1//49 133//49 134//49 4//49
f 12//1 5//1 17//1 1//1 4//1 18//1
f 135//8 136//8 22//8 25//8
f 137//50 138//50 34//50 27//50
f 139//51 140//51 141//51 35//51
f 42//52 142//52 143//52 144//52
f 22//53 136//53 139//53 35//53
f 42//54 144//54 137//54 27//54
f 138//55 135//55 25//55 34//55
f 144//56 143//56 133//56 1//56
f 137//25 144//25 1//25 17//25
f 17//57 5//57 138//57 137//57
f 5//55 12//55 135//55 138//55
f 12//8 18//8 136//8 135//8
f 139//58 136//58 18//58 4//58
f 4//59 134//59 140//59 139//59
f 133//60 143//60 140//60 134//60
g floor collsion_entrance room entrance1 Z03 Z03a_ALL
f 59//61 62//61 54//61 52//61 145//61 47//61
f 146//62 145//62 52//62 64//62
