v -1.37867714789283 -1.41096427997579 1.75455836799201
v 1.25121031533389 -1.40976718091589 1.7545582428379
v 1.25001309111988 1.22012028231083 1.75455836799201
v -1.37987437210684 1.21892305809682 1.75455836799201
v -1.27485480521295 -1.30704732078893 0
v 1.14729323099292 -1.30594458792779 0
v 1.14619062328589 1.11620319796985 0
v -1.27595741291997 1.11510059026283 0
v -1.54936745410829 -0.809729318293374 3.38415736601422
v 0.821048756596923 -1.1853175526216 3.384157115706
v 1.29412528410984 0.696621041285397 3.38415736601422
v -1.07629092659537 1.07220952592184 3.38415736601422
v -1.4370612897898 -0.750234433672247 1.77152100510485
v 0.746111606988381 -1.09615451081844 1.77152113025896
v 1.18181886948313 0.63712640697249 1.77152100510485
v -1.00135383956389 0.983046609272794 1.77152100510485
v 1.99307494276152 2.08709371371532 0.0462094082294174
v -1.99307494276152 2.08709371371532 0.0462094082294174
v -1.99307494276152 -2.08709371371532 0.0462094082294174
v 1.99307494276152 -2.08709371371532 0.0462094082294174
vt 0 0
vt 1 0
vt 1 1
vt 0 1
vt 1 0.995356321334839
vt 0 0.995356321334839
vt 8.94069671630859e-08 0.995356321334839
vt 5.96046447753906e-08 5.96046447753906e-08
vt 1 2.98023223876953e-08
vt 2.98023223876953e-08 0
vt 2.98023223876953e-08 0.995356321334839
vt 1 0.995356261730194
vt 8.94069671630859e-08 0
vt 5.96046447753906e-08 0.995356261730194
vt 1 5.96046447753906e-08
vn 2.38054003176556e-08 -9.7642555374477e-08 0.999999999999995
vn 0.000454399422639668 -0.998252171073236 -0.0590965013239753
vn 0.99825217213315 0.000454434060621078 -0.0590964831536664
vn -0.998252175672415 -0.000454434523953505 -0.0590964233651485
vn 4.06423303900275e-08 -1.98283075292234e-07 0.99999999999998
vn -0.156320890109834 -0.986573873871975 -0.0472839371088402
vn 0.968169572257191 -0.243375748888987 -0.0584459083944479
vn -0.968169561585367 0.243375805810975 -0.0584458481455767
vn 0 0 1
g cratemesh crates
f 1/1/1 2/2/1 3/3/1 4/4/1
f 5/1/2 6/2/2 2/5/2 1/6/2
f 2/7/3 6/8/3 7/9/3 3/5/3
f 5/10/4 1/11/4 4/5/4 8/2/4
f 9/1/5 10/2/5 11/3/5 12/4/5
f 13/1/6 14/2/6 10/5/6 9/6/6
f 10/7/7 14/8/7 15/2/7 11/12/7
f 13/13/8 9/14/8 12/5/8 16/15/8
g drop_shadow crates
f 17/1/9 18/2/9 19/3/9 20/4/9
