v 5.55111512312578e-17 -8.40333450320942 0.515812982336474
v -0.167105594796806 -8.21747415202123 1.08616437133623
v -0.192956920278057 -8.15363280458329 1.00200986494048
v -0.340988396215925 -7.62163058891949 1.39489741675757
v -0.393739484691607 -7.63709826622178 1.11518316664511
v -0.514871197635044 -6.85283021798786 1.38036599840219
v -0.594522049105156 -6.86249413643216 1.10337094300372
v -0.688753999054163 -6.01609427995956 1.10777794041376
v -0.795304613518705 -6.02575819840386 0.781038226957103
v -0.862636800473283 -4.9903360815557 0.946439893532286
v -0.996087177932254 -5 0.569955522017444
v -1.0365196018924 -3.9903360815557 0.99618455159047
v -1.1968697423458 -4 0.569955522017444
v -1.21040240331152 -2.9903360815557 1.04592920964865
v -1.39765230675935 -3 0.569955522017444
v -1.38428520473064 -2.00554664749762 1.16859387756132
v -1.5984348711729 -2.01521056594192 0.642875531871924
v -1.52178978462598 -0.660227380509024 1.11469360976885
v -1.79921743558645 -1.00723011352849 0.663455098928448
v -1.70653669694437 -0.147792538026585 0.969734468164081
v -2 0.227948782844955 0.892240662937957
v -0.0964784601390289 -8.25519858459819 1.14710384148488
v -0.196869742345803 -7.62163058891949 1.46630932622805
v -0.297261024552578 -6.85283021798786 1.4881935249764
v -0.397652306759352 -6.01609427995956 1.2520210840917
v -0.498043588966127 -4.9903360815557 1.12709865431395
v -0.598434871172902 -3.9903360815557 1.21325892947587
v -0.698826153379676 -2.9903360815557 1.29941920463778
v -0.799217435586451 -2.00554664749762 1.45849948965418
v -0.899608717793225 -1.00573413507501 1.48563871729093
v -0.947151599554987 -0.530230306954257 1.33481678919905
v 5.55111512312578e-17 -8.27841397325887 1.20071342873389
v 5.55111512312578e-17 -7.61625703755269 1.36692572630191
v 5.55111512312578e-17 -6.84992395646882 1.31455604098487
v 5.55111512312578e-17 -6.01318801844052 1.09171264105462
v 5.55111512312578e-17 -4.98742982003666 0.980119252231331
v 5.55111512312578e-17 -3.98742982003666 1.0796085683477
v 5.55111512312578e-17 -2.98742982003666 1.17909788446407
v 5.55111512312578e-17 -2.00264038597859 1.35150721043491
v 5.55111512312578e-17 -1.00282787355598 1.39197547902612
v 0.0964784601390288 -8.25519858459819 1.14710384148488
v 0.196869742345803 -7.62163058891949 1.46630932622805
v 0.297261024552578 -6.85283021798786 1.4881935249764
v 0.397652306759352 -6.01609427995956 1.2520210840917
v 0.498043588966127 -4.9903360815557 1.12709865431395
v 0.598434871172901 -3.9903360815557 1.21325892947587
v 0.698826153379676 -2.9903360815557 1.29941920463778
v 0.799217435586451 -2.00554664749762 1.45849948965418
v 0.899608717793225 -1.00573413507501 1.48563871729093
v 0.620503526750244 -0.694735194681749 1.40102156180679
v 0.947151599554986 -0.530230306954257 1.33481678919905
v 0.167105594796807 -8.21747415202123 1.08616437133623
v 0.340988396215925 -7.62163058891949 1.39489741675757
v 0.514871197635045 -6.85283021798786 1.38036599840219
v 0.688753999054164 -6.01609427995956 1.10777794041376
v 0.862636800473283 -4.9903360815557 0.946439893532286
v 1.0365196018924 -3.9903360815557 0.99618455159047
v 1.21040240331152 -2.9903360815557 1.04592920964865
v 1.38428520473064 -2.00554664749762 1.16859387756132
v 1.55816800614976 -0.997566195084186 1.23891810267603
v 1.2181905194686 -0.393731025916646 1.17843327206558
v 1.74075704512694 -0.130558655434123 0.90915699898719
v 0.192956920278058 -8.15363280458329 1.00200986494048
v 0.393739484691607 -7.63709826622178 1.11518316664511
v 0.594522049105156 -6.86249413643216 1.10337094300372
v 0.795304613518705 -6.02575819840386 0.781038226957103
v 0.996087177932254 -5 0.569955522017444
v 1.1968697423458 -4 0.569955522017444
v 1.39765230675935 -3 0.569955522017444
v 1.5984348711729 -2.01521056594192 0.642875531871924
v 1.79921743558645 -1.00723011352849 0.663455098928448
v 1.76104764963906 -0.434836367290554 0.823878059815197
v 2 0.227948782844955 0.892240662937957
v -0.112170719028042 -1.00282787355598 1.39197547902612
v -0.0763618344495659 -0.376518495966325 2.09470769492141
v -0.0763618344495659 -0.198395518502218 2.01345369305185
v -0.112170719028042 -0.832675675615273 1.19537268321692
v -0.0617758157629671 -0.129919563500321 2.65533502179572
v -0.0617758157629671 -0.00107280779734764 2.59022362084864
v -0.0617758157629671 0.0411698644025356 3.27993698495054
v -0.0617758157629671 0.242402029781426 3.28432545702591
v -0.0617758157629671 0.0361633485671808 3.76271375113286
v -0.0617758157629671 0.195587950561157 3.85599755385693
v -0.0617758157629671 -0.147156614207395 3.93310317306981
v -0.0617758157629671 -0.172273312864325 4.10924651273814
v -0.0617758157629671 -0.30620203097652 3.89810192736868
v -0.0617758157629671 -0.433907530404559 3.99272896459035
v -0.0617758157629671 -0.308386660801686 3.7959826542796
v -0.0617758157629671 -0.424003594942638 3.78762709418763
v 0.0763618344495657 -0.376518495966325 2.09470769492141
v 0.112170719028042 -1.00282787355598 1.39197547902612
v 0.0617758157629669 -0.129919563500321 2.65533502179572
v 0.0617758157629669 0.0411698644025356 3.27993698495054
v 0.0617758157629669 0.0361633485671808 3.76271375113286
v 0.0617758157629669 -0.147156614207395 3.93310317306981
v 0.0617758157629669 -0.30620203097652 3.89810192736868
v 0.0617758157629669 -0.308386660801686 3.7959826542796
v 0.0617758157629669 -0.424003594942638 3.78762709418763
v 0.0617758157629669 -0.433907530404559 3.99272896459035
v 0.0617758157629669 -0.172273312864325 4.10924651273814
v 0.0617758157629669 0.195587950561157 3.85599755385693
v 0.0617758157629669 0.242402029781426 3.28432545702591
v 0.0617758157629669 -0.00107280779734764 2.59022362084864
v 0.0763618344495657 -0.198395518502218 2.01345369305185
v 0.112170719028042 -0.832675675615273 1.19537268321692
v 1.76104764963906 -0.434836367290554 0
v 1.55816800614976 -0.997566195084186 0
v 1.38428520473064 -2.00554664749762 0
v 1.21040240331152 -2.9903360815557 0
v 1.0365196018924 -3.9903360815557 0
v 0.862636800473283 -4.9903360815557 0
v 0.688753999054163 -6.01609427995956 0
v 0.514871197635045 -6.85283021798786 0
v 0.340988396215926 -7.62163058891949 0
v 0.167105594796807 -8.21747415202123 0
v -0.167105594796806 -8.21747415202123 0
v -1.74291491846815 -0.485131352601748 0
v -1.55816800614976 -0.997566195084186 0
v -1.38428520473064 -2.00554664749762 0
v -1.21040240331152 -2.9903360815557 0
v -1.0365196018924 -3.9903360815557 0
v -0.862636800473282 -4.9903360815557 0
v -0.688753999054163 -6.01609427995956 0
v -0.514871197635045 -6.85283021798786 0
v -0.340988396215925 -7.62163058891949 0
vt 1 0
vt 1 0.478695631027222
vt 0.925481021404266 0.698840379714966
vt 0.925481021404266 -0.0210048202425241
vt 0.796786785125732 0.665784597396851
vt 0.796786785125732 -0.0132002979516983
vt 0.670952439308167 0.601179122924805
vt 0.670952439308167 -0.00653429282829165
vt 0.543242335319519 0.579688847064972
vt 0.543242335319519 0.000878444814588875
vt 0.415532261133194 0.558198571205139
vt 0.415532261133194 0.00829118210822344
vt 0.284645706415176 0.660617649555206
vt 0.284645706415176 0.0169684682041407
vt 0.177069082856178 0.818396389484406
vt 0.177069082856178 0.0163660775870085
vt 0.0778701603412628 0.822901964187622
vt 0.0778701603412628 0.0124285258352757
vt 0 0.631091117858887
vt 0 0
vt 0.0532664507627487 -0.0544804930686951
vt 0.119472034275532 0.981203675270081
vt 0.0910208150744438 0.430902093648911
vt 0.0683040097355843 0.62799346446991
vt 0 0.554515361785889
vt 0.0683040097355843 0
vt 0.197864934802055 0
vt 0.197864934802055 0.592346906661987
vt 0.324546217918396 0
vt 0.324546217918396 0.530169606208801
vt 0.453116208314896 0
vt 0.453116208314896 0.504954636096954
vt 0.581686198711395 0
vt 0.581686198711395 0.479739606380463
vt 0.713454604148865 0
vt 0.713454604148865 0.561520040035248
vt 0.821752071380615 0
vt 0.821752071380615 0.699691832065582
vt 0.921614050865173 0
vt 0.921614050865173 0.707057595252991
vt 1 0.550564348697662
vt 0.0662055835127831 1.03568410873413
vt 1 0.505066812038422
vt 0.761509597301483 0.685900330543518
vt 0.504810214042664 0.642657220363617
vt 0.248134598135948 0.685900330543518
vt 0 0.380373924970627
vn -0.646420216182473 -0.761457369849509 0.0482035062259336
vn -0.815951684108882 -0.556607795416229 0.156238955711319
vn -0.903331293521562 -0.428150390566744 0.0260733043975357
vn -0.878950316352024 -0.305151869678726 0.366508769085073
vn -0.935205957252148 -0.29685001431903 0.193054102569422
vn -0.892319505804582 -0.12160854352952 0.43471515007105
vn -0.949393159777564 -0.16672554484125 0.266186440047125
vn -0.890690021958069 -0.0619832830412756 0.450365803994663
vn -0.944361617060346 -0.110015740735603 0.309963986639682
vn -0.880137929527054 -0.128358289538144 0.457035419321821
vn -0.931376593408705 -0.14711892499504 0.333007001666181
vn -0.870473361775886 -0.175597833957349 0.459827714636769
vn -0.919330813173581 -0.180911860942201 0.349430614743516
vn -0.865474506353335 -0.193154526086655 0.462217706178259
vn -0.911548176047098 -0.194750079314507 0.362149595267207
vn -0.8603030575542 -0.157767829697868 0.484755568379899
vn -0.890212697850611 -0.163964075147287 0.425014275815097
vn -0.831179874253034 -0.119287382409863 0.543056660979785
vn -0.747181226970249 -0.162919930702022 0.644342541078331
vn -0.641738696236195 -0.0491917912324746 0.765344114388038
vn -0.519649269309851 -0.236537239440208 0.820984026192802
vn -0.490769673936914 -0.797013108515858 0.352015954180692
vn -0.297543977539386 -0.319761438934131 0.899566675461478
vn 0.00580977576161909 0.120030360610008 0.992753221620273
vn -0.0387409829491951 0.178132857109909 0.983243520933645
vn -0.085070605918047 -0.00232739183553169 0.996372207187646
vn -0.117244205938705 -0.106132894844595 0.987415619081301
vn -0.141063738494889 -0.14346683864202 0.979550043587315
vn -0.173256262746154 -0.108044314524027 0.978932425409573
vn -0.223508405727297 0.121121467646498 0.967147135985213
vn -0.108218463193438 0.290716490810477 0.950669598859084
vn -0.0489792948823444 -0.865042234673351 0.499302474362148
vn 0.124815630072512 -0.339581581616274 0.932258230275599
vn 0 -0.158828111818922 0.98730624980096
vn 0 0.176337404493284 0.984329782022556
vn 0.482409668857208 0.0489154134415822 0.874578866495709
vn 0 0.209507144085378 0.977807116243888
vn 0 0.0245319417072788 0.99969904663157
vn 0 -0.0812082644990836 0.996697154494306
vn 0 -0.12083339893401 0.992672800927906
vn 0 -0.0932487200751537 0.995642845705399
vn -0.00099535895199416 0.109262864872835 0.994012392085902
vn 0.539839354632385 -0.841094109743424 -0.0336774367345148
vn 0.49076967393692 -0.797013108515856 0.352015954180689
vn -0.124815630072512 -0.339581581616273 0.932258230275599
vn 0.100684568650633 -0.241193507590799 0.965240026900917
vn -0.00580977576161893 0.120030360610008 0.992753221620273
vn 0.0387409829491941 0.178132857109908 0.983243520933645
vn 0.0850706059180465 -0.00232739183553157 0.996372207187646
vn 0.117244205938705 -0.106132894844595 0.987415619081301
vn 0.141063738494888 -0.14346683864202 0.979550043587315
vn 0.147343489109097 -0.122424785645208 0.981479530136458
vn 0.117782167764841 0.12837732252151 0.984706364363927
vn -0.0292699489846546 0.23788311304174 0.97085266370135
vn 0.197658669208882 0.287525102693306 0.937155465121864
vn 0.815951684108883 -0.556607795416229 0.156238955711319
vn 0.878950316352024 -0.305151869678726 0.366508769085072
vn 0.767818664569035 -0.0609643398130384 0.637760023528117
vn 0.756366391024737 0.0112890022313723 0.654050793866069
vn 0.742866527780719 -0.0945454040620281 0.662729574165636
vn 0.729517303955576 -0.161877841040659 0.664529960054024
vn 0.721691661763777 -0.186317297123716 0.666668590930419
vn 0.709224965248251 -0.182228291169626 0.681023346564576
vn 0.702324535260048 0.0307288507149968 0.71119335268652
vn 0.33742047827253 0.27242737920246 0.901071997069722
vn 0.595002346194561 0.00025887916460913 0.803723920886113
vn 0.903331293521559 -0.428150390566748 0.0260733043975412
vn 0.935205957252148 -0.296850014319031 0.193054102569422
vn 0.949393159777564 -0.16672554484125 0.266186440047124
vn 0.944361617060346 -0.110015740735603 0.309963986639681
vn 0.931376593408705 -0.14711892499504 0.333007001666181
vn 0.919330813173581 -0.180911860942201 0.349430614743516
vn 0.911548176047098 -0.194750079314507 0.362149595267207
vn 0.906731117586263 -0.197261030287111 0.372728810706705
vn 0.786776540856715 -0.164360704520732 0.594952295202725
vn 0.791893699995386 -0.199169941633646 0.577265712005544
vn 0.372967958365745 -0.227252331552042 0.899583948187521
vn -0.999343170184567 0.0226001267022046 0.0283277686820589
vn -0.999552694937804 0.0164542134138863 0.0249733638804344
vn -0.999928290793181 0.00515411597118008 0.0108096419914719
vn -1 0 0
vn 0 -0.841266093648021 0.540621271943862
vn 0 -0.746533798550366 0.665347493887188
vn 0 -0.942462297242931 0.334312456058066
vn 0 -0.9917558898129 0.128141542918066
vn 0 -0.914650281988929 -0.404246040991835
vn 0 -0.26298985071711 -0.964798599926323
vn 0 0.214927697942825 -0.976629963014139
vn 0 0.999771249920021 -0.0213880301421019
vn 0 0.0720813547135666 -0.997398755915936
vn 0 -0.998836174987803 -0.0482316860138205
vn 0 0.0918435985657296 0.995773444816891
vn 0 -0.406825484843803 0.913505897562574
vn 0 0.865428912950182 0.50103173215862
vn 0 0.991840911153303 -0.127481790709832
vn 0 0.944902158548409 -0.327352884164105
vn 0 0.880170754761641 -0.474657184146962
vn 0 0.790289974604506 -0.612733021828928
vn 0 -0.756139824996456 -0.654410089358599
vn 0.999343170184567 0.0226001267022046 0.0283277686820589
vn 0.999552694937804 0.0164542134138862 0.0249733638804344
vn 0.999928290793181 0.00515411597117998 0.0108096419914719
vn 1 0 0
vn 0.940729125946927 -0.339158829451824 0
vn 0.966794005698138 -0.255556941886048 0
vn 0.985107878102274 -0.171937397039838 0
vn 0.984992753731665 -0.172595698370822 0
vn 0.985216784007226 -0.171312254408312 0
vn 0.985577869416508 -0.16922252603131 0
vn 0.982676404678248 -0.185329662193161 0
vn 0.977260728905159 -0.212041193497295 0
vn 0.968119156191785 -0.250490118396924 0
vn 0.87365720450492 -0.486541970457482 0
vn 0 -0.940789906923766 -0.338990193118285
vn -0.411984257474174 -0.891626393234142 -0.187806673155479
vn -0.937973106828247 -0.318933329374132 0.135970519897869
vn -0.970322038672051 -0.22599615712322 0.0860283571437441
vn -0.988201546319402 -0.152153002219022 0.0175262023176965
vn -0.984992753731665 -0.172595698370822 0
vn -0.985216784007227 -0.171312254408312 0
vn -0.985577869416508 -0.16922252603131 0
vn -0.982676404678249 -0.18532966219316 0
vn -0.977260728905159 -0.212041193497295 0
vn -0.968119156191785 -0.250490118396925 0
vn -0.959958807407126 -0.280141193117844 0
vn 0.0482579255484024 0.961468335449461 0.270647025754594
g o1 g2 g1
f 1//1 2//2 3//3
f 2//2 4//4 5//5 3//3
f 4//4 6//6 7//7 5//5
f 6//6 8//8 9//9 7//7
f 8//8 10//10 11//11 9//9
f 10//10 12//12 13//13 11//11
f 12//12 14//14 15//15 13//13
f 14//14 16//16 17//17 15//15
f 16//16 18//18 19//19 17//17
f 20//20 21//21 19//19
f 18//18 20//20 19//19
f 1//1 22//22 2//2
f 22//22 23//23 4//4 2//2
f 23//23 24//24 6//6 4//4
f 24//24 25//25 8//8 6//6
f 25//25 26//26 10//10 8//8
f 26//26 27//27 12//12 10//10
f 27//27 28//28 14//14 12//12
f 28//28 29//29 16//16 14//14
f 29//29 30//30 18//18 16//16
f 30//30 20//20 20//20 18//18
f 30//30 31//31 20//20
f 1//1 32//32 22//22
f 32//33 33//34 23//23 22//33
f 33//34 34//35 24//24 23//36
f 34//35 35//37 25//25 24//24
f 35//37 36//38 26//26 25//25
f 36//38 37//39 27//27 26//26
f 37//39 38//40 28//28 27//27
f 38//40 39//41 29//29 28//28
f 39//41 40//42 30//30 29//29
f 40//42 31//31 30//30
f 1//43 41//44 32//32
f 41//45 42//46 33//34 32//32
f 42//46 43//47 34//35 33//34
f 43//47 44//48 35//37 34//35
f 44//48 45//49 36//38 35//37
f 45//49 46//50 37//39 36//38
f 46//50 47//51 38//40 37//39
f 47//51 48//52 39//41 38//40
f 48//52 49//53 40//42 39//41
f 49//53 50//54 40//42
f 49//53 51//55 50//54
f 1//43 52//56 41//44
f 52//56 53//57 42//46 41//44
f 53//57 54//58 43//47 42//46
f 54//58 55//59 44//48 43//47
f 55//59 56//60 45//49 44//48
f 56//60 57//61 46//50 45//49
f 57//61 58//62 47//51 46//50
f 58//62 59//63 48//52 47//51
f 59//63 60//64 49//53 48//52
f 60//64 61//65 51//55 49//53
f 60//64 62//66 61//65
f 1//43 63//67 52//56
f 63//67 64//68 53//57 52//56
f 64//68 65//69 54//58 53//57
f 65//69 66//70 55//59 54//58
f 66//70 67//71 56//60 55//59
f 67//71 68//72 57//61 56//60
f 68//72 69//73 58//62 57//61
f 69//73 70//74 59//63 58//62
f 70//74 71//75 60//64 59//63
f 72//76 62//66 60//64
f 71//75 72//76 60//64
f 73//77 62//66 72//76
f 71//75 73//77 72//76
g o2 g2 g1
f 74//78 75//79 76//79 77//78
f 75//79 78//80 79//80 76//79
f 78//80 80//81 81//81 79//80
f 80//81 82//81 83//81 81//81
f 82//81 84//81 85//81 83//81
f 84//81 86//81 87//81 85//81
f 86//81 88//81 89//81 87//81
f 90//82 75//82 74//83 91//83
f 92//84 78//84 75//82 90//82
f 93//85 80//85 78//84 92//84
f 94//86 82//86 80//85 93//85
f 95//87 84//87 82//86 94//86
f 96//88 86//88 84//87 95//87
f 97//89 88//89 86//89 96//89
f 98//90 89//90 88//90 97//90
f 99//91 87//91 89//91 98//91
f 100//92 85//92 87//93 99//93
f 101//94 83//94 85//92 100//92
f 102//95 81//95 83//94 101//94
f 103//96 79//96 81//95 102//95
f 104//97 76//97 79//96 103//96
f 105//98 77//98 76//97 104//97
f 91//99 74//99 77//99 105//99
f 105//100 104//101 90//101 91//100
f 104//101 103//102 92//102 90//101
f 103//102 102//103 93//103 92//102
f 102//103 101//103 94//103 93//103
f 101//103 100//103 95//103 94//103
f 100//103 99//103 96//103 95//103
f 99//103 98//103 97//103 96//103
g o4 g2 g1
f 106/1/104 72/2/76 60/3/105 107/4/105
f 107/4/105 60/3/105 59/5/106 108/6/106
f 108/6/106 59/5/106 58/7/107 109/8/107
f 109/8/107 58/7/107 57/9/108 110/10/108
f 110/10/108 57/9/108 56/11/109 111/12/109
f 111/12/109 56/11/109 55/13/110 112/14/110
f 55/13/110 54/15/111 113/16/111 112/14/110
f 54/15/111 53/17/57 114/18/112 113/16/111
f 114/18/112 53/17/57 52/19/56 115/20/113
f 115/21/113 52/22/56 1/23/43
f 115/21/114 1/23/43 116/20/115
f 18/24/18 20/25/20 117/20/116 118/26/117
f 118/26/117 119/27/118 16/28/16 18/24/18
f 119/27/118 120/29/119 14/30/14 16/28/16
f 120/29/119 121/31/120 12/32/12 14/30/14
f 121/31/120 122/33/121 10/34/10 12/32/12
f 122/33/121 123/35/122 8/36/8 10/34/10
f 123/35/122 124/37/123 6/38/6 8/36/8
f 124/37/123 125/39/124 4/40/4 6/38/6
f 116/1/125 2/41/2 4/40/4 125/39/124
f 116/20/115 1/23/1 2/42/2
f 106/20/126 117/1/126 20/43/126 30/44/126 40/45/126 49/46/126 72/47/126
