v -4.99999979975342 0 -4.99999979975342
v 4.99999979975342 0 -4.99999979975342
v 4.99999979975342 0 4.99999979975342
v -4.99999979975342 0 4.99999979975342
v -1.33302493358222 -0.0717580005565653 -2.76985769196758
v 1.56331275078881 -0.0717580005565653 -2.76985769196758
v 1.56331275078881 -0.0717580005565653 -2.11421335776021
v -1.33302493358222 -0.0717580005565653 -2.11421335776021
v 1.56331199986415 -0.0717580005565653 -2.76985769196758
v 1.56331199986415 -0.0717580005565653 -2.11421335776021
v -1.33302693604797 -0.0717580005565653 -2.76985769196758
v -1.33302693604797 -0.0717580005565653 -2.11421335776021
v -4.20310153110134 -0.999999984981507 1.50176120868192
v -3.82925919660433 -0.999999984981507 1.50176120868192
v -3.82925919660433 -0.999999984981507 1.87560279225427
v -4.20310153110134 -0.999999984981507 1.87560279225427
v -1.86629758419327 -0.999999984981507 1.50176120868192
v -1.4924557503127 -0.999999984981507 1.50176120868192
v -1.4924557503127 -0.999999984981507 1.87560279225427
v -1.86629758419327 -0.999999984981507 1.87560279225427
v 1.71509790295378 -0.999999984981507 1.50176120868192
v 2.08893973683435 -0.999999984981507 1.50176120868192
v 2.08893973683435 -0.999999984981507 1.87560279225427
v 1.71509790295378 -0.999999984981507 1.87560279225427
v -4.14523527691058 -0.999999984981507 0.889905794398991
v -2.5690789610695 -0.999999984981507 0.889905794398991
v -2.5690789610695 -0.999999984981507 1.52136659997655
v -4.14523527691058 -0.999999984981507 1.52136659997655
v -4.14523577752702 -0.999999984981507 -1.97737486030799
v -2.56907946168594 -0.999999984981507 -1.97737486030799
v -2.56907946168594 -0.999999984981507 -1.34591430503865
v -4.14523577752702 -0.999999984981507 -1.34591430503865
v -1.79632191895813 -0.999999984981507 0.889905794398991
v -0.220165603117054 -0.999999984981507 0.889905794398991
v -0.220165603117054 -0.999999984981507 1.52136659997655
v -1.79632191895813 -0.999999984981507 1.52136659997655
v -1.79632241957457 -0.999999984981507 -1.97737486030799
v -0.220166103733493 -0.999999984981507 -1.97737486030799
v -0.220166103733493 -0.999999984981507 -1.34591430503865
v -1.79632241957457 -0.999999984981507 -1.34591430503865
v 0.572940996625605 -0.999999984981507 0.889905794398991
v 2.14909731246668 -0.999999984981507 0.889905794398991
v 2.14909731246668 -0.999999984981507 1.52136659997655
v 0.572940996625605 -0.999999984981507 1.52136659997655
v 0.572940496009166 -0.999999984981507 -1.97737486030799
v 2.14909681185024 -0.999999984981507 -1.97737486030799
v 2.14909681185024 -0.999999984981507 -1.34591430503865
v 0.572940496009166 -0.999999984981507 -1.34591430503865
v 2.63283346581647 -0.999999984981507 0.889905794398991
v 4.20898978165754 -0.999999984981507 0.889905794398991
v 4.20898978165754 -0.999999984981507 1.52136659997655
v 2.63283346581647 -0.999999984981507 1.52136659997655
v 2.63283296520003 -0.999999984981507 -1.97737486030799
v 4.2089892810411 -0.999999984981507 -1.97737486030799
v 4.2089892810411 -0.999999984981507 -1.34591430503865
v 2.63283296520003 -0.999999984981507 -1.34591430503865
v -1.33302493358222 -0.0717580005565653 -3.5352236329727
v 1.56331275078881 -0.0717580005565653 -3.5352236329727
v 1.56331275078881 -0.0717580005565653 -2.87957929876533
v -1.33302493358222 -0.0717580005565653 -2.87957929876533
v 1.56331199986415 -0.0717580005565653 -3.5352236329727
v 1.56331199986415 -0.0717580005565653 -2.87957929876533
v -1.33302693604797 -0.0717580005565653 -3.5352236329727
v -1.33302693604797 -0.0717580005565653 -2.87957929876533
v -1.33302493358222 -0.0717580005565653 -2.32223751038078
v 1.56331275078881 -0.0717580005565653 -2.32223751038078
v 1.56331275078881 -0.0717580005565653 -1.66659317617341
v -1.33302493358222 -0.0717580005565653 -1.66659317617341
v 1.56331199986415 -0.0717580005565653 -2.32223751038078
v 1.56331199986415 -0.0717580005565653 -1.66659317617341
v -1.33302693604797 -0.0717580005565653 -2.32223751038078
v -1.33302693604797 -0.0717580005565653 -1.66659317617341
v -1.33302493358222 -0.0717580005565653 -3.08760370169412
v 1.56331275078881 -0.0717580005565653 -3.08760370169412
v 1.56331275078881 -0.0717580005565653 -2.43195911717853
v -1.33302493358222 -0.0717580005565653 -2.43195911717853
v 1.56331199986415 -0.0717580005565653 -3.08760370169412
v 1.56331199986415 -0.0717580005565653 -2.43195911717853
v -1.33302693604797 -0.0717580005565653 -3.08760370169412
v -1.33302693604797 -0.0717580005565653 -2.43195911717853
v -3.966572528749 0 -3.96657277905722
v 3.966572528749 0 -3.96657277905722
v 3.966572528749 0 3.96657277905722
v -3.966572528749 0 3.96657277905722
vt 0 0
vt 1 0
vt 1 1
vt 0 1
vn 0 -1 0
g nameBkg bkg namePanelGroup
f 1/1/1 2/2/1 3/3/1 4/4/1
g squareTop_up squaresTop namePanelGroup
f 5/1/1 6/2/1 7/3/1 8/4/1
g squareTop_hover squaresTop namePanelGroup
f 5/1/1 9/2/1 10/3/1 8/4/1
g squareTop_down squaresTop namePanelGroup
f 11/1/1 6/2/1 7/3/1 12/4/1
g panelCircle1 panelCircles namePanelGroup
f 13/1/1 14/2/1 15/3/1 16/4/1
g panelCircle2 panelCircles namePanelGroup
f 17/1/1 18/2/1 19/3/1 20/4/1
g panelCircle3 panelCircles namePanelGroup
f 21/1/1 22/2/1 23/3/1 24/4/1
g arrowTopA_up arrowA namePanelGroup
f 25/1/1 26/2/1 27/3/1 28/4/1
g arrowTopA_down arrowA namePanelGroup
f 25/1/1 26/2/1 27/3/1 28/4/1
g arrowTopA_hover arrowA namePanelGroup
f 25/1/1 26/2/1 27/3/1 28/4/1
g arrowBtmA_up arrowA namePanelGroup
f 29/4/1 30/3/1 31/2/1 32/1/1
g arrowBtmA_down arrowA namePanelGroup
f 29/4/1 30/3/1 31/2/1 32/1/1
g arrowBtmA_hover arrowA namePanelGroup
f 29/4/1 30/3/1 31/2/1 32/1/1
g arrowTopB_up arrowB namePanelGroup
f 33/1/1 34/2/1 35/3/1 36/4/1
g arrowTopB_down arrowB namePanelGroup
f 33/1/1 34/2/1 35/3/1 36/4/1
g arrowTopB_hover arrowB namePanelGroup
f 33/1/1 34/2/1 35/3/1 36/4/1
g arrowBtmB_up arrowB namePanelGroup
f 37/4/1 38/3/1 39/2/1 40/1/1
g arrowBtmB_down arrowB namePanelGroup
f 37/4/1 38/3/1 39/2/1 40/1/1
g arrowBtmB_hover arrowB namePanelGroup
f 37/4/1 38/3/1 39/2/1 40/1/1
g arrowTopC_up arrowC namePanelGroup
f 41/1/1 42/2/1 43/3/1 44/4/1
g arrowTopC_down arrowC namePanelGroup
f 41/1/1 42/2/1 43/3/1 44/4/1
g arrowTopC_hover arrowC namePanelGroup
f 41/1/1 42/2/1 43/3/1 44/4/1
g arrowBtmC_up arrowC namePanelGroup
f 45/4/1 46/3/1 47/2/1 48/1/1
g arrowBtmC_down arrowC namePanelGroup
f 45/4/1 46/3/1 47/2/1 48/1/1
g arrowBtmC_hover arrowC namePanelGroup
f 45/4/1 46/3/1 47/2/1 48/1/1
g arrowTopD_up arrowD namePanelGroup
f 49/1/1 50/2/1 51/3/1 52/4/1
g arrowTopD_down arrowD namePanelGroup
f 49/1/1 50/2/1 51/3/1 52/4/1
g arrowTopD_hover arrowD namePanelGroup
f 49/1/1 50/2/1 51/3/1 52/4/1
g arrowBtmD_up arrowD namePanelGroup
f 53/4/1 54/3/1 55/2/1 56/1/1
g arrowBtmD_down arrowD namePanelGroup
f 53/4/1 54/3/1 55/2/1 56/1/1
g arrowBtmD_hover arrowD namePanelGroup
f 53/4/1 54/3/1 55/2/1 56/1/1
g squareBtm_up squaresBtm namePanelGroup
f 57/1/1 58/2/1 59/3/1 60/4/1
g squareBtm_hover squaresBtm namePanelGroup
f 57/1/1 61/2/1 62/3/1 60/4/1
g squareBtm_down squaresBtm namePanelGroup
f 63/1/1 58/2/1 59/3/1 64/4/1
g squareTop_up squaresTop1 typePanelGroup
f 65/1/1 66/2/1 67/3/1 68/4/1
g squareTop_hover squaresTop1 typePanelGroup
f 65/1/1 69/2/1 70/3/1 68/4/1
g squareTop_down squaresTop1 typePanelGroup
f 71/1/1 66/2/1 67/3/1 72/4/1
g squareBtm_up squaresBtm1 typePanelGroup
f 73/1/1 74/2/1 75/3/1 76/4/1
g squareBtm_hover squaresBtm1 typePanelGroup
f 73/1/1 77/2/1 78/3/1 76/4/1
g squareBtm_down squaresBtm1 typePanelGroup
f 79/1/1 74/2/1 75/3/1 80/4/1
g typeBkg typePanelBkg typePanelGroup
f 81/1/1 82/2/1 83/3/1 84/4/1
