v -1.57304811352507 -1.41468386011799 -0.0422532164205716
v 1.57304811352507 -1.41468386011799 -0.0422532164205716
v 1.57304811352507 -1.41468386011799 0.89113468260277
v -1.57304811352507 -1.41468386011799 0.89113468260277
v -1.57304811352507 1.41468386011799 0.89113468260277
v 1.57304811352507 1.41468386011799 0.89113468260277
v 1.57304811352507 1.41468386011799 -0.0422532164205716
v -1.57304811352507 1.41468386011799 -0.0422532164205716
v 1.70413552932539 -1.53257364988953 0.905033922570897
v -1.70413552932539 -1.53257364988953 0.905033922570897
v 1.70413552932539 1.53257364988953 0.905033922570897
v -1.70413552932539 1.53257364988953 0.905033922570897
v 1.70413552932539 -1.53257364988953 1.31545529903702
v -1.70413552932539 -1.53257364988953 1.31545529903702
v 1.70413552932539 1.53257364988953 1.31545529903702
v -1.70413552932539 1.53257364988953 1.31545529903702
v -2.0663566789602 -2.0663566789602 0.0250000007978574
v 2.0663566789602 -2.0663566789602 0.0250000007978574
v 2.0663566789602 2.0663566789602 0.0250000007978574
v -2.0663566789602 2.0663566789602 0.0250000007978574
v -1.29138716249641 -1.07786874445717 1.06583680380674
v 1.29138716249641 -1.07786874445717 1.06583680380674
v 1.29138716249641 1.09424415848699 1.06583680380674
v -1.29138716249641 1.09424415848699 1.06583680380674
v -1.70413552932539 -1.53257364988953 1.31545554934524
v 1.70413552932539 -1.53257364988953 1.31545554934524
v 1.29138716249641 -1.07786861930307 1.31545554934524
v -1.29138716249641 -1.07786861930307 1.31545554934524
v 1.70413552932539 1.53257364988953 1.31545554934524
v 1.29138716249641 1.09424403333288 1.31545554934524
v -1.70413552932539 1.53257364988953 1.31545554934524
v -1.29138716249641 1.09424403333288 1.31545554934524
v 1.29138716249641 -1.07786861930307 1.06583680380674
v -1.29138716249641 -1.07786861930307 1.06583680380674
v 1.29138716249641 1.09424403333288 1.06583680380674
v -1.29138716249641 1.09424403333288 1.06583680380674
v 1.70413552932539 1.53257364988953 -0.10122389305295
v 1.70413552932539 -1.53257364988953 -0.10122389305295
v -1.70413552932539 -1.53257364988953 -0.10122389305295
v -1.70413552932539 1.53257364988953 -0.10122389305295
vt -0.0515300631523132 -6.16690059018765e-08
vt 1.05153012275696 -6.16690059018765e-08
vt 1.05153012275696 0.999999940395355
vt -0.0515300631523132 0.999999940395355
vt -0.0510973930358887 0.999999940395355
vt 1.05109763145447 0.999999940395355
vt 1.05109763145447 -6.16690059018765e-08
vt -0.0510973930358887 -6.16690059018765e-08
vt -0.0516892224550247 -6.16690059018765e-08
vt 1.05168914794922 -6.16690059018765e-08
vt 1.05168914794922 0.999999940395355
vt -0.0516892224550247 0.999999940395355
vt 1.05168926715851 -6.16690059018765e-08
vt -0.0516890734434128 -6.16690059018765e-08
vt -0.0516890734434128 0.999999940395355
vt 1.05168926715851 0.999999940395355
vt -1.35966384410858 0.612923860549927
vt 1.39246511459351 0.612923860549927
vt 1.54743695259094 0.726612985134125
vt -1.51463603973389 0.726612985134125
vt -0.46589195728302 0.627615928649902
vt 1.95810794830322 0.627615928649902
vt 2.01997041702271 0.46028733253479
vt -0.527754306793213 0.46028733253479
vt -1.51463603973389 0.72661304473877
vt 1.54743695259094 0.72661304473877
vt -0.475823968648911 0.627615451812744
vt 1.94817566871643 0.627615928649902
vt 2.01003789901733 0.46028733253479
vt -0.537686288356781 0.46028733253479
vt -0.997727930545807 0.00378787517547607
vt 2.03547716140747 0.00378787517547607
vt 2.03547716140747 1.00378787517548
vt -0.997727930545807 1.00378787517548
vt -1.48633718490601 -2.79278538073413e-08
vt 1.01371073722839 -2.79278538073413e-08
vt 1.01371073722839 0.999999940395355
vt -1.48633718490601 0.999999940395355
vt 2.03876376152039 -2.79278538073413e-08
vt -1.00808417797089 -2.79278538073413e-08
vt -1.00808417797089 0.999999940395355
vt 2.03876376152039 0.999999940395355
vt 1.01248252391815 -2.79278538073413e-08
vt -1.48510873317719 -2.79278538073413e-08
vt -1.48510873317719 0.999999940395355
vt 1.01248252391815 0.999999940395355
vt 0 0
vt 1 0
vt 1 1
vt 0 1
vt -2.3789990422074e-08 8.53960528957032e-08
vt 1 8.53960528957032e-08
vt 1 1.00000011920929
vt -2.3789990422074e-08 1.00000011920929
vt -0.972313225269318 2.13613104820251
vt 1.97239589691162 2.13613104820251
vt 1.61578583717346 2.8701765537262
vt -0.615703105926514 2.8701765537262
vt -0.981604218482971 1.39257538318634
vt 1.49265515804291 1.39257538318634
vt 1.13882482051849 1.61010241508484
vt -0.614555478096008 1.61010241508484
vt 1.99253332614899 2.13377618789673
vt -0.952175557613373 2.13377618789673
vt -0.595565497875214 2.86782193183899
vt 1.63592338562012 2.86782193183899
vt -0.968270123004913 1.39257538318634
vt 1.50598859786987 1.39257538318634
vt 1.1389399766922 1.61010241508484
vt -0.614440202713013 1.61010241508484
vt 0.379240304231644 0.519133925437927
vt 2.60755467414856 0.519133925437927
vt 2.60755467414856 0.370809197425842
vt 0.379240304231644 0.370809197425842
vt -0.613300681114197 0.681880950927734
vt 1.13327050209045 0.681880950927734
vt 1.13327050209045 0.410816669464111
vt -0.613300681114197 0.410816669464111
vt 0.403315544128418 0.519133925437927
vt 2.62113857269287 0.519133925437927
vt 2.62113857269287 0.370809197425842
vt 0.403315544128418 0.370809197425842
vt -0.61330109834671 0.681880950927734
vt 1.13327014446259 0.681880950927734
vt 1.13327014446259 0.410816669464111
vt -0.61330109834671 0.410816669464111
vn 0 -1 0
vn 0 1 0
vn 1 0 0
vn -1 0 0
vn -0.0528839725638585 -0.0587269154278253 -0.996872326253567
vn 0.0528839725638585 -0.0587269154278253 -0.996872326253567
vn 0.0528839725638585 0.0587269154278253 -0.996872326253567
vn -0.0528839725638585 0.0587269154278253 -0.996872326253567
vn 0 0 1
vn 0 -3.61750416288942e-08 0.999999999999999
vn 0 3.75264939123099e-08 0.999999999999999
vn 0 0 -1
g planter_stone planter_stone
f 1/1/1 2/2/1 3/3/1 4/4/1
f 5/5/2 6/6/2 7/7/2 8/8/2
f 2/9/3 7/10/3 6/11/3 3/12/3
f 8/13/4 1/14/4 4/15/4 5/16/4
f 4/17/5 3/18/6 9/19/6 10/20/5
f 3/21/6 6/22/7 11/23/7 9/24/6
f 6/18/7 5/17/8 12/25/8 11/26/7
f 5/27/8 4/28/5 10/29/5 12/30/8
f 10/31/1 9/32/1 13/33/1 14/34/1
f 9/35/3 11/36/3 15/37/3 13/38/3
f 11/39/2 12/40/2 16/41/2 15/42/2
f 12/43/4 10/44/4 14/45/4 16/46/4
g shadow planter_stone
f 17/47/9 18/48/9 19/49/9 20/50/9
g soil planter_stone
f 21/51/9 22/52/9 23/53/9 24/54/9
g top planter_stone
f 25/55/10 26/56/10 27/57/10 28/58/10
f 26/59/10 29/60/11 30/61/11 27/62/10
f 29/63/11 31/64/11 32/65/11 30/66/11
f 31/67/11 25/68/10 28/69/10 32/70/11
f 28/71/2 27/72/2 33/73/2 34/74/2
f 27/75/4 30/76/4 35/77/4 33/78/4
f 30/79/1 32/80/1 36/81/1 35/82/1
f 32/83/3 28/84/3 34/85/3 36/86/3
g collision planter_stone
f 37//12 38//12 39//12 40//12
f 29//3 26//3 38//3 37//3
f 26//1 25//1 39//1 38//1
f 25//4 31//4 40//4 39//4
f 31//2 29//2 37//2 40//2
g top1 planter_stone
f 25/55/10 26/56/10 27/57/10 28/58/10
f 26/59/10 29/60/11 30/61/11 27/62/10
f 29/63/11 31/64/11 32/65/11 30/66/11
f 31/67/11 25/68/10 28/69/10 32/70/11
f 28/71/2 27/72/2 33/73/2 34/74/2
f 27/75/4 30/76/4 35/77/4 33/78/4
f 30/79/1 32/80/1 36/81/1 35/82/1
f 32/83/3 28/84/3 34/85/3 36/86/3
g soil1 planter_stone
f 21/51/9 22/52/9 23/53/9 24/54/9
