v 1.3267948966163e-05 10 9.4999999999912
v 3.6073010603926 10 8.82670247513506
v 1.11472097300573 13.4307459965218 8.82670247513506
v 6.72883493076511 10 6.89748473972845
v 5.44374391037985 13.9551070483221 6.89748473972845
v 2.07933113861062 16.3995001009055 6.89748473972845
v 8.94427366134563 10 3.97213245230492
v 8.17100186238931 13.637960952769 3.97213245230492
v 5.98489196195328 16.6468864540316 3.97213245230492
v 2.76394159280945 18.5065068154078 3.97213245230492
v 9.66489139410221 7.94566570338076 1.03934562004218
v 9.66489139410221 12.0543342966192 1.03934562004218
v 9.02657092234372 5.98111552219328 -2.03934562004218
v 9.88081044560905 10 -2.03934562004218
v 9.02657092234372 14.0188844778067 -2.03934562004218
v 7.2360721845178 4.74269168970575 -4.97213245230492
v 8.74882015112941 8.14038248765151 -4.97213245230492
v 8.74882015112941 11.8596175123485 -4.97213245230492
v 7.2360721845178 15.2573083102942 -4.97213245230492
v -2.91836561102451 12.1203214616419 8.82670247513506
v -2.07932094938925 16.3995034115872 6.89748473972845
v -5.44373761309188 13.9551157157906 6.89748473972845
v -0.934928033291109 18.8952763251968 3.97213245230492
v -4.4721313491609 17.7459713738752 3.97213245230492
v -7.236063813876 15.2573198314879 3.97213245230492
v 4.94040370932146 18.5570337296858 1.03934562004218
v 1.03282767047035 19.8266821493914 1.03934562004218
v 6.61155008705421 17.3428754931859 -2.03934562004218
v 3.05333834622822 19.397209160464 -2.03934562004218
v -1.03282245456762 19.8266826976044 -2.03934562004218
v 4.47213546064281 17.7459690001124 -4.97213245230492
v 0.934932754812859 18.8952758289453 -4.97213245230492
v -2.76392804883262 18.5065112161166 -4.97213245230492
v -2.91837011241711 7.87968473399353 8.82670247513506
v -6.72883493076416 10.0000035715969 6.89748473972845
v -5.44374600970954 6.04489584116218 6.89748473972845
v -8.74881916406218 11.8596221561327 3.97213245230492
v -8.74882113819416 8.14038713143621 3.97213245230492
v -7.23607497504237 4.74269553053975 3.97213245230492
v -6.61155398325797 17.3428719850289 1.03934562004218
v -9.02656878915959 14.0188892690179 1.03934562004218
v -4.9404082497702 18.5570311082559 -2.03934562004218
v -7.99374356827802 15.8077946612006 -2.03934562004218
v -9.66489030368117 12.0543394266447 -2.03934562004218
v -5.98488843385295 16.6468896307502 -4.97213245230492
v -8.17099993139561 13.6379652898528 -4.97213245230492
v -8.94427366134437 10.0000047475292 -4.97213245230492
v 1.1147136895995 6.56925163695601 8.82670247513506
v -2.07932774297026 3.60049879578112 6.89748473972845
v 2.07931755259786 3.6004954847314 6.89748473972845
v -4.47213957212347 2.25403337365255 3.97213245230492
v -0.934937476334348 1.10472466730868 3.97213245230492
v 2.7639235336629 1.49348731681981 3.97213245230492
v -9.02656878988133 5.98111073260319 1.03934562004218
v -6.61155398457665 2.65712801615842 1.03934562004218
v -9.6648903040501 7.94566057509103 -2.03934562004218
v -7.99374356932102 4.19220534023492 -2.03934562004218
v -4.94040825130693 1.44296889263131 -2.03934562004218
v -8.17099993204894 6.36203471161457 -4.97213245230492
v -5.98488843504664 3.35311037032462 -4.97213245230492
v -2.76393707916973 1.49349171801779 -4.97213245230492
v 5.44373971171588 6.04488717271274 6.89748473972845
v 5.98488490575093 3.35310719253305 3.97213245230492
v 8.17099800039962 6.36203037306431 3.97213245230492
v 1.03282766870562 0.173317850423109 1.03934562004218
v 4.94040370778473 1.44296626942701 1.03934562004218
v -1.03282245633236 0.173317302581072 -2.03934562004218
v 3.05333834454061 0.60279083898762 -2.03934562004218
v 6.61155008573553 2.65712450562674 -2.03934562004218
v 0.934932753215389 1.10472417088676 -4.97213245230492
v 4.47213545925174 2.25403099908447 -4.97213245230492
v -1.32688468967818e-05 10 -10.4999999999912
v -3.60730106123007 10 -9.82670247481115
v -1.1147209738432 13.4307459965218 -9.82670247503497
v -6.72883493142936 10 -7.89748473912424
v -5.4437439110441 13.9551070483221 -7.89748473923964
v -2.07933113927487 16.3995001009055 -7.89748473954174
v -9.88081044547083 10 1.03934562092941
v 2.91836561018704 12.1203214616419 -9.82670247539711
v 2.079320948725 16.3995034115872 -7.89748473991516
v 5.44373761242764 13.9551157157906 -7.89748474021726
v -3.05333834608999 19.397209160464 1.03934562031635
v 2.91837011157964 7.87968473399353 -9.82670247539711
v 6.72883493009992 10.0000035715969 -7.89748474033265
v 5.4437460090453 6.04489584116218 -7.89748474021726
v 7.99374356841624 15.8077946612006 1.0393456193244
v -1.11471369043698 6.56925163695601 -9.82670247503497
v 2.07932774230602 3.60049879578112 -7.89748473991516
v -2.0793175532621 3.6004954847314 -7.89748473954174
v 7.99374356945924 4.19220534023492 1.0393456193244
v -5.44373971238013 6.04488717271274 -7.89748473923964
v -3.05333834440238 0.60279083898762 1.03934562031635
v -20 0 -0.5
v -20 0 20
v -20 3.14993006413528 20
v -20 3.14993006413528 -0.5
v -20 6.14993006413528 27.9611461550325
v -20 6.14993006413528 20
v -2.99233092546646 6.14993006413528 27.9611461550325
v -9.25136737374419 0 20
v -0.0443401464851227 -0.806772506031849 31.5985928236265
v -0.0443401464851227 6.14993006413528 31.5985928236265
v -9.25136737374418 -0.806772506031849 20
v -7.94492529859256 0 20
v -7.94492529859256 -0.806772506031849 20
v -0.0443401464851227 -0.806772506031849 29.6094709495132
v -0.0443401464851227 0 29.6094709495132
v 7.85624500562231 0 20
v 7.85624500562231 -0.806772506031849 20
v 9.16268708077394 -0.806772506031849 20
v 9.16268708077394 -7.7715611723761e-16 20
v 2.90365063249622 6.14993006413528 27.9611461550325
v 20 0 20
v 20 6.14993006413528 27.9611461550325
v 20 6.14993006413528 20
v 20 3.14993006413528 -0.5
v 20 3.14993006413528 20
v 20 0 -0.5
v 9.97078337564242 5 -0.5
v 9.97078337564242 10 -0.5
v -9.02921662435758 15 -0.5
v -9.07688696556571 5 -0.5
v 0.470783375642419 25 -0.5
v 30.4231130344343 10 -0.5
v 30.4231130344343 25 -0.5
v -10 3.02924457152403e-16 -0.5
v 9.91131970702975 1.47343238224785e-15 -0.5
v -9.07688696556571 5 9.51645260645476
v -9.02921662435758 15 9.51645278930664
v -4.94434366088137 13.75 11.2178887057587
v -4.98009641678746 5 11.2220018116594
v 0.515925346968849 12.5 11.899433959696
v 0.492090176364787 5 11.9076601714975
v 6.29808768382804 11.25 11.0717082008094
v 6.286170098526 5 11.0815796549712
v 9.97078337564242 5 9.52056571235548
v 9.97078337564242 10 9.51645278930664
v 2.55565633911863 21.25 11.2178887057587
v 0.470783375642419 25 9.51645278930664
v 5.51592534696885 17.5 11.899433959696
v 8.79808768382804 13.75 11.0717082008094
v 30.4231130344343 25 9.51645278930664
v 30.4231130344343 21.25 11.2178887057587
v 30.4231130344343 17.5 11.899433959696
v 30.4231130344343 13.75 11.0717082008094
v 30.4231130344343 10 9.51645278930664
v 30.4231130344343 10 11.899433959696
v 30.4231130344343 25 11.899433959696
v -10 0 9.5
v 9.91131970702975 0 9.5
v 5.81452915825151 8.88178419700127e-16 11.2261149175601
v 0.417216370732024 8.88178419700127e-16 11.906448508004
v -4.98009641678746 8.88178419700127e-16 11.2261149175601
v -10 0 7.36942782887304
v -9.7494922683734 0 8.35132859152968
v -5.69391790560184 0 10.1078991012681
v -1.55375477672751 0 10.7014577254051
v -0.0443401464851227 0 10.758329007132
v -0.0443401464851227 0 20
v 1.46507448375727 0 10.7014577254051
v 5.60523761263159 0 10.1078991012681
v 9.66081197540316 0 8.35132859152968
v 9.91131970702975 0 7.36942782887304
v 10 7 -2
v 10 7 10.8260168426157
v -10 7 10.8260168426157
v -10 7 -2
v 20 -1.4210854715202e-14 10.8260168426157
v -20 0 10.8260168426157
v -20 3.55037366830191e-15 -2
v -10 0 -2
v -10 -3.55037366830191e-15 10.8260168426157
v 20 -3.55973371029629e-15 -2
v 10 -1.06511210049057e-14 10.8260168426157
v 10 0 -2
v 10 0 -0.5
v 10 7 -0.5
v -10 7 -0.5
vt 0 0
vt 0 0.715278267860413
vt 0.512189567089081 0.715278267860413
vt 0.512189567089081 0
vt 1 1
vt 1 0.715278267860413
vt 0.852479100227356 0.94525557756424
vt 0.00209563854150474 0.94525557756424
vt 0.00150944699998945 0.680848896503448
vt 0.538941085338593 0.680848896503448
vt -0.022026602178812 1
vt -0.022026602178812 0.686388969421387
vt 0.881475031375885 0
vt 1 0
vt 0 1
vt 2.02127242088318 0.49415847659111
vt 2.01125073432922 0.98831695318222
vt 0.0686760991811752 1.48247539997101
vt 0.0838710442185402 0.49415847659111
vt 1.01490879058838 2.47079229354858
vt 4.09152460098267 0.98831695318222
vt 4.06145906448364 2.47079229354858
vt 2.02524614334106 0
vt 0.953638792037964 0.645624041557312
vt 0.951244652271271 1.10297739505768
vt 0.746091365814209 1.01050186157227
vt 0.747886955738068 0.610232472419739
vt 0.471861958503723 0.939190089702606
vt 0.47305902838707 0.59600442647934
vt 0.181466221809387 0.899196982383728
vt 0.18206475675106 0.613146305084229
vt -0.00298642530106008 0.645538687705994
vt -0.00298642530106008 0.874300718307495
vt -0.0085764229297638 0.957009613513947
vt 0.23892916738987 0.0157259367406368
vt 0.216455236077309 0.756130754947662
vt 0.514967620372772 -0.0201648566871881
vt 0.499984979629517 0.47343835234642
vt 0.804275572299957 -0.073643870651722
vt 0.796784222126007 0.17315773665905
vt 1.00310432910919 0.0011680331081152
vt -0.00143217400182039 1.46193063259125
vt 0.24959072470665 0.000755824439693242
vt 0.248258247971535 1.36092674732208
vt 0.499220252037048 0.00152657413855195
vt 0.498029291629791 1.2172110080719
vt 0.748907148838043 0.00231941044330597
vt 0.74787312746048 1.05780613422394
vt 0.998621761798859 0.00312289362773299
vt 0.997643828392029 1.00137197971344
vt 0.331005573272705 0.00239428225904703
vt 0.332702428102493 0.983422636985779
vt 0.671510994434357 0.982368648052216
vt 0.669814825057983 0.00174298288766295
vt 1 0.971675634384155
vt 0 0.971675634384155
vt 0.997970163822174 0.944257318973541
vt 0.597970187664032 0.944257318973541
vt 0.600000023841858 0
vt 0.197970166802406 0.944257259368896
vt 0.200000002980232 0
vt -0.00202649389393628 0.942706286907196
vt -0.00378663814626634 0.982048332691193
vt -0.00550359394401312 0.00303347338922322
vt 0.205751836299896 0.38147047162056
vt 0 0.417288839817047
vt 0.476819396018982 0.367352962493896
vt 0.747886955738068 0.38147047162056
vt 1 0.417288839817047
vt 0.5 0
vt 0.49511581659317 0.261360555887222
vt 0.513177096843719 0.293971568346024
vt 0.716085195541382 0.352311044931412
vt 0.923137068748474 0.372024387121201
vt 0.998611986637115 0.373913198709488
vt 0.999292433261871 0.680848896503448
vt 0.604263186454773 0.680848896503448
vn 4.97939628573573e-07 1.97654395983229e-08 0.999999999999876
vn 0.366492844011029 -1.45900972634455e-07 0.930420869976962
vn 0.113252864168298 0.348555180083249 0.93042091291781
vn 0.697572753251412 -1.85647169716128e-07 0.716513959334506
vn 0.522982811751955 0.379968830085383 0.762963083494585
vn 0.215562363227406 0.663430941126959 0.716513959330321
vn 0.897268159191077 -1.82057074237457e-07 0.441485957309883
vn 0.80943299468725 0.346238768254282 0.474275175894109
vn 0.579421759027475 0.662822362110865 0.474275174820778
vn 0.277271641001571 0.853352557038031 0.441485957299833
vn 0.966322608352266 -0.205398209237759 0.155023199003231
vn 0.966322633355867 0.205398128082235 0.155023150672718
vn 0.90250151372116 -0.401819422793971 -0.155023124715427
vn 0.98791083792418 0 -0.15502314766494
vn 0.902501513728648 0.40181942278133 -0.155023124704598
vn 0.725905329970291 -0.527400850529824 -0.441485894204039
vn 0.858359192311918 -0.195659250476835 -0.474275188763311
vn 0.858359099859402 0.195659428690578 -0.474275282565974
vn 0.725905310407688 0.527400877454748 -0.441485894204878
vn -0.296498392628385 0.215419193565018 0.9304210198682
vn -0.199761095858435 0.614803044608215 0.762963118978831
vn -0.564347886071001 0.410023425638072 0.716513959330321
vn -0.0791638631889121 0.876810170544025 0.474275244552744
vn -0.451330356154763 0.755886213758764 0.474275174832769
vn -0.725904860921493 0.527401443302535 0.441485957299833
vn 0.493955490435779 0.855555840506098 0.155023150671938
vn 0.103264970985371 0.982498933098108 0.155023199000891
vn 0.661041343409814 0.734160853031931 -0.155023173036729
vn 0.305281237879512 0.939559039915431 -0.15502314766494
vn -0.103264675186931 0.982498975912811 -0.155023124690528
vn 0.451330719239173 0.755885988377747 -0.474275188519542
vn 0.0791643745273531 0.876810103824871 -0.474275282548344
vn -0.277270963952742 0.853352809676464 -0.441485894186894
vn -0.296498790229665 -0.215418646313598 0.930421019868297
vn -0.646442015247962 4.97082189639371e-07 0.762963118978832
vn -0.564348538336993 -0.410022527870953 0.716513959330321
vn -0.858359005304445 0.195659935629728 0.47427524455967
vn -0.858359259303898 -0.195658990329698 0.474275174840964
vn -0.725905517699413 -0.527400539325282 0.441485957299833
vn -0.661041316131114 0.73416088231526 0.155023150676673
vn -0.90250138160379 0.401819690873723 0.155023199003875
vn -0.493955454153704 0.855555857403809 -0.155023173022102
vn -0.799236656766143 0.580679421169145 -0.15502314766494
vn -0.966322592841354 0.205398338305165 -0.155023124680932
vn -0.579421432479199 0.662822637786119 -0.474275188495039
vn -0.80943283577956 0.346239088032596 -0.474275213647325
vn -0.89726819025535 1.80038255544277e-07 -0.441485894175406
vn 0.113252288809972 -0.348555290619181 0.930420941542419
vn -0.199762041364947 -0.614802737394526 0.762963118978832
vn 0.21556130783886 -0.663431284043485 0.716513959330321
vn -0.451331176687891 -0.755885680088783 0.474275244542915
vn -0.0791648406975019 -0.876810119994838 0.474275174842598
vn 0.277270578312575 -0.853352902326617 0.441485957299833
vn -0.902501491816422 -0.401819461975811 0.155023150679507
vn -0.661041499746062 -0.734160706783362 0.15502319900206
vn -0.966322603044919 -0.205398253822118 -0.15502317301396
vn -0.799236656870425 -0.580679421025613 -0.15502314766494
vn -0.493955531336296 -0.855555821601931 -0.155023124679264
vn -0.809432848300419 -0.346238998860628 -0.474275257377255
vn -0.579421372480272 -0.662822622946617 -0.474275282534568
vn -0.277271274707102 -0.853352708706252 -0.441485894186893
vn 0.522982340630368 -0.379969336014528 0.762963154469114
vn 0.57942099791848 -0.662822977571149 0.474275244530924
vn 0.809432749541484 -0.346239248775015 0.47427524347938
vn 0.103264719262696 -0.982498967180239 0.155023150675504
vn 0.493955266754883 -0.85555596089195 0.155023198997325
vn -0.103264758672776 -0.98249895951035 -0.155023173033365
vn 0.30528123771078 -0.939559039970256 -0.15502314766494
vn 0.661041343334668 -0.734160853101794 -0.155023173026305
vn 0.0791644143450644 -0.876810151096765 -0.474275188508815
vn 0.451330860066659 -0.755885845432966 -0.474275282326183
vn -4.98029421762701e-07 1.97654395983229e-08 -0.999999999999876
vn -0.366492844094574 -1.45900972734695e-07 -0.930420869944053
vn -0.113252864251842 0.348555180083249 -0.930420912907641
vn -0.697572753289614 -4.23165824236067e-08 -0.716513959297337
vn -0.522982771625548 0.379968885383515 -0.762963083460313
vn -0.215562105951476 0.663431024734591 -0.716513959317873
vn -0.987910846072255 8.46557482822261e-08 0.155023095739937
vn 0.29649839254484 0.215419193565018 -0.930421019894823
vn 0.199761160812015 0.614803023487416 -0.762963118991848
vn 0.564348045060924 0.410023206749478 -0.71651395936352
vn -0.305281159881868 0.939559073829116 0.155023095719816
vn 0.296498790146119 -0.215418646313598 -0.930421019894921
vn 0.646442015198125 4.28724408362407e-07 -0.762963119021098
vn 0.564348454049476 -0.410022643831632 -0.71651395935968
vn 0.799236713125734 0.580679357473221 0.155023095687258
vn -0.113252288893518 -0.348555290619181 -0.930420941532249
vn 0.199761976272304 -0.614802758528307 -0.762963118991848
vn -0.215561565250564 -0.663431200418967 -0.716513959317874
vn 0.799236613668934 -0.580679494366109 0.155023095678468
vn -0.522982380876946 -0.379969280688735 -0.762963154434843
vn -0.305281320851147 -0.939559021527027 0.155023095719816
vn -1 0 0
vn 0 -0.791374674981683 0.61133143530955
vn 0 -0.976847517164155 0.213936738804314
vn -0.781957251298894 -0.00488638243330479 0.623312907300814
vn 0 0 -1
vn 0.42715353154687 0 -0.904179108632265
vn 0 -1 0
vn 0.772446598806346 0 -0.635079720974074
vn -0.772446598806346 0 -0.635079720974074
vn -0.42715353154687 0 -0.904179108632265
vn 0.781957251298894 -0.00488638243330479 0.623312907300814
vn 1 0 0
vn 0 0 1
vn 0.384020274162427 -0.0348565619930375 -0.922666488563576
vn 0.320806950378726 -0.187460364177645 -0.928408052771564
vn 0.228197044632242 -0.100064161437192 -0.968459225996109
vn 0.270458414349029 -0.014694476252406 -0.962619508671768
vn -0.00837179478191116 0.00339242544859187 -0.999959201418591
vn -0.0085817981650341 -0.000254995857105995 -0.999963143179471
vn -0.269049108475267 0.0815780883156535 -0.959665354556174
vn -0.239596097040554 -0.00120888501879388 -0.970871901375225
vn -0.389652725722596 0.00427988715207474 -0.920951918344773
vn -0.232569824394744 0.229888431646548 -0.945019886444771
vn 0.135873306416593 -0.253198361085886 -0.95782515865206
vn 0.140873881604408 -0.343043260310364 -0.928695790362669
vn -0.00395537526035817 0.0132828848051522 -0.999903955376617
vn -0.102404581794561 0.25393369899873 -0.96178530771701
vn 0 -0.413177027205944 -0.910650725684254
vn 0 -0.298252737796988 -0.954486932543658
vn 0 0.01872913722061 -0.999824594325911
vn 0 0.30047792760043 -0.953788768556723
vn 0 0.383094337962705 -0.92370922276489
vn -0.999982322079518 0.00594605150120658 0
vn 0 1 0
vn 0.394493686949048 -0.918898651080383 0
vn 0.927822165392716 -0.373022826923462 0
vn 0.995616460584582 -0.0935300134343527 0
vn 0.983380912395686 -0.18155434760927 0
vn -0.99992928894309 0.0118918927747615 0
vn -0.303683991759283 0.000573578289111092 -0.952772640327741
vn -0.38826308506541 0.0084078123081877 -0.921510219947495
vn -0.0475206942124414 -0.00528913677045242 -0.998856250245145
vn 0.226129919672581 -0.00100503858411936 -0.974096632437623
vn 0.354687515713265 -0.0343071296386931 -0.934355278816953
g tunnel_trigger prop_neighborhood_tunnel
f 1//1 2//2 3//3
f 2//2 4//4 5//5
f 2//2 5//5 3//3
f 3//3 5//5 6//6
f 4//4 7//7 8//8
f 4//4 8//8 5//5
f 5//5 8//8 9//9
f 5//5 9//9 6//6
f 6//6 9//9 10//10
f 7//7 11//11 12//12
f 11//11 13//13 14//14
f 11//11 14//14 12//12
f 12//12 14//14 15//15
f 13//13 16//16 17//17
f 13//13 17//17 14//14
f 14//14 17//17 18//18
f 14//14 18//18 15//15
f 15//15 18//18 19//19
f 1//1 3//3 20//20
f 3//3 6//6 21//21
f 3//3 21//21 20//20
f 20//20 21//21 22//22
f 6//6 10//10 23//23
f 6//6 23//23 21//21
f 21//21 23//23 24//24
f 21//21 24//24 22//22
f 22//22 24//24 25//25
f 10//10 26//26 27//27
f 26//26 28//28 29//29
f 26//26 29//29 27//27
f 27//27 29//29 30//30
f 28//28 19//19 31//31
f 28//28 31//31 29//29
f 29//29 31//31 32//32
f 29//29 32//32 30//30
f 30//30 32//32 33//33
f 1//1 20//20 34//34
f 20//20 22//22 35//35
f 20//20 35//35 34//34
f 34//34 35//35 36//36
f 22//22 25//25 37//37
f 22//22 37//37 35//35
f 35//35 37//37 38//38
f 35//35 38//38 36//36
f 36//36 38//38 39//39
f 25//25 40//40 41//41
f 40//40 42//42 43//43
f 40//40 43//43 41//41
f 41//41 43//43 44//44
f 42//42 33//33 45//45
f 42//42 45//45 43//43
f 43//43 45//45 46//46
f 43//43 46//46 44//44
f 44//44 46//46 47//47
f 1//1 34//34 48//48
f 34//34 36//36 49//49
f 34//34 49//49 48//48
f 48//48 49//49 50//50
f 36//36 39//39 51//51
f 36//36 51//51 49//49
f 49//49 51//51 52//52
f 49//49 52//52 50//50
f 50//50 52//52 53//53
f 39//39 54//54 55//55
f 54//54 56//56 57//57
f 54//54 57//57 55//55
f 55//55 57//57 58//58
f 56//56 47//47 59//59
f 56//56 59//59 57//57
f 57//57 59//59 60//60
f 57//57 60//60 58//58
f 58//58 60//60 61//61
f 1//1 48//48 2//2
f 48//48 50//50 62//62
f 48//48 62//62 2//2
f 2//2 62//62 4//4
f 50//50 53//53 63//63
f 50//50 63//63 62//62
f 62//62 63//63 64//64
f 62//62 64//64 4//4
f 4//4 64//64 7//7
f 53//53 65//65 66//66
f 65//65 67//67 68//68
f 65//65 68//68 66//66
f 66//66 68//68 69//69
f 67//67 61//61 70//70
f 67//67 70//70 68//68
f 68//68 70//70 71//71
f 68//68 71//71 69//69
f 69//69 71//71 16//16
f 72//72 73//73 74//74
f 73//73 75//75 76//76
f 73//73 76//76 74//74
f 74//74 76//76 77//77
f 75//75 47//47 46//46
f 75//75 46//46 76//76
f 76//76 46//46 45//45
f 76//76 45//45 77//77
f 77//77 45//45 33//33
f 47//47 56//56 44//44
f 56//56 54//54 78//78
f 56//56 78//78 44//44
f 44//44 78//78 41//41
f 54//54 39//39 38//38
f 54//54 38//38 78//78
f 78//78 38//38 37//37
f 78//78 37//37 41//41
f 41//41 37//37 25//25
f 72//72 74//74 79//79
f 74//74 77//77 80//80
f 74//74 80//80 79//79
f 79//79 80//80 81//81
f 77//77 33//33 32//32
f 77//77 32//32 80//80
f 80//80 32//32 31//31
f 80//80 31//31 81//81
f 81//81 31//31 19//19
f 33//33 42//42 30//30
f 42//42 40//40 82//82
f 42//42 82//82 30//30
f 30//30 82//82 27//27
f 40//40 25//25 24//24
f 40//40 24//24 82//82
f 82//82 24//24 23//23
f 82//82 23//23 27//27
f 27//27 23//23 10//10
f 72//72 79//79 83//83
f 79//79 81//81 84//84
f 79//79 84//84 83//83
f 83//83 84//84 85//85
f 81//81 19//19 18//18
f 81//81 18//18 84//84
f 84//84 18//18 17//17
f 84//84 17//17 85//85
f 85//85 17//17 16//16
f 19//19 28//28 15//15
f 28//28 26//26 86//86
f 28//28 86//86 15//15
f 15//15 86//86 12//12
f 26//26 10//10 9//9
f 26//26 9//9 86//86
f 86//86 9//9 8//8
f 86//86 8//8 12//12
f 12//12 8//8 7//7
f 72//72 83//83 87//87
f 83//83 85//85 88//88
f 83//83 88//88 87//87
f 87//87 88//88 89//89
f 85//85 16//16 71//71
f 85//85 71//71 88//88
f 88//88 71//71 70//70
f 88//88 70//70 89//89
f 89//89 70//70 61//61
f 16//16 13//13 69//69
f 13//13 11//11 90//90
f 13//13 90//90 69//69
f 69//69 90//90 66//66
f 11//11 7//7 64//64
f 11//11 64//64 90//90
f 90//90 64//64 63//63
f 90//90 63//63 66//66
f 66//66 63//63 53//53
f 72//72 87//87 73//73
f 87//87 89//89 91//91
f 87//87 91//91 73//73
f 73//73 91//91 75//75
f 89//89 61//61 60//60
f 89//89 60//60 91//91
f 91//91 60//60 59//59
f 91//91 59//59 75//75
f 75//75 59//59 47//47
f 61//61 67//67 58//58
f 67//67 65//65 92//92
f 67//67 92//92 58//58
f 58//58 92//92 55//55
f 65//65 53//53 52//52
f 65//65 52//52 92//92
f 92//92 52//52 51//51
f 92//92 51//51 55//55
f 55//55 51//51 39//39
g building neighborhood_tunnel_building prop_neighborhood_tunnel
f 93/1/93 94/2/93 95/3/93 96/4/93
f 94/2/93 97/5/93 98/6/93
f 99/7/94 97/8/94 94/9/95 100/10/94
f 101/5/96 102/11/96 99/12/96 100/13/96 103/14/96
f 103/1/97 100/14/97 104/5/98 105/15/98
f 105/14/99 106/5/99 101/15/99 103/1/99
f 105/1/98 104/14/98 107/5/100 106/15/100
f 106/15/101 107/5/101 108/14/102 109/1/102
f 110/1/99 101/15/99 106/5/99 109/14/99
f 109/15/102 108/5/102 111/14/97 110/1/97
f 110/14/103 111/13/103 112/12/103 102/11/103 101/5/103
f 111/10/94 113/9/95 114/8/94 112/7/94
f 115/6/104 114/5/104 113/2/104
f 116/4/104 117/3/104 113/2/104 118/1/104
g tunnel_floor_1 short_tunnel_interior prop_neighborhood_tunnel
f 119/16/105 120/17/105 121/18/105 122/19/105
f 120/17/105 123/20/105 121/18/105
f 120/17/105 124/21/105 125/22/105 123/20/105
f 122/19/105 126/1/105 127/23/105 119/16/105
g s_tunnel_ceiling short_tunnel_interior prop_neighborhood_tunnel
f 128/24/106 129/25/107 130/26/108 131/27/109
f 130/26/108 132/28/110 133/29/111 131/27/109
f 132/28/110 134/30/112 135/31/113 133/29/111
f 134/30/112 136/32/114 135/31/113
f 134/30/112 137/33/115 136/32/114
f 129/34/107 138/35/116 130/36/108
f 129/34/107 139/1/117 138/35/116
f 138/35/116 140/37/118 132/38/110 130/36/108
f 140/37/118 141/39/119 134/40/112 132/38/110
f 141/39/119 137/41/115 134/40/112
f 139/42/117 142/1/120 143/43/121 138/44/116
f 143/43/121 144/45/122 140/46/118 138/44/116
f 144/45/122 145/47/123 141/48/119 140/46/118
f 145/47/123 146/49/124 137/50/115 141/48/119
g s_tunnel_walls short_tunnel_interior prop_neighborhood_tunnel
f 119/51/125 136/52/125 137/53/93 120/54/93
f 120/14/126 137/5/126 146/15/126 124/1/126
f 125/14/99 142/55/99 139/56/127 123/1/127
f 123/14/127 139/57/127 129/58/128 121/59/128
f 121/59/128 129/58/128 128/60/129 122/61/129
f 124//93 147//93 148//93 125//93
g tunnel_walls short_tunnel_interior prop_neighborhood_tunnel
f 126/1/130 122/61/129 128/60/129 149/62/130
f 150/63/131 136/52/125 119/51/125 127/64/131
g tunnel_ceiling_1 short_tunnel_interior prop_neighborhood_tunnel
f 151/65/132 136/32/114 150/66/133
f 151/65/132 135/31/113 136/32/114
f 152/67/134 135/31/113 151/65/132
f 152/67/134 133/29/111 135/31/113
f 153/68/135 131/27/109 133/29/111 152/67/134
f 149/69/136 131/27/109 153/68/135
f 149/69/136 128/24/106 131/27/109
g neighborhood_tunnel_front prop_neighborhood_tunnel
f 93/1/99 126/70/99 154/71/99 155/72/99 156/73/99 157/74/99 158/75/99 159/76/99 94/9/95
f 104/77/99 159/76/99 107/5/99
f 107/5/99 159/76/99 108/77/99
f 113/9/95 159/76/99 158/75/99 160/74/99 161/73/99 162/72/99 163/71/99 127/70/99 118/1/99
g tunnel_wall_collisions neighborhood_tunnel_collisions prop_neighborhood_tunnel
f 164//99 165//99 166//99 167//99
f 168//99 113//95 94//95 169//99
f 169//99 170//99 171//99 172//99
f 173//99 168//99 174//99 175//99
f 165//93 164//93 175//93 174//93
f 167//104 166//104 172//104 171//104
g tunnel_floor_collisions_1 neighborhood_tunnel_collisions prop_neighborhood_tunnel
f 126//105 176//105 177//105 178//105
