v 0.938179874749069 1.6249740532401 0.00542530390097156
v -0.938178980185007 1.62497438870163 0.00542530390097156
v -0.938178980185007 1.62497438870163 2.15994572645196
v 0.938179874749069 1.6249740532401 2.15994572645196
v -1.87635885493408 2.98059874536325e-07 0.00542530390097156
v -1.87635885493408 2.98059874536325e-07 2.15994572645196
v -0.938179539287546 -1.6249740532401 0.00542530390097156
v -0.938179539287546 -1.6249740532401 2.15994572645196
v 0.938179092005515 -1.62497416506061 0.00542530390097156
v 0.938179092005515 -1.62497416506061 2.15994572645196
v 1.87635840765205 0 0.00542530390097156
v 1.87635840765205 0 2.15994572645196
v 0.933906542224621 1.61757265383166 2.05752663970498
v -0.933905815391321 1.61757298929318 2.05752663970498
v -0.933905815391321 1.61757298929318 2.33208892532382
v 0.933906542224621 1.61757265383166 2.33208892532382
v -1.86781230170569 2.96702262947723e-07 2.05752663970498
v -1.86781230170569 2.96702262947723e-07 2.33208892532382
v -0.933906206763098 -1.61757265383166 2.05752663970498
v -0.933906206763098 -1.61757265383166 2.33208892532382
v 0.933905871301575 -1.61757265383166 2.05752663970498
v 0.933905871301575 -1.61757265383166 2.33208892532382
v 1.86781207806467 0 2.05752663970498
v 1.86781207806467 0 2.33208892532382
v 0.331017971979132 0.573339749474514 2.59998134129595
v -0.331017776293244 0.573339749474514 2.59998134129595
v -0.662035608496741 2.18785613897291e-07 2.59998134129595
v -0.331017888113751 -0.573339581743753 2.59998134129595
v 0.331017748338117 -0.573339581743753 2.59998134129595
v 0.662035552586487 1.13621116674328e-07 2.59998134129595
v -0.684864268347652 1.18622023687653 2.51286645652265
v 0.684864771539937 1.18622001323552 2.51286645652265
v -1.36972909579784 2.57503324476156e-07 2.51286645652265
v -0.684864547898922 -1.1862197895945 2.51286645652265
v 0.684864268347652 -1.1862197895945 2.51286645652265
v 1.36972876033632 3.99216367659009e-08 2.51286645652265
v -2.13516764377906 -2.13516764377906 0.0051182360506932
v 2.13516764377906 -2.13516764377906 0.0051182360506932
v 2.13516764377906 2.13516764377906 0.0051182360506932
v -2.13516764377906 2.13516764377906 0.0051182360506932
v -0.686883187615208 0.988796993072461 -0.00953655609381651
v -0.686883187615208 0.988796993072461 2.09335571951851
v -1.20404912227435 0.988796993072461 2.09335571951851
v -1.20404912227435 0.988796993072461 -0.00953655609381651
v -0.686883187615208 -0.978366935211412 -0.00953656220900052
v -0.686883187615208 -0.978366935211412 2.09335571951851
v -1.20404901045385 -0.978366935211412 2.09335571951851
v -1.20404901045385 -0.978366935211412 -0.00953656220900052
v 1.24363425294344 -0.978366935211411 -0.00953656220900052
v 1.24363436476394 -0.978367047031919 2.09335571951851
v 0.7264684301048 -0.978367047031919 2.09335571951851
v 0.7264684301048 -0.978366935211411 -0.00953656220900052
v 1.24363436476394 0.988796993072462 -0.00953656220900052
v 1.24363436476394 0.988796993072462 2.09335571951851
v 0.726468486015054 0.988796993072462 2.09335571951851
v 0.7264684301048 0.988796993072462 -0.00953656220900052
vt 0.752632319927216 0.991914808750153
vt 0.239261358976364 0.991914868354797
vt 0.26810747385025 0.941105842590332
vt 0.728224098682404 0.941105723381042
vt -0.0152052529156208 0.502116978168488
vt 0.0380490869283676 0.502116978168488
vt 0.237042337656021 0.00808504782617092
vt 0.268107354640961 0.0631281137466431
vt 0.757070064544678 0.00808504782617092
vt 0.728223919868469 0.0631281137466431
vt 1.02485013008118 0.502116978168488
vt 0.958282232284546 0.502116978168488
vt 0.750000059604645 0.999999821186066
vt 0.99999988079071 0.49999988079071
vt 0.74999988079071 -3.40527499531618e-08
vt 0.249999910593033 -3.40527499531618e-08
vt -5.89685811291929e-08 0.499999970197678
vt 0.250000029802322 0.999999940395355
vt 0.579708576202393 0.657714009284973
vt 0.416622787714005 0.657714068889618
vt 0.335079938173294 0.502116978168488
vt 0.416622787714005 0.346519827842712
vt 0.579708516597748 0.346519827842712
vt 0.661251485347748 0.502116978168488
vt 0.329456329345703 0.824042081832886
vt 0.666875183582306 0.824042022228241
vt 0.160746842622757 0.502116978168488
vt 0.329456269741058 0.180191829800606
vt 0.666875064373016 0.180191829800606
vt 0.83558452129364 0.502116978168488
vt 0 0
vt 1 0
vt 1 1
vt 0 1
vt 2.98023223876953e-08 0
vn 2.07566031917845e-07 0.999999999999978 0
vn -0.499999793459967 0.866025523030349 0
vn -0.866025255949505 0.50000025605753 0
vn -0.866025412803317 -0.499999984378844 0
vn -0.500000038496494 -0.866025381558476 0
vn -1.03783037275206e-07 -0.999999999999995 0
vn 0.866025388990126 -0.5000000256245 0
vn 0.999999999999986 -1.65737432012266e-07 0
vn 0.866025549836617 0.499999747030122 0
vn 0 -8.95858248695092e-11 -1
vn 0 0 1
vn 1.02265381940469e-07 0.999999999999995 0
vn -0.499999830516123 0.866025501635979 0
vn -0.866025318477056 0.500000147756692 0
vn -0.866025399898532 -0.500000006730587 0
vn 0 -1 0
vn 0.499999959918422 -0.866025426925547 0
vn 0.999999999999988 -1.55539326043296e-07 0
vn 0.86602553493547 0.499999772839681 0
vn 0 0 -1
vn 0.0407592034279909 0.0705971219418563 0.996671828491928
vn -0.040759184853922 0.070597114582006 0.996671829772839
vn -0.0815183778889404 -1.74425477124154e-08 0.996671838704373
vn -0.0407591960326656 -0.0705971071364002 0.996671829843075
vn 0.0407591923135641 -0.0705971071471196 0.996671829994409
vn 0.0815183926910803 -9.96716972862501e-09 0.996671837493697
vn 0.170585135602943 0.295462022019052 0.940001545241144
vn -0.170585053835789 0.295462121266213 0.940001528884241
vn -0.116121597540485 0.201128600169939 0.972657730539539
vn 0.116121658310527 0.201128537143021 0.972657736317314
vn -0.341170181668516 5.02206936004368e-08 0.940001546349935
vn -0.232243244416811 3.2331388168635e-08 0.972657738067586
vn -0.170585090244698 -0.295462003924307 0.940001559160005
vn -0.116121624534819 -0.201128543233657 0.972657739090222
vn 0.170585065323858 -0.295462010046725 0.940001561758067
vn 0.116121618046707 -0.201128553469473 0.972657737748224
vn 0.34117016505102 -5.6734417420414e-08 0.940001552381195
vn 0.23224325460548 -4.13671102745652e-08 0.972657735634819
vn 0 -0.999999999999999 -5.31746309206937e-08
g tube collisions CookieTableAall
f 1//1 2//2 3//2 4//1
f 2//2 5//3 6//3 3//2
f 5//4 7//5 8//5 6//4
f 7//5 9//6 10//6 8//5
f 9//7 11//8 12//8 10//7
f 11//8 1//9 4//9 12//8
f 1//10 11//10 9//10 7//10 5//10 2//10
f 4//11 3//11 6//11 8//11 10//11 12//11
g cookie cookieTableA CookieTableAall
f 13/1/12 14/2/13 15/3/13 16/4/12
f 14/2/13 17/5/14 18/6/14 15/3/13
f 17/5/15 19/7/15 20/8/15 18/6/15
f 19/7/16 21/9/17 22/10/17 20/8/16
f 21/9/17 23/11/18 24/12/18 22/10/17
f 23/11/18 13/1/19 16/4/19 24/12/18
f 13/13/20 23/14/20 21/15/20 19/16/20 17/17/20 14/18/20
f 25/19/21 26/20/22 27/21/23 28/22/24 29/23/25 30/24/26
f 16/4/27 15/3/28 31/25/29 32/26/30
f 15/3/28 18/6/31 33/27/32 31/25/29
f 18/6/31 20/8/33 34/28/34 33/27/32
f 20/8/33 22/10/35 35/29/36 34/28/34
f 22/10/35 24/12/37 36/30/38 35/29/36
f 24/12/37 16/4/27 32/26/30 36/30/38
f 32/26/30 31/25/29 26/20/22 25/19/21
f 31/25/29 33/27/32 27/21/23 26/20/22
f 33/27/32 34/28/34 28/22/24 27/21/23
f 34/28/34 35/29/36 29/23/25 28/22/24
f 35/29/36 36/30/38 30/24/26 29/23/25
f 36/30/38 32/26/30 25/19/21 30/24/26
g shadow1 cookieTableA CookieTableAall
f 37/31/11 38/32/11 39/33/11 40/34/11
g leg1 cookieTableA CookieTableAall
f 41/35/16 42/34/16 43/33/16 44/32/16
g leg2 cookieTableA CookieTableAall
f 45/35/16 46/34/16 47/33/16 48/32/16
g leg3 cookieTableA CookieTableAall
f 49/35/39 50/34/39 51/33/39 52/32/39
g leg4 cookieTableA CookieTableAall
f 53/35/16 54/34/16 55/33/16 56/32/16
