v 1.99527113675097 -3 22.6272468469698
v 6.88251524138044 -3 22.5726054241696
v 6.94406784661151 -3 28.0780002624446
v 2.05682374198204 -3 28.1326416852448
v 7.817572240959 -3 22.5223405186974
v 12.7048163455885 -3 22.4676990958973
v 12.7663689508195 -3 27.9730939341723
v 7.87912484619007 -3 28.0277353569725
v 15.1346331645205 -3 19.9691453713566
v 14.7198005184651 -3 25.0063702417481
v 14.3686021136214 -3 28.2791019052779
v 9.4244049534131 -3 28.9788041144211
v 4.48020779320481 -3 29.0247413500949
v -0.46398936700349 -3 28.4169136122993
v -1.12118886525618 -3 25.0878640935309
v -1.29818172712689 -3 19.9691453713566
v 15.5654795125615 -4.12333019284461 30.2027709997483
v -1.81443254661874 -4.12333019284461 30.5520847192906
v 15.5002720040381 -4.12333019284461 32.3486982473835
v -1.16359811559217 -4.12333019284461 32.1619623489704
v 14.3396855336584 -3 33.3341169857325
v -0.51276368456559 -3 33.7718399786503
v 13.6531234729913 -3 35.2175359657478
v 9.64217260361847 -3 38.434620350846
v 5.33702975887348 -3 38.2254289124412
v 3.02209077340873 -3 38.946443177168
v 1.38483040899538 -3 38.277642452821
v 0.101130929079718 -3 34.5506766795675
v 14.3686021136214 6.19511032104492 28.2791019052779
v 15.5654795125615 6.19511032104492 30.2027709997483
v 15.5002720040381 6.19511032104492 32.3486982473835
v 14.3396855336584 6.19511032104492 33.3341169857325
v 13.6531234729913 6.19511032104492 35.2175359657478
v 9.64217260361847 6.19511032104492 38.434620350846
v 5.33702975887348 6.19511032104492 38.2254289124412
v 3.02209077340873 6.19511032104492 38.946443177168
v 1.38483040899538 6.19511032104492 38.277642452821
v 0.101130929079718 6.19511032104492 34.5506766795675
v -0.51276368456559 6.19511032104492 33.7718399786503
v -1.16359811559217 6.19511032104492 32.1619623489704
v -1.81443254661874 6.19511032104492 30.5520847192906
v -0.46398936700349 6.19511032104492 28.4169136122993
v 15.5290979581699 -3 10.808722166297
v 15.3660311585725 -3 9.48415691939987
v 15.3660311585725 0 9.48415691939987
v 15.5290979581699 0 10.808722166297
v 14.2258486143736 -3 0
v 14.2258486143736 0 0
v 15.529141238963 0 10.8090737291808
v 15.529141238963 -3 10.8090737291808
v 15.5164930306509 -3 15.3323019768775
v 15.5262422697094 -3 10.8090737291808
v 15.5262422697094 0 10.8090737291808
v 15.5164930306509 0 15.3323019768775
v 15.1346331645205 0 19.9691453713566
v 15.1346331645205 6.19511032104492 19.9691453713566
v 14.7198005184651 6.19511032104492 25.0063702417481
v -1.12118886525618 6.19511032104492 25.0878640935309
v -1.47969124743605 -3 13.7289755206411
v -1.51395164541775 -3 14.4553685368258
v -1.51395164541775 0 14.4553685368258
v -1.47969124743605 0 13.7289755206411
v -1.51395164541775 0 13.7289755206411
v -1.51395164541775 -3 13.7289755206411
v -1.29818172712689 0 19.9691453713566
v -1.29818172712689 6.19511032104492 19.9691453713566
v -1.2869593088021 0 9.64265012844261
v -1.2869593088021 -3 9.64265012844261
v 0 0 0
v 0 -3 0
v 15.529141238963 -3 -2
v 15.529141238963 -3 20
v -1.51395164541775 -3 20
v -1.51395164541775 -3 -2
v 15.529141238963 0 -2
v 15.529141238963 0 20
v -1.51395164541775 0 20
v -1.51395164541775 0 -2
v 8.15106493486016 -3 14.4637505330816
v 13.0383090394896 -3 14.4091091102814
v 13.0998616447207 -3 19.9145039485564
v 8.21261754009122 -3 19.9691453713566
v 1.33215303353633 -3 14.4637505330816
v 6.2193971381658 -3 14.4091091102814
v 6.28094974339687 -3 19.9145039485564
v 1.39370563876739 -3 19.9691453713566
vt 0 0
vt 1 0
vt 1 1
vt 0 1
vt 0.987806558609009 0.00982753001153469
vt 0.0121934255585074 0.990172445774078
vt 0.900700271129608 0.506549537181854
vt 0.878265857696533 0.635582208633423
vt 0.85980087518692 0.719392478466034
vt 0.624005138874054 0.735915124416351
vt 0.388557463884354 0.735675632953644
vt 0.153457790613174 0.718673944473267
vt 0.12393681704998 0.633130669593811
vt 0.118234157562256 0.50183892250061
vt 0.915767431259155 0.769057333469391
vt 0.0880183055996895 0.773031413555145
vt 0.911520063877106 0.824058949947357
vt 0.118151441216469 0.81449431180954
vt 0.855732858181 0.848991870880127
vt 0.148284569382668 0.855957210063934
vt 0.82203882932663 0.897084832191467
vt 0.629340410232544 0.978419244289398
vt 0.42445781826973 0.971821546554565
vt 0.313845664262772 0.989644348621368
vt 0.236241802573204 0.972027361392975
vt 0.177101194858551 0.876102089881897
vt 0 0.110612034797668
vt 1 0.110612034797668
vt 0 0.286754161119461
vt 1 0.286754161119461
vt 0 0.410229206085205
vt 1 0.410229206085205
vt 0 0.58853018283844
vt 1 0.58853018283844
vt 0.0829000025987625 2.08963084220886
vt 0.422955185174942 2.02856683731079
vt 0.422847032546997 2.01858735084534
vt 0.082791842520237 2.07965135574341
vt 0.423219829797745 2.05298328399658
vt 0.0831646397709846 2.11404728889465
vt 0 0.896363258361816
vt 1 0.896363258361816
vt 0 0.540998756885529
vt 1 0.540998756885529
vt 0 0.456942856311798
vt 1 0.456942856311798
vt 0 0.300711929798126
vt 1 0.300711929798126
vt 0 0.144481003284454
vt 1 0.144481003284454
vt 0.979630827903748 0.32229146361351
vt 0.983180224895477 0.123523905873299
vt 0.867604494094849 0.124193280935287
vt 0.864055097103119 0.32296085357666
vt 0.673739612102509 0
vt 0.673739612102509 0.377552658319473
vt 1 0.377552658319473
vt 0.967694163322449 0.990747153759003
vt 0.85211843252182 0.991416573524475
vt 0.673739612102509 0.538764953613281
vt 1 0.538764953613281
vt 0.673739612102509 0.703959703445435
vt 1 0.703959703445435
vt 0 0.703959703445435
vt 0 0.883418679237366
vt 1 0.883418679237366
vt 0 0.881675124168396
vt 1 0.881675124168396
vt 0.104727260768414 0.69849818944931
vt 0.116624183952808 0.814373373985291
vt 0.299150973558426 0.821615159511566
vt 0.287254065275192 0.705739915370941
vt 0.673739612102509 0.476852983236313
vt 1 0.476852983236313
vt 1 0.699247896671295
vt 0.673739612102509 0.699247896671295
vt 0 0.699247896671295
vt 0.220327913761139 0.0538835860788822
vt 0.0378011167049408 0.0466418378055096
vt 0.673739612102509 0.331002116203308
vt 1 0.331002116203308
vt 0.867939889431 0
vt 0.924361705780029 0.271803706884384
vt 0.921351432800293 0.387773036956787
vt 0.111282102763653 0.341782718896866
vt 0.124266006052494 0.23707677423954
vt 0.190476194024086 0
vn 0 -1 0
vn -0.00449991265172593 -0.954689692548279 -0.297569053713924
vn 0.00278410695209756 -0.93689534165358 0.349598866611866
vn 0.277789246081581 -0.747442975688879 0.603458476495924
vn 0.974830811797244 0 -0.222945931496241
vn 0.965589042866132 0 -0.260072682719405
vn 0.901050851816593 0 0.433713456605387
vn 0.820677173994952 0 0.571392138626057
vn 0.939523586796065 0 0.342484203801953
vn 0.812612486287087 0 0.582804381529788
vn 0.308604993500519 0 0.951190284846594
vn 0.126354132934653 0 0.991985198019775
vn -0.0429185323336904 0 0.999078575279403
vn -0.726657905990055 0 0.686999481558865
vn -0.877768122192823 0 0.47908571640374
vn -0.864896723975039 0 0.501949854923025
vn -0.927103494968305 0 0.374805429012913
vn -0.995963065601136 0 -0.0897639791808875
vn -0.983023563387698 0 -0.183479355308851
vn 0.992507069064334 0 -0.122187224607672
vn 0.992809272503892 0 -0.119706927244387
vn 0.998283557841498 0 -0.0585656737630586
vn 0.999578553901863 0 0.0290295466630298
vn 0.999997677194082 0 0.00215536689264712
vn 0.996626109752907 0 0.0820755588393206
vn 0.995534923062703 0 0.0943939455820012
vn -0.993425090832971 0 0.114484011562765
vn -0.998889579047413 0 -0.0471127251438692
vn -0.999945250630228 0 -0.0104640213135576
vn -0.999402731300831 0 0.0345569192556058
vn -0.996926097651555 0 -0.0783476599602168
vn -0.991210754519393 0 -0.132292252702475
vn 1 0 0
vn -1 0 0
g decals decal_base BR_B3_building BR_B3
f 1/1/1 2/2/1 3/3/1 4/4/1
f 5/5/1 6/1/1 7/6/1 8/3/1
g decal_base BR_B3_building BR_B3
f 9/7/1 10/8/1 11/9/2 12/10/2 13/11/2 14/12/2 15/13/1 16/14/1
g BR_B3_building BR_B3
f 11/9/2 17/15/2 18/16/2 14/12/2 13/11/2 12/10/2
f 17/15/2 19/17/3 20/18/3 18/16/2
f 19/17/3 21/19/4 22/20/3 20/18/3
f 21/19/4 23/21/1 24/22/1 25/23/1 26/24/1 27/25/1 28/26/1 22/20/3
f 11/2/5 29/1/5 30/27/6 17/28/6
f 17/28/6 30/27/6 31/29/7 19/30/7
f 19/30/7 31/29/7 32/31/8 21/32/4
f 21/32/9 32/31/8 33/33/10 23/34/10
f 23/34/10 33/33/10 34/4/11 24/3/11
f 24/35/11 34/36/11 35/37/12 25/38/12
f 25/38/12 35/37/12 36/39/13 26/40/13
f 26/3/13 36/4/13 37/41/14 27/42/14
f 27/42/14 37/41/14 38/43/15 28/44/15
f 28/44/15 38/43/15 39/45/16 22/46/16
f 22/46/16 39/45/16 40/47/17 20/48/17
f 40/47/17 41/49/18 18/50/18 20/48/17
f 18/50/18 41/49/18 42/1/19 14/2/19
g decals decal_base BR_B3_building BR_B3
f 43/51/20 44/52/20 45/53/20 46/54/20
g decal_base BR_B3_building BR_B3
f 47/2/21 48/55/21 49/56/22 50/57/22
g decals decal_base BR_B3_building BR_B3
f 51/58/23 52/51/24 53/54/24 54/59/23
g decal_base BR_B3_building BR_B3
f 50/57/22 49/56/22 54/60/23 51/61/23
g BR_B3_building BR_B3
f 51/61/23 54/60/23 55/62/25 9/63/25
f 56/64/25 57/65/26 10/66/26 9/63/25
f 10/66/26 57/65/26 29/4/5 11/3/5
f 14/3/19 42/4/19 58/67/27 15/68/27
g decals decal_base BR_B3_building BR_B3
f 59/69/28 60/70/28 61/71/28 62/72/28
g decal_base BR_B3_building BR_B3
f 63/73/29 64/74/29 16/75/30 65/76/30
g BR_B3_building BR_B3
f 15/68/27 58/67/27 66/77/30 16/75/30
g decals decal_base BR_B3_building BR_B3
f 67/78/31 68/79/31 59/69/28 62/72/28
g decal_base BR_B3_building BR_B3
f 64/74/29 63/73/29 67/80/31 68/81/31
g BR_B3_building BR_B3
f 68/81/31 67/80/31 69/55/32 70/2/32
g BR_B3_camera_collisions BR_B3
f 71//1 72//1 73//1 74//1
f 75//33 76//33 72//33 71//33
f 74//34 73//34 77//34 78//34
g decals decal_base BR_B3_front BR_B3
f 79/5/1 80/1/1 81/6/1 82/3/1
f 83/1/1 84/2/1 85/3/1 86/4/1
g decal_base BR_B3_front BR_B3
f 47/82/1 50/83/1 51/84/1 9/7/1 16/14/1 64/85/1 68/86/1 70/87/1
