v -6.19270194546757 -2.78204069362851 2.4370869313638
v 6.19270194546757 -2.78204069362851 2.4370869313638
v 6.19270194546757 -2.78204069362851 2.74643409909226
v -6.19270194546757 -2.78204069362851 2.74643409909226
v 6.19270194546757 2.80567629756577 2.74643409909226
v -6.19270194546757 2.80567629756577 2.74643409909226
v 6.19270194546757 2.80567629756577 2.4370869313638
v -6.19270194546757 2.80567629756577 2.4370869313638
v -4.70882375722169 -1.53725341236185 -0.00752803534660439
v -4.38319178703889 -1.53725341236185 -0.00752803534660439
v -4.38319178703889 0.837423670010304 2.48712279352303
v -4.70882375722169 0.837423670010304 2.48712279352303
v -4.70882375722169 1.59172248339716 2.48712279352303
v -4.38319178703889 1.59172248339716 2.48712279352303
v -4.38319178703889 -0.782954598974994 -0.00752803534660439
v -4.70882375722169 -0.782954598974994 -0.00752803534660439
v -4.89713263323927 0.762963232405855 -0.0075282059668556
v -4.57148764702905 0.762963232405855 -0.0075282059668556
v -4.57148764702905 -1.40309709263599 2.48712004013262
v -4.89713263323927 -1.40309709263599 2.48712004013262
v -4.89713263323927 -0.648798404403246 2.48712004013262
v -4.57148764702905 -0.648798404403246 2.48712004013262
v -4.57148764702905 1.51726179548449 -0.0075282059668556
v -4.89713263323927 1.51726179548449 -0.0075282059668556
v 4.5271385373093 -1.53725341236185 -0.00752803534660439
v 4.8527730105743 -1.53725341236185 -0.00752803534660439
v 4.8527730105743 0.837423670010304 2.48712279352303
v 4.5271385373093 0.837423670010304 2.48712279352303
v 4.5271385373093 1.59172248339716 2.48712279352303
v 4.8527730105743 1.59172248339716 2.48712279352303
v 4.8527730105743 -0.782954598974994 -0.00752803534660439
v 4.5271385373093 -0.782954598974994 -0.00752803534660439
v 4.33883516807256 0.762963733022294 -0.00752803534660439
v 4.6644766499677 0.762963733022294 -0.00752803534660439
v 4.6644766499677 -1.40309296255037 2.48712279352303
v 4.33883516807256 -1.40309296255037 2.48712279352303
v 4.33883516807256 -0.648798404403246 2.48712279352303
v 4.6644766499677 -0.648798404403246 2.48712279352303
v 4.6644766499677 1.51726041878928 -0.00752803534660439
v 4.33883516807256 1.51726041878928 -0.00752803534660439
v -4.31868285331826 4.27230174147238 0.00949198492555793
v -4.05750950490396 4.27230174147238 0.00949198492555793
v -4.05750950490396 3.38537912043374 1.32375652082949
v -4.31868285331826 3.38537912043374 1.32375652082949
v -4.31868285331826 3.69423568405191 1.32375652082949
v -4.05750950490396 3.69423568405191 1.32375652082949
v -4.05750950490396 4.58116005724809 0.00949198492555793
v -4.31868285331826 4.58116005724809 0.00949198492555793
v -4.1676616418393 3.39542499051632 0.00949198492555793
v -3.90648704188389 3.39542499051632 0.00949198492555793
v -3.90648704188389 4.3677652914693 1.32375652082949
v -4.1676616418393 4.3677652914693 1.32375652082949
v -4.1676616418393 4.6766196023135 1.32375652082949
v -3.90648704188389 4.6766196023135 1.32375652082949
v -3.90648704188389 3.7042790510523 0.00949198492555793
v -4.1676616418393 3.7042790510523 0.00949198492555793
v -5.29551068003096 3.29501735256726 1.2607002508609
v 5.29551068003096 3.29501735256726 1.2607002508609
v 5.29551068003096 3.29501735256726 1.57004716828113
v -5.29551068003096 3.29501735256726 1.57004716828113
v 5.29551068003096 4.8759105011547 1.57004716828113
v -5.29551068003096 4.8759105011547 1.57004716828113
v 5.29551068003096 4.8759105011547 1.2607002508609
v -5.29551068003096 4.8759105011547 1.2607002508609
v 3.86542097477149 4.33727775033065 0.00949198492555793
v 4.12659657595977 4.33727775033065 0.00949198492555793
v 4.12659657595977 3.45035512929201 1.32375652082949
v 3.86542097477149 3.45035512929201 1.32375652082949
v 3.86542097477149 3.75921119229374 1.32375652082949
v 4.12659657595977 3.75921119229374 1.32375652082949
v 4.12659657595977 4.64613606610636 0.00949198492555793
v 3.86542097477149 4.64613606610636 0.00949198492555793
v 4.01644293717512 3.39542499051632 0.00949198492555793
v 4.27761027819215 3.39542499051632 0.00949198492555793
v 4.27761027819215 4.3677652914693 1.32375652082949
v 4.01644293717512 4.3677652914693 1.32375652082949
v 4.01644293717512 4.6766196023135 1.32375652082949
v 4.27761027819215 4.6766196023135 1.32375652082949
v 4.27761027819215 3.7042790510523 0.00949198492555793
v 4.01644293717512 3.7042790510523 0.00949198492555793
v -4.31868285331826 -3.85696055695141 0.00949198492555793
v -4.05750950490396 -3.85696055695141 0.00949198492555793
v -4.05750950490396 -4.74387291535305 1.32375652082949
v -4.31868285331826 -4.74387291535305 1.32375652082949
v -4.31868285331826 -4.43501009402938 1.32375652082949
v -4.05750950490396 -4.43501009402938 1.32375652082949
v -4.05750950490396 -3.54809197853869 0.00949198492555793
v -4.31868285331826 -3.54809197853869 0.00949198492555793
v -4.1676616418393 -4.73383755821568 0.00949198492555793
v -3.90648704188389 -4.73383755821568 0.00949198492555793
v -3.90648704188389 -3.76149049894078 1.32375652082949
v -4.1676616418393 -3.76149049894078 1.32375652082949
v -4.1676616418393 -3.45263418563082 1.32375652082949
v -3.90648704188389 -3.45263418563082 1.32375652082949
v -3.90648704188389 -4.42497673935778 0.00949198492555793
v -4.1676616418393 -4.42497673935778 0.00949198492555793
v -5.29551068003096 -4.83422817520582 1.2607002508609
v 5.29551068003096 -4.83422817520582 1.2607002508609
v 5.29551068003096 -4.83422817520582 1.57004716828113
v -5.29551068003096 -4.83422817520582 1.57004716828113
v 5.29551068003096 -3.25334353709784 1.57004716828113
v -5.29551068003096 -3.25334353709784 1.57004716828113
v 5.29551068003096 -3.25334353709784 1.2607002508609
v -5.29551068003096 -3.25334353709784 1.2607002508609
v 3.86542097477149 -3.79198504870958 0.00949198492555793
v 4.12659657595977 -3.79198504870958 0.00949198492555793
v 4.12659657595977 -4.67889690649478 1.32375652082949
v 3.86542097477149 -4.67889690649478 1.32375652082949
v 3.86542097477149 -4.37003408517112 1.32375652082949
v 4.12659657595977 -4.37003408517112 1.32375652082949
v 4.12659657595977 -3.48312397954345 0.00949198492555793
v 3.86542097477149 -3.48312397954345 0.00949198492555793
v 4.01644293717512 -4.73383755821568 0.00949198492555793
v 4.27761027819215 -4.73383755821568 0.00949198492555793
v 4.27761027819215 -3.76149049894078 1.32375652082949
v 4.01644293717512 -3.76149049894078 1.32375652082949
v 4.01644293717512 -3.45263418563082 1.32375652082949
v 4.27761027819215 -3.45263418563082 1.32375652082949
v 4.27761027819215 -4.42497673935778 0.00949198492555793
v 4.01644293717512 -4.42497673935778 0.00949198492555793
v -4.71707491737025 -5.79299275956442 0.00407924274290641
v 4.76114067818549 -5.79299275956442 0.00407924274290641
v 4.76114067818549 5.98611055709558 0.00407924274290641
v -4.71707491737025 5.98611055709558 0.00407924274290641
vt -0.203744783997536 0.411443084478378
vt 1.20374476909637 0.411443084478378
vt 1.20374476909637 0.588557064533234
vt -0.203744783997536 0.588557064533234
vt -0.203744769096375 0
vt 1.20374476909637 0
vt 1.20374476909637 1
vt -0.203744769096375 1
vt 0.706590175628662 8.94069671630859e-08
vt 0.706590175628662 1
vt 0.544883966445923 1
vt 0.544883966445923 1.19209289550781e-07
vt 0.706590294837952 1
vt 0.706590175628662 1.19209289550781e-07
vt 0.988136649131775 0
vt 0.748002409934998 0
vt 0.748002409934998 1
vt 0.988136649131775 1
vt 0.285616278648376 0.0114003419876099
vt 0.504531741142273 0.0114003419876099
vt 0.504531741142273 0.984485864639282
vt 0.285616278648376 0.984485864639282
vt 0.218953400850296 0.0053732069209218
vt 0.218953400850296 0.965446591377258
vt 0.0418393462896347 0.965446352958679
vt 0.0418393164873123 0.0053732069209218
vt 0.981038212776184 0.0485063008964062
vt 0.981038212776184 0.985536158084869
vt 0.733852982521057 0.985536158084869
vt 0.733852982521057 0.0485063306987286
vt 0 0
vt 1 0
vt 1 1
vt 0 1
vn 0 -1 0
vn 0 0 1
vn 0 1 0
vn 0 0 -1
vn 1 0 0
vn -1 0 0
vn 0 -0.724308881261799 0.689475630117034
vn 0 0.724308881261799 -0.689475630117034
vn 0 -0.755084974329966 -0.65562693777873
vn 0 0.755084974329966 0.65562693777873
vn 0.999999999999844 0 5.58621309210052e-07
vn -0.999999999999844 -0 -5.58621309210052e-07
vn 0 -0.724309171765809 0.689475324936236
vn 0 0.724309171765809 -0.689475324936236
vn 0 -0.755085224350948 -0.655626649829672
vn 0 0.755085720505886 0.655626078407584
vn 0.999999999999376 0 1.11724591533787e-06
vn 0 -0.82890880927369 -0.559383755492124
vn 0 0.828908208203658 0.559384646171667
vn -0.99999999999979 -0 -6.47394188035697e-07
vn 0 -0.803904735552698 0.594758082043402
vn 0 0.803904735552698 -0.594758082043402
vn 0 -0.828909013077596 -0.559383453490292
vn 0 0.828908439645337 0.559384303216252
vn 0 -0.803904771465717 0.594758033501569
vn 0 0.803904771465717 -0.594758033501569
vn 0 -0.828912046048794 -0.55937895912807
vn 0 0.828910270488651 0.55938159022123
vn -0.999999999999791 -0 -6.47377419227133e-07
vn 0 -0.803902941985412 0.594760506310901
vn 0 0.803904438054141 -0.594758484157104
vn 0 -0.828911972123728 -0.559379068673428
vn 0 0.828912554537225 0.559378205627081
vn 0.999999999999791 0 -6.47385775209706e-07
vn -0.999999999999791 0 6.47385775209706e-07
vn 0 -0.803902694068826 0.594760841405085
vn 0 0.803904466552848 -0.594758445636866
vn 0.99999999999979 0 -6.47392482733131e-07
g table_top picnic_table
f 1/1/1 2/2/1 3/3/1 4/4/1
f 4/5/2 3/6/2 5/7/2 6/8/2
f 6/4/3 5/3/3 7/2/3 8/1/3
f 8/5/4 7/6/4 2/7/4 1/8/4
f 2/9/5 7/10/5 5/11/5 3/12/5
f 8/13/6 1/14/6 4/12/6 6/11/6
g table_leg1 picnic_table
f 9/15/7 10/16/7 11/17/7 12/18/7
f 13/19/8 14/20/8 15/21/8 16/22/8
f 10/16/5 15/15/5 14/18/5 11/17/5
f 16/16/6 9/15/6 12/18/6 13/17/6
g table_leg2 picnic_table
f 17/15/9 18/16/9 19/17/9 20/18/9
f 21/19/10 22/20/10 23/21/10 24/22/10
f 18/16/11 23/15/11 22/18/11 19/17/11
f 24/16/12 17/15/12 20/18/12 21/17/12
g table_leg3 picnic_table
f 25/15/13 26/16/13 27/17/13 28/18/13
f 29/19/14 30/20/14 31/21/14 32/22/14
f 26/16/5 31/15/5 30/18/5 27/17/5
f 32/16/6 25/15/6 28/18/6 29/17/6
g table_leg4 picnic_table
f 33/15/15 34/16/15 35/17/15 36/18/15
f 37/19/16 38/20/16 39/21/16 40/22/16
f 34/16/17 39/15/17 38/18/17 35/17/17
f 40/16/6 33/15/6 36/18/6 37/17/6
g pCube2 bench1 picnic_table
f 41/15/18 42/16/18 43/17/18 44/18/18
f 45/19/19 46/20/19 47/21/19 48/22/19
f 42/16/5 47/15/5 46/18/5 43/17/5
f 48/16/20 41/15/20 44/18/20 45/17/20
g pCube3 bench1 picnic_table
f 49/15/21 50/16/21 51/17/21 52/18/21
f 53/19/22 54/20/22 55/21/22 56/22/22
f 50/16/5 55/15/5 54/18/5 51/17/5
f 56/16/6 49/15/6 52/18/6 53/17/6
g pCube4 bench1 picnic_table
f 57/23/1 58/24/1 59/25/1 60/26/1
f 60/27/2 59/28/2 61/29/2 62/30/2
f 62/26/3 61/25/3 63/24/3 64/23/3
f 64/27/4 63/28/4 58/29/4 57/30/4
f 58/9/5 63/10/5 61/11/5 59/12/5
f 64/13/6 57/14/6 60/12/6 62/11/6
g pCube2 group3 bench1 picnic_table
f 65/15/23 66/16/23 67/17/23 68/18/23
f 69/19/24 70/20/24 71/21/24 72/22/24
f 66/16/5 71/15/5 70/18/5 67/17/5
f 72/16/6 65/15/6 68/18/6 69/17/6
g pCube3 group3 bench1 picnic_table
f 73/15/25 74/16/25 75/17/25 76/18/25
f 77/19/26 78/20/26 79/21/26 80/22/26
f 74/16/5 79/15/5 78/18/5 75/17/5
f 80/16/6 73/15/6 76/18/6 77/17/6
g pCube2 bench2 picnic_table
f 81/15/27 82/16/27 83/17/27 84/18/27
f 85/19/28 86/20/28 87/21/28 88/22/28
f 82/16/5 87/15/5 86/18/5 83/17/5
f 88/16/29 81/15/29 84/18/29 85/17/29
g pCube3 bench2 picnic_table
f 89/15/30 90/16/30 91/17/30 92/18/30
f 93/19/31 94/20/31 95/21/31 96/22/31
f 90/16/5 95/15/5 94/18/5 91/17/5
f 96/16/6 89/15/6 92/18/6 93/17/6
g pCube4 bench2 picnic_table
f 97/23/1 98/24/1 99/25/1 100/26/1
f 100/27/2 99/28/2 101/29/2 102/30/2
f 102/26/3 101/25/3 103/24/3 104/23/3
f 104/27/4 103/28/4 98/29/4 97/30/4
f 98/9/5 103/10/5 101/11/5 99/12/5
f 104/13/6 97/14/6 100/12/6 102/11/6
g pCube2 group3 bench2 picnic_table
f 105/15/32 106/16/32 107/17/32 108/18/32
f 109/19/33 110/20/33 111/21/33 112/22/33
f 106/16/34 111/15/34 110/18/34 107/17/34
f 112/16/35 105/15/35 108/18/35 109/17/35
g pCube3 group3 bench2 picnic_table
f 113/15/36 114/16/36 115/17/36 116/18/36
f 117/19/37 118/20/37 119/21/37 120/22/37
f 114/16/38 119/15/38 118/18/38 115/17/38
f 120/16/6 113/15/6 116/18/6 117/17/6
g shadow1 picnic_table
f 121/31/2 122/32/2 123/33/2 124/34/2
