v -2.9689758781373 -2.9689758781373 0.0206989879057476
v 2.9689758781373 -2.9689758781373 0.0206989879057476
v 2.9689758781373 -2.9689758781373 14.234211438597
v -2.9689758781373 -2.9689758781373 14.234211438597
v -2.9689758781373 2.9689758781373 14.234211438597
v 2.9689758781373 2.9689758781373 14.234211438597
v 2.9689758781373 2.9689758781373 0.0206989879057476
v -2.9689758781373 2.9689758781373 0.0206989879057476
v 4.141644132521 4.28508911868125 -0.203397176363898
v -4.1831873594525 4.28508911868125 -0.203397176363898
v -4.1831873594525 -4.12228064283643 -0.203397176363898
v 4.1416516414611 -4.12228064283643 -0.203397176363898
v 2.71181991781103 2.86746317715855 -0.210647058027371
v -2.7171249998353 2.86746317715855 -0.210647058027371
v -2.7171249998353 2.86746317715855 5.21829879823647
v 2.71181991781103 2.86746317715855 5.21829879823647
v -2.7171249998353 -2.56148174048778 5.21829879823647
v 2.71181991781103 -2.56148174048778 5.21829879823647
v -2.7171249998353 -2.56148174048778 -0.210647058027371
v 2.71181991781103 -2.56148174048778 -0.210647058027371
v 1.98353617450744 2.52399361174443 9.3619785942626
v 1.98353617450744 -2.21801209931095 9.3619785942626
v -2.75846975518398 -2.21801209931095 9.36198034335096
v -2.75846975518398 2.52399361174443 9.3619785942626
v 1.98353661177953 2.52399383038048 9.36197990607887
v -2.75846931791189 2.52399383038048 9.36197990607887
v -2.75846931791189 2.52399383038048 14.1039862730424
v 1.98353661177953 2.52399383038048 14.1039862730424
v -2.75846931791189 -2.21801209931095 14.1039862730424
v 1.98353661177953 -2.21801209931095 14.1039862730424
v -2.75846931791189 -2.21801209931095 9.36197990607887
v 1.98353661177953 -2.21801209931095 9.36197990607887
v 1.61271069253137 2.23610238998895 9.3391029223438
v 1.61271069253137 -1.93012107884359 9.3391029223438
v -2.55351258421229 -1.93012107884359 9.33910445905487
v -2.55351258421229 2.23610238998895 9.3391029223438
v 1.61271107670914 2.23610258207784 5.21094471679137
v -2.55351239212341 2.23610258207784 5.21094471679137
v -2.55351239212341 2.23610258207784 9.37716856980168
v 1.61271107670914 2.23610258207784 9.37716856980168
v -2.55351239212341 -1.93012088675471 9.37716856980168
v 1.61271107670914 -1.93012088675471 9.37716856980168
v -2.55351239212341 -1.93012088675471 5.21094471679137
v 1.61271107670914 -1.93012088675471 5.21094471679137
v 2.68608499840399 2.87143592752759 5.26751571138183
v -2.61152840518477 2.87143592752759 5.26751571138183
v -2.61152840518477 -2.50026254329083 5.26751571138183
v 2.68607332594973 -2.50026254329083 5.26751571138183
vt 0 0
vt 1 0
vt 1 1
vt 0 1
vt 1 2
vt 0 2
vt 0.998007953166962 0.998007953166962
vt 0.00199204683303833 0.998007953166962
vt 0.00199204683303833 0.00199204683303833
vt 0.998007953166962 0.00199204683303833
vt 2 0
vt 2 1
vt -1 0
vt -1 1
vt 0.160990208387375 0.098382905125618
vt 1 0.098382905125618
vt 1 0.847953855991364
vt 0.160990208387375 0.847953855991364
vn 0 -1 0
vn 0 1 0
vn 1 0 0
vn -1 0 0
vn 0 -2.23869225379758e-08 1
vn 0 0 1
vn -1.8442496241277e-07 -2.13988528230394e-07 -0.99999999999996
vn -1.84424948201917e-07 -1.42659018820264e-07 -0.999999999999973
vn 0 -1.19191447822686e-08 1
g pCube1 collision
f 1//1 2//1 3//1 4//1
f 5//2 6//2 7//2 8//2
f 2//3 7//3 6//3 3//3
f 8//4 1//4 4//4 5//4
g C1MetalBoxShadow MetalBoxC1
f 9/1/5 10/2/5 11/3/5 12/4/5
g C1MetalBox3 MetalBoxC1
f 13/1/2 14/2/2 15/3/2 16/4/2
f 16/4/6 15/3/6 17/5/6 18/6/6
f 18/7/1 17/8/1 19/9/1 20/10/1
f 14/2/4 19/11/4 17/12/4 15/3/4
f 20/13/3 13/1/3 16/4/3 18/14/3
g C1MetalBox4 MetalBoxC4
f 21/4/7 22/6/7 23/5/7 24/3/7
g C1MetalBox3 MetalBoxC4
f 25/1/2 26/2/2 27/3/2 28/4/2
f 28/4/6 27/3/6 29/5/6 30/6/6
f 30/7/1 29/8/1 31/9/1 32/10/1
f 26/2/4 31/11/4 29/12/4 27/3/4
f 32/13/3 25/1/3 28/4/3 30/14/3
g C1MetalBox4 MetalBoxC5
f 33/4/8 34/6/8 35/5/8 36/3/8
g C1MetalBox3 MetalBoxC5
f 37/1/2 38/2/2 39/3/2 40/4/2
f 40/4/6 39/3/6 41/5/6 42/6/6
f 42/7/1 41/8/1 43/9/1 44/10/1
f 38/2/4 43/11/4 41/12/4 39/3/4
f 44/13/3 37/1/3 40/4/3 42/14/3
g C1MetalBoxShadow1
f 45/15/9 46/16/9 47/17/9 48/18/9
