v -1.28000003814697 -1.63840009765625 0.025
v 1.28000003814697 -1.63840009765625 0.025
v 1.28000003814697 1.63840009765625 0.025
v -1.28000003814697 1.63840009765625 0.025
v 0.401653479225313 -0.547709329487867 3.99909702848359
v 0.678643245213131 -0.0274658462174014 3.99909702848359
v 0.444600805756093 0.513459979455926 3.99909702848359
v -0.124235108638932 0.667739967924131 3.99909702848359
v -0.599519452294464 0.319198141132421 3.99909702848359
v -0.623353420404132 -0.269706396387473 3.99909702848359
v -0.177789548857008 -0.655516516419738 3.99909702848359
v 0.678643245213131 -0.0274658462174014 -8.88178419700125e-16
v 0.401653479225313 -0.547709329487867 -4.44089209850063e-16
v 0.444600805756093 0.513459979455926 -8.88178419700125e-16
v -0.124235108638932 0.667739967924131 -8.88178419700125e-16
v -0.599519452294464 0.319198141132421 -8.88178419700125e-16
v -0.623353420404132 -0.269706396387473 -8.88178419700125e-16
v -0.177789548857008 -0.655516516419738 -8.88178419700125e-16
v 0.5 -0.5 3.49051407498567
v 0.683012701892219 -0.183012701892219 3.49051407498567
v 0.683012701892219 0.183012701892219 3.49051407498567
v 0.5 0.5 3.49051407498567
v 0.183012701892219 0.683012701892219 3.49051407498567
v -0.183012701892219 0.683012701892219 3.49051407498567
v -0.5 0.5 3.49051407498567
v -0.683012701892219 0.183012701892219 3.49051407498567
v -0.683012701892219 -0.183012701892219 3.49051407498567
v -0.5 -0.5 3.49051407498567
v -0.183012701892219 -0.683012701892219 3.49051407498567
v 0.183012701892219 -0.683012701892219 3.49051407498567
v 0.683012701892219 -0.183012701892219 0
v 0.5 -0.5 0
v 0.683012701892219 0.183012701892219 0
v 0.5 0.5 0
v 0.183012701892219 0.683012701892219 0
v -0.183012701892219 0.683012701892219 0
v -0.5 0.5 0
v -0.683012701892219 0.183012701892219 0
v -0.683012701892219 -0.183012701892219 0
v -0.5 -0.5 0
v -0.183012701892219 -0.683012701892219 0
v 0.183012701892219 -0.683012701892219 0
v 0.401653479225313 -0.547709329487867 3
v -0.177789548857008 -0.655516516419738 3
v -0.623353420404132 -0.269706396387473 3
v -0.599519452294464 0.319198141132421 3
v -0.124235108638932 0.667739967924131 3
v 0.444600805756093 0.513459979455926 3
v 0.678643245213131 -0.0274658462174014 3
v 0.5 -0.5 2.47139840803785
v 0.683012701892219 -0.183012701892219 2.47139840803785
v 0.683012701892219 0.183012701892219 2.47139840803785
v 0.5 0.5 2.47139840803785
v 0.183012701892219 0.683012701892219 2.47139840803785
v -0.183012701892219 0.683012701892219 2.47139840803785
v -0.5 0.5 2.47139840803785
v -0.683012701892219 0.183012701892219 2.47139840803785
v -0.683012701892219 -0.183012701892219 2.47139840803785
v -0.5 -0.5 2.47139840803785
v -0.183012701892219 -0.683012701892219 2.47139840803785
v 0.183012701892219 -0.683012701892219 2.47139840803785
v 0.401653479225313 -0.547709329487867 2
v -0.177789548857008 -0.655516516419738 2
v -0.623353420404132 -0.269706396387473 2
v -0.599519452294464 0.319198141132421 2
v -0.124235108638932 0.667739967924131 2
v 0.444600805756093 0.513459979455926 2
v 0.678643245213131 -0.0274658462174014 2
v 0.5 -0.5 1.45525277102095
v 0.683012701892219 -0.183012701892219 1.45525277102095
v 0.683012701892219 0.183012701892219 1.45525277102095
v 0.5 0.5 1.45525277102095
v 0.183012701892219 0.683012701892219 1.45525277102095
v -0.183012701892219 0.683012701892219 1.45525277102095
v -0.5 0.5 1.45525277102095
v -0.683012701892219 0.183012701892219 1.45525277102095
v -0.683012701892219 -0.183012701892219 1.45525277102095
v -0.5 -0.5 1.45525277102095
v -0.183012701892219 -0.683012701892219 1.45525277102095
v 0.183012701892219 -0.683012701892219 1.45525277102095
vt 0 0
vt 1 0
vt 1 1
vt 0 1
vt 1.09453356266022 1
vt 1.24179828166962 1
vt 1.39051520824432 1
vt 0.5359126329422 1
vt 0.676308870315552 1
vt 0.813782334327698 1
vt 0.952084720134735 1
vt 0.241798281669617 0.666716814041138
vt 0.241798281669617 1
vt 0.0945335924625397 1
vt 0.0945335924625397 0.666716814041138
vt 0.390515238046646 0.666716814041138
vt 0.390515238046646 1
vt 0.5359126329422 0.666716814041138
vt 0.676308870315552 0.666716814041138
vt 0.813782334327698 0.666716814041138
vt 0.952084720134735 0.666716814041138
vt 1.09453356266022 0.666716814041138
vt 1.09453356266022 0.727272748947144
vt 0.952084720134735 0.727272748947144
vt 0.813782334327698 0.727272748947144
vt 0.676308870315552 0.727272748947144
vt 0.5359126329422 0.727272748947144
vt 0.390515238046646 0.727272748947144
vt 0.241798281669617 0.727272748947144
vt 0.0945335924625397 0.727272748947144
vt 1.09453356266022 0.800000011920929
vt 0.952084720134735 0.800000011920929
vt 0.813782334327698 0.800000011920929
vt 0.676308870315552 0.800000011920929
vt 0.5359126329422 0.800000011920929
vt 0.390515238046646 0.800000011920929
vt 0.241798281669617 0.800000011920929
vt 0.0945335924625397 0.800000011920929
vn 0 0 1
vn 0.999182025445553 -0.0404385957535914 0
vn 0.5913636357989 -0.806405016263357 0
vn 0.654595970332812 0.755978912155653 0
vn -0.182914201764893 0.98312888005221 0
vn -0.882686249163894 0.469962749095048 0
vn -0.917777547424358 -0.397094917423695 0
vn -0.26176363322412 -0.965132011862268 0
vn 0.965925826289068 -0.258819045102521 0
vn 0.707106781186547 -0.707106781186548 0
vn 0.965925826289068 0.258819045102521 0
vn 0.707106781186547 0.707106781186547 0
vn 0.258819045102521 0.965925826289068 0
vn -0.258819045102521 0.965925826289068 0
vn -0.707106781186547 0.707106781186548 0
vn -0.965925826289068 0.258819045102521 0
vn -0.965925826289068 -0.258819045102521 0
vn -0.707106781186548 -0.707106781186547 0
vn -0.258819045102521 -0.965925826289068 0
vn 0.258819045102521 -0.965925826289068 0
g 4ft_dockpiling_shadow prop_4ftdockpiling prop_dockpilings
f 1/1/1 2/2/1 3/3/1 4/4/1
g 4ft_dockpiling prop_4ftdockpiling prop_dockpilings
f 5/5/1 6/6/1 7/7/1 8/8/1 9/9/1 10/10/1 11/11/1
f 12/12/2 6/13/2 5/14/3 13/15/3
f 14/16/4 7/17/4 6/13/2 12/12/2
f 15/18/5 8/8/5 7/17/4 14/16/4
f 16/19/6 9/9/6 8/8/5 15/18/5
f 17/20/7 10/10/7 9/9/6 16/19/6
f 18/21/8 11/11/8 10/10/7 17/20/7
f 13/22/3 5/5/3 11/11/8 18/21/8
g collide prop_4ftdockpiling prop_dockpilings
f 19//1 20//1 21//1 22//1 23//1 24//1 25//1 26//1 27//1 28//1 29//1 30//1
f 31//9 20//9 19//10 32//10
f 33//11 21//11 20//9 31//9
f 34//12 22//12 21//11 33//11
f 35//13 23//13 22//12 34//12
f 36//14 24//14 23//13 35//13
f 37//15 25//15 24//14 36//14
f 38//16 26//16 25//15 37//15
f 39//17 27//17 26//16 38//16
f 40//18 28//18 27//17 39//17
f 41//19 29//19 28//18 40//18
f 42//20 30//20 29//19 41//19
f 32//10 19//10 30//20 42//20
g 3ft_dockpiling_shadow prop_3ftdockpiling prop_dockpilings
f 1/1/1 2/2/1 3/3/1 4/4/1
g 3ft_dockpiling prop_3ftdockpiling prop_dockpilings
f 13/23/3 43/5/3 44/11/8 18/24/8
f 18/24/8 44/11/8 45/10/7 17/25/7
f 17/25/7 45/10/7 46/9/6 16/26/6
f 16/26/6 46/9/6 47/8/5 15/27/5
f 15/27/5 47/8/5 48/17/4 14/28/4
f 14/28/4 48/17/4 49/13/2 12/29/2
f 12/29/2 49/13/2 43/14/3 13/30/3
f 43/5/1 49/6/1 48/7/1 47/8/1 46/9/1 45/10/1 44/11/1
g collide_1 prop_3ftdockpiling prop_dockpilings
f 50//1 51//1 52//1 53//1 54//1 55//1 56//1 57//1 58//1 59//1 60//1 61//1
f 31//9 51//9 50//10 32//10
f 33//11 52//11 51//9 31//9
f 34//12 53//12 52//11 33//11
f 35//13 54//13 53//12 34//12
f 36//14 55//14 54//13 35//13
f 37//15 56//15 55//14 36//14
f 38//16 57//16 56//15 37//15
f 39//17 58//17 57//16 38//16
f 40//18 59//18 58//17 39//17
f 41//19 60//19 59//18 40//18
f 42//20 61//20 60//19 41//19
f 32//10 50//10 61//20 42//20
g 2ft_dockpiling_shadow prop_2ftdockpiling prop_dockpilings
f 1/1/1 2/2/1 3/3/1 4/4/1
g 2ft_dockpiling prop_2ftdockpiling prop_dockpilings
f 13/31/3 62/5/3 63/11/8 18/32/8
f 18/32/8 63/11/8 64/10/7 17/33/7
f 17/33/7 64/10/7 65/9/6 16/34/6
f 16/34/6 65/9/6 66/8/5 15/35/5
f 15/35/5 66/8/5 67/17/4 14/36/4
f 14/36/4 67/17/4 68/13/2 12/37/2
f 12/37/2 68/13/2 62/14/3 13/38/3
f 62/5/1 68/6/1 67/7/1 66/8/1 65/9/1 64/10/1 63/11/1
g collide_2 prop_2ftdockpiling prop_dockpilings
f 69//1 70//1 71//1 72//1 73//1 74//1 75//1 76//1 77//1 78//1 79//1 80//1
f 31//9 70//9 69//10 32//10
f 33//11 71//11 70//9 31//9
f 34//12 72//12 71//11 33//11
f 35//13 73//13 72//12 34//12
f 36//14 74//14 73//13 35//13
f 37//15 75//15 74//14 36//14
f 38//16 76//16 75//15 37//15
f 39//17 77//17 76//16 38//16
f 40//18 78//18 77//17 39//17
f 41//19 79//19 78//18 40//18
f 42//20 80//20 79//19 41//19
f 32//10 69//10 80//20 42//20
