v -2.9689758781373 -2.9689758781373 0.0206989879057476
v 2.9689758781373 -2.9689758781373 0.0206989879057476
v 2.9689758781373 -2.9689758781373 14.234211438597
v -2.9689758781373 -2.9689758781373 14.234211438597
v 2.9689758781373 2.9689758781373 14.234211438597
v -2.9689758781373 2.9689758781373 14.234211438597
v 2.9689758781373 2.9689758781373 0.0206989879057476
v -2.9689758781373 2.9689758781373 0.0206989879057476
v 4.141644132521 4.28508911868125 -0.203397176363898
v -4.1831873594525 4.28508911868125 -0.203397176363898
v -4.1831873594525 -4.12228064283643 -0.203397176363898
v 4.1416516414611 -4.12228064283643 -0.203397176363898
v 2.71181991781103 2.86746317715855 -0.210647058027371
v -2.7171249998353 2.86746317715855 -0.210647058027371
v -2.7171249998353 2.86746317715855 5.21829879823647
v 2.71181991781103 2.86746317715855 5.21829879823647
v -2.7171249998353 -2.56148174048778 5.21829879823647
v 2.71181991781103 -2.56148174048778 5.21829879823647
v -2.7171249998353 -2.56148174048778 -0.210647058027371
v 2.71181991781103 -2.56148174048778 -0.210647058027371
v 3.66354708421104 2.52399361174443 5.2228860713739
v 3.66354708421104 -2.21801209931095 5.2228860713739
v -1.07845884548038 -2.21801209931095 5.22288782046226
v -1.07845884548038 2.52399361174443 5.2228860713739
v 3.66354752148313 2.52399383038048 5.22288738319017
v -1.07845840820829 2.52399383038048 5.22288738319017
v -1.07845840820829 2.52399383038048 9.96489375015368
v 3.66354752148313 2.52399383038048 9.96489375015368
v -1.07845840820829 -2.21801209931095 9.96489375015368
v 3.66354752148313 -2.21801209931095 9.96489375015368
v -1.07845840820829 -2.21801209931095 5.22288738319017
v 3.66354752148313 -2.21801209931095 5.22288738319017
v 1.61271069253137 2.23610238998895 9.97085567069839
v 1.61271069253137 -1.93012107884359 9.97085567069839
v -2.55351258421229 -1.93012107884359 9.97085720740945
v -2.55351258421229 2.23610238998895 9.97085567069839
v 1.61271107670914 2.23610258207784 9.97085643905392
v -2.55351239212341 2.23610258207784 9.97085643905392
v -2.55351239212341 2.23610258207784 14.1370802920642
v 1.61271107670914 2.23610258207784 14.1370802920642
v -2.55351239212341 -1.93012088675471 14.1370802920642
v 1.61271107670914 -1.93012088675471 14.1370802920642
v -2.55351239212341 -1.93012088675471 9.97085643905392
v 1.61271107670914 -1.93012088675471 9.97085643905392
v 2.84551783524125 2.87143592752759 5.26751571138183
v -2.45209556834752 2.87143592752759 5.26751571138183
v -2.45209556834752 -2.50026254329083 5.26751571138183
v 2.84550616278698 -2.50026254329083 5.26751571138183
v -0.973502916606244 -2.27233478255355 10.0038751512421
v 2.6376509496462 -2.27233478255355 10.0038751512421
v 2.63765678587334 2.66307069269063 10.0038751512421
v -0.973491244151977 2.66307069269063 10.0038751512421
vt 0 0
vt 1 0
vt 1 1
vt 0 1
vt 1 2
vt 0 2
vt 0.998007953166962 0.998007953166962
vt 0.00199204683303833 0.998007953166962
vt 0.00199204683303833 0.00199204683303833
vt 0.998007953166962 0.00199204683303833
vt 2 0
vt 2 1
vt -1 0
vt -1 1
vt 0.160990208387375 0.098382905125618
vt 1 0.098382905125618
vt 1 0.847953855991364
vt 0.160990208387375 0.847953855991364
vt 0.160990208387375 0.0804951041936874
vt 1 0.0804951041936874
vn 0 -1 0
vn 0 0 1
vn 0 1 0
vn 1 0 0
vn -1 0 0
vn 0 -2.23869225379758e-08 1
vn -1.8442496241277e-07 -2.13988528230394e-07 -0.99999999999996
vn -1.84424948201917e-07 -1.42659018820264e-07 -0.999999999999973
vn 0 -1.19191447822686e-08 1
vn 0 1.90312796632952e-08 1
g pCube1 collision
f 1//1 2//1 3//1 4//1
f 4//2 3//2 5//2 6//2
f 6//3 5//3 7//3 8//3
f 2//4 7//4 5//4 3//4
f 8//5 1//5 4//5 6//5
g C1MetalBoxShadow MetalBoxC1
f 9/1/6 10/2/6 11/3/6 12/4/6
g C1MetalBox3 MetalBoxC1
f 13/1/3 14/2/3 15/3/3 16/4/3
f 16/4/2 15/3/2 17/5/2 18/6/2
f 18/7/1 17/8/1 19/9/1 20/10/1
f 14/2/5 19/11/5 17/12/5 15/3/5
f 20/13/4 13/1/4 16/4/4 18/14/4
g C1MetalBox4 MetalBoxC4
f 21/4/7 22/6/7 23/5/7 24/3/7
g C1MetalBox3 MetalBoxC4
f 25/1/3 26/2/3 27/3/3 28/4/3
f 28/4/2 27/3/2 29/5/2 30/6/2
f 30/7/1 29/8/1 31/9/1 32/10/1
f 26/2/5 31/11/5 29/12/5 27/3/5
f 32/13/4 25/1/4 28/4/4 30/14/4
g C1MetalBox4 MetalBoxC5
f 33/4/8 34/6/8 35/5/8 36/3/8
g C1MetalBox3 MetalBoxC5
f 37/1/3 38/2/3 39/3/3 40/4/3
f 40/4/2 39/3/2 41/5/2 42/6/2
f 42/7/1 41/8/1 43/9/1 44/10/1
f 38/2/5 43/11/5 41/12/5 39/3/5
f 44/13/4 37/1/4 40/4/4 42/14/4
g C1MetalBoxShadow1
f 45/15/9 46/16/9 47/17/9 48/18/9
g C1MetalBoxShadow2
f 49/19/10 50/20/10 51/17/10 52/18/10
