v 1.3378287464114 -3 10.6339780725934
v 1.3378287464114 -3 4.53998073725715
v 6.83838073170214 -3 4.53998073725715
v 6.83838073170214 -3 10.6339780725934
v 18.0308129246606 -3 10.8381634810506
v 18.0308129246606 -3 4.74416614571439
v 23.5313649099513 -3 4.74416614571439
v 23.5313649099513 -3 10.8381634810506
v 10.6769858474607 -3 27.8376661002742
v 10.6769858474607 -3 25.6301579270566
v 13.7987946703973 -3 25.6301579270566
v 13.7987946703973 -3 27.8376661002742
v 25 -3 0
v 26.1012937828804 -3 4.74441742167536
v 26.4303016877067 -3 13.526636904351
v 25.443277973228 -3 21.4003509233016
v 26.7593095925329 -3 22.0060212324517
v 26.8689788941416 -3 23.2173618507518
v 24.0175770523143 -3 23.9239772114268
v 19.6308049879647 -3 25.4381529843019
v 17.7664268606161 -3 25.4381529843019
v 17.4374189557899 -3 26.952328757177
v 16.5600645429199 -3 28.7693396846272
v 13.9280013043101 -3 30.1825704059773
v 11.1862687640916 -3 30.2835154575023
v 8.55420552548182 -3 29.2740649422522
v 7.01883530295944 -3 27.255163911752
v 6.360819493307 -3 25.6400430873519
v 0.10966930160874 -3 23.8230321599018
v -2.19338603217482 -3 23.6211420568518
v -2.6320632386098 -3 22.5107464900767
v -1.3160316193049 -3 21.4003509233016
v -1.53537022252238 -3 13.324746801301
v -1.3160316193049 -3 4.94630752472537
v 0 -3 0
v 25.443277973228 17.0358108869928 21.4003509233016
v 25.443277973228 0 21.4003509233016
v 25.6188215053609 0 20
v 25.6188215053609 17.0358108869928 20
v 26.4303016877067 0 13.526636904351
v 26.1012937828804 0 4.74441742167536
v 25 0 0
v 26.7593095925329 17.0358108869928 22.0060212324517
v 26.8689788941416 17.0358108869928 23.2173618507518
v -2.19338603217482 17.0358108869928 23.6211420568518
v 0.109669301608741 17.0358108869928 23.8230321599018
v 6.360819493307 17.0358108869928 25.6400430873519
v 7.01883530295944 17.0358108869928 27.255163911752
v 8.55420552548182 17.0358108869928 29.2740649422522
v 11.1862687640916 17.0358108869928 30.2835154575023
v 13.9280013043101 17.0358108869928 30.1825704059773
v 16.5600645429199 17.0358108869928 28.7693396846272
v 17.4374189557899 17.0358108869928 26.952328757177
v 17.7664268606161 17.0358108869928 25.4381529843019
v 19.6308049879647 17.0358108869928 25.4381529843019
v 24.0175770523143 17.0358108869928 23.9239772114268
v -1.35406605126702 0 20
v -1.3160316193049 0 21.4003509233016
v -1.3160316193049 17.0358108869928 21.4003509233016
v -1.35406605126702 17.0358108869928 20
v -1.53537022252238 0 13.324746801301
v -2.63206323860979 17.0358108869928 22.5107464900767
v 0 0 0
v -1.3160316193049 0 4.94630752472537
v 26.366552338767 -3 -2
v 26.366552338767 -3 20
v -1.39073379614671 -3 20
v -1.39073379614671 -3 -2
v 26.366552338767 0 -2
v 26.366552338767 0 20
v -1.39073379614671 0 20
v -1.39073379614671 0 -2
vt 0 1
vt 0 0
vt 1 0
vt 1 1
vt 0.898733019828796 -0.000716085836756974
vt 0.929016530513763 0.155653715133667
vt 0.939111053943634 0.445104211568832
vt 0.908827543258667 0.704611539840698
vt 0.94920551776886 0.72457367181778
vt 0.952570378780365 0.764497876167297
vt 0.865084648132324 0.787786960601807
vt 0.73049122095108 0.837692201137543
vt 0.673289060592651 0.837692201137543
vt 0.663194537162781 0.887597501277924
vt 0.636275887489319 0.947483777999878
vt 0.555519819259644 0.994062006473541
vt 0.471398919820786 0.997389018535614
vt 0.390642881393433 0.964118897914886
vt 0.343535184860229 0.897578537464142
vt 0.323346167802811 0.844346284866333
vt 0.131550565361977 0.784459948539734
vt 0.0608890280127525 0.777805924415588
vt 0.0474296882748604 0.741208732128143
vt 0.0878077149391174 0.704611539840698
vt 0.0810780376195908 0.438450157642365
vt 0.0878077149391174 0.162307754158974
vt 0.128185734152794 -0.000716085836756974
vt 1 0.918310642242432
vt 0.142612516880035 0.918310642242432
vt 0.142879962921143 0.859471082687378
vt 1 0.859471082687378
vt 0 0.918310642242432
vt 0 0.587475121021271
vt 0.144116312265396 0.587475121021271
vt 0 0.212964326143265
vt 0.145818635821342 0.212964326143265
vt 1 0.949115455150604
vt 0 0.949115455150604
vt 0.00822603609412909 0.994350552558899
vt 0.00442094402387738 0.00259003811515868
vt 0.214283153414726 0.00238874321803451
vt 0.218088254332542 0.994149267673492
vt 0.783909142017365 0.0018423714209348
vt 0.787714242935181 0.993602871894836
vt 0.843869805335999 0.00178485864307731
vt 0.847674906253815 0.993545353412628
vt 0.983777940273285 0.00165066204499453
vt 0.987583041191101 0.993411183357239
vt 1.22362041473389 0.00142061081714928
vt 1.22742557525635 0.993181109428406
vt 1.47345638275146 0.00118097406812012
vt 1.47726154327393 0.992941498756409
vt 1.71329891681671 0.00095092284027487
vt 1.71710407733917 0.992711424827576
vt 1.79705154895782 0.992634773254395
vt 1.79324650764465 0.000874239078257234
vt 1.82322680950165 0.000845482689328492
vt 1.82703185081482 0.992605984210968
vt 1.99692034721375 0.992443025112152
vt 1.99311518669128 0.00068252970231697
vt 2.39285278320312 0.000299110950436443
vt 2.39665794372559 0.992059648036957
vt 2.65268206596375 4.98887457069941e-05
vt 2.65648722648621 0.991810381412506
vt 0.139504224061966 0.838707745075226
vt 0.138935998082161 0.897802531719208
vt 1 0.897802531719208
vt 1 0.838707745075226
vt 0.142212837934494 0.557011961936951
vt 0 0.557011961936951
vt 0 0.897802531719208
vt 0 0.944661259651184
vt 1 0.944661259651184
vt 0.147619605064392 0
vt 0 0.203441768884659
vt 0.145612552762032 0.203441768884659
vn 0 -1 0
vn 0.992234240782983 0 0.124383324516666
vn 0.99904834376841 0 0.0436165887432436
vn 0.991199645096536 0 -0.132375464344795
vn 0.97410121757941 0 -0.226112401053793
vn 0.418074102409374 0 -0.90841292642421
vn 0.995926687307168 0 -0.090166698449983
vn -0.0873269608723648 0 0.996179703620183
vn -0.184099900655948 0 0.982907537146028
vn -0.669396550547475 0 0.742905282061678
vn -0.868547740588749 0 0.495605510782698
vn -0.599931138568223 0 0.800051641443373
vn -0.163965492274573 0 0.986466075110116
vn 0.261693944622488 0 0.965150910141995
vn 0.722115217676696 0 0.691772804033043
vn 0.945425312643446 0 0.325838883826105
vn 0.977197892777227 0 0.212330587414405
vn 0.16541824592663 0 0.986223506064704
vn 0.283691761442476 0 0.958915525210467
vn 0 0 1
vn 0.240537484966993 0 0.970639849957621
vn -0.99963135367741 0 0.0271506306569279
vn -0.912519090346114 0 -0.409034118080511
vn -0.999999879701898 0 0.00049050605496827
vn -0.644868865745649 0 -0.764293232988439
vn -0.93005129882735 0 0.367429696063832
vn -0.966379916979141 0 -0.257118369743176
vn -0.989777793254312 0 -0.142618091351079
vn 1 0 0
vn -1 0 0
g decals decal_base BR_A2_front BR_A2
f 1/1/1 2/2/1 3/3/1 4/4/1
f 5/1/1 6/2/1 7/3/1 8/4/1
f 9/1/1 10/2/1 11/3/1 12/4/1
g decal_base BR_A2_front BR_A2
f 13/5/1 14/6/1 15/7/1 16/8/1 17/9/1 18/10/1 19/11/1 20/12/1 21/13/1 22/14/1 23/15/1 24/16/1 25/17/1 26/18/1 27/19/1 28/20/1 29/21/1 30/22/1 31/23/1 32/24/1 33/25/1 34/26/1 35/27/1
g o188 BR_A2
f 36/28/2 37/29/2 38/30/2 39/31/2
f 37/29/2 16/32/2 15/33/3 40/34/3
f 40/34/3 15/33/3 14/35/4 41/36/4
f 41/36/4 14/35/4 13/2/5 42/2/5
f 43/37/6 17/38/6 16/32/6 36/28/6
f 44/4/7 18/1/7 17/38/7 43/37/7
g o189 BR_A2
f 45/39/8 30/40/8 29/41/9 46/42/9
f 46/42/9 29/41/9 28/43/10 47/44/10
f 47/44/10 28/43/10 27/45/11 48/46/11
f 48/46/11 27/45/11 26/47/12 49/48/12
f 49/48/12 26/47/12 25/49/13 50/50/13
f 50/50/13 25/49/13 24/51/14 51/52/14
f 51/52/14 24/51/14 23/53/15 52/54/15
f 53/55/16 22/56/16 21/57/17 54/58/17
f 52/54/15 23/53/15 22/56/16 53/55/16
f 55/59/18 20/60/18 19/61/19 56/62/19
f 54/58/20 21/57/20 20/60/18 55/59/18
f 56/62/19 19/61/19 18/63/21 44/64/21
g o190 BR_A2
f 57/65/22 58/66/22 59/67/23 60/68/22
f 61/69/24 33/70/24 32/71/23 58/66/22
f 59/67/23 32/71/23 31/72/25 62/73/25
f 62/73/26 31/72/26 30/1/26 45/4/26
f 63/74/27 35/2/27 34/75/28 64/76/28
f 64/76/28 34/75/28 33/70/24 61/69/24
g BR_A2_camera_collide BR_A2
f 65//1 66//1 67//1 68//1
f 69//29 70//29 66//29 65//29
f 68//30 67//30 71//30 72//30
