v -0.00160121658400722 0.00179239804864416 0.00326073404951305
v 0.00160121685669272 0.00179239804864416 0.00326073404951305
v 0.00185029487684885 0.0053570897491062 0.00277463977062198
v -0.00185029474050611 0.0053570897491062 0.00277463977062198
v 0.00224091275689974 0.00875974970134371 0.00147838771639077
v -0.00224091248421425 0.00875974970134371 0.00147838771639077
v 0.0027388934604393 0.0108661580822413 -0.000628018732941748
v -0.0027388931877538 0.0108661580822413 -0.000628018732941748
v 0.0027388934604393 0.0113522460835459 -0.00257239584850604
v -0.0027388931877538 0.0113522460835459 -0.00257239584850604
v -0.00114372613143373 -0.00339260678804184 -0.00257239778007108
v 0.00114372626777648 -0.00339260678804184 -0.00257239778007108
v 0.00114372626777648 -0.0037166702844909 -0.00111411349472408
v -0.00114372613143373 -0.0037166702844909 -0.00111411349472408
v 0.00114372626777648 -0.00485088817604128 0.000506202538847451
v -0.00114372613143373 -0.00485088817604128 0.000506202538847451
v 0.00114372626777648 -0.00614713829870744 0.00131635838262254
v -0.00114372613143373 -0.00614713829870744 0.00131635838262254
v 0.00114372626777648 -0.00760542354983696 0.00164042091328874
v -0.00114372613143373 -0.00760542354983696 0.00164042091328874
v 0.00114372626777648 -0.00760542354983696 0.00326073404951305
v -0.00114372613143373 -0.00760542354983696 0.00326073404951305
v -3.19609647441208e-10 -0.00291185280360789 0.00326073404951305
v -3.19609647441208e-10 -0.00291185280360789 0.00844573985198158
v 2.72685494124469e-10 -0.00821191372663319 0.002450578507545
vt 0.821719348430634 0.585693895816803
vt 0.925750076770782 0.585693895816803
vt 0.933841347694397 0.715236008167267
vt 0.813628077507019 0.715236008167267
vt 0.94653058052063 0.838889896869659
vt 0.800938904285431 0.838889896869659
vt 0.96270740032196 0.915437400341034
vt 0.784762024879456 0.915437400341034
vt 0.96270740032196 0.971664249897003
vt 0.784762024879456 0.971664249897003
vt 0.564620852470398 0.544349730014801
vt 0.764772415161133 0.544349730014801
vt 0.764772415161133 0.650081276893616
vt 0.564620852470398 0.650081276893616
vt 0.764772415161133 0.844982445240021
vt 0.564620852470398 0.844982445240021
vt 0.764772415161133 0.942432761192322
vt 0.564620852470398 0.942432761192322
vt 0.764772415161133 0.981412887573242
vt 0.564620852470398 0.981412887573242
vt 0.222222253680229 -3.5216483951217e-08
vt 1 1.42266586067308e-07
vt 0.974359214305878 0.176470711827278
vt 0.205128192901611 0.132352977991104
vt 0.863248109817505 0.367646992206573
vt 0.145299226045609 0.279412001371384
vt 0.683760821819305 0.485294103622437
vt 0.0769231393933296 0.352941304445267
vt 0.495726585388184 0.529411733150482
vt -2.14851763047363e-08 0.382353037595749
vt -2.14851763047363e-08 0.529411733150482
vt 0.23602719604969 -3.5216483951217e-08
vt 0.974814236164093 0.176470711827278
vt 0.21923653781414 0.132352948188782
vt 0.865675270557404 0.367646992206573
vt 0.160469502210617 0.279412001371384
vt 0.689373791217804 0.485294103622437
vt 0.0933070182800293 0.352941304445267
vt 0.504676997661591 0.529411733150482
vt 0.00113902054727077 0.382353037595749
vt 0.00113902054727077 0.529411733150482
vt 0.873734712600708 0.414739787578583
vt 0.250555008649826 1
vt 0.00529156439006329 0.529411733150482
vt 0.29772087931633 0.563769221305847
vt 0.537582516670227 0.563769221305847
vt 0.417651653289795 0.683700203895569
vt 0.537582516670227 0.803630828857422
vt 0.29772087931633 0.803630828857422
vt 0.246402457356453 0.529411733150482
vt 0.2475815564394 0.529411733150482
vt 0.2475815564394 1
vn 0 0.0451297875841163 0.998981132090398
vn 0 0.247165029387189 0.968973399143666
vn 0 0.543573283149311 0.839361713355023
vn 0 0.87020054237681 0.492697692350092
vn 0 0.970143237126666 0.24253267709196
vn 0 -0.976187014548464 -0.216930663178252
vn 0 -0.915238497306594 -0.402912512895749
vn 0 -0.688439563350069 -0.72529371127452
vn 0 -0.378924372372032 -0.925427641700021
vn 0 -0.542514614707834 -0.840046363499307
vn 0.993857254887984 -0.109170423289096 0.0181542167388397
vn 0.993839694905333 -0.107518226052625 -0.0268792093814461
vn 0.994770725196482 -0.0957945264866629 0.0354205164736607
vn 0.997542591943797 -0.0694714493567616 -0.0090826748440441
vn 0.998299713630584 -0.0505344897923659 -0.0290507677440453
vn 0.845351077907852 -0.533887162953491 -0.018602481380317
vn 0.962170054457014 -0.27215168947691 -0.0127375123572274
vn -0.993839695948694 -0.107518216975661 -0.0268792071122346
vn -0.993857255803081 -0.109170414251392 0.0181542209898567
vn -0.994770726584353 -0.0957945160865515 0.0354205056229029
vn -0.997542592242214 -0.0694714478954018 -0.00908265324674617
vn -0.99829971489787 -0.0505344879535538 -0.0290507273937084
vn -0.845351041924038 -0.533887220092668 -0.0186024767078458
vn -0.962170030280204 -0.272151775121432 -0.0127375087377529
vn 0 0 1
vn 0 -0.741366808908482 0.671100033265425
vn 0 -0.561820910442539 0.827258886074678
vn 4.96003715478059e-08 -0.973823749789589 -0.227304430985719
vn 0 -0.800533971479754 0.599287377229699
vn -0.971570235752481 0.236751508970626 0
vn 0.971570198824594 0.236751660513584 0
g vertex
f 1/1/1 2/2/1 3/3/2 4/4/2
f 4/4/2 3/3/2 5/5/3 6/6/3
f 6/6/3 5/5/3 7/7/4 8/8/4
f 8/8/4 7/7/4 9/9/5 10/10/5
f 11/11/6 12/12/6 13/13/7 14/14/7
f 14/14/7 13/13/7 15/15/8 16/16/8
f 16/16/8 15/15/8 17/17/9 18/18/9
f 18/18/9 17/17/9 19/19/10 20/20/10
f 12/21/11 9/22/12 7/23/11
f 13/24/13 12/21/11 7/23/11 5/25/13
f 15/26/14 13/24/13 5/25/13 3/27/14
f 17/28/15 15/26/14 3/27/14 2/29/15
f 19/30/16 17/28/15 2/29/15 21/31/17
f 10/22/18 11/32/19 8/33/19
f 11/32/19 14/34/20 6/35/20 8/33/19
f 14/34/20 16/36/21 4/37/21 6/35/20
f 16/36/21 18/38/22 1/39/22 4/37/21
f 18/38/22 20/40/23 22/41/24 1/39/22
f 2/2/1 1/1/1 23/42/25
f 24/43/26 22/41/27 21/44/27
f 20/45/10 19/46/10 25/47/28
f 19/46/16 21/48/17 25/47/28
f 21/48/27 22/49/27 25/47/29
f 22/49/24 20/45/23 25/47/28
f 1/39/1 22/41/27 23/50/25
f 23/50/30 22/41/24 24/43/30
f 21/31/27 2/29/1 23/51/25
f 21/31/17 23/51/31 24/52/31
