v 2.24433207511902 2.24433207511902 0.025
v -2.24433207511902 2.24433207511902 0.025
v -2.24433207511902 -2.24433207511902 0.025
v 2.24433207511902 -2.24433207511902 0.025
v -0.926948368549347 -0.926948368549347 2.50967182889389
v 0 0 2.50967182889389
v -0.926948368549347 0.926948368549347 2.50967182889389
v 0.926948368549347 -0.926948368549347 2.50967182889389
v 0.926948368549347 0.926948368549347 2.50967182889389
v 1.12216603755951 -1.12216603755951 0
v 1 -1 2.32714603841777
v -1 -1 2.32714603841777
v -1.12216603755951 -1.12216603755951 0
v 1.12216603755951 1.12216603755951 0
v 1 1 2.32714603841777
v -1 1 2.32714603841777
v -1.12216603755951 1.12216603755951 0
v -0.55 1.03304542320952 1.6976623681103
v -0.485755634307861 0.946649188292994 1.71915207304591
v 0.485755634307862 0.946649188292994 1.71915207304591
v 0.55 1.03304542320952 1.6976623681103
v -0.55 1.01207586689188 2.09711233707743
v -0.485755634307861 0.928129042601664 2.07194311495479
v -0.45 1.00683347781247 2.19697482931921
v -0.397436428070068 0.923499006178831 2.16014087543201
v 0.45 1.00683347781247 2.19697482931921
v 0.397436428070069 0.923499006178831 2.16014087543201
v 0.55 1.01207586689188 2.09711233707743
v 0.485755634307862 0.928129042601664 2.07194311495479
v 0.385755634307862 0.944030022688885 1.76904466988645
v -0.387804230621267 0.944030022688878 1.76904466988645
v -0.387804230621267 0.925679631975344 2.11860204201304
v 0.385755634307862 0.92567963197535 2.11860204201304
v 1.21047564556014 -0.663184441210344 1.84604191434585
v 1.23464038189788 -0.822028106275662 1.35769168631976
v 1.25880511823562 -0.663184441210344 0.869341458293677
v 1.27373974662153 -0.247326327171739 0.567524418959795
v 1.27373974662153 0.266702570774837 0.567524418959795
v 1.25880511823562 0.682560684813442 0.869341458293677
v 1.23464038189788 0.841404349878759 1.35769168631976
v 1.21047564556014 0.682560684813442 1.84604191434585
v 1.19554101717423 0.266702570774837 2.14785895367973
v 1.19554101717423 -0.247326327171739 2.14785895367973
v 1.21330294694658 -0.13057065542599 1.78890438727049
v 1.21330294694658 0.149946899029088 1.78890438727049
v 1.22145312186524 0.376890367803746 1.62419579188796
v 1.23464038189788 0.463575059350865 1.35769168631976
v 1.24782764193053 0.376890367803746 1.09118758075157
v 1.25597781684918 0.149946899029088 0.926478985369033
v 1.25597781684918 -0.13057065542599 0.926478985369033
v 1.24782764193053 -0.357514124200648 1.09118758075157
v 1.23464038189788 -0.444198815747766 1.35769168631976
v 1.22145312186524 -0.357514124200648 1.62419579188796
v 1.05898667189376 0.346819387605116 1.3533659869492
v 1.06812673446431 0.282433045171772 1.15541610335668
v 1.0847009659689 0.777018007445416 0.796461536947443
v 1.05898667189376 0.958160021624508 1.3533659869492
v 1.07377560379222 0.113867412269989 1.03307634722742
v 1.10059327370405 0.302782057533936 0.45227565836029
v 1.07377560379222 -0.0944911686668908 1.03307634722742
v 1.10059327370405 -0.283405813930838 0.45227565836029
v 1.06812673446431 -0.263056801568674 1.15541610335668
v 1.0847009659689 -0.757641763842318 0.796461536947443
v 1.05898667189376 -0.327443144002018 1.3533659869492
v 1.05898667189376 -0.93878377802141 1.3533659869492
v 1.0498466093232 -0.263056801568674 1.55131587054172
v 1.03327237781861 -0.757641763842318 1.91027043695096
v 1.04419773999529 -0.0944911686668908 1.67365562667098
v 1.01738007008346 -0.283405813930838 2.25445631553811
v 1.04419773999529 0.113867412269989 1.67365562667098
v 1.01738007008346 0.302782057533936 2.25445631553811
v 1.0498466093232 0.282433045171772 1.55131587054172
v 1.03327237781861 0.777018007445416 1.91027043695096
v -1.2227115182874 -0.357514124200648 1.62419579188796
v -1.23589877832005 -0.444198815747766 1.35769168631976
v -1.24908603835269 -0.357514124200648 1.09118758075157
v -1.25723621327135 -0.13057065542599 0.926478985369033
v -1.25723621327135 0.149946899029088 0.926478985369033
v -1.24908603835269 0.376890367803746 1.09118758075157
v -1.23589877832005 0.463575059350865 1.35769168631976
v -1.2227115182874 0.376890367803746 1.62419579188796
v -1.21456134336875 0.149946899029088 1.78890438727049
v -1.21456134336875 -0.13057065542599 1.78890438727049
v -1.1967994135964 -0.247326327171739 2.14785895367973
v -1.1967994135964 0.266702570774837 2.14785895367973
v -1.21173404198231 0.682560684813442 1.84604191434585
v -1.23589877832005 0.841404349878759 1.35769168631976
v -1.26006351465779 0.682560684813442 0.869341458293677
v -1.2749981430437 0.266702570774837 0.567524418959795
v -1.2749981430437 -0.247326327171739 0.567524418959795
v -1.26006351465779 -0.663184441210344 0.869341458293677
v -1.23589877832005 -0.822028106275662 1.35769168631976
v -1.21173404198231 -0.663184441210344 1.84604191434585
v -1.06812673446431 0.282433045171772 1.15541610335668
v -1.05898667189376 0.346819387605116 1.3533659869492
v -1.05898667189376 0.958160021624508 1.3533659869492
v -1.0847009659689 0.777018007445416 0.796461536947443
v -1.07377560379222 0.113867412269989 1.03307634722742
v -1.10059327370405 0.302782057533936 0.45227565836029
v -1.07377560379222 -0.0944911686668908 1.03307634722742
v -1.10059327370405 -0.283405813930838 0.45227565836029
v -1.06812673446431 -0.263056801568674 1.15541610335668
v -1.0847009659689 -0.757641763842318 0.796461536947443
v -1.05898667189376 -0.327443144002018 1.3533659869492
v -1.05898667189376 -0.93878377802141 1.3533659869492
v -1.0498466093232 -0.263056801568674 1.55131587054172
v -1.03327237781861 -0.757641763842318 1.91027043695096
v -1.04419773999529 -0.0944911686668908 1.67365562667098
v -1.01738007008346 -0.283405813930838 2.25445631553811
v -1.04419773999529 0.113867412269989 1.67365562667098
v -1.01738007008346 0.302782057533936 2.25445631553811
v -1.0498466093232 0.282433045171772 1.55131587054172
v -1.03327237781861 0.777018007445416 1.91027043695096
v 1.00570803954947 0 1.75
v 0.870968711040082 0.502854019774732 1.75
v 0.502854019774733 0.870968711040082 1.75
v 5.89810799867508e-17 1.00570803954947 1.75
v -0.502854019774732 0.870968711040082 1.75
v -0.870968711040082 0.502854019774732 1.75
v -1.00570803954947 1.23159645532252e-16 1.75
v -0.870968711040082 -0.502854019774733 1.75
v -0.502854019774733 -0.870968711040081 1.75
v -1.87338211077754e-16 -1.00570803954947 1.75
v 0.502854019774733 -0.870968711040082 1.75
v 0.870968711040081 -0.502854019774733 1.75
v 0.870968711040082 0.502854019774732 -1
v 1.00570803954947 0 -1
v 0.502854019774733 0.870968711040082 -1
v 5.89810799867508e-17 1.00570803954947 -1
v -0.502854019774732 0.870968711040082 -1
v -0.870968711040082 0.502854019774732 -1
v -1.00570803954947 1.23159645532252e-16 -1
v -0.870968711040082 -0.502854019774733 -1
v -0.502854019774733 -0.870968711040081 -1
v -1.87338211077754e-16 -1.00570803954947 -1
v 0.502854019774733 -0.870968711040082 -1
v 0.870968711040081 -0.502854019774733 -1
vt 0 0
vt 1 0
vt 1 1
vt 0 1
vt 0.109267346560955 0.114833578467369
vt 0.480940312147141 0.499058365821838
vt 0.112056635320187 0.883283197879791
vt 0.849824011325836 0.114833578467369
vt 0.852613270282745 0.883283197879791
vt 0.976825177669525 0.0163653958588839
vt 0.936848163604736 0.889140367507935
vt 0.0898405313491821 0.891161859035492
vt 0.0263419467955828 0.0186338517814875
vt 0.987143695354462 0.00692647742107511
vt 0.934409260749817 0.896720826625824
vt 0.0710852444171906 0.898821353912354
vt 0.0183508042246103 0.00928363762795925
vt 0.982829570770264 0.00513661606237292
vt 0.940349042415619 0.891911745071411
vt 0.0800200402736664 0.900566935539246
vt 0.017397565767169 0.0148492120206356
vt 0.906832993030548 0.957659125328064
vt 0.121700614690781 0.959532976150513
vt 0.902875661849976 0.966576993465424
vt 0.102618858218193 0.968524098396301
vt 0.909714698791504 0.961739122867584
vt 0.11223416030407 0.969762086868286
vt 1.01156759262085 -0.0227027535438538
vt 0.951329827308655 0.0304599087685347
vt 0.0530669055879116 0.0200149919837713
vt -0.00549657410010695 -0.0345290787518024
vt 0.99868381023407 0.806149065494537
vt 0.939951062202454 0.762495279312134
vt 0.903002500534058 1.012286901474
vt 0.855446100234985 0.944554567337036
vt 0.0708591639995575 1.00261080265045
vt 0.120503693819046 0.936008751392365
vt -0.0183802824467421 0.794322729110718
vt 0.0416881181299686 0.752050340175629
vt 0.937423527240753 0.89101642370224
vt 0.907559394836426 0.961782395839691
vt 0.119821928441525 0.966810464859009
vt 0.0876055061817169 0.896440804004669
vt 0.0209688656032085 0.0131409829482436
vt 0.274830907583237 0.656201660633087
vt 0.277358800172806 0.807875156402588
vt 0.974605798721313 0.00705393869429827
vt 0.742230832576752 0.653218269348145
vt 0.744758725166321 0.804891765117645
vt 0.702899813652039 0.84308135509491
vt 0.320481687784195 0.845522344112396
vt 0.966949820518494 0
vt 0.966949820518494 0.87509673833847
vt 0 0.87509673833847
vt 0.157467797398567 0.790337443351746
vt 0.0835782214999199 0.667360186576843
vt 0.0812357217073441 0.163722530007362
vt 0.887579143047333 0.131468787789345
vt 0.889921605587006 0.635106444358826
vt 0.817203283309937 0.763948023319244
vt 0.725751221179962 0.186334803700447
vt 0.503005027770996 0.112782575190067
vt 0.277954250574112 0.183500647544861
vt 0.136560559272766 0.371477156877518
vt 0.132831573486328 0.604911386966705
vt 0.268191635608673 0.794639527797699
vt 0.490937829017639 0.868191719055176
vt 0.715988636016846 0.797473669052124
vt 0.857382297515869 0.60949718952179
vt 0.861111283302307 0.376062899827957
vt 0.695691049098969 0.428043186664581
vt 0.693656027317047 0.555433690547943
vt 0.616494238376617 0.658016860485077
vt 0.493678748607635 0.696609377861023
vt 0.372120976448059 0.6564701795578
vt 0.298251807689667 0.552931129932404
vt 0.300286799669266 0.425540626049042
vt 0.37744864821434 0.322957456111908
vt 0.500264108181 0.284364968538284
vt 0.621821880340576 0.324504137039185
vt 0.492542505264282 0.643574953079224
vt 0.402253657579422 0.613760948181152
vt 0.234092473983765 0.837323606014252
vt 0.488107562065125 0.921201050281525
vt 0.347386240959167 0.536855816841125
vt 0.0797306597232819 0.620961666107178
vt 0.348897755146027 0.442234605550766
vt 0.0839831084012985 0.354758054018021
vt 0.406210869550705 0.366039425134659
vt 0.24522553384304 0.140393570065498
vt 0.497433871030807 0.337374269962311
vt 0.501868784427643 0.0597481466829777
vt 0.587722718715668 0.36718824505806
vt 0.755883932113647 0.14362558722496
vt 0.642590165138245 0.444093406200409
vt 0.910245716571808 0.359987556934357
vt 0.641078591346741 0.538714647293091
vt 0.905993282794952 0.626191139221191
vt 0.583765506744385 0.614909768104553
vt 0.74475085735321 0.840555667877197
vn 0 0 1
vn 0 -0.998624922417825 0.0524238907941097
vn 0 -0.976639221980154 0.214885620947518
vn 0.998624922417825 0 0.0524238907941097
vn 0.976639221980154 0 0.214885620947518
vn -0.998624922417825 0 0.0524238907941097
vn -0.976639221980154 0 0.214885620947518
vn 0 -0.928404208701943 0.371571830558399
vn 0.928404208701943 0 0.371571830558399
vn -0.928404208701943 0 0.371571830558399
vn 0 0.241379407998589 0.970430822570187
vn 0.391834562029021 0.912586981361293 -0.116836113635336
vn 0.52103264879622 0.835359976387112 -0.175210412758257
vn 0.445934495652009 0.893834813843871 0.0469228211884333
vn 0.293272976481045 0.954714131304665 0.0501187465239008
vn 0.172483129463262 0.897907599258294 -0.40498334934262
vn 0.229182700182555 0.796930134813239 -0.558907550641057
vn -0.309251613106385 0.540809785795379 -0.782232839619416
vn -0.391834562029023 0.912586981361292 -0.116836113635337
vn -0.521032648796223 0.83535997638711 -0.175210412758258
vn -0.293272976481047 0.954714131304664 0.0501187465239012
vn -0.445934495652011 0.893834813843869 0.0469228211884338
vn 0 -0.998624922417825 -0.0524238907941097
vn 0 0.99104144564522 0.133554681735353
vn 0 0.928404208701943 0.371571830558399
vn 0 0.998624922417825 0.0524238907941096
vn 0.874586121843162 -0.371151156896987 0.31200309968551
vn 0.788660281805956 -0.613691550947037 0.0373850263871889
vn 0.800452958987592 -0.502154834913658 -0.327285169570582
vn 0.807839022302296 -0.193166742766806 -0.556850719254751
vn 0.807839022302295 0.193166742766806 -0.556850719254751
vn 0.800452958987592 0.502154834913658 -0.327285169570582
vn 0.788660281805956 0.613691550947037 0.0373850263871892
vn 0.777058857411033 0.490935813330031 0.393905520790253
vn 0.769982238365923 0.186232365957722 0.610282605413911
vn 0.868405354388269 -0.140763940880556 0.475455206531131
vn 0.903709754587667 0.144990014703157 -0.402848079428805
vn 0.811915830236214 -0.191648637746657 -0.551419517483459
vn 0.802963017824551 -0.499724431496857 -0.324847478936242
vn 0.788656154077808 -0.613664065263853 0.0379194625362997
vn 0.774568885277553 -0.493212202380105 0.395960560388601
vn 0.765971389151864 -0.187623930077366 0.614886243026372
vn 0.765971389151865 0.187623930077367 0.614886243026372
vn 0.774568885277553 0.493212202380105 0.3959605603886
vn 0.788656154077808 0.613664065263853 0.0379194625362995
vn 0.896409462225581 0.378010778698359 -0.231425856853343
vn 0.552948236793512 -0.832814165859583 0.025861410838407
vn 0.536012003312998 -0.670619932326605 0.512796293542228
vn 0.565065640323673 0.679245976182045 -0.468322245858658
vn 0.552934937670634 0.832845229584316 0.0251351996574456
vn 0.525652835950171 -0.255410226812275 0.81145222416187
vn 0.572578790470778 0.260743058851244 -0.777281535843942
vn 0.525652835950171 0.255410226812276 0.811452224161869
vn 0.572578790470779 -0.260743058851244 -0.777281535843941
vn 0.536012003312998 0.670619932326605 0.512796293542227
vn 0.565065640323674 -0.679245976182045 -0.468322245858658
vn 0.552948236793512 0.832814165859583 0.0258614108384068
vn 0.552934937670634 -0.832845229584316 0.0251351996574452
vn 0.570101573174083 0.676889538779993 -0.465622968242164
vn 0.540840208033737 -0.668357374200869 0.510676306211032
vn 0.580812038934823 0.2592850818208 -0.771640215238653
vn 0.533385062803308 -0.254015029875671 0.806831295485973
vn 0.580812038934823 -0.259285081820799 -0.771640215238653
vn 0.533385062803308 0.254015029875671 0.806831295485973
vn 0.570101573174083 -0.676889538779993 -0.465622968242164
vn 0.540840208033737 0.668357374200869 0.510676306211031
vn -0.895690348398225 0.379171856185762 -0.232309068404378
vn -0.78726972260623 0.615446183959877 0.0378467768341652
vn -0.773198692507015 0.494604190489817 0.396901091778991
vn -0.764611926860462 0.188144063941396 0.616417401203395
vn -0.764611926860462 -0.188144063941397 0.616417401203395
vn -0.773198692507015 -0.494604190489817 0.396901091778992
vn -0.78726972260623 -0.615446183959876 0.0378467768341654
vn -0.801561797325013 -0.501216993254312 -0.326006458129593
vn -0.810506225788319 -0.192230935092206 -0.553287380618744
vn -0.902995798871588 0.145443296776949 -0.404283111993209
vn -0.867655908550501 -0.14117917485099 0.476698715066234
vn -0.768594310662052 0.186768121495829 0.611866369733493
vn -0.775671350814165 0.492353316309181 0.394869810754734
vn -0.787273652748324 0.615473404481756 0.0373186825055379
vn -0.799067411884982 0.503620392591018 -0.328417069333958
vn -0.806454226454769 0.193732194235063 -0.558658587645539
vn -0.806454226454769 -0.193732194235062 -0.558658587645539
vn -0.799067411884982 -0.503620392591017 -0.328417069333958
vn -0.787273652748324 -0.615473404481756 0.0373186825055376
vn -0.873845348744249 -0.372250846483804 0.312767667398875
vn -0.533350180670331 -0.672049295031696 0.513699649431773
vn -0.550214746355221 -0.834626938733685 0.025721703545789
vn -0.550201247262736 0.834657628239577 0.0250046222129845
vn -0.562297273205652 0.680713780781108 -0.469521591835964
vn -0.523034962876869 -0.255947411984115 0.812973154481146
vn -0.569788313727425 0.261303760882431 -0.77914159309355
vn -0.52303496287687 0.255947411984115 0.812973154481146
vn -0.569788313727425 -0.261303760882431 -0.77914159309355
vn -0.533350180670331 0.672049295031696 0.513699649431772
vn -0.562297273205652 -0.680713780781108 -0.469521591835965
vn -0.55021474635522 0.834626938733686 0.0257217035457887
vn -0.550201247262736 -0.834657628239577 0.0250046222129842
vn -0.567295698973405 0.678393286359998 -0.46685987078347
vn -0.53813993784271 -0.669820514607037 0.511611068596261
vn -0.577961056215498 0.259868234095288 -0.773582263503025
vn -0.53070486872554 -0.254572873978466 0.808421297434297
vn -0.577961056215497 -0.259868234095287 -0.773582263503025
vn -0.53070486872554 0.254572873978466 0.808421297434297
vn -0.567295698973405 -0.678393286359997 -0.466859870783471
vn -0.53813993784271 0.669820514607037 0.511611068596261
vn 0.866025403784439 0.5 0
vn 1 0 0
vn 0.5 0.866025403784439 0
vn 0 1 0
vn -0.5 0.866025403784439 0
vn -0.866025403784439 0.5 0
vn -1 0 0
vn -0.866025403784439 -0.5 0
vn -0.5 -0.866025403784439 0
vn 0 -1 0
vn 0.5 -0.866025403784439 0
vn 0.866025403784439 -0.5 0
g o14 g1
f 1/1/1 2/2/1 3/3/1 4/4/1
g o1 g2
f 5/5/1 6/6/1 7/7/1
f 5/5/1 8/8/1 6/6/1
f 8/8/1 9/9/1 6/6/1
f 9/9/1 7/7/1 6/6/1
f 10/10/2 11/11/3 12/12/3 13/13/2
f 14/14/4 15/15/5 11/16/5 10/17/4
f 13/18/6 12/19/7 16/20/7 17/21/6
f 11/11/3 8/22/8 5/23/8 12/12/3
f 15/15/5 9/24/9 8/25/9 11/16/5
f 12/19/7 5/26/10 7/27/10 16/20/7
g o2 g2
f 18/28/11 19/29/11 20/30/11 21/31/11
f 22/32/12 23/33/13 19/29/14 18/28/15
f 24/34/16 25/35/17 23/33/13 22/32/12
f 26/36/18 27/37/18 25/35/17 24/34/16
f 28/38/19 29/39/20 27/37/18 26/36/18
f 21/31/21 20/30/22 29/39/20 28/38/19
f 28/38/23 26/36/23 24/34/23 22/32/23 18/28/23 21/31/23
g o3 g2
f 16/40/24 7/41/25 9/42/25 15/43/24
f 14/44/26 21/45/21 28/46/19 15/43/24
f 17/47/26 18/48/15 21/45/21 14/44/26
f 16/40/24 22/49/12 18/48/15 17/47/26
f 24/50/16 22/49/12 16/40/24
f 15/43/24 26/51/26 24/50/16 16/40/24
f 15/43/24 28/46/19 26/51/26
g decals decal_base o4 g2
f 30/1/26 31/52/26 32/53/26 33/54/26
g decal_base o4 g2
f 27/55/26 29/56/20 20/57/22 19/58/14 23/59/13 25/60/17
g lifesaver_left g2
f 34/61/27 35/62/28 36/63/29 37/64/30 38/65/31 39/66/32 40/67/33 41/68/34 42/69/35 43/70/36 44/71/37 45/72/38 46/73/39 47/74/40 48/75/41 49/76/42 50/77/43 51/78/44 52/79/45 53/80/46
f 43/70/36 34/61/27 53/80/46 44/71/37
f 48/75/41 47/74/40 54/81/47 55/82/48
f 56/83/49 57/84/50 40/67/33 39/66/32
f 49/76/42 48/75/41 55/82/48 58/85/51
f 59/86/52 56/83/49 39/66/32 38/65/31
f 50/77/43 49/76/42 58/85/51 60/87/53
f 61/88/54 59/86/52 38/65/31 37/64/30
f 51/78/44 50/77/43 60/87/53 62/89/55
f 63/90/56 61/88/54 37/64/30 36/63/29
f 52/79/45 51/78/44 62/89/55 64/91/57
f 65/92/58 63/90/56 36/63/29 35/62/28
f 53/80/46 52/79/45 64/91/57 66/93/59
f 67/94/60 65/92/58 35/62/28 34/61/27
f 44/71/37 53/80/46 66/93/59 68/95/61
f 69/96/62 67/94/60 34/61/27 43/70/36
f 45/72/38 44/71/37 68/95/61 70/97/63
f 71/98/64 69/96/62 43/70/36 42/69/35
f 46/73/39 45/72/38 70/97/63 72/99/65
f 73/100/66 71/98/64 42/69/35 41/68/34
f 72/99/65 54/81/47 47/74/40 46/73/39
f 41/68/34 40/67/33 57/84/50 73/100/66
g lifesaver_left_1 g2
f 74/80/67 75/79/68 76/78/69 77/77/70 78/76/71 79/75/72 80/74/73 81/73/74 82/72/75 83/71/76 84/70/77 85/69/78 86/68/79 87/67/80 88/66/81 89/65/82 90/64/83 91/63/84 92/62/85 93/61/86
f 83/71/76 74/80/67 93/61/86 84/70/77
f 94/82/87 95/81/88 80/74/73 79/75/72
f 88/66/81 87/67/80 96/84/89 97/83/90
f 98/85/91 94/82/87 79/75/72 78/76/71
f 89/65/82 88/66/81 97/83/90 99/86/92
f 100/87/93 98/85/91 78/76/71 77/77/70
f 90/64/83 89/65/82 99/86/92 101/88/94
f 102/89/95 100/87/93 77/77/70 76/78/69
f 91/63/84 90/64/83 101/88/94 103/90/96
f 104/91/97 102/89/95 76/78/69 75/79/68
f 92/62/85 91/63/84 103/90/96 105/92/98
f 106/93/99 104/91/97 75/79/68 74/80/67
f 93/61/86 92/62/85 105/92/98 107/94/100
f 108/95/101 106/93/99 74/80/67 83/71/76
f 84/70/77 93/61/86 107/94/100 109/96/102
f 110/97/103 108/95/101 83/71/76 82/72/75
f 85/69/78 84/70/77 109/96/102 111/98/104
f 112/99/105 110/97/103 82/72/75 81/73/74
f 86/68/79 85/69/78 111/98/104 113/100/106
f 81/73/74 80/74/73 95/81/88 112/99/105
f 113/100/106 96/84/89 87/67/80 86/68/79
g collide g2
f 114//1 115//1 116//1 117//1 118//1 119//1 120//1 121//1 122//1 123//1 124//1 125//1
f 126//107 115//107 114//108 127//108
f 128//109 116//109 115//107 126//107
f 129//110 117//110 116//109 128//109
f 130//111 118//111 117//110 129//110
f 131//112 119//112 118//111 130//111
f 132//113 120//113 119//112 131//112
f 133//114 121//114 120//113 132//113
f 134//115 122//115 121//114 133//114
f 135//116 123//116 122//115 134//115
f 136//117 124//117 123//116 135//116
f 137//118 125//118 124//117 136//117
f 127//108 114//108 125//118 137//118
