v -9.2642125808035 0.0502868469931635 -0.107679592342827
v 9.324685044176 0.0502868469931635 -0.107679592342827
v 9.324685044176 0.0502868469931635 18.4812170314038
v -9.2642125808035 0.0502868469931635 18.4812170314038
v -6.7077111071489 -0.0228079598093909 4.10208239017196
v -6.7077111071489 -0.0228079598093909 2.23549870368377
v -4.84112717035249 -0.0228079598093909 2.23549870368377
v -4.84112717035249 -0.0228079598093909 4.10208239017196
v -6.7077111071489 -0.0231573587953262 2.23549870368377
v -4.84112717035249 -0.0231573587953262 2.23549870368377
v -4.84112717035249 -0.0231573587953262 4.10208239017196
v -6.7077111071489 -0.0231573587953262 4.10208239017196
v -6.7077111071489 -0.0221137299625267 2.23549870368377
v -4.84112717035249 -0.0221137299625267 2.23549870368377
v -4.84112717035249 -0.0221137299625267 4.10208239017196
v -6.7077111071489 -0.0221137299625267 4.10208239017196
v -6.7077111071489 -0.0481573615487166 2.23549870368377
v -4.84112717035249 -0.0481573615487166 2.23549870368377
v -4.84112717035249 -0.0481573615487166 4.10208239017196
v -6.7077111071489 -0.0481573615487166 4.10208239017196
v 4.8997733849553 -0.0228079598093909 4.10056502174518
v 4.8997733849553 -0.0228079598093909 2.23398133525698
v 6.76635682113527 -0.0228079598093909 2.23398133525698
v 6.76635682113527 -0.0228079598093909 4.10056502174518
v 4.91016918592879 -0.0231573587953262 2.24437788715513
v 6.75596102016179 -0.0231573587953262 2.24437788715513
v 6.75596102016179 -0.0231573587953262 4.09016872015525
v 4.91016918592879 -0.0231573587953262 4.09016872015525
v 4.8997733849553 -0.0221137299625267 2.23398133525698
v 6.76635682113527 -0.0221137299625267 2.23398133525698
v 6.76635682113527 -0.0221137299625267 4.1005652720534
v 4.8997733849553 -0.0221137299625267 4.1005652720534
v 4.91016918592879 -0.0481573615487166 2.24437788715513
v 6.75596102016179 -0.0481573615487166 2.24437788715513
v 6.75596102016179 -0.0481573615487166 4.09016872015525
v 4.91016918592879 -0.0481573615487166 4.09016872015525
vt 0 0
vt 1 0
vt 1 1
vt 0 1
vt 0 0.0126928025856614
vt 0 1.0126930475235
vt 1 1.0126930475235
vt 1 0.0126928025856614
vt 0 0.00846186839044094
vt 0 1.00846195220947
vt 1 1.00846195220947
vt 1 0.00846186839044094
vt -0.00367063283920288 -0.00367063283920288
vt 1.00367069244385 -0.00367063283920288
vt 1.00367069244385 1.00367069244385
vt -0.00367063283920288 1.00367069244385
vn 0 -1 0
g pannelUP
f 1/1/1 2/2/1 3/3/1 4/4/1
g CancelButtonUp
f 5/5/1 6/6/1 7/7/1 8/8/1
g CancelButtonDown
f 9/1/1 10/2/1 11/3/1 12/4/1
g CancelRollover
f 13/1/1 14/2/1 15/3/1 16/4/1
g CancelIcon
f 17/1/1 18/2/1 19/3/1 20/4/1
g CheckButtonUp
f 21/9/1 22/10/1 23/11/1 24/12/1
g CheckButtonDown
f 25/13/1 26/14/1 27/15/1 28/16/1
g CheckRollover
f 29/1/1 30/2/1 31/3/1 32/4/1
g CheckIcon
f 33/13/1 34/14/1 35/15/1 36/16/1
