v 2.35326347734568 -0.186337225122086 3.23156678885832
v 3.14247459757887 -0.150010452709332 3.22887783154727
v 3.14247459757887 2.82000053820819 3.22887783154727
v 2.35452881653009 2.82000053820819 3.22875134065115
v 3.14247459757887 2.82000053820819 2.60134458087374
v 3.14247459757887 -0.150010452709332 2.60134458087374
v 2.54448834221418 0.0207056196391635 10.3922431162327
v 3.01560975065549 -0.0305588205567202 7.73983100071011
v 3.02306597085733 2.98841955115255 7.71704606853527
v 2.54448842183456 2.98841955115255 10.3478050432343
v 3.01560965916843 -0.192105356421399 3.23455771232379
v 3.01555788524933 2.82687283584459 3.24084152540914
v 2.88557328790809 -0.161546715307959 2.60732642780467
v 2.71207217548881 0 0
v 2.71207217548881 2.98841955115255 0
v 2.88557328790809 2.82687283584459 2.60732678635821
v -2.06477631941776 0.0280185420105195 11
v -2.06477631941776 -0.852951980549832 11
v -2.14259534295741 -0.991753227712173 12.9
v -2.14259534295741 0.0663335921389734 12.9
v 2.06757213215032 -0.852951980549832 11
v 0.0041011114601015 -0.852951980549832 11.2524324944746
v 0.0041011114601015 0.0280185420105195 11.2524324944746
v 2.06757213215032 0.0280185420105195 11
v 2.14539115568997 -0.991753227712173 12.9
v 0.0041011114601015 -0.991753227712173 13.1524324944746
v 2.14539115568997 0.0663335921389734 12.9
v 3.02306587625251 -2.6602090480098 8.38454059575401
v 0.00312962968053343 0.0207056196391635 10.7219378286831
v -0.0239927026885152 -2.6602090480098 8.35660275996108
v -2.54164441557073 0.0207056196391635 10.3922431162327
v -3.02027025926048 -2.6602090480098 8.38454059575401
v 2.54447191134947 -0.479294380360836 11
v 0.0041011114601015 -0.479294380360836 11.2524324944746
v 0.00312962968053343 -0.479294380360836 10.7219378286831
v 2.54448842183456 -0.479294380360836 10.3922431162327
v -2.5416610056762 -0.479294380360836 11
v -2.54164449519111 -0.479294380360836 10.3922431162327
v 2.54637500344682 -0.481470375281067 10.3922431162327
v 0.00507267524302746 -0.480382377820952 10.7219378286831
v 0.00312954767717555 0.0207056196391635 10.7219378286831
v -2.54164449519111 0.0207056196391635 10.3922431162327
v 3.02306597085733 -2.6602090480098 8.38454059575401
v -0.0239927026885152 -2.6602090480098 7.3095276076923
v 3.02306597085733 -2.6602090480098 7.74056877858013
v -3.02027035386531 -2.6602090480098 8.38454059575401
v -3.02027035386531 -2.6602090480098 7.74056877858013
v -0.0239837026885149 -2.2 7.30105578777809
v 3.02627621306169 -2.18652273205302 7.73983081859411
v -3.02473096757729 -2.18652273205302 7.73983081859411
v -3.00982613695369 3.48833836184143e-06 7.73983100071011
v 3.02627621306169 -2.37495112304255 7.73983081859411
v -3.02348059606967 -2.37495112304255 7.73983081859411
v -3.02027035386531 2.98841955115255 7.71704606853527
v 2.71207217548881 -2.5 0
v 2.88557328790809 -2.65191544368929 2.60702446165026
v -2.8658560855123 -2.65191544368929 2.48606663573849
v -2.70927655849679 -2.5 0
v 2.35326347734568 -2.26019253340758 3.23455771232379
v 3.14247459757887 -2.82687283584459 3.23455771232379
v -2.34984019879466 -0.192105356421399 3.23455771232379
v -3.13967898058685 -0.161546715307959 3.23485967847821
v -3.13967898058685 -2.82687283584459 3.23455771232379
v -2.34984019879466 -2.26019253340758 3.23455771232379
v -2.8658560855123 -0.161546715307959 2.48636860189291
v -2.70927655849679 0 0
v -3.12600021501918 -2.82687283584459 2.45899643029933
v -3.12600021501918 -0.161546715307959 2.45929839645375
v 3.14247459757887 -2.82687283584459 2.60702446165026
v -3.12600021501918 2.80846427560956 2.45929839645375
v -3.02348059606967 -0.631713340689082 3.23455771232379
v -3.01171704839559 -0.481624417845954 7.7399645744024
v -3.00982604546662 3.66778164162876e-06 7.73983081859411
v -3.01288961614328 -0.161543137247957 3.23485967847821
v -2.34984019879466 -0.631713340689082 3.23455771232379
v -2.50048625299653 -0.470166625381123 7.73983081859411
v -2.50048625299653 -0.0305586411134404 7.73983081859411
v 2.35326347734568 -0.631713340689082 3.23455771232379
v 2.50364720730738 -0.470166625381123 7.73983081859411
v 2.50364720730738 -0.0305586411134404 7.73983081859411
v 2.35326347734568 -0.192105356421399 3.23455771232379
v 3.02627621306169 -0.631713340689082 3.23455771232379
v 3.02627621306169 -0.470166625381123 7.73983081859411
v 3.01560965916843 -0.0305586411134404 7.73983081859411
v 2.35326347734568 -2.69980051767526 3.23455771232379
v 2.59783455100132 -2.83892044648649 5.34352715391058
v 2.59783455100132 -2.39931246221881 5.34352715391058
v 2.50364720730738 -2.37495112304255 7.73983081859411
v 2.50364720730738 -1.93534313877487 7.73983081859411
v 3.02627621306169 -2.69980051767526 3.23455771232379
v 3.14015126432667 -2.83892044648649 5.34352715391058
v 3.01560965916843 -2.26019253340758 3.23455771232379
v 3.12908297238143 -2.39931246221881 5.34352715391058
v 3.01560965916843 -1.93534313877487 7.73983081859411
v -3.02348059606967 -2.69980051767526 3.23455771232379
v -3.13745959586387 -2.83892044648649 5.34352715391058
v -3.12639130391863 -2.39931246221881 5.34352715391058
v -3.01281404217641 -2.26019253340758 3.23455771232379
v -3.01281404217641 -1.93534313877487 7.73983081859411
v -2.34984019879466 -2.69980051767526 3.23455771232379
v -2.59477129206846 -2.83892044648649 5.34352715391058
v -2.50048625299653 -2.37495112304255 7.73983081859411
v -2.59477129206846 -2.39931246221881 5.34352715391058
v -2.50048625299653 -1.93534313877487 7.73983081859411
v 2.35326347734568 -0.197873487720713 3.23754863578925
v -2.49304050718306 -2.26019253340758 3.2394394784479
v -2.75287598404863 -2.39931246221881 5.34596803697264
v -2.65285232954458 -1.93534313877487 7.73983081859411
v -2.65788996503656 -0.470166625381123 7.73983081859411
v -2.49777509753508 -0.631713340689082 3.2394394784479
v 2.53790760492263 -0.642440653662701 3.24152466935004
v 2.70010978195654 -0.480893938354742 7.74191600949625
v 2.70010978195654 -1.93534313877487 7.73983081859411
v 2.80169656250846 -2.39931246221881 5.34596803697264
v 2.53790760492263 -2.26019253340758 3.2394394784479
v 2.50364720730738 -2.16182560849357 7.73983081859411
v -2.50048625299653 -2.16477557857293 7.73983081859411
v -3.02223022456205 -2.37495112304255 7.73983081859411
v 3.01560956768136 -0.0305584616701606 7.7398306364781
v -0.0218160615090044 -2.2 7.30105578777809
v -2.54164449519111 2.98841955115255 10.3478050432343
v -3.01276226825731 2.82687283584459 3.24084152540914
v -2.8658560855123 2.82687283584459 2.48636896044644
v -2.70927655849679 2.98841955115255 0
v -2.35548752766749 2.80846427560956 3.23473318758209
v -3.13967898058685 2.80846427560956 3.23485967847821
v -4.45651894204751 -4.32513527070138 0.025
v 4.44080399129447 -4.32513527070138 0.025
v 4.44080399129447 2.82195019212612 0.025
v -4.45651894204751 2.82195019212612 0.025
v 3.23099546533688 -2.84665471475186 -1.19117955765464
v 3.23099546533688 3.02644343357829 -1.19117955765464
v 3.09614016196053 3.02644343357829 13.3057655553038
v 3.09614016196053 -2.84665471475186 13.3057655553038
v -3.3876685019929 -2.84665471475186 13.1786654932413
v -3.3876685019929 3.02644343357829 13.1786654932413
v -3.16473497747486 3.02644343357829 -1.29070112240637
v -3.16473497747486 -2.84665471475186 -1.29070112240637
vt 1 0
vt 1 0.180504649877548
vt 0 0.180504649877548
vt 0 0
vt 0.999915897846222 0.0331198424100876
vt 0.473959684371948 0.0329103767871857
vt 0.474043816328049 -0.00020946454606019
vt 0.472617149353027 0.436266958713531
vt 0.465530276298523 0.0016356238629669
vt 0.998027443885803 0.431098401546478
vt -0.0164962615817785 1.0038845539093
vt -0.0141784613952041 0.00222396920435131
vt 1.00230634212494 0.00327514414675534
vt 1 1
vt 0 0.999999761581421
vt -0.201046794652939 1
vt 0.5 0
vt 0.5 -0.325218081474304
vt 1 -0.325218081474304
vt 0 -0.325218081474304
vt 0.5 1
vt 0 1
vt 0.999629080295563 1
vt 0.499629080295563 1
vt -0.000370910856872797 1
vt 1.56544039953133e-08 0
vt 0.999629139900208 0.0276880394667387
vt 0.499814569950104 0.0276880394667387
vt 0.499814569950104 0
vt 0.999629139900208 0
vt 0 0.0276880394667387
vt -1 0
vt -0.5 0
vt -0.499804675579071 0.0435133464634418
vt -0.999619245529175 0.0436077900230885
vt 9.90502485365141e-06 0.0434189029037952
vt 0.998040974140167 0.0354496836662292
vt 0.499005079269409 0.0350820645689964
vt 0.499035894870758 0.000367617583833635
vt 0.998071789741516 0.00073523516766727
vt -3.08139642584138e-05 0.0347144491970539
vt -0.500000834465027 0.0399851426482201
vt -1.00000166893005 0.0399851426482201
vt 0 0.0399851426482201
vt 0.529056489467621 0.000928074005059898
vt 1.00029492378235 0.0644472613930702
vt 0.527382850646973 0.436271816492081
vt -0.000294885743642226 0.0644465386867523
vt 1.00067436695099 1.02548635005951
vt 0.000675137271173298 1.02657580375671
vt -0.0144295878708363 1.00187766551971
vt 1.17256641387939 0.234833583235741
vt 7.32370821765471e-08 0.234830290079117
vt 1.00000011920929 0.23602207005024
vt -0.17343969643116 0.23602819442749
vt 0.0540872067213058 0.106831528246403
vt 0.945912778377533 0.106831528246403
vt 0.00385327357798815 1.00019860267639
vt 0.00385250872932374 0.999801456928253
vt 0.999995529651642 0.0518609695136547
vt 0.527028977870941 0.0518784448504448
vt 0.527033448219299 1.74731067090761e-05
vt 1 0.0394734516739845
vt 0 0.0394734516739845
vt -8.41343717183918e-05 0.0331198424100876
vt 0 1.70445602076796e-12
vt 2.24786199396476e-05 0.997955977916718
vt 0.847116768360138 2.31961012897575e-11
vt 0.847116768360138 1
vt 0.648307085037231 1
vt 0.648307085037231 2.1831651070281e-11
vt 1.15288329124451 -2.31961377189505e-11
vt 1.15288329124451 1
vt 0.347116768360138 -2.31961377189505e-11
vt 0.347116768360138 1
vt 0.152883231639862 1
vt 0.152883231639862 -2.31961377189505e-11
vt 0.652883231639862 1
vt 0.652883231639862 2.31961377189505e-11
vt 0.351692974567413 -2.1831651070281e-11
vt 0.351692974567413 1
vt 0.871666371822357 2.31961377189505e-11
vt 0.843783855438232 0.5
vt 0.656216144561768 0.5
vt 0.684098720550537 2.31961377189505e-11
vt 0.815901339054108 1
vt 0.628333568572998 1
vt 1.128333568573 -2.31961012897575e-11
vt 1.15621614456177 0.5
vt 1.18409872055054 1
vt 0.319527894258499 -2.1831651070281e-11
vt 0.348008811473846 0.5
vt 0.156216144561768 0.5
vt 0.12833359837532 -2.31961012897575e-11
vt 0.376489698886871 1
vt 0.184098705649376 1
vt 0.651991188526154 0.5
vt 0.680472075939178 2.18316129063645e-11
vt 0.623510301113129 1
vt 0.315901309251785 -2.31961377189505e-11
vt 0.343783855438232 0.5
vt 0.37166640162468 1
vt 0 0.467716217041016
vt 1 0.467716217041016
vt 0.000334875017870218 -0.680536389350891
vt 0.999826729297638 -0.680581867694855
vt 1 0.5
vt 0.100275985896587 1
vt 0.100944206118584 0.999964833259583
vt 0.0504721030592918 0.499982416629791
vt 0 0.5
vt 1.00000011920929 1.51082062416208e-08
vt 1.00000011920929 0.999999940395355
vt 0 1.00206053256989
vt 0 0.501030266284943
vt 0.00197256170213223 0.431103229522705
vt 0.534469723701477 0.00164548889733851
vt -0.00619814544916153 0.996962308883667
vt -0.00619814544916153 0.00226774672046304
vt 1.01028907299042 0.00121871416922659
vt 1.01028907299042 1.00083875656128
vt 0 1.00000023841858
vt -4.51086953034974e-06 0.051860973238945
vt 1 0.658973574638367
vt 0 0.658973574638367
vn 0.00196535667761021 0.00114795272290284 0.999997409785483
vn 0.00161389253360895 0.00047075601220707 0.999998586868835
vn 1 0 0
vn 0.987107822749765 0.0190511200017821 0.158918850653084
vn 0.994292105532986 0.0123255302041709 0.105977781539184
vn 0.996083717453579 -0.00023481854436023 0.0884147763900874
vn 0.984225607852528 0.000760714484079262 0.176916291394533
vn 0.999933354856951 0.0115150140759263 -0.000830840149994824
vn 0.999998931969901 -0.00122847910060776 -0.000791769005380089
vn 0.997793175553918 2.0109296210991e-06 -0.0663986356334511
vn 0.99779329508493 3.98317921818199e-09 -0.0663968394094089
vn -0.999162300266771 0 -0.0409230708233629
vn -0.121428666580541 0 -0.992600160655071
vn -0.000157491282840869 0 -0.999999987598248
vn 0.121116008815406 0 -0.992638359327619
vn -0.00872650738346552 -0.997317236278201 -0.0726785958264039
vn -1.11639553353524e-05 -0.99735519562799 -0.0726815907174538
vn 0.00870418032079391 -0.997317397212626 -0.072679064812197
vn 0.999162300266771 0 -0.0409230708233631
vn 0.0419008140105517 -0.629356356035201 0.77598640381346
vn -0.000185023987853272 -0.629771221568178 0.776780647448589
vn -0.000102437078659155 -0.902801012754575 0.430058508665925
vn -0.0422705341199224 -0.629070119462545 0.776198419699883
vn 0 -1 0
vn -0.128655038471183 -0.0004911186177807 -0.991689285955274
vn -0.000110658033799594 -0.000121923114876885 -0.999999986444777
vn 0.128435558537045 0.000249295441421085 -0.991717825369223
vn 0.14124053576494 -0.0102491712934717 -0.989922252272687
vn -0.00116888614225166 -0.0104527438120199 -0.999944685396141
vn -0.14355448505806 -0.010443279648237 -0.989587311827463
vn -0.994318695220892 0.0121777851792122 0.105745136447742
vn -0.989386402721956 0.0378824956615281 0.14028350805195
vn -0.9871912268451 0.0190802434241401 0.158396420259238
vn 0.989331879587406 0.0373288231095916 0.14081545013706
vn 0 -0.00424817635098587 -0.999990976458133
vn -7.85665012073227e-09 0.0460817397455041 -0.998937672361008
vn 0.000644714362367278 -0.998225011265418 -0.0595517525144831
vn 0.000666134960685532 0.000367009021642241 0.999999710784254
vn 0.00115841109837011 0.000912575374968971 0.999998912644365
vn 5.53429241577002e-05 -0.000272350266781837 0.999999961381246
vn 0.000242223040820633 -4.64638183825191e-05 0.999999969584556
vn 0.000106403932301946 -3.18972937539559e-05 0.999999993830383
vn -3.52031560347794e-05 -0.000262639247065883 0.999999964890681
vn -0.998022717173138 3.80329698858741e-06 -0.0628542440244251
vn -0.9980228295205 1.90353371590181e-06 -0.0628524601926747
vn 0.997793056015655 4.0178760629654e-06 -0.0664004318570105
vn -0.999844500042448 1.9978881060951e-06 -0.0176345039872285
vn -0.999844500043945 9.9894405304805e-07 -0.0176345039872548
vn 0.0231317882141476 -0.000476544469667663 -0.999732310810941
vn -0.99991331372794 0.0131127577061033 0.00119189552850551
vn -0.999983723502729 0.00569285884170437 0.000379589023752357
vn 0.00966771308552893 -0.999350606054479 0.0347116911463769
vn 0.999441427841546 0 0.0334190411899026
vn 0.0285538535736506 0.998965364526264 -0.0353960156373838
vn 0.0520252470581583 0.998034498727625 -0.0349358414530919
vn -0.999443369840348 0 0.0333609124900555
vn 0 -0.99935774798368 0.0358342230972925
vn 0.999705386122083 0.0242566371860173 -0.000869776364137587
vn 0 0.999357747983681 -0.0358342230972925
vn 0.00253335753051886 0.999354489298914 -0.0358355524267339
vn -0.99334288640533 0 0.115195095502926
vn -0.999274923330977 0 0.0380739753883162
vn -0.999228442056271 0 -0.0392749358471395
vn 0 -0.997831329502055 -0.0658227761809073
vn 0 -0.998035566458658 0.0626498849443926
vn 0 -0.981766960544775 0.190088493030676
vn 0.998332566200292 0.0246794930920898 -0.0521824672151226
vn 0.999683080821846 0.0247128787767802 -0.00479703461605101
vn 0.998787103398568 0.0246907295758234 0.0425991778994865
vn 0 0.997831329502055 0.0658227761809079
vn 0 0.998035566458658 -0.062649884944392
vn 0 0.981766960544776 -0.190088493030676
vn -0.998330001561604 0.0246794296923903 -0.0522315396294777
vn -0.999683066783922 0.0247128784297535 -0.00479996095909614
vn -0.998785259049331 0.0246906839821982 0.0426424252388669
vn 0.993323468828162 0 0.115362412748638
vn 0.999272489623119 0 0.0381377959826509
vn 0.99922684249324 0 -0.0393156106526411
vn -0.000318417323220322 -0.000724123093092585 0.999999687128028
vn 0.00506669880217009 0.999344816844216 -0.0358366517667259
vn -0.997892735637555 0.0516686896731959 -0.039248371549047
vn 0.997642633228883 0.0557730012536695 -0.0399818545755166
vn 0.000144441692017084 -0.999869557426402 0.016150766809319
vn 0.000287912181642942 -0.995184825438506 0.0980157146763069
vn -1.56933898409179e-08 0.0962948750407468 -0.995352850521305
vn -0.984318422105125 0.000264894105550517 0.176400605825462
vn -0.996090760829866 -0.000734129740039743 0.0883326510578226
vn -0.999998414485887 -0.00172735722707309 -0.000432738631586771
vn -0.998022941861072 3.77044320326474e-09 -0.0628506763604967
vn 0.000271638218067981 -2.91330495945585e-05 0.999999962681971
vn -0.999844500044444 0 -0.0176345039872636
vn 0 0 1
vn 0.999956736177188 0 0.00930192312722958
vn -0.999881329051169 0 -0.0154054475711532
g extension_r g1
f 1/1/1 2/2/1 3/3/2 4/4/2
f 5/1/3 3/5/3 2/6/3 6/7/3
f 7/8/4 8/9/5 9/1/6 10/10/7
f 8/11/5 11/12/8 12/13/9 9/14/6
f 13/15/10 14/4/10 15/1/11 16/14/11
g top g1
f 17/4/12 18/1/12 19/14/12 20/16/12
f 21/1/13 22/17/14 23/18/14 24/19/13
f 22/17/14 18/4/15 17/20/15 23/18/14
f 25/14/16 26/21/17 22/17/17 21/1/16
f 26/21/17 19/22/18 18/4/18 22/17/17
f 27/14/19 25/16/19 21/4/19 24/1/19
g roof g1
f 28/1/20 7/23/20 29/24/21 30/17/22
f 29/24/21 31/25/23 32/26/23 30/17/22
f 33/27/24 34/28/24 35/29/24 36/30/24
f 34/28/24 37/31/24 38/4/24 35/29/24
f 39/32/25 40/33/26 41/34/26 7/35/25
f 40/33/26 38/4/27 42/36/27 41/34/26
f 43/37/24 30/38/22 44/39/24 45/40/24
f 30/38/22 46/41/24 47/4/24 44/39/24
f 45/32/28 44/33/29 48/42/29 49/43/28
f 44/33/29 47/4/30 50/44/30 48/42/29
f 51/45/31 47/1/32 46/46/32 42/47/33
f 7/8/4 43/48/34 45/4/34 8/9/5
f 9/49/35 52/50/36 53/4/35 54/1/35
g base g1
f 55/1/37 56/14/37 57/51/37 58/4/37
f 59/1/38 60/52/39 2/53/1 1/4/1
f 61/1/40 62/54/41 63/55/42 64/4/43
f 64/56/43 63/4/42 60/1/39 59/57/38
f 58/1/44 57/14/44 65/58/45 66/4/45
f 14/1/10 13/14/10 56/59/46 55/4/46
f 67/1/47 63/60/47 62/61/48 68/62/48
f 69/1/24 60/63/24 63/64/24 67/4/24
f 6/7/3 2/6/3 60/65/3 69/66/3
f 70/67/49 5/14/49 69/1/49 67/4/49
g frame g1
f 71/68/50 72/69/50 73/70/50 74/71/51
f 75/72/52 76/73/52 72/69/52 71/68/52
f 61/74/53 77/75/53 76/76/53 75/77/53
f 74/71/54 73/70/55 77/75/55 61/74/55
f 78/68/56 79/69/56 80/78/56 81/79/56
f 82/72/57 83/73/57 79/69/57 78/68/57
f 11/80/8 84/81/58 83/76/58 82/77/58
f 81/79/59 80/78/59 84/81/59 11/80/60
f 85/82/61 86/83/62 87/84/62 59/85/61
f 86/83/62 88/86/63 89/87/63 87/84/62
f 90/88/64 91/89/65 86/83/65 85/82/64
f 91/89/65 52/90/66 88/86/66 86/83/65
f 92/91/67 93/92/68 91/93/68 90/94/67
f 93/92/68 94/95/69 52/96/69 91/93/68
f 59/85/70 87/84/71 93/92/71 92/91/70
f 87/84/71 89/87/72 94/95/72 93/92/71
f 95/82/73 96/83/74 97/97/74 98/98/73
f 96/83/74 53/86/75 99/99/75 97/97/74
f 100/88/64 101/89/65 96/83/65 95/82/64
f 101/89/65 102/90/66 53/86/66 96/83/65
f 64/100/76 103/101/77 101/93/77 100/94/76
f 103/101/77 104/102/78 102/96/78 101/93/77
f 98/98/70 97/97/71 103/101/71 64/100/70
f 97/97/71 99/99/72 104/102/72 103/101/71
g show_case g1
f 61/103/40 64/4/43 59/1/38 105/104/79
f 74/4/54 51/105/80 8/106/80 11/1/60
f 106/1/81 107/107/81 108/14/81 109/108/81 110/4/81
f 111/1/82 112/14/82 113/109/82 114/110/82 115/4/82
f 59/1/64 87/107/83 103/111/83 64/4/64
f 87/107/83 116/14/84 117/22/84 103/111/83
f 118/4/85 73/112/85 119/113/85 52/114/36 120/115/85
g extension_l g1
f 121/116/86 54/4/87 51/117/31 42/47/33
f 54/118/87 122/119/88 74/120/51 51/121/31
f 123/122/89 124/4/89 66/1/45 65/14/45
f 125/1/90 126/2/90 62/3/41 61/4/40
f 68/62/48 62/61/48 126/123/91 70/4/91
g shadow g1
f 127/4/92 128/1/92 129/124/92 130/125/92
g camera_barrier g1
f 131//93 132//93 133//93 134//93
f 135//94 136//94 137//94 138//94
f 138//24 131//24 134//24 135//24
