v 4.57223106244105 -12.9639312664042 3.09522333420481
v 10.0872730645608 -12.9639633058563 3.09522333420481
v 10.0872730645608 -12.9639633058563 8.04205466443159
v 4.57223106244105 -12.9639312664042 8.04205065950008
v 12.8447435033603 -8.18781014189632 3.09522333420481
v 12.8447435033603 -8.18781014189632 8.04205065950008
v 5.6322182883115 -11.1280386216371 14.6015818037699
v 3.93466999524535 -8.18781014189632 14.6015818037699
v 3.93466999524535 -8.18781014189632 10.8149991573624
v 5.6322182883115 -11.1280386216371 10.8149991573624
v 5.63219225625666 -5.24761370160761 14.6015818037699
v 5.63219225625666 -5.24761370160761 10.8149991573624
v 9.02726781649852 -5.24758166215551 14.6015818037699
v 9.02726781649852 -5.24758166215551 10.8149991573624
v 10.7248151083318 -8.18784218134843 14.6015818037699
v 10.7248151083318 -8.18784218134843 10.8149991573624
v 9.02725780416974 -11.1280386216371 14.6015818037699
v 9.02725780416974 -11.1280386216371 10.8149991573624
v -0.0432827967045501 -8.18781014189632 7.76603478459236
v 3.64323012785023 -14.5730486692093 7.76603878952387
v 3.64323012785023 -14.5730486692093 11.174025247729
v -0.0432827967045501 -8.18781014189632 11.1740332575921
v 11.0162479670968 -1.80257161458333 7.76603478459236
v 3.6432040957954 -1.80257161458333 7.76603478459236
v 3.6432040957954 -1.80257161458333 11.1740332575921
v 11.0162479670968 -1.80257161458333 11.1740332575921
v 7.32972553082964 -8.18781014189632 7.76603077966084
v 11.016253974494 -14.5730807086614 7.76603478459236
v 14.702761392268 -8.18781014189632 7.76603878952387
v 7.32972553082964 -8.18781014189632 11.174025247729
v 11.016253974494 -14.5730807086614 11.174025247729
v 14.702761392268 -8.18781014189632 11.174025247729
v 1.81473359035382 -8.18781014189632 3.09522533667056
v 4.57223106244105 -12.9639312664042 3.09522533667056
v 4.57223106244105 -12.9639312664042 8.04205266196584
v 1.81473359035382 -8.18781014189632 8.04205266196584
v 12.8447435033603 -8.18781014189632 3.09522533667056
v 10.0872460312731 -3.41168901738845 3.09522533667056
v 10.0872460312731 -3.41168901738845 8.04205266196584
v 12.8447435033603 -8.18781014189632 8.04205266196584
v 4.57220402915334 -3.41165697793635 3.09522533667056
v 4.57220402915334 -3.41165697793635 8.04205466443159
v -0.0432827967045501 -8.18781014189632 -0.30354377165867
v 3.64323012785023 -14.5730486692093 -0.30354377165867
v 3.64323012785023 -14.5730486692093 3.16538572937172
v -0.0432827967045501 -8.18781014189632 3.16538973430323
v 11.0162479670968 -1.80257161458333 -0.30354377165867
v 3.6432040957954 -1.80257161458333 -0.30354377165867
v 3.6432040957954 -1.80257161458333 3.16539373923474
v 11.0162479670968 -1.80257161458333 3.16538973430323
v 7.32972553082964 -8.18781014189632 3.16538773183748
v 11.016253974494 -14.5730807086614 3.16538773183748
v 14.702761392268 -8.18781014189632 3.16538572937172
v 11.016253974494 -14.5730807086614 -0.214293872903338
v 14.702761392268 -8.18781014189632 -0.214295875369094
v 3.93466974493713 -8.18781014189632 14.6015818037699
v 5.63221778769506 -11.1280416253358 14.6015818037699
v 7.31578035930323 -8.18781014189632 14.6015777988384
v 9.02725780416974 -11.1280416253358 14.6015818037699
v 10.7248151083318 -8.18783967826623 14.6015818037699
v 9.02726781649852 -5.24757865845688 14.6015818037699
v 5.62521716741126 -5.25967054792589 14.6015818037699
v 14.6465234838826 -5.81038026158804 -0.684241322075603
v 13.5537617331729 -3.66571365937326 -0.684241322075603
v 13.5537617331729 -3.66571365937326 17.6397139682586
v 14.6465234838826 -5.81038026158804 17.6397139682586
v 11.8517435700908 -1.96370302433341 -0.684241322075603
v 11.8517435700908 -1.96370302433341 17.6397139682586
v 9.70707818564751 -0.870964300576286 -0.684241322075603
v 9.70707818564751 -0.870964300576286 17.6397139682586
v 7.32969688246986 -0.494427570959421 -0.684241322075603
v 7.32969688246986 -0.494427570959421 17.6397139682586
v 4.95231591141172 -0.870964300576286 -0.684241322075603
v 4.95231591141172 -0.870964300576286 17.6397139682586
v 2.80765019484896 -1.96370302433341 -0.684241322075603
v 2.80765019484896 -1.96370302433341 17.6397139682586
v 1.10563291741888 -3.66571365937326 -0.684241322075603
v 1.10563291741888 -3.66571365937326 17.6397139682586
v 0.0128716095351385 -5.81038026158804 -0.684241322075603
v 0.0128716095351385 -5.81038026158804 17.6397139682586
v -0.363668662689813 -8.18775370460397 -0.684241322075603
v -0.363668662689813 -8.18775370460397 17.6397139682586
v 0.0128716095351385 -10.5651554884847 -0.684241322075603
v 0.0128716095351385 -10.5651554884847 17.6397139682586
v 1.10563336024489 -12.7098220906995 -0.684241322075603
v 1.10563336024489 -12.7098220906995 17.6397139682586
v 2.80765063767497 -14.4118327257394 -0.684241322075603
v 2.80765063767497 -14.4118327257394 17.6397139682586
v 4.95231613282473 -15.5045714494965 -0.684241322075603
v 4.95231613282473 -15.5045714494965 17.6397139682586
v 7.32969688246986 -15.8811081791134 -0.684241322075603
v 7.32969688246986 -15.8811081791134 17.6397139682586
v 9.70707586081094 -15.5045714494965 -0.684241322075603
v 9.70707586081094 -15.5045714494965 17.6397139682586
v 11.8517426844387 -14.4118327257394 -0.684241322075603
v 11.8517426844387 -14.4118327257394 17.6397139682586
v 13.5537581905648 -12.7098220906995 -0.684241322075603
v 13.5537581905648 -12.7098220906995 17.6397139682586
v 14.6465190556225 -10.5651554884847 -0.684241322075603
v 14.6465190556225 -10.5651554884847 17.6397139682586
v 15.0230593278474 -8.18775370460397 -0.684241322075603
v 15.0230593278474 -8.18775370460397 17.6397139682586
v 17.299431168391 1.33153258887784 -0.206453430176746
v -2.70870180366323 1.33153258887784 -0.206395742295661
v -2.70870180366323 -17.84983209336 -0.206395742295661
v 17.299431168391 -17.84983209336 -0.206453430176746
vt 0.666698455810547 0.274268001317978
vt 1.00003182888031 0.274268001317978
vt 1.00003182888031 0.633374094963074
vt 0.666698455810547 0.633374094963074
vt 1.33336496353149 0.274268001317978
vt 1.33336496353149 0.633374094963074
vt 0 1
vt 1 1
vt 1 0
vt 0 0
vt 0.999999940395355 0
vt 2.23612713813782 0.642750799655914
vt 3.04455018043518 0.642750799655914
vt 3.04455018043518 0.997682690620422
vt 2.23612713813782 0.997682690620422
vt 0.619275629520416 0.642750799655914
vt 1.42770195007324 0.642750799655914
vt 1.42770195007324 0.997682690620422
vt 0.619275629520416 0.997682690620422
vt 0.00100588705390692 0.777211666107178
vt 0.00100606773048639 0.226935192942619
vt 0.502566635608673 0.502073526382446
vt 0.502566635608673 1.05235016345978
vt 1.00412726402283 0.777212023735046
vt 1.00412726402283 0.226935520768166
vt 0.502566635608673 -0.0482029914855957
vt 1.00455558300018 0.226935192942619
vt 1.00455605983734 0.777211666107178
vt 0.502995312213898 0.502073526382446
vt 0.502995312213898 1.05235016345978
vt 0.00143459439277649 0.777212023735046
vt 0.00143459439277649 0.226935520768166
vt 0.502995312213898 -0.0482029914855957
vt 1.66669845581055 0.274268001317978
vt 1.66669845581055 0.633374094963074
vt 0.333365142345428 0.274268001317978
vt 0.333365142345428 0.633374094963074
vt 0 5.96046447753906e-08
vt 2.98023223876953e-08 1
vt 3.04455041885376 0.642750799655914
vn -5.85649740959486e-06 -0.999999999982851 0
vn -5.80946656196656e-06 -0.999999999983125 0
vn 0.866028770198175 -0.499994169155037 0
vn 0.866028793483469 -0.499994128823097 0
vn -0.499999272241297 -0.866025823955714 0
vn -0.866024479521307 -0.500001600867286 0
vn -0.866025507129541 0.499999821000989 0
vn -0.500004190759555 0.866022984234762 0
vn -9.48486376685733e-06 0.999999999955019 0
vn 0.866027004366652 0.499997227700037 0
vn 0.499996233730145 -0.866027578230434 0
vn -0.999999999998831 -1.52884595302837e-06 0
vn -0.500002199943407 -0.866024133642795 0
vn 0 1 0
vn -0.866027300153424 0.499996715378182 0
vn -5.43189725430652e-07 -9.40825714269843e-07 -0.99999999999941
vn -5.43188252896629e-07 -3.13609713609031e-07 -0.999999999999803
vn 9.05295678421666e-08 -1.48852592474211e-07 -0.999999999999985
vn 2.71590494094155e-07 -4.91212006181663e-07 -0.999999999999842
vn 1.08637254925206e-06 0 -0.99999999999941
vn 5.43186224411436e-07 3.13608223010658e-07 -0.999999999999803
vn -2.7159412648606e-07 4.70412174965721e-07 -0.999999999999853
vn 1.08637650579262e-06 -6.27214998326165e-07 0.999999999999213
vn 5.43188252820952e-07 -3.13607861200464e-07 0.999999999999803
vn 3.62125490482786e-07 -5.65639084015729e-07 0.999999999999775
vn 0 0 1
vn 0 -5.35868252882133e-07 0.999999999999857
vn 0 -1.25443442556658e-06 0.999999999999213
vn 5.43188252971879e-07 -9.40824350081953e-07 0.99999999999941
vn -0.999999999993534 -3.59612681675065e-06 0
vn -0.86602520033757 -0.500000352380148 0
vn 0.866025174527989 0.500000397083608 0
vn 0.500002369594427 0.866024035694136 0
vn 5.80946656195647e-06 0.999999999983125 0
vn -0.866028770198175 0.499994169155038 0
vn -0.999999999998854 -1.51415940763226e-06 0
vn 2.71594126448305e-07 -6.27216659208077e-07 0.999999999999767
vn 0 -3.13608574757457e-07 0.999999999999951
vn 2.26327628638478e-07 -3.87016598324369e-07 0.9999999999999
vn 2.71593137313162e-07 -1.56295286046763e-07 0.999999999999951
vn 4.0738937327654e-07 -5.48815178383134e-07 0.999999999999766
vn 4.07389880397785e-07 -7.05619018426464e-07 0.999999999999668
vn -4.49651133744739e-06 -0.999999999989891 0
vn 0.999999999998964 1.43917635974528e-06 0
vn 0.866027203926401 -0.499996882049699 0
vn 0.866025734496205 0.499999427189981 0
vn 0.86602104916715 -0.500007542342541 0
vn -4.18337094739377e-06 -0.99999999999125 0
vn 0.86602716521221 -0.499996949105196 0
vn 0.866025760305752 0.499999382486462 0
vn 1.18450202535231e-06 0 0.999999999999298
vn 5.92251183206605e-07 6.31822103968934e-07 0.999999999999625
vn 4.04268529763381e-09 -1.39828415512965e-07 0.99999999999999
vn -5.8739664154885e-07 1.05130982319603e-06 0.999999999999275
vn -1.17479953587371e-06 -4.19479874835489e-07 0.999999999999222
vn -5.84977271954989e-07 -1.47079504131213e-06 0.999999999998747
vn 5.94676464515718e-07 -6.31827447250306e-07 0.999999999999624
vn 0.95105652797342 0.309016958432938 0
vn 0.809016145984345 0.587786420000188 0
vn 0.587784278641538 0.809017701772864 0
vn 0.309015416557871 0.951057028957552 0
vn -2.26303402683925e-08 1 0
vn -0.309015399040585 0.951057034649231 0
vn -0.587784385008828 0.809017624492689 0
vn -0.809016231015501 0.587786302965179 0
vn -0.951056268721724 0.309017756326578 0
vn -0.999999999995516 2.99475073005418e-06 0
vn -0.951057168653495 -0.309014986615208 0
vn -0.809016202671782 -0.587786341976853 0
vn -0.587777546105224 -0.809022593191637 0
vn -0.309007367535312 -0.951059644191097 0
vn 5.28041326219863e-08 -0.999999999999999 0
vn 0.309007296105169 -0.951059667399355 0
vn 0.587777652473306 -0.80902251591224 0
vn 0.809016455105928 -0.587785994531886 0
vn 0.951057218138307 -0.309014834315482 0
vn 0.999999999997817 2.08953633773034e-06 0
vn 2.91243941295968e-06 0 0.999999999995759
g gearB1
f 1/1/1 2/2/2 3/3/2 4/4/1
f 2/2/3 5/5/4 6/6/4 3/3/3
f 7/7/5 8/8/6 9/9/6 10/10/5
f 8/7/7 11/8/8 12/9/8 9/10/7
f 11/7/8 13/8/9 14/11/9 12/10/8
f 13/7/10 15/8/10 16/9/10 14/10/10
f 17/7/11 7/8/5 10/9/5 18/10/11
f 19/12/12 20/13/13 21/14/13 22/15/12
f 23/16/14 24/17/14 25/18/14 26/19/14
f 24/17/15 19/12/12 22/15/12 25/18/15
f 20/20/16 19/21/17 27/22/18
f 28/23/19 20/20/16 27/22/18
f 29/24/20 28/23/19 27/22/18
f 23/25/21 29/24/20 27/22/18
f 24/26/22 23/25/21 27/22/18
f 19/21/17 24/26/22 27/22/18
f 22/27/23 21/28/24 30/29/25
f 21/28/24 31/30/26 30/29/25
f 31/30/26 32/31/27 30/29/25
f 32/31/27 26/32/28 30/29/25
f 26/32/28 25/33/29 30/29/25
f 25/33/29 22/27/23 30/29/25
f 33/5/30 34/34/31 35/35/31 36/6/30
f 37/36/32 38/1/33 39/4/33 40/37/32
f 38/1/33 41/2/34 42/3/34 39/4/33
f 41/2/35 33/5/30 36/6/30 42/3/35
f 43/12/36 44/13/13 45/14/13 46/15/12
f 47/16/14 48/17/14 49/18/14 50/19/14
f 48/17/15 43/12/36 46/15/12 49/18/15
f 46/27/37 45/28/38 51/29/39
f 45/28/38 52/30/26 51/29/39
f 52/30/26 53/31/40 51/29/39
f 53/31/40 50/32/41 51/29/39
f 50/32/41 49/33/42 51/29/39
f 49/33/42 46/27/37 51/29/39
f 52/16/43 45/17/13 44/18/13 54/19/43
f 53/17/44 52/12/45 54/15/45 55/18/44
f 50/12/46 53/13/44 55/14/44 47/15/46
f 17/8/11 18/9/11 16/38/47 15/39/47
f 31/16/48 21/17/13 20/18/13 28/19/48
f 32/12/44 31/40/49 28/14/49 29/15/44
f 26/12/50 32/13/44 29/14/44 23/15/50
f 56/27/51 57/28/52 58/29/53
f 57/28/52 59/30/54 58/29/53
f 59/30/54 60/31/55 58/29/53
f 60/31/55 61/32/56 58/29/53
f 61/32/56 62/33/57 58/29/53
f 62/33/57 56/27/51 58/29/53
g gearB1 collision
f 63//58 64//59 65//59 66//58
f 64//59 67//60 68//60 65//59
f 67//60 69//61 70//61 68//60
f 69//61 71//62 72//62 70//61
f 71//62 73//63 74//63 72//62
f 73//63 75//64 76//64 74//63
f 75//64 77//65 78//65 76//64
f 77//65 79//66 80//66 78//65
f 79//66 81//67 82//67 80//66
f 81//67 83//68 84//68 82//67
f 83//68 85//69 86//69 84//68
f 85//69 87//70 88//70 86//69
f 87//70 89//71 90//71 88//70
f 89//71 91//72 92//72 90//71
f 91//72 93//73 94//73 92//72
f 93//73 95//74 96//74 94//73
f 95//74 97//75 98//75 96//74
f 97//75 99//76 100//76 98//75
f 99//76 101//77 102//77 100//76
f 101//77 63//58 66//58 102//77
g roundshadow shadows
f 103/10/78 104/9/78 105/8/78 106/7/78
