v 8.77997234308642 -3 34.2869160066936
v 21.1331767562923 -3 34.0605764172996
v 21.3480440207203 -3 45.3021721431461
v 8.99483960751441 -3 45.5285117325401
v -2.39882452117773 -3 6.59580152007591
v 6.59966517272732 -3 6.43092814840989
v 6.80117707143023 -3 17.4290822187383
v -2.19731262247483 -3 17.5939555904043
v 22.1245429852859 -3 6.59580152007591
v 31.123032679191 -3 6.43092814840989
v 31.3245445778939 -3 17.4290822187383
v 22.3260548839888 -3 17.5939555904043
v -2.03797142011687 -3 21.922241957235
v 9.83800460844505 -3 21.704646307714
v 10.0508061814987 -3 33.318970334819
v -1.82516984706318 -3 33.5365659843401
v 20.5678962919871 -3 22.7865481340108
v 30.3511277507047 -3 22.6072964583123
v 30.5324143548854 -3 32.5015906240646
v 20.7491828961678 -3 32.6808422997631
v 6.2249491618872 -3 -0.114055623963765
v 4.81347536098418 -3 5.2198782035014
v 6.14691796623445 -3 10.407157862426
v 8.70306207100521 -3 10.9549030130801
v 9.79855240162125 -3 5.11228807277069
v 20.2057105424736 -3 5.53831207883491
v 20.4491528381661 -3 11.5635087360289
v 22.8227152211675 -3 11.1983453022596
v 25.204428475524 -3 5.52836595807099
v 24.0894367395201 -3 0
v 30 -3 0
v 30 -3 5.14001289243386
v 32.5026940834498 -3 13.6462828114759
v 34.9395854028815 -3 23.5156926417348
v 36.0361864966258 -3 24.9778274314028
v 26.2886212188991 -3 41.6705329467789
v 15.200765715485 -3 56.0481917118474
v 3.25999825026983 -3 40.8176209861392
v -6.00018876357051 -3 26.5618067868764
v -4.78174310385468 -3 24.7341382997914
v -2.95407461428093 -3 13.6462828114759
v 0 -3 4.99531863927365
v 0 -3 0
v 4.74712476600284 -8.32588844157691 5.41659093424514
v 8.52048034923587 -8.32588844157691 5.84261494030936
v 8.58134092315899 -8.32588844157691 0.0608605722948881
v 6.02519681838822 -8.32588844157691 0.0608605722948881
v 21.8489460383977 -8.32588844157691 6.14691780178381
v 25.2571381780921 -8.32588844157691 5.47745150654003
v 24.161647847476 -8.32588844157691 0.121721144589778
v 21.3620614470128 -8.32588844157691 0.0608605722948881
v 26.613179427792 4.325209606858 41.1147269943886
v 33.0309089580413 4.04933855100947 43.859184925359
v 30.8392105750146 7.14424509590809 48.8008297988679
v 21.3999086866635 7.19959483645676 48.574265435892
v 34.6130109468312 1.55214643114815 35.7027601217742
v 34.9966978108998 0 27.1366566957372
v 9.23423982797274 6.96646154124857 48.5769452367009
v 0.480230659182958 6.96646154124857 50.0232949695985
v -1.56764695362838 4.95779654947864 45.8853982796379
v 2.97428855911945 3.36754415700453 40.3777784451616
v -4.17777854175348 1.55214643114815 35.7027601217742
v -4.98306592222036 0 28.4737724583978
v 2.97428855911945 10.5653789254926 40.3777784451616
v -1.56764695362838 8.9751265330185 45.8853982796379
v -4.17777854175348 12.4983150262017 35.7335943368154
v -4.98306592222036 13.9329230824971 28.4737724583978
v 32.9943039157801 10.1518624112703 43.9218710624489
v 26.5745196343914 9.8926439253431 41.1809318929292
v 34.5950055664222 12.4983150262017 35.7335943368154
v 34.9966978108998 13.9329230824971 27.1366566957372
v 36.0361864966258 16.9329230824971 24.9778274314028
v 26.2886212188991 16.9329230824971 41.6705329467789
v 15.200765715485 16.9329230824971 56.0481917118474
v 3.25999825026983 16.9329230824971 40.8176209861392
v -6.00018876357051 16.9329230824971 26.5618067868764
v 35.5037831092842 -3 -2.9308616658012
v 35.5037831092842 -3 39.0761009275794
v -5.20992594675748 -3 39.0761009275794
v -5.20992594675748 -3 -2.9308616658012
v 35.5037831092842 17.5401353973614 -2.9308616658012
v 35.5037831092842 17.5401353973614 39.0761009275794
v -5.20992594675748 17.5401353973614 39.0761009275794
v -5.20992594675748 17.5401353973614 -2.9308616658012
v -4.4305093982471 -3 -9.86647685167252
v -4.4305093982471 -3 4.00475352007011
v -4.4305093982471 0 4.00475352007011
v -4.4305093982471 0 -9.86647685167252
v 34.8773301573992 -3 -9.86647685167252
v 34.8773301573992 -3 4.00475352007011
v 34.8773301573992 0 -9.86647685167252
v 34.8773301573992 0 4.00475352007011
v 30 0 0
v 30 0 5.14001289243386
v 32.5026940834498 0 13.6462828114759
v 34.0512328472357 0 19.9178647962684
v 34.0512328472357 -3 19.9178647962684
v 34.9395854028815 0 23.5156926417348
v 34.0512328472357 16.9329230824971 19.9178647962684
v 34.9395854028815 16.9329230824971 23.5156926417348
v -4.78174310385468 16.9329230824971 24.7341382997914
v -2.95407461428093 0 13.6462828114759
v -3.98785186592916 -3 19.9178647962684
v -3.98785186592916 0 19.9178647962684
v -4.78174310385468 0 24.7341382997914
v -3.98785186592916 16.9329230824971 19.9178647962684
v 0 0 4.99531863927365
v 0 0 0
vt 0 0
vt 1 0
vt 1.00071978569031 1
vt 0.000719810021109879 1
vt 1 1
vt 0 1
vt 1 1.01135230064392
vt 0 1.01135230064392
vt 0.299032300710678 -0.00151185691356659
vt 0.265813767910004 0.0926372781395912
vt 0.297195851802826 0.184197813272476
vt 0.357353776693344 0.193866059184074
vt 0.383135735988617 0.0907382071018219
vt 0.628064393997192 0.0982579439878464
vt 0.633793711662292 0.204608544707298
vt 0.689654648303986 0.198163047432899
vt 0.745707392692566 0.0980823859572411
vt 0.7194664478302 0.00206408463418484
vt 0.846546232700348 9.80168260866776e-05
vt 0.840045034885406 0.0908242538571358
vt 0.917469382286072 0.241371527314186
vt 0.974820733070374 0.415576219558716
vt 1.00062882900238 0.441384345293045
vt 0.771223425865173 0.736026883125305
vt 0.510274827480316 0.989806532859802
vt 0.229253262281418 0.720972120761871
vt 0.0113181574270129 0.46934312582016
vt 0.0399938300251961 0.437082976102829
vt 0.0830073356628418 0.241371527314186
vt 0.151828944683075 0.0886735767126083
vt 0.152530401945114 0.000501336064189672
vt 0.264252245426178 0.0961094498634338
vt 0.353056788444519 0.103629186749458
vt 0.354489117860794 0.0015755845233798
vt 0.294331192970276 0.0015755845233798
vt 0.66673731803894 0.10900042951107
vt 0.746947884559631 0.0971836969256401
vt 0.721165895462036 0.00264983298256993
vt 0.65527868270874 0.0015755845233798
vt -0.00905266031622887 0.464777052402496
vt 0.990799307823181 0.472052007913589
vt 0.990229308605194 1
vt -0.00865157879889011 0.509768962860107
vt 0.990415275096893 0.507775783538818
vt 0.92266833782196 0.783947825431824
vt 0.869171857833862 0.873633086681366
vt 0.645745277404785 0.87127298116684
vt 0.963577449321747 0.635258972644806
vt 0.976164817810059 0.479489773511887
vt 0.381409615278244 0.87127298116684
vt 0.173717305064201 0.894874334335327
vt 0.123367659747601 0.819349884986877
vt 0.057283740490675 0.635258972644806
vt 0.0352557711303234 0.503091156482697
vt 0.849495232105255 0.0634047314524651
vt 0.150504767894745 0.0634047314524651
vt 0.367493003606796 0.498549818992615
vt 0 0.515721440315247
vt 1 0.515721440315247
vt 0.646801471710205 0.500595211982727
vt 0.511695861816406 0.741776406764984
vt 0.5 0.737062036991119
vt 0.680551409721375 0.453133791685104
vt 1 0.467559665441513
vt 0 0.467559665441513
vt 0.319448590278625 0.453133791685104
vt 0.150504767894745 0.0590941794216633
vt 0.849495232105255 0.0590941794216633
vt 0.897034645080566 0.395305335521698
vt 0.111401349306107 0.393887490034103
vt 0.728624045848846 0.771819531917572
vt 0.29063093662262 0.768937110900879
vt 0.512759983539581 0.996164381504059
vt 0.0100657036527991 0.0167685206979513
vt 1.01006591320038 0.0167685206979513
vt 0.898664355278015 0.353034526109695
vt 0.113031029701233 0.354468822479248
vt 0.89866840839386 0.35327735543251
vt 0.654236555099487 0.826936304569244
vt 0.365902930498123 0.826936304569244
vt 0.113035030663013 0.354711651802063
vt 0.654232501983643 0.826014518737793
vt 0.510065674781799 1.01849448680878
vt 0.365898907184601 0.826014518737793
vt 0.899999976158142 0
vt 0.899999976158142 0.204674258828163
vt 1 0.204674258828163
vt 0.899999976158142 0.579297482967377
vt 1 0.579297482967377
vt 0.900000035762787 0.846635699272156
vt 1 0.846635699272156
vt 0.900000035762787 1
vt 0.335569232702255 0.846635699272156
vt 0.335569232702255 1
vt 0.899999976158142 0.554098665714264
vt 1 0.554098665714264
vt 1 0.806312203407288
vt 0.900000035762787 0.806312203407288
vt 0.899999976158142 1
vt 0.335569202899933 0.806312203407288
vt 0.899999976158142 0.194908767938614
vt 1 0.194908767938614
vt 0.900000035762787 2.16908407901784e-10
vn 0 -1 0
vn -0.0612966398627866 -0.915149012717237 0.398428169767399
vn -0.0070801143601494 -0.922738934495185 0.385360520483531
vn 0.0688205458379708 -0.920520392056973 0.384585413501138
vn -0.955799819359286 -0.288313678207268 0.0576361715535751
vn 0.970772235051017 -0.21971732294301 0.0965689683739582
vn 0.995103935002896 0.00815785519313683 0.0984967407602915
vn 0.921949862418825 0.00542219351621815 0.387271288638058
vn 0.979942790408266 0.0101695093289817 -0.199019367416515
vn -0.969656030063329 0.0157121963443383 -0.243967846750062
vn -0.99981484820098 0.0190727362347648 0.00254951943897611
vn -0.968293429287754 0.0212566473780928 0.248909601543221
vn -0.156487149038868 -0.949307444653491 0.27263005650725
vn -0.122656451390982 -0.937613660950776 0.32532448068145
vn -0.0916612205424379 -0.917543798924462 0.386925829719259
vn -0.187884884923637 -0.958704073328477 0.213508242933659
vn -0.222073310980822 -0.961104198807514 0.164201594342385
vn 0.0809606181209735 -0.926794773824505 0.366738088456946
vn 0.0606271798596189 -0.939395152944057 0.337433092164181
vn 0.0803599551178227 -0.953350117821513 0.290973934336341
vn 0.0798641067761612 -0.964348993901258 0.252294951218762
vn 0.119135967568991 -0.973394741930946 0.195727610756859
vn 0.0940311801954334 0.953213149287659 0.287302678679049
vn 0.0660501412387896 0.937600529426068 0.341383400390664
vn 0.0809606181209742 0.926794773824505 0.366738088456946
vn 0.100336648750745 0.963894055244639 0.246659293726215
vn 0.148849810242235 0.973110223970122 0.17578460113352
vn -0.0827247475829966 0.921784236310944 0.378774917102465
vn -0.11365470631968 0.942754045692248 0.31352418895882
vn -0.146752166186589 0.954282972097994 0.260399329652294
vn -0.177764476295341 0.963693157219193 0.199236767932898
vn -0.210981443968818 0.965710569544134 0.151294170976865
vn 0.881126540364557 0.0102125320279408 0.472770265620381
vn 0.941199648080249 0.00718692258703531 0.337774437453967
vn 0.941191585120129 -0.00652720822254818 0.337810295360988
vn 0.881103887301935 -0.00991137828873808 0.472818891714191
vn 0.830767979194367 -0.0213289969879812 0.556210067000584
vn 0.830694869566886 0.0223102236553897 0.556280763280288
vn 0.784881017217305 0.0120800024156448 0.619528742152909
vn 0.789982048418301 0.000452674661171625 0.613129805393994
vn 0.784982458262184 -0.011400996370687 0.619413075017321
vn -0.78539568844981 0.00240045502700527 0.618989378244985
vn -0.78672250618985 0 0.61730681047139
vn -0.78539568844981 -0.00240045502700527 0.618989378244985
vn -0.812220246086408 -0.0131987423340683 0.583201564682515
vn -0.812220246086408 0.0131987423340684 0.583201564682515
vn -0.859374521329366 0.0108011403543178 0.511232596238708
vn -0.922772009942674 0.00729874511862384 0.385277232633919
vn -0.859374521329365 -0.0108011403543177 0.511232596238708
vn -0.922771378032647 -0.00739196845744555 0.385276968797843
vn 0.99292526844408 0.0013847530940194 0.118732867160365
vn 0.953996613796635 0.00172250358557896 0.299812431106436
vn 0.914433353247961 0.00132758836647614 0.404734332589687
vn -0.983664372012321 -0.000325458497020658 0.180011936577475
vn -0.937497552040182 -0.000257587528919701 0.347991772269591
vn -0.896245260267603 0 0.443558827494005
vn 1 0 0
vn -1 0 0
vn 0.989782690187716 0 -0.142584102216086
vn 0.965325857004737 0 -0.261047868786686
vn 0.970843443436694 0 -0.239714430804618
vn 0.903561313846629 0 -0.428458810295404
vn 0.799999999607821 0 -0.600000000522905
vn -0.832050293989223 0 -0.55470019674816
vn -0.93025673580011 0 -0.366909260578858
vn -0.969842532608313 0 -0.243732357195127
vn -0.986685402565319 0 -0.162640451193776
vn -0.986495552627759 0 -0.163788047932845
g decals decal_base DG_A2_building_front DG_A2
f 1/1/1 2/2/1 3/3/1 4/4/1
f 5/1/1 6/2/1 7/5/1 8/6/1
f 9/2/1 10/1/1 11/6/1 12/5/1
f 13/1/1 14/2/1 15/5/1 16/6/1
f 17/1/1 18/2/1 19/7/1 20/8/1
g decal_base DG_A2_building_front DG_A2
f 21/9/1 22/10/1 23/11/2 24/12/2 25/13/3 26/14/3 27/15/4 28/16/4 29/17/1 30/18/1 31/19/1 32/20/1 33/21/1 34/22/1 35/23/1 36/24/1 37/25/1 38/26/1 39/27/1 40/28/1 41/29/1 42/30/1 43/31/1
g DG_A2_stairs DG_A2
f 44/32/2 45/33/2 24/12/2 23/11/2
f 46/34/3 45/33/2 44/32/2 47/35/1
f 27/15/4 48/36/4 49/37/4 28/16/4
f 50/38/1 49/37/4 48/36/4 51/39/3
f 27/15/5 26/14/5 51/39/5 48/36/5
f 25/13/6 24/12/6 45/33/6 46/34/6
f 46/34/3 51/39/3 26/14/3 25/13/3
f 49/40/7 29/41/7 28/42/8
f 29/41/7 49/40/7 50/1/9 30/2/9
f 21/2/10 47/1/10 44/43/11 22/44/11
f 44/43/11 23/5/12 22/44/11
g o299 DG_A2_roof_and_windows DG_A2
f 52/24/13 53/45/14 54/46/15 55/47/15
f 52/24/13 56/48/16 53/45/14
f 52/24/13 57/49/17 56/48/16
f 58/50/18 59/51/18 60/52/19 61/26/20
f 60/52/19 62/53/21 61/26/20
f 62/53/21 63/54/22 61/26/20
f 64/26/23 65/52/24 59/51/25 58/50/25
f 64/26/23 66/53/26 65/52/24
f 64/26/23 67/54/27 66/53/26
f 55/47/28 54/46/28 68/45/29 69/24/30
f 68/45/29 70/48/31 69/24/30
f 70/48/31 71/49/32 69/24/30
g o301 DG_A2_roof_and_windows DG_A2
f 72/2/33 71/55/34 57/56/35 35/1/36
f 57/56/35 52/57/37 36/58/37 35/1/36
f 72/2/33 73/59/38 69/60/38 71/55/34
f 69/60/38 73/59/38 74/5/39 55/61/40
f 55/61/40 37/6/41 36/58/37 52/57/37
f 55/61/40 74/5/39 37/6/41
f 74/6/42 58/62/43 37/5/44
f 37/5/44 58/62/43 61/63/45 38/64/45
f 75/65/46 64/66/46 58/62/43 74/6/42
f 75/65/46 76/1/47 67/67/48 64/66/46
f 39/2/49 63/68/50 67/67/48 76/1/47
f 38/64/45 61/63/45 63/68/50 39/2/49
g o302 DG_A2_roof_and_windows DG_A2
f 57/1/35 71/2/34 70/69/51 56/70/51
f 68/71/52 53/72/52 56/70/51 70/69/51
f 68/71/52 54/73/53 53/72/52
g o303 DG_A2_roof_and_windows DG_A2
f 67/74/48 63/75/50 62/76/54 66/77/54
f 62/78/54 60/79/55 65/80/55 66/81/54
f 60/82/55 59/83/56 65/84/55
g DG_A2_camera_collisions DG_A2
f 77//1 78//1 79//1 80//1
f 81//57 82//57 78//57 77//57
f 80//58 79//58 83//58 84//58
g building1_landmark3c_collide DG_A2
f 85//58 86//58 87//58 88//58
f 89//1 90//1 86//1 85//1
f 91//57 92//57 90//57 89//57
g o313 DG_A2
f 31/2/57 93/85/57 94/86/59 32/87/59
f 32/87/59 94/86/59 95/88/60 33/89/60
f 33/89/60 95/88/60 96/90/61 97/91/61
f 98/92/61 34/5/62 97/91/61 96/90/61
f 99/93/61 100/94/62 98/92/61 96/90/61
f 34/1/62 100/2/62 72/5/63 35/6/63
f 39/6/64 76/5/64 101/2/65 40/1/65
f 102/95/66 41/96/66 103/97/67 104/98/67
f 40/5/65 105/99/67 104/98/67 103/97/67
f 105/99/67 101/94/65 106/100/67 104/98/67
f 41/96/66 102/95/66 107/101/68 42/102/68
f 42/102/68 107/101/68 108/103/58 43/2/58
