v -1.16644123274277 2.02033658281985 1.12886875184691
v 1.16644225294246 2.02033612939777 1.12886875184691
v -0.67344503639936 1.16644179952038 0.142876500854491
v 0.673445659854725 1.16644145945381 0.142876500854491
v -2.33288337232971 3.51534396600098e-07 1.12886875184691
v -1.34689075293185 1.9490932576044e-07 0.142876500854491
v -1.16644179952038 -2.02033612939777 1.12886875184691
v -0.673445489821444 -1.16644157280933 0.142876500854491
v 2.33288314561867 -1.90444755410383e-08 1.12886875184691
v 1.16644157280933 -2.02033612939777 1.12886875184691
v 1.34689075293185 -1.90444755410383e-08 0.142876500854491
v 0.673445206432642 -1.16644157280933 0.142876500854491
v -1.45960502166484 2.52811082506941 2.39916846660673
v 1.45960615522005 2.52811059835836 2.39916846660673
v -2.91921095017385 4.24517656052313e-07 2.39916846660673
v -1.45960581515349 -2.52811059835836 2.39916846660673
v 1.25572854267934 -0.595702986267961 2.40754045195941
v -1.27831825759829 -0.59570281623468 2.40754045195941
v 1.00124528487008 -0.0201701926892388 1.38084526566667
v -1.02383477307798 -0.0201698951309964 1.38084526566667
v 0.573295547026647 0.528726423313363 0.198331693679949
v -0.59588492187903 0.528726423313363 0.198331693679949
v 2.91921095017385 -3.91994486008424e-08 2.39916846660673
v 1.4596053617314 -2.52811059835836 2.39916846660673
v 1.26405609266783 2.18940792924158 3.85877382833813
v -1.26405507246814 2.18940883608575 3.85877382833813
v -2.52811082506941 3.62391387397251e-07 3.85877382833813
v -1.2640554125347 -2.18940792924158 3.85877382833813
v 1.26405529917918 -2.18940838266367 3.85877382833813
v 2.52811059835836 -3.91994486008424e-08 3.85877382833813
v 0.620193503239366 1.07420588577377 4.46441469312469
v -0.620192936461762 1.07420611248481 4.46441469312469
v -1.24038643970113 1.9703558769334e-07 4.46441469312469
v -0.620193219850564 -1.07420588577377 4.46441469312469
v 0.620193049817283 -1.07420611248481 4.46441469312469
v 1.24038609963457 0 4.46441469312469
v 0.568697960453864 0.9850134544082 -0.00871629389156281
v -0.590144654977664 1.02216107881167 -0.00767561582000426
v -1.1660511763953 1.66182918825424e-07 -0.00802117658315303
v -0.562304198974424 -0.973939186792428 -0.00902666307900757
v 0.558076604821906 -0.966617213629978 -0.0092317533264027
v 1.13898969953179 -1.90444755410383e-08 -0.00867784865817254
v 0 0 4.01387954787211
v 1.26963178719233e-08 -1.90444755410383e-08 0.00425757845897979
v 0.331866934461294 0.480778114843847 4.02669869702133
v -0.3546946392964 0.464192841867759 4.02669869702133
v -0.3546946392964 0.464192841867759 16.9273219001817
v 0.331866934461294 0.480778114843847 16.9273219001817
v -0.551080245393284 -0.193891203689713 4.02669869702133
v -0.551080245393284 -0.193891203689713 16.9273219001817
v 0.0141083432597581 -0.58402413698139 4.02669869702133
v 0.0141083432597581 -0.58402413698139 16.9273219001817
v 0.559799665417572 -0.167055516854422 4.02669869702133
v 0.559799665417572 -0.167055516854422 16.9273219001817
v -0.89747731723648 -0.764302717044926 0.0974920533875867
v 0.852859960749046 -0.764302717044926 0.0974920533875867
v 0.852859960749046 -0.764302717044926 2.32770007778036
v -0.89747731723648 -0.764302717044926 2.32770007778036
v -2.47128366203544 -2.47128366203544 0.00738843846366666
v 2.47128366203544 -2.47128366203544 0.00738843846366666
v 2.47128366203544 2.47128366203544 0.00738843846366666
v -2.47128366203544 2.47128366203544 0.00738843846366666
v 2.33815553760746 1.69876964108872 -0.0599540609089652
v 0.893095672931039 2.74866688882439 -0.0599540609089652
v 0.893095672931039 2.74866688882439 7.60626971574878
v 2.33815553760746 1.69876964108872 7.60626971574878
v -0.893096183030883 2.74866666211335 -0.0599540609089652
v -0.893096183030883 2.74866666211335 7.60626971574878
v -2.3381557643185 1.69876941437768 -0.0599540609089652
v -2.3381557643185 1.69876941437768 7.60626971574878
v -2.89011938928627 -1.39364943761736e-07 -0.0599540609089652
v -2.89011938928627 -1.39364943761736e-07 7.60626971574878
v -2.3381557643185 -1.69876964108872 -0.0599540609089652
v -2.3381557643185 -1.69876964108872 7.60626971574878
v -0.893096012997602 -2.74866688882439 -0.0599540609089652
v -0.893096012997602 -2.74866688882439 7.60626971574878
v 0.893096012997602 -2.74866688882439 -0.0599540609089652
v 0.893096012997602 -2.74866688882439 7.60626971574878
v 2.3381557643185 -1.69876941437768 -0.0599540609089652
v 2.3381557643185 -1.69876941437768 7.60626971574878
v 2.89011938928627 0 -0.0599540609089652
v 2.89011938928627 0 7.60626971574878
vt 0.716592729091644 0.303168207406998
vt 0.57418292760849 0.303168207406998
vt 0.68635880947113 0.167927011847496
vt 0.57418292760849 0.167927011847496
vt 0.829043567180634 0.303168207406998
vt 0.777351915836334 0.167927011847496
vt 0.966028034687042 0.303168207406998
vt 0.874930858612061 0.167927011847496
vt 0.41679859161377 0.303168207406998
vt 0.254380911588669 0.303168207406998
vt 0.41679859161377 0.167927011847496
vt 0.254380941390991 0.167927011847496
vt 0.716592729091644 0.481854170560837
vt 0.57418292760849 0.481854170560837
vt 0.859817922115326 0.481854170560837
vt 0.997585773468018 0.481854259967804
vt 0.182416006922722 0.407995730638504
vt 0.097364142537117 0.408410370349884
vt 0.182416006922722 0.303168207406998
vt 0.097364142537117 0.303168207406998
vt 0.182416006922722 0.167927011847496
vt 0.097364142537117 0.167927011847496
vt 0.41679859161377 0.481854170560837
vt 0.254380911588669 0.481854170560837
vt 0.57418292760849 0.619749426841736
vt 0.716592729091644 0.619749426841736
vt 0.860369563102722 0.619749426841736
vt 0.997585773468018 0.619749426841736
vt 0.0277295913547277 0.481854170560837
vt 0.0277295913547277 0.619749426841736
vt 0.256418585777283 0.619749426841736
vt 0.41679859161377 0.619749426841736
vt 0.57418292760849 0.772967636585236
vt 0.696115434169769 0.772967636585236
vt 0.825390100479126 0.809254765510559
vt 3.05744869422142e-08 0.785103261470795
vt 0.16387403011322 0.908989071846008
vt 0.178747966885567 0.827413439750671
vt 0.256418615579605 0.772967636585236
vt 0.41679859161377 0.772967636585236
vt 0.573240637779236 0.141807660460472
vt 0.671734094619751 0.147155612707138
vt 0.749260187149048 0.145380392670631
vt 0.256418615579605 0.100012138485909
vt 0.256418615579605 3.26221183399866e-08
vt 0.298269689083099 3.26221183399866e-08
vt 0.30786070227623 0.0835067629814149
vt 0.309817343950272 0.139159262180328
vt 0.440156757831573 0.142006427049637
vt 0.47118729352951 1
vt 0.0277296062558889 0.303168207406998
vt 0.0277295913547277 0.167927011847496
vt 0.097364142537117 0.0318093672394753
vt 0.182416006922722 0.0313947387039661
vt 0.568124949932098 3.26221183399866e-08
vt 0.806565403938293 -2.98023223876953e-08
vt 1 -2.98023223876953e-08
vt 1 1
vt 0.806565403938293 1
vt 0.101178899407387 -2.98023223876953e-08
vt 0.183430030941963 -2.98023223876953e-08
vt 0.183430030941963 1
vt 0.101178899407387 1
vt 0.376864701509476 -2.98023223876953e-08
vt 0.376864701509476 1
vt 0.591715037822723 -2.98023223876953e-08
vt 0.591715037822723 1
vt 0.6180340051651 0.999999940395355
vt -8.56195327969544e-08 0.80901700258255
vt -8.56195327969544e-08 0.19098299741745
vt 0.618033885955811 -1.26875141504001e-08
vt 0.999999940395355 0.499999970197678
vt 0 0
vt 1 0
vt 0 1
vn -0.39497788871928 0.716385159983204 -0.575138913636261
vn 0.422918794822161 0.700253392940886 -0.575139008119731
vn -0.27035780505787 0.626912082498983 -0.7306763292054
vn 0.401393861248662 0.53789449524136 -0.741318069482278
vn -0.817896669470687 0.0161316663380559 -0.575138946177283
vn -0.673375451537352 0.0843694643282314 -0.734470758271447
vn -0.763730744708697 -0.440940045246147 -0.471473462758006
vn -0.490213076732745 -0.446606160153443 -0.748487860364624
vn 0.817896660167785 -0.0161316553542293 -0.575138959714881
vn 0.71327386591981 -0.41180889071441 -0.567145333864589
vn 0.654719504971486 -0.0797809767701116 -0.751649762559332
vn 0.419987979543308 -0.459408091909786 -0.782658483712366
vn -0.384407297345923 0.909526635176836 -0.158089625374678
vn 0.229341278860154 0.939862753090187 -0.253101922482868
vn -0.979876818013372 0.121856791044674 -0.158089670745071
vn -0.865683079427634 -0.499802251024193 0.0281161139533644
vn -5.42092807223e-08 -0.872294546820688 -0.488980800836687
vn -9.49383962813762e-08 -0.872294562612147 -0.488980772666241
vn -1.04187556428196e-07 -0.884451091867564 -0.466632902927197
vn -8.61060886985563e-08 -0.896042559902925 -0.443968164221946
vn -6.12417560605536e-08 -0.907046384309071 -0.421030707563994
vn 0 -0.907046407071748 -0.421030658525282
vn 0.979876824701929 -0.121856744409981 -0.158089665234213
vn 0.851975162963085 -0.491888148947239 -0.179400029596664
vn 0.247495517907655 0.854468684091896 0.456759495272824
vn -0.406765593891063 0.699805396455585 0.587208786308662
vn -0.843609950901741 0.487058672703821 0.226044464837239
vn -0.809431967681998 -0.00236672004539781 0.587208896671939
vn -0.843610128156455 -0.487058323396629 0.226044555966107
vn -0.402666332635011 -0.702172082394483 0.587208814024505
vn 0 -0.974116910115022 0.226044786332182
vn -1.13818982777164e-07 -0.974116965423335 0.226044547986499
vn 0.406765650988019 -0.699805331558156 0.587208824098439
vn 0.809431984410254 0.00236674974216281 0.587208873493356
vn 0.843610110159898 0.487058218988935 0.226044848097301
vn 0.843610096156171 0.487058300310844 0.226044725135731
vn 0.0173220842774065 0.135515109887362 0.990623844043996
vn -0.108698545360937 0.0827588829049305 0.990623840585691
vn -0.413303092146964 0.238620240523165 0.878772402180693
vn -0.126020627869364 -0.0527562504559098 0.990623833444989
vn -0.413303145854782 -0.238620179819184 0.878772393404345
vn -0.0173220679505991 -0.135515163798208 0.990623836954603
vn -1.34388466941077e-07 -0.477240872632072 0.878772524314091
vn 0.108698544600278 -0.0827588910358621 0.99062383998988
vn 0.413303027904096 -0.238620374260921 0.878772396080398
vn 0.126020592863431 0.0527562281084207 0.99062383908834
vn 0.413303164563973 0.238620220423241 0.878772373579512
vn 0.41330309015793 0.238620465197395 0.878772342108515
vn 0.150529548973331 0.267166100510358 -0.95182095460437
vn -0.163852788974572 0.278592421322353 -0.946328973627566
vn -0.316743602523153 0.00481173162762148 -0.948498991828351
vn -0.148558410091064 -0.249990769234394 -0.956783681972478
vn 0.141936022865641 -0.243813600787763 -0.95937953568126
vn 0.289253311243084 0.00163266638645702 -0.957251198137345
vn -3.21593487997285e-08 2.33351201848008e-09 1
vn -0.977411627217912 -0.103918209613333 0.184031292692285
vn -0.977413159692021 -0.103913327649473 0.184025910125922
vn -0.963794591062372 -0.110192821254352 0.242811713850305
vn -0.953383896076643 -0.0975269257093142 0.285565483669528
vn 0 0.00433257955216008 -0.999990614333167
vn 1.71968063816709e-10 0.00433235019288756 -0.999990615326867
vn 3.43936127975481e-10 0.00433212062620128 -0.999990616321413
vn 0.977676440076089 -0.0925373573497369 0.188641501305712
vn 0.963402757820335 -0.0997216312243954 0.248818653822656
vn 0.977515509890523 -0.0930647784935691 0.189215155120865
vn 0.952531084876353 -0.0866831268320714 0.291839969618441
vn 0.936151580693332 -0.0828657313949352 0.341692096083239
vn 0.946678438565868 -0.0537064774755309 0.317672076569001
vn 0 -0.0326961926770482 0.999465336559715
vn 0 -0.0326961871822356 0.999465336739471
vn 0 -0.0326961797396201 0.999465336982946
vn -0.937451578117892 -0.0939341164520381 0.335202804956416
vn -0.947694096608983 -0.0662037786432415 0.312238625006324
vn -0.000537115139477411 0.000687232179360477 -0.999999619609557
vn -0.0241499618789335 0.999708347139928 0
vn -0.958241921356162 0.285958773524525 0
vn -0.568076031081081 -0.82297607675507 0
vn 0.607151689461708 -0.794585946253641 0
vn 0.943316379187283 0.33189487606318 0
vn 0 -5.3134175459483e-07 0.999999999999859
vn 0 -1 0
vn 0 0 1
vn 0.809016946553461 0.587785318113096 0
vn 0.309016891057978 0.951056549864866 0
vn -0.309017056115602 0.951056496234397 0
vn -0.80901700499583 0.587785237674082 0
vn -1 -4.49971396104972e-09 0
vn -0.809016985906748 -0.587785263947949 0
vn -0.30901696915224 -0.951056524490508 0
vn 0.309017017981314 -0.95105650862498 0
vn 0.809017011643718 -0.587785228524049 0
vn 0.999999999999999 4.07451829441367e-08 0
vn 0 5.48864342864164e-10 -1
vn 0 7.02546358866129e-08 0.999999999999998
g carmelApple CarmelAppleFireplace CarmelAppleFireplaceAll
f 1/1/1 2/2/2 3/3/3
f 4/4/4 3/3/3 2/2/2
f 5/5/5 1/1/1 6/6/6
f 3/3/3 6/6/6 1/1/1
f 7/7/7 5/5/5 8/8/8
f 6/6/6 8/8/8 5/5/5
f 9/9/9 10/10/10 11/11/11
f 12/12/12 11/11/11 10/10/10
f 2/2/2 9/9/9 4/4/4
f 11/11/11 4/4/4 9/9/9
f 13/13/13 14/14/14 1/1/1
f 2/2/2 1/1/1 14/14/14
f 15/15/15 13/13/13 5/5/5
f 1/1/1 5/5/5 13/13/13
f 16/16/16 15/15/15 7/7/7
f 5/5/5 7/7/7 15/15/15
f 17/17/17 18/18/18 19/19/19
f 18/18/18 20/20/20 19/19/19
f 19/19/19 20/20/20 21/21/21
f 20/20/20 22/22/22 21/21/21
f 23/23/23 24/24/24 9/9/9
f 10/10/10 9/9/9 24/24/24
f 14/14/14 23/23/23 2/2/2
f 9/9/9 2/2/2 23/23/23
f 14/14/14 13/13/13 25/25/25
f 13/13/13 26/26/26 25/25/25
f 13/13/27 15/15/15 26/26/26
f 15/15/15 27/27/28 26/26/26
f 15/15/29 16/16/16 27/27/28
f 16/16/16 28/28/30 27/27/28
f 16/29/31 24/24/32 28/30/30
f 24/24/32 29/31/33 28/30/30
f 24/24/24 23/23/23 29/31/33
f 23/23/23 30/32/34 29/31/33
f 23/23/35 14/14/36 30/32/34
f 14/14/36 25/25/25 30/32/34
f 25/25/25 26/26/26 31/33/37
f 26/26/26 32/34/38 31/33/37
f 26/26/39 27/27/28 32/34/38
f 27/27/28 33/35/40 32/34/38
f 27/36/41 28/30/30 33/37/40
f 28/30/30 34/38/42 33/37/40
f 28/30/43 29/31/33 34/38/42
f 29/31/33 35/39/44 34/38/42
f 29/31/45 30/32/34 35/39/44
f 30/32/34 36/40/46 35/39/44
f 30/32/47 25/25/48 36/40/46
f 25/25/48 31/33/37 36/40/46
f 3/3/3 4/4/4 37/41/49 38/42/50
f 6/6/6 3/3/3 38/42/50 39/43/51
f 8/44/8 6/45/6 39/46/51 40/47/52
f 12/12/12 8/44/8 40/47/52 41/48/53
f 11/11/11 12/12/12 41/48/53 42/49/54
f 4/4/4 11/11/11 42/49/54 37/41/49
f 31/33/37 32/34/38 43/50/55
f 32/34/38 33/35/40 43/50/55
f 33/37/40 34/38/42 43/50/55
f 34/38/42 35/39/44 43/50/55
f 35/39/44 36/40/46 43/50/55
f 36/40/46 31/33/37 43/50/55
f 24/24/56 17/17/57 10/10/58
f 10/10/58 17/17/57 19/19/59
f 24/24/60 16/29/61 17/17/61
f 16/29/61 18/18/62 17/17/61
f 16/29/63 7/51/64 18/18/65
f 7/51/64 20/20/66 18/18/65
f 7/51/64 8/52/67 20/20/66
f 8/52/67 22/22/68 20/20/66
f 8/53/69 12/54/70 22/22/70
f 12/54/70 21/21/71 22/22/70
f 10/10/58 19/19/59 12/12/72
f 12/12/72 19/19/59 21/21/73
f 41/48/53 40/47/52 44/55/74
f 42/49/54 41/48/53 44/55/74
f 37/41/49 42/49/54 44/55/74
f 38/42/50 37/41/49 44/55/74
f 39/43/51 38/42/50 44/55/74
f 40/47/52 39/46/51 44/55/74
g carmelAppleStick CarmelAppleFireplace CarmelAppleFireplaceAll
f 45/56/75 46/57/75 47/58/75 48/59/75
f 46/60/76 49/61/76 50/62/76 47/63/76
f 49/61/77 51/64/77 52/65/77 50/62/77
f 51/64/78 53/66/78 54/67/78 52/65/78
f 53/66/79 45/56/79 48/59/79 54/67/79
f 48/68/80 47/69/80 50/70/80 52/71/80 54/72/80
g carmelAppleFire CarmelAppleFireplace CarmelAppleFireplaceAll
f 55/73/81 56/74/81 57/58/81 58/75/81
g shadow CarmelAppleFireplace CarmelAppleFireplaceAll
f 59/73/82 60/74/82 61/58/82 62/75/82
g collision collisions CarmelAppleFireplaceAll
f 63//83 64//84 65//84 66//83
f 64//84 67//85 68//85 65//84
f 67//85 69//86 70//86 68//85
f 69//86 71//87 72//87 70//86
f 71//87 73//88 74//88 72//87
f 73//88 75//89 76//89 74//88
f 75//89 77//90 78//90 76//89
f 77//90 79//91 80//91 78//90
f 79//91 81//92 82//92 80//91
f 81//92 63//83 66//83 82//92
f 63//93 81//93 79//93 77//93 75//93 73//93 71//93 69//93 67//93 64//93
f 66//94 65//94 68//94 70//94 72//94 74//94 76//94 78//94 80//94 82//94
