v -0.0940733381548737 -0.125131009257647 0.757530624742008
v -0.334214578164061 -0.125131009257647 0.66673637404704
v -0.0940733381548737 -0.174109970159805 0.417132606046835
v -0.416683139941387 -0.125131009257647 0.421810392071275
v -0.398253843253267 0 0.718984833564922
v -0.108285045200979 0 0.82861816415035
v -0.334214578164061 0.125131009257647 0.66673637404704
v -0.0940733381548737 0.125131009257647 0.757530624742008
v -0.416683139941387 0.125131009257647 0.426008175957027
v -0.0940733381548737 0.169757715782706 0.417132606046835
v -0.334214578164061 0.125131009257647 0.149153630668335
v -0.0940733381548737 0.125131009257647 0.0767345225740456
v -0.398253843253267 0 0.0940073120849624
v -0.108285045200979 0 0.00656174027791552
v 0.534760257186297 0 0.539889169192955
v 0.456620119552914 0 0.208452518361103
v 0.453609320712956 0.125131009257647 0.518416134246857
v 0.380979102366306 0.125131009257647 0.243932838389856
v -0.497834076414728 0 0.425772806487266
v 0.269371285250601 0 0.0737108329883919
v 0.131758121496741 0 0.00123818619401765
v 0.218687399505423 0.125131009257647 0.132344875613626
v 0.104721337064552 0.125131009257647 0.0723257579911674
v 0.124812309172595 0.147036758573804 0.428570227858286
v 0.190877720941283 0.125131009257647 0.436330262433747
v 0.174100091531328 0 0.752028025325946
v 0.226723645837884 0 0.539889169192955
v 0.139787371846613 0.125131009257647 0.694101613383983
v 0.183368197603452 0.125131009257647 0.518416166635665
v 0.139787371846613 -0.125131009257647 0.694101613383983
v 0.12386252356423 -0.142725425504637 0.411728695329598
v 0.183368197603452 -0.125131009257647 0.518416166635665
v 0.192353436018475 -0.125131009257647 0.420199372747499
v 0.218687399505423 -0.125131009257647 0.132344875613626
v 0.380979102366306 -0.125131009257647 0.243932838389856
v 0.453609320712956 -0.125131009257647 0.518416134246857
v 0.104721337064552 -0.125131009257647 0.0723257579911674
v -0.0940733381548737 -0.125131009257647 0.0767345225740456
v -0.334214578164061 -0.125131009257647 0.149153630668335
v 0.477122224578401 0.0061641756992541 0.892403761558355
v 0.761208880612735 0.0674228277015703 0.867542247952996
v 0.768918922427723 0.127564762453366 1.10383239636458
v 0.484832266393389 0.06630606436427 1.12869381779638
v 0.172305111884758 -0.0113075022484567 0.553462478537017
v 0.358368792896305 -0.0113075022484567 0.48781492088045
v 0.625486053466918 -0.0113075022484567 1.24490012051265
v 0.439422372455371 -0.0113075022484567 1.31054758365722
v -0.0985267170213816 -0.0137107083080071 1.15709036502119
v 0.741826992951472 -0.0137107083080071 0.860593884813525
v 1.03832320002504 -0.0137107083080071 1.70094759478638
v 0.197969490052192 -0.0137107083080071 1.997443938427
v 0.313549173993968 -0.011185243125905 0.74433351806433
v 0.0997733099211598 -0.011288922239197 0.711310324341728
v 0.0667500881354613 -0.011288922239197 0.925086132288341
v 0.280525980271367 -0.011185243125905 0.958109438263333
v 0.303122749104301 -0.0113075026839311 0.406098375297682
v 0.52392200661704 -0.0113075026839311 0.516414551538953
v 0.23043317265623 -0.0113075026839311 1.10383616989622
v 0.00963388866743875 -0.0113075026839311 0.993519887750749
v -0.25012946732309 -0.0344190264426135 1.0309145652658
v 0.199731245505378 -0.0305294763429915 0.745292167606112
v 0.48533583765684 -0.0460366073470839 1.19491366333492
v 0.0354751274321492 -0.0499261534629364 1.480535920305
v 0.468678666380038 -0.0376932767699786 0.642382966165457
v 0.607507583805715 0.0139816871078043 0.445927308899261
v 0.763841968202138 0.0647146399929174 0.569748507969363
v 0.625013050776461 0.0130396372384594 0.766204087482208
v 0.227802507966669 -0.0106931843175239 0.37952213495748
v 0.131158051001023 -0.0426204605275707 0.606096482603352
v 0.738986227780266 -0.0426204700416089 0.865363387155242
v 0.835630741830143 -0.0106931843175239 0.638789001453217
v 0.316094864891592 -0.157200932527997 0.940952695067007
v 0.844071660214774 0.0309531475739753 0.361117272658702
v 1.35973819168927 0.0808887602395269 0.799026156063314
v 0.83176144733774 -0.107265347134685 1.37886186343618
v -0.525050723447042 -0.255744618872003 0.00230640903526643
v 0.525050723447042 -0.255744618872003 0.00230640903526643
v 0.525050723447042 0.255744618872003 0.0023064090352666
v -0.525050723447042 0.255744618872003 0.0023064090352666
v -0.558168462973785 -0.182398125560916 0.00300749121795079
v 1.60754531998438 -0.182398125560916 0.00300749121795079
v 1.60754531998438 -0.182398125560916 2.34470506135897
v -0.558168462973785 -0.182398125560916 2.34470506135897
v -0.558168462973785 0.182398125560916 2.34470506135897
v 1.60754531998438 0.182398125560916 2.34470506135897
v 1.60754531998438 0.182398125560916 0.00300749121795079
v -0.558168462973785 0.182398125560916 0.00300749121795079
vt 0.391015887260437 0.914081215858459
vt 0.158454746007919 0.804344058036804
vt 0.391015887260437 0.50266432762146
vt 0.0785892903804779 0.50831812620163
vt 0.0964368879795074 0.867493391036987
vt 0.377252757549286 1
vt 0.0785892903804779 0.513391613960266
vt 0.158454746007919 0.178775697946548
vt 0.391015887260437 0.0912474393844604
vt 0.0964368879795074 0.112123936414719
vt 0.377252757549286 0.00643426179885864
vt 1 0.651032209396362
vt 0.924326419830322 0.250446408987045
vt 0.9214106798172 0.625079095363617
vt 0.851073026657104 0.293329119682312
vt 0 0.513107180595398
vt 0.742988228797913 0.0875928997993469
vt 0.609718918800354 0
vt 0.693904161453247 0.158460050821304
vt 0.583535552024841 0.0859188437461853
vt 0.602992296218872 0.516488194465637
vt 0.666972279548645 0.525867283344269
vt 0.650724291801453 0.907430529594421
vt 0.70168673992157 0.651032209396362
vt 0.617494702339172 0.837418675422668
vt 0.65969979763031 0.625079274177551
vt 0.602072477340698 0.496132999658585
vt 0.668401479721069 0.506370961666107
vt 0.99999988079071 0.499999970197678
vt 0.99999988079071 1
vt -7.61299219220746e-08 0.499999970197678
vt -7.61299219220746e-08 1
vt 0.99999988079071 -3.31078418014386e-08
vt -7.61299219220746e-08 -3.31078489068659e-08
vt 0 0
vt 1 0
vt 1 1
vt 0 1
vt 0.0042654275894165 0.0042654275894165
vt 0.995734572410583 0.0042654275894165
vt 0.995734572410583 0.995734572410583
vt 0.0042654275894165 0.995734572410583
vt 0.00284361839294434 0.00284361839294434
vt 0.997156381607056 0.00284361839294434
vt 0.997156381607056 0.997156381607056
vt 0.00284361839294434 0.997156381607056
vt 0.00425734138116241 0.00425734138116241
vt 0.995742678642273 0.00425734138116241
vt 0.995742678642273 0.995742678642273
vt 0.00425734138116241 0.995742678642273
vt 0.0056689977645874 0.0056689977645874
vt 0.994331002235413 0.0056689977645874
vt 0.994331002235413 0.994331002235413
vt 0.0056689977645874 0.994331002235413
vt 0.00565692037343979 0.00565692037343979
vt 0.994343101978302 0.00565692037343979
vt 0.994343101978302 0.994343101978302
vt 0.00565692037343979 0.994343101978302
vt 0.00853085890412331 0.00568724004551768
vt 0.997156381607056 0.00568724004551768
vt 0.997156381607056 0.994312763214111
vt 0.00853085890412331 0.994312763214111
vt 0.00568723678588867 0.00568723678588867
vt 0.994312763214111 0.00568723678588867
vt 0.994312763214111 0.994312763214111
vt 0.00568723678588867 0.994312763214111
vn 0.0323323194700749 -0.769874195421904 0.637376140392124
vn -0.461322912895687 -0.765283770869362 0.448911929092342
vn -0.0110775106586652 -0.999901777737483 0.00858624685339315
vn -0.535680155568157 -0.844383951110305 0.00790658193059041
vn -0.677817999264962 0.319669464790513 0.662098325895022
vn -0.234345236471824 0.108338136236533 0.966097903102868
vn -0.366573436315723 0.800158557622917 0.47473171207588
vn 0.0327259340551177 0.77297420528606 0.633592843395981
vn -0.60295847848889 0.794710275261677 0.0698330266555339
vn -0.0156492490713429 0.999875876649191 0.00182545843998754
vn -0.444922134950447 0.775682700199424 -0.447616624403592
vn -0.0874136378636522 0.830898928043699 -0.549514173876593
vn -0.553927085194285 0.220835195654504 -0.802743172283889
vn -0.197821406530433 0.186298302222136 -0.962371879112992
vn 0.837609998089928 0.509325509935049 -0.197476621475035
vn 0.746279690558359 0.542206056164618 -0.386107777852935
vn 0.47053981354328 0.874507072774706 -0.117599589870335
vn 0.41585892012402 0.828722033159175 -0.374541253148178
vn -0.837337217439385 0.541763411724878 -0.073203756782612
vn 0.46265660124471 0.515610229967561 -0.721176095054108
vn 0.265159452111881 0.518954796215019 -0.812635456057115
vn 0.307135443849455 0.851251431993387 -0.425486566956709
vn 0.094090295920823 0.847567802140596 -0.522279462537148
vn 0.188672247250689 0.98197404061561 0.0113915176525442
vn 0.126161807581543 0.991942531833316 0.0115417437100709
vn 0.696189265363383 0.281036533552165 0.660559591257122
vn 0.970583526565943 0 0.24076465263576
vn 0.673638107533778 0.621324296802841 0.400209717873973
vn 0.543195643563879 0.831435660597124 0.116847058587912
vn 0.483131721035708 -0.819358856155424 0.308601369032527
vn 0.143894240571151 -0.989492918498002 -0.0140787702857249
vn 0.378303984946385 -0.921945829495697 0.0830781707139562
vn 0.099194202881091 -0.995026713644026 0.00907464872904842
vn 0 1 0
vn 0 0 1
vn 5.6117042512381e-08 0.169132114766765 0.985593388651993
vn 5.99257592686242e-08 0 0.999999999999998
vn 1.18124864983451e-07 0.169131977032823 0.985593412287722
vn 0.294111601012841 -0.855968924326271 -0.425224137058787
vn 0.41585892012402 -0.828722033159175 -0.374541253148178
vn 0.47053981354328 -0.874507072774706 -0.117599589870335
vn -0.805165842859875 -0.526244694694772 0.273449239891707
vn -0.838791193658783 -0.544284107298078 0.0135699662198979
vn 0.232381636252115 -0.460349674400222 0.856782908566925
vn 0.232381525342419 -0.460349555621989 0.856783002468051
vn 5.42568176584284e-08 -0.169132114766765 0.985593388651993
vn 1.18124864983451e-07 -0.169131977032822 0.985593412287722
vn 0.837609998089928 -0.509325509935049 -0.197476621475035
vn 0.746279690558359 -0.542206056164618 -0.386107777852935
vn 0.46265660124471 -0.515610229967561 -0.721176095054108
vn 0.265159452111881 -0.518954796215019 -0.812635456057115
vn 0.0885008589342379 -0.798645003067878 -0.595259403153458
vn -0.0193190229432956 -0.490707954453204 -0.871109912002423
vn -0.0396629488941112 -0.888154024293927 -0.457831060125377
vn -0.447730332200624 -0.772178238130274 -0.450863968604218
vn -0.815165799435858 -0.525013654552551 -0.244674032057907
vn 0.0671774914730736 0.992391839432943 0.103177621925906
vn 0.224444645324379 -0.946102448367439 0.233483957432522
vn -1.84783888190765e-09 -1 0
vn 0 -1 0
vn -0.000473685769264627 0.999999885133739 -7.31730938732149e-05
vn -2.26751351029009e-09 -1 0
vn -0.00943887975089778 -0.999549851565327 -0.0284780930678286
vn 0.323221375788109 -0.946102411991047 -0.0204491627790768
vn -0.0504316860733986 0.991704438170071 0.118232619668086
vn 0.203800416373666 -0.970432710889187 -0.129328047701121
vn 1 0 0
vn -1 0 0
g shellVase shellVase
f 1/1/1 2/2/2 3/3/3
f 4/4/4 3/3/3 2/2/2
f 5/5/5 6/6/6 7/2/7
f 6/6/6 8/1/8 7/2/7
f 9/7/9 10/3/10 11/8/11
f 10/3/10 12/9/12 11/8/11
f 13/10/13 11/8/11 14/11/14
f 11/8/11 12/9/12 14/11/14
f 15/12/15 16/13/16 17/14/17
f 16/13/16 18/15/18 17/14/17
f 19/16/19 5/5/5 9/7/9
f 9/7/9 5/5/5 7/2/7
f 20/17/20 21/18/21 22/19/22
f 21/18/21 23/20/23 22/19/22
f 23/20/23 24/21/24 22/19/22
f 24/21/24 25/22/25 22/19/22
f 26/23/26 27/24/27 28/25/28
f 28/25/28 27/24/27 29/26/29
f 30/25/30 31/27/31 32/26/32
f 31/27/31 33/28/33 32/26/32
f 16/13/16 20/17/20 18/15/18
f 20/17/20 22/19/22 18/15/18
f 22/19/22 25/22/25 18/15/18
f 18/15/18 25/22/25 17/14/17
f 25/22/25 29/26/34 17/14/17
f 15/29/35 17/30/36 27/31/37
f 29/32/38 27/31/37 17/30/36
f 34/19/39 35/15/40 33/28/33
f 35/15/40 36/14/41 33/28/33
f 32/26/32 33/28/33 36/14/41
f 1/1/1 3/3/3 30/25/30
f 3/3/3 31/27/31 30/25/30
f 6/6/6 26/23/26 8/1/8
f 8/1/8 26/23/26 28/25/28
f 24/21/24 23/20/23 10/3/10
f 12/9/12 10/3/10 23/20/23
f 21/18/21 14/11/14 23/20/23
f 14/11/14 12/9/12 23/20/23
f 13/10/13 19/16/19 11/8/11
f 11/8/11 19/16/19 9/7/9
f 5/5/42 19/16/43 2/2/2
f 19/16/43 4/4/4 2/2/2
f 5/5/5 2/2/2 6/6/6
f 2/2/2 1/1/1 6/6/6
f 6/6/44 1/1/1 26/23/45
f 26/23/45 1/1/1 30/25/30
f 26/23/26 30/25/30 27/24/27
f 27/24/27 30/25/30 32/26/32
f 15/29/35 27/31/37 36/33/46
f 27/31/37 32/34/47 36/33/46
f 15/12/48 36/14/41 16/13/49
f 35/15/40 16/13/49 36/14/41
f 16/13/49 35/15/40 20/17/50
f 34/19/39 20/17/50 35/15/40
f 20/17/50 34/19/39 21/18/51
f 37/20/52 21/18/51 34/19/39
f 21/18/51 37/20/52 14/11/53
f 38/9/54 14/11/53 37/20/52
f 13/10/13 14/11/14 39/8/55
f 14/11/14 38/9/54 39/8/55
f 13/10/56 39/8/55 19/16/43
f 19/16/43 39/8/55 4/4/4
f 38/9/54 3/3/3 39/8/55
f 39/8/55 3/3/3 4/4/4
f 3/3/3 38/9/54 31/27/31
f 38/9/54 37/20/52 31/27/31
f 37/20/52 34/19/39 31/27/31
f 33/28/33 31/27/31 34/19/39
f 8/1/8 10/3/10 7/2/7
f 7/2/7 10/3/10 9/7/9
f 8/1/8 28/25/57 10/3/10
f 24/21/24 10/3/10 28/25/57
f 28/25/28 29/26/29 24/21/24
f 25/22/25 24/21/24 29/26/29
g BlueLeaf flowers shellVase
f 40/35/58 41/36/58 42/37/58 43/38/58
g BlueStem flowers shellVase
f 44/39/59 45/40/59 46/41/59 47/42/59
g blueFlower flowers shellVase
f 48/43/60 49/44/60 50/45/60 51/46/60
g OrangeLeaf flowers shellVase
f 52/47/61 53/48/61 54/49/61 55/50/61
g OrangeStem flowers shellVase
f 56/35/62 57/36/62 58/37/62 59/38/62
g OrangeFlower flowers shellVase
f 60/51/63 61/52/63 62/53/63 63/54/63
g redLeaf flowers shellVase
f 64/35/64 65/36/64 66/37/64 67/38/64
g RedStem flowers shellVase
f 68/55/65 69/56/65 70/57/65 71/58/65
g redFlower flowers shellVase
f 72/59/66 73/60/66 74/61/66 75/62/66
g shadow shellVase
f 76/63/35 77/64/35 78/65/35 79/66/35
g collision collision shellVase
f 80//60 81//60 82//60 83//60
f 84//34 85//34 86//34 87//34
f 81//67 86//67 85//67 82//67
f 87//68 80//68 83//68 84//68
