v -2.04800008201599 -2.06559992046356 0.025000000372529
v 2.14800008201599 -2.06559992046356 0.025000000372529
v 2.14800008201599 1.86559992046356 0.025000000372529
v -2.04800008201599 1.86559992046356 0.025000000372529
v -0.373907040312149 0.167328848062581 3.16469412247415
v -0.222684523887023 0.135016169680213 3.50953097080676
v 0.566765283638765 -0.077324288261039 3.44046306222553
v 0.674526494779522 -0.114253063555182 3.0908714289027
v 1.56249835174681 -0.00594507584590076 2.65428078459183
v 1.39780252252624 -0.00594507584590076 3.04810204059324
v 0.494544886721997 -1.25392148229533 3.12712684396933
v 0.522676250480802 -1.4426043387695 2.74525343053631
v -0.966956668607143 -0.777236912189593 3.25499166178614
v -1.15979125162094 -0.89384933058507 2.892450263721
v -0.966956668607143 0.765346760497792 3.25499166178614
v -1.15979125162094 0.88195917889324 2.892450263721
v 0.494544886721997 1.2420313306035 3.12712684396933
v 0.522676250480802 1.4307141870777 2.74525343053631
v 1.04595143912786 -0.00594507584590172 0
v 1.27486403397398 -0.00594507584590006 0.682378283428273
v 0.388125767898833 -1.2264355934617 0.682378283428273
v 0.317387885864913 -1.00872677847125 0
v 1.36995191220189 -0.00594507584590006 1.9441125104284
v 0.419559678159067 -1.31904450389795 2.02726105681022
v 1.38153439269869 -0.00594507584590076 2.86215646579624
v 0.478276756894448 -1.25392148229533 2.94118126917234
v -1.04664688573591 -0.76024969867942 0.682378283428273
v -0.861452706278929 -0.625698251364868 0
v -1.11820725916617 -0.817485152990113 2.16179823097116
v -0.983224798434692 -0.777236912189593 3.06904608698914
v -1.04664688573591 0.748359546987601 0.682378283428273
v -0.861452706278929 0.613808099673041 0
v -1.11820725916617 0.805595001298304 2.16179823097116
v -0.983224798434692 0.765346760497792 3.06904608698914
v 0.388125767898833 1.21454544176989 0.682378283428273
v 0.317387885864913 0.996836626779451 0
v 0.419559678159067 1.30715435220613 2.02726105681022
v 0.478276756894448 1.2420313306035 2.94118126917234
v 1.4 0 2.27197209239155
v 1.22583302491977 0.65 2.27197209239155
v 0.75 1.12583302491977 2.27197209239155
v 0.1 1.3 2.27197209239155
v -0.55 1.12583302491977 2.27197209239155
v -1.02583302491977 0.65 2.27197209239155
v -1.2 1.59198825996909e-16 2.27197209239155
v -1.02583302491977 -0.65 2.27197209239155
v -0.550000000000001 -1.12583302491977 2.27197209239155
v 0.0999999999999998 -1.3 2.27197209239155
v 0.75 -1.12583302491977 2.27197209239155
v 1.22583302491977 -0.650000000000001 2.27197209239155
v 1.22583302491977 0.65 0
v 1.4 0 0
v 0.75 1.12583302491977 0
v 0.1 1.3 0
v -0.55 1.12583302491977 0
v -1.02583302491977 0.65 0
v -1.2 1.59198825996909e-16 0
v -1.02583302491977 -0.65 0
v -0.550000000000001 -1.12583302491977 0
v 0.0999999999999998 -1.3 0
v 0.75 -1.12583302491977 0
v 1.22583302491977 -0.650000000000001 0
vt 0 0
vt 1 0
vt 1 1
vt 0 1
vt -0.00421778438612819 0.0470616668462753
vt 0.147015020251274 1.03873252868652
vt 0.932641088962555 1.01125264167786
vt 1.03917455673218 0.0604135654866695
vt 1.01734375953674 0.0840153843164444
vt 0.891381442546844 1.03272926807404
vt 0.142592385411263 1.08017110824585
vt 0.0241599604487419 0.0974292904138565
vt 0.249999985098839 -5.09415176708217e-09
vt 0.249999985098839 0.999999940395355
vt 0.0328422300517559 0.999999940395355
vt 0.0351496562361717 -1.20256660185447e-09
vt 1.03514957427979 -1.20256660185447e-09
vt 1.03284227848053 0.999999940395355
vt 0.840567171573639 0.999999940395355
vt 0.841715037822723 5.09415176708217e-09
vt 0.659432828426361 0.999999940395355
vt 0.658284962177277 5.09415176708217e-09
vt 0.467157781124115 0.999999940395355
vt 0.464850336313248 -1.20256660185447e-09
vt 0.462393045425415 1.23341381549835
vt 0.400308102369308 1.336421251297
vt 0.332139909267426 1.25016009807587
vt 0.352094531059265 1.09384024143219
vt 0.432595402002335 1.08349049091339
vt 0.5 0
vt 0.5 0.229144677519798
vt 0.0679868757724762 0.229144677519798
vt 0.0608234889805317 0
vt 0.5 0.692552208900452
vt 0.0702993124723434 0.692552208900452
vt 0.5 1
vt 0.0687098056077957 1
vt 2.06082344055176 0
vt 2.06798696517944 0.229144677519798
vt 1.6822714805603 0.229144677519798
vt 1.67878568172455 0
vt 2.07029938697815 0.692552208900452
vt 1.68343007564545 0.692552208900452
vt 2.06870985031128 1
vt 1.68263185024261 1
vt 1.3177285194397 0.229144677519798
vt 1.32121431827545 0
vt 1.31656992435455 0.692552208900452
vt 1.31736814975739 1
vt 0.932013154029846 0.229144677519798
vt 0.939176499843597 0
vt 0.929700672626495 0.692552208900452
vt 0.931290209293365 1
vn 0 0 1
vn 0.257834160496316 0.965925826289064 -0.0225575661131631
vn -0.257834160496316 -0.965925826289064 0.0225575661131631
vn 0.775890435697761 -0.541025639739186 0.324476946696592
vn -0.249285479167518 -0.87539787388316 0.414168217367127
vn -0.88287903900203 0 0.46960047113568
vn -0.249285479167518 0.87539787388316 0.414168217367127
vn 0.775890435697754 0.541025639739186 0.32447694669661
vn 0.0871557427476581 0 0.996194698091746
vn 0.780773741907689 -0.567265328245818 -0.261920620260471
vn 0.798158363478783 -0.580305114441234 -0.161830778785181
vn 0.8087022865306 -0.587167567843414 -0.0351405610801795
vn 0.809731040206903 -0.586712260676346 -0.0102159530881014
vn -0.298229031885295 -0.9178545817411 -0.261920620260472
vn -0.306478732662221 -0.938467011615235 -0.159218260685545
vn -0.307457184445561 -0.951424235528919 0.0161865308519211
vn -0.302015306771242 -0.94932037939062 0.0870492489888442
vn -0.96508942004478 0 -0.261920620260471
vn -0.987751975417863 0 -0.156032160332761
vn -0.998766054059779 0 0.0496625538797335
vn -0.989112336072262 0 0.147162449795024
vn -0.298229031885304 0.917854581741097 -0.261920620260471
vn -0.306478732662225 0.938467011615233 -0.159218260685545
vn -0.307457184445554 0.951424235528921 0.0161865308519207
vn -0.30201530677123 0.949320379390624 0.0870492489888432
vn 0.780773741907688 0.56726532824582 -0.261920620260469
vn 0.79815836347878 0.580305114441238 -0.161830778785178
vn 0.808702286530595 0.58716756784342 -0.0351405610801766
vn 0.809731040206898 0.586712260676354 -0.010215953088098
vn 0.866025403784438 0.5 0
vn 1 0 0
vn 0.5 0.866025403784438 0
vn 0 1 0
vn -0.5 0.866025403784439 0
vn -0.866025403784438 0.5 0
vn -1 0 0
vn -0.866025403784439 -0.5 0
vn -0.5 -0.866025403784438 0
vn 0 -1 0
vn 0.5 -0.866025403784439 0
vn 0.866025403784438 -0.5 0
g o11 prop_trashcan_metal
f 1/1/1 2/2/1 3/3/1 4/4/1
g metal_3d prop_trashcan_metal
f 5/5/2 6/6/2 7/7/2 8/8/2
f 8/9/3 7/10/3 6/11/3 5/12/3
f 9/13/4 10/14/4 11/15/4 12/16/4
f 12/17/5 11/18/5 13/19/5 14/20/5
f 14/20/6 13/19/6 15/21/6 16/22/6
f 16/22/7 15/21/7 17/23/7 18/24/7
f 18/24/8 17/23/8 10/14/8 9/13/8
f 10/25/9 17/26/9 15/27/9 13/28/9 11/29/9
f 19/30/10 20/31/11 21/32/11 22/33/10
f 20/31/11 23/34/12 24/35/12 21/32/11
f 23/34/12 25/36/13 26/37/13 24/35/12
f 22/38/14 21/39/15 27/40/15 28/41/14
f 21/39/15 24/42/16 29/43/16 27/40/15
f 24/42/16 26/44/17 30/45/17 29/43/16
f 28/41/18 27/40/19 31/46/19 32/47/18
f 27/40/19 29/43/20 33/48/20 31/46/19
f 29/43/20 30/45/21 34/49/21 33/48/20
f 32/47/22 31/46/23 35/50/23 36/51/22
f 31/46/23 33/48/24 37/52/24 35/50/23
f 33/48/24 34/49/25 38/53/25 37/52/24
f 36/51/26 35/50/27 20/31/27 19/30/26
f 35/50/27 37/52/28 23/34/28 20/31/27
f 37/52/28 38/53/29 25/36/29 23/34/28
g collide prop_trashcan_metal
f 39//1 40//1 41//1 42//1 43//1 44//1 45//1 46//1 47//1 48//1 49//1 50//1
f 51//30 40//30 39//31 52//31
f 53//32 41//32 40//30 51//30
f 54//33 42//33 41//32 53//32
f 55//34 43//34 42//33 54//33
f 56//35 44//35 43//34 55//34
f 57//36 45//36 44//35 56//35
f 58//37 46//37 45//36 57//36
f 59//38 47//38 46//37 58//37
f 60//39 48//39 47//38 59//38
f 61//40 49//40 48//39 60//39
f 62//41 50//41 49//40 61//40
f 52//31 39//31 50//41 62//41
