v -0.810046834269846 -0.828912439621653 -0.487794494378598
v -0.444535821128705 -1.07630519416389 -0.487794494378598
v -0.444535821128705 -1.00919461938653 -0.161471657865629
v -0.915338861660694 -0.469739793792484 -0.161471657865629
v -0.973908857410661 -0.469739793792484 -0.487794494378598
v 0 -1.16885390494439 -0.487794494378598
v 0 -1.1152579089788 -0.161471642221366
v 0.444535821128705 -1.02480039821835 -0.487794494378598
v 0.444535821128705 -0.963388340366794 -0.161471657865629
v 0.802173514378665 -0.839155990620611 -0.487794494378598
v 0.989152690557044 -0.469739793792484 -0.487794494378598
v 0.928896055446835 -0.469739793792484 -0.161471626577102
v -1.02809345315448 -0.0010572291979092 -0.161471657865629
v -1.07849263769435 -0.0010572291979092 -0.487794494378598
v -0.444535821128705 -0.469739793792484 0.173203979577292
v 0 -0.469739793792484 0.339988179094209
v 0 -0.00105722907568839 0.441031881517626
v -0.444535821128705 -0.00105722907568839 0.320609504469423
v 0.444535821128705 -0.469739793792484 0.173203979577292
v 0.444535821128705 -0.00105722907568839 0.320609441892369
v 1.02809345315448 -0.0010572291979092 -0.161471673509893
v -0.915338861660694 0.467625377685066 -0.161471657865629
v -0.973908857410661 0.467625377685066 -0.487794494378598
v 0 0.467625377685066 0.339988179094209
v -0.444535821128705 0.467625377685066 0.173203979577292
v 0.444535821128705 0.467625377685066 0.173203979577292
v 0.928896055446835 0.467625377685066 -0.161471626577102
v -0.444535821128705 1.00708032843322 -0.161471626577102
v -0.444535821128705 1.07419096578763 -0.487794494378598
v -0.803702084098275 0.846268999294972 -0.487794494378598
v 0 1.1275059907768 -0.161471673509893
v 0.444535821128705 0.977314363314411 -0.161471626577102
v 1.07849263769435 -0.0010572291979092 -0.487794494378598
v 0.989152690557044 0.467625377685066 -0.487794494378598
v 0 1.18229445510023 -0.487794494378598
v 0.444535821128705 1.04072200344616 -0.487794494378598
v 0.820144705885039 0.795510246997743 -0.487794494378598
v -0.810046834269846 -0.828912439621653 -0.483840531877332
v -0.444535821128705 -1.076305319318 -0.483840531877332
v -0.444535821128705 -1.00919468196358 -0.161471657865629
v -0.915338861660694 -0.469739825081012 -0.161471657865629
v -0.973908857410661 -0.469739825081012 -0.483840531877332
v 0 -1.16885390494439 -0.483840531877332
v 0.444535821128705 -1.02480039821835 -0.483840531877332
v 0.802173514378665 -0.839156053197666 -0.483840531877332
v 0.989152627979989 -0.469739825081012 -0.483840531877332
v 0.92889599286978 -0.469739825081012 -0.161471626577102
v -1.02809326542331 -0.00105722932013001 -0.161471657865629
v -1.07849251254024 -0.00105722932013001 -0.483840531877332
v -0.444535821128705 -0.469739825081012 0.173203979577292
v 0 -0.469739825081012 0.339988179094209
v -0.444535821128705 -0.00105722907568839 0.320609473180896
v 0.444535821128705 -0.469739825081012 0.173203979577292
v 1.02809332800037 -0.00105722932013001 -0.161471673509893
v -0.973908857410661 0.467625377685066 -0.483840531877332
v 0.92889599286978 0.467625377685066 -0.161471626577102
v -0.444535821128705 1.07419096578763 -0.483840531877332
v -0.80370202152122 0.846269061872027 -0.483840531877332
v 1.07849251254024 -0.00105722932013001 -0.483840531877332
v 0.989152627979989 0.467625377685066 -0.483840531877332
v 0 1.18229445510023 -0.483840531877332
v 0.444535821128705 1.04072200344616 -0.483840531877332
v 0.820144643307984 0.795510246997743 -0.483840531877332
vt 0.17364090681076 0.207500174641609
vt 0.320901274681091 0.120904289186001
vt 0.320901274681091 0.144395291805267
vt 0.131219834089279 0.333222806453705
vt 0.107622608542442 0.333222806453705
vt 0.499999940395355 0.0885091498494148
vt 0.499999940395355 0.107269570231438
vt 0.679098546504974 0.138932764530182
vt 0.679098546504974 0.160429090261459
vt 0.823186874389648 0.203914538025856
vt 0.898518860340118 0.333222806453705
vt 0.874242067337036 0.333222806453705
vt 0.0857923030853271 0.497277557849884
vt 0.0654870122671127 0.497277557849884
vt 0.320901274681091 0.333222806453705
vt 0.499999940395355 0.333222806453705
vt 0.499999940395355 0.497277557849884
vt 0.320901274681091 0.497277557849884
vt 0.679098546504974 0.333222806453705
vt 0.679098546504974 0.497277557849884
vt 0.914207518100739 0.497277557849884
vt 0.131219834089279 0.661332249641418
vt 0.107622608542442 0.661332249641418
vt 0.499999940395355 0.661332249641418
vt 0.320901274681091 0.661332249641418
vt 0.679098546504974 0.661332249641418
vt 0.874242067337036 0.661332249641418
vt 0.320901274681091 0.850159764289856
vt 0.320901274681091 0.873650789260864
vt 0.17619714140892 0.793870449066162
vt 0.499999940395355 0.89231288433075
vt 0.67909848690033 0.839740693569183
vt 0.934512853622437 0.497277557849884
vt 0.898518860340118 0.661332249641418
vt 0.499999940395355 0.911490738391876
vt 0.679098546504974 0.861935555934906
vt 0.830427408218384 0.77610319852829
vn -0.717982565159786 -0.626611210905298 0.303083200613906
vn -0.490170660426353 -0.834197934307649 0.252678709142744
vn -0.45243062865784 -0.706224536675123 0.544567195165371
vn -0.749566278138977 -0.400605538791108 0.526939841885929
vn -0.866435773508312 -0.438272718301497 0.239177914485577
vn 0.0502415623008856 -0.98283044198581 0.177539031549528
vn 0.0347261136800998 -0.843892346669754 0.535387527180913
vn 0.50905096657599 -0.824072482252545 0.248539046071597
vn 0.461949312225697 -0.710770312012818 0.530479402517578
vn 0.676827585824607 -0.664092815495962 0.317624229984867
vn 0.857930744911846 -0.448091220694366 0.251334627283305
vn 0.737890131102836 -0.412879739026124 0.533899312157976
vn -0.857811722948198 -8.18199374974456e-09 0.51396405319112
vn -0.986346123585613 0 0.164685532113889
vn -0.419240971871492 -0.373075774826481 0.827678363702874
vn 0.00734918616323229 -0.42882022301853 0.903359953613772
vn 4.03744380150783e-08 -2.42246613879615e-08 0.999999999999999
vn -0.467791598561101 -1.93886961094491e-08 0.883838797697662
vn 0.420170405352322 -0.382991351745151 0.82266302636893
vn 0.465168773187774 -1.54898734568713e-08 0.885222013085407
vn 0.856032167961563 -1.22338109073393e-08 0.516922554562118
vn -0.747927761499354 0.399454705111883 0.530132061040023
vn -0.865338466037699 0.437199036809799 0.245043550023471
vn 0.00472370105904654 0.424619886244576 0.905359397617293
vn -0.421149774030677 0.371357095265053 0.827482190521471
vn 0.420418738391308 0.377158909203988 0.825226781931803
vn 0.74428261875342 0.408883282110967 0.528069924377174
vn -0.46042934570082 0.699262890455232 0.546842050001377
vn -0.502453651145776 0.825338048634942 0.25759936709112
vn -0.715244969553881 0.624221529376851 0.314280314035565
vn 0.0224023164674968 0.840626342598554 0.5411520011478
vn 0.468200984054449 0.707200256832748 0.529769417073259
vn 0.985929145578405 -1.5191328381968e-08 0.167163751749702
vn 0.864322915383996 0.444386490594443 0.235513364629834
vn 0.032420184942279 0.982979192952416 0.180833729793217
vn 0.516419229668096 0.823078628810823 0.23633186417389
vn 0.694031900131417 0.659542151936922 0.288658745612166
vn -0.717170216922757 -0.625901978262572 0.30645324858119
vn -0.489686501321312 -0.833606859975775 0.255551821408147
vn -0.451964196231608 -0.705582434729877 0.545785482699362
vn -0.748937735130752 -0.400220577816664 0.528124756084503
vn -0.865876153181217 -0.437878735483787 0.24191052139834
vn 0.0502296362745926 -0.982448005011136 0.179646600550528
vn 0.508578020954608 -0.823508732520733 0.251359829853519
vn 0.675986564149991 -0.663267529450144 0.321120459431957
vn 0.857331945445094 -0.447630680880417 0.254182432229029
vn 0.737241028632703 -0.412451892472068 0.535125314386082
vn -0.857302961642081 -4.08937060993157e-09 0.514812229807837
vn -0.986016135374932 0 0.166649874828284
vn -0.419240940608723 -0.373075684119887 0.827678420424256
vn 0.00734922145765928 -0.428820247229068 0.903359941834022
vn 3.22995497015199e-08 -2.42246613879615e-08 0.999999999999999
vn -0.467791694409886 -1.55109584446079e-08 0.883838746967527
vn 0.420170454434173 -0.382991342153474 0.822663005766068
vn 0.465168844438912 -1.16174049394306e-08 0.88522197564417
vn 0.855511226731858 -4.07629104254207e-09 0.517784260996558
vn -0.864755264335022 0.43678238557064 0.247829539119303
vn 0.00472369314298068 0.424619886260454 0.905359397651148
vn -0.421149827724409 0.371357060250666 0.827482178907609
vn 0.420418804284583 0.377158941581288 0.8252267335643
vn 0.74366758555584 0.408498456685936 0.529232966734647
vn -0.501941299668111 0.824734150897474 0.260515857542129
vn -0.714374650004526 0.623462190179715 0.317747945464991
vn 0.9855892921254 -7.59556572784929e-09 0.169155984959899
vn 0.863781383813839 0.443998540905215 0.238216323224688
vn 0.0324122766460553 0.98258259865218 0.182977816001143
vn 0.515996779532541 0.822559933563003 0.239044931359932
vn 0.693319322599169 0.658865036405253 0.291899264667341
g mound sand_mound
f 1/1/1 2/2/2 3/3/3 4/4/4 5/5/5
f 2/2/2 6/6/6 7/7/7 3/3/3
f 6/6/6 8/8/8 9/9/9 7/7/7
f 8/8/8 10/10/10 11/11/11 12/12/12 9/9/9
f 5/5/5 4/4/4 13/13/13 14/14/14
f 15/15/15 16/16/16 17/17/17 18/18/18
f 16/16/16 19/19/19 20/20/20 17/17/17
f 19/19/19 12/12/12 21/21/21 20/20/20
f 14/14/14 13/13/13 22/22/22 23/23/23
f 18/18/18 17/17/17 24/24/24 25/25/25
f 17/17/17 20/20/20 26/26/26 24/24/24
f 20/20/20 21/21/21 27/27/27 26/26/26
f 23/23/23 22/22/22 28/28/28 29/29/29 30/30/30
f 25/25/25 24/24/24 31/31/31 28/28/28
f 24/24/24 26/26/26 32/32/32 31/31/31
f 26/26/26 27/27/27 32/32/32
f 4/4/4 3/3/3 15/15/15
f 3/3/3 7/7/7 16/16/16 15/15/15
f 7/7/7 9/9/9 19/19/19 16/16/16
f 9/9/9 12/12/12 19/19/19
f 13/13/13 4/4/4 15/15/15 18/18/18
f 21/21/21 12/12/12 11/11/11 33/33/33
f 22/22/22 13/13/13 18/18/18 25/25/25
f 27/27/27 21/21/21 33/33/33 34/34/34
f 28/28/28 22/22/22 25/25/25
f 28/28/28 31/31/31 35/35/35 29/29/29
f 31/31/31 32/32/32 36/36/36 35/35/35
f 32/32/32 27/27/27 34/34/34 37/37/37 36/36/36
g sand_collision sand_mound
f 38//38 39//39 40//40 41//41 42//42
f 39//39 43//43 7//7 40//40
f 43//43 44//44 9//9 7//7
f 44//44 45//45 46//46 47//47 9//9
f 42//42 41//41 48//48 49//49
f 50//50 51//51 17//52 52//53
f 51//51 53//54 20//55 17//52
f 53//54 47//47 54//56 20//55
f 49//49 48//48 22//22 55//57
f 52//53 17//52 24//58 25//59
f 17//52 20//55 26//60 24//58
f 20//55 54//56 56//61 26//60
f 55//57 22//22 28//28 57//62 58//63
f 25//59 24//58 31//31 28//28
f 24//58 26//60 32//32 31//31
f 26//60 56//61 32//32
f 41//41 40//40 50//50
f 40//40 7//7 51//51 50//50
f 7//7 9//9 53//54 51//51
f 9//9 47//47 53//54
f 48//48 41//41 50//50 52//53
f 54//56 47//47 46//46 59//64
f 22//22 48//48 52//53 25//59
f 56//61 54//56 59//64 60//65
f 28//28 22//22 25//59
f 28//28 31//31 61//66 57//62
f 31//31 32//32 62//67 61//66
f 32//32 56//61 60//65 63//68 62//67
