v 15.6200435461142 -5.61877620315361 42.2582594408326
v 2.03421807380801 -5.66467004978659 42.5480217845259
v -1.27730683193726 -5.28533820095503 39.2291761307535
v -3.88526401580117 -5.14611558327215 37.9045614058478
v 20.2627386952642 -5.15393943469049 37.9790003796775
v 18.6995392328573 -5.26673932983462 39.0522196924769
v 16.0781764790372 -6.03498861936485 44.2902336770628
v 14.7256906357652 -6.38836715486471 45.9527489752188
v 12.302010153122 -6.40738817040446 46.04223581764
v 10.6848993769381 -6.10873281446531 44.6371728377316
v 8.978893415122 -6.01557186449502 44.1988850274738
v 7.36353003878321 -6.12788007207682 44.7272536024047
v 5.56966144579928 -6.48305563378351 46.3982232441609
v 3.23543213964876 -6.42734337719537 46.1361176843493
v 1.88754859285109 -6.10996998666934 44.6429932753333
v 16.9397102244452 -4.52351178079461 27.9220275038864
v 18.4140878878588 -4.92502382923905 32.9064963392307
v -1.82435912993057 -4.79348990444644 31.6550346600662
v 0.541340744829404 -4.40896488790407 26.8852815602398
v 18.4140878878588 6.11216792018719 34.0665519375348
v 18.4140878878588 -4.9250238340744 32.9064963387225
v 16.9397102244452 7.06049902271873 29.139556100699
v 20.2627386952642 4.98054627092806 39.0441777495774
v 18.6995392328573 4.86774637578393 40.1173970623768
v 15.6200435461142 4.36395246921629 44.3797428820359
v 16.0781764790372 3.93263795958646 46.4089181106954
v 14.7256906357652 3.5792594240866 48.0714334088514
v 10.6848993769381 3.858893764486 46.7558572713642
v 12.302010153122 3.56023840854685 48.1609202512726
v 5.56966144579928 3.4845709451678 48.5169076777935
v 7.36353003878321 3.83974650687449 46.8459380360373
v 1.88754859285109 3.85765659228197 46.7616777089659
v 3.23543213964876 3.54028320175594 48.254802117982
v 2.03421807380801 4.30295652916472 44.6667062181585
v -1.27730683193726 4.84914750466352 40.2943535006535
v -3.88526401580117 4.9883701223464 38.9697387757477
v -1.82435912993057 6.24370184981514 32.8150902588785
v 0.541340744829404 7.17504591053436 28.102810156519
v 0.541340744829404 -4.40896489297897 26.8852815597064
v 0.541340744829404 -3.29077607680847 27.0028079401126
v 16.9397102244452 -3.38561541419003 28.04162523131
v 15.3543217943518 -3 0
v 17.1499779177864 -3 4.99178943834079
v -0.218167537571904 -3 5.03377464349614
v 1.3989905321796 -3 0.176389183732681
v 17.9465326378991 -3 10.3685330422392
v 13.2898574476374 -3 10.2631487878014
v 3.70811701588474 -3 10.2689637162411
v -1.11008752118459 -3 10.3939335253628
v 17.0950337439836 -3.00000000186265 12.5868740857703
v 15.0040776036878 -3 13.2838593677572
v 2.60111843573674 -3 13.0223909132765
v 0.792064672411888 -3.00000000186265 12.7537011303939
v 15.0040776036878 0 13.2838593677572
v 15.3983491857367 -0.0125876267977167 20.2685912611805
v 15.3300024387533 -3 19.9239208220513
v 2.19722067125845 -3 19.9959529985613
v 2.13238551603106 -0.186388438843602 20.2429656686915
v 2.60111843573674 0 13.0223909132765
v 16.9397102244452 -3.38561541156245 28.0416252315862
v 0.541340744829404 -3.29077607418089 27.0028079403888
v 17.1499779177864 0 4.99178943834079
v 15.3543217943518 0 0
v 17.9465326378991 0 10.3685330422392
v 17.0950337439836 -1.86264514923096e-09 12.5868740857703
v 15.5570542696211 6.92435600039201 21.0689358769646
v 1.96876146466613 6.91430439696076 20.8663499065086
v 0.792064672411888 -1.86264514923096e-09 12.7537011303939
v -1.11008752118459 0 10.3939335253628
v -0.218167537571904 0 5.03377464349614
v 1.3989905321796 0 0.176389183732681
v 16.1972259489091 -3 -2
v 18.113643575136 -3 20
v -2.00862801119871 -3 20
v 0.0327029488992741 -3 -2
v 16.1972259489091 0 -2
v 18.113643575136 0 20
v -2.00862801119871 0 20
v 0.0327029488992741 0 -2
vt 0.819199323654175 0.916134774684906
vt 0.226825356483459 0.918343305587769
vt 0.083453394472599 0.846459090709686
vt -0.0298436563462019 0.817401587963104
vt 1.02289164066315 0.826090514659882
vt 0.954418540000916 0.848552584648132
vt 0.838583886623383 0.959850132465363
vt 0.779141128063202 0.995120763778687
vt 0.673452377319336 0.996328115463257
vt 0.603358149528503 0.965707957744598
vt 0.529109477996826 0.955803215503693
vt 0.458533555269241 0.966664135456085
vt 0.379845798015594 1.00198638439178
vt 0.278158247470856 0.995676875114441
vt 0.219826653599739 0.963246524333954
vt 0.881106793880463 0.610702276229858
vt 0.943865180015564 0.717483043670654
vt 0.061926182359457 0.684804797172546
vt 0.166514560580254 0.583733797073364
vt 0.0137593848630786 0.736760556697845
vt 1.01371002197266 0.734118759632111
vt 1.0116411447525 0.623337388038635
vt 0.011690485291183 0.62597918510437
vt 0.0158947836607695 0.851102769374847
vt 1.01584541797638 0.848460972309113
vt 0.0163448490202427 0.875201940536499
vt 1.01629555225372 0.872560143470764
vt 0.0177694018930197 0.95148116350174
vt 1.01772010326385 0.948839366436005
vt 0.0186346005648375 0.997809112071991
vt 1.01858520507812 0.995167315006256
vt -0.0359325930476189 0.99403315782547
vt 0.98889571428299 0.99403315782547
vt 0.98895251750946 0.958225429058075
vt -0.0356669165194035 0.958225429058075
vt -0.0366089195013046 0.925278007984161
vt 0.891310691833496 0.927353024482727
vt 0.891356348991394 0.965671181678772
vt -0.0365632623434067 0.963596224784851
vt -0.0366644151508808 0.87870979309082
vt 0.891255140304565 0.880784749984741
vt 0.891259551048279 0.884445786476135
vt -0.0366600640118122 0.88237076997757
vt -0.0357215330004692 0.96568238735199
vt 0.988942265510559 0.96568238735199
vt 0.988891243934631 0.997843861579895
vt -0.0359601564705372 0.997843861579895
vt 0.0178917571902275 0.958032786846161
vt 1.01784241199493 0.955390989780426
vt 1.01873564720154 1.00322115421295
vt 0.0187850091606379 1.00586295127869
vt 0.0164190568029881 0.879175543785095
vt 1.01636970043182 0.876533687114716
vt 0.0158635675907135 0.849431276321411
vt 1.01581418514252 0.846789419651031
vt 0.0132774952799082 0.71095734834671
vt 1.01322817802429 0.708315491676331
vt 0.0112906405702233 0.60456907749176
vt 1.01124131679535 0.601927280426025
vt 0.0215940903872252 0.178985476493835
vt 1.00014734268188 0.18782351911068
vt 1 0.25
vt 0.0214467197656631 0.241161942481995
vt 0.820585906505585 0.0151517577469349
vt 0.897299468517303 0.121821656823158
vt 0.140103533864021 0.117608450353146
vt 0.212133005261421 0.0147997364401817
vt 0.930334985256195 0.236383229494095
vt 0.727355480194092 0.232773423194885
vt 0.309627503156662 0.23008020222187
vt 0.0995334610342979 0.23132099211216
vt 0.892515301704407 0.283302187919617
vt 0.801138639450073 0.297507703304291
vt 0.260500729084015 0.288301765918732
vt 0.181717604398727 0.28205668926239
vt 1.0054452419281 0.291570752859116
vt 0.710931599140167 0.285343915224075
vt 0.713895082473755 0.444026857614517
vt 1.00827789306641 0.443249106407166
vt 1.00535762310028 0.286877065896988
vt 1.00831806659698 0.445396572351456
vt 0.713935196399689 0.446174323558807
vt 0.710974752902985 0.28765481710434
vt 0.813259243965149 0.438793271780014
vt 0.880930125713348 0.61222243309021
vt 0.166340932250023 0.58522766828537
vt 0.240699037909508 0.436464071273804
vt 0.698515176773071 0.110063433647156
vt 0.992897868156433 0.109285682439804
vt 0.990805089473724 -0.0027810272295028
vt 0.696422278881073 -0.00200328277423978
vt 0.70095831155777 0.240885481238365
vt 0.995341241359711 0.240107744932175
vt 0.992900371551514 0.109417110681534
vt 0.698517620563507 0.110194861888885
vt 0.701792538166046 0.285555183887482
vt 0.996175348758698 0.28477743268013
vt 0.995331943035126 0.239614874124527
vt 0.70094907283783 0.240392610430717
vt 1.00530350208282 0.283980786800385
vt 0.710920691490173 0.284758538007736
vt -0.00757166277617216 0.626030087471008
vt -0.0109349051490426 0.445941805839539
vt -0.0108947996050119 0.448089301586151
vt -0.0079715084284544 0.604619979858398
vt 0.689563274383545 0.286989033222198
vt 0.990056097507477 0.286989033222198
vt 0.990047216415405 0.292605549097061
vt 0.68954473733902 0.292605549097061
vt 0.710156977176666 0.243866950273514
vt 1.00453984737396 0.243089213967323
vt 1.0052455663681 0.280876696109772
vt 0.710862696170807 0.281654447317123
vt 0.707643032073975 0.109252937138081
vt 1.00202584266663 0.10847519338131
vt 0.705617189407349 0.000777744455263019
vt 1 0
vn -3.76840999593066e-05 -0.987519309630604 -0.157497973595231
vn 0.000243034567484394 -0.994023577414729 -0.1091653263533
vn -0.000679923523591423 -0.996772162371496 -0.0802794744953765
vn -0.000318313138443366 -0.978666297191748 -0.205456023074866
vn -0.00166876235119815 -0.996755206274177 -0.0804753005433261
vn -0.0016357099612837 -0.99782438556296 -0.065907662899112
vn 0.949780352866663 0.0327087719596213 -0.311203177273902
vn 0.959155174476524 0.0295690591487085 -0.281330805309283
vn 0.972572433332677 0.0193300515957884 -0.231795623398413
vn 0.93946515023087 0.0358160996949326 -0.340767425826372
vn 0.70064272163155 -0.0745823423644428 0.709603587104919
vn 0.708174033858344 -0.0979958450310954 0.699204084745965
vn 0.568111892182373 -0.0860218370060331 0.818443108297132
vn 0.92147400280437 -0.0587397014439898 0.383973058468902
vn 0.962776413227002 -0.0561855628926258 0.264395084402467
vn 0.974259543267639 -0.0468716777653253 0.220502580881484
vn 0.782492024043155 -0.129458419740419 0.609053979436273
vn -0.664110990380972 -0.15544184828798 0.731296399728606
vn 0.68962422729716 -0.150562868842143 0.708342606124197
vn -0.94685439699601 -0.0668773900408178 0.314633382829366
vn -0.74959712546373 -0.137615576425052 0.647430384382533
vn -0.896747992664328 -0.0699033745131427 0.436985761649248
vn -0.936780571942061 -0.0727519103213441 0.342270827819871
vn -0.643605436410297 -0.0800016391883108 0.761164752172809
vn -0.666658501630282 -0.102783624248978 0.738242486443521
vn -0.454828146513299 -0.0930908778741128 0.885700539457837
vn -0.925351322132948 0.0396278599508164 -0.377033902112959
vn -0.949732787417806 0.0327238591596652 -0.311346722393706
vn -0.944017789028314 0.0281296845192042 -0.328693070883679
vn -0.896382958213401 0.0463354283466638 -0.440852152432677
vn 0.0634780419386982 0.104317653965975 -0.992516178841768
vn 0 -1 0
vn 9.41910836956492e-12 -1 -4.16213081371096e-10
vn -1.82567143696327e-10 -1 -1.01829170944861e-10
vn 2.37888186030508e-10 -1 -9.56353146428878e-11
vn -1.00269764571692e-11 -1 -3.86584715856807e-10
vn -3.65134287392654e-10 -1 -2.03658323409626e-10
vn -2.49702263841479e-10 -1 1.41703159654249e-10
vn 2.42901674259092e-10 -1 9.76570432855156e-11
vn 4.75776372061015e-10 -1 -1.91270610805679e-10
vn 0.998570568496599 -0.0083597730166007 -0.0527914190706221
vn 0.993077513255016 0.000339895652456428 -0.117460364115638
vn -0.998072476324135 -0.0085189586296761 -0.0614716141651947
vn -0.99058379500075 0.000490413111119977 -0.136906919390121
vn -0.000581962247642536 -0.99988885955213 -0.0148973106124149
vn -0.00174549862250826 -0.998999735944447 -0.0446819965700251
vn -0.000872967638093118 -0.999749902711785 -0.0223465871058486
vn 0.969847049717788 0 -0.243714382328376
vn 0.940970772674542 0 -0.338487821010263
vn 0.993987668033884 0 0.10949208097649
vn 0.691108885772878 0 0.722750654102624
vn 0.570290242485129 0 0.821443266042307
vn 0.316227725954159 0 0.948683311404739
vn 0.98332621081033 0.00903810687263157 -0.181625647301137
vn -0.977322254417665 0.00949692685455743 -0.211544367451114
vn -0.496797069298889 0 0.867866736276968
vn -0.146913447134722 0 0.989149351236199
vn -0.967214342277767 0 0.253961446074374
vn -0.970587676401375 0 -0.240747922977083
vn -0.948798699947802 0 -0.315881349524408
vn 0.996227390123678 0 -0.0867812604619558
vn -0.995722813607092 0 -0.0923909003223652
g o316 clock DL_D1
f 1/1/1 2/2/1 3/3/2 4/4/3 5/5/3 6/6/2
f 7/7/4 8/8/4 9/9/4 10/10/4 11/11/4 12/12/4 13/13/4 14/14/4 15/15/4 2/2/1 1/1/1
f 16/16/5 17/17/6 18/18/6 19/19/5
f 17/17/6 5/5/3 4/4/3 18/18/6
f 20/20/7 21/21/7 16/22/8 22/23/9
f 23/24/10 5/25/10 21/21/7 20/20/7
f 24/26/11 6/27/12 5/25/13 23/24/13
f 25/28/14 6/27/12 24/26/11
f 25/28/14 1/29/15 6/27/12
f 26/30/16 7/31/16 1/29/15 25/28/14
f 27/32/17 8/33/17 7/34/16 26/35/16
f 28/36/18 10/37/18 9/38/18 29/39/18
f 30/40/19 13/41/19 12/42/19 31/43/19
f 32/44/20 15/45/20 14/46/21 33/47/21
f 34/48/22 2/49/23 15/50/20 32/51/20
f 35/52/24 3/53/25 34/48/22
f 3/53/25 2/49/23 34/48/22
f 36/54/26 4/55/26 3/53/25 35/52/24
f 37/56/27 18/57/27 4/55/28 36/54/28
f 38/58/29 39/59/30 18/57/27 37/56/27
f 40/60/31 41/61/31 16/62/31 39/63/31
g building_front DL_D1
f 42/64/32 43/65/32 44/66/32 45/67/32
f 43/65/32 46/68/33 47/69/34 48/70/35 49/71/36 44/66/32
f 46/68/33 50/72/37 47/69/34
f 50/72/37 51/73/38 47/69/34
f 51/73/38 52/74/39 48/70/35 47/69/34
f 52/74/39 53/75/40 48/70/35
f 53/75/40 49/71/36 48/70/35
g DL_D1_building_sides DL_D1
f 51/76/41 54/77/41 55/78/41 56/79/42
f 52/80/43 57/81/44 58/82/43 59/83/43
f 56/84/45 60/85/46 61/86/46 57/87/47
f 51/73/38 56/84/45 52/74/39
f 56/84/45 57/87/47 52/74/39
f 62/88/48 43/89/48 42/90/49 63/91/49
f 64/92/50 46/93/50 43/94/48 62/95/48
f 65/96/51 50/97/52 46/98/50 64/99/50
f 54/77/53 50/100/52 65/101/51
f 54/77/53 51/76/53 50/100/52
f 22/102/9 41/22/54 56/79/42 66/103/54
f 67/104/55 57/81/44 40/59/55 38/105/29
f 68/106/56 53/107/56 52/108/57 59/109/57
f 69/110/58 49/111/58 53/112/56 68/113/56
f 70/114/59 44/115/59 49/111/58 69/110/58
f 71/116/60 45/117/60 44/115/59 70/114/59
g DL_D1_camera_collision DL_D1
f 72//32 73//32 74//32 75//32
f 76//61 77//61 73//61 72//61
f 75//62 74//62 78//62 79//62
