v 0 0.284495025873184 44.3156741178992
v -24.870138168335 0.28449285030365 38.3900977106256
v -21.5381698608398 -12.1505756378174 38.3900977106256
v -12.4350662231445 -21.2536792755127 38.3900977106256
v 3.26132499139931e-06 -24.5856437683105 38.3900977106256
v 12.4350719451904 -21.2536754608154 38.3900977106256
v 21.5381736755371 -12.1505699157715 38.3900977106256
v 24.870138168335 0.284499377012253 38.3900977106256
v -43.076343536377 0.284491270780563 22.201118090026
v -37.3052062988281 -21.2536811828613 22.201118090026
v -21.5381679534912 -37.0207138061523 22.201118090026
v 5.64878064324148e-06 -42.7918472290039 22.201118090026
v 21.5381774902344 -37.0207099914551 22.201118090026
v 37.3052101135254 -21.2536716461182 22.201118090026
v 43.076343536377 0.284502565860748 22.201118090026
v -49.7341384887695 0.284490674734116 0.78128445148468
v -43.0710258483887 -24.5825786590576 0.78128445148468
v -24.8670635223389 -42.7865333557129 0.78128445148468
v 6.52184507998754e-06 -49.4496421813965 0.78128445148468
v 24.8670749664307 -42.7865257263184 0.78128445148468
v 43.0710296630859 -24.5825672149658 0.78128445148468
v 49.7341384887695 0.284503728151321 0.78128445148468
vt 0.0522119030356407 0.501216351985931
vt 0.0514756664633751 0.25162136554718
vt 0.218707218766212 0.285428881645203
vt 0.341326504945755 0.377056509256363
vt 0.386477738618851 0.501952648162842
vt 0.342062711715698 0.626651465892792
vt 0.219982385635376 0.717740058898926
vt 0.0529481135308743 0.750811278820038
vt 0.0509367026388645 0.0689051523804665
vt 0.340590268373489 0.127461507916451
vt 0.552973031997681 0.286165177822113
vt 0.631177306175232 0.502491652965546
vt 0.55424827337265 0.718476355075836
vt 0.342798948287964 0.876246452331543
vt 0.0534870587289333 0.93352746963501
vt 0.0507396087050438 0.00208798935636878
vt 0.385161459445953 0.0696946978569031
vt 0.63036972284317 0.252927303314209
vt 0.720661044120789 0.502688765525818
vt 0.631841957569122 0.752055644989014
vt 0.387711495161057 0.934210360050201
vt 0.0536841414868832 1.00034463405609
vn 2.07600029600857e-08 -0.156873795831683 0.98761865726674
vn -0.457102545471824 -0.122480305225417 0.880940314524808
vn -0.398865487027143 -0.23028514528171 0.887623273197127
vn -0.230285065104528 -0.398865546468806 0.887623267287391
vn 5.56429823205426e-08 -0.460570240123352 0.887623261250355
vn 0.230285167851484 -0.398865477970133 0.88762327141151
vn 0.398865555524002 -0.230285042526746 0.887623269075898
vn 0.457102588143679 -0.122480195295512 0.880940307667167
vn -0.818794987016596 -0.219395515300452 0.530509544779867
vn -0.726805096165776 -0.419621231439328 0.543757642992538
vn -0.419621049710145 -0.726805222167186 0.543757614816255
vn 1.00269464750461e-07 -0.839242320364062 0.543757600139929
vn 0.419621260630063 -0.726805110677656 0.543757601068782
vn 0.726805222397047 -0.419621051621964 0.543757613033652
vn 0.818795043086532 -0.219395359120016 0.530509522830197
vn -0.925129840203484 -0.247887849724217 0.28755241735061
vn -0.826997526733902 -0.47746738567496 0.296816418671085
vn -0.477467157690492 -0.826997664649424 0.296816401149534
vn 1.20758262922222e-07 -0.954934570783153 0.296816383515432
vn 0.477467407978549 -0.826997539522151 0.296816347161933
vn 0.826997659331806 -0.477467183585357 0.296816374310417
vn 0.925129888368183 -0.247887692541735 0.287552397893336
vn 0.398865487027143 0.23028514528171 -0.887623273197127
vn 0.457102545471824 0.122480305225417 -0.880940314524808
vn -2.07600029600857e-08 0.156873795831683 -0.98761865726674
vn 0.230285065104528 0.398865546468806 -0.887623267287391
vn -5.56429823566322e-08 0.460570240123352 -0.887623261250355
vn -0.230285167851484 0.398865477970133 -0.88762327141151
vn -0.398865555524002 0.230285042526746 -0.887623269075898
vn -0.457102588143679 0.122480195295512 -0.880940307667167
vn 0.726805096165776 0.419621231439328 -0.543757642992538
vn 0.818794987016596 0.219395515300452 -0.530509544779867
vn 0.419621049710145 0.726805222167186 -0.543757614816255
vn -1.00269464779959e-07 0.839242320364062 -0.543757600139929
vn -0.419621260630063 0.726805110677656 -0.543757601068782
vn -0.726805222397047 0.419621051621964 -0.543757613033652
vn -0.818795043086532 0.219395359120016 -0.530509522830197
vn 0.826997526733902 0.47746738567496 -0.296816418671085
vn 0.925129840203484 0.247887849724217 -0.28755241735061
vn 0.477467157690492 0.826997664649424 -0.296816401149534
vn -1.20758262907897e-07 0.954934570783153 -0.296816383515432
vn -0.477467407978549 0.826997539522151 -0.296816347161933
vn -0.826997659331806 0.477467183585357 -0.296816374310417
vn -0.925129888368183 0.247887692541735 -0.287552397893336
g outside landmark_awning_half_round
f 1/1/1 2/2/2 3/3/3
f 1/1/1 3/3/3 4/4/4
f 1/1/1 4/4/4 5/5/5
f 1/1/1 5/5/5 6/6/6
f 1/1/1 6/6/6 7/7/7
f 1/1/1 7/7/7 8/8/8
f 2/2/2 9/9/9 10/10/10 3/3/3
f 3/3/3 10/10/10 11/11/11 4/4/4
f 4/4/4 11/11/11 12/12/12 5/5/5
f 5/5/5 12/12/12 13/13/13 6/6/6
f 6/6/6 13/13/13 14/14/14 7/7/7
f 7/7/7 14/14/14 15/15/15 8/8/8
f 9/9/9 16/16/16 17/17/17 10/10/10
f 10/10/10 17/17/17 18/18/18 11/11/11
f 11/11/11 18/18/18 19/19/19 12/12/12
f 12/12/12 19/19/19 20/20/20 13/13/13
f 13/13/13 20/20/20 21/21/21 14/14/14
f 14/14/14 21/21/21 22/22/22 15/15/15
g inside landmark_awning_half_round
f 3/3/23 2/2/24 1/1/25
f 4/4/26 3/3/23 1/1/25
f 5/5/27 4/4/26 1/1/25
f 6/6/28 5/5/27 1/1/25
f 7/7/29 6/6/28 1/1/25
f 8/8/30 7/7/29 1/1/25
f 3/3/23 10/10/31 9/9/32 2/2/24
f 4/4/26 11/11/33 10/10/31 3/3/23
f 5/5/27 12/12/34 11/11/33 4/4/26
f 6/6/28 13/13/35 12/12/34 5/5/27
f 7/7/29 14/14/36 13/13/35 6/6/28
f 8/8/30 15/15/37 14/14/36 7/7/29
f 10/10/31 17/17/38 16/16/39 9/9/32
f 11/11/33 18/18/40 17/17/38 10/10/31
f 12/12/34 19/19/41 18/18/40 11/11/33
f 13/13/35 20/20/42 19/19/41 12/12/34
f 14/14/36 21/21/43 20/20/42 13/13/35
f 15/15/37 22/22/44 21/21/43 14/14/36
